g A_Wheel_02_Body_LOD3
v -2.604348 -1.067808 0.3469529
v -2.354398 -1.067808 0.3469529
v -2.354398 -1.067808 -0.3469532
v -2.604348 -1.067808 -0.3469532
v -2.604348 -1.067808 -0.3469532
v -2.354398 -1.067808 -0.3469532
v -2.354398 -0.6599433 -0.9083313
v -2.604348 -0.6599433 -0.9083313
v -2.354398 -2.622604E-06 -1.122759
v -2.604348 -2.622604E-06 -1.122759
v -2.354398 0.6599431 -0.9083313
v -2.604348 0.6599431 -0.9083313
v -2.354398 1.067808 -0.3469532
v -2.604348 1.067808 -0.3469532
v -2.354398 1.067808 0.3469529
v -2.604348 1.067808 0.3469529
v -2.354398 0.6599431 0.9083312
v -2.604348 0.6599431 0.9083312
v -2.354398 -2.622604E-06 1.122759
v -2.604348 -2.622604E-06 1.122759
v -2.354398 -0.6599433 0.9083312
v -2.604348 -0.6599433 0.9083312
v -2.354398 -1.067808 0.3469529
v -2.604348 -1.067808 0.3469529
v -2.604348 -2.622604E-06 2.384186E-06
v -2.616465 -0.5212569 0.7174489
v -2.616465 -0.8434147 0.2740417
v -2.616465 -2.622604E-06 0.886817
v -2.616465 0.5212567 0.7174489
v -2.616465 0.8434145 0.2740417
v -2.616465 0.8434145 -0.2740417
v -2.616465 0.5212567 -0.7174491
v -2.616465 -2.622604E-06 -0.8868171
v -2.616465 -0.5212569 -0.7174491
v -2.616465 -0.8434147 -0.2740417
v -2.604348 -1.067808 0.3469529
v -2.604348 -1.067808 -0.3469532
v -2.616465 -0.8434147 -0.2740417
v -2.616465 -0.8434147 0.2740417
v -2.604348 -0.6599433 -0.9083313
v -2.616465 -0.5212569 -0.7174491
v -2.604348 -2.622604E-06 -1.122759
v -2.616465 -2.622604E-06 -0.8868171
v -2.604348 0.6599431 -0.9083313
v -2.616465 0.5212567 -0.7174491
v -2.604348 1.067808 -0.3469532
v -2.616465 0.8434145 -0.2740417
v -2.604348 1.067808 0.3469529
v -2.616465 0.8434145 0.2740417
v -2.604348 0.6599431 0.9083312
v -2.616465 0.5212567 0.7174489
v -2.604348 -2.622604E-06 1.122759
v -2.616465 -2.622604E-06 0.886817
v -2.604348 -0.6599433 0.9083312
v -2.616465 -0.5212569 0.7174489
v 2.604348 -1.067808 -0.3469532
v 2.616465 -0.8434147 -0.2740417
v 2.616465 -0.5212569 -0.7174491
v 2.604348 -0.6599433 -0.9083313
v 2.616465 -2.622604E-06 -0.8868171
v 2.604348 -2.622604E-06 -1.122759
v 2.616465 0.5212567 -0.7174491
v 2.604348 0.6599431 -0.9083313
v 2.616465 0.8434145 -0.2740417
v 2.604348 1.067808 -0.3469532
v 2.616465 0.8434145 0.2740417
v 2.604348 1.067808 0.3469529
v 2.616465 0.5212567 0.7174489
v 2.604348 0.6599431 0.9083312
v 2.616465 -2.622604E-06 0.886817
v 2.604348 -2.622604E-06 1.122759
v 2.616465 -0.5212569 0.7174489
v 2.604348 -0.6599433 0.9083312
v 2.616465 -0.8434147 0.2740417
v 2.604348 -1.067808 0.3469529
v 2.604348 -1.067808 -0.3469532
v 2.604348 -0.6599433 -0.9083313
v 2.354398 -0.6599433 -0.9083313
v 2.354398 -1.067808 -0.3469532
v 2.354398 -2.622604E-06 -1.122759
v 2.604348 -2.622604E-06 -1.122759
v 2.354398 0.6599431 -0.9083313
v 2.604348 0.6599431 -0.9083313
v 2.354398 1.067808 -0.3469532
v 2.604348 1.067808 -0.3469532
v 2.354398 1.067808 0.3469529
v 2.604348 1.067808 0.3469529
v 2.354398 0.6599431 0.9083312
v 2.604348 0.6599431 0.9083312
v 2.354398 -2.622604E-06 1.122759
v 2.604348 -2.622604E-06 1.122759
v 2.354398 -0.6599433 0.9083312
v 2.604348 -0.6599433 0.9083312
v 2.354398 -1.067808 0.3469529
v 2.604348 -1.067808 0.3469529
v 2.604348 -1.067808 0.3469529
v 2.604348 -1.067808 -0.3469532
v 2.354398 -1.067808 -0.3469532
v 2.354398 -1.067808 0.3469529
v 2.604348 -2.622604E-06 2.384186E-06
v 2.616465 -0.8434147 -0.2740417
v 2.616465 -0.8434147 0.2740417
v 2.616465 -0.5212569 0.7174489
v 2.616465 -2.622604E-06 0.886817
v 2.616465 0.5212567 0.7174489
v 2.616465 0.8434145 0.2740417
v 2.616465 0.8434145 -0.2740417
v 2.616465 0.5212567 -0.7174491
v 2.616465 -2.622604E-06 -0.8868171
v 2.616465 -0.5212569 -0.7174491
v 2.354398 -2.622604E-06 2.384186E-06
v 2.342281 -0.5212569 0.7174489
v 2.342281 -0.8434147 0.2740417
v 2.342281 -2.622604E-06 0.886817
v 2.342281 0.5212567 0.7174489
v 2.342281 0.8434145 0.2740417
v 2.342281 0.8434145 -0.2740417
v 2.342281 0.5212567 -0.7174491
v 2.342281 -2.622604E-06 -0.8868171
v 2.342281 -0.5212569 -0.7174491
v 2.342281 -0.8434147 -0.2740417
v 2.354398 -1.067808 0.3469529
v 2.354398 -1.067808 -0.3469532
v 2.342281 -0.8434147 -0.2740417
v 2.342281 -0.8434147 0.2740417
v 2.354398 -0.6599433 -0.9083313
v 2.342281 -0.5212569 -0.7174491
v 2.354398 -2.622604E-06 -1.122759
v 2.342281 -2.622604E-06 -0.8868171
v 2.354398 0.6599431 -0.9083313
v 2.342281 0.5212567 -0.7174491
v 2.354398 1.067808 -0.3469532
v 2.342281 0.8434145 -0.2740417
v 2.354398 1.067808 0.3469529
v 2.342281 0.8434145 0.2740417
v 2.354398 0.6599431 0.9083312
v 2.342281 0.5212567 0.7174489
v 2.354398 -2.622604E-06 1.122759
v 2.342281 -2.622604E-06 0.886817
v 2.354398 -0.6599433 0.9083312
v 2.342281 -0.5212569 0.7174489
v -2.354398 -1.067808 -0.3469532
v -2.342281 -0.8434147 -0.2740417
v -2.342281 -0.5212569 -0.7174491
v -2.354398 -0.6599433 -0.9083313
v -2.342281 -2.622604E-06 -0.8868171
v -2.354398 -2.622604E-06 -1.122759
v -2.342281 0.5212567 -0.7174491
v -2.354398 0.6599431 -0.9083313
v -2.342281 0.8434145 -0.2740417
v -2.354398 1.067808 -0.3469532
v -2.342281 0.8434145 0.2740417
v -2.354398 1.067808 0.3469529
v -2.342281 0.5212567 0.7174489
v -2.354398 0.6599431 0.9083312
v -2.342281 -2.622604E-06 0.886817
v -2.354398 -2.622604E-06 1.122759
v -2.342281 -0.5212569 0.7174489
v -2.354398 -0.6599433 0.9083312
v -2.342281 -0.8434147 0.2740417
v -2.354398 -1.067808 0.3469529
v -2.354398 -2.622604E-06 2.384186E-06
v -2.342281 -0.8434147 -0.2740417
v -2.342281 -0.8434147 0.2740417
v -2.342281 -0.5212569 0.7174489
v -2.342281 -2.622604E-06 0.886817
v -2.342281 0.5212567 0.7174489
v -2.342281 0.8434145 0.2740417
v -2.342281 0.8434145 -0.2740417
v -2.342281 0.5212567 -0.7174491
v -2.342281 -2.622604E-06 -0.8868171
v -2.342281 -0.5212569 -0.7174491
vt 1.390772 0.5479885
vt 1.390772 0.545969
vt 1.336959 0.545969
vt 1.336959 0.5479885
vt 1.336959 0.5479885
vt 1.336959 0.545969
vt 1.342936 0.545969
vt 1.342936 0.5479885
vt 1.348904 0.545969
vt 1.348904 0.5479885
vt 1.354882 0.545969
vt 1.354882 0.5479885
vt 1.360859 0.545969
vt 1.360859 0.5479885
vt 1.366827 0.545969
vt 1.366827 0.5479885
vt 1.372804 0.545969
vt 1.372804 0.5479885
vt 1.37879 0.545969
vt 1.37879 0.5479885
vt 1.384785 0.545969
vt 1.384785 0.5479885
vt 1.390772 0.545969
vt 1.390772 0.5479885
vt 1.266837 0.1311026
vt 1.199621 0.2238203
vt 1.15808 0.1665214
vt 1.266837 0.2457093
vt 1.334206 0.2238203
vt 1.375838 0.1665214
vt 1.375838 0.09576511
vt 1.334206 0.03858399
vt 1.266837 0.01674026
vt 1.199621 0.03858399
vt 1.15808 0.09576511
vt 1.286869 0.581877
vt 1.286869 0.5764976
vt 1.288608 0.5770681
vt 1.288608 0.5813155
vt 1.290021 0.5721506
vt 1.291098 0.5736268
vt 1.295138 0.5704933
vt 1.295138 0.5723226
vt 1.300254 0.5721506
vt 1.299177 0.5736268
vt 1.303415 0.5764976
vt 1.301676 0.5770681
vt 1.303415 0.581877
vt 1.301676 0.5813155
vt 1.300254 0.586233
vt 1.299177 0.5847478
vt 1.295138 0.5878994
vt 1.295138 0.5860701
vt 1.290021 0.586233
vt 1.291098 0.5847478
vt 0.2868699 -0.4235018
vt 0.2886087 -0.4229403
vt 0.2910992 -0.4263726
vt 0.2900214 -0.4278488
vt 0.2951382 -0.4276767
vt 0.2951382 -0.4295061
vt 0.2991773 -0.4263726
vt 0.3002551 -0.4278488
vt 0.3016769 -0.4229403
vt 0.3034157 -0.4235018
vt 0.3016769 -0.4186839
vt 0.3034157 -0.4181224
vt 0.2991773 -0.4152516
vt 0.3002551 -0.4137663
vt 0.2951382 -0.4139384
vt 0.2951382 -0.4121
vt 0.2910992 -0.4152516
vt 0.2900214 -0.4137663
vt 0.2886087 -0.4186839
vt 0.2868699 -0.4181224
vt 0.33696 -0.4520108
vt 0.3429371 -0.4520108
vt 0.3429371 -0.4540304
vt 0.33696 -0.4540304
vt 0.3489052 -0.4540304
vt 0.3489052 -0.4520108
vt 0.3548822 -0.4540304
vt 0.3548822 -0.4520108
vt 0.3608503 -0.4540304
vt 0.3608503 -0.4520108
vt 0.3668275 -0.4540304
vt 0.3668275 -0.4520108
vt 0.3728045 -0.4540304
vt 0.3728045 -0.4520108
vt 0.3787907 -0.4540304
vt 0.3787907 -0.4520108
vt 0.384786 -0.4540304
vt 0.384786 -0.4520108
vt 0.3907721 -0.4540304
vt 0.3907721 -0.4520108
vt 0.3907721 -0.4520108
vt 0.33696 -0.4520108
vt 0.33696 -0.4540304
vt 0.3907721 -0.4540304
vt 0.2668375 -0.8688968
vt 0.158072 -0.9042343
vt 0.158072 -0.8334779
vt 0.199622 -0.7761791
vt 0.2668375 -0.7542901
vt 0.3342068 -0.7761791
vt 0.3758384 -0.8334779
vt 0.3758384 -0.9042343
vt 0.3342068 -0.9614154
vt 0.2668375 -0.9832591
vt 0.199622 -0.9614154
vt 1.266837 0.1311026
vt 1.199621 0.2238203
vt 1.15808 0.1665214
vt 1.266837 0.2457093
vt 1.334206 0.2238203
vt 1.375838 0.1665214
vt 1.375838 0.09576511
vt 1.334206 0.03858399
vt 1.266837 0.01674026
vt 1.199621 0.03858399
vt 1.15808 0.09576511
vt 1.286869 0.581877
vt 1.286869 0.5764976
vt 1.288608 0.5770681
vt 1.288608 0.5813155
vt 1.290021 0.5721506
vt 1.291098 0.5736268
vt 1.295138 0.5704933
vt 1.295138 0.5723226
vt 1.300254 0.5721506
vt 1.299177 0.5736268
vt 1.303415 0.5764976
vt 1.301676 0.5770681
vt 1.303415 0.581877
vt 1.301676 0.5813155
vt 1.300254 0.586233
vt 1.299177 0.5847478
vt 1.295138 0.5878994
vt 1.295138 0.5860701
vt 1.290021 0.586233
vt 1.291098 0.5847478
vt 0.2868699 -0.4235018
vt 0.2886087 -0.4229403
vt 0.2910992 -0.4263726
vt 0.2900214 -0.4278488
vt 0.2951382 -0.4276767
vt 0.2951382 -0.4295061
vt 0.2991773 -0.4263726
vt 0.3002551 -0.4278488
vt 0.3016769 -0.4229403
vt 0.3034157 -0.4235018
vt 0.3016769 -0.4186839
vt 0.3034157 -0.4181224
vt 0.2991773 -0.4152516
vt 0.3002551 -0.4137663
vt 0.2951382 -0.4139384
vt 0.2951382 -0.4121
vt 0.2910992 -0.4152516
vt 0.2900214 -0.4137663
vt 0.2886087 -0.4186839
vt 0.2868699 -0.4181224
vt 0.2668375 -0.8688968
vt 0.158072 -0.9042343
vt 0.158072 -0.8334779
vt 0.199622 -0.7761791
vt 0.2668375 -0.7542901
vt 0.3342068 -0.7761791
vt 0.3758384 -0.8334779
vt 0.3758384 -0.9042343
vt 0.3342068 -0.9614154
vt 0.2668375 -0.9832591
vt 0.199622 -0.9614154
vn -0.0009775162 -0.9511237 0.3088086
vn -0.0009775162 -0.9511237 0.3088086
vn -0.0009775162 -0.9511237 -0.3088086
vn -0.0009775162 -0.9511237 -0.3088086
vn -0.0009775162 -0.9511237 -0.3088086
vn -0.0009775162 -0.9511237 -0.3088086
vn -0.0009775162 -0.5874875 -0.8092327
vn -0.0009775162 -0.5874875 -0.8092327
vn -0.0009775162 0.0009775162 -0.999999
vn -0.0009775162 0.0009775162 -0.999999
vn -0.0009775162 0.5874875 -0.8092327
vn -0.0009775162 0.5874875 -0.8092327
vn -0.0009775162 0.9511237 -0.3088086
vn -0.0009775162 0.9511237 -0.3088086
vn -0.0009775162 0.9511237 0.3088086
vn -0.0009775162 0.9511237 0.3088086
vn -0.0009775162 0.5874875 0.8092327
vn -0.0009775162 0.5874875 0.8092327
vn -0.0009775162 0.0009775162 0.999999
vn -0.0009775162 0.0009775162 0.999999
vn -0.0009775162 -0.5874875 0.8092327
vn -0.0009775162 -0.5874875 0.8092327
vn -0.0009775162 -0.9511237 0.3088086
vn -0.0009775162 -0.9511237 0.3088086
vn -0.9999995 0.0009775162 0
vn -0.9999614 0.00879731 0
vn -0.9999193 0.01270669 0
vn -0.9999995 0.0009775162 0
vn -0.9999614 -0.00879731 0
vn -0.9999193 -0.01270669 0
vn -0.9999193 -0.01270669 0
vn -0.9999614 -0.00879731 0
vn -0.9999995 0.0009775162 0
vn -0.9999614 0.00879731 0
vn -0.9999193 0.01270669 0
vn -0.9980445 -0.04789829 0.04016164
vn -0.9980445 -0.04789829 -0.04016164
vn -0.9980445 -0.04789829 -0.04016164
vn -0.9980445 -0.04789829 0.04016164
vn -0.9980445 -0.030303 -0.05467112
vn -0.9980445 -0.030303 -0.05467112
vn -0.9980445 0.0009775162 -0.06249999
vn -0.9980445 0.0009775162 -0.06249999
vn -0.9980445 0.030303 -0.05467112
vn -0.9980445 0.030303 -0.05467112
vn -0.9980445 0.04789829 -0.04016164
vn -0.9980445 0.04789829 -0.04016164
vn -0.9980445 0.04789829 0.04016164
vn -0.9980445 0.04789829 0.04016164
vn -0.9980445 0.030303 0.05467112
vn -0.9980445 0.030303 0.05467112
vn -0.9980445 0.0009775162 0.06249999
vn -0.9980445 0.0009775162 0.06249999
vn -0.9980445 -0.030303 0.05467112
vn -0.9980445 -0.030303 0.05467112
vn 0.9980445 -0.04789829 -0.04016164
vn 0.9980445 -0.04789829 -0.04016164
vn 0.9980445 -0.030303 -0.05467112
vn 0.9980445 -0.030303 -0.05467112
vn 0.9980445 0.0009775162 -0.06249999
vn 0.9980445 0.0009775162 -0.06249999
vn 0.9980445 0.030303 -0.05467112
vn 0.9980445 0.030303 -0.05467112
vn 0.9980445 0.04789829 -0.04016164
vn 0.9980445 0.04789829 -0.04016164
vn 0.9980445 0.04789829 0.04016164
vn 0.9980445 0.04789829 0.04016164
vn 0.9980445 0.030303 0.05467112
vn 0.9980445 0.030303 0.05467112
vn 0.9980445 0.0009775162 0.06249999
vn 0.9980445 0.0009775162 0.06249999
vn 0.9980445 -0.030303 0.05467112
vn 0.9980445 -0.030303 0.05467112
vn 0.9980445 -0.04789829 0.04016164
vn 0.9980445 -0.04789829 0.04016164
vn -0.0009775162 -0.9511237 -0.3088086
vn -0.0009775162 -0.5874875 -0.8092327
vn -0.0009775162 -0.5874875 -0.8092327
vn -0.0009775162 -0.9511237 -0.3088086
vn -0.0009775162 0.0009775162 -0.999999
vn -0.0009775162 0.0009775162 -0.999999
vn -0.0009775162 0.5874875 -0.8092327
vn -0.0009775162 0.5874875 -0.8092327
vn -0.0009775162 0.9511237 -0.3088086
vn -0.0009775162 0.9511237 -0.3088086
vn -0.0009775162 0.9511237 0.3088086
vn -0.0009775162 0.9511237 0.3088086
vn -0.0009775162 0.5874875 0.8092327
vn -0.0009775162 0.5874875 0.8092327
vn -0.0009775162 0.0009775162 0.999999
vn -0.0009775162 0.0009775162 0.999999
vn -0.0009775162 -0.5874875 0.8092327
vn -0.0009775162 -0.5874875 0.8092327
vn -0.0009775162 -0.9511237 0.3088086
vn -0.0009775162 -0.9511237 0.3088086
vn -0.0009775162 -0.9511237 0.3088086
vn -0.0009775162 -0.9511237 -0.3088086
vn -0.0009775162 -0.9511237 -0.3088086
vn -0.0009775162 -0.9511237 0.3088086
vn 0.9999995 0.0009775162 0
vn 0.9999193 0.01270669 0
vn 0.9999193 0.01270669 0
vn 0.9999614 0.00879731 0
vn 0.9999995 0.0009775162 0
vn 0.9999614 -0.00879731 0
vn 0.9999193 -0.01270669 0
vn 0.9999193 -0.01270669 0
vn 0.9999614 -0.00879731 0
vn 0.9999995 0.0009775162 0
vn 0.9999614 0.00879731 0
vn -0.9999995 0.0009775162 0
vn -0.9999614 0.00879731 0
vn -0.9999193 0.01270669 0
vn -0.9999995 0.0009775162 0
vn -0.9999614 -0.00879731 0
vn -0.9999193 -0.01270669 0
vn -0.9999193 -0.01270669 0
vn -0.9999614 -0.00879731 0
vn -0.9999995 0.0009775162 0
vn -0.9999614 0.00879731 0
vn -0.9999193 0.01270669 0
vn -0.9980445 -0.04789829 0.04016164
vn -0.9980445 -0.04789829 -0.04016164
vn -0.9980445 -0.04789829 -0.04016164
vn -0.9980445 -0.04789829 0.04016164
vn -0.9980445 -0.030303 -0.05467112
vn -0.9980445 -0.030303 -0.05467112
vn -0.9980445 0.0009775162 -0.06249999
vn -0.9980445 0.0009775162 -0.06249999
vn -0.9980445 0.030303 -0.05467112
vn -0.9980445 0.030303 -0.05467112
vn -0.9980445 0.04789829 -0.04016164
vn -0.9980445 0.04789829 -0.04016164
vn -0.9980445 0.04789829 0.04016164
vn -0.9980445 0.04789829 0.04016164
vn -0.9980445 0.030303 0.05467112
vn -0.9980445 0.030303 0.05467112
vn -0.9980445 0.0009775162 0.06249999
vn -0.9980445 0.0009775162 0.06249999
vn -0.9980445 -0.030303 0.05467112
vn -0.9980445 -0.030303 0.05467112
vn 0.9980445 -0.04789829 -0.04016164
vn 0.9980445 -0.04789829 -0.04016164
vn 0.9980445 -0.030303 -0.05467112
vn 0.9980445 -0.030303 -0.05467112
vn 0.9980445 0.0009775162 -0.06249999
vn 0.9980445 0.0009775162 -0.06249999
vn 0.9980445 0.030303 -0.05467112
vn 0.9980445 0.030303 -0.05467112
vn 0.9980445 0.04789829 -0.04016164
vn 0.9980445 0.04789829 -0.04016164
vn 0.9980445 0.04789829 0.04016164
vn 0.9980445 0.04789829 0.04016164
vn 0.9980445 0.030303 0.05467112
vn 0.9980445 0.030303 0.05467112
vn 0.9980445 0.0009775162 0.06249999
vn 0.9980445 0.0009775162 0.06249999
vn 0.9980445 -0.030303 0.05467112
vn 0.9980445 -0.030303 0.05467112
vn 0.9980445 -0.04789829 0.04016164
vn 0.9980445 -0.04789829 0.04016164
vn 0.9999995 0.0009775162 0
vn 0.9999193 0.01270669 0
vn 0.9999193 0.01270669 0
vn 0.9999614 0.00879731 0
vn 0.9999995 0.0009775162 0
vn 0.9999614 -0.00879731 0
vn 0.9999193 -0.01270669 0
vn 0.9999193 -0.01270669 0
vn 0.9999614 -0.00879731 0
vn 0.9999995 0.0009775162 0
vn 0.9999614 0.00879731 0
g A_Wheel_02_Body_LOD3_0
f 3/3/3 2/2/2 1/1/1
f 4/4/4 3/3/3 1/1/1
f 7/7/7 6/6/6 5/5/5
f 8/8/8 7/7/7 5/5/5
f 9/9/9 7/7/7 8/8/8
f 10/10/10 9/9/9 8/8/8
f 11/11/11 9/9/9 10/10/10
f 12/12/12 11/11/11 10/10/10
f 13/13/13 11/11/11 12/12/12
f 14/14/14 13/13/13 12/12/12
f 15/15/15 13/13/13 14/14/14
f 16/16/16 15/15/15 14/14/14
f 17/17/17 15/15/15 16/16/16
f 18/18/18 17/17/17 16/16/16
f 19/19/19 17/17/17 18/18/18
f 20/20/20 19/19/19 18/18/18
f 21/21/21 19/19/19 20/20/20
f 22/22/22 21/21/21 20/20/20
f 23/23/23 21/21/21 22/22/22
f 24/24/24 23/23/23 22/22/22
f 27/27/27 26/26/26 25/25/25
f 26/26/26 28/28/28 25/25/25
f 28/28/28 29/29/29 25/25/25
f 29/29/29 30/30/30 25/25/25
f 30/30/30 31/31/31 25/25/25
f 31/31/31 32/32/32 25/25/25
f 32/32/32 33/33/33 25/25/25
f 33/33/33 34/34/34 25/25/25
f 34/34/34 35/35/35 25/25/25
f 35/35/35 27/27/27 25/25/25
f 38/38/38 37/37/37 36/36/36
f 39/39/39 38/38/38 36/36/36
f 40/40/40 37/37/37 38/38/38
f 41/41/41 40/40/40 38/38/38
f 42/42/42 40/40/40 41/41/41
f 43/43/43 42/42/42 41/41/41
f 44/44/44 42/42/42 43/43/43
f 45/45/45 44/44/44 43/43/43
f 46/46/46 44/44/44 45/45/45
f 47/47/47 46/46/46 45/45/45
f 48/48/48 46/46/46 47/47/47
f 49/49/49 48/48/48 47/47/47
f 50/50/50 48/48/48 49/49/49
f 51/51/51 50/50/50 49/49/49
f 52/52/52 50/50/50 51/51/51
f 53/53/53 52/52/52 51/51/51
f 54/54/54 52/52/52 53/53/53
f 55/55/55 54/54/54 53/53/53
f 36/36/36 54/54/54 55/55/55
f 39/39/39 36/36/36 55/55/55
f 58/58/58 57/57/57 56/56/56
f 59/59/59 58/58/58 56/56/56
f 60/60/60 58/58/58 59/59/59
f 61/61/61 60/60/60 59/59/59
f 62/62/62 60/60/60 61/61/61
f 63/63/63 62/62/62 61/61/61
f 64/64/64 62/62/62 63/63/63
f 65/65/65 64/64/64 63/63/63
f 66/66/66 64/64/64 65/65/65
f 67/67/67 66/66/66 65/65/65
f 68/68/68 66/66/66 67/67/67
f 69/69/69 68/68/68 67/67/67
f 70/70/70 68/68/68 69/69/69
f 71/71/71 70/70/70 69/69/69
f 72/72/72 70/70/70 71/71/71
f 73/73/73 72/72/72 71/71/71
f 74/74/74 72/72/72 73/73/73
f 75/75/75 74/74/74 73/73/73
f 75/75/75 56/56/56 74/74/74
f 56/56/56 57/57/57 74/74/74
f 78/78/78 77/77/77 76/76/76
f 79/79/79 78/78/78 76/76/76
f 78/78/78 80/80/80 77/77/77
f 80/80/80 81/81/81 77/77/77
f 80/80/80 82/82/82 81/81/81
f 82/82/82 83/83/83 81/81/81
f 82/82/82 84/84/84 83/83/83
f 84/84/84 85/85/85 83/83/83
f 84/84/84 86/86/86 85/85/85
f 86/86/86 87/87/87 85/85/85
f 86/86/86 88/88/88 87/87/87
f 88/88/88 89/89/89 87/87/87
f 88/88/88 90/90/90 89/89/89
f 90/90/90 91/91/91 89/89/89
f 90/90/90 92/92/92 91/91/91
f 92/92/92 93/93/93 91/91/91
f 92/92/92 94/94/94 93/93/93
f 94/94/94 95/95/95 93/93/93
f 98/98/98 97/97/97 96/96/96
f 99/99/99 98/98/98 96/96/96
f 102/102/102 101/101/101 100/100/100
f 103/103/103 102/102/102 100/100/100
f 104/104/104 103/103/103 100/100/100
f 105/105/105 104/104/104 100/100/100
f 106/106/106 105/105/105 100/100/100
f 107/107/107 106/106/106 100/100/100
f 108/108/108 107/107/107 100/100/100
f 109/109/109 108/108/108 100/100/100
f 110/110/110 109/109/109 100/100/100
f 101/101/101 110/110/110 100/100/100
f 113/113/113 112/112/112 111/111/111
f 112/112/112 114/114/114 111/111/111
f 114/114/114 115/115/115 111/111/111
f 115/115/115 116/116/116 111/111/111
f 116/116/116 117/117/117 111/111/111
f 117/117/117 118/118/118 111/111/111
f 118/118/118 119/119/119 111/111/111
f 119/119/119 120/120/120 111/111/111
f 120/120/120 121/121/121 111/111/111
f 121/121/121 113/113/113 111/111/111
f 124/124/124 123/123/123 122/122/122
f 125/125/125 124/124/124 122/122/122
f 126/126/126 123/123/123 124/124/124
f 127/127/127 126/126/126 124/124/124
f 128/128/128 126/126/126 127/127/127
f 129/129/129 128/128/128 127/127/127
f 130/130/130 128/128/128 129/129/129
f 131/131/131 130/130/130 129/129/129
f 132/132/132 130/130/130 131/131/131
f 133/133/133 132/132/132 131/131/131
f 134/134/134 132/132/132 133/133/133
f 135/135/135 134/134/134 133/133/133
f 136/136/136 134/134/134 135/135/135
f 137/137/137 136/136/136 135/135/135
f 138/138/138 136/136/136 137/137/137
f 139/139/139 138/138/138 137/137/137
f 140/140/140 138/138/138 139/139/139
f 141/141/141 140/140/140 139/139/139
f 122/122/122 140/140/140 141/141/141
f 125/125/125 122/122/122 141/141/141
f 144/144/144 143/143/143 142/142/142
f 145/145/145 144/144/144 142/142/142
f 146/146/146 144/144/144 145/145/145
f 147/147/147 146/146/146 145/145/145
f 148/148/148 146/146/146 147/147/147
f 149/149/149 148/148/148 147/147/147
f 150/150/150 148/148/148 149/149/149
f 151/151/151 150/150/150 149/149/149
f 152/152/152 150/150/150 151/151/151
f 153/153/153 152/152/152 151/151/151
f 154/154/154 152/152/152 153/153/153
f 155/155/155 154/154/154 153/153/153
f 156/156/156 154/154/154 155/155/155
f 157/157/157 156/156/156 155/155/155
f 158/158/158 156/156/156 157/157/157
f 159/159/159 158/158/158 157/157/157
f 160/160/160 158/158/158 159/159/159
f 161/161/161 160/160/160 159/159/159
f 161/161/161 142/142/142 160/160/160
f 142/142/142 143/143/143 160/160/160
f 164/164/164 163/163/163 162/162/162
f 165/165/165 164/164/164 162/162/162
f 166/166/166 165/165/165 162/162/162
f 167/167/167 166/166/166 162/162/162
f 168/168/168 167/167/167 162/162/162
f 169/169/169 168/168/168 162/162/162
f 170/170/170 169/169/169 162/162/162
f 171/171/171 170/170/170 162/162/162
f 172/172/172 171/171/171 162/162/162
f 163/163/163 172/172/172 162/162/162
