g AirCurrent_03
v -2.66805 -0.01701212 2.402319
v -1.505022 -0.01701212 3.256611
v -2.045715 1.597052 2.982777
v -2.700897 2.404084 2.258687
v -2.846062 5.686244 2.392827
v -1.640203 2.404084 3.207122
v -0.1091971 -0.01701212 3.622822
v -1.236542 3.211087 3.435578
v -1.784644 7.694361 3.244543
v -0.2877016 5.750087 3.727326
v -0.2576613 2.404084 3.537477
v 0.7255309 1.597052 3.588528
v 1.317275 -0.01701212 3.404525
v 1.163023 2.404084 3.458094
v 2.563246 -0.01701212 2.676471
v 1.602107 3.211087 3.331856
v 1.056956 7.873242 3.574579
v 2.463981 5.83358 2.860706
v 2.374237 2.404084 2.714094
v 3.113432 1.597052 2.057321
v 3.417538 -0.01701212 1.513443
v 3.322671 2.404084 1.653399
v 3.78375 -0.01701212 0.117619
v 3.535991 3.211087 1.251301
v 3.298593 8.040487 1.795178
v 3.797063 5.887872 0.3005509
v 3.653026 2.404084 0.2708292
v 3.719213 1.597052 -0.7139258
v 3.565453 -0.01701212 -1.308854
v 3.573643 2.404084 -1.149826
v 2.837399 -0.01701212 -2.554796
v 3.432269 3.211087 -1.587347
v 3.627153 8.098137 -1.051284
v 2.930616 5.8811 -2.45336
v 2.829614 2.404084 -2.36104
v 2.187976 1.597052 -3.101827
v 1.674371 -0.01701212 -3.409088
v 1.768919 2.404084 -3.309475
v 0.2785463 -0.01701212 -3.7753
v 1.351714 3.211087 -3.521232
v 1.850155 8.012445 -3.297407
v 0.3722553 5.817257 -3.787859
v 0.3863783 2.404084 -3.639829
v -0.5832701 1.597052 -3.707608
v -1.147926 -0.01701212 -3.557002
v -1.034306 2.404084 -3.560446
v -2.393897 -0.01701212 -2.828948
v -1.486934 3.211087 -3.417509
v -0.9914455 7.833564 -3.627443
v -2.379427 5.733736 -2.921239
v -2.24552 2.404084 -2.816446
v -2.971171 1.597052 -2.176371
v -3.248189 -0.01701212 -1.66592
v -3.193954 2.404084 -1.755751
v -3.614401 -0.01701212 -0.2700958
v -3.420818 3.211087 -1.336955
v -3.233082 7.666317 -1.848042
v -3.71248 5.679472 -0.3611133
v -3.524309 2.404084 -0.3731816
v -3.088293 14.33132 -2.347756
v -1.969399 14.53897 -3.367298
v -2.998694 23.83749 -2.832797
v -1.701874 24.25276 -3.769482
v -3.863086 23.57442 -1.480441
v -3.755051 14.19979 -0.9859076
v -0.539454 14.7959 -3.856361
v -0.1433759 24.76665 -4.109677
v 0.9693828 15.06091 -3.782187
v 2.324893 15.29275 -3.111985
v 3.339804 15.45991 -1.987564
v 3.826842 15.53084 -0.5507019
v 3.753334 15.50219 0.965312
v 3.086576 15.37066 2.327132
v 1.967682 15.16304 3.346673
v 0.5377367 14.90611 3.835737
v -0.9711003 14.64107 3.761592
v -2.326611 14.40923 3.09139
v -3.341522 14.2421 1.966969
v -3.82856 14.17117 0.5301065
v -4.124244 23.51718 0.1067085
v -3.863086 23.57442 -1.480441
v -3.755051 14.19979 -0.9859076
v -3.78813 23.65902 1.67907
v -3.561643 7.608669 0.9984198
v -3.317096 3.211087 1.501694
v -3.71248 5.679472 -0.3611133
v -3.444926 2.404084 1.047474
v -3.576952 1.597052 0.5948749
v -3.524309 2.404084 -0.3731816
v -3.614401 -0.01701212 -0.2700958
v -3.396103 -0.01701212 1.156377
v -2.860677 23.99334 2.986944
v -1.520968 24.45699 3.858224
v 0.05182743 24.98703 4.120684
v 1.610355 25.50093 3.78049
v 2.907174 25.91619 2.843805
v 3.771537 26.17926 1.491449
v 4.032695 26.23651 -0.09570074
v 3.69661 26.09464 -1.668062
v 2.769128 25.76035 -2.975936
v 1.429419 25.29667 -3.847216
vt 0.1287709 0
vt 0.1906462 0
vt 0.170016 0.06073091
vt 0.1283589 0.09109636
vt 0.1366598 0.223331
vt 0.1906462 0.09109636
vt 0.2525215 0
vt 0.2112612 0.1214618
vt 0.1958038 0.2692454
vt 0.2607614 0.223331
vt 0.2525215 0.09109636
vt 0.2937667 0.06073091
vt 0.3143816 0
vt 0.3143816 0.09109636
vt 0.376257 0
vt 0.3350118 0.1214618
vt 0.3195392 0.2692454
vt 0.3845121 0.223331
vt 0.376257 0.09109636
vt 0.4175021 0.06073091
vt 0.4381323 0
vt 0.4381323 0.09109636
vt 0.5000076 0
vt 0.4587472 0.1214618
vt 0.4432898 0.2692454
vt 0.5082475 0.223331
vt 0.5000076 0.09109636
vt 0.5412528 0.06073091
vt 0.5618677 0
vt 0.5618677 0.09109636
vt 0.6237431 0
vt 0.5824979 0.1214618
vt 0.5670252 0.2692454
vt 0.6319982 0.223331
vt 0.6237431 0.09109636
vt 0.6649882 0.06073091
vt 0.6856184 0
vt 0.6856184 0.09109636
vt 0.7474784 0
vt 0.7062333 0.1214618
vt 0.6907759 0.2692454
vt 0.7557335 0.223331
vt 0.7474784 0.09109636
vt 0.7887388 0.06073091
vt 0.8093538 0
vt 0.8093538 0.09109636
vt 0.8712291 0
vt 0.8299839 0.1214618
vt 0.8145114 0.2692454
vt 0.8801861 0.223331
vt 0.8716411 0.09109636
vt 0.9141527 0.06073091
vt 0.935607 0
vt 0.935607 0.09109636
vt 1 0
vt 0.9570764 0.1214618
vt 0.9409781 0.2692454
vt 1 0.223331
vt 1 0.09109636
vt 0.935607 0.591104
vt 0.8718547 0.591104
vt 0.935607 1
vt 0.8712291 1
vt 1 1
vt 1 0.591104
vt 0.8093538 0.591104
vt 0.8093538 1
vt 0.7474784 0.591104
vt 0.6856184 0.591104
vt 0.6237431 0.591104
vt 0.5618677 0.591104
vt 0.5000076 0.591104
vt 0.4381323 0.591104
vt 0.376257 0.591104
vt 0.3143816 0.591104
vt 0.2525215 0.591104
vt 0.1906462 0.591104
vt 0.1281453 0.591104
vt 0.06439307 0.591104
vt 0.06439307 1
vt 0 1
vt 0 0.591104
vt 0.1287709 1
vt 0.06974899 0.2692454
vt 0.08584726 0.1214618
vt 0 0.223331
vt 0.06439307 0.09109636
vt 0.04292363 0.06073091
vt 0 0.09109636
vt 0 0
vt 0.06439307 0
vt 0.1906462 1
vt 0.2525215 1
vt 0.3143816 1
vt 0.376257 1
vt 0.4381323 1
vt 0.5000076 1
vt 0.5618677 1
vt 0.6237431 1
vt 0.6856184 1
vt 0.7474784 1
vn 0.8118774 0.01277 -0.5836883
vn 0.496055 0.00692147 -0.8682635
vn 0.5564902 0.01277 -0.8307561
vn 0.768988 0.02056807 -0.6389323
vn 0.7572908 0.02251762 -0.6526895
vn 0.4531655 0.01666909 -0.8912705
vn 0.1626869 0.01277 -0.9865951
vn 0.35374 0.02251762 -0.9350727
vn 0.4785093 0.02056807 -0.8778415
vn 0.07300889 0.01861864 -0.9971575
vn 0.09055459 0.01861864 -0.9957175
vn -0.1940755 0.00692147 -0.9809622
vn -0.2642582 0.001072884 -0.9644514
vn -0.3090972 0.01082045 -0.9509689
vn -0.5839797 0.003022373 -0.8117626
vn -0.4104723 0.01666909 -0.9117207
vn -0.2837535 0.01666909 -0.9587523
vn -0.6541625 0.01277 -0.7562462
vn -0.6405159 0.01082045 -0.7678687
vn -0.8315689 -0.0008766055 -0.5554209
vn -0.8686098 -0.008674681 -0.4954207
vn -0.8920041 0.003022373 -0.4520172
vn -0.9875306 -0.006725192 -0.1572831
vn -0.9348935 0.008871019 -0.3548174
vn -0.8783575 0.01082045 -0.4778818
vn -0.9972782 0.00692147 -0.07340568
vn -0.9953287 0.003022373 -0.09649664
vn -0.981682 -0.008674681 0.1903291
vn -0.9641363 -0.01647282 0.2648959
vn -0.9504897 -0.004775643 0.3107194
vn -0.8120736 -0.01257378 0.5834195
vn -0.9114993 0.003022373 0.4112905
vn -0.9602373 0.00692147 0.2790992
vn -0.7574871 0.00692147 0.6528134
vn -0.7691843 -0.0008766055 0.6390264
vn -0.5566865 -0.01257378 0.8306276
vn -0.4962513 -0.01842231 0.8679835
vn -0.4533618 -0.004775643 0.8913137
vn -0.1628831 -0.01062423 0.9865882
vn -0.3539363 0.004971921 0.9352564
vn -0.4806551 0.008871019 0.8768649
vn -0.07515472 0.01082045 0.9971132
vn -0.09075087 0.001072884 0.9958731
vn 0.1938792 -0.006725192 0.9810023
vn 0.264062 -0.01452327 0.9643964
vn 0.308901 0.001072884 0.9510936
vn 0.5837834 -0.002826154 0.8119045
vn 0.4102761 0.01082045 0.9118972
vn 0.2816077 0.01277 0.9594446
vn 0.6520167 0.01471955 0.7580617
vn 0.6403196 0.008871019 0.7680574
vn 0.8313726 0.001072884 0.5557144
vn 0.8684136 -0.004775643 0.4958176
vn 0.8918078 0.008871019 0.4523275
vn 0.9873343 0.00692147 0.1585026
vn 0.9346973 0.01666909 0.3550537
vn 0.8781611 0.01861864 0.4780025
vn 0.9970819 0.02056807 0.07351571
vn 0.9951324 0.01666909 0.09712695
vn 0.8021298 0.02251762 0.596725
vn 0.5116512 0.02056807 0.858947
vn 0.7611899 0.02641672 0.6479908
vn 0.4531655 0.02446717 0.8910905
vn 0.9502934 0.02641672 0.3102331
vn 0.9697886 0.02446717 0.2427167
vn 0.1431917 0.01861864 0.9895198
vn 0.07495844 0.02251762 0.9969324
vn -0.2486621 0.01666909 0.9684469
vn -0.5995759 0.01471955 0.8001825
vn -0.8588622 0.01277 0.5120475
vn -0.9894801 0.01277 0.1441044
vn -0.9699849 0.01277 -0.2428294
vn -0.8062251 0.01471955 -0.5914257
vn -0.517696 0.01861864 -0.8553621
vn -0.151186 0.02056807 -0.9882913
vn 0.2406677 0.02251762 -0.9703463
vn 0.5954806 0.02446717 -0.8029971
vn 0.8586659 0.02446717 -0.5119513
vn 0.9892839 0.02446717 -0.1439402
vn 0.9970819 0.02836615 -0.0708729
vn 0.9502934 0.02641672 0.3102331
vn 0.9697886 0.02446717 0.2427167
vn 0.8898582 0.02836615 -0.4553544
vn 0.960041 0.02056807 -0.2791024
vn 0.911303 0.02251762 -0.4111202
vn 0.9970819 0.02056807 0.07351571
vn 0.9502934 0.01666909 -0.3109092
vn 0.9814858 0.01082045 -0.1912291
vn 0.9951324 0.01666909 0.09712695
vn 0.9873343 0.00692147 0.1585026
vn 0.9639401 0.004971921 -0.2660729
vn 0.6461681 0.02836615 -0.7626678
vn 0.3030524 0.02641672 -0.9526077
vn -0.08685178 0.02446717 -0.9959207
vn -0.4611599 0.02056807 -0.8870786
vn -0.7652852 0.01861864 -0.6434221
vn -0.9524392 0.01666909 -0.3042723
vn -0.9972782 0.01666909 0.0718223
vn -0.8920041 0.01666909 0.4517199
vn -0.6522129 0.01861864 0.7578071
vn -0.3129963 0.02056807 0.9495316
g AirCurrent_03_0
f 3/3/3 2/2/2 1/1/1
f 4/4/4 3/3/3 1/1/1
f 3/3/3 4/4/4 5/5/5
f 6/6/6 3/3/3 5/5/5
f 3/3/3 6/6/6 7/7/7
f 2/2/2 3/3/3 7/7/7
f 8/8/8 6/6/6 5/5/5
f 6/6/6 8/8/8 7/7/7
f 9/9/9 8/8/8 5/5/5
f 8/8/8 9/9/9 10/10/10
f 11/11/11 8/8/8 10/10/10
f 8/8/8 11/11/11 7/7/7
f 11/11/11 12/12/12 7/7/7
f 12/12/12 11/11/11 10/10/10
f 12/12/12 13/13/13 7/7/7
f 14/14/14 12/12/12 10/10/10
f 12/12/12 14/14/14 15/15/15
f 13/13/13 12/12/12 15/15/15
f 16/16/16 14/14/14 10/10/10
f 14/14/14 16/16/16 15/15/15
f 17/17/17 16/16/16 10/10/10
f 16/16/16 17/17/17 18/18/18
f 19/19/19 16/16/16 18/18/18
f 16/16/16 19/19/19 15/15/15
f 19/19/19 20/20/20 15/15/15
f 20/20/20 19/19/19 18/18/18
f 20/20/20 21/21/21 15/15/15
f 22/22/22 20/20/20 18/18/18
f 20/20/20 22/22/22 23/23/23
f 21/21/21 20/20/20 23/23/23
f 24/24/24 22/22/22 18/18/18
f 22/22/22 24/24/24 23/23/23
f 25/25/25 24/24/24 18/18/18
f 24/24/24 25/25/25 26/26/26
f 27/27/27 24/24/24 26/26/26
f 24/24/24 27/27/27 23/23/23
f 27/27/27 28/28/28 23/23/23
f 28/28/28 27/27/27 26/26/26
f 28/28/28 29/29/29 23/23/23
f 30/30/30 28/28/28 26/26/26
f 28/28/28 30/30/30 31/31/31
f 29/29/29 28/28/28 31/31/31
f 32/32/32 30/30/30 26/26/26
f 30/30/30 32/32/32 31/31/31
f 33/33/33 32/32/32 26/26/26
f 32/32/32 33/33/33 34/34/34
f 35/35/35 32/32/32 34/34/34
f 32/32/32 35/35/35 31/31/31
f 35/35/35 36/36/36 31/31/31
f 36/36/36 35/35/35 34/34/34
f 36/36/36 37/37/37 31/31/31
f 38/38/38 36/36/36 34/34/34
f 36/36/36 38/38/38 39/39/39
f 37/37/37 36/36/36 39/39/39
f 40/40/40 38/38/38 34/34/34
f 38/38/38 40/40/40 39/39/39
f 41/41/41 40/40/40 34/34/34
f 40/40/40 41/41/41 42/42/42
f 43/43/43 40/40/40 42/42/42
f 40/40/40 43/43/43 39/39/39
f 43/43/43 44/44/44 39/39/39
f 44/44/44 43/43/43 42/42/42
f 44/44/44 45/45/45 39/39/39
f 46/46/46 44/44/44 42/42/42
f 44/44/44 46/46/46 47/47/47
f 45/45/45 44/44/44 47/47/47
f 48/48/48 46/46/46 42/42/42
f 46/46/46 48/48/48 47/47/47
f 49/49/49 48/48/48 42/42/42
f 48/48/48 49/49/49 50/50/50
f 51/51/51 48/48/48 50/50/50
f 48/48/48 51/51/51 47/47/47
f 51/51/51 52/52/52 47/47/47
f 52/52/52 51/51/51 50/50/50
f 52/52/52 53/53/53 47/47/47
f 54/54/54 52/52/52 50/50/50
f 52/52/52 54/54/54 55/55/55
f 53/53/53 52/52/52 55/55/55
f 56/56/56 54/54/54 50/50/50
f 54/54/54 56/56/56 55/55/55
f 57/57/57 56/56/56 50/50/50
f 56/56/56 57/57/57 58/58/58
f 59/59/59 56/56/56 58/58/58
f 56/56/56 59/59/59 55/55/55
f 60/60/60 57/57/57 50/50/50
f 61/61/61 60/60/60 50/50/50
f 61/61/61 50/50/50 49/49/49
f 62/62/62 60/60/60 61/61/61
f 63/63/63 62/62/62 61/61/61
f 62/62/62 64/64/64 60/60/60
f 64/64/64 65/65/65 60/60/60
f 65/65/65 58/58/58 57/57/57
f 60/60/60 65/65/65 57/57/57
f 63/63/63 61/61/61 66/66/66
f 67/67/67 63/63/63 66/66/66
f 67/67/67 66/66/66 68/68/68
f 68/68/68 66/66/66 42/42/42
f 68/68/68 42/42/42 41/41/41
f 69/69/69 68/68/68 41/41/41
f 69/69/69 41/41/41 34/34/34
f 70/70/70 69/69/69 34/34/34
f 70/70/70 34/34/34 33/33/33
f 71/71/71 70/70/70 33/33/33
f 71/71/71 33/33/33 26/26/26
f 72/72/72 71/71/71 26/26/26
f 72/72/72 26/26/26 25/25/25
f 73/73/73 72/72/72 25/25/25
f 73/73/73 25/25/25 18/18/18
f 74/74/74 73/73/73 18/18/18
f 74/74/74 18/18/18 17/17/17
f 75/75/75 74/74/74 17/17/17
f 75/75/75 17/17/17 10/10/10
f 76/76/76 75/75/75 10/10/10
f 76/76/76 10/10/10 9/9/9
f 77/77/77 76/76/76 9/9/9
f 77/77/77 9/9/9 5/5/5
f 78/78/78 77/77/77 5/5/5
f 78/78/78 5/5/5 79/79/79
f 78/78/78 79/79/79 80/80/80
f 80/80/80 79/79/79 81/81/81
f 79/79/79 82/82/82 81/81/81
f 83/83/83 78/78/78 80/80/80
f 5/5/5 84/84/84 79/79/79
f 79/79/79 84/84/84 82/82/82
f 85/85/85 84/84/84 5/5/5
f 84/84/84 85/85/85 86/86/86
f 84/84/84 86/86/86 82/82/82
f 85/85/85 87/87/87 86/86/86
f 87/87/87 88/88/88 86/86/86
f 88/88/88 89/89/89 86/86/86
f 89/89/89 88/88/88 90/90/90
f 88/88/88 91/91/91 90/90/90
f 88/88/88 87/87/87 1/1/1
f 91/91/91 88/88/88 1/1/1
f 87/87/87 85/85/85 1/1/1
f 4/4/4 85/85/85 5/5/5
f 85/85/85 4/4/4 1/1/1
f 83/83/83 92/92/92 78/78/78
f 92/92/92 77/77/77 78/78/78
f 92/92/92 93/93/93 77/77/77
f 93/93/93 76/76/76 77/77/77
f 93/93/93 94/94/94 76/76/76
f 94/94/94 75/75/75 76/76/76
f 94/94/94 95/95/95 75/75/75
f 95/95/95 74/74/74 75/75/75
f 95/95/95 96/96/96 74/74/74
f 96/96/96 73/73/73 74/74/74
f 96/96/96 97/97/97 73/73/73
f 97/97/97 72/72/72 73/73/73
f 97/97/97 98/98/98 72/72/72
f 98/98/98 71/71/71 72/72/72
f 98/98/98 99/99/99 71/71/71
f 99/99/99 70/70/70 71/71/71
f 99/99/99 100/100/100 70/70/70
f 100/100/100 69/69/69 70/70/70
f 100/100/100 101/101/101 69/69/69
f 101/101/101 68/68/68 69/69/69
f 101/101/101 67/67/67 68/68/68
f 66/66/66 49/49/49 42/42/42
f 66/66/66 61/61/61 49/49/49
