g ami
v 54.45171 8.869511 11.27554
v 57.23649 9.993893 18.25837
v 51.4472 7.683636 19.84319
v 49.14618 6.913715 14.03457
v 51.4472 7.683636 19.84319
v 45.65792 5.373386 21.4281
v 43.84055 4.957821 16.79361
v 49.14618 6.913715 14.03457
v 1.29063 -0.1271019 -6.241604
v 7.559586 -0.1508064 -6.261906
v 7.570755 -0.1049538 -0.02462006
v 1.312973 -0.1201096 -0.00422287
v 7.570755 -0.1049538 -0.02462006
v 7.581928 -0.05900955 6.212757
v 1.33522 -0.1131134 6.233059
v 1.312973 -0.1201096 -0.00422287
v 1.298111 -1.109856 -6.241798
v 7.614178 -1.086933 -0.02481461
v 7.603004 -1.132877 -6.2621
v 1.320454 -1.102959 -0.004417419
v 7.614178 -1.086933 -0.02481461
v 1.342796 -1.095966 6.232868
v 7.625252 -1.040985 6.212566
v 1.320454 -1.102959 -0.004417419
v 8.879894 -0.04803085 -6.257923
v 15.36362 0.4450455 -6.238689
v 15.29145 0.4526215 -0.00169754
v 8.87669 -0.00868988 -0.02063751
v 15.29145 0.4526215 -0.00169754
v 15.21927 0.4601974 6.235203
v 8.873386 0.03065109 6.216648
v 8.87669 -0.00868988 -0.02063751
v 8.936333 -1.028938 -6.257729
v 15.21927 -0.52314 0.0001487732
v 15.29145 -0.5307159 -6.236748
v 8.933029 -0.9895973 -0.02044296
v 15.21927 -0.52314 0.0001487732
v 8.929825 -0.9502563 6.216839
v 15.1471 -0.5155602 6.237141
v 8.933029 -0.9895973 -0.02044296
v 16.52298 0.593277 -6.199837
v 23.12385 1.301907 -6.013039
v 22.76551 1.207874 0.2139511
v 16.40155 0.5833702 0.03531265
v 22.76551 1.207874 0.2139511
v 22.40716 1.113941 6.440937
v 16.28003 0.5733643 6.270557
v 16.40155 0.5833702 0.03531265
v 16.64653 -0.3818016 -6.196339
v 22.74802 0.2360992 0.2250252
v 23.10637 0.3300323 -6.001965
v 16.52511 -0.3917084 0.0389061
v 22.74802 0.2360992 0.2250252
v 16.40359 -0.4017143 6.274052
v 22.38968 0.1421661 6.452015
v 16.52511 -0.3917084 0.0389061
v 24.39044 1.492977 -5.849747
v 31.21785 2.407444 -5.061172
v 30.03946 2.091938 1.063332
v 23.89125 1.36087 0.3597565
v 30.03946 2.091938 1.063332
v 28.86106 1.776333 7.18784
v 23.39195 1.228859 6.569164
v 23.89125 1.36087 0.3597565
v 24.53946 0.5215912 -5.833717
v 30.19799 1.122589 1.102867
v 31.37638 1.43819 -5.021637
v 24.04016 0.3894806 0.3756866
v 30.19799 1.122589 1.102867
v 23.54087 0.2574692 6.585194
v 29.01959 0.8070793 7.227375
v 24.04016 0.3894806 0.3756866
v 32.67979 2.776379 -4.643478
v 39.80016 4.553921 -2.625515
v 37.37334 3.694534 3.11821
v 31.28623 2.367519 1.415852
v 37.37334 3.694534 3.11821
v 34.94643 2.835144 8.862026
v 29.89268 1.958664 7.475178
v 31.28623 2.367519 1.415852
v 32.85123 1.807419 -4.619774
v 37.45863 2.727127 3.064198
v 39.88545 3.586514 -2.679619
v 31.45778 1.39856 1.439552
v 37.45863 2.727127 3.064198
v 30.06423 0.9897003 7.498882
v 35.03171 1.867741 8.807919
v 31.45778 1.39856 1.439552
v 41.23014 4.760921 5.269642
v 38.37358 4.010719 3.75845
v 41.06549 4.969769 -1.786816
v 44.55666 5.957676 0.206665
v 43.84201 5.522976 7.026783
v 47.98586 6.957333 2.591717
v 35.68176 3.051765 9.303623
v 38.37358 4.010719 3.75845
v 41.23014 4.760921 5.269642
v 37.79191 3.56971 10.26588
v 43.84201 5.522976 7.026783
v 39.65737 4.099407 11.61203
v 41.49611 3.792351 5.195812
v 44.82263 4.989002 0.1328392
v 41.3097 4.001976 -1.846947
v 38.61779 3.043022 3.698322
v 44.12974 4.553432 6.939167
v 48.09106 5.987789 2.358387
v 35.92597 2.083973 9.243496
v 38.16949 2.595699 10.25879
v 41.49611 3.792351 5.195812
v 38.61779 3.043022 3.698322
v 44.12974 4.553432 6.939167
v 40.16842 3.119179 11.52004
v 48.86176 7.251171 3.563881
v 53.84955 8.631519 9.816418
v 48.6498 6.750134 12.82286
v 44.6842 5.73872 7.873547
v 48.6498 6.750134 12.82286
v 43.45006 4.868748 15.82931
v 40.50665 4.226273 12.1833
v 44.6842 5.73872 7.873547
v 49.15376 6.280857 3.495205
v 48.96162 5.775928 12.84861
v 54.16127 7.657314 9.842159
v 44.9762 4.768406 7.804966
v 48.96162 5.775928 12.84861
v 40.79865 3.255951 12.11472
v 43.76187 3.894543 15.85505
v 44.9762 4.768406 7.804966
v 54.77052 7.894718 11.30731
v 51.79953 6.706127 19.90118
v 57.58881 9.016384 18.31636
v 49.46489 5.938831 14.06634
v 51.79953 6.706127 19.90118
v 44.15927 3.983036 16.82537
v 46.01025 4.395878 21.4861
v 49.46489 5.938831 14.06634
v 57.51246 10.13717 19.7239
v 58.75972 10.79947 26.85428
v 52.95713 8.299015 27.44547
v 51.71725 7.792332 21.13368
v 52.95713 8.299015 27.44547
v 47.15464 5.798466 28.03656
v 45.92195 5.447598 22.54345
v 51.71725 7.792332 21.13368
v 57.86197 9.159367 19.7781
v 53.2908 7.319851 27.33453
v 59.0933 9.8204 26.74344
v 52.06666 6.814632 21.18788
v 53.2908 7.319851 27.33453
v 46.27145 4.469799 22.59765
v 47.48821 4.819401 27.92562
v 52.06666 6.814632 21.18788
v 58.83694 10.90476 28.12641
v 59.15896 11.39833 35.01171
v 53.21571 8.78548 35.02279
v 53.01095 8.384296 28.61395
v 53.21571 8.78548 35.02279
v 47.27257 6.172741 35.03386
v 47.18504 5.863743 29.10149
v 53.01095 8.384296 28.61395
v 59.19073 9.925602 28.16516
v 53.67159 7.805836 34.94206
v 59.61483 10.41868 34.93108
v 53.36473 7.405041 28.65271
v 53.67159 7.805836 34.94206
v 47.53883 4.884579 29.14025
v 47.72834 5.192997 34.95314
v 53.36473 7.405041 28.65271
v 59.11301 11.47273 36.14775
v 58.8622 11.81894 42.20562
v 52.94052 9.163158 42.05175
v 53.1722 8.851925 36.12696
v 52.94052 9.163158 42.05175
v 47.01894 6.507282 41.89779
v 47.23138 6.231022 36.10608
v 53.1722 8.851925 36.12696
v 59.56957 10.49279 36.20603
v 53.39436 8.182247 42.08857
v 59.31604 10.83802 42.24253
v 53.62875 7.87199 36.18515
v 53.39436 8.182247 42.08857
v 47.68793 5.251186 36.16436
v 47.47277 5.526478 41.9346
v 53.62875 7.87199 36.18515
vt -1.5 2.5
vt 2.5 2.5
vt 2.5 -1.5
vt -1.5 -1.5
vt -1.5 2.5
vt 2.5 2.5
vt 2.5 -1.5
vt -1.5 -1.5
vt -1.5 2.5
vt 2.5 2.5
vt 2.5 -1.5
vt -1.5 -1.5
vt -1.5 2.5
vt 2.5 2.5
vt 2.5 -1.5
vt -1.5 -1.5
vt -1.5 2.5
vt 2.5 -1.5
vt 2.5 2.5
vt -1.5 -1.5
vt -1.5 2.5
vt 2.5 -1.5
vt 2.5 2.5
vt -1.5 -1.5
vt -1.5 2.5
vt 2.5 2.5
vt 2.5 -1.5
vt -1.5 -1.5
vt -1.5 2.5
vt 2.5 2.5
vt 2.5 -1.5
vt -1.5 -1.5
vt -1.5 2.5
vt 2.5 -1.5
vt 2.5 2.5
vt -1.5 -1.5
vt -1.5 2.5
vt 2.5 -1.5
vt 2.5 2.5
vt -1.5 -1.5
vt -1.5 2.5
vt 2.5 2.5
vt 2.5 -1.5
vt -1.5 -1.5
vt -1.5 2.5
vt 2.5 2.5
vt 2.5 -1.5
vt -1.5 -1.5
vt -1.5 2.5
vt 2.5 -1.5
vt 2.5 2.5
vt -1.5 -1.5
vt -1.5 2.5
vt 2.5 -1.5
vt 2.5 2.5
vt -1.5 -1.5
vt -1.5 2.5
vt 2.5 2.5
vt 2.5 -1.5
vt -1.5 -1.5
vt -1.5 2.5
vt 2.5 2.5
vt 2.5 -1.5
vt -1.5 -1.5
vt -1.5 2.5
vt 2.5 -1.5
vt 2.5 2.5
vt -1.5 -1.5
vt -1.5 2.5
vt 2.5 -1.5
vt 2.5 2.5
vt -1.5 -1.5
vt -1.5 2.5
vt 2.5 2.5
vt 2.5 -1.5
vt -1.5 -1.5
vt -1.5 2.5
vt 2.5 2.5
vt 2.5 -1.5
vt -1.5 -1.5
vt -1.5 2.5
vt 2.5 -1.5
vt 2.5 2.5
vt -1.5 -1.5
vt -1.5 2.5
vt 2.5 -1.5
vt 2.5 2.5
vt -1.5 -1.5
vt 0.5000076 -1.5
vt -1.5 -1.5
vt -1.5 2.5
vt 0.5000076 2.5
vt 2.5 -1.5
vt 2.5 2.5
vt 2.5 -1.5
vt -1.5 -1.5
vt -1.5 0.5000076
vt 2.5 0.5000076
vt -1.5 2.5
vt 2.5 2.5
vt 0.5000076 -1.5
vt 0.5000076 2.5
vt -1.5 2.5
vt -1.5 -1.5
vt 2.5 -1.5
vt 2.5 2.5
vt 2.5 -1.5
vt 2.5 0.5000076
vt -1.5 0.5000076
vt -1.5 -1.5
vt -1.5 2.5
vt 2.5 2.5
vt -1.5 2.5
vt 2.5 2.5
vt 2.5 -1.5
vt -1.5 -1.5
vt -1.5 2.5
vt 2.5 2.5
vt 2.5 -1.5
vt -1.5 -1.5
vt -1.5 2.5
vt 2.5 -1.5
vt 2.5 2.5
vt -1.5 -1.5
vt -1.5 2.5
vt 2.5 -1.5
vt 2.5 2.5
vt -1.5 -1.5
vt -1.5 2.5
vt 2.5 -1.5
vt 2.5 2.5
vt -1.5 -1.5
vt -1.5 2.5
vt 2.5 -1.5
vt 2.5 2.5
vt -1.5 -1.5
vt -1.5 2.5
vt 2.5 2.5
vt 2.5 -1.5
vt -1.5 -1.5
vt -1.5 2.5
vt 2.5 2.5
vt 2.5 -1.5
vt -1.5 -1.5
vt -1.5 2.5
vt 2.5 -1.5
vt 2.5 2.5
vt -1.5 -1.5
vt -1.5 2.5
vt 2.5 -1.5
vt 2.5 2.5
vt -1.5 -1.5
vt -1.5 2.5
vt 2.5 2.5
vt 2.5 -1.5
vt -1.5 -1.5
vt -1.5 2.5
vt 2.5 2.5
vt 2.5 -1.5
vt -1.5 -1.5
vt -1.5 2.5
vt 2.5 -1.5
vt 2.5 2.5
vt -1.5 -1.5
vt -1.5 2.5
vt 2.5 -1.5
vt 2.5 2.5
vt -1.5 -1.5
vt -1.5 2.5
vt 2.5 2.5
vt 2.5 -1.5
vt -1.5 -1.5
vt -1.5 2.5
vt 2.5 2.5
vt 2.5 -1.5
vt -1.5 -1.5
vt -1.5 2.5
vt 2.5 -1.5
vt 2.5 2.5
vt -1.5 -1.5
vt -1.5 2.5
vt 2.5 -1.5
vt 2.5 2.5
vt -1.5 -1.5
vn -0.3567926 0.9335254 0.03506203
vn -0.3704777 0.9276605 -0.04682284
vn -0.3546543 0.9349975 0
vn -0.3411523 0.9393905 0.03406615
vn -0.3546543 0.9349975 0
vn -0.3567926 0.9315705 0.06982422
vn -0.3488735 0.9371698 0
vn -0.3411523 0.9393905 0.03406615
vn 0.000977397 0.9999964 -0.002489756
vn 0.002932427 0.9999957 0
vn -0.002932666 0.9999957 0
vn -0.002932666 0.9999957 0
vn -0.002932666 0.9999957 0
vn -0.008797457 0.9999614 0
vn -0.004887659 0.9999881 0
vn -0.002932666 0.9999957 0
vn -0.0009776354 -0.9999962 0.002583741
vn 0.002932428 -0.9999957 0
vn -0.002932666 -0.9999957 0
vn 0.002932428 -0.9999957 0
vn 0.002932428 -0.9999957 0
vn 0.004887422 -0.9999881 0
vn 0.00879722 -0.9999614 0
vn 0.002932428 -0.9999957 0
vn -0.07326008 0.9973128 0
vn -0.07520278 0.9971683 0
vn -0.07131655 0.9974537 0
vn -0.07131655 0.9974537 0
vn -0.07131655 0.9974537 0
vn -0.06742706 0.9977242 0
vn -0.06937219 0.9975908 0
vn -0.07131655 0.9974537 0
vn 0.07520262 -0.9971683 0
vn 0.07325991 -0.9973128 0
vn 0.07722348 -0.9960861 0.04299995
vn 0.07325991 -0.9973128 0
vn 0.07325991 -0.9973128 0
vn 0.07131638 -0.9974537 0
vn 0.06937204 -0.9975909 0
vn 0.07325991 -0.9973128 0
vn -0.1026391 0.9941313 0.03417794
vn -0.1065491 0.9941313 0.01871303
vn -0.09863361 0.9951238 0
vn -0.09669892 0.9953137 0
vn -0.09863361 0.9951238 0
vn -0.08894937 0.9960361 0
vn -0.09282625 0.9956824 0
vn -0.09669892 0.9953137 0
vn 0.1045938 -0.9941311 -0.02763215
vn 0.1006837 -0.9941311 -0.03957489
vn 0.1104314 -0.9938837 0
vn 0.1006837 -0.9941311 0.03957489
vn 0.1006837 -0.9941311 -0.03957489
vn 0.09476291 -0.9954999 0
vn 0.09088811 -0.9958612 0
vn 0.1006837 -0.9941311 0.03957489
vn -0.1280024 0.9917738 0
vn -0.1358745 0.9902213 0.03162257
vn -0.1221893 0.9921763 0.0256115
vn -0.1202343 0.9921763 0.03361436
vn -0.1221893 0.9921763 0.0256115
vn -0.1026391 0.9941313 0.03417794
vn -0.1123617 0.9936674 0
vn -0.1202343 0.9921763 0.03361436
vn 0.1280022 -0.9917738 0
vn 0.122189 -0.9921761 -0.02562197
vn 0.1358743 -0.990221 -0.03163105
vn 0.1202341 -0.9921761 -0.03362234
vn 0.122189 -0.9921761 -0.02562197
vn 0.1123615 -0.9936674 0
vn 0.1026388 -0.9941311 -0.03418579
vn 0.1202341 -0.9921761 -0.03362234
vn -0.2355809 0.9706711 0.04795111
vn -0.2512211 0.966761 0.04755168
vn -0.2257159 0.9741933 0
vn -0.2178614 0.9759796 0
vn -0.2257159 0.9741933 0
vn -0.1886603 0.9804461 0.05597107
vn -0.2043004 0.9784911 0.02857593
vn -0.2178614 0.9759796 0
vn 0.2394907 -0.9706708 -0.0210358
vn 0.2277606 -0.9726258 -0.04608894
vn 0.2551309 -0.9667608 -0.01678899
vn 0.2199404 -0.9745808 -0.04264292
vn 0.2277606 -0.9726258 -0.04608894
vn 0.2062553 -0.9784909 -0.003790082
vn 0.190615 -0.9784909 -0.07887632
vn 0.2199404 -0.9745808 -0.04264292
vn -0.2864115 0.9569858 0.04633079
vn -0.2746814 0.9608959 0.03505948
vn -0.2825015 0.9589409 0.02500744
vn -0.2903059 0.9569339 0
vn -0.2961867 0.9550308 0.01377178
vn -0.2981417 0.9530758 0.05251805
vn -0.2668613 0.9628509 0.04126915
vn -0.2746814 0.9608959 0.03505948
vn -0.2864115 0.9569858 0.04633079
vn -0.2785915 0.9589409 0.05309596
vn -0.2961867 0.9550308 0.01377178
vn -0.2942317 0.9550308 0.03665932
vn 0.2844563 -0.9569856 -0.05712421
vn 0.2922764 -0.9550306 -0.04991109
vn 0.2805462 -0.9589406 -0.04155342
vn 0.2707711 -0.9608957 -0.05798738
vn 0.3000965 -0.9530755 -0.03986376
vn 0.3038892 -0.9527075 0
vn 0.260996 -0.9648057 -0.0321089
vn 0.2746812 -0.9608957 -0.03506883
vn 0.2844563 -0.9569856 -0.05712421
vn 0.2707711 -0.9608957 -0.05798738
vn 0.3000965 -0.9530755 -0.03986376
vn 0.2922764 -0.9550306 -0.04991109
vn -0.3098719 0.9491657 0.05535266
vn -0.317692 0.9472107 0.0431708
vn -0.3059618 0.9511207 0.04191262
vn -0.2981417 0.9530758 0.05251805
vn -0.3059618 0.9511207 0.04191262
vn -0.3000968 0.9511207 0.07287833
vn -0.3000968 0.9530758 0.03985628
vn -0.2981417 0.9530758 0.05251805
vn 0.3079166 -0.9511205 -0.02360475
vn 0.3059616 -0.9511205 -0.04192045
vn 0.3176917 -0.9472104 -0.04317771
vn 0.2981415 -0.9530755 -0.05252315
vn 0.3059616 -0.9511205 -0.04192045
vn 0.3000965 -0.9530755 -0.03986376
vn 0.3000965 -0.9511205 -0.07288282
vn 0.2981415 -0.9530755 -0.05252315
vn 0.3567923 -0.9335253 -0.03506883
vn 0.3528823 -0.9354803 -0.01872735
vn 0.3702114 -0.9289476 0
vn 0.339197 -0.9393904 -0.04991109
vn 0.3528823 -0.9354803 -0.01872735
vn 0.3470172 -0.9374353 -0.02817895
vn 0.3567923 -0.9335253 -0.03506883
vn 0.339197 -0.9393904 -0.04991109
vn -0.3861179 0.9217954 -0.03473067
vn -0.3976898 0.91752 0
vn -0.3861179 0.9217954 -0.03473067
vn -0.374253 0.9273266 0
vn -0.3861179 0.9217954 -0.03473067
vn -0.3936836 0.9192461 0
vn -0.3839909 0.9233369 0
vn -0.374253 0.9273266 0
vn 0.3861177 -0.9217951 0.03474011
vn 0.3861177 -0.9217951 0.03474011
vn 0.3976896 -0.91752 0
vn 0.3763426 -0.9257051 -0.03789767
vn 0.3861177 -0.9217951 0.03474011
vn 0.3839908 -0.9233369 0
vn 0.3936834 -0.9192461 0
vn 0.3763426 -0.9257051 -0.03789767
vn -0.4017582 0.9139752 -0.05691776
vn -0.4017582 0.9139752 -0.05691776
vn -0.4016903 0.9157755 0
vn -0.3998032 0.9159303 -0.03505948
vn -0.4016903 0.9157755 0
vn -0.4017582 0.9139752 -0.05691776
vn -0.4016903 0.9157755 0
vn -0.3998032 0.9159303 -0.03505948
vn 0.4016902 -0.9157757 0
vn 0.4016902 -0.9157757 0
vn 0.401758 -0.913975 0.05692352
vn 0.3998029 -0.91593 0.03506883
vn 0.4016902 -0.9157757 0
vn 0.4016902 -0.9157757 0
vn 0.401758 -0.913975 0.05692352
vn 0.3998029 -0.91593 0.03506883
vn -0.4056683 0.9120202 -0.06043504
vn -0.4076233 0.9100652 -0.07499728
vn -0.4037132 0.9120202 -0.07235177
vn -0.4017582 0.9139752 -0.05691776
vn -0.4037132 0.9120202 -0.07235177
vn -0.4076233 0.9120202 -0.04541344
vn -0.4056683 0.9120202 -0.06043504
vn -0.4017582 0.9139752 -0.05691776
vn 0.405668 -0.91202 0.06044046
vn 0.4037129 -0.91202 0.0723563
vn 0.407623 -0.9100649 0.07500205
vn 0.401758 -0.913975 0.05692352
vn 0.4037129 -0.91202 0.0723563
vn 0.405668 -0.91202 0.06044046
vn 0.407623 -0.91202 0.04542065
vn 0.401758 -0.913975 0.05692352
g ami_0
f 3/3/3 2/2/2 1/1/1
f 1/1/1 4/4/4 3/3/3
f 7/7/7 6/6/6 5/5/5
f 5/5/5 8/8/8 7/7/7
f 11/11/11 10/10/10 9/9/9
f 9/9/9 12/12/12 11/11/11
f 15/15/15 14/14/14 13/13/13
f 13/13/13 16/16/16 15/15/15
f 19/19/19 18/18/18 17/17/17
f 20/20/20 17/17/17 18/18/18
f 23/23/23 22/22/22 21/21/21
f 24/24/24 21/21/21 22/22/22
f 27/27/27 26/26/26 25/25/25
f 25/25/25 28/28/28 27/27/27
f 31/31/31 30/30/30 29/29/29
f 29/29/29 32/32/32 31/31/31
f 35/35/35 34/34/34 33/33/33
f 36/36/36 33/33/33 34/34/34
f 39/39/39 38/38/38 37/37/37
f 40/40/40 37/37/37 38/38/38
f 43/43/43 42/42/42 41/41/41
f 41/41/41 44/44/44 43/43/43
f 47/47/47 46/46/46 45/45/45
f 45/45/45 48/48/48 47/47/47
f 51/51/51 50/50/50 49/49/49
f 52/52/52 49/49/49 50/50/50
f 55/55/55 54/54/54 53/53/53
f 56/56/56 53/53/53 54/54/54
f 59/59/59 58/58/58 57/57/57
f 57/57/57 60/60/60 59/59/59
f 63/63/63 62/62/62 61/61/61
f 61/61/61 64/64/64 63/63/63
f 67/67/67 66/66/66 65/65/65
f 68/68/68 65/65/65 66/66/66
f 71/71/71 70/70/70 69/69/69
f 72/72/72 69/69/69 70/70/70
f 75/75/75 74/74/74 73/73/73
f 73/73/73 76/76/76 75/75/75
f 79/79/79 78/78/78 77/77/77
f 77/77/77 80/80/80 79/79/79
f 83/83/83 82/82/82 81/81/81
f 84/84/84 81/81/81 82/82/82
f 87/87/87 86/86/86 85/85/85
f 88/88/88 85/85/85 86/86/86
f 91/91/91 90/90/90 89/89/89
f 92/92/92 91/91/91 89/89/89
f 92/92/92 89/89/89 93/93/93
f 94/94/94 92/92/92 93/93/93
f 97/97/97 96/96/96 95/95/95
f 98/98/98 97/97/97 95/95/95
f 99/99/99 97/97/97 98/98/98
f 100/100/100 99/99/99 98/98/98
f 103/103/103 102/102/102 101/101/101
f 104/104/104 103/103/103 101/101/101
f 101/101/101 102/102/102 105/105/105
f 102/102/102 106/106/106 105/105/105
f 109/109/109 108/108/108 107/107/107
f 110/110/110 109/109/109 107/107/107
f 109/109/109 111/111/111 108/108/108
f 111/111/111 112/112/112 108/108/108
f 115/115/115 114/114/114 113/113/113
f 113/113/113 116/116/116 115/115/115
f 119/119/119 118/118/118 117/117/117
f 117/117/117 120/120/120 119/119/119
f 123/123/123 122/122/122 121/121/121
f 124/124/124 121/121/121 122/122/122
f 127/127/127 126/126/126 125/125/125
f 128/128/128 125/125/125 126/126/126
f 131/131/131 130/130/130 129/129/129
f 132/132/132 129/129/129 130/130/130
f 135/135/135 134/134/134 133/133/133
f 136/136/136 133/133/133 134/134/134
f 139/139/139 138/138/138 137/137/137
f 137/137/137 140/140/140 139/139/139
f 143/143/143 142/142/142 141/141/141
f 141/141/141 144/144/144 143/143/143
f 147/147/147 146/146/146 145/145/145
f 148/148/148 145/145/145 146/146/146
f 151/151/151 150/150/150 149/149/149
f 152/152/152 149/149/149 150/150/150
f 155/155/155 154/154/154 153/153/153
f 153/153/153 156/156/156 155/155/155
f 159/159/159 158/158/158 157/157/157
f 157/157/157 160/160/160 159/159/159
f 163/163/163 162/162/162 161/161/161
f 164/164/164 161/161/161 162/162/162
f 167/167/167 166/166/166 165/165/165
f 168/168/168 165/165/165 166/166/166
f 171/171/171 170/170/170 169/169/169
f 169/169/169 172/172/172 171/171/171
f 175/175/175 174/174/174 173/173/173
f 173/173/173 176/176/176 175/175/175
f 179/179/179 178/178/178 177/177/177
f 180/180/180 177/177/177 178/178/178
f 183/183/183 182/182/182 181/181/181
f 184/184/184 181/181/181 182/182/182
