g B_Wheel_01_Body_LOD1
v -4.107522 -1.847306 -0.6002271
v -4.107522 -1.847306 0.6002274
v -3.748108 -1.847306 0.6002274
v -3.748108 -1.847306 -0.6002271
v -4.107522 -1.141699 -1.571417
v -4.107522 -1.847306 -0.6002271
v -3.748108 -1.847306 -0.6002271
v -3.748108 -1.141699 -1.571417
v -4.107522 -3.814697E-06 -1.942375
v -3.748108 -3.814697E-06 -1.942375
v -4.107522 1.141699 -1.571417
v -3.748108 1.141699 -1.571417
v -4.107522 1.847307 -0.6002271
v -3.748108 1.847307 -0.6002271
v -4.107522 1.847307 0.6002274
v -3.748108 1.847307 0.6002274
v -4.107522 1.141699 1.571417
v -3.748108 1.141699 1.571417
v -4.107522 4.291534E-06 1.942375
v -3.748108 4.291534E-06 1.942375
v -4.107522 -1.141699 1.571417
v -3.748108 -1.141699 1.571417
v -4.107522 -1.847306 0.6002274
v -3.748108 -1.847306 0.6002274
v -4.086553 -3.814697E-06 4.291534E-06
v -4.128484 -0.9017797 1.241193
v -4.128484 -1.459103 0.4740944
v -4.128484 4.291534E-06 1.534194
v -4.128484 0.9017801 1.241193
v -4.128484 1.459104 0.4740944
v -4.128484 1.459104 -0.4740939
v -4.128484 0.9017801 -1.241193
v -4.128484 -3.814697E-06 -1.534194
v -4.128484 -0.9017797 -1.241193
v -4.128484 -1.459103 -0.4740939
v -4.128484 -1.459103 0.4740944
v -4.107522 -1.847306 0.6002274
v -4.107522 -1.847306 -0.6002271
v -4.128484 -1.459103 -0.4740939
v -4.107522 -1.141699 -1.571417
v -4.128484 -0.9017797 -1.241193
v -4.107522 -3.814697E-06 -1.942375
v -4.128484 -3.814697E-06 -1.534194
v -4.107522 1.141699 -1.571417
v -4.128484 0.9017801 -1.241193
v -4.107522 1.847307 -0.6002271
v -4.128484 1.459104 -0.4740939
v -4.107522 1.847307 0.6002274
v -4.128484 1.459104 0.4740944
v -4.107522 1.141699 1.571417
v -4.128484 0.9017801 1.241193
v -4.107522 4.291534E-06 1.942375
v -4.128484 4.291534E-06 1.534194
v -4.107522 -1.141699 1.571417
v -4.128484 -0.9017797 1.241193
v 4.128484 -1.459103 -0.4740939
v 4.128484 -0.9017797 -1.241193
v 4.107522 -1.141699 -1.571417
v 4.107522 -1.847306 -0.6002271
v 4.107522 -3.814697E-06 -1.942375
v 4.128484 -3.814697E-06 -1.534194
v 4.107522 1.141699 -1.571417
v 4.128484 0.9017801 -1.241193
v 4.107522 1.847307 -0.6002271
v 4.128484 1.459104 -0.4740939
v 4.107522 1.847307 0.6002274
v 4.128484 1.459104 0.4740944
v 4.107522 1.141699 1.571417
v 4.128484 0.9017801 1.241193
v 4.107522 4.291534E-06 1.942375
v 4.128484 4.291534E-06 1.534194
v 4.107522 -1.141699 1.571417
v 4.128484 -0.9017797 1.241193
v 4.107522 -1.847306 0.6002274
v 4.128484 -1.459103 0.4740944
v 4.107522 -1.847306 -0.6002271
v 4.107522 -1.141699 -1.571417
v 3.748108 -1.141699 -1.571417
v 3.748108 -1.847306 -0.6002271
v 3.748108 -3.814697E-06 -1.942375
v 4.107522 -3.814697E-06 -1.942375
v 3.748108 1.141699 -1.571417
v 4.107522 1.141699 -1.571417
v 3.748108 1.847307 -0.6002271
v 4.107522 1.847307 -0.6002271
v 3.748108 1.847307 0.6002274
v 4.107522 1.847307 0.6002274
v 3.748108 1.141699 1.571417
v 4.107522 1.141699 1.571417
v 3.748108 4.291534E-06 1.942375
v 4.107522 4.291534E-06 1.942375
v 3.748108 -1.141699 1.571417
v 4.107522 -1.141699 1.571417
v 3.748108 -1.847306 0.6002274
v 4.107522 -1.847306 0.6002274
v 4.107522 -1.847306 0.6002274
v 4.107522 -1.847306 -0.6002271
v 3.748108 -1.847306 -0.6002271
v 3.748108 -1.847306 0.6002274
v 4.086553 -3.814697E-06 4.291534E-06
v 4.128484 -1.459103 -0.4740939
v 4.128484 -1.459103 0.4740944
v 4.128484 -0.9017797 1.241193
v 4.128484 4.291534E-06 1.534194
v 4.128484 0.9017801 1.241193
v 4.128484 1.459104 0.4740944
v 4.128484 1.459104 -0.4740939
v 4.128484 0.9017801 -1.241193
v 4.128484 -3.814697E-06 -1.534194
v 4.128484 -0.9017797 -1.241193
v 3.76907 -3.814697E-06 4.291534E-06
v 3.727139 -0.9017797 1.241193
v 3.727139 -1.459103 0.4740944
v 3.727139 4.291534E-06 1.534194
v 3.727139 0.9017801 1.241193
v 3.727139 1.459104 0.4740944
v 3.727139 1.459104 -0.4740939
v 3.727139 0.9017801 -1.241193
v 3.727139 -3.814697E-06 -1.534194
v 3.727139 -0.9017797 -1.241193
v 3.727139 -1.459103 -0.4740939
v 3.727139 -1.459103 0.4740944
v 3.748108 -1.847306 0.6002274
v 3.748108 -1.847306 -0.6002271
v 3.727139 -1.459103 -0.4740939
v 3.748108 -1.141699 -1.571417
v 3.727139 -0.9017797 -1.241193
v 3.748108 -3.814697E-06 -1.942375
v 3.727139 -3.814697E-06 -1.534194
v 3.748108 1.141699 -1.571417
v 3.727139 0.9017801 -1.241193
v 3.748108 1.847307 -0.6002271
v 3.727139 1.459104 -0.4740939
v 3.748108 1.847307 0.6002274
v 3.727139 1.459104 0.4740944
v 3.748108 1.141699 1.571417
v 3.727139 0.9017801 1.241193
v 3.748108 4.291534E-06 1.942375
v 3.727139 4.291534E-06 1.534194
v 3.748108 -1.141699 1.571417
v 3.727139 -0.9017797 1.241193
v -3.727139 -1.459103 -0.4740939
v -3.727139 -0.9017797 -1.241193
v -3.748108 -1.141699 -1.571417
v -3.748108 -1.847306 -0.6002271
v -3.748108 -3.814697E-06 -1.942375
v -3.727139 -3.814697E-06 -1.534194
v -3.748108 1.141699 -1.571417
v -3.727139 0.9017801 -1.241193
v -3.748108 1.847307 -0.6002271
v -3.727139 1.459104 -0.4740939
v -3.748108 1.847307 0.6002274
v -3.727139 1.459104 0.4740944
v -3.748108 1.141699 1.571417
v -3.727139 0.9017801 1.241193
v -3.748108 4.291534E-06 1.942375
v -3.727139 4.291534E-06 1.534194
v -3.748108 -1.141699 1.571417
v -3.727139 -0.9017797 1.241193
v -3.748108 -1.847306 0.6002274
v -3.727139 -1.459103 0.4740944
v -3.769071 -3.814697E-06 4.291534E-06
v -3.727139 -1.459103 -0.4740939
v -3.727139 -1.459103 0.4740944
v -3.727139 -0.9017797 1.241193
v -3.727139 4.291534E-06 1.534194
v -3.727139 0.9017801 1.241193
v -3.727139 1.459104 0.4740944
v -3.727139 1.459104 -0.4740939
v -3.727139 0.9017801 -1.241193
v -3.727139 -3.814697E-06 -1.534194
v -3.727139 -0.9017797 -1.241193
vt 0.3369631 0.5479933
vt 0.3907655 0.5479933
vt 0.3907655 0.5459664
vt 0.3369631 0.5459664
vt 0.3429319 0.5479933
vt 0.3369631 0.5479933
vt 0.3369631 0.5459664
vt 0.3429319 0.5459664
vt 0.3489145 0.5479933
vt 0.3489145 0.5459664
vt 0.3548832 0.5479933
vt 0.3548832 0.5459664
vt 0.360852 0.5479933
vt 0.360852 0.5459664
vt 0.3668207 0.5479933
vt 0.3668207 0.5459664
vt 0.3728034 0.5479933
vt 0.3728034 0.5459664
vt 0.3787861 0.5479933
vt 0.3787861 0.5459664
vt 0.3847828 0.5479933
vt 0.3847828 0.5459664
vt 0.3907655 0.5479933
vt 0.3907655 0.5459664
vt 0.266834 0.1311048
vt 0.1996264 0.2238228
vt 0.158083 0.1665119
vt 0.266834 0.2457129
vt 0.3342093 0.2238228
vt 0.3758367 0.1665119
vt 0.3758367 0.09576774
vt 0.3342093 0.03858256
vt 0.266834 0.01673448
vt 0.1996264 0.03858256
vt 0.158083 0.09576774
vt 0.2885982 0.5813175
vt 0.2868649 0.5818766
vt 0.2868649 0.5764951
vt 0.2885982 0.5770681
vt 0.290024 0.5721477
vt 0.2911004 0.5736295
vt 0.29514 0.5704983
vt 0.29514 0.5723155
vt 0.3002561 0.5721477
vt 0.2991798 0.5736295
vt 0.3034152 0.5764951
vt 0.3016819 0.5770681
vt 0.3034152 0.5818766
vt 0.3016819 0.5813175
vt 0.3002561 0.5862379
vt 0.2991798 0.5847561
vt 0.29514 0.5879014
vt 0.29514 0.5860702
vt 0.290024 0.5862379
vt 0.2911004 0.5847561
vt -0.7113945 0.5770681
vt -0.7089064 0.5736295
vt -0.7099687 0.5721477
vt -0.7131278 0.5764951
vt -0.7048666 0.5704983
vt -0.7048666 0.5723155
vt -0.6997505 0.5721477
vt -0.7008269 0.5736295
vt -0.6965775 0.5764951
vt -0.6983248 0.5770681
vt -0.6965775 0.5818766
vt -0.6983248 0.5813175
vt -0.6997505 0.5862379
vt -0.7008269 0.5847561
vt -0.7048666 0.5879014
vt -0.7048666 0.5860702
vt -0.7099687 0.5862379
vt -0.7089064 0.5847561
vt -0.7131278 0.5818766
vt -0.7113945 0.5813175
vt -0.6630436 0.5479933
vt -0.6570609 0.5479933
vt -0.6570609 0.5459664
vt -0.6630436 0.5459664
vt -0.6510922 0.5459664
vt -0.6510922 0.5479933
vt -0.6451234 0.5459664
vt -0.6451234 0.5479933
vt -0.6391407 0.5459664
vt -0.6391407 0.5479933
vt -0.633172 0.5459664
vt -0.633172 0.5479933
vt -0.6272032 0.5459664
vt -0.6272032 0.5479933
vt -0.6212066 0.5459664
vt -0.6212066 0.5479933
vt -0.6152239 0.5459664
vt -0.6152239 0.5479933
vt -0.6092272 0.5459664
vt -0.6092272 0.5479933
vt -0.6092272 0.5479933
vt -0.6630436 0.5479933
vt -0.6630436 0.5459664
vt -0.6092272 0.5459664
vt -0.7331586 0.1311048
vt -0.8419237 0.09576774
vt -0.8419237 0.1665119
vt -0.8003802 0.2238228
vt -0.7331586 0.2457129
vt -0.6657973 0.2238228
vt -0.624156 0.1665119
vt -0.624156 0.09576774
vt -0.6657973 0.03858256
vt -0.7331586 0.01673448
vt -0.8003802 0.03858256
vt 0.266834 0.1311048
vt 0.1996264 0.2238228
vt 0.158083 0.1665119
vt 0.266834 0.2457129
vt 0.3342093 0.2238228
vt 0.3758367 0.1665119
vt 0.3758367 0.09576774
vt 0.3342093 0.03858256
vt 0.266834 0.01673448
vt 0.1996264 0.03858256
vt 0.158083 0.09576774
vt 0.2885982 0.5813175
vt 0.2868649 0.5818766
vt 0.2868649 0.5764951
vt 0.2885982 0.5770681
vt 0.290024 0.5721477
vt 0.2911004 0.5736295
vt 0.29514 0.5704983
vt 0.29514 0.5723155
vt 0.3002561 0.5721477
vt 0.2991798 0.5736295
vt 0.3034152 0.5764951
vt 0.3016819 0.5770681
vt 0.3034152 0.5818766
vt 0.3016819 0.5813175
vt 0.3002561 0.5862379
vt 0.2991798 0.5847561
vt 0.29514 0.5879014
vt 0.29514 0.5860702
vt 0.290024 0.5862379
vt 0.2911004 0.5847561
vt -0.7113945 0.5770681
vt -0.7089064 0.5736295
vt -0.7099687 0.5721477
vt -0.7131278 0.5764951
vt -0.7048666 0.5704983
vt -0.7048666 0.5723155
vt -0.6997505 0.5721477
vt -0.7008269 0.5736295
vt -0.6965775 0.5764951
vt -0.6983248 0.5770681
vt -0.6965775 0.5818766
vt -0.6983248 0.5813175
vt -0.6997505 0.5862379
vt -0.7008269 0.5847561
vt -0.7048666 0.5879014
vt -0.7048666 0.5860702
vt -0.7099687 0.5862379
vt -0.7089064 0.5847561
vt -0.7131278 0.5818766
vt -0.7113945 0.5813175
vt -0.7331586 0.1311048
vt -0.8419237 0.09576774
vt -0.8419237 0.1665119
vt -0.8003802 0.2238228
vt -0.7331586 0.2457129
vt -0.6657973 0.2238228
vt -0.624156 0.1665119
vt -0.624156 0.09576774
vt -0.6657973 0.03858256
vt -0.7331586 0.01673448
vt -0.8003802 0.03858256
vn -0.0009775162 -0.9511237 -0.3088086
vn -0.0009775162 -0.9511237 0.3088086
vn -0.0009775162 -0.9511237 0.3088086
vn -0.0009775162 -0.9511237 -0.3088086
vn -0.0009775162 -0.5874875 -0.8092327
vn -0.0009775162 -0.9511237 -0.3088086
vn -0.0009775162 -0.9511237 -0.3088086
vn -0.0009775162 -0.5874875 -0.8092327
vn -0.0009775162 0.0009775162 -0.999999
vn -0.0009775162 0.0009775162 -0.999999
vn -0.0009775162 0.5874875 -0.8092327
vn -0.0009775162 0.5874875 -0.8092327
vn -0.0009775162 0.9511237 -0.3088086
vn -0.0009775162 0.9511237 -0.3088086
vn -0.0009775162 0.9511237 0.3088086
vn -0.0009775162 0.9511237 0.3088086
vn -0.0009775162 0.5874875 0.8092327
vn -0.0009775162 0.5874875 0.8092327
vn -0.0009775162 0.0009775162 0.999999
vn -0.0009775162 0.0009775162 0.999999
vn -0.0009775162 -0.5874875 0.8092327
vn -0.0009775162 -0.5874875 0.8092327
vn -0.0009775162 -0.9511237 0.3088086
vn -0.0009775162 -0.9511237 0.3088086
vn -0.9999995 0.0009775162 0
vn -0.999862 0.01661549 0
vn -0.9996519 0.02638376 0
vn -0.9999995 0.0009775162 0
vn -0.999862 -0.01661549 0
vn -0.9996519 -0.02638376 0
vn -0.9996519 -0.02638376 0
vn -0.999862 -0.01661549 0
vn -0.9999995 0.0009775162 0
vn -0.999862 0.01661549 0
vn -0.9996519 0.02638376 0
vn -0.9980445 -0.04789829 0.04016164
vn -0.9980445 -0.04789829 0.04016164
vn -0.9980445 -0.04789829 -0.04016164
vn -0.9980445 -0.04789829 -0.04016164
vn -0.9980445 -0.030303 -0.05467112
vn -0.9980445 -0.030303 -0.05467112
vn -0.9980445 0.0009775162 -0.06249999
vn -0.9980445 0.0009775162 -0.06249999
vn -0.9980445 0.030303 -0.05467112
vn -0.9980445 0.030303 -0.05467112
vn -0.9980445 0.04789829 -0.04016164
vn -0.9980445 0.04789829 -0.04016164
vn -0.9980445 0.04789829 0.04016164
vn -0.9980445 0.04789829 0.04016164
vn -0.9980445 0.030303 0.05467112
vn -0.9980445 0.030303 0.05467112
vn -0.9980445 0.0009775162 0.06249999
vn -0.9980445 0.0009775162 0.06249999
vn -0.9980445 -0.030303 0.05467112
vn -0.9980445 -0.030303 0.05467112
vn 0.9980445 -0.04789829 -0.04016164
vn 0.9980445 -0.030303 -0.05467112
vn 0.9980445 -0.030303 -0.05467112
vn 0.9980445 -0.04789829 -0.04016164
vn 0.9980445 0.0009775162 -0.06249999
vn 0.9980445 0.0009775162 -0.06249999
vn 0.9980445 0.030303 -0.05467112
vn 0.9980445 0.030303 -0.05467112
vn 0.9980445 0.04789829 -0.04016164
vn 0.9980445 0.04789829 -0.04016164
vn 0.9980445 0.04789829 0.04016164
vn 0.9980445 0.04789829 0.04016164
vn 0.9980445 0.030303 0.05467112
vn 0.9980445 0.030303 0.05467112
vn 0.9980445 0.0009775162 0.06249999
vn 0.9980445 0.0009775162 0.06249999
vn 0.9980445 -0.030303 0.05467112
vn 0.9980445 -0.030303 0.05467112
vn 0.9980445 -0.04789829 0.04016164
vn 0.9980445 -0.04789829 0.04016164
vn -0.0009775162 -0.9511237 -0.3088086
vn -0.0009775162 -0.5874875 -0.8092327
vn -0.0009775162 -0.5874875 -0.8092327
vn -0.0009775162 -0.9511237 -0.3088086
vn -0.0009775162 0.0009775162 -0.999999
vn -0.0009775162 0.0009775162 -0.999999
vn -0.0009775162 0.5874875 -0.8092327
vn -0.0009775162 0.5874875 -0.8092327
vn -0.0009775162 0.9511237 -0.3088086
vn -0.0009775162 0.9511237 -0.3088086
vn -0.0009775162 0.9511237 0.3088086
vn -0.0009775162 0.9511237 0.3088086
vn -0.0009775162 0.5874875 0.8092327
vn -0.0009775162 0.5874875 0.8092327
vn -0.0009775162 0.0009775162 0.999999
vn -0.0009775162 0.0009775162 0.999999
vn -0.0009775162 -0.5874875 0.8092327
vn -0.0009775162 -0.5874875 0.8092327
vn -0.0009775162 -0.9511237 0.3088086
vn -0.0009775162 -0.9511237 0.3088086
vn -0.0009775162 -0.9511237 0.3088086
vn -0.0009775162 -0.9511237 -0.3088086
vn -0.0009775162 -0.9511237 -0.3088086
vn -0.0009775162 -0.9511237 0.3088086
vn 0.9999995 0.0009775162 0
vn 0.9996519 0.02638376 0
vn 0.9996519 0.02638376 0
vn 0.999862 0.01661549 0
vn 0.9999995 0.0009775162 0
vn 0.999862 -0.01661549 0
vn 0.9996519 -0.02638376 0
vn 0.9996519 -0.02638376 0
vn 0.999862 -0.01661549 0
vn 0.9999995 0.0009775162 0
vn 0.999862 0.01661549 0
vn -0.9999995 0.0009775162 0
vn -0.999862 0.01661549 0
vn -0.9996519 0.02638376 0
vn -0.9999995 0.0009775162 0
vn -0.999862 -0.01661549 0
vn -0.9996519 -0.02638376 0
vn -0.9996519 -0.02638376 0
vn -0.999862 -0.01661549 0
vn -0.9999995 0.0009775162 0
vn -0.999862 0.01661549 0
vn -0.9996519 0.02638376 0
vn -0.9980445 -0.04789829 0.04016164
vn -0.9980445 -0.04789829 0.04016164
vn -0.9980445 -0.04789829 -0.04016164
vn -0.9980445 -0.04789829 -0.04016164
vn -0.9980445 -0.030303 -0.05467112
vn -0.9980445 -0.030303 -0.05467112
vn -0.9980445 0.0009775162 -0.06249999
vn -0.9980445 0.0009775162 -0.06249999
vn -0.9980445 0.030303 -0.05467112
vn -0.9980445 0.030303 -0.05467112
vn -0.9980445 0.04789829 -0.04016164
vn -0.9980445 0.04789829 -0.04016164
vn -0.9980445 0.04789829 0.04016164
vn -0.9980445 0.04789829 0.04016164
vn -0.9980445 0.030303 0.05467112
vn -0.9980445 0.030303 0.05467112
vn -0.9980445 0.0009775162 0.06249999
vn -0.9980445 0.0009775162 0.06249999
vn -0.9980445 -0.030303 0.05467112
vn -0.9980445 -0.030303 0.05467112
vn 0.9980445 -0.04789829 -0.04016164
vn 0.9980445 -0.030303 -0.05467112
vn 0.9980445 -0.030303 -0.05467112
vn 0.9980445 -0.04789829 -0.04016164
vn 0.9980445 0.0009775162 -0.06249999
vn 0.9980445 0.0009775162 -0.06249999
vn 0.9980445 0.030303 -0.05467112
vn 0.9980445 0.030303 -0.05467112
vn 0.9980445 0.04789829 -0.04016164
vn 0.9980445 0.04789829 -0.04016164
vn 0.9980445 0.04789829 0.04016164
vn 0.9980445 0.04789829 0.04016164
vn 0.9980445 0.030303 0.05467112
vn 0.9980445 0.030303 0.05467112
vn 0.9980445 0.0009775162 0.06249999
vn 0.9980445 0.0009775162 0.06249999
vn 0.9980445 -0.030303 0.05467112
vn 0.9980445 -0.030303 0.05467112
vn 0.9980445 -0.04789829 0.04016164
vn 0.9980445 -0.04789829 0.04016164
vn 0.9999995 0.0009775162 0
vn 0.9996519 0.02638376 0
vn 0.9996519 0.02638376 0
vn 0.999862 0.01661549 0
vn 0.9999995 0.0009775162 0
vn 0.999862 -0.01661549 0
vn 0.9996519 -0.02638376 0
vn 0.9996519 -0.02638376 0
vn 0.999862 -0.01661549 0
vn 0.9999995 0.0009775162 0
vn 0.999862 0.01661549 0
g B_Wheel_01_Body_LOD1_0
f 3/3/3 2/2/2 1/1/1
f 4/4/4 3/3/3 1/1/1
f 7/7/7 6/6/6 5/5/5
f 8/8/8 7/7/7 5/5/5
f 8/8/8 5/5/5 9/9/9
f 10/10/10 8/8/8 9/9/9
f 10/10/10 9/9/9 11/11/11
f 12/12/12 10/10/10 11/11/11
f 12/12/12 11/11/11 13/13/13
f 14/14/14 12/12/12 13/13/13
f 14/14/14 13/13/13 15/15/15
f 16/16/16 14/14/14 15/15/15
f 16/16/16 15/15/15 17/17/17
f 18/18/18 16/16/16 17/17/17
f 18/18/18 17/17/17 19/19/19
f 20/20/20 18/18/18 19/19/19
f 20/20/20 19/19/19 21/21/21
f 22/22/22 20/20/20 21/21/21
f 22/22/22 21/21/21 23/23/23
f 24/24/24 22/22/22 23/23/23
f 27/27/27 26/26/26 25/25/25
f 26/26/26 28/28/28 25/25/25
f 28/28/28 29/29/29 25/25/25
f 29/29/29 30/30/30 25/25/25
f 30/30/30 31/31/31 25/25/25
f 31/31/31 32/32/32 25/25/25
f 32/32/32 33/33/33 25/25/25
f 33/33/33 34/34/34 25/25/25
f 34/34/34 35/35/35 25/25/25
f 35/35/35 27/27/27 25/25/25
f 38/38/38 37/37/37 36/36/36
f 39/39/39 38/38/38 36/36/36
f 40/40/40 38/38/38 39/39/39
f 41/41/41 40/40/40 39/39/39
f 42/42/42 40/40/40 41/41/41
f 43/43/43 42/42/42 41/41/41
f 44/44/44 42/42/42 43/43/43
f 45/45/45 44/44/44 43/43/43
f 46/46/46 44/44/44 45/45/45
f 47/47/47 46/46/46 45/45/45
f 48/48/48 46/46/46 47/47/47
f 49/49/49 48/48/48 47/47/47
f 50/50/50 48/48/48 49/49/49
f 51/51/51 50/50/50 49/49/49
f 52/52/52 50/50/50 51/51/51
f 53/53/53 52/52/52 51/51/51
f 54/54/54 52/52/52 53/53/53
f 55/55/55 54/54/54 53/53/53
f 37/37/37 54/54/54 55/55/55
f 36/36/36 37/37/37 55/55/55
f 58/58/58 57/57/57 56/56/56
f 59/59/59 58/58/58 56/56/56
f 58/58/58 60/60/60 57/57/57
f 60/60/60 61/61/61 57/57/57
f 60/60/60 62/62/62 61/61/61
f 62/62/62 63/63/63 61/61/61
f 62/62/62 64/64/64 63/63/63
f 64/64/64 65/65/65 63/63/63
f 64/64/64 66/66/66 65/65/65
f 66/66/66 67/67/67 65/65/65
f 66/66/66 68/68/68 67/67/67
f 68/68/68 69/69/69 67/67/67
f 68/68/68 70/70/70 69/69/69
f 70/70/70 71/71/71 69/69/69
f 70/70/70 72/72/72 71/71/71
f 72/72/72 73/73/73 71/71/71
f 72/72/72 74/74/74 73/73/73
f 74/74/74 75/75/75 73/73/73
f 74/74/74 59/59/59 75/75/75
f 59/59/59 56/56/56 75/75/75
f 78/78/78 77/77/77 76/76/76
f 79/79/79 78/78/78 76/76/76
f 78/78/78 80/80/80 77/77/77
f 80/80/80 81/81/81 77/77/77
f 80/80/80 82/82/82 81/81/81
f 82/82/82 83/83/83 81/81/81
f 82/82/82 84/84/84 83/83/83
f 84/84/84 85/85/85 83/83/83
f 84/84/84 86/86/86 85/85/85
f 86/86/86 87/87/87 85/85/85
f 86/86/86 88/88/88 87/87/87
f 88/88/88 89/89/89 87/87/87
f 88/88/88 90/90/90 89/89/89
f 90/90/90 91/91/91 89/89/89
f 90/90/90 92/92/92 91/91/91
f 92/92/92 93/93/93 91/91/91
f 92/92/92 94/94/94 93/93/93
f 94/94/94 95/95/95 93/93/93
f 98/98/98 97/97/97 96/96/96
f 99/99/99 98/98/98 96/96/96
f 102/102/102 101/101/101 100/100/100
f 103/103/103 102/102/102 100/100/100
f 104/104/104 103/103/103 100/100/100
f 105/105/105 104/104/104 100/100/100
f 106/106/106 105/105/105 100/100/100
f 107/107/107 106/106/106 100/100/100
f 108/108/108 107/107/107 100/100/100
f 109/109/109 108/108/108 100/100/100
f 110/110/110 109/109/109 100/100/100
f 101/101/101 110/110/110 100/100/100
f 113/113/113 112/112/112 111/111/111
f 112/112/112 114/114/114 111/111/111
f 114/114/114 115/115/115 111/111/111
f 115/115/115 116/116/116 111/111/111
f 116/116/116 117/117/117 111/111/111
f 117/117/117 118/118/118 111/111/111
f 118/118/118 119/119/119 111/111/111
f 119/119/119 120/120/120 111/111/111
f 120/120/120 121/121/121 111/111/111
f 121/121/121 113/113/113 111/111/111
f 124/124/124 123/123/123 122/122/122
f 125/125/125 124/124/124 122/122/122
f 126/126/126 124/124/124 125/125/125
f 127/127/127 126/126/126 125/125/125
f 128/128/128 126/126/126 127/127/127
f 129/129/129 128/128/128 127/127/127
f 130/130/130 128/128/128 129/129/129
f 131/131/131 130/130/130 129/129/129
f 132/132/132 130/130/130 131/131/131
f 133/133/133 132/132/132 131/131/131
f 134/134/134 132/132/132 133/133/133
f 135/135/135 134/134/134 133/133/133
f 136/136/136 134/134/134 135/135/135
f 137/137/137 136/136/136 135/135/135
f 138/138/138 136/136/136 137/137/137
f 139/139/139 138/138/138 137/137/137
f 140/140/140 138/138/138 139/139/139
f 141/141/141 140/140/140 139/139/139
f 123/123/123 140/140/140 141/141/141
f 122/122/122 123/123/123 141/141/141
f 144/144/144 143/143/143 142/142/142
f 145/145/145 144/144/144 142/142/142
f 144/144/144 146/146/146 143/143/143
f 146/146/146 147/147/147 143/143/143
f 146/146/146 148/148/148 147/147/147
f 148/148/148 149/149/149 147/147/147
f 148/148/148 150/150/150 149/149/149
f 150/150/150 151/151/151 149/149/149
f 150/150/150 152/152/152 151/151/151
f 152/152/152 153/153/153 151/151/151
f 152/152/152 154/154/154 153/153/153
f 154/154/154 155/155/155 153/153/153
f 154/154/154 156/156/156 155/155/155
f 156/156/156 157/157/157 155/155/155
f 156/156/156 158/158/158 157/157/157
f 158/158/158 159/159/159 157/157/157
f 158/158/158 160/160/160 159/159/159
f 160/160/160 161/161/161 159/159/159
f 160/160/160 145/145/145 161/161/161
f 145/145/145 142/142/142 161/161/161
f 164/164/164 163/163/163 162/162/162
f 165/165/165 164/164/164 162/162/162
f 166/166/166 165/165/165 162/162/162
f 167/167/167 166/166/166 162/162/162
f 168/168/168 167/167/167 162/162/162
f 169/169/169 168/168/168 162/162/162
f 170/170/170 169/169/169 162/162/162
f 171/171/171 170/170/170 162/162/162
f 172/172/172 171/171/171 162/162/162
f 163/163/163 172/172/172 162/162/162
