g Blue_Effect
v -2.583242 2.021494 -7.444713
v -2.583242 3.329969 -9.958249
v -2.583242 4.211123 -9.485254
v -2.583242 2.902662 -6.971718
v -2.583242 4.211123 -9.485254
v -2.583242 3.329969 -9.958249
v 2.583243 3.329969 -9.958249
v 2.583243 4.211123 -9.485254
v -2.583242 2.021494 -7.444713
v -2.583242 2.902662 -6.971718
v -2.583242 4.211123 -9.485254
v -2.583242 3.329969 -9.958249
v -2.583242 4.211123 -9.485254
v 2.583243 4.211123 -9.485254
v 2.583243 3.329969 -9.958249
v -2.583242 3.329969 -9.958249
v 2.583243 2.021494 -7.444713
v -2.583242 2.021494 -7.444713
v -2.583242 2.902662 -6.971718
v 2.583243 2.902662 -6.971718
v 2.583243 2.902662 -6.971718
v -2.583242 2.902662 -6.971718
v -2.583242 2.021494 -7.444713
v 2.583243 2.021494 -7.444713
v 2.583243 2.021494 -7.444713
v 2.583243 2.902662 -6.971718
v 2.583243 4.211123 -9.485254
v 2.583243 3.329969 -9.958249
v 2.583243 2.021494 -7.444713
v 2.583243 3.329969 -9.958249
v 2.583243 4.211123 -9.485254
v 2.583243 2.902662 -6.971718
vt -2.164394E-06 -2.164394E-06
vt 0.9999964 -2.164394E-06
vt 0.9999964 0.9999964
vt -2.164394E-06 0.9999964
vt -2.164394E-06 0.9999964
vt -2.164394E-06 -2.164394E-06
vt 1.054926 -2.164394E-06
vt 1.055423 0.9999964
vt -2.164394E-06 -2.164394E-06
vt -2.164394E-06 0.9999964
vt 0.9999964 0.9999964
vt 0.9999964 -2.164394E-06
vt -2.164394E-06 0.9999964
vt 1.055423 0.9999964
vt 1.054926 -2.164394E-06
vt -2.164394E-06 -2.164394E-06
vt -0.04882925 -2.164394E-06
vt 0.9999964 -2.164394E-06
vt 0.9999964 0.9999964
vt -0.04932654 0.9999964
vt -0.04932654 0.9999964
vt 0.9999964 0.9999964
vt 0.9999964 -2.164394E-06
vt -0.04882925 -2.164394E-06
vt -2.164394E-06 -2.164394E-06
vt -2.164394E-06 0.9999964
vt 0.9999964 0.9999964
vt 0.9999964 -2.164394E-06
vt -2.164394E-06 -2.164394E-06
vt 0.9999964 -2.164394E-06
vt 0.9999964 0.9999964
vt -2.164394E-06 0.9999964
vn -0.9999995 0.0009775162 0
vn -0.9999995 0.0009775162 0
vn -0.9999995 0.0009775162 0
vn -0.9999995 0.0009775162 0
vn -0.0009775162 0.4721406 -0.8815227
vn -0.0009775162 0.4721406 -0.8815227
vn -0.0009775162 0.4721406 -0.8815227
vn -0.0009775162 0.4721406 -0.8815227
vn 0.9999995 0.0009775162 0
vn 0.9999995 0.0009775162 0
vn 0.9999995 0.0009775162 0
vn 0.9999995 0.0009775162 0
vn -0.0009775162 -0.4721406 0.8815227
vn -0.0009775162 -0.4721406 0.8815227
vn -0.0009775162 -0.4721406 0.8815227
vn -0.0009775162 -0.4721406 0.8815227
vn -0.0009775162 -0.4721406 0.8815227
vn -0.0009775162 -0.4721406 0.8815227
vn -0.0009775162 -0.4721406 0.8815227
vn -0.0009775162 -0.4721406 0.8815227
vn -0.0009775162 0.4721406 -0.8815227
vn -0.0009775162 0.4721406 -0.8815227
vn -0.0009775162 0.4721406 -0.8815227
vn -0.0009775162 0.4721406 -0.8815227
vn 0.9999995 0.0009775162 0
vn 0.9999995 0.0009775162 0
vn 0.9999995 0.0009775162 0
vn 0.9999995 0.0009775162 0
vn -0.9999995 0.0009775162 0
vn -0.9999995 0.0009775162 0
vn -0.9999995 0.0009775162 0
vn -0.9999995 0.0009775162 0
g Blue_Effect_0
f 3/3/3 2/2/2 1/1/1
f 4/4/4 3/3/3 1/1/1
f 7/7/7 6/6/6 5/5/5
f 8/8/8 7/7/7 5/5/5
f 11/11/11 10/10/10 9/9/9
f 12/12/12 11/11/11 9/9/9
f 15/15/15 14/14/14 13/13/13
f 16/16/16 15/15/15 13/13/13
f 19/19/19 18/18/18 17/17/17
f 20/20/20 19/19/19 17/17/17
f 23/23/23 22/22/22 21/21/21
f 24/24/24 23/23/23 21/21/21
f 27/27/27 26/26/26 25/25/25
f 28/28/28 27/27/27 25/25/25
f 31/31/31 30/30/30 29/29/29
f 32/32/32 31/31/31 29/29/29
