g Board
v -2.100001 0.09443188 -9.195077
v 2.100005 0.09443188 -9.195077
v 2.100005 0.09443188 -5.395721
v -2.100001 0.09443188 -5.395721
v -2.100001 -2.268596 -9.787466
v -3.814697E-06 -2.268596 -9.787466
v -3.814697E-06 -0.855855 -9.972697
v -2.100001 -0.855855 -9.972697
v -2.100001 -3.826827 -9.238788
v -3.814697E-06 -3.826827 -9.238788
v -3.814697E-06 -5.316641 -8.524922
v -2.100001 -5.316641 -8.524922
v -3.814697E-06 -6.446573 -7.656936
v -2.100001 -6.446573 -7.656936
v 2.100005 -2.268596 -9.787466
v 2.100005 -0.855855 -9.972697
v 2.100005 -3.826827 -9.238788
v 2.100005 -5.316641 -8.524922
v 2.100005 -6.446573 -7.656936
v -2.100001 -0.855855 -9.972697
v -3.814697E-06 -0.855855 -9.972697
v -3.814697E-06 -0.01113129 -9.999989
v -2.100001 -0.01113129 -9.999989
v -2.100001 -6.446573 -7.656936
v -2.100001 -7.071066 -7.071054
v -3.814697E-06 -7.071066 -7.071054
v -3.814697E-06 -6.446573 -7.656936
v 2.100005 -0.855855 -9.972697
v 2.100005 -0.01113129 -9.999989
v -3.814697E-06 -0.01113129 -9.999989
v -3.814697E-06 -0.855855 -9.972697
v 2.100005 -6.446573 -7.656936
v -3.814697E-06 -6.446573 -7.656936
v -3.814697E-06 -7.071066 -7.071054
v 2.100005 -7.071066 -7.071054
v -2.100001 0.09443188 -9.899987
v -3.814697E-06 0.09443188 -9.899987
v -3.814697E-06 0.09443188 -9.195077
v -2.100001 0.09443188 -9.195077
v -3.814697E-06 0.09443188 -5.395721
v -3.814697E-06 0.09443188 -0.09999657
v -2.100001 0.09443188 -0.09999657
v -2.100001 0.09443188 -5.395721
v 2.100005 0.09443188 -9.899987
v 2.100005 0.09443188 -9.195077
v -3.814697E-06 0.09443188 -9.195077
v -3.814697E-06 0.09443188 -9.899987
v -3.814697E-06 0.09443188 -5.395721
v 2.100005 0.09443188 -5.395721
v 2.100005 0.09443188 -0.09999657
v -3.814697E-06 0.09443188 -0.09999657
v -2.100001 0.09443188 -9.899987
v -2.100001 -0.01113129 -9.999989
v -3.814697E-06 -0.01113129 -9.999989
v -3.814697E-06 0.09443188 -9.899987
v -3.814697E-06 0.09443188 -0.09999657
v -3.814697E-06 -0.01114273 3.814697E-06
v -2.100001 -0.01114273 3.814697E-06
v -2.100001 0.09443188 -0.09999657
v -3.814697E-06 0.09443188 -9.899987
v -3.814697E-06 -0.01113129 -9.999989
v 2.100005 -0.01113129 -9.999989
v 2.100005 0.09443188 -9.899987
v 2.100005 0.09443188 -0.09999657
v 2.100005 -0.01114273 3.814697E-06
v -3.814697E-06 -0.01114273 3.814697E-06
v -3.814697E-06 0.09443188 -0.09999657
vt 1.501454 0.9945156
vt 1.998539 0.9945156
vt 1.998539 0.00546962
vt 1.501454 0.00546962
vt 0.9502965 0.8638501
vt 0.8057479 0.8638501
vt 0.8057479 0.9610927
vt 0.9502965 0.9610927
vt 0.9502965 0.7565868
vt 0.8057479 0.7565868
vt 0.8057479 0.6540525
vt 0.9502965 0.6540525
vt 0.8057479 0.5762737
vt 0.9502965 0.5762737
vt 0.6611993 0.8638501
vt 0.6611993 0.9610927
vt 0.6611993 0.7565868
vt 0.6611993 0.6540525
vt 0.6611993 0.5762737
vt 0.3744288 0.9310456
vt 0.009924987 0.9310456
vt 0.009924987 0.9950934
vt 0.3744288 0.9950934
vt 0.3744288 0.9310456
vt 0.3744288 0.9950934
vt 0.009924987 0.9950934
vt 0.009924987 0.9310456
vt 0.3744288 0.9310456
vt 0.3744288 0.9950934
vt 0.009924987 0.9950934
vt 0.009924987 0.9310456
vt 0.3744288 0.9310456
vt 0.009924987 0.9310456
vt 0.009924987 0.9950934
vt 0.3744288 0.9950934
vt 0.3728626 0.9950934
vt 0.01261646 0.9950934
vt 0.01261646 0.9311064
vt 0.3728626 0.9311064
vt 0.01261646 0.5404027
vt 0.01261646 0.006625279
vt 0.3728626 0.006625279
vt 0.3728626 0.5404027
vt 0.3728626 0.9950934
vt 0.3728626 0.9311064
vt 0.01261646 0.9311064
vt 0.01261646 0.9950934
vt 0.01261646 0.5404027
vt 0.3728626 0.5404027
vt 0.3728626 0.006625279
vt 0.01261646 0.006625279
vt 0.4370016 0.3108828
vt 0.4370016 0.3294646
vt 0.455629 0.3294646
vt 0.455629 0.3108828
vt 0.4370472 0.3108828
vt 0.4370472 0.3294646
vt 0.4556746 0.3294646
vt 0.4556746 0.3108828
vt 0.4370472 0.3108828
vt 0.4370472 0.3294646
vt 0.455629 0.3294646
vt 0.455629 0.3108828
vt 0.4370472 0.3108828
vt 0.4370472 0.3294646
vt 0.455629 0.3294646
vt 0.455629 0.3108828
vn -0.0006700754 0.9999998 0
vn -0.0006700754 0.9999998 0
vn -0.0006700754 0.9999998 0
vn -0.0006700754 0.9999998 0
vn -0.0006700754 -0.2396959 -0.9708478
vn -0.0006700754 -0.2396959 -0.9708478
vn -0.0006700754 -0.09317148 -0.9956498
vn -0.0006700754 -0.09317148 -0.9956498
vn -0.0006700754 -0.3829277 -0.9237781
vn -0.0006700754 -0.3829277 -0.9237781
vn -0.0006700754 -0.5162814 -0.8564187
vn -0.0006700754 -0.5162814 -0.8564187
vn -0.0006700754 -0.6381108 -0.7699443
vn -0.0006700754 -0.6381108 -0.7699443
vn -0.0006700754 -0.2396959 -0.9708478
vn -0.0006700754 -0.09317148 -0.9956498
vn -0.0006700754 -0.3829277 -0.9237781
vn -0.0006700754 -0.5162814 -0.8564187
vn -0.0006700754 -0.6381108 -0.7699443
vn -0.0006700754 -0.09317148 -0.9956498
vn -0.0006700754 -0.09317148 -0.9956498
vn -0.0006700754 -0.03225678 -0.9994794
vn -0.0006700754 -0.03225678 -0.9994794
vn -0.0006700754 -0.6381108 -0.7699443
vn -0.0006700754 -0.6842083 -0.7292863
vn -0.0006700754 -0.6842083 -0.7292863
vn -0.0006700754 -0.6381108 -0.7699443
vn -0.0006700754 -0.09317148 -0.9956498
vn -0.0006700754 -0.03225678 -0.9994794
vn -0.0006700754 -0.03225678 -0.9994794
vn -0.0006700754 -0.09317148 -0.9956498
vn -0.0006700754 -0.6381108 -0.7699443
vn -0.0006700754 -0.6381108 -0.7699443
vn -0.0006700754 -0.6842083 -0.7292863
vn -0.0006700754 -0.6842083 -0.7292863
vn -0.0006700754 0.9999998 0
vn -0.0006700754 0.9999998 0
vn -0.0006700754 0.9999998 0
vn -0.0006700754 0.9999998 0
vn -0.0006700754 0.9999998 0
vn -0.0006700754 0.9999998 0
vn -0.0006700754 0.9999998 0
vn -0.0006700754 0.9999998 0
vn -0.0006700754 0.9999998 0
vn -0.0006700754 0.9999998 0
vn -0.0006700754 0.9999998 0
vn -0.0006700754 0.9999998 0
vn -0.0006700754 0.9999998 0
vn -0.0006700754 0.9999998 0
vn -0.0006700754 0.9999998 0
vn -0.0006700754 0.9999998 0
vn -0.0006700754 0.6871948 -0.7264729
vn -0.0006700754 0.6871948 -0.7264729
vn -0.0006700754 0.6871948 -0.7264729
vn -0.0006700754 0.6871948 -0.7264729
vn -0.0006700754 0.6871948 0.7264729
vn -0.0006700754 0.6871948 0.7264729
vn -0.0006700754 0.6871948 0.7264729
vn -0.0006700754 0.6871948 0.7264729
vn -0.0006700754 0.6871948 -0.7264729
vn -0.0006700754 0.6871948 -0.7264729
vn -0.0006700754 0.6871948 -0.7264729
vn -0.0006700754 0.6871948 -0.7264729
vn -0.0006700754 0.6871948 0.7264729
vn -0.0006700754 0.6871948 0.7264729
vn -0.0006700754 0.6871948 0.7264729
vn -0.0006700754 0.6871948 0.7264729
g Board_0
f 3/3/3 2/2/2 1/1/1
f 4/4/4 3/3/3 1/1/1
g Board_1
f 7/7/7 6/6/6 5/5/5
f 8/8/8 7/7/7 5/5/5
f 5/5/5 6/6/6 9/9/9
f 6/6/6 10/10/10 9/9/9
f 10/10/10 11/11/11 9/9/9
f 11/11/11 12/12/12 9/9/9
f 11/11/11 13/13/13 12/12/12
f 13/13/13 14/14/14 12/12/12
f 6/6/6 7/7/7 15/15/15
f 7/7/7 16/16/16 15/15/15
f 6/6/6 15/15/15 17/17/17
f 10/10/10 6/6/6 17/17/17
f 11/11/11 10/10/10 17/17/17
f 13/13/13 11/11/11 18/18/18
f 18/18/18 11/11/11 17/17/17
f 19/19/19 13/13/13 18/18/18
f 22/22/22 21/21/21 20/20/20
f 23/23/23 22/22/22 20/20/20
f 26/26/26 25/25/25 24/24/24
f 27/27/27 26/26/26 24/24/24
f 30/30/30 29/29/29 28/28/28
f 31/31/31 30/30/30 28/28/28
f 34/34/34 33/33/33 32/32/32
f 35/35/35 34/34/34 32/32/32
f 38/38/38 37/37/37 36/36/36
f 39/39/39 38/38/38 36/36/36
f 42/42/42 41/41/41 40/40/40
f 43/43/43 42/42/42 40/40/40
f 46/46/46 45/45/45 44/44/44
f 47/47/47 46/46/46 44/44/44
f 50/50/50 49/49/49 48/48/48
f 51/51/51 50/50/50 48/48/48
f 54/54/54 53/53/53 52/52/52
f 55/55/55 54/54/54 52/52/52
f 58/58/58 57/57/57 56/56/56
f 59/59/59 58/58/58 56/56/56
f 62/62/62 61/61/61 60/60/60
f 63/63/63 62/62/62 60/60/60
f 66/66/66 65/65/65 64/64/64
f 67/67/67 66/66/66 64/64/64
