g Board
v -1.907349E-06 0.005491734 -0.4319732
v 2.268002 0.005491734 -0.4319732
v 2.268002 0.03849125 -0.3780029
v -1.907349E-06 0.03849125 -0.3780029
v -1.907349E-06 0.03849125 -0.3780029
v 2.268002 0.03849125 -0.3780029
v 2.268002 0.03849125 -0.05399823
v -1.907349E-06 0.03849125 -0.05399823
v -1.907349E-06 0.03849125 -0.05399823
v 2.268002 0.03849125 -0.05399823
v 2.268002 1.907349E-06 1.907349E-06
v -1.907349E-06 1.907349E-06 1.907349E-06
v -1.907349E-06 -0.3270051 1.907349E-06
v 2.268002 -0.3270051 1.907349E-06
v 2.268002 -0.3270051 -2.916001
v -1.907349E-06 -0.3270051 -2.916001
v -1.907349E-06 1.907349E-06 1.907349E-06
v 2.268002 1.907349E-06 1.907349E-06
v 2.268002 -0.3270051 1.907349E-06
v -1.907349E-06 -0.3270051 1.907349E-06
v -1.907349E-06 1.907349E-06 -2.916001
v 2.268002 1.907349E-06 -2.916001
v 2.268002 0.03849626 -2.862006
v -1.907349E-06 0.03849626 -2.862006
v -1.907349E-06 0.03849626 -2.862006
v 2.268002 0.03849626 -2.862006
v 2.268002 0.03849626 -2.538002
v -1.907349E-06 0.03849626 -2.538002
v -1.907349E-06 0.03849626 -2.538002
v 2.268002 0.03849626 -2.538002
v 2.268002 0.00549674 -2.483987
v -1.907349E-06 0.00549674 -2.483987
v -1.907349E-06 -0.3270051 -2.916001
v 2.268002 -0.3270051 -2.916001
v 2.268002 1.907349E-06 -2.916001
v -1.907349E-06 1.907349E-06 -2.916001
v -1.907349E-06 0.00549674 -2.483987
v 2.268002 0.00549674 -2.483987
v 2.268002 0.005491734 -0.4319732
v -1.907349E-06 0.005491734 -0.4319732
v 0.1189981 0.04349661 -0.5808218
v 1.134007 0.04349661 -2.332883
v 1.133993 0.04349661 -1.456879
v 0.626478 0.04349661 -0.5808218
v 2.149002 0.0434916 -0.5808365
v 1.641512 0.04349661 -0.5808218
v 0.1189981 0.04349661 -0.5808218
v 0.626478 0.04349661 -0.5808218
v 0.6887228 -0.09499526 -0.4945545
v -1.907349E-06 -0.09499526 -0.487076
v 0.626478 0.04349661 -0.5808218
v 1.133993 0.04349661 -1.456879
v 1.133993 -0.09499526 -1.285952
v 0.6887228 -0.09499526 -0.4945545
v 1.134007 0.04349661 -2.332883
v 0.1189981 0.04349661 -0.5808218
v -1.907349E-06 -0.09499526 -0.487076
v 1.134007 -0.09499526 -2.457704
v 2.149002 0.0434916 -0.5808365
v 1.134007 0.04349661 -2.332883
v 1.134007 -0.09499526 -2.457704
v 2.270208 -0.09500027 -0.4870911
v 1.133993 0.04349661 -1.456879
v 1.641512 0.04349661 -0.5808218
v 1.579262 -0.09499526 -0.4945545
v 1.133993 -0.09499526 -1.285952
v 1.641512 0.04349661 -0.5808218
v 2.149002 0.0434916 -0.5808365
v 2.270208 -0.09500027 -0.4870911
v 1.579262 -0.09499526 -0.4945545
v 2.268002 -0.2677476 -1.275348
v -1.907349E-06 -0.2677476 -1.275348
v -1.907349E-06 -0.4811559 -1.232892
v 2.268002 -0.4811559 -1.232892
v -1.907349E-06 -0.6620741 -1.112013
v 2.268002 -0.6620741 -1.112013
v -1.907349E-06 -0.782958 -0.9310945
v 2.268002 -0.782958 -0.9310945
v -1.907349E-06 -0.8254094 -0.7176864
v 2.268002 -0.8254094 -0.7176864
v -1.907349E-06 -0.782958 -0.5042782
v 2.268002 -0.782958 -0.5042782
v -1.907349E-06 -0.6620741 -0.323355
v 2.268002 -0.6620741 -0.323355
v -1.907349E-06 -0.4811559 -0.2024708
v 2.268002 -0.4811559 -0.2024708
v -1.907349E-06 -0.2677476 -0.1600246
v 2.268002 -0.2677476 -0.1600246
v -1.907349E-06 0.005491734 -0.4319732
v -1.907349E-06 0.03849125 -0.3780029
v -2.268 0.03849125 -0.3780029
v -2.268 0.005491734 -0.4319732
v -1.907349E-06 0.03849125 -0.3780029
v -1.907349E-06 0.03849125 -0.05399823
v -2.268 0.03849125 -0.05399823
v -2.268 0.03849125 -0.3780029
v -1.907349E-06 0.03849125 -0.05399823
v -1.907349E-06 1.907349E-06 1.907349E-06
v -2.268005 1.907349E-06 1.907349E-06
v -2.268 0.03849125 -0.05399823
v -1.907349E-06 -0.3270051 1.907349E-06
v -1.907349E-06 -0.3270051 -2.916001
v -2.268005 -0.3270051 -2.916001
v -2.268005 -0.3270051 1.907349E-06
v -1.907349E-06 1.907349E-06 1.907349E-06
v -1.907349E-06 -0.3270051 1.907349E-06
v -2.268005 -0.3270051 1.907349E-06
v -2.268005 1.907349E-06 1.907349E-06
v -1.907349E-06 1.907349E-06 -2.916001
v -1.907349E-06 0.03849626 -2.862006
v -2.268 0.03849626 -2.862006
v -2.268005 1.907349E-06 -2.916001
v -1.907349E-06 0.03849626 -2.862006
v -1.907349E-06 0.03849626 -2.538002
v -2.268 0.03849626 -2.538002
v -2.268 0.03849626 -2.862006
v -1.907349E-06 0.03849626 -2.538002
v -1.907349E-06 0.00549674 -2.483987
v -2.268 0.00549674 -2.483987
v -2.268 0.03849626 -2.538002
v -1.907349E-06 -0.3270051 -2.916001
v -1.907349E-06 1.907349E-06 -2.916001
v -2.268005 1.907349E-06 -2.916001
v -2.268005 -0.3270051 -2.916001
v -1.907349E-06 0.00549674 -2.483987
v -1.907349E-06 0.005491734 -0.4319732
v -2.268 0.005491734 -0.4319732
v -2.268 0.00549674 -2.483987
v -0.1190016 0.04349661 -0.5808218
v -0.6264765 0.04349661 -0.5808218
v -1.133991 0.04349661 -1.456879
v -1.134006 0.04349661 -2.332883
v -2.149001 0.0434916 -0.5808365
v -1.641511 0.04349661 -0.5808218
v -0.1190016 0.04349661 -0.5808218
v -1.907349E-06 -0.09499526 -0.487076
v -0.6887214 -0.09499526 -0.4945545
v -0.6264765 0.04349661 -0.5808218
v -0.6264765 0.04349661 -0.5808218
v -0.6887214 -0.09499526 -0.4945545
v -1.133991 -0.09499526 -1.285952
v -1.133991 0.04349661 -1.456879
v -1.134006 0.04349661 -2.332883
v -1.134006 -0.09499526 -2.457704
v -1.907349E-06 -0.09499526 -0.487076
v -0.1190016 0.04349661 -0.5808218
v -2.149001 0.0434916 -0.5808365
v -2.270206 -0.09500027 -0.4870911
v -1.134006 -0.09499526 -2.457704
v -1.134006 0.04349661 -2.332883
v -1.133991 0.04349661 -1.456879
v -1.133991 -0.09499526 -1.285952
v -1.579266 -0.09499526 -0.4945545
v -1.641511 0.04349661 -0.5808218
v -1.641511 0.04349661 -0.5808218
v -1.579266 -0.09499526 -0.4945545
v -2.270206 -0.09500027 -0.4870911
v -2.149001 0.0434916 -0.5808365
v -2.268 -0.2677476 -1.275348
v -2.268 -0.4811559 -1.232892
v -1.907349E-06 -0.4811559 -1.232892
v -1.907349E-06 -0.2677476 -1.275348
v -1.907349E-06 -0.6620741 -1.112013
v -2.268 -0.6620741 -1.112013
v -1.907349E-06 -0.782958 -0.9310945
v -2.268 -0.782958 -0.9310945
v -1.907349E-06 -0.8254094 -0.7176864
v -2.268 -0.8254094 -0.7176864
v -1.907349E-06 -0.782958 -0.5042782
v -2.268 -0.782958 -0.5042782
v -1.907349E-06 -0.6620741 -0.323355
v -2.268 -0.6620741 -0.323355
v -1.907349E-06 -0.4811559 -0.2024708
v -2.268 -0.4811559 -0.2024708
v -1.907349E-06 -0.2677476 -0.1600246
v -2.268 -0.2677476 -0.1600246
vt 0.1228018 0.2013339
vt 0.1228018 0.2008839
vt 0.1227882 0.2009112
vt 0.1227882 0.2013339
vt 0.1227882 0.2013339
vt 0.1227882 0.2009112
vt 0.12272 0.200843
vt 0.12272 0.2013339
vt 0.12272 0.2013339
vt 0.12272 0.200843
vt 0.1227064 0.2008293
vt 0.1227064 0.2013339
vt 0.7542084 0.369539
vt 0.7710493 0.369539
vt 0.7710493 0.3909208
vt 0.7542084 0.3909208
vt 0.12227 0.233434
vt 0.12227 0.1050472
vt 0.1155063 0.1005063
vt 0.1155063 0.233434
vt 0.1233473 0.2013339
vt 0.1233473 0.2008293
vt 0.1233336 0.200843
vt 0.1233336 0.2013339
vt 0.1233336 0.2013339
vt 0.1233336 0.200843
vt 0.1232655 0.2009112
vt 0.1232655 0.2013339
vt 0.1232655 0.2013339
vt 0.1232655 0.2009112
vt 0.1232518 0.2008839
vt 0.1232518 0.2013339
vt 0.2920569 0.233434
vt 0.2920569 0.1005063
vt 0.2852932 0.1050472
vt 0.2852932 0.233434
vt 0.304616 0.9913864
vt 0.5994897 0.9913864
vt 0.5994897 0.7157946
vt 0.304616 0.7157946
vt 0.6814445 0.7363992
vt 0.8136495 0.9825909
vt 0.8136904 0.8243404
vt 0.7667266 0.7363992
vt 0.9459226 0.7363992
vt 0.8606405 0.7363992
vt 0.6814445 0.7363992
vt 0.7667266 0.7363992
vt 0.7717039 0.7289265
vt 0.6712036 0.7289265
vt 0.7667266 0.7363992
vt 0.8136904 0.8243404
vt 0.8136904 0.8115767
vt 0.7717039 0.7289265
vt 0.8136495 0.9825909
vt 0.6814445 0.7363992
vt 0.6712036 0.7289265
vt 0.8136904 0.9941682
vt 0.9459226 0.7363992
vt 0.8136495 0.9825909
vt 0.8136904 0.9941682
vt 0.9561636 0.7289265
vt 0.8136904 0.8243404
vt 0.8606405 0.7363992
vt 0.8556632 0.7289265
vt 0.8136904 0.8115767
vt 0.8606405 0.7363992
vt 0.9459226 0.7363992
vt 0.9561636 0.7289265
vt 0.8556632 0.7289265
vt 0.4392346 0.2114657
vt 0.4392346 0.2094612
vt 0.4390437 0.2094612
vt 0.4390437 0.2114657
vt 0.4388392 0.2094612
vt 0.4388392 0.2114657
vt 0.4386483 0.2094612
vt 0.4386483 0.2114657
vt 0.4384574 0.2094612
vt 0.4384574 0.2114657
vt 0.4382528 0.2094612
vt 0.4382528 0.2114657
vt 0.4380619 0.2094612
vt 0.4380619 0.2114657
vt 0.4378573 0.2094612
vt 0.4378573 0.2114657
vt 0.4376665 0.2094612
vt 0.4376665 0.2114657
vt 0.1228018 0.2013339
vt 0.1227882 0.2013339
vt 0.1227882 0.2009112
vt 0.1228018 0.2008839
vt 0.1227882 0.2013339
vt 0.12272 0.2013339
vt 0.12272 0.200843
vt 0.1227882 0.2009112
vt 0.12272 0.2013339
vt 0.1227064 0.2013339
vt 0.1227064 0.2008293
vt 0.12272 0.200843
vt 0.7542084 0.369539
vt 0.7542084 0.3909208
vt 0.7710493 0.3909208
vt 0.7710493 0.369539
vt 0.12227 0.233434
vt 0.1155063 0.233434
vt 0.1155063 0.1005063
vt 0.12227 0.1050472
vt 0.1233473 0.2013339
vt 0.1233336 0.2013339
vt 0.1233336 0.200843
vt 0.1233473 0.2008293
vt 0.1233336 0.2013339
vt 0.1232655 0.2013339
vt 0.1232655 0.2009112
vt 0.1233336 0.200843
vt 0.1232655 0.2013339
vt 0.1232518 0.2013339
vt 0.1232518 0.2008839
vt 0.1232655 0.2009112
vt 0.2920569 0.233434
vt 0.2852932 0.233434
vt 0.2852932 0.1050472
vt 0.2920569 0.1005063
vt 0.304616 0.9913864
vt 0.304616 0.7157946
vt 0.5994897 0.7157946
vt 0.5994897 0.9913864
vt 0.6814445 0.7363992
vt 0.7667266 0.7363992
vt 0.8136904 0.8243404
vt 0.8136495 0.9825909
vt 0.9459226 0.7363992
vt 0.8606405 0.7363992
vt 0.6814445 0.7363992
vt 0.6712036 0.7289265
vt 0.7717039 0.7289265
vt 0.7667266 0.7363992
vt 0.7667266 0.7363992
vt 0.7717039 0.7289265
vt 0.8136904 0.8115767
vt 0.8136904 0.8243404
vt 0.8136495 0.9825909
vt 0.8136904 0.9941682
vt 0.6712036 0.7289265
vt 0.6814445 0.7363992
vt 0.9459226 0.7363992
vt 0.9561636 0.7289265
vt 0.8136904 0.9941682
vt 0.8136495 0.9825909
vt 0.8136904 0.8243404
vt 0.8136904 0.8115767
vt 0.8556632 0.7289265
vt 0.8606405 0.7363992
vt 0.8606405 0.7363992
vt 0.8556632 0.7289265
vt 0.9561636 0.7289265
vt 0.9459226 0.7363992
vt 0.4392346 0.2114657
vt 0.4390437 0.2114657
vt 0.4390437 0.2094612
vt 0.4392346 0.2094612
vt 0.4388392 0.2094612
vt 0.4388392 0.2114657
vt 0.4386483 0.2094612
vt 0.4386483 0.2114657
vt 0.4384574 0.2094612
vt 0.4384574 0.2114657
vt 0.4382528 0.2094612
vt 0.4382528 0.2114657
vt 0.4380619 0.2094612
vt 0.4380619 0.2114657
vt 0.4378573 0.2094612
vt 0.4378573 0.2114657
vt 0.4376665 0.2094612
vt 0.4376665 0.2114657
vn -0.0009775162 0.853372 -0.5213016
vn -0.0009775162 0.853372 -0.5213016
vn -0.0009775162 0.853372 -0.5213016
vn -0.0009775162 0.853372 -0.5213016
vn -0.0009775162 0.9999995 0
vn -0.0009775162 0.9999995 0
vn -0.0009775162 0.9999995 0
vn -0.0009775162 0.9999995 0
vn -0.0009775162 0.8142713 0.5804837
vn -0.0009775162 0.8142713 0.5804837
vn -0.0009775162 0.8142713 0.5804837
vn -0.0009775162 0.8142713 0.5804837
vn -0.0009775162 -0.9999995 0
vn -0.0009775162 -0.9999995 0
vn -0.0009775162 -0.9999995 0
vn -0.0009775162 -0.9999995 0
vn -0.0009775162 0.0009775162 0.999999
vn -0.0009775162 0.0009775162 0.999999
vn -0.0009775162 0.0009775162 0.999999
vn -0.0009775162 0.0009775162 0.999999
vn -0.0009775162 0.8142713 -0.5804837
vn -0.0009775162 0.8142713 -0.5804837
vn -0.0009775162 0.8142713 -0.5804837
vn -0.0009775162 0.8142713 -0.5804837
vn -0.0009775162 0.9999995 0
vn -0.0009775162 0.9999995 0
vn -0.0009775162 0.9999995 0
vn -0.0009775162 0.9999995 0
vn -0.0009775162 0.853372 0.5213016
vn -0.0009775162 0.853372 0.5213016
vn -0.0009775162 0.853372 0.5213016
vn -0.0009775162 0.853372 0.5213016
vn -0.0009775162 0.0009775162 -0.999999
vn -0.0009775162 0.0009775162 -0.999999
vn -0.0009775162 0.0009775162 -0.999999
vn -0.0009775162 0.0009775162 -0.999999
vn -0.0009775162 0.9999995 0
vn -0.0009775162 0.9999995 0
vn -0.0009775162 0.9999995 0
vn -0.0009775162 0.9999995 0
vn 0.0009775162 0.9999995 0
vn 0.0009775162 0.9999995 0
vn 0.0009775162 0.9999995 0
vn 0.0009775162 0.9999995 0
vn 0.0009775162 0.9999995 0
vn 0.0009775162 0.9999995 0
vn 0.004887581 0.5444767 0.8387617
vn 0.004887581 0.5444767 0.8387617
vn 0.004887581 0.5444767 0.8387617
vn 0.004887581 0.5444767 0.8387617
vn 0.7262949 0.5483868 0.4144486
vn 0.7262949 0.5483868 0.4144486
vn 0.7262949 0.5483868 0.4144486
vn 0.7262949 0.5483868 0.4144486
vn -0.796676 0.3939393 -0.4583875
vn -0.796676 0.3939393 -0.4583875
vn -0.796676 0.3939393 -0.4583875
vn -0.796676 0.3939393 -0.4583875
vn 0.794721 0.3998044 -0.4567001
vn 0.794721 0.3998044 -0.4567001
vn 0.794721 0.3998044 -0.4567001
vn 0.794721 0.3998044 -0.4567001
vn -0.7262949 0.5483868 0.4144486
vn -0.7262949 0.5483868 0.4144486
vn -0.7262949 0.5483868 0.4144486
vn -0.7262949 0.5483868 0.4144486
vn -0.004887581 0.5444767 0.8387617
vn -0.004887581 0.5444767 0.8387617
vn -0.004887581 0.5444767 0.8387617
vn -0.004887581 0.5444767 0.8387617
vn -0.0009775162 -0.1945258 -0.9808969
vn -0.0009775162 -0.1945258 -0.9808969
vn -0.0009775162 -0.382209 -0.9240754
vn -0.0009775162 -0.382209 -0.9240754
vn -0.0009775162 -0.7067446 -0.7074682
vn -0.0009775162 -0.7067446 -0.7074682
vn -0.0009775162 -0.9237532 -0.382987
vn -0.0009775162 -0.9237532 -0.382987
vn -0.0009775162 -0.9999995 0
vn -0.0009775162 -0.9999995 0
vn -0.0009775162 -0.9237532 0.382987
vn -0.0009775162 -0.9237532 0.382987
vn -0.0009775162 -0.7067446 0.7074682
vn -0.0009775162 -0.7067446 0.7074682
vn -0.0009775162 -0.382209 0.9240754
vn -0.0009775162 -0.382209 0.9240754
vn -0.0009775162 -0.1945258 0.9808969
vn -0.0009775162 -0.1945258 0.9808969
vn -0.0009775162 0.853372 -0.5213016
vn -0.0009775162 0.853372 -0.5213016
vn -0.0009775162 0.853372 -0.5213016
vn -0.0009775162 0.853372 -0.5213016
vn -0.0009775162 0.9999995 0
vn -0.0009775162 0.9999995 0
vn -0.0009775162 0.9999995 0
vn -0.0009775162 0.9999995 0
vn -0.0009775162 0.8142713 0.5804837
vn -0.0009775162 0.8142713 0.5804837
vn -0.0009775162 0.8142713 0.5804837
vn -0.0009775162 0.8142713 0.5804837
vn -0.0009775162 -0.9999995 0
vn -0.0009775162 -0.9999995 0
vn -0.0009775162 -0.9999995 0
vn -0.0009775162 -0.9999995 0
vn -0.0009775162 0.0009775162 0.999999
vn -0.0009775162 0.0009775162 0.999999
vn -0.0009775162 0.0009775162 0.999999
vn -0.0009775162 0.0009775162 0.999999
vn -0.0009775162 0.8142713 -0.5804837
vn -0.0009775162 0.8142713 -0.5804837
vn -0.0009775162 0.8142713 -0.5804837
vn -0.0009775162 0.8142713 -0.5804837
vn -0.0009775162 0.9999995 0
vn -0.0009775162 0.9999995 0
vn -0.0009775162 0.9999995 0
vn -0.0009775162 0.9999995 0
vn -0.0009775162 0.853372 0.5213016
vn -0.0009775162 0.853372 0.5213016
vn -0.0009775162 0.853372 0.5213016
vn -0.0009775162 0.853372 0.5213016
vn -0.0009775162 0.0009775162 -0.999999
vn -0.0009775162 0.0009775162 -0.999999
vn -0.0009775162 0.0009775162 -0.999999
vn -0.0009775162 0.0009775162 -0.999999
vn -0.0009775162 0.9999995 0
vn -0.0009775162 0.9999995 0
vn -0.0009775162 0.9999995 0
vn -0.0009775162 0.9999995 0
vn -0.0009775162 0.9999995 0
vn -0.0009775162 0.9999995 0
vn -0.0009775162 0.9999995 0
vn -0.0009775162 0.9999995 0
vn -0.0009775162 0.9999995 0
vn -0.0009775162 0.9999995 0
vn -0.004887581 0.5444767 0.8387617
vn -0.004887581 0.5444767 0.8387617
vn -0.004887581 0.5444767 0.8387617
vn -0.004887581 0.5444767 0.8387617
vn -0.7262949 0.5483868 0.4144486
vn -0.7262949 0.5483868 0.4144486
vn -0.7262949 0.5483868 0.4144486
vn -0.7262949 0.5483868 0.4144486
vn 0.796676 0.3939393 -0.4583875
vn 0.796676 0.3939393 -0.4583875
vn 0.796676 0.3939393 -0.4583875
vn 0.796676 0.3939393 -0.4583875
vn -0.794721 0.3998044 -0.4567001
vn -0.794721 0.3998044 -0.4567001
vn -0.794721 0.3998044 -0.4567001
vn -0.794721 0.3998044 -0.4567001
vn 0.7262949 0.5483868 0.4144486
vn 0.7262949 0.5483868 0.4144486
vn 0.7262949 0.5483868 0.4144486
vn 0.7262949 0.5483868 0.4144486
vn 0.004887581 0.5444767 0.8387617
vn 0.004887581 0.5444767 0.8387617
vn 0.004887581 0.5444767 0.8387617
vn 0.004887581 0.5444767 0.8387617
vn -0.0009775162 -0.1945258 -0.9808969
vn -0.0009775162 -0.382209 -0.9240754
vn -0.0009775162 -0.382209 -0.9240754
vn -0.0009775162 -0.1945258 -0.9808969
vn -0.0009775162 -0.7067446 -0.7074682
vn -0.0009775162 -0.7067446 -0.7074682
vn -0.0009775162 -0.9237532 -0.382987
vn -0.0009775162 -0.9237532 -0.382987
vn -0.0009775162 -0.9999995 0
vn -0.0009775162 -0.9999995 0
vn -0.0009775162 -0.9237532 0.382987
vn -0.0009775162 -0.9237532 0.382987
vn -0.0009775162 -0.7067446 0.7074682
vn -0.0009775162 -0.7067446 0.7074682
vn -0.0009775162 -0.382209 0.9240754
vn -0.0009775162 -0.382209 0.9240754
vn -0.0009775162 -0.1945258 0.9808969
vn -0.0009775162 -0.1945258 0.9808969
g Board_0
f 3/3/3 2/2/2 1/1/1
f 4/4/4 3/3/3 1/1/1
f 7/7/7 6/6/6 5/5/5
f 8/8/8 7/7/7 5/5/5
f 11/11/11 10/10/10 9/9/9
f 12/12/12 11/11/11 9/9/9
f 15/15/15 14/14/14 13/13/13
f 16/16/16 15/15/15 13/13/13
f 19/19/19 18/18/18 17/17/17
f 20/20/20 19/19/19 17/17/17
f 23/23/23 22/22/22 21/21/21
f 24/24/24 23/23/23 21/21/21
f 27/27/27 26/26/26 25/25/25
f 28/28/28 27/27/27 25/25/25
f 31/31/31 30/30/30 29/29/29
f 32/32/32 31/31/31 29/29/29
f 35/35/35 34/34/34 33/33/33
f 36/36/36 35/35/35 33/33/33
f 39/39/39 38/38/38 37/37/37
f 40/40/40 39/39/39 37/37/37
f 43/43/43 42/42/42 41/41/41
f 44/44/44 43/43/43 41/41/41
f 42/42/42 43/43/43 45/45/45
f 43/43/43 46/46/46 45/45/45
f 49/49/49 48/48/48 47/47/47
f 50/50/50 49/49/49 47/47/47
f 53/53/53 52/52/52 51/51/51
f 54/54/54 53/53/53 51/51/51
f 57/57/57 56/56/56 55/55/55
f 58/58/58 57/57/57 55/55/55
f 61/61/61 60/60/60 59/59/59
f 62/62/62 61/61/61 59/59/59
f 65/65/65 64/64/64 63/63/63
f 66/66/66 65/65/65 63/63/63
f 69/69/69 68/68/68 67/67/67
f 70/70/70 69/69/69 67/67/67
f 73/73/73 72/72/72 71/71/71
f 74/74/74 73/73/73 71/71/71
f 75/75/75 73/73/73 74/74/74
f 76/76/76 75/75/75 74/74/74
f 77/77/77 75/75/75 76/76/76
f 78/78/78 77/77/77 76/76/76
f 79/79/79 77/77/77 78/78/78
f 80/80/80 79/79/79 78/78/78
f 81/81/81 79/79/79 80/80/80
f 82/82/82 81/81/81 80/80/80
f 83/83/83 81/81/81 82/82/82
f 84/84/84 83/83/83 82/82/82
f 85/85/85 83/83/83 84/84/84
f 86/86/86 85/85/85 84/84/84
f 87/87/87 85/85/85 86/86/86
f 88/88/88 87/87/87 86/86/86
f 91/91/91 90/90/90 89/89/89
f 92/92/92 91/91/91 89/89/89
f 95/95/95 94/94/94 93/93/93
f 96/96/96 95/95/95 93/93/93
f 99/99/99 98/98/98 97/97/97
f 100/100/100 99/99/99 97/97/97
f 103/103/103 102/102/102 101/101/101
f 104/104/104 103/103/103 101/101/101
f 107/107/107 106/106/106 105/105/105
f 108/108/108 107/107/107 105/105/105
f 111/111/111 110/110/110 109/109/109
f 112/112/112 111/111/111 109/109/109
f 115/115/115 114/114/114 113/113/113
f 116/116/116 115/115/115 113/113/113
f 119/119/119 118/118/118 117/117/117
f 120/120/120 119/119/119 117/117/117
f 123/123/123 122/122/122 121/121/121
f 124/124/124 123/123/123 121/121/121
f 127/127/127 126/126/126 125/125/125
f 128/128/128 127/127/127 125/125/125
f 131/131/131 130/130/130 129/129/129
f 132/132/132 131/131/131 129/129/129
f 131/131/131 132/132/132 133/133/133
f 134/134/134 131/131/131 133/133/133
f 137/137/137 136/136/136 135/135/135
f 138/138/138 137/137/137 135/135/135
f 141/141/141 140/140/140 139/139/139
f 142/142/142 141/141/141 139/139/139
f 145/145/145 144/144/144 143/143/143
f 146/146/146 145/145/145 143/143/143
f 149/149/149 148/148/148 147/147/147
f 150/150/150 149/149/149 147/147/147
f 153/153/153 152/152/152 151/151/151
f 154/154/154 153/153/153 151/151/151
f 157/157/157 156/156/156 155/155/155
f 158/158/158 157/157/157 155/155/155
f 161/161/161 160/160/160 159/159/159
f 162/162/162 161/161/161 159/159/159
f 161/161/161 163/163/163 160/160/160
f 163/163/163 164/164/164 160/160/160
f 163/163/163 165/165/165 164/164/164
f 165/165/165 166/166/166 164/164/164
f 165/165/165 167/167/167 166/166/166
f 167/167/167 168/168/168 166/166/166
f 167/167/167 169/169/169 168/168/168
f 169/169/169 170/170/170 168/168/168
f 169/169/169 171/171/171 170/170/170
f 171/171/171 172/172/172 170/170/170
f 171/171/171 173/173/173 172/172/172
f 173/173/173 174/174/174 172/172/172
f 173/173/173 175/175/175 174/174/174
f 175/175/175 176/176/176 174/174/174
