g Board
v 2.384186E-06 -0.495831 -2.361757
v 2.384186E-06 -0.8910294 -2.283148
v 2.099997 -0.8910294 -2.283148
v 2.099997 -0.495831 -2.361757
v 2.099997 -1.226065 -2.059281
v 2.384186E-06 -1.226065 -2.059281
v 2.099997 -1.449924 -1.724246
v 2.384186E-06 -1.449924 -1.724246
v 2.099997 -1.528534 -1.329047
v 2.384186E-06 -1.528534 -1.329047
v 2.099997 -1.449924 -0.9338484
v 2.384186E-06 -1.449924 -0.9338484
v 2.099997 -1.226065 -0.5988131
v 2.384186E-06 -1.226065 -0.5988131
v 2.099997 -0.8910294 -0.3749461
v 2.384186E-06 -0.8910294 -0.3749461
v 2.099997 -0.495831 -0.2963367
v 2.384186E-06 -0.495831 -0.2963367
v 2.384186E-06 0.09442902 -0.792573
v 2.099997 0.09442902 -0.792573
v 2.099997 0.09442902 -0.09999561
v 2.384186E-06 0.09442902 -0.09999561
v 2.099997 0.09443617 -5.296841
v 2.099997 0.09443617 -4.591931
v 2.384186E-06 0.09443617 -4.591931
v 2.384186E-06 0.09443617 -5.296841
v 2.099997 0.09443617 -5.296841
v 2.384186E-06 0.09443617 -5.296841
v 2.384186E-06 -0.00556469 -5.396842
v 2.099997 -0.00556469 -5.396842
v 2.384186E-06 0.09442902 -0.09999561
v 2.099997 0.09442902 -0.09999561
v 2.099997 -0.005571842 -2.384186E-06
v 2.384186E-06 -0.005571842 -2.384186E-06
v 2.099997 -0.00556469 -5.396842
v 2.384186E-06 -0.00556469 -5.396842
v 2.384186E-06 -0.6055622 -5.396842
v 2.099997 -0.6055622 -5.396842
v 2.384186E-06 -0.005571842 -2.384186E-06
v 2.099997 -0.005571842 -2.384186E-06
v 2.099997 -0.6055694 -2.384186E-06
v 2.384186E-06 -0.6055694 -2.384186E-06
v 2.099997 -0.6055622 -5.396842
v 2.384186E-06 -0.6055622 -5.396842
v 2.384186E-06 -0.6055694 -2.384186E-06
v 2.099997 -0.6055694 -2.384186E-06
v -2.1 -0.6055622 -5.396842
v -2.1 -0.6055694 -2.384186E-06
v 2.384186E-06 -0.495831 -2.361757
v -2.1 -0.495831 -2.361757
v -2.1 -0.8910294 -2.283148
v 2.384186E-06 -0.8910294 -2.283148
v -2.1 -1.226065 -2.059281
v 2.384186E-06 -1.226065 -2.059281
v -2.1 -1.449924 -1.724246
v 2.384186E-06 -1.449924 -1.724246
v -2.1 -1.528534 -1.329047
v 2.384186E-06 -1.528534 -1.329047
v -2.1 -1.449924 -0.9338484
v 2.384186E-06 -1.449924 -0.9338484
v -2.1 -1.226065 -0.5988131
v 2.384186E-06 -1.226065 -0.5988131
v -2.1 -0.8910294 -0.3749461
v 2.384186E-06 -0.8910294 -0.3749461
v -2.1 -0.495831 -0.2963367
v 2.384186E-06 -0.495831 -0.2963367
v 2.384186E-06 0.09442902 -0.792573
v 2.384186E-06 0.09442902 -0.09999561
v -2.1 0.09442902 -0.09999561
v -2.1 0.09442902 -0.792573
v -2.1 0.09443617 -5.296841
v 2.384186E-06 0.09443617 -5.296841
v 2.384186E-06 0.09443617 -4.591931
v -2.1 0.09443617 -4.591931
v -2.1 0.09443617 -5.296841
v -2.1 -0.00556469 -5.396842
v 2.384186E-06 -0.00556469 -5.396842
v 2.384186E-06 0.09443617 -5.296841
v 2.384186E-06 0.09442902 -0.09999561
v 2.384186E-06 -0.005571842 -2.384186E-06
v -2.1 -0.005571842 -2.384186E-06
v -2.1 0.09442902 -0.09999561
v -2.1 -0.00556469 -5.396842
v -2.1 -0.6055622 -5.396842
v 2.384186E-06 -0.6055622 -5.396842
v 2.384186E-06 -0.00556469 -5.396842
v 2.384186E-06 -0.005571842 -2.384186E-06
v 2.384186E-06 -0.6055694 -2.384186E-06
v -2.1 -0.6055694 -2.384186E-06
v -2.1 -0.005571842 -2.384186E-06
v -2.1 0.09443617 -4.591931
v 2.094921 0.09443617 -4.591931
v 2.094921 0.09442902 -0.792573
v -2.1 0.09442902 -0.792573
vt 1.449142 0.3845781
vt 1.448952 0.3845781
vt 1.448952 0.3826909
vt 1.449142 0.3826909
vt 1.448753 0.3826909
vt 1.448753 0.3845781
vt 1.448554 0.3826909
vt 1.448554 0.3845781
vt 1.448364 0.3826909
vt 1.448364 0.3845781
vt 1.448165 0.3826909
vt 1.448165 0.3845781
vt 1.447966 0.3826909
vt 1.447966 0.3845781
vt 1.447776 0.3826909
vt 1.447776 0.3845781
vt 1.447577 0.3826909
vt 1.447577 0.3845781
vt -0.98739 0.07137954
vt -0.6223758 0.07137954
vt -0.6223758 0.006628931
vt -0.98739 0.006628931
vt -0.6223758 0.9951003
vt -0.6223758 0.9310988
vt -0.98739 0.9310988
vt -0.98739 0.9951003
vt 1.438805 0.3108848
vt 1.457392 0.3108848
vt 1.457392 0.3294717
vt 1.438805 0.3294717
vt 1.438805 0.3108848
vt 1.457392 0.3108848
vt 1.457392 0.3294717
vt 1.438805 0.3294717
vt 1.438805 0.3108848
vt 1.457392 0.3108848
vt 1.457392 0.3294717
vt 1.438805 0.3294717
vt 1.438805 0.3108848
vt 1.457392 0.3108848
vt 1.457392 0.3294717
vt 1.438805 0.3294717
vt 1.438805 0.3294717
vt 1.457392 0.3294717
vt 1.438805 0.3294717
vt 1.457392 0.3294717
vt 1.438805 0.3294717
vt 1.457392 0.3294717
vt 1.449142 0.3845781
vt 1.449142 0.3826909
vt 1.448952 0.3826909
vt 1.448952 0.3845781
vt 1.448753 0.3826909
vt 1.448753 0.3845781
vt 1.448554 0.3826909
vt 1.448554 0.3845781
vt 1.448364 0.3826909
vt 1.448364 0.3845781
vt 1.448165 0.3826909
vt 1.448165 0.3845781
vt 1.447966 0.3826909
vt 1.447966 0.3845781
vt 1.447776 0.3826909
vt 1.447776 0.3845781
vt 1.447577 0.3826909
vt 1.447577 0.3845781
vt -0.98739 0.07137954
vt -0.98739 0.006628931
vt -0.6223758 0.006628931
vt -0.6223758 0.07137954
vt -0.6223758 0.9951003
vt -0.98739 0.9951003
vt -0.98739 0.9310988
vt -0.6223758 0.9310988
vt 1.438805 0.3108848
vt 1.438805 0.3294717
vt 1.457392 0.3294717
vt 1.457392 0.3108848
vt 1.438805 0.3108848
vt 1.438805 0.3294717
vt 1.457392 0.3294717
vt 1.457392 0.3108848
vt 1.438805 0.3108848
vt 1.438805 0.3294717
vt 1.457392 0.3294717
vt 1.457392 0.3108848
vt 1.438805 0.3108848
vt 1.438805 0.3294717
vt 1.457392 0.3294717
vt 1.457392 0.3108848
vt 1.001463 0.9945219
vt 1.498539 0.9945219
vt 1.498539 0.005472004
vt 1.001463 0.005472004
vn -0.0009775162 -0.1945258 -0.9808969
vn -0.0009775162 -0.382209 -0.9240754
vn -0.0009775162 -0.382209 -0.9240754
vn -0.0009775162 -0.1945258 -0.9808969
vn -0.0009775162 -0.7067446 -0.7074682
vn -0.0009775162 -0.7067446 -0.7074682
vn -0.0009775162 -0.9237532 -0.382987
vn -0.0009775162 -0.9237532 -0.382987
vn -0.0009775162 -0.9999995 0
vn -0.0009775162 -0.9999995 0
vn -0.0009775162 -0.9237532 0.382987
vn -0.0009775162 -0.9237532 0.382987
vn -0.0009775162 -0.7067446 0.7074682
vn -0.0009775162 -0.7067446 0.7074682
vn -0.0009775162 -0.382209 0.9240754
vn -0.0009775162 -0.382209 0.9240754
vn -0.0009775162 -0.1945258 0.9808969
vn -0.0009775162 -0.1945258 0.9808969
vn -0.0009775162 0.9999995 0
vn -0.0009775162 0.9999995 0
vn -0.0009775162 0.9999995 0
vn -0.0009775162 0.9999995 0
vn -0.0009775162 0.9999995 0
vn -0.0009775162 0.9999995 0
vn -0.0009775162 0.9999995 0
vn -0.0009775162 0.9999995 0
vn -0.0009775162 0.7067446 -0.7074682
vn -0.0009775162 0.7067446 -0.7074682
vn -0.0009775162 0.7067446 -0.7074682
vn -0.0009775162 0.7067446 -0.7074682
vn -0.0009775162 0.7067446 0.7074682
vn -0.0009775162 0.7067446 0.7074682
vn -0.0009775162 0.7067446 0.7074682
vn -0.0009775162 0.7067446 0.7074682
vn -0.0009775162 0.0009775162 -0.999999
vn -0.0009775162 0.0009775162 -0.999999
vn -0.0009775162 0.0009775162 -0.999999
vn -0.0009775162 0.0009775162 -0.999999
vn -0.0009775162 0.0009775162 0.999999
vn -0.0009775162 0.0009775162 0.999999
vn -0.0009775162 0.0009775162 0.999999
vn -0.0009775162 0.0009775162 0.999999
vn -0.0009775162 -0.9999995 0
vn -0.0009775162 -0.9999995 0
vn -0.0009775162 -0.9999995 0
vn -0.0009775162 -0.9999995 0
vn -0.0009775162 -0.9999995 0
vn -0.0009775162 -0.9999995 0
vn -0.0009775162 -0.1945258 -0.9808969
vn -0.0009775162 -0.1945258 -0.9808969
vn -0.0009775162 -0.382209 -0.9240754
vn -0.0009775162 -0.382209 -0.9240754
vn -0.0009775162 -0.7067446 -0.7074682
vn -0.0009775162 -0.7067446 -0.7074682
vn -0.0009775162 -0.9237532 -0.382987
vn -0.0009775162 -0.9237532 -0.382987
vn -0.0009775162 -0.9999995 0
vn -0.0009775162 -0.9999995 0
vn -0.0009775162 -0.9237532 0.382987
vn -0.0009775162 -0.9237532 0.382987
vn -0.0009775162 -0.7067446 0.7074682
vn -0.0009775162 -0.7067446 0.7074682
vn -0.0009775162 -0.382209 0.9240754
vn -0.0009775162 -0.382209 0.9240754
vn -0.0009775162 -0.1945258 0.9808969
vn -0.0009775162 -0.1945258 0.9808969
vn -0.0009775162 0.9999995 0
vn -0.0009775162 0.9999995 0
vn -0.0009775162 0.9999995 0
vn -0.0009775162 0.9999995 0
vn -0.0009775162 0.9999995 0
vn -0.0009775162 0.9999995 0
vn -0.0009775162 0.9999995 0
vn -0.0009775162 0.9999995 0
vn -0.0009775162 0.7067446 -0.7074682
vn -0.0009775162 0.7067446 -0.7074682
vn -0.0009775162 0.7067446 -0.7074682
vn -0.0009775162 0.7067446 -0.7074682
vn -0.0009775162 0.7067446 0.7074682
vn -0.0009775162 0.7067446 0.7074682
vn -0.0009775162 0.7067446 0.7074682
vn -0.0009775162 0.7067446 0.7074682
vn -0.0009775162 0.0009775162 -0.999999
vn -0.0009775162 0.0009775162 -0.999999
vn -0.0009775162 0.0009775162 -0.999999
vn -0.0009775162 0.0009775162 -0.999999
vn -0.0009775162 0.0009775162 0.999999
vn -0.0009775162 0.0009775162 0.999999
vn -0.0009775162 0.0009775162 0.999999
vn -0.0009775162 0.0009775162 0.999999
vn -0.0009775162 0.9999995 0
vn -0.0009775162 0.9999995 0
vn -0.0009775162 0.9999995 0
vn -0.0009775162 0.9999995 0
g Board_0
f 3/3/3 2/2/2 1/1/1
f 4/4/4 3/3/3 1/1/1
f 3/3/3 5/5/5 2/2/2
f 5/5/5 6/6/6 2/2/2
f 5/5/5 7/7/7 6/6/6
f 7/7/7 8/8/8 6/6/6
f 7/7/7 9/9/9 8/8/8
f 9/9/9 10/10/10 8/8/8
f 9/9/9 11/11/11 10/10/10
f 11/11/11 12/12/12 10/10/10
f 11/11/11 13/13/13 12/12/12
f 13/13/13 14/14/14 12/12/12
f 13/13/13 15/15/15 14/14/14
f 15/15/15 16/16/16 14/14/14
f 15/15/15 17/17/17 16/16/16
f 17/17/17 18/18/18 16/16/16
f 21/21/21 20/20/20 19/19/19
f 22/22/22 21/21/21 19/19/19
f 25/25/25 24/24/24 23/23/23
f 26/26/26 25/25/25 23/23/23
f 29/29/29 28/28/28 27/27/27
f 30/30/30 29/29/29 27/27/27
f 33/33/33 32/32/32 31/31/31
f 34/34/34 33/33/33 31/31/31
f 37/37/37 36/36/36 35/35/35
f 38/38/38 37/37/37 35/35/35
f 41/41/41 40/40/40 39/39/39
f 42/42/42 41/41/41 39/39/39
f 45/45/45 44/44/44 43/43/43
f 46/46/46 45/45/45 43/43/43
f 44/44/44 45/45/45 47/47/47
f 45/45/45 48/48/48 47/47/47
f 51/51/51 50/50/50 49/49/49
f 52/52/52 51/51/51 49/49/49
f 53/53/53 51/51/51 52/52/52
f 54/54/54 53/53/53 52/52/52
f 55/55/55 53/53/53 54/54/54
f 56/56/56 55/55/55 54/54/54
f 57/57/57 55/55/55 56/56/56
f 58/58/58 57/57/57 56/56/56
f 59/59/59 57/57/57 58/58/58
f 60/60/60 59/59/59 58/58/58
f 61/61/61 59/59/59 60/60/60
f 62/62/62 61/61/61 60/60/60
f 63/63/63 61/61/61 62/62/62
f 64/64/64 63/63/63 62/62/62
f 65/65/65 63/63/63 64/64/64
f 66/66/66 65/65/65 64/64/64
f 69/69/69 68/68/68 67/67/67
f 70/70/70 69/69/69 67/67/67
f 73/73/73 72/72/72 71/71/71
f 74/74/74 73/73/73 71/71/71
f 77/77/77 76/76/76 75/75/75
f 78/78/78 77/77/77 75/75/75
f 81/81/81 80/80/80 79/79/79
f 82/82/82 81/81/81 79/79/79
f 85/85/85 84/84/84 83/83/83
f 86/86/86 85/85/85 83/83/83
f 89/89/89 88/88/88 87/87/87
f 90/90/90 89/89/89 87/87/87
g Board_1
f 93/93/93 92/92/92 91/91/91
f 94/94/94 93/93/93 91/91/91
