g Board
v -2.1 0.09443387 -9.899989
v 1.907349E-07 0.09443402 -9.899989
v 0 0.09443364 -9.195076
v -2.1 0.09443364 -9.195076
v 0 0.09443173 -5.395719
v 0 0.09442944 -0.1
v -2.1 0.09442944 -0.09999984
v -2.1 0.09443173 -5.395719
v 2.094922 0.09443387 -9.899989
v 2.094922 0.09443364 -9.195076
v 0 0.09443364 -9.195076
v 1.907349E-07 0.09443402 -9.899989
v 0 0.09443173 -5.395719
v 2.094922 0.09443173 -5.395719
v 2.094922 0.09442944 -0.09999984
v 0 0.09442944 -0.1
v -2.1 0.09443387 -9.899989
v -2.1 -0.005565929 -9.999989
v 1.907349E-07 -0.005565786 -9.999989
v 1.907349E-07 0.09443402 -9.899989
v 0 0.09442944 -0.1
v 0 -0.005570745 -8.344649E-08
v -2.1 -0.005570745 1.072884E-07
v -2.1 0.09442944 -0.09999984
v 1.907349E-07 0.09443402 -9.899989
v 1.907349E-07 -0.005565786 -9.999989
v 2.094922 -0.005565929 -9.999989
v 2.094922 0.09443387 -9.899989
v 2.094922 0.09442944 -0.09999984
v 2.094922 -0.005570745 1.072884E-07
v 0 -0.005570745 -8.344649E-08
v 0 0.09442944 -0.1
v -2.1 -0.005565929 -9.999989
v -2.1 -0.605566 -9.999992
v 0 -0.605566 -9.999989
v 1.907349E-07 -0.005565786 -9.999989
v 0 -0.005570745 -8.344649E-08
v 0 -0.6055707 -8.344649E-08
v -2.1 -0.6055707 -8.344649E-08
v -2.1 -0.005570745 1.072884E-07
v 1.907349E-07 -0.005565786 -9.999989
v 0 -0.605566 -9.999989
v 2.094922 -0.6055659 -9.999989
v 2.094922 -0.005565929 -9.999989
v 2.094922 -0.005570745 1.072884E-07
v 2.094922 -0.6055707 -8.344649E-08
v 0 -0.6055707 -8.344649E-08
v 0 -0.005570745 -8.344649E-08
v -2.1 -0.605566 -9.999992
v -2.1 -0.6055707 -8.344649E-08
v 0 -0.6055707 -8.344649E-08
v 0 -0.605566 -9.999989
v 2.094922 -0.6055707 -8.344649E-08
v 2.094922 -0.6055659 -9.999989
v -2.1 -0.4958273 -4.80008
v -2.1 -1.319872 -4.636168
v 2.094922 -1.319872 -4.636168
v 2.094922 -0.4958273 -4.80008
v 2.094922 -2.018464 -4.169384
v -2.1 -2.018464 -4.169384
v 2.094922 -2.485247 -3.470794
v -2.1 -2.485247 -3.470794
v 2.094922 -2.64916 -2.646749
v -2.1 -2.64916 -2.646749
v 2.094922 -2.485248 -1.822704
v -2.1 -2.485248 -1.822704
v 2.094922 -2.018465 -1.124113
v -2.1 -2.018465 -1.124113
v 2.094922 -1.319873 -0.657329
v -2.1 -1.319873 -0.657329
v 2.094922 -0.4958288 -0.4934161
v -2.1 -0.4958288 -0.4934161
v -2.1 0.09443364 -9.195076
v 2.094922 0.09443364 -9.195076
v 2.094922 0.09443173 -5.395719
v -2.1 0.09443173 -5.395719
vt -0.6223746 0.9950978
vt -0.98739 0.9950978
vt -0.98739 0.9311022
vt -0.6223746 0.9311022
vt -0.98739 0.5404075
vt -0.98739 0.006625657
vt -0.6223746 0.006625657
vt -0.6223746 0.5404075
vt -0.6223746 0.9950978
vt -0.6223746 0.9311022
vt -0.98739 0.9311022
vt -0.98739 0.9950978
vt -0.98739 0.5404075
vt -0.6223746 0.5404075
vt -0.6223746 0.006625657
vt -0.98739 0.006625657
vt 1.438756 0.310881
vt 1.438756 0.3294693
vt 1.45739 0.3294697
vt 1.45739 0.3108805
vt 1.438801 0.3108805
vt 1.438801 0.3294697
vt 1.457435 0.3294691
vt 1.457435 0.3108812
vt 1.438801 0.3108805
vt 1.438801 0.3294697
vt 1.45739 0.3294697
vt 1.45739 0.3108805
vt 1.438801 0.310881
vt 1.438801 0.3294693
vt 1.45739 0.3294697
vt 1.45739 0.3108805
vt 1.438756 0.3108805
vt 1.438801 0.3294697
vt 1.45739 0.3294697
vt 1.45739 0.3108805
vt 1.438801 0.3108805
vt 1.438801 0.3294697
vt 1.449294 0.3294697
vt 1.4554 0.3108805
vt 1.438801 0.3108805
vt 1.438801 0.3294697
vt 1.45739 0.3294697
vt 1.45739 0.3108805
vt 1.438801 0.3108805
vt 1.443449 0.3294697
vt 1.45739 0.3294697
vt 1.45739 0.3108805
vt 1.446415 0.2817233
vt 1.446409 0.2937723
vt 1.448939 0.2937723
vt 1.448939 0.2817233
vt 1.451463 0.2937723
vt 1.451463 0.2817233
vt 1.449146 0.3827418
vt 1.44895 0.3827417
vt 1.44895 0.3864215
vt 1.449146 0.3864215
vt 1.448754 0.3864216
vt 1.448754 0.3827417
vt 1.448558 0.3864215
vt 1.448558 0.3827417
vt 1.448362 0.3864215
vt 1.448362 0.3827417
vt 1.448166 0.3864215
vt 1.448166 0.3827417
vt 1.44797 0.3864215
vt 1.44797 0.3827417
vt 1.447774 0.3864216
vt 1.447774 0.3827417
vt 1.447578 0.3864215
vt 1.447578 0.3827417
vt 1.502045 0.994518
vt 1.998095 0.9945181
vt 1.998095 0.005469561
vt 1.502045 0.00546962
vn 0 1 0
vn 0 1 0
vn 0 1 0
vn 0 1 0
vn 0 1 0
vn 0 1 0
vn 0 1 0
vn 0 1 0
vn 0 1 0
vn 0 1 0
vn 0 1 0
vn 0 1 0
vn 0 1 0
vn 0 1 0
vn 0 1 0
vn 0 1 0
vn 0 0.7071074 -0.7071061
vn 0 0.7071074 -0.7071061
vn 0 0.7071074 -0.7071061
vn 0 0.7071074 -0.7071061
vn 0 0.7071059 0.7071075
vn 0 0.7071061 0.7071075
vn 0 0.7071061 0.7071075
vn 0 0.7071059 0.7071075
vn 0 0.7071074 -0.7071061
vn 0 0.7071074 -0.7071061
vn 0 0.7071075 -0.7071061
vn 0 0.7071075 -0.7071061
vn 0 0.7071059 0.7071076
vn 0 0.7071059 0.7071075
vn 0 0.7071061 0.7071075
vn 0 0.7071059 0.7071075
vn 0 3.178915E-06 -1
vn 0 3.178915E-06 -1
vn 0 1.591381E-06 -1
vn 0 1.591382E-06 -1
vn 0 0 1
vn 0 0 1
vn 0 0 1
vn 0 0 1
vn 0 1.591382E-06 -1
vn 0 1.591381E-06 -1
vn 0 0 -1
vn 0 0 -1
vn 0 0 1
vn 0 0 1
vn 0 0 1
vn 0 0 1
vn 0 -1 0
vn 0 -1 0
vn 0 -1 0
vn 0 -1 0
vn 0 -1 0
vn 0 -1 0
vn 0 -0.1950891 -0.9807854
vn 0 -0.3826827 -0.9238798
vn 0 -0.3826827 -0.9238798
vn 0 -0.1950891 -0.9807854
vn 0 -0.7071064 -0.7071071
vn 0 -0.7071064 -0.7071071
vn 0 -0.9238795 -0.3826834
vn 0 -0.9238795 -0.3826834
vn 0 -1 0
vn 0 -1 0
vn 0 -0.9238797 0.3826831
vn 0 -0.9238797 0.3826831
vn 0 -0.7071069 0.7071066
vn 0 -0.7071069 0.7071065
vn 0 -0.3826837 0.9238794
vn 0 -0.3826837 0.9238794
vn 0 -0.1950906 0.9807853
vn 0 -0.1950906 0.9807853
vn 0 1 0
vn 0 1 0
vn 0 1 0
vn 0 1 0
g Board_0
f 3/3/3 2/2/2 1/1/1
f 4/4/4 3/3/3 1/1/1
f 7/7/7 6/6/6 5/5/5
f 8/8/8 7/7/7 5/5/5
f 11/11/11 10/10/10 9/9/9
f 12/12/12 11/11/11 9/9/9
f 15/15/15 14/14/14 13/13/13
f 16/16/16 15/15/15 13/13/13
f 19/19/19 18/18/18 17/17/17
f 20/20/20 19/19/19 17/17/17
f 23/23/23 22/22/22 21/21/21
f 24/24/24 23/23/23 21/21/21
f 27/27/27 26/26/26 25/25/25
f 28/28/28 27/27/27 25/25/25
f 31/31/31 30/30/30 29/29/29
f 32/32/32 31/31/31 29/29/29
f 35/35/35 34/34/34 33/33/33
f 36/36/36 35/35/35 33/33/33
f 39/39/39 38/38/38 37/37/37
f 40/40/40 39/39/39 37/37/37
f 43/43/43 42/42/42 41/41/41
f 44/44/44 43/43/43 41/41/41
f 47/47/47 46/46/46 45/45/45
f 48/48/48 47/47/47 45/45/45
f 51/51/51 50/50/50 49/49/49
f 52/52/52 51/51/51 49/49/49
f 53/53/53 51/51/51 52/52/52
f 54/54/54 53/53/53 52/52/52
f 57/57/57 56/56/56 55/55/55
f 58/58/58 57/57/57 55/55/55
f 57/57/57 59/59/59 56/56/56
f 59/59/59 60/60/60 56/56/56
f 59/59/59 61/61/61 60/60/60
f 61/61/61 62/62/62 60/60/60
f 61/61/61 63/63/63 62/62/62
f 63/63/63 64/64/64 62/62/62
f 63/63/63 65/65/65 64/64/64
f 65/65/65 66/66/66 64/64/64
f 65/65/65 67/67/67 66/66/66
f 67/67/67 68/68/68 66/66/66
f 67/67/67 69/69/69 68/68/68
f 69/69/69 70/70/70 68/68/68
f 69/69/69 71/71/71 70/70/70
f 71/71/71 72/72/72 70/70/70
g Board_1
f 75/75/75 74/74/74 73/73/73
f 76/76/76 75/75/75 73/73/73
