g Board
v -2.1 0.09443617 -4.591931
v 2.094921 0.09443617 -4.591931
v 2.094921 0.09442902 -0.792573
v -2.1 0.09442902 -0.792573
v 2.384186E-06 0.09442902 -0.792573
v 2.384186E-06 0.09442902 -0.09999561
v -2.1 0.09442902 -0.09999561
v -2.1 0.09442902 -0.792573
v -2.1 0.09443617 -5.296841
v 2.384186E-06 0.09443617 -5.296841
v 2.384186E-06 0.09443617 -4.591931
v -2.1 0.09443617 -4.591931
v -2.1 0.09443617 -5.296841
v -2.1 -0.00556469 -5.396842
v 2.384186E-06 -0.00556469 -5.396842
v 2.384186E-06 0.09443617 -5.296841
v 2.384186E-06 0.09442902 -0.09999561
v 2.384186E-06 -0.005571842 -2.384186E-06
v -2.1 -0.005571842 -2.384186E-06
v -2.1 0.09442902 -0.09999561
v -2.1 -0.00556469 -5.396842
v -2.1 -0.6055622 -5.396842
v 2.384186E-06 -0.6055622 -5.396842
v 2.384186E-06 -0.00556469 -5.396842
v 2.384186E-06 -0.005571842 -2.384186E-06
v 2.384186E-06 -0.6055694 -2.384186E-06
v -2.1 -0.6055694 -2.384186E-06
v -2.1 -0.005571842 -2.384186E-06
v -2.1 -0.6055622 -5.396842
v -2.1 -0.6055694 -2.384186E-06
v 2.384186E-06 -0.6055694 -2.384186E-06
v 2.384186E-06 -0.6055622 -5.396842
v 2.099997 -0.6055622 -5.396842
v 2.099997 -0.6055694 -2.384186E-06
v 2.384186E-06 0.09442902 -0.792573
v 2.099997 0.09442902 -0.792573
v 2.099997 0.09442902 -0.09999561
v 2.384186E-06 0.09442902 -0.09999561
v 2.099997 0.09443617 -5.296841
v 2.099997 0.09443617 -4.591931
v 2.384186E-06 0.09443617 -4.591931
v 2.384186E-06 0.09443617 -5.296841
v 2.099997 0.09443617 -5.296841
v 2.384186E-06 0.09443617 -5.296841
v 2.384186E-06 -0.00556469 -5.396842
v 2.099997 -0.00556469 -5.396842
v 2.384186E-06 0.09442902 -0.09999561
v 2.099997 0.09442902 -0.09999561
v 2.099997 -0.005571842 -2.384186E-06
v 2.384186E-06 -0.005571842 -2.384186E-06
v 2.099997 -0.00556469 -5.396842
v 2.384186E-06 -0.00556469 -5.396842
v 2.384186E-06 -0.6055622 -5.396842
v 2.099997 -0.6055622 -5.396842
v 2.384186E-06 -0.005571842 -2.384186E-06
v 2.099997 -0.005571842 -2.384186E-06
v 2.099997 -0.6055694 -2.384186E-06
v 2.384186E-06 -0.6055694 -2.384186E-06
v 2.384186E-06 -0.495831 -2.361757
v -2.1 -0.495831 -2.361757
v -2.1 -0.8910294 -2.283148
v 2.384186E-06 -0.8910294 -2.283148
v -2.1 -1.226065 -2.059281
v 2.384186E-06 -1.226065 -2.059281
v -2.1 -1.449924 -1.724246
v 2.384186E-06 -1.449924 -1.724246
v -2.1 -1.528534 -1.329047
v 2.384186E-06 -1.528534 -1.329047
v -2.1 -1.449924 -0.9338484
v 2.384186E-06 -1.449924 -0.9338484
v -2.1 -1.226065 -0.5988131
v 2.384186E-06 -1.226065 -0.5988131
v -2.1 -0.8910294 -0.3749461
v 2.384186E-06 -0.8910294 -0.3749461
v -2.1 -0.495831 -0.2963367
v 2.384186E-06 -0.495831 -0.2963367
v 2.384186E-06 -0.495831 -2.361757
v 2.384186E-06 -0.8910294 -2.283148
v 2.099997 -0.8910294 -2.283148
v 2.099997 -0.495831 -2.361757
v 2.099997 -1.226065 -2.059281
v 2.384186E-06 -1.226065 -2.059281
v 2.099997 -1.449924 -1.724246
v 2.384186E-06 -1.449924 -1.724246
v 2.099997 -1.528534 -1.329047
v 2.384186E-06 -1.528534 -1.329047
v 2.099997 -1.449924 -0.9338484
v 2.384186E-06 -1.449924 -0.9338484
v 2.099997 -1.226065 -0.5988131
v 2.384186E-06 -1.226065 -0.5988131
v 2.099997 -0.8910294 -0.3749461
v 2.384186E-06 -0.8910294 -0.3749461
v 2.099997 -0.495831 -0.2963367
v 2.384186E-06 -0.495831 -0.2963367
vt 1.502046 0.9945173
vt 1.998096 0.9945173
vt 1.998096 0.00547123
vt 1.502046 0.00547123
vt -0.98739 0.07137799
vt -0.98739 0.00662154
vt -0.6223801 0.00662154
vt -0.6223801 0.07137799
vt -0.6223801 0.9950981
vt -0.98739 0.9950981
vt -0.98739 0.9311047
vt -0.6223801 0.9311047
vt 1.438804 0.3108838
vt 1.438804 0.3294703
vt 1.457391 0.3294703
vt 1.457391 0.3108838
vt 1.438804 0.3108838
vt 1.438804 0.3294703
vt 1.457391 0.3294703
vt 1.457391 0.3108838
vt 1.438804 0.3108838
vt 1.438804 0.3294703
vt 1.457391 0.3294703
vt 1.457391 0.3108838
vt 1.438804 0.3108838
vt 1.438804 0.3294703
vt 1.457391 0.3294703
vt 1.457391 0.3108838
vt 1.438804 0.3294703
vt 1.457391 0.3294703
vt 1.438804 0.3294703
vt 1.457391 0.3294703
vt 1.438804 0.3294703
vt 1.457391 0.3294703
vt -0.98739 0.07137799
vt -0.6223801 0.07137799
vt -0.6223801 0.00662154
vt -0.98739 0.00662154
vt -0.6223801 0.9950981
vt -0.6223801 0.9311047
vt -0.98739 0.9311047
vt -0.98739 0.9950981
vt 1.438804 0.3108838
vt 1.457391 0.3108838
vt 1.457391 0.3294703
vt 1.438804 0.3294703
vt 1.438804 0.3108838
vt 1.457391 0.3108838
vt 1.457391 0.3294703
vt 1.438804 0.3294703
vt 1.438804 0.3108838
vt 1.457391 0.3108838
vt 1.457391 0.3294703
vt 1.438804 0.3294703
vt 1.438804 0.3108838
vt 1.457391 0.3108838
vt 1.457391 0.3294703
vt 1.438804 0.3294703
vt 1.449146 0.3845805
vt 1.449146 0.38269
vt 1.448952 0.38269
vt 1.448952 0.3845805
vt 1.448758 0.38269
vt 1.448758 0.3845805
vt 1.448553 0.38269
vt 1.448553 0.3845805
vt 1.44836 0.38269
vt 1.44836 0.3845805
vt 1.448166 0.38269
vt 1.448166 0.3845805
vt 1.447973 0.38269
vt 1.447973 0.3845805
vt 1.447779 0.38269
vt 1.447779 0.3845805
vt 1.447574 0.38269
vt 1.447574 0.3845805
vt 1.449146 0.3845805
vt 1.448952 0.3845805
vt 1.448952 0.38269
vt 1.449146 0.38269
vt 1.448758 0.38269
vt 1.448758 0.3845805
vt 1.448553 0.38269
vt 1.448553 0.3845805
vt 1.44836 0.38269
vt 1.44836 0.3845805
vt 1.448166 0.38269
vt 1.448166 0.3845805
vt 1.447973 0.38269
vt 1.447973 0.3845805
vt 1.447779 0.38269
vt 1.447779 0.3845805
vt 1.447574 0.38269
vt 1.447574 0.3845805
vn -0.0009775162 0.9999995 0
vn -0.0009775162 0.9999995 0
vn -0.0009775162 0.9999995 0
vn -0.0009775162 0.9999995 0
vn -0.0009775162 0.9999995 0
vn -0.0009775162 0.9999995 0
vn -0.0009775162 0.9999995 0
vn -0.0009775162 0.9999995 0
vn -0.0009775162 0.9999995 0
vn -0.0009775162 0.9999995 0
vn -0.0009775162 0.9999995 0
vn -0.0009775162 0.9999995 0
vn -0.0009775162 0.7067446 -0.7074682
vn -0.0009775162 0.7067446 -0.7074682
vn -0.0009775162 0.7067446 -0.7074682
vn -0.0009775162 0.7067446 -0.7074682
vn -0.0009775162 0.7067446 0.7074682
vn -0.0009775162 0.7067446 0.7074682
vn -0.0009775162 0.7067446 0.7074682
vn -0.0009775162 0.7067446 0.7074682
vn -0.0009775162 0.0009775162 -0.999999
vn -0.0009775162 0.0009775162 -0.999999
vn -0.0009775162 0.0009775162 -0.999999
vn -0.0009775162 0.0009775162 -0.999999
vn -0.0009775162 0.0009775162 0.999999
vn -0.0009775162 0.0009775162 0.999999
vn -0.0009775162 0.0009775162 0.999999
vn -0.0009775162 0.0009775162 0.999999
vn -0.0009775162 -0.9999995 0
vn -0.0009775162 -0.9999995 0
vn -0.0009775162 -0.9999995 0
vn -0.0009775162 -0.9999995 0
vn -0.0009775162 -0.9999995 0
vn -0.0009775162 -0.9999995 0
vn -0.0009775162 0.9999995 0
vn -0.0009775162 0.9999995 0
vn -0.0009775162 0.9999995 0
vn -0.0009775162 0.9999995 0
vn -0.0009775162 0.9999995 0
vn -0.0009775162 0.9999995 0
vn -0.0009775162 0.9999995 0
vn -0.0009775162 0.9999995 0
vn -0.0009775162 0.7067446 -0.7074682
vn -0.0009775162 0.7067446 -0.7074682
vn -0.0009775162 0.7067446 -0.7074682
vn -0.0009775162 0.7067446 -0.7074682
vn -0.0009775162 0.7067446 0.7074682
vn -0.0009775162 0.7067446 0.7074682
vn -0.0009775162 0.7067446 0.7074682
vn -0.0009775162 0.7067446 0.7074682
vn -0.0009775162 0.0009775162 -0.999999
vn -0.0009775162 0.0009775162 -0.999999
vn -0.0009775162 0.0009775162 -0.999999
vn -0.0009775162 0.0009775162 -0.999999
vn -0.0009775162 0.0009775162 0.999999
vn -0.0009775162 0.0009775162 0.999999
vn -0.0009775162 0.0009775162 0.999999
vn -0.0009775162 0.0009775162 0.999999
vn -0.0009775162 -0.1945258 -0.9808969
vn -0.0009775162 -0.1945258 -0.9808969
vn -0.0009775162 -0.382209 -0.9240754
vn -0.0009775162 -0.382209 -0.9240754
vn -0.0009775162 -0.7067446 -0.7074682
vn -0.0009775162 -0.7067446 -0.7074682
vn -0.0009775162 -0.9237532 -0.382987
vn -0.0009775162 -0.9237532 -0.382987
vn -0.0009775162 -0.9999995 0
vn -0.0009775162 -0.9999995 0
vn -0.0009775162 -0.9237532 0.382987
vn -0.0009775162 -0.9237532 0.382987
vn -0.0009775162 -0.7067446 0.7074682
vn -0.0009775162 -0.7067446 0.7074682
vn -0.0009775162 -0.382209 0.9240754
vn -0.0009775162 -0.382209 0.9240754
vn -0.0009775162 -0.1945258 0.9808969
vn -0.0009775162 -0.1945258 0.9808969
vn -0.0009775162 -0.1945258 -0.9808969
vn -0.0009775162 -0.382209 -0.9240754
vn -0.0009775162 -0.382209 -0.9240754
vn -0.0009775162 -0.1945258 -0.9808969
vn -0.0009775162 -0.7067446 -0.7074682
vn -0.0009775162 -0.7067446 -0.7074682
vn -0.0009775162 -0.9237532 -0.382987
vn -0.0009775162 -0.9237532 -0.382987
vn -0.0009775162 -0.9999995 0
vn -0.0009775162 -0.9999995 0
vn -0.0009775162 -0.9237532 0.382987
vn -0.0009775162 -0.9237532 0.382987
vn -0.0009775162 -0.7067446 0.7074682
vn -0.0009775162 -0.7067446 0.7074682
vn -0.0009775162 -0.382209 0.9240754
vn -0.0009775162 -0.382209 0.9240754
vn -0.0009775162 -0.1945258 0.9808969
vn -0.0009775162 -0.1945258 0.9808969
g Board_0
f 3/3/3 2/2/2 1/1/1
f 4/4/4 3/3/3 1/1/1
g Board_1
f 7/7/7 6/6/6 5/5/5
f 8/8/8 7/7/7 5/5/5
f 11/11/11 10/10/10 9/9/9
f 12/12/12 11/11/11 9/9/9
f 15/15/15 14/14/14 13/13/13
f 16/16/16 15/15/15 13/13/13
f 19/19/19 18/18/18 17/17/17
f 20/20/20 19/19/19 17/17/17
f 23/23/23 22/22/22 21/21/21
f 24/24/24 23/23/23 21/21/21
f 27/27/27 26/26/26 25/25/25
f 28/28/28 27/27/27 25/25/25
f 31/31/31 30/30/30 29/29/29
f 32/32/32 31/31/31 29/29/29
f 31/31/31 32/32/32 33/33/33
f 34/34/34 31/31/31 33/33/33
f 37/37/37 36/36/36 35/35/35
f 38/38/38 37/37/37 35/35/35
f 41/41/41 40/40/40 39/39/39
f 42/42/42 41/41/41 39/39/39
f 45/45/45 44/44/44 43/43/43
f 46/46/46 45/45/45 43/43/43
f 49/49/49 48/48/48 47/47/47
f 50/50/50 49/49/49 47/47/47
f 53/53/53 52/52/52 51/51/51
f 54/54/54 53/53/53 51/51/51
f 57/57/57 56/56/56 55/55/55
f 58/58/58 57/57/57 55/55/55
f 61/61/61 60/60/60 59/59/59
f 62/62/62 61/61/61 59/59/59
f 63/63/63 61/61/61 62/62/62
f 64/64/64 63/63/63 62/62/62
f 65/65/65 63/63/63 64/64/64
f 66/66/66 65/65/65 64/64/64
f 67/67/67 65/65/65 66/66/66
f 68/68/68 67/67/67 66/66/66
f 69/69/69 67/67/67 68/68/68
f 70/70/70 69/69/69 68/68/68
f 71/71/71 69/69/69 70/70/70
f 72/72/72 71/71/71 70/70/70
f 73/73/73 71/71/71 72/72/72
f 74/74/74 73/73/73 72/72/72
f 75/75/75 73/73/73 74/74/74
f 76/76/76 75/75/75 74/74/74
f 79/79/79 78/78/78 77/77/77
f 80/80/80 79/79/79 77/77/77
f 79/79/79 81/81/81 78/78/78
f 81/81/81 82/82/82 78/78/78
f 81/81/81 83/83/83 82/82/82
f 83/83/83 84/84/84 82/82/82
f 83/83/83 85/85/85 84/84/84
f 85/85/85 86/86/86 84/84/84
f 85/85/85 87/87/87 86/86/86
f 87/87/87 88/88/88 86/86/86
f 87/87/87 89/89/89 88/88/88
f 89/89/89 90/90/90 88/88/88
f 89/89/89 91/91/91 90/90/90
f 91/91/91 92/92/92 90/90/90
f 91/91/91 93/93/93 92/92/92
f 93/93/93 94/94/94 92/92/92
