g Body_LOD1
v 2.21395 1.907349E-06 -0.1519046
v 2.039859 1.907349E-06 0.3087173
v -0.05109382 0.02740622 -0.04845548
v 1.987637 1.907349E-06 1.31718
v 2.287617 1.907349E-06 1.975775
v 2.297403 1.907349E-06 2.540946
v 2.108844 1.907349E-06 2.846562
v 1.809665 1.907349E-06 3.040715
v 1.317182 1.907349E-06 3.170108
v 0.6585934 1.907349E-06 3.250071
v 0.2778127 1.907349E-06 3.206266
v 2.283338 1.907349E-06 -0.6585934
v 2.15441 1.907349E-06 -1.317182
v 1.82296 1.907349E-06 -1.975771
v 1.306155 1.907349E-06 -2.590262
v 0.6585934 1.907349E-06 -2.960926
v -1.907349E-06 1.907349E-06 -3.137699
v -0.6585908 1.907349E-06 -3.159798
v -1.31718 1.907349E-06 -3.016168
v -1.9295 1.907349E-06 -2.613002
v -2.263254 1.907349E-06 -1.975771
v -2.291404 1.907349E-06 -1.317182
v -2.231742 1.907349E-06 -0.6585934
v -1.975775 1.907349E-06 1.907349E-06
v -1.879649 1.907349E-06 0.6585908
v -1.859 1.907349E-06 1.31718
v -1.662854 1.907349E-06 1.657157
v -0.4283533 1.907349E-06 2.829428
v -0.1029742 1.907349E-06 3.059274
vt 0.8239385 0.5288692
vt 0.7984442 0.4613858
vt 0.4920678 0.5137072
vt 0.7907916 0.3136218
vt 0.8347439 0.2171331
vt 0.836177 0.1343159
vt 0.8085474 0.08953244
vt 0.7647097 0.06108598
vt 0.6925546 0.04214077
vt 0.5960516 0.03041825
vt 0.5402621 0.0368384
vt 0.8341134 0.6031022
vt 0.8152255 0.6996052
vt 0.7666587 0.7960939
vt 0.6909351 0.8861338
vt 0.5960516 0.9404472
vt 0.4995628 0.9663428
vt 0.4030598 0.9695816
vt 0.3065711 0.948544
vt 0.2168465 0.8894728
vt 0.1679501 0.7960939
vt 0.1638229 0.6996052
vt 0.1725646 0.6031022
vt 0.2100681 0.5066135
vt 0.2241552 0.4101105
vt 0.2271789 0.3136218
vt 0.2559264 0.2638083
vt 0.4367943 0.09205465
vt 0.4844726 0.05837747
vn 0.01233597 0.9999239 0
vn 0.01233597 0.9999239 0
vn -0.001571541 0.9999987 0
vn 0.01630859 0.999867 0
vn 0.01233597 0.9999239 0
vn 0.008362777 0.999965 0
vn 0.005382608 0.9999855 0
vn 0.003395743 0.9999942 0
vn 0.001408839 0.999999 0
vn 0.0004153792 0.9999993 0.001064184
vn -0.001571541 0.9999987 0
vn 0.01134272 0.9999357 0
vn 0.01034944 0.9999464 0
vn 0.008362777 0.999965 0
vn 0.006376017 0.9999797 0
vn 0.003395743 0.9999942 0
vn 0.001408839 0.999999 0
vn -0.0005780812 0.9999993 -0.0009765625
vn -0.003558442 0.9999937 0
vn -0.006538708 0.9999786 0
vn -0.009518802 0.9999548 0
vn -0.01249864 0.9999219 0
vn -0.01349185 0.999909 0
vn -0.01448502 0.9998952 0
vn -0.01448502 0.9998952 0
vn -0.01249864 0.9999219 0
vn -0.008525461 0.9999637 0
vn -0.007532096 0.9999717 0
vn -0.004551879 0.9999897 0
g Body_LOD1_0
f 3/3/3 2/2/2 1/1/1
f 2/2/2 3/3/3 4/4/4
f 3/3/3 5/5/5 4/4/4
f 3/3/3 6/6/6 5/5/5
f 3/3/3 7/7/7 6/6/6
f 3/3/3 8/8/8 7/7/7
f 3/3/3 9/9/9 8/8/8
f 3/3/3 10/10/10 9/9/9
f 3/3/3 11/11/11 10/10/10
f 3/3/3 1/1/1 12/12/12
f 3/3/3 12/12/12 13/13/13
f 3/3/3 13/13/13 14/14/14
f 3/3/3 14/14/14 15/15/15
f 3/3/3 15/15/15 16/16/16
f 3/3/3 16/16/16 17/17/17
f 3/3/3 17/17/17 18/18/18
f 3/3/3 18/18/18 19/19/19
f 3/3/3 19/19/19 20/20/20
f 3/3/3 20/20/20 21/21/21
f 3/3/3 21/21/21 22/22/22
f 3/3/3 22/22/22 23/23/23
f 3/3/3 23/23/23 24/24/24
f 3/3/3 24/24/24 25/25/25
f 3/3/3 25/25/25 26/26/26
f 3/3/3 26/26/26 27/27/27
f 3/3/3 27/27/27 28/28/28
f 3/3/3 28/28/28 29/29/29
f 3/3/3 29/29/29 11/11/11
