g Body_LOD1
v 4.596802 4.647551 0.8264108
v 4.596802 4.647551 -0.8264012
v -3.040702 4.885405 -0.8995557
v -3.040702 4.885405 0.8995657
v 4.819976 7.31349 0.88449
v 4.819976 7.31349 -0.8844934
v 4.596802 4.647551 -0.8264012
v 4.596802 4.647551 0.8264108
v -3.040702 4.885405 0.8995657
v -3.040702 4.885405 -0.8995557
v -3.150256 3.27457 -0.7611661
v -3.150256 3.27457 0.7611623
v -2.904983 8.973958 0.747705
v -2.904983 8.973958 -0.7477083
v -2.983833 7.208737 -0.8812177
v -2.983833 7.208737 0.8812141
v -3.150256 3.27457 0.7611623
v -3.150256 3.27457 -0.7611661
v -7.36561 5.96215 -0.7859631
v -7.36561 5.96215 0.7859597
v -2.983833 7.208737 0.8812141
v -3.040702 4.885405 0.8995657
v -7.36561 5.96215 0.7859597
v 4.819976 7.31349 0.88449
v 4.596802 4.647551 0.8264108
v -3.040702 4.885405 0.8995657
v -3.150256 3.27457 0.7611623
v -2.904983 8.973958 0.747705
v -2.983833 7.208737 0.8812141
v -7.36561 5.96215 0.7859597
v 4.819976 7.31349 0.88449
v -2.983833 7.208737 0.8812141
v -2.983833 7.208737 -0.8812177
v 4.819976 7.31349 -0.8844934
v -7.36561 5.96215 0.7859597
v -7.36561 5.96215 -0.7859631
v -2.904983 8.973958 -0.7477083
v -2.904983 8.973958 0.747705
v -2.983833 7.208737 -0.8812177
v -7.36561 5.96215 -0.7859631
v -3.040702 4.885405 -0.8995557
v 4.819976 7.31349 -0.8844934
v 4.596802 4.647551 -0.8264012
v -3.040702 4.885405 -0.8995557
v -3.150256 3.27457 -0.7611661
v -2.904983 8.973958 -0.7477083
v -7.36561 5.96215 -0.7859631
v -2.983833 7.208737 -0.8812177
v -0.3180122 7.554567 0.2460546
v -0.2298346 -1.489897 0.4050846
v -0.3559642 -1.489897 -0.1975164
v -0.2544212 7.630787 -0.3414841
v 0.2544246 7.539966 0.3929162
v 0.3180027 7.630787 -0.1946225
v 0.2136049 -1.489897 -0.3468118
v 0.206738 -1.489897 0.3894963
v -4.768372E-06 7.538729 0.02570963
v -0.2544212 7.630787 -0.3414841
v 0.3180027 7.630787 -0.1946225
v -0.3180122 7.554567 0.2460546
v 0.2544246 7.539966 0.3929162
v 0.3180027 7.630787 -0.1946225
v 0.3180027 7.630787 -0.1946225
v -0.2544212 7.630787 -0.3414841
v -0.3559642 -1.489897 -0.1975164
v 0.2136049 -1.489897 -0.3468118
v -0.3180122 7.554567 0.2460546
v 0.2544246 7.539966 0.3929162
v 0.206738 -1.489897 0.3894963
v -0.2298346 -1.489897 0.4050846
vt 0.7616879 0.6341439
vt 0.7616879 0.6341439
vt 0.872372 0.6341439
vt 0.872372 0.6341439
vt 0.7205732 0.6341439
vt 0.7205732 0.6341439
vt 0.7583279 0.6341439
vt 0.7583279 0.6341439
vt 0.872372 0.6341439
vt 0.872372 0.6341439
vt 0.8847169 0.6341439
vt 0.8847169 0.6341439
vt 0.6036341 0.6341439
vt 0.6036341 0.6341439
vt 0.6082991 0.6341439
vt 0.6082991 0.6341439
vt 0.8847169 0.6341439
vt 0.8847169 0.6341439
vt 0.9955959 0.6344289
vt 0.9955959 0.6344289
vt 0.1175931 0.869537
vt 0.05652861 0.870602
vt 0.08502837 0.985246
vt 0.1194381 0.6570487
vt 0.05172864 0.6612636
vt 0.05298863 0.8734669
vt 0.01257896 0.8756719
vt 0.1648427 0.869597
vt 0.1199631 0.871352
vt 0.09236331 0.9733961
vt 0.7205732 0.6341439
vt 0.6082991 0.6341439
vt 0.6082991 0.6341439
vt 0.7205732 0.6341439
vt 0.498335 0.6341439
vt 0.49898 0.6341439
vt 0.6036341 0.6341439
vt 0.6036341 0.6341439
vt 0.1175931 0.869537
vt 0.08210339 0.986011
vt 0.05652861 0.870602
vt 0.1194381 0.6570487
vt 0.05172864 0.6612636
vt 0.05298863 0.8734669
vt 0.01257896 0.8756719
vt 0.1648427 0.869597
vt 0.08459338 0.990661
vt 0.1199631 0.871352
vt 0.9173416 0.8291123
vt 0.9241365 0.6639786
vt 0.9007517 0.6603937
vt 0.8908218 0.8307473
vt 0.9412064 0.8287073
vt 0.9647712 0.8306573
vt 0.9756461 0.6570037
vt 0.9405614 0.6610387
vt 0.7881476 0.6862385
vt 0.7735078 0.6953734
vt 0.7954676 0.6996034
vt 0.7808277 0.6742386
vt 0.8027875 0.6784685
vt 0.7954676 0.6996034
vt 0.9647712 0.8306573
vt 0.990871 0.8307473
vt 0.9007517 0.6603937
vt 0.9756461 0.6570037
vt 0.9173416 0.8291123
vt 0.9412064 0.8287073
vt 0.9405614 0.6610387
vt 0.9241365 0.6639786
vn -0.03049159 -0.9995154 -0.006262576
vn -0.03049159 -0.9995154 -0.006262576
vn -0.03049159 -0.9995154 -0.006262576
vn -0.03049159 -0.9995154 -0.006262576
vn 0.9956065 -0.0828678 -0.04359646
vn 0.9956065 -0.0828678 -0.04359646
vn 0.9956065 -0.0828678 -0.04359646
vn 0.9956065 -0.0828678 -0.04359646
vn 0.9975609 -0.06723201 -0.01876325
vn 0.9975609 -0.06723201 -0.01876325
vn 0.9975609 -0.06723201 -0.01876325
vn 0.9975609 -0.06723201 -0.01876325
vn 0.9990422 -0.04375763 0
vn 0.9990422 -0.04375763 0
vn 0.9990422 -0.04375763 0
vn 0.9990422 -0.04375763 0
vn -0.5367 -0.8431576 -0.03222194
vn -0.5367 -0.8431576 -0.03222194
vn -0.5367 -0.8431576 -0.03222194
vn -0.5367 -0.8431576 -0.03222194
vn -0.007037878 0.008992434 0.9999348
vn -0.007037878 -0.01641572 0.9998405
vn -0.03440058 0.005083442 0.9993952
vn 0.004688919 -0.008597851 0.999952
vn 0.004688919 -0.008597851 0.999952
vn -0.007037878 -0.01641572 0.9998405
vn -0.04612732 -0.0828678 0.9954925
vn -0.04417288 0.0773989 0.9960212
vn -0.007037878 0.008992434 0.9999348
vn -0.03440058 0.005083442 0.9993952
vn -0.01290131 0.99991 -0.003686443
vn -0.01290131 0.99991 -0.003686443
vn -0.01290131 0.99991 -0.003686443
vn -0.01290131 0.99991 -0.003686443
vn -0.5601536 0.8279164 -0.02797089
vn -0.5601536 0.8279164 -0.02797089
vn -0.5601536 0.8279164 -0.02797089
vn -0.5601536 0.8279164 -0.02797089
vn -0.007037878 0.008992434 -0.9999348
vn -0.03440058 0.005083442 -0.9993952
vn -0.007037878 -0.01641572 -0.9998405
vn 0.004688919 -0.008597851 -0.999952
vn 0.004688919 -0.008597851 -0.999952
vn -0.007037878 -0.01641572 -0.9998405
vn -0.04612732 -0.0828678 -0.9954925
vn -0.04417288 0.0773989 -0.9960212
vn -0.03440058 0.005083442 -0.9993952
vn -0.007037878 0.008992434 -0.9999348
vn -0.9979554 0.00117445 0.06390278
vn -0.9979554 0.00117445 0.06390278
vn -0.9979554 0.00117445 0.06390278
vn -0.9979554 0.00117445 0.06390278
vn 0.9995154 -0.008597851 0.02991672
vn 0.9995154 -0.008597851 0.02991672
vn 0.9995154 -0.008597851 0.02991672
vn 0.9995154 -0.008597851 0.02991672
vn -0.02267373 0.9901376 0.1382515
vn 0.034006 0.9745018 0.2217876
vn -0.07544446 0.9530026 0.2934181
vn 0.09068573 0.9940466 0.06039459
vn -0.08326232 0.996001 0.03239444
vn -0.1927128 0.9725473 0.130436
vn -0.00117445 0.00117445 -0.9999986
vn -0.00117445 0.00117445 -0.9999986
vn -0.00117445 0.00117445 -0.9999986
vn -0.00117445 0.00117445 -0.9999986
vn -0.1282152 0.008992434 0.9917056
vn -0.1282152 0.008992434 0.9917056
vn -0.1282152 0.008992434 0.9917056
vn -0.1282152 0.008992434 0.9917056
g Body_LOD1_0
f 3/3/3 2/2/2 1/1/1
f 4/4/4 3/3/3 1/1/1
f 7/7/7 6/6/6 5/5/5
f 8/8/8 7/7/7 5/5/5
f 11/11/11 10/10/10 9/9/9
f 12/12/12 11/11/11 9/9/9
f 15/15/15 14/14/14 13/13/13
f 16/16/16 15/15/15 13/13/13
f 19/19/19 18/18/18 17/17/17
f 20/20/20 19/19/19 17/17/17
f 23/23/23 22/22/22 21/21/21
f 24/24/24 21/21/21 22/22/22
f 25/25/25 24/24/24 22/22/22
f 23/23/23 27/27/27 26/26/26
f 30/30/30 29/29/29 28/28/28
f 33/33/33 32/32/32 31/31/31
f 34/34/34 33/33/33 31/31/31
f 37/37/37 36/36/36 35/35/35
f 38/38/38 37/37/37 35/35/35
f 41/41/41 40/40/40 39/39/39
f 39/39/39 42/42/42 41/41/41
f 42/42/42 43/43/43 41/41/41
f 45/45/45 40/40/40 44/44/44
f 48/48/48 47/47/47 46/46/46
f 51/51/51 50/50/50 49/49/49
f 52/52/52 51/51/51 49/49/49
f 55/55/55 54/54/54 53/53/53
f 56/56/56 55/55/55 53/53/53
f 59/59/59 58/58/58 57/57/57
f 58/58/58 60/60/60 57/57/57
f 60/60/60 61/61/61 57/57/57
f 61/61/61 62/62/62 57/57/57
f 65/65/65 64/64/64 63/63/63
f 66/66/66 65/65/65 63/63/63
f 69/69/69 68/68/68 67/67/67
f 70/70/70 69/69/69 67/67/67
