g Body_LOD1
v -3.956325 0.2229166 -2.001652
v -4.008457 0.07825375 -3.172696
v -4.003927 0.825551 -2.801466
v -4.00392 -0.6695125 -2.800967
v -3.994136 -1.016554 -2.000009
v -3.984361 -0.6695125 -1.199036
v -3.979823 0.07825375 -0.8273067
v -3.994136 1.173061 -2.000009
v -4.006507 0.8168201 -1.211644
v -4.006507 0.8168201 -1.211644
v 3.958066 0.08520317 -2.044831
v 3.997005 0.6139812 -1.213142
v 4.01965 0.9851499 -2.013577
v 4.041128 0.7496066 -2.810105
v 4.04347 0.003261089 -3.09401
v 4.028358 -0.774637 -2.791982
v 4.002189 -1.096714 -1.988252
v 3.980688 -0.8608789 -1.191157
v 3.978345 -0.1145413 -0.9072366
v 3.997005 0.6139812 -1.213142
v 2.499999 0.3101492 -2.906214
v 4.041128 0.7496066 -2.810105
v 2.499999 0.6726408 -2.608986
v -3 0.06646633 -2.988133
v -3 0.3771095 -2.879998
v -4.008457 0.07825375 -3.172696
v 2.499999 0.8600984 -2.135527
v 4.01965 0.9851499 -2.013577
v 2.499999 0.8023148 -1.625984
v -3 0.7286816 -2.531475
v -3 0.8716478 -2.039371
v -3.994136 1.173061 -2.000009
v -4.006507 0.8168201 -1.211644
v -3 0.7654557 -1.537745
v -4.003927 0.825551 -2.801466
v 2.499999 0.5147772 -1.216882
v 3.997005 0.6139812 -1.213142
v -3 0.4393935 -1.160219
v 2.499999 0.07452917 -1.017844
v 3.978345 -0.1145413 -0.9072366
v 2.499999 -0.400466 -1.082209
v 3.997005 0.6139812 -1.213142
v -3 -0.01918411 -1.00793
v -3 -0.4873991 -1.121694
v 2.499999 -0.7829301 -1.392706
v 3.980688 -0.8608789 -1.191157
v 2.499999 -0.9126041 -2.375708
v 4.002189 -1.096714 -1.988252
v -3 -0.9819295 -1.962321
v -3.984361 -0.6695125 -1.199036
v -3.979823 0.07825375 -0.8273067
v -4.006507 0.8168201 -1.211644
v -3.994136 -1.016554 -2.000009
v 2.499999 -0.1848187 -2.983848
v 2.499999 -0.9126041 -2.375708
v 4.028358 -0.774637 -2.791982
v -3 -0.9819295 -1.962321
v -3 -0.5496752 -2.841488
v 4.002189 -1.096714 -1.988252
v 4.04347 0.003261089 -3.09401
v -4.00392 -0.6695125 -2.800967
v -3.994136 -1.016554 -2.000009
vt 0.8440565 0.8618783
vt 0.8837193 0.8566042
vt 0.8711921 0.8837397
vt 0.8711207 0.8295401
vt 0.8440667 0.8169823
vt 0.8170027 0.8294789
vt 0.804353 0.856441
vt 0.8441076 0.89642
vt 0.8187777 0.8857086
vt 0.8081887 0.8712431
vt 0.8382622 0.9473654
vt 0.8545027 0.9786631
vt 0.8310193 0.979112
vt 0.8071992 0.9622797
vt 0.804659 0.9332263
vt 0.8214402 0.9094165
vt 0.8504426 0.9068356
vt 0.8742525 0.9235453
vt 0.876915 0.9524967
vt 0.8664077 0.9707367
vt 0.6314405 0.4387068
vt 0.5752618 0.4357178
vt 0.6303183 0.4270263
vt 0.8511057 0.4359728
vt 0.8509322 0.4275976
vt 0.9098246 0.4519379
vt 0.6285943 0.4148663
vt 0.5732521 0.4170188
vt 0.6276864 0.4026247
vt 0.8515036 0.4152131
vt 0.8526869 0.4029512
vt 0.9160473 0.4132443
vt 0.9208828 0.3951879
vt 0.8539723 0.3908319
vt 0.9128033 0.4324024
vt 0.626452 0.3905565
vt 0.5717627 0.4008089
vt 0.855278 0.3786822
vt 0.629747 0.3788148
vt 0.5740988 0.3605238
vt 0.6322668 0.3670425
vt 0.5691614 0.3748363
vt 0.8518198 0.366665
vt 0.8493409 0.3544846
vt 0.6337256 0.3550865
vt 0.5785568 0.3413045
vt 0.6336542 0.3315418
vt 0.583178 0.322279
vt 0.84474 0.331348
vt 0.9059276 0.3310114
vt 0.9115996 0.3510774
vt 0.9168736 0.3603198
vt 0.901133 0.3105679
vt 0.6326034 0.4515299
vt 0.6365004 0.4749011
vt 0.5792811 0.4744217
vt 0.8484533 0.4755438
vt 0.8492388 0.4519991
vt 0.5804645 0.4883261
vt 0.5767817 0.4544271
vt 0.9052849 0.4714327
vt 0.900072 0.4916925
vn -0.9999478 -0.006760359 0.007655434
vn -0.9999478 0.001058757 0.01015811
vn -0.9979931 -0.02630806 0.05759973
vn -0.9997456 0.02255669 0
vn -0.9995388 0.03036788 0
vn -0.9997456 0.02255669 0
vn -0.9999431 -0.01066984 0
vn -0.9992012 -0.03996164 0
vn -0.9979931 -0.04585582 -0.0436702
vn -0.9979931 -0.04585582 -0.0436702
vn 0.9997851 -0.01262468 0.01644102
vn 0.9978303 -0.04976535 -0.04310497
vn 0.9975961 -0.06929684 0
vn 0.9958756 -0.04585582 0.07828833
vn 0.9958756 -0.006760359 0.09047715
vn 0.9978303 0.02647084 0.06028203
vn 0.9978303 0.03819948 0.05362302
vn 0.9996995 0.02451395 0
vn 0.9997851 -0.008715093 -0.0188079
vn 0.9978303 -0.04976535 -0.04310497
vn -0.0147422 0.2219481 -0.974947
vn -0.06361145 0.7282344 -0.6823696
vn -0.0147422 0.7340987 -0.6788827
vn 0.01653421 0.1144356 -0.993293
vn 0.02044374 0.6871842 -0.7261955
vn 0.1084086 -0.09472513 -0.9895831
vn -0.01083261 0.9569429 -0.2900741
vn -0.03624469 0.9979931 0.05192453
vn -0.00692302 0.9804001 0.196895
vn 0.0380367 0.9354404 -0.3514321
vn 0.04976535 0.9921288 0.1149083
vn 0.2353089 0.9719205 0
vn 0.2041925 0.7986062 0.5661568
vn 0.0380367 0.8161991 0.5765173
vn 0.2061472 0.7907872 -0.5763323
vn -0.00692302 0.7360535 0.6768879
vn -0.01865166 0.6422244 0.7662897
vn 0.02044374 0.3920134 0.9197323
vn -0.008877814 0.3372797 0.9413626
vn -0.03624469 0.1144356 0.9927692
vn -0.0127874 -0.2237402 0.974565
vn -0.01865166 0.6422244 0.7662897
vn 0.01262468 -0.165097 0.9861965
vn 0.006760359 -0.8160365 0.5779609
vn -0.01669699 -0.8551319 0.5181415
vn -0.07924968 -0.7554384 0.6504093
vn -0.01865166 -0.9782826 -0.2064344
vn -0.07729489 -0.9958756 -0.04751155
vn 0.006760359 -0.991966 -0.1263238
vn 0.08299649 -0.7417551 0.6655156
vn 0.1455492 -0.0008960366 0.9893506
vn 0.2041925 0.7986062 0.5661568
vn 0.03606618 -0.9993494 0
vn -0.0147422 -0.5286848 -0.8486902
vn -0.01865166 -0.9782826 -0.2064344
vn -0.0518828 -0.6967953 -0.7153912
vn 0.006760359 -0.991966 -0.1263238
vn 0.01262468 -0.5814637 -0.8134744
vn -0.07729489 -0.9958756 -0.04751155
vn -0.03819948 -0.008715093 -0.9992322
vn 0.08495128 -0.6283782 -0.7732555
vn 0.03606618 -0.9993494 0
g Body_LOD1_0
f 3/3/3 2/2/2 1/1/1
f 2/2/2 4/4/4 1/1/1
f 4/4/4 5/5/5 1/1/1
f 5/5/5 6/6/6 1/1/1
f 6/6/6 7/7/7 1/1/1
f 8/8/8 3/3/3 1/1/1
f 9/9/9 8/8/8 1/1/1
f 7/7/7 10/10/10 1/1/1
f 13/13/13 12/12/12 11/11/11
f 14/14/14 13/13/13 11/11/11
f 15/15/15 14/14/14 11/11/11
f 16/16/16 15/15/15 11/11/11
f 17/17/17 16/16/16 11/11/11
f 18/18/18 17/17/17 11/11/11
f 19/19/19 18/18/18 11/11/11
f 20/20/20 19/19/19 11/11/11
f 23/23/23 22/22/22 21/21/21
f 21/21/21 24/24/24 23/23/23
f 24/24/24 25/25/25 23/23/23
f 24/24/24 26/26/26 25/25/25
f 23/23/23 25/25/25 27/27/27
f 23/23/23 27/27/27 22/22/22
f 22/22/22 27/27/27 28/28/28
f 27/27/27 29/29/29 28/28/28
f 25/25/25 30/30/30 27/27/27
f 27/27/27 30/30/30 31/31/31
f 29/29/29 27/27/27 31/31/31
f 31/31/31 30/30/30 32/32/32
f 31/31/31 32/32/32 33/33/33
f 34/34/34 31/31/31 33/33/33
f 29/29/29 31/31/31 34/34/34
f 30/30/30 35/35/35 32/32/32
f 30/30/30 25/25/25 35/35/35
f 26/26/26 35/35/35 25/25/25
f 36/36/36 29/29/29 34/34/34
f 37/37/37 29/29/29 36/36/36
f 28/28/28 29/29/29 37/37/37
f 36/36/36 34/34/34 38/38/38
f 34/34/34 33/33/33 38/38/38
f 39/39/39 36/36/36 38/38/38
f 36/36/36 39/39/39 40/40/40
f 39/39/39 41/41/41 40/40/40
f 42/42/42 36/36/36 40/40/40
f 39/39/39 38/38/38 43/43/43
f 41/41/41 39/39/39 43/43/43
f 41/41/41 43/43/43 44/44/44
f 45/45/45 41/41/41 44/44/44
f 41/41/41 45/45/45 46/46/46
f 40/40/40 41/41/41 46/46/46
f 45/45/45 44/44/44 47/47/47
f 48/48/48 45/45/45 47/47/47
f 46/46/46 45/45/45 48/48/48
f 44/44/44 49/49/49 47/47/47
f 44/44/44 50/50/50 49/49/49
f 44/44/44 43/43/43 50/50/50
f 43/43/43 51/51/51 50/50/50
f 43/43/43 38/38/38 51/51/51
f 38/38/38 52/52/52 51/51/51
f 50/50/50 53/53/53 49/49/49
f 56/56/56 55/55/55 54/54/54
f 55/55/55 57/57/57 54/54/54
f 57/57/57 58/58/58 54/54/54
f 59/59/59 55/55/55 56/56/56
f 60/60/60 56/56/56 54/54/54
f 57/57/57 61/61/61 58/58/58
f 62/62/62 61/61/61 57/57/57
f 61/61/61 26/26/26 58/58/58
f 26/26/26 24/24/24 58/58/58
f 58/58/58 24/24/24 54/54/54
f 24/24/24 21/21/21 54/54/54
f 54/54/54 21/21/21 60/60/60
f 21/21/21 22/22/22 60/60/60
