g Body_LOD0
v 2.054897 0.02740622 -0.1377287
v 1.893326 0.02740622 0.2897549
v -0.05109382 0.02740622 -0.04845548
v 1.833848 0.02740622 0.6144617
v 1.807409 0.02740622 0.9640727
v 1.844857 0.02740622 1.225669
v 2.123258 0.02740622 1.836883
v 2.132342 0.02740622 2.361397
v 1.957347 0.02740622 2.645031
v 1.679692 0.02740622 2.82521
v 1.22264 0.02740622 2.945292
v 0.6114259 0.02740622 3.019504
v 0.2580373 0.02740622 2.978852
v 2.119291 0.02740622 -0.6079659
v 1.999636 0.02740622 -1.219174
v 1.863587 0.02740622 -1.534766
v 1.692027 0.02740622 -1.830388
v 1.212407 0.02740622 -2.400669
v 0.6114259 0.02740622 -2.744668
v 0.000218153 0.02740622 -2.908727
v -0.6109955 0.02740622 -2.92923
v -1.222209 0.02740622 -2.795938
v -1.790474 0.02740622 -2.421771
v -2.100216 0.02740622 -1.830388
v -2.126349 0.02740622 -1.219174
v -2.070972 0.02740622 -0.6079659
v -1.833417 0.02740622 0.003247738
v -1.790113 0.02740622 0.2999513
v -1.744211 0.02740622 0.6144617
v -1.762984 0.02740622 0.9640727
v -1.725041 0.02740622 1.225669
v -1.54301 0.02740622 1.541188
v -1.227693 0.02740622 1.856708
v -0.95225 0.02740622 2.062628
v -0.6822968 0.02740622 2.290487
v -0.3973241 0.02740622 2.629126
v -0.09534526 0.02740622 2.842436
v -2.231742 1.907349E-06 -0.6585934
v -1.975775 1.907349E-06 1.907349E-06
v -1.323091 1.907349E-06 1.997134
v -1.026302 1.907349E-06 2.219021
v -0.7354183 1.907349E-06 2.464541
v -0.4283533 1.907349E-06 2.829428
v -1.859 1.907349E-06 1.31718
v -1.662854 1.907349E-06 1.657157
v -0.1029742 1.907349E-06 3.059274
v 0.2778127 1.907349E-06 3.206266
v 0.6585934 1.907349E-06 3.250071
v 1.317182 1.907349E-06 3.170108
v 1.809665 1.907349E-06 3.040715
v 2.108844 1.907349E-06 2.846562
v 2.297403 1.907349E-06 2.540946
v 2.287617 1.907349E-06 1.975775
v 1.987637 1.907349E-06 1.31718
v 1.947285 1.907349E-06 1.035306
v 1.975771 1.907349E-06 0.6585908
v 2.039859 1.907349E-06 0.3087173
v 2.21395 1.907349E-06 -0.1519046
v 2.283338 1.907349E-06 -0.6585934
v 2.15441 1.907349E-06 -1.317182
v 2.007815 1.907349E-06 -1.657233
v 1.82296 1.907349E-06 -1.975771
v 1.306155 1.907349E-06 -2.590262
v 0.6585934 1.907349E-06 -2.960926
v -1.907349E-06 1.907349E-06 -3.137699
v -0.6585908 1.907349E-06 -3.159798
v -1.31718 1.907349E-06 -3.016168
v -1.9295 1.907349E-06 -2.613002
v -2.263254 1.907349E-06 -1.975771
v -2.291404 1.907349E-06 -1.317182
v -1.879649 1.907349E-06 0.6585908
v -1.899877 1.907349E-06 1.035306
v -1.929109 1.907349E-06 0.3197083
vt 0.8006368 0.5267912
vt 0.7769624 0.464166
vt 0.4920678 0.5137072
vt 0.7682494 0.416588
vt 0.7643801 0.3653557
vt 0.7698687 0.3270354
vt 0.8106539 0.2374827
vt 0.8119867 0.1606271
vt 0.7863491 0.119068
vt 0.7456641 0.09267087
vt 0.6786968 0.07507275
vt 0.5891441 0.06419574
vt 0.5373672 0.07015732
vt 0.8100808 0.5956932
vt 0.79254 0.6852459
vt 0.7726059 0.7314911
vt 0.7474698 0.7747985
vt 0.6772064 0.8583609
vt 0.5891441 0.908762
vt 0.4995915 0.9327946
vt 0.4100389 0.9358041
vt 0.3204862 0.9162713
vt 0.2372248 0.861442
vt 0.1918394 0.7747985
vt 0.1880131 0.6852459
vt 0.1961243 0.5956932
vt 0.2309336 0.5061406
vt 0.2372821 0.4626612
vt 0.2440032 0.416588
vt 0.2412517 0.3653557
vt 0.246812 0.3270354
vt 0.2734815 0.2808045
vt 0.3196837 0.2345736
vt 0.360039 0.2044074
vt 0.3995918 0.1710169
vt 0.4413515 0.1214039
vt 0.4855904 0.09014866
vt 0.1725646 0.6031022
vt 0.2100681 0.5066135
vt 0.3056969 0.2139947
vt 0.3491907 0.1814926
vt 0.3918102 0.1455082
vt 0.4367943 0.09205465
vt 0.2271789 0.3136218
vt 0.2559264 0.2638083
vt 0.4844726 0.05837747
vt 0.5402621 0.0368384
vt 0.5960516 0.03041825
vt 0.6925546 0.04214077
vt 0.7647097 0.06108598
vt 0.8085474 0.08953244
vt 0.836177 0.1343159
vt 0.8347439 0.2171331
vt 0.7907916 0.3136218
vt 0.784873 0.3549229
vt 0.7890432 0.4101105
vt 0.7984442 0.4613858
vt 0.8239385 0.5288692
vt 0.8341134 0.6031022
vt 0.8152255 0.6996052
vt 0.7937437 0.7494332
vt 0.7666587 0.7960939
vt 0.6909351 0.8861338
vt 0.5960516 0.9404472
vt 0.4995628 0.9663428
vt 0.4030598 0.9695816
vt 0.3065711 0.948544
vt 0.2168465 0.8894728
vt 0.1679501 0.7960939
vt 0.1638229 0.6996052
vt 0.2241552 0.4101105
vt 0.2211887 0.3549229
vt 0.2169038 0.4597664
vn 0.0265766 0.9996468 0
vn 0.02168657 0.9997649 0
vn -0.0003328323 1 0
vn 0.02290923 0.9997376 0
vn 0.0265766 0.9996468 0
vn 0.02046379 0.9997906 0
vn 0.03515106 0.9987764 -0.03478554
vn 0.02779883 0.9996136 0
vn 0.01312545 0.9999139 0
vn 0.007008499 0.9999754 0
vn 0.003337901 0.9999945 0
vn 0.0008907613 0.9999996 0
vn -0.005227077 0.9999864 0
vn 0.02535425 0.9996785 0
vn 0.02535425 0.9996785 0
vn 0.01924093 0.9998149 0
vn 0.01557185 0.9998788 0
vn 0.01557185 0.9998788 0
vn 0.008231972 0.9999661 0
vn 0.003337901 0.9999945 0
vn -0.001556424 0.9999988 0
vn -0.007674111 0.9999706 0
vn -0.01623726 0.9998682 0
vn -0.02357435 0.9997221 0
vn -0.02479685 0.9996926 0
vn -0.02968573 0.9995592 0
vn -0.02112903 0.9997768 0
vn -0.02724155 0.9996289 0
vn -0.02479685 0.9996926 0
vn -0.03335101 0.9994437 0
vn -0.02601925 0.9996614 0
vn -0.01990621 0.9998019 0
vn -0.01623726 0.9998682 0
vn -0.01379093 0.9999049 0
vn -0.01379093 0.9999049 0
vn -0.0186833 0.9998255 0
vn -0.01012098 0.9999489 0
vn -0.1777492 0.9840758 0
vn -0.1899882 0.9804227 0.05172786
vn -0.105561 0.9865406 0.1248786
vn -0.1006666 0.9865406 0.1288565
vn -0.1251383 0.985317 0.1161501
vn -0.1006666 0.9877641 0.1191146
vn -0.1569514 0.985317 0.06720611
vn -0.1263618 0.9865406 0.1037807
vn -0.0602884 0.9902114 0.1258838
vn -0.02725166 0.9926585 0.1178408
vn 0.005785078 0.9926585 0.1208126
vn 0.02169167 0.9938821 0.1082956
vn 0.04249257 0.9938821 0.1019453
vn 0.07552931 0.9938821 0.08058379
vn 0.1195783 0.9914349 0.05251464
vn 0.1794735 0.9837629 0
vn 0.2517252 0.9620689 -0.105156
vn 0.196664 0.9804227 -0.009722807
vn 0.1832046 0.9828699 0.02007305
vn 0.1770867 0.9828699 0.05106042
vn 0.1734159 0.9840934 0.03856185
vn 0.1611801 0.9865406 -0.02754465
vn 0.1477207 0.9877641 -0.05000653
vn 0.1305905 0.9889878 -0.06963617
vn 0.1122368 0.9902114 -0.0829719
vn 0.08164722 0.9914349 -0.1019339
vn 0.04616332 0.9926585 -0.1117948
vn 0.01679733 0.9926585 -0.1197788
vn -0.01134509 0.9926585 -0.1204178
vn -0.0443818 0.9938821 -0.101137
vn -0.08353645 0.9926585 -0.08746881
vn -0.1263618 0.9914349 -0.03300687
vn -0.164272 0.9864151 0
vn -0.1973131 0.9803406 0
vn -0.1899882 0.9816463 0.0165836
vn -0.1899882 0.9816463 0.0165836
g Body_LOD0_0
f 3/3/3 2/2/2 1/1/1
f 4/4/4 2/2/2 3/3/3
f 4/4/4 3/3/3 5/5/5
f 3/3/3 6/6/6 5/5/5
f 3/3/3 7/7/7 6/6/6
f 3/3/3 8/8/8 7/7/7
f 3/3/3 9/9/9 8/8/8
f 3/3/3 10/10/10 9/9/9
f 3/3/3 11/11/11 10/10/10
f 3/3/3 12/12/12 11/11/11
f 3/3/3 13/13/13 12/12/12
f 3/3/3 1/1/1 14/14/14
f 3/3/3 14/14/14 15/15/15
f 3/3/3 15/15/15 16/16/16
f 3/3/3 16/16/16 17/17/17
f 3/3/3 17/17/17 18/18/18
f 3/3/3 18/18/18 19/19/19
f 3/3/3 19/19/19 20/20/20
f 3/3/3 20/20/20 21/21/21
f 3/3/3 21/21/21 22/22/22
f 3/3/3 22/22/22 23/23/23
f 3/3/3 23/23/23 24/24/24
f 3/3/3 24/24/24 25/25/25
f 3/3/3 25/25/25 26/26/26
f 3/3/3 26/26/26 27/27/27
f 3/3/3 27/27/27 28/28/28
f 3/3/3 28/28/28 29/29/29
f 3/3/3 29/29/29 30/30/30
f 3/3/3 30/30/30 31/31/31
f 3/3/3 31/31/31 32/32/32
f 3/3/3 32/32/32 33/33/33
f 3/3/3 33/33/33 34/34/34
f 3/3/3 34/34/34 35/35/35
f 3/3/3 35/35/35 36/36/36
f 3/3/3 36/36/36 37/37/37
f 3/3/3 37/37/37 13/13/13
f 27/27/27 26/26/26 38/38/38
f 39/39/39 27/27/27 38/38/38
f 28/28/28 27/27/27 39/39/39
f 34/34/34 33/33/33 40/40/40
f 41/41/41 34/34/34 40/40/40
f 35/35/35 34/34/34 41/41/41
f 36/36/36 35/35/35 42/42/42
f 42/42/42 35/35/35 41/41/41
f 43/43/43 36/36/36 42/42/42
f 37/37/37 36/36/36 43/43/43
f 32/32/32 31/31/31 44/44/44
f 45/45/45 32/32/32 44/44/44
f 33/33/33 32/32/32 45/45/45
f 40/40/40 33/33/33 45/45/45
f 46/46/46 37/37/37 43/43/43
f 13/13/13 37/37/37 46/46/46
f 47/47/47 13/13/13 46/46/46
f 12/12/12 13/13/13 47/47/47
f 48/48/48 12/12/12 47/47/47
f 11/11/11 12/12/12 48/48/48
f 49/49/49 11/11/11 48/48/48
f 10/10/10 11/11/11 49/49/49
f 50/50/50 10/10/10 49/49/49
f 9/9/9 10/10/10 50/50/50
f 51/51/51 9/9/9 50/50/50
f 8/8/8 9/9/9 51/51/51
f 52/52/52 8/8/8 51/51/51
f 7/7/7 8/8/8 52/52/52
f 53/53/53 7/7/7 52/52/52
f 6/6/6 7/7/7 53/53/53
f 54/54/54 6/6/6 53/53/53
f 5/5/5 6/6/6 54/54/54
f 55/55/55 5/5/5 54/54/54
f 4/4/4 5/5/5 55/55/55
f 56/56/56 4/4/4 55/55/55
f 2/2/2 4/4/4 56/56/56
f 57/57/57 2/2/2 56/56/56
f 1/1/1 2/2/2 57/57/57
f 58/58/58 1/1/1 57/57/57
f 14/14/14 1/1/1 58/58/58
f 59/59/59 14/14/14 58/58/58
f 15/15/15 14/14/14 59/59/59
f 60/60/60 15/15/15 59/59/59
f 16/16/16 15/15/15 60/60/60
f 61/61/61 16/16/16 60/60/60
f 17/17/17 16/16/16 61/61/61
f 62/62/62 17/17/17 61/61/61
f 18/18/18 17/17/17 62/62/62
f 63/63/63 18/18/18 62/62/62
f 19/19/19 18/18/18 63/63/63
f 64/64/64 19/19/19 63/63/63
f 20/20/20 19/19/19 64/64/64
f 65/65/65 20/20/20 64/64/64
f 21/21/21 20/20/20 65/65/65
f 66/66/66 21/21/21 65/65/65
f 22/22/22 21/21/21 66/66/66
f 67/67/67 22/22/22 66/66/66
f 23/23/23 22/22/22 67/67/67
f 68/68/68 23/23/23 67/67/67
f 24/24/24 23/23/23 68/68/68
f 69/69/69 24/24/24 68/68/68
f 25/25/25 24/24/24 69/69/69
f 70/70/70 25/25/25 69/69/69
f 26/26/26 25/25/25 70/70/70
f 38/38/38 26/26/26 70/70/70
f 30/30/30 29/29/29 71/71/71
f 72/72/72 30/30/30 71/71/71
f 31/31/31 30/30/30 72/72/72
f 44/44/44 31/31/31 72/72/72
f 71/71/71 29/29/29 73/73/73
f 29/29/29 28/28/28 73/73/73
f 73/73/73 28/28/28 39/39/39
