g Body_LOD1
v -0.000115931 0.2299073 -0.1257603
v 0.1012374 -0.1212566 -0.1001216
v 0.07399189 0.2222012 -0.04499111
v 0.09626946 -0.1431355 0.05268633
v -3.194809E-05 -0.1291528 -0.1737624
v 0.05050996 0.2135962 0.03348565
v -5.036592E-05 -0.1524797 0.1131511
v 0.03754708 0.2775505 -0.008811176
v -0.000115931 0.2910929 -0.05289564
v -0.0001048446 0.4043726 -0.0282979
v 0.03244448 0.4076572 0.00510782
v -0.0001048446 0.4098961 0.03025097
v -0.03754729 0.2775505 -0.008811176
v -0.03244466 0.4076572 0.00510782
v -0.05050921 0.2135962 0.03348565
v -0.07399207 0.2222012 -0.04499111
v -0.0963158 -0.1431355 0.05268633
v -0.1013944 -0.1212566 -0.1001216
v -0.000115931 0.2910929 -0.05289564
v -0.0001048446 0.4043726 -0.0282979
v -0.000115931 0.2299073 -0.1257603
v -3.194809E-05 -0.1291528 -0.1737624
v 0.08169615 -0.2991329 -0.3257157
v 0.1012374 -0.1212566 -0.1001216
v -3.46899E-05 -0.2482744 -0.2804491
v -3.194809E-05 -0.1291528 -0.1737624
v 0.0639149 -0.3021064 -0.4246677
v -0.0001048446 -0.2384485 -0.5358081
v -0.06412363 -0.3021064 -0.4246677
v -0.08190584 -0.2991329 -0.3257157
v -0.1013944 -0.1212566 -0.1001216
v -3.194809E-05 -0.1291528 -0.1737624
v -0.0001048446 -0.04698822 -0.01353079
v -5.036592E-05 -0.1524797 0.1131511
v 0.1012374 -0.1212566 -0.1001216
v -0.1013944 -0.1212566 -0.1001216
v -5.036592E-05 -0.1524797 0.1131511
v -0.0001048446 -0.04698822 -0.01353079
v 0.1012374 -0.1212566 -0.1001216
v -0.1013944 -0.1212566 -0.1001216
v -0.0001048446 -0.04698822 -0.01353079
v 0.08169615 -0.2991329 -0.3257157
v -0.08190584 -0.2991329 -0.3257157
v -0.06412363 -0.3021064 -0.4246677
v 0.0639149 -0.3021064 -0.4246677
v -0.0001048446 -0.2384485 -0.5358081
v 0.1012374 -0.1212566 -0.1001216
v -5.036592E-05 -0.1524797 0.1131511
v 0.201928 -0.3028918 0.1676549
v 0.2725962 -0.3033256 0.003681958
v 0.4053756 -0.2419785 0.09618753
v 0.3603027 -0.2423597 0.2012923
v 0.4332404 -0.1914551 0.1671788
v -0.0963158 -0.1431355 0.05268633
v -5.036592E-05 -0.1524797 0.1131511
v -0.2019272 -0.3028918 0.1676549
v -0.2519145 -0.2578845 0.0933404
v -0.2725964 -0.3033256 0.003681958
v -0.4046476 -0.2419841 0.09788561
v -0.4319079 -0.1919433 0.166636
v -0.1013944 -0.1212566 -0.1001216
v -0.3610311 -0.2423532 0.1995942
v -5.036592E-05 -0.1524797 0.1131511
v -0.1013944 -0.1212566 -0.1001216
v -0.2725964 -0.3033256 0.003681958
v -0.2019272 -0.3028918 0.1676549
v -0.3610311 -0.2423532 0.1995942
v -0.4046476 -0.2419841 0.09788561
v -0.4319079 -0.1919433 0.166636
v 0.09626946 -0.1431355 0.05268633
v 0.2725962 -0.3033256 0.003681958
v 0.2505817 -0.2583727 0.09279776
v 0.201928 -0.3028918 0.1676549
v 0.1012374 -0.1212566 -0.1001216
v 0.3603027 -0.2423597 0.2012923
v -5.036592E-05 -0.1524797 0.1131511
v 0.4332404 -0.1914551 0.1671788
v 0.4053756 -0.2419785 0.09618753
vt 0.7484508 0.8738837
vt 0.7284366 0.703756
vt 0.6233438 0.846492
vt 0.5923226 0.6721422
vt 0.8332184 0.7075929
vt 0.5617162 0.8320777
vt 0.4999997 0.673357
vt 0.5729455 0.8845944
vt 0.6388544 0.9104158
vt 0.5682938 0.9847097
vt 0.52551 0.9704435
vt 0.4999997 0.9693917
vt 0.427054 0.8846093
vt 0.4744895 0.9704435
vt 0.4382832 0.8320925
vt 0.3766704 0.846492
vt 0.4076472 0.6721422
vt 0.2715628 0.7037708
vt 0.3611747 0.9104158
vt 0.4317057 0.9847097
vt 0.2515486 0.8738985
vt 0.1667811 0.7076077
vt 0.1431374 0.482667
vt 0.1373153 0.6209883
vt 0.2395046 0.5107697
vt 0.2400083 0.5968261
vt 0.1638478 0.4410831
vt 0.2387491 0.3796926
vt 0.3143318 0.4408757
vt 0.3355311 0.4823855
vt 0.3427753 0.6208402
vt 0.2400083 0.5968261
vt 0.2746294 0.02475609
vt 0.1588702 0.08232457
vt 0.3886108 0.07257674
vt 0.3954106 0.07229526
vt 0.6300843 0.08174681
vt 0.5125771 0.02385242
vt 0.6337435 0.08041352
vt 0.8388627 0.08041352
vt 0.7363179 0.02346724
vt 0.6459504 0.2216533
vt 0.8266705 0.2216533
vt 0.8061378 0.2654741
vt 0.6664831 0.2654741
vt 0.7363179 0.3316942
vt 0.3868034 0.07272488
vt 0.1570036 0.08247271
vt 0.1801288 0.2074316
vt 0.3707299 0.2085871
vt 0.3318719 0.2849697
vt 0.2158905 0.2840068
vt 0.2746145 0.3366718
vt 0.5233322 0.5886782
vt 0.5987668 0.6155218
vt 0.5970483 0.4915408
vt 0.4954517 0.4853187
vt 0.3918848 0.4887705
vt 0.4478681 0.4203134
vt 0.4984739 0.3737817
vt 0.3913663 0.6194476
vt 0.54785 0.4214838
vt 0.6300843 0.08174681
vt 0.3954106 0.07229526
vt 0.4165506 0.2080093
vt 0.6071517 0.2068538
vt 0.5657753 0.2836365
vt 0.4611565 0.2841402
vt 0.5126511 0.3351311
vt 0.7176074 0.589582
vt 0.8493808 0.489363
vt 0.7450139 0.4888742
vt 0.644232 0.4921333
vt 0.8654988 0.6207216
vt 0.6892972 0.4193653
vt 0.6264845 0.6132404
vt 0.7427917 0.3735594
vt 0.7966418 0.4187135
vn 0.003590047 0.2926188 -0.9562225
vn 0.8883443 0.3158507 -0.3332906
vn 0.9425524 0.2151785 -0.2555251
vn 0.772184 0.4397551 0.4586363
vn 0.003590047 0.3545709 -0.9350222
vn 0.4992073 0.2771307 0.8209693
vn 0.003590047 0.3545709 0.9350222
vn 0.4914633 0.4707311 0.7327182
vn 0.003590047 0.6023796 -0.7982017
vn 0.003590047 0.3313388 -0.943505
vn 0.9657845 0.2538986 0.05287435
vn 0.003590047 0.08353019 0.9964988
vn -0.4939632 0.4707311 0.7310352
vn -0.9672986 0.2536401 0
vn -0.4939632 0.2771307 0.8241352
vn -0.9450524 0.2151785 -0.2461183
vn -0.774684 0.4397551 0.454401
vn -0.8831003 0.3158507 -0.346947
vn 0.003590047 0.6023796 -0.7982017
vn 0.003590047 0.3313388 -0.943505
vn 0.003590047 0.2926188 -0.9562225
vn 0.003590047 0.3545709 -0.9350222
vn 0.3056068 0.8598682 -0.4089391
vn 0.8883443 0.3158507 -0.3332906
vn 0.003590047 0.8443801 -0.5357325
vn 0.003590047 0.3545709 -0.9350222
vn 0.6536717 0.7567783 0
vn 0.003590047 0.9992605 0.03828184
vn -0.6546516 0.7553239 -0.0302823
vn -0.3003627 0.8598682 -0.4128062
vn -0.8831003 0.3158507 -0.346947
vn 0.003590047 0.3545709 -0.9350222
vn 0.003590047 -0.9812726 -0.1925909
vn 0.003590047 -0.9193204 -0.3934935
vn -0.3390828 -0.9193204 0.1996818
vn 0.3443269 -0.9193204 0.1904967
vn 0.003590047 -0.9193204 -0.3934935
vn 0.003590047 -0.9812726 -0.1925909
vn -0.3390828 -0.9193204 0.1996818
vn 0.3443269 -0.9193204 0.1904967
vn 0.003590047 -0.9812726 -0.1925909
vn 0.003590047 -0.8263922 0.5630835
vn 0.003590047 -0.8263922 0.5630835
vn 0.003590047 -0.9812726 -0.1925909
vn 0.003590047 -0.9735286 -0.2285373
vn 0.003590047 -0.8651123 -0.5015654
vn -0.3390828 -0.9193204 0.1996818
vn 0.003590047 -0.9193204 -0.3934935
vn -0.3468269 -0.9115764 -0.2207704
vn -0.3468269 -0.9115764 -0.2207704
vn 0.3598149 -0.9193204 0.1593212
vn 0.3520709 -0.9193204 0.1757728
vn 0.6308557 -0.7257199 0.2745025
vn -0.774684 0.4397551 0.454401
vn 0.003590047 0.3545709 0.9350222
vn -0.1067623 0.821148 0.5606405
vn -0.1919465 0.9760284 0.1025914
vn -0.4862192 0.8598682 -0.1556203
vn 0.07328624 0.8366362 -0.5428343
vn 0.2978628 0.9450524 -0.1347358
vn -0.8831003 0.3158507 -0.346947
vn 0.4295111 0.8443801 0.3202223
vn 0.003590047 -0.9193204 -0.3934935
vn 0.3443269 -0.9193204 0.1904967
vn 0.3520709 -0.9115764 -0.2123076
vn 0.3520709 -0.9115764 -0.2123076
vn -0.3545709 -0.9193204 0.1706737
vn -0.3545709 -0.9193204 0.1706737
vn -0.6410996 -0.7179759 0.2711125
vn 0.772184 0.4397551 0.4586363
vn 0.4759753 0.8598682 -0.1845921
vn 0.1971905 0.9760284 0.0921106
vn 0.1042623 0.821148 0.5611107
vn 0.8883443 0.3158507 -0.3332906
vn -0.4242671 0.8521242 0.3064013
vn 0.003590047 0.3545709 0.9350222
vn -0.3003627 0.9450524 -0.1290668
vn -0.07578611 0.8443801 -0.5303571
g Body_LOD1_0
f 3/3/3 2/2/2 1/1/1
f 3/3/3 4/4/4 2/2/2
f 2/2/2 5/5/5 1/1/1
f 3/3/3 6/6/6 4/4/4
f 7/7/7 4/4/4 6/6/6
f 8/8/8 6/6/6 3/3/3
f 8/8/8 3/3/3 9/9/9
f 3/3/3 1/1/1 9/9/9
f 8/8/8 9/9/9 10/10/10
f 8/8/8 10/10/10 11/11/11
f 8/8/8 11/11/11 12/12/12
f 10/10/10 12/12/12 11/11/11
f 8/8/8 12/12/12 13/13/13
f 13/13/13 12/12/12 14/14/14
f 15/15/15 7/7/7 6/6/6
f 15/15/15 6/6/6 8/8/8
f 13/13/13 15/15/15 8/8/8
f 15/15/15 13/13/13 16/16/16
f 15/15/15 16/16/16 17/17/17
f 15/15/15 17/17/17 7/7/7
f 18/18/18 17/17/17 16/16/16
f 16/16/16 13/13/13 19/19/19
f 19/19/19 13/13/13 20/20/20
f 12/12/12 20/20/20 14/14/14
f 20/20/20 13/13/13 14/14/14
f 21/21/21 16/16/16 19/19/19
f 21/21/21 18/18/18 16/16/16
f 18/18/18 21/21/21 22/22/22
f 25/25/25 24/24/24 23/23/23
f 26/26/26 24/24/24 25/25/25
f 25/25/25 23/23/23 27/27/27
f 25/25/25 27/27/27 28/28/28
f 29/29/29 25/25/25 28/28/28
f 29/29/29 30/30/30 25/25/25
f 31/31/31 25/25/25 30/30/30
f 32/32/32 25/25/25 31/31/31
f 35/35/35 34/34/34 33/33/33
f 38/38/38 37/37/37 36/36/36
f 41/41/41 40/40/40 39/39/39
f 39/39/39 40/40/40 42/42/42
f 40/40/40 43/43/43 42/42/42
f 44/44/44 42/42/42 43/43/43
f 44/44/44 45/45/45 42/42/42
f 46/46/46 45/45/45 44/44/44
f 49/49/49 48/48/48 47/47/47
f 50/50/50 49/49/49 47/47/47
f 50/50/50 51/51/51 49/49/49
f 51/51/51 52/52/52 49/49/49
f 53/53/53 52/52/52 51/51/51
f 56/56/56 55/55/55 54/54/54
f 56/56/56 54/54/54 57/57/57
f 58/58/58 57/57/57 54/54/54
f 58/58/58 59/59/59 57/57/57
f 60/60/60 57/57/57 59/59/59
f 61/61/61 58/58/58 54/54/54
f 62/62/62 56/56/56 57/57/57
f 60/60/60 62/62/62 57/57/57
f 65/65/65 64/64/64 63/63/63
f 66/66/66 65/65/65 63/63/63
f 66/66/66 67/67/67 65/65/65
f 67/67/67 68/68/68 65/65/65
f 68/68/68 67/67/67 69/69/69
f 72/72/72 71/71/71 70/70/70
f 72/72/72 70/70/70 73/73/73
f 70/70/70 71/71/71 74/74/74
f 73/73/73 75/75/75 72/72/72
f 76/76/76 73/73/73 70/70/70
f 72/72/72 75/75/75 77/77/77
f 72/72/72 77/77/77 78/78/78
f 72/72/72 78/78/78 71/71/71
