g Body_LOD1
v 1.287189 1.311302E-06 0.2913131
v 0.9141414 0.9139979 0.2913131
v 0.9679309 0.9677715 0.2330564
v 1.368853 1.311302E-06 0.2330564
v 1.311302E-06 1.368641 0.2330564
v 1.311302E-06 1.298646 0.2913131
v -0.9679282 0.9677715 0.2330564
v -0.9141414 0.9139979 0.2913131
v -1.368853 1.311302E-06 0.2330564
v -1.287189 1.311302E-06 0.2913131
v -0.9679308 -0.9677716 0.2330564
v -0.9141414 -0.9139979 0.2913131
v -1.311302E-06 -1.368644 0.2330564
v -1.311302E-06 -1.298646 0.2913131
v 0.9679282 -0.9677716 0.2330564
v 0.9141414 -0.9139979 0.2913131
v 1.368853 1.311302E-06 0.2330564
v 0.9679309 0.9677715 0.2330564
v 0.9679282 0.9677715 -0.2330564
v 1.368853 1.311302E-06 -0.2330564
v -1.311302E-06 1.368641 -0.2330564
v 0.9679282 0.9677715 -0.2330564
v 0.9679309 0.9677715 0.2330564
v 1.311302E-06 1.368641 0.2330564
v -0.9679282 0.9677715 -0.2330564
v -1.311302E-06 1.368641 -0.2330564
v 1.311302E-06 1.368641 0.2330564
v -0.9679282 0.9677715 0.2330564
v -1.368853 1.311302E-06 -0.2330564
v -0.9679282 0.9677715 -0.2330564
v -0.9679282 0.9677715 0.2330564
v -1.368853 1.311302E-06 0.2330564
v -0.9679308 -0.9677716 -0.2330564
v -1.368853 1.311302E-06 -0.2330564
v -1.368853 1.311302E-06 0.2330564
v -0.9679308 -0.9677716 0.2330564
v -1.311302E-06 -1.368644 -0.2330564
v -0.9679308 -0.9677716 -0.2330564
v -0.9679308 -0.9677716 0.2330564
v -1.311302E-06 -1.368644 0.2330564
v 0.9679309 -0.9677716 -0.2330564
v -1.311302E-06 -1.368644 -0.2330564
v -1.311302E-06 -1.368644 0.2330564
v 0.9679282 -0.9677716 0.2330564
v 1.368853 1.311302E-06 -0.2330564
v 0.9679309 -0.9677716 -0.2330564
v 0.9679282 -0.9677716 0.2330564
v 1.368853 1.311302E-06 0.2330564
v -1.287189 1.311302E-06 -0.2913131
v -0.9141414 0.9139979 -0.2913131
v -0.9679282 0.9677715 -0.2330564
v -1.368853 1.311302E-06 -0.2330564
v -1.311302E-06 1.368641 -0.2330564
v -1.311302E-06 1.298646 -0.2913131
v 0.9679282 0.9677715 -0.2330564
v 0.9141414 0.9139979 -0.2913131
v 1.368853 1.311302E-06 -0.2330564
v 1.287189 1.311302E-06 -0.2913131
v 0.9679309 -0.9677716 -0.2330564
v 0.9141414 -0.9139979 -0.2913131
v -1.311302E-06 -1.368644 -0.2330564
v 1.311302E-06 -1.298646 -0.2913131
v -0.9679308 -0.9677716 -0.2330564
v -0.9141414 -0.9139979 -0.2913131
v 0.9141414 0.9139979 0.2913131
v 0.6447115 0.6493354 0.2913131
v 1.311302E-06 0.9206114 0.2913131
v 1.311302E-06 1.298646 0.2913131
v -0.6447089 0.6493354 0.2913131
v -0.9141414 0.9139979 0.2913131
v -0.9078076 0.004724383 0.2913131
v -1.287189 1.311302E-06 0.2913131
v -0.6447115 -0.639884 0.2913131
v -0.9141414 -0.9139979 0.2913131
v -1.311302E-06 -0.9111624 0.2913131
v -1.311302E-06 -1.298646 0.2913131
v 0.6447089 -0.639884 0.2913131
v 0.9141414 -0.9139979 0.2913131
v 0.9078075 0.004724383 0.2913131
v 1.287189 1.311302E-06 0.2913131
v -0.9141414 0.9139979 -0.2913131
v -0.6447115 0.6493354 -0.2913131
v -1.311302E-06 0.9206114 -0.2913131
v -1.311302E-06 1.298646 -0.2913131
v 0.6447089 0.6493354 -0.2913131
v 0.9141414 0.9139979 -0.2913131
v 0.9078075 0.004724383 -0.2913131
v 1.287189 1.311302E-06 -0.2913131
v 0.6447115 -0.639884 -0.2913131
v 0.9141414 -0.9139979 -0.2913131
v 1.311302E-06 -0.9111624 -0.2913131
v 1.311302E-06 -1.298646 -0.2913131
v -0.6447115 -0.639884 -0.2913131
v -0.9141414 -0.9139979 -0.2913131
v -0.9078076 0.004724383 -0.2913131
v -1.287189 1.311302E-06 -0.2913131
vt 0.9631084 0.5328792
vt 0.8391861 0.8379521
vt 0.8570483 0.8559047
vt 0.9902403 0.5328792
vt 0.5355126 0.9897136
vt 0.5355126 0.9663437
vt 0.2139769 0.8559047
vt 0.2318392 0.8379521
vt 0.08078498 0.5328792
vt 0.107917 0.5328792
vt 0.2139769 0.2098537
vt 0.2318392 0.2278063
vt 0.5355126 0.07605983
vt 0.5355126 0.09941469
vt 0.8570483 0.2098537
vt 0.8391861 0.2278063
vt 0.0685959 0.7422002
vt 0.0685959 0.6191959
vt 0.004054006 0.6191959
vt 0.004054006 0.7422002
vt 0.004054006 0.4961615
vt 0.004054006 0.6191959
vt 0.0685959 0.6191959
vt 0.0685959 0.4961615
vt 0.004054006 0.3731271
vt 0.004054006 0.4961615
vt 0.0685959 0.4961615
vt 0.0685959 0.3731271
vt 0.004054006 0.2501228
vt 0.004054006 0.3731271
vt 0.0685959 0.3731271
vt 0.0685959 0.2501228
vt 0.004054006 0.1271034
vt 0.004054006 0.2501228
vt 0.0685959 0.2501228
vt 0.0685959 0.1271034
vt 0.004054006 0.008342754
vt 0.004054006 0.1271034
vt 0.0685959 0.1271034
vt 0.0685959 0.008342754
vt 0.004054006 0.8652195
vt 0.004054006 0.9882389
vt 0.0685959 0.9882389
vt 0.0685959 0.8652195
vt 0.004054006 0.7422002
vt 0.004054006 0.8652195
vt 0.0685959 0.8652195
vt 0.0685959 0.7422002
vt 0.9631084 0.5328792
vt 0.8391861 0.8379521
vt 0.8570483 0.8559047
vt 0.9902403 0.5328792
vt 0.5355126 0.9897136
vt 0.5355126 0.9663437
vt 0.2139769 0.8559047
vt 0.2318392 0.8379521
vt 0.08078498 0.5328792
vt 0.107917 0.5328792
vt 0.2139769 0.2098537
vt 0.2318392 0.2278063
vt 0.5355126 0.07605983
vt 0.5355126 0.09941469
vt 0.8570483 0.2098537
vt 0.8391861 0.2278063
vt 0.8391861 0.8379521
vt 0.7475122 0.747437
vt 0.5355126 0.8370643
vt 0.5355126 0.9663437
vt 0.3235131 0.747437
vt 0.2318392 0.8379521
vt 0.2370007 0.5344593
vt 0.107917 0.5328792
vt 0.3235131 0.3214816
vt 0.2318392 0.2278063
vt 0.5355126 0.2318693
vt 0.5355126 0.09941469
vt 0.7475122 0.3214816
vt 0.8391861 0.2278063
vt 0.8340245 0.5344593
vt 0.9631084 0.5328792
vt 0.8391861 0.8379521
vt 0.7475122 0.747437
vt 0.5355126 0.8370643
vt 0.5355126 0.9663437
vt 0.3235131 0.747437
vt 0.2318392 0.8379521
vt 0.2370007 0.5344593
vt 0.107917 0.5328792
vt 0.3235131 0.3214816
vt 0.2318392 0.2278063
vt 0.5355126 0.2318693
vt 0.5355126 0.09941469
vt 0.7475122 0.3214816
vt 0.8391861 0.2278063
vt 0.8340245 0.5344593
vt 0.9631084 0.5328792
vn 0.583087 0.2235624 0.7810438
vn 0.573962 0.2509373 0.7794858
vn 0.5684869 0.2582373 0.7811121
vn 0.583087 0.2162624 0.7830966
vn 0.2308623 0.6141121 0.7546979
vn 0.2381622 0.612287 0.753912
vn -0.2728373 0.592212 0.7581851
vn -0.2673623 0.5976871 0.7558357
vn -0.583087 0.2162624 0.7830964
vn -0.583087 0.2235624 0.7810438
vn -0.5684871 -0.2582372 0.781112
vn -0.573962 -0.2509372 0.7794858
vn -0.2308623 -0.6141119 0.754698
vn -0.2381623 -0.6122869 0.753912
vn 0.2728372 -0.592212 0.7581852
vn 0.2673622 -0.5976869 0.7558359
vn 0.9334866 0.3586122 0
vn 0.9130955 0.407746 0
vn 0.9130955 0.407746 0
vn 0.9334866 0.3586122 0
vn 0.3586121 0.9334866 0
vn 0.4077458 0.9130955 0
vn 0.4077458 0.9130955 0
vn 0.3586121 0.9334866 0
vn -0.4077459 0.9130955 0
vn -0.3586122 0.9334866 0
vn -0.3586122 0.9334866 0
vn -0.4077459 0.9130955 0
vn -0.9334866 0.3586122 0
vn -0.9130955 0.4077459 0
vn -0.9130955 0.4077459 0
vn -0.9334866 0.3586122 0
vn -0.9130955 -0.4077458 0
vn -0.9334866 -0.3586121 0
vn -0.9334866 -0.3586121 0
vn -0.9130955 -0.4077458 0
vn -0.3586122 -0.9334866 0
vn -0.407746 -0.9130955 0
vn -0.407746 -0.9130955 0
vn -0.3586122 -0.9334866 0
vn 0.4077459 -0.9130955 0
vn 0.3586121 -0.9334866 -0.0002441406
vn 0.3586121 -0.9334866 -0.0002441406
vn 0.4077459 -0.9130955 0
vn 0.9334866 -0.3586121 -0.0001726335
vn 0.9130955 -0.4077459 0
vn 0.9130955 -0.4077459 0
vn 0.9334866 -0.3586121 -0.0001726335
vn -0.583087 0.2235624 -0.7810438
vn -0.573962 0.2509373 -0.7794858
vn -0.5684871 0.2582373 -0.781112
vn -0.583087 0.2162624 -0.7830964
vn -0.2308623 0.6141121 -0.7546979
vn -0.2381623 0.612287 -0.753912
vn 0.2728372 0.592212 -0.7581852
vn 0.2673622 0.5976871 -0.7558357
vn 0.583087 0.2162624 -0.7830966
vn 0.583087 0.2235624 -0.7810438
vn 0.5684869 -0.2582372 -0.7811121
vn 0.573962 -0.2509372 -0.7794858
vn 0.2308623 -0.6141119 -0.754698
vn 0.2381622 -0.6122869 -0.7539121
vn -0.2728373 -0.592212 -0.7581851
vn -0.2673623 -0.5976869 -0.7558358
vn -0.0009125471 0.0009125471 0.9999992
vn -0.0009125471 0.0009125471 0.9999992
vn -0.0009125471 0.0009125471 0.9999992
vn -0.0009125471 0.0009125471 0.9999992
vn -0.0009125471 0.0009125471 0.9999992
vn -0.0009125471 0.0009125471 0.9999992
vn -0.0009125471 0.0009125471 0.9999992
vn -0.0009125471 0.0009125471 0.9999992
vn -0.0009125471 0.0009125471 0.9999992
vn -0.0009125471 0.0009125471 0.9999992
vn -0.0009125471 0.0009125471 0.9999992
vn -0.0009125471 0.0009125471 0.9999992
vn -0.0009125471 0.0009125471 0.9999992
vn -0.0009125471 0.0009125471 0.9999992
vn -0.0009125471 0.0009125471 0.9999992
vn -0.0009125471 0.0009125471 0.9999992
vn -0.0009125471 0.0009125471 -0.9999992
vn -0.0009125471 0.0009125471 -0.9999992
vn -0.0009125471 0.0009125471 -0.9999992
vn -0.0009125471 0.0009125471 -0.9999992
vn -0.0009125471 0.0009125471 -0.9999992
vn -0.0009125471 0.0009125471 -0.9999992
vn -0.0009125471 0.0009125471 -0.9999992
vn -0.0009125471 0.0009125471 -0.9999992
vn -0.0009125471 0.0009125471 -0.9999992
vn -0.0009125471 0.0009125471 -0.9999992
vn -0.0009125471 0.0009125471 -0.9999992
vn -0.0009125471 0.0009125471 -0.9999992
vn -0.0009125471 0.0009125471 -0.9999992
vn -0.0009125471 0.0009125471 -0.9999992
vn -0.0009125471 0.0009125471 -0.9999992
vn -0.0009125471 0.0009125471 -0.9999992
g Body_LOD1_0
f 3/3/3 2/2/2 1/1/1
f 4/4/4 3/3/3 1/1/1
f 3/3/3 5/5/5 2/2/2
f 5/5/5 6/6/6 2/2/2
f 5/5/5 7/7/7 6/6/6
f 7/7/7 8/8/8 6/6/6
f 7/7/7 9/9/9 8/8/8
f 9/9/9 10/10/10 8/8/8
f 9/9/9 11/11/11 10/10/10
f 11/11/11 12/12/12 10/10/10
f 11/11/11 13/13/13 12/12/12
f 13/13/13 14/14/14 12/12/12
f 13/13/13 15/15/15 14/14/14
f 15/15/15 16/16/16 14/14/14
f 4/4/4 1/1/1 16/16/16
f 15/15/15 4/4/4 16/16/16
f 19/19/19 18/18/18 17/17/17
f 20/20/20 19/19/19 17/17/17
f 23/23/23 22/22/22 21/21/21
f 24/24/24 23/23/23 21/21/21
f 27/27/27 26/26/26 25/25/25
f 28/28/28 27/27/27 25/25/25
f 31/31/31 30/30/30 29/29/29
f 32/32/32 31/31/31 29/29/29
f 35/35/35 34/34/34 33/33/33
f 36/36/36 35/35/35 33/33/33
f 39/39/39 38/38/38 37/37/37
f 40/40/40 39/39/39 37/37/37
f 43/43/43 42/42/42 41/41/41
f 44/44/44 43/43/43 41/41/41
f 47/47/47 46/46/46 45/45/45
f 48/48/48 47/47/47 45/45/45
f 51/51/51 50/50/50 49/49/49
f 52/52/52 51/51/51 49/49/49
f 51/51/51 53/53/53 50/50/50
f 53/53/53 54/54/54 50/50/50
f 53/53/53 55/55/55 54/54/54
f 55/55/55 56/56/56 54/54/54
f 55/55/55 57/57/57 56/56/56
f 57/57/57 58/58/58 56/56/56
f 57/57/57 59/59/59 58/58/58
f 59/59/59 60/60/60 58/58/58
f 59/59/59 61/61/61 60/60/60
f 61/61/61 62/62/62 60/60/60
f 61/61/61 63/63/63 62/62/62
f 63/63/63 64/64/64 62/62/62
f 52/52/52 49/49/49 64/64/64
f 63/63/63 52/52/52 64/64/64
f 67/67/67 66/66/66 65/65/65
f 68/68/68 67/67/67 65/65/65
f 69/69/69 67/67/67 68/68/68
f 70/70/70 69/69/69 68/68/68
f 71/71/71 69/69/69 70/70/70
f 72/72/72 71/71/71 70/70/70
f 73/73/73 71/71/71 72/72/72
f 74/74/74 73/73/73 72/72/72
f 75/75/75 73/73/73 74/74/74
f 76/76/76 75/75/75 74/74/74
f 77/77/77 75/75/75 76/76/76
f 78/78/78 77/77/77 76/76/76
f 79/79/79 77/77/77 78/78/78
f 80/80/80 79/79/79 78/78/78
f 66/66/66 79/79/79 80/80/80
f 65/65/65 66/66/66 80/80/80
f 83/83/83 82/82/82 81/81/81
f 84/84/84 83/83/83 81/81/81
f 85/85/85 83/83/83 84/84/84
f 86/86/86 85/85/85 84/84/84
f 87/87/87 85/85/85 86/86/86
f 88/88/88 87/87/87 86/86/86
f 89/89/89 87/87/87 88/88/88
f 90/90/90 89/89/89 88/88/88
f 91/91/91 89/89/89 90/90/90
f 92/92/92 91/91/91 90/90/90
f 93/93/93 91/91/91 92/92/92
f 94/94/94 93/93/93 92/92/92
f 95/95/95 93/93/93 94/94/94
f 96/96/96 95/95/95 94/94/94
f 82/82/82 95/95/95 96/96/96
f 81/81/81 82/82/82 96/96/96
