g Body_LOD1
v 0.06621465 0.09156021 0.07952106
v 0.1087855 0.03544948 0.07952106
v 2.384186E-07 0.000102818 0.09305421
v 0.1736127 0.05651295 0.06295055
v 2.384186E-07 0.1144872 0.07952106
v -0.06621477 0.09156021 0.07952106
v -0.1087857 0.03544948 0.07952106
v -0.1736128 0.05651295 0.06295055
v 0.1074422 -0.03460905 0.07952106
v 0.067233 -0.09243576 0.07952106
v 2.384186E-07 -0.1128071 0.07952106
v -0.06723312 -0.09243576 0.07952106
v -0.1074423 -0.03460905 0.07952106
v 0.2526272 0.08218649 0.03325605
v 0.2428303 0.1123377 0.01958755
v 0.08641161 0.1204095 0.06069127
v 0.09824952 0.136555 0.03593609
v 0.03170279 0.2657312 0.01958755
v 2.384186E-07 0.2657312 0.03325605
v 0.1030626 0.1434396 -2.384186E-07
v 0.303523 0.1085448 -2.384186E-07
v 0.04604268 0.135294 0.07213405
v 2.384186E-07 0.3277204 -2.384186E-07
v -0.03170291 0.2657312 0.01958755
v -0.08641174 0.1204095 0.06069127
v -0.09824964 0.136555 0.03593609
v -0.2428304 0.1123377 0.01958755
v -0.1030627 0.1434396 -2.384186E-07
v -0.3035232 0.1085448 -2.384186E-07
v -0.2526273 0.08218649 0.03325605
v -0.0460428 0.135294 0.07213405
v -0.3116938 0.1012614 -2.384186E-07
v -0.3093643 0.09056687 -2.384186E-07
v -0.1977685 0.01415184 0.04764473
v -0.1428024 -0.00191012 0.07213405
v -0.1601345 -0.05117226 0.03593609
v -0.1679393 -0.05345473 -2.384186E-07
v -0.009451538 0.3221999 -2.384186E-07
v -0.1683521 -0.1037907 0.03180841
v -0.1970392 -0.2551347 -2.384186E-07
v -0.1561325 -0.2147944 0.03325605
v -0.1926371 -0.265156 -2.384186E-07
v -0.1475148 -0.0460878 0.06069127
v -0.1072984 -0.1475806 0.06295055
v 2.384186E-07 -0.1480184 0.06069127
v -0.1817462 -0.2662458 -2.384186E-07
v 2.384186E-07 -0.1680385 0.03593609
v 0.1817461 -0.2662458 -2.384186E-07
v 0.1561323 -0.2147944 0.03325605
v 2.384186E-07 -0.1759994 -2.384186E-07
v 0.1072983 -0.1475806 0.06295055
v 0.1475147 -0.0460878 0.06069127
v 0.168352 -0.1037907 0.03180841
v 0.1970391 -0.2551347 -2.384186E-07
v 0.1679391 -0.05345473 -2.384186E-07
v 0.192637 -0.265156 -2.384186E-07
v 0.1428022 -0.00191012 0.07213405
v 0.1601344 -0.05117226 0.03593609
v 0.3093642 0.09056687 -2.384186E-07
v 0.1977684 0.01415184 0.04764473
v 0.3116936 0.1012614 -2.384186E-07
v 2.384186E-07 0.000102818 -0.09305409
v 0.06621465 0.09156021 -0.07952094
v 2.384186E-07 0.1144872 -0.07952094
v -0.06621477 0.09156021 -0.07952094
v 0.1087855 0.03544948 -0.07952094
v 0.1736127 0.05651295 -0.06295042
v -0.1087857 0.03544948 -0.07952094
v -0.1736128 0.05651295 -0.06295042
v 0.1074422 -0.03460905 -0.07952094
v 0.067233 -0.09243576 -0.07952094
v 2.384186E-07 -0.1128071 -0.07952094
v -0.06723312 -0.09243576 -0.07952094
v -0.1074423 -0.03460905 -0.07952094
v 0.2526272 0.08218649 -0.03325593
v 0.2428303 0.1123377 -0.01958743
v 0.3116936 0.1012614 -2.384186E-07
v 0.3093642 0.09056687 -2.384186E-07
v 0.1977684 0.01415184 -0.04764462
v 0.1428022 -0.00191012 -0.07213391
v 0.1601344 -0.05117226 -0.03593597
v 0.1679391 -0.05345473 -2.384186E-07
v 0.303523 0.1085448 -2.384186E-07
v 0.09824952 0.136555 -0.03593597
v 0.1030626 0.1434396 -2.384186E-07
v 0.03170279 0.2657312 -0.01958743
v 0.009452045 0.3221999 -2.384186E-07
v 0.08641161 0.1204095 -0.06069115
v 2.384186E-07 0.3221554 -0.007386059
v 2.384186E-07 0.1826505 -0.06295042
v -0.08641174 0.1204095 -0.06069115
v 2.384186E-07 0.3277204 -2.384186E-07
v -0.009451538 0.3221999 -2.384186E-07
v -0.03170291 0.2657312 -0.01958743
v -0.1030627 0.1434396 -2.384186E-07
v -0.09824964 0.136555 -0.03593597
v -0.3035232 0.1085448 -2.384186E-07
v -0.2428304 0.1123377 -0.01958743
v -0.2526273 0.08218649 -0.03325593
v -0.3116938 0.1012614 -2.384186E-07
v -0.3093643 0.09056687 -2.384186E-07
v -0.1977685 0.01415184 -0.04764462
v -0.1428024 -0.00191012 -0.07213391
v -0.1601345 -0.05117226 -0.03593597
v -0.1679393 -0.05345473 -2.384186E-07
v -0.1475148 -0.0460878 -0.06069115
v -0.1893662 -0.2606539 -0.007386059
v -0.1072984 -0.1475806 -0.06295042
v -0.1817804 -0.1961604 -0.01958743
v 2.384186E-07 -0.1480184 -0.06069115
v 0.1893661 -0.2606539 -0.007386059
v 0.1072983 -0.1475806 -0.06295042
v 0.1475147 -0.0460878 -0.06069115
v 0.1817802 -0.1961604 -0.01958743
v -0.1683521 -0.1037907 -0.03180829
v -0.1970392 -0.2551347 -2.384186E-07
v 0.168352 -0.1037907 -0.03180829
v -0.1926371 -0.265156 -2.384186E-07
v -0.1817462 -0.2662458 -2.384186E-07
v 0.1970391 -0.2551347 -2.384186E-07
v 0.192637 -0.265156 -2.384186E-07
v 0.1817461 -0.2662458 -2.384186E-07
v 0.1304844 -0.2334291 -0.01958743
v 2.384186E-07 -0.1680385 -0.03593597
v -0.1304839 -0.2334291 -0.01958743
v 2.384186E-07 -0.1759994 -2.384186E-07
v 2.384186E-07 0.1826505 0.06295055
v 0.009452045 0.3221999 -2.384186E-07
vt 0.3005749 0.6019913
vt 0.3334586 0.5108185
vt 0.2494209 0.4533952
vt 0.383523 0.5450456
vt 0.2494209 0.6392336
vt 0.1982817 0.6019913
vt 0.165398 0.5108185
vt 0.1153187 0.5450456
vt 0.3324137 0.3969869
vt 0.301366 0.3030378
vt 0.2494209 0.2699302
vt 0.1974906 0.3030378
vt 0.1664429 0.3969869
vt 0.4445586 0.586751
vt 0.4369907 0.6357406
vt 0.3161734 0.6488613
vt 0.3253235 0.6750877
vt 0.2739157 0.884973
vt 0.2494209 0.884973
vt 0.3290403 0.6862828
vt 0.4838757 0.629576
vt 0.2849914 0.6730427
vt 0.2494209 0.9856989
vt 0.2249409 0.884973
vt 0.1826832 0.6488613
vt 0.1735331 0.6750877
vt 0.06186593 0.6357406
vt 0.1698164 0.6862828
vt 0.01498093 0.629576
vt 0.05429805 0.586751
vt 0.2138653 0.6730427
vt 0.008666903 0.617754
vt 0.01047304 0.6003642
vt 0.1023921 0.4613661
vt 0.1391269 0.4501113
vt 0.1257376 0.370074
vt 0.1197072 0.3663721
vt 0.2421217 0.976728
vt 0.1193937 0.2845883
vt 0.09722745 0.03868464
vt 0.1288274 0.1042281
vt 0.1006308 0.02239954
vt 0.1404255 0.380269
vt 0.1665474 0.2134324
vt 0.2494209 0.2127159
vt 0.1090345 0.02062325
vt 0.2494209 0.1801905
vt 0.3898072 0.02062325
vt 0.3700292 0.1042281
vt 0.2494209 0.1672639
vt 0.3323092 0.2134324
vt 0.3584311 0.380269
vt 0.3794629 0.2845883
vt 0.4016291 0.03868464
vt 0.3791494 0.3663721
vt 0.3982258 0.02239954
vt 0.3597297 0.4501113
vt 0.373119 0.370074
vt 0.4883836 0.6003642
vt 0.3964496 0.4613661
vt 0.4901897 0.617754
vt 0.7461392 0.4533952
vt 0.7972783 0.6019913
vt 0.7461392 0.6392336
vt 0.694985 0.6019913
vt 0.8301619 0.5108185
vt 0.8802413 0.5450456
vt 0.6621014 0.5108185
vt 0.6120369 0.5450456
vt 0.8291171 0.3969869
vt 0.7980694 0.3030378
vt 0.7461392 0.2699302
vt 0.694194 0.3030378
vt 0.6631463 0.3969869
vt 0.9412619 0.586751
vt 0.9337089 0.6357406
vt 0.9868931 0.617754
vt 0.9850869 0.6003642
vt 0.8931679 0.4613661
vt 0.856433 0.4501113
vt 0.8698224 0.370074
vt 0.8758528 0.3663721
vt 0.980579 0.629576
vt 0.8220268 0.6750877
vt 0.8257436 0.6862828
vt 0.770619 0.884973
vt 0.7534384 0.976728
vt 0.8128767 0.6488613
vt 0.7461392 0.9766533
vt 0.7461392 0.7499902
vt 0.6793866 0.6488613
vt 0.7461392 0.9856989
vt 0.738825 0.976728
vt 0.7216443 0.884973
vt 0.6665196 0.6862828
vt 0.6702365 0.6750877
vt 0.5116843 0.629576
vt 0.5585693 0.6357406
vt 0.5510014 0.586751
vt 0.5053703 0.617754
vt 0.5071764 0.6003642
vt 0.5991104 0.4613661
vt 0.6358303 0.4501113
vt 0.6224409 0.370074
vt 0.6164105 0.3663721
vt 0.6371288 0.380269
vt 0.5998567 0.02971365
vt 0.6632507 0.2134324
vt 0.6057229 0.1344996
vt 0.7461392 0.2127159
vt 0.8924066 0.02971365
vt 0.8290125 0.2134324
vt 0.8551344 0.380269
vt 0.8865403 0.1344996
vt 0.6160971 0.2845883
vt 0.5939308 0.03868464
vt 0.8761662 0.2845883
vt 0.5973341 0.02239954
vt 0.6057528 0.02062325
vt 0.8983325 0.03868464
vt 0.8949292 0.02239954
vt 0.8865254 0.02062325
vt 0.8469247 0.07394169
vt 0.7461392 0.1801905
vt 0.6453387 0.07394169
vt 0.7461392 0.1672639
vt 0.2494209 0.7499902
vt 0.256735 0.976728
vn 0.135991 0.1863425 0.9730277
vn 0.1588786 0.06427538 0.9852037
vn -0.003241777 0.003241777 0.9999895
vn 0.2809457 0.1634549 0.9457018
vn -0.003241777 0.1558257 0.9877793
vn -0.1329381 0.1863425 0.9734495
vn -0.1558257 0.06427538 0.9856911
vn -0.285522 0.1634549 0.9443303
vn 0.212283 -0.07495743 0.9743292
vn 0.1054742 -0.1436202 0.9839962
vn -0.003241777 -0.2656873 0.9640538
vn -0.1024213 -0.1436202 0.9843186
vn -0.2092301 -0.07495743 0.9749893
vn 0.3877544 0.1481965 0.9097716
vn 0.2427997 0.6135774 0.7513795
vn 0.3572376 0.4686227 0.8079443
vn 0.4945632 0.745181 0.4473394
vn 0.6471471 0.4457351 0.6184828
vn -0.003241777 0.4152182 0.9097161
vn 0.5098215 0.8596189 -0.033725
vn 0.3111932 0.9503468 0
vn 0.2504289 0.323668 0.9124278
vn -0.003241777 0.5296562 0.8482062
vn -0.6460015 0.4457351 0.6196792
vn -0.3541847 0.4686227 0.8092873
vn -0.4915103 0.745181 0.4506917
vn -0.2397468 0.6135774 0.7523592
vn -0.5067686 0.8596189 -0.06512288
vn -0.3084096 0.9511691 -0.01268122
vn -0.3923308 0.1481965 0.9078075
vn -0.2550052 0.323668 0.9111594
vn -0.829102 0.5525438 -0.08535343
vn -0.8443605 -0.5327091 -0.05723965
vn -0.5525438 -0.3572376 0.7530449
vn -0.3312972 -0.08258665 0.9399051
vn -0.8138437 -0.4564171 0.3596412
vn -0.8819354 -0.4713703 0
vn -0.8214729 0.5678022 0.05275415
vn -0.8977648 0.04901695 0.4377393
vn -0.8977648 -0.02918226 0.4395074
vn -0.2244884 -0.3648669 0.9035913
vn -0.3541847 -0.4869339 0.7984037
vn -0.4991394 -0.174137 0.848844
vn -0.1863425 -0.2580581 0.9479886
vn -0.003241777 -0.5784843 0.8156871
vn 0.2427997 -0.8474134 0.4721641
vn -0.003241777 -0.8855593 0.464515
vn -0.2397468 -0.8474134 0.4737215
vn 0.2275413 -0.3648669 0.9028273
vn -0.003241769 -0.9999948 0
vn 0.1893954 -0.2580581 0.9473835
vn 0.5021923 -0.174137 0.8470414
vn 0.8931885 0.04901695 0.4470029
vn 0.9008178 -0.02918226 0.4332156
vn 0.8817447 -0.4697682 -0.04294186
vn 0.3496084 -0.4869339 0.8004182
vn 0.33435 -0.08258665 0.9388235
vn 0.8168966 -0.4564171 0.3526519
vn 0.8455061 -0.5327091 -0.03661255
vn 0.5555967 -0.3572376 0.7507953
vn 0.832155 0.5525438 -0.0470473
vn -0.003241777 0.003241777 -0.9999895
vn 0.1665078 0.2244884 -0.9601459
vn -0.003241777 0.1787133 -0.9838958
vn -0.1634549 0.2244884 -0.9606704
vn 0.1588786 0.06427538 -0.9852037
vn 0.2809457 0.1634549 -0.9457018
vn -0.1558257 0.06427538 -0.9856911
vn -0.285522 0.1634549 -0.9443303
vn 0.2275413 -0.08258665 -0.97026
vn 0.1054742 -0.1436202 -0.9839962
vn -0.003241777 -0.2885749 -0.9574519
vn -0.1024213 -0.1436202 -0.9843186
vn -0.2321177 -0.08258665 -0.9691753
vn 0.3877544 0.1481965 -0.9097716
vn 0.2427997 0.6135774 -0.7513795
vn 0.832155 0.5525438 -0.0470473
vn 0.8455061 -0.5327091 -0.03661255
vn 0.5555967 -0.3572376 -0.7507953
vn 0.33435 -0.08258665 -0.9388235
vn 0.8168966 -0.4564171 -0.3526519
vn 0.8817447 -0.4697682 -0.04294186
vn 0.3111932 0.9503468 0
vn 0.4945632 0.745181 -0.4473394
vn 0.5098215 0.8596189 -0.033725
vn 0.7329755 0.4457351 -0.5138747
vn 0.8226185 0.5678022 -0.02999156
vn 0.3267208 0.4457351 -0.8334109
vn -0.003241777 0.4152182 -0.9097161
vn -0.003241777 0.3541847 -0.9351699
vn -0.323668 0.4457351 -0.8346012
vn -0.003241777 0.5296562 0.8482062
vn -0.8214729 0.5678022 0.05275415
vn -0.7299225 0.4457351 -0.518202
vn -0.5067686 0.8596189 -0.06512288
vn -0.4915103 0.745181 -0.4506917
vn -0.3084096 0.9511691 -0.01268122
vn -0.2397468 0.6135774 -0.7523592
vn -0.3923308 0.1481965 -0.9078075
vn -0.829102 0.5525438 -0.08535343
vn -0.8443605 -0.5327091 -0.05723965
vn -0.5525438 -0.3572376 -0.7530449
vn -0.3312972 -0.08258665 -0.9399051
vn -0.8138437 -0.4564171 -0.3596412
vn -0.8819354 -0.4713703 0
vn -0.4686227 -0.1817662 -0.8644963
vn -0.2397468 -0.33435 -0.9114447
vn -0.2092301 -0.2885749 -0.9343165
vn -0.7528101 -0.01201659 -0.6581281
vn -0.003241777 -0.5403383 -0.8414416
vn 0.2427997 -0.33435 -0.9106362
vn 0.212283 -0.2885749 -0.9336276
vn 0.4716756 -0.1817662 -0.8628344
vn 0.7558631 -0.01201659 -0.6546195
vn -0.9511691 0.1176797 -0.2853573
vn -0.8977648 -0.02918226 0.4395074
vn 0.9465929 0.1176797 -0.3001888
vn -0.3541847 -0.4869339 0.7984037
vn 0.2427997 -0.8474134 0.4721641
vn 0.9008178 -0.02918226 0.4332156
vn 0.3496084 -0.4869339 0.8004182
vn -0.2397468 -0.8474134 0.4737215
vn -0.2321177 -0.7100879 -0.664753
vn -0.003241777 -0.9008178 -0.4341854
vn 0.2275413 -0.7100879 -0.6663333
vn -0.003241769 -0.9999948 0
vn -0.003241777 0.3160387 0.9487408
vn 0.8226185 0.5678022 -0.02999156
g Body_LOD1_0
f 3/3/3 2/2/2 1/1/1
f 1/1/1 2/2/2 4/4/4
f 1/1/1 5/5/5 3/3/3
f 5/5/5 6/6/6 3/3/3
f 7/7/7 3/3/3 6/6/6
f 7/7/7 6/6/6 8/8/8
f 9/9/9 2/2/2 3/3/3
f 3/3/3 10/10/10 9/9/9
f 11/11/11 10/10/10 3/3/3
f 12/12/12 11/11/11 3/3/3
f 12/12/12 3/3/3 13/13/13
f 7/7/7 13/13/13 3/3/3
f 1/1/1 4/4/4 14/14/14
f 14/14/14 15/15/15 1/1/1
f 15/15/15 16/16/16 1/1/1
f 17/17/17 16/16/16 15/15/15
f 17/17/17 18/18/18 16/16/16
f 16/16/16 18/18/18 19/19/19
f 20/20/20 18/18/18 17/17/17
f 17/17/17 21/21/21 20/20/20
f 15/15/15 21/21/21 17/17/17
f 22/22/22 16/16/16 19/19/19
f 23/23/23 19/19/19 18/18/18
f 19/19/19 23/23/23 24/24/24
f 24/24/24 25/25/25 19/19/19
f 24/24/24 26/26/26 25/25/25
f 25/25/25 26/26/26 27/27/27
f 24/24/24 28/28/28 26/26/26
f 29/29/29 26/26/26 28/28/28
f 29/29/29 27/27/27 26/26/26
f 25/25/25 27/27/27 6/6/6
f 27/27/27 30/30/30 6/6/6
f 25/25/25 31/31/31 19/19/19
f 25/25/25 6/6/6 31/31/31
f 32/32/32 30/30/30 27/27/27
f 29/29/29 32/32/32 27/27/27
f 30/30/30 32/32/32 33/33/33
f 33/33/33 34/34/34 30/30/30
f 34/34/34 35/35/35 30/30/30
f 36/36/36 34/34/34 33/33/33
f 36/36/36 33/33/33 37/37/37
f 24/24/24 23/23/23 38/38/38
f 24/24/24 38/38/38 28/28/28
f 8/8/8 30/30/30 35/35/35
f 8/8/8 6/6/6 30/30/30
f 37/37/37 39/39/39 36/36/36
f 40/40/40 39/39/39 37/37/37
f 41/41/41 39/39/39 40/40/40
f 42/42/42 41/41/41 40/40/40
f 43/43/43 39/39/39 41/41/41
f 36/36/36 39/39/39 43/43/43
f 34/34/34 43/43/43 35/35/35
f 36/36/36 43/43/43 34/34/34
f 43/43/43 41/41/41 13/13/13
f 43/43/43 13/13/13 35/35/35
f 44/44/44 13/13/13 41/41/41
f 44/44/44 41/41/41 11/11/11
f 45/45/45 11/11/11 41/41/41
f 46/46/46 45/45/45 41/41/41
f 41/41/41 42/42/42 46/46/46
f 47/47/47 45/45/45 46/46/46
f 45/45/45 47/47/47 48/48/48
f 45/45/45 48/48/48 49/49/49
f 11/11/11 45/45/45 49/49/49
f 47/47/47 46/46/46 50/50/50
f 48/48/48 47/47/47 50/50/50
f 49/49/49 51/51/51 11/11/11
f 9/9/9 51/51/51 49/49/49
f 49/49/49 52/52/52 9/9/9
f 53/53/53 52/52/52 49/49/49
f 53/53/53 49/49/49 54/54/54
f 53/53/53 54/54/54 55/55/55
f 49/49/49 56/56/56 54/54/54
f 56/56/56 49/49/49 48/48/48
f 9/9/9 52/52/52 57/57/57
f 51/51/51 10/10/10 11/11/11
f 9/9/9 10/10/10 51/51/51
f 53/53/53 58/58/58 52/52/52
f 53/53/53 55/55/55 58/58/58
f 59/59/59 58/58/58 55/55/55
f 60/60/60 58/58/58 59/59/59
f 58/58/58 60/60/60 52/52/52
f 57/57/57 52/52/52 60/60/60
f 60/60/60 59/59/59 14/14/14
f 57/57/57 60/60/60 14/14/14
f 61/61/61 14/14/14 59/59/59
f 14/14/14 61/61/61 15/15/15
f 14/14/14 4/4/4 57/57/57
f 15/15/15 61/61/61 21/21/21
f 4/4/4 2/2/2 57/57/57
f 57/57/57 2/2/2 9/9/9
f 64/64/64 63/63/63 62/62/62
f 65/65/65 64/64/64 62/62/62
f 66/66/66 62/62/62 63/63/63
f 66/66/66 63/63/63 67/67/67
f 62/62/62 68/68/68 65/65/65
f 65/65/65 68/68/68 69/69/69
f 66/66/66 70/70/70 62/62/62
f 71/71/71 62/62/62 70/70/70
f 71/71/71 72/72/72 62/62/62
f 72/72/72 73/73/73 62/62/62
f 62/62/62 73/73/73 74/74/74
f 74/74/74 68/68/68 62/62/62
f 67/67/67 63/63/63 75/75/75
f 76/76/76 75/75/75 63/63/63
f 77/77/77 75/75/75 76/76/76
f 75/75/75 77/77/77 78/78/78
f 78/78/78 79/79/79 75/75/75
f 79/79/79 80/80/80 75/75/75
f 67/67/67 75/75/75 80/80/80
f 66/66/66 80/80/80 70/70/70
f 66/66/66 67/67/67 80/80/80
f 81/81/81 79/79/79 78/78/78
f 81/81/81 78/78/78 82/82/82
f 83/83/83 77/77/77 76/76/76
f 83/83/83 76/76/76 84/84/84
f 83/83/83 84/84/84 85/85/85
f 86/86/86 85/85/85 84/84/84
f 86/86/86 87/87/87 85/85/85
f 86/86/86 84/84/84 88/88/88
f 88/88/88 84/84/84 76/76/76
f 86/86/86 88/88/88 89/89/89
f 86/86/86 89/89/89 87/87/87
f 88/88/88 63/63/63 89/89/89
f 88/88/88 76/76/76 63/63/63
f 90/90/90 89/89/89 63/63/63
f 89/89/89 90/90/90 65/65/65
f 65/65/65 91/91/91 89/89/89
f 87/87/87 89/89/89 92/92/92
f 89/89/89 93/93/93 92/92/92
f 93/93/93 89/89/89 94/94/94
f 91/91/91 94/94/94 89/89/89
f 93/93/93 94/94/94 95/95/95
f 95/95/95 94/94/94 96/96/96
f 96/96/96 94/94/94 91/91/91
f 96/96/96 97/97/97 95/95/95
f 98/98/98 97/97/97 96/96/96
f 98/98/98 91/91/91 65/65/65
f 96/96/96 91/91/91 98/98/98
f 99/99/99 98/98/98 65/65/65
f 99/99/99 100/100/100 98/98/98
f 98/98/98 100/100/100 97/97/97
f 100/100/100 99/99/99 101/101/101
f 102/102/102 101/101/101 99/99/99
f 103/103/103 102/102/102 99/99/99
f 102/102/102 104/104/104 101/101/101
f 101/101/101 104/104/104 105/105/105
f 102/102/102 106/106/106 104/104/104
f 103/103/103 106/106/106 102/102/102
f 74/74/74 106/106/106 103/103/103
f 107/107/107 106/106/106 74/74/74
f 74/74/74 108/108/108 107/107/107
f 107/107/107 108/108/108 72/72/72
f 109/109/109 106/106/106 107/107/107
f 72/72/72 110/110/110 107/107/107
f 110/110/110 72/72/72 111/111/111
f 112/112/112 111/111/111 72/72/72
f 112/112/112 70/70/70 111/111/111
f 113/113/113 111/111/111 70/70/70
f 113/113/113 114/114/114 111/111/111
f 115/115/115 106/106/106 109/109/109
f 115/115/115 104/104/104 106/106/106
f 115/115/115 105/105/105 104/104/104
f 115/115/115 116/116/116 105/105/105
f 109/109/109 107/107/107 116/116/116
f 109/109/109 116/116/116 115/115/115
f 113/113/113 117/117/117 114/114/114
f 116/116/116 107/107/107 118/118/118
f 113/113/113 70/70/70 80/80/80
f 107/107/107 119/119/119 118/118/118
f 79/79/79 113/113/113 80/80/80
f 113/113/113 79/79/79 81/81/81
f 81/81/81 117/117/117 113/113/113
f 71/71/71 112/112/112 72/72/72
f 71/71/71 70/70/70 112/112/112
f 82/82/82 117/117/117 81/81/81
f 120/120/120 117/117/117 82/82/82
f 120/120/120 111/111/111 114/114/114
f 120/120/120 114/114/114 117/117/117
f 111/111/111 120/120/120 121/121/121
f 122/122/122 111/111/111 121/121/121
f 123/123/123 111/111/111 122/122/122
f 123/123/123 122/122/122 124/124/124
f 124/124/124 110/110/110 123/123/123
f 123/123/123 110/110/110 111/111/111
f 110/110/110 124/124/124 125/125/125
f 119/119/119 125/125/125 124/124/124
f 124/124/124 122/122/122 126/126/126
f 119/119/119 124/124/124 126/126/126
f 119/119/119 107/107/107 125/125/125
f 110/110/110 125/125/125 107/107/107
f 127/127/127 19/19/19 31/31/31
f 19/19/19 127/127/127 22/22/22
f 5/5/5 127/127/127 31/31/31
f 127/127/127 5/5/5 22/22/22
f 22/22/22 5/5/5 1/1/1
f 1/1/1 16/16/16 22/22/22
f 5/5/5 31/31/31 6/6/6
f 128/128/128 18/18/18 20/20/20
f 128/128/128 23/23/23 18/18/18
f 99/99/99 69/69/69 103/103/103
f 65/65/65 69/69/69 99/99/99
f 69/69/69 68/68/68 103/103/103
f 103/103/103 68/68/68 74/74/74
f 90/90/90 64/64/64 65/65/65
f 64/64/64 90/90/90 63/63/63
f 74/74/74 73/73/73 108/108/108
f 108/108/108 73/73/73 72/72/72
f 12/12/12 44/44/44 11/11/11
f 12/12/12 13/13/13 44/44/44
f 7/7/7 35/35/35 13/13/13
f 7/7/7 8/8/8 35/35/35
