g Body_LOD1
v -0.3617108 -0.3616751 -0.3617112
v -0.3617108 0.3612792 -0.3617112
v -0.3617108 0.3612801 0.3617117
v -0.3617108 -0.3616751 0.3617108
v -0.3617108 -0.3616751 0.3617108
v -0.3617108 0.3612801 0.3617117
v 0.3617112 0.3612801 0.3617108
v 0.3617112 -0.3616769 0.3617108
v 0.3617112 -0.3616769 -0.3617112
v 0.3617112 -0.3616769 0.3617108
v 0.3617112 0.3612801 0.3617108
v 0.3617112 0.3612801 -0.3617112
v 0.3617112 0.3612801 0.3617108
v -0.3617108 0.3612801 0.3617117
v -0.3617108 0.3612792 -0.3617112
v 0.3617112 0.3612801 -0.3617112
v -0.3617108 -0.3616751 -0.3617112
v -0.3617108 -0.3616751 0.3617108
v 0.3617112 -0.3616769 0.3617108
v 0.3617112 -0.3616769 -0.3617112
v -0.3617108 0.3612792 -0.3617112
v -0.3617108 -0.3616751 -0.3617112
v 0.3617112 -0.3616769 -0.3617112
v 0.3617112 0.3612801 -0.3617112
v -0.2968254 0.001003653 0.3423422
v -0.2894329 0.001003653 0.4363783
v -0.2021404 -0.2011369 0.4363783
v -0.2073032 -0.2062998 0.3423422
v 2.086163E-07 -0.295822 0.3423422
v 2.086163E-07 -0.2884294 0.4363783
v -0.2021404 0.2031442 0.4363783
v -0.2073032 0.2083071 0.3423422
v 2.086163E-07 0.2904367 0.4363783
v 2.086163E-07 0.2978293 0.3423422
v 0.2021408 0.2031442 0.4363783
v 0.2073036 0.2083071 0.3423422
v 0.2894332 0.001003653 0.4363783
v 0.2968259 0.001003653 0.3423422
v 0.2021408 -0.2011369 0.4363783
v 0.2073036 -0.2062998 0.3423422
v 2.086163E-07 -0.2884294 0.4363783
v 2.086163E-07 -0.295822 0.3423422
v -0.2021404 -0.2011369 0.4363783
v -0.2894329 0.001003653 0.4363783
v 2.086163E-07 0.001003653 0.4291833
v 2.086163E-07 0.001003653 0.4291833
v 2.086163E-07 -0.2884294 0.4363783
v 2.086163E-07 0.001003653 0.4291833
v -0.2021404 0.2031442 0.4363783
v 2.086163E-07 0.001003653 0.4291833
v 2.086163E-07 0.2904367 0.4363783
v 2.086163E-07 0.001003653 0.4291833
v 0.2021408 0.2031442 0.4363783
v 2.086163E-07 0.001003653 0.4291833
v 0.2894332 0.001003653 0.4363783
v 2.086163E-07 0.001003653 0.4291833
v 0.2021408 -0.2011369 0.4363783
v 2.086163E-07 0.001003653 0.4291833
v 2.086163E-07 -0.2884294 0.4363783
v 0.304632 0.0002173483 0.5661272
v 0.2127553 -0.2125378 0.5661272
v 2.086163E-07 0.0002074242 0.4003106
v 2.086163E-07 -0.3044144 0.5661272
v -0.2127549 -0.2125378 0.5661272
v -0.3046316 0.0002173483 0.5661272
v -0.2127549 0.2129724 0.5661272
v 0.2127553 0.2129724 0.5661272
v 2.086163E-07 0.3048491 0.5661272
v -0.246989 0.2472057 0.5848918
v -0.3536492 0.0002173483 0.5848918
v 2.086163E-07 0.0002074242 0.09166881
v 2.086163E-07 0.0002074242 0.09166881
v 2.086163E-07 0.3538658 0.5848918
v -0.246989 0.2472057 0.5848918
v 2.086163E-07 0.0002074242 0.09166881
v 0.2469886 0.2472057 0.5848918
v 2.086163E-07 0.3538658 0.5848918
v 2.086163E-07 0.0002074242 0.09166881
v 0.3536487 0.0002173483 0.5848918
v 0.2469886 0.2472057 0.5848918
v 2.086163E-07 0.0002074242 0.09166881
v 0.2469886 -0.2467719 0.5848918
v 0.3536487 0.0002173483 0.5848918
v 2.086163E-07 0.0002074242 0.09166881
v 2.086163E-07 -0.353432 0.5848918
v 0.2469886 -0.2467719 0.5848918
v 2.086163E-07 0.0002074242 0.09166881
v -0.246989 -0.2467719 0.5848918
v 2.086163E-07 -0.353432 0.5848918
v 2.086163E-07 0.0002074242 0.09166881
v -0.3536492 0.0002173483 0.5848918
v -0.246989 -0.2467719 0.5848918
v -0.246989 0.2472057 0.5848918
v -0.2127549 0.2129724 0.5661272
v -0.3046316 0.0002173483 0.5661272
v -0.3536492 0.0002173483 0.5848918
v -0.2127549 -0.2125378 0.5661272
v -0.246989 -0.2467719 0.5848918
v 2.086163E-07 0.3538658 0.5848918
v 2.086163E-07 0.3048491 0.5661272
v 0.2469886 0.2472057 0.5848918
v 0.2127553 0.2129724 0.5661272
v 0.3536487 0.0002173483 0.5848918
v 0.304632 0.0002173483 0.5661272
v 0.2469886 -0.2467719 0.5848918
v 0.2127553 -0.2125378 0.5661272
v 2.086163E-07 -0.353432 0.5848918
v 2.086163E-07 -0.3044144 0.5661272
v 2.086163E-07 -0.3044144 0.5661272
v 2.086163E-07 -0.353432 0.5848918
v 0.07581782 0.0002001822 0.3681347
v 0.07539895 0.0002092123 0.5088692
v 0.05331492 0.05352393 0.5088692
v 0.05361104 0.05381101 0.3681347
v 2.086163E-07 0.0760178 0.3681347
v 2.086163E-07 0.07560796 0.5088692
v -0.05361149 0.05381101 0.3681347
v -0.0533154 0.05352393 0.5088692
v -0.07581738 0.0002001822 0.3681347
v -0.07539943 0.0002092123 0.5088692
v -0.05361149 -0.05341151 0.3681347
v -0.0533154 -0.0531064 0.5088692
v 2.086163E-07 -0.07561833 0.3681347
v 2.086163E-07 -0.0751904 0.5088692
v 0.05331492 -0.0531064 0.5088692
v 0.05361104 -0.05341151 0.3681347
v 2.086163E-07 -0.0751904 0.5088692
v 2.086163E-07 -0.07561833 0.3681347
v 0.05331492 0.05352393 0.5088692
v 0.07539895 0.0002092123 0.5088692
v 2.086163E-07 0.0002092123 0.5120622
v 2.086163E-07 0.07560796 0.5088692
v -0.0533154 0.05352393 0.5088692
v -0.07539943 0.0002092123 0.5088692
v -0.0533154 -0.0531064 0.5088692
v 2.086163E-07 -0.0751904 0.5088692
v 0.05331492 -0.0531064 0.5088692
vt 0.549176 0.2795238
vt 0.5495434 0.03962719
vt 0.3330655 0.03962719
vt 0.3331267 0.2795238
vt 0.03950477 0.03916812
vt 0.0394206 0.2778325
vt 0.2782917 0.277312
vt 0.2771437 0.03824973
vt 0.5861638 0.2794319
vt 0.8053585 0.2792484
vt 0.8053585 0.0401324
vt 0.5861638 0.04038489
vt 0.5519158 0.3279148
vt 0.3325222 0.3279148
vt 0.3325222 0.5473545
vt 0.5519158 0.5473545
vt 0.5855056 0.3269659
vt 0.5855056 0.5488468
vt 0.8049605 0.5488468
vt 0.8049605 0.3269659
vt 0.03922927 0.349604
vt 0.03880835 0.588697
vt 0.2775416 0.5878168
vt 0.2774805 0.3490224
vt 0.4624348 0.6512312
vt 0.4624348 0.7009462
vt 0.5367931 0.7009462
vt 0.5368007 0.6512312
vt 0.6111667 0.6512464
vt 0.6111591 0.7009615
vt 0.3880689 0.7009462
vt 0.3880689 0.6512312
vt 0.3137029 0.7009538
vt 0.3137029 0.6512464
vt 0.239337 0.7009691
vt 0.239337 0.6512541
vt 0.164971 0.7009691
vt 0.164971 0.6512617
vt 0.09066629 0.7009691
vt 0.09066629 0.6512541
vt 0.0162468 0.7009615
vt 0.0162468 0.6512464
vt 0.5367931 0.7009462
vt 0.4624348 0.7009462
vt 0.4772438 0.7797509
vt 0.5664798 0.7797509
vt 0.6111591 0.7009615
vt 0.4177556 0.7797509
vt 0.3880689 0.7009462
vt 0.3285195 0.7797509
vt 0.3137029 0.7009538
vt 0.2690237 0.7797509
vt 0.239337 0.7009691
vt 0.1797876 0.7797509
vt 0.164971 0.7009691
vt 0.1204065 0.7797509
vt 0.09066629 0.7009691
vt 0.03105569 0.7797509
vt 0.0162468 0.7009615
vt 0.8727065 0.7951875
vt 0.9568532 0.7588501
vt 0.8727065 0.6747111
vt 0.9931905 0.6747111
vt 0.9568532 0.5905644
vt 0.8727065 0.5542271
vt 0.7885674 0.5905644
vt 0.7885674 0.7588501
vt 0.7522302 0.6747111
vt 0.5422345 0.9694656
vt 0.6495781 0.9694656
vt 0.6294043 0.8023049
vt 0.5005324 0.8023049
vt 0.4346309 0.9694656
vt 0.5422345 0.9694656
vt 0.4144034 0.8023049
vt 0.327073 0.9694656
vt 0.4346309 0.9694656
vt 0.2853173 0.8023049
vt 0.2198443 0.9694656
vt 0.327073 0.9694656
vt 0.1995634 0.8023049
vt 0.1130443 0.9694656
vt 0.2198443 0.9694656
vt 0.07145679 0.8023049
vt 0.006963491 0.9694656
vt 0.1130443 0.9694656
vt 0.8428744 0.8023049
vt 0.756493 0.9694656
vt 0.8631017 0.9694656
vt 0.7149668 0.8023049
vt 0.6495781 0.9694656
vt 0.756493 0.9694656
vt 0.5422345 0.9694656
vt 0.5422345 0.9882772
vt 0.6495781 0.9882772
vt 0.6495781 0.9694656
vt 0.756493 0.9882772
vt 0.756493 0.9694656
vt 0.4346309 0.9694656
vt 0.4346309 0.9882772
vt 0.327073 0.9694656
vt 0.327073 0.9882772
vt 0.2198443 0.9694656
vt 0.2198443 0.9882772
vt 0.1130443 0.9694656
vt 0.1130443 0.9882772
vt 0.006963491 0.9694656
vt 0.006963491 0.9882772
vt 0.8631017 0.9882772
vt 0.8631017 0.9694656
vt 0.9546032 0.1172611
vt 0.9546491 0.02259123
vt 0.9342227 0.02259123
vt 0.9340926 0.1172611
vt 0.9136204 0.1172611
vt 0.9137658 0.02259123
vt 0.8931941 0.1172611
vt 0.893263 0.02259123
vt 0.8727831 0.1172611
vt 0.8727371 0.02259123
vt 0.8523643 0.1172611
vt 0.8522342 0.02259123
vt 0.8317543 0.1172611
vt 0.8317543 0.02259123
vt 0.9750525 0.02259123
vt 0.9751214 0.1172611
vt 0.9954787 0.02259123
vt 0.9956242 0.1172611
vt 0.9813281 0.1827035
vt 0.9899226 0.161971
vt 0.9606032 0.161971
vt 0.9606032 0.1912903
vt 0.9398708 0.1827035
vt 0.931284 0.161971
vt 0.9398708 0.1412462
vt 0.9606032 0.1326593
vt 0.9813281 0.1412462
vn -0.9999995 0.0009775162 0
vn -0.9999995 0.0009775162 0
vn -0.9999995 0.0009775162 0
vn -0.9999995 0.0009775162 0
vn -0.0009775162 0.0009775162 0.999999
vn -0.0009775162 0.0009775162 0.999999
vn -0.0009775162 0.0009775162 0.999999
vn -0.0009775162 0.0009775162 0.999999
vn 0.9999995 0.0009775162 0
vn 0.9999995 0.0009775162 0
vn 0.9999995 0.0009775162 0
vn 0.9999995 0.0009775162 0
vn -0.0009775162 0.9999995 0
vn -0.0009775162 0.9999995 0
vn -0.0009775162 0.9999995 0
vn -0.0009775162 0.9999995 0
vn -0.0009775162 -0.9999995 0
vn -0.0009775162 -0.9999995 0
vn -0.0009775162 -0.9999995 0
vn -0.0009775162 -0.9999995 0
vn -0.0009775162 0.0009775162 -0.999999
vn -0.0009775162 0.0009775162 -0.999999
vn -0.0009775162 0.0009775162 -0.999999
vn -0.0009775162 0.0009775162 -0.999999
vn -0.9960895 0.0009775162 0.08834483
vn -0.6344084 0.0009775162 0.7729975
vn -0.4447701 -0.4447701 0.7774054
vn -0.7047895 -0.7047895 0.08089145
vn -0.0009775162 -0.9960895 0.08834484
vn -0.0009775162 -0.6344083 0.7729975
vn -0.4447701 0.4447701 0.7774054
vn -0.7047895 0.7047895 0.08089145
vn -0.0009775162 0.6344084 0.7729975
vn -0.0009775162 0.9960895 0.08834484
vn 0.4447701 0.4447701 0.7774054
vn 0.7047895 0.7047895 0.08089145
vn 0.6344083 0.0009775162 0.7729975
vn 0.9960895 0.0009775162 0.08834483
vn 0.4447701 -0.4447701 0.7774054
vn 0.7047895 -0.7047895 0.08089145
vn -0.0009775162 -0.6344083 0.7729975
vn -0.0009775162 -0.9960895 0.08834484
vn -0.4447701 -0.4447701 0.7774054
vn -0.6344084 0.0009775162 0.7729975
vn -0.0009775162 0.0009775162 0.999999
vn -0.0009775162 0.0009775162 0.999999
vn -0.0009775162 -0.6344083 0.7729975
vn -0.0009775162 0.0009775162 0.999999
vn -0.4447701 0.4447701 0.7774054
vn -0.0009775162 0.0009775162 0.999999
vn -0.0009775162 0.6344084 0.7729975
vn -0.0009775162 0.0009775162 0.999999
vn 0.4447701 0.4447701 0.7774054
vn -0.0009775162 0.0009775162 0.999999
vn 0.6344083 0.0009775162 0.7729975
vn -0.0009775162 0.0009775162 0.999999
vn 0.4447701 -0.4447701 0.7774054
vn -0.0009775162 0.0009775162 0.999999
vn -0.0009775162 -0.6344083 0.7729975
vn -0.4897358 0.0009775162 0.8718703
vn -0.3489734 0.3489734 0.8697328
vn -0.0009775162 0.0009775162 0.999999
vn -0.0009775162 0.4897358 0.8718703
vn 0.3489735 0.3489734 0.8697328
vn 0.4897358 0.0009775162 0.8718703
vn 0.3489735 -0.3489735 0.8697327
vn -0.3489734 -0.3489735 0.8697328
vn -0.0009775162 -0.4897358 0.8718703
vn -0.5835774 0.5835774 -0.5646901
vn -0.8240465 0.0009775162 -0.5665213
vn -0.0009775162 0.0009775162 -0.999999
vn -0.0009775162 0.0009775162 -0.999999
vn -0.0009775162 0.8240465 -0.5665213
vn -0.5835774 0.5835774 -0.5646901
vn -0.0009775162 0.0009775162 -0.999999
vn 0.5835774 0.5835774 -0.5646901
vn -0.0009775162 0.8240465 -0.5665213
vn -0.0009775162 0.0009775162 -0.999999
vn 0.8240465 0.0009775162 -0.5665213
vn 0.5835774 0.5835774 -0.5646901
vn -0.0009775162 0.0009775162 -0.999999
vn 0.5835774 -0.5835774 -0.5646901
vn 0.8240465 0.0009775162 -0.5665213
vn -0.0009775162 0.0009775162 -0.999999
vn -0.0009775162 -0.8240465 -0.5665213
vn 0.5835774 -0.5835774 -0.5646901
vn -0.0009775162 0.0009775162 -0.999999
vn -0.5835774 -0.5835774 -0.5646901
vn -0.0009775162 -0.8240465 -0.5665213
vn -0.0009775162 0.0009775162 -0.999999
vn -0.8240465 0.0009775162 -0.5665213
vn -0.5835774 -0.5835774 -0.5646901
vn 0.2551318 -0.2551318 0.932639
vn 0.2551318 -0.2551318 0.932639
vn 0.3567936 0.0009775162 0.9341827
vn 0.3567936 0.0009775162 0.9341827
vn 0.2551318 0.2551318 0.932639
vn 0.2551318 0.2551318 0.932639
vn -0.0009775162 -0.3567936 0.9341827
vn -0.0009775162 -0.3567936 0.9341827
vn -0.2551318 -0.2551318 0.932639
vn -0.2551318 -0.2551318 0.932639
vn -0.3567935 0.0009775162 0.9341828
vn -0.3567935 0.0009775162 0.9341828
vn -0.2551318 0.2551318 0.932639
vn -0.2551318 0.2551318 0.932639
vn -0.0009775162 0.3567935 0.9341828
vn -0.0009775162 0.3567935 0.9341828
vn -0.0009775162 0.3567935 0.9341828
vn -0.0009775162 0.3567935 0.9341828
vn 0.9999995 0.0009775162 0
vn 0.1788855 0.0009775162 0.9838694
vn 0.1260996 0.1260996 0.9839704
vn 0.7067446 0.7067446 -0.03200431
vn 0.0009775162 0.9999995 0
vn -0.0009775162 0.1788856 0.9838694
vn -0.7067446 0.7067446 -0.03200431
vn -0.1260996 0.1260996 0.9839705
vn -0.9999995 0.0009775162 0
vn -0.1788856 0.0009775162 0.9838694
vn -0.7067446 -0.7067446 -0.03200431
vn -0.1260996 -0.1260996 0.9839704
vn -0.0009775162 -0.9999995 0
vn -0.0009775162 -0.1788855 0.9838694
vn 0.1260996 -0.1260996 0.9839704
vn 0.7067446 -0.7067446 -0.03200431
vn -0.0009775162 -0.1788855 0.9838694
vn -0.0009775162 -0.9999995 0
vn 0.1260996 0.1260996 0.9839704
vn 0.1788855 0.0009775162 0.9838694
vn -0.0009775162 0.0009775162 0.999999
vn -0.0009775162 0.1788856 0.9838694
vn -0.1260996 0.1260996 0.9839705
vn -0.1788856 0.0009775162 0.9838694
vn -0.1260996 -0.1260996 0.9839704
vn -0.0009775162 -0.1788855 0.9838694
vn 0.1260996 -0.1260996 0.9839704
g Body_LOD1_0
f 3/3/3 2/2/2 1/1/1
f 4/4/4 3/3/3 1/1/1
f 7/7/7 6/6/6 5/5/5
f 8/8/8 7/7/7 5/5/5
f 11/11/11 10/10/10 9/9/9
f 12/12/12 11/11/11 9/9/9
f 15/15/15 14/14/14 13/13/13
f 16/16/16 15/15/15 13/13/13
f 19/19/19 18/18/18 17/17/17
f 20/20/20 19/19/19 17/17/17
f 23/23/23 22/22/22 21/21/21
f 24/24/24 23/23/23 21/21/21
f 27/27/27 26/26/26 25/25/25
f 28/28/28 27/27/27 25/25/25
f 28/28/28 29/29/29 27/27/27
f 29/29/29 30/30/30 27/27/27
f 25/25/25 26/26/26 31/31/31
f 32/32/32 25/25/25 31/31/31
f 32/32/32 31/31/31 33/33/33
f 34/34/34 32/32/32 33/33/33
f 34/34/34 33/33/33 35/35/35
f 36/36/36 34/34/34 35/35/35
f 36/36/36 35/35/35 37/37/37
f 38/38/38 36/36/36 37/37/37
f 38/38/38 37/37/37 39/39/39
f 40/40/40 38/38/38 39/39/39
f 40/40/40 39/39/39 41/41/41
f 42/42/42 40/40/40 41/41/41
f 45/45/45 44/44/44 43/43/43
f 43/43/43 47/47/47 46/46/46
f 49/49/49 44/44/44 48/48/48
f 51/51/51 49/49/49 50/50/50
f 53/53/53 51/51/51 52/52/52
f 55/55/55 53/53/53 54/54/54
f 57/57/57 55/55/55 56/56/56
f 59/59/59 57/57/57 58/58/58
f 62/62/62 61/61/61 60/60/60
f 63/63/63 61/61/61 62/62/62
f 64/64/64 63/63/63 62/62/62
f 65/65/65 64/64/64 62/62/62
f 62/62/62 66/66/66 65/65/65
f 60/60/60 67/67/67 62/62/62
f 67/67/67 68/68/68 62/62/62
f 68/68/68 66/66/66 62/62/62
f 71/71/71 70/70/70 69/69/69
f 74/74/74 73/73/73 72/72/72
f 77/77/77 76/76/76 75/75/75
f 80/80/80 79/79/79 78/78/78
f 83/83/83 82/82/82 81/81/81
f 86/86/86 85/85/85 84/84/84
f 89/89/89 88/88/88 87/87/87
f 92/92/92 91/91/91 90/90/90
f 95/95/95 94/94/94 93/93/93
f 96/96/96 95/95/95 93/93/93
f 95/95/95 96/96/96 97/97/97
f 96/96/96 98/98/98 97/97/97
f 93/93/93 94/94/94 99/99/99
f 94/94/94 100/100/100 99/99/99
f 99/99/99 100/100/100 101/101/101
f 100/100/100 102/102/102 101/101/101
f 101/101/101 102/102/102 103/103/103
f 102/102/102 104/104/104 103/103/103
f 103/103/103 104/104/104 105/105/105
f 104/104/104 106/106/106 105/105/105
f 105/105/105 106/106/106 107/107/107
f 106/106/106 108/108/108 107/107/107
f 109/109/109 97/97/97 98/98/98
f 110/110/110 109/109/109 98/98/98
f 113/113/113 112/112/112 111/111/111
f 114/114/114 113/113/113 111/111/111
f 114/114/114 115/115/115 113/113/113
f 115/115/115 116/116/116 113/113/113
f 115/115/115 117/117/117 116/116/116
f 117/117/117 118/118/118 116/116/116
f 117/117/117 119/119/119 118/118/118
f 119/119/119 120/120/120 118/118/118
f 119/119/119 121/121/121 120/120/120
f 121/121/121 122/122/122 120/120/120
f 121/121/121 123/123/123 122/122/122
f 123/123/123 124/124/124 122/122/122
f 111/111/111 112/112/112 125/125/125
f 126/126/126 111/111/111 125/125/125
f 126/126/126 125/125/125 127/127/127
f 128/128/128 126/126/126 127/127/127
f 131/131/131 130/130/130 129/129/129
f 129/129/129 132/132/132 131/131/131
f 132/132/132 133/133/133 131/131/131
f 133/133/133 134/134/134 131/131/131
f 134/134/134 135/135/135 131/131/131
f 135/135/135 136/136/136 131/131/131
f 136/136/136 137/137/137 131/131/131
f 137/137/137 130/130/130 131/131/131
