g Body_LOD0
v -0.9999998 2 0.9999998
v -0.7500007 2 0.7500007
v 0.7500007 2 0.7500007
v 0.9999999 2 0.9999998
v -0.9999998 -5.960464E-08 0.9999998
v 0.9999999 -5.960464E-08 0.9999998
v 0.7500007 -5.960464E-08 0.7500007
v -0.7500007 -5.960464E-08 0.7500007
v 0.9999999 2 -0.9999999
v 0.9999999 1.75 -0.9999999
v 0.9999999 1.75 0.9999998
v 0.9999999 2 0.9999998
v 0.9999999 0.2499992 0.9999998
v 0.9999999 -5.960464E-08 0.9999998
v -0.9999998 -5.960464E-08 0.9999998
v -0.9999998 0.2499992 0.9999998
v -0.9999998 -5.960464E-08 -0.9999999
v 0.9999999 -5.960464E-08 -0.9999999
v 0.9999999 0.2499992 -0.9999999
v -0.9999998 0.2499992 -0.9999999
v -0.9800013 0.2499992 0.7299992
v -0.9800013 1.75 0.7299992
v -0.9800013 1.75 0.9800013
v -0.9800013 0.2499992 0.9800013
v -0.7299992 1.75 -0.9000014
v -0.7299992 0.2499992 -0.9000014
v 0.7299992 0.2499992 -0.9000014
v 0.7299992 1.75 -0.9000014
v 0.9800014 0.2499992 0.9800013
v 0.9800014 1.75 0.9800013
v 0.9800014 1.75 0.7299992
v 0.9800014 0.2499992 0.7299992
v -0.7299992 0.2499992 0.9000013
v -0.7299992 1.75 0.9000013
v 0.7299992 1.75 0.9000013
v 0.7299992 0.2499992 0.9000013
v -0.9999998 2 0.9999998
v 0.9999999 2 0.9999998
v 0.9999999 1.75 0.9999998
v -0.9999998 1.75 0.9999998
v -0.9800013 0.2499992 0.9800013
v -0.9800013 1.75 0.9800013
v -0.7299992 1.75 0.9800013
v -0.7299992 0.2499992 0.9800013
v -0.9800013 1.75 -0.9800014
v -0.9800013 0.2499992 -0.9800014
v -0.7299992 0.2499992 -0.9800014
v -0.7299992 1.75 -0.9800014
v -0.9999998 1.75 -0.9999999
v 0.9999999 1.75 -0.9999999
v 0.9999999 2 -0.9999999
v -0.9999998 2 -0.9999999
v -0.9999998 2 0.9999998
v -0.9999998 2 -0.9999999
v -0.7500007 2 -0.7500007
v -0.7500007 2 0.7500007
v 0.7299992 0.2499992 -0.9800014
v 0.9800014 0.2499992 -0.9800014
v 0.9800014 1.75 -0.9800014
v 0.7299992 1.75 -0.9800014
v 0.7299992 1.75 0.9800013
v 0.9800014 1.75 0.9800013
v 0.9800014 0.2499992 0.9800013
v 0.7299992 0.2499992 0.9800013
v -0.9999998 -5.960464E-08 -0.9999999
v -0.9999998 -5.960464E-08 0.9999998
v -0.7500007 -5.960464E-08 0.7500007
v -0.7500007 -5.960464E-08 -0.7500007
v -0.9999998 -5.960464E-08 -0.9999999
v -0.7500007 -5.960464E-08 -0.7500007
v 0.7500007 -5.960464E-08 -0.7500007
v 0.9999999 -5.960464E-08 -0.9999999
v 0.7500007 -5.960464E-08 -0.7500007
v 0.7500007 -5.960464E-08 0.7500007
v 0.9999999 -5.960464E-08 0.9999998
v 0.9999999 -5.960464E-08 -0.9999999
v 0.9999999 -5.960464E-08 -0.9999999
v 0.9999999 -5.960464E-08 0.9999998
v 0.9999999 0.2499992 0.9999998
v 0.9999999 0.2499992 -0.9999999
v 0.9800014 1.75 -0.7299992
v 0.9800014 1.75 -0.9800014
v 0.9800014 0.2499992 -0.9800014
v 0.9800014 0.2499992 -0.7299992
v -0.7500007 2 -0.7500007
v -0.9999998 2 -0.9999999
v 0.9999999 2 -0.9999999
v 0.7500007 2 -0.7500007
v -0.9999998 2 -0.9999999
v -0.9999998 2 0.9999998
v -0.9999998 1.75 0.9999998
v -0.9999998 1.75 -0.9999999
v -0.9800013 0.2499992 -0.9800014
v -0.9800013 1.75 -0.9800014
v -0.9800013 1.75 -0.7299992
v -0.9800013 0.2499992 -0.7299992
v -0.9999998 0.2499992 0.9999998
v -0.9999998 -5.960464E-08 0.9999998
v -0.9999998 -5.960464E-08 -0.9999999
v -0.9999998 0.2499992 -0.9999999
v -0.9000013 1.75 -0.7299992
v -0.9000013 1.75 0.7299992
v -0.9000013 0.2499992 0.7299992
v -0.9000013 0.2499992 -0.7299992
v 0.7500007 1.900001 -0.7500007
v 0.7500007 1.900001 0.7500007
v -0.7500007 1.900001 0.7500007
v -0.7500007 1.900001 -0.7500007
v 0.9000014 1.75 0.7299992
v 0.9000014 1.75 -0.7299992
v 0.9000014 0.2499992 -0.7299992
v 0.9000014 0.2499992 0.7299992
v -0.7500007 -5.960464E-08 -0.7500007
v -0.7500007 -5.960464E-08 0.7500007
v 0.7500007 -5.960464E-08 0.7500007
v 0.7500007 -5.960464E-08 -0.7500007
v 0.9000014 0.2499992 -0.7299992
v 0.9000014 1.75 -0.7299992
v 0.9800014 1.75 -0.7299992
v 0.9800014 0.2499992 -0.7299992
v 0.9000014 1.75 -0.7299992
v 0.9000014 1.75 0.7299992
v 0.9800014 1.75 0.7299992
v 0.9800014 1.75 -0.7299992
v 0.9999999 1.75 0.9999998
v 0.9800014 1.75 0.9800013
v 0.9999999 1.75 -0.9999999
v 0.9800014 1.75 -0.9800014
v 0.9000014 1.75 0.7299992
v 0.9000014 0.2499992 0.7299992
v 0.9800014 0.2499992 0.7299992
v 0.9800014 1.75 0.7299992
v -0.9000013 1.75 -0.7299992
v -0.9000013 0.2499992 -0.7299992
v -0.9800013 0.2499992 -0.7299992
v -0.9800013 1.75 -0.7299992
v 0.7299992 0.2499992 0.9000013
v 0.7299992 1.75 0.9000013
v 0.7299992 1.75 0.9800013
v 0.7299992 0.2499992 0.9800013
v -0.7299992 1.75 0.9000013
v -0.7299992 0.2499992 0.9000013
v -0.7299992 0.2499992 0.9800013
v -0.7299992 1.75 0.9800013
v 0.7500007 2 -0.7500007
v 0.7500007 1.900001 -0.7500007
v -0.7500007 1.900001 -0.7500007
v -0.7500007 2 -0.7500007
v -0.7500007 2 -0.7500007
v -0.7500007 1.900001 -0.7500007
v -0.7500007 1.900001 0.7500007
v -0.7500007 2 0.7500007
v -0.7500007 2 0.7500007
v -0.7500007 1.900001 0.7500007
v 0.7500007 1.900001 0.7500007
v 0.7500007 2 0.7500007
v 0.7500007 2 0.7500007
v 0.7500007 1.900001 0.7500007
v 0.7500007 1.900001 -0.7500007
v 0.7500007 2 -0.7500007
v -0.9999998 1.75 0.9999998
v -0.9800013 1.75 0.9800013
v -0.9800013 1.75 0.7299992
v -0.9800013 1.75 -0.7299992
v -0.9000013 1.75 0.7299992
v -0.9000013 1.75 -0.7299992
v -0.9999998 1.75 -0.9999999
v -0.9800013 1.75 -0.9800014
v -0.9999998 0.2499992 0.9999998
v -0.9800013 0.2499992 0.9800013
v -0.7299992 0.2499992 0.9800013
v 0.7299992 0.2499992 0.9800013
v -0.7299992 0.2499992 0.9000013
v 0.7299992 0.2499992 0.9000013
v 0.9999999 0.2499992 0.9999998
v 0.9800014 0.2499992 0.9800013
v 0.9999999 0.2499992 0.9999998
v 0.9800014 0.2499992 0.9800013
v 0.9800014 0.2499992 0.7299992
v 0.9800014 0.2499992 -0.7299992
v 0.9000014 0.2499992 0.7299992
v 0.9000014 0.2499992 -0.7299992
v 0.9800014 0.2499992 -0.9800014
v 0.9999999 0.2499992 -0.9999999
v 0.9999999 1.75 0.9999998
v 0.9800014 1.75 0.9800013
v 0.7299992 1.75 0.9800013
v -0.7299992 1.75 0.9800013
v -0.7299992 1.75 0.9000013
v 0.7299992 1.75 0.9000013
v -0.9999998 1.75 0.9999998
v -0.9800013 1.75 0.9800013
v -0.9999998 1.75 -0.9999999
v -0.9800013 1.75 -0.9800014
v -0.7299992 1.75 -0.9800014
v 0.7299992 1.75 -0.9800014
v -0.7299992 1.75 -0.9000014
v 0.7299992 1.75 -0.9000014
v 0.9999999 1.75 -0.9999999
v 0.9800014 1.75 -0.9800014
v -0.9999998 0.2499992 -0.9999999
v -0.9800013 0.2499992 -0.9800014
v -0.9800013 0.2499992 -0.7299992
v -0.9999998 0.2499992 0.9999998
v -0.9800013 0.2499992 0.7299992
v -0.9000013 0.2499992 -0.7299992
v -0.9000013 0.2499992 0.7299992
v -0.9800013 0.2499992 0.9800013
v -0.7299992 1.75 -0.9000014
v -0.7299992 1.75 -0.9800014
v -0.7299992 0.2499992 -0.9800014
v -0.7299992 0.2499992 -0.9000014
v 0.9999999 0.2499992 -0.9999999
v 0.9800014 0.2499992 -0.9800014
v 0.7299992 0.2499992 -0.9800014
v -0.9999998 0.2499992 -0.9999999
v -0.7299992 0.2499992 -0.9800014
v 0.7299992 0.2499992 -0.9000014
v -0.7299992 0.2499992 -0.9000014
v -0.9800013 0.2499992 -0.9800014
v 0.7299992 0.2499992 -0.9000014
v 0.7299992 0.2499992 -0.9800014
v 0.7299992 1.75 -0.9800014
v 0.7299992 1.75 -0.9000014
v -0.9000013 1.75 0.7299992
v -0.9800013 1.75 0.7299992
v -0.9800013 0.2499992 0.7299992
v -0.9000013 0.2499992 0.7299992
v 0.9999999 2 0.9999998
v 0.7500007 2 0.7500007
v 0.7500007 2 -0.7500007
v 0.9999999 2 -0.9999999
vt 0.2444953 0.008865491
vt 0.1272602 0.1222248
vt 0.1272602 0.8756237
vt 0.2444953 0.9916991
vt 0.2444953 0.9916991
vt 0.2444953 0.008865491
vt 0.1272602 0.1222248
vt 0.1272602 0.8756237
vt 0.1269245 0
vt 0.001922637 0
vt 0.001922637 1
vt 0.1269245 1
vt 0.001922637 1
vt 0.1269245 1
vt 0.1269245 0
vt 0.001922637 0
vt 0.1269245 1
vt 0.1269245 0
vt 0.001922637 0
vt 0.001922637 1
vt 0.9883574 0.1250019
vt 0.2616464 0.1250019
vt 0.2616464 0.2475013
vt 0.9883574 0.2475013
vt 1 1
vt 1 0.2500038
vt 0.2500038 0.2500038
vt 0.2500038 1
vt 0.9883574 0.1250019
vt 0.2616464 0.1250019
vt 0.2616464 0.2475013
vt 0.9883574 0.2475013
vt 0.2500038 0.2500038
vt 0.2500038 1
vt 1 1
vt 1 0.2500038
vt 0.1269245 1
vt 0.1269245 0
vt 0.001922637 0
vt 0.001922637 1
vt 0.9883574 0.1250019
vt 0.2616464 0.1250019
vt 0.2616464 0.2475013
vt 0.9883574 0.2475013
vt 0.2616464 0.2475013
vt 0.9883574 0.2475013
vt 0.9883574 0.1250019
vt 0.2616464 0.1250019
vt 0.001922637 0
vt 0.001922637 1
vt 0.1269245 1
vt 0.1269245 0
vt 0.2444953 0.9916991
vt 0.2444953 0.008865491
vt 0.1272602 0.1222248
vt 0.1272602 0.8756237
vt 0.9883574 0.2475013
vt 0.9883574 0.1250019
vt 0.2616464 0.1250019
vt 0.2616464 0.2475013
vt 0.2616464 0.1250019
vt 0.2616464 0.2475013
vt 0.9883574 0.2475013
vt 0.9883574 0.1250019
vt 0.2444953 0.9916991
vt 0.2444953 0.008865491
vt 0.1272602 0.1222248
vt 0.1272602 0.8756237
vt 0.2444953 0.008865491
vt 0.1272602 0.1222248
vt 0.1272602 0.8756237
vt 0.2444953 0.9916991
vt 0.1272602 0.1222248
vt 0.1272602 0.8756237
vt 0.2444953 0.9916991
vt 0.2444953 0.008865491
vt 0.1269245 1
vt 0.1269245 0
vt 0.001922637 0
vt 0.001922637 1
vt 0.2616464 0.1250019
vt 0.2616464 0.2475013
vt 0.9883574 0.2475013
vt 0.9883574 0.1250019
vt 0.1272602 0.8756237
vt 0.2444953 0.9916991
vt 0.2444953 0.008865491
vt 0.1272602 0.1222248
vt 0.1269245 1
vt 0.1269245 0
vt 0.001922637 0
vt 0.001922637 1
vt 0.9883574 0.1250019
vt 0.2616464 0.1250019
vt 0.2616464 0.2475013
vt 0.9883574 0.2475013
vt 0.001922637 1
vt 0.1269245 1
vt 0.1269245 0
vt 0.001922637 0
vt 0.2500038 1
vt 1 1
vt 1 0.2500038
vt 0.2500038 0.2500038
vt 1 1
vt 1 0.2500038
vt 0.2500038 0.2500038
vt 0.2500038 1
vt 0.2500038 1
vt 1 1
vt 1 0.2500038
vt 0.2500038 0.2500038
vt 0.2500038 0.2500038
vt 0.2500038 1
vt 1 1
vt 1 0.2500038
vt 0.2654154 0.1181964
vt 0.9822537 0.1181964
vt 0.9822537 0.08558785
vt 0.2654154 0.08558785
vt 0.8835431 0.006546121
vt 0.3614404 0.006546121
vt 0.3614404 0.06376746
vt 0.8835431 0.06376746
vt 0.2648814 0.07806516
vt 0.2720378 0.06376746
vt 0.9801022 0.07806516
vt 0.9729457 0.06376746
vt 0.9822537 0.08558785
vt 0.2654154 0.08558785
vt 0.2654154 0.1181964
vt 0.9822537 0.1181964
vt 0.9822537 0.08558785
vt 0.2654154 0.08558785
vt 0.2654154 0.1181964
vt 0.9822537 0.1181964
vt 0.2654154 0.1181964
vt 0.9822537 0.1181964
vt 0.9822537 0.08558785
vt 0.2654154 0.08558785
vt 0.9822537 0.08558785
vt 0.2654154 0.08558785
vt 0.2654154 0.1181964
vt 0.9822537 0.1181964
vt 0.9822537 0.1181964
vt 0.9822537 0.08558785
vt 0.2654154 0.08558785
vt 0.2654154 0.1181964
vt 0.9822537 0.1181964
vt 0.9822537 0.08558785
vt 0.2654154 0.08558785
vt 0.2654154 0.1181964
vt 0.9822537 0.1181964
vt 0.9822537 0.08558785
vt 0.2654154 0.08558785
vt 0.2654154 0.1181964
vt 0.9822537 0.1181964
vt 0.9822537 0.08558785
vt 0.2654154 0.08558785
vt 0.2654154 0.1181964
vt 0.9801022 0.07806516
vt 0.9729457 0.06376746
vt 0.8835431 0.06376746
vt 0.3614404 0.06376746
vt 0.8835431 0.006546121
vt 0.3614404 0.006546121
vt 0.2648814 0.07806516
vt 0.2720378 0.06376746
vt 0.9801022 0.07806516
vt 0.9729457 0.06376746
vt 0.8835431 0.06376746
vt 0.3614404 0.06376746
vt 0.8835431 0.006546121
vt 0.3614404 0.006546121
vt 0.2648814 0.07806516
vt 0.2720378 0.06376746
vt 0.9801022 0.07806516
vt 0.9729457 0.06376746
vt 0.8835431 0.06376746
vt 0.3614404 0.06376746
vt 0.8835431 0.006546121
vt 0.3614404 0.006546121
vt 0.2720378 0.06376746
vt 0.2648814 0.07806516
vt 0.9801022 0.07806516
vt 0.9729457 0.06376746
vt 0.8835431 0.06376746
vt 0.3614404 0.06376746
vt 0.3614404 0.006546121
vt 0.8835431 0.006546121
vt 0.2648814 0.07806516
vt 0.2720378 0.06376746
vt 0.9801022 0.07806516
vt 0.9729457 0.06376746
vt 0.8835431 0.06376746
vt 0.3614404 0.06376746
vt 0.8835431 0.006546121
vt 0.3614404 0.006546121
vt 0.2648814 0.07806516
vt 0.2720378 0.06376746
vt 0.9801022 0.07806516
vt 0.9729457 0.06376746
vt 0.8835431 0.06376746
vt 0.2648814 0.07806516
vt 0.3614404 0.06376746
vt 0.8835431 0.006546121
vt 0.3614404 0.006546121
vt 0.2720378 0.06376746
vt 0.9822537 0.08558785
vt 0.9822537 0.1181964
vt 0.2654154 0.1181964
vt 0.2654154 0.08558785
vt 0.9801022 0.07806516
vt 0.9729457 0.06376746
vt 0.8835431 0.06376746
vt 0.2648814 0.07806516
vt 0.3614404 0.06376746
vt 0.8835431 0.006546121
vt 0.3614404 0.006546121
vt 0.2720378 0.06376746
vt 0.2654154 0.08558785
vt 0.2654154 0.1181964
vt 0.9822537 0.1181964
vt 0.9822537 0.08558785
vt 0.9822537 0.1181964
vt 0.9822537 0.08558785
vt 0.2654154 0.08558785
vt 0.2654154 0.1181964
vt 0.2444953 0.008865491
vt 0.1272602 0.1222248
vt 0.1272602 0.8756237
vt 0.2444953 0.9916991
vn -0.0009775162 0.9999995 0
vn -0.0009775162 0.9999995 0
vn -0.0009775162 0.9999995 0
vn -0.0009775162 0.9999995 0
vn -0.0009775162 -0.9999995 0
vn -0.0009775162 -0.9999995 0
vn -0.0009775162 -0.9999995 0
vn -0.0009775162 -0.9999995 0
vn 0.9999995 0.0009775162 0
vn 0.9999995 0.0009775162 0
vn 0.9999995 0.0009775162 0
vn 0.9999995 0.0009775162 0
vn -0.0009775162 0.0009775162 0.999999
vn -0.0009775162 0.0009775162 0.999999
vn -0.0009775162 0.0009775162 0.999999
vn -0.0009775162 0.0009775162 0.999999
vn -0.0009775162 0.0009775162 -0.999999
vn -0.0009775162 0.0009775162 -0.999999
vn -0.0009775162 0.0009775162 -0.999999
vn -0.0009775162 0.0009775162 -0.999999
vn -0.9999995 0.0009775162 0
vn -0.9999995 0.0009775162 0
vn -0.9999995 0.0009775162 0
vn -0.9999995 0.0009775162 0
vn -0.0009775162 0.0009775162 -0.999999
vn -0.0009775162 0.0009775162 -0.999999
vn -0.0009775162 0.0009775162 -0.999999
vn -0.0009775162 0.0009775162 -0.999999
vn 0.9999995 0.0009775162 0
vn 0.9999995 0.0009775162 0
vn 0.9999995 0.0009775162 0
vn 0.9999995 0.0009775162 0
vn -0.0009775162 0.0009775162 0.999999
vn -0.0009775162 0.0009775162 0.999999
vn -0.0009775162 0.0009775162 0.999999
vn -0.0009775162 0.0009775162 0.999999
vn -0.0009775162 0.0009775162 0.999999
vn -0.0009775162 0.0009775162 0.999999
vn -0.0009775162 0.0009775162 0.999999
vn -0.0009775162 0.0009775162 0.999999
vn -0.0009775162 0.0009775162 0.999999
vn -0.0009775162 0.0009775162 0.999999
vn -0.0009775162 0.0009775162 0.999999
vn -0.0009775162 0.0009775162 0.999999
vn -0.0009775162 0.0009775162 -0.999999
vn -0.0009775162 0.0009775162 -0.999999
vn -0.0009775162 0.0009775162 -0.999999
vn -0.0009775162 0.0009775162 -0.999999
vn -0.0009775162 0.0009775162 -0.999999
vn -0.0009775162 0.0009775162 -0.999999
vn -0.0009775162 0.0009775162 -0.999999
vn -0.0009775162 0.0009775162 -0.999999
vn -0.0009775162 0.9999995 0
vn -0.0009775162 0.9999995 0
vn -0.0009775162 0.9999995 0
vn -0.0009775162 0.9999995 0
vn -0.0009775162 0.0009775162 -0.999999
vn -0.0009775162 0.0009775162 -0.999999
vn -0.0009775162 0.0009775162 -0.999999
vn -0.0009775162 0.0009775162 -0.999999
vn -0.0009775162 0.0009775162 0.999999
vn -0.0009775162 0.0009775162 0.999999
vn -0.0009775162 0.0009775162 0.999999
vn -0.0009775162 0.0009775162 0.999999
vn -0.0009775162 -0.9999995 0
vn -0.0009775162 -0.9999995 0
vn -0.0009775162 -0.9999995 0
vn -0.0009775162 -0.9999995 0
vn -0.0009775162 -0.9999995 0
vn -0.0009775162 -0.9999995 0
vn -0.0009775162 -0.9999995 0
vn -0.0009775162 -0.9999995 0
vn -0.0009775162 -0.9999995 0
vn -0.0009775162 -0.9999995 0
vn -0.0009775162 -0.9999995 0
vn -0.0009775162 -0.9999995 0
vn 0.9999995 0.0009775162 0
vn 0.9999995 0.0009775162 0
vn 0.9999995 0.0009775162 0
vn 0.9999995 0.0009775162 0
vn 0.9999995 0.0009775162 0
vn 0.9999995 0.0009775162 0
vn 0.9999995 0.0009775162 0
vn 0.9999995 0.0009775162 0
vn -0.0009775162 0.9999995 0
vn -0.0009775162 0.9999995 0
vn -0.0009775162 0.9999995 0
vn -0.0009775162 0.9999995 0
vn -0.9999995 0.0009775162 0
vn -0.9999995 0.0009775162 0
vn -0.9999995 0.0009775162 0
vn -0.9999995 0.0009775162 0
vn -0.9999995 0.0009775162 0
vn -0.9999995 0.0009775162 0
vn -0.9999995 0.0009775162 0
vn -0.9999995 0.0009775162 0
vn -0.9999995 0.0009775162 0
vn -0.9999995 0.0009775162 0
vn -0.9999995 0.0009775162 0
vn -0.9999995 0.0009775162 0
vn -0.9999995 0.0009775162 0
vn -0.9999995 0.0009775162 0
vn -0.9999995 0.0009775162 0
vn -0.9999995 0.0009775162 0
vn -0.0009775162 0.9999995 0
vn -0.0009775162 0.9999995 0
vn -0.0009775162 0.9999995 0
vn -0.0009775162 0.9999995 0
vn 0.9999995 0.0009775162 0
vn 0.9999995 0.0009775162 0
vn 0.9999995 0.0009775162 0
vn 0.9999995 0.0009775162 0
vn -0.0009775162 -0.9999995 0
vn -0.0009775162 -0.9999995 0
vn -0.0009775162 -0.9999995 0
vn -0.0009775162 -0.9999995 0
vn -0.0009775162 0.0009775162 0.999999
vn -0.0009775162 0.0009775162 0.999999
vn -0.0009775162 0.0009775162 0.999999
vn -0.0009775162 0.0009775162 0.999999
vn -0.0009775162 -0.9999995 0
vn -0.0009775162 -0.9999995 0
vn -0.0009775162 -0.9999995 0
vn -0.0009775162 -0.9999995 0
vn -0.0009775162 -0.9999995 0
vn -0.0009775162 -0.9999995 0
vn -0.0009775162 -0.9999995 0
vn -0.0009775162 -0.9999995 0
vn -0.0009775162 0.0009775162 -0.999999
vn -0.0009775162 0.0009775162 -0.999999
vn -0.0009775162 0.0009775162 -0.999999
vn -0.0009775162 0.0009775162 -0.999999
vn -0.0009775162 0.0009775162 0.999999
vn -0.0009775162 0.0009775162 0.999999
vn -0.0009775162 0.0009775162 0.999999
vn -0.0009775162 0.0009775162 0.999999
vn -0.9999995 0.0009775162 0
vn -0.9999995 0.0009775162 0
vn -0.9999995 0.0009775162 0
vn -0.9999995 0.0009775162 0
vn 0.9999995 0.0009775162 0
vn 0.9999995 0.0009775162 0
vn 0.9999995 0.0009775162 0
vn 0.9999995 0.0009775162 0
vn -0.0009775162 0.0009775162 0.999999
vn -0.0009775162 0.0009775162 0.999999
vn -0.0009775162 0.0009775162 0.999999
vn -0.0009775162 0.0009775162 0.999999
vn 0.9999995 0.0009775162 0
vn 0.9999995 0.0009775162 0
vn 0.9999995 0.0009775162 0
vn 0.9999995 0.0009775162 0
vn -0.0009775162 0.0009775162 -0.999999
vn -0.0009775162 0.0009775162 -0.999999
vn -0.0009775162 0.0009775162 -0.999999
vn -0.0009775162 0.0009775162 -0.999999
vn -0.9999995 0.0009775162 0
vn -0.9999995 0.0009775162 0
vn -0.9999995 0.0009775162 0
vn -0.9999995 0.0009775162 0
vn -0.0009775162 -0.9999995 0
vn -0.0009775162 -0.9999995 0
vn -0.0009775162 -0.9999995 0
vn -0.0009775162 -0.9999995 0
vn -0.0009775162 -0.9999995 0
vn -0.0009775162 -0.9999995 0
vn -0.0009775162 -0.9999995 0
vn -0.0009775162 -0.9999995 0
vn -0.0009775162 0.9999995 0
vn -0.0009775162 0.9999995 0
vn -0.0009775162 0.9999995 0
vn -0.0009775162 0.9999995 0
vn -0.0009775162 0.9999995 0
vn -0.0009775162 0.9999995 0
vn -0.0009775162 0.9999995 0
vn -0.0009775162 0.9999995 0
vn -0.0009775162 0.9999995 0
vn -0.0009775162 0.9999995 0
vn -0.0009775162 0.9999995 0
vn -0.0009775162 0.9999995 0
vn -0.0009775162 0.9999995 0
vn -0.0009775162 0.9999995 0
vn -0.0009775162 0.9999995 0
vn -0.0009775162 0.9999995 0
vn -0.0009775162 -0.9999995 0
vn -0.0009775162 -0.9999995 0
vn -0.0009775162 -0.9999995 0
vn -0.0009775162 -0.9999995 0
vn -0.0009775162 -0.9999995 0
vn -0.0009775162 -0.9999995 0
vn -0.0009775162 -0.9999995 0
vn -0.0009775162 -0.9999995 0
vn -0.0009775162 -0.9999995 0
vn -0.0009775162 -0.9999995 0
vn -0.0009775162 -0.9999995 0
vn -0.0009775162 -0.9999995 0
vn -0.0009775162 -0.9999995 0
vn -0.0009775162 -0.9999995 0
vn -0.0009775162 -0.9999995 0
vn -0.0009775162 -0.9999995 0
vn -0.0009775162 0.9999995 0
vn -0.0009775162 0.9999995 0
vn -0.0009775162 0.9999995 0
vn -0.0009775162 0.9999995 0
vn -0.0009775162 0.9999995 0
vn -0.0009775162 0.9999995 0
vn -0.0009775162 0.9999995 0
vn -0.0009775162 0.9999995 0
vn 0.9999995 0.0009775162 0
vn 0.9999995 0.0009775162 0
vn 0.9999995 0.0009775162 0
vn 0.9999995 0.0009775162 0
vn -0.0009775162 0.9999995 0
vn -0.0009775162 0.9999995 0
vn -0.0009775162 0.9999995 0
vn -0.0009775162 0.9999995 0
vn -0.0009775162 0.9999995 0
vn -0.0009775162 0.9999995 0
vn -0.0009775162 0.9999995 0
vn -0.0009775162 0.9999995 0
vn -0.9999995 0.0009775162 0
vn -0.9999995 0.0009775162 0
vn -0.9999995 0.0009775162 0
vn -0.9999995 0.0009775162 0
vn -0.0009775162 0.0009775162 -0.999999
vn -0.0009775162 0.0009775162 -0.999999
vn -0.0009775162 0.0009775162 -0.999999
vn -0.0009775162 0.0009775162 -0.999999
vn -0.0009775162 0.9999995 0
vn -0.0009775162 0.9999995 0
vn -0.0009775162 0.9999995 0
vn -0.0009775162 0.9999995 0
g Body_LOD0_0
f 3/3/3 2/2/2 1/1/1
f 4/4/4 3/3/3 1/1/1
f 7/7/7 6/6/6 5/5/5
f 8/8/8 7/7/7 5/5/5
f 11/11/11 10/10/10 9/9/9
f 12/12/12 11/11/11 9/9/9
f 15/15/15 14/14/14 13/13/13
f 16/16/16 15/15/15 13/13/13
f 19/19/19 18/18/18 17/17/17
f 20/20/20 19/19/19 17/17/17
f 23/23/23 22/22/22 21/21/21
f 24/24/24 23/23/23 21/21/21
f 27/27/27 26/26/26 25/25/25
f 28/28/28 27/27/27 25/25/25
f 31/31/31 30/30/30 29/29/29
f 32/32/32 31/31/31 29/29/29
f 35/35/35 34/34/34 33/33/33
f 36/36/36 35/35/35 33/33/33
f 39/39/39 38/38/38 37/37/37
f 40/40/40 39/39/39 37/37/37
f 43/43/43 42/42/42 41/41/41
f 44/44/44 43/43/43 41/41/41
f 47/47/47 46/46/46 45/45/45
f 48/48/48 47/47/47 45/45/45
f 51/51/51 50/50/50 49/49/49
f 52/52/52 51/51/51 49/49/49
f 55/55/55 54/54/54 53/53/53
f 56/56/56 55/55/55 53/53/53
f 59/59/59 58/58/58 57/57/57
f 60/60/60 59/59/59 57/57/57
f 63/63/63 62/62/62 61/61/61
f 64/64/64 63/63/63 61/61/61
f 67/67/67 66/66/66 65/65/65
f 68/68/68 67/67/67 65/65/65
f 71/71/71 70/70/70 69/69/69
f 72/72/72 71/71/71 69/69/69
f 75/75/75 74/74/74 73/73/73
f 76/76/76 75/75/75 73/73/73
f 79/79/79 78/78/78 77/77/77
f 80/80/80 79/79/79 77/77/77
f 83/83/83 82/82/82 81/81/81
f 84/84/84 83/83/83 81/81/81
f 87/87/87 86/86/86 85/85/85
f 88/88/88 87/87/87 85/85/85
f 91/91/91 90/90/90 89/89/89
f 92/92/92 91/91/91 89/89/89
f 95/95/95 94/94/94 93/93/93
f 96/96/96 95/95/95 93/93/93
f 99/99/99 98/98/98 97/97/97
f 100/100/100 99/99/99 97/97/97
f 103/103/103 102/102/102 101/101/101
f 104/104/104 103/103/103 101/101/101
f 107/107/107 106/106/106 105/105/105
f 108/108/108 107/107/107 105/105/105
f 111/111/111 110/110/110 109/109/109
f 112/112/112 111/111/111 109/109/109
f 115/115/115 114/114/114 113/113/113
f 116/116/116 115/115/115 113/113/113
f 119/119/119 118/118/118 117/117/117
f 120/120/120 119/119/119 117/117/117
f 123/123/123 122/122/122 121/121/121
f 124/124/124 123/123/123 121/121/121
f 125/125/125 123/123/123 124/124/124
f 125/125/125 126/126/126 123/123/123
f 127/127/127 125/125/125 124/124/124
f 124/124/124 128/128/128 127/127/127
f 131/131/131 130/130/130 129/129/129
f 132/132/132 131/131/131 129/129/129
f 135/135/135 134/134/134 133/133/133
f 136/136/136 135/135/135 133/133/133
f 139/139/139 138/138/138 137/137/137
f 140/140/140 139/139/139 137/137/137
f 143/143/143 142/142/142 141/141/141
f 144/144/144 143/143/143 141/141/141
f 147/147/147 146/146/146 145/145/145
f 148/148/148 147/147/147 145/145/145
f 151/151/151 150/150/150 149/149/149
f 152/152/152 151/151/151 149/149/149
f 155/155/155 154/154/154 153/153/153
f 156/156/156 155/155/155 153/153/153
f 159/159/159 158/158/158 157/157/157
f 160/160/160 159/159/159 157/157/157
f 163/163/163 162/162/162 161/161/161
f 163/163/163 161/161/161 164/164/164
f 163/163/163 164/164/164 165/165/165
f 164/164/164 166/166/166 165/165/165
f 161/161/161 167/167/167 164/164/164
f 167/167/167 168/168/168 164/164/164
f 171/171/171 170/170/170 169/169/169
f 171/171/171 169/169/169 172/172/172
f 171/171/171 172/172/172 173/173/173
f 172/172/172 174/174/174 173/173/173
f 169/169/169 175/175/175 172/172/172
f 175/175/175 176/176/176 172/172/172
f 179/179/179 178/178/178 177/177/177
f 180/180/180 179/179/179 177/177/177
f 179/179/179 180/180/180 181/181/181
f 180/180/180 182/182/182 181/181/181
f 183/183/183 180/180/180 177/177/177
f 177/177/177 184/184/184 183/183/183
f 187/187/187 186/186/186 185/185/185
f 187/187/187 185/185/185 188/188/188
f 187/187/187 188/188/188 189/189/189
f 190/190/190 187/187/187 189/189/189
f 185/185/185 191/191/191 188/188/188
f 191/191/191 192/192/192 188/188/188
f 195/195/195 194/194/194 193/193/193
f 195/195/195 193/193/193 196/196/196
f 195/195/195 196/196/196 197/197/197
f 196/196/196 198/198/198 197/197/197
f 193/193/193 199/199/199 196/196/196
f 199/199/199 200/200/200 196/196/196
f 203/203/203 202/202/202 201/201/201
f 201/201/201 204/204/204 203/203/203
f 204/204/204 205/205/205 203/203/203
f 203/203/203 205/205/205 206/206/206
f 205/205/205 207/207/207 206/206/206
f 204/204/204 208/208/208 205/205/205
f 211/211/211 210/210/210 209/209/209
f 212/212/212 211/211/211 209/209/209
f 215/215/215 214/214/214 213/213/213
f 213/213/213 216/216/216 215/215/215
f 216/216/216 217/217/217 215/215/215
f 215/215/215 217/217/217 218/218/218
f 217/217/217 219/219/219 218/218/218
f 216/216/216 220/220/220 217/217/217
f 223/223/223 222/222/222 221/221/221
f 224/224/224 223/223/223 221/221/221
f 227/227/227 226/226/226 225/225/225
f 228/228/228 227/227/227 225/225/225
f 231/231/231 230/230/230 229/229/229
f 232/232/232 231/231/231 229/229/229
