g Body_LOD0
v -0.8088698 0.7400107 -0.0002048016
v -0.805135 0.7878813 -0.0002048016
v -0.7040122 0.827702 -0.0002048016
v -0.7490151 0.8314825 -0.0002048016
v -0.7880019 0.8205484 -0.0002048016
v -0.4226511 0.6576139 -0.0002048016
v -0.7621452 0.4468421 -0.0002048016
v 0.004952312 0.7232373 -0.0002048016
v -0.2849078 0.9879457 -0.0002048016
v -0.2033283 1.003415 -0.0002048016
v -0.2701495 1.010074 -0.0002048016
v -0.2226762 1.021289 -0.0002048016
v -0.2514941 1.025219 -0.0002048016
v -0.9299332 0.09313035 -0.0002048016
v -1.001677 0.3974868 -0.0002048016
v -0.9469312 0.4882952 -0.0002048016
v -1.011739 0.4400525 -0.0002048016
v -0.9879872 0.4818923 -0.0002048016
v -1.007556 0.4665705 -0.0002048016
v 0.3630831 0.5401231 -0.0002048016
v 0.2114195 0.7686124 -0.0002048016
v 0.3394056 0.8175602 -0.0002048016
v 0.2948311 0.8390541 -0.0002048016
v 0.3372762 0.8365961 -0.0002048016
v 0.3099347 0.8504498 -0.0002048016
v 0.3274754 0.8510696 -0.0002048016
v 0.87143 -0.07265735 -0.0002048016
v 0.7912312 0.375211 -0.0002048016
v 1.048907 0.2305949 -0.0002048016
v 1.03367 0.3249407 -0.0002048016
v 0.8192922 0.6127192 -0.0002048016
v 0.7350114 0.6869352 -0.0002048016
v 0.8249589 0.6640354 0.0001196861
v 0.7812079 0.7011986 -0.0002048016
v 0.8136443 0.6916327 0.0002049208
v 0.1866857 0.8421568 -0.0002048016
v 0.132639 0.85307 -0.0002048016
v 0.1492252 0.8682714 -0.0002048016
v -1.089505 -0.1297172 -0.0002048016
v -1.00673 0.02310455 -0.0002048016
v -1.106056 -0.2412336 -0.0002048016
v -1.001296 -0.4817488 -0.0002048016
v -1.089507 -0.3579924 -0.0002048016
v -0.9203966 -0.5473555 -0.0002048016
v -0.7794863 -0.7848595 -0.0002048016
v -0.878646 -0.6701325 -0.0002048016
v -0.3764774 -0.9838717 -0.0002048016
v -0.5951784 -0.9092668 -0.0002048016
v 0.1644036 -1.017225 -0.0002048016
v -0.1007018 -1.025219 -0.0002048016
v 0.4171235 -0.956996 -0.0002048016
v 0.7078695 -0.733196 -0.0002048016
v 0.6184252 -0.8440655 -0.0002048016
v 0.7632949 -0.6111739 -0.0002048016
v 0.9686579 -0.4927973 -0.0002048016
v 0.8807234 -0.5807859 -0.0002048016
v 1.013888 -0.3930572 -0.0002048016
v 0.9647962 -0.1425645 -0.0002048016
v 1.017799 -0.2531347 -0.0002048016
v 0.1492252 0.8682714 -0.0002048016
v 0.1670883 0.8726799 -0.0002048016
v 0.1795903 0.8605418 -0.0002048016
v 0.1492252 0.8682714 -0.0002048016
v 0.1795903 0.8605418 -0.0002048016
v 0.1866857 0.8421568 -0.0002048016
v 1.059795 0.3103549 -0.0002048016
v 1.074476 0.2904518 -0.0002048016
v 1.067816 0.2628005 -0.0002048016
v 1.048907 0.2305949 -0.0002048016
v 1.03367 0.3249407 -0.0002048016
v 1.067816 0.2628005 -0.0002048016
v 1.059795 0.3103549 -0.0002048016
vt 0.7015433 0.4002141
vt 0.701831 0.40908
vt 0.7043878 0.4186764
vt 0.7032921 0.4186543
vt 0.7024952 0.4146696
vt 0.7116266 0.3859358
vt 0.702639 0.3394037
vt 0.7230383 0.3999596
vt 0.7153346 0.4545827
vt 0.7175151 0.4578258
vt 0.7157773 0.4580692
vt 0.7170613 0.4600837
vt 0.7162976 0.4608032
vt 0.6980788 0.2653001
vt 0.6963189 0.327494
vt 0.6978021 0.346399
vt 0.6960533 0.3364263
vt 0.6966953 0.3451704
vt 0.6959537 0.3449934
vt 0.7326015 0.3608434
vt 0.7285504 0.4096667
vt 0.7319927 0.4192077
vt 0.7307974 0.423934
vt 0.7319041 0.4241553
vt 0.7311847 0.4269667
vt 0.7316386 0.4272324
vt 0.7461826 0.2299141
vt 0.7440352 0.3256235
vt 0.7509088 0.2945209
vt 0.7504992 0.3146988
vt 0.7447879 0.3756974
vt 0.742541 0.3915364
vt 0.7449429 0.3868102
vt 0.7437696 0.394691
vt 0.744633 0.392765
vt 0.7278641 0.4236462
vt 0.7264031 0.4257049
vt 0.7266467 0.4263358
vt 0.6938285 0.2176723
vt 0.6960312 0.2503355
vt 0.6933858 0.1938418
vt 0.6961861 0.1424507
vt 0.6938285 0.1688934
vt 0.6983445 0.1284269
vt 0.7021077 0.07767776
vt 0.6994624 0.1021945
vt 0.7128774 0.03516362
vt 0.7070332 0.05110227
vt 0.7273107 0.02804657
vt 0.720238 0.02633095
vt 0.7340626 0.04091924
vt 0.7418216 0.08875734
vt 0.7394308 0.06505966
vt 0.7433047 0.1148237
vt 0.7487836 0.1401374
vt 0.7464371 0.121332
vt 0.7499901 0.1614442
vt 0.748673 0.2149716
vt 0.7500898 0.1913514
vt 0.7266467 0.4263358
vt 0.7270893 0.4267896
vt 0.7274325 0.4244542
vt 0.7266467 0.4263358
vt 0.7274325 0.4244542
vt 0.7278641 0.4236462
vt 0.7512408 0.3111458
vt 0.7517058 0.3072276
vt 0.7514401 0.3010071
vt 0.7509088 0.2945209
vt 0.7504992 0.3146988
vt 0.7514401 0.3010071
vt 0.7512408 0.3111458
vn -3.125519E-06 3.125519E-06 1
vn -3.125519E-06 3.125519E-06 1
vn -3.125519E-06 3.125519E-06 1
vn -3.125519E-06 3.125519E-06 1
vn -3.125519E-06 3.125519E-06 1
vn -3.125519E-06 3.125519E-06 1
vn -3.125519E-06 3.125519E-06 1
vn -3.125519E-06 3.125519E-06 1
vn -3.125519E-06 3.125519E-06 1
vn -3.125519E-06 3.125519E-06 1
vn -3.125519E-06 3.125519E-06 1
vn -3.125519E-06 3.125519E-06 1
vn -3.125519E-06 3.125519E-06 1
vn -3.125519E-06 3.125519E-06 1
vn -3.125519E-06 3.125519E-06 1
vn -3.125519E-06 3.125519E-06 1
vn -3.125519E-06 3.125519E-06 1
vn -3.125519E-06 3.125519E-06 1
vn -3.125519E-06 3.125519E-06 1
vn -3.125519E-06 3.125519E-06 1
vn -3.125519E-06 3.125519E-06 1
vn -3.125519E-06 3.125519E-06 1
vn -3.125519E-06 3.125519E-06 1
vn -3.125519E-06 3.125519E-06 1
vn -3.125519E-06 3.125519E-06 1
vn -3.125519E-06 3.125519E-06 1
vn -3.125519E-06 3.125519E-06 1
vn -3.125519E-06 3.125519E-06 1
vn -3.125519E-06 3.125519E-06 1
vn -3.125519E-06 3.125519E-06 1
vn -0.005083036 -0.005781651 0.9999704
vn -0.003964969 -0.001333692 0.9999912
vn -0.0154373 -0.00942752 0.9998364
vn -0.0154373 -0.00942752 0.9998364
vn -0.0154373 -0.00942752 0.9998364
vn -3.125519E-06 3.125519E-06 1
vn -3.125519E-06 3.125519E-06 1
vn -3.125519E-06 3.125519E-06 1
vn -3.125519E-06 3.125519E-06 1
vn -3.125519E-06 3.125519E-06 1
vn -3.125519E-06 3.125519E-06 1
vn -3.125519E-06 3.125519E-06 1
vn -3.125519E-06 3.125519E-06 1
vn -3.125519E-06 3.125519E-06 1
vn -3.125519E-06 3.125519E-06 1
vn -3.125519E-06 3.125519E-06 1
vn -3.125519E-06 3.125519E-06 1
vn -3.125519E-06 3.125519E-06 1
vn -3.125519E-06 3.125519E-06 1
vn -3.125519E-06 3.125519E-06 1
vn -3.125519E-06 3.125519E-06 1
vn -3.125519E-06 3.125519E-06 1
vn -3.125519E-06 3.125519E-06 1
vn -3.125519E-06 3.125519E-06 1
vn -3.125519E-06 3.125519E-06 1
vn -3.125519E-06 3.125519E-06 1
vn -3.125519E-06 3.125519E-06 1
vn -3.125519E-06 3.125519E-06 1
vn -3.125519E-06 3.125519E-06 1
vn -3.125519E-06 3.125519E-06 1
vn -3.125519E-06 3.125519E-06 1
vn -3.125519E-06 3.125519E-06 1
vn -3.125519E-06 3.125519E-06 1
vn -3.125519E-06 3.125519E-06 1
vn -3.125519E-06 3.125519E-06 1
vn -3.125519E-06 3.125519E-06 1
vn -3.125519E-06 3.125519E-06 1
vn -3.125519E-06 3.125519E-06 1
vn -3.125519E-06 3.125519E-06 1
vn -3.125519E-06 3.125519E-06 1
vn -3.125519E-06 3.125519E-06 1
vn -3.125519E-06 3.125519E-06 1
g Body_LOD0_0
f 3/3/3 2/2/2 1/1/1
f 3/3/3 4/4/4 2/2/2
f 4/4/4 5/5/5 2/2/2
f 1/1/1 6/6/6 3/3/3
f 7/7/7 6/6/6 1/1/1
f 7/7/7 8/8/8 6/6/6
f 6/6/6 8/8/8 9/9/9
f 9/9/9 8/8/8 10/10/10
f 10/10/10 11/11/11 9/9/9
f 10/10/10 12/12/12 11/11/11
f 12/12/12 13/13/13 11/11/11
f 14/14/14 8/8/8 7/7/7
f 14/14/14 7/7/7 15/15/15
f 15/15/15 7/7/7 16/16/16
f 16/16/16 17/17/17 15/15/15
f 16/16/16 18/18/18 17/17/17
f 18/18/18 19/19/19 17/17/17
f 14/14/14 20/20/20 8/8/8
f 8/8/8 20/20/20 21/21/21
f 21/21/21 20/20/20 22/22/22
f 21/21/21 22/22/22 23/23/23
f 24/24/24 23/23/23 22/22/22
f 24/24/24 25/25/25 23/23/23
f 24/24/24 26/26/26 25/25/25
f 14/14/14 27/27/27 20/20/20
f 20/20/20 27/27/27 28/28/28
f 28/28/28 27/27/27 29/29/29
f 28/28/28 29/29/29 30/30/30
f 20/20/20 28/28/28 31/31/31
f 20/20/20 31/31/31 32/32/32
f 33/33/33 32/32/32 31/31/31
f 33/33/33 34/34/34 32/32/32
f 33/33/33 35/35/35 34/34/34
f 37/37/37 21/21/21 36/36/36
f 36/36/36 38/38/38 37/37/37
f 8/8/8 21/21/21 37/37/37
f 39/39/39 27/27/27 14/14/14
f 39/39/39 14/14/14 40/40/40
f 41/41/41 27/27/27 39/39/39
f 42/42/42 27/27/27 41/41/41
f 42/42/42 41/41/41 43/43/43
f 44/44/44 27/27/27 42/42/42
f 45/45/45 27/27/27 44/44/44
f 45/45/45 44/44/44 46/46/46
f 47/47/47 27/27/27 45/45/45
f 47/47/47 45/45/45 48/48/48
f 49/49/49 27/27/27 47/47/47
f 49/49/49 47/47/47 50/50/50
f 51/51/51 27/27/27 49/49/49
f 52/52/52 27/27/27 51/51/51
f 52/52/52 51/51/51 53/53/53
f 54/54/54 27/27/27 52/52/52
f 55/55/55 27/27/27 54/54/54
f 55/55/55 54/54/54 56/56/56
f 57/57/57 27/27/27 55/55/55
f 58/58/58 27/27/27 57/57/57
f 58/58/58 57/57/57 59/59/59
f 62/62/62 61/61/61 60/60/60
f 65/65/65 64/64/64 63/63/63
f 68/68/68 67/67/67 66/66/66
f 71/71/71 70/70/70 69/69/69
f 71/71/71 72/72/72 70/70/70
