g Body_LOD1
v 0.1824714 0.07202029 0.1331711
v 0.1057389 0.1885518 0.0973902
v 0.1425728 0.1885518 0.01839945
v 0.2193054 0.07202029 0.05418077
v 0.01841716 0.2330629 -0.03949511
v -0.01841679 0.2330629 0.0394952
v 0.1824714 -0.07202022 0.1331711
v 0.2193054 -0.07202022 0.05418032
v 0.1057389 -0.1885517 0.0973902
v 0.1425728 -0.1885517 0.01839945
v -0.01841679 -0.2330628 0.0394952
v 0.01841716 -0.2330628 -0.03949511
v -0.01841679 0.2330629 0.0394952
v -0.1425729 0.1885518 -0.01839939
v -0.105739 0.1885518 -0.09739013
v 0.01841716 0.2330629 -0.03949511
v -0.1824715 0.07202029 -0.133171
v -0.2193055 0.07202029 -0.05418068
v -0.1824715 -0.07202022 -0.133171
v -0.2193055 -0.07202022 -0.05418068
v -0.105739 -0.1885517 -0.09739013
v -0.1425729 -0.1885517 -0.01839939
v 0.01841716 -0.2330628 -0.03949511
v -0.01841679 -0.2330628 0.0394952
v 0.1425728 0.1885518 0.01839945
v 0.0199099 -1.788139E-07 -0.04269709
v 0.2193054 0.07202029 0.05418077
v 0.01841716 0.2330629 -0.03949511
v -0.105739 0.1885518 -0.09739013
v -0.1824715 0.07202029 -0.133171
v -0.1824715 -0.07202022 -0.133171
v -0.105739 -0.1885517 -0.09739013
v 0.01841716 -0.2330628 -0.03949511
v 0.1425728 -0.1885517 0.01839945
v 0.2193054 -0.07202022 0.05418032
v -0.01990998 -1.788139E-07 0.04269716
v 0.1057389 0.1885518 0.0973902
v 0.1824714 0.07202029 0.1331711
v -0.01841679 0.2330629 0.0394952
v -0.1425729 0.1885518 -0.01839939
v -0.2193055 0.07202029 -0.05418068
v -0.2193055 -0.07202022 -0.05418068
v -0.1425729 -0.1885517 -0.01839939
v -0.01841679 -0.2330628 0.0394952
v 0.1057389 -0.1885517 0.0973902
v 0.1824714 -0.07202022 0.1331711
vt 0.8915871 0.4065466
vt 0.8915871 0.2146816
vt 0.825716 0.2146816
vt 0.825716 0.4065466
vt 0.825716 0.02286106
vt 0.8915871 0.02286106
vt 0.8915871 0.5984412
vt 0.825716 0.5984412
vt 0.8915871 0.7904543
vt 0.825716 0.7904543
vt 0.8915871 0.9860825
vt 0.825716 0.9860825
vt 0.9856676 0.9863344
vt 0.9856676 0.7946175
vt 0.9198113 0.7946175
vt 0.9198113 0.9863344
vt 0.9198113 0.6029452
vt 0.9856676 0.6029452
vt 0.9198113 0.4113024
vt 0.9856676 0.4113024
vt 0.9198113 0.2194967
vt 0.9856676 0.2194967
vt 0.9198113 0.02286106
vt 0.9856676 0.02286106
vt 0.0870136 0.8990099
vt 0.2029326 0.5755359
vt 0.01537907 0.6990851
vt 0.2029326 0.9753706
vt 0.3188517 0.8990099
vt 0.3904862 0.6990851
vt 0.3904862 0.4519719
vt 0.3188517 0.2520619
vt 0.2029326 0.1757012
vt 0.0870136 0.2520619
vt 0.01537907 0.4519719
vt 0.6057454 0.5755359
vt 0.7216644 0.8990099
vt 0.793299 0.6990851
vt 0.6057454 0.9753706
vt 0.4898412 0.8990099
vt 0.4182066 0.6990851
vt 0.4182066 0.4519719
vt 0.4898412 0.2520619
vt 0.6057454 0.1757012
vt 0.7216644 0.2520619
vt 0.793299 0.4519719
vn -0.0268293 0.1312467 0.9909866
vn -0.1660525 0.3342804 0.9277301
vn 0.6083765 0.3342804 -0.7198157
vn 0.7417987 0.1312467 -0.6576542
vn 0.3864895 0.415494 -0.8234018
vn -0.3864892 0.415494 0.823402
vn -0.0268293 -0.131247 0.9909866
vn 0.7417987 -0.131247 -0.6576541
vn -0.1660525 -0.3342808 0.92773
vn 0.6083765 -0.3342808 -0.7198155
vn -0.3864892 -0.4154944 0.8234018
vn 0.3864895 -0.4154944 -0.8234016
vn -0.3864892 0.415494 0.823402
vn -0.6083761 0.3342804 0.719816
vn 0.1660528 0.3342804 -0.9277301
vn 0.3864895 0.415494 -0.8234018
vn 0.02682966 0.1312467 -0.9909866
vn -0.7417983 0.1312467 0.6576546
vn 0.02682966 -0.131247 -0.9909865
vn -0.7417983 -0.131247 0.6576545
vn 0.1660528 -0.3342808 -0.9277299
vn -0.6083761 -0.3342808 0.7198159
vn 0.3864895 -0.4154944 -0.8234016
vn -0.3864892 -0.4154944 0.8234018
vn 0.6083765 0.3342804 -0.7198157
vn 0.4212953 0.003625393 -0.9069163
vn 0.7417987 0.1312467 -0.6576542
vn 0.3864895 0.415494 -0.8234018
vn 0.1660528 0.3342804 -0.9277301
vn 0.02682966 0.1312467 -0.9909866
vn 0.02682966 -0.131247 -0.9909865
vn 0.1660528 -0.3342808 -0.9277299
vn 0.3864895 -0.4154944 -0.8234016
vn 0.6083765 -0.3342808 -0.7198155
vn 0.7417987 -0.131247 -0.6576541
vn -0.421295 0.003625393 0.9069164
vn -0.1660525 0.3342804 0.9277301
vn -0.0268293 0.1312467 0.9909866
vn -0.3864892 0.415494 0.823402
vn -0.6083761 0.3342804 0.719816
vn -0.7417983 0.1312467 0.6576546
vn -0.7417983 -0.131247 0.6576545
vn -0.6083761 -0.3342808 0.7198159
vn -0.3864892 -0.4154944 0.8234018
vn -0.1660525 -0.3342808 0.92773
vn -0.0268293 -0.131247 0.9909866
g Body_LOD1_0
f 3/3/3 2/2/2 1/1/1
f 4/4/4 3/3/3 1/1/1
f 3/3/3 5/5/5 2/2/2
f 5/5/5 6/6/6 2/2/2
f 4/4/4 1/1/1 7/7/7
f 8/8/8 4/4/4 7/7/7
f 8/8/8 7/7/7 9/9/9
f 10/10/10 8/8/8 9/9/9
f 10/10/10 9/9/9 11/11/11
f 12/12/12 10/10/10 11/11/11
f 15/15/15 14/14/14 13/13/13
f 16/16/16 15/15/15 13/13/13
f 15/15/15 17/17/17 14/14/14
f 17/17/17 18/18/18 14/14/14
f 17/17/17 19/19/19 18/18/18
f 19/19/19 20/20/20 18/18/18
f 19/19/19 21/21/21 20/20/20
f 21/21/21 22/22/22 20/20/20
f 21/21/21 23/23/23 22/22/22
f 23/23/23 24/24/24 22/22/22
f 27/27/27 26/26/26 25/25/25
f 25/25/25 26/26/26 28/28/28
f 28/28/28 26/26/26 29/29/29
f 29/29/29 26/26/26 30/30/30
f 30/30/30 26/26/26 31/31/31
f 31/31/31 26/26/26 32/32/32
f 32/32/32 26/26/26 33/33/33
f 33/33/33 26/26/26 34/34/34
f 34/34/34 26/26/26 35/35/35
f 35/35/35 26/26/26 27/27/27
f 38/38/38 37/37/37 36/36/36
f 37/37/37 39/39/39 36/36/36
f 39/39/39 40/40/40 36/36/36
f 40/40/40 41/41/41 36/36/36
f 41/41/41 42/42/42 36/36/36
f 42/42/42 43/43/43 36/36/36
f 43/43/43 44/44/44 36/36/36
f 44/44/44 45/45/45 36/36/36
f 45/45/45 46/46/46 36/36/36
f 46/46/46 38/38/38 36/36/36
