g Body_LOD0
v 0.5102054 -1.009844 8.992807E-18
v -0.01500377 -0.1612117 -3.271677E-18
v 0.6728675 -1.049744 8.992807E-18
v 0.8333215 -0.9828842 8.992807E-18
v 0.9251408 -0.8481747 8.992807E-18
v 0.9021886 -0.7003776 8.992807E-18
v 0.4023604 0.09615883 -1.330465E-18
v 0.3912952 0.1540224 0
v -0.04579022 -0.1390993 0
v -0.08923437 0.9612453 0
v 0.4126048 0.1960643 0
v 0.01563817 0.9935728 0
v 0.1681297 1.021101 0
v 0.5376614 0.2739814 0
v 0.3347016 1.02101 0
v 0.51065 0.9676898 0
v 0.6091972 0.8843116 0
v 0.6875941 0.77185 0
v 0.7347221 0.6636981 0
v 0.7838929 0.5457517 0
v 0.6913708 0.3005657 0
v 0.8403819 0.3932556 0
v 0.7958871 0.3073834 0
v 0.8325683 0.3401476 0
v -0.1634726 0.9655763 0
v -0.08516322 -0.1500975 0
v -0.2922547 1.031407 0
v -0.339341 1.049744 0
v -0.3785526 1.044468 0
v -0.5293688 0.9446929 0
v -0.5420274 0.9142044 0
v -0.5393918 0.8760335 0
v -0.5327786 0.7427167 0
v -0.54972 0.7193818 0
v -0.670352 0.7146116 0
v -0.786034 0.676343 0
v -0.904907 0.5490052 0
v -0.9251408 0.4023143 0
v -0.8676166 0.1929199 0
v -0.7367933 -0.02724278 0
v -0.5692753 -0.2059753 0
v -0.4069399 -0.3091894 0
v -0.2714296 -0.3196827 0
v -0.1581365 -0.2678775 0
vt 0.7337552 0.04896742
vt 0.4973251 0.4309908
vt 0.8069798 0.03100574
vt 0.8792103 0.06110367
vt 0.920544 0.121745
vt 0.9102118 0.1882779
vt 0.6852072 0.5468496
vt 0.680226 0.5728976
vt 0.4834661 0.440945
vt 0.4639091 0.93628
vt 0.6898189 0.5918233
vt 0.5111189 0.9508327
vt 0.5797651 0.963225
vt 0.7461147 0.6268988
vt 0.6547496 0.9631838
vt 0.7339553 0.9391811
vt 0.7783176 0.9016473
vt 0.8136089 0.8510212
vt 0.8348243 0.8023351
vt 0.8569592 0.7492399
vt 0.8153091 0.6388661
vt 0.8823885 0.6805917
vt 0.8623585 0.6419351
vt 0.8788711 0.6566844
vt 0.4304897 0.9382296
vt 0.4657419 0.435994
vt 0.3725168 0.9678643
vt 0.3513202 0.976119
vt 0.3336686 0.9737437
vt 0.2657767 0.9288287
vt 0.2600782 0.915104
vt 0.2612647 0.8979208
vt 0.2642417 0.8379064
vt 0.2566153 0.8274019
vt 0.2023112 0.8252546
vt 0.1502353 0.8080274
vt 0.09672303 0.7507046
vt 0.08761449 0.6846697
vt 0.1135098 0.590408
vt 0.1724017 0.4912987
vt 0.2478122 0.4108399
vt 0.3208897 0.3643766
vt 0.3818915 0.3596529
vt 0.432892 0.3829737
vn 0 0 1
vn 0 0 1
vn 0 0 1
vn 0 0 1
vn 0 0 1
vn 0 0 1
vn 0 0 1
vn 0 0 1
vn 0 0 1
vn 0 0 1
vn 0 0 1
vn 0 0 1
vn 0 0 1
vn 0 0 1
vn 0 0 1
vn 0 0 1
vn 0 0 1
vn 0 0 1
vn 0 0 1
vn 0 0 1
vn 0 0 1
vn 0 0 1
vn 0 0 1
vn 0 0 1
vn 0 0 1
vn 0 0 1
vn 0 0 1
vn 0 0 1
vn 0 0 1
vn 0 0 1
vn 0 0 1
vn 0 0 1
vn 0 0 1
vn 0 0 1
vn 0 0 1
vn 0 0 1
vn 0 0 1
vn 0 0 1
vn 0 0 1
vn 0 0 1
vn 0 0 1
vn 0 0 1
vn 0 0 1
vn 0 0 1
g Body_LOD0_0
f 3/3/3 2/2/2 1/1/1
f 4/4/4 2/2/2 3/3/3
f 5/5/5 2/2/2 4/4/4
f 6/6/6 2/2/2 5/5/5
f 7/7/7 2/2/2 6/6/6
f 8/8/8 2/2/2 7/7/7
f 8/8/8 9/9/9 2/2/2
f 10/10/10 9/9/9 8/8/8
f 10/10/10 8/8/8 11/11/11
f 10/10/10 11/11/11 12/12/12
f 12/12/12 11/11/11 13/13/13
f 13/13/13 11/11/11 14/14/14
f 13/13/13 14/14/14 15/15/15
f 15/15/15 14/14/14 16/16/16
f 16/16/16 14/14/14 17/17/17
f 17/17/17 14/14/14 18/18/18
f 18/18/18 14/14/14 19/19/19
f 19/19/19 14/14/14 20/20/20
f 20/20/20 14/14/14 21/21/21
f 20/20/20 21/21/21 22/22/22
f 22/22/22 21/21/21 23/23/23
f 22/22/22 23/23/23 24/24/24
f 25/25/25 9/9/9 10/10/10
f 25/25/25 26/26/26 9/9/9
f 27/27/27 26/26/26 25/25/25
f 28/28/28 26/26/26 27/27/27
f 29/29/29 26/26/26 28/28/28
f 30/30/30 26/26/26 29/29/29
f 31/31/31 26/26/26 30/30/30
f 32/32/32 26/26/26 31/31/31
f 33/33/33 26/26/26 32/32/32
f 34/34/34 26/26/26 33/33/33
f 35/35/35 26/26/26 34/34/34
f 36/36/36 26/26/26 35/35/35
f 37/37/37 26/26/26 36/36/36
f 38/38/38 26/26/26 37/37/37
f 39/39/39 26/26/26 38/38/38
f 40/40/40 26/26/26 39/39/39
f 41/41/41 26/26/26 40/40/40
f 42/42/42 26/26/26 41/41/41
f 43/43/43 26/26/26 42/42/42
f 44/44/44 26/26/26 43/43/43
