g Body_LOD1
v -3.782825 3.446252 0.1085989
v -3.781072 0.6719816 0.1066148
v -3.781065 0.6719453 -0.1122792
v -3.782825 3.446209 -0.1085994
v -3.782825 3.446209 -0.1085994
v -3.39799 3.738048 -0.1089168
v -3.39799 3.738048 0.1089165
v -3.782825 3.446252 0.1085989
v 3.39799 3.738048 -0.1089168
v 3.39799 3.738048 0.1089165
v 3.782826 3.446252 -0.1085994
v 3.782826 3.446209 0.1085989
v -3.782825 3.446252 0.1085989
v -3.39799 3.738048 0.1089165
v -3.345073 3.557337 0.1089094
v -3.546911 3.411201 0.1085989
v 3.39799 3.738048 0.1089165
v 3.345074 3.557337 0.1089094
v 3.546911 3.41115 0.1085989
v 3.782826 3.446209 0.1085989
v -3.781072 0.6719816 0.1066148
v -3.782825 3.446252 0.1085989
v -3.546911 3.411201 0.1085989
v -3.549032 0.6651556 0.1066148
v -3.546911 3.41115 -0.1085994
v -3.345073 3.557337 -0.1089096
v -3.39799 3.738048 -0.1089168
v -3.782825 3.446209 -0.1085994
v 3.345074 3.557337 -0.1089096
v 3.39799 3.738048 -0.1089168
v 3.782826 3.446252 -0.1085994
v 3.546911 3.411201 -0.1085994
v -3.781065 0.6719453 -0.1122792
v -3.549039 0.665127 -0.1122863
v -3.546911 3.41115 -0.1085994
v -3.782825 3.446209 -0.1085994
v -3.546911 3.411201 0.1085989
v -3.345073 3.557337 0.1089094
v -3.345073 3.557337 -0.1089096
v -3.546911 3.41115 -0.1085994
v 3.345074 3.557337 0.1089094
v 3.345074 3.557337 -0.1089096
v 3.546911 3.411201 -0.1085994
v 3.546911 3.41115 0.1085989
v -3.549039 0.665127 -0.1122863
v -3.549032 0.6651556 0.1066148
v -3.546911 3.411201 0.1085989
v -3.546911 3.41115 -0.1085994
v -3.781065 0.6719453 -0.1122792
v -3.549032 0.6651556 0.1066148
v -3.781065 0.6719453 -0.1122792
v -3.781072 0.6719816 0.1066148
v 3.546911 3.411201 -0.1085994
v 3.549032 0.6651556 -0.1066153
v 3.781072 0.6719816 -0.1066153
v 3.782826 3.446252 -0.1085994
v 3.546911 3.41115 0.1085989
v 3.54904 0.665127 0.1122859
v 3.549032 0.6651556 -0.1066153
v 3.546911 3.411201 -0.1085994
v 3.782826 3.446209 0.1085989
v 3.781065 0.6719453 0.1122787
v 3.54904 0.665127 0.1122859
v 3.546911 3.41115 0.1085989
v 3.782826 3.446252 -0.1085994
v 3.781072 0.6719816 -0.1066153
v 3.781065 0.6719453 0.1122787
v 3.782826 3.446209 0.1085989
v 3.781072 0.6719816 -0.1066153
v 3.549032 0.6651556 -0.1066153
v 3.54904 0.665127 0.1122859
v 3.781065 0.6719453 0.1122787
v 3.598139 0.4315503 -0.003373384
v 3.366431 0.5886247 -0.1561835
v 3.366359 0.4282672 -0.007009745
v 3.598204 0.5919001 -0.1525471
v 3.366431 0.5886247 -0.1561835
v 3.598204 0.5919001 -0.1525471
v 3.289481 0.8634651 -0.1089168
v 3.236565 0.6827466 -0.1089096
v -3.236564 0.6827466 -0.1089096
v -3.28948 0.8634651 -0.1089168
v -3.598139 0.4315503 0.003372908
v -3.366358 0.4282672 0.007009268
v 3.366359 0.4282672 -0.007009745
v 3.366431 0.5886247 -0.1561835
v 3.236565 0.6827466 -0.1089096
v 3.236565 0.6827466 0.1089094
v 3.598139 0.4315503 -0.003373384
v 3.366359 0.4282672 -0.007009745
v 3.236565 0.6827466 0.1089094
v 3.289481 0.8634651 0.1089165
v -3.28948 0.8634651 0.1089165
v -3.236564 0.6827466 0.1089094
v -3.366431 0.5886247 0.156183
v -3.598203 0.5919001 0.1525466
v 3.289481 0.8634651 -0.1089168
v 3.598204 0.5919001 -0.1525471
v 3.598139 0.4315503 -0.003373384
v 3.289481 0.8634651 0.1089165
v 3.289481 0.8634651 0.1089165
v -3.28948 0.8634651 0.1089165
v -3.28948 0.8634651 -0.1089168
v 3.289481 0.8634651 -0.1089168
v 3.236565 0.6827466 -0.1089096
v -3.236564 0.6827466 -0.1089096
v -3.236564 0.6827466 0.1089094
v 3.236565 0.6827466 0.1089094
v -3.598139 0.4315503 0.003372908
v -3.366431 0.5886247 0.156183
v -3.366358 0.4282672 0.007009268
v -3.366431 0.5886247 0.156183
v -3.598139 0.4315503 0.003372908
v -3.598203 0.5919001 0.1525466
v -3.28948 0.8634651 -0.1089168
v -3.28948 0.8634651 0.1089165
v -3.366358 0.4282672 0.007009268
v -3.366431 0.5886247 0.156183
v -3.236564 0.6827466 0.1089094
v -3.236564 0.6827466 -0.1089096
v -1.599997 0.863126 -0.03942037
v -3.199998 2.223129 -0.03942037
v -3.199998 0.863126 -0.03942037
v -1.599997 3.583124 -0.03942037
v -3.199998 3.583124 -0.03942037
v -3.33786E-06 2.223129 -0.03942037
v -1.599997 2.223129 -0.03942037
v -3.33786E-06 0.863126 -0.03942037
v 1.599998 0.863126 -0.03942037
v 1.599998 3.583124 -0.03942037
v -3.33786E-06 3.583124 -0.03942037
v 1.599998 2.223129 -0.03942037
v -3.33786E-06 2.223129 -0.03942037
v 1.599998 0.863126 -0.03942037
v 3.199998 0.863126 -0.03942037
v 3.199998 3.583124 -0.03942037
v 1.599998 3.583124 -0.03942037
v 3.199998 2.223129 -0.03942037
v 1.599998 2.223129 -0.03942037
v 3.199998 0.863126 -0.03942037
v 3.199998 3.583124 -0.03942037
v -1.599997 2.223129 -0.03942037
v -3.199998 2.223129 -0.03942037
v -1.599997 0.863126 -0.03942037
v -3.33786E-06 0.863126 -0.03942037
v -3.33786E-06 3.583124 -0.03942037
v -1.599997 3.583124 -0.03942037
v -1.599997 0.863126 0.03942704
v -3.199998 0.863126 0.03942704
v -3.199998 2.223129 0.03942704
v -1.599997 3.583124 0.03942704
v -3.199998 3.583124 0.03942704
v -3.33786E-06 2.223129 0.03942704
v 1.599998 0.863126 0.03942704
v -3.33786E-06 0.863126 0.03942704
v -1.599997 2.223129 0.03942704
v 1.599998 3.583124 0.03942704
v -3.33786E-06 3.583124 0.03942704
v 1.599998 2.223129 0.03942704
v 3.199998 0.863126 0.03942704
v 1.599998 0.863126 0.03942704
v -3.33786E-06 2.223129 0.03942704
v 3.199998 3.583124 0.03942704
v 1.599998 3.583124 0.03942704
v 3.199998 2.223129 0.03942704
v 3.199998 0.863126 0.03942704
v 1.599998 2.223129 0.03942704
v 3.199998 3.583124 0.03942704
v -1.599997 2.223129 0.03942704
v -3.33786E-06 0.863126 0.03942704
v -1.599997 0.863126 0.03942704
v -3.199998 2.223129 0.03942704
v -3.33786E-06 3.583124 0.03942704
v -1.599997 3.583124 0.03942704
vt 0.9057009 0.3419001
vt 0.9055066 0.07550427
vt 0.884495 0.07550427
vt 0.8848387 0.3419001
vt 0.6608696 0.4235852
vt 0.6608696 0.4084766
vt 0.6486452 0.4084766
vt 0.6486452 0.4235852
vt 0.6608696 0.02683093
vt 0.6486452 0.02683093
vt 0.6608696 0.01170737
vt 0.6486452 0.01170737
vt 0.6138102 0.8806693
vt 0.6175164 0.8655457
vt 0.6073692 0.8625718
vt 0.6049483 0.8703727
vt 0.6175164 0.4839001
vt 0.6073692 0.486874
vt 0.6049483 0.4790731
vt 0.6138102 0.4687765
vt 0.7410155 0.4636208
vt 0.7408511 0.7300315
vt 0.7635065 0.726669
vt 0.7632973 0.4629632
vt 0.7734445 0.4245117
vt 0.7710235 0.4167258
vt 0.7608764 0.4196997
vt 0.7645975 0.4348083
vt 0.7710235 0.041013
vt 0.7608764 0.03805404
vt 0.7645975 0.02293049
vt 0.7734445 0.03322706
vt 0.9909129 0.4534587
vt 0.968631 0.4528011
vt 0.9684218 0.716492
vt 0.9910772 0.7198545
vt 0.8086829 0.4104492
vt 0.8086829 0.4026633
vt 0.7964585 0.4026633
vt 0.7964585 0.4104492
vt 0.8086829 0.02695048
vt 0.7964585 0.02695048
vt 0.7964585 0.01916454
vt 0.8086829 0.01916454
vt 0.8081897 0.4663107
vt 0.7871633 0.4663107
vt 0.7869689 0.7300016
vt 0.8078311 0.7300016
vt 0.8527684 0.4215079
vt 0.8725994 0.4981569
vt 0.8837329 0.5659887
vt 0.8948812 0.4979775
vt 0.7308534 0.7270426
vt 0.7306442 0.4633518
vt 0.7083623 0.4639944
vt 0.708198 0.7304051
vt 0.8438467 0.7443779
vt 0.8442054 0.4806721
vt 0.8231788 0.4806721
vt 0.8229995 0.7443779
vt 0.9443914 0.7198545
vt 0.944227 0.4534587
vt 0.9219452 0.4528011
vt 0.921736 0.716492
vt 0.9876102 0.3469363
vt 0.9874308 0.08052553
vt 0.9664043 0.08052553
vt 0.966763 0.3469213
vt 0.8732271 0.6455817
vt 0.8954939 0.6454173
vt 0.8843755 0.5775705
vt 0.869476 0.5890925
vt 0.8854963 0.8334904
vt 0.8921614 0.8691174
vt 0.8988414 0.8336996
vt 0.8832397 0.8621982
vt 0.713279 0.02623316
vt 0.7130847 0.01288797
vt 0.6974531 0.03065665
vt 0.7078543 0.03370527
vt 0.7078543 0.406489
vt 0.6974531 0.4095376
vt 0.7223203 0.4273063
vt 0.7225145 0.4139611
vt 0.9200324 0.7968321
vt 0.9107968 0.7882542
vt 0.9064181 0.7907498
vt 0.9080321 0.8023018
vt 0.4557452 0.4662659
vt 0.4555509 0.4796111
vt 0.4702111 0.4870981
vt 0.4806123 0.4840495
vt 0.4806123 0.8629155
vt 0.4702111 0.8598819
vt 0.4647864 0.867354
vt 0.4649657 0.8806992
vt 0.8739443 0.7140262
vt 0.8761113 0.7075255
vt 0.8675184 0.6982899
vt 0.8622131 0.718913
vt 0.5344415 0.4851106
vt 0.5344415 0.8639915
vt 0.5469797 0.8639915
vt 0.5469797 0.4851106
vt 0.6589268 0.4841242
vt 0.6589268 0.856908
vt 0.67148 0.856908
vt 0.67148 0.4841242
vt 0.9341696 0.8639467
vt 0.9274895 0.8283346
vt 0.9208094 0.8637375
vt 0.9008589 0.7539871
vt 0.8652468 0.7784508
vt 0.8738397 0.7876863
vt 0.8599416 0.7990738
vt 0.8716579 0.794187
vt 0.975311 0.770605
vt 0.9845466 0.779198
vt 0.9889252 0.7767023
vt 0.9873112 0.7651504
vt 0.2724692 0.05214645
vt 0.1255824 0.1990332
vt 0.1255824 0.05214645
vt 0.2724692 0.345935
vt 0.1255824 0.345935
vt 0.3145073 0.1990332
vt 0.1676055 0.1990332
vt 0.3145073 0.05214645
vt 0.461409 0.05214645
vt 0.461409 0.345935
vt 0.3145073 0.345935
vt 0.2110932 0.6441022
vt 0.2110932 0.7910039
vt 0.06420644 0.6441022
vt 0.06420644 0.4972004
vt 0.357995 0.4972004
vt 0.357995 0.6441022
vt 0.5001594 0.1990332
vt 0.3532577 0.1990332
vt 0.5001594 0.05214645
vt 0.5001594 0.345935
vt 0.2110932 0.8281105
vt 0.2110932 0.9750122
vt 0.06420644 0.8281105
vt 0.06420644 0.6812087
vt 0.357995 0.6812087
vt 0.357995 0.8281105
vt 0.2724692 0.05214645
vt 0.1255824 0.05214645
vt 0.1255824 0.1990332
vt 0.2724692 0.345935
vt 0.1255824 0.345935
vt 0.3145073 0.1990332
vt 0.461409 0.05214645
vt 0.3145073 0.05214645
vt 0.1676055 0.1990332
vt 0.461409 0.345935
vt 0.3145073 0.345935
vt 0.2110932 0.6441022
vt 0.06420644 0.4972004
vt 0.06420644 0.6441022
vt 0.2110932 0.7910039
vt 0.357995 0.4972004
vt 0.357995 0.6441022
vt 0.5001594 0.1990332
vt 0.5001594 0.05214645
vt 0.3532577 0.1990332
vt 0.5001594 0.345935
vt 0.2110932 0.8281105
vt 0.06420644 0.6812087
vt 0.06420644 0.8281105
vt 0.2110932 0.9750122
vt 0.357995 0.6812087
vt 0.357995 0.8281105
vn -0.7318854 0.09108084 0.6753133
vn -0.6763054 -0.02988738 0.7360148
vn -0.6763054 -0.02825266 -0.7360794
vn -0.7318854 0.0927155 -0.6750908
vn -0.7318854 0.0927155 -0.6750908
vn -0.03386611 0.8299677 -0.5567825
vn -0.03386611 0.8299677 0.5567825
vn -0.7318854 0.09108084 0.6753133
vn 0.03315681 0.8299677 -0.5568252
vn 0.03315681 0.8299677 0.5568252
vn 0.7311761 0.09108084 -0.6760812
vn 0.7311761 0.0927155 0.675859
vn -0.7318854 0.09108084 0.6753133
vn -0.03386611 0.8299677 0.5567825
vn 0.01517504 -0.7033861 0.710646
vn 0.6167467 -0.04459977 0.7858972
vn 0.03315681 0.8299677 0.5568252
vn -0.01424968 -0.7033861 0.7106652
vn -0.617456 -0.04296505 0.7854311
vn 0.7311761 0.0927155 0.675859
vn -0.6763054 -0.02988738 0.7360148
vn -0.7318854 0.09108084 0.6753133
vn 0.6167467 -0.04459977 0.7858972
vn 0.6854043 -0.02988738 0.7275491
vn 0.6183814 -0.04296505 -0.7847028
vn 0.01517504 -0.7033861 -0.710646
vn -0.03386611 0.8299677 -0.5567825
vn -0.7318854 0.0927155 -0.6750908
vn -0.01424968 -0.7033861 -0.7106652
vn 0.03315681 0.8299677 -0.5568252
vn 0.7311761 0.09108084 -0.6760812
vn -0.617456 -0.04459977 -0.78534
vn -0.6763054 -0.02825266 -0.7360794
vn 0.6854043 -0.02825266 -0.7276144
vn 0.6183814 -0.04296505 -0.7847028
vn -0.7318854 0.0927155 -0.6750908
vn 0.6167467 -0.04459977 0.7858972
vn 0.01517504 -0.7033861 0.710646
vn 0.01517504 -0.7033861 -0.710646
vn 0.6183814 -0.04296505 -0.7847028
vn -0.01424968 -0.7033861 0.7106652
vn -0.01424968 -0.7033861 -0.7106652
vn -0.617456 -0.04459977 -0.78534
vn -0.617456 -0.04296505 0.7854311
vn 0.6854043 -0.02825266 -0.7276144
vn 0.6854043 -0.02988738 0.7275491
vn 0.6167467 -0.04459977 0.7858972
vn 0.6183814 -0.04296505 -0.7847028
vn -0.6763054 -0.02825266 -0.7360794
vn 0.6854043 -0.02988738 0.7275491
vn -0.6763054 -0.02825266 -0.7360794
vn -0.6763054 -0.02988738 0.7360148
vn -0.617456 -0.04459977 -0.78534
vn -0.6861137 -0.02988738 -0.7268802
vn 0.6772308 -0.02988738 -0.7351633
vn 0.7311761 0.09108084 -0.6760812
vn -0.617456 -0.04296505 0.7854311
vn -0.6861137 -0.02825266 0.7269456
vn -0.6861137 -0.02988738 -0.7268802
vn -0.617456 -0.04459977 -0.78534
vn 0.7311761 0.0927155 0.675859
vn 0.6772308 -0.02825266 0.7352279
vn -0.6861137 -0.02825266 0.7269456
vn -0.617456 -0.04296505 0.7854311
vn 0.7311761 0.09108084 -0.6760812
vn 0.6772308 -0.02988738 -0.7351633
vn 0.6772308 -0.02825266 0.7352279
vn 0.7311761 0.0927155 0.675859
vn 0.6772308 -0.02988738 -0.7351633
vn -0.6861137 -0.02988738 -0.7268802
vn -0.6861137 -0.02825266 0.7269456
vn 0.6772308 -0.02825266 0.7352279
vn 0.7916602 0.1728161 0.5860109
vn -0.4163873 -0.2849014 -0.8633961
vn -0.1973367 -0.670692 0.7150038
vn 0.8341625 0.5455289 -0.08106204
vn -0.4163873 -0.2849014 -0.8633961
vn 0.8341625 0.5455289 -0.08106204
vn 0.04133034 0.8381413 -0.5438851
vn -0.02405787 -0.698482 -0.7152231
vn 0.007001519 -0.698482 -0.7155934
vn -0.03713554 0.8201595 -0.5709285
vn -0.7907348 0.1728161 -0.5872589
vn 0.1982621 -0.670692 -0.7147478
vn -0.1973367 -0.670692 0.7150038
vn -0.4163873 -0.2849014 -0.8633961
vn -0.02405787 -0.698482 -0.7152231
vn -0.007710814 -0.698482 0.7155861
vn 0.7916602 0.1728161 0.5860109
vn -0.1973367 -0.670692 0.7150038
vn -0.007710814 -0.698482 0.7155861
vn 0.0380609 0.8201595 0.5708675
vn -0.04040492 0.8381413 0.5439546
vn 0.02498329 -0.698482 0.7151914
vn 0.4173126 -0.2849014 0.8629492
vn -0.8348718 0.5455289 0.07339746
vn 0.04133034 0.8381413 -0.5438851
vn 0.8341625 0.5455289 -0.08106204
vn 0.7916602 0.1728161 0.5860109
vn 0.0380609 0.8201595 0.5708675
vn 0.0380609 0.8201595 0.5708675
vn -0.04040492 0.8381413 0.5439546
vn -0.03713554 0.8201595 -0.5709285
vn 0.04133034 0.8381413 -0.5438851
vn -0.02405787 -0.698482 -0.7152231
vn 0.007001519 -0.698482 -0.7155934
vn 0.02498329 -0.698482 0.7151914
vn -0.007710814 -0.698482 0.7155861
vn -0.7907348 0.1728161 -0.5872589
vn 0.4173126 -0.2849014 0.8629492
vn 0.1982621 -0.670692 -0.7147478
vn 0.4173126 -0.2849014 0.8629492
vn -0.7907348 0.1728161 -0.5872589
vn -0.8348718 0.5455289 0.07339746
vn -0.03713554 0.8201595 -0.5709285
vn -0.04040492 0.8381413 0.5439546
vn 0.1982621 -0.670692 -0.7147478
vn 0.4173126 -0.2849014 0.8629492
vn 0.02498329 -0.698482 0.7151914
vn 0.007001519 -0.698482 -0.7155934
vn 0.0004627109 -0.0004627109 -0.9999998
vn 0.0004627109 -0.0004627109 -0.9999998
vn 0.0004627109 -0.0004627109 -0.9999998
vn 0.0004627109 -0.0004627109 -0.9999998
vn 0.0004627109 -0.0004627109 -0.9999998
vn 0.0004627109 -0.0004627109 -0.9999998
vn 0.0004627109 -0.0004627109 -0.9999998
vn 0.0004627109 -0.0004627109 -0.9999998
vn 0.0004627109 -0.0004627109 -0.9999998
vn 0.0004627109 -0.0004627109 -0.9999998
vn 0.0004627109 -0.0004627109 -0.9999998
vn 0.0004627109 -0.0004627109 -0.9999998
vn 0.0004627109 -0.0004627109 -0.9999998
vn 0.0004627109 -0.0004627109 -0.9999998
vn 0.0004627109 -0.0004627109 -0.9999998
vn 0.0004627109 -0.0004627109 -0.9999998
vn 0.0004627109 -0.0004627109 -0.9999998
vn 0.0004627109 -0.0004627109 -0.9999998
vn 0.0004627109 -0.0004627109 -0.9999998
vn 0.0004627109 -0.0004627109 -0.9999998
vn 0.0004627109 -0.0004627109 -0.9999998
vn 0.0004627109 -0.0004627109 -0.9999998
vn 0.0004627109 -0.0004627109 -0.9999998
vn 0.0004627109 -0.0004627109 -0.9999998
vn 0.0004627109 -0.0004627109 -0.9999998
vn 0.0004627109 -0.0004627109 -0.9999998
vn 0.0004627109 -0.0004627109 -0.9999998
vn 0.0004627109 -0.0004627109 0.9999998
vn 0.0004627109 -0.0004627109 0.9999998
vn 0.0004627109 -0.0004627109 0.9999998
vn 0.0004627109 -0.0004627109 0.9999998
vn 0.0004627109 -0.0004627109 0.9999998
vn 0.0004627109 -0.0004627109 0.9999998
vn 0.0004627109 -0.0004627109 0.9999998
vn 0.0004627109 -0.0004627109 0.9999998
vn 0.0004627109 -0.0004627109 0.9999998
vn 0.0004627109 -0.0004627109 0.9999998
vn 0.0004627109 -0.0004627109 0.9999998
vn 0.0004627109 -0.0004627109 0.9999998
vn 0.0004627109 -0.0004627109 0.9999998
vn 0.0004627109 -0.0004627109 0.9999998
vn 0.0004627109 -0.0004627109 0.9999998
vn 0.0004627109 -0.0004627109 0.9999998
vn 0.0004627109 -0.0004627109 0.9999998
vn 0.0004627109 -0.0004627109 0.9999998
vn 0.0004627109 -0.0004627109 0.9999998
vn 0.0004627109 -0.0004627109 0.9999998
vn 0.0004627109 -0.0004627109 0.9999998
vn 0.0004627109 -0.0004627109 0.9999998
vn 0.0004627109 -0.0004627109 0.9999998
vn 0.0004627109 -0.0004627109 0.9999998
vn 0.0004627109 -0.0004627109 0.9999998
vn 0.0004627109 -0.0004627109 0.9999998
vn 0.0004627109 -0.0004627109 0.9999998
g Body_LOD1_0
f 3/3/3 2/2/2 1/1/1
f 4/4/4 3/3/3 1/1/1
f 7/7/7 6/6/6 5/5/5
f 8/8/8 7/7/7 5/5/5
f 9/9/9 6/6/6 7/7/7
f 10/10/10 9/9/9 7/7/7
f 11/11/11 9/9/9 10/10/10
f 12/12/12 11/11/11 10/10/10
f 15/15/15 14/14/14 13/13/13
f 16/16/16 15/15/15 13/13/13
f 17/17/17 14/14/14 15/15/15
f 18/18/18 17/17/17 15/15/15
f 17/17/17 18/18/18 19/19/19
f 20/20/20 17/17/17 19/19/19
f 23/23/23 22/22/22 21/21/21
f 24/24/24 23/23/23 21/21/21
f 27/27/27 26/26/26 25/25/25
f 28/28/28 27/27/27 25/25/25
f 29/29/29 26/26/26 27/27/27
f 30/30/30 29/29/29 27/27/27
f 29/29/29 30/30/30 31/31/31
f 32/32/32 29/29/29 31/31/31
f 35/35/35 34/34/34 33/33/33
f 36/36/36 35/35/35 33/33/33
f 39/39/39 38/38/38 37/37/37
f 40/40/40 39/39/39 37/37/37
f 41/41/41 38/38/38 39/39/39
f 42/42/42 41/41/41 39/39/39
f 41/41/41 42/42/42 43/43/43
f 44/44/44 41/41/41 43/43/43
f 47/47/47 46/46/46 45/45/45
f 48/48/48 47/47/47 45/45/45
f 45/45/45 46/46/46 49/49/49
f 52/52/52 51/51/51 50/50/50
f 55/55/55 54/54/54 53/53/53
f 56/56/56 55/55/55 53/53/53
f 59/59/59 58/58/58 57/57/57
f 60/60/60 59/59/59 57/57/57
f 63/63/63 62/62/62 61/61/61
f 64/64/64 63/63/63 61/61/61
f 67/67/67 66/66/66 65/65/65
f 68/68/68 67/67/67 65/65/65
f 71/71/71 70/70/70 69/69/69
f 69/69/69 72/72/72 71/71/71
f 75/75/75 74/74/74 73/73/73
f 76/76/76 73/73/73 74/74/74
f 79/79/79 78/78/78 77/77/77
f 80/80/80 79/79/79 77/77/77
f 80/80/80 81/81/81 79/79/79
f 81/81/81 82/82/82 79/79/79
f 82/82/82 81/81/81 83/83/83
f 81/81/81 84/84/84 83/83/83
f 87/87/87 86/86/86 85/85/85
f 88/88/88 87/87/87 85/85/85
f 91/91/91 90/90/90 89/89/89
f 92/92/92 91/91/91 89/89/89
f 92/92/92 93/93/93 91/91/91
f 93/93/93 94/94/94 91/91/91
f 94/94/94 93/93/93 95/95/95
f 93/93/93 96/96/96 95/95/95
f 99/99/99 98/98/98 97/97/97
f 100/100/100 99/99/99 97/97/97
f 103/103/103 102/102/102 101/101/101
f 104/104/104 103/103/103 101/101/101
f 107/107/107 106/106/106 105/105/105
f 108/108/108 107/107/107 105/105/105
f 111/111/111 110/110/110 109/109/109
f 114/114/114 113/113/113 112/112/112
f 115/115/115 113/113/113 114/114/114
f 116/116/116 115/115/115 114/114/114
f 119/119/119 118/118/118 117/117/117
f 120/120/120 119/119/119 117/117/117
f 123/123/123 122/122/122 121/121/121
f 122/122/122 125/125/125 124/124/124
f 128/128/128 127/127/127 126/126/126
f 129/129/129 128/128/128 126/126/126
f 126/126/126 127/127/127 130/130/130
f 127/127/127 131/131/131 130/130/130
f 134/134/134 133/133/133 132/132/132
f 135/135/135 134/134/134 132/132/132
f 132/132/132 133/133/133 136/136/136
f 133/133/133 137/137/137 136/136/136
f 140/140/140 139/139/139 138/138/138
f 138/138/138 139/139/139 141/141/141
f 144/144/144 143/143/143 142/142/142
f 145/145/145 144/144/144 142/142/142
f 142/142/142 143/143/143 146/146/146
f 143/143/143 147/147/147 146/146/146
f 150/150/150 149/149/149 148/148/148
f 152/152/152 150/150/150 151/151/151
f 155/155/155 154/154/154 153/153/153
f 156/156/156 155/155/155 153/153/153
f 156/156/156 153/153/153 157/157/157
f 158/158/158 156/156/156 157/157/157
f 161/161/161 160/160/160 159/159/159
f 162/162/162 161/161/161 159/159/159
f 162/162/162 159/159/159 163/163/163
f 164/164/164 162/162/162 163/163/163
f 167/167/167 166/166/166 165/165/165
f 167/167/167 165/165/165 168/168/168
f 171/171/171 170/170/170 169/169/169
f 172/172/172 171/171/171 169/169/169
f 172/172/172 169/169/169 173/173/173
f 174/174/174 172/172/172 173/173/173
