g Body_LOD1
v 4.074327 -1.100455 -2.101386
v 4.793415 -0.006609917 0.002232075
v 3.257233 2.044187 -2.793025
v 2.489018 0.002250195 -4.075004
v 3.873265 2.385718 1.479248
v 4.018425 0.005093575 2.482226
v 2.122123 4.120951 -1.126715
v 0.6895442 3.226833 -3.433644
v 1.444519 4.546134 -0.01162004
v -0.003384113 0.005569458 -4.721118
v 2.373538 -1.463894 -3.84354
v 0.6848812 -3.225432 -3.43647
v -0.6828256 3.233745 -3.430535
v -2.373942 1.476824 -3.836317
v 2.132437 4.122908 1.103813
v 3.262334 2.055671 2.782622
v 1.096789 2.104743 4.079486
v 2.367622 1.467891 3.846367
v -2.374481 -1.474875 -3.836893
v -4.075042 1.113935 -2.096641
v -3.869473 -2.394055 -1.479008
v -4.794066 0.001116276 -0.002632141
v -3.870807 -2.392748 1.477766
v -4.075801 1.105102 2.097612
v -2.36905 -1.475131 3.841321
v -2.131808 -4.114512 -1.12645
v -2.123963 -4.128501 1.104124
v -1.434344 -4.550019 -0.01620102
v -2.487831 0.002606869 4.075939
v -0.6996493 -3.229007 3.428215
v 0.6870756 -3.232427 3.430044
v 0.00332737 -0.002550125 4.721504
v 2.374552 -1.468392 3.840287
v 2.367622 1.467891 3.846367
v 3.401798 0.682076 3.194036
v 4.018425 0.005093575 2.482226
v 1.096789 2.104743 4.079486
v 0.004351139 2.486716 4.021691
v 4.076686 -1.140924 2.086795
v 3.254279 -2.047495 2.79374
v 1.464397 -3.844473 2.36894
v 2.131861 -4.119587 1.113349
v 3.869654 -2.394128 1.478644
v -2.376493 1.471393 3.837069
v -0.6845903 3.238985 3.425673
v -3.867333 2.395767 1.481323
v -1.455374 3.847886 2.370787
v -2.1114 4.129326 1.123764
v -3.217754 3.429705 0.6879916
v -2.501199 4.072062 0.004142761
v 3.22908 -3.420331 0.693048
v 2.519603 -4.057951 0.004042149
v -3.867333 2.395767 1.481323
v -3.865952 2.400595 -1.477517
v -3.217754 3.429705 0.6879916
v -3.220661 3.427547 -0.6874323
v -2.501199 4.072062 0.004142761
v -4.075042 1.113935 -2.096641
v 0.004351139 2.486716 4.021691
v -0.6845903 3.238985 3.425673
v 0.762682 4.529521 1.271273
v -1.455374 3.847886 2.370787
v -2.1114 4.129326 1.123764
v 0.008182526 4.792593 -0.01353121
v -1.418938 4.55718 -0.005494118
v -2.501199 4.072062 0.004142761
v 0.008182526 4.792593 -0.01353121
v 0.7515635 4.528177 -1.284776
v -1.464828 3.839035 -2.377689
v -2.113567 4.132645 -1.11151
v -1.418938 4.55718 -0.005494118
v -2.501199 4.072062 0.004142761
v 3.868703 -2.396981 -1.477966
v 3.232801 -3.419436 -0.678545
v 3.869654 -2.394128 1.478644
v 3.22908 -3.420331 0.693048
v 2.519603 -4.057951 0.004042149
v 4.074327 -1.100455 -2.101386
v 4.076686 -1.140924 2.086795
v 3.401798 0.682076 3.194036
v 1.471364 -3.837012 -2.375586
v 2.129319 -4.121242 -1.113503
v 3.868703 -2.396981 -1.477966
v 3.232801 -3.419436 -0.678545
v 2.519603 -4.057951 0.004042149
v 0.6848812 -3.225432 -3.43647
v -1.464828 3.839035 -2.377689
v -2.113567 4.132645 -1.11151
v -3.865952 2.400595 -1.477517
v -3.220661 3.427547 -0.6874323
v -2.501199 4.072062 0.004142761
v -0.6828256 3.233745 -3.430535
v -0.6809516 -3.227571 -3.436168
v -0.743638 -4.53293 -1.276666
v -0.00950098 -4.793031 -0.008090973
v 1.443907 -4.547038 0.002707481
v 1.471364 -3.837012 -2.375586
v 2.129319 -4.121242 -1.113503
v 2.519603 -4.057951 0.004042149
v -0.00950098 -4.793031 -0.008090973
v 1.464397 -3.844473 2.36894
v 1.443907 -4.547038 0.002707481
v 2.131861 -4.119587 1.113349
v 2.519603 -4.057951 0.004042149
vt 0.7045395 0.6249943
vt 0.8181887 0.5833371
vt 0.7272755 0.5000076
vt 0.6590982 0.5416648
vt 0.8636301 0.5000076
vt 0.9090868 0.5833371
vt 0.7727321 0.4166628
vt 0.6818189 0.4166628
vt 0.7954528 0.3750057
vt 0.5909056 0.5000076
vt 0.6363623 0.5833371
vt 0.5227283 0.6249943
vt 0.6590982 0.3750057
vt 0.545449 0.4166628
vt 0.8636301 0.4166628
vt 0.9090868 0.5000076
vt 0.9772793 0.4583353
vt 0.9545434 0.5000076
vt 0.5000076 0.5000076
vt 0.4772717 0.3750057
vt 0.4090944 0.5000076
vt 0.3636377 0.4166628
vt 0.3181811 0.5000076
vt 0.2500038 0.3750057
vt 0.2272679 0.5000076
vt 0.4090944 0.5833371
vt 0.3181811 0.5833371
vt 0.3863584 0.6249943
vt 0.2045472 0.4583353
vt 0.2272679 0.5833371
vt 0.2045472 0.6249943
vt 0.1363699 0.5000076
vt 0.09091325 0.5833371
vt 0.04545663 0.5000076
vt 0.02272068 0.5416648
vt 0 0.5833371
vt 0.06817731 0.4583353
vt 0.09091325 0.4166628
vt 0.02272068 0.6249943
vt 0.06817731 0.6249943
vt 0.1363699 0.6666667
vt 0.1136339 0.708339
vt 0.04545663 0.6666667
vt 0.1818112 0.4166628
vt 0.1136339 0.3750057
vt 0.2272679 0.3333333
vt 0.1363699 0.3333333
vt 0.1590906 0.2916609
vt 0.2045472 0.2916609
vt 0.1818112 0.2500038
vt 0.06817731 0.708339
vt 0.09091325 0.7499962
vt 0.3181811 0.3333333
vt 0.4090944 0.3333333
vt 0.3409018 0.2916609
vt 0.3863584 0.2916609
vt 0.3636377 0.2500038
vt 0.4318151 0.3750057
vt 1 0.4166628
vt 0.9772793 0.3750057
vt 0.8863661 0.3750057
vt 0.9545434 0.3333333
vt 0.9318227 0.2916609
vt 0.8636301 0.3333333
vt 0.8863661 0.2916609
vt 0.9090868 0.2500038
vt 0.7727321 0.3333333
vt 0.7499962 0.3750057
vt 0.6818189 0.3333333
vt 0.7045395 0.2916609
vt 0.7499962 0.2916609
vt 0.7272755 0.2500038
vt 0.7727321 0.6666667
vt 0.7954528 0.708339
vt 0.8636301 0.6666667
vt 0.8409094 0.708339
vt 0.8181887 0.7499962
vt 0.7499962 0.6249943
vt 0.8863661 0.6249943
vt 0.9318227 0.5416648
vt 0.5909056 0.6666667
vt 0.6136416 0.708339
vt 0.6818189 0.6666667
vt 0.6590982 0.708339
vt 0.6363623 0.7499962
vt 0.5681849 0.6249943
vt 0.5909056 0.3333333
vt 0.5681849 0.2916609
vt 0.5000076 0.3333333
vt 0.5227283 0.2916609
vt 0.545449 0.2500038
vt 0.6136416 0.3750057
vt 0.5000076 0.5833371
vt 0.4318151 0.6249943
vt 0.4090944 0.6666667
vt 0.4318151 0.708339
vt 0.5000076 0.6666667
vt 0.4772717 0.708339
vt 0.454551 0.7499962
vt 0.3181811 0.6666667
vt 0.2272679 0.6666667
vt 0.2954604 0.708339
vt 0.2500038 0.708339
vt 0.2727245 0.7499962
vn 0.8802723 -0.06678456 -0.4697451
vn 0.9870547 0.1312482 -0.09217852
vn 0.7404845 0.445771 -0.5029622
vn 0.4997387 0.1409557 -0.8546302
vn 0.8647403 0.4962499 0.0772025
vn 0.8841553 0.03805637 0.4656406
vn 0.6472925 0.7195221 -0.2515956
vn 0.2454024 0.5758513 -0.7798544
vn 0.4570257 0.8884325 0.04260516
vn -0.01669979 -0.006598115 -0.9998388
vn 0.4240202 -0.3890733 -0.8178196
vn 0.09979004 -0.5638081 -0.8198551
vn -0.1409557 0.5836173 -0.7997014
vn -0.4787765 0.2632701 -0.8375333
vn 0.4880897 0.7874746 0.3763671
vn 0.5754571 0.5719683 0.5845523
vn 0.2764664 0.5467288 0.7903505
vn 0.4220787 0.1720197 0.8900892
vn -0.5195478 -0.3036473 -0.7986666
vn -0.8534856 0.05358827 -0.5183538
vn -0.8146555 -0.4647917 -0.3468502
vn -0.9990979 -0.04154509 -0.008791142
vn -0.8127141 -0.4589672 0.3589497
vn -0.855427 0.07882774 0.5118895
vn -0.5137234 -0.3793658 0.7695258
vn -0.5758513 -0.7560164 -0.3111823
vn -0.441888 -0.8239689 0.3546974
vn -0.3098661 -0.9501662 0.03416312
vn -0.5273138 0.02640736 0.8492602
vn -0.2496796 -0.7327185 0.6330748
vn 0.1133806 -0.5094461 0.8530003
vn -0.001167834 -0.08619958 0.9962772
vn 0.3677168 -0.2667589 0.8908558
vn 0.4220787 0.1720197 0.8900892
vn 0.672532 0.05358827 0.7381254
vn 0.8841553 0.03805637 0.4656406
vn 0.2764664 0.5467288 0.7903505
vn -0.1176578 0.3700525 0.9215302
vn 0.8919213 -0.1988065 0.4061433
vn 0.6123456 -0.5113876 0.6029226
vn 0.2182214 -0.8433838 0.4910021
vn 0.4550842 -0.8181444 0.3514799
vn 0.8511499 -0.4803237 0.2117383
vn -0.5350798 0.3972335 0.7455837
vn -0.1293067 0.7175807 0.6843666
vn -0.8185385 0.4826593 0.3115037
vn -0.337047 0.7738841 0.5361928
vn -0.3952919 0.8534856 0.3395683
vn -0.7544692 0.6418623 0.1370734
vn -0.5331384 0.8457196 0.02284379
vn 0.7171865 -0.672532 0.1826043
vn 0.5345618 -0.8451295 0
vn -0.8185385 0.4826593 0.3115037
vn -0.7835916 0.5176064 -0.34361
vn -0.7544692 0.6418623 0.1370734
vn -0.7175807 0.6748677 -0.172138
vn -0.5331384 0.8457196 0.02284379
vn -0.8534856 0.05358827 -0.5183538
vn -0.1176578 0.3700525 0.9215302
vn -0.1293067 0.7175807 0.6843666
vn 0.142503 0.8767835 0.4592859
vn -0.337047 0.7738841 0.5361928
vn -0.3952919 0.8534856 0.3395683
vn -0.08266274 0.9965776 0
vn -0.2301011 0.9731667 0
vn -0.5331384 0.8457196 0.02284379
vn -0.08266274 0.9965776 0
vn 0.08619958 0.921438 -0.3788425
vn -0.368111 0.7835916 -0.5004782
vn -0.430239 0.8010651 -0.41616
vn -0.2301011 0.9731667 0
vn -0.5331384 0.8457196 0.02284379
vn 0.7870804 -0.5172122 -0.3361488
vn 0.7560164 -0.641468 -0.1302224
vn 0.8511499 -0.4803237 0.2117383
vn 0.7171865 -0.672532 0.1826043
vn 0.5345618 -0.8451295 0
vn 0.8802723 -0.06678456 -0.4697451
vn 0.8919213 -0.1988065 0.4061433
vn 0.672532 0.05358827 0.7381254
vn 0.3599508 -0.7929049 -0.4916679
vn 0.4803237 -0.7618409 -0.4346119
vn 0.7870804 -0.5172122 -0.3361488
vn 0.7560164 -0.641468 -0.1302224
vn 0.5345618 -0.8451295 0
vn 0.09979004 -0.5638081 -0.8198551
vn -0.368111 0.7835916 -0.5004782
vn -0.430239 0.8010651 -0.41616
vn -0.7835916 0.5176064 -0.34361
vn -0.7175807 0.6748677 -0.172138
vn -0.5331384 0.8457196 0.02284379
vn -0.1409557 0.5836173 -0.7997014
vn -0.2846266 -0.6531171 -0.7017305
vn -0.07494473 -0.9249268 -0.3726846
vn -0.003109336 -0.9754057 0.2203953
vn 0.200748 -0.9792887 -0.02634118
vn 0.3599508 -0.7929049 -0.4916679
vn 0.4803237 -0.7618409 -0.4346119
vn 0.5345618 -0.8451295 0
vn -0.003109336 -0.9754057 0.2203953
vn 0.2182214 -0.8433838 0.4910021
vn 0.200748 -0.9792887 -0.02634118
vn 0.4550842 -0.8181444 0.3514799
vn 0.5345618 -0.8451295 0
g Body_LOD1_0
f 3/3/3 2/2/2 1/1/1
f 4/4/4 3/3/3 1/1/1
f 2/2/2 3/3/3 5/5/5
f 5/5/5 6/6/6 2/2/2
f 5/5/5 3/3/3 7/7/7
f 3/3/3 8/8/8 7/7/7
f 3/3/3 4/4/4 8/8/8
f 7/7/7 9/9/9 5/5/5
f 4/4/4 10/10/10 8/8/8
f 4/4/4 11/11/11 10/10/10
f 1/1/1 11/11/11 4/4/4
f 11/11/11 12/12/12 10/10/10
f 10/10/10 13/13/13 8/8/8
f 10/10/10 14/14/14 13/13/13
f 5/5/5 9/9/9 15/15/15
f 16/16/16 5/5/5 15/15/15
f 6/6/6 5/5/5 16/16/16
f 16/16/16 15/15/15 17/17/17
f 16/16/16 17/17/17 18/18/18
f 14/14/14 10/10/10 19/19/19
f 10/10/10 12/12/12 19/19/19
f 19/19/19 20/20/20 14/14/14
f 19/19/19 21/21/21 20/20/20
f 21/21/21 22/22/22 20/20/20
f 22/22/22 21/21/21 23/23/23
f 23/23/23 24/24/24 22/22/22
f 23/23/23 25/25/25 24/24/24
f 23/23/23 21/21/21 26/26/26
f 23/23/23 26/26/26 27/27/27
f 25/25/25 23/23/23 27/27/27
f 26/26/26 28/28/28 27/27/27
f 29/29/29 24/24/24 25/25/25
f 25/25/25 27/27/27 30/30/30
f 30/30/30 31/31/31 25/25/25
f 32/32/32 25/25/25 31/31/31
f 32/32/32 29/29/29 25/25/25
f 33/33/33 32/32/32 31/31/31
f 33/33/33 34/34/34 32/32/32
f 33/33/33 35/35/35 34/34/34
f 33/33/33 36/36/36 35/35/35
f 32/32/32 34/34/34 37/37/37
f 32/32/32 37/37/37 38/38/38
f 29/29/29 32/32/32 38/38/38
f 39/39/39 36/36/36 33/33/33
f 40/40/40 39/39/39 33/33/33
f 40/40/40 33/33/33 31/31/31
f 40/40/40 31/31/31 41/41/41
f 42/42/42 40/40/40 41/41/41
f 42/42/42 43/43/43 40/40/40
f 40/40/40 43/43/43 39/39/39
f 29/29/29 38/38/38 44/44/44
f 45/45/45 44/44/44 38/38/38
f 45/45/45 46/46/46 44/44/44
f 46/46/46 29/29/29 44/44/44
f 45/45/45 47/47/47 46/46/46
f 46/46/46 47/47/47 48/48/48
f 46/46/46 48/48/48 49/49/49
f 48/48/48 50/50/50 49/49/49
f 46/46/46 24/24/24 29/29/29
f 51/51/51 43/43/43 42/42/42
f 51/51/51 42/42/42 52/52/52
f 53/53/53 22/22/22 24/24/24
f 53/53/53 54/54/54 22/22/22
f 54/54/54 53/53/53 55/55/55
f 54/54/54 55/55/55 56/56/56
f 55/55/55 57/57/57 56/56/56
f 54/54/54 58/58/58 22/22/22
f 17/17/17 60/60/60 59/59/59
f 17/17/17 61/61/61 60/60/60
f 61/61/61 62/62/62 60/60/60
f 61/61/61 63/63/63 62/62/62
f 61/61/61 64/64/64 63/63/63
f 61/61/61 9/9/9 64/64/64
f 61/61/61 15/15/15 9/9/9
f 17/17/17 15/15/15 61/61/61
f 63/63/63 64/64/64 65/65/65
f 65/65/65 66/66/66 63/63/63
f 68/68/68 67/67/67 9/9/9
f 68/68/68 69/69/69 67/67/67
f 67/67/67 69/69/69 70/70/70
f 67/67/67 70/70/70 71/71/71
f 70/70/70 72/72/72 71/71/71
f 68/68/68 9/9/9 7/7/7
f 68/68/68 7/7/7 8/8/8
f 13/13/13 69/69/69 68/68/68
f 13/13/13 68/68/68 8/8/8
f 75/75/75 74/74/74 73/73/73
f 2/2/2 75/75/75 73/73/73
f 75/75/75 76/76/76 74/74/74
f 76/76/76 77/77/77 74/74/74
f 73/73/73 78/78/78 2/2/2
f 79/79/79 75/75/75 2/2/2
f 79/79/79 2/2/2 6/6/6
f 6/6/6 16/16/16 80/80/80
f 16/16/16 18/18/18 80/80/80
f 82/82/82 81/81/81 11/11/11
f 11/11/11 83/83/83 82/82/82
f 82/82/82 83/83/83 84/84/84
f 84/84/84 85/85/85 82/82/82
f 11/11/11 81/81/81 86/86/86
f 1/1/1 83/83/83 11/11/11
f 88/88/88 87/87/87 14/14/14
f 89/89/89 88/88/88 14/14/14
f 88/88/88 89/89/89 90/90/90
f 90/90/90 91/91/91 88/88/88
f 14/14/14 87/87/87 92/92/92
f 89/89/89 14/14/14 20/20/20
f 93/93/93 26/26/26 21/21/21
f 21/21/21 19/19/19 93/93/93
f 19/19/19 12/12/12 93/93/93
f 94/94/94 26/26/26 93/93/93
f 12/12/12 94/94/94 93/93/93
f 94/94/94 28/28/28 26/26/26
f 94/94/94 95/95/95 28/28/28
f 96/96/96 95/95/95 94/94/94
f 94/94/94 97/97/97 96/96/96
f 12/12/12 97/97/97 94/94/94
f 96/96/96 97/97/97 98/98/98
f 98/98/98 99/99/99 96/96/96
f 100/100/100 27/27/27 28/28/28
f 101/101/101 27/27/27 100/100/100
f 101/101/101 100/100/100 102/102/102
f 101/101/101 102/102/102 103/103/103
f 102/102/102 104/104/104 103/103/103
f 30/30/30 27/27/27 101/101/101
f 30/30/30 101/101/101 31/31/31
