g Body_LOD1
v -2.329969 -4.768372E-06 -2.717458
v -2.31496 -0.03792763 -1.354409
v -2.31496 1.2161 -5.417705
v -2.329969 0.1496019 -7.750639
v -2.329969 2.179042 -8.100754
v -2.329969 0.1496019 -8.018925
v -2.299959 0.176672 -0.6750507
v -2.299959 1.639738 -5.400455
v -2.31496 -0.2469354 -0.6771965
v 2.669952 -0.03792763 -1.354409
v 2.680134 2.265575 -8.130908
v 2.619908 -4.768372E-06 -8.008391
v 2.678432 2.662825 -8.000356
v 2.686572 -0.01516914 -4.768372E-06
v 2.669952 -0.4559636 1.621246E-05
v 2.310058 1.2161 -5.417705
v 2.310058 -0.03792763 -1.354409
v 2.330071 -4.768372E-06 -2.717458
v 2.330071 0.1496019 -7.750639
v 2.330071 2.179042 -8.100754
v 2.330071 0.1122055 -7.949506
v 2.290044 1.639738 -5.400455
v 2.290044 0.176672 -0.6750507
v 2.310048 -0.2469354 -0.6771965
v 2.619908 -4.768372E-06 -8.008391
v 2.330071 0.1122055 -7.949506
v -2.329969 0.1496019 -8.018925
v -2.619826 -4.768372E-06 -8.008391
v 2.330071 -4.768372E-06 -2.717458
v 2.330071 0.1122055 -7.949506
v 2.330071 0.1496019 -7.750639
v -2.329969 0.1496019 -7.750639
v -2.329969 0.1496019 -8.018925
v 2.330071 0.1122055 -7.949506
v 2.330071 0.1496019 -7.750639
v -2.64997 2.217986 -8.107975
v -2.639778 -0.05428886 -1.358711
v -2.619826 -4.768372E-06 -8.008391
v -2.68649 -0.01516914 -4.768372E-06
v -2.66987 -0.4559636 1.621246E-05
v -2.678361 2.662825 -8.000356
v -2.64997 2.217986 -8.107975
v -2.619826 -4.768372E-06 -8.008391
v -2.329969 0.1496019 -8.018925
v -2.329969 2.179042 -8.100754
v 2.619908 -4.768372E-06 -8.008391
v 2.680134 2.265575 -8.130908
v 2.330071 2.179042 -8.100754
v 2.330071 0.1122055 -7.949506
v -2.329969 2.179042 -8.100754
v -2.64997 2.217986 -8.107975
v -2.329969 1.674122 -5.423894
v 2.33004 1.674122 -5.423894
v 2.290044 1.639738 -5.400455
v -2.299959 1.639738 -5.400455
v -2.678361 2.662825 -8.000356
v -2.64997 2.217986 -8.107975
v 2.680134 2.265575 -8.130908
v 2.678432 2.662825 -8.000356
v -2.678361 2.662825 -8.000356
v 2.678432 2.662825 -8.000356
v 2.330071 2.546044 -7.798775
v -2.329969 2.546044 -7.798775
v 2.330071 1.748482 -5.636131
v 2.33004 1.674122 -5.423894
v 2.33004 0.190093 -0.6101818
v 2.686572 -0.01516914 -4.768372E-06
v -2.678361 2.662825 -8.000356
v -2.329969 1.748482 -5.636131
v -2.329969 1.674122 -5.423894
v -2.329969 2.546044 -7.798775
v -2.68649 -0.01516914 -4.768372E-06
v -2.329969 0.190093 -0.6101818
v -2.299959 1.639738 -5.400455
v 2.290044 1.639738 -5.400455
v 2.310058 1.2161 -5.417705
v -2.31496 1.2161 -5.417705
v 2.669952 -0.4559636 1.621246E-05
v -2.66987 -0.4559636 1.621246E-05
v -2.68649 -0.01516914 -4.768372E-06
v 2.686572 -0.01516914 -4.768372E-06
v 2.330071 1.748482 -5.636131
v 2.33004 1.674122 -5.423894
v -2.329969 1.674122 -5.423894
v -2.329969 1.748482 -5.636131
v -2.299959 1.639738 -5.400455
v -2.299959 0.176672 -0.6750507
v -2.329969 0.190093 -0.6101818
v -2.329969 1.674122 -5.423894
v 2.33004 1.674122 -5.423894
v 2.33004 0.190093 -0.6101818
v 2.290044 0.176672 -0.6750507
v 2.290044 1.639738 -5.400455
v 2.686572 -0.01516914 -4.768372E-06
v -2.68649 -0.01516914 -4.768372E-06
v -2.329969 0.190093 -0.6101818
v 2.33004 0.190093 -0.6101818
v -2.299959 0.176672 -0.6750507
v 2.290044 0.176672 -0.6750507
v 2.33004 0.190093 -0.6101818
v -2.329969 0.190093 -0.6101818
v -2.31496 -0.2469354 -0.6771965
v 2.310048 -0.2469354 -0.6771965
v 2.290044 0.176672 -0.6750507
v -2.299959 0.176672 -0.6750507
v 2.310058 1.2161 -5.417705
v 2.330071 2.179042 -8.100754
v -2.329969 2.179042 -8.100754
v -2.31496 1.2161 -5.417705
v -2.179434 1.835365 -5.815738
v -1.151261 2.490088 -7.614578
v -1.151282 2.162732 -6.715184
v -1.665374 1.835365 -5.815738
v -0.1231203 1.835365 -5.815759
v -0.6371803 1.835365 -5.815738
v -2.329969 1.748482 -5.636131
v -2.329969 2.546044 -7.798775
v 2.330071 2.546044 -7.798775
v 2.330071 1.748482 -5.636131
v 0.1179714 1.835365 -5.815738
v 1.146133 2.490088 -7.614578
v 1.146123 2.162732 -6.715184
v 0.6320214 1.835365 -5.815738
v 2.174285 1.835365 -5.815759
v 1.660214 1.835365 -5.815738
v 2.290044 0.176672 -0.6750507
v -2.299959 0.176672 -0.6750507
v -2.299959 1.639738 -5.400455
v 2.290044 1.639738 -5.400455
v 2.290044 0.176672 -0.6750507
v 2.290044 1.639738 -5.400476
v -2.299959 1.639738 -5.400476
v -2.299959 0.176672 -0.6750507
v 2.290044 0.176672 -0.6750507
v 2.290044 0.176672 -0.6750507
v 2.290044 1.639738 -5.400455
v 2.290044 1.639738 -5.400476
v 2.290044 1.639738 -5.400476
v 2.290044 1.639738 -5.400455
v -2.299959 1.639738 -5.400455
v -2.299959 1.639738 -5.400476
v -2.299959 0.176672 -0.6750507
v -2.299959 0.176672 -0.6750507
v -2.299959 0.176672 -0.6750507
v -2.299959 0.176672 -0.6750507
v 2.290044 0.176672 -0.6750507
v 2.290044 0.176672 -0.6750507
vt 0.7111878 0.5303026
vt 0.7867563 0.5323997
vt 0.5614737 0.4628826
vt 0.432131 0.5220044
vt 0.4127183 0.4094829
vt 0.4172569 0.5220044
vt 0.8244283 0.5205064
vt 0.5624323 0.4393957
vt 0.8243084 0.5439934
vt 0.4814415 0.3648458
vt 0.824623 0.4812018
vt 0.8180622 0.3667631
vt 0.8183318 0.500944
vt 0.4127183 0.3651304
vt 0.4127183 0.3436356
vt 0.5614737 0.4628826
vt 0.7867563 0.5323997
vt 0.7111878 0.5303026
vt 0.432131 0.5220044
vt 0.412239 0.4092282
vt 0.4172569 0.5220044
vt 0.5624323 0.4393957
vt 0.8244283 0.5205064
vt 0.8243084 0.5439934
vt 0.9748613 0.02021132
vt 0.9444392 0.03581933
vt 0.4555579 0.03581933
vt 0.4246565 0.02012144
vt 0.7111878 0.5303026
vt 0.4326552 0.5303026
vt 0.432131 0.5220044
vt 0.4991915 0.6770658
vt 0.4991915 0.7012718
vt 0.9883124 0.7012718
vt 0.9883124 0.6770658
vt 0.8233048 0.4788052
vt 0.4816662 0.3640219
vt 0.8180622 0.366778
vt 0.4127183 0.3651304
vt 0.4127183 0.3436356
vt 0.8182869 0.5006444
vt 0.4219753 0.2528186
vt 0.4246565 0.02012144
vt 0.4555579 0.03581933
vt 0.455543 0.2488192
vt 0.9748613 0.02021132
vt 0.9811974 0.2578515
vt 0.9444541 0.2497329
vt 0.9444392 0.03581933
vt 0.455543 0.2488192
vt 0.4219753 0.2528186
vt 0.04169105 0.4029521
vt 0.3705827 0.4029521
vt 0.3677666 0.4003757
vt 0.04495645 0.4003757
vt 0.4188297 0.2988038
vt 0.4219753 0.2528186
vt 0.9811974 0.2578515
vt 0.9811674 0.2988038
vt 0.01652651 0.5848109
vt 0.3956124 0.5847659
vt 0.3706726 0.5703712
vt 0.04161616 0.5702513
vt 0.3705977 0.4180957
vt 0.3705827 0.4029521
vt 0.3705677 0.06321573
vt 0.3957472 0.02013642
vt 0.01652651 0.5848109
vt 0.04167607 0.4180957
vt 0.04169105 0.4029521
vt 0.04161616 0.5702513
vt 0.01652651 0.02013642
vt 0.04169105 0.06321573
vt 0.5499699 0.6245948
vt 0.9657242 0.6245948
vt 0.9675366 0.5862189
vt 0.5486218 0.5862189
vt 0.50021 0.6078484
vt 0.01654149 0.6078484
vt 0.0150436 0.6477821
vt 0.5017079 0.6477671
vt 0.3705977 0.4180957
vt 0.3705827 0.4029521
vt 0.04169105 0.4029521
vt 0.04167607 0.4180957
vt 0.04495645 0.4003757
vt 0.04494147 0.06778429
vt 0.04169105 0.06321573
vt 0.04169105 0.4029521
vt 0.3705827 0.4029521
vt 0.3705677 0.06321573
vt 0.3679614 0.06778429
vt 0.3677666 0.4003757
vt 0.3957472 0.02013642
vt 0.01652651 0.02013642
vt 0.04169105 0.06321573
vt 0.3705677 0.06321573
vt 0.04494147 0.06778429
vt 0.3679614 0.06778429
vt 0.3705677 0.06321573
vt 0.04169105 0.06321573
vt 0.0486862 0.6631355
vt 0.467616 0.6631355
vt 0.4658035 0.7014964
vt 0.05004928 0.7015114
vt 0.5017679 0.2056351
vt 0.6574734 0.2061743
vt 0.6574734 0.0814001
vt 0.5017679 0.08180454
vt 0.6814397 0.7363973
vt 0.8136584 0.9825904
vt 0.8136884 0.8243384
vt 0.7667295 0.7363973
vt 0.9459221 0.7363973
vt 0.8606322 0.7363973
vt 0.009741068 0.7157863
vt 0.009741068 0.991383
vt 0.5994902 0.991383
vt 0.5994902 0.7157863
vt 0.6814397 0.7363973
vt 0.8136584 0.9825904
vt 0.8136884 0.8243384
vt 0.7667295 0.7363973
vt 0.9459221 0.7363973
vt 0.8606472 0.7363973
vt 0.9880128 0.3337646
vt 0.8385683 0.3340042
vt 0.8380141 0.5451617
vt 0.9895107 0.5445326
vt 0.9875634 0.3341091
vt 0.9875634 0.5420012
vt 0.8398415 0.5420012
vt 0.8398415 0.3341091
vt 0.9875634 0.3341091
vt 0.9880128 0.3337646
vt 0.9895107 0.5445326
vt 0.9875634 0.5420012
vt 0.9875634 0.5420012
vt 0.9895107 0.5445326
vt 0.8380141 0.5451617
vt 0.8398415 0.5420012
vt 0.8385683 0.3340042
vt 0.8398415 0.3341091
vt 0.8398415 0.3341091
vt 0.8385683 0.3340042
vt 0.9880128 0.3337646
vt 0.9875634 0.3341091
vn 0.9991979 -0.04004604 0
vn 0.9991979 -0.04004604 0
vn 0.9991979 -0.04004604 0
vn 0.9999766 -0.006842457 0
vn 0.9999766 -0.006842457 0
vn 0.9999995 0.0009775162 0
vn 0.9994153 -0.03419308 0
vn 0.9994153 -0.03419308 0
vn 0.9993466 -0.03614448 0
vn 0.9998275 -0.01856961 0
vn 0.9960895 -0.02834797 -0.08367889
vn 0.9960895 -0.03225803 -0.08225074
vn 0.999862 -0.01661549 0
vn 0.999862 -0.01661549 0
vn 0.9992741 -0.03809547 0
vn -0.9980445 -0.05180836 -0.03497282
vn -0.9980445 -0.05180836 -0.03497282
vn -0.9980445 -0.05180836 -0.03497282
vn -0.9999614 -0.00879731 0
vn -0.9999422 -0.01075206 0
vn -0.9999995 0.0009775162 0
vn -0.9980445 -0.04594326 -0.0423842
vn -0.9980445 -0.04594326 -0.0423842
vn -0.9980445 -0.04789829 -0.04016164
vn 0.006842613 0.1808406 -0.9834886
vn 0.006842613 0.1808406 -0.9834886
vn 0.006842613 0.1808406 -0.9834886
vn 0.006842613 0.1808406 -0.9834886
vn -0.9999995 0.0009775162 0
vn -0.9999995 0.0009775162 0
vn -0.9999995 0.0009775162 0
vn 0.004887581 0.9960895 -0.08821487
vn 0.004887581 0.9960895 -0.08821487
vn 0.004887581 0.9960895 -0.08821487
vn 0.004887581 0.9960895 -0.08821487
vn -0.9991979 -0.04004604 0
vn -0.9979796 -0.06353448 0
vn -0.9998925 -0.01466117 0
vn -0.9960895 -0.07331377 -0.0493037
vn -0.9960895 -0.07331377 -0.0493037
vn -0.9960895 -0.07331377 -0.0493037
vn 0.002932549 -0.0420332 -0.9991119
vn 0.002932549 -0.0420332 -0.9991119
vn 0.002932549 -0.0420332 -0.9991119
vn 0.002932549 -0.0420332 -0.9991119
vn 0.9960895 -0.03225803 -0.08225074
vn 0.9960895 -0.02834797 -0.08367889
vn -0.08113384 -0.1573802 -0.9841996
vn -0.1397849 -0.05962849 -0.9883848
vn -0.0009775162 -0.2844573 -0.9586882
vn -0.0009775162 -0.2844573 -0.9586882
vn -0.0009775162 0.5640271 0.8257557
vn -0.0009775162 0.5640271 0.8257557
vn -0.0009775162 0.5640271 0.8257557
vn -0.0009775162 0.5640271 0.8257557
vn -0.002932549 0.2727271 -0.962087
vn -0.002932549 0.2727271 -0.962087
vn -0.002932549 0.2727271 -0.962087
vn -0.002932549 0.2727271 -0.962087
vn -0.0009775162 0.8651022 0.5015947
vn -0.07526875 0.906158 0.4161879
vn -0.02639294 0.8826976 0.4691997
vn -0.0009775162 0.8651022 0.5015947
vn -0.1906158 0.9237533 0.332183
vn -0.1906158 0.9335284 0.3036285
vn -0.1906158 0.9335284 0.3036285
vn -0.1906158 0.9335284 0.3036285
vn 0.1515151 0.9335284 0.3249121
vn 0.1906158 0.9237533 0.332183
vn 0.1906158 0.9335284 0.3036285
vn 0.1143695 0.9315734 0.3450952
vn 0.1906158 0.9335284 0.3036285
vn 0.1906158 0.9335284 0.3036285
vn -0.0009775162 -0.04007816 0.9991961
vn -0.0009775162 -0.04007816 0.9991961
vn -0.0009775162 -0.04007816 0.9991961
vn -0.0009775162 -0.04007816 0.9991961
vn -0.0009775162 0.0009775162 0.999999
vn -0.0009775162 0.0009775162 0.999999
vn -0.0009775162 0.0009775162 0.999999
vn -0.0009775162 0.0009775162 0.999999
vn -0.0009775162 0.9433036 0.3319298
vn -0.0009775162 0.9433036 0.3319298
vn -0.0009775162 0.9433036 0.3319298
vn -0.0009775162 0.9433036 0.3319298
vn 0.6950144 0.6871942 0.2114689
vn 0.6950144 0.6871942 0.2114689
vn 0.6950144 0.6871942 0.2114689
vn 0.6950144 0.6871942 0.2114689
vn -0.5855324 0.7732157 0.2434941
vn -0.5855324 0.7732157 0.2434941
vn -0.5855324 0.7732157 0.2434941
vn -0.5855324 0.7732157 0.2434941
vn -0.0009775162 0.9472136 0.3206016
vn -0.0009775162 0.9472136 0.3206016
vn -0.0009775162 0.9472136 0.3206016
vn -0.0009775162 0.9472136 0.3206016
vn -0.0009775162 0.9784942 -0.2062722
vn -0.0009775162 0.9784942 -0.2062722
vn -0.0009775162 0.9784942 -0.2062722
vn -0.0009775162 0.9784942 -0.2062722
vn -0.0009775162 0.004887581 -0.9999875
vn -0.0009775162 0.004887581 -0.9999875
vn -0.0009775162 0.004887581 -0.9999875
vn -0.0009775162 0.004887581 -0.9999875
vn -0.0009775162 -0.9413486 -0.3374344
vn -0.0009775162 -0.9413486 -0.3374344
vn -0.0009775162 -0.9413486 -0.3374344
vn -0.0009775162 -0.9413486 -0.3374344
vn 0.0009775162 0.9393935 0.3428394
vn 0.0009775162 0.9393935 0.3428394
vn 0.0009775162 0.9393935 0.3428394
vn 0.0009775162 0.9393935 0.3428394
vn 0.0009775162 0.9393935 0.3428394
vn 0.0009775162 0.9393935 0.3428394
vn -0.0009775162 0.9393935 0.3428394
vn -0.0009775162 0.9393935 0.3428394
vn -0.0009775162 0.9393935 0.3428394
vn -0.0009775162 0.9393935 0.3428394
vn 0.0009775162 0.9393935 0.3428394
vn 0.0009775162 0.9393935 0.3428394
vn 0.0009775162 0.9393935 0.3428394
vn 0.0009775162 0.9393935 0.3428394
vn 0.0009775162 0.9393935 0.3428394
vn 0.0009775162 0.9393935 0.3428394
vn -0.0009775162 0.9550338 0.2964954
vn -0.0009775162 0.9550338 0.2964954
vn -0.0009775162 0.9550338 0.2964954
vn -0.0009775162 0.9550338 0.2964954
vn -0.0009775162 -0.9550338 -0.2964954
vn -0.0009775162 -0.9550338 -0.2964954
vn -0.0009775162 -0.9550338 -0.2964954
vn -0.0009775162 -0.9550338 -0.2964954
vn 0.9999995 0.0009775162 0
vn 0.9999995 0.0009775162 0
vn 0.9999995 0.0009775162 0
vn 0.9999995 0.0009775162 0
vn -0.0009775162 0.9999995 0
vn -0.0009775162 0.9999995 0
vn -0.266862 0.9628539 -0.04119471
vn -0.0283366 0.9995984 0
vn -0.9999995 0.0009775162 0
vn -0.9999995 0.0009775162 0
vn -0.0009775162 0.0009775162 -0.999999
vn -0.0009775162 0.0009775162 -0.999999
vn -0.0009775162 0.0009775162 -0.999999
vn -0.0009775162 0.0009775162 -0.999999
g Body_LOD1_0
f 3/3/3 2/2/2 1/1/1
f 3/3/3 1/1/1 4/4/4
f 5/5/5 3/3/3 4/4/4
f 4/4/4 6/6/6 5/5/5
f 7/7/7 2/2/2 3/3/3
f 8/8/8 7/7/7 3/3/3
f 7/7/7 9/9/9 2/2/2
f 12/12/12 11/11/11 10/10/10
f 10/10/10 11/11/11 13/13/13
f 14/14/14 10/10/10 13/13/13
f 14/14/14 15/15/15 10/10/10
f 18/18/18 17/17/17 16/16/16
f 19/19/19 18/18/18 16/16/16
f 20/20/20 19/19/19 16/16/16
f 20/20/20 21/21/21 19/19/19
f 16/16/16 17/17/17 22/22/22
f 17/17/17 23/23/23 22/22/22
f 17/17/17 24/24/24 23/23/23
f 27/27/27 26/26/26 25/25/25
f 28/28/28 27/27/27 25/25/25
f 31/31/31 30/30/30 29/29/29
f 34/34/34 33/33/33 32/32/32
f 35/35/35 34/34/34 32/32/32
f 38/38/38 37/37/37 36/36/36
f 39/39/39 36/36/36 37/37/37
f 37/37/37 40/40/40 39/39/39
f 39/39/39 41/41/41 36/36/36
f 44/44/44 43/43/43 42/42/42
f 45/45/45 44/44/44 42/42/42
f 48/48/48 47/47/47 46/46/46
f 49/49/49 48/48/48 46/46/46
f 48/48/48 50/50/50 47/47/47
f 50/50/50 51/51/51 47/47/47
f 54/54/54 53/53/53 52/52/52
f 55/55/55 54/54/54 52/52/52
f 58/58/58 57/57/57 56/56/56
f 59/59/59 58/58/58 56/56/56
f 62/62/62 61/61/61 60/60/60
f 63/63/63 62/62/62 60/60/60
f 61/61/61 62/62/62 64/64/64
f 65/65/65 61/61/61 64/64/64
f 65/65/65 66/66/66 61/61/61
f 66/66/66 67/67/67 61/61/61
f 70/70/70 69/69/69 68/68/68
f 68/68/68 69/69/69 71/71/71
f 68/68/68 72/72/72 70/70/70
f 72/72/72 73/73/73 70/70/70
f 76/76/76 75/75/75 74/74/74
f 77/77/77 76/76/76 74/74/74
f 80/80/80 79/79/79 78/78/78
f 81/81/81 80/80/80 78/78/78
f 84/84/84 83/83/83 82/82/82
f 85/85/85 84/84/84 82/82/82
f 88/88/88 87/87/87 86/86/86
f 89/89/89 88/88/88 86/86/86
f 92/92/92 91/91/91 90/90/90
f 93/93/93 92/92/92 90/90/90
f 96/96/96 95/95/95 94/94/94
f 97/97/97 96/96/96 94/94/94
f 100/100/100 99/99/99 98/98/98
f 101/101/101 100/100/100 98/98/98
f 104/104/104 103/103/103 102/102/102
f 105/105/105 104/104/104 102/102/102
f 108/108/108 107/107/107 106/106/106
f 109/109/109 108/108/108 106/106/106
f 112/112/112 111/111/111 110/110/110
f 113/113/113 112/112/112 110/110/110
f 111/111/111 112/112/112 114/114/114
f 112/112/112 115/115/115 114/114/114
f 118/118/118 117/117/117 116/116/116
f 119/119/119 118/118/118 116/116/116
f 122/122/122 121/121/121 120/120/120
f 123/123/123 122/122/122 120/120/120
f 121/121/121 122/122/122 124/124/124
f 122/122/122 125/125/125 124/124/124
g Body_LOD1_1
f 128/128/128 127/127/127 126/126/126
f 129/129/129 128/128/128 126/126/126
f 132/132/132 131/131/131 130/130/130
f 133/133/133 132/132/132 130/130/130
f 136/136/136 135/135/135 134/134/134
f 137/137/137 136/136/136 134/134/134
f 140/140/140 139/139/139 138/138/138
f 141/141/141 140/140/140 138/138/138
f 142/142/142 140/140/140 141/141/141
f 143/143/143 142/142/142 141/141/141
f 146/146/146 145/145/145 144/144/144
f 147/147/147 146/146/146 144/144/144
