g Body_LOD0
v 1.287189 0.03933692 0.2913131
v 0.941775 0.886004 0.2913131
v 0.9937159 0.9419892 0.2330564
v 1.368853 0.03647017 0.2330564
v 1.368853 -0.03647006 0.2330564
v 1.287189 -0.0393368 0.2913131
v 0.941775 -0.8860066 0.2913131
v 0.9937133 -0.9419891 0.2330564
v 0.8865079 0.9419918 0.2913131
v 0.9421458 0.9935541 0.2330564
v 0.03645706 1.368641 0.2330564
v 0.03932905 1.298646 0.2913131
v -0.03932905 1.298646 0.2913131
v -0.03645444 1.368641 0.2330564
v -0.9421432 0.9935541 0.2330564
v -0.886508 0.9419918 0.2913131
v -0.9417751 0.8860066 0.2913131
v -0.9937134 0.9419892 0.2330564
v -1.368853 0.03647268 0.2330564
v -1.287189 0.03933954 0.2913131
v -1.287189 -0.0393368 0.2913131
v -1.368853 -0.03647006 0.2330564
v -0.993716 -0.9419891 0.2330564
v -0.9417751 -0.8860066 0.2913131
v -0.886508 -0.9419917 0.2913131
v -0.9421458 -0.993554 0.2330564
v -0.03645706 -1.368644 0.2330564
v -0.03932905 -1.298646 0.2913131
v 0.03932905 -1.298646 0.2913131
v 0.03645444 -1.368644 0.2330564
v 0.9421432 -0.993554 0.2330564
v 0.8865079 -0.9419917 0.2913131
v 1.287189 0.03933692 0.2913131
v -1.311302E-06 0.009450078 0.2913131
v 0.941775 0.886004 0.2913131
v 1.287189 -0.0393368 0.2913131
v 0.941775 -0.8860066 0.2913131
v 0.8865079 0.9419918 0.2913131
v 0.03932905 1.298646 0.2913131
v -0.03932905 1.298646 0.2913131
v -0.886508 0.9419918 0.2913131
v -0.9417751 0.8860066 0.2913131
v -1.287189 0.03933954 0.2913131
v -1.287189 -0.0393368 0.2913131
v -0.9417751 -0.8860066 0.2913131
v -0.886508 -0.9419917 0.2913131
v -0.03932905 -1.298646 0.2913131
v 0.03932905 -1.298646 0.2913131
v 0.8865079 -0.9419917 0.2913131
v 1.368853 0.03647017 0.2330564
v 0.9937159 0.9419892 0.2330564
v 0.9937133 0.9419892 -0.2330564
v 1.368853 0.03647268 -0.2330564
v 1.368853 -0.03647006 -0.2330564
v 1.368853 -0.03647006 0.2330564
v 0.9937133 -0.9419891 0.2330564
v 0.9937159 -0.9419891 -0.2330564
v 0.9421458 0.9935541 0.2330564
v 0.9421432 0.9935541 -0.2330564
v 0.03645444 1.368641 -0.2330564
v 0.03645706 1.368641 0.2330564
v -0.03645444 1.368641 0.2330564
v -0.03645706 1.368641 -0.2330564
v -0.9421432 0.9935541 -0.2330564
v -0.9421432 0.9935541 0.2330564
v -0.9937134 0.9419892 0.2330564
v -0.9937134 0.9419892 -0.2330564
v -1.368853 0.03647268 -0.2330564
v -1.368853 0.03647268 0.2330564
v -1.368853 -0.03647006 0.2330564
v -1.368853 -0.03647006 -0.2330564
v -0.993716 -0.9419891 -0.2330564
v -0.993716 -0.9419891 0.2330564
v -0.9421458 -0.993554 0.2330564
v -0.9421432 -0.993554 -0.2330564
v -0.03645706 -1.368644 -0.2330564
v -0.03645706 -1.368644 0.2330564
v 0.9421458 -0.993554 -0.2330564
v 0.03645444 -1.368644 -0.2330564
v 0.03645444 -1.368644 0.2330564
v 0.9421432 -0.993554 0.2330564
v -0.03645706 -1.368644 -0.2330564
v -0.03645706 -1.368644 0.2330564
v -1.287189 0.03933692 -0.2913131
v -0.9417751 0.886004 -0.2913131
v -0.9937134 0.9419892 -0.2330564
v -1.368853 0.03647268 -0.2330564
v -1.368853 -0.03647006 -0.2330564
v -1.287189 -0.0393368 -0.2913131
v -0.9417751 -0.8860066 -0.2913131
v -0.993716 -0.9419891 -0.2330564
v -0.886508 0.9419918 -0.2913131
v -0.9421432 0.9935541 -0.2330564
v -0.03645706 1.368641 -0.2330564
v -0.03932905 1.298646 -0.2913131
v 0.03932905 1.298646 -0.2913131
v 0.03645444 1.368641 -0.2330564
v 0.9421432 0.9935541 -0.2330564
v 0.8865079 0.9419918 -0.2913131
v 0.941775 0.8860066 -0.2913131
v 0.9937133 0.9419892 -0.2330564
v 1.368853 0.03647268 -0.2330564
v 1.287189 0.03933954 -0.2913131
v 1.287189 -0.0393368 -0.2913131
v 1.368853 -0.03647006 -0.2330564
v 0.9937159 -0.9419891 -0.2330564
v 0.941775 -0.8860066 -0.2913131
v 0.8865079 -0.9419917 -0.2913131
v 0.9421458 -0.993554 -0.2330564
v 0.03645444 -1.368644 -0.2330564
v 0.03932905 -1.298646 -0.2913131
v -0.03932905 -1.298646 -0.2913131
v -0.03645706 -1.368644 -0.2330564
v -0.9421432 -0.993554 -0.2330564
v -0.886508 -0.9419917 -0.2913131
v -1.287189 0.03933692 -0.2913131
v -1.311302E-06 0.009450078 -0.2913131
v -0.9417751 0.886004 -0.2913131
v -1.287189 -0.0393368 -0.2913131
v -0.9417751 -0.8860066 -0.2913131
v -0.886508 0.9419918 -0.2913131
v -0.03932905 1.298646 -0.2913131
v 0.03932905 1.298646 -0.2913131
v 0.8865079 0.9419918 -0.2913131
v 0.941775 0.8860066 -0.2913131
v 1.287189 0.03933954 -0.2913131
v 1.287189 -0.0393368 -0.2913131
v 0.941775 -0.8860066 -0.2913131
v 0.8865079 -0.9419917 -0.2913131
v 0.03932905 -1.298646 -0.2913131
v -0.03932905 -1.298646 -0.2913131
v -0.886508 -0.9419917 -0.2913131
vt 0.9631069 0.5460081
vt 0.8483723 0.8286139
vt 0.865627 0.8473014
vt 0.9902409 0.5450578
vt 0.9902409 0.5207142
vt 0.9631069 0.5197489
vt 0.8483723 0.2371581
vt 0.865627 0.2184706
vt 0.8300015 0.8473014
vt 0.848493 0.8645109
vt 0.5476219 0.989713
vt 0.5485721 0.9663497
vt 0.5224487 0.9663497
vt 0.5233989 0.989713
vt 0.222543 0.8645109
vt 0.2410193 0.8473014
vt 0.2226636 0.8286139
vt 0.2054089 0.8473014
vt 0.08078 0.5450578
vt 0.1079139 0.5460081
vt 0.1079139 0.5197489
vt 0.08078 0.5207142
vt 0.2054089 0.2184706
vt 0.2226636 0.2371581
vt 0.2410193 0.2184706
vt 0.222543 0.2012612
vt 0.5233989 0.0760591
vt 0.5224487 0.09942231
vt 0.5485721 0.09942231
vt 0.5476219 0.0760591
vt 0.848493 0.2012612
vt 0.8300015 0.2184706
vt 0.9631069 0.5460081
vt 0.5355104 0.5360383
vt 0.8483723 0.8286139
vt 0.9631069 0.5197489
vt 0.8483723 0.2371581
vt 0.8300015 0.8473014
vt 0.5485721 0.9663497
vt 0.5224487 0.9663497
vt 0.2410193 0.8473014
vt 0.2226636 0.8286139
vt 0.1079139 0.5460081
vt 0.1079139 0.5197489
vt 0.2226636 0.2371581
vt 0.2410193 0.2184706
vt 0.5224487 0.09942231
vt 0.5485721 0.09942231
vt 0.8300015 0.2184706
vt 0.0686082 0.7379363
vt 0.0686082 0.6234429
vt 0.00405395 0.6234429
vt 0.00405395 0.7379363
vt 0.00405395 0.7464581
vt 0.0686082 0.7464581
vt 0.0686082 0.8609514
vt 0.00405395 0.8609514
vt 0.0686082 0.6149363
vt 0.00405395 0.6149363
vt 0.00405395 0.5004128
vt 0.0686082 0.5004128
vt 0.0686082 0.4919061
vt 0.00405395 0.4919061
vt 0.00405395 0.3773977
vt 0.0686082 0.3773977
vt 0.0686082 0.368876
vt 0.00405395 0.368876
vt 0.00405395 0.2543827
vt 0.0686082 0.2543827
vt 0.0686082 0.2458609
vt 0.00405395 0.2458609
vt 0.00405395 0.1313676
vt 0.0686082 0.1313676
vt 0.0686082 0.1228458
vt 0.00405395 0.1228458
vt 0.00405395 0.008337457
vt 0.0686082 0.008337457
vt 0.00405395 0.8694731
vt 0.00405395 0.9839815
vt 0.0686082 0.9839815
vt 0.0686082 0.8694731
vt 0.00405395 0.9925033
vt 0.0686082 0.9925033
vt 0.9631069 0.5460081
vt 0.8483723 0.8286139
vt 0.865627 0.8473014
vt 0.9902409 0.5450578
vt 0.9902409 0.5207142
vt 0.9631069 0.5197489
vt 0.8483723 0.2371581
vt 0.865627 0.2184706
vt 0.8300015 0.8473014
vt 0.848493 0.8645109
vt 0.5476219 0.989713
vt 0.5485721 0.9663497
vt 0.5224487 0.9663497
vt 0.5233989 0.989713
vt 0.222543 0.8645109
vt 0.2410193 0.8473014
vt 0.2226636 0.8286139
vt 0.2054089 0.8473014
vt 0.08078 0.5450578
vt 0.1079139 0.5460081
vt 0.1079139 0.5197489
vt 0.08078 0.5207142
vt 0.2054089 0.2184706
vt 0.2226636 0.2371581
vt 0.2410193 0.2184706
vt 0.222543 0.2012612
vt 0.5233989 0.0760591
vt 0.5224487 0.09942231
vt 0.5485721 0.09942231
vt 0.5476219 0.0760591
vt 0.848493 0.2012612
vt 0.8300015 0.2184706
vt 0.9631069 0.5460081
vt 0.5355104 0.5360383
vt 0.8483723 0.8286139
vt 0.9631069 0.5197489
vt 0.8483723 0.2371581
vt 0.8300015 0.8473014
vt 0.5485721 0.9663497
vt 0.5224487 0.9663497
vt 0.2410193 0.8473014
vt 0.2226636 0.8286139
vt 0.1079139 0.5460081
vt 0.1079139 0.5197489
vt 0.2226636 0.2371581
vt 0.2410193 0.2184706
vt 0.5224487 0.09942231
vt 0.5485721 0.09942231
vt 0.8300015 0.2184706
vn 0.583087 0.2235624 0.7810438
vn 0.573962 0.2509373 0.7794858
vn 0.5684869 0.2582373 0.7811121
vn 0.583087 0.2162624 0.7830966
vn 0.583087 -0.2162623 0.7830966
vn 0.583087 -0.2235622 0.7810439
vn 0.573962 -0.2509372 0.7794858
vn 0.5684869 -0.2582372 0.7811121
vn 0.2673622 0.5976871 0.7558357
vn 0.2728372 0.592212 0.7581852
vn 0.2308623 0.6141121 0.7546979
vn 0.2381622 0.612287 0.753912
vn -0.2381623 0.612287 0.753912
vn -0.2308623 0.6141121 0.7546979
vn -0.2728373 0.592212 0.7581851
vn -0.2673623 0.5976871 0.7558357
vn -0.573962 0.2509373 0.7794858
vn -0.5684871 0.2582373 0.781112
vn -0.583087 0.2162624 0.7830964
vn -0.583087 0.2235624 0.7810438
vn -0.583087 -0.2235622 0.7810438
vn -0.583087 -0.2162623 0.7830965
vn -0.5684871 -0.2582372 0.781112
vn -0.573962 -0.2509372 0.7794858
vn -0.2673623 -0.5976869 0.7558358
vn -0.2728373 -0.592212 0.7581851
vn -0.2308623 -0.6141119 0.754698
vn -0.2381623 -0.6122869 0.753912
vn 0.2381622 -0.6122869 0.7539121
vn 0.2308623 -0.6141119 0.754698
vn 0.2728372 -0.592212 0.7581852
vn 0.2673622 -0.5976869 0.7558359
vn -0.0009125471 0.0009125471 0.9999992
vn -0.0009125471 0.0009125471 0.9999992
vn -0.0009125471 0.0009125471 0.9999992
vn -0.0009125471 0.0009125471 0.9999992
vn -0.0009125471 0.0009125471 0.9999992
vn -0.0009125471 0.0009125471 0.9999992
vn -0.0009125471 0.0009125471 0.9999992
vn -0.0009125471 0.0009125471 0.9999992
vn -0.0009125471 0.0009125471 0.9999992
vn -0.0009125471 0.0009125471 0.9999992
vn -0.0009125471 0.0009125471 0.9999992
vn -0.0009125471 0.0009125471 0.9999992
vn -0.0009125471 0.0009125471 0.9999992
vn -0.0009125471 0.0009125471 0.9999992
vn -0.0009125471 0.0009125471 0.9999992
vn -0.0009125471 0.0009125471 0.9999992
vn -0.0009125471 0.0009125471 0.9999992
vn 0.9334866 0.3586122 0
vn 0.9130955 0.407746 0
vn 0.9130955 0.407746 0
vn 0.9334866 0.3586122 0
vn 0.9334866 -0.3586121 -0.0001726335
vn 0.9334866 -0.3586121 -0.0001726335
vn 0.9130955 -0.4077459 0
vn 0.9130955 -0.4077459 0
vn 0.4077458 0.9130955 0
vn 0.4077458 0.9130955 0
vn 0.3586121 0.9334866 0
vn 0.3586121 0.9334866 0
vn -0.3586122 0.9334866 0
vn -0.3586122 0.9334866 0
vn -0.4077459 0.9130955 0
vn -0.4077459 0.9130955 0
vn -0.9130955 0.4077459 0
vn -0.9130955 0.4077459 0
vn -0.9334866 0.3586122 0
vn -0.9334866 0.3586122 0
vn -0.9334866 -0.3586121 0
vn -0.9334866 -0.3586121 0
vn -0.9130955 -0.4077458 0
vn -0.9130955 -0.4077458 0
vn -0.407746 -0.9130955 0
vn -0.407746 -0.9130955 0
vn -0.3586122 -0.9334866 0
vn -0.3586122 -0.9334866 0
vn 0.4077459 -0.9130955 0
vn 0.3586121 -0.9334866 -0.0002441406
vn 0.3586121 -0.9334866 -0.0002441406
vn 0.4077459 -0.9130955 0
vn -0.3586122 -0.9334866 0
vn -0.3586122 -0.9334866 0
vn -0.583087 0.2235624 -0.7810438
vn -0.573962 0.2509373 -0.7794858
vn -0.5684871 0.2582373 -0.781112
vn -0.583087 0.2162624 -0.7830964
vn -0.583087 -0.2162623 -0.7830965
vn -0.583087 -0.2235622 -0.7810438
vn -0.573962 -0.2509372 -0.7794858
vn -0.5684871 -0.2582372 -0.781112
vn -0.2673623 0.5976871 -0.7558357
vn -0.2728373 0.592212 -0.7581851
vn -0.2308623 0.6141121 -0.7546979
vn -0.2381623 0.612287 -0.753912
vn 0.2381622 0.612287 -0.753912
vn 0.2308623 0.6141121 -0.7546979
vn 0.2728372 0.592212 -0.7581852
vn 0.2673622 0.5976871 -0.7558357
vn 0.573962 0.2509373 -0.7794858
vn 0.5684869 0.2582373 -0.7811121
vn 0.583087 0.2162624 -0.7830966
vn 0.583087 0.2235624 -0.7810438
vn 0.583087 -0.2235622 -0.7810439
vn 0.583087 -0.2162623 -0.7830966
vn 0.5684869 -0.2582372 -0.7811121
vn 0.573962 -0.2509372 -0.7794858
vn 0.2673622 -0.5976869 -0.7558359
vn 0.2728372 -0.592212 -0.7581852
vn 0.2308623 -0.6141119 -0.754698
vn 0.2381622 -0.6122869 -0.7539121
vn -0.2381623 -0.6122869 -0.753912
vn -0.2308623 -0.6141119 -0.754698
vn -0.2728373 -0.592212 -0.7581851
vn -0.2673623 -0.5976869 -0.7558358
vn -0.0009125471 0.0009125471 -0.9999992
vn -0.0009125471 0.0009125471 -0.9999992
vn -0.0009125471 0.0009125471 -0.9999992
vn -0.0009125471 0.0009125471 -0.9999992
vn -0.0009125471 0.0009125471 -0.9999992
vn -0.0009125471 0.0009125471 -0.9999992
vn -0.0009125471 0.0009125471 -0.9999992
vn -0.0009125471 0.0009125471 -0.9999992
vn -0.0009125471 0.0009125471 -0.9999992
vn -0.0009125471 0.0009125471 -0.9999992
vn -0.0009125471 0.0009125471 -0.9999992
vn -0.0009125471 0.0009125471 -0.9999992
vn -0.0009125471 0.0009125471 -0.9999992
vn -0.0009125471 0.0009125471 -0.9999992
vn -0.0009125471 0.0009125471 -0.9999992
vn -0.0009125471 0.0009125471 -0.9999992
vn -0.0009125471 0.0009125471 -0.9999992
g Body_LOD0_0
f 3/3/3 2/2/2 1/1/1
f 4/4/4 3/3/3 1/1/1
f 4/4/4 1/1/1 5/5/5
f 1/1/1 6/6/6 5/5/5
f 5/5/5 6/6/6 7/7/7
f 8/8/8 5/5/5 7/7/7
f 9/9/9 2/2/2 3/3/3
f 10/10/10 9/9/9 3/3/3
f 10/10/10 11/11/11 9/9/9
f 11/11/11 12/12/12 9/9/9
f 13/13/13 12/12/12 11/11/11
f 14/14/14 13/13/13 11/11/11
f 14/14/14 15/15/15 13/13/13
f 15/15/15 16/16/16 13/13/13
f 17/17/17 16/16/16 15/15/15
f 18/18/18 17/17/17 15/15/15
f 18/18/18 19/19/19 17/17/17
f 19/19/19 20/20/20 17/17/17
f 21/21/21 20/20/20 19/19/19
f 22/22/22 21/21/21 19/19/19
f 22/22/22 23/23/23 21/21/21
f 23/23/23 24/24/24 21/21/21
f 25/25/25 24/24/24 23/23/23
f 26/26/26 25/25/25 23/23/23
f 26/26/26 27/27/27 25/25/25
f 27/27/27 28/28/28 25/25/25
f 29/29/29 28/28/28 27/27/27
f 30/30/30 29/29/29 27/27/27
f 30/30/30 31/31/31 29/29/29
f 31/31/31 32/32/32 29/29/29
f 7/7/7 32/32/32 31/31/31
f 8/8/8 7/7/7 31/31/31
f 35/35/35 34/34/34 33/33/33
f 36/36/36 33/33/33 34/34/34
f 36/36/36 34/34/34 37/37/37
f 35/35/35 38/38/38 34/34/34
f 39/39/39 34/34/34 38/38/38
f 39/39/39 40/40/40 34/34/34
f 41/41/41 34/34/34 40/40/40
f 41/41/41 42/42/42 34/34/34
f 43/43/43 34/34/34 42/42/42
f 43/43/43 44/44/44 34/34/34
f 45/45/45 34/34/34 44/44/44
f 45/45/45 46/46/46 34/34/34
f 47/47/47 34/34/34 46/46/46
f 47/47/47 48/48/48 34/34/34
f 49/49/49 34/34/34 48/48/48
f 49/49/49 37/37/37 34/34/34
f 52/52/52 51/51/51 50/50/50
f 53/53/53 52/52/52 50/50/50
f 54/54/54 53/53/53 50/50/50
f 55/55/55 54/54/54 50/50/50
f 55/55/55 56/56/56 54/54/54
f 56/56/56 57/57/57 54/54/54
f 51/51/51 52/52/52 58/58/58
f 52/52/52 59/59/59 58/58/58
f 58/58/58 59/59/59 60/60/60
f 61/61/61 58/58/58 60/60/60
f 61/61/61 60/60/60 62/62/62
f 60/60/60 63/63/63 62/62/62
f 62/62/62 63/63/63 64/64/64
f 65/65/65 62/62/62 64/64/64
f 65/65/65 64/64/64 66/66/66
f 64/64/64 67/67/67 66/66/66
f 66/66/66 67/67/67 68/68/68
f 69/69/69 66/66/66 68/68/68
f 69/69/69 68/68/68 70/70/70
f 68/68/68 71/71/71 70/70/70
f 70/70/70 71/71/71 72/72/72
f 73/73/73 70/70/70 72/72/72
f 73/73/73 72/72/72 74/74/74
f 72/72/72 75/75/75 74/74/74
f 74/74/74 75/75/75 76/76/76
f 77/77/77 74/74/74 76/76/76
f 80/80/80 79/79/79 78/78/78
f 81/81/81 80/80/80 78/78/78
f 82/82/82 79/79/79 80/80/80
f 83/83/83 82/82/82 80/80/80
f 81/81/81 78/78/78 56/56/56
f 78/78/78 57/57/57 56/56/56
f 86/86/86 85/85/85 84/84/84
f 87/87/87 86/86/86 84/84/84
f 87/87/87 84/84/84 88/88/88
f 84/84/84 89/89/89 88/88/88
f 88/88/88 89/89/89 90/90/90
f 91/91/91 88/88/88 90/90/90
f 92/92/92 85/85/85 86/86/86
f 93/93/93 92/92/92 86/86/86
f 93/93/93 94/94/94 92/92/92
f 94/94/94 95/95/95 92/92/92
f 96/96/96 95/95/95 94/94/94
f 97/97/97 96/96/96 94/94/94
f 97/97/97 98/98/98 96/96/96
f 98/98/98 99/99/99 96/96/96
f 100/100/100 99/99/99 98/98/98
f 101/101/101 100/100/100 98/98/98
f 101/101/101 102/102/102 100/100/100
f 102/102/102 103/103/103 100/100/100
f 104/104/104 103/103/103 102/102/102
f 105/105/105 104/104/104 102/102/102
f 105/105/105 106/106/106 104/104/104
f 106/106/106 107/107/107 104/104/104
f 108/108/108 107/107/107 106/106/106
f 109/109/109 108/108/108 106/106/106
f 109/109/109 110/110/110 108/108/108
f 110/110/110 111/111/111 108/108/108
f 112/112/112 111/111/111 110/110/110
f 113/113/113 112/112/112 110/110/110
f 113/113/113 114/114/114 112/112/112
f 114/114/114 115/115/115 112/112/112
f 90/90/90 115/115/115 114/114/114
f 91/91/91 90/90/90 114/114/114
f 118/118/118 117/117/117 116/116/116
f 119/119/119 116/116/116 117/117/117
f 119/119/119 117/117/117 120/120/120
f 118/118/118 121/121/121 117/117/117
f 122/122/122 117/117/117 121/121/121
f 122/122/122 123/123/123 117/117/117
f 124/124/124 117/117/117 123/123/123
f 124/124/124 125/125/125 117/117/117
f 126/126/126 117/117/117 125/125/125
f 126/126/126 127/127/127 117/117/117
f 128/128/128 117/117/117 127/127/127
f 128/128/128 129/129/129 117/117/117
f 130/130/130 117/117/117 129/129/129
f 130/130/130 131/131/131 117/117/117
f 132/132/132 117/117/117 131/131/131
f 132/132/132 120/120/120 117/117/117
