g Body_LOD1
v 1.074466 3.143755 -3.401714
v -0.8033328 2.514407 -3.765274
v -0.06651735 -0.00259304 -4.75027
v 2.095579 2.227962 -3.524764
v 2.808781 1.210837 -3.606861
v 3.310227 0.155169 -3.409347
v 3.658522 -1.218952 -3.159939
v 2.589885 2.980266 -2.332101
v 1.323046 -2.486731 -3.815429
v 0.2805505 -2.570121 -3.823935
v -1.167841 -1.67452 -4.378056
v -2.009484 -1.433768 -4.14183
v -0.7483716 -2.570399 -3.897118
v -2.592405 1.773203 -3.815819
v -2.843914 0.3075767 -3.807527
v -3.016653 -1.125411 -3.612922
v -1.792169 -2.510753 -3.831558
v -2.707868 -2.302297 -3.411717
v -2.295483 -3.402495 -2.957721
v 2.581239 -2.412163 -3.304435
v 1.556575 -3.342309 -3.183906
v 0.707243 4.762989 0.8352942
v -1.927638 4.431511 0.08173561
v -2.42636 3.682146 -1.896856
v 2.475658 4.086564 -1.12925
v -2.49468 3.865483 1.257078
v -1.51198 3.378911 3.2995
v 1.436203 4.167964 2.173429
v 1.821266 4.446628 0.3239846
v 1.940261 3.579986 2.924552
v -2.406428 3.318158 2.70177
v -2.726861 2.280023 3.434104
v -2.968999 3.237836 2.129902
v 1.29074 2.830517 3.729967
v 2.658484 2.537295 3.338416
v -0.3741956 2.664425 3.922303
v 0.6437011 2.012394 4.279299
v -2.746542 3.832489 -0.8933504
v 1.815892 3.724594 -2.328197
v 1.074466 3.143755 -3.401714
v -0.8033328 2.514407 -3.765274
v -2.592405 1.773203 -3.815819
v -3.183126 2.463686 -2.762773
v 2.475658 4.086564 -1.12925
v 2.808781 1.210837 -3.606861
v 4.675489 -0.1228905 -0.7037754
v 3.884883 2.439152 1.316083
v 1.821266 4.446628 0.3239846
v 1.940261 3.579986 2.924552
v 1.436203 4.167964 2.173429
v 2.658484 2.537295 3.338416
v 3.225006 1.314819 3.632539
v 4.546983 -0.4753313 1.552197
v 3.479248 0.297183 3.595315
v 3.5486 -1.14498 3.48068
v 2.766882 -0.7503233 4.02158
v 3.443809 -1.978656 3.279633
v 3.968171 -2.757027 1.263409
v 2.76981 -3.133537 2.654209
v 3.658522 -1.218952 -3.159939
v 1.803147 -4.252952 1.89985
v 2.171345 -4.242298 0.6369529
v 2.560638 -3.950991 -0.6828952
v 2.623678 -1.597256 3.915284
v 2.581239 -2.412163 -3.304435
v 2.044857 -3.695969 -2.025762
v 1.556575 -3.342309 -3.183906
v 3.310227 0.155169 -3.409347
v 2.589885 2.980266 -2.332101
v 2.095579 2.227962 -3.524764
v 1.815892 3.724594 -2.328197
v 1.074466 3.143755 -3.401714
v -2.295483 -3.402495 -2.957721
v -2.707868 -2.302297 -3.411717
v -4.209436 -1.747925 -1.441772
v -2.504302 -3.894561 -1.14986
v -2.619542 -4.108521 0.7466707
v -3.016653 -1.125411 -3.612922
v -4.597762 0.721765 -1.463117
v -4.341029 -1.186935 1.214742
v -2.700449 -3.337271 1.915589
v -2.76719 -2.005281 3.315499
v -1.992527 -2.945254 3.071419
v -2.729148 -1.11498 3.925324
v -3.727317 1.25323 3.236478
v -2.203345 -0.1504083 4.322491
v -2.968999 3.237836 2.129902
v -2.746542 3.832489 -0.8933504
v -2.49468 3.865483 1.257078
v -1.927638 4.431511 0.08173561
v -2.710741 0.9573765 3.96926
v -2.726861 2.280023 3.434104
v -2.406428 3.318158 2.70177
v -2.843914 0.3075767 -3.807527
v -2.592405 1.773203 -3.815819
v -3.183126 2.463686 -2.762773
v -2.42636 3.682146 -1.896856
v 2.623678 -1.597256 3.915284
v 0.3923597 -2.09768 4.034503
v 0.04392576 -0.07574797 4.871842
v -2.729148 -1.11498 3.925324
v 1.620814 -2.031349 3.982386
v -2.203345 -0.1504083 4.322491
v -2.710741 0.9573765 3.96926
v -1.850272 -2.074476 3.798612
v -2.76719 -2.005281 3.315499
v -0.9350462 -3.114498 3.400312
v 2.766882 -0.7503233 4.02158
v 0.6437011 2.012394 4.279299
v 3.225006 1.314819 3.632539
v 3.479248 0.297183 3.595315
v -2.726861 2.280023 3.434104
v -3.727317 1.25323 3.236478
v 2.521593 -2.371565 3.496419
v 2.658484 2.537295 3.338416
v 1.29074 2.830517 3.729967
v -0.3741956 2.664425 3.922303
v -1.51198 3.378911 3.2995
v 3.443809 -1.978656 3.279633
v 3.5486 -1.14498 3.48068
v 3.443809 -1.978656 3.279633
v 2.76981 -3.133537 2.654209
v 2.521593 -2.371565 3.496419
v 1.803147 -4.252952 1.89985
v -0.9350462 -3.114498 3.400312
v 1.620814 -2.031349 3.982386
v 0.3923597 -2.09768 4.034503
v -2.619542 -4.108521 0.7466707
v -0.4563675 -4.876276 -0.1592865
v -1.992527 -2.945254 3.071419
v -1.850272 -2.074476 3.798612
v -2.76719 -2.005281 3.315499
v -2.700449 -3.337271 1.915589
v 2.171345 -4.242298 0.6369529
v 2.560638 -3.950991 -0.6828952
v -2.504302 -3.894561 -1.14986
v -2.295483 -3.402495 -2.957721
v 1.556575 -3.342309 -3.183906
v -0.7483716 -2.570399 -3.897118
v 0.2805505 -2.570121 -3.823935
v -1.792169 -2.510753 -3.831558
v -1.167841 -1.67452 -4.378056
v 1.323046 -2.486731 -3.815429
v 2.044857 -3.695969 -2.025762
v -2.009484 -1.433768 -4.14183
vt 0.001829142 0.8194299
vt 0.02929683 0.9013922
vt 0.1391676 0.8692427
vt 0.04180702 0.7748615
vt 0.08619311 0.7437304
vt 0.1322817 0.7218414
vt 0.1922637 0.7066407
vt 0.008958277 0.7532917
vt 0.2475943 0.8085766
vt 0.2512425 0.8540876
vt 0.2121462 0.9173074
vt 0.2016273 0.9540475
vt 0.2512425 0.8990057
vt 0.06165915 0.9794935
vt 0.1256238 0.9904684
vt 0.1881747 0.998008
vt 0.2486431 0.9445623
vt 0.2395379 0.9845249
vt 0.2875722 0.9665273
vt 0.2443413 0.7536564
vt 0.2849424 0.7983922
vt 0.5544815 0.5287467
vt 0.4394729 0.561641
vt 0.4177055 0.6480115
vt 0.6316707 0.6145091
vt 0.4147261 0.5103387
vt 0.4576074 0.4211864
vt 0.5862966 0.4703456
vt 0.6031086 0.5510765
vt 0.6083072 0.4375576
vt 0.4185719 0.4472861
vt 0.4045873 0.415319
vt 0.3940228 0.4722456
vt 0.5799579 0.4023984
vt 0.6396511 0.4194992
vt 0.5072833 0.3940076
vt 0.551715 0.3784268
vt 0.4037208 0.604203
vt 0.6028806 0.66683
vt 0.5705183 0.7136938
vt 0.4885408 0.7295634
vt 0.4104548 0.7317674
vt 0.3846743 0.6858005
vt 0.2266629 0.3660079
vt 0.3348008 0.2404804
vt 0.2080876 0.1822616
vt 0.1199235 0.2940933
vt 0.1632303 0.3817254
vt 0.04971139 0.3438908
vt 0.08249933 0.3695648
vt 0.03165294 0.2983799
vt 0.01880834 0.2450254
vt 0.1096174 0.1668785
vt 0.02043482 0.2006089
vt 0.02543585 0.1376475
vt 0.001829142 0.1548851
vt 0.03422187 0.101257
vt 0.1222188 0.06728341
vt 0.06150715 0.05085145
vt 0.3152983 0.134425
vt 0.09444709 0.00199635
vt 0.1495649 0.002452372
vt 0.2071756 0.01517537
vt 0.00646536 0.117917
vt 0.3216066 0.08234733
vt 0.2657895 0.02630229
vt 0.3163471 0.04174622
vt 0.326182 0.194407
vt 0.2791662 0.3177152
vt 0.3312286 0.2848817
vt 0.278999 0.3501991
vt 0.3258476 0.3248595
vt 0.3937187 0.0328082
vt 0.373897 0.08082725
vt 0.4598875 0.1050268
vt 0.4726257 0.01132959
vt 0.5554088 0.00199635
vt 0.365111 0.1322057
vt 0.458945 0.2128303
vt 0.5758385 0.1295151
vt 0.6064224 0.03565073
vt 0.6675292 0.09379346
vt 0.6568735 0.05276674
vt 0.6941457 0.1326617
vt 0.6640787 0.2360266
vt 0.7114897 0.1747677
vt 0.615786 0.3226554
vt 0.4838134 0.3486182
vt 0.5776778 0.3500471
vt 0.5263754 0.3747635
vt 0.6960762 0.2231212
vt 0.6727127 0.2808535
vt 0.6407456 0.3261668
vt 0.3566138 0.1947566
vt 0.356249 0.2587212
vt 0.402216 0.2888642
vt 0.4400201 0.3420515
vt 0.1618319 0.4257619
vt 0.1399884 0.5231528
vt 0.2282438 0.5383688
vt 0.1828849 0.659412
vt 0.1428766 0.4695399
vt 0.2249908 0.6364589
vt 0.2733443 0.6586064
vt 0.1410069 0.6210454
vt 0.1440166 0.6610689
vt 0.09560235 0.581098
vt 0.1988 0.4195144
vt 0.3193873 0.5121779
vt 0.2889403 0.3995102
vt 0.2445237 0.3884137
vt 0.3310766 0.6593056
vt 0.2862497 0.7029773
vt 0.1280255 0.4302157
vt 0.3422948 0.4242418
vt 0.3550937 0.483935
vt 0.347843 0.5566096
vt 0.3790349 0.6062856
vt 0.1451871 0.3899642
vt 0.1815776 0.3853888
vt 0.9163953 0.7126753
vt 0.8869667 0.6853749
vt 0.8761438 0.7221454
vt 0.8447847 0.6524501
vt 0.7252615 0.71795
vt 0.8368196 0.7433504
vt 0.7831914 0.7456305
vt 0.6517357 0.6021206
vt 0.7461473 0.5625683
vt 0.6790969 0.7035853
vt 0.6853141 0.7353244
vt 0.6452906 0.714241
vt 0.6481939 0.6531342
vt 0.8608519 0.5973323
vt 0.8778463 0.5397216
vt 0.6567671 0.5193375
vt 0.6658723 0.4404154
vt 0.8340226 0.4305501
vt 0.7334091 0.399419
vt 0.778312 0.4026112
vt 0.6878526 0.4022768
vt 0.7150922 0.3784268
vt 0.823823 0.402976
vt 0.855334 0.4810925
vt 0.3420211 0.1187378
vn 0.1885635 0.6382918 -0.7463427
vn -0.1219925 0.5664757 -0.8149988
vn 0.1031606 0.04047155 -0.993841
vn 0.4137166 0.4480762 -0.7925063
vn 0.7359184 0.3083261 -0.6027927
vn 0.6757482 0.1103467 -0.7288265
vn 0.6815711 -0.2506747 -0.6874759
vn 0.6854531 0.5198923 -0.5097706
vn 0.2390288 -0.3690742 -0.8981367
vn 0.07598692 -0.456418 -0.8865148
vn -0.09870076 -0.3341366 -0.9373425
vn -0.389847 -0.1361572 -0.9107582
vn -0.01523888 -0.5903453 -0.807007
vn -0.4538993 0.3296769 -0.8278216
vn -0.6111182 0.03270769 -0.7908633
vn -0.7101079 -0.1555669 -0.6866918
vn -0.2908573 -0.4738868 -0.8311638
vn -0.6130592 -0.38072 -0.6922505
vn -0.3704373 -0.7398003 -0.5616687
vn 0.6214008 -0.5631716 -0.5447006
vn 0.1749766 -0.7320365 -0.6584116
vn 0.004170835 0.9973722 0.07232828
vn -0.3277359 0.9430249 -0.05738707
vn -0.2268051 0.8634449 -0.45058
vn 0.5961682 0.7605733 -0.2571222
vn -0.4422534 0.859563 0.2560536
vn -0.162753 0.7702781 0.6165899
vn 0.2293239 0.8906186 0.3926946
vn 0.4991195 0.857622 0.1239525
vn 0.4040117 0.7528093 0.519666
vn -0.4752499 0.7372816 0.4801598
vn -0.4034339 0.4286666 0.8083848
vn -0.7392225 0.6111182 0.2829922
vn 0.1555669 0.5722986 0.8051541
vn 0.5107653 0.4868958 0.7085558
vn -0.1064647 0.4538993 0.8846698
vn 0.1264523 0.2986212 0.9459573
vn -0.7120489 0.6945801 -0.1026883
vn 0.2759073 0.8149205 -0.5096858
vn 0.1885635 0.6382918 -0.7463427
vn -0.1219925 0.5664757 -0.8149988
vn -0.4538993 0.3296769 -0.8278216
vn -0.7023439 0.545125 -0.4577682
vn 0.5961682 0.7605733 -0.2571222
vn 0.7359184 0.3083261 -0.6027927
vn 0.9630125 0.1394613 -0.2305592
vn 0.8252032 0.5237743 0.211424
vn 0.4991195 0.857622 0.1239525
vn 0.4040117 0.7528093 0.519666
vn 0.2293239 0.8906186 0.3926946
vn 0.5107653 0.4868958 0.7085558
vn 0.6485745 0.2636837 0.7140182
vn 0.9513666 -0.008052826 0.3079557
vn 0.7300955 0.06570423 0.680179
vn 0.6990399 -0.1439211 0.7004498
vn 0.3962478 -0.004170835 0.9181341
vn 0.6699252 -0.4311854 0.6043835
vn 0.8077345 -0.5864633 0.06021421
vn 0.4991195 -0.6776891 0.5400159
vn 0.6815711 -0.2506747 -0.6874759
vn 0.2332059 -0.8698456 0.4347224
vn 0.4408902 -0.8970193 0.03117935
vn 0.5534668 -0.8038525 -0.217935
vn 0.3089039 -0.2759073 0.9101942
vn 0.6214008 -0.5631716 -0.5447006
vn 0.4234214 -0.8252032 -0.3738367
vn 0.1749766 -0.7320365 -0.6584116
vn 0.6757482 0.1103467 -0.7288265
vn 0.6854531 0.5198923 -0.5097706
vn 0.4137166 0.4480762 -0.7925063
vn 0.2759073 0.8149205 -0.5096858
vn 0.1885635 0.6382918 -0.7463427
vn -0.3704373 -0.7398003 -0.5616687
vn -0.6130592 -0.38072 -0.6922505
vn -0.8634449 -0.4234214 -0.2741845
vn -0.5664757 -0.7980296 -0.2055577
vn -0.5121285 -0.8174393 0.2636615
vn -0.7101079 -0.1555669 -0.6866918
vn -0.9449658 0.1957495 -0.2621482
vn -0.9080874 -0.3089039 0.2827643
vn -0.6499376 -0.613637 0.4483645
vn -0.622764 -0.4971785 0.6041345
vn -0.4014928 -0.6796302 0.613927
vn -0.4849548 -0.2933761 0.8238624
vn -0.7896879 0.1802218 0.5864411
vn -0.4228436 -0.02552158 0.9058432
vn -0.7392225 0.6111182 0.2829922
vn -0.7120489 0.6945801 -0.1026883
vn -0.4422534 0.859563 0.2560536
vn -0.3277359 0.9430249 -0.05738707
vn -0.3801422 0.2248641 0.8971778
vn -0.4034339 0.4286666 0.8083848
vn -0.4752499 0.7372816 0.4801598
vn -0.6111182 0.03270769 -0.7908633
vn -0.4538993 0.3296769 -0.8278216
vn -0.7023439 0.545125 -0.4577682
vn -0.2268051 0.8634449 -0.45058
vn 0.3089039 -0.2759073 0.9101942
vn -0.02106178 -0.3321956 0.9429753
vn -0.03658962 -0.01775771 0.9991726
vn -0.4849548 -0.2933761 0.8238624
vn 0.1322752 -0.4467131 0.884845
vn -0.4228436 -0.02552158 0.9058432
vn -0.3801422 0.2248641 0.8971778
vn -0.2830935 -0.4641819 0.8392814
vn -0.622764 -0.4971785 0.6041345
vn -0.07929111 -0.6932169 0.7163541
vn 0.3962478 -0.004170835 0.9181341
vn 0.1264523 0.2986212 0.9459573
vn 0.6485745 0.2636837 0.7140182
vn 0.7300955 0.06570423 0.680179
vn -0.4034339 0.4286666 0.8083848
vn -0.7896879 0.1802218 0.5864411
vn 0.2662024 -0.6078141 0.7481299
vn 0.5107653 0.4868958 0.7085558
vn 0.1555669 0.5722986 0.8051541
vn -0.1064647 0.4538993 0.8846698
vn -0.162753 0.7702781 0.6165899
vn 0.6699252 -0.4311854 0.6043835
vn 0.6990399 -0.1439211 0.7004498
vn 0.6699252 -0.4311854 0.6043835
vn 0.4991195 -0.6776891 0.5400159
vn 0.2662024 -0.6078141 0.7481299
vn 0.2332059 -0.8698456 0.4347224
vn -0.07929111 -0.6932169 0.7163541
vn 0.1322752 -0.4467131 0.884845
vn -0.02106178 -0.3321956 0.9429753
vn -0.5121285 -0.8174393 0.2636615
vn 0.008052826 -0.9882451 -0.1526654
vn -0.4014928 -0.6796302 0.613927
vn -0.2830935 -0.4641819 0.8392814
vn -0.622764 -0.4971785 0.6041345
vn -0.6499376 -0.613637 0.4483645
vn 0.4408902 -0.8970193 0.03117935
vn 0.5534668 -0.8038525 -0.217935
vn -0.5664757 -0.7980296 -0.2055577
vn -0.3704373 -0.7398003 -0.5616687
vn 0.1749766 -0.7320365 -0.6584116
vn -0.01523888 -0.5903453 -0.807007
vn 0.07598692 -0.456418 -0.8865148
vn -0.2908573 -0.4738868 -0.8311638
vn -0.09870076 -0.3341366 -0.9373425
vn 0.2390288 -0.3690742 -0.8981367
vn 0.4234214 -0.8252032 -0.3738367
vn -0.389847 -0.1361572 -0.9107582
g Body_LOD1_0
f 3/3/3 2/2/2 1/1/1
f 3/3/3 1/1/1 4/4/4
f 4/4/4 5/5/5 3/3/3
f 6/6/6 3/3/3 5/5/5
f 6/6/6 7/7/7 3/3/3
f 4/4/4 1/1/1 8/8/8
f 9/9/9 3/3/3 7/7/7
f 9/9/9 10/10/10 3/3/3
f 11/11/11 3/3/3 10/10/10
f 11/11/11 12/12/12 3/3/3
f 11/11/11 10/10/10 13/13/13
f 14/14/14 3/3/3 12/12/12
f 3/3/3 14/14/14 2/2/2
f 14/14/14 12/12/12 15/15/15
f 12/12/12 16/16/16 15/15/15
f 12/12/12 11/11/11 17/17/17
f 18/18/18 12/12/12 17/17/17
f 18/18/18 17/17/17 19/19/19
f 20/20/20 9/9/9 7/7/7
f 20/20/20 21/21/21 9/9/9
f 24/24/24 23/23/23 22/22/22
f 25/25/25 24/24/24 22/22/22
f 22/22/22 23/23/23 26/26/26
f 22/22/22 26/26/26 27/27/27
f 27/27/27 28/28/28 22/22/22
f 29/29/29 22/22/22 28/28/28
f 29/29/29 25/25/25 22/22/22
f 27/27/27 30/30/30 28/28/28
f 31/31/31 27/27/27 26/26/26
f 31/31/31 32/32/32 27/27/27
f 26/26/26 33/33/33 31/31/31
f 34/34/34 30/30/30 27/27/27
f 34/34/34 35/35/35 30/30/30
f 34/34/34 27/27/27 36/36/36
f 34/34/34 36/36/36 37/37/37
f 38/38/38 23/23/23 24/24/24
f 25/25/25 39/39/39 24/24/24
f 40/40/40 24/24/24 39/39/39
f 24/24/24 40/40/40 41/41/41
f 24/24/24 41/41/41 42/42/42
f 43/43/43 24/24/24 42/42/42
f 46/46/46 45/45/45 44/44/44
f 44/44/44 47/47/47 46/46/46
f 47/47/47 44/44/44 48/48/48
f 47/47/47 48/48/48 49/49/49
f 48/48/48 50/50/50 49/49/49
f 51/51/51 47/47/47 49/49/49
f 51/51/51 52/52/52 47/47/47
f 53/53/53 47/47/47 52/52/52
f 46/46/46 47/47/47 53/53/53
f 53/53/53 52/52/52 54/54/54
f 53/53/53 54/54/54 55/55/55
f 56/56/56 55/55/55 54/54/54
f 57/57/57 53/53/53 55/55/55
f 57/57/57 58/58/58 53/53/53
f 58/58/58 46/46/46 53/53/53
f 59/59/59 58/58/58 57/57/57
f 58/58/58 60/60/60 46/46/46
f 59/59/59 61/61/61 58/58/58
f 62/62/62 58/58/58 61/61/61
f 62/62/62 63/63/63 58/58/58
f 64/64/64 57/57/57 55/55/55
f 58/58/58 63/63/63 65/65/65
f 58/58/58 65/65/65 60/60/60
f 66/66/66 65/65/65 63/63/63
f 66/66/66 67/67/67 65/65/65
f 46/46/46 60/60/60 68/68/68
f 46/46/46 68/68/68 45/45/45
f 69/69/69 44/44/44 45/45/45
f 70/70/70 69/69/69 45/45/45
f 69/69/69 71/71/71 44/44/44
f 69/69/69 72/72/72 71/71/71
f 75/75/75 74/74/74 73/73/73
f 75/75/75 73/73/73 76/76/76
f 75/75/75 76/76/76 77/77/77
f 75/75/75 78/78/78 74/74/74
f 75/75/75 79/79/79 78/78/78
f 80/80/80 79/79/79 75/75/75
f 80/80/80 75/75/75 77/77/77
f 77/77/77 81/81/81 80/80/80
f 81/81/81 82/82/82 80/80/80
f 81/81/81 83/83/83 82/82/82
f 80/80/80 82/82/82 84/84/84
f 85/85/85 79/79/79 80/80/80
f 80/80/80 84/84/84 85/85/85
f 86/86/86 85/85/85 84/84/84
f 87/87/87 79/79/79 85/85/85
f 88/88/88 79/79/79 87/87/87
f 88/88/88 87/87/87 89/89/89
f 88/88/88 89/89/89 90/90/90
f 86/86/86 91/91/91 85/85/85
f 87/87/87 85/85/85 92/92/92
f 93/93/93 87/87/87 92/92/92
f 94/94/94 78/78/78 79/79/79
f 94/94/94 79/79/79 95/95/95
f 96/96/96 95/95/95 79/79/79
f 79/79/79 88/88/88 96/96/96
f 96/96/96 88/88/88 97/97/97
f 100/100/100 99/99/99 98/98/98
f 101/101/101 99/99/99 100/100/100
f 99/99/99 102/102/102 98/98/98
f 101/101/101 100/100/100 103/103/103
f 103/103/103 100/100/100 104/104/104
f 101/101/101 105/105/105 99/99/99
f 106/106/106 105/105/105 101/101/101
f 105/105/105 107/107/107 99/99/99
f 100/100/100 98/98/98 108/108/108
f 100/100/100 108/108/108 109/109/109
f 108/108/108 110/110/110 109/109/109
f 111/111/111 110/110/110 108/108/108
f 104/104/104 100/100/100 112/112/112
f 112/112/112 100/100/100 109/109/109
f 104/104/104 112/112/112 113/113/113
f 102/102/102 114/114/114 98/98/98
f 109/109/109 110/110/110 115/115/115
f 116/116/116 109/109/109 115/115/115
f 112/112/112 109/109/109 117/117/117
f 112/112/112 117/117/117 118/118/118
f 114/114/114 119/119/119 98/98/98
f 98/98/98 120/120/120 108/108/108
f 123/123/123 122/122/122 121/121/121
f 123/123/123 124/124/124 122/122/122
f 123/123/123 125/125/125 124/124/124
f 123/123/123 126/126/126 125/125/125
f 127/127/127 125/125/125 126/126/126
f 125/125/125 128/128/128 124/124/124
f 129/129/129 124/124/124 128/128/128
f 128/128/128 125/125/125 130/130/130
f 130/130/130 125/125/125 131/131/131
f 132/132/132 130/130/130 131/131/131
f 133/133/133 128/128/128 130/130/130
f 134/134/134 124/124/124 129/129/129
f 135/135/135 134/134/134 129/129/129
f 129/129/129 128/128/128 136/136/136
f 137/137/137 129/129/129 136/136/136
f 137/137/137 138/138/138 129/129/129
f 137/137/137 139/139/139 138/138/138
f 140/140/140 138/138/138 139/139/139
f 137/137/137 141/141/141 139/139/139
f 141/141/141 142/142/142 139/139/139
f 143/143/143 138/138/138 140/140/140
f 129/129/129 138/138/138 144/144/144
f 129/129/129 144/144/144 135/135/135
f 74/74/74 78/78/78 145/145/145
