g Body_LOD1
v -2.668105 1.66893E-06 0.2885988
v -2.668105 1.66893E-06 -0.2886007
v -0.1673977 1.359821 -0.2886007
v -0.1673977 1.359821 0.2885988
v -0.1673977 1.359821 0.2885988
v -0.1673977 1.359821 -0.2886007
v -0.1817605 0.7457402 -0.2886007
v -0.1817605 0.7457402 0.2885988
v -0.1817605 0.7457402 0.2885988
v -0.1817605 0.7457402 -0.2886007
v 2.610755 0.8125556 -0.2886007
v 2.610755 0.8125556 0.2885988
v 2.610755 0.8125556 0.2885988
v 2.610755 -0.8125575 0.2885988
v -0.1817605 -0.8192381 0.2885988
v -0.1817605 0.7457402 0.2885988
v -2.668105 1.66893E-06 0.2885988
v -0.1673977 -1.359818 0.2885988
v -2.668105 1.66893E-06 0.2885988
v -0.1673977 1.359821 0.2885988
v -2.668105 1.66893E-06 -0.2886007
v -0.1817605 0.7457402 -0.2886007
v -0.1673977 1.359821 -0.2886007
v -0.1817605 -0.8192381 -0.2886007
v 2.610755 0.8125556 -0.2886007
v 2.610755 -0.8125575 -0.2886007
v -2.668105 1.66893E-06 0.2885988
v -0.1673977 -1.359818 0.2885988
v -0.1673977 -1.359818 -0.2886007
v -2.668105 1.66893E-06 -0.2886007
v -0.1673977 -1.359818 0.2885988
v -0.1817605 -0.8192381 0.2885988
v -0.1817605 -0.8192381 -0.2886007
v -0.1673977 -1.359818 -0.2886007
v -0.1817605 -0.8192381 0.2885988
v 2.610755 -0.8125575 0.2885988
v 2.610755 -0.8125575 -0.2886007
v -0.1817605 -0.8192381 -0.2886007
v 2.610755 0.8125556 0.2885988
v 2.610755 0.8125556 -0.2886007
v 2.610755 -0.8125575 -0.2886007
v 2.610755 -0.8125575 0.2885988
v -2.668105 1.66893E-06 -0.2886007
v -0.1673977 -1.359818 -0.2886007
v -0.1817605 -0.8192381 -0.2886007
vt 0.6052757 0.3666718
vt 0.6052757 0.4173869
vt 0.7228074 0.4174152
vt 0.7228074 0.3667001
vt 0.7228074 0.3667001
vt 0.7228074 0.4174152
vt 0.7273083 0.4174152
vt 0.7273083 0.3667001
vt 0.7273083 0.3667001
vt 0.7273083 0.4174152
vt 0.826714 0.417434
vt 0.826714 0.3667189
vt 0.7912718 0.6977794
vt 0.7179675 0.697657
vt 0.714992 0.8399248
vt 0.7942473 0.8406215
vt 0.7546244 0.9837179
vt 0.6857644 0.8412619
vt 0.7546244 0.9837179
vt 0.8234842 0.841309
vt 0.9134268 0.9837556
vt 0.8738039 0.8407063
vt 0.8445669 0.8416761
vt 0.9530497 0.8398965
vt 0.8767699 0.6979018
vt 0.9500742 0.6976005
vt 0.6052757 0.3666718
vt 0.4916046 0.3666907
vt 0.4916046 0.4174152
vt 0.6052757 0.4173869
vt 0.9695938 0.3667001
vt 0.9650929 0.3667001
vt 0.9651023 0.4174152
vt 0.9695938 0.4174152
vt 0.9650929 0.3667001
vt 0.8656872 0.3667189
vt 0.8656966 0.417434
vt 0.9651023 0.4174152
vt 0.826714 0.3667189
vt 0.826714 0.417434
vt 0.8656966 0.417434
vt 0.8656872 0.3667189
vt 0.9134268 0.9837556
vt 0.9822867 0.8412619
vt 0.9530497 0.8398965
vn -0.5344708 0.8451869 0
vn -0.5344708 0.8451869 0
vn -0.5344708 0.8451869 0
vn -0.5344708 0.8451869 0
vn 0.9999995 0.0009775162 0
vn 0.9999995 0.0009775162 0
vn 0.9999995 0.0009775162 0
vn 0.9999995 0.0009775162 0
vn -0.0009775162 0.9999995 0
vn -0.0009775162 0.9999995 0
vn -0.0009775162 0.9999995 0
vn -0.0009775162 0.9999995 0
vn -0.0009775162 0.0009775162 0.999999
vn -0.0009775162 0.0009775162 0.999999
vn -0.0009775162 0.0009775162 0.999999
vn -0.0009775162 0.0009775162 0.999999
vn -0.002932549 -0.006842613 0.9999723
vn -0.0009775162 0.0009775162 0.999999
vn -0.002932549 0.006842613 0.9999723
vn -0.002932549 0.002932549 0.9999914
vn -0.002932549 0.006842613 -0.9999723
vn -0.0009775162 0.0009775162 -0.999999
vn -0.0009775162 0.0009775162 -0.999999
vn -0.0009775162 0.0009775162 -0.999999
vn -0.0009775162 0.0009775162 -0.999999
vn -0.0009775162 0.0009775162 -0.999999
vn -0.5344708 -0.8451869 0
vn -0.5344708 -0.8451869 0
vn -0.5344708 -0.8451869 0
vn -0.5344708 -0.8451869 0
vn 0.9999995 -0.0009775162 0
vn 0.9999995 -0.0009775162 0
vn 0.9999995 -0.0009775162 0
vn 0.9999995 -0.0009775162 0
vn -0.0009775162 -0.9999995 0
vn -0.0009775162 -0.9999995 0
vn -0.0009775162 -0.9999995 0
vn -0.0009775162 -0.9999995 0
vn 0.9999995 0.0009775162 0
vn 0.9999995 0.0009775162 0
vn 0.9999995 0.0009775162 0
vn 0.9999995 0.0009775162 0
vn -0.002932549 -0.006842613 -0.9999723
vn -0.002932549 -0.002932549 -0.9999914
vn -0.0009775162 0.0009775162 -0.999999
g Body_LOD1_0
f 3/3/3 2/2/2 1/1/1
f 4/4/4 3/3/3 1/1/1
f 7/7/7 6/6/6 5/5/5
f 8/8/8 7/7/7 5/5/5
f 11/11/11 10/10/10 9/9/9
f 12/12/12 11/11/11 9/9/9
f 15/15/15 14/14/14 13/13/13
f 16/16/16 15/15/15 13/13/13
f 17/17/17 15/15/15 16/16/16
f 18/18/18 15/15/15 17/17/17
f 16/16/16 20/20/20 19/19/19
f 23/23/23 22/22/22 21/21/21
f 24/24/24 21/21/21 22/22/22
f 24/24/24 22/22/22 25/25/25
f 26/26/26 24/24/24 25/25/25
f 29/29/29 28/28/28 27/27/27
f 30/30/30 29/29/29 27/27/27
f 33/33/33 32/32/32 31/31/31
f 34/34/34 33/33/33 31/31/31
f 37/37/37 36/36/36 35/35/35
f 38/38/38 37/37/37 35/35/35
f 41/41/41 40/40/40 39/39/39
f 42/42/42 41/41/41 39/39/39
f 45/45/45 44/44/44 43/43/43
