g Body_LOD1
v -3.819933 3.570736 0.1390264
v -3.819933 3.570736 -0.1390228
v -3.241705 4.148972 -0.1390228
v -3.241705 4.148972 0.1390264
v 3.241701 4.148972 0.1390264
v 3.241701 4.148972 -0.1390228
v 3.819937 3.570736 -0.1390228
v 3.819937 3.570736 0.1390264
v -3.478572 3.526007 -1.907349E-06
v -3.196976 3.807604 -1.907349E-06
v -3.203021 3.85682 -0.1390228
v -3.527781 3.53206 -0.1390228
v -3.67378 3.551714 -0.1889794
v -3.222675 4.002811 -0.1889794
v -3.819933 3.570736 -0.1390228
v -3.241705 4.148972 -0.1390228
v 3.196972 3.807604 -1.907349E-06
v 3.478569 3.526007 -1.907349E-06
v 3.527785 3.53206 -0.1390228
v 3.203025 3.85682 -0.1390228
v 3.222672 4.002811 -0.1889794
v 3.673776 3.551714 -0.1889794
v 3.241701 4.148972 -0.1390228
v 3.819937 3.570736 -0.1390228
v -3.527781 3.53206 0.1390264
v -3.819933 3.570736 0.1390264
v -3.241705 4.148972 0.1390264
v -3.203021 3.85682 0.1390264
v -3.196976 3.807604 -1.907349E-06
v -3.478572 3.526007 -1.907349E-06
v 3.203025 3.85682 0.1390264
v 3.241701 4.148972 0.1390264
v 3.819937 3.570736 0.1390264
v 3.527785 3.53206 0.1390264
v 3.478569 3.526007 -1.907349E-06
v 3.196972 3.807604 -1.907349E-06
v -3.203021 3.85682 0.1390264
v -3.241705 4.148972 0.1390264
v 3.241701 4.148972 0.1390264
v 3.203025 3.85682 0.1390264
v 3.196972 3.807604 -1.907349E-06
v -3.196976 3.807604 -1.907349E-06
v -3.241705 4.148972 0.1390264
v -3.241705 4.148972 -0.1390228
v 3.241701 4.148972 -0.1390228
v 3.241701 4.148972 0.1390264
v -3.241705 4.148972 -0.1390228
v -3.222675 4.002811 -0.1889794
v 3.222672 4.002811 -0.1889794
v 3.241701 4.148972 -0.1390228
v -3.203021 3.85682 -0.1390228
v 3.203025 3.85682 -0.1390228
v 3.196972 3.807604 -1.907349E-06
v -3.196976 3.807604 -1.907349E-06
v -3.477693 -1.907349E-06 -1.907349E-06
v -3.478572 3.526007 -1.907349E-06
v -3.527781 3.53206 -0.1390228
v -3.527657 -9.775162E-06 -0.1390228
v -3.67378 -1.907349E-06 -0.1889794
v -3.67378 3.551714 -0.1889794
v -3.819933 3.570736 -0.1390228
v -3.819902 -9.775162E-06 -0.1390228
v -3.819902 -9.775162E-06 -0.1390228
v -3.819933 3.570736 -0.1390228
v -3.819933 3.570736 0.1390264
v -3.819902 -9.775162E-06 0.1390264
v -3.819902 -9.775162E-06 0.1390264
v -3.819933 3.570736 0.1390264
v -3.527781 3.53206 0.1390264
v -3.527657 -9.775162E-06 0.1390264
v -3.478572 3.526007 -1.907349E-06
v -3.477693 -1.907349E-06 -1.907349E-06
v 3.819937 3.570736 0.1390264
v 3.819898 -9.775162E-06 0.1390264
v 3.527654 -9.775162E-06 0.1390264
v 3.527785 3.53206 0.1390264
v 3.478569 3.526007 -1.907349E-06
v 3.477697 -1.907349E-06 -1.907349E-06
v 3.819898 -9.775162E-06 0.1390264
v 3.819937 3.570736 0.1390264
v 3.819937 3.570736 -0.1390228
v 3.819898 -9.775162E-06 -0.1390228
v 3.819898 -9.775162E-06 -0.1390228
v 3.819937 3.570736 -0.1390228
v 3.673776 3.551714 -0.1889794
v 3.673776 -1.907349E-06 -0.1889794
v 3.527654 -9.775162E-06 -0.1390228
v 3.527785 3.53206 -0.1390228
v 3.478569 3.526007 -1.907349E-06
v 3.477697 -1.907349E-06 -1.907349E-06
v 2.384491 0.5726745 -0.001937389
v 2.204758 0.5726745 0.1258647
v 2.204758 3.976565 0.1258647
v 2.384491 3.976565 -0.001937389
v 2.030469 3.976565 0.001933336
v 2.030469 0.5726745 0.001933336
v 2.210202 3.976565 -0.1258609
v 2.210202 0.5726745 -0.1258609
v 2.030469 0.5726745 0.001933336
v 2.030469 3.976565 0.001933336
v 3.584234 0.6088369 0.1486957
v -3.58423 0.6088369 0.1486957
v -3.58423 0.7779748 0.01583552
v 3.584234 0.7779748 0.01583552
v 3.584234 0.3993804 -0.01583171
v -3.58423 0.3993804 -0.01583171
v -3.58423 0.6088369 0.1486957
v 3.584234 0.6088369 0.1486957
v 3.584234 0.7779748 0.01583552
v -3.58423 0.7779748 0.01583552
v -3.58423 0.568526 -0.1486919
v 3.584234 0.568526 -0.1486919
v 3.584234 0.568526 -0.1486919
v -3.58423 0.568526 -0.1486919
v -3.58423 0.3993804 -0.01583171
v 3.584234 0.3993804 -0.01583171
v 0.9128361 0.5726745 -0.001937389
v 0.7331038 0.5726745 0.1258647
v 0.7331038 3.976565 0.1258647
v 0.9128361 3.976565 -0.001937389
v 0.558815 3.976565 0.001933336
v 0.558815 0.5726745 0.001933336
v 0.7385473 3.976565 -0.1258609
v 0.7385473 0.5726745 -0.1258609
v 0.558815 0.5726745 0.001933336
v 0.558815 3.976565 0.001933336
v -0.5588186 0.5726745 -0.001937389
v -0.7385509 0.5726745 0.1258647
v -0.7385509 3.976565 0.1258647
v -0.5588186 3.976565 -0.001937389
v -0.9128397 3.976565 0.001933336
v -0.9128397 0.5726745 0.001933336
v -0.7331073 3.976565 -0.1258609
v -0.7331073 0.5726745 -0.1258609
v -0.9128397 0.5726745 0.001933336
v -0.9128397 3.976565 0.001933336
v -2.030473 0.5726745 -0.001937389
v -2.210206 0.5726745 0.1258647
v -2.210206 3.976565 0.1258647
v -2.030473 3.976565 -0.001937389
v -2.384495 3.976565 0.001933336
v -2.384495 0.5726745 0.001933336
v -2.204762 3.976565 -0.1258609
v -2.204762 0.5726745 -0.1258609
v -2.384495 0.5726745 0.001933336
v -2.384495 3.976565 0.001933336
v 3.936096 -1.907349E-06 0.8966091
v 3.423022 -1.907349E-06 0.8966091
v 3.423022 0.1051543 0.8966091
v 3.936096 0.1051543 0.8966091
v 3.936096 0.1051543 0.8966091
v 3.423022 0.1051543 0.8966091
v 3.423022 0.1051543 -0.8966131
v 3.936096 0.1051543 -0.8966131
v 3.936096 0.1051543 -0.8966131
v 3.423022 0.1051543 -0.8966131
v 3.423022 -1.907349E-06 -0.8966131
v 3.936096 -1.907349E-06 -0.8966131
v 3.423022 -1.907349E-06 0.8966091
v 3.423022 -1.907349E-06 -0.8966131
v 3.423022 0.1051543 -0.8966131
v 3.423022 0.1051543 0.8966091
v 3.936096 -1.907349E-06 -0.8966131
v 3.936096 -1.907349E-06 0.8966091
v 3.936096 0.1051543 0.8966091
v 3.936096 0.1051543 -0.8966131
v -3.951189 -1.907349E-06 0.8966091
v -3.951189 0.1051543 0.8966091
v -3.407928 0.1051543 0.8966091
v -3.407928 -1.907349E-06 0.8966091
v -3.951189 0.1051543 -0.8966131
v -3.951189 -1.907349E-06 -0.8966131
v -3.407928 -1.907349E-06 -0.8966131
v -3.407928 0.1051543 -0.8966131
v -3.407928 -1.907349E-06 0.8966091
v -3.407928 0.1051543 0.8966091
v -3.407928 0.1051543 -0.8966131
v -3.407928 -1.907349E-06 -0.8966131
v -3.951189 0.1051543 0.8966091
v -3.951189 0.1051543 -0.8966131
v -3.407928 0.1051543 -0.8966131
v -3.407928 0.1051543 0.8966091
v -3.951189 -1.907349E-06 -0.8966131
v -3.951189 0.1051543 -0.8966131
v -3.951189 0.1051543 0.8966091
v -3.951189 -1.907349E-06 0.8966091
vt 0.269574 0.4024313
vt 0.2451355 0.4024313
vt 0.2451355 0.7416751
vt 0.269574 0.7416751
vt 0.08719815 0.7418463
vt 0.1116366 0.7418463
vt 0.1116223 0.4288089
vt 0.08719815 0.4288089
vt 0.2067526 0.4024313
vt 0.2067526 0.7416751
vt 0.2189861 0.7416751
vt 0.2189861 0.4024313
vt 0.2321179 0.4024313
vt 0.2321179 0.7416751
vt 0.2451355 0.4024313
vt 0.2451355 0.7416751
vt 0.1500053 0.7418463
vt 0.1500053 0.4288089
vt 0.1377718 0.4288089
vt 0.1377718 0.7418463
vt 0.12464 0.7418463
vt 0.12464 0.4288516
vt 0.1116366 0.7418463
vt 0.1116223 0.4288089
vt 0.2956236 0.4024313
vt 0.269574 0.4024313
vt 0.269574 0.7416751
vt 0.2956236 0.7416751
vt 0.3078428 0.7416751
vt 0.3078428 0.4024313
vt 0.06113428 0.7418463
vt 0.08719815 0.7418463
vt 0.08719815 0.4288089
vt 0.06113428 0.4288089
vt 0.04891505 0.4288089
vt 0.04891505 0.7418463
vt 0.4489699 0.1551382
vt 0.4229203 0.1551382
vt 0.4229203 0.5064586
vt 0.4489699 0.5064586
vt 0.4612033 0.5064586
vt 0.4612033 0.1551382
vt 0.4229203 0.1551382
vt 0.3984818 0.1551382
vt 0.3984818 0.5064586
vt 0.4229203 0.5064586
vt 0.3984818 0.1551382
vt 0.3854784 0.1551382
vt 0.3854784 0.5064586
vt 0.3984818 0.5064586
vt 0.3723466 0.1551382
vt 0.3723466 0.5064586
vt 0.3601131 0.5064586
vt 0.3601131 0.1551382
vt 0.2067526 0.02471899
vt 0.2067526 0.4024313
vt 0.2189861 0.4024313
vt 0.2189719 0.02471899
vt 0.2321179 0.02471899
vt 0.2321179 0.4024313
vt 0.2451355 0.4024313
vt 0.2451355 0.02471899
vt 0.2451355 0.02471899
vt 0.2451355 0.4024313
vt 0.269574 0.4024313
vt 0.269574 0.02471899
vt 0.269574 0.02471899
vt 0.269574 0.4024313
vt 0.2956236 0.4024313
vt 0.2956236 0.02471899
vt 0.3078428 0.4024313
vt 0.3078428 0.02471899
vt 0.08719815 0.4288089
vt 0.08716963 0.02471899
vt 0.06113428 0.02471899
vt 0.06113428 0.4288089
vt 0.04891505 0.4288089
vt 0.04890079 0.02471899
vt 0.08716963 0.02471899
vt 0.08719815 0.4288089
vt 0.1116223 0.4288089
vt 0.1116223 0.02471899
vt 0.1116223 0.02471899
vt 0.1116223 0.4288089
vt 0.12464 0.4288516
vt 0.12464 0.02471899
vt 0.1377718 0.02471899
vt 0.1377718 0.4288089
vt 0.1500053 0.4288089
vt 0.1500053 0.02471899
vt 0.5321376 0.02563152
vt 0.5125469 0.02563152
vt 0.5125469 0.3275333
vt 0.5321376 0.3275333
vt 0.4937404 0.3275333
vt 0.4937404 0.02563152
vt 0.550944 0.3275333
vt 0.550944 0.02563152
vt 0.5705348 0.02563152
vt 0.5705348 0.3275333
vt 0.959126 0.5716469
vt 0.4997003 0.5716469
vt 0.4997003 0.5933763
vt 0.959126 0.5934333
vt 0.959126 0.5428454
vt 0.4997003 0.5429025
vt 0.4997003 0.5716469
vt 0.959126 0.5716469
vt 0.959126 0.5934333
vt 0.4997003 0.5933763
vt 0.4997003 0.6221777
vt 0.959126 0.6221777
vt 0.959126 0.6221777
vt 0.4997003 0.6221777
vt 0.4997003 0.6439642
vt 0.959126 0.6439071
vt 0.7821825 0.02563152
vt 0.7625776 0.02563152
vt 0.7625776 0.3275333
vt 0.7821825 0.3275333
vt 0.7437854 0.3275333
vt 0.7437854 0.02563152
vt 0.8009747 0.3275333
vt 0.8009747 0.02563152
vt 0.8205797 0.02563152
vt 0.8205797 0.3275333
vt 0.6550427 0.02563152
vt 0.6354378 0.02563152
vt 0.6354378 0.3275333
vt 0.6550427 0.3275333
vt 0.6166456 0.3275333
vt 0.6166456 0.02563152
vt 0.6738349 0.3275333
vt 0.6738349 0.02563152
vt 0.6934399 0.02563152
vt 0.6934399 0.3275333
vt 0.9139847 0.02563152
vt 0.894394 0.02563152
vt 0.894394 0.3275333
vt 0.9139847 0.3275333
vt 0.8755876 0.3275333
vt 0.8755876 0.02563152
vt 0.9327912 0.3275333
vt 0.9327912 0.02563152
vt 0.9523962 0.02563152
vt 0.9523962 0.3275333
vt 0.8218486 0.5127037
vt 0.8218486 0.4442219
vt 0.8050526 0.4508662
vt 0.8050526 0.5060737
vt 0.8050526 0.5060737
vt 0.8050526 0.4508662
vt 0.6654797 0.4508662
vt 0.6654797 0.5060737
vt 0.6654797 0.5060737
vt 0.6654797 0.4508662
vt 0.6486979 0.4442219
vt 0.6486979 0.5127037
vt 0.8218486 0.4442219
vt 0.6486979 0.4442219
vt 0.6654797 0.4508662
vt 0.8050526 0.4508662
vt 0.6486979 0.5127037
vt 0.8218486 0.5127037
vt 0.8050526 0.5060737
vt 0.6654797 0.5060737
vt 0.8218486 0.4442219
vt 0.8050526 0.4508662
vt 0.8050526 0.5060737
vt 0.8218486 0.5127037
vt 0.6654797 0.4508662
vt 0.6486979 0.4442219
vt 0.6486979 0.5127037
vt 0.6654797 0.5060737
vt 0.8218486 0.5127037
vt 0.8050526 0.5060737
vt 0.6654797 0.5060737
vt 0.6486979 0.5127037
vt 0.8050526 0.4508662
vt 0.6654797 0.4508662
vt 0.6654797 0.5060737
vt 0.8050526 0.5060737
vt 0.6486979 0.4442219
vt 0.6654797 0.4508662
vt 0.8050526 0.4508662
vt 0.8218486 0.4442219
vn -0.6930593 0.4193547 0.5863535
vn -0.8571478 0.5150706 0
vn -0.5150706 0.8571478 0
vn -0.4193547 0.6930593 0.5863535
vn 0.4193546 0.6930593 0.5863535
vn 0.5150706 0.8571478 0
vn 0.8571478 0.5150706 0
vn 0.6930593 0.4193547 0.5863535
vn 0.8721228 -0.4892872 0
vn 0.4892872 -0.8721228 0
vn 0.1925708 -0.3509285 -0.9163873
vn 0.3509285 -0.1925708 -0.9163873
vn -0.08308887 0.04985332 -0.9952944
vn -0.04985332 0.08308887 -0.9952944
vn -0.6930593 0.4193547 -0.5863535
vn -0.4193547 0.6930593 -0.5863535
vn -0.4892872 -0.8721228 0
vn -0.8721227 -0.4892872 0
vn -0.3509284 -0.1925708 -0.9163873
vn -0.1925708 -0.3509285 -0.9163873
vn 0.04985332 0.08308887 -0.9952944
vn 0.08308893 0.04985332 -0.9952944
vn 0.4193546 0.6930593 -0.5863535
vn 0.6930593 0.4193547 -0.5863535
vn 0.3509285 -0.1925708 0.9163873
vn -0.08308887 0.04985332 0.9952944
vn -0.04985332 0.08308887 0.9952944
vn 0.1925708 -0.3509285 0.9163873
vn 0.4892872 -0.8721228 0
vn 0.8721228 -0.4892872 0
vn -0.1925708 -0.3509285 0.9163873
vn 0.04985332 0.08308887 0.9952944
vn 0.08308893 0.04985332 0.9952944
vn -0.3509284 -0.1925708 0.9163873
vn -0.8721227 -0.4892872 0
vn -0.4892872 -0.8721228 0
vn -0.0009775162 -0.6441835 0.7648704
vn 0.0009775162 0.0009775162 0.999999
vn -0.0009775162 0.0009775162 0.999999
vn -0.0009775162 -0.6441835 0.7648704
vn -0.0009775162 -0.9999995 0
vn 0.0009775162 -0.9999995 0
vn -0.0009775162 0.6539587 0.7565296
vn 0.0009775162 0.9999995 0
vn -0.0009775162 0.9999995 0
vn -0.0009775162 0.6539587 0.7565296
vn -0.0009775162 0.6539587 -0.7565296
vn 0.0009775162 0.0009775162 -0.999999
vn -0.0009775162 0.0009775162 -0.999999
vn -0.0009775162 0.6539587 -0.7565296
vn -0.0009775162 -0.6441835 -0.7648704
vn -0.0009775162 -0.6441835 -0.7648704
vn -0.0009775162 -0.9999995 0
vn 0.0009775162 -0.9999995 0
vn 0.9999995 0.0009775162 0
vn 0.9999995 0.0009775162 0
vn 0.6441835 0.0009775162 -0.7648704
vn 0.6480935 0.0009775162 -0.7615601
vn -0.0009775162 0.0009775162 -0.999999
vn -0.0009775162 -0.0009775162 -0.999999
vn -0.6539587 0.0009775162 -0.7565296
vn -0.6480936 0.0009775162 -0.7615601
vn -0.9999995 0.0009775162 0
vn -0.9999995 -0.0009775162 0
vn -0.6539587 0.0009775162 0.7565296
vn -0.6480936 0.0009775162 0.7615601
vn -0.0009775162 0.0009775162 0.999999
vn -0.0009775162 -0.0009775162 0.999999
vn 0.6441835 0.0009775162 0.7648704
vn 0.6480935 0.0009775162 0.7615601
vn 0.9999995 0.0009775162 0
vn 0.9999995 0.0009775162 0
vn 0.0009775162 -0.0009775162 0.999999
vn -0.0009775162 0.0009775162 0.999999
vn -0.6480936 0.0009775162 0.7615601
vn -0.6441835 0.0009775162 0.7648703
vn -0.9999995 0.0009775162 0
vn -0.9999995 0.0009775162 0
vn 0.6480935 0.0009775162 0.7615601
vn 0.6539586 0.0009775162 0.7565297
vn 0.9999995 -0.0009775162 0
vn 0.9999995 0.0009775162 0
vn 0.6480935 0.0009775162 -0.7615601
vn 0.6539586 0.0009775162 -0.7565297
vn 0.0009775162 -0.0009775162 -0.999999
vn -0.0009775162 0.0009775162 -0.999999
vn -0.6480936 0.0009775162 -0.7615601
vn -0.6441835 0.0009775162 -0.7648703
vn -0.9999995 0.0009775162 0
vn -0.9999995 0.0009775162 0
vn 0.9999995 0.0009775162 0
vn 0.01466274 0.0009775162 0.999892
vn 0.01466274 0.0009775162 0.999892
vn 0.9999995 0.0009775162 0
vn -0.9999995 0.0009775162 0
vn -0.9999995 0.0009775162 0
vn -0.01466274 0.0009775162 -0.999892
vn -0.01466274 0.0009775162 -0.999892
vn -0.9999995 0.0009775162 0
vn -0.9999995 0.0009775162 0
vn -0.0009775162 -0.1065493 0.9943069
vn -0.0009775162 -0.1065493 0.9943069
vn -0.0009775162 0.6168129 0.7871091
vn -0.0009775162 0.6168129 0.7871091
vn -0.0009775162 -0.9941344 0.1081471
vn -0.0009775162 -0.9941344 0.1081471
vn -0.0009775162 -0.616813 0.7871091
vn -0.0009775162 -0.616813 0.7871091
vn -0.0009775162 0.9941344 -0.1081471
vn -0.0009775162 0.9941344 -0.1081471
vn -0.0009775162 0.6168129 -0.7871091
vn -0.0009775162 0.6168129 -0.7871091
vn -0.0009775162 0.1065493 -0.994307
vn -0.0009775162 0.1065493 -0.994307
vn -0.0009775162 -0.616813 -0.7871091
vn -0.0009775162 -0.616813 -0.7871091
vn 0.9999995 0.0009775162 0
vn 0.01466274 0.0009775162 0.999892
vn 0.01466274 0.0009775162 0.999892
vn 0.9999995 0.0009775162 0
vn -0.9999995 0.0009775162 0
vn -0.9999995 0.0009775162 0
vn -0.01466274 0.0009775162 -0.999892
vn -0.01466274 0.0009775162 -0.999892
vn -0.9999995 0.0009775162 0
vn -0.9999995 0.0009775162 0
vn 0.9999995 0.0009775162 0
vn 0.01466274 0.0009775162 0.999892
vn 0.01466274 0.0009775162 0.999892
vn 0.9999995 0.0009775162 0
vn -0.9999995 0.0009775162 0
vn -0.9999995 0.0009775162 0
vn -0.01466274 0.0009775162 -0.999892
vn -0.01466274 0.0009775162 -0.999892
vn -0.9999995 0.0009775162 0
vn -0.9999995 0.0009775162 0
vn 0.9999995 0.0009775162 0
vn 0.01466274 0.0009775162 0.999892
vn 0.01466274 0.0009775162 0.999892
vn 0.9999995 0.0009775162 0
vn -0.9999995 0.0009775162 0
vn -0.9999995 0.0009775162 0
vn -0.01466274 0.0009775162 -0.999892
vn -0.01466274 0.0009775162 -0.999892
vn -0.9999995 0.0009775162 0
vn -0.9999995 0.0009775162 0
vn -0.0009775162 0.0009775162 0.999999
vn -0.0009775162 0.0009775162 0.999999
vn -0.0009775162 0.0009775162 0.999999
vn -0.0009775162 0.0009775162 0.999999
vn -0.0009775162 0.9999995 0
vn -0.0009775162 0.9999995 0
vn -0.0009775162 0.9999995 0
vn -0.0009775162 0.9999995 0
vn -0.0009775162 0.0009775162 -0.999999
vn -0.0009775162 0.0009775162 -0.999999
vn -0.0009775162 0.0009775162 -0.999999
vn -0.0009775162 0.0009775162 -0.999999
vn -0.9999995 0.0009775162 0
vn -0.9999995 0.0009775162 0
vn -0.9999995 0.0009775162 0
vn -0.9999995 0.0009775162 0
vn 0.9999995 0.0009775162 0
vn 0.9999995 0.0009775162 0
vn 0.9999995 0.0009775162 0
vn 0.9999995 0.0009775162 0
vn -0.0009775162 0.0009775162 0.999999
vn -0.0009775162 0.0009775162 0.999999
vn -0.0009775162 0.0009775162 0.999999
vn -0.0009775162 0.0009775162 0.999999
vn -0.0009775162 0.0009775162 -0.999999
vn -0.0009775162 0.0009775162 -0.999999
vn -0.0009775162 0.0009775162 -0.999999
vn -0.0009775162 0.0009775162 -0.999999
vn 0.9999995 0.0009775162 0
vn 0.9999995 0.0009775162 0
vn 0.9999995 0.0009775162 0
vn 0.9999995 0.0009775162 0
vn -0.0009775162 0.9999995 0
vn -0.0009775162 0.9999995 0
vn -0.0009775162 0.9999995 0
vn -0.0009775162 0.9999995 0
vn -0.9999995 0.0009775162 0
vn -0.9999995 0.0009775162 0
vn -0.9999995 0.0009775162 0
vn -0.9999995 0.0009775162 0
g Body_LOD1_0
f 3/3/3 2/2/2 1/1/1
f 4/4/4 3/3/3 1/1/1
f 7/7/7 6/6/6 5/5/5
f 8/8/8 7/7/7 5/5/5
f 11/11/11 10/10/10 9/9/9
f 12/12/12 11/11/11 9/9/9
f 12/12/12 13/13/13 11/11/11
f 13/13/13 14/14/14 11/11/11
f 13/13/13 15/15/15 14/14/14
f 15/15/15 16/16/16 14/14/14
f 19/19/19 18/18/18 17/17/17
f 20/20/20 19/19/19 17/17/17
f 20/20/20 21/21/21 19/19/19
f 21/21/21 22/22/22 19/19/19
f 21/21/21 23/23/23 22/22/22
f 23/23/23 24/24/24 22/22/22
f 27/27/27 26/26/26 25/25/25
f 28/28/28 27/27/27 25/25/25
f 29/29/29 28/28/28 25/25/25
f 30/30/30 29/29/29 25/25/25
f 33/33/33 32/32/32 31/31/31
f 34/34/34 33/33/33 31/31/31
f 35/35/35 34/34/34 31/31/31
f 36/36/36 35/35/35 31/31/31
f 39/39/39 38/38/38 37/37/37
f 40/40/40 39/39/39 37/37/37
f 40/40/40 37/37/37 41/41/41
f 37/37/37 42/42/42 41/41/41
f 45/45/45 44/44/44 43/43/43
f 46/46/46 45/45/45 43/43/43
f 49/49/49 48/48/48 47/47/47
f 50/50/50 49/49/49 47/47/47
f 51/51/51 48/48/48 49/49/49
f 52/52/52 51/51/51 49/49/49
f 52/52/52 53/53/53 51/51/51
f 53/53/53 54/54/54 51/51/51
f 57/57/57 56/56/56 55/55/55
f 58/58/58 57/57/57 55/55/55
f 57/57/57 58/58/58 59/59/59
f 60/60/60 57/57/57 59/59/59
f 60/60/60 59/59/59 61/61/61
f 59/59/59 62/62/62 61/61/61
f 65/65/65 64/64/64 63/63/63
f 66/66/66 65/65/65 63/63/63
f 69/69/69 68/68/68 67/67/67
f 70/70/70 69/69/69 67/67/67
f 71/71/71 69/69/69 70/70/70
f 72/72/72 71/71/71 70/70/70
f 75/75/75 74/74/74 73/73/73
f 76/76/76 75/75/75 73/73/73
f 75/75/75 76/76/76 77/77/77
f 78/78/78 75/75/75 77/77/77
f 81/81/81 80/80/80 79/79/79
f 82/82/82 81/81/81 79/79/79
f 85/85/85 84/84/84 83/83/83
f 86/86/86 85/85/85 83/83/83
f 86/86/86 87/87/87 85/85/85
f 87/87/87 88/88/88 85/85/85
f 89/89/89 88/88/88 87/87/87
f 90/90/90 89/89/89 87/87/87
f 93/93/93 92/92/92 91/91/91
f 94/94/94 93/93/93 91/91/91
f 93/93/93 95/95/95 92/92/92
f 95/95/95 96/96/96 92/92/92
f 97/97/97 94/94/94 91/91/91
f 98/98/98 97/97/97 91/91/91
f 97/97/97 98/98/98 99/99/99
f 100/100/100 97/97/97 99/99/99
f 103/103/103 102/102/102 101/101/101
f 104/104/104 103/103/103 101/101/101
f 107/107/107 106/106/106 105/105/105
f 108/108/108 107/107/107 105/105/105
f 111/111/111 110/110/110 109/109/109
f 112/112/112 111/111/111 109/109/109
f 115/115/115 114/114/114 113/113/113
f 116/116/116 115/115/115 113/113/113
f 119/119/119 118/118/118 117/117/117
f 120/120/120 119/119/119 117/117/117
f 119/119/119 121/121/121 118/118/118
f 121/121/121 122/122/122 118/118/118
f 123/123/123 120/120/120 117/117/117
f 124/124/124 123/123/123 117/117/117
f 123/123/123 124/124/124 125/125/125
f 126/126/126 123/123/123 125/125/125
f 129/129/129 128/128/128 127/127/127
f 130/130/130 129/129/129 127/127/127
f 129/129/129 131/131/131 128/128/128
f 131/131/131 132/132/132 128/128/128
f 133/133/133 130/130/130 127/127/127
f 134/134/134 133/133/133 127/127/127
f 133/133/133 134/134/134 135/135/135
f 136/136/136 133/133/133 135/135/135
f 139/139/139 138/138/138 137/137/137
f 140/140/140 139/139/139 137/137/137
f 139/139/139 141/141/141 138/138/138
f 141/141/141 142/142/142 138/138/138
f 143/143/143 140/140/140 137/137/137
f 144/144/144 143/143/143 137/137/137
f 143/143/143 144/144/144 145/145/145
f 146/146/146 143/143/143 145/145/145
f 149/149/149 148/148/148 147/147/147
f 150/150/150 149/149/149 147/147/147
f 153/153/153 152/152/152 151/151/151
f 154/154/154 153/153/153 151/151/151
f 157/157/157 156/156/156 155/155/155
f 158/158/158 157/157/157 155/155/155
f 161/161/161 160/160/160 159/159/159
f 162/162/162 161/161/161 159/159/159
f 165/165/165 164/164/164 163/163/163
f 166/166/166 165/165/165 163/163/163
f 169/169/169 168/168/168 167/167/167
f 170/170/170 169/169/169 167/167/167
f 173/173/173 172/172/172 171/171/171
f 174/174/174 173/173/173 171/171/171
f 177/177/177 176/176/176 175/175/175
f 178/178/178 177/177/177 175/175/175
f 181/181/181 180/180/180 179/179/179
f 182/182/182 181/181/181 179/179/179
f 185/185/185 184/184/184 183/183/183
f 186/186/186 185/185/185 183/183/183
