g Body_LOD0
v 1.287189 0.03933692 0.2913131
v 0.941775 0.886004 0.2913131
v 0.9937159 0.9419892 0.2330564
v 1.368853 0.03647017 0.2330564
v 1.368853 -0.03647006 0.2330564
v 1.287189 -0.0393368 0.2913131
v 0.941775 -0.8860066 0.2913131
v 0.9937133 -0.9419891 0.2330564
v 0.8865079 0.9419918 0.2913131
v 0.9421458 0.9935541 0.2330564
v 0.03645706 1.368641 0.2330564
v 0.03932905 1.298646 0.2913131
v -0.03932905 1.298646 0.2913131
v -0.03645444 1.368641 0.2330564
v -0.9421432 0.9935541 0.2330564
v -0.886508 0.9419918 0.2913131
v -0.9417751 0.8860066 0.2913131
v -0.9937134 0.9419892 0.2330564
v -1.368853 0.03647268 0.2330564
v -1.287189 0.03933954 0.2913131
v -1.287189 -0.0393368 0.2913131
v -1.368853 -0.03647006 0.2330564
v -0.993716 -0.9419891 0.2330564
v -0.9417751 -0.8860066 0.2913131
v -0.886508 -0.9419917 0.2913131
v -0.9421458 -0.993554 0.2330564
v -0.03645706 -1.368644 0.2330564
v -0.03932905 -1.298646 0.2913131
v 0.03932905 -1.298646 0.2913131
v 0.03645444 -1.368644 0.2330564
v 0.9421432 -0.993554 0.2330564
v 0.8865079 -0.9419917 0.2913131
v 0.941775 0.886004 0.2913131
v 1.287189 0.03933692 0.2913131
v 0.8881606 0.0300734 0.2913131
v 0.6498262 0.6142739 0.2913131
v 0.8881606 -0.02421463 0.2913131
v 1.287189 -0.0393368 0.2913131
v 0.941775 -0.8860066 0.2913131
v 0.6498236 -0.6084151 0.2913131
v 0.8865079 0.9419918 0.2913131
v 0.6116917 0.6529045 0.2913131
v 0.02713883 0.8989959 0.2913131
v 0.03932905 1.298646 0.2913131
v -0.03932905 1.298646 0.2913131
v -0.02713621 0.8989959 0.2913131
v -0.6116917 0.6529045 0.2913131
v -0.886508 0.9419918 0.2913131
v -0.9417751 0.8860066 0.2913131
v -0.6498237 0.6142739 0.2913131
v -0.8881607 0.0300734 0.2913131
v -1.287189 0.03933954 0.2913131
v -1.287189 -0.0393368 0.2913131
v -0.8881607 -0.024212 0.2913131
v -0.6498263 -0.6084151 0.2913131
v -0.9417751 -0.8860066 0.2913131
v -0.886508 -0.9419917 0.2913131
v -0.6116917 -0.6470457 0.2913131
v -0.02713883 -0.8931369 0.2913131
v -0.03932905 -1.298646 0.2913131
v 0.03932905 -1.298646 0.2913131
v 0.02713621 -0.8931369 0.2913131
v 0.6116917 -0.6470457 0.2913131
v 0.8865079 -0.9419917 0.2913131
v 1.368853 0.03647017 0.2330564
v 0.9937159 0.9419892 0.2330564
v 0.9937133 0.9419892 -0.2330564
v 1.368853 0.03647268 -0.2330564
v 1.368853 -0.03647006 -0.2330564
v 1.368853 -0.03647006 0.2330564
v 0.9937133 -0.9419891 0.2330564
v 0.9937159 -0.9419891 -0.2330564
v 0.9421458 0.9935541 0.2330564
v 0.9421432 0.9935541 -0.2330564
v 0.03645444 1.368641 -0.2330564
v 0.03645706 1.368641 0.2330564
v -0.03645444 1.368641 0.2330564
v -0.03645706 1.368641 -0.2330564
v -0.9421432 0.9935541 -0.2330564
v -0.9421432 0.9935541 0.2330564
v -0.9937134 0.9419892 0.2330564
v -0.9937134 0.9419892 -0.2330564
v -1.368853 0.03647268 -0.2330564
v -1.368853 0.03647268 0.2330564
v -1.368853 -0.03647006 0.2330564
v -1.368853 -0.03647006 -0.2330564
v -0.993716 -0.9419891 -0.2330564
v -0.993716 -0.9419891 0.2330564
v -0.9421458 -0.993554 0.2330564
v -0.9421432 -0.993554 -0.2330564
v -0.03645706 -1.368644 -0.2330564
v -0.03645706 -1.368644 0.2330564
v 0.9421458 -0.993554 -0.2330564
v 0.03645444 -1.368644 -0.2330564
v 0.03645444 -1.368644 0.2330564
v 0.9421432 -0.993554 0.2330564
v -0.03645706 -1.368644 -0.2330564
v -0.03645706 -1.368644 0.2330564
v -1.287189 0.03933692 -0.2913131
v -0.9417751 0.886004 -0.2913131
v -0.9937134 0.9419892 -0.2330564
v -1.368853 0.03647268 -0.2330564
v -1.368853 -0.03647006 -0.2330564
v -1.287189 -0.0393368 -0.2913131
v -0.9417751 -0.8860066 -0.2913131
v -0.993716 -0.9419891 -0.2330564
v -0.886508 0.9419918 -0.2913131
v -0.9421432 0.9935541 -0.2330564
v -0.03645706 1.368641 -0.2330564
v -0.03932905 1.298646 -0.2913131
v 0.03932905 1.298646 -0.2913131
v 0.03645444 1.368641 -0.2330564
v 0.9421432 0.9935541 -0.2330564
v 0.8865079 0.9419918 -0.2913131
v 0.941775 0.8860066 -0.2913131
v 0.9937133 0.9419892 -0.2330564
v 1.368853 0.03647268 -0.2330564
v 1.287189 0.03933954 -0.2913131
v 1.287189 -0.0393368 -0.2913131
v 1.368853 -0.03647006 -0.2330564
v 0.9937159 -0.9419891 -0.2330564
v 0.941775 -0.8860066 -0.2913131
v 0.8865079 -0.9419917 -0.2913131
v 0.9421458 -0.993554 -0.2330564
v 0.03645444 -1.368644 -0.2330564
v 0.03932905 -1.298646 -0.2913131
v -0.03932905 -1.298646 -0.2913131
v -0.03645706 -1.368644 -0.2330564
v -0.9421432 -0.993554 -0.2330564
v -0.886508 -0.9419917 -0.2913131
v -0.9417751 0.886004 -0.2913131
v -1.287189 0.03933692 -0.2913131
v -0.8881607 0.0300734 -0.2913131
v -0.6498263 0.6142739 -0.2913131
v -0.8881607 -0.02421463 -0.2913131
v -1.287189 -0.0393368 -0.2913131
v -0.9417751 -0.8860066 -0.2913131
v -0.6498237 -0.6084151 -0.2913131
v -0.886508 0.9419918 -0.2913131
v -0.6116917 0.6529045 -0.2913131
v -0.02713883 0.8989959 -0.2913131
v -0.03932905 1.298646 -0.2913131
v 0.03932905 1.298646 -0.2913131
v 0.02713621 0.8989959 -0.2913131
v 0.6116917 0.6529045 -0.2913131
v 0.8865079 0.9419918 -0.2913131
v 0.941775 0.8860066 -0.2913131
v 0.6498236 0.6142739 -0.2913131
v 0.8881606 0.0300734 -0.2913131
v 1.287189 0.03933954 -0.2913131
v 1.287189 -0.0393368 -0.2913131
v 0.8881606 -0.024212 -0.2913131
v 0.6498262 -0.6084151 -0.2913131
v 0.941775 -0.8860066 -0.2913131
v 0.8865079 -0.9419917 -0.2913131
v 0.6116917 -0.6470457 -0.2913131
v 0.02713621 -0.8931369 -0.2913131
v 0.03932905 -1.298646 -0.2913131
v -0.03932905 -1.298646 -0.2913131
v -0.02713621 -0.8931369 -0.2913131
v -0.6116917 -0.6470457 -0.2913131
v -0.886508 -0.9419917 -0.2913131
vt 0.9631069 0.5460081
vt 0.8483723 0.8286139
vt 0.865627 0.8473014
vt 0.9902409 0.5450578
vt 0.9902409 0.5207142
vt 0.9631069 0.5197489
vt 0.8483723 0.2371581
vt 0.865627 0.2184706
vt 0.8300015 0.8473014
vt 0.848493 0.8645109
vt 0.5476219 0.989713
vt 0.5485721 0.9663497
vt 0.5224487 0.9663497
vt 0.5233989 0.989713
vt 0.222543 0.8645109
vt 0.2410193 0.8473014
vt 0.2226636 0.8286139
vt 0.2054089 0.8473014
vt 0.08078 0.5450578
vt 0.1079139 0.5460081
vt 0.1079139 0.5197489
vt 0.08078 0.5207142
vt 0.2054089 0.2184706
vt 0.2226636 0.2371581
vt 0.2410193 0.2184706
vt 0.222543 0.2012612
vt 0.5233989 0.0760591
vt 0.5224487 0.09942231
vt 0.5485721 0.09942231
vt 0.5476219 0.0760591
vt 0.848493 0.2012612
vt 0.8300015 0.2184706
vt 0.8483723 0.8286139
vt 0.9631069 0.5460081
vt 0.8305596 0.5429161
vt 0.751375 0.7379212
vt 0.8305596 0.5248017
vt 0.9631069 0.5197489
vt 0.8483723 0.2371581
vt 0.751375 0.3298116
vt 0.8300015 0.8473014
vt 0.7387206 0.7508019
vt 0.5445299 0.8329427
vt 0.5485721 0.9663497
vt 0.5224487 0.9663497
vt 0.5264909 0.8329427
vt 0.3323154 0.7508019
vt 0.2410193 0.8473014
vt 0.2226636 0.8286139
vt 0.3196458 0.7379212
vt 0.2404764 0.5429161
vt 0.1079139 0.5460081
vt 0.1079139 0.5197489
vt 0.2404764 0.5248017
vt 0.3196458 0.3298116
vt 0.2226636 0.2371581
vt 0.2410193 0.2184706
vt 0.3323154 0.3169158
vt 0.5264909 0.2347751
vt 0.5224487 0.09942231
vt 0.5485721 0.09942231
vt 0.5445299 0.2347751
vt 0.7387206 0.3169158
vt 0.8300015 0.2184706
vt 0.0686082 0.7379363
vt 0.0686082 0.6234429
vt 0.00405395 0.6234429
vt 0.00405395 0.7379363
vt 0.00405395 0.7464581
vt 0.0686082 0.7464581
vt 0.0686082 0.8609514
vt 0.00405395 0.8609514
vt 0.0686082 0.6149363
vt 0.00405395 0.6149363
vt 0.00405395 0.5004128
vt 0.0686082 0.5004128
vt 0.0686082 0.4919061
vt 0.00405395 0.4919061
vt 0.00405395 0.3773977
vt 0.0686082 0.3773977
vt 0.0686082 0.368876
vt 0.00405395 0.368876
vt 0.00405395 0.2543827
vt 0.0686082 0.2543827
vt 0.0686082 0.2458609
vt 0.00405395 0.2458609
vt 0.00405395 0.1313676
vt 0.0686082 0.1313676
vt 0.0686082 0.1228458
vt 0.00405395 0.1228458
vt 0.00405395 0.008337457
vt 0.0686082 0.008337457
vt 0.00405395 0.8694731
vt 0.00405395 0.9839815
vt 0.0686082 0.9839815
vt 0.0686082 0.8694731
vt 0.00405395 0.9925033
vt 0.0686082 0.9925033
vt 0.9631069 0.5460081
vt 0.8483723 0.8286139
vt 0.865627 0.8473014
vt 0.9902409 0.5450578
vt 0.9902409 0.5207142
vt 0.9631069 0.5197489
vt 0.8483723 0.2371581
vt 0.865627 0.2184706
vt 0.8300015 0.8473014
vt 0.848493 0.8645109
vt 0.5476219 0.989713
vt 0.5485721 0.9663497
vt 0.5224487 0.9663497
vt 0.5233989 0.989713
vt 0.222543 0.8645109
vt 0.2410193 0.8473014
vt 0.2226636 0.8286139
vt 0.2054089 0.8473014
vt 0.08078 0.5450578
vt 0.1079139 0.5460081
vt 0.1079139 0.5197489
vt 0.08078 0.5207142
vt 0.2054089 0.2184706
vt 0.2226636 0.2371581
vt 0.2410193 0.2184706
vt 0.222543 0.2012612
vt 0.5233989 0.0760591
vt 0.5224487 0.09942231
vt 0.5485721 0.09942231
vt 0.5476219 0.0760591
vt 0.848493 0.2012612
vt 0.8300015 0.2184706
vt 0.8483723 0.8286139
vt 0.9631069 0.5460081
vt 0.8305596 0.5429161
vt 0.751375 0.7379212
vt 0.8305596 0.5248017
vt 0.9631069 0.5197489
vt 0.8483723 0.2371581
vt 0.751375 0.3298116
vt 0.8300015 0.8473014
vt 0.7387206 0.7508019
vt 0.5445299 0.8329427
vt 0.5485721 0.9663497
vt 0.5224487 0.9663497
vt 0.5264909 0.8329427
vt 0.3323154 0.7508019
vt 0.2410193 0.8473014
vt 0.2226636 0.8286139
vt 0.3196458 0.7379212
vt 0.2404764 0.5429161
vt 0.1079139 0.5460081
vt 0.1079139 0.5197489
vt 0.2404764 0.5248017
vt 0.3196458 0.3298116
vt 0.2226636 0.2371581
vt 0.2410193 0.2184706
vt 0.3323154 0.3169158
vt 0.5264909 0.2347751
vt 0.5224487 0.09942231
vt 0.5485721 0.09942231
vt 0.5445299 0.2347751
vt 0.7387206 0.3169158
vt 0.8300015 0.2184706
vn 0.583087 0.2235624 0.7810438
vn 0.573962 0.2509373 0.7794858
vn 0.5684869 0.2582373 0.7811121
vn 0.583087 0.2162624 0.7830966
vn 0.583087 -0.2162623 0.7830966
vn 0.583087 -0.2235622 0.7810439
vn 0.573962 -0.2509372 0.7794858
vn 0.5684869 -0.2582372 0.7811121
vn 0.2673622 0.5976871 0.7558357
vn 0.2728372 0.592212 0.7581852
vn 0.2308623 0.6141121 0.7546979
vn 0.2381622 0.612287 0.753912
vn -0.2381623 0.612287 0.753912
vn -0.2308623 0.6141121 0.7546979
vn -0.2728373 0.592212 0.7581851
vn -0.2673623 0.5976871 0.7558357
vn -0.573962 0.2509373 0.7794858
vn -0.5684871 0.2582373 0.781112
vn -0.583087 0.2162624 0.7830964
vn -0.583087 0.2235624 0.7810438
vn -0.583087 -0.2235622 0.7810438
vn -0.583087 -0.2162623 0.7830965
vn -0.5684871 -0.2582372 0.781112
vn -0.573962 -0.2509372 0.7794858
vn -0.2673623 -0.5976869 0.7558358
vn -0.2728373 -0.592212 0.7581851
vn -0.2308623 -0.6141119 0.754698
vn -0.2381623 -0.6122869 0.753912
vn 0.2381622 -0.6122869 0.7539121
vn 0.2308623 -0.6141119 0.754698
vn 0.2728372 -0.592212 0.7581852
vn 0.2673622 -0.5976869 0.7558359
vn -0.0009125471 0.0009125471 0.9999992
vn -0.0009125471 0.0009125471 0.9999992
vn -0.0009125471 0.0009125471 0.9999992
vn -0.0009125471 0.0009125471 0.9999992
vn -0.0009125471 0.0009125471 0.9999992
vn -0.0009125471 0.0009125471 0.9999992
vn -0.0009125471 0.0009125471 0.9999992
vn -0.0009125471 0.0009125471 0.9999992
vn -0.0009125471 0.0009125471 0.9999992
vn -0.0009125471 0.0009125471 0.9999992
vn -0.0009125471 0.0009125471 0.9999992
vn -0.0009125471 0.0009125471 0.9999992
vn -0.0009125471 0.0009125471 0.9999992
vn -0.0009125471 0.0009125471 0.9999992
vn -0.0009125471 0.0009125471 0.9999992
vn -0.0009125471 0.0009125471 0.9999992
vn -0.0009125471 0.0009125471 0.9999992
vn -0.0009125471 0.0009125471 0.9999992
vn -0.0009125471 0.0009125471 0.9999992
vn -0.0009125471 0.0009125471 0.9999992
vn -0.0009125471 0.0009125471 0.9999992
vn -0.0009125471 0.0009125471 0.9999992
vn -0.0009125471 0.0009125471 0.9999992
vn -0.0009125471 0.0009125471 0.9999992
vn -0.0009125471 0.0009125471 0.9999992
vn -0.0009125471 0.0009125471 0.9999992
vn -0.0009125471 0.0009125471 0.9999992
vn -0.0009125471 0.0009125471 0.9999992
vn -0.0009125471 0.0009125471 0.9999992
vn -0.0009125471 0.0009125471 0.9999992
vn -0.0009125471 0.0009125471 0.9999992
vn -0.0009125471 0.0009125471 0.9999992
vn 0.9334866 0.3586122 0
vn 0.9130955 0.407746 0
vn 0.9130955 0.407746 0
vn 0.9334866 0.3586122 0
vn 0.9334866 -0.3586121 -0.0001726335
vn 0.9334866 -0.3586121 -0.0001726335
vn 0.9130955 -0.4077459 0
vn 0.9130955 -0.4077459 0
vn 0.4077458 0.9130955 0
vn 0.4077458 0.9130955 0
vn 0.3586121 0.9334866 0
vn 0.3586121 0.9334866 0
vn -0.3586122 0.9334866 0
vn -0.3586122 0.9334866 0
vn -0.4077459 0.9130955 0
vn -0.4077459 0.9130955 0
vn -0.9130955 0.4077459 0
vn -0.9130955 0.4077459 0
vn -0.9334866 0.3586122 0
vn -0.9334866 0.3586122 0
vn -0.9334866 -0.3586121 0
vn -0.9334866 -0.3586121 0
vn -0.9130955 -0.4077458 0
vn -0.9130955 -0.4077458 0
vn -0.407746 -0.9130955 0
vn -0.407746 -0.9130955 0
vn -0.3586122 -0.9334866 0
vn -0.3586122 -0.9334866 0
vn 0.4077459 -0.9130955 0
vn 0.3586121 -0.9334866 -0.0002441406
vn 0.3586121 -0.9334866 -0.0002441406
vn 0.4077459 -0.9130955 0
vn -0.3586122 -0.9334866 0
vn -0.3586122 -0.9334866 0
vn -0.583087 0.2235624 -0.7810438
vn -0.573962 0.2509373 -0.7794858
vn -0.5684871 0.2582373 -0.781112
vn -0.583087 0.2162624 -0.7830964
vn -0.583087 -0.2162623 -0.7830965
vn -0.583087 -0.2235622 -0.7810438
vn -0.573962 -0.2509372 -0.7794858
vn -0.5684871 -0.2582372 -0.781112
vn -0.2673623 0.5976871 -0.7558357
vn -0.2728373 0.592212 -0.7581851
vn -0.2308623 0.6141121 -0.7546979
vn -0.2381623 0.612287 -0.753912
vn 0.2381622 0.612287 -0.753912
vn 0.2308623 0.6141121 -0.7546979
vn 0.2728372 0.592212 -0.7581852
vn 0.2673622 0.5976871 -0.7558357
vn 0.573962 0.2509373 -0.7794858
vn 0.5684869 0.2582373 -0.7811121
vn 0.583087 0.2162624 -0.7830966
vn 0.583087 0.2235624 -0.7810438
vn 0.583087 -0.2235622 -0.7810439
vn 0.583087 -0.2162623 -0.7830966
vn 0.5684869 -0.2582372 -0.7811121
vn 0.573962 -0.2509372 -0.7794858
vn 0.2673622 -0.5976869 -0.7558359
vn 0.2728372 -0.592212 -0.7581852
vn 0.2308623 -0.6141119 -0.754698
vn 0.2381622 -0.6122869 -0.7539121
vn -0.2381623 -0.6122869 -0.753912
vn -0.2308623 -0.6141119 -0.754698
vn -0.2728373 -0.592212 -0.7581851
vn -0.2673623 -0.5976869 -0.7558358
vn -0.0009125471 0.0009125471 -0.9999992
vn -0.0009125471 0.0009125471 -0.9999992
vn -0.0009125471 0.0009125471 -0.9999992
vn -0.0009125471 0.0009125471 -0.9999992
vn -0.0009125471 0.0009125471 -0.9999992
vn -0.0009125471 0.0009125471 -0.9999992
vn -0.0009125471 0.0009125471 -0.9999992
vn -0.0009125471 0.0009125471 -0.9999992
vn -0.0009125471 0.0009125471 -0.9999992
vn -0.0009125471 0.0009125471 -0.9999992
vn -0.0009125471 0.0009125471 -0.9999992
vn -0.0009125471 0.0009125471 -0.9999992
vn -0.0009125471 0.0009125471 -0.9999992
vn -0.0009125471 0.0009125471 -0.9999992
vn -0.0009125471 0.0009125471 -0.9999992
vn -0.0009125471 0.0009125471 -0.9999992
vn -0.0009125471 0.0009125471 -0.9999992
vn -0.0009125471 0.0009125471 -0.9999992
vn -0.0009125471 0.0009125471 -0.9999992
vn -0.0009125471 0.0009125471 -0.9999992
vn -0.0009125471 0.0009125471 -0.9999992
vn -0.0009125471 0.0009125471 -0.9999992
vn -0.0009125471 0.0009125471 -0.9999992
vn -0.0009125471 0.0009125471 -0.9999992
vn -0.0009125471 0.0009125471 -0.9999992
vn -0.0009125471 0.0009125471 -0.9999992
vn -0.0009125471 0.0009125471 -0.9999992
vn -0.0009125471 0.0009125471 -0.9999992
vn -0.0009125471 0.0009125471 -0.9999992
vn -0.0009125471 0.0009125471 -0.9999992
vn -0.0009125471 0.0009125471 -0.9999992
vn -0.0009125471 0.0009125471 -0.9999992
g Body_LOD0_0
f 3/3/3 2/2/2 1/1/1
f 4/4/4 3/3/3 1/1/1
f 4/4/4 1/1/1 5/5/5
f 1/1/1 6/6/6 5/5/5
f 5/5/5 6/6/6 7/7/7
f 8/8/8 5/5/5 7/7/7
f 9/9/9 2/2/2 3/3/3
f 10/10/10 9/9/9 3/3/3
f 10/10/10 11/11/11 9/9/9
f 11/11/11 12/12/12 9/9/9
f 13/13/13 12/12/12 11/11/11
f 14/14/14 13/13/13 11/11/11
f 14/14/14 15/15/15 13/13/13
f 15/15/15 16/16/16 13/13/13
f 17/17/17 16/16/16 15/15/15
f 18/18/18 17/17/17 15/15/15
f 18/18/18 19/19/19 17/17/17
f 19/19/19 20/20/20 17/17/17
f 21/21/21 20/20/20 19/19/19
f 22/22/22 21/21/21 19/19/19
f 22/22/22 23/23/23 21/21/21
f 23/23/23 24/24/24 21/21/21
f 25/25/25 24/24/24 23/23/23
f 26/26/26 25/25/25 23/23/23
f 26/26/26 27/27/27 25/25/25
f 27/27/27 28/28/28 25/25/25
f 29/29/29 28/28/28 27/27/27
f 30/30/30 29/29/29 27/27/27
f 30/30/30 31/31/31 29/29/29
f 31/31/31 32/32/32 29/29/29
f 7/7/7 32/32/32 31/31/31
f 8/8/8 7/7/7 31/31/31
f 35/35/35 34/34/34 33/33/33
f 36/36/36 35/35/35 33/33/33
f 35/35/35 37/37/37 34/34/34
f 37/37/37 38/38/38 34/34/34
f 39/39/39 38/38/38 37/37/37
f 40/40/40 39/39/39 37/37/37
f 36/36/36 33/33/33 41/41/41
f 42/42/42 36/36/36 41/41/41
f 42/42/42 41/41/41 43/43/43
f 41/41/41 44/44/44 43/43/43
f 43/43/43 44/44/44 45/45/45
f 46/46/46 43/43/43 45/45/45
f 46/46/46 45/45/45 47/47/47
f 45/45/45 48/48/48 47/47/47
f 47/47/47 48/48/48 49/49/49
f 50/50/50 47/47/47 49/49/49
f 50/50/50 49/49/49 51/51/51
f 49/49/49 52/52/52 51/51/51
f 51/51/51 52/52/52 53/53/53
f 54/54/54 51/51/51 53/53/53
f 54/54/54 53/53/53 55/55/55
f 53/53/53 56/56/56 55/55/55
f 55/55/55 56/56/56 57/57/57
f 58/58/58 55/55/55 57/57/57
f 58/58/58 57/57/57 59/59/59
f 57/57/57 60/60/60 59/59/59
f 59/59/59 60/60/60 61/61/61
f 62/62/62 59/59/59 61/61/61
f 62/62/62 61/61/61 63/63/63
f 61/61/61 64/64/64 63/63/63
f 63/63/63 64/64/64 39/39/39
f 40/40/40 63/63/63 39/39/39
f 67/67/67 66/66/66 65/65/65
f 68/68/68 67/67/67 65/65/65
f 69/69/69 68/68/68 65/65/65
f 70/70/70 69/69/69 65/65/65
f 70/70/70 71/71/71 69/69/69
f 71/71/71 72/72/72 69/69/69
f 66/66/66 67/67/67 73/73/73
f 67/67/67 74/74/74 73/73/73
f 73/73/73 74/74/74 75/75/75
f 76/76/76 73/73/73 75/75/75
f 76/76/76 75/75/75 77/77/77
f 75/75/75 78/78/78 77/77/77
f 77/77/77 78/78/78 79/79/79
f 80/80/80 77/77/77 79/79/79
f 80/80/80 79/79/79 81/81/81
f 79/79/79 82/82/82 81/81/81
f 81/81/81 82/82/82 83/83/83
f 84/84/84 81/81/81 83/83/83
f 84/84/84 83/83/83 85/85/85
f 83/83/83 86/86/86 85/85/85
f 85/85/85 86/86/86 87/87/87
f 88/88/88 85/85/85 87/87/87
f 88/88/88 87/87/87 89/89/89
f 87/87/87 90/90/90 89/89/89
f 89/89/89 90/90/90 91/91/91
f 92/92/92 89/89/89 91/91/91
f 95/95/95 94/94/94 93/93/93
f 96/96/96 95/95/95 93/93/93
f 97/97/97 94/94/94 95/95/95
f 98/98/98 97/97/97 95/95/95
f 96/96/96 93/93/93 71/71/71
f 93/93/93 72/72/72 71/71/71
f 101/101/101 100/100/100 99/99/99
f 102/102/102 101/101/101 99/99/99
f 102/102/102 99/99/99 103/103/103
f 99/99/99 104/104/104 103/103/103
f 103/103/103 104/104/104 105/105/105
f 106/106/106 103/103/103 105/105/105
f 107/107/107 100/100/100 101/101/101
f 108/108/108 107/107/107 101/101/101
f 108/108/108 109/109/109 107/107/107
f 109/109/109 110/110/110 107/107/107
f 111/111/111 110/110/110 109/109/109
f 112/112/112 111/111/111 109/109/109
f 112/112/112 113/113/113 111/111/111
f 113/113/113 114/114/114 111/111/111
f 115/115/115 114/114/114 113/113/113
f 116/116/116 115/115/115 113/113/113
f 116/116/116 117/117/117 115/115/115
f 117/117/117 118/118/118 115/115/115
f 119/119/119 118/118/118 117/117/117
f 120/120/120 119/119/119 117/117/117
f 120/120/120 121/121/121 119/119/119
f 121/121/121 122/122/122 119/119/119
f 123/123/123 122/122/122 121/121/121
f 124/124/124 123/123/123 121/121/121
f 124/124/124 125/125/125 123/123/123
f 125/125/125 126/126/126 123/123/123
f 127/127/127 126/126/126 125/125/125
f 128/128/128 127/127/127 125/125/125
f 128/128/128 129/129/129 127/127/127
f 129/129/129 130/130/130 127/127/127
f 105/105/105 130/130/130 129/129/129
f 106/106/106 105/105/105 129/129/129
f 133/133/133 132/132/132 131/131/131
f 134/134/134 133/133/133 131/131/131
f 133/133/133 135/135/135 132/132/132
f 135/135/135 136/136/136 132/132/132
f 137/137/137 136/136/136 135/135/135
f 138/138/138 137/137/137 135/135/135
f 134/134/134 131/131/131 139/139/139
f 140/140/140 134/134/134 139/139/139
f 140/140/140 139/139/139 141/141/141
f 139/139/139 142/142/142 141/141/141
f 141/141/141 142/142/142 143/143/143
f 144/144/144 141/141/141 143/143/143
f 144/144/144 143/143/143 145/145/145
f 143/143/143 146/146/146 145/145/145
f 145/145/145 146/146/146 147/147/147
f 148/148/148 145/145/145 147/147/147
f 148/148/148 147/147/147 149/149/149
f 147/147/147 150/150/150 149/149/149
f 149/149/149 150/150/150 151/151/151
f 152/152/152 149/149/149 151/151/151
f 152/152/152 151/151/151 153/153/153
f 151/151/151 154/154/154 153/153/153
f 153/153/153 154/154/154 155/155/155
f 156/156/156 153/153/153 155/155/155
f 156/156/156 155/155/155 157/157/157
f 155/155/155 158/158/158 157/157/157
f 157/157/157 158/158/158 159/159/159
f 160/160/160 157/157/157 159/159/159
f 160/160/160 159/159/159 161/161/161
f 159/159/159 162/162/162 161/161/161
f 161/161/161 162/162/162 137/137/137
f 138/138/138 161/161/161 137/137/137
