g Body_LOD1
v 10.48828 2.498474 0.0001831055
v 9.082947 2.498474 -5.24353
v 15.14807 1.663452 -8.745239
v 17.49158 1.663452 0.0001831055
v 8.745239 1.663452 -15.14807
v 5.24353 2.498474 -9.082947
v -0.0001831055 1.663452 -17.49158
v -0.0001831055 2.498474 -10.48828
v -0.0001831055 2.94812 0.0001831055
v 19.00006 1.12915 0.0001831055
v 16.45508 1.12915 -9.500427
v 9.500427 1.12915 -16.45508
v -0.0001831055 1.12915 -19.00006
v 19.00006 1.12915 0.0001831055
v 16.45508 1.12915 -9.500427
v 17.32031 -0.5477295 -9.999695
v 19.99957 -0.5477295 0.0001831055
v 19.99957 -2.876648 0.0001831055
v 17.32031 -2.876648 -9.999695
v 16.86676 -3.994873 -9.737915
v 19.47601 -3.994873 0.0001831055
v 16.45508 1.12915 9.499878
v 17.32031 -0.5477295 10.00006
v 17.32031 -2.876648 10.00006
v 16.86676 -3.994873 9.738281
v 16.45508 1.12915 -9.500427
v 9.500427 1.12915 -16.45508
v 9.999695 -0.5477295 -17.32031
v 17.32031 -0.5477295 -9.999695
v -0.0001831055 -0.5477295 -19.99957
v -0.0001831055 1.12915 -19.00006
v 17.32031 -2.876648 -9.999695
v 9.999695 -2.876648 -17.32031
v 9.737915 -3.994873 -16.86676
v 16.86676 -3.994873 -9.737915
v -0.0001831055 -3.994873 -19.47601
v -0.0001831055 -2.876648 -19.99957
v -9.082336 2.498474 -5.24353
v -10.48767 2.498474 0.0001831055
v -17.49103 1.663452 0.0001831055
v -15.14746 1.663452 -8.745239
v -5.243958 2.498474 -9.082947
v -8.745605 1.663452 -15.14807
v -0.0001831055 2.498474 -10.48828
v -0.0001831055 1.663452 -17.49158
v -0.0001831055 2.94812 0.0001831055
v -9.499878 1.12915 -16.45508
v -16.45453 1.12915 -9.500427
v -0.0001831055 1.12915 -19.00006
v -19.00049 1.12915 0.0001831055
v -16.45453 1.12915 -9.500427
v -19.00049 1.12915 0.0001831055
v -20 -0.5477295 0.0001831055
v -17.32068 -0.5477295 -9.999695
v -20 -2.876648 0.0001831055
v -17.32068 -2.876648 -9.999695
v -19.47638 -3.994873 0.0001831055
v -16.86719 -3.994873 -9.737915
v -17.32068 -0.5477295 10.00006
v -16.45453 1.12915 9.499878
v -16.86719 -3.994873 9.738281
v -17.32068 -2.876648 10.00006
v -9.499878 1.12915 -16.45508
v -16.45453 1.12915 -9.500427
v -17.32068 -0.5477295 -9.999695
v -10.00006 -0.5477295 -17.32031
v -0.0001831055 1.12915 -19.00006
v -0.0001831055 -0.5477295 -19.99957
v -10.00006 -2.876648 -17.32031
v -17.32068 -2.876648 -9.999695
v -9.738281 -3.994873 -16.86676
v -16.86719 -3.994873 -9.737915
v -0.0001831055 -3.994873 -19.47601
v -0.0001831055 -2.876648 -19.99957
v 9.082947 2.498474 5.243958
v 10.48828 2.498474 0.0001831055
v 17.49158 1.663452 0.0001831055
v 15.14807 1.663452 8.745605
v 5.24353 2.498474 9.082336
v 8.745239 1.663452 15.14746
v -0.0001831055 2.498474 10.48767
v -0.0001831055 1.663452 17.49103
v -0.0001831055 2.94812 0.0001831055
v 9.500427 1.12915 16.45453
v 16.45508 1.12915 9.499878
v -0.0001831055 1.12915 19.00049
v 19.00006 1.12915 0.0001831055
v 9.500427 1.12915 16.45453
v 16.45508 1.12915 9.499878
v 17.32031 -0.5477295 10.00006
v 9.999695 -0.5477295 17.32068
v -0.0001831055 1.12915 19.00049
v -0.0001831055 -0.5477295 20
v 9.999695 -2.876648 17.32068
v 17.32031 -2.876648 10.00006
v 9.737915 -3.994873 16.86719
v 16.86676 -3.994873 9.738281
v -0.0001831055 -3.994873 19.47638
v -0.0001831055 -2.876648 20
v -10.48767 2.498474 0.0001831055
v -9.082336 2.498474 5.243958
v -15.14746 1.663452 8.745605
v -17.49103 1.663452 0.0001831055
v -8.745605 1.663452 15.14746
v -5.243958 2.498474 9.082336
v -0.0001831055 1.663452 17.49103
v -0.0001831055 2.498474 10.48767
v -0.0001831055 2.94812 0.0001831055
v -19.00049 1.12915 0.0001831055
v -16.45453 1.12915 9.499878
v -9.499878 1.12915 16.45453
v -0.0001831055 1.12915 19.00049
v -16.45453 1.12915 9.499878
v -9.499878 1.12915 16.45453
v -10.00006 -0.5477295 17.32068
v -17.32068 -0.5477295 10.00006
v -0.0001831055 -0.5477295 20
v -0.0001831055 1.12915 19.00049
v -17.32068 -2.876648 10.00006
v -10.00006 -2.876648 17.32068
v -9.738281 -3.994873 16.86719
v -16.86719 -3.994873 9.738281
v -0.0001831055 -3.994873 19.47638
v -0.0001831055 -2.876648 20
v 9.737915 -3.994873 -16.86676
v -0.0001831055 -1.744812 0.0001831055
v 16.86676 -3.994873 -9.737915
v -0.0001831055 -3.994873 -19.47601
v -0.0001831055 -1.744812 0.0001831055
v 9.737915 -3.994873 -16.86676
v -9.738281 -3.994873 -16.86676
v -0.0001831055 -1.744812 0.0001831055
v -0.0001831055 -3.994873 -19.47601
v -16.86719 -3.994873 -9.737915
v -0.0001831055 -1.744812 0.0001831055
v -9.738281 -3.994873 -16.86676
v -19.47638 -3.994873 0.0001831055
v -0.0001831055 -1.744812 0.0001831055
v -16.86719 -3.994873 -9.737915
v -16.86719 -3.994873 9.738281
v -0.0001831055 -1.744812 0.0001831055
v -19.47638 -3.994873 0.0001831055
v -9.738281 -3.994873 16.86719
v -0.0001831055 -1.744812 0.0001831055
v -16.86719 -3.994873 9.738281
v -0.0001831055 -3.994873 19.47638
v -0.0001831055 -1.744812 0.0001831055
v -9.738281 -3.994873 16.86719
v 9.737915 -3.994873 16.86719
v -0.0001831055 -1.744812 0.0001831055
v -0.0001831055 -3.994873 19.47638
v 16.86676 -3.994873 9.738281
v -0.0001831055 -1.744812 0.0001831055
v 9.737915 -3.994873 16.86719
v 19.47601 -3.994873 0.0001831055
v -0.0001831055 -1.744812 0.0001831055
v 16.86676 -3.994873 9.738281
v 16.86676 -3.994873 -9.737915
v -0.0001831055 -1.744812 0.0001831055
v 19.47601 -3.994873 0.0001831055
v -0.0001831055 -0.4007568 -4.449402
v -0.0001831055 -183.9998 -4.449402
v 3.85376 -183.9998 -2.224609
v 3.85376 -0.4007568 -2.224609
v -3.85321 -0.4007568 -2.224609
v -3.85321 -183.9998 -2.224609
v -3.85321 -0.4007568 2.224976
v -3.85321 -183.9998 2.224976
v -0.0001831055 -0.4007568 4.449768
v -0.0001831055 -183.9998 4.449768
v 3.85376 -0.4007568 2.224976
v 3.85376 -183.9998 2.224976
v 3.85376 -0.4007568 -2.224609
v 3.85376 -183.9998 -2.224609
v -0.0001831055 -1000.5 4.449768
v 3.85376 -1000.5 2.224976
v 3.85376 -1000.5 -2.224609
v 3.85376 -1000.5 -2.224609
v -3.85321 -1000.5 -2.224609
v -0.0001831055 -1000.5 -4.449402
v -3.85321 -1000.5 2.224976
vt 0.02228695 0.3799289
vt 0.2029416 0.3345193
vt 0.3431659 0.5835866
vt 0.01733751 0.6672949
vt 0.5819318 0.3517529
vt 0.3363083 0.204671
vt 0.6705746 0.03085903
vt 0.3878153 0.0250002
vt 0.02658045 0.01866432
vt 0.01672628 0.7347683
vt 0.3750093 0.6439043
vt 0.6388206 0.3855045
vt 0.7359907 0.03142553
vt 0.4361022 0.9931381
vt 0.8560594 0.9931381
vt 0.8560594 0.9180915
vt 0.4361022 0.9180915
vt 0.4361022 0.8139147
vt 0.8560594 0.8139147
vt 0.8560594 0.7638686
vt 0.4361022 0.7638686
vt 0.01614487 0.9931381
vt 0.01614487 0.9180915
vt 0.01614487 0.8139147
vt 0.01614487 0.7638686
vt 0.01614487 0.9931381
vt 0.4361022 0.9931381
vt 0.4361022 0.9180915
vt 0.01614487 0.9180915
vt 0.8560594 0.9180915
vt 0.8560594 0.9931381
vt 0.01614487 0.8139147
vt 0.4361022 0.8139147
vt 0.4361022 0.7638686
vt 0.01614487 0.7638686
vt 0.8560594 0.7638686
vt 0.8560594 0.8139147
vt 0.2029416 0.3345193
vt 0.02228695 0.3799289
vt 0.01733751 0.6672949
vt 0.3431659 0.5835866
vt 0.3363083 0.204671
vt 0.5819318 0.3517529
vt 0.3878153 0.0250002
vt 0.6705746 0.03085903
vt 0.02658045 0.01866432
vt 0.6388206 0.3855045
vt 0.3750093 0.6439043
vt 0.7359907 0.03142553
vt 0.01672628 0.7347683
vt 0.01614487 0.9931381
vt 0.4361022 0.9931381
vt 0.4361022 0.9180915
vt 0.01614487 0.9180915
vt 0.4361022 0.8139147
vt 0.01614487 0.8139147
vt 0.4361022 0.7638686
vt 0.01614487 0.7638686
vt 0.8560594 0.9180915
vt 0.8560594 0.9931381
vt 0.8560594 0.7638686
vt 0.8560594 0.8139147
vt 0.4361022 0.9931381
vt 0.8560594 0.9931381
vt 0.8560594 0.9180915
vt 0.4361022 0.9180915
vt 0.01614487 0.9931381
vt 0.01614487 0.9180915
vt 0.4361022 0.8139147
vt 0.8560594 0.8139147
vt 0.4361022 0.7638686
vt 0.8560594 0.7638686
vt 0.01614487 0.7638686
vt 0.01614487 0.8139147
vt 0.2029416 0.3345193
vt 0.02228695 0.3799289
vt 0.01733751 0.6672949
vt 0.3431659 0.5835866
vt 0.3363083 0.204671
vt 0.5819318 0.3517529
vt 0.3878153 0.0250002
vt 0.6705746 0.03085903
vt 0.02658045 0.01866432
vt 0.6388206 0.3855045
vt 0.3750093 0.6439043
vt 0.7359907 0.03142553
vt 0.01672628 0.7347683
vt 0.4361022 0.9931381
vt 0.8560594 0.9931381
vt 0.8560594 0.9180915
vt 0.4361022 0.9180915
vt 0.01614487 0.9931381
vt 0.01614487 0.9180915
vt 0.4361022 0.8139147
vt 0.8560594 0.8139147
vt 0.4361022 0.7638686
vt 0.8560594 0.7638686
vt 0.01614487 0.7638686
vt 0.01614487 0.8139147
vt 0.02228695 0.3799289
vt 0.2029416 0.3345193
vt 0.3431659 0.5835866
vt 0.01733751 0.6672949
vt 0.5819318 0.3517529
vt 0.3363083 0.204671
vt 0.6705746 0.03085903
vt 0.3878153 0.0250002
vt 0.02658045 0.01866432
vt 0.01672628 0.7347683
vt 0.3750093 0.6439043
vt 0.6388206 0.3855045
vt 0.7359907 0.03142553
vt 0.01614487 0.9931381
vt 0.4361022 0.9931381
vt 0.4361022 0.9180915
vt 0.01614487 0.9180915
vt 0.8560594 0.9180915
vt 0.8560594 0.9931381
vt 0.01614487 0.8139147
vt 0.4361022 0.8139147
vt 0.4361022 0.7638686
vt 0.01614487 0.7638686
vt 0.8560594 0.7638686
vt 0.8560594 0.8139147
vt 0.8615158 0.4616097
vt 0.849485 0.3207593
vt 0.929183 0.4359531
vt 0.790047 0.449728
vt 0.849485 0.3207593
vt 0.8615158 0.4616097
vt 0.7343658 0.4035283
vt 0.849485 0.3207593
vt 0.790047 0.449728
vt 0.7086346 0.335697
vt 0.849485 0.3207593
vt 0.7343658 0.4035283
vt 0.7207399 0.264437
vt 0.849485 0.3207593
vt 0.7086346 0.335697
vt 0.7669694 0.2086365
vt 0.849485 0.3207593
vt 0.7207399 0.264437
vt 0.8346964 0.1832482
vt 0.849485 0.3207593
vt 0.7669694 0.2086365
vt 0.9060161 0.1952491
vt 0.849485 0.3207593
vt 0.8346964 0.1832482
vt 0.9620998 0.2410166
vt 0.849485 0.3207593
vt 0.9060161 0.1952491
vt 0.9871899 0.3088627
vt 0.849485 0.3207593
vt 0.9620998 0.2410166
vt 0.9754573 0.3804358
vt 0.849485 0.3207593
vt 0.9871899 0.3088627
vt 0.929183 0.4359531
vt 0.849485 0.3207593
vt 0.9754573 0.3804358
vt 0.9808391 0.6877933
vt 0.7930137 0.6877933
vt 0.7930137 0.7294163
vt 0.9808391 0.7294163
vt 0.9808391 0.6461554
vt 0.7930137 0.6461554
vt 0.9808391 0.6045174
vt 0.7930137 0.6045174
vt 0.9808391 0.5628794
vt 0.7930137 0.5628794
vt 0.9808391 0.5212564
vt 0.7930137 0.5212564
vt 0.9808391 0.4796185
vt 0.7930137 0.4796185
vt 0.6052032 0.5628794
vt 0.6052032 0.5212564
vt 0.6051883 0.4796185
vt 0.6051883 0.7294163
vt 0.6052032 0.6461554
vt 0.6052032 0.6877933
vt 0.6051883 0.6045174
vn 0.0967117 0.9953125 0
vn 0.08315182 0.9961037 -0.02938017
vn 0.1571801 0.9824669 -0.100266
vn 0.1825056 0.9824669 -0.03808672
vn 0.09094423 0.9824669 -0.1627514
vn 0.04808575 0.9961037 -0.07392665
vn -0.0006171465 0.9824669 -0.1864363
vn -0.0006171465 0.9961037 -0.0881875
vn -0.0006171464 0.9999998 0
vn 0.7025795 0.7116053 0
vn 0.6071946 0.7116789 -0.3533099
vn 0.3500435 0.7116789 -0.6090835
vn -0.0006171465 0.7116789 -0.7025046
vn 0.7025795 0.7116053 0
vn 0.6071946 0.7116789 -0.3533099
vn 0.8429165 0.2265984 -0.4880009
vn 0.9734402 0.2265984 -0.03267086
vn 0.9890251 -0.1415952 -0.04219258
vn 0.8565533 -0.1415952 -0.4962533
vn 0.7844731 -0.4240718 -0.4525098
vn 0.9052562 -0.4240718 -0.02596858
vn 0.6071946 0.7116789 0.3533099
vn 0.8429165 0.2265984 0.4880009
vn 0.8565533 -0.1415952 0.4962533
vn 0.7844731 -0.4240718 0.4525098
vn 0.6071946 0.7116789 -0.3533099
vn 0.3500435 0.7116789 -0.6090835
vn 0.4864115 0.2265984 -0.8438347
vn 0.8429165 0.2265984 -0.4880009
vn -0.0006171465 0.2265984 -0.9739881
vn -0.0006171465 0.7116789 -0.7025046
vn 0.8565533 -0.1415952 -0.4962533
vn 0.494204 -0.1415952 -0.8577373
vn 0.4532936 -0.4240718 -0.7840204
vn 0.7844731 -0.4240718 -0.4525098
vn -0.0006171465 -0.4240718 -0.9056283
vn -0.0006171465 -0.1415952 -0.9899244
vn -0.08438605 0.9961037 -0.02561965
vn -0.09600504 0.9953808 0
vn -0.1817918 0.9824669 -0.04135932
vn -0.1584144 0.9824669 -0.09830443
vn -0.04932004 0.9961037 -0.07310901
vn -0.09023041 0.9824669 -0.1631482
vn -0.0006171465 0.9961037 -0.0881875
vn -0.0006171465 0.9824669 -0.1864363
vn -0.0006171464 0.9999998 0
vn -0.3512778 0.7116789 -0.6083724
vn -0.6084289 0.7116789 -0.35118
vn -0.0006171465 0.7116789 -0.7025046
vn -0.7019383 0.7116789 -0.02820854
vn -0.6084289 0.7116789 -0.35118
vn -0.7019383 0.7116789 -0.02820854
vn -0.9740235 0.2264471 0
vn -0.8441507 0.2265984 -0.4858628
vn -0.9899313 -0.1415483 0
vn -0.8577875 -0.1415952 -0.4941167
vn -0.9057834 -0.4237411 0
vn -0.7837592 -0.4240718 -0.4537451
vn -0.8441507 0.2265984 0.4858628
vn -0.6084289 0.7116789 0.35118
vn -0.7837592 -0.4240718 0.4537451
vn -0.8577875 -0.1415952 0.4941167
vn -0.3512778 0.7116789 -0.6083724
vn -0.6084289 0.7116789 -0.35118
vn -0.8441507 0.2265984 -0.4858628
vn -0.4876458 0.2265984 -0.843122
vn -0.0006171465 0.7116789 -0.7025046
vn -0.0006171465 0.2265984 -0.9739881
vn -0.4954383 -0.1415952 -0.8570249
vn -0.8577875 -0.1415952 -0.4941167
vn -0.4525797 -0.4240718 -0.7844327
vn -0.7837592 -0.4240718 -0.4537451
vn -0.0006171465 -0.4240718 -0.9056283
vn -0.0006171465 -0.1415952 -0.9899244
vn 0.08315182 0.9961037 0.02938017
vn 0.0967117 0.9953125 0
vn 0.1825056 0.9824669 -0.03808672
vn 0.1571801 0.9824669 0.100266
vn 0.04808575 0.9961037 0.07392665
vn 0.09094423 0.9824669 0.1627514
vn -0.0006171465 0.9961037 0.0881875
vn -0.0006171465 0.9824669 0.1864363
vn -0.0006171464 0.9999998 0
vn 0.3500435 0.7116789 0.6090835
vn 0.6071946 0.7116789 0.3533099
vn -0.0006171465 0.7116789 0.7025046
vn 0.7025795 0.7116053 0
vn 0.3500435 0.7116789 0.6090835
vn 0.6071946 0.7116789 0.3533099
vn 0.8429165 0.2265984 0.4880009
vn 0.4864115 0.2265984 0.8438347
vn -0.0006171465 0.7116789 0.7025046
vn -0.0006171465 0.2265984 0.9739881
vn 0.494204 -0.1415952 0.8577373
vn 0.8565533 -0.1415952 0.4962533
vn 0.4532936 -0.4240718 0.7840204
vn 0.7844731 -0.4240718 0.4525098
vn -0.0006171465 -0.4240718 0.9056283
vn -0.0006171465 -0.1415952 0.9899244
vn -0.09600504 0.9953808 0
vn -0.08438605 0.9961037 0.02561965
vn -0.1584144 0.9824669 0.09830443
vn -0.1817918 0.9824669 -0.04135932
vn -0.09023041 0.9824669 0.1631482
vn -0.04932004 0.9961037 0.07310901
vn -0.0006171465 0.9824669 0.1864363
vn -0.0006171465 0.9961037 0.0881875
vn -0.0006171464 0.9999998 0
vn -0.7019383 0.7116789 -0.02820854
vn -0.6084289 0.7116789 0.35118
vn -0.3512778 0.7116789 0.6083724
vn -0.0006171465 0.7116789 0.7025046
vn -0.6084289 0.7116789 0.35118
vn -0.3512778 0.7116789 0.6083724
vn -0.4876458 0.2265984 0.843122
vn -0.8441507 0.2265984 0.4858628
vn -0.0006171465 0.2265984 0.9739881
vn -0.0006171465 0.7116789 0.7025046
vn -0.8577875 -0.1415952 0.4941167
vn -0.4954383 -0.1415952 0.8570249
vn -0.4525797 -0.4240718 0.7844327
vn -0.7837592 -0.4240718 0.4537451
vn -0.0006171465 -0.4240718 0.9056283
vn -0.0006171465 -0.1415952 0.9899244
vn -0.08438605 -0.9929213 0.08358385
vn -0.08438605 -0.9929213 0.08358385
vn -0.08438605 -0.9929213 0.08358385
vn -0.02983886 -0.9929213 0.1149648
vn -0.02983886 -0.9929213 0.1149648
vn -0.02983886 -0.9929213 0.1149648
vn 0.03055269 -0.9929213 0.1147773
vn 0.03055269 -0.9929213 0.1147773
vn 0.03055269 -0.9929213 0.1147773
vn 0.08315182 -0.9929213 0.08481207
vn 0.08315182 -0.9929213 0.08481207
vn 0.08315182 -0.9929213 0.08481207
vn 0.1143216 -0.9929213 0.03221546
vn 0.1143216 -0.9929213 0.03221546
vn 0.1143216 -0.9929213 0.03221546
vn 0.1143216 -0.9929213 -0.03221546
vn 0.1143216 -0.9929213 -0.03221546
vn 0.1143216 -0.9929213 -0.03221546
vn 0.08315182 -0.9929213 -0.08481207
vn 0.08315182 -0.9929213 -0.08481207
vn 0.08315182 -0.9929213 -0.08481207
vn 0.03055269 -0.9929213 -0.1147773
vn 0.03055269 -0.9929213 -0.1147773
vn 0.03055269 -0.9929213 -0.1147773
vn -0.02983886 -0.9929213 -0.1149648
vn -0.02983886 -0.9929213 -0.1149648
vn -0.02983886 -0.9929213 -0.1149648
vn -0.08438605 -0.9929213 -0.08358385
vn -0.08438605 -0.9929213 -0.08358385
vn -0.08438605 -0.9929213 -0.08358385
vn -0.1155559 -0.9929213 -0.02746121
vn -0.1155559 -0.9929213 -0.02746121
vn -0.1155559 -0.9929213 -0.02746121
vn -0.1155559 -0.9929213 0.02746121
vn -0.1155559 -0.9929213 0.02746121
vn -0.1155559 -0.9929213 0.02746121
vn -0.0006171465 0.0006171465 -0.9999996
vn -0.0006171465 0.0006171465 -0.9999996
vn 0.8662938 0.0006171465 -0.4995344
vn 0.8662938 0.0006171465 -0.4995344
vn -0.86558 0.0006171465 -0.5007703
vn -0.86558 0.0006171465 -0.5007703
vn -0.86558 0.0006171465 0.5007703
vn -0.86558 0.0006171465 0.5007703
vn -0.0006171465 0.0006171465 0.9999996
vn -0.0006171465 0.0006171465 0.9999996
vn 0.8662938 0.0006171465 0.4995344
vn 0.8662938 0.0006171465 0.4995344
vn 0.8662938 0.0006171465 -0.4995344
vn 0.8662938 0.0006171465 -0.4995344
vn -0.0006171465 0.0006171465 0.9999996
vn 0.8662938 0.0006171465 0.4995344
vn 0.8662938 0.0006171465 -0.4995344
vn 0.8662938 0.0006171465 -0.4995344
vn -0.86558 0.0006171465 -0.5007703
vn -0.0006171465 0.0006171465 -0.9999996
vn -0.86558 0.0006171465 0.5007703
g Body_LOD1_0
f 3/3/3 2/2/2 1/1/1
f 4/4/4 3/3/3 1/1/1
f 3/3/3 5/5/5 2/2/2
f 5/5/5 6/6/6 2/2/2
f 5/5/5 7/7/7 6/6/6
f 7/7/7 8/8/8 6/6/6
f 2/2/2 9/9/9 1/1/1
f 2/2/2 6/6/6 9/9/9
f 6/6/6 8/8/8 9/9/9
f 3/3/3 4/4/4 10/10/10
f 11/11/11 3/3/3 10/10/10
f 3/3/3 11/11/11 5/5/5
f 11/11/11 12/12/12 5/5/5
f 5/5/5 12/12/12 7/7/7
f 12/12/12 13/13/13 7/7/7
f 16/16/16 15/15/15 14/14/14
f 17/17/17 16/16/16 14/14/14
f 16/16/16 17/17/17 18/18/18
f 19/19/19 16/16/16 18/18/18
f 19/19/19 18/18/18 20/20/20
f 18/18/18 21/21/21 20/20/20
f 17/17/17 14/14/14 22/22/22
f 23/23/23 17/17/17 22/22/22
f 17/17/17 23/23/23 18/18/18
f 18/18/18 24/24/24 21/21/21
f 23/23/23 24/24/24 18/18/18
f 24/24/24 25/25/25 21/21/21
f 28/28/28 27/27/27 26/26/26
f 29/29/29 28/28/28 26/26/26
f 28/28/28 30/30/30 27/27/27
f 30/30/30 31/31/31 27/27/27
f 29/29/29 32/32/32 28/28/28
f 32/32/32 33/33/33 28/28/28
f 28/28/28 33/33/33 30/30/30
f 34/34/34 33/33/33 32/32/32
f 35/35/35 34/34/34 32/32/32
f 34/34/34 36/36/36 33/33/33
f 36/36/36 37/37/37 33/33/33
f 33/33/33 37/37/37 30/30/30
f 40/40/40 39/39/39 38/38/38
f 41/41/41 40/40/40 38/38/38
f 41/41/41 38/38/38 42/42/42
f 43/43/43 41/41/41 42/42/42
f 43/43/43 42/42/42 44/44/44
f 45/45/45 43/43/43 44/44/44
f 42/42/42 38/38/38 46/46/46
f 44/44/44 42/42/42 46/46/46
f 39/39/39 46/46/46 38/38/38
f 43/43/43 47/47/47 41/41/41
f 47/47/47 48/48/48 41/41/41
f 40/40/40 41/41/41 48/48/48
f 49/49/49 47/47/47 43/43/43
f 45/45/45 49/49/49 43/43/43
f 50/50/50 40/40/40 48/48/48
f 53/53/53 52/52/52 51/51/51
f 54/54/54 53/53/53 51/51/51
f 53/53/53 54/54/54 55/55/55
f 54/54/54 56/56/56 55/55/55
f 55/55/55 56/56/56 57/57/57
f 56/56/56 58/58/58 57/57/57
f 53/53/53 59/59/59 52/52/52
f 59/59/59 53/53/53 55/55/55
f 59/59/59 60/60/60 52/52/52
f 55/55/55 57/57/57 61/61/61
f 62/62/62 55/55/55 61/61/61
f 62/62/62 59/59/59 55/55/55
f 65/65/65 64/64/64 63/63/63
f 66/66/66 65/65/65 63/63/63
f 66/66/66 63/63/63 67/67/67
f 68/68/68 66/66/66 67/67/67
f 66/66/66 69/69/69 65/65/65
f 69/69/69 70/70/70 65/65/65
f 69/69/69 71/71/71 70/70/70
f 71/71/71 72/72/72 70/70/70
f 73/73/73 71/71/71 69/69/69
f 74/74/74 73/73/73 69/69/69
f 74/74/74 69/69/69 66/66/66
f 68/68/68 74/74/74 66/66/66
f 77/77/77 76/76/76 75/75/75
f 78/78/78 77/77/77 75/75/75
f 78/78/78 75/75/75 79/79/79
f 80/80/80 78/78/78 79/79/79
f 80/80/80 79/79/79 81/81/81
f 82/82/82 80/80/80 81/81/81
f 79/79/79 75/75/75 83/83/83
f 81/81/81 79/79/79 83/83/83
f 76/76/76 83/83/83 75/75/75
f 80/80/80 84/84/84 78/78/78
f 84/84/84 85/85/85 78/78/78
f 77/77/77 78/78/78 85/85/85
f 86/86/86 84/84/84 80/80/80
f 82/82/82 86/86/86 80/80/80
f 87/87/87 77/77/77 85/85/85
f 90/90/90 89/89/89 88/88/88
f 91/91/91 90/90/90 88/88/88
f 91/91/91 88/88/88 92/92/92
f 93/93/93 91/91/91 92/92/92
f 91/91/91 94/94/94 90/90/90
f 94/94/94 95/95/95 90/90/90
f 94/94/94 96/96/96 95/95/95
f 96/96/96 97/97/97 95/95/95
f 98/98/98 96/96/96 94/94/94
f 99/99/99 98/98/98 94/94/94
f 99/99/99 94/94/94 91/91/91
f 93/93/93 99/99/99 91/91/91
f 102/102/102 101/101/101 100/100/100
f 103/103/103 102/102/102 100/100/100
f 102/102/102 104/104/104 101/101/101
f 104/104/104 105/105/105 101/101/101
f 104/104/104 106/106/106 105/105/105
f 106/106/106 107/107/107 105/105/105
f 101/101/101 108/108/108 100/100/100
f 101/101/101 105/105/105 108/108/108
f 105/105/105 107/107/107 108/108/108
f 102/102/102 103/103/103 109/109/109
f 110/110/110 102/102/102 109/109/109
f 102/102/102 110/110/110 104/104/104
f 110/110/110 111/111/111 104/104/104
f 104/104/104 111/111/111 106/106/106
f 111/111/111 112/112/112 106/106/106
f 115/115/115 114/114/114 113/113/113
f 116/116/116 115/115/115 113/113/113
f 115/115/115 117/117/117 114/114/114
f 117/117/117 118/118/118 114/114/114
f 116/116/116 119/119/119 115/115/115
f 119/119/119 120/120/120 115/115/115
f 115/115/115 120/120/120 117/117/117
f 121/121/121 120/120/120 119/119/119
f 122/122/122 121/121/121 119/119/119
f 121/121/121 123/123/123 120/120/120
f 123/123/123 124/124/124 120/120/120
f 120/120/120 124/124/124 117/117/117
f 127/127/127 126/126/126 125/125/125
f 130/130/130 129/129/129 128/128/128
f 133/133/133 132/132/132 131/131/131
f 136/136/136 135/135/135 134/134/134
f 139/139/139 138/138/138 137/137/137
f 142/142/142 141/141/141 140/140/140
f 145/145/145 144/144/144 143/143/143
f 148/148/148 147/147/147 146/146/146
f 151/151/151 150/150/150 149/149/149
f 154/154/154 153/153/153 152/152/152
f 157/157/157 156/156/156 155/155/155
f 160/160/160 159/159/159 158/158/158
f 163/163/163 162/162/162 161/161/161
f 164/164/164 163/163/163 161/161/161
f 161/161/161 162/162/162 165/165/165
f 162/162/162 166/166/166 165/165/165
f 165/165/165 166/166/166 167/167/167
f 166/166/166 168/168/168 167/167/167
f 167/167/167 168/168/168 169/169/169
f 168/168/168 170/170/170 169/169/169
f 169/169/169 170/170/170 171/171/171
f 170/170/170 172/172/172 171/171/171
f 171/171/171 172/172/172 173/173/173
f 172/172/172 174/174/174 173/173/173
f 170/170/170 175/175/175 172/172/172
f 175/175/175 176/176/176 172/172/172
f 172/172/172 176/176/176 174/174/174
f 176/176/176 177/177/177 174/174/174
f 163/163/163 178/178/178 162/162/162
f 166/166/166 179/179/179 168/168/168
f 180/180/180 179/179/179 166/166/166
f 178/178/178 180/180/180 162/162/162
f 162/162/162 180/180/180 166/166/166
f 179/179/179 181/181/181 168/168/168
f 181/181/181 175/175/175 170/170/170
f 168/168/168 181/181/181 170/170/170
