g Body_LOD0
v -13.50001 0.1000032 1.33061
v -12.16404 0.4068565 -7.629395E-06
v -12.05293 0.4206066 0.07098389
v -13.45021 0.1000032 1.450396
v -11.94112 0.4223833 0.1186199
v -13.33001 0.1000032 1.499989
v -13.50001 0.1000032 -1.330625
v -13.45021 0.1000032 -1.450385
v -12.05293 0.4206066 -0.07097244
v -13.33001 0.1000032 -1.500004
v -11.94112 0.4223833 -0.1186342
v 13.33 0.1000032 1.499989
v 11.94109 0.4223833 0.1186199
v -11.89243 0.4371891 -7.629395E-06
v 11.89242 0.4371891 -7.629395E-06
v 11.94109 0.4223833 -0.1186342
v 12.05289 0.4206066 0.07098389
v 13.4502 0.1000032 1.450396
v 12.16403 0.4068565 -7.629395E-06
v 13.5 0.1000032 1.33061
v 13.33 0.1000032 -1.500004
v 13.4502 0.1000032 -1.450385
v 12.05289 0.4206066 -0.07097244
v 13.5 0.1000032 -1.330625
v -11.99051 0.4331722 -7.629395E-06
v 11.99053 0.4331722 -7.629395E-06
v 13.33 0.1000032 1.499989
v 13.33 -7.629395E-06 1.499989
v -13.33001 -7.629395E-06 1.499989
v -13.33001 0.1000032 1.499989
v -13.50001 0.1000032 1.33061
v -13.50001 -7.629395E-06 1.33061
v -13.50001 -7.629395E-06 -1.330625
v -13.50001 0.1000032 -1.330625
v -13.33001 0.1000032 -1.500004
v -13.33001 -7.629395E-06 -1.500004
v 13.33 -7.629395E-06 -1.500004
v 13.33 0.1000032 -1.500004
v 13.5 0.1000032 -1.330625
v 13.5 -7.629395E-06 -1.330625
v 13.5 -7.629395E-06 1.33061
v 13.5 0.1000032 1.33061
v -13.45021 0.1000032 1.450396
v -13.45021 -7.629395E-06 1.450396
v -13.50001 -7.629395E-06 1.33061
v -13.50001 0.1000032 1.33061
v -13.33001 0.1000032 1.499989
v -13.33001 -7.629395E-06 1.499989
v -13.45021 -7.629395E-06 1.450396
v -13.45021 0.1000032 1.450396
v -13.50001 0.1000032 -1.330625
v -13.50001 -7.629395E-06 -1.330625
v -13.45021 -7.629395E-06 -1.450385
v -13.45021 0.1000032 -1.450385
v -13.45021 0.1000032 -1.450385
v -13.45021 -7.629395E-06 -1.450385
v -13.33001 -7.629395E-06 -1.500004
v -13.33001 0.1000032 -1.500004
v 13.5 0.1000032 1.33061
v 13.5 -7.629395E-06 1.33061
v 13.4502 -7.629395E-06 1.450396
v 13.4502 0.1000032 1.450396
v 13.4502 0.1000032 1.450396
v 13.4502 -7.629395E-06 1.450396
v 13.33 -7.629395E-06 1.499989
v 13.33 0.1000032 1.499989
v 13.33 0.1000032 -1.500004
v 13.33 -7.629395E-06 -1.500004
v 13.4502 -7.629395E-06 -1.450385
v 13.4502 0.1000032 -1.450385
v 13.4502 0.1000032 -1.450385
v 13.4502 -7.629395E-06 -1.450385
v 13.5 -7.629395E-06 -1.330625
v 13.5 0.1000032 -1.330625
vt 0.01145953 0.998001
vt 0.0605478 0.9487297
vt 0.05792325 0.944625
vt 0.007049668 0.99617
vt 0.05616846 0.9405051
vt 0.005218585 0.9917296
vt 0.1096361 0.998001
vt 0.1140459 0.99617
vt 0.06317235 0.944625
vt 0.115877 0.9917296
vt 0.06492714 0.9405051
vt 0.005218585 0.00827039
vt 0.05616846 0.05949493
vt 0.0605478 0.9387045
vt 0.0605478 0.06129549
vt 0.06492714 0.05949493
vt 0.05792325 0.05537499
vt 0.007049668 0.003830014
vt 0.0605478 0.05127031
vt 0.01145953 0.001998932
vt 0.115877 0.00827039
vt 0.1140459 0.003830014
vt 0.06317235 0.05537499
vt 0.1096361 0.001998932
vt 0.0605478 0.9423209
vt 0.0605478 0.0576791
vt 0 0
vt 0 1
vt 1 1
vt 1 0
vt 0 0
vt 0 1
vt 1 1
vt 1 0
vt 0 0
vt 0 1
vt 1 1
vt 1 0
vt 0 0
vt 0 1
vt 1 1
vt 1 0
vt 0 0
vt 0 1
vt 1 1
vt 1 0
vt 0 0
vt 0 1
vt 1 1
vt 1 0
vt 0 0
vt 0 1
vt 1 1
vt 1 0
vt 0 0
vt 0 1
vt 1 1
vt 1 0
vt 0 0
vt 0 1
vt 1 1
vt 1 0
vt 0 0
vt 0 1
vt 1 1
vt 1 0
vt 0 0
vt 0 1
vt 1 1
vt 1 0
vt 0 0
vt 0 1
vt 1 1
vt 1 0
vn -0.4057169 0.9139849 0.005039006
vn -0.2081876 0.9780889 0
vn -0.1105304 0.9863154 0.1223315
vn -0.1633121 0.9745861 0.1533331
vn -0.001057267 0.9745861 0.2240106
vn -0.001057267 0.9335337 0.3584881
vn -0.4057169 0.9139849 -0.005039006
vn -0.1633121 0.9745861 -0.1533331
vn -0.1105304 0.9863154 -0.1223315
vn -0.001057267 0.9335337 -0.3584881
vn -0.001057267 0.9745861 -0.2240106
vn 0.0008975863 0.9335337 0.3584886
vn 0.0008975863 0.9745861 0.2240112
vn -0.001057267 0.9999995 0
vn 0.0008975863 0.9999995 -0.000345267
vn 0.0008975863 0.9745861 -0.2240112
vn 0.1103707 0.9863154 0.1224756
vn 0.1631524 0.9745861 0.1535029
vn 0.2080349 0.9781214 0
vn 0.4055572 0.9139849 0.01244878
vn 0.0008975863 0.9335337 -0.3584886
vn 0.1631524 0.9745861 -0.1535029
vn 0.1103707 0.9863154 -0.1224756
vn 0.4055572 0.9139849 -0.01244878
vn -0.08120728 0.9960897 -0.03479496
vn 0.08104753 0.9960897 -0.03516473
vn 0.0008975863 0.9335337 0.3584886
vn 0.0008975863 -0.0008975863 0.9999992
vn -0.001057267 -0.0008975863 0.999999
vn -0.001057267 0.9335337 0.3584881
vn -0.4057169 0.9139849 0.005039006
vn -0.9999995 -0.0008975863 -0.0003847246
vn -0.9999995 -0.0008975863 -0.0003847246
vn -0.4057169 0.9139849 -0.005039006
vn -0.001057267 0.9335337 -0.3584881
vn -0.001057267 -0.0008975863 -0.999999
vn 0.0008975863 -0.0008975863 -0.9999992
vn 0.0008975863 0.9335337 -0.3584886
vn 0.4055572 0.9139849 -0.01244878
vn 0.9998398 -0.0008975863 -0.01787817
vn 0.9998398 -0.0008975863 0.01787817
vn 0.4055572 0.9139849 0.01244878
vn -0.1633121 0.9745861 0.1533331
vn -0.7067679 -0.0008975863 0.7074449
vn -0.9999995 -0.0008975863 -0.0003847246
vn -0.4057169 0.9139849 0.005039006
vn -0.001057267 0.9335337 0.3584881
vn -0.001057267 -0.0008975863 0.999999
vn -0.7067679 -0.0008975863 0.7074449
vn -0.1633121 0.9745861 0.1533331
vn -0.4057169 0.9139849 -0.005039006
vn -0.9999995 -0.0008975863 -0.0003847246
vn -0.7067679 -0.0008975863 -0.7074449
vn -0.1633121 0.9745861 -0.1533331
vn -0.1633121 0.9745861 -0.1533331
vn -0.7067679 -0.0008975863 -0.7074449
vn -0.001057267 -0.0008975863 -0.999999
vn -0.001057267 0.9335337 -0.3584881
vn 0.4055572 0.9139849 0.01244878
vn 0.9998398 -0.0008975863 0.01787817
vn 0.7066082 -0.0008975863 0.7076045
vn 0.1631524 0.9745861 0.1535029
vn 0.1631524 0.9745861 0.1535029
vn 0.7066082 -0.0008975863 0.7076045
vn 0.0008975863 -0.0008975863 0.9999992
vn 0.0008975863 0.9335337 0.3584886
vn 0.0008975863 0.9335337 -0.3584886
vn 0.0008975863 -0.0008975863 -0.9999992
vn 0.7066082 -0.0008975863 -0.7076045
vn 0.1631524 0.9745861 -0.1535029
vn 0.1631524 0.9745861 -0.1535029
vn 0.7066082 -0.0008975863 -0.7076045
vn 0.9998398 -0.0008975863 -0.01787817
vn 0.4055572 0.9139849 -0.01244878
g Body_LOD0_0
f 3/3/3 2/2/2 1/1/1
f 4/4/4 3/3/3 1/1/1
f 5/5/5 3/3/3 4/4/4
f 6/6/6 5/5/5 4/4/4
f 7/7/7 1/1/1 2/2/2
f 8/8/8 7/7/7 2/2/2
f 9/9/9 8/8/8 2/2/2
f 2/2/2 3/3/3 9/9/9
f 10/10/10 8/8/8 9/9/9
f 11/11/11 10/10/10 9/9/9
f 6/6/6 12/12/12 5/5/5
f 12/12/12 13/13/13 5/5/5
f 5/5/5 13/13/13 14/14/14
f 5/5/5 14/14/14 3/3/3
f 11/11/11 9/9/9 14/14/14
f 14/14/14 15/15/15 11/11/11
f 13/13/13 15/15/15 14/14/14
f 15/15/15 16/16/16 11/11/11
f 10/10/10 11/11/11 16/16/16
f 13/13/13 12/12/12 17/17/17
f 13/13/13 17/17/17 15/15/15
f 12/12/12 18/18/18 17/17/17
f 17/17/17 18/18/18 19/19/19
f 18/18/18 20/20/20 19/19/19
f 21/21/21 10/10/10 16/16/16
f 22/22/22 21/21/21 16/16/16
f 23/23/23 22/22/22 16/16/16
f 19/19/19 23/23/23 17/17/17
f 16/16/16 15/15/15 23/23/23
f 24/24/24 22/22/22 23/23/23
f 19/19/19 24/24/24 23/23/23
f 20/20/20 24/24/24 19/19/19
f 9/9/9 25/25/25 14/14/14
f 14/14/14 25/25/25 3/3/3
f 3/3/3 25/25/25 9/9/9
f 17/17/17 26/26/26 15/15/15
f 23/23/23 26/26/26 17/17/17
f 15/15/15 26/26/26 23/23/23
f 29/29/29 28/28/28 27/27/27
f 30/30/30 29/29/29 27/27/27
f 33/33/33 32/32/32 31/31/31
f 34/34/34 33/33/33 31/31/31
f 37/37/37 36/36/36 35/35/35
f 38/38/38 37/37/37 35/35/35
f 41/41/41 40/40/40 39/39/39
f 42/42/42 41/41/41 39/39/39
f 45/45/45 44/44/44 43/43/43
f 46/46/46 45/45/45 43/43/43
f 49/49/49 48/48/48 47/47/47
f 50/50/50 49/49/49 47/47/47
f 53/53/53 52/52/52 51/51/51
f 54/54/54 53/53/53 51/51/51
f 57/57/57 56/56/56 55/55/55
f 58/58/58 57/57/57 55/55/55
f 61/61/61 60/60/60 59/59/59
f 62/62/62 61/61/61 59/59/59
f 65/65/65 64/64/64 63/63/63
f 66/66/66 65/65/65 63/63/63
f 69/69/69 68/68/68 67/67/67
f 70/70/70 69/69/69 67/67/67
f 73/73/73 72/72/72 71/71/71
f 74/74/74 73/73/73 71/71/71
