g Body_LOD1
v 5.960464E-08 2.120589 -5.960464E-08
v 0.1049852 2.037611 -0.1049852
v 0.1399425 2.037611 -0.05807227
v 0.1484718 2.037611 -5.960464E-08
v 0.7895129 0.1821648 -5.960464E-08
v 0.7294152 0.1821648 0.3021337
v 0.1399425 2.037611 0.05786008
v 5.960464E-08 2.120589 -5.960464E-08
v 0.1049852 2.037611 0.1049851
v 0.5582701 0.1821648 0.55827
v 5.960464E-08 0.1821648 0.7895128
v 5.960464E-08 2.037611 0.1484718
v 5.960464E-08 2.120589 -5.960464E-08
v -0.3021337 0.1821648 0.7294151
v -0.0579676 2.037611 0.1398378
v 5.960464E-08 2.120589 -5.960464E-08
v -0.1049851 2.037611 0.1049851
v -0.55827 0.1821648 0.55827
v -0.7294151 0.1821648 0.3021337
v -0.1399453 2.037611 0.05786008
v 5.960464E-08 2.120589 -5.960464E-08
v -0.1484718 2.037611 -5.960464E-08
v -0.7895128 0.1821648 -5.960464E-08
v -0.55827 0.1821648 -0.5582701
v -0.1049851 2.037611 -0.1049852
v 5.960464E-08 2.120589 -5.960464E-08
v 5.960464E-08 0.1821648 -0.7895129
v 5.960464E-08 2.037611 -0.1484718
v 5.960464E-08 2.120589 -5.960464E-08
v 5.960464E-08 2.120589 -5.960464E-08
v 5.960464E-08 2.037611 -0.1484718
v 0.5582701 0.1821648 -0.5582701
v 0.7294152 0.1821648 -0.3021338
v 5.960464E-08 0.1821648 -0.7895129
v -0.8182715 -4.947186E-05 -0.8304102
v -0.7662845 4.935265E-05 -0.8634553
v -0.826885 -5.960464E-08 -0.9266568
v -0.8987351 -0.0001657009 -0.8987352
v -0.9266567 -5.960464E-08 -0.8268852
v -0.8513194 4.935265E-05 -0.7724077
v 0.8268852 -5.960464E-08 -0.9266568
v 0.7744594 4.935265E-05 -0.8634553
v -0.9266567 -5.960464E-08 0.826885
v -0.8513194 4.935265E-05 0.7724076
v 0.875594 4.935265E-05 -0.7697109
v 0.9266568 -5.960464E-08 -0.8268852
v -0.7662845 4.935265E-05 0.8634581
v -0.826885 -5.960464E-08 0.9266567
v 0.8268852 -5.960464E-08 0.9266567
v 0.875594 4.935265E-05 0.7697108
v 0.7744594 4.935265E-05 0.8634581
v 0.842549 -4.947186E-05 0.8304102
v -0.8011256 0.07100719 -0.8193352
v -0.7490457 0.07106823 -0.8540773
v -0.7662845 4.935265E-05 -0.8634553
v -0.8182715 -4.947186E-05 -0.8304102
v -0.8513194 4.935265E-05 -0.7724077
v -0.8358707 0.07106823 -0.7432946
v 0.7744594 4.935265E-05 -0.8634553
v 0.7675604 0.07106823 -0.8540773
v 0.8722869 0.07106823 -0.7353958
v 0.875594 4.935265E-05 -0.7697109
v -0.8358707 0.07106823 0.7432945
v -0.8513194 4.935265E-05 0.7724076
v -0.7490457 0.07106823 0.8540773
v -0.7662845 4.935265E-05 0.8634581
v 0.8722869 0.07106823 0.7353957
v 0.875594 4.935265E-05 0.7697108
v 0.8375418 0.07100719 0.819335
v 0.842549 -4.947186E-05 0.8304102
v 0.7675604 0.07106823 0.8540773
v 0.7744594 4.935265E-05 0.8634581
v 0.9266568 -5.960464E-08 -0.8268852
v -0.8987351 -0.0001657009 -0.8987352
v -0.826885 -5.960464E-08 -0.9266568
v 0.8268852 -5.960464E-08 -0.9266568
v -0.07599407 0.200078 -0.7182471
v -0.3594504 0.200078 -0.6296929
v -0.5833437 0.200078 -0.4329569
v -0.7122924 0.200078 -0.1572656
v -0.7152973 0.200078 0.1502212
v -0.9266567 -5.960464E-08 0.826885
v -0.9266567 -5.960464E-08 -0.8268852
v -0.5920445 0.200078 0.4280834
v -0.3665383 0.200078 0.6290681
v 0.2230681 0.200078 -0.6878407
v 0.4858564 0.200078 -0.5371952
v 0.662459 0.200078 -0.2932296
v 0.7241086 0.200078 0.002760708
v 0.8268852 -5.960464E-08 0.9266567
v -0.826885 -5.960464E-08 0.9266567
v 0.6593785 0.200078 0.297795
v 0.4843423 0.200078 0.5352568
v 0.2246925 0.200078 0.6936035
v -0.07894367 0.200078 0.7248206
v 5.960464E-08 0.7471625 -5.960464E-08
v 0.7000695 0.07107109 -0.3116919
v 0.5127696 0.07105076 -0.5694876
v 0.236808 0.07107109 -0.7288165
v 0.7663195 0.07106823 -5.960464E-08
v -0.08010322 0.07106823 -0.7621231
v 0.7000695 0.07106823 0.3116918
v -0.3831611 0.07106823 -0.6636534
v 0.5127696 0.07106823 0.5694875
v -0.6199662 0.07106823 -0.4504312
v 0.2368051 0.07106823 0.7288135
v -0.7495746 0.07106823 -0.159326
v -0.08010322 0.07106823 0.762123
v -0.7495746 0.07106823 0.1593259
v -0.3831611 0.07106823 0.6636533
v -0.6199662 0.07106823 0.4504312
v 0.236808 0.07107109 -0.7288165
v 0.5127696 0.07105076 -0.5694876
v 0.7675604 0.07106823 -0.8540773
v 0.8722869 0.07106823 -0.7353958
v 0.7000695 0.07107109 -0.3116919
v -0.08010322 0.07106823 -0.7621231
v -0.7490457 0.07106823 -0.8540773
v 0.7663195 0.07106823 -5.960464E-08
v 0.8722869 0.07106823 0.7353957
v 0.7000695 0.07106823 0.3116918
v 0.8375418 0.07100719 0.819335
v 0.5127696 0.07106823 0.5694875
v 0.7675604 0.07106823 0.8540773
v 0.2368051 0.07106823 0.7288135
v -0.7490457 0.07106823 0.8540773
v -0.08010322 0.07106823 0.762123
v -0.3831611 0.07106823 0.6636533
v -0.6199662 0.07106823 0.4504312
v -0.8358707 0.07106823 0.7432945
v -0.7495746 0.07106823 0.1593259
v -0.8358707 0.07106823 -0.7432946
v -0.7495746 0.07106823 -0.159326
v -0.8011256 0.07100719 -0.8193352
v -0.6199662 0.07106823 -0.4504312
v -0.3831611 0.07106823 -0.6636534
vt 0.7808545 0.9910837
vt 0.7940067 0.9728831
vt 0.7807955 0.9728831
vt 0.7675841 0.9728831
vt 0.7675841 0.7705364
vt 0.7543728 0.7705364
vt 0.7543728 0.9728831
vt 0.7537382 0.9910837
vt 0.7411542 0.9728831
vt 0.7411542 0.7705364
vt 0.7147169 0.7705364
vt 0.7147169 0.9728831
vt 0.7275149 0.9910837
vt 0.7015055 0.7705364
vt 0.7015055 0.9728831
vt 0.7007527 0.9910837
vt 0.6882943 0.9728831
vt 0.6882943 0.7705364
vt 0.675083 0.7705364
vt 0.675083 0.9728831
vt 0.6741973 0.9910837
vt 0.6618717 0.9728831
vt 0.6618717 0.7705364
vt 0.6354492 0.7705364
vt 0.6354492 0.9728831
vt 0.6478781 0.9910837
vt 0.6088347 0.7705364
vt 0.6090266 0.9728831
vt 0.6226807 0.9910837
vt 0.8067161 0.9910837
vt 0.8204293 0.9728831
vt 0.7940067 0.7705364
vt 0.7807955 0.7705364
vt 0.8206212 0.7705364
vt 0.9191228 0.6956601
vt 0.9136168 0.6991585
vt 0.920038 0.7058454
vt 0.9276547 0.7028931
vt 0.930607 0.6952764
vt 0.9226359 0.6895047
vt 0.7448593 0.7058454
vt 0.7504169 0.6991585
vt 0.930607 0.520105
vt 0.9226359 0.5258766
vt 0.7396928 0.6892242
vt 0.7342902 0.6952764
vt 0.9136168 0.5162228
vt 0.920038 0.509536
vt 0.7448593 0.509536
vt 0.7396928 0.5261571
vt 0.7504169 0.5162228
vt 0.7431912 0.5197212
vt 0.9096904 0.6868329
vt 0.904642 0.6901985
vt 0.9136168 0.6991585
vt 0.9191228 0.6956601
vt 0.9226359 0.6895047
vt 0.9130264 0.6794966
vt 0.7504169 0.6991585
vt 0.758137 0.6901985
vt 0.7480034 0.6787291
vt 0.7396928 0.6892242
vt 0.9130264 0.5358847
vt 0.9226359 0.5258766
vt 0.904642 0.5251829
vt 0.9136168 0.5162228
vt 0.7480034 0.5366523
vt 0.7396928 0.5261571
vt 0.7513468 0.5285484
vt 0.7431912 0.5197212
vt 0.758137 0.5251829
vt 0.7504169 0.5162228
vt 0.7170491 0.7078677
vt 0.5105546 0.7160011
vt 0.518688 0.71916
vt 0.7057716 0.71916
vt 0.6040078 0.6919551
vt 0.5733783 0.6823898
vt 0.5491698 0.6611189
vt 0.5352353 0.6313308
vt 0.5349105 0.5980885
vt 0.5073956 0.520784
vt 0.5073956 0.7078677
vt 0.5482252 0.5680494
vt 0.5726107 0.5463209
vt 0.6363348 0.6886781
vt 0.6647354 0.6723965
vt 0.6838364 0.6460181
vt 0.6904937 0.6140306
vt 0.7057716 0.5094917
vt 0.518688 0.5094917
vt 0.6834969 0.5821316
vt 0.664573 0.5564619
vt 0.6365119 0.5393537
vt 0.6036978 0.5359733
vt 0.8355595 0.6098237
vt 0.7646466 0.6377962
vt 0.7827439 0.6627131
vt 0.8094027 0.6780943
vt 0.7582551 0.6076981
vt 0.8400174 0.6813122
vt 0.7646466 0.5775852
vt 0.8693037 0.671806
vt 0.7827439 0.552683
vt 0.8921688 0.6511993
vt 0.8094027 0.5372871
vt 0.9047011 0.6230792
vt 0.8400174 0.5340691
vt 0.9047011 0.5923021
vt 0.8693037 0.5435753
vt 0.8921688 0.564182
vt 0.8094027 0.6780943
vt 0.7827439 0.6627131
vt 0.758137 0.6901985
vt 0.7480034 0.6787291
vt 0.7646466 0.6377962
vt 0.8400174 0.6813122
vt 0.904642 0.6901985
vt 0.7582551 0.6076981
vt 0.7480034 0.5366523
vt 0.7646466 0.5775852
vt 0.7513468 0.5285484
vt 0.7827439 0.552683
vt 0.758137 0.5251829
vt 0.8094027 0.5372871
vt 0.904642 0.5251829
vt 0.8400174 0.5340691
vt 0.8693037 0.5435753
vt 0.8921688 0.564182
vt 0.9130264 0.5358847
vt 0.9047011 0.5923021
vt 0.9130264 0.6794966
vt 0.9047011 0.6230792
vt 0.9096904 0.6868329
vt 0.8921688 0.6511993
vt 0.8693037 0.671806
vn -0.02639294 0.9980445 -0.05666219
vn 0.5190613 0.327468 -0.7895188
vn 0.8709673 0.3333331 -0.3609777
vn 0.942864 0.3331778 0
vn 0.9452586 0.325513 -0.02296577
vn 0.8729224 0.325513 0.3633838
vn 0.8709673 0.3333331 0.3609777
vn -0.02639294 0.9980445 -0.05666219
vn 0.5190613 0.327468 0.7895188
vn 0.5288365 0.3216029 0.7854321
vn 0.1808406 0.3216029 0.9294451
vn 0.1925708 0.327468 0.9250304
vn -0.02639294 0.9980445 -0.05666219
vn -0.3626586 0.325513 0.8732239
vn -0.3607036 0.3333331 0.8710809
vn -0.02639294 0.9980445 -0.05666219
vn -0.6676439 0.3333331 0.6656881
vn -0.6676439 0.325513 0.6695468
vn -0.8729223 0.325513 0.363384
vn -0.8709673 0.3333331 0.3609779
vn -0.02639294 0.9980445 -0.05666219
vn -0.9257083 0.327468 -0.189285
vn -0.9296184 0.3216029 -0.179948
vn -0.6676439 0.327468 -0.6685928
vn -0.6676439 0.3333331 -0.6656881
vn -0.02639294 0.9980445 -0.05666219
vn -0.0009775162 0.327468 -0.9448618
vn -0.0009775162 0.3333331 -0.9428086
vn -0.02639294 0.9980445 -0.05666219
vn -0.02639294 0.9980445 -0.05666219
vn -0.0009775162 0.3333331 -0.9428086
vn 0.5288365 0.3216029 -0.7854321
vn 0.8729224 0.325513 -0.3633838
vn -0.0009775162 0.327468 -0.9448618
vn 0.0009775162 -0.9999995 0
vn 0.0009775162 -0.9999995 0
vn 0.0009775162 -0.9999995 0
vn 0.0009775162 -0.9999995 0
vn 0.0009775162 -0.9999995 0
vn 0.0009775162 -0.9999995 0
vn -0.0009775162 -0.9999995 0
vn -0.0009775162 -0.9999995 0
vn 0.0009775162 -0.9999995 0
vn 0.0009775162 -0.9999995 0
vn -0.006842457 -0.9999766 0
vn -0.002932537 -0.9999957 0
vn 0.0009775162 -0.9999995 0
vn 0.0009775162 -0.9999995 0
vn -0.0009775162 -0.9999995 0
vn -0.01856961 -0.9998275 0
vn -0.0009775162 -0.9999995 0
vn 0.002932537 -0.9999957 0
vn 0.7243398 -0.2922775 0.6244243
vn 0.01661777 -0.1358748 0.9905866
vn 0.02639294 -0.1378298 0.9901042
vn 0.73216 -0.2942325 0.6143036
vn 0.9745841 -0.2218963 0.03078696
vn 0.9763936 -0.215999 0
vn -0.06744862 -0.147605 0.9867439
vn -0.06158352 -0.14565 0.9874176
vn -0.9980445 -0.05962849 0.01875226
vn -0.9921794 -0.07917887 0.09649231
vn 0.9745841 -0.2218963 -0.03078696
vn 0.970674 -0.2316715 -0.06418899
vn 0.05180836 -0.14956 -0.9873944
vn 0.07526881 -0.1554251 -0.9849759
vn -0.9980445 -0.05180836 -0.03497282
vn -0.9980445 -0.05962849 -0.01875226
vn -0.7145647 -0.1847506 -0.6747329
vn -0.6969694 -0.1847506 -0.6928931
vn -0.01857281 -0.1339198 -0.9908181
vn -0.02248287 -0.1339198 -0.9907371
vn 0.3020526 0.9198432 -0.2503052
vn -0.3372432 0.8983378 -0.2815246
vn -0.0009775162 0.9999995 0
vn -0.0009775162 0.9999995 0
vn 0.02248287 0.620723 -0.7837075
vn -0.1671554 0.9217982 -0.3497815
vn -0.2942325 0.9335284 -0.2048216
vn -0.6891493 0.7243398 -0.02012643
vn -0.6891493 0.7243398 0.02012643
vn -0.3685237 0.8944278 0.253356
vn 0.006842457 0.9999766 0
vn -0.3059627 0.9296184 0.205418
vn -0.1867057 0.9022479 0.3887026
vn 0.1124144 0.8044962 -0.5832228
vn 0.2375365 0.9296184 -0.2817554
vn 0.4017593 0.9042029 -0.1449361
vn 0.7693056 0.6363634 0.05666167
vn 0.3567936 0.8455518 0.3971654
vn -0.0009775162 0.9999995 0
vn 0.4623654 0.8729223 0.1556434
vn 0.2414466 0.9335284 0.2650061
vn 0.1065493 0.8729223 0.4760818
vn -0.04789829 0.6265881 0.7778773
vn -0.0009775162 -0.9999995 0
vn -0.6050828 -0.7497553 0.2678469
vn -0.4428151 -0.7497553 0.4917132
vn -0.204301 -0.7497553 0.6293871
vn -0.661751 -0.7497237 0
vn 0.06940371 -0.7497553 0.6580654
vn -0.6050828 -0.7497553 -0.2678469
vn 0.3313782 -0.7497553 0.5727614
vn -0.4428151 -0.7497553 -0.4917132
vn 0.5347016 -0.7497553 0.3898221
vn -0.204301 -0.7497553 -0.6293871
vn 0.6480935 -0.7497553 0.1335733
vn 0.06940371 -0.7497553 -0.6580654
vn 0.6480935 -0.7497553 -0.1335733
vn 0.3313782 -0.7497553 -0.5727614
vn 0.5347016 -0.7497553 -0.3898221
vn -0.0009775162 -0.9999995 0
vn 0.0009775162 -0.9999995 0
vn 0.0009775162 -0.9999995 0
vn 0.0009775162 -0.9999995 0
vn -0.0009775162 -0.9999995 0
vn 0.0009775162 -0.9999995 0
vn 0.0009775162 -0.9999995 0
vn -0.0009775162 -0.9999995 0
vn 0.0009775162 -0.9999995 0
vn 0.0009775162 -0.9999995 0
vn -0.0009775162 -0.9999995 0
vn -0.0009775162 -0.9999995 0
vn -0.0009775162 -0.9999995 0
vn -0.0009775162 -0.9999995 0
vn -0.0009775162 -0.9999995 0
vn -0.0009775162 -0.9999995 0
vn -0.0009775162 -0.9999995 0
vn -0.0009775162 -0.9999995 0
vn -0.0009775162 -0.9999995 0
vn -0.0009775162 -0.9999995 0
vn -0.0009775162 -0.9999995 0
vn -0.0009775162 -0.9999995 0
vn 0.0009775162 -0.9999995 0
vn -0.0009775162 -0.9999995 0
vn 0.0009775162 -0.9999995 0
g Body_LOD1_0
f 3/3/3 2/2/2 1/1/1
f 4/4/4 3/3/3 1/1/1
f 3/3/3 4/4/4 5/5/5
f 5/5/5 4/4/4 6/6/6
f 4/4/4 7/7/7 6/6/6
f 7/7/7 4/4/4 8/8/8
f 9/9/9 7/7/7 8/8/8
f 7/7/7 9/9/9 10/10/10
f 6/6/6 7/7/7 10/10/10
f 10/10/10 9/9/9 11/11/11
f 9/9/9 12/12/12 11/11/11
f 12/12/12 9/9/9 13/13/13
f 11/11/11 12/12/12 14/14/14
f 12/12/12 15/15/15 14/14/14
f 15/15/15 12/12/12 16/16/16
f 17/17/17 15/15/15 16/16/16
f 15/15/15 17/17/17 18/18/18
f 14/14/14 15/15/15 18/18/18
f 18/18/18 17/17/17 19/19/19
f 17/17/17 20/20/20 19/19/19
f 20/20/20 17/17/17 21/21/21
f 22/22/22 20/20/20 21/21/21
f 20/20/20 22/22/22 23/23/23
f 19/19/19 20/20/20 23/23/23
f 23/23/23 22/22/22 24/24/24
f 22/22/22 25/25/25 24/24/24
f 25/25/25 22/22/22 26/26/26
f 24/24/24 25/25/25 27/27/27
f 25/25/25 28/28/28 27/27/27
f 28/28/28 25/25/25 29/29/29
f 2/2/2 31/31/31 30/30/30
f 31/31/31 2/2/2 32/32/32
f 32/32/32 2/2/2 33/33/33
f 2/2/2 3/3/3 33/33/33
f 33/33/33 3/3/3 5/5/5
f 34/34/34 31/31/31 32/32/32
f 37/37/37 36/36/36 35/35/35
f 38/38/38 37/37/37 35/35/35
f 38/38/38 35/35/35 39/39/39
f 35/35/35 40/40/40 39/39/39
f 36/36/36 37/37/37 41/41/41
f 42/42/42 36/36/36 41/41/41
f 39/39/39 40/40/40 43/43/43
f 40/40/40 44/44/44 43/43/43
f 42/42/42 41/41/41 45/45/45
f 41/41/41 46/46/46 45/45/45
f 44/44/44 47/47/47 43/43/43
f 47/47/47 48/48/48 43/43/43
f 46/46/46 49/49/49 45/45/45
f 49/49/49 50/50/50 45/45/45
f 51/51/51 49/49/49 48/48/48
f 47/47/47 51/51/51 48/48/48
f 51/51/51 52/52/52 49/49/49
f 52/52/52 50/50/50 49/49/49
f 55/55/55 54/54/54 53/53/53
f 56/56/56 55/55/55 53/53/53
f 56/56/56 53/53/53 57/57/57
f 53/53/53 58/58/58 57/57/57
f 54/54/54 55/55/55 59/59/59
f 60/60/60 54/54/54 59/59/59
f 61/61/61 60/60/60 59/59/59
f 62/62/62 61/61/61 59/59/59
f 57/57/57 58/58/58 63/63/63
f 64/64/64 57/57/57 63/63/63
f 64/64/64 63/63/63 65/65/65
f 66/66/66 64/64/64 65/65/65
f 67/67/67 61/61/61 62/62/62
f 68/68/68 67/67/67 62/62/62
f 67/67/67 68/68/68 69/69/69
f 68/68/68 70/70/70 69/69/69
f 65/65/65 71/71/71 66/66/66
f 71/71/71 72/72/72 66/66/66
f 72/72/72 71/71/71 69/69/69
f 70/70/70 72/72/72 69/69/69
f 75/75/75 74/74/74 73/73/73
f 76/76/76 75/75/75 73/73/73
f 73/73/73 74/74/74 77/77/77
f 74/74/74 78/78/78 77/77/77
f 74/74/74 79/79/79 78/78/78
f 80/80/80 79/79/79 74/74/74
f 81/81/81 80/80/80 74/74/74
f 82/82/82 81/81/81 74/74/74
f 74/74/74 83/83/83 82/82/82
f 82/82/82 84/84/84 81/81/81
f 82/82/82 85/85/85 84/84/84
f 73/73/73 77/77/77 86/86/86
f 73/73/73 86/86/86 87/87/87
f 73/73/73 87/87/87 88/88/88
f 73/73/73 88/88/88 89/89/89
f 73/73/73 89/89/89 90/90/90
f 90/90/90 82/82/82 91/91/91
f 89/89/89 92/92/92 90/90/90
f 92/92/92 93/93/93 90/90/90
f 90/90/90 93/93/93 94/94/94
f 90/90/90 94/94/94 95/95/95
f 82/82/82 95/95/95 85/85/85
f 95/95/95 82/82/82 90/90/90
f 98/98/98 97/97/97 96/96/96
f 99/99/99 98/98/98 96/96/96
f 97/97/97 100/100/100 96/96/96
f 101/101/101 99/99/99 96/96/96
f 100/100/100 102/102/102 96/96/96
f 103/103/103 101/101/101 96/96/96
f 102/102/102 104/104/104 96/96/96
f 105/105/105 103/103/103 96/96/96
f 104/104/104 106/106/106 96/96/96
f 107/107/107 105/105/105 96/96/96
f 106/106/106 108/108/108 96/96/96
f 109/109/109 107/107/107 96/96/96
f 108/108/108 110/110/110 96/96/96
f 111/111/111 109/109/109 96/96/96
f 110/110/110 111/111/111 96/96/96
f 114/114/114 113/113/113 112/112/112
f 115/115/115 113/113/113 114/114/114
f 116/116/116 113/113/113 115/115/115
f 112/112/112 117/117/117 114/114/114
f 117/117/117 118/118/118 114/114/114
f 119/119/119 116/116/116 115/115/115
f 119/119/119 115/115/115 120/120/120
f 121/121/121 119/119/119 120/120/120
f 121/121/121 120/120/120 122/122/122
f 123/123/123 121/121/121 122/122/122
f 123/123/123 122/122/122 124/124/124
f 125/125/125 123/123/123 124/124/124
f 125/125/125 124/124/124 126/126/126
f 127/127/127 125/125/125 126/126/126
f 128/128/128 127/127/127 126/126/126
f 129/129/129 128/128/128 126/126/126
f 129/129/129 126/126/126 130/130/130
f 131/131/131 129/129/129 130/130/130
f 131/131/131 130/130/130 132/132/132
f 133/133/133 131/131/131 132/132/132
f 133/133/133 132/132/132 134/134/134
f 135/135/135 133/133/133 134/134/134
f 135/135/135 134/134/134 118/118/118
f 136/136/136 135/135/135 118/118/118
f 117/117/117 136/136/136 118/118/118
