g Body_LOD1
v -0.8088701 0.740011 -0.0002046824
v -0.8051353 0.7878815 -0.0002046824
v -0.7040124 0.8277023 -0.0002046824
v -0.7490153 0.8314828 -0.0002046824
v -0.7880021 0.8205487 -0.0002046824
v -0.4226512 0.6576141 -0.0002046824
v -0.7621433 0.4468422 -0.0002046824
v 0.004952312 0.7232375 -0.0002046824
v -0.2849079 0.9879459 -0.0002046824
v -0.2033284 1.003413 -0.0002046824
v -0.2701496 1.010074 -0.0002046824
v -0.2226762 1.021289 -0.0002046824
v -0.2514942 1.025219 -0.0002046824
v -0.9299334 0.09313035 -0.0002046824
v -1.001677 0.3974869 -0.0002046824
v -0.9469315 0.4882954 -0.0002046824
v -1.01174 0.4400526 -0.0002046824
v -0.9879874 0.4818926 -0.0002046824
v -1.007556 0.4665706 -0.0002046824
v 0.3630831 0.5401233 -0.0002046824
v 0.2114195 0.7686126 -0.0002046824
v 0.3394057 0.8175583 -0.0002046824
v 0.2948312 0.8390543 -0.0002046824
v 0.3372762 0.8365964 -0.0002046824
v 0.3099347 0.8504502 -0.0002046824
v 0.3274755 0.8510698 -0.0002046824
v 0.8714302 -0.07265723 -0.0002046824
v 0.7912314 0.3752111 -0.0002046824
v 1.048907 0.230595 -0.0002046824
v 1.03367 0.3249408 -0.0002046824
v 0.8192924 0.6127193 -0.0002046824
v 0.7350116 0.6869353 -0.0002046824
v 0.8249591 0.6640357 0.0001196861
v 0.781206 0.7011988 -0.0002046824
v 0.8136444 0.691633 0.0002049208
v 0.1866857 0.842157 -0.0002046824
v 0.132639 0.8530703 -0.0002046824
v 0.1492252 0.8682716 -0.0002046824
v -1.089506 -0.1297151 -0.0002046824
v -1.00673 0.02310467 -0.0002046824
v -1.106056 -0.2412336 -0.0002046824
v -1.001296 -0.4817488 -0.0002046824
v -1.089506 -0.3579924 -0.0002046824
v -0.9203968 -0.5473557 -0.0002046824
v -0.7794865 -0.7848576 -0.0002046824
v -0.8786464 -0.6701326 -0.0002046824
v -0.3764775 -0.9838719 -0.0002046824
v -0.5951766 -0.909267 -0.0002046824
v 0.1644036 -1.017223 -0.0002046824
v -0.1007019 -1.025219 -0.0002046824
v 0.4171236 -0.9569962 -0.0002046824
v 0.7078696 -0.7331961 -0.0002046824
v 0.6184253 -0.8440657 -0.0002046824
v 0.7632951 -0.611174 -0.0002046824
v 0.9686581 -0.4927973 -0.0002046824
v 0.8807214 -0.580786 -0.0002046824
v 1.013888 -0.3930573 -0.0002046824
v 0.9647965 -0.1425645 -0.0002046824
v 1.017799 -0.2531347 -0.0002046824
v 0.1492252 0.8682716 -0.0002046824
v 0.1670883 0.8726782 -0.0002046824
v 0.1795903 0.8605421 -0.0002046824
v 0.1492252 0.8682716 -0.0002046824
v 0.1795903 0.8605421 -0.0002046824
v 0.1866857 0.842157 -0.0002046824
v 1.059795 0.3103551 -0.0002046824
v 1.074477 0.2904519 -0.0002046824
v 1.067816 0.2628006 -0.0002046824
v 1.048907 0.230595 -0.0002046824
v 1.03367 0.3249408 -0.0002046824
v 1.067816 0.2628006 -0.0002046824
v 1.059795 0.3103551 -0.0002046824
vt 0.7015433 0.4002142
vt 0.7018311 0.4090801
vt 0.7043879 0.4186764
vt 0.7032921 0.4186543
vt 0.7024952 0.4146697
vt 0.7116267 0.3859358
vt 0.7026391 0.3394038
vt 0.7230384 0.3999596
vt 0.7153347 0.4545827
vt 0.7175152 0.4578258
vt 0.7157774 0.4580693
vt 0.7170613 0.4600838
vt 0.7162976 0.4608032
vt 0.6980789 0.2653001
vt 0.696319 0.3274941
vt 0.6978021 0.3463991
vt 0.6960533 0.3364263
vt 0.6966953 0.3451705
vt 0.6959537 0.3449934
vt 0.7326016 0.3608435
vt 0.7285505 0.4096667
vt 0.7319928 0.4192078
vt 0.7307974 0.423934
vt 0.7319042 0.4241554
vt 0.7311848 0.4269668
vt 0.7316386 0.4272324
vt 0.7461826 0.2299141
vt 0.7440353 0.3256235
vt 0.7509089 0.294521
vt 0.7504993 0.3146988
vt 0.744788 0.3756974
vt 0.7425411 0.3915365
vt 0.744943 0.3868102
vt 0.7437697 0.394691
vt 0.744633 0.3927651
vt 0.7278642 0.4236462
vt 0.7264032 0.425705
vt 0.7266467 0.4263359
vt 0.6938286 0.2176723
vt 0.6960312 0.2503355
vt 0.6933858 0.1938418
vt 0.6961861 0.1424507
vt 0.6938286 0.1688934
vt 0.6983445 0.1284269
vt 0.7021078 0.07767777
vt 0.6994624 0.1021945
vt 0.7128775 0.03516362
vt 0.7070333 0.05110227
vt 0.7273108 0.02804657
vt 0.720238 0.02633095
vt 0.7340626 0.04091924
vt 0.7418216 0.08875735
vt 0.7394308 0.06505966
vt 0.7433048 0.1148237
vt 0.7487837 0.1401374
vt 0.7464372 0.121332
vt 0.7499902 0.1614443
vt 0.748673 0.2149716
vt 0.7500898 0.1913514
vt 0.7266467 0.4263359
vt 0.7270895 0.4267897
vt 0.7274325 0.4244542
vt 0.7266467 0.4263359
vt 0.7274325 0.4244542
vt 0.7278642 0.4236462
vt 0.7512409 0.3111459
vt 0.7517058 0.3072276
vt 0.7514402 0.3010071
vt 0.7509089 0.294521
vt 0.7504993 0.3146988
vt 0.7514402 0.3010071
vt 0.7512409 0.3111459
vn -3.069639E-06 3.069639E-06 1
vn -3.069639E-06 3.069639E-06 1
vn -3.069639E-06 3.069639E-06 1
vn -3.069639E-06 3.069639E-06 1
vn -3.069639E-06 3.069639E-06 1
vn -3.069639E-06 3.069639E-06 1
vn -3.069639E-06 3.069639E-06 1
vn -3.069639E-06 3.069639E-06 1
vn -3.069639E-06 3.069639E-06 1
vn -3.069639E-06 3.069639E-06 1
vn -3.069639E-06 3.069639E-06 1
vn -3.069639E-06 3.069639E-06 1
vn -3.069639E-06 3.069639E-06 1
vn -3.069639E-06 3.069639E-06 1
vn -3.069639E-06 3.069639E-06 1
vn -3.069639E-06 3.069639E-06 1
vn -3.069639E-06 3.069639E-06 1
vn -3.069639E-06 3.069639E-06 1
vn -3.069639E-06 3.069639E-06 1
vn -3.069639E-06 3.069639E-06 1
vn -3.069639E-06 3.069639E-06 1
vn -3.069639E-06 3.069639E-06 1
vn -3.069639E-06 3.069639E-06 1
vn -3.069639E-06 3.069639E-06 1
vn -3.069639E-06 3.069639E-06 1
vn -3.069639E-06 3.069639E-06 1
vn -3.069639E-06 3.069639E-06 1
vn -3.069639E-06 3.069639E-06 1
vn -3.069639E-06 3.069639E-06 1
vn -3.069639E-06 3.069639E-06 1
vn -0.005083031 -0.005781766 0.9999704
vn -0.003964953 -0.001333762 0.9999912
vn -0.0154374 -0.009427671 0.9998364
vn -0.0154374 -0.009427671 0.9998364
vn -0.0154374 -0.009427671 0.9998364
vn -3.069639E-06 3.069639E-06 1
vn -3.069639E-06 3.069639E-06 1
vn -3.069639E-06 3.069639E-06 1
vn -3.069639E-06 3.069639E-06 1
vn -3.069639E-06 3.069639E-06 1
vn -3.069639E-06 3.069639E-06 1
vn -3.069639E-06 3.069639E-06 1
vn -3.069639E-06 3.069639E-06 1
vn -3.069639E-06 3.069639E-06 1
vn -3.069639E-06 3.069639E-06 1
vn -3.069639E-06 3.069639E-06 1
vn -3.069639E-06 3.069639E-06 1
vn -3.069639E-06 3.069639E-06 1
vn -3.069639E-06 3.069639E-06 1
vn -3.069639E-06 3.069639E-06 1
vn -3.069639E-06 3.069639E-06 1
vn -3.069639E-06 3.069639E-06 1
vn -3.069639E-06 3.069639E-06 1
vn -3.069639E-06 3.069639E-06 1
vn -3.069639E-06 3.069639E-06 1
vn -3.069639E-06 3.069639E-06 1
vn -3.069639E-06 3.069639E-06 1
vn -3.069639E-06 3.069639E-06 1
vn -3.069639E-06 3.069639E-06 1
vn -3.069639E-06 3.069639E-06 1
vn -3.069639E-06 3.069639E-06 1
vn -3.069639E-06 3.069639E-06 1
vn -3.069639E-06 3.069639E-06 1
vn -3.069639E-06 3.069639E-06 1
vn -3.069639E-06 3.069639E-06 1
vn -3.069639E-06 3.069639E-06 1
vn -3.069639E-06 3.069639E-06 1
vn -3.069639E-06 3.069639E-06 1
vn -3.069639E-06 3.069639E-06 1
vn -3.069639E-06 3.069639E-06 1
vn -3.069639E-06 3.069639E-06 1
vn -3.069639E-06 3.069639E-06 1
g Body_LOD1_0
f 3/3/3 2/2/2 1/1/1
f 3/3/3 4/4/4 2/2/2
f 4/4/4 5/5/5 2/2/2
f 1/1/1 6/6/6 3/3/3
f 7/7/7 6/6/6 1/1/1
f 7/7/7 8/8/8 6/6/6
f 6/6/6 8/8/8 9/9/9
f 9/9/9 8/8/8 10/10/10
f 10/10/10 11/11/11 9/9/9
f 10/10/10 12/12/12 11/11/11
f 12/12/12 13/13/13 11/11/11
f 14/14/14 8/8/8 7/7/7
f 14/14/14 7/7/7 15/15/15
f 15/15/15 7/7/7 16/16/16
f 16/16/16 17/17/17 15/15/15
f 16/16/16 18/18/18 17/17/17
f 18/18/18 19/19/19 17/17/17
f 14/14/14 20/20/20 8/8/8
f 8/8/8 20/20/20 21/21/21
f 21/21/21 20/20/20 22/22/22
f 21/21/21 22/22/22 23/23/23
f 24/24/24 23/23/23 22/22/22
f 24/24/24 25/25/25 23/23/23
f 24/24/24 26/26/26 25/25/25
f 14/14/14 27/27/27 20/20/20
f 20/20/20 27/27/27 28/28/28
f 28/28/28 27/27/27 29/29/29
f 28/28/28 29/29/29 30/30/30
f 20/20/20 28/28/28 31/31/31
f 20/20/20 31/31/31 32/32/32
f 33/33/33 32/32/32 31/31/31
f 33/33/33 34/34/34 32/32/32
f 33/33/33 35/35/35 34/34/34
f 37/37/37 21/21/21 36/36/36
f 36/36/36 38/38/38 37/37/37
f 8/8/8 21/21/21 37/37/37
f 39/39/39 27/27/27 14/14/14
f 39/39/39 14/14/14 40/40/40
f 41/41/41 27/27/27 39/39/39
f 42/42/42 27/27/27 41/41/41
f 42/42/42 41/41/41 43/43/43
f 44/44/44 27/27/27 42/42/42
f 45/45/45 27/27/27 44/44/44
f 45/45/45 44/44/44 46/46/46
f 47/47/47 27/27/27 45/45/45
f 47/47/47 45/45/45 48/48/48
f 49/49/49 27/27/27 47/47/47
f 49/49/49 47/47/47 50/50/50
f 51/51/51 27/27/27 49/49/49
f 52/52/52 27/27/27 51/51/51
f 52/52/52 51/51/51 53/53/53
f 54/54/54 27/27/27 52/52/52
f 55/55/55 27/27/27 54/54/54
f 55/55/55 54/54/54 56/56/56
f 57/57/57 27/27/27 55/55/55
f 58/58/58 27/27/27 57/57/57
f 58/58/58 57/57/57 59/59/59
f 62/62/62 61/61/61 60/60/60
f 65/65/65 64/64/64 63/63/63
f 68/68/68 67/67/67 66/66/66
f 71/71/71 70/70/70 69/69/69
f 71/71/71 72/72/72 70/70/70
