g Body_LOD1
v 0.066423 -0.06836709 -0.3480332
v -3.576279E-07 -0.1702684 -0.3243555
v 0.1134951 -0.2013806 -0.2797748
v -3.576279E-07 -0.3172843 -0.1835753
v 0.1302142 -0.2827702 -0.1823096
v 0.152443 -0.3083245 -0.005664378
v -3.576279E-07 -0.3484343 -0.005159438
v -3.576279E-07 -0.3090259 0.162403
v 0.1293289 -0.2761824 0.1623347
v 0.2575163 -0.2178313 -0.006987125
v 0.2287885 -0.1751827 0.1296076
v 0.2878922 -0.09838715 -0.008279502
v 0.2177653 -0.1792556 -0.1747423
v 0.2383808 -0.06092659 -0.1872218
v 0.2497087 -0.08446708 0.1187764
v 0.1293385 -0.1261421 0.2702196
v -3.576279E-07 -0.2106251 0.271813
v 0.1244686 -0.1197886 0.3225175
v 0.1314813 0.001307547 0.2690036
v 0.1174515 0.003834426 0.3118805
v -3.576279E-07 0.03701013 0.3110323
v -3.576279E-07 -0.1986995 0.3256389
v 0.1700459 -0.05388868 -0.2780628
v 0.05203503 0.005512327 -0.3426517
v -0.06642297 -0.06836709 -0.3480332
v -0.052035 0.005512327 -0.3426517
v 0.2122177 -0.03907365 0.1811662
v -0.1134951 -0.2013806 -0.2797748
v -0.1302149 -0.2827702 -0.1823096
v -0.152443 -0.3083245 -0.005664378
v -0.2575162 -0.2178313 -0.006987125
v -0.2177653 -0.1792556 -0.1747423
v -0.1293288 -0.2761824 0.1623347
v -0.2287885 -0.1751827 0.1296076
v -0.1293384 -0.1261421 0.2702196
v -0.1244686 -0.1197886 0.3225175
v -0.1314813 0.001307547 0.2690036
v -0.1174514 0.003834426 0.3118805
v -0.2878922 -0.09838715 -0.008279502
v -0.2383807 -0.06092659 -0.1872218
v -0.2122177 -0.03907365 0.1811662
v -0.2497087 -0.08446708 0.1187764
v -0.1700459 -0.05388868 -0.2780628
v -0.2223082 0.236665 -3.376603E-05
v -0.3035896 -0.03817946 -3.376603E-05
v -0.2385231 0.1262599 -0.1792029
v -0.1304314 0.2660074 -0.1514198
v -0.2529882 0.002740771 -0.2019441
v -3.576279E-07 0.3484343 -3.376603E-05
v -3.576279E-07 0.2547854 -0.2227345
v -0.2403893 0.1258247 0.1821569
v -0.1318505 0.265977 0.1515599
v -0.2529882 0.002740771 0.2018766
v -3.576279E-07 0.2551636 0.2208668
v -0.09463757 0.07592842 0.3198615
v -0.09658241 0.07571191 -0.3188443
v 0.09658247 0.07571191 -0.3188443
v 0.09463763 0.07592842 0.3198615
v 0.1304314 0.2660074 -0.1514198
v 0.2223082 0.236665 -3.376603E-05
v 0.2385231 0.1262599 -0.1792029
v 0.3035896 -0.03817946 -3.376603E-05
v 0.2529882 0.002740771 -0.2019441
v 0.2403894 0.1258247 0.1821569
v 0.1318506 0.265977 0.1515599
v 0.2529882 0.002740771 0.2018766
v -0.2993744 -0.03363729 -0.2449456
v -0.2522741 0.002731889 -0.2013828
v -0.3027332 -0.03807268 -4.264712E-05
v -0.3709012 -0.07489783 -4.264712E-05
v -0.2623683 -0.117275 -0.2313236
v -0.3253973 -0.1584651 -4.264712E-05
v -3.576279E-07 0.3371256 -4.932284E-05
v -0.1124088 0.0500783 -0.3887362
v -0.09630957 0.07549688 -0.3179538
v -0.09923759 -0.04076415 -0.3732568
v 0.1124088 0.0500783 -0.3887362
v 0.0963096 0.07549688 -0.3179538
v 0.09923762 -0.04076415 -0.3732568
v -0.2993744 -0.03363729 0.2448596
v -0.2522741 0.002731889 0.2012975
v -0.2623683 -0.117275 0.2312375
v -0.09437066 0.07571265 0.3189488
v -0.1124088 0.05187929 0.3887361
v -0.09858733 -0.03841373 0.3778345
v 0.09437069 0.07571265 0.3189488
v 0.1124088 0.05187929 0.3887361
v 0.09858736 -0.03841373 0.3778345
v 0.2993744 -0.03363729 -0.2449456
v 0.2522742 0.002731889 -0.2013828
v 0.3709012 -0.07489783 -4.264712E-05
v 0.3027332 -0.03807268 -4.264712E-05
v 0.3253973 -0.1584651 -4.264712E-05
v 0.2623683 -0.117275 -0.2313236
v 0.2993744 -0.03363729 0.2448596
v 0.2522742 0.002731889 0.2012975
v 0.2623683 -0.117275 0.2312375
vt 0.7928036 0.5052402
vt 0.7535539 0.5568721
vt 0.8050963 0.586634
vt 0.7535539 0.6449493
vt 0.8061704 0.6404589
vt 0.8148677 0.7132896
vt 0.7535539 0.7138714
vt 0.7535837 0.7799591
vt 0.8071252 0.7839721
vt 0.8764799 0.7116635
vt 0.8776734 0.7864187
vt 0.950713 0.7102015
vt 0.8670964 0.6246754
vt 0.9230844 0.5793091
vt 0.9332885 0.8081545
vt 0.819552 0.8732128
vt 0.7535986 0.8422576
vt 0.8011579 0.8918307
vt 0.8582797 0.9415979
vt 0.8290699 0.9556061
vt 0.7536881 0.9925884
vt 0.7536135 0.8676782
vt 0.8699308 0.5238581
vt 0.7901482 0.4586059
vt 0.7143189 0.5051954
vt 0.717034 0.4585462
vt 0.9187283 0.8679765
vt 0.7019965 0.586634
vt 0.7009075 0.6404589
vt 0.69224 0.7133194
vt 0.6306129 0.7117231
vt 0.6399665 0.6246903
vt 0.7000273 0.7840019
vt 0.6294641 0.7864932
vt 0.687675 0.8732874
vt 0.706099 0.8918755
vt 0.649007 0.9417173
vt 0.6782467 0.9556956
vt 0.5563351 0.710291
vt 0.5839189 0.5792942
vt 0.588454 0.8681257
vt 0.5738341 0.8082888
vt 0.6371172 0.5237835
vt 0.3543723 0.806782
vt 0.5031666 0.8069014
vt 0.384701 0.718496
vt 0.3185238 0.7501972
vt 0.4494908 0.6820359
vt 0.2684881 0.8067373
vt 0.2684881 0.7207189
vt 0.3848502 0.8962764
vt 0.318852 0.8632624
vt 0.4490582 0.9314685
vt 0.2684881 0.8921142
vt 0.326162 0.9853978
vt 0.3274151 0.6284944
vt 0.2095463 0.6284944
vt 0.2108293 0.9853978
vt 0.2184525 0.7501972
vt 0.182604 0.806782
vt 0.1522753 0.718496
vt 0.03380974 0.8069014
vt 0.08748547 0.6820359
vt 0.1521261 0.8962764
vt 0.2181243 0.8632624
vt 0.0879181 0.9314685
vt 0.4789841 0.121678
vt 0.5121473 0.07753503
vt 0.3410205 0.01492328
vt 0.3409012 0.07441711
vt 0.4428224 0.1591824
vt 0.3409012 0.1271679
vt 0.3407221 0.3006369
vt 0.5676729 0.2350117
vt 0.6234074 0.2168413
vt 0.5122965 0.247543
vt 0.5680608 0.3664262
vt 0.6259434 0.3848054
vt 0.5125203 0.3542977
vt 0.2031165 0.1211111
vt 0.1704307 0.07684879
vt 0.2390098 0.1586006
vt 0.05527705 0.2174828
vt 0.1135774 0.2345045
vt 0.1664326 0.2470358
vt 0.05775347 0.3833286
vt 0.113831 0.3665307
vt 0.1666415 0.3536264
vt 0.4785366 0.4807296
vt 0.5115058 0.5255588
vt 0.3396331 0.5268716
vt 0.339096 0.5863804
vt 0.3401105 0.4741059
vt 0.4424494 0.4427776
vt 0.2026242 0.4790289
vt 0.1697147 0.5226199
vt 0.2386219 0.4419571
vn 0.3176907 -0.1300088 -0.9392393
vn -0.004887581 -0.5210127 -0.853535
vn 0.4271717 -0.5053725 -0.7497486
vn -0.004887581 -0.9139715 -0.4057489
vn 0.4662721 -0.7966704 -0.3845864
vn 0.4662721 -0.8826912 0.05870757
vn -0.00488756 -0.9999881 0
vn -0.004887581 -0.8201306 0.5721555
vn 0.4271717 -0.7184696 0.5489315
vn 0.8435909 -0.5366528 -0.0189268
vn 0.7966704 -0.3880714 0.4633756
vn 0.9687121 -0.2316698 -0.08902799
vn 0.8201306 -0.3880714 -0.4204598
vn 0.8826912 -0.2003895 -0.4250886
vn 0.8983313 -0.153469 0.4116407
vn 0.6461339 -0.4819123 0.5918374
vn -0.004887581 -0.7497499 0.6617032
vn 0.4662721 -0.2473099 0.8493693
vn 0.8905113 0.01270759 0.4547836
vn 0.5288327 0.08308828 0.8446492
vn -0.004887581 0.06744814 0.9977108
vn -0.004887581 -0.5210127 0.853535
vn 0.661774 -0.2003895 -0.7224259
vn 0.2082096 0.1143687 -0.9713746
vn -0.3255107 -0.1300088 -0.9365578
vn -0.2316698 0.1143687 -0.9660481
vn 0.7732102 -0.09090841 0.6276
vn -0.4271717 -0.5053725 -0.7497486
vn -0.4662721 -0.7966704 -0.3845864
vn -0.4662721 -0.8826912 0.05870757
vn -0.8435909 -0.5366528 -0.0189268
vn -0.8201306 -0.3880714 -0.4204598
vn -0.4271717 -0.7184696 0.5489315
vn -0.7966703 -0.3880714 0.4633757
vn -0.6461339 -0.4819123 0.5918374
vn -0.4662721 -0.2473099 0.8493693
vn -0.8905113 0.01270759 0.4547836
vn -0.5288327 0.08308828 0.8446492
vn -0.9687121 -0.2316698 -0.08902799
vn -0.8826911 -0.2003895 -0.4250887
vn -0.7732102 -0.09090841 0.6276
vn -0.8983314 -0.153469 0.4116405
vn -0.661774 -0.2003895 -0.7224259
vn -0.7966703 0.5992134 -0.07911851
vn -0.9687121 0.2473099 -0.02084875
vn -0.8201306 0.3880713 -0.4204599
vn -0.450632 0.7810302 -0.4323455
vn -0.8748711 0.1847494 -0.4477367
vn -0.00488756 0.9999881 0
vn -0.004887581 0.7262896 -0.6873714
vn -0.8201306 0.3880713 0.4204599
vn -0.4428118 0.7810302 0.4403516
vn -0.8748711 0.1612891 0.4567125
vn -0.004887581 0.7341098 0.6790133
vn -0.2942303 0.4897323 0.8207257
vn -0.3020505 0.4897323 -0.81788
vn 0.3020505 0.4897323 -0.81788
vn 0.2942304 0.4897323 0.8207257
vn 0.450632 0.7810302 -0.4323455
vn 0.7966704 0.5992134 -0.07911814
vn 0.8201306 0.3880713 -0.4204599
vn 0.9687121 0.2473099 -0.02084875
vn 0.8748711 0.1847494 -0.4477367
vn 0.8201306 0.3880713 0.4204599
vn 0.4428118 0.7810302 0.4403516
vn 0.8748711 0.1612891 0.4567125
vn -0.8435909 0.1378288 -0.5189968
vn -0.5288327 0.8435909 -0.0932224
vn -0.5366528 0.8435909 -0.0189268
vn -0.9993466 0.0361445 0
vn 0.5366528 -0.8435909 0.0189268
vn 0.5601131 -0.8279507 -0.02776771
vn -0.00488756 -0.9999881 0
vn -0.356791 0.3724312 -0.8567352
vn -0.2785902 0.9217916 -0.2696068
vn 0.3020505 -0.9296117 0.2111578
vn 0.356791 0.3724312 -0.8567352
vn 0.2785903 0.9217916 -0.2696068
vn -0.3020505 -0.9296117 0.2111578
vn -0.8435909 0.1378288 0.5189968
vn -0.5210127 0.8514109 0.06037633
vn 0.5444729 -0.8357707 -0.07096853
vn -0.2707702 0.9296117 0.2500112
vn -0.3724312 0.3880713 0.8430277
vn 0.3098705 -0.9296117 -0.1995053
vn 0.2707702 0.9296117 0.2500112
vn 0.3724312 0.3880713 0.8430277
vn -0.3098706 -0.9296117 -0.1995052
vn 0.8435909 0.1378288 -0.5189968
vn 0.5288327 0.8435909 -0.0932224
vn 0.9993466 0.0361445 0
vn 0.5366528 0.8435909 -0.0189268
vn -0.5601131 -0.8279507 -0.02776771
vn -0.5366528 -0.8435909 0.0189268
vn 0.8435909 0.1378288 0.5189968
vn 0.5210127 0.8514109 0.06037633
vn -0.5444728 -0.8357707 -0.07096937
g Body_LOD1_0
f 3/3/3 2/2/2 1/1/1
f 4/4/4 2/2/2 3/3/3
f 4/4/4 3/3/3 5/5/5
f 4/4/4 5/5/5 6/6/6
f 4/4/4 6/6/6 7/7/7
f 6/6/6 8/8/8 7/7/7
f 6/6/6 9/9/9 8/8/8
f 10/10/10 9/9/9 6/6/6
f 5/5/5 10/10/10 6/6/6
f 10/10/10 11/11/11 9/9/9
f 10/10/10 12/12/12 11/11/11
f 10/10/10 13/13/13 12/12/12
f 5/5/5 13/13/13 10/10/10
f 3/3/3 13/13/13 5/5/5
f 12/12/12 13/13/13 14/14/14
f 12/12/12 15/15/15 11/11/11
f 8/8/8 9/9/9 16/16/16
f 11/11/11 16/16/16 9/9/9
f 17/17/17 8/8/8 16/16/16
f 17/17/17 16/16/16 18/18/18
f 18/18/18 16/16/16 19/19/19
f 20/20/20 18/18/18 19/19/19
f 21/21/21 18/18/18 20/20/20
f 18/18/18 21/21/21 22/22/22
f 22/22/22 17/17/17 18/18/18
f 13/13/13 23/23/23 14/14/14
f 13/13/13 3/3/3 23/23/23
f 3/3/3 1/1/1 23/23/23
f 23/23/23 1/1/1 24/24/24
f 24/24/24 1/1/1 25/25/25
f 24/24/24 25/25/25 26/26/26
f 25/25/25 1/1/1 2/2/2
f 16/16/16 27/27/27 19/19/19
f 11/11/11 27/27/27 16/16/16
f 27/27/27 11/11/11 15/15/15
f 2/2/2 28/28/28 25/25/25
f 28/28/28 2/2/2 4/4/4
f 28/28/28 4/4/4 29/29/29
f 4/4/4 30/30/30 29/29/29
f 4/4/4 7/7/7 30/30/30
f 29/29/29 30/30/30 31/31/31
f 29/29/29 31/31/31 32/32/32
f 28/28/28 29/29/29 32/32/32
f 30/30/30 7/7/7 8/8/8
f 30/30/30 8/8/8 33/33/33
f 33/33/33 31/31/31 30/30/30
f 33/33/33 34/34/34 31/31/31
f 35/35/35 33/33/33 8/8/8
f 33/33/33 35/35/35 34/34/34
f 17/17/17 35/35/35 8/8/8
f 36/36/36 35/35/35 17/17/17
f 37/37/37 35/35/35 36/36/36
f 38/38/38 37/37/37 36/36/36
f 38/38/38 36/36/36 21/21/21
f 21/21/21 36/36/36 22/22/22
f 22/22/22 36/36/36 17/17/17
f 31/31/31 39/39/39 32/32/32
f 31/31/31 34/34/34 39/39/39
f 40/40/40 32/32/32 39/39/39
f 37/37/37 41/41/41 35/35/35
f 35/35/35 41/41/41 34/34/34
f 42/42/42 39/39/39 34/34/34
f 34/34/34 41/41/41 42/42/42
f 32/32/32 40/40/40 43/43/43
f 32/32/32 43/43/43 28/28/28
f 25/25/25 28/28/28 43/43/43
f 43/43/43 26/26/26 25/25/25
f 46/46/46 45/45/45 44/44/44
f 47/47/47 46/46/46 44/44/44
f 45/45/45 46/46/46 48/48/48
f 44/44/44 49/49/49 47/47/47
f 47/47/47 49/49/49 50/50/50
f 44/44/44 45/45/45 51/51/51
f 51/51/51 52/52/52 44/44/44
f 44/44/44 52/52/52 49/49/49
f 51/51/51 45/45/45 53/53/53
f 54/54/54 49/49/49 52/52/52
f 55/55/55 52/52/52 51/51/51
f 55/55/55 54/54/54 52/52/52
f 55/55/55 51/51/51 53/53/53
f 46/46/46 47/47/47 56/56/56
f 56/56/56 47/47/47 50/50/50
f 46/46/46 56/56/56 48/48/48
f 50/50/50 57/57/57 56/56/56
f 55/55/55 58/58/58 54/54/54
f 50/50/50 49/49/49 59/59/59
f 57/57/57 50/50/50 59/59/59
f 59/59/59 49/49/49 60/60/60
f 61/61/61 59/59/59 60/60/60
f 57/57/57 59/59/59 61/61/61
f 60/60/60 62/62/62 61/61/61
f 61/61/61 62/62/62 63/63/63
f 57/57/57 61/61/61 63/63/63
f 60/60/60 64/64/64 62/62/62
f 65/65/65 64/64/64 60/60/60
f 58/58/58 65/65/65 54/54/54
f 64/64/64 65/65/65 58/58/58
f 62/62/62 64/64/64 66/66/66
f 64/64/64 58/58/58 66/66/66
f 54/54/54 65/65/65 49/49/49
f 60/60/60 49/49/49 65/65/65
f 69/69/69 68/68/68 67/67/67
f 70/70/70 69/69/69 67/67/67
f 67/67/67 71/71/71 70/70/70
f 71/71/71 72/72/72 70/70/70
f 71/71/71 73/73/73 72/72/72
f 67/67/67 68/68/68 74/74/74
f 68/68/68 75/75/75 74/74/74
f 76/76/76 71/71/71 67/67/67
f 74/74/74 76/76/76 67/67/67
f 76/76/76 73/73/73 71/71/71
f 74/74/74 75/75/75 77/77/77
f 75/75/75 78/78/78 77/77/77
f 79/79/79 76/76/76 74/74/74
f 77/77/77 79/79/79 74/74/74
f 79/79/79 73/73/73 76/76/76
f 70/70/70 80/80/80 69/69/69
f 70/70/70 72/72/72 80/80/80
f 80/80/80 81/81/81 69/69/69
f 72/72/72 82/82/82 80/80/80
f 72/72/72 73/73/73 82/82/82
f 81/81/81 80/80/80 83/83/83
f 80/80/80 84/84/84 83/83/83
f 80/80/80 82/82/82 84/84/84
f 82/82/82 85/85/85 84/84/84
f 85/85/85 82/82/82 73/73/73
f 83/83/83 84/84/84 86/86/86
f 84/84/84 87/87/87 86/86/86
f 84/84/84 85/85/85 87/87/87
f 85/85/85 88/88/88 87/87/87
f 85/85/85 73/73/73 88/88/88
f 77/77/77 78/78/78 89/89/89
f 78/78/78 90/90/90 89/89/89
f 89/89/89 90/90/90 91/91/91
f 90/90/90 92/92/92 91/91/91
f 91/91/91 93/93/93 89/89/89
f 93/93/93 94/94/94 89/89/89
f 93/93/93 73/73/73 94/94/94
f 89/89/89 94/94/94 77/77/77
f 94/94/94 79/79/79 77/77/77
f 94/94/94 73/73/73 79/79/79
f 91/91/91 92/92/92 95/95/95
f 91/91/91 95/95/95 93/93/93
f 87/87/87 88/88/88 95/95/95
f 92/92/92 96/96/96 95/95/95
f 87/87/87 95/95/95 96/96/96
f 86/86/86 87/87/87 96/96/96
f 95/95/95 97/97/97 93/93/93
f 93/93/93 97/97/97 73/73/73
f 88/88/88 97/97/97 95/95/95
f 88/88/88 73/73/73 97/97/97
