g Body_LOD0
v -2.818105 0.1722965 0.2885978
v -2.818105 0.1722965 -0.2885981
v -0.2297027 1.578066 -0.2885981
v -0.2297027 1.578066 0.2885978
v -0.2297027 1.578066 0.2885978
v -0.2297027 1.578066 -0.2885981
v 0.0512867 1.397683 -0.2885981
v 0.0512867 1.397683 0.2885978
v 0.0512867 1.397683 0.2885978
v 0.0512867 1.397683 -0.2885981
v 0.0512867 0.932488 -0.2885981
v 0.0512867 0.932488 0.2885978
v 0.0512867 0.932488 0.2885978
v 0.0512867 0.932488 -0.2885981
v 2.616581 0.932488 -0.2885981
v 2.616581 0.932488 0.2885978
v 2.616581 0.932488 0.2885978
v 2.616581 0.932488 -0.2885981
v 2.818105 0.7261267 -0.2885981
v 2.818105 0.7261267 0.2885978
v 2.558127 0.5925605 0.2885978
v 2.558127 -0.5925605 0.2885978
v 2.478021 -0.6698117 0.2885978
v 2.478021 0.6698115 0.2885978
v -0.208756 -0.6698117 0.2885978
v -0.208756 0.6698115 0.2885978
v -2.558094 -0.03124285 0.2885978
v -2.558094 0.03124285 0.2885978
v -0.2087505 1.250894 0.2885978
v -0.25173 1.27706 0.2885978
v -0.2087505 -1.250894 0.2885978
v -0.25173 -1.27706 0.2885978
v 2.818105 0.7261267 0.2885978
v 2.818105 -0.7261269 0.2885978
v 2.558127 -0.5925605 0.2885978
v 2.558127 0.5925605 0.2885978
v 2.616581 0.932488 0.2885978
v 2.478021 0.6698115 0.2885978
v -0.208756 0.6698115 0.2885978
v 0.0512867 0.932488 0.2885978
v -0.2087505 1.250894 0.2885978
v 0.0512867 1.397683 0.2885978
v -0.2297027 1.578066 0.2885978
v -0.25173 1.27706 0.2885978
v -2.558094 0.03124285 0.2885978
v -2.818105 0.1722965 0.2885978
v -2.818105 -0.1722968 0.2885978
v -2.558094 -0.03124285 0.2885978
v 2.616581 -0.9324882 0.2885978
v 2.478021 -0.6698117 0.2885978
v -0.208756 -0.6698117 0.2885978
v 0.0512867 -0.9324882 0.2885978
v -0.2297027 -1.578066 0.2885978
v -0.25173 -1.27706 0.2885978
v -0.2087505 -1.250894 0.2885978
v 0.0512867 -1.397683 0.2885978
v -2.558094 0.03124285 -0.2885981
v -0.208756 0.6698115 -0.2885981
v -0.2087505 1.250894 -0.2885981
v -0.25173 1.27706 -0.2885981
v -2.558094 -0.03124285 -0.2885981
v -0.208756 -0.6698117 -0.2885981
v 2.478021 0.6698115 -0.2885981
v 2.478021 -0.6698117 -0.2885981
v 2.558127 0.5925605 -0.2885981
v 2.558127 -0.5925605 -0.2885981
v -0.2087505 -1.250894 -0.2885981
v -0.25173 -1.27706 -0.2885981
v -0.208756 0.6698115 -0.2885981
v 2.478021 0.6698115 -0.2885981
v 2.616581 0.932488 -0.2885981
v 0.0512867 0.932488 -0.2885981
v 2.558127 0.5925605 -0.2885981
v 2.818105 0.7261267 -0.2885981
v -0.2087505 1.250894 -0.2885981
v 0.0512867 1.397683 -0.2885981
v -0.2297027 1.578066 -0.2885981
v -0.25173 1.27706 -0.2885981
v -2.558094 0.03124285 -0.2885981
v -2.818105 0.1722965 -0.2885981
v 2.558127 -0.5925605 -0.2885981
v 2.818105 -0.7261269 -0.2885981
v 2.616581 -0.9324882 -0.2885981
v 2.478021 -0.6698117 -0.2885981
v -0.208756 -0.6698117 -0.2885981
v 0.0512867 -0.9324882 -0.2885981
v -2.818105 -0.1722968 -0.2885981
v -2.558094 -0.03124285 -0.2885981
v -0.2297027 -1.578066 -0.2885981
v -0.25173 -1.27706 -0.2885981
v -0.2087505 -1.250894 -0.2885981
v 0.0512867 -1.397683 -0.2885981
v -2.818105 0.1722965 -0.2885981
v -2.818105 0.1722965 0.2885978
v -2.818105 -0.1722968 0.2885978
v -2.818105 -0.1722968 -0.2885981
v -2.818105 -0.1722968 0.2885978
v -0.2297027 -1.578066 0.2885978
v -0.2297027 -1.578066 -0.2885981
v -2.818105 -0.1722968 -0.2885981
v -0.2297027 -1.578066 0.2885978
v 0.0512867 -1.397683 0.2885978
v 0.0512867 -1.397683 -0.2885981
v -0.2297027 -1.578066 -0.2885981
v 0.0512867 -1.397683 0.2885978
v 0.0512867 -0.9324882 0.2885978
v 0.0512867 -0.9324882 -0.2885981
v 0.0512867 -1.397683 -0.2885981
v 0.0512867 -0.9324882 0.2885978
v 2.616581 -0.9324882 0.2885978
v 2.616581 -0.9324882 -0.2885981
v 0.0512867 -0.9324882 -0.2885981
v 2.616581 -0.9324882 0.2885978
v 2.818105 -0.7261269 0.2885978
v 2.818105 -0.7261269 -0.2885981
v 2.616581 -0.9324882 -0.2885981
v 2.818105 0.7261267 0.2885978
v 2.818105 0.7261267 -0.2885981
v 2.818105 -0.7261269 -0.2885981
v 2.818105 -0.7261269 0.2885978
vt 0.6065552 0.3666758
vt 0.6062772 0.4173845
vt 0.719519 0.4174132
vt 0.7197298 0.3666949
vt 0.7197298 0.3666949
vt 0.719519 0.4174132
vt 0.7270985 0.4174132
vt 0.7268302 0.3666949
vt 0.7268302 0.3666949
vt 0.7270985 0.4174132
vt 0.7298677 0.4174132
vt 0.729427 0.3666949
vt 0.729427 0.3666949
vt 0.7298677 0.4174132
vt 0.8245585 0.4174324
vt 0.8251334 0.3667237
vt 0.8251334 0.3667237
vt 0.8245585 0.4174324
vt 0.8286309 0.4174324
vt 0.8282476 0.3667237
vt 0.7846297 0.7005081
vt 0.7246168 0.7005081
vt 0.7207072 0.7046571
vt 0.7885392 0.7046571
vt 0.7207072 0.843991
vt 0.7885392 0.843991
vt 0.7530373 0.9776811
vt 0.756209 0.9776811
vt 0.817966 0.843991
vt 0.8192979 0.8462141
vt 0.6912805 0.843991
vt 0.6899486 0.8462141
vt 0.4805308 0.687026
vt 0.4069878 0.687026
vt 0.4137529 0.7005081
vt 0.4737754 0.7005081
vt 0.4909849 0.6974801
vt 0.4776849 0.7046571
vt 0.4776849 0.843991
vt 0.4909849 0.8305089
vt 0.5071117 0.843991
vt 0.5145474 0.8305281
vt 0.5236792 0.8445373
vt 0.508434 0.8462141
vt 0.4453452 0.9776811
vt 0.4524839 0.9917285
vt 0.4350348 0.991604
vt 0.4421831 0.9776811
vt 0.3965433 0.6974801
vt 0.4098433 0.7046571
vt 0.4098433 0.843991
vt 0.3965433 0.8305089
vt 0.363849 0.844336
vt 0.3790942 0.8462141
vt 0.3804166 0.843991
vt 0.3729808 0.8305089
vt 0.9118422 0.9776811
vt 0.8795025 0.843991
vt 0.8500757 0.843991
vt 0.8487534 0.8462141
vt 0.9150043 0.9776811
vt 0.9473441 0.843991
vt 0.8795025 0.7046571
vt 0.9473441 0.7046571
vt 0.8834216 0.7005081
vt 0.9434345 0.7005081
vt 0.9767708 0.843991
vt 0.9780931 0.8462141
vt 0.5544283 0.843991
vt 0.5544283 0.7046571
vt 0.5411283 0.6974801
vt 0.5411283 0.8305089
vt 0.5583378 0.7005081
vt 0.5515728 0.687026
vt 0.5250015 0.843991
vt 0.5175658 0.8305089
vt 0.508434 0.8445756
vt 0.5236792 0.8462141
vt 0.586768 0.9776811
vt 0.5796198 0.9917477
vt 0.6183507 0.7005081
vt 0.6251158 0.687026
vt 0.6355699 0.6974801
vt 0.6222699 0.7046571
vt 0.6222699 0.843991
vt 0.6355699 0.8305089
vt 0.5970688 0.9918148
vt 0.5899301 0.9776811
vt 0.6682642 0.8446139
vt 0.653019 0.8462141
vt 0.6516966 0.843991
vt 0.6591228 0.8305281
vt 0.6062772 0.4173845
vt 0.6065552 0.3666758
vt 0.6037667 0.3666758
vt 0.6044375 0.4173845
vt 0.6037667 0.3666758
vt 0.4903621 0.3666949
vt 0.4915599 0.4174132
vt 0.6044375 0.4173845
vt 0.9734075 0.3666949
vt 0.9651956 0.3666949
vt 0.965646 0.4174132
vt 0.9740303 0.4174132
vt 0.9651956 0.3666949
vt 0.9626084 0.3666949
vt 0.9628959 0.4174132
vt 0.965646 0.4174132
vt 0.9626084 0.3666949
vt 0.8678219 0.3667237
vt 0.8673906 0.4174324
vt 0.9628959 0.4174132
vt 0.8678219 0.3667237
vt 0.8637398 0.3667237
vt 0.8641519 0.4174324
vt 0.8673906 0.4174324
vt 0.8282476 0.3667237
vt 0.8286309 0.4174324
vt 0.8641519 0.4174324
vt 0.8637398 0.3667237
vn -0.4778248 0.8784551 0
vn -0.4778248 0.8784551 0
vn -0.4778248 0.8784551 0
vn -0.4778248 0.8784551 0
vn 0.5404118 0.8414006 0
vn 0.5404118 0.8414006 0
vn 0.5404118 0.8414006 0
vn 0.5404118 0.8414006 0
vn 0.9999995 0.0009775162 0
vn 0.9999995 0.0009775162 0
vn 0.9999995 0.0009775162 0
vn 0.9999995 0.0009775162 0
vn -0.0009775162 0.9999995 0
vn -0.0009775162 0.9999995 0
vn -0.0009775162 0.9999995 0
vn -0.0009775162 0.9999995 0
vn 0.7145647 0.6989244 -0.03003227
vn 0.7145647 0.6989244 -0.03003227
vn 0.7145647 0.6989244 -0.03003227
vn 0.7145647 0.6989244 -0.03003227
vn -0.0009775162 0.0009775162 0.999999
vn -0.0009775162 0.0009775162 0.999999
vn -0.0009775162 0.0009775162 0.999999
vn -0.0009775162 0.0009775162 0.999999
vn -0.0009775162 0.0009775162 0.999999
vn -0.0009775162 0.0009775162 0.999999
vn -0.0009775162 0.0009775162 0.999999
vn -0.0009775162 0.0009775162 0.999999
vn -0.0009775162 0.0009775162 0.999999
vn -0.0009775162 0.0009775162 0.999999
vn -0.0009775162 0.0009775162 0.999999
vn -0.0009775162 0.0009775162 0.999999
vn -0.0009775162 0.0009775162 0.999999
vn -0.0009775162 0.0009775162 0.999999
vn -0.0009775162 0.0009775162 0.999999
vn -0.0009775162 0.0009775162 0.999999
vn -0.0009775162 0.0009775162 0.999999
vn -0.0009775162 0.0009775162 0.999999
vn -0.0009775162 0.0009775162 0.999999
vn -0.0009775162 0.0009775162 0.999999
vn -0.0009775162 0.0009775162 0.999999
vn -0.0009775162 0.0009775162 0.999999
vn -0.0009775162 0.0009775162 0.999999
vn -0.0009775162 0.0009775162 0.999999
vn -0.0009775162 0.0009775162 0.999999
vn -0.0009775162 0.0009775162 0.999999
vn -0.0009775162 0.0009775162 0.999999
vn -0.0009775162 0.0009775162 0.999999
vn -0.0009775162 0.0009775162 0.999999
vn -0.0009775162 0.0009775162 0.999999
vn -0.0009775162 0.0009775162 0.999999
vn -0.0009775162 0.0009775162 0.999999
vn -0.0009775162 0.0009775162 0.999999
vn -0.0009775162 0.0009775162 0.999999
vn -0.0009775162 0.0009775162 0.999999
vn -0.0009775162 0.0009775162 0.999999
vn -0.0009775162 0.0009775162 -0.999999
vn -0.0009775162 0.0009775162 -0.999999
vn -0.0009775162 0.0009775162 -0.999999
vn -0.0009775162 0.0009775162 -0.999999
vn -0.0009775162 0.0009775162 -0.999999
vn -0.0009775162 0.0009775162 -0.999999
vn -0.0009775162 0.0009775162 -0.999999
vn -0.0009775162 0.0009775162 -0.999999
vn -0.0009775162 0.0009775162 -0.999999
vn -0.0009775162 0.0009775162 -0.999999
vn -0.0009775162 0.0009775162 -0.999999
vn -0.0009775162 0.0009775162 -0.999999
vn -0.0009775162 0.0009775162 -0.999999
vn -0.0009775162 0.0009775162 -0.999999
vn -0.0009775162 0.0009775162 -0.999999
vn -0.0009775162 0.0009775162 -0.999999
vn -0.0009775162 0.0009775162 -0.999999
vn -0.0009775162 0.0009775162 -0.999999
vn -0.0009775162 0.0009775162 -0.999999
vn -0.0009775162 0.0009775162 -0.999999
vn -0.0009775162 0.0009775162 -0.999999
vn -0.0009775162 0.0009775162 -0.999999
vn -0.0009775162 0.0009775162 -0.999999
vn -0.0009775162 0.0009775162 -0.999999
vn -0.0009775162 0.0009775162 -0.999999
vn -0.0009775162 0.0009775162 -0.999999
vn -0.0009775162 0.0009775162 -0.999999
vn -0.0009775162 0.0009775162 -0.999999
vn -0.0009775162 0.0009775162 -0.999999
vn -0.0009775162 0.0009775162 -0.999999
vn -0.0009775162 0.0009775162 -0.999999
vn -0.0009775162 0.0009775162 -0.999999
vn -0.0009775162 0.0009775162 -0.999999
vn -0.0009775162 0.0009775162 -0.999999
vn -0.0009775162 0.0009775162 -0.999999
vn -0.0009775162 0.0009775162 -0.999999
vn -0.9999995 0.0009775162 0
vn -0.9999995 0.0009775162 0
vn -0.9999995 0.0009775162 0
vn -0.9999995 0.0009775162 0
vn -0.4778249 -0.8784552 0
vn -0.4778249 -0.8784552 0
vn -0.4778249 -0.8784552 0
vn -0.4778249 -0.8784552 0
vn 0.5404118 -0.8414007 0
vn 0.5404118 -0.8414007 0
vn 0.5404118 -0.8414007 0
vn 0.5404118 -0.8414007 0
vn 0.9999995 0.0009775162 0
vn 0.9999995 0.0009775162 0
vn 0.9999995 0.0009775162 0
vn 0.9999995 0.0009775162 0
vn -0.0009775162 -0.9999995 0
vn -0.0009775162 -0.9999995 0
vn -0.0009775162 -0.9999995 0
vn -0.0009775162 -0.9999995 0
vn 0.7145647 -0.6989244 -0.03003227
vn 0.7145647 -0.6989244 -0.03003227
vn 0.7145647 -0.6989244 -0.03003227
vn 0.7145647 -0.6989244 -0.03003227
vn 0.9999995 0.0009775162 0
vn 0.9999995 0.0009775162 0
vn 0.9999995 0.0009775162 0
vn 0.9999995 0.0009775162 0
g Body_LOD0_0
f 3/3/3 2/2/2 1/1/1
f 4/4/4 3/3/3 1/1/1
f 7/7/7 6/6/6 5/5/5
f 8/8/8 7/7/7 5/5/5
f 11/11/11 10/10/10 9/9/9
f 12/12/12 11/11/11 9/9/9
f 15/15/15 14/14/14 13/13/13
f 16/16/16 15/15/15 13/13/13
f 19/19/19 18/18/18 17/17/17
f 20/20/20 19/19/19 17/17/17
f 23/23/23 22/22/22 21/21/21
f 24/24/24 23/23/23 21/21/21
f 25/25/25 23/23/23 24/24/24
f 26/26/26 25/25/25 24/24/24
f 27/27/27 25/25/25 26/26/26
f 28/28/28 27/27/27 26/26/26
f 26/26/26 29/29/29 28/28/28
f 29/29/29 30/30/30 28/28/28
f 31/31/31 25/25/25 27/27/27
f 32/32/32 31/31/31 27/27/27
f 35/35/35 34/34/34 33/33/33
f 36/36/36 35/35/35 33/33/33
f 36/36/36 33/33/33 37/37/37
f 38/38/38 36/36/36 37/37/37
f 38/38/38 37/37/37 39/39/39
f 37/37/37 40/40/40 39/39/39
f 39/39/39 40/40/40 41/41/41
f 40/40/40 42/42/42 41/41/41
f 41/41/41 42/42/42 43/43/43
f 44/44/44 41/41/41 43/43/43
f 45/45/45 44/44/44 43/43/43
f 46/46/46 45/45/45 43/43/43
f 46/46/46 47/47/47 45/45/45
f 47/47/47 48/48/48 45/45/45
f 34/34/34 35/35/35 49/49/49
f 35/35/35 50/50/50 49/49/49
f 49/49/49 50/50/50 51/51/51
f 52/52/52 49/49/49 51/51/51
f 48/48/48 47/47/47 53/53/53
f 54/54/54 48/48/48 53/53/53
f 52/52/52 51/51/51 55/55/55
f 55/55/55 54/54/54 53/53/53
f 56/56/56 52/52/52 55/55/55
f 56/56/56 55/55/55 53/53/53
f 59/59/59 58/58/58 57/57/57
f 60/60/60 59/59/59 57/57/57
f 61/61/61 57/57/57 58/58/58
f 62/62/62 61/61/61 58/58/58
f 62/62/62 58/58/58 63/63/63
f 64/64/64 62/62/62 63/63/63
f 64/64/64 63/63/63 65/65/65
f 66/66/66 64/64/64 65/65/65
f 62/62/62 67/67/67 61/61/61
f 67/67/67 68/68/68 61/61/61
f 71/71/71 70/70/70 69/69/69
f 72/72/72 71/71/71 69/69/69
f 73/73/73 70/70/70 71/71/71
f 74/74/74 73/73/73 71/71/71
f 72/72/72 69/69/69 75/75/75
f 76/76/76 72/72/72 75/75/75
f 76/76/76 75/75/75 77/77/77
f 75/75/75 78/78/78 77/77/77
f 78/78/78 79/79/79 77/77/77
f 79/79/79 80/80/80 77/77/77
f 81/81/81 73/73/73 74/74/74
f 82/82/82 81/81/81 74/74/74
f 81/81/81 82/82/82 83/83/83
f 84/84/84 81/81/81 83/83/83
f 84/84/84 83/83/83 85/85/85
f 83/83/83 86/86/86 85/85/85
f 87/87/87 80/80/80 79/79/79
f 88/88/88 87/87/87 79/79/79
f 87/87/87 88/88/88 89/89/89
f 88/88/88 90/90/90 89/89/89
f 85/85/85 86/86/86 91/91/91
f 90/90/90 91/91/91 89/89/89
f 86/86/86 92/92/92 91/91/91
f 91/91/91 92/92/92 89/89/89
f 95/95/95 94/94/94 93/93/93
f 96/96/96 95/95/95 93/93/93
f 99/99/99 98/98/98 97/97/97
f 100/100/100 99/99/99 97/97/97
f 103/103/103 102/102/102 101/101/101
f 104/104/104 103/103/103 101/101/101
f 107/107/107 106/106/106 105/105/105
f 108/108/108 107/107/107 105/105/105
f 111/111/111 110/110/110 109/109/109
f 112/112/112 111/111/111 109/109/109
f 115/115/115 114/114/114 113/113/113
f 116/116/116 115/115/115 113/113/113
f 119/119/119 118/118/118 117/117/117
f 120/120/120 119/119/119 117/117/117
