g Body_LOD0
v 2.47 -1.66893E-06 -1.66893E-06
v 2.47 2.495996 -1.66893E-06
v 2.416027 2.496086 -0.5135421
v 2.416027 -1.66893E-06 -0.5135421
v 2.256458 2.496342 -1.00464
v 2.256458 -1.66893E-06 -1.00464
v 1.998274 2.49676 -1.451832
v 1.998274 -1.66893E-06 -1.451832
v 1.652756 2.497319 -1.835569
v 1.652756 -1.66893E-06 -1.835569
v 1.235003 2.497998 -2.139083
v 1.235003 -1.66893E-06 -2.139083
v 0.7632728 2.498762 -2.34911
v 0.7632728 -1.66893E-06 -2.34911
v 0.2581854 2.499582 -2.456471
v 0.2581854 -1.66893E-06 -2.456471
v 2.416023 -1.66893E-06 0.5135434
v 2.416023 2.496086 0.5135434
v 2.256458 -1.66893E-06 1.004642
v 2.256458 2.496342 1.004642
v 1.998274 -1.66893E-06 1.451829
v 1.998274 2.49676 1.451829
v 1.652751 -1.66893E-06 1.835566
v 1.652751 2.497319 1.835566
v 1.234998 -1.66893E-06 2.139084
v 1.234998 2.497998 2.139084
v 0.7632728 -1.66893E-06 2.349111
v 0.7632728 2.498762 2.349111
v 0.2581854 -1.66893E-06 2.456472
v 0.2581854 2.499582 2.456472
v -0.2581868 -1.66893E-06 2.456472
v -0.2581868 2.500417 2.456472
v -0.7632742 -1.66893E-06 2.349111
v -0.7632742 2.501238 2.349111
v -1.235 -1.66893E-06 2.139084
v -1.235 2.502001 2.139084
v -1.652753 -1.66893E-06 1.835571
v -1.652753 2.50268 1.835571
v -1.998275 -1.66893E-06 1.451829
v -1.998275 2.50324 1.451829
v -2.256459 -1.66893E-06 1.004642
v -2.256459 2.503657 1.004642
v -2.416024 -1.66893E-06 0.5135434
v -2.416024 2.503918 0.5135434
v -2.470001 -1.66893E-06 -1.66893E-06
v -2.470001 2.504003 -1.66893E-06
v -2.416024 -1.66893E-06 -0.5135421
v -2.416024 2.503918 -0.5135421
v -2.256459 -1.66893E-06 -1.00464
v -2.256459 2.503657 -1.00464
v -1.998275 -1.66893E-06 -1.451832
v -1.998275 2.50324 -1.451832
v -1.652753 -1.66893E-06 -1.835569
v -1.652753 2.50268 -1.835569
v -1.235 -1.66893E-06 -2.139083
v -1.235 2.502001 -2.139083
v -0.7632742 -1.66893E-06 -2.34911
v -0.7632742 2.501238 -2.34911
v -0.2581868 -1.66893E-06 -2.456471
v -0.2581868 2.500417 -2.456471
v 0.2581854 -1.66893E-06 -2.456471
v 0.2581854 2.499582 -2.456471
v -2.256459 -1.66893E-06 -1.00464
v -2.416024 -1.66893E-06 -0.5135421
v 2.416027 -1.66893E-06 -0.5135421
v 2.256458 -1.66893E-06 -1.00464
v 2.47 -1.66893E-06 -1.66893E-06
v -2.470001 -1.66893E-06 -1.66893E-06
v -1.998275 -1.66893E-06 -1.451832
v 1.998274 -1.66893E-06 -1.451832
v -1.652753 -1.66893E-06 -1.835569
v 1.652756 -1.66893E-06 -1.835569
v -1.235 -1.66893E-06 -2.139083
v 1.235003 -1.66893E-06 -2.139083
v 0.7632728 -1.66893E-06 -2.34911
v -0.7632742 -1.66893E-06 -2.34911
v -0.2581868 -1.66893E-06 -2.456471
v 0.2581854 -1.66893E-06 -2.456471
v -2.470001 -1.66893E-06 -1.66893E-06
v -2.416024 -1.66893E-06 0.5135434
v 2.416023 -1.66893E-06 0.5135434
v 2.47 -1.66893E-06 -1.66893E-06
v 2.256458 -1.66893E-06 1.004642
v -2.256459 -1.66893E-06 1.004642
v 1.998274 -1.66893E-06 1.451829
v -1.998275 -1.66893E-06 1.451829
v 1.652751 -1.66893E-06 1.835566
v -1.652753 -1.66893E-06 1.835571
v 1.234998 -1.66893E-06 2.139084
v -1.235 -1.66893E-06 2.139084
v 0.7632728 -1.66893E-06 2.349111
v -0.7632742 -1.66893E-06 2.349111
v 0.2581854 -1.66893E-06 2.456472
v -0.2581868 -1.66893E-06 2.456472
vt 0.625886 0.4135761
vt 0.625886 0.5873211
vt 0.6528078 0.5873211
vt 0.6528078 0.4135761
vt 0.6797296 0.5873361
vt 0.6797296 0.4135761
vt 0.7066514 0.5873662
vt 0.7066514 0.4135761
vt 0.7335733 0.5874112
vt 0.7335733 0.4135761
vt 0.7605101 0.5874563
vt 0.7605101 0.4135761
vt 0.787432 0.5875164
vt 0.787432 0.4135761
vt 0.8143538 0.5875614
vt 0.8143538 0.4135761
vt 0.5989491 0.4135761
vt 0.5989491 0.5873211
vt 0.5720273 0.4135761
vt 0.5720273 0.5873361
vt 0.5451055 0.4135761
vt 0.5451055 0.5873662
vt 0.5181836 0.4135761
vt 0.5181836 0.5874112
vt 0.4912618 0.4135761
vt 0.4912618 0.5874563
vt 0.464325 0.4135761
vt 0.464325 0.5875164
vt 0.4374031 0.4135761
vt 0.4374031 0.5875614
vt 0.4104813 0.4135761
vt 0.4104813 0.5876215
vt 0.3835595 0.4135761
vt 0.3835595 0.5876817
vt 0.3566377 0.4135761
vt 0.3566377 0.5877417
vt 0.3297008 0.4135761
vt 0.3297008 0.5877868
vt 0.302779 0.4135761
vt 0.302779 0.5878168
vt 0.2758572 0.4135761
vt 0.2758572 0.5878469
vt 0.2489354 0.4135761
vt 0.2489354 0.5878619
vt 0.2220136 0.4135761
vt 0.2220136 0.5878769
vt 0.1950767 0.4135761
vt 0.1950767 0.5878619
vt 0.1681549 0.4135761
vt 0.1681549 0.5878469
vt 0.1412331 0.4135761
vt 0.1412331 0.5878168
vt 0.1143112 0.4135761
vt 0.1143112 0.5877868
vt 0.08738942 0.4135761
vt 0.08738942 0.5877417
vt 0.06045257 0.4135761
vt 0.06045257 0.5876817
vt 0.03353075 0.4135761
vt 0.03353075 0.5876215
vt 0.009388247 0.4135761
vt 0.009388247 0.5875614
vt 0.9000168 0.7162964
vt 0.869249 0.7262419
vt 0.869249 0.425069
vt 0.9000168 0.4350144
vt 0.837054 0.4217038
vt 0.837054 0.7296071
vt 0.9280504 0.7002065
vt 0.9280504 0.4511044
vt 0.9521028 0.678678
vt 0.9521028 0.4726479
vt 0.9711223 0.6526275
vt 0.9711223 0.4986833
vt 0.9842827 0.528084
vt 0.9842827 0.6232269
vt 0.9910132 0.5917529
vt 0.9910132 0.5595579
vt 0.8399986 0.08316786
vt 0.8721786 0.08653309
vt 0.8721786 0.387706
vt 0.8399836 0.3910712
vt 0.9029464 0.3777605
vt 0.9029464 0.09647854
vt 0.93098 0.3616705
vt 0.93098 0.1125685
vt 0.9550323 0.3401421
vt 0.9550323 0.134112
vt 0.9740518 0.3141066
vt 0.9740518 0.1601475
vt 0.9872123 0.2846909
vt 0.9872123 0.1895481
vt 0.9939427 0.253217
vt 0.9939427 0.221037
vn 0.9999995 0.0009775162 0
vn 0.9999995 0.0009775162 0
vn 0.9784942 0.0009775162 -0.2062722
vn 0.9784942 0.0009775162 -0.2062722
vn 0.913978 0.0009775162 -0.4057625
vn 0.913978 0.0009775162 -0.4057625
vn 0.8084062 0.0009775162 -0.5886242
vn 0.8084062 0.0009775162 -0.5886242
vn 0.6695989 0.0009775162 -0.7427223
vn 0.6695989 0.0009775162 -0.7427223
vn 0.499511 0.0009775162 -0.866307
vn 0.499511 0.0009775162 -0.866307
vn 0.3098727 0.0009775162 -0.9507775
vn 0.3098727 0.0009775162 -0.9507775
vn 0.1045943 0.0009775162 -0.9945145
vn 0.1045943 0.0009775162 -0.9945145
vn 0.9784942 0.0009775162 0.2062722
vn 0.9784942 0.0009775162 0.2062722
vn 0.913978 0.0009775162 0.4057625
vn 0.913978 0.0009775162 0.4057625
vn 0.8084062 0.0009775162 0.5886242
vn 0.8084062 0.0009775162 0.5886242
vn 0.6695989 0.0009775162 0.7427223
vn 0.6695989 0.0009775162 0.7427223
vn 0.499511 0.0009775162 0.866307
vn 0.499511 0.0009775162 0.866307
vn 0.3098727 0.0009775162 0.9507775
vn 0.3098727 0.0009775162 0.9507775
vn 0.1045943 0.0009775162 0.9945145
vn 0.1045943 0.0009775162 0.9945145
vn -0.1045942 0.0009775162 0.9945145
vn -0.1045942 0.0009775162 0.9945145
vn -0.3098727 0.0009775162 0.9507775
vn -0.3098727 0.0009775162 0.9507775
vn -0.499511 0.0009775162 0.866307
vn -0.499511 0.0009775162 0.866307
vn -0.6695989 0.0009775162 0.7427223
vn -0.6695989 0.0009775162 0.7427223
vn -0.8084062 0.0009775162 0.5886242
vn -0.8084062 0.0009775162 0.5886242
vn -0.9139781 0.0009775162 0.4057624
vn -0.9139781 0.0009775162 0.4057624
vn -0.9784942 0.0009775162 0.2062722
vn -0.9784942 0.0009775162 0.2062722
vn -0.9999995 0.0009775162 0
vn -0.9999995 0.0009775162 0
vn -0.9784942 0.0009775162 -0.2062722
vn -0.9784942 0.0009775162 -0.2062722
vn -0.9139781 0.0009775162 -0.4057624
vn -0.9139781 0.0009775162 -0.4057624
vn -0.8084062 0.0009775162 -0.5886242
vn -0.8084062 0.0009775162 -0.5886242
vn -0.6695989 0.0009775162 -0.7427223
vn -0.6695989 0.0009775162 -0.7427223
vn -0.499511 0.0009775162 -0.866307
vn -0.499511 0.0009775162 -0.866307
vn -0.3098727 0.0009775162 -0.9507775
vn -0.3098727 0.0009775162 -0.9507775
vn -0.1045942 0.0009775162 -0.9945145
vn -0.1045942 0.0009775162 -0.9945145
vn 0.1045943 0.0009775162 -0.9945145
vn 0.1045943 0.0009775162 -0.9945145
vn -0.0009775162 -0.9999995 0
vn -0.0009775162 -0.9999995 0
vn -0.0009775162 -0.9999995 0
vn -0.0009775162 -0.9999995 0
vn -0.0009775162 -0.9999995 0
vn -0.0009775162 -0.9999995 0
vn -0.0009775162 -0.9999995 0
vn -0.0009775162 -0.9999995 0
vn -0.0009775162 -0.9999995 0
vn -0.0009775162 -0.9999995 0
vn -0.0009775162 -0.9999995 0
vn -0.0009775162 -0.9999995 0
vn -0.0009775162 -0.9999995 0
vn -0.0009775162 -0.9999995 0
vn -0.0009775162 -0.9999995 0
vn -0.0009775162 -0.9999995 0
vn -0.0009775162 -0.9999995 0
vn -0.0009775162 -0.9999995 0
vn -0.0009775162 -0.9999995 0
vn -0.0009775162 -0.9999995 0
vn -0.0009775162 -0.9999995 0
vn -0.0009775162 -0.9999995 0
vn -0.0009775162 -0.9999995 0
vn -0.0009775162 -0.9999995 0
vn -0.0009775162 -0.9999995 0
vn -0.0009775162 -0.9999995 0
vn -0.0009775162 -0.9999995 0
vn -0.0009775162 -0.9999995 0
vn -0.0009775162 -0.9999995 0
vn -0.0009775162 -0.9999995 0
vn -0.0009775162 -0.9999995 0
vn -0.0009775162 -0.9999995 0
g Body_LOD0_0
f 3/3/3 2/2/2 1/1/1
f 4/4/4 3/3/3 1/1/1
f 3/3/3 4/4/4 5/5/5
f 4/4/4 6/6/6 5/5/5
f 5/5/5 6/6/6 7/7/7
f 6/6/6 8/8/8 7/7/7
f 7/7/7 8/8/8 9/9/9
f 8/8/8 10/10/10 9/9/9
f 9/9/9 10/10/10 11/11/11
f 10/10/10 12/12/12 11/11/11
f 11/11/11 12/12/12 13/13/13
f 12/12/12 14/14/14 13/13/13
f 13/13/13 14/14/14 15/15/15
f 14/14/14 16/16/16 15/15/15
f 17/17/17 1/1/1 2/2/2
f 18/18/18 17/17/17 2/2/2
f 19/19/19 17/17/17 18/18/18
f 20/20/20 19/19/19 18/18/18
f 21/21/21 19/19/19 20/20/20
f 22/22/22 21/21/21 20/20/20
f 23/23/23 21/21/21 22/22/22
f 24/24/24 23/23/23 22/22/22
f 25/25/25 23/23/23 24/24/24
f 26/26/26 25/25/25 24/24/24
f 27/27/27 25/25/25 26/26/26
f 28/28/28 27/27/27 26/26/26
f 29/29/29 27/27/27 28/28/28
f 30/30/30 29/29/29 28/28/28
f 31/31/31 29/29/29 30/30/30
f 32/32/32 31/31/31 30/30/30
f 33/33/33 31/31/31 32/32/32
f 34/34/34 33/33/33 32/32/32
f 35/35/35 33/33/33 34/34/34
f 36/36/36 35/35/35 34/34/34
f 37/37/37 35/35/35 36/36/36
f 38/38/38 37/37/37 36/36/36
f 39/39/39 37/37/37 38/38/38
f 40/40/40 39/39/39 38/38/38
f 41/41/41 39/39/39 40/40/40
f 42/42/42 41/41/41 40/40/40
f 43/43/43 41/41/41 42/42/42
f 44/44/44 43/43/43 42/42/42
f 45/45/45 43/43/43 44/44/44
f 46/46/46 45/45/45 44/44/44
f 47/47/47 45/45/45 46/46/46
f 48/48/48 47/47/47 46/46/46
f 49/49/49 47/47/47 48/48/48
f 50/50/50 49/49/49 48/48/48
f 51/51/51 49/49/49 50/50/50
f 52/52/52 51/51/51 50/50/50
f 53/53/53 51/51/51 52/52/52
f 54/54/54 53/53/53 52/52/52
f 55/55/55 53/53/53 54/54/54
f 56/56/56 55/55/55 54/54/54
f 57/57/57 55/55/55 56/56/56
f 58/58/58 57/57/57 56/56/56
f 59/59/59 57/57/57 58/58/58
f 60/60/60 59/59/59 58/58/58
f 61/61/61 59/59/59 60/60/60
f 62/62/62 61/61/61 60/60/60
f 65/65/65 64/64/64 63/63/63
f 66/66/66 65/65/65 63/63/63
f 65/65/65 67/67/67 64/64/64
f 67/67/67 68/68/68 64/64/64
f 66/66/66 63/63/63 69/69/69
f 70/70/70 66/66/66 69/69/69
f 70/70/70 69/69/69 71/71/71
f 72/72/72 70/70/70 71/71/71
f 72/72/72 71/71/71 73/73/73
f 74/74/74 72/72/72 73/73/73
f 74/74/74 73/73/73 75/75/75
f 73/73/73 76/76/76 75/75/75
f 76/76/76 77/77/77 75/75/75
f 77/77/77 78/78/78 75/75/75
f 81/81/81 80/80/80 79/79/79
f 82/82/82 81/81/81 79/79/79
f 81/81/81 83/83/83 80/80/80
f 83/83/83 84/84/84 80/80/80
f 83/83/83 85/85/85 84/84/84
f 85/85/85 86/86/86 84/84/84
f 85/85/85 87/87/87 86/86/86
f 87/87/87 88/88/88 86/86/86
f 87/87/87 89/89/89 88/88/88
f 89/89/89 90/90/90 88/88/88
f 89/89/89 91/91/91 90/90/90
f 91/91/91 92/92/92 90/90/90
f 91/91/91 93/93/93 92/92/92
f 93/93/93 94/94/94 92/92/92
