g Body_LOD1
v 0.8864273 0.2880173 0.1839274
v 0.5478417 0.7540398 0.1839274
v 0.5478417 0.7540398 -0.1839269
v 0.8864273 0.2880173 -0.1839269
v 6.556511E-07 0.9320444 -0.1839269
v 6.556511E-07 0.9320444 0.1839274
v 0.8864255 -0.2880169 0.1839274
v 0.8864255 -0.2880169 -0.1839269
v 0.5478417 -0.7540394 0.1839274
v 0.5478417 -0.7540394 -0.1839269
v 6.556511E-07 -0.932044 0.1839274
v 6.556511E-07 -0.932044 -0.1839269
v 6.556511E-07 0.9320444 0.1839274
v -0.5478421 0.7540398 0.1839274
v -0.5478421 0.7540398 -0.1839269
v 6.556511E-07 0.9320444 -0.1839269
v -0.8864259 0.2880173 -0.1839269
v -0.8864259 0.2880173 0.1839274
v -0.8864259 -0.2880169 -0.1839269
v -0.8864259 -0.2880169 0.1839274
v -0.5478421 -0.7540394 -0.1839269
v -0.5478421 -0.7540394 0.1839274
v 6.556511E-07 -0.932044 -0.1839269
v 6.556511E-07 -0.932044 0.1839274
v 0.5478417 0.7540398 -0.1839269
v 6.556511E-07 -6.556511E-07 -0.1855891
v 0.8864273 0.2880173 -0.1839269
v 6.556511E-07 0.9320444 -0.1839269
v -0.5478421 0.7540398 -0.1839269
v -0.8864259 0.2880173 -0.1839269
v -0.8864259 -0.2880169 -0.1839269
v -0.5478421 -0.7540394 -0.1839269
v 6.556511E-07 -0.932044 -0.1839269
v 0.5478417 -0.7540394 -0.1839269
v 0.8864255 -0.2880169 -0.1839269
v 6.556511E-07 -6.556511E-07 0.1855895
v 0.5478417 0.7540398 0.1839274
v 0.8864273 0.2880173 0.1839274
v 6.556511E-07 0.9320444 0.1839274
v -0.5478421 0.7540398 0.1839274
v -0.8864259 0.2880173 0.1839274
v -0.8864259 -0.2880169 0.1839274
v -0.5478421 -0.7540394 0.1839274
v 6.556511E-07 -0.932044 0.1839274
v 0.5478417 -0.7540394 0.1839274
v 0.8864255 -0.2880169 0.1839274
vt 0.8888791 0.4065359
vt 0.8886403 0.2143688
vt 0.8284947 0.2146822
vt 0.8287186 0.4068494
vt 0.8293305 0.02285828
vt 0.8880284 0.022321
vt 0.8886552 0.5981359
vt 0.8287186 0.5987478
vt 0.8886552 0.7901389
vt 0.8287186 0.7907508
vt 0.8881328 0.9860671
vt 0.8293902 0.9866342
vt 0.9821121 0.986873
vt 0.9824106 0.7942879
vt 0.9228172 0.7949147
vt 0.9234441 0.9863357
vt 0.9228172 0.603255
vt 0.9827389 0.6026431
vt 0.9228172 0.4116102
vt 0.9827389 0.4109983
vt 0.9228172 0.2198311
vt 0.9827389 0.2192192
vt 0.9234142 0.02290305
vt 0.982127 0.02229115
vt 0.08345152 0.9089674
vt 0.2029366 0.5755403
vt 0.009605374 0.7028906
vt 0.2029366 0.9876789
vt 0.3224068 0.9089674
vt 0.396253 0.7028906
vt 0.396253 0.4481751
vt 0.3224218 0.2420984
vt 0.2029366 0.1633869
vt 0.08345152 0.2420984
vt 0.009605374 0.4481751
vt 0.6057474 0.5755254
vt 0.7252325 0.9089674
vt 0.7990786 0.7028906
vt 0.6057474 0.9876789
vt 0.4862623 0.9089674
vt 0.4124311 0.7028906
vt 0.4124311 0.4481751
vt 0.4862773 0.2420984
vt 0.6057474 0.1633869
vt 0.7252325 0.2420984
vt 0.7990786 0.4481751
vn 0.3941225 0.1284039 0.9100439
vn 0.2434405 0.3349841 0.9102321
vn 0.2434405 0.3349841 -0.9102321
vn 0.3941225 0.1284039 -0.9100439
vn 0.000404954 0.4143757 -0.9101058
vn 0.000404954 0.4143757 0.9101058
vn 0.3941225 -0.1284037 0.910044
vn 0.3941225 -0.1284037 -0.910044
vn 0.2434405 -0.3349839 0.9102321
vn 0.2434405 -0.3349839 -0.9102321
vn 0.000404954 -0.4143755 0.9101059
vn 0.000404954 -0.4143755 -0.9101059
vn 0.000404954 0.4143757 0.9101058
vn -0.2434407 0.3349841 0.910232
vn -0.2434407 0.3349841 -0.910232
vn 0.000404954 0.4143757 -0.9101058
vn -0.3941227 0.1284039 -0.9100438
vn -0.3941227 0.1284039 0.9100438
vn -0.3941227 -0.1284037 -0.9100438
vn -0.3941227 -0.1284037 0.9100438
vn -0.2434407 -0.3349839 -0.9102321
vn -0.2434407 -0.3349839 0.9102321
vn 0.000404954 -0.4143755 -0.9101059
vn 0.000404954 -0.4143755 0.9101059
vn 0.2434405 0.3349841 -0.9102321
vn 0.000404954 -0.000404954 -0.9999998
vn 0.3941225 0.1284039 -0.9100439
vn 0.000404954 0.4143757 -0.9101058
vn -0.2434407 0.3349841 -0.910232
vn -0.3941227 0.1284039 -0.9100438
vn -0.3941227 -0.1284037 -0.9100438
vn -0.2434407 -0.3349839 -0.9102321
vn 0.000404954 -0.4143755 -0.9101059
vn 0.2434405 -0.3349839 -0.9102321
vn 0.3941225 -0.1284037 -0.910044
vn 0.000404954 -0.000404954 0.9999998
vn 0.2434405 0.3349841 0.9102321
vn 0.3941225 0.1284039 0.9100439
vn 0.000404954 0.4143757 0.9101058
vn -0.2434407 0.3349841 0.910232
vn -0.3941227 0.1284039 0.9100438
vn -0.3941227 -0.1284037 0.9100438
vn -0.2434407 -0.3349839 0.9102321
vn 0.000404954 -0.4143755 0.9101059
vn 0.2434405 -0.3349839 0.9102321
vn 0.3941225 -0.1284037 0.910044
g Body_LOD1_0
f 3/3/3 2/2/2 1/1/1
f 4/4/4 3/3/3 1/1/1
f 3/3/3 5/5/5 2/2/2
f 5/5/5 6/6/6 2/2/2
f 4/4/4 1/1/1 7/7/7
f 8/8/8 4/4/4 7/7/7
f 8/8/8 7/7/7 9/9/9
f 10/10/10 8/8/8 9/9/9
f 10/10/10 9/9/9 11/11/11
f 12/12/12 10/10/10 11/11/11
f 15/15/15 14/14/14 13/13/13
f 16/16/16 15/15/15 13/13/13
f 15/15/15 17/17/17 14/14/14
f 17/17/17 18/18/18 14/14/14
f 17/17/17 19/19/19 18/18/18
f 19/19/19 20/20/20 18/18/18
f 19/19/19 21/21/21 20/20/20
f 21/21/21 22/22/22 20/20/20
f 21/21/21 23/23/23 22/22/22
f 23/23/23 24/24/24 22/22/22
f 27/27/27 26/26/26 25/25/25
f 25/25/25 26/26/26 28/28/28
f 28/28/28 26/26/26 29/29/29
f 29/29/29 26/26/26 30/30/30
f 30/30/30 26/26/26 31/31/31
f 31/31/31 26/26/26 32/32/32
f 32/32/32 26/26/26 33/33/33
f 33/33/33 26/26/26 34/34/34
f 34/34/34 26/26/26 35/35/35
f 35/35/35 26/26/26 27/27/27
f 38/38/38 37/37/37 36/36/36
f 37/37/37 39/39/39 36/36/36
f 39/39/39 40/40/40 36/36/36
f 40/40/40 41/41/41 36/36/36
f 41/41/41 42/42/42 36/36/36
f 42/42/42 43/43/43 36/36/36
f 43/43/43 44/44/44 36/36/36
f 44/44/44 45/45/45 36/36/36
f 45/45/45 46/46/46 36/36/36
f 46/46/46 38/38/38 36/36/36
