g Body_LOD1
v -2.245984 11.28818 0.6390853
v 4.311457 11.28818 0.6390853
v 4.311457 8.990538 0.6390853
v -2.245984 8.990538 0.6390853
v -7.46347 10.13936 0.6390853
v -2.245984 7.750172 0.6390853
v -2.245984 12.52853 0.6390853
v 4.311457 8.990538 0.6390853
v 4.703889 8.620988 0.6390853
v -1.90475 8.620988 0.6390853
v -2.245984 8.990538 0.6390853
v 4.311457 11.28818 0.6390853
v 4.703889 11.65773 0.6390853
v -2.245984 11.28818 0.6390853
v -1.90475 11.65773 0.6390853
v -2.245984 12.52853 0.6390853
v -1.90475 13.074 0.6395087
v -1.90475 7.204695 0.6395087
v -2.245984 7.750172 0.6390853
v -8.154388 10.13936 0.6390853
v -7.46347 10.13936 0.6390853
v -1.90475 13.074 0.6395087
v -2.245984 12.52853 0.6390853
v 4.703889 8.620988 0.6390853
v 4.703889 8.620988 -0.6390877
v -1.90475 8.620988 -0.6390877
v -1.90475 8.620988 0.6390853
v 4.703889 11.65773 0.6390853
v 4.703889 11.65773 -0.6390877
v 4.703889 8.620988 -0.6390877
v 4.703889 8.620988 0.6390853
v -1.90475 13.074 0.6395087
v -1.90475 13.074 -0.6395111
v -1.90475 11.65773 -0.6390877
v -1.90475 11.65773 0.6390853
v -1.90475 7.204695 0.6395087
v -1.90475 7.204695 -0.6395111
v -8.154388 10.13936 -0.6390877
v -8.154388 10.13936 0.6390853
v -2.245984 11.28818 -0.6390877
v -2.245984 8.990538 -0.6390877
v 4.311457 8.990538 -0.6390877
v 4.311457 11.28818 -0.6390877
v -7.46347 10.13936 -0.6390877
v -2.245984 7.750172 -0.6390877
v -2.245984 12.52853 -0.6390877
v 4.311457 8.990538 -0.6390877
v -2.245984 8.990538 -0.6390877
v -1.90475 8.620988 -0.6390877
v 4.703889 8.620988 -0.6390877
v 4.311457 11.28818 -0.6390877
v 4.703889 11.65773 -0.6390877
v -2.245984 11.28818 -0.6390877
v -1.90475 11.65773 -0.6390877
v -2.245984 12.52853 -0.6390877
v -1.90475 13.074 -0.6395111
v -1.90475 7.204695 -0.6395111
v -2.245984 7.750172 -0.6390877
v -8.154388 10.13936 -0.6390877
v -7.46347 10.13936 -0.6390877
v -1.90475 13.074 -0.6395111
v -2.245984 12.52853 -0.6390877
v 4.703889 11.65773 0.6390853
v -1.90475 11.65773 0.6390853
v -1.90475 11.65773 -0.6390877
v 4.703889 11.65773 -0.6390877
v -1.90475 13.074 0.6395087
v -8.154388 10.13936 0.6390853
v -8.154388 10.13936 -0.6390877
v -1.90475 13.074 -0.6395111
v -1.90475 7.204695 0.6395087
v -1.90475 8.620988 0.6390853
v -1.90475 8.620988 -0.6390877
v -1.90475 7.204695 -0.6395111
v -0.1703515 11.9753 -0.2950659
v -0.1703515 2.691519 -0.2950659
v 0.3407063 2.691519 -0.1967111
v 0.3407063 11.9753 -0.1967111
v -0.340704 11.9753 0.1967087
v -0.340704 2.691519 0.1967087
v 0.1703539 11.9753 0.2950635
v 0.1703539 2.691519 0.2950635
v 0.3407063 11.9753 -0.1967111
v 0.3407063 2.691519 -0.1967111
v 1.430511E-06 12.11201 -1.430511E-06
v 0.1703539 11.9753 0.2950635
v -0.340704 11.9753 0.1967087
v -0.1703515 11.9753 -0.2950659
v 0.3407063 11.9753 -0.1967111
v 1.430511E-06 -2.814363 -4.623582
v 1.430511E-06 -2.814363 -1.430511E-06
v 3.274664 -2.814363 -3.267184
v -3.274662 -2.814363 -3.267184
v -4.631078 -2.814363 -1.430511E-06
v -3.274662 -2.814363 3.267181
v 1.430511E-06 -2.814363 4.623579
v 3.274664 -2.814363 3.267181
v 4.63108 -2.814363 -1.430511E-06
v 3.836125 -1.636962 -3.836107
v 1.430511E-06 -1.636962 -5.425099
v 5.425099 -1.636962 -1.430511E-06
v 3.836125 -1.636962 3.836105
v 1.430511E-06 -1.636962 5.425097
v -3.836123 -1.636962 3.836141
v -5.425097 -1.636962 -1.430511E-06
v -3.836123 -1.636962 -3.836125
v 1.430511E-06 5.293222 -1.430511E-06
v 1.430511E-06 5.293222 -1.512568
v 1.069538 5.293222 -1.069556
v -1.069536 5.293222 -1.069556
v -1.512565 5.293222 -1.430511E-06
v -1.069536 5.293222 1.069553
v 1.430511E-06 5.293222 1.512565
v 1.069538 5.293222 1.069553
v 1.512568 5.293222 -1.430511E-06
v 1.430511E-06 1.014986 -5.421183
v 1.430511E-06 -1.636962 -5.425099
v 3.836125 -1.636962 -3.836107
v 3.833355 1.014986 -3.833355
v 5.425099 -1.636962 -1.430511E-06
v 5.4212 1.014986 -1.430511E-06
v 3.836125 -1.636962 3.836105
v 3.833355 1.014986 3.833353
v 1.430511E-06 -1.636962 5.425097
v 1.430511E-06 1.014986 5.421198
v -3.836123 -1.636962 3.836141
v -3.833353 1.014986 3.833353
v -5.425097 -1.636962 -1.430511E-06
v -5.421198 1.014986 -1.430511E-06
v -3.836123 -1.636962 -3.836125
v -3.833353 1.014986 -3.833355
v 1.430511E-06 -1.636962 -5.425099
v 1.430511E-06 1.014986 -5.421183
v 1.430511E-06 1.014986 -5.421183
v 3.833355 1.014986 -3.833355
v 1.069538 5.293222 -1.069556
v 1.430511E-06 5.293222 -1.512568
v 1.512568 5.293222 -1.430511E-06
v 5.4212 1.014986 -1.430511E-06
v 1.069538 5.293222 1.069553
v 3.833355 1.014986 3.833353
v 1.430511E-06 5.293222 1.512565
v 1.430511E-06 1.014986 5.421198
v -1.069536 5.293222 1.069553
v -3.833353 1.014986 3.833353
v -1.512565 5.293222 -1.430511E-06
v -5.421198 1.014986 -1.430511E-06
v -1.069536 5.293222 -1.069556
v -3.833353 1.014986 -3.833355
v 1.430511E-06 5.293222 -1.512568
v 1.430511E-06 1.014986 -5.421183
vt 0.9222061 0.8698174
vt 0.9222061 0.7397718
vt 0.8740802 0.7397718
vt 0.8740802 0.8698174
vt 0.8981432 0.9790781
vt 0.8481064 0.8698174
vt 0.94818 0.8698174
vt 0.3095055 0.7708757
vt 0.3033317 0.7645403
vt 0.3033317 0.869347
vt 0.3095055 0.8748299
vt 0.3479738 0.7708757
vt 0.3541622 0.7645844
vt 0.3479738 0.8748299
vt 0.3541622 0.869347
vt 0.3687294 0.8748299
vt 0.3778724 0.8699644
vt 0.2796216 0.8691266
vt 0.2887499 0.8748299
vt 0.328747 0.9737422
vt 0.328747 0.9621738
vt 0.3778724 0.8699644
vt 0.3687294 0.8748299
vt 0.2584103 0.5367142
vt 0.2584103 0.5367289
vt 0.2583662 0.719516
vt 0.2583662 0.7194278
vt 0.2101081 0.9020385
vt 0.2101081 0.9019944
vt 0.2101228 0.9831645
vt 0.2101228 0.9831057
vt 0.2102551 0.6806213
vt 0.2102551 0.6805184
vt 0.2101669 0.7193984
vt 0.2101669 0.7195013
vt 0.2583515 0.7584841
vt 0.2583515 0.7584988
vt 0.2583515 0.9283504
vt 0.2583515 0.9284974
vt 0.9222061 0.8698174
vt 0.8740802 0.8698174
vt 0.8740802 0.7397718
vt 0.9222061 0.7397718
vt 0.8981432 0.9790781
vt 0.8481064 0.8698174
vt 0.94818 0.8698174
vt 0.3095055 0.7708757
vt 0.3095055 0.8748299
vt 0.3033317 0.869347
vt 0.3033317 0.7645844
vt 0.3479738 0.7708757
vt 0.3541622 0.7645256
vt 0.3479738 0.8748299
vt 0.3541622 0.869347
vt 0.3687294 0.8748299
vt 0.3778724 0.8699497
vt 0.2796216 0.8691118
vt 0.2887499 0.8748299
vt 0.328747 0.9737422
vt 0.328747 0.9621738
vt 0.3778724 0.8699497
vt 0.3687294 0.8748299
vt 0.2101081 0.9020385
vt 0.2101669 0.7195013
vt 0.2101669 0.7193984
vt 0.2101081 0.9019944
vt 0.2102551 0.6806213
vt 0.2102404 0.5129158
vt 0.2102404 0.5106374
vt 0.2102551 0.6805184
vt 0.2583515 0.7584841
vt 0.2583662 0.7194278
vt 0.2583662 0.719516
vt 0.2583515 0.7584988
vt 0.06280533 0.9848697
vt 0.06280533 0.5159733
vt 0.03162789 0.5159733
vt 0.03162789 0.9848697
vt 0.09398277 0.9848697
vt 0.09398277 0.5159733
vt 0.1251749 0.9848697
vt 0.1251749 0.5159733
vt 0.1563524 0.9848697
vt 0.1563524 0.5159733
vt 0.3329951 0.6897497
vt 0.303758 0.6728747
vt 0.3135037 0.7235142
vt 0.3622175 0.7066246
vt 0.3524865 0.6559998
vt 0.6063452 0.9335393
vt 0.6063306 0.7925133
vt 0.5029937 0.8950122
vt 0.7064923 0.8918371
vt 0.7477536 0.7920135
vt 0.7071391 0.6918664
vt 0.6067128 0.6502965
vt 0.5063011 0.6918664
vt 0.4653192 0.7923957
vt 0.4748003 0.9239259
vt 0.6066393 0.9765792
vt 0.4223381 0.7923957
vt 0.476182 0.661762
vt 0.6067274 0.6076829
vt 0.7372581 0.6617473
vt 0.7910874 0.7922927
vt 0.737023 0.922603
vt 0.8883827 0.5345681
vt 0.8883827 0.6315106
vt 0.9542949 0.6042138
vt 0.8224706 0.6042138
vt 0.7951591 0.5383017
vt 0.8224706 0.4723896
vt 0.8883827 0.4450781
vt 0.9542949 0.4723896
vt 0.9815917 0.5383017
vt 0.9530308 0.09242463
vt 0.9530308 0.0215441
vt 0.8398453 0.0215441
vt 0.8398453 0.09242463
vt 0.7266599 0.0215441
vt 0.7266599 0.09242463
vt 0.6134745 0.0215441
vt 0.6134745 0.09242463
vt 0.5002891 0.0215441
vt 0.5002891 0.09242463
vt 0.3870889 0.0215441
vt 0.3870889 0.09242463
vt 0.2739035 0.0215441
vt 0.2739035 0.09242463
vt 0.1607181 0.0215441
vt 0.1607181 0.09242463
vt 0.04753265 0.0215441
vt 0.04753265 0.09242463
vt 0.9530308 0.3869272
vt 0.8398453 0.3869272
vt 0.8398453 0.4116957
vt 0.9530308 0.4116957
vt 0.7266599 0.4116957
vt 0.7266599 0.3869272
vt 0.6134745 0.4116957
vt 0.6134745 0.3869272
vt 0.5002891 0.4116957
vt 0.5002891 0.3869272
vt 0.3870889 0.4116957
vt 0.3870889 0.3869272
vt 0.2739035 0.4116957
vt 0.2739035 0.3869272
vt 0.1607181 0.4116957
vt 0.1607181 0.3869272
vt 0.04753265 0.4116957
vt 0.04753265 0.3869272
vn -0.0009775162 0.0009775162 0.999999
vn -0.0009775162 0.0009775162 0.999999
vn -0.0009775162 0.0009775162 0.999999
vn -0.0009775162 0.0009775162 0.999999
vn -0.0009775162 0.0009775162 0.999999
vn -0.0009775162 0.0009775162 0.999999
vn -0.0009775162 0.0009775162 0.999999
vn -0.0009775162 0.0009775162 0.999999
vn -0.0009775162 0.0009775162 0.999999
vn -0.0009775162 0.0009775162 0.999999
vn -0.0009775162 0.0009775162 0.999999
vn -0.0009775162 0.0009775162 0.999999
vn -0.0009775162 0.0009775162 0.999999
vn -0.0009775162 0.0009775162 0.999999
vn -0.0009775162 0.0009775162 0.999999
vn -0.0009775162 -0.0009775162 0.999999
vn -0.0009775162 -0.0009775162 0.999999
vn -0.0009775162 0.0009775162 0.999999
vn -0.0009775162 0.0009775162 0.999999
vn 0.0009775162 -0.0009775162 0.999999
vn 0.0009775162 -0.0009775162 0.999999
vn 0.0009775162 -0.0009775162 0.999999
vn 0.0009775162 -0.0009775162 0.999999
vn -0.0009775162 -0.9999995 0
vn -0.0009775162 -0.9999995 0
vn -0.0009775162 -0.9999995 0
vn -0.0009775162 -0.9999995 0
vn 0.9999995 0.0009775162 0
vn 0.9999995 0.0009775162 0
vn 0.9999995 0.0009775162 0
vn 0.9999995 0.0009775162 0
vn 0.9999995 0.0009775162 0
vn 0.9999995 0.0009775162 0
vn 0.9999995 0.0009775162 0
vn 0.9999995 0.0009775162 0
vn -0.4252198 -0.9042029 -0.04006585
vn -0.4252198 -0.9042029 -0.04006585
vn -0.4252198 -0.9042029 -0.04006585
vn -0.4252198 -0.9042029 -0.04006585
vn -0.0009775162 0.0009775162 -0.999999
vn -0.0009775162 0.0009775162 -0.999999
vn -0.0009775162 0.0009775162 -0.999999
vn -0.0009775162 0.0009775162 -0.999999
vn -0.0009775162 0.0009775162 -0.999999
vn -0.0009775162 0.0009775162 -0.999999
vn -0.0009775162 0.0009775162 -0.999999
vn -0.0009775162 0.0009775162 -0.999999
vn -0.0009775162 0.0009775162 -0.999999
vn -0.0009775162 0.0009775162 -0.999999
vn -0.0009775162 0.0009775162 -0.999999
vn -0.0009775162 0.0009775162 -0.999999
vn -0.0009775162 0.0009775162 -0.999999
vn -0.0009775162 0.0009775162 -0.999999
vn -0.0009775162 0.0009775162 -0.999999
vn -0.0009775162 -0.0009775162 -0.999999
vn -0.0009775162 -0.0009775162 -0.999999
vn -0.0009775162 0.0009775162 -0.999999
vn -0.0009775162 0.0009775162 -0.999999
vn 0.0009775162 -0.0009775162 -0.999999
vn 0.0009775162 -0.0009775162 -0.999999
vn 0.0009775162 -0.0009775162 -0.999999
vn 0.0009775162 -0.0009775162 -0.999999
vn -0.0009775162 0.9999995 0
vn -0.0009775162 0.9999995 0
vn -0.0009775162 0.9999995 0
vn -0.0009775162 0.9999995 0
vn -0.4252198 0.9042029 -0.04006436
vn -0.4252198 0.9042029 -0.04006436
vn -0.4252198 0.9042029 -0.04006436
vn -0.4252198 0.9042029 -0.04006436
vn 0.9999995 0.0009775162 0
vn 0.9999995 0.0009775162 0
vn 0.9999995 0.0009775162 0
vn 0.9999995 0.0009775162 0
vn -0.499511 0.01075268 -0.8662408
vn -0.499511 0.0009775162 -0.866307
vn 0.8651022 0.0009775162 -0.5015946
vn 0.8651022 0.01075268 -0.5014803
vn -0.8651022 0.01075268 0.5014804
vn -0.8651022 0.0009775162 0.5015947
vn 0.499511 0.01075268 0.8662408
vn 0.499511 0.0009775162 0.866307
vn 0.8651022 0.01075268 -0.5014803
vn 0.8651022 0.0009775162 -0.5015946
vn -0.0009775162 0.9999995 0
vn 0.499511 0.01075268 0.8662408
vn -0.8651022 0.01075268 0.5014804
vn -0.499511 0.01075268 -0.8662408
vn 0.8651022 0.01075268 -0.5014803
vn -0.0009775162 -0.8826975 -0.4699406
vn -0.0009775162 -0.9999995 0
vn 0.3333332 -0.8826975 -0.3312613
vn -0.3333331 -0.8826975 -0.3312614
vn -0.4721406 -0.8807425 -0.03709411
vn -0.3333331 -0.8826975 0.3312614
vn -0.0009775162 -0.8826975 0.4699406
vn 0.3333332 -0.8826975 0.3312613
vn 0.4721406 -0.8807425 -0.03709411
vn 0.5835774 -0.562072 -0.5860993
vn 0.0009775162 -0.562072 -0.8270877
vn 0.8279566 -0.560117 -0.02750892
vn 0.5835774 -0.562072 0.5860993
vn 0.0009775162 -0.562072 0.8270877
vn -0.5835774 -0.562072 0.5860993
vn -0.8279566 -0.560117 -0.02751108
vn -0.5835774 -0.562072 -0.5860993
vn -0.0009775162 0.9999995 0
vn -0.0009775162 0.9999995 0
vn -0.0009775162 0.9999995 0
vn -0.0009775162 0.9999995 0
vn -0.0009775162 0.9999995 0
vn -0.0009775162 0.9999995 0
vn -0.0009775162 0.9999995 0
vn -0.0009775162 0.9999995 0
vn -0.0009775162 0.9999995 0
vn 0.0009775162 0.0009775162 -0.999999
vn 0.0009775162 0.0009775162 -0.999999
vn 0.7067446 0.0009775162 -0.7074682
vn 0.7067446 0.0009775162 -0.7074682
vn 0.9999995 0.0009775162 0
vn 0.9999995 0.0009775162 0
vn 0.7067446 0.0009775162 0.7074682
vn 0.7067446 0.0009775162 0.7074682
vn 0.0009775162 0.0009775162 0.999999
vn 0.0009775162 0.0009775162 0.999999
vn -0.7067446 0.0009775162 0.7074682
vn -0.7067446 0.0009775162 0.7074682
vn -0.9999995 0.0009775162 0
vn -0.9999995 0.0009775162 0
vn -0.7067446 0.0009775162 -0.7074682
vn -0.7067446 0.0009775162 -0.7074682
vn 0.0009775162 0.0009775162 -0.999999
vn 0.0009775162 0.0009775162 -0.999999
vn -0.0009775162 0.675464 -0.7373923
vn 0.5229714 0.675464 -0.5198551
vn 0.5229714 0.675464 -0.5198551
vn -0.0009775162 0.675464 -0.7373923
vn 0.7376812 0.6751493 0
vn 0.7376812 0.6751493 0
vn 0.5229714 0.675464 0.5198551
vn 0.5229714 0.675464 0.5198551
vn -0.0009775162 0.675464 0.7373923
vn -0.0009775162 0.675464 0.7373923
vn -0.5229714 0.675464 0.5198551
vn -0.5229714 0.675464 0.5198551
vn -0.7376812 0.6751493 0
vn -0.7376812 0.6751493 0
vn -0.5229714 0.675464 -0.5198551
vn -0.5229714 0.675464 -0.5198551
vn -0.0009775162 0.675464 -0.7373923
vn -0.0009775162 0.675464 -0.7373923
g Body_LOD1_0
f 3/3/3 2/2/2 1/1/1
f 4/4/4 3/3/3 1/1/1
f 5/5/5 4/4/4 1/1/1
f 5/5/5 6/6/6 4/4/4
f 7/7/7 5/5/5 1/1/1
f 10/10/10 9/9/9 8/8/8
f 11/11/11 10/10/10 8/8/8
f 8/8/8 9/9/9 12/12/12
f 9/9/9 13/13/13 12/12/12
f 12/12/12 13/13/13 14/14/14
f 13/13/13 15/15/15 14/14/14
f 14/14/14 15/15/15 16/16/16
f 15/15/15 17/17/17 16/16/16
f 18/18/18 10/10/10 11/11/11
f 19/19/19 18/18/18 11/11/11
f 20/20/20 18/18/18 19/19/19
f 21/21/21 20/20/20 19/19/19
f 22/22/22 20/20/20 21/21/21
f 23/23/23 22/22/22 21/21/21
f 26/26/26 25/25/25 24/24/24
f 27/27/27 26/26/26 24/24/24
f 30/30/30 29/29/29 28/28/28
f 31/31/31 30/30/30 28/28/28
f 34/34/34 33/33/33 32/32/32
f 35/35/35 34/34/34 32/32/32
f 38/38/38 37/37/37 36/36/36
f 39/39/39 38/38/38 36/36/36
f 42/42/42 41/41/41 40/40/40
f 43/43/43 42/42/42 40/40/40
f 41/41/41 44/44/44 40/40/40
f 45/45/45 44/44/44 41/41/41
f 44/44/44 46/46/46 40/40/40
f 49/49/49 48/48/48 47/47/47
f 50/50/50 49/49/49 47/47/47
f 50/50/50 47/47/47 51/51/51
f 52/52/52 50/50/50 51/51/51
f 52/52/52 51/51/51 53/53/53
f 54/54/54 52/52/52 53/53/53
f 54/54/54 53/53/53 55/55/55
f 56/56/56 54/54/54 55/55/55
f 49/49/49 57/57/57 48/48/48
f 57/57/57 58/58/58 48/48/48
f 57/57/57 59/59/59 58/58/58
f 59/59/59 60/60/60 58/58/58
f 59/59/59 61/61/61 60/60/60
f 61/61/61 62/62/62 60/60/60
f 65/65/65 64/64/64 63/63/63
f 66/66/66 65/65/65 63/63/63
f 69/69/69 68/68/68 67/67/67
f 70/70/70 69/69/69 67/67/67
f 73/73/73 72/72/72 71/71/71
f 74/74/74 73/73/73 71/71/71
f 77/77/77 76/76/76 75/75/75
f 78/78/78 77/77/77 75/75/75
f 75/75/75 76/76/76 79/79/79
f 76/76/76 80/80/80 79/79/79
f 79/79/79 80/80/80 81/81/81
f 80/80/80 82/82/82 81/81/81
f 81/81/81 82/82/82 83/83/83
f 82/82/82 84/84/84 83/83/83
f 87/87/87 86/86/86 85/85/85
f 88/88/88 87/87/87 85/85/85
f 89/89/89 88/88/88 85/85/85
f 86/86/86 89/89/89 85/85/85
f 92/92/92 91/91/91 90/90/90
f 90/90/90 91/91/91 93/93/93
f 93/93/93 91/91/91 94/94/94
f 94/94/94 91/91/91 95/95/95
f 95/95/95 91/91/91 96/96/96
f 96/96/96 91/91/91 97/97/97
f 97/97/97 91/91/91 98/98/98
f 98/98/98 91/91/91 92/92/92
f 92/92/92 90/90/90 99/99/99
f 90/90/90 100/100/100 99/99/99
f 90/90/90 93/93/93 100/100/100
f 92/92/92 99/99/99 101/101/101
f 98/98/98 92/92/92 101/101/101
f 98/98/98 101/101/101 102/102/102
f 97/97/97 98/98/98 102/102/102
f 97/97/97 102/102/102 103/103/103
f 96/96/96 97/97/97 103/103/103
f 96/96/96 103/103/103 104/104/104
f 95/95/95 96/96/96 104/104/104
f 95/95/95 104/104/104 105/105/105
f 94/94/94 95/95/95 105/105/105
f 94/94/94 105/105/105 106/106/106
f 93/93/93 94/94/94 106/106/106
f 93/93/93 106/106/106 100/100/100
f 109/109/109 108/108/108 107/107/107
f 108/108/108 110/110/110 107/107/107
f 110/110/110 111/111/111 107/107/107
f 111/111/111 112/112/112 107/107/107
f 112/112/112 113/113/113 107/107/107
f 113/113/113 114/114/114 107/107/107
f 114/114/114 115/115/115 107/107/107
f 115/115/115 109/109/109 107/107/107
f 118/118/118 117/117/117 116/116/116
f 119/119/119 118/118/118 116/116/116
f 120/120/120 118/118/118 119/119/119
f 121/121/121 120/120/120 119/119/119
f 122/122/122 120/120/120 121/121/121
f 123/123/123 122/122/122 121/121/121
f 124/124/124 122/122/122 123/123/123
f 125/125/125 124/124/124 123/123/123
f 126/126/126 124/124/124 125/125/125
f 127/127/127 126/126/126 125/125/125
f 128/128/128 126/126/126 127/127/127
f 129/129/129 128/128/128 127/127/127
f 130/130/130 128/128/128 129/129/129
f 131/131/131 130/130/130 129/129/129
f 132/132/132 130/130/130 131/131/131
f 133/133/133 132/132/132 131/131/131
f 136/136/136 135/135/135 134/134/134
f 137/137/137 136/136/136 134/134/134
f 136/136/136 138/138/138 135/135/135
f 138/138/138 139/139/139 135/135/135
f 138/138/138 140/140/140 139/139/139
f 140/140/140 141/141/141 139/139/139
f 140/140/140 142/142/142 141/141/141
f 142/142/142 143/143/143 141/141/141
f 142/142/142 144/144/144 143/143/143
f 144/144/144 145/145/145 143/143/143
f 144/144/144 146/146/146 145/145/145
f 146/146/146 147/147/147 145/145/145
f 146/146/146 148/148/148 147/147/147
f 148/148/148 149/149/149 147/147/147
f 148/148/148 150/150/150 149/149/149
f 150/150/150 151/151/151 149/149/149
