g Body_LOD1
v 1.251465 -0.69809 0.4550568
v 1.044553 -0.708937 0.8030602
v 1.450041 -0.5341272 0.8499504
v 1.508535 -0.5334693 0.72903
v 0.4306531 -0.7054225 0.5814713
v 0.7324783 -0.6735815 0.06167996
v 0.3155451 -0.5291017 -0.1961325
v -0.0003470182 -0.5298346 0.3641239
v -0.0003470182 -0.5298346 0.3641239
v -0.0003470182 -0.3928676 0.356437
v 0.5940121 -0.5519491 0.3204056
v 0.4306531 -0.7054225 0.5814713
v 1.324732 -0.5615855 0.7170147
v 1.251465 -0.69809 0.4550568
v 0.7324783 -0.6735815 0.06167996
v 1.044553 -0.708937 0.8030602
v 1.508535 -0.5334693 0.72903
v 1.450041 -0.5341272 0.8499504
v 0.3083328 -0.3651209 0.2204971
v 0.3155451 -0.5291017 -0.1961325
v 0.3109221 -0.6935332 -0.666949
v 0.3155451 -0.5291017 -0.1961325
v -0.0003470182 -0.3513812 -0.3871062
v -0.0003470182 -0.5359446 -0.608596
v 0.2020322 -0.7016736 -1.295447
v -0.0003470182 -0.5573801 -1.45418
v 0.05553377 -0.5324961 -1.640543
v -0.3116193 -0.6935332 -0.666949
v -0.2027262 -0.7016736 -1.295447
v -0.0562309 -0.5324961 -1.640543
v -0.3162422 -0.5291017 -0.1961325
v 0.2030114 0.2894118 0.120138
v 0.1939999 0.3115712 0.01034093
v 0.3155451 -0.5291017 -0.1961325
v 0.2669066 -0.1507592 0.2069798
v 0.04900944 0.651996 0.3112979
v 0.3083328 -0.3651209 0.2204971
v 0.08050489 0.6640865 0.2162406
v 0.08114469 0.8600196 0.5070626
v 0.08130097 0.8950776 0.3996085
v 0.1418768 0.2115276 0.2626624
v -0.0003470182 0.8770484 0.5440162
v -0.0003470182 0.6678654 0.3477017
v -0.0003470182 0.9401594 0.390777
v -0.0003470182 0.6671804 0.1195704
v -0.0003470182 0.2956778 -0.1746008
v -0.0003470182 -0.3513812 -0.3871062
v 0.1470464 0.253846 0.299718
v -0.0003470182 0.2000138 0.3004239
v 0.1754991 -0.05784678 0.2798144
v -0.0003470182 -0.01813865 0.3182218
v -0.0003470182 0.2552819 0.3390416
v 0.1985958 -0.1191165 0.2781503
v -0.0003470182 -0.09242427 0.3529134
v -0.0003470182 -0.3928676 0.356437
v -0.1761962 -0.05784678 0.2798144
v -0.142574 0.2115276 0.2626624
v -0.1477406 0.253846 0.299718
v -0.2037085 0.2894118 0.120138
v -0.2676038 -0.1507592 0.2069798
v -0.3162422 -0.5291017 -0.1961325
v -0.194697 0.3115712 0.01034093
v -0.04970658 0.651996 0.3112979
v -0.362676 -0.400233 0.04768193
v -0.08120203 0.6640865 0.2162406
v -0.0744704 0.8600196 0.4913794
v -0.07247579 0.7791554 0.3022712
v -0.0003470182 0.9401594 0.390777
v -0.08199501 0.8950776 0.3996085
v -0.0003470182 0.6671804 0.1195704
v -0.0003470182 0.2956778 -0.1746008
v -0.0003470182 -0.3513812 -0.3871062
v -0.309027 -0.3651209 0.2204971
v -0.1992899 -0.1191165 0.2781503
v -1.04525 -0.708937 0.8030602
v -1.252162 -0.69809 0.4550568
v -1.509232 -0.5334693 0.72903
v -1.450735 -0.5341272 0.8499504
v -0.7331723 -0.6735815 0.06167996
v -0.4313504 -0.7054225 0.5814713
v -0.3162422 -0.5291017 -0.1961325
v -0.0003470182 -0.5298346 0.3641239
v 0.2020322 -0.7016736 -1.295447
v 0.05553377 -0.5324961 -1.640543
v -0.0562309 -0.5324961 -1.640543
v -0.2027262 -0.7016736 -1.295447
v 0.3109221 -0.6935332 -0.666949
v -0.3116193 -0.6935332 -0.666949
v 0.3155451 -0.5291017 -0.1961325
v -0.3162422 -0.5291017 -0.1961325
v -0.0003470182 -0.5298346 0.3641239
v 0.3155451 -0.5291017 -0.1961325
v -0.3162422 -0.5291017 -0.1961325
v -0.309027 -0.3651209 0.2204971
v -0.5947064 -0.5519491 0.3204056
v -0.362676 -0.400233 0.04768193
v -0.3162422 -0.5291017 -0.1961325
v -0.7331723 -0.6735815 0.06167996
v -0.0003470182 -0.3928676 0.356437
v -0.4313504 -0.7054225 0.5814713
v -0.0003470182 -0.5298346 0.3641239
v -1.325429 -0.5615855 0.7170147
v -1.252162 -0.69809 0.4550568
v -1.04525 -0.708937 0.8030602
v -1.509232 -0.5334693 0.72903
v -1.450735 -0.5341272 0.8499504
vt 0.6238168 0.2432076
vt 0.537129 0.2432076
vt 0.5718527 0.3312321
vt 0.6005309 0.3297587
vt 0.5124912 0.1148543
vt 0.6412091 0.1148543
vt 0.6443685 0.01025782
vt 0.5066584 0.01025782
vt 0.4869573 0.01025782
vt 0.472922 -0.00272941
vt 0.4150643 0.1120594
vt 0.4811092 0.1148543
vt 0.4105074 0.2937286
vt 0.3697837 0.2432076
vt 0.3524066 0.1148543
vt 0.4564715 0.2432076
vt 0.3930847 0.330579
vt 0.4217326 0.3306245
vt 0.4276262 0.03402975
vt 0.3490801 0.01001478
vt 0.1621704 0.1148999
vt 0.1628083 0.01660712
vt 0.1002874 0.05070808
vt 0.09553299 0.107305
vt 0.1388541 0.249481
vt 0.0955178 0.2860882
vt 0.1074569 0.3233942
vt 0.02885005 0.1148999
vt 0.05218149 0.249481
vt 0.08356348 0.3233942
vt 0.02810575 0.01653118
vt 0.6822214 0.6784847
vt 0.723902 0.6822821
vt 0.8099518 0.3116677
vt 0.6511735 0.4672866
vt 0.5446023 0.8553236
vt 0.6514925 0.3626597
vt 0.5949867 0.8522097
vt 0.5296404 0.9579151
vt 0.553625 0.9633682
vt 0.5960956 0.6428951
vt 0.512552 0.9678947
vt 0.5124153 0.8656526
vt 0.5598528 0.9927299
vt 0.6629152 0.8606552
vt 0.8249745 0.6876593
vt 0.9229483 0.4144111
vt 0.5843691 0.6637506
vt 0.5136456 0.6384141
vt 0.6017461 0.5119292
vt 0.5135241 0.5317518
vt 0.5129621 0.6665455
vt 0.6106321 0.4820662
vt 0.5127494 0.4956003
vt 0.5128254 0.349156
vt 0.4239047 0.5118988
vt 0.4311046 0.6431989
vt 0.4419045 0.6637506
vt 0.3442193 0.6788036
vt 0.3775912 0.466922
vt 0.2059624 0.3046956
vt 0.3007919 0.6807327
vt 0.4711144 0.8527261
vt 0.3029336 0.3451003
vt 0.3849126 0.8391769
vt 0.4987749 0.9583555
vt 0.4433627 0.9016675
vt 0.4585525 0.9920616
vt 0.473408 0.9652213
vt 0.342108 0.8486857
vt 0.2005093 0.6885251
vt 0.09866208 0.4166592
vt 0.3710596 0.3626293
vt 0.4154136 0.4820966
vt 0.865607 0.2537189
vt 0.9522948 0.2537189
vt 0.929009 0.3321739
vt 0.9003308 0.3333283
vt 0.9696871 0.1173758
vt 0.8409693 0.1173758
vt 0.9728466 0.01185274
vt 0.8351364 0.01183755
vt 0.2030915 0.249481
vt 0.2344583 0.323379
vt 0.2583973 0.323379
vt 0.2897641 0.249481
vt 0.1797753 0.1148999
vt 0.3130804 0.1148999
vt 0.1787879 0.01633371
vt 0.3140677 0.01633371
vt 0.06445479 0.8811309
vt 0.1230264 0.9850135
vt 0.005883171 0.9850135
vt 0.7328943 0.03118927
vt 0.7441043 0.1159632
vt 0.7651117 0.03693099
vt 0.8101189 0.01170084
vt 0.806762 0.1173758
vt 0.6882061 0.0007946091
vt 0.6780593 0.1173758
vt 0.6722113 0.01183755
vt 0.7486612 0.2972679
vt 0.7893849 0.2537189
vt 0.7026971 0.2537189
vt 0.7660839 0.332827
vt 0.7374361 0.332827
vn 0.07982735 -0.9968087 0
vn 0.07012355 -0.9975383 0
vn 0.3728173 -0.9078807 0.1917288
vn 0.3728173 -0.9078807 0.1917288
vn -0.1388125 -0.9840393 -0.111345
vn -0.1368598 -0.9840393 -0.1137368
vn -0.1134263 -0.9918504 0.05802745
vn -0.0001647472 -0.9879448 -0.1548063
vn -0.0001647472 0.654348 0.7561935
vn -0.0001647472 0.5332752 0.8459418
vn 0.193161 0.9765576 0.09499487
vn -0.1056151 0.7988541 0.5921803
vn -0.04703164 0.9980383 0.04132256
vn 0.2673669 0.8769656 -0.3993072
vn 0.3864868 0.8613433 -0.3297206
vn -0.2130184 0.8574377 0.4684269
vn -0.1251431 0.9492186 -0.2886577
vn -0.3028466 0.9492186 0.08525229
vn 0.6520657 0.7461289 0.1345436
vn 0.6794047 0.5567087 -0.4780007
vn 0.5153707 0.8398627 -0.1703633
vn 0.6794047 0.5567087 -0.4780007
vn -0.0001647472 0.5684254 -0.8227348
vn -0.0001647472 0.9667938 -0.2555579
vn 0.5114651 0.8574377 -0.05660378
vn -0.0001647472 0.9999911 0.00422864
vn 0.2595558 0.9433603 0.2066448
vn -0.5157002 0.8398627 -0.1693632
vn -0.5117947 0.8574377 -0.05354199
vn -0.2598853 0.9433603 0.2062302
vn -0.6875454 0.5196058 -0.5072387
vn 0.9801337 0.1856794 0.06972144
vn 0.8121941 0.298941 -0.5009741
vn 0.6794047 0.5567087 -0.4780007
vn 0.9859921 0.1563876 0.05798761
vn 0.9059279 -0.1052857 0.4101336
vn 0.6520657 0.7461289 0.1345436
vn 0.8336748 0.3907219 -0.3902855
vn 0.7750912 -0.1677748 0.6091676
vn 0.9235029 0.3711941 -0.096733
vn 0.5954349 0.0567956 0.8013935
vn -0.01578701 -0.1013801 0.9947225
vn -0.03531492 -0.4782678 0.8775037
vn -0.107568 0.9238324 -0.3673728
vn 0.007646382 0.6465368 -0.7628444
vn -0.0001647472 0.3868164 -0.9221568
vn -0.0001647472 0.5684254 -0.8227348
vn 0.7204132 0.01188147 0.6934434
vn -0.0001647472 -0.04670209 0.9989089
vn 0.4196842 0.1544348 0.8944356
vn -0.0001647472 0.1329542 0.9911222
vn -0.0001647472 -0.1521525 0.988357
vn 0.4333537 0.0567956 0.8994325
vn -0.0001647472 0.09975684 0.9950119
vn -0.0001647472 0.5332752 0.8459418
vn -0.4200137 0.1544348 0.894281
vn -0.5957644 0.0567956 0.8011486
vn -0.7207427 0.01188147 0.6931009
vn -0.9804633 0.1856794 0.0649223
vn -0.9843688 0.1661515 0.05841018
vn -0.6875454 0.5196058 -0.5072387
vn -0.8125236 0.298941 -0.5004395
vn -0.8886824 -0.0759939 0.452182
vn -0.6309146 0.7305067 -0.2613558
vn -0.8261932 0.4122026 -0.3840492
vn -0.7070732 -0.1267663 0.6956851
vn -0.8808712 0.3106577 -0.3571523
vn -0.107568 0.9238324 -0.3673728
vn -0.7070732 0.636773 -0.3075185
vn 0.007646382 0.6465368 -0.7628444
vn -0.0001647472 0.3868164 -0.9221568
vn -0.0001647472 0.5684254 -0.8227348
vn -0.517653 0.5899061 0.6197146
vn -0.4336832 0.0567956 0.8992737
vn -0.07045142 -0.9975152 0
vn -0.08015443 -0.9967824 0
vn -0.3731469 -0.9078807 0.1910866
vn -0.3731469 -0.9078807 0.1910866
vn 0.1365302 -0.9840393 -0.114132
vn 0.138483 -0.9840393 -0.1117546
vn 0.1130968 -0.9918504 0.05866695
vn -0.0001647472 -0.9879448 -0.1548063
vn -0.0001647472 -0.9977088 -0.06765471
vn -0.0001647472 -0.8981167 -0.4397572
vn -0.0001647472 -0.8981167 -0.4397572
vn -0.0001647472 -0.9977088 -0.06765471
vn -0.0001647472 -0.9840393 0.1779512
vn -0.0001647472 -0.9840393 0.1779512
vn -0.1134263 -0.9918504 0.05802745
vn 0.1130968 -0.9918504 0.05866695
vn -0.0001647472 -0.9879448 -0.1548063
vn -0.1134263 -0.9918504 0.05802745
vn 0.1130968 -0.9918504 0.05866695
vn -0.517653 0.5899061 0.6197146
vn -0.162246 0.9785105 0.1272535
vn -0.6309146 0.7305067 -0.2613558
vn -0.6875454 0.5196058 -0.5072387
vn -0.3985331 0.845721 -0.3548625
vn -0.0001647472 0.5332752 0.8459418
vn 0.1052857 0.7988541 0.592239
vn -0.0001647472 0.654348 0.7561935
vn 0.04670209 0.9980383 0.04169447
vn -0.2676964 0.8769656 -0.3990864
vn 0.2126889 0.8574377 0.4685765
vn 0.1267663 0.9492186 -0.2879484
vn 0.3025171 0.9492186 0.0864144
g Body_LOD1_0
f 3/3/3 2/2/2 1/1/1
f 4/4/4 3/3/3 1/1/1
f 2/2/2 5/5/5 1/1/1
f 5/5/5 6/6/6 1/1/1
f 7/7/7 6/6/6 5/5/5
f 8/8/8 7/7/7 5/5/5
f 11/11/11 10/10/10 9/9/9
f 12/12/12 11/11/11 9/9/9
f 13/13/13 11/11/11 12/12/12
f 11/11/11 13/13/13 14/14/14
f 15/15/15 11/11/11 14/14/14
f 16/16/16 13/13/13 12/12/12
f 14/14/14 13/13/13 17/17/17
f 16/16/16 18/18/18 13/13/13
f 17/17/17 13/13/13 18/18/18
f 19/19/19 11/11/11 15/15/15
f 19/19/19 10/10/10 11/11/11
f 20/20/20 19/19/19 15/15/15
f 23/23/23 22/22/22 21/21/21
f 24/24/24 23/23/23 21/21/21
f 24/24/24 21/21/21 25/25/25
f 26/26/26 24/24/24 25/25/25
f 25/25/25 27/27/27 26/26/26
f 24/24/24 26/26/26 28/28/28
f 26/26/26 29/29/29 28/28/28
f 30/30/30 29/29/29 26/26/26
f 30/30/30 26/26/26 27/27/27
f 24/24/24 28/28/28 31/31/31
f 23/23/23 24/24/24 31/31/31
f 34/34/34 33/33/33 32/32/32
f 35/35/35 34/34/34 32/32/32
f 32/32/32 33/33/33 36/36/36
f 37/37/37 34/34/34 35/35/35
f 33/33/33 38/38/38 36/36/36
f 36/36/36 38/38/38 39/39/39
f 38/38/38 40/40/40 39/39/39
f 35/35/35 32/32/32 41/41/41
f 36/36/36 39/39/39 42/42/42
f 43/43/43 36/36/36 42/42/42
f 39/39/39 40/40/40 44/44/44
f 42/42/42 39/39/39 44/44/44
f 40/40/40 38/38/38 45/45/45
f 45/45/45 44/44/44 40/40/40
f 38/38/38 33/33/33 46/46/46
f 45/45/45 38/38/38 46/46/46
f 33/33/33 34/34/34 47/47/47
f 46/46/46 33/33/33 47/47/47
f 48/48/48 36/36/36 43/43/43
f 49/49/49 41/41/41 48/48/48
f 50/50/50 41/41/41 49/49/49
f 35/35/35 41/41/41 50/50/50
f 51/51/51 50/50/50 49/49/49
f 52/52/52 49/49/49 48/48/48
f 52/52/52 48/48/48 43/43/43
f 41/41/41 32/32/32 48/48/48
f 48/48/48 32/32/32 36/36/36
f 53/53/53 50/50/50 51/51/51
f 35/35/35 50/50/50 53/53/53
f 37/37/37 35/35/35 53/53/53
f 54/54/54 53/53/53 51/51/51
f 55/55/55 53/53/53 54/54/54
f 55/55/55 37/37/37 53/53/53
f 56/56/56 51/51/51 49/49/49
f 57/57/57 56/56/56 49/49/49
f 49/49/49 52/52/52 58/58/58
f 57/57/57 49/49/49 58/58/58
f 58/58/58 52/52/52 43/43/43
f 59/59/59 57/57/57 58/58/58
f 59/59/59 60/60/60 57/57/57
f 57/57/57 60/60/60 56/56/56
f 61/61/61 60/60/60 59/59/59
f 62/62/62 61/61/61 59/59/59
f 62/62/62 59/59/59 63/63/63
f 59/59/59 58/58/58 63/63/63
f 63/63/63 58/58/58 43/43/43
f 61/61/61 64/64/64 60/60/60
f 65/65/65 62/62/62 63/63/63
f 65/65/65 63/63/63 66/66/66
f 67/67/67 65/65/65 66/66/66
f 63/63/63 43/43/43 42/42/42
f 66/66/66 63/63/63 42/42/42
f 66/66/66 42/42/42 68/68/68
f 69/69/69 66/66/66 68/68/68
f 69/69/69 68/68/68 67/67/67
f 69/69/69 67/67/67 66/66/66
f 65/65/65 67/67/67 70/70/70
f 68/68/68 70/70/70 67/67/67
f 65/65/65 70/70/70 71/71/71
f 62/62/62 65/65/65 71/71/71
f 62/62/62 71/71/71 72/72/72
f 61/61/61 62/62/62 72/72/72
f 73/73/73 60/60/60 64/64/64
f 74/74/74 60/60/60 73/73/73
f 56/56/56 60/60/60 74/74/74
f 56/56/56 74/74/74 51/51/51
f 74/74/74 54/54/54 51/51/51
f 74/74/74 55/55/55 54/54/54
f 73/73/73 55/55/55 74/74/74
f 77/77/77 76/76/76 75/75/75
f 78/78/78 77/77/77 75/75/75
f 76/76/76 79/79/79 75/75/75
f 79/79/79 80/80/80 75/75/75
f 79/79/79 81/81/81 80/80/80
f 81/81/81 82/82/82 80/80/80
f 85/85/85 84/84/84 83/83/83
f 86/86/86 85/85/85 83/83/83
f 86/86/86 83/83/83 87/87/87
f 88/88/88 86/86/86 87/87/87
f 88/88/88 87/87/87 89/89/89
f 90/90/90 88/88/88 89/89/89
f 93/93/93 92/92/92 91/91/91
f 96/96/96 95/95/95 94/94/94
f 95/95/95 96/96/96 97/97/97
f 98/98/98 95/95/95 97/97/97
f 95/95/95 99/99/99 94/94/94
f 99/99/99 95/95/95 100/100/100
f 101/101/101 99/99/99 100/100/100
f 102/102/102 95/95/95 98/98/98
f 103/103/103 102/102/102 98/98/98
f 95/95/95 102/102/102 104/104/104
f 100/100/100 95/95/95 104/104/104
f 102/102/102 103/103/103 105/105/105
f 106/106/106 104/104/104 102/102/102
f 106/106/106 102/102/102 105/105/105
