g Body_LOD1
v 11.70846 28.26669 -0.9044075
v 10.58753 25.56058 -0.2543983
v 19.56323 19.56323 -0.2543983
v 21.63439 21.63439 -0.9044075
v 22.07952 22.07952 0.02528191
v 11.94936 28.84826 0.02528191
v 11.70846 28.26669 0.9044056
v 21.63439 21.63439 0.9044056
v 10.58753 25.56058 0.2543983
v 19.56323 19.56323 0.2543983
v 21.63439 21.63439 -0.9044075
v 19.56323 19.56323 -0.2543983
v 25.56059 10.58753 -0.2543983
v 28.26669 11.70846 -0.9044075
v 28.84827 11.94937 0.02528191
v 22.07952 22.07952 0.02528191
v 28.26669 11.70846 0.9044056
v 21.63439 21.63439 0.9044056
v 19.56323 19.56323 0.2543983
v 25.56059 10.58753 0.2543983
v 28.26669 11.70846 -0.9044075
v 25.56059 10.58753 -0.2543983
v 27.66653 -3.051758E-05 -0.2543983
v 30.59568 -3.051758E-05 -0.9044075
v 31.22514 -3.051758E-05 0.02528191
v 28.84827 11.94937 0.02528191
v 30.59568 -3.051758E-05 0.9044056
v 28.26669 11.70846 0.9044056
v 25.56059 10.58753 0.2543983
v 27.66653 -3.051758E-05 0.2543983
v 30.59568 -3.051758E-05 -0.9044075
v 27.66653 -3.051758E-05 -0.2543983
v 25.56059 -10.58753 -0.2543983
v 28.26669 -11.70846 -0.9044075
v 28.84827 -11.94936 0.02528191
v 31.22514 -3.051758E-05 0.02528191
v 28.26669 -11.70846 0.9044056
v 30.59568 -3.051758E-05 0.9044056
v 27.66653 -3.051758E-05 0.2543983
v 25.56059 -10.58753 0.2543983
v 28.26669 -11.70846 -0.9044075
v 25.56059 -10.58753 -0.2543983
v 19.56323 -19.56323 -0.2543983
v 21.63439 -21.63439 -0.9044075
v 22.07952 -22.07952 0.02528191
v 28.84827 -11.94936 0.02528191
v 21.63439 -21.63439 0.9044056
v 28.26669 -11.70846 0.9044056
v 25.56059 -10.58753 0.2543983
v 19.56323 -19.56323 0.2543983
v 21.63439 -21.63439 -0.9044075
v 19.56323 -19.56323 -0.2543983
v 10.58753 -25.56059 -0.2543983
v 11.70846 -28.26669 -0.9044075
v 11.94936 -28.84827 0.02528191
v 22.07952 -22.07952 0.02528191
v 11.70846 -28.26669 0.9044056
v 21.63439 -21.63439 0.9044056
v 19.56323 -19.56323 0.2543983
v 10.58753 -25.56059 0.2543983
v 11.70846 -28.26669 -0.9044075
v 10.58753 -25.56059 -0.2543983
v -2.861023E-05 -27.66653 -0.2543983
v -2.861023E-05 -30.59568 -0.9044075
v -2.861023E-05 -31.22514 0.02528191
v 11.94936 -28.84827 0.02528191
v -2.861023E-05 -30.59568 0.9044056
v 11.70846 -28.26669 0.9044056
v 10.58753 -25.56059 0.2543983
v -2.861023E-05 -27.66653 0.2543983
v -2.861023E-05 -30.59568 -0.9044075
v -2.861023E-05 -27.66653 -0.2543983
v -10.58753 -25.56059 -0.2543983
v -11.70846 -28.26669 -0.9044075
v -11.94937 -28.84827 0.02528191
v -2.861023E-05 -31.22514 0.02528191
v -11.70846 -28.26669 0.9044056
v -2.861023E-05 -30.59568 0.9044056
v -2.861023E-05 -27.66653 0.2543983
v -10.58753 -25.56059 0.2543983
v -11.70846 -28.26669 -0.9044075
v -10.58753 -25.56059 -0.2543983
v -19.56323 -19.56323 -0.2543983
v -21.63439 -21.63439 -0.9044075
v -22.07952 -22.07952 0.02528191
v -11.94937 -28.84827 0.02528191
v -21.63439 -21.63439 0.9044056
v -11.70846 -28.26669 0.9044056
v -10.58753 -25.56059 0.2543983
v -19.56323 -19.56323 0.2543983
v -21.63439 -21.63439 -0.9044075
v -19.56323 -19.56323 -0.2543983
v -25.56058 -10.58753 -0.2543983
v -28.26669 -11.70846 -0.9044075
v -28.84826 -11.94936 0.02528191
v -22.07952 -22.07952 0.02528191
v -28.26669 -11.70846 0.9044056
v -21.63439 -21.63439 0.9044056
v -19.56323 -19.56323 0.2543983
v -25.56058 -10.58753 0.2543983
v -28.26669 -11.70846 -0.9044075
v -25.56058 -10.58753 -0.2543983
v -27.66653 2.861023E-05 -0.2543983
v -30.59567 2.861023E-05 -0.9044075
v -31.22514 2.861023E-05 0.02528191
v -28.84826 -11.94936 0.02528191
v -30.59567 2.861023E-05 0.9044056
v -28.26669 -11.70846 0.9044056
v -25.56058 -10.58753 0.2543983
v -27.66653 2.861023E-05 0.2543983
v -30.59567 2.861023E-05 -0.9044075
v -27.66653 2.861023E-05 -0.2543983
v -25.56058 10.58753 -0.2543983
v -28.26669 11.70846 -0.9044075
v -28.84826 11.94937 0.02528191
v -31.22514 2.861023E-05 0.02528191
v -28.26669 11.70846 0.9044056
v -30.59567 2.861023E-05 0.9044056
v -27.66653 2.861023E-05 0.2543983
v -25.56058 10.58753 0.2543983
v -28.26669 11.70846 -0.9044075
v -25.56058 10.58753 -0.2543983
v -19.56323 19.56323 -0.2543983
v -21.63439 21.63439 -0.9044075
v -22.07952 22.07952 0.02528191
v -28.84826 11.94937 0.02528191
v -21.63439 21.63439 0.9044056
v -28.26669 11.70846 0.9044056
v -25.56058 10.58753 0.2543983
v -19.56323 19.56323 0.2543983
v -21.63439 21.63439 -0.9044075
v -19.56323 19.56323 -0.2543983
v -10.58753 25.56058 -0.2543983
v -11.70846 28.26669 -0.9044075
v -11.94937 28.84826 0.02528191
v -22.07952 22.07952 0.02528191
v -11.70846 28.26669 0.9044056
v -21.63439 21.63439 0.9044056
v -19.56323 19.56323 0.2543983
v -10.58753 25.56058 0.2543983
v -11.70846 28.26669 -0.9044075
v -10.58753 25.56058 -0.2543983
v 3.051758E-05 27.66653 -0.2543983
v 3.051758E-05 30.59567 -0.9044075
v 3.051758E-05 31.22514 0.02528191
v -11.94937 28.84826 0.02528191
v 3.051758E-05 30.59567 0.9044056
v -11.70846 28.26669 0.9044056
v -10.58753 25.56058 0.2543983
v 3.051758E-05 27.66653 0.2543983
v 3.051758E-05 30.59567 -0.9044075
v 3.051758E-05 27.66653 -0.2543983
v 10.58753 25.56058 -0.2543983
v 11.70846 28.26669 -0.9044075
v 11.94936 28.84826 0.02528191
v 3.051758E-05 31.22514 0.02528191
v 11.70846 28.26669 0.9044056
v 3.051758E-05 30.59567 0.9044056
v 3.051758E-05 27.66653 0.2543983
v 10.58753 25.56058 0.2543983
v -2.861023E-05 2.861023E-05 -0.2543983
v 25.56059 10.58753 -0.2543983
v 19.56323 19.56323 -0.2543983
v 27.66653 -3.051758E-05 -0.2543983
v 25.56059 -10.58753 -0.2543983
v 19.56323 -19.56323 -0.2543983
v 10.58753 -25.56059 -0.2543983
v -2.861023E-05 -27.66653 -0.2543983
v -10.58753 -25.56059 -0.2543983
v -19.56323 -19.56323 -0.2543983
v -25.56058 -10.58753 -0.2543983
v -27.66653 2.861023E-05 -0.2543983
v -25.56058 10.58753 -0.2543983
v -19.56323 19.56323 -0.2543983
v -10.58753 25.56058 -0.2543983
v 3.051758E-05 27.66653 -0.2543983
v 10.58753 25.56058 -0.2543983
v -2.861023E-05 2.861023E-05 0.2543983
v 19.56323 19.56323 0.2543983
v 25.56059 10.58753 0.2543983
v 27.66653 -3.051758E-05 0.2543983
v 25.56059 -10.58753 0.2543983
v 19.56323 -19.56323 0.2543983
v 10.58753 -25.56059 0.2543983
v -2.861023E-05 -27.66653 0.2543983
v -10.58753 -25.56059 0.2543983
v -19.56323 -19.56323 0.2543983
v -25.56058 -10.58753 0.2543983
v -27.66653 2.861023E-05 0.2543983
v -25.56058 10.58753 0.2543983
v -19.56323 19.56323 0.2543983
v -10.58753 25.56058 0.2543983
v 3.051758E-05 27.66653 0.2543983
v 10.58753 25.56058 0.2543983
vt 0.00189934 0.8104218
vt 0.00189934 0.7205876
vt 0.4981079 0.7205876
vt 0.4981079 0.8104218
vt 0.4981079 0.8607131
vt 0.00189934 0.8607131
vt 0.00189934 0.9083894
vt 0.4981079 0.9083894
vt 0.00189934 0.9982236
vt 0.4981079 0.9982236
vt 0.00189934 0.8104218
vt 0.00189934 0.7205876
vt 0.4981079 0.7205876
vt 0.4981079 0.8104218
vt 0.4981079 0.8607131
vt 0.00189934 0.8607131
vt 0.4981079 0.9083894
vt 0.00189934 0.9083894
vt 0.00189934 0.9982236
vt 0.4981079 0.9982236
vt 0.00189934 0.8104218
vt 0.00189934 0.7205876
vt 0.4981079 0.7205876
vt 0.4981079 0.8104218
vt 0.4981079 0.8607131
vt 0.00189934 0.8607131
vt 0.4981079 0.9083894
vt 0.00189934 0.9083894
vt 0.00189934 0.9982236
vt 0.4981079 0.9982236
vt 0.00189934 0.8104218
vt 0.00189934 0.7205876
vt 0.4981079 0.7205876
vt 0.4981079 0.8104218
vt 0.4981079 0.8607131
vt 0.00189934 0.8607131
vt 0.4981079 0.9083894
vt 0.00189934 0.9083894
vt 0.00189934 0.9982236
vt 0.4981079 0.9982236
vt 0.00189934 0.8104218
vt 0.00189934 0.7205876
vt 0.4981079 0.7205876
vt 0.4981079 0.8104218
vt 0.4981079 0.8607131
vt 0.00189934 0.8607131
vt 0.4981079 0.9083894
vt 0.00189934 0.9083894
vt 0.00189934 0.9982236
vt 0.4981079 0.9982236
vt 0.00189934 0.8104218
vt 0.00189934 0.7205876
vt 0.4981079 0.7205876
vt 0.4981079 0.8104218
vt 0.4981079 0.8607131
vt 0.00189934 0.8607131
vt 0.4981079 0.9083894
vt 0.00189934 0.9083894
vt 0.00189934 0.9982236
vt 0.4981079 0.9982236
vt 0.00189934 0.8104218
vt 0.00189934 0.7205876
vt 0.4981079 0.7205876
vt 0.4981079 0.8104218
vt 0.4981079 0.8607131
vt 0.00189934 0.8607131
vt 0.4981079 0.9083894
vt 0.00189934 0.9083894
vt 0.00189934 0.9982236
vt 0.4981079 0.9982236
vt 0.00189934 0.8104218
vt 0.00189934 0.7205876
vt 0.4981079 0.7205876
vt 0.4981079 0.8104218
vt 0.4981079 0.8607131
vt 0.00189934 0.8607131
vt 0.4981079 0.9083894
vt 0.00189934 0.9083894
vt 0.00189934 0.9982236
vt 0.4981079 0.9982236
vt 0.00189934 0.8104218
vt 0.00189934 0.7205876
vt 0.4981079 0.7205876
vt 0.4981079 0.8104218
vt 0.4981079 0.8607131
vt 0.00189934 0.8607131
vt 0.4981079 0.9083894
vt 0.00189934 0.9083894
vt 0.00189934 0.9982236
vt 0.4981079 0.9982236
vt 0.00189934 0.8104218
vt 0.00189934 0.7205876
vt 0.4981079 0.7205876
vt 0.4981079 0.8104218
vt 0.4981079 0.8607131
vt 0.00189934 0.8607131
vt 0.4981079 0.9083894
vt 0.00189934 0.9083894
vt 0.00189934 0.9982236
vt 0.4981079 0.9982236
vt 0.00189934 0.8104218
vt 0.00189934 0.7205876
vt 0.4981079 0.7205876
vt 0.4981079 0.8104218
vt 0.4981079 0.8607131
vt 0.00189934 0.8607131
vt 0.4981079 0.9083894
vt 0.00189934 0.9083894
vt 0.00189934 0.9982236
vt 0.4981079 0.9982236
vt 0.00189934 0.8104218
vt 0.00189934 0.7205876
vt 0.4981079 0.7205876
vt 0.4981079 0.8104218
vt 0.4981079 0.8607131
vt 0.00189934 0.8607131
vt 0.4981079 0.9083894
vt 0.00189934 0.9083894
vt 0.00189934 0.9982236
vt 0.4981079 0.9982236
vt 0.00189934 0.8104218
vt 0.00189934 0.7205876
vt 0.4981079 0.7205876
vt 0.4981079 0.8104218
vt 0.4981079 0.8607131
vt 0.00189934 0.8607131
vt 0.4981079 0.9083894
vt 0.00189934 0.9083894
vt 0.00189934 0.9982236
vt 0.4981079 0.9982236
vt 0.00189934 0.8104218
vt 0.00189934 0.7205876
vt 0.4981079 0.7205876
vt 0.4981079 0.8104218
vt 0.4981079 0.8607131
vt 0.00189934 0.8607131
vt 0.4981079 0.9083894
vt 0.00189934 0.9083894
vt 0.00189934 0.9982236
vt 0.4981079 0.9982236
vt 0.00189934 0.8104218
vt 0.00189934 0.7205876
vt 0.4981079 0.7205876
vt 0.4981079 0.8104218
vt 0.4981079 0.8607131
vt 0.00189934 0.8607131
vt 0.4981079 0.9083894
vt 0.00189934 0.9083894
vt 0.00189934 0.9982236
vt 0.4981079 0.9982236
vt 0.00189934 0.8104218
vt 0.00189934 0.7205876
vt 0.4981079 0.7205876
vt 0.4981079 0.8104218
vt 0.4981079 0.8607131
vt 0.00189934 0.8607131
vt 0.4981079 0.9083894
vt 0.00189934 0.9083894
vt 0.00189934 0.9982236
vt 0.4981079 0.9982236
vt 0.628169 0.3668001
vt 0.9468529 0.4988072
vt 0.8720849 0.6107312
vt 0.9731084 0.3668001
vt 0.9468529 0.2347931
vt 0.8720849 0.1228843
vt 0.7601761 0.04811626
vt 0.628169 0.02186079
vt 0.4961619 0.04811626
vt 0.3842379 0.1228843
vt 0.3094699 0.2347931
vt 0.2832144 0.3668001
vt 0.3094699 0.4988072
vt 0.3842379 0.6107312
vt 0.4961619 0.6854993
vt 0.628169 0.7117547
vt 0.7601761 0.6854993
vt 0.628169 0.3668001
vt 0.8720849 0.6107312
vt 0.9468529 0.4988072
vt 0.9731084 0.3668001
vt 0.9468529 0.2347931
vt 0.8720849 0.1228843
vt 0.7601761 0.04811626
vt 0.628169 0.02186079
vt 0.4961619 0.04811626
vt 0.3842379 0.1228843
vt 0.3094699 0.2347931
vt 0.2832144 0.3668001
vt 0.3094699 0.4988072
vt 0.3842379 0.6107312
vt 0.4961619 0.6854993
vt 0.628169 0.7117547
vt 0.7601761 0.6854993
vn 0.05571842 0.1339198 -0.9894245
vn -0.08308887 -0.2003909 -0.9761863
vn -0.1534702 -0.1534701 -0.9761628
vn 0.1026393 0.1026392 -0.9894091
vn 0.7067446 0.7067446 -0.03200431
vn 0.382209 0.9237533 -0.02441772
vn 0.04985332 0.1202345 0.991493
vn 0.09090906 0.090909 0.9917011
vn -0.08308887 -0.2003909 0.9761863
vn -0.1534702 -0.1534701 0.9761628
vn 0.1026393 0.1026392 -0.9894091
vn -0.1534702 -0.1534701 -0.9761628
vn -0.2003909 -0.08308893 -0.9761863
vn 0.1339198 0.05571842 -0.9894245
vn 0.9237532 0.3822091 -0.02441772
vn 0.7067446 0.7067446 -0.03200431
vn 0.1202345 0.04985332 0.991493
vn 0.09090906 0.090909 0.9917011
vn -0.1534702 -0.1534701 0.9761628
vn -0.2003909 -0.08308893 0.9761863
vn 0.1339198 0.05571842 -0.9894245
vn -0.2003909 -0.08308893 -0.9761863
vn -0.2160312 0.0009775162 -0.976386
vn 0.14565 0.0009775162 -0.9893357
vn 0.9999995 0.0009775162 0
vn 0.9237532 0.3822091 -0.02441772
vn 0.1300097 0.0009775162 0.9915122
vn 0.1202345 0.04985332 0.991493
vn -0.2003909 -0.08308893 0.9761863
vn -0.2160312 0.0009775162 0.976386
vn 0.14565 0.0009775162 -0.9893357
vn -0.2160312 0.0009775162 -0.976386
vn -0.2003909 0.08308887 -0.9761863
vn 0.1339198 -0.05571842 -0.9894245
vn 0.9237532 -0.382209 -0.02441864
vn 0.9999995 0.0009775162 0
vn 0.1202345 -0.04985332 0.991493
vn 0.1300097 0.0009775162 0.9915122
vn -0.2160312 0.0009775162 0.976386
vn -0.2003909 0.08308887 0.9761863
vn 0.1339198 -0.05571842 -0.9894245
vn -0.2003909 0.08308887 -0.9761863
vn -0.1534702 0.1534702 -0.9761628
vn 0.1026393 -0.1026393 -0.9894091
vn 0.7067446 -0.7067446 -0.03200431
vn 0.9237532 -0.382209 -0.02441864
vn 0.09090906 -0.09090906 0.9917011
vn 0.1202345 -0.04985332 0.991493
vn -0.2003909 0.08308887 0.9761863
vn -0.1534702 0.1534702 0.9761628
vn 0.1026393 -0.1026393 -0.9894091
vn -0.1534702 0.1534702 -0.9761628
vn -0.08308887 0.2003909 -0.9761863
vn 0.05571842 -0.1339198 -0.9894245
vn 0.382209 -0.9237532 -0.02441894
vn 0.7067446 -0.7067446 -0.03200431
vn 0.04985332 -0.1202345 0.991493
vn 0.09090906 -0.09090906 0.9917011
vn -0.1534702 0.1534702 0.9761628
vn -0.08308887 0.2003909 0.9761863
vn 0.05571842 -0.1339198 -0.9894245
vn -0.08308887 0.2003909 -0.9761863
vn -0.0009775162 0.2160312 -0.976386
vn -0.0009775162 -0.14565 -0.9893357
vn -0.0009775162 -0.9999995 0
vn 0.382209 -0.9237532 -0.02441894
vn -0.0009775162 -0.1300097 0.9915122
vn 0.04985332 -0.1202345 0.991493
vn -0.08308887 0.2003909 0.9761863
vn -0.0009775162 0.2160312 0.976386
vn -0.0009775162 -0.14565 -0.9893357
vn -0.0009775162 0.2160312 -0.976386
vn 0.08308893 0.2003909 -0.9761863
vn -0.05571842 -0.1339198 -0.9894245
vn -0.3822091 -0.9237532 -0.02441772
vn -0.0009775162 -0.9999995 0
vn -0.04985332 -0.1202345 0.991493
vn -0.0009775162 -0.1300097 0.9915122
vn -0.0009775162 0.2160312 0.976386
vn 0.08308893 0.2003909 0.9761863
vn -0.05571842 -0.1339198 -0.9894245
vn 0.08308893 0.2003909 -0.9761863
vn 0.1534701 0.1534702 -0.9761628
vn -0.1026392 -0.1026393 -0.9894091
vn -0.7067446 -0.7067446 -0.03200431
vn -0.3822091 -0.9237532 -0.02441772
vn -0.090909 -0.09090906 0.9917011
vn -0.04985332 -0.1202345 0.991493
vn 0.08308893 0.2003909 0.9761863
vn 0.1534701 0.1534702 0.9761628
vn -0.1026392 -0.1026393 -0.9894091
vn 0.1534701 0.1534702 -0.9761628
vn 0.2003909 0.08308887 -0.9761863
vn -0.1339198 -0.05571842 -0.9894245
vn -0.9237533 -0.382209 -0.02441742
vn -0.7067446 -0.7067446 -0.03200431
vn -0.1202345 -0.04985332 0.991493
vn -0.090909 -0.09090906 0.9917011
vn 0.1534701 0.1534702 0.9761628
vn 0.2003909 0.08308887 0.9761863
vn -0.1339198 -0.05571842 -0.9894245
vn 0.2003909 0.08308887 -0.9761863
vn 0.2160312 0.0009775162 -0.976386
vn -0.14565 0.0009775162 -0.9893357
vn -0.9999995 0.0009775162 0
vn -0.9237533 -0.382209 -0.02441742
vn -0.1300098 0.0009775162 0.9915122
vn -0.1202345 -0.04985332 0.991493
vn 0.2003909 0.08308887 0.9761863
vn 0.2160312 0.0009775162 0.976386
vn -0.14565 0.0009775162 -0.9893357
vn 0.2160312 0.0009775162 -0.976386
vn 0.2003909 -0.08308893 -0.9761863
vn -0.1339198 0.05571842 -0.9894245
vn -0.9237533 0.3822091 -0.0244165
vn -0.9999995 0.0009775162 0
vn -0.1202345 0.04985332 0.991493
vn -0.1300098 0.0009775162 0.9915122
vn 0.2160312 0.0009775162 0.976386
vn 0.2003909 -0.08308893 0.9761863
vn -0.1339198 0.05571842 -0.9894245
vn 0.2003909 -0.08308893 -0.9761863
vn 0.1534701 -0.1534701 -0.9761628
vn -0.1026392 0.1026392 -0.9894091
vn -0.7067446 0.7067446 -0.03200431
vn -0.9237533 0.3822091 -0.0244165
vn -0.090909 0.090909 0.9917011
vn -0.1202345 0.04985332 0.991493
vn 0.2003909 -0.08308893 0.9761863
vn 0.1534701 -0.1534701 0.9761628
vn -0.1026392 0.1026392 -0.9894091
vn 0.1534701 -0.1534701 -0.9761628
vn 0.08308893 -0.2003909 -0.9761863
vn -0.05571842 0.1339198 -0.9894245
vn -0.3822091 0.9237533 -0.0244165
vn -0.7067446 0.7067446 -0.03200431
vn -0.04985332 0.1202345 0.991493
vn -0.090909 0.090909 0.9917011
vn 0.1534701 -0.1534701 0.9761628
vn 0.08308893 -0.2003909 0.9761863
vn -0.05571842 0.1339198 -0.9894245
vn 0.08308893 -0.2003909 -0.9761863
vn -0.0009775162 -0.2160312 -0.976386
vn -0.0009775162 0.14565 -0.9893357
vn -0.0009775162 0.9999995 0
vn -0.3822091 0.9237533 -0.0244165
vn -0.0009775162 0.1300098 0.9915122
vn -0.04985332 0.1202345 0.991493
vn 0.08308893 -0.2003909 0.9761863
vn -0.0009775162 -0.2160312 0.976386
vn -0.0009775162 0.14565 -0.9893357
vn -0.0009775162 -0.2160312 -0.976386
vn -0.08308887 -0.2003909 -0.9761863
vn 0.05571842 0.1339198 -0.9894245
vn 0.382209 0.9237533 -0.02441772
vn -0.0009775162 0.9999995 0
vn 0.04985332 0.1202345 0.991493
vn -0.0009775162 0.1300098 0.9915122
vn -0.0009775162 -0.2160312 0.976386
vn -0.08308887 -0.2003909 0.9761863
vn -0.0009775162 0.0009775162 -0.999999
vn -0.0009775162 0.0009775162 -0.999999
vn -0.0009775162 0.0009775162 -0.999999
vn -0.0009775162 0.0009775162 -0.999999
vn -0.0009775162 0.0009775162 -0.999999
vn -0.0009775162 0.0009775162 -0.999999
vn -0.0009775162 0.0009775162 -0.999999
vn -0.0009775162 0.0009775162 -0.999999
vn -0.0009775162 0.0009775162 -0.999999
vn -0.0009775162 0.0009775162 -0.999999
vn -0.0009775162 0.0009775162 -0.999999
vn -0.0009775162 0.0009775162 -0.999999
vn -0.0009775162 0.0009775162 -0.999999
vn -0.0009775162 0.0009775162 -0.999999
vn -0.0009775162 0.0009775162 -0.999999
vn -0.0009775162 0.0009775162 -0.999999
vn -0.0009775162 0.0009775162 -0.999999
vn -0.0009775162 0.0009775162 0.999999
vn -0.0009775162 0.0009775162 0.999999
vn -0.0009775162 0.0009775162 0.999999
vn -0.0009775162 0.0009775162 0.999999
vn -0.0009775162 0.0009775162 0.999999
vn -0.0009775162 0.0009775162 0.999999
vn -0.0009775162 0.0009775162 0.999999
vn -0.0009775162 0.0009775162 0.999999
vn -0.0009775162 0.0009775162 0.999999
vn -0.0009775162 0.0009775162 0.999999
vn -0.0009775162 0.0009775162 0.999999
vn -0.0009775162 0.0009775162 0.999999
vn -0.0009775162 0.0009775162 0.999999
vn -0.0009775162 0.0009775162 0.999999
vn -0.0009775162 0.0009775162 0.999999
vn -0.0009775162 0.0009775162 0.999999
vn -0.0009775162 0.0009775162 0.999999
g Body_LOD1_0
f 3/3/3 2/2/2 1/1/1
f 4/4/4 3/3/3 1/1/1
f 5/5/5 4/4/4 1/1/1
f 6/6/6 5/5/5 1/1/1
f 5/5/5 6/6/6 7/7/7
f 8/8/8 5/5/5 7/7/7
f 7/7/7 9/9/9 8/8/8
f 9/9/9 10/10/10 8/8/8
f 13/13/13 12/12/12 11/11/11
f 14/14/14 13/13/13 11/11/11
f 15/15/15 14/14/14 11/11/11
f 16/16/16 15/15/15 11/11/11
f 17/17/17 15/15/15 16/16/16
f 18/18/18 17/17/17 16/16/16
f 18/18/18 19/19/19 17/17/17
f 19/19/19 20/20/20 17/17/17
f 23/23/23 22/22/22 21/21/21
f 24/24/24 23/23/23 21/21/21
f 25/25/25 24/24/24 21/21/21
f 26/26/26 25/25/25 21/21/21
f 27/27/27 25/25/25 26/26/26
f 28/28/28 27/27/27 26/26/26
f 28/28/28 29/29/29 27/27/27
f 29/29/29 30/30/30 27/27/27
f 33/33/33 32/32/32 31/31/31
f 34/34/34 33/33/33 31/31/31
f 35/35/35 34/34/34 31/31/31
f 36/36/36 35/35/35 31/31/31
f 37/37/37 35/35/35 36/36/36
f 38/38/38 37/37/37 36/36/36
f 38/38/38 39/39/39 37/37/37
f 39/39/39 40/40/40 37/37/37
f 43/43/43 42/42/42 41/41/41
f 44/44/44 43/43/43 41/41/41
f 45/45/45 44/44/44 41/41/41
f 46/46/46 45/45/45 41/41/41
f 47/47/47 45/45/45 46/46/46
f 48/48/48 47/47/47 46/46/46
f 48/48/48 49/49/49 47/47/47
f 49/49/49 50/50/50 47/47/47
f 53/53/53 52/52/52 51/51/51
f 54/54/54 53/53/53 51/51/51
f 55/55/55 54/54/54 51/51/51
f 56/56/56 55/55/55 51/51/51
f 57/57/57 55/55/55 56/56/56
f 58/58/58 57/57/57 56/56/56
f 58/58/58 59/59/59 57/57/57
f 59/59/59 60/60/60 57/57/57
f 63/63/63 62/62/62 61/61/61
f 64/64/64 63/63/63 61/61/61
f 65/65/65 64/64/64 61/61/61
f 66/66/66 65/65/65 61/61/61
f 67/67/67 65/65/65 66/66/66
f 68/68/68 67/67/67 66/66/66
f 68/68/68 69/69/69 67/67/67
f 69/69/69 70/70/70 67/67/67
f 73/73/73 72/72/72 71/71/71
f 74/74/74 73/73/73 71/71/71
f 75/75/75 74/74/74 71/71/71
f 76/76/76 75/75/75 71/71/71
f 77/77/77 75/75/75 76/76/76
f 78/78/78 77/77/77 76/76/76
f 78/78/78 79/79/79 77/77/77
f 79/79/79 80/80/80 77/77/77
f 83/83/83 82/82/82 81/81/81
f 84/84/84 83/83/83 81/81/81
f 85/85/85 84/84/84 81/81/81
f 86/86/86 85/85/85 81/81/81
f 87/87/87 85/85/85 86/86/86
f 88/88/88 87/87/87 86/86/86
f 88/88/88 89/89/89 87/87/87
f 89/89/89 90/90/90 87/87/87
f 93/93/93 92/92/92 91/91/91
f 94/94/94 93/93/93 91/91/91
f 95/95/95 94/94/94 91/91/91
f 96/96/96 95/95/95 91/91/91
f 97/97/97 95/95/95 96/96/96
f 98/98/98 97/97/97 96/96/96
f 98/98/98 99/99/99 97/97/97
f 99/99/99 100/100/100 97/97/97
f 103/103/103 102/102/102 101/101/101
f 104/104/104 103/103/103 101/101/101
f 105/105/105 104/104/104 101/101/101
f 106/106/106 105/105/105 101/101/101
f 107/107/107 105/105/105 106/106/106
f 108/108/108 107/107/107 106/106/106
f 108/108/108 109/109/109 107/107/107
f 109/109/109 110/110/110 107/107/107
f 113/113/113 112/112/112 111/111/111
f 114/114/114 113/113/113 111/111/111
f 115/115/115 114/114/114 111/111/111
f 116/116/116 115/115/115 111/111/111
f 117/117/117 115/115/115 116/116/116
f 118/118/118 117/117/117 116/116/116
f 118/118/118 119/119/119 117/117/117
f 119/119/119 120/120/120 117/117/117
f 123/123/123 122/122/122 121/121/121
f 124/124/124 123/123/123 121/121/121
f 125/125/125 124/124/124 121/121/121
f 126/126/126 125/125/125 121/121/121
f 127/127/127 125/125/125 126/126/126
f 128/128/128 127/127/127 126/126/126
f 128/128/128 129/129/129 127/127/127
f 129/129/129 130/130/130 127/127/127
f 133/133/133 132/132/132 131/131/131
f 134/134/134 133/133/133 131/131/131
f 135/135/135 134/134/134 131/131/131
f 136/136/136 135/135/135 131/131/131
f 137/137/137 135/135/135 136/136/136
f 138/138/138 137/137/137 136/136/136
f 138/138/138 139/139/139 137/137/137
f 139/139/139 140/140/140 137/137/137
f 143/143/143 142/142/142 141/141/141
f 144/144/144 143/143/143 141/141/141
f 145/145/145 144/144/144 141/141/141
f 146/146/146 145/145/145 141/141/141
f 147/147/147 145/145/145 146/146/146
f 148/148/148 147/147/147 146/146/146
f 148/148/148 149/149/149 147/147/147
f 149/149/149 150/150/150 147/147/147
f 153/153/153 152/152/152 151/151/151
f 154/154/154 153/153/153 151/151/151
f 155/155/155 154/154/154 151/151/151
f 156/156/156 155/155/155 151/151/151
f 157/157/157 155/155/155 156/156/156
f 158/158/158 157/157/157 156/156/156
f 158/158/158 159/159/159 157/157/157
f 159/159/159 160/160/160 157/157/157
f 163/163/163 162/162/162 161/161/161
f 162/162/162 164/164/164 161/161/161
f 164/164/164 165/165/165 161/161/161
f 165/165/165 166/166/166 161/161/161
f 166/166/166 167/167/167 161/161/161
f 167/167/167 168/168/168 161/161/161
f 168/168/168 169/169/169 161/161/161
f 169/169/169 170/170/170 161/161/161
f 170/170/170 171/171/171 161/161/161
f 171/171/171 172/172/172 161/161/161
f 172/172/172 173/173/173 161/161/161
f 173/173/173 174/174/174 161/161/161
f 174/174/174 175/175/175 161/161/161
f 175/175/175 176/176/176 161/161/161
f 176/176/176 177/177/177 161/161/161
f 177/177/177 163/163/163 161/161/161
f 180/180/180 179/179/179 178/178/178
f 181/181/181 180/180/180 178/178/178
f 182/182/182 181/181/181 178/178/178
f 183/183/183 182/182/182 178/178/178
f 184/184/184 183/183/183 178/178/178
f 185/185/185 184/184/184 178/178/178
f 186/186/186 185/185/185 178/178/178
f 187/187/187 186/186/186 178/178/178
f 188/188/188 187/187/187 178/178/178
f 189/189/189 188/188/188 178/178/178
f 190/190/190 189/189/189 178/178/178
f 191/191/191 190/190/190 178/178/178
f 192/192/192 191/191/191 178/178/178
f 193/193/193 192/192/192 178/178/178
f 194/194/194 193/193/193 178/178/178
f 179/179/179 194/194/194 178/178/178
