g Body_LOD0
v -0.05356321 -0.2912484 -0.04739755
v -0.05356321 -0.2912484 0.04739764
v -0.06928176 -0.3624421 0.02006692
v -0.06928176 -0.3624421 -0.02006686
v -0.03784463 -0.2200548 -0.07056028
v -0.03784463 -0.2200548 0.07056034
v -0.02212608 -0.1488611 -0.08859447
v -0.02212608 -0.1488611 0.08859453
v -0.07425243 -0.103302 -0.09608993
v -0.07425243 -0.103302 0.09608999
v -0.1263796 -0.05774218 -0.09753582
v -0.1263796 -0.05774218 0.09753588
v -0.1785067 -0.01218313 -0.09608993
v -0.1785067 -0.01218313 0.09608999
v -0.2306331 0.03337672 -0.08864263
v -0.2306331 0.03337672 0.08864269
v -0.1517245 0.1334409 -0.07074812
v -0.1517245 0.1334409 0.07074818
v -0.07281679 0.2335059 -0.04767695
v -0.07281679 0.2335059 0.04767701
v 0.006091744 0.3335709 -0.02039915
v 0.006091744 0.3335709 0.02039841
v 0.06396458 0.4069602 -3.576279E-07
v 0.05356315 0.2912485 -0.04739755
v 0.05356315 0.2912485 0.04739764
v 0.0692817 0.3624422 0.02006692
v 0.0692817 0.3624422 -0.02006686
v 0.03784457 0.2200548 -0.07056028
v 0.03784457 0.2200548 0.07056034
v 0.02212602 0.1488611 -0.08859447
v 0.02212602 0.1488611 0.08859453
v 0.07425237 0.1033021 -0.09608993
v 0.07425237 0.1033021 0.09608999
v 0.1263795 0.05774224 -0.09753582
v 0.1263795 0.05774224 0.09753588
v 0.1785066 0.01218319 -0.09608993
v 0.1785066 0.01218319 0.09608999
v 0.230633 -0.03337666 -0.08864263
v 0.230633 -0.03337666 0.08864269
v 0.1517245 -0.1334409 -0.07074812
v 0.1517245 -0.1334409 0.07074818
v 0.07281673 -0.2335058 -0.04767695
v 0.07281673 -0.2335058 0.04767701
v -0.006091803 -0.3335708 -0.02039835
v -0.006091803 -0.3335708 0.02039921
v -0.06396464 -0.4069602 4.172325E-07
v 0.1379474 -0.1397358 0.0780834
v -0.0297612 -0.2163619 0.0780834
v -0.01548773 -0.145828 0.09599051
v 0.2226482 -0.03702456 0.09599051
v -0.06702769 -0.1000006 0.1033479
v 0.1712819 0.008881778 0.1033479
v -0.1191517 -0.05443999 0.1047787
v 0.1191516 0.05444005 0.1047787
v -0.171282 -0.008881718 0.1033479
v 0.06702763 0.1000007 0.1033479
v -0.2226483 0.03702462 0.09599051
v 0.01548767 0.1458281 0.09599051
v -0.1379475 0.1397359 0.0780834
v 0.02976114 0.216362 0.0780834
v -0.05932388 0.2396707 0.05505881
v 0.04555154 0.287588 0.05505881
v 0.01942757 0.3396638 0.02780861
v 0.06130955 0.3587998 0.02780861
v 0.0717386 0.4060155 0.009367168
v -0.1263796 -0.05774218 0.09753588
v -0.07425243 -0.103302 0.09608999
v -0.1785067 -0.01218313 0.09608999
v -0.2306331 0.03337672 0.08864269
v -0.1517245 0.1334409 0.07074818
v -0.07281679 0.2335059 0.04767701
v 0.006091744 0.3335709 0.02039841
v 0.06396458 0.4069602 -3.576279E-07
v 0.0692817 0.3624422 0.02006692
v 0.08061838 0.4137903 -3.576279E-07
v 0.05356315 0.2912485 0.04739764
v 0.03784457 0.2200548 0.07056034
v 0.02212602 0.1488611 0.08859453
v 0.07425237 0.1033021 0.09608999
v 0.1263795 0.05774224 0.09753588
v 0.1785066 0.01218319 0.09608999
v 0.230633 -0.03337666 0.08864269
v 0.1517245 -0.1334409 0.07074818
v 0.07281673 -0.2335058 0.04767701
v 0.05932382 -0.2396706 0.05505881
v -0.0455516 -0.2875879 0.05505881
v -0.01942766 -0.3396637 0.02780861
v -0.06130961 -0.3587998 0.02780861
v -0.07173869 -0.4060154 0.009367168
v -0.006091803 -0.3335708 0.02039921
v -0.06396464 -0.4069602 4.172325E-07
v -0.06928176 -0.3624421 0.02006692
v -0.08061844 -0.4137903 4.172325E-07
v -0.05356321 -0.2912484 0.04739764
v -0.03784463 -0.2200548 0.07056034
v -0.02212608 -0.1488611 0.08859453
v -0.0297612 -0.2163619 -0.07808334
v 0.1379474 -0.1397358 -0.07808334
v 0.2226482 -0.03702456 -0.09599048
v -0.01548773 -0.145828 -0.09599048
v 0.1712819 0.008881778 -0.1033478
v -0.06702769 -0.1000006 -0.1033478
v 0.1191516 0.05444005 -0.1047787
v -0.1191517 -0.05443999 -0.1047787
v 0.06702763 0.1000007 -0.1033478
v -0.171282 -0.008881718 -0.1033478
v 0.01548767 0.1458281 -0.09599048
v -0.2226483 0.03702462 -0.09599048
v 0.02976114 0.216362 -0.07808334
v -0.1379475 0.1397359 -0.07808334
v 0.04555154 0.287588 -0.05505875
v -0.05932388 0.2396707 -0.05505875
v 0.06130955 0.3587998 -0.02780855
v 0.01942757 0.3396638 -0.02780855
v 0.0717386 0.4060155 -0.009367108
v -0.02212608 -0.1488611 -0.08859447
v -0.03784463 -0.2200548 -0.07056028
v -0.1785067 -0.01218313 -0.09608993
v -0.2306331 0.03337672 -0.08864263
v -0.1517245 0.1334409 -0.07074812
v -0.07281679 0.2335059 -0.04767695
v 0.08061838 0.4137903 -3.576279E-07
v 0.0692817 0.3624422 -0.02006686
v 0.006091744 0.3335709 -0.02039915
v 0.06396458 0.4069602 -3.576279E-07
v -0.0455516 -0.2875879 -0.05505875
v 0.05932382 -0.2396706 -0.05505875
v -0.06130961 -0.3587998 -0.02780855
v -0.01942766 -0.3396637 -0.02780855
v -0.07173869 -0.4060154 -0.009367108
v -0.08061844 -0.4137903 4.172325E-07
v -0.06928176 -0.3624421 -0.02006686
v -0.006091803 -0.3335708 -0.02039835
v -0.06396464 -0.4069602 4.172325E-07
v -0.05356321 -0.2912484 -0.04739755
v 0.1517245 -0.1334409 -0.07074812
v 0.230633 -0.03337666 -0.08864263
v 0.1785066 0.01218319 -0.09608993
v 0.07281673 -0.2335058 -0.04767695
v 0.1263795 0.05774224 -0.09753582
v 0.07425237 0.1033021 -0.09608993
v 0.02212602 0.1488611 -0.08859447
v 0.03784457 0.2200548 -0.07056028
v 0.05356315 0.2912485 -0.04739755
v -0.08061844 -0.4137903 4.172325E-07
v 0.08061838 0.4137903 -3.576279E-07
v -0.07425243 -0.103302 -0.09608993
v -0.1263796 -0.05774218 -0.09753582
vt 0.1213854 0.886049
vt 0.04948654 0.886049
vt 0.07020594 0.9413456
vt 0.1006511 0.9413456
vt 0.1389574 0.8307377
vt 0.03191458 0.8307377
vt 0.152636 0.7754412
vt 0.0182359 0.7754412
vt 0.1583193 0.7229192
vt 0.01255261 0.7229192
vt 0.1594232 0.6704122
vt 0.01144877 0.6704122
vt 0.1583193 0.6178902
vt 0.0125377 0.6178902
vt 0.1526808 0.5653832
vt 0.01819115 0.5653832
vt 0.1391065 0.4687076
vt 0.03176542 0.4687076
vt 0.1215942 0.3720469
vt 0.04926279 0.3720469
vt 0.1009047 0.2753862
vt 0.06996727 0.2753862
vt 0.08543597 0.2044867
vt 0.2063663 0.2996707
vt 0.2782651 0.2996707
vt 0.2575308 0.2443742
vt 0.2270856 0.2443742
vt 0.1887943 0.3549821
vt 0.2958371 0.3549821
vt 0.1751007 0.4102786
vt 0.3095157 0.4102786
vt 0.1694174 0.4628005
vt 0.315199 0.4628005
vt 0.1683285 0.5153075
vt 0.3163029 0.5153075
vt 0.1694174 0.5678295
vt 0.315199 0.5678295
vt 0.1750709 0.6203365
vt 0.3095456 0.6203365
vt 0.1886451 0.7170122
vt 0.2959713 0.7170122
vt 0.2061425 0.8136729
vt 0.2784739 0.8136729
vt 0.2268321 0.9103335
vt 0.2577844 0.9103335
vt 0.2423157 0.981233
vt 0.5116231 0.7208309
vt 0.5036427 0.8772482
vt 0.5584916 0.8465196
vt 0.5590733 0.6399671
vt 0.6129527 0.8683429
vt 0.612371 0.6560174
vt 0.6652062 0.8913146
vt 0.6648184 0.6774678
vt 0.7176536 0.912765
vt 0.7170719 0.7004247
vt 0.7709513 0.9288155
vt 0.771533 0.7222629
vt 0.8184015 0.8479367
vt 0.8263968 0.6915194
vt 0.8766813 0.7556764
vt 0.8827524 0.6574644
vt 0.9391527 0.6639085
vt 0.9409577 0.621336
vt 0.9795176 0.5991249
vt 0.6643858 0.9001901
vt 0.6117594 0.8772482
vt 0.7176834 0.9218941
vt 0.7746655 0.9397644
vt 0.8218622 0.8654639
vt 0.8806492 0.773308
vt 0.9430908 0.6798843
vt 0.9890195 0.6044651
vt 0.9428819 0.6106257
vt 0.9860064 0.5873407
vt 0.8843038 0.6471121
vt 0.8276947 0.6816295
vt 0.7726667 0.7131487
vt 0.7182652 0.6915343
vt 0.6656388 0.6685774
vt 0.6123412 0.6468735
vt 0.5553591 0.6290181
vt 0.5081624 0.7033186
vt 0.4493754 0.7954595
vt 0.4533433 0.8131061
vt 0.4472722 0.9113032
vt 0.3908868 0.904874
vt 0.3890818 0.9474465
vt 0.350522 0.9696575
vt 0.3869338 0.8888981
vt 0.34102 0.9643173
vt 0.3871576 0.9581418
vt 0.3440332 0.981427
vt 0.4457357 0.9216554
vt 0.5023299 0.8871529
vt 0.5573728 0.8556188
vt 0.4971389 0.2795629
vt 0.5064023 0.4352492
vt 0.554315 0.5153373
vt 0.5520177 0.3097246
vt 0.6072396 0.4988991
vt 0.6060612 0.2875732
vt 0.6592544 0.4771057
vt 0.6578672 0.2643179
vt 0.7110604 0.4538057
vt 0.7098969 0.2425693
vt 0.7650591 0.4316095
vt 0.7627769 0.2261906
vt 0.8198931 0.4616818
vt 0.8106149 0.3062788
vt 0.8762338 0.4950058
vt 0.8692379 0.3975545
vt 0.9343495 0.5302989
vt 0.9317839 0.488517
vt 0.9758182 0.5547923
vt 0.5508393 0.3006701
vt 0.4957666 0.2697178
vt 0.7098521 0.233485
vt 0.7663867 0.2152716
vt 0.8139265 0.2888113
vt 0.8730714 0.3800124
vt 0.9829931 0.5664274
vt 0.9362291 0.5411434
vt 0.9355429 0.4723025
vt 0.9848727 0.5485272
vt 0.4407088 0.2460896
vt 0.4475854 0.3438691
vt 0.3823543 0.2105429
vt 0.3845471 0.2529812
vt 0.3436752 0.1887197
vt 0.3370819 0.17701
vt 0.3803406 0.1998775
vt 0.3807583 0.2689421
vt 0.3342328 0.1941345
vt 0.4390679 0.2357821
vt 0.5031056 0.4527168
vt 0.55072 0.5262713
vt 0.6072844 0.5079983
vt 0.4437816 0.3614858
vt 0.6601495 0.4859364
vt 0.7123283 0.4626513
vt 0.7662673 0.440664
vt 0.8212804 0.4715119
vt 0.8778299 0.5052388
vt 0.08543597 0.981233
vt 0.2423157 0.2044867
vt 0.6047933 0.2787275
vt 0.6569871 0.2554872
vn -0.975932 0.192451 -0.1025637
vn -0.975932 0.192451 0.1025637
vn -0.975932 0.1768205 0.127637
vn -0.975932 0.1768205 -0.127637
vn -0.975932 0.2002664 -0.08631385
vn -0.975932 0.2002664 0.08631385
vn -0.9134098 -0.4034634 -0.05384989
vn -0.9134098 -0.4034634 0.05384989
vn -0.6534419 -0.7569767 0
vn -0.6534419 -0.7569767 0
vn -0.6535521 -0.749289 -0.1069378
vn -0.6535521 -0.749289 0.1069378
vn -0.6613673 -0.749289 -0.03404865
vn -0.6613673 -0.749289 0.03404865
vn -0.9974239 0.05959141 -0.03993085
vn -0.9974239 0.05959141 -0.03993085
vn -0.7805502 0.622291 -0.05912111
vn -0.7805502 0.622291 0.05912111
vn -0.7727349 0.6301062 -0.07646534
vn -0.7727349 0.6301062 0.07646534
vn -0.7649196 0.6301062 -0.1336566
vn -0.7649196 0.6301062 0.1336566
vn -0.6984898 0.7141204 -0.04630441
vn 0.9759319 -0.192451 -0.1025643
vn 0.9759319 -0.192451 0.1025643
vn 0.9759319 -0.1768205 0.1276376
vn 0.9759319 -0.1768205 -0.1276376
vn 0.9759319 -0.2002663 -0.08631469
vn 0.9759319 -0.2002663 0.08631469
vn 0.9134098 0.4034634 -0.053851
vn 0.9134098 0.4034634 0.053851
vn 0.6534417 0.7569767 0
vn 0.6534417 0.7569767 0
vn 0.653552 0.7492892 -0.1069372
vn 0.653552 0.7492892 0.1069372
vn 0.6613673 0.7492892 -0.03404602
vn 0.6613673 0.7492892 0.03404602
vn 0.9974239 -0.05959141 -0.03993085
vn 0.9974239 -0.05959141 -0.03993085
vn 0.7805501 -0.6222909 -0.05912313
vn 0.7805501 -0.6222909 0.05912313
vn 0.7727349 -0.6301062 -0.07646534
vn 0.7727349 -0.6301062 0.07646534
vn 0.7649196 -0.6301062 -0.1336566
vn 0.7649196 -0.6301062 0.1336566
vn 0.6984898 -0.7141204 -0.04630441
vn 0.1768205 -0.3096801 0.9342552
vn 0.0986678 -0.3018648 0.9482311
vn 0.06740671 -0.192451 0.9789888
vn 0.1455594 -0.1690052 0.9748075
vn 0.004884541 -0.07522196 0.9971549
vn 0.05177617 -0.05177617 0.9973156
vn -0.02051508 -0.02051508 0.9995791
vn 0.02051508 0.02051508 0.9995791
vn -0.05177617 0.05177617 0.9973156
vn -0.004884601 0.07522202 0.9971549
vn -0.1455594 0.1690053 0.9748075
vn -0.06740677 0.192451 0.9789888
vn -0.1768205 0.3096801 0.9342552
vn -0.09866786 0.3018649 0.9482311
vn -0.2237121 0.3878329 0.8941692
vn -0.0908525 0.3487564 0.9327995
vn -0.2706038 0.4425397 0.8549458
vn 0.004884541 0.3565718 0.9342552
vn -0.0908525 0.536323 0.8391088
vn -0.6535521 -0.749289 0.1069378
vn -0.6534419 -0.7569767 0
vn -0.6613673 -0.749289 0.03404865
vn -0.9974239 0.05959141 -0.03993085
vn -0.7805502 0.622291 0.05912111
vn -0.7727349 0.6301062 0.07646534
vn -0.7649196 0.6301062 0.1336566
vn -0.6984898 0.7141204 -0.04630441
vn 0.9759319 -0.1768205 0.1276376
vn 0.9993466 0.03614456 0
vn 0.9759319 -0.192451 0.1025643
vn 0.9759319 -0.2002663 0.08631469
vn 0.9134098 0.4034634 0.053851
vn 0.6534417 0.7569767 0
vn 0.653552 0.7492892 0.1069372
vn 0.6613673 0.7492892 0.03404602
vn 0.9974239 -0.05959141 -0.03993085
vn 0.7805501 -0.6222909 0.05912313
vn 0.7727349 -0.6301062 0.07646534
vn 0.2237121 -0.3878328 0.8941692
vn 0.0908525 -0.3487564 0.9327995
vn 0.2706037 -0.4425397 0.8549458
vn -0.004884601 -0.3565717 0.9342552
vn 0.0908525 -0.536323 0.8391088
vn 0.7649196 -0.6301062 0.1336566
vn 0.6984898 -0.7141204 -0.04630441
vn -0.975932 0.1768205 0.127637
vn -0.9993466 -0.0361445 0
vn -0.975932 0.192451 0.1025637
vn -0.975932 0.2002664 0.08631385
vn -0.9134098 -0.4034634 0.05384989
vn 0.0986678 -0.3018648 -0.9482311
vn 0.1768205 -0.3096801 -0.9342552
vn 0.1455594 -0.1690052 -0.9748075
vn 0.06740671 -0.192451 -0.9789888
vn 0.05177617 -0.05177617 -0.9973156
vn 0.004884541 -0.07522196 -0.9971549
vn 0.02051508 0.02051508 -0.9995791
vn -0.02051508 -0.02051508 -0.9995791
vn -0.004884601 0.07522202 -0.9971549
vn -0.05177617 0.05177617 -0.9973156
vn -0.06740677 0.192451 -0.9789888
vn -0.1455594 0.1690053 -0.9748075
vn -0.09866786 0.3018649 -0.9482311
vn -0.1768205 0.3096801 -0.9342552
vn -0.0908525 0.3487564 -0.9327995
vn -0.2237121 0.3878329 -0.8941692
vn 0.004884541 0.3565718 -0.9342552
vn -0.2706038 0.4425397 -0.8549458
vn -0.0908525 0.536323 -0.8391088
vn -0.9134098 -0.4034634 -0.05384989
vn -0.975932 0.2002664 -0.08631385
vn -0.6613673 -0.749289 -0.03404865
vn -0.9974239 0.05959141 -0.03993085
vn -0.7805502 0.622291 -0.05912111
vn -0.7727349 0.6301062 -0.07646534
vn 0.9993466 0.03614456 0
vn 0.9759319 -0.1768205 -0.1276376
vn -0.7649196 0.6301062 -0.1336566
vn -0.6984898 0.7141204 -0.04630441
vn 0.0908525 -0.3487564 -0.9327995
vn 0.2237121 -0.3878328 -0.8941692
vn -0.004884601 -0.3565717 -0.9342552
vn 0.2706037 -0.4425397 -0.8549458
vn 0.0908525 -0.536323 -0.8391088
vn -0.9993466 -0.0361445 0
vn -0.975932 0.1768205 -0.127637
vn 0.7649196 -0.6301062 -0.1336566
vn 0.6984898 -0.7141204 -0.04630441
vn -0.975932 0.192451 -0.1025637
vn 0.7805501 -0.6222909 -0.05912313
vn 0.9974239 -0.05959141 -0.03993085
vn 0.6613673 0.7492892 -0.03404602
vn 0.7727349 -0.6301062 -0.07646534
vn 0.653552 0.7492892 -0.1069372
vn 0.6534417 0.7569767 0
vn 0.9134098 0.4034634 -0.053851
vn 0.9759319 -0.2002663 -0.08631469
vn 0.9759319 -0.192451 -0.1025643
vn -0.9993466 -0.0361445 0
vn 0.9993466 0.03614456 0
vn -0.6534419 -0.7569767 0
vn -0.6535521 -0.749289 -0.1069378
g Body_LOD0_0
f 3/3/3 2/2/2 1/1/1
f 4/4/4 3/3/3 1/1/1
f 1/1/1 2/2/2 5/5/5
f 2/2/2 6/6/6 5/5/5
f 7/7/7 5/5/5 6/6/6
f 8/8/8 7/7/7 6/6/6
f 7/7/7 8/8/8 9/9/9
f 8/8/8 10/10/10 9/9/9
f 9/9/9 10/10/10 11/11/11
f 10/10/10 12/12/12 11/11/11
f 11/11/11 12/12/12 13/13/13
f 12/12/12 14/14/14 13/13/13
f 13/13/13 14/14/14 15/15/15
f 14/14/14 16/16/16 15/15/15
f 15/15/15 16/16/16 17/17/17
f 16/16/16 18/18/18 17/17/17
f 19/19/19 17/17/17 18/18/18
f 20/20/20 19/19/19 18/18/18
f 21/21/21 19/19/19 20/20/20
f 22/22/22 21/21/21 20/20/20
f 23/23/23 21/21/21 22/22/22
f 26/26/26 25/25/25 24/24/24
f 27/27/27 26/26/26 24/24/24
f 24/24/24 25/25/25 28/28/28
f 25/25/25 29/29/29 28/28/28
f 30/30/30 28/28/28 29/29/29
f 31/31/31 30/30/30 29/29/29
f 30/30/30 31/31/31 32/32/32
f 31/31/31 33/33/33 32/32/32
f 32/32/32 33/33/33 34/34/34
f 33/33/33 35/35/35 34/34/34
f 34/34/34 35/35/35 36/36/36
f 35/35/35 37/37/37 36/36/36
f 36/36/36 37/37/37 38/38/38
f 37/37/37 39/39/39 38/38/38
f 38/38/38 39/39/39 40/40/40
f 39/39/39 41/41/41 40/40/40
f 42/42/42 40/40/40 41/41/41
f 43/43/43 42/42/42 41/41/41
f 44/44/44 42/42/42 43/43/43
f 45/45/45 44/44/44 43/43/43
f 46/46/46 44/44/44 45/45/45
f 49/49/49 48/48/48 47/47/47
f 50/50/50 49/49/49 47/47/47
f 49/49/49 50/50/50 51/51/51
f 50/50/50 52/52/52 51/51/51
f 51/51/51 52/52/52 53/53/53
f 52/52/52 54/54/54 53/53/53
f 53/53/53 54/54/54 55/55/55
f 54/54/54 56/56/56 55/55/55
f 55/55/55 56/56/56 57/57/57
f 56/56/56 58/58/58 57/57/57
f 57/57/57 58/58/58 59/59/59
f 58/58/58 60/60/60 59/59/59
f 59/59/59 60/60/60 61/61/61
f 60/60/60 62/62/62 61/61/61
f 61/61/61 62/62/62 63/63/63
f 62/62/62 64/64/64 63/63/63
f 65/65/65 63/63/63 64/64/64
f 51/51/51 53/53/53 66/66/66
f 67/67/67 51/51/51 66/66/66
f 55/55/55 57/57/57 68/68/68
f 53/53/53 55/55/55 68/68/68
f 66/66/66 53/53/53 68/68/68
f 57/57/57 69/69/69 68/68/68
f 57/57/57 59/59/59 70/70/70
f 69/69/69 57/57/57 70/70/70
f 59/59/59 61/61/61 71/71/71
f 70/70/70 59/59/59 71/71/71
f 63/63/63 65/65/65 72/72/72
f 61/61/61 63/63/63 72/72/72
f 71/71/71 61/61/61 72/72/72
f 65/65/65 73/73/73 72/72/72
f 65/65/65 64/64/64 74/74/74
f 75/75/75 65/65/65 74/74/74
f 75/75/75 73/73/73 65/65/65
f 64/64/64 62/62/62 76/76/76
f 74/74/74 64/64/64 76/76/76
f 76/76/76 62/62/62 77/77/77
f 62/62/62 60/60/60 77/77/77
f 60/60/60 58/58/58 77/77/77
f 58/58/58 78/78/78 77/77/77
f 78/78/78 58/58/58 79/79/79
f 58/58/58 56/56/56 79/79/79
f 79/79/79 56/56/56 80/80/80
f 56/56/56 54/54/54 80/80/80
f 80/80/80 54/54/54 81/81/81
f 54/54/54 52/52/52 81/81/81
f 52/52/52 50/50/50 81/81/81
f 50/50/50 82/82/82 81/81/81
f 82/82/82 50/50/50 83/83/83
f 50/50/50 47/47/47 83/83/83
f 83/83/83 47/47/47 84/84/84
f 47/47/47 85/85/85 84/84/84
f 47/47/47 48/48/48 85/85/85
f 48/48/48 86/86/86 85/85/85
f 85/85/85 86/86/86 87/87/87
f 86/86/86 88/88/88 87/87/87
f 89/89/89 87/87/87 88/88/88
f 87/87/87 89/89/89 90/90/90
f 85/85/85 87/87/87 90/90/90
f 84/84/84 85/85/85 90/90/90
f 89/89/89 91/91/91 90/90/90
f 89/89/89 88/88/88 92/92/92
f 93/93/93 89/89/89 92/92/92
f 93/93/93 91/91/91 89/89/89
f 88/88/88 86/86/86 94/94/94
f 92/92/92 88/88/88 94/94/94
f 86/86/86 48/48/48 95/95/95
f 94/94/94 86/86/86 95/95/95
f 48/48/48 49/49/49 95/95/95
f 49/49/49 96/96/96 95/95/95
f 96/96/96 49/49/49 67/67/67
f 49/49/49 51/51/51 67/67/67
f 99/99/99 98/98/98 97/97/97
f 100/100/100 99/99/99 97/97/97
f 99/99/99 100/100/100 101/101/101
f 100/100/100 102/102/102 101/101/101
f 101/101/101 102/102/102 103/103/103
f 102/102/102 104/104/104 103/103/103
f 103/103/103 104/104/104 105/105/105
f 104/104/104 106/106/106 105/105/105
f 105/105/105 106/106/106 107/107/107
f 106/106/106 108/108/108 107/107/107
f 107/107/107 108/108/108 109/109/109
f 108/108/108 110/110/110 109/109/109
f 109/109/109 110/110/110 111/111/111
f 110/110/110 112/112/112 111/111/111
f 111/111/111 112/112/112 113/113/113
f 112/112/112 114/114/114 113/113/113
f 115/115/115 113/113/113 114/114/114
f 100/100/100 116/116/116 102/102/102
f 116/116/116 100/100/100 117/117/117
f 100/100/100 97/97/97 117/117/117
f 108/108/108 106/106/106 118/118/118
f 119/119/119 108/108/108 118/118/118
f 108/108/108 119/119/119 110/110/110
f 119/119/119 120/120/120 110/110/110
f 110/110/110 120/120/120 112/112/112
f 120/120/120 121/121/121 112/112/112
f 115/115/115 122/122/122 113/113/113
f 122/122/122 123/123/123 113/113/113
f 113/113/113 123/123/123 111/111/111
f 115/115/115 114/114/114 124/124/124
f 112/112/112 121/121/121 124/124/124
f 114/114/114 112/112/112 124/124/124
f 125/125/125 115/115/115 124/124/124
f 122/122/122 115/115/115 125/125/125
f 97/97/97 126/126/126 117/117/117
f 97/97/97 98/98/98 126/126/126
f 98/98/98 127/127/127 126/126/126
f 126/126/126 127/127/127 128/128/128
f 127/127/127 129/129/129 128/128/128
f 130/130/130 128/128/128 129/129/129
f 130/130/130 131/131/131 128/128/128
f 131/131/131 132/132/132 128/128/128
f 128/128/128 132/132/132 126/126/126
f 130/130/130 129/129/129 133/133/133
f 129/129/129 127/127/127 133/133/133
f 134/134/134 130/130/130 133/133/133
f 131/131/131 130/130/130 134/134/134
f 132/132/132 135/135/135 126/126/126
f 98/98/98 136/136/136 127/127/127
f 137/137/137 136/136/136 98/98/98
f 99/99/99 137/137/137 98/98/98
f 137/137/137 99/99/99 138/138/138
f 99/99/99 101/101/101 138/138/138
f 136/136/136 139/139/139 127/127/127
f 127/127/127 139/139/139 133/133/133
f 101/101/101 103/103/103 138/138/138
f 103/103/103 140/140/140 138/138/138
f 141/141/141 140/140/140 103/103/103
f 105/105/105 141/141/141 103/103/103
f 142/142/142 141/141/141 105/105/105
f 107/107/107 142/142/142 105/105/105
f 142/142/142 107/107/107 143/143/143
f 107/107/107 109/109/109 143/143/143
f 109/109/109 111/111/111 143/143/143
f 111/111/111 144/144/144 143/143/143
f 123/123/123 144/144/144 111/111/111
f 145/145/145 3/3/3 4/4/4
f 146/146/146 26/26/26 27/27/27
f 116/116/116 147/147/147 102/102/102
f 102/102/102 147/147/147 104/104/104
f 147/147/147 148/148/148 104/104/104
f 104/104/104 148/148/148 118/118/118
f 106/106/106 104/104/104 118/118/118
f 126/126/126 135/135/135 117/117/117
