g Body_LOD1
v -0.3073525 11.36076 0.3189596
v 1.490116E-06 11.36075 0.06009144
v 0.3073328 11.36073 0.3189596
v 1.490116E-06 11.36075 0.5778276
v -0.2994061 -0.5597778 0.3189596
v 1.490116E-06 -0.5597778 0.06677604
v 1.490116E-06 0.5597748 0.06009144
v -0.3073639 0.5597976 0.3189596
v 1.490116E-06 -0.5597778 0.5711203
v 1.490116E-06 0.5597748 0.5778276
v 0.2994091 -0.5597778 0.3189596
v 0.3073328 0.5597748 0.3189596
v 1.490116E-06 -0.5597778 0.06677604
v 1.490116E-06 0.5597748 0.06009144
v 0.3073328 0.5597748 0.3189596
v 0.3073328 11.36073 0.3189596
v 1.490116E-06 11.36075 0.06009144
v 1.490116E-06 0.5597748 0.06009144
v 1.490116E-06 0.5597748 0.5778276
v 1.490116E-06 11.36075 0.5778276
v -0.3073639 0.5597976 0.3189596
v -0.3073525 11.36076 0.3189596
v 1.490116E-06 0.5597748 0.06009144
v 1.490116E-06 11.36075 0.06009144
vt 0.7546659 0.4884079
vt 0.8119699 0.5343928
vt 0.8670307 0.4857515
vt 0.8097267 0.4397518
vt 0.7181406 0.8442302
vt 0.7473903 0.8445106
vt 0.7473165 0.7197639
vt 0.7179044 0.7329573
vt 0.6742513 0.8438022
vt 0.6748564 0.7326769
vt 0.6303767 0.8433742
vt 0.6314541 0.7322047
vt 0.5864874 0.8429315
vt 0.5891733 0.7179192
vt 0.2145793 0.01642798
vt 0.2145793 0.9835721
vt 0.2552957 0.9835721
vt 0.2552957 0.01642798
vt 0.1738628 0.01642798
vt 0.1738628 0.9835721
vt 0.1331464 0.01642798
vt 0.1331464 0.9835721
vt 0.1061989 0.01642798
vt 0.1061989 0.9835721
vn 0.0009775162 0.9999995 0
vn 0.0009775162 0.9999995 0
vn 0.0009775162 0.9999995 0
vn 0.0009775162 0.9999995 0
vn -0.9999766 -0.006842457 0
vn -0.0009775162 -0.006842613 -0.9999761
vn -0.0009775162 -0.006842613 -0.9999761
vn -0.9999766 -0.006842457 0
vn -0.0009775162 -0.006842613 0.9999761
vn -0.0009775162 -0.006842613 0.9999761
vn 0.9999766 -0.006842457 0
vn 0.9999766 -0.006842457 0
vn -0.0009775162 -0.006842613 -0.9999761
vn -0.0009775162 -0.006842613 -0.9999761
vn 0.9999995 0.0009775162 0
vn 0.9999995 0.0009775162 0
vn -0.0009775162 0.0009775162 -0.999999
vn 0.0009775162 0.0009775162 -0.999999
vn 0.0009775162 0.0009775162 0.999999
vn -0.0009775162 0.0009775162 0.999999
vn -0.9999995 0.0009775162 0
vn -0.9999995 0.0009775162 0
vn 0.0009775162 0.0009775162 -0.999999
vn -0.0009775162 0.0009775162 -0.999999
g Body_LOD1_0
f 3/3/3 2/2/2 1/1/1
f 3/3/3 1/1/1 4/4/4
f 7/7/7 6/6/6 5/5/5
f 8/8/8 7/7/7 5/5/5
f 8/8/8 5/5/5 9/9/9
f 10/10/10 8/8/8 9/9/9
f 10/10/10 9/9/9 11/11/11
f 12/12/12 10/10/10 11/11/11
f 12/12/12 11/11/11 13/13/13
f 14/14/14 12/12/12 13/13/13
f 17/17/17 16/16/16 15/15/15
f 18/18/18 17/17/17 15/15/15
f 15/15/15 16/16/16 19/19/19
f 16/16/16 20/20/20 19/19/19
f 19/19/19 20/20/20 21/21/21
f 20/20/20 22/22/22 21/21/21
f 21/21/21 22/22/22 23/23/23
f 22/22/22 24/24/24 23/23/23
