g Body_LOD1
v 5.960464E-08 -0.3215005 0.4208865
v 0.2104433 -0.3215005 0.3644991
v 0.1606941 -0.4223029 0.27833
v 5.960464E-08 -0.1810675 0.4836044
v -0.2418022 -0.1810459 0.4188137
v 0.2418022 -0.1810675 0.4188137
v 5.960464E-08 -0.004767358 0.4943761
v -0.2468879 -0.004767358 0.4231438
v -0.1612521 -0.4350395 0.2824744
v -0.2115994 -0.324561 0.3696799
v -0.0001878142 -0.4978362 0.1729729
v -0.150055 -0.5113058 0.08856028
v -0.2799515 -0.4350395 0.1636261
v -0.3670468 -0.324561 0.2140371
v -0.4237753 -0.324561 0.001256585
v -0.4188137 -0.1810459 0.2418022
v -0.4836044 -0.1810459 -5.960464E-08
v -0.4262022 -0.004767358 0.2438285
v -0.3232687 -0.4350395 0.001147509
v 0.1606941 -0.4223029 0.27833
v 0.2104433 -0.3215005 0.3644991
v 0.3644992 -0.3215005 0.2104432
v 0.2418022 -0.1810675 0.4188137
v 0.3213882 -0.4223029 -5.960464E-08
v 0.4208865 -0.3215005 -5.960464E-08
v 0.4836044 -0.1810675 -5.960464E-08
v 0.1495175 -0.4919094 0.08632344
v 0.1530098 -0.5113058 -0.08685356
v 0.001477957 -0.5303881 0.0008528233
v -0.0001878142 -0.4978362 0.1729729
v 0.001477957 -0.5303881 0.0008528233
v 0.4188138 -0.1810675 0.2418022
v 0.4943751 -0.004767358 -5.960464E-08
v 0.4281422 -0.004767358 -0.2471881
v 0.3789004 0.2100286 -0.2187494
v 0.2430092 -0.004767358 -0.4253829
v 0.4375149 0.2100286 4.291534E-06
v 0.340465 0.3796604 1.722574E-05
v 0.164004 -0.4350395 -0.2808854
v 0.2143524 -0.324561 -0.3680909
v 0.001838505 -0.324561 -0.4248906
v 5.960464E-08 -0.1810459 -0.4836044
v 0.3644992 -0.3215005 -0.2104433
v 0.1530098 -0.5113058 -0.08685356
v 0.001667976 -0.5113058 -0.1742307
v 0.001729488 -0.4350395 -0.3242576
v 0.3213882 -0.4223029 -5.960464E-08
v 0.4208865 -0.3215005 -5.960464E-08
v 0.4836044 -0.1810675 -5.960464E-08
v 0.4188138 -0.1810675 -0.2418022
v 0.2418022 -0.1810459 -0.4188138
v 0.4281422 -0.004767358 -0.2471881
v 0.2430092 -0.004767358 -0.4253829
v 0.001729488 -0.4350395 -0.3242576
v -0.2107995 -0.324561 -0.3676288
v -0.1606411 -0.4350395 -0.2805324
v -0.3665848 -0.324561 -0.2116481
v 0.001667976 -0.5113058 -0.1742307
v -0.149865 -0.5113058 -0.08652431
v 0.001477957 -0.5303881 0.0008528233
v -0.2795985 -0.4350395 -0.161426
v -0.2418022 -0.1810459 -0.4188138
v 5.960464E-08 -0.1810459 -0.4836044
v 0.001838505 -0.324561 -0.4248906
v -0.00193882 -0.004767358 -0.4910167
v 0.2430092 -0.004767358 -0.4253829
v -0.2468879 -0.004767358 -0.4253829
v -0.2182732 0.2100286 -0.374539
v -0.375828 0.2100286 -0.2169843
v -0.2920198 0.3703092 -0.1685975
v -0.1156247 0.489625 -0.1982767
v -0.1990053 0.489625 -0.1148961
v -0.09893912 0.5767182 -0.05712259
v -0.001633346 0.5767182 -0.1133027
v -0.00161171 0.6016074 -0.0009306073
v -0.2795985 -0.4350395 -0.161426
v -0.3665848 -0.324561 -0.2116481
v -0.3232687 -0.4350395 0.001147509
v -0.149865 -0.5113058 -0.08652431
v -0.150055 -0.5113058 0.08856028
v 0.001477957 -0.5303881 0.0008528233
v -0.4237753 -0.324561 0.001256585
v -0.4836044 -0.1810459 -5.960464E-08
v -0.2418022 -0.1810459 -0.4188138
v -0.4188137 -0.1810459 -0.2418022
v -0.3665848 -0.324561 -0.2116481
v -0.4836044 -0.1810459 -5.960464E-08
v -0.491836 -0.004767358 -0.001119554
v -0.2468879 -0.004767358 -0.4253829
v -0.4262022 -0.004767358 -0.2460686
v -0.375828 0.2100286 -0.2169843
v 0.2418022 -0.1810675 0.4188137
v 5.960464E-08 -0.004767358 0.4943761
v 0.2471881 -0.004767358 0.4281421
v 0.4281422 -0.004767358 0.247188
v 0.4188138 -0.1810675 0.2418022
v 0.2187613 0.2100286 0.3788971
v 7.56979E-06 0.2100286 0.4375116
v 0.1702471 0.3796604 0.2948429
v 0.2948548 0.3796604 0.1702352
v 0.4943751 -0.004767358 -5.960464E-08
v 0.3789004 0.2100286 0.2187579
v 0.4375149 0.2100286 4.291534E-06
v 0.340465 0.3796604 1.722574E-05
v 2.920628E-05 0.3796604 0.340453
v -0.4836044 -0.1810459 -5.960464E-08
v -0.491836 -0.004767358 -0.001119554
v -0.4262022 -0.004767358 0.2438285
v 0.2430092 -0.004767358 -0.4253829
v 0.2121738 0.2100286 -0.374539
v -0.00193882 -0.004767358 -0.4910167
v 0.3789004 0.2100286 -0.2187494
v 0.2948548 0.3796604 -0.1702007
v 0.340465 0.3796604 1.722574E-05
v 0.1656827 0.3703092 -0.2912383
v -0.001848161 0.3703092 -0.3361284
v -0.003049731 0.2100286 -0.4322078
v -0.2182732 0.2100286 -0.374539
v 0.2006949 0.4953715 -0.1157911
v -0.1156247 0.489625 -0.1982767
v -0.001633346 0.5767182 -0.1133027
v 0.09567353 0.5767182 -0.05712259
v -0.2920198 0.3703092 -0.1685975
v -0.375828 0.2100286 -0.2169843
v -0.4334978 0.2100286 -0.001760781
v -0.491836 -0.004767358 -0.001119554
v -0.2920198 0.3703092 -0.1685975
v -0.2295254 0.489625 -0.0009953976
v -0.1990053 0.489625 0.1129053
v -0.4262022 -0.004767358 0.2438285
v -0.375828 0.2100286 0.2134627
v -0.2182732 0.2100286 0.3710175
v -0.1156247 0.489625 0.1962859
v 2.920628E-05 0.3796604 0.340453
v 7.56979E-06 0.2100286 0.4375116
v -0.2468879 -0.004767358 0.4231438
v 5.960464E-08 -0.004767358 0.4943761
v 2.920628E-05 0.3796604 0.340453
v 7.021427E-05 0.4953715 0.2317029
v 0.1702471 0.3796604 0.2948429
v -0.1156247 0.489625 0.1962859
v -0.00161171 0.6016074 -0.0009306073
v -0.09893912 0.5767182 0.05523759
v -0.1990053 0.489625 0.1129053
v -0.2295254 0.489625 -0.0009953976
v -0.09893912 0.5767182 -0.05712259
v -0.00161171 0.6016074 -0.0009306073
v -0.1990053 0.489625 -0.1148961
v -0.2920198 0.3703092 -0.1685975
v 0.1159012 0.4953715 0.2006657
v 0.09909788 0.5797798 0.05721426
v 0.2006949 0.4953715 0.115872
v 0.2948548 0.3796604 0.1702352
v 0.340465 0.3796604 1.722574E-05
v 0.2317321 0.4953715 3.987551E-05
v 0.2006949 0.4953715 -0.1157911
v 0.09567353 0.5767182 -0.05712259
v -0.00161171 0.6016074 -0.0009306073
v 0.1530098 -0.5113058 -0.08685356
v 0.001667976 -0.5113058 -0.1742307
v 0.001477957 -0.5303881 0.0008528233
v -0.150055 -0.5113058 0.08856028
v -0.0001878142 -0.4978362 0.1729729
v 0.001477957 -0.5303881 0.0008528233
v -0.00161171 0.6016074 -0.0009306073
v -0.001633346 0.5767182 -0.1133027
v 0.09567353 0.5767182 -0.05712259
vt 0.8462878 0.3329082
vt 0.9440431 0.3134679
vt 0.8916785 0.2386549
vt 0.8676587 0.4316362
vt 0.7345248 0.428688
vt 0.9738696 0.4123006
vt 0.8707417 0.5480685
vt 0.7288978 0.5616872
vt 0.7367846 0.2672392
vt 0.7308433 0.3391339
vt 0.7889248 0.1892834
vt 0.6915137 0.1882807
vt 0.646138 0.2543238
vt 0.6124056 0.3304688
vt 0.5327438 0.3092176
vt 0.5947911 0.4318307
vt 0.5123906 0.4074219
vt 0.5918129 0.5515106
vt 0.5829234 0.2354073
vt 0.4218786 0.05317129
vt 0.4218786 0.06831647
vt 0.499999 0.06831647
vt 0.4218786 0.08646973
vt 0.5845097 0.04676602
vt 0.5781194 0.06831647
vt 0.5781194 0.08646973
vt 0.499999 0.0284182
vt 0.6666858 0.02617336
vt 0.5781194 0.01078873
vt 0.3437433 0.02966034
vt 0.4218786 0.01078873
vt 0.499999 0.08646973
vt 0.5781194 0.104638
vt 0.6562548 0.104638
vt 0.6562548 0.1228062
vt 0.7343752 0.104638
vt 0.5781194 0.1228062
vt 0.5781194 0.1409744
vt 0.1779993 0.8158329
vt 0.1856168 0.8647554
vt 0.2505974 0.851436
vt 0.264695 0.9078414
vt 0.1092174 0.8635432
vt 0.1352725 0.7712504
vt 0.1944016 0.7662818
vt 0.2297353 0.8056563
vt 0.07036676 0.803157
vt 0.04465587 0.8481586
vt 0.0284631 0.90407
vt 0.106793 0.9145759
vt 0.1879814 0.9159677
vt 0.105506 0.9857073
vt 0.1912439 0.9820557
vt 0.8124956 0.05580524
vt 0.8906309 0.06831647
vt 0.8906309 0.05317129
vt 0.9687513 0.06831647
vt 0.7730612 0.03030387
vt 0.9687513 0.0284182
vt 0.8906309 0.01078873
vt 0.9687513 0.05317129
vt 0.8906309 0.08646973
vt 0.8124956 0.08646973
vt 0.8124956 0.06831647
vt 0.8124956 0.104638
vt 0.7343752 0.104638
vt 0.8906309 0.104638
vt 0.8906309 0.1228062
vt 0.9687513 0.1228062
vt 0.9687513 0.1409744
vt 0.8906309 0.1621657
vt 0.9687513 0.1621657
vt 0.9687513 0.18638
vt 0.8124956 0.18638
vt 0.8906309 0.1984872
vt 0.0312467 0.05317129
vt 0.0312467 0.06831647
vt 0.1093821 0.05317129
vt 0.0312467 0.0284182
vt 0.1875024 0.02966034
vt 0.1093821 0.01078873
vt 0.1093821 0.06831647
vt 0.1093821 0.08646973
vt 0.03458402 0.5907803
vt 0.1391187 0.5904062
vt 0.1392085 0.5275058
vt 0.2438479 0.5907654
vt 0.2461676 0.6701279
vt 0.03223443 0.6701428
vt 0.1391037 0.6674341
vt 0.1391785 0.7664315
vt 0.3588884 0.6841207
vt 0.2523484 0.7890894
vt 0.3571075 0.7688559
vt 0.4777003 0.7686613
vt 0.4807832 0.683148
vt 0.3621809 0.8748273
vt 0.2701874 0.8974253
vt 0.375156 0.9715948
vt 0.4636326 0.9708914
vt 0.5927708 0.7863955
vt 0.4732854 0.8763537
vt 0.5737495 0.8950158
vt 0.5436387 0.9857672
vt 0.3018995 0.9876828
vt 0.1093821 0.08646973
vt 0.1093821 0.104638
vt 0.1875024 0.1041291
vt 0.289912 0.2167003
vt 0.3099809 0.3520791
vt 0.4393135 0.2155629
vt 0.1812468 0.3654284
vt 0.2178078 0.4667455
vt 0.1634827 0.5074069
vt 0.3362156 0.4320103
vt 0.3859163 0.4498343
vt 0.4188256 0.3499241
vt 0.5452699 0.3676882
vt 0.2590978 0.5460182
vt 0.465219 0.5473052
vt 0.3809777 0.6047581
vt 0.3088285 0.6129144
vt 0.5529922 0.5098763
vt 0.5384756 0.7881914
vt 0.6303643 0.7555365
vt 0.6156531 0.6195591
vt 0.5840458 0.8903915
vt 0.6882961 0.9554319
vt 0.7617024 0.950194
vt 0.7610139 0.609173
vt 0.7600113 0.7640669
vt 0.891469 0.7572276
vt 0.8368146 0.9563897
vt 0.9457791 0.8927411
vt 0.9915589 0.7857221
vt 0.9045639 0.6216244
vt 0.984106 0.633118
vt 0.3437433 0.1409744
vt 0.3437433 0.1621657
vt 0.4218786 0.1409744
vt 0.2656229 0.1621657
vt 0.4218786 0.1984872
vt 0.1875024 0.18638
vt 0.1875024 0.1621657
vt 0.1093821 0.1621657
vt 0.0312467 0.18638
vt 0.1093821 0.1984872
vt 0.0312467 0.1621657
vt 0.0312467 0.1409744
vt 0.4218786 0.1621657
vt 0.499999 0.18638
vt 0.499999 0.1621657
vt 0.499999 0.1409744
vt 0.5781194 0.1409744
vt 0.5781194 0.1621657
vt 0.6562548 0.1621657
vt 0.6562548 0.18638
vt 0.5781194 0.1984872
vt 0.6666858 0.02617336
vt 0.7730612 0.03030387
vt 0.7343752 0.01078873
vt 0.1875024 0.02966034
vt 0.3437433 0.02966034
vt 0.2656229 0.01078873
vt 0.7343752 0.1984872
vt 0.8124956 0.18638
vt 0.6562548 0.18638
vn -0.0279333 -0.5707886 0.8206218
vn 0.3783423 -0.5338545 0.7562119
vn 0.2928106 -0.8273837 0.4792684
vn -0.006550372 -0.2344935 0.9720956
vn -0.4769748 -0.2714276 0.8359558
vn 0.5183033 -0.2131106 0.8282183
vn 0.08286911 0.0979138 0.9917387
vn -0.4750308 0.09013814 0.8753404
vn -0.2378748 -0.8079447 0.5391113
vn -0.4108821 -0.5319105 0.7404371
vn 0.05565447 -0.9440178 0.325166
vn -0.2456504 -0.9537374 0.1733232
vn -0.5683382 -0.7729545 0.2820161
vn -0.6927479 -0.5338545 0.4848709
vn -0.8404844 -0.5357984 0.08065975
vn -0.8443723 -0.2150545 0.4907005
vn -0.9746137 -0.2189423 0.04682284
vn -0.8774186 0.1348479 0.4603832
vn -0.5974967 -0.8001691 -0.05222213
vn 0.2928106 -0.8273837 0.4792684
vn 0.3783423 -0.5338545 0.7562119
vn 0.7146374 -0.5649569 0.4124525
vn 0.5183033 -0.2131106 0.8282183
vn 0.5766203 -0.8137764 0.07264281
vn 0.8252223 -0.564808 0
vn 0.9634569 -0.263652 -0.04731268
vn 0.2947545 -0.9342983 0.2005154
vn 0.3414081 -0.9304106 -0.1333292
vn 0.03232765 -0.9984471 0.04536879
vn 0.05565447 -0.9440178 0.325166
vn 0.03232765 -0.9984471 0.04536879
vn 0.8740374 -0.2033911 0.4412377
vn 0.9926154 0.1212407 0.003918747
vn 0.8623739 0.04931623 -0.5038642
vn 0.8176642 0.3642284 -0.4458283
vn 0.4852569 0.113465 -0.8669783
vn 0.9129154 0.4031065 0.06395774
vn 0.7923934 0.6091601 -0.03219603
vn 0.3122496 -0.7904496 -0.5269627
vn 0.4444349 -0.4872008 -0.7517399
vn 0.04010326 -0.5649569 -0.8241453
vn 0.03815937 -0.2383813 -0.9704217
vn 0.7107496 -0.6116105 -0.3475164
vn 0.3414081 -0.9304106 -0.1333292
vn -0.0007186532 -0.9517935 -0.3067387
vn -0.04154068 -0.7729545 -0.6331002
vn 0.5766203 -0.8137764 0.07264281
vn 0.8252223 -0.564808 0
vn 0.9634569 -0.263652 -0.04731268
vn 0.8118325 -0.2655959 -0.5199873
vn 0.5357984 -0.1781203 -0.8253443
vn 0.8623739 0.04931623 -0.5038642
vn 0.4852569 0.113465 -0.8669783
vn -0.04154068 -0.7729545 -0.6331002
vn -0.3564528 -0.5357984 -0.765416
vn -0.3272943 -0.8001691 -0.5026011
vn -0.729682 -0.5377423 -0.4223712
vn -0.0007186532 -0.9517935 -0.3067387
vn -0.2670333 -0.9517935 -0.1509383
vn 0.03232765 -0.9984471 0.04536879
vn -0.5255724 -0.7962813 -0.299516
vn -0.4847503 -0.2189423 -0.8468066
vn 0.03815937 -0.2383813 -0.9704217
vn 0.04010326 -0.5649569 -0.8241453
vn -0.03959674 0.1348479 -0.9900748
vn 0.4852569 0.113465 -0.8669783
vn -0.572226 0.1076333 -0.8130021
vn -0.4186577 0.4342089 -0.7976142
vn -0.811326 0.350621 -0.4677767
vn -0.6908039 0.6013845 -0.4014058
vn -0.3583967 0.7141308 -0.6013061
vn -0.5858333 0.7374577 -0.3360886
vn -0.3856114 0.8949137 -0.2245736
vn 0.04399109 0.8735308 -0.484777
vn -0.01238209 0.9823894 0.1864344
vn -0.5255724 -0.7962813 -0.299516
vn -0.729682 -0.5377423 -0.4223712
vn -0.5974967 -0.8001691 -0.05222213
vn -0.2670333 -0.9517935 -0.1509383
vn -0.2456504 -0.9537374 0.1733232
vn 0.03232765 -0.9984471 0.04536879
vn -0.8404844 -0.5357984 0.08065975
vn -0.9746137 -0.2189423 0.04682284
vn -0.4847503 -0.2189423 -0.8468066
vn -0.8540918 -0.164513 -0.4934193
vn -0.729682 -0.5377423 -0.4223712
vn -0.9746137 -0.2189423 0.04682284
vn -0.9901649 0.1076333 -0.08937822
vn -0.572226 0.1076333 -0.8130021
vn -0.8618674 0.1076333 -0.4955802
vn -0.811326 0.350621 -0.4677767
vn 0.5183033 -0.2131106 0.8282183
vn 0.08286911 0.0979138 0.9917387
vn 0.4969203 0.09985775 0.8620317
vn 0.8137764 0.0979138 0.5728708
vn 0.8740374 -0.2033911 0.4412377
vn 0.4949764 0.3622845 0.7897774
vn -0.01821381 0.3817236 0.9240971
vn 0.3686228 0.6091601 0.7021689
vn 0.7165813 0.5625065 0.4124291
vn 0.9926154 0.1212407 0.003918747
vn 0.8351593 0.3545089 0.4205144
vn 0.9129154 0.4031065 0.06395774
vn 0.7923934 0.6091601 -0.03219603
vn -0.09208208 0.5994406 0.7951049
vn -0.9746137 -0.2189423 0.04682284
vn -0.9901649 0.1076333 -0.08937822
vn -0.8774186 0.1348479 0.4603832
vn 0.4852569 0.113465 -0.8669783
vn 0.4405472 0.3894991 -0.8088317
vn -0.03959674 0.1348479 -0.9900748
vn 0.8176642 0.3642284 -0.4458283
vn 0.6660398 0.5800015 -0.46903
vn 0.7923934 0.6091601 -0.03219603
vn 0.3705667 0.6305431 -0.6819793
vn 0.01483256 0.6597015 -0.7513813
vn -0.0007186532 0.3933869 -0.9193727
vn -0.4186577 0.4342089 -0.7976142
vn 0.4813691 0.7627284 -0.4318903
vn -0.3583967 0.7141308 -0.6013061
vn 0.04399109 0.8735308 -0.484777
vn 0.3608472 0.9104649 -0.2020962
vn -0.6908039 0.6013845 -0.4014058
vn -0.811326 0.350621 -0.4677767
vn -0.8929698 0.4458724 0.06166666
vn -0.9901649 0.1076333 -0.08937822
vn -0.6908039 0.6013845 -0.4014058
vn -0.6927479 0.7199625 -0.04188417
vn -0.6460943 0.6655332 0.3736679
vn -0.8774186 0.1348479 0.4603832
vn -0.7802235 0.4342089 0.4502375
vn -0.5041894 0.4419845 0.7419183
vn -0.2942479 0.7530089 0.588554
vn -0.09208208 0.5994406 0.7951049
vn -0.01821381 0.3817236 0.9240971
vn -0.4750308 0.09013814 0.8753404
vn 0.08286911 0.0979138 0.9917387
vn -0.09208208 0.5994406 0.7951049
vn 0.01483256 0.789943 0.6130008
vn 0.3686228 0.6091601 0.7021689
vn -0.2942479 0.7530089 0.588554
vn -0.01238209 0.9823894 0.1864344
vn -0.3700601 0.8968577 0.2422844
vn -0.6460943 0.6655332 0.3736679
vn -0.6927479 0.7199625 -0.04188417
vn -0.3856114 0.8949137 -0.2245736
vn -0.01238209 0.9823894 0.1864344
vn -0.5858333 0.7374577 -0.3360886
vn -0.6908039 0.6013845 -0.4014058
vn 0.2364374 0.809382 0.5375854
vn 0.3491837 0.9104649 0.22164
vn 0.5921715 0.729682 0.3419021
vn 0.7165813 0.5625065 0.4124291
vn 0.7923934 0.6091601 -0.03219603
vn 0.6286365 0.7776992 0
vn 0.4813691 0.7627284 -0.4318903
vn 0.3608472 0.9104649 -0.2020962
vn -0.01238209 0.9823894 0.1864344
vn 0.3414081 -0.9304106 -0.1333292
vn -0.0007186532 -0.9517935 -0.3067387
vn 0.03232765 -0.9984471 0.04536879
vn -0.2456504 -0.9537374 0.1733232
vn 0.05565447 -0.9440178 0.325166
vn 0.03232765 -0.9984471 0.04536879
vn -0.01238209 0.9823894 0.1864344
vn 0.04399109 0.8735308 -0.484777
vn 0.3608472 0.9104649 -0.2020962
g Body_LOD1_0
f 3/3/3 2/2/2 1/1/1
f 1/1/1 2/2/2 4/4/4
f 1/1/1 4/4/4 5/5/5
f 2/2/2 6/6/6 4/4/4
f 7/7/7 4/4/4 6/6/6
f 4/4/4 7/7/7 8/8/8
f 4/4/4 8/8/8 5/5/5
f 3/3/3 1/1/1 9/9/9
f 1/1/1 10/10/10 9/9/9
f 1/1/1 5/5/5 10/10/10
f 11/11/11 3/3/3 9/9/9
f 12/12/12 11/11/11 9/9/9
f 13/13/13 12/12/12 9/9/9
f 9/9/9 14/14/14 13/13/13
f 10/10/10 5/5/5 14/14/14
f 9/9/9 10/10/10 14/14/14
f 13/13/13 14/14/14 15/15/15
f 5/5/5 16/16/16 14/14/14
f 15/15/15 14/14/14 16/16/16
f 5/5/5 8/8/8 16/16/16
f 15/15/15 16/16/16 17/17/17
f 8/8/8 18/18/18 16/16/16
f 16/16/16 18/18/18 17/17/17
f 12/12/12 13/13/13 19/19/19
f 13/13/13 15/15/15 19/19/19
f 22/22/22 21/21/21 20/20/20
f 22/22/22 23/23/23 21/21/21
f 24/24/24 22/22/22 20/20/20
f 24/24/24 25/25/25 22/22/22
f 25/25/25 26/26/26 22/22/22
f 27/27/27 24/24/24 20/20/20
f 27/27/27 28/28/28 24/24/24
f 29/29/29 28/28/28 27/27/27
f 30/30/30 27/27/27 20/20/20
f 31/31/31 27/27/27 30/30/30
f 26/26/26 32/32/32 22/22/22
f 22/22/22 32/32/32 23/23/23
f 32/32/32 26/26/26 33/33/33
f 26/26/26 34/34/34 33/33/33
f 34/34/34 35/35/35 33/33/33
f 35/35/35 34/34/34 36/36/36
f 35/35/35 37/37/37 33/33/33
f 35/35/35 38/38/38 37/37/37
f 41/41/41 40/40/40 39/39/39
f 40/40/40 41/41/41 42/42/42
f 39/39/39 40/40/40 43/43/43
f 43/43/43 44/44/44 39/39/39
f 44/44/44 45/45/45 39/39/39
f 45/45/45 46/46/46 39/39/39
f 46/46/46 41/41/41 39/39/39
f 44/44/44 43/43/43 47/47/47
f 47/47/47 43/43/43 48/48/48
f 49/49/49 48/48/48 43/43/43
f 49/49/49 43/43/43 50/50/50
f 40/40/40 50/50/50 43/43/43
f 40/40/40 51/51/51 50/50/50
f 40/40/40 42/42/42 51/51/51
f 49/49/49 50/50/50 52/52/52
f 51/51/51 52/52/52 50/50/50
f 51/51/51 53/53/53 52/52/52
f 42/42/42 53/53/53 51/51/51
f 56/56/56 55/55/55 54/54/54
f 57/57/57 55/55/55 56/56/56
f 54/54/54 58/58/58 56/56/56
f 58/58/58 59/59/59 56/56/56
f 60/60/60 59/59/59 58/58/58
f 59/59/59 61/61/61 56/56/56
f 61/61/61 57/57/57 56/56/56
f 57/57/57 62/62/62 55/55/55
f 55/55/55 62/62/62 63/63/63
f 55/55/55 63/63/63 64/64/64
f 55/55/55 64/64/64 54/54/54
f 62/62/62 65/65/65 63/63/63
f 63/63/63 65/65/65 66/66/66
f 62/62/62 67/67/67 65/65/65
f 65/65/65 67/67/67 68/68/68
f 69/69/69 68/68/68 67/67/67
f 69/69/69 70/70/70 68/68/68
f 70/70/70 72/72/72 71/71/71
f 71/71/71 72/72/72 73/73/73
f 71/71/71 73/73/73 74/74/74
f 74/74/74 73/73/73 75/75/75
f 78/78/78 77/77/77 76/76/76
f 76/76/76 79/79/79 78/78/78
f 79/79/79 80/80/80 78/78/78
f 81/81/81 80/80/80 79/79/79
f 78/78/78 82/82/82 77/77/77
f 82/82/82 83/83/83 77/77/77
f 86/86/86 85/85/85 84/84/84
f 87/87/87 85/85/85 86/86/86
f 85/85/85 87/87/87 88/88/88
f 84/84/84 85/85/85 89/89/89
f 85/85/85 90/90/90 89/89/89
f 85/85/85 88/88/88 90/90/90
f 88/88/88 91/91/91 90/90/90
f 90/90/90 91/91/91 89/89/89
f 94/94/94 93/93/93 92/92/92
f 95/95/95 94/94/94 92/92/92
f 96/96/96 95/95/95 92/92/92
f 95/95/95 97/97/97 94/94/94
f 93/93/93 94/94/94 97/97/97
f 93/93/93 97/97/97 98/98/98
f 97/97/97 99/99/99 98/98/98
f 100/100/100 99/99/99 97/97/97
f 96/96/96 101/101/101 95/95/95
f 95/95/95 101/101/101 102/102/102
f 102/102/102 100/100/100 97/97/97
f 95/95/95 102/102/102 97/97/97
f 103/103/103 100/100/100 102/102/102
f 101/101/101 103/103/103 102/102/102
f 103/103/103 104/104/104 100/100/100
f 99/99/99 105/105/105 98/98/98
f 108/108/108 107/107/107 106/106/106
f 111/111/111 110/110/110 109/109/109
f 112/112/112 109/109/109 110/110/110
f 113/113/113 112/112/112 110/110/110
f 112/112/112 113/113/113 114/114/114
f 113/113/113 110/110/110 115/115/115
f 116/116/116 115/115/115 110/110/110
f 117/117/117 116/116/116 110/110/110
f 111/111/111 117/117/117 110/110/110
f 117/117/117 118/118/118 116/116/116
f 117/117/117 111/111/111 118/118/118
f 115/115/115 119/119/119 113/113/113
f 116/116/116 119/119/119 115/115/115
f 113/113/113 119/119/119 114/114/114
f 118/118/118 120/120/120 116/116/116
f 119/119/119 116/116/116 121/121/121
f 116/116/116 120/120/120 121/121/121
f 119/119/119 121/121/121 122/122/122
f 123/123/123 120/120/120 118/118/118
f 126/126/126 125/125/125 124/124/124
f 124/124/124 125/125/125 127/127/127
f 125/125/125 128/128/128 127/127/127
f 129/129/129 128/128/128 125/125/125
f 130/130/130 125/125/125 126/126/126
f 130/130/130 131/131/131 125/125/125
f 131/131/131 129/129/129 125/125/125
f 132/132/132 131/131/131 130/130/130
f 132/132/132 129/129/129 131/131/131
f 132/132/132 133/133/133 129/129/129
f 134/134/134 133/133/133 132/132/132
f 135/135/135 134/134/134 132/132/132
f 135/135/135 132/132/132 136/136/136
f 136/136/136 132/132/132 130/130/130
f 137/137/137 135/135/135 136/136/136
f 140/140/140 139/139/139 138/138/138
f 138/138/138 139/139/139 141/141/141
f 141/141/141 139/139/139 142/142/142
f 141/141/141 142/142/142 143/143/143
f 144/144/144 141/141/141 143/143/143
f 145/145/145 144/144/144 143/143/143
f 145/145/145 143/143/143 146/146/146
f 146/146/146 143/143/143 147/147/147
f 148/148/148 145/145/145 146/146/146
f 145/145/145 148/148/148 149/149/149
f 139/139/139 150/150/150 142/142/142
f 140/140/140 150/150/150 139/139/139
f 150/150/150 151/151/151 142/142/142
f 150/150/150 152/152/152 151/151/151
f 152/152/152 150/150/150 140/140/140
f 153/153/153 152/152/152 140/140/140
f 154/154/154 152/152/152 153/153/153
f 152/152/152 155/155/155 151/151/151
f 154/154/154 155/155/155 152/152/152
f 156/156/156 155/155/155 154/154/154
f 155/155/155 156/156/156 157/157/157
f 155/155/155 157/157/157 151/151/151
f 151/151/151 157/157/157 158/158/158
f 161/161/161 160/160/160 159/159/159
f 164/164/164 163/163/163 162/162/162
f 167/167/167 166/166/166 165/165/165
