g Body_LOD1
v -8.505009 0.423315 -6.67572E-06
v -9.926746 -6.67572E-06 1.426994
v -9.926727 -6.67572E-06 -1.427008
v -8.505009 0.423315 -6.67572E-06
v 8.505003 0.423315 -6.67572E-06
v 9.926741 -6.67572E-06 1.426994
v -9.926746 -6.67572E-06 1.426994
v 8.505003 0.423315 -6.67572E-06
v -8.505009 0.423315 -6.67572E-06
v -9.926727 -6.67572E-06 -1.427008
v 9.926741 -6.67572E-06 -1.427008
v 8.505003 0.423315 -6.67572E-06
v 9.926741 -6.67572E-06 -1.427008
v 9.926741 -6.67572E-06 1.426994
vt 0.7412049 0.7498393
vt 0.5043209 0.9858523
vt 0.9780888 0.9858373
vt 0.7412049 0.7498393
vt 0.7412049 0.2501681
vt 0.5043209 0.01415518
vt 0.5043209 0.9858523
vt 0.7412049 0.2501681
vt 0.7412049 0.7498393
vt 0.9780888 0.9858373
vt 0.9860925 0.02023683
vt 0.7412049 0.2501681
vt 0.9620963 0.001991884
vt 0.5043209 0.01415518
vn -0.2850168 0.9585226 0
vn -0.2850168 0.9585226 0
vn -0.2850168 0.9585226 0
vn -0.0005396903 0.9587081 0.2843915
vn -0.0005396903 0.9587081 0.2843915
vn -0.0005396903 0.9587081 0.2843915
vn -0.0005396903 0.9587081 0.2843915
vn -0.0005396903 0.9587081 -0.2843915
vn -0.0005396903 0.9587081 -0.2843915
vn -0.0005396903 0.9587081 -0.2843915
vn -0.0005396903 0.9587081 -0.2843915
vn 0.2851422 0.9584852 0
vn 0.2851422 0.9584852 0
vn 0.2851422 0.9584852 0
g Body_LOD1_0
f 3/3/3 2/2/2 1/1/1
f 6/6/6 5/5/5 4/4/4
f 7/7/7 6/6/6 4/4/4
f 10/10/10 9/9/9 8/8/8
f 11/11/11 10/10/10 8/8/8
f 14/14/14 13/13/13 12/12/12
