g boo_02
v 1.457786 0.9178562 0.1778872
v 1.144828 0.7810955 0.2464538
v 0.6609671 1.268925 0.2473199
v 0.8416526 1.549377 0.1779411
v -1.192093E-06 1.447477 0.247638
v -1.192093E-06 1.78053 0.1779606
v -0.6609647 1.268925 0.2473199
v -0.841655 1.549377 0.1779411
v -1.144825 0.7810955 0.2464538
v -1.457789 0.9178562 0.1778872
v -1.321933 0.1147141 0.2452643
v -1.683309 0.05518723 0.1778138
v -1.144825 -0.5516672 0.2440751
v -1.457789 -0.8074869 0.1777453
v -0.6609647 -1.039492 0.2432039
v -0.841655 -1.439003 0.1776915
v -1.192093E-06 -1.218048 0.2428858
v -1.192093E-06 -1.670156 0.1776719
v 0.6609671 -1.039492 0.2432039
v 0.8416526 -1.439003 0.1776915
v 1.144828 -0.5516672 0.2440751
v 1.457786 -0.8074869 0.1777453
v 1.321931 0.1147141 0.2452643
v 1.683306 0.05518723 0.1778138
v -0.7387908 -0.210083 0.2877796
v -0.426542 -0.5087752 0.2871187
v -1.192093E-06 -0.6181047 0.2868741
v 0.4265444 -0.5087752 0.2871187
v 0.7387933 -0.210083 0.2877796
v 0.8530853 0.1979334 0.2886899
v 0.7387933 0.6059453 0.2895951
v 0.4265444 0.9046421 0.2902608
v -1.192093E-06 1.013972 0.2905006
v -0.426542 0.9046421 0.2902608
v -0.7387908 0.6059453 0.2895951
v -0.8530829 0.1979334 0.2886899
v -1.192093E-06 0.1708741 0.3054471
v 1.501779 1.729715 0.1052489
v 1.778414 1.45308 0.1052246
v 2.300414 -0.1994777 1.192093E-06
v 1.778414 -1.597371 0.1051559
v 1.501779 -1.874 0.1051316
v -1.192093E-06 -2.547635 1.192093E-06
v -1.501782 -1.874 0.1051316
v -1.778411 -1.597371 0.1051559
v -2.300411 -0.1994777 1.192093E-06
v -1.778411 1.45308 0.1052246
v -1.501782 1.729715 0.1052489
v -1.192093E-06 2.148679 1.192093E-06
v -2.440721 2.292165 1.192093E-06
v -2.440721 -2.691115 1.192093E-06
v 2.440718 2.292165 1.192093E-06
v 2.440718 -2.691115 1.192093E-06
vt 0.7564421 0.6990162
vt 0.6978493 0.6739367
vt 0.6072648 0.7633988
vt 0.6410881 0.814828
vt 0.4835215 0.7961291
vt 0.4835215 0.857218
vt 0.3597929 0.7633988
vt 0.3259548 0.814828
vt 0.2692083 0.6739367
vt 0.2106156 0.6990162
vt 0.2360496 0.5517294
vt 0.1683881 0.5408144
vt 0.2692083 0.4295222
vt 0.2106156 0.3826126
vt 0.3597929 0.3400602
vt 0.3259548 0.2668008
vt 0.4835215 0.307315
vt 0.4835215 0.2244108
vt 0.6072648 0.3400602
vt 0.6410881 0.2668008
vt 0.6978493 0.4295222
vt 0.7564421 0.3826126
vt 0.7310081 0.5517294
vt 0.7986696 0.5408144
vt 0.3452149 0.4921619
vt 0.4036747 0.4373799
vt 0.4835215 0.417337
vt 0.563383 0.4373799
vt 0.6218428 0.4921619
vt 0.6432298 0.5669869
vt 0.6218428 0.6418118
vt 0.563383 0.6965939
vt 0.4835215 0.7166368
vt 0.4036747 0.6965939
vt 0.3452149 0.6418118
vt 0.3238131 0.5669869
vt 0.4835215 0.5620242
vt 0.7646837 0.8478981
vt 0.8164675 0.797163
vt 0.914186 0.4941116
vt 0.8164675 0.2377482
vt 0.7646837 0.1870279
vt 0.4835215 0.06349135
vt 0.2023739 0.1870279
vt 0.1505902 0.2377482
vt 0.05285693 0.4941116
vt 0.1505902 0.797163
vt 0.2023739 0.8478981
vt 0.4835215 0.9247318
vt 0.02659582 0.9510372
vt 0.02659582 0.03717116
vt 0.9404619 0.9510372
vt 0.9404619 0.03717116
vn 0.1418322 0.07591525 0.9869754
vn 0.137162 0.07883412 0.9874066
vn 0.08170356 0.1407141 0.9866732
vn 0.08578998 0.1558922 0.9840415
vn -2.472103E-05 0.1634813 0.9865465
vn -2.472103E-05 0.3380295 0.9411355
vn -0.08175299 0.1407141 0.9866691
vn -0.08583939 0.1558922 0.9840372
vn -0.1372115 0.07883412 0.9873998
vn -0.1418816 0.07591525 0.9869683
vn -0.1465518 2.472103E-05 0.989203
vn -0.2405394 0.002359807 0.9706365
vn -0.1144443 -0.06535791 0.9912774
vn -0.1167794 -0.06477414 0.9910433
vn -0.06073716 -0.1033032 0.9927937
vn -0.05898583 -0.1056383 0.9926537
vn -2.472103E-05 -0.1155624 0.9933002
vn -2.472103E-05 -0.1768586 0.9842362
vn 0.06068772 -0.1033032 0.9927968
vn 0.0589364 -0.1056383 0.9926566
vn 0.1143949 -0.06535791 0.9912831
vn 0.11673 -0.06477414 0.9910492
vn 0.1465024 2.472103E-05 0.9892103
vn 0.2404899 0.002359807 0.9706488
vn -0.05548319 -0.03266659 0.9979251
vn -0.03038093 -0.05309866 0.998127
vn -2.472103E-05 -0.06010395 0.9981921
vn 0.03033151 -0.05309866 0.9981285
vn 0.05543377 -0.03266659 0.9979278
vn 0.06827678 -0.0005590618 0.9976662
vn 0.06068772 0.03505111 0.9975412
vn 0.0350017 0.06073716 0.9975399
vn -2.472103E-05 0.07007751 0.9975415
vn -0.03505111 0.06073716 0.9975382
vn -0.06073716 0.03505111 0.9975382
vn -0.06832621 -0.0005590618 0.9976629
vn -2.472103E-05 -0.00231038 0.9999973
vn 0.02916396 0.1611462 0.9864995
vn 0.1459186 0.02512696 0.9889774
vn 0.2399062 -0.00522925 0.970782
vn 0.1354107 -0.02274245 0.9905285
vn 0.02099113 -0.1173137 0.992873
vn -2.472103E-05 -0.1756911 0.9844453
vn -0.02104056 -0.1173137 0.992872
vn -0.1354601 -0.02274245 0.9905217
vn -0.2399556 -0.00522925 0.9707698
vn -0.1459681 0.02512696 0.9889701
vn -0.0292134 0.1611462 0.9864981
vn -2.472103E-05 0.3567103 0.9342151
vn -0.09634733 0.07416394 0.9925809
vn -0.06015337 -0.08053602 0.9949349
vn 0.0962979 0.07416394 0.9925857
vn 0.06010395 -0.08053602 0.994938
g boo_02_0
f 3/3/3 2/2/2 1/1/1
f 4/4/4 3/3/3 1/1/1
f 5/5/5 3/3/3 4/4/4
f 6/6/6 5/5/5 4/4/4
f 7/7/7 5/5/5 6/6/6
f 8/8/8 7/7/7 6/6/6
f 9/9/9 7/7/7 8/8/8
f 10/10/10 9/9/9 8/8/8
f 11/11/11 9/9/9 10/10/10
f 12/12/12 11/11/11 10/10/10
f 13/13/13 11/11/11 12/12/12
f 14/14/14 13/13/13 12/12/12
f 15/15/15 13/13/13 14/14/14
f 16/16/16 15/15/15 14/14/14
f 17/17/17 15/15/15 16/16/16
f 18/18/18 17/17/17 16/16/16
f 19/19/19 17/17/17 18/18/18
f 20/20/20 19/19/19 18/18/18
f 21/21/21 19/19/19 20/20/20
f 22/22/22 21/21/21 20/20/20
f 23/23/23 21/21/21 22/22/22
f 24/24/24 23/23/23 22/22/22
f 2/2/2 23/23/23 24/24/24
f 1/1/1 2/2/2 24/24/24
f 13/13/13 25/25/25 11/11/11
f 26/26/26 25/25/25 13/13/13
f 15/15/15 26/26/26 13/13/13
f 27/27/27 26/26/26 15/15/15
f 17/17/17 27/27/27 15/15/15
f 28/28/28 27/27/27 17/17/17
f 19/19/19 28/28/28 17/17/17
f 29/29/29 28/28/28 19/19/19
f 21/21/21 29/29/29 19/19/19
f 30/30/30 29/29/29 21/21/21
f 23/23/23 30/30/30 21/21/21
f 31/31/31 30/30/30 23/23/23
f 2/2/2 31/31/31 23/23/23
f 32/32/32 31/31/31 2/2/2
f 3/3/3 32/32/32 2/2/2
f 33/33/33 32/32/32 3/3/3
f 5/5/5 33/33/33 3/3/3
f 34/34/34 33/33/33 5/5/5
f 7/7/7 34/34/34 5/5/5
f 35/35/35 34/34/34 7/7/7
f 9/9/9 35/35/35 7/7/7
f 36/36/36 35/35/35 9/9/9
f 11/11/11 36/36/36 9/9/9
f 25/25/25 36/36/36 11/11/11
f 32/32/32 37/37/37 31/31/31
f 33/33/33 37/37/37 32/32/32
f 34/34/34 37/37/37 33/33/33
f 35/35/35 37/37/37 34/34/34
f 36/36/36 37/37/37 35/35/35
f 25/25/25 37/37/37 36/36/36
f 29/29/29 37/37/37 28/28/28
f 30/30/30 37/37/37 29/29/29
f 31/31/31 37/37/37 30/30/30
f 26/26/26 37/37/37 25/25/25
f 27/27/27 37/37/37 26/26/26
f 28/28/28 37/37/37 27/27/27
f 6/6/6 4/4/4 38/38/38
f 39/39/39 38/38/38 4/4/4
f 1/1/1 39/39/39 4/4/4
f 39/39/39 1/1/1 24/24/24
f 39/39/39 24/24/24 40/40/40
f 40/40/40 24/24/24 41/41/41
f 24/24/24 22/22/22 41/41/41
f 42/42/42 41/41/41 22/22/22
f 20/20/20 42/42/42 22/22/22
f 42/42/42 20/20/20 18/18/18
f 42/42/42 18/18/18 43/43/43
f 43/43/43 18/18/18 44/44/44
f 18/18/18 16/16/16 44/44/44
f 45/45/45 44/44/44 16/16/16
f 14/14/14 45/45/45 16/16/16
f 45/45/45 14/14/14 12/12/12
f 45/45/45 12/12/12 46/46/46
f 46/46/46 12/12/12 47/47/47
f 12/12/12 10/10/10 47/47/47
f 48/48/48 47/47/47 10/10/10
f 8/8/8 48/48/48 10/10/10
f 48/48/48 8/8/8 6/6/6
f 48/48/48 6/6/6 49/49/49
f 48/48/48 50/50/50 47/47/47
f 50/50/50 48/48/48 49/49/49
f 46/46/46 47/47/47 50/50/50
f 45/45/45 51/51/51 44/44/44
f 43/43/43 44/44/44 51/51/51
f 51/51/51 45/45/45 46/46/46
f 49/49/49 6/6/6 38/38/38
f 49/49/49 38/38/38 52/52/52
f 39/39/39 52/52/52 38/38/38
f 52/52/52 39/39/39 40/40/40
f 40/40/40 41/41/41 53/53/53
f 42/42/42 53/53/53 41/41/41
f 53/53/53 42/42/42 43/43/43
