g C_Body_LOD1
v -0.4755288 4.172325E-07 -0.1545084
v -0.4755288 -0.1545084 4.172325E-07
v -0.4522543 -0.1545084 -0.1469467
v -0.4755288 0.1545082 4.172325E-07
v -0.4522543 0.1545082 0.1469465
v -0.3847103 0.2938927 0.1249996
v -0.3604201 0.2269952 0.2618606
v -0.4045085 -0.2938928 4.172325E-07
v -0.3362492 -0.3535538 -0.1092536
v -0.2938927 -0.4045087 4.172325E-07
v -0.2377641 -0.4045087 0.1727453
v -0.1249996 -0.4755279 0.09081799
v -0.2078139 -0.3535538 0.2860306
v -0.3272542 -0.2938928 0.2377641
v -0.4236984 -0.2269953 0.1376683
v -0.07014513 -0.4455034 0.2158858
v -4.172325E-07 -0.4938442 0.07821709
v -0.4755288 4.172325E-07 0.1545082
v -0.3847103 -0.1545084 0.2795084
v -0.3995284 0.07821709 0.2902744
v -0.2938927 4.172325E-07 0.4045085
v -0.2795084 -0.1545084 0.3847103
v -0.1376683 -0.2269953 0.4236984
v -0.1526066 -0.07821718 0.4696741
v -4.172325E-07 -0.1545084 0.4755288
v -4.172325E-07 4.172325E-07 0.5000001
v 0.1545084 4.172325E-07 0.4755288
v 0.1469467 0.1545082 0.4522543
v 0.2795085 0.1545082 0.3847103
v 0.2795085 -0.1545084 0.3847103
v 0.3847104 0.1545082 0.2795084
v 0.3995286 -0.07821718 0.2902744
v 0.3604193 -0.2269953 0.2618606
v 0.4522544 0.1545082 0.1469465
v -4.172325E-07 -0.2938928 0.4045085
v -0.1092544 -0.3535538 0.3362492
v 0.1727455 -0.4045087 0.2377641
v 0.09081811 -0.4755279 0.1249996
v 0.2377642 -0.4045087 0.1727453
v 0.2377642 -0.2938928 0.3272542
v 0.1469467 -0.4755279 -0.04774535
v -4.172325E-07 -0.5000002 4.172325E-07
v 0.1249997 -0.2938928 0.3847103
v 0.1469467 -0.1545084 0.4522543
v 0.4696733 -0.07821718 0.1526066
v 0.4755279 0.1545082 4.172325E-07
v 0.4938442 -0.07821718 4.172325E-07
v 0.4455034 -0.2269953 4.172325E-07
v 0.4696743 -0.07821718 -0.1526067
v 0.4236995 -0.2269953 -0.1376684
v 0.4696743 0.07821709 -0.1526067
v 0.4236995 0.2269952 -0.1376684
v 0.3362494 -0.3535538 0.1092544
v 0.4236985 -0.2269953 0.1376683
v 0.3362494 -0.3535538 -0.1092536
v 0.4045087 0.2938927 4.172325E-07
v 0.3362494 0.3535537 -0.1092536
v 0.2795085 0.4045085 0.09081799
v 0.215885 0.4455032 -0.07014528
v 0.3847104 0.2938927 0.1249996
v 0.3272543 0.2938927 0.2377641
v 0.1727455 0.4045085 0.2377641
v 0.2377642 0.2938927 0.3272542
v 0.1249997 0.2938927 0.3847103
v 0.09081811 0.4045085 0.2795084
v 0.09081811 0.4755288 0.1249996
v -0.07014513 0.4455032 0.2158858
v 0.1469467 0.4755288 0.04774618
v -4.172325E-07 0.2938927 0.4045085
v -4.172325E-07 0.1545082 0.4755288
v -4.172325E-07 0.5000001 4.172325E-07
v 0.07438913 0.4938441 -0.02417049
v -0.1376683 0.2269952 0.4236984
v -0.1526066 0.07821709 0.4696741
v -0.2795084 0.1545082 0.3847103
v -0.1092544 0.3535537 0.3362492
v -4.172325E-07 0.4045085 0.2938927
v -0.183643 0.4455032 0.1334244
v -0.2860306 0.3535537 0.2078139
v -0.2795084 0.4045085 -0.09081811
v -0.1469465 0.4755288 -0.04774535
v -0.4045085 0.2938927 4.172325E-07
v -0.07438898 0.4938441 0.02417034
v -0.2377641 0.2938927 0.3272542
v -0.2860306 0.3535537 -0.2078131
v -0.3847103 0.2938927 -0.1249997
v -0.4522543 0.1545082 -0.1469467
v -0.3604201 0.2269952 -0.2618607
v -0.2377641 0.2938927 -0.3272543
v -0.09081799 0.4755288 -0.1249997
v -4.172325E-07 0.5000001 4.172325E-07
v -4.172325E-07 0.4455032 -0.2269953
v -0.1092544 0.3535537 -0.3362494
v -0.1727453 0.4045085 -0.2377642
v -0.1376683 0.2269952 -0.4236985
v 0.09081811 0.4045085 -0.2795085
v 0.07438913 0.4938441 -0.02417049
v 0.1727455 0.4045085 -0.2377642
v 0.215885 0.4455032 -0.07014528
v 0.3362494 0.3535537 -0.1092536
v 0.3272543 0.2938927 -0.2377642
v 0.4236995 0.2269952 -0.1376684
v 0.3847104 0.1545082 -0.2795085
v 0.4696743 0.07821709 -0.1526067
v -4.172325E-07 0.2938927 -0.4045087
v 0.1249997 0.2938927 -0.3847104
v 0.2377642 0.2938927 -0.3272543
v 0.2795085 0.1545082 -0.3847104
v -4.172325E-07 0.1545082 -0.4755289
v 0.1469467 0.1545082 -0.4522544
v 0.1526067 -0.07821718 -0.4696743
v 0.2938928 4.172325E-07 -0.4045087
v 0.2795085 -0.1545084 -0.3847104
v 0.4045087 4.172325E-07 -0.2938928
v 0.1376684 -0.2269953 -0.4236995
v 0.3604202 -0.2269953 -0.2618607
v 0.4696743 -0.07821718 -0.1526067
v 0.4236995 -0.2269953 -0.1376684
v -4.172325E-07 -0.1545084 -0.4755289
v -4.172325E-07 4.172325E-07 -0.5000002
v -0.1526066 -0.07821718 -0.4696743
v -0.1249996 -0.2938928 -0.3847104
v -4.172325E-07 -0.3535538 -0.3535538
v 0.2377642 -0.2938928 -0.3272543
v 0.1727455 -0.4045087 -0.2377642
v 0.2860307 -0.3535538 -0.2078131
v 0.1469467 -0.4755279 -0.04774535
v -4.172325E-07 -0.4755279 -0.1545084
v -0.07014513 -0.4455034 -0.215885
v -0.1526066 0.07821709 -0.4696743
v -0.2795084 -0.1545084 -0.3847104
v -0.2795084 0.1545082 -0.3847104
v -0.3995284 0.07821709 -0.2902746
v -0.3847103 -0.1545084 -0.2795085
v -0.2377641 -0.2938928 -0.3272543
v -4.172325E-07 -0.5000002 4.172325E-07
v -0.07438898 -0.4938442 -0.02417049
v -0.1727453 -0.4045087 -0.2377642
v -0.3272542 -0.2938928 -0.2377642
v -4.172325E-07 -0.5000002 4.172325E-07
v -4.172325E-07 -0.5000002 4.172325E-07
v 0.3362494 -0.3535538 -0.1092536
vt 0.1464707 0.6290582
vt 0.1470883 0.6278382
vt 0.1464707 0.6278382
vt 0.1470883 0.6302783
vt 0.1476908 0.6302783
vt 0.1476908 0.6314985
vt 0.1483084 0.6308808
vt 0.1470883 0.6266181
vt 0.1464707 0.6260005
vt 0.1470883 0.625398
vt 0.1483084 0.625398
vt 0.1483084 0.6241779
vt 0.1489109 0.6260005
vt 0.1483084 0.6266181
vt 0.1476908 0.6272206
vt 0.1495285 0.6247804
vt 0.150131 0.6235604
vt 0.1476908 0.6290582
vt 0.1483084 0.6278382
vt 0.1483084 0.6296608
vt 0.1489109 0.6290582
vt 0.1489109 0.6278382
vt 0.1495285 0.6272206
vt 0.1495285 0.6284407
vt 0.150131 0.6278382
vt 0.150131 0.6290582
vt 0.1507486 0.6290582
vt 0.1507486 0.6302783
vt 0.1513511 0.6302783
vt 0.1513511 0.6278382
vt 0.1519686 0.6302783
vt 0.1519686 0.6284407
vt 0.1519686 0.6272206
vt 0.1525712 0.6302783
vt 0.150131 0.6266181
vt 0.1495285 0.6260005
vt 0.1513511 0.625398
vt 0.1513511 0.6241779
vt 0.1519686 0.625398
vt 0.1513511 0.6266181
vt 0.1537912 0.6241779
vt 0.15349 0.6229578
vt 0.1507486 0.6266181
vt 0.1507486 0.6278382
vt 0.1525712 0.6284407
vt 0.1531887 0.6302783
vt 0.1531887 0.6284407
vt 0.1531887 0.6272206
vt 0.1537912 0.6284407
vt 0.1537912 0.6272206
vt 0.1537912 0.6296608
vt 0.1537912 0.6308808
vt 0.1525712 0.6260005
vt 0.1525712 0.6272206
vt 0.1537912 0.6260005
vt 0.1531887 0.6314985
vt 0.1537912 0.6321009
vt 0.1525712 0.6327186
vt 0.1537912 0.633321
vt 0.1525712 0.6314985
vt 0.1519686 0.6314985
vt 0.1513511 0.6327186
vt 0.1513511 0.6314985
vt 0.1507486 0.6314985
vt 0.1507486 0.6327186
vt 0.1513511 0.6339386
vt 0.1495285 0.633321
vt 0.1525712 0.6339386
vt 0.150131 0.6314985
vt 0.150131 0.6302783
vt 0.1498297 0.6351587
vt 0.1537912 0.6345412
vt 0.1495285 0.6308808
vt 0.1495285 0.6296608
vt 0.1489109 0.6302783
vt 0.1495285 0.6321009
vt 0.150131 0.6327186
vt 0.1483084 0.633321
vt 0.1483084 0.6321009
vt 0.1464707 0.6327186
vt 0.1464707 0.6339386
vt 0.1470883 0.6314985
vt 0.1476908 0.6345412
vt 0.1489109 0.6314985
vt 0.1458682 0.6321009
vt 0.1464707 0.6314985
vt 0.1464707 0.6302783
vt 0.1458682 0.6308808
vt 0.1452507 0.6314985
vt 0.1452507 0.6339386
vt 0.1461695 0.6351587
vt 0.1440306 0.633321
vt 0.1446481 0.6321009
vt 0.1452507 0.6327186
vt 0.1446481 0.6308808
vt 0.1434281 0.6327186
vt 0.1415904 0.6345412
vt 0.1428105 0.6327186
vt 0.1415904 0.633321
vt 0.1415904 0.6321009
vt 0.142208 0.6314985
vt 0.1415904 0.6308808
vt 0.142208 0.6302783
vt 0.1415904 0.6296608
vt 0.1440306 0.6314985
vt 0.1434281 0.6314985
vt 0.1428105 0.6314985
vt 0.1428105 0.6302783
vt 0.1440306 0.6302783
vt 0.1434281 0.6302783
vt 0.1434281 0.6284407
vt 0.1428105 0.6290582
vt 0.1428105 0.6278382
vt 0.142208 0.6290582
vt 0.1434281 0.6272206
vt 0.142208 0.6272206
vt 0.1415904 0.6284407
vt 0.1415904 0.6272206
vt 0.1440306 0.6278382
vt 0.1440306 0.6290582
vt 0.1446481 0.6284407
vt 0.1446481 0.6266181
vt 0.1440306 0.6260005
vt 0.1428105 0.6266181
vt 0.1428105 0.625398
vt 0.142208 0.6260005
vt 0.1415904 0.6241779
vt 0.1440306 0.6241779
vt 0.1446481 0.6247804
vt 0.1446481 0.6296608
vt 0.1452507 0.6278382
vt 0.1452507 0.6302783
vt 0.1458682 0.6296608
vt 0.1458682 0.6278382
vt 0.1452507 0.6266181
vt 0.1455519 0.6229578
vt 0.1464707 0.6235604
vt 0.1452507 0.625398
vt 0.1458682 0.6266181
vt 0.1479921 0.6229578
vt 0.1510498 0.6229578
vt 0.1415904 0.6260005
vn -0.9686771 -0.01240468 -0.2480136
vn -0.9782534 -0.2074134 0
vn -0.8965101 -0.3303298 -0.295215
vn -0.9842808 0.1748396 0.02494953
vn -0.9394202 0.2333534 0.2510696
vn -0.7697302 0.5941886 0.2333567
vn -0.7268199 0.4401023 0.5272976
vn -0.7970366 -0.6033943 0.0254551
vn -0.6605043 -0.7067688 -0.2534009
vn -0.5298235 -0.8472019 -0.03919046
vn -0.5083683 -0.8081927 0.2972981
vn -0.3191736 -0.9330222 0.1661258
vn -0.4362013 -0.6736109 0.5966379
vn -0.6546529 -0.5877906 0.4753229
vn -0.8477486 -0.4532089 0.2755432
vn -0.07926697 -0.8628056 0.4992827
vn -0.02075309 -0.9759324 0.2170837
vn -0.9706276 -0.01825607 0.2398933
vn -0.798987 -0.2503609 0.5467534
vn -0.8048384 0.09292024 0.5861749
vn -0.6175942 -0.01435512 0.7863659
vn -0.5551794 -0.3400821 0.7590257
vn -0.3113719 -0.4571097 0.8331256
vn -0.3055205 -0.1508874 0.9401544
vn 0.006553292 -0.2991225 0.9541922
vn 0.008503795 -0.0007019043 0.9999636
vn 0.3985959 0.001248538 0.9171258
vn 0.2913206 0.3016195 0.9078314
vn 0.6131467 0.1748396 0.7703781
vn 0.5858402 -0.1918471 0.7873918
vn 0.7769853 0.1943441 0.5987688
vn 0.771134 -0.04946345 0.6347486
vn 0.716521 -0.4688125 0.5165389
vn 0.9252204 0.2255515 0.3051127
vn 0.03190929 -0.6619081 0.7489055
vn -0.1709387 -0.720422 0.67214
vn 0.2503609 -0.8003909 0.5446961
vn 0.221104 -0.9369231 0.2707176
vn 0.5078217 -0.8101432 0.2928909
vn 0.5000199 -0.5994934 0.6249702
vn 0.3654381 -0.9271708 -0.08251809
vn 0.08847266 -0.995437 -0.03574722
vn 0.2250049 -0.6131467 0.7572476
vn 0.2932711 -0.3010729 0.9073848
vn 0.9486259 -0.072869 0.3078944
vn 0.9720314 0.2333534 0.02647815
vn 0.995437 -0.09237361 0.0239245
vn 0.8764589 -0.4805153 -0.03041144
vn 0.9271708 -0.1664911 -0.3356114
vn 0.8530533 -0.445407 -0.2718688
vn 0.9525268 0.1377808 -0.2714942
vn 0.8530533 0.4401023 -0.2803747
vn 0.6463045 -0.7477285 0.1522913
vn 0.8511028 -0.4473575 0.274764
vn 0.6385026 -0.7594312 -0.1248146
vn 0.8001214 0.599838 0
vn 0.644354 0.7365723 -0.2055947
vn 0.5526823 0.8106897 0.1931952
vn 0.4337043 0.8828569 -0.1801786
vn 0.7750349 0.5766345 0.2584832
vn 0.6463045 0.60004 0.471426
vn 0.4024969 0.8009375 0.443278
vn 0.4766144 0.5766345 0.6635748
vn 0.2484105 0.5746841 0.779763
vn 0.1625902 0.8184916 0.5510316
vn 0.1118782 0.9511229 0.287834
vn -0.1475331 0.904312 0.4005669
vn 0.3537353 0.925767 0.133517
vn 0.004602849 0.5727336 0.8197287
vn 0.006553292 0.2996691 0.9540207
vn -0.005149424 0.9998845 0.0142963
vn 0.1606397 0.9706276 -0.1791004
vn -0.278214 0.4401023 0.8537605
vn -0.3055205 0.151434 0.9400665
vn -0.5610308 0.2996691 0.7716495
vn -0.2587094 0.7190182 0.6450444
vn -0.003198981 0.7911852 0.6115683
vn -0.4420527 0.8614017 0.2501529
vn -0.5551794 0.7580274 0.3423014
vn -0.5590803 0.8262935 -0.06832405
vn -0.3932912 0.9140642 -0.09903868
vn -0.752176 0.6566034 0.05570688
vn -0.1553349 0.9803799 0.1213524
vn -0.4732601 0.5922381 0.6521341
vn -0.5629813 0.7170677 -0.4109331
vn -0.7794824 0.5766345 -0.2447445
vn -0.9101633 0.2996691 -0.2860089
vn -0.7268199 0.4401023 -0.5272976
vn -0.4830124 0.5707831 -0.6640074
vn -0.1865423 0.9355193 -0.3000094
vn -0.005149424 0.9998845 0.0142963
vn 0.008503795 0.9062623 -0.4226302
vn -0.1845918 0.7268199 -0.6615577
vn -0.3191736 0.8399467 -0.4388824
vn -0.278214 0.4401023 -0.8537605
vn 0.1411351 0.7794824 -0.610318
vn 0.1606397 0.9706276 -0.1791004
vn 0.3537353 0.8438476 -0.4034756
vn 0.4337043 0.8828569 -0.1801786
vn 0.644354 0.7365723 -0.2055947
vn 0.644354 0.6019905 -0.4716093
vn 0.8530533 0.4401023 -0.2803747
vn 0.7691835 0.2996691 -0.5644069
vn 0.9525268 0.1377808 -0.2714942
vn 0.006553292 0.60004 -0.7999431
vn 0.2562123 0.5766345 -0.7757886
vn 0.4863667 0.5746841 -0.6581684
vn 0.5624347 0.3016195 -0.7698656
vn 0.03190929 0.274313 -0.9611109
vn 0.2815683 0.2411552 -0.9287429
vn 0.3049738 -0.09432405 -0.9476782
vn 0.5643851 0.01295131 -0.82541
vn 0.593642 -0.2874197 -0.7516509
vn 0.8062422 -0.04946345 -0.5895141
vn 0.2386581 -0.496119 -0.8348103
vn 0.745778 -0.3927445 -0.5381142
vn 0.9271708 -0.1664911 -0.3356114
vn 0.8530533 -0.445407 -0.2718688
vn -0.03050548 -0.3517849 -0.9355837
vn 0.03971112 0.02270359 -0.9989532
vn -0.3386783 -0.1820948 -0.9231135
vn -0.2470066 -0.5409796 -0.8039458
vn 0.03776067 -0.716521 -0.6965427
vn 0.4181005 -0.6072953 -0.6755623
vn 0.2913206 -0.8296478 -0.4762529
vn 0.5604842 -0.7360257 -0.3796363
vn 0.3654381 -0.9271708 -0.08251809
vn 0.01045424 -0.944725 -0.3276971
vn -0.0636633 -0.8569542 -0.5114455
vn -0.3874398 0.104623 -0.9159391
vn -0.5610308 -0.2230545 -0.797177
vn -0.578585 0.1787404 -0.795796
vn -0.7619283 0.07146508 -0.6437065
vn -0.773631 -0.2406086 -0.5861762
vn -0.4693591 -0.5526823 -0.6886539
vn 0.08847266 -0.995437 -0.03574722
vn -0.2957681 -0.944725 -0.1414777
vn -0.3601333 -0.8452515 -0.3947833
vn -0.6741576 -0.5897411 -0.4446538
vn 0.08847266 -0.995437 -0.03574722
vn 0.08847266 -0.995437 -0.03574722
vn 0.6385026 -0.7594312 -0.1248146
g C_Body_LOD1_0
f 3/3/3 2/2/2 1/1/1
f 4/4/4 1/1/1 2/2/2
f 4/4/4 2/2/2 5/5/5
f 6/6/6 4/4/4 5/5/5
f 6/6/6 5/5/5 7/7/7
f 8/8/8 2/2/2 3/3/3
f 9/9/9 8/8/8 3/3/3
f 10/10/10 8/8/8 9/9/9
f 8/8/8 10/10/10 11/11/11
f 10/10/10 12/12/12 11/11/11
f 12/12/12 13/13/13 11/11/11
f 11/11/11 13/13/13 14/14/14
f 11/11/11 14/14/14 15/15/15
f 8/8/8 11/11/11 15/15/15
f 2/2/2 8/8/8 15/15/15
f 12/12/12 16/16/16 13/13/13
f 12/12/12 17/17/17 16/16/16
f 2/2/2 15/15/15 18/18/18
f 5/5/5 2/2/2 18/18/18
f 15/15/15 19/19/19 18/18/18
f 15/15/15 14/14/14 19/19/19
f 18/18/18 19/19/19 20/20/20
f 19/19/19 21/21/21 20/20/20
f 22/22/22 21/21/21 19/19/19
f 13/13/13 22/22/22 14/14/14
f 14/14/14 22/22/22 19/19/19
f 13/13/13 23/23/23 22/22/22
f 23/23/23 24/24/24 22/22/22
f 21/21/21 22/22/22 24/24/24
f 24/24/24 23/23/23 25/25/25
f 25/25/25 26/26/26 24/24/24
f 26/26/26 25/25/25 27/27/27
f 28/28/28 26/26/26 27/27/27
f 28/28/28 27/27/27 29/29/29
f 29/29/29 27/27/27 30/30/30
f 29/29/29 30/30/30 31/31/31
f 31/31/31 30/30/30 32/32/32
f 33/33/33 32/32/32 30/30/30
f 31/31/31 32/32/32 34/34/34
f 35/35/35 25/25/25 23/23/23
f 36/36/36 35/35/35 23/23/23
f 36/36/36 16/16/16 35/35/35
f 16/16/16 37/37/37 35/35/35
f 16/16/16 38/38/38 37/37/37
f 38/38/38 39/39/39 37/37/37
f 39/39/39 33/33/33 37/37/37
f 37/37/37 33/33/33 40/40/40
f 30/30/30 40/40/40 33/33/33
f 38/38/38 41/41/41 39/39/39
f 38/38/38 42/42/42 41/41/41
f 37/37/37 40/40/40 43/43/43
f 37/37/37 43/43/43 35/35/35
f 44/44/44 43/43/43 40/40/40
f 44/44/44 40/40/40 30/30/30
f 43/43/43 44/44/44 25/25/25
f 35/35/35 43/43/43 25/25/25
f 33/33/33 45/45/45 32/32/32
f 34/34/34 32/32/32 45/45/45
f 34/34/34 45/45/45 46/46/46
f 46/46/46 45/45/45 47/47/47
f 48/48/48 47/47/47 45/45/45
f 47/47/47 48/48/48 49/49/49
f 48/48/48 50/50/50 49/49/49
f 46/46/46 47/47/47 51/51/51
f 47/47/47 49/49/49 51/51/51
f 52/52/52 46/46/46 51/51/51
f 39/39/39 41/41/41 53/53/53
f 54/54/54 53/53/53 48/48/48
f 54/54/54 48/48/48 45/45/45
f 53/53/53 41/41/41 55/55/55
f 48/48/48 53/53/53 55/55/55
f 48/48/48 55/55/55 50/50/50
f 53/53/53 54/54/54 33/33/33
f 33/33/33 54/54/54 45/45/45
f 33/33/33 39/39/39 53/53/53
f 56/56/56 46/46/46 52/52/52
f 57/57/57 56/56/56 52/52/52
f 58/58/58 56/56/56 57/57/57
f 59/59/59 58/58/58 57/57/57
f 58/58/58 60/60/60 56/56/56
f 58/58/58 61/61/61 60/60/60
f 62/62/62 61/61/61 58/58/58
f 62/62/62 63/63/63 61/61/61
f 62/62/62 64/64/64 63/63/63
f 65/65/65 64/64/64 62/62/62
f 66/66/66 65/65/65 62/62/62
f 66/66/66 67/67/67 65/65/65
f 68/68/68 66/66/66 62/62/62
f 68/68/68 62/62/62 58/58/58
f 59/59/59 68/68/68 58/58/58
f 65/65/65 69/69/69 64/64/64
f 69/69/69 70/70/70 64/64/64
f 71/71/71 67/67/67 66/66/66
f 72/72/72 66/66/66 68/68/68
f 72/72/72 71/71/71 66/66/66
f 72/72/72 68/68/68 59/59/59
f 69/69/69 73/73/73 70/70/70
f 73/73/73 74/74/74 70/70/70
f 73/73/73 75/75/75 74/74/74
f 76/76/76 73/73/73 69/69/69
f 67/67/67 76/76/76 77/77/77
f 77/77/77 76/76/76 69/69/69
f 77/77/77 69/69/69 65/65/65
f 65/65/65 67/67/67 77/77/77
f 67/67/67 78/78/78 76/76/76
f 78/78/78 79/79/79 76/76/76
f 78/78/78 80/80/80 79/79/79
f 78/78/78 81/81/81 80/80/80
f 80/80/80 82/82/82 79/79/79
f 83/83/83 81/81/81 78/78/78
f 76/76/76 79/79/79 84/84/84
f 76/76/76 84/84/84 73/73/73
f 84/84/84 75/75/75 73/73/73
f 79/79/79 7/7/7 84/84/84
f 84/84/84 7/7/7 75/75/75
f 81/81/81 85/85/85 80/80/80
f 80/80/80 86/86/86 82/82/82
f 80/80/80 85/85/85 86/86/86
f 86/86/86 87/87/87 82/82/82
f 86/86/86 88/88/88 87/87/87
f 85/85/85 88/88/88 86/86/86
f 85/85/85 89/89/89 88/88/88
f 83/83/83 78/78/78 67/67/67
f 79/79/79 82/82/82 6/6/6
f 79/79/79 6/6/6 7/7/7
f 83/83/83 90/90/90 81/81/81
f 81/81/81 90/90/90 85/85/85
f 83/83/83 91/91/91 90/90/90
f 91/91/91 92/92/92 90/90/90
f 90/90/90 92/92/92 93/93/93
f 90/90/90 93/93/93 94/94/94
f 94/94/94 93/93/93 89/89/89
f 90/90/90 94/94/94 85/85/85
f 94/94/94 89/89/89 85/85/85
f 93/93/93 95/95/95 89/89/89
f 92/92/92 96/96/96 93/93/93
f 91/91/91 97/97/97 92/92/92
f 92/92/92 97/97/97 98/98/98
f 92/92/92 98/98/98 96/96/96
f 97/97/97 99/99/99 98/98/98
f 98/98/98 99/99/99 100/100/100
f 100/100/100 101/101/101 98/98/98
f 100/100/100 102/102/102 101/101/101
f 101/101/101 102/102/102 103/103/103
f 102/102/102 104/104/104 103/103/103
f 96/96/96 105/105/105 93/93/93
f 93/93/93 105/105/105 95/95/95
f 96/96/96 106/106/106 105/105/105
f 96/96/96 107/107/107 106/106/106
f 98/98/98 107/107/107 96/96/96
f 98/98/98 101/101/101 107/107/107
f 101/101/101 103/103/103 107/107/107
f 107/107/107 108/108/108 106/106/106
f 107/107/107 103/103/103 108/108/108
f 105/105/105 109/109/109 95/95/95
f 105/105/105 110/110/110 109/109/109
f 106/106/106 110/110/110 105/105/105
f 106/106/106 108/108/108 110/110/110
f 110/110/110 111/111/111 109/109/109
f 110/110/110 112/112/112 111/111/111
f 108/108/108 112/112/112 110/110/110
f 113/113/113 111/111/111 112/112/112
f 113/113/113 112/112/112 114/114/114
f 103/103/103 114/114/114 108/108/108
f 103/103/103 104/104/104 114/114/114
f 108/108/108 114/114/114 112/112/112
f 113/113/113 115/115/115 111/111/111
f 116/116/116 113/113/113 114/114/114
f 117/117/117 116/116/116 114/114/114
f 117/117/117 114/114/114 104/104/104
f 118/118/118 116/116/116 117/117/117
f 115/115/115 119/119/119 111/111/111
f 119/119/119 120/120/120 111/111/111
f 109/109/109 111/111/111 120/120/120
f 120/120/120 119/119/119 121/121/121
f 119/119/119 122/122/122 121/121/121
f 119/119/119 123/123/123 122/122/122
f 123/123/123 119/119/119 115/115/115
f 124/124/124 123/123/123 115/115/115
f 113/113/113 124/124/124 115/115/115
f 124/124/124 113/113/113 116/116/116
f 124/124/124 125/125/125 123/123/123
f 125/125/125 124/124/124 126/126/126
f 116/116/116 126/126/126 124/124/124
f 126/126/126 116/116/116 118/118/118
f 127/127/127 125/125/125 126/126/126
f 127/127/127 128/128/128 125/125/125
f 125/125/125 128/128/128 129/129/129
f 125/125/125 129/129/129 123/123/123
f 123/123/123 129/129/129 122/122/122
f 120/120/120 121/121/121 130/130/130
f 121/121/121 131/131/131 130/130/130
f 132/132/132 130/130/130 131/131/131
f 132/132/132 131/131/131 133/133/133
f 131/131/131 134/134/134 133/133/133
f 135/135/135 134/134/134 131/131/131
f 135/135/135 131/131/131 121/121/121
f 122/122/122 135/135/135 121/121/121
f 134/134/134 1/1/1 133/133/133
f 136/136/136 128/128/128 127/127/127
f 136/136/136 137/137/137 128/128/128
f 128/128/128 137/137/137 138/138/138
f 128/128/128 138/138/138 129/129/129
f 137/137/137 10/10/10 138/138/138
f 138/138/138 139/139/139 135/135/135
f 139/139/139 134/134/134 135/135/135
f 9/9/9 139/139/139 138/138/138
f 138/138/138 10/10/10 9/9/9
f 134/134/134 3/3/3 1/1/1
f 9/9/9 3/3/3 139/139/139
f 134/134/134 139/139/139 3/3/3
f 137/137/137 12/12/12 10/10/10
f 137/137/137 17/17/17 12/12/12
f 137/137/137 140/140/140 17/17/17
f 138/138/138 135/135/135 122/122/122
f 129/129/129 138/138/138 122/122/122
f 87/87/87 133/133/133 1/1/1
f 87/87/87 1/1/1 4/4/4
f 82/82/82 87/87/87 4/4/4
f 82/82/82 4/4/4 6/6/6
f 17/17/17 38/38/38 16/16/16
f 17/17/17 141/141/141 38/38/38
f 88/88/88 133/133/133 87/87/87
f 88/88/88 132/132/132 133/133/133
f 89/89/89 132/132/132 88/88/88
f 89/89/89 95/95/95 132/132/132
f 95/95/95 130/130/130 132/132/132
f 95/95/95 109/109/109 130/130/130
f 109/109/109 120/120/120 130/130/130
f 13/13/13 16/16/16 36/36/36
f 36/36/36 23/23/23 13/13/13
f 127/127/127 126/126/126 142/142/142
f 142/142/142 126/126/126 118/118/118
f 71/71/71 83/83/83 67/67/67
f 64/64/64 28/28/28 63/63/63
f 64/64/64 70/70/70 28/28/28
f 63/63/63 28/28/28 29/29/29
f 63/63/63 29/29/29 61/61/61
f 61/61/61 29/29/29 31/31/31
f 61/61/61 31/31/31 60/60/60
f 60/60/60 31/31/31 34/34/34
f 60/60/60 34/34/34 56/56/56
f 56/56/56 34/34/34 46/46/46
f 70/70/70 26/26/26 28/28/28
f 70/70/70 74/74/74 26/26/26
f 24/24/24 26/26/26 74/74/74
f 21/21/21 24/24/24 74/74/74
f 75/75/75 21/21/21 74/74/74
f 75/75/75 20/20/20 21/21/21
f 7/7/7 20/20/20 75/75/75
f 7/7/7 5/5/5 20/20/20
f 5/5/5 18/18/18 20/20/20
f 25/25/25 44/44/44 27/27/27
f 44/44/44 30/30/30 27/27/27
