g Choropoo_SoilHole
v 0.2493105 0.5438342 -1.191446
v -0.02377605 0.564537 0.04158354
v -0.4849477 0.5649409 -1.080476
v 0.8207734 0.5717702 -0.9104476
v 1.098773 0.5265851 -0.3429279
v 1.090638 0.5170755 0.5363693
v 0.5669208 0.5372367 1.0672
v -0.2121534 0.5388088 1.199706
v -0.990643 0.5586352 0.6525021
v -1.24398 0.5927048 0.02730656
v -1.054795 0.5528026 -0.57125
v 1.473819 0.8500967 -0.5406427
v 1.475562 0.8040438 0.7709885
v -1.606037 0.8240252 -0.8232386
v 1.010955 0.8726377 -1.215533
v 2.344903 0.940793 -1.137464
v 1.296952 1.112299 -2.067058
v 0.2171826 0.7795873 -1.705714
v 2.556878 0.982018 -0.022861
v 2.354189 0.9649148 0.5640817
v 2.150435 0.8285608 1.193409
v 2.218033 0.9186215 -2.265159
v 1.273037 0.5943112 -3.545771
v 2.398009 0.5256486 -2.784522
v 2.84833 0.2565651 -1.98106
v 1.729097 1.148396 1.58999
v 1.884436 1.108691 2.222367
v 1.003232 1.108691 1.975378
v 0.8051388 0.8693733 1.481142
v -0.2584553 0.8738489 1.797017
v 0.08975363 0.8476481 2.448464
v 1.177487 1.070387 2.605495
v 0.114202 0.6545463 3.640964
v 1.510611 0.5321169 3.390333
v 1.324502 -0.7230585 4.430493
v 1.907349E-06 -0.7230585 4.423337
v 2.095054 0.5369706 2.961788
v 2.631313 -0.7230585 3.710855
v 3.32615 -0.7230585 2.799869
v 2.99623 0.456677 2.099602
v 3.67076 -0.7230585 1.380876
v 3.649104 0.5528626 -1.907349E-06
v 2.587872 0.8302789 1.05196
v 4.533203 -0.723067 0.111114
v -0.4827228 0.9965787 3.080987
v -1.382388 0.7028584 3.119369
v -1.056445 1.146265 2.640947
v -2.701947 0.6010027 2.582147
v -0.7554655 1.154366 2.187095
v -1.425691 1.155045 1.74197
v -1.579364 -0.7230585 3.373848
v -2.729248 -0.7230585 3.239916
v -3.747003 -0.7230585 2.567844
v -4.250079 -0.7230585 1.621963
v -0.8052807 -0.7230585 4.097154
v -3.118526 0.6296258 1.514387
v -3.535098 0.4610753 0.4466348
v -2.589724 1.085549 1.107909
v -4.417221 -0.7230585 0.5292478
v -3.542889 0.2665129 -0.8110919
v -2.549375 0.9102373 -0.7131107
v -2.536214 1.152038 0.1808586
v -1.848301 1.059786 0.110899
v -2.435123 0.5382075 -2.06881
v -1.857845 0.8658943 -1.768973
v -0.8809528 0.9202538 -1.512372
v -3.352476 -0.7230585 -1.75096
v -3.347777 -0.7230585 -2.923204
v -1.961178 0.5759535 -2.991858
v -1.300891 1.031241 -2.194469
v -0.6075916 0.9916477 -2.657625
v -1.239968 0.735218 -3.332335
v -0.00260067 0.4622779 -3.651706
v -1.456599 -0.6779506 -4.577108
v 0.7318206 0.8579226 -2.497158
v -0.09310007 -0.7230585 -4.366593
v 1.306659 -0.7230585 -4.368827
v -2.710452 -0.7230585 -3.981884
v 2.532267 -0.7230585 -3.644765
v 3.288877 -0.723067 -2.315842
v 4.356654 -0.7230585 -1.193181
v 3.608892 0.5356307 -0.9569299
v 2.673449 0.8289986 -1.603086
v -2.331008 0.8167834 1.692765
v -1.643173 0.9325037 0.871933
v -1.837873 1.114782 2.126189
v -4.182456 -0.7230585 -0.8473003
vt 0.2531586 0.7990524
vt 0.2464164 0.7503206
vt 0.2216403 0.7927427
vt 0.282857 0.7794076
vt 0.2959387 0.7534382
vt 0.2919261 0.7290797
vt 0.2684478 0.708883
vt 0.2371086 0.7027971
vt 0.2034125 0.7275881
vt 0.1981918 0.7478445
vt 0.2042776 0.7705771
vt 0.3331102 0.7532442
vt 0.3244438 0.7123138
vt 0.1729831 0.7840316
vt 0.3110937 0.7998579
vt 0.3803653 0.7797059
vt 0.3048288 0.8484404
vt 0.2581257 0.8344787
vt 0.3752937 0.7490677
vt 0.3718032 0.722621
vt 0.3543212 0.6891039
vt 0.3605712 0.8482465
vt 0.3087369 0.9156088
vt 0.3646285 0.8924884
vt 0.3942225 0.8495741
vt 0.3293811 0.6715176
vt 0.3394795 0.6408346
vt 0.297475 0.6516788
vt 0.2838564 0.6774095
vt 0.22971 0.6668935
vt 0.2397338 0.6282601
vt 0.2927913 0.619549
vt 0.262168 0.5697731
vt 0.3212965 0.5887467
vt 0.3157327 0.5194602
vt 0.249862 0.5220855
vt 0.341702 0.6046177
vt 0.3844225 0.5561097
vt 0.4209526 0.6039912
vt 0.3914332 0.6410882
vt 0.4581988 0.6627616
vt 0.4275308 0.7511709
vt 0.3959677 0.7012011
vt 0.4748902 0.7492318
vt 0.222222 0.5992776
vt 0.1739825 0.5923117
vt 0.1820374 0.6282303
vt 0.1120498 0.6229051
vt 0.2080067 0.6492922
vt 0.176757 0.6689817
vt 0.1656294 0.5525596
vt 0.1042784 0.573353
vt 0.04914756 0.6161928
vt 0.02270087 0.665909
vt 0.2080813 0.5331385
vt 0.09134594 0.6759328
vt 0.07065696 0.7289754
vt 0.1317693 0.6917292
vt 0.01391514 0.7233519
vt 0.07026912 0.7914599
vt 0.1226404 0.7867315
vt 0.1204328 0.7299449
vt 0.1624671 0.744727
vt 0.1161369 0.8539296
vt 0.1582309 0.8428319
vt 0.2029799 0.822307
vt 0.05809738 0.8471726
vt 0.07013488 0.9048243
vt 0.1488336 0.8997825
vt 0.1855427 0.8643264
vt 0.2145103 0.8844187
vt 0.1837826 0.9166529
vt 0.246133 0.9358503
vt 0.1566497 0.9899817
vt 0.2752646 0.8713818
vt 0.2353484 0.9914584
vt 0.3095424 0.9845671
vt 0.103637 0.9604772
vt 0.3739661 0.95551
vt 0.4325725 0.8736491
vt 0.4678646 0.8158333
vt 0.4397622 0.7930858
vt 0.411615 0.8010959
vt 0.1464619 0.6575857
vt 0.1714766 0.7097332
vt 0.1606921 0.6458465
vt 0.02625096 0.7957111
vn -0.1239713 0.9511749 0.2826613
vn 0.0165993 0.9998339 0.007528879
vn 0.1319392 0.9529771 0.2728125
vn -0.2897725 0.9169334 0.274345
vn -0.2897725 0.9511749 0.1062932
vn -0.3474424 0.9277465 -0.1362725
vn -0.1257735 0.9439661 -0.3051378
vn 0.1247305 0.9529771 -0.2761827
vn 0.2130376 0.9673945 -0.1369775
vn 0.3696738 0.9291615 0
vn 0.2094332 0.9637902 0.165064
vn -0.3636621 0.9259443 0.1018684
vn -0.228498 0.9583836 -0.1711417
vn 0.1211261 0.9926252 0.00487059
vn -0.2681462 0.9079224 0.3221404
vn 0.1535655 0.9872186 0.04262824
vn -0.08252096 0.9944274 -0.06560845
vn -0.04827946 0.9854165 0.1631671
vn 0.1607381 0.9869971 0
vn -0.01403791 0.9944274 0.1044851
vn 0.2344987 0.9721165 0
vn 0.4347065 0.8574612 -0.2753009
vn 0.1409501 0.8322306 -0.5362138
vn 0.6167274 0.585331 -0.5263411
vn 0.719452 0.5114414 -0.4699112
vn 0.06525832 0.9691967 -0.2374848
vn 0.3121579 0.9349552 0.1685713
vn -0.1383888 0.9890208 -0.05183146
vn -0.2537287 0.8736809 -0.4150945
vn 0.06165391 0.9385596 -0.3395654
vn 0.07967579 0.9926252 0.0913621
vn 0.04903865 0.9457683 0.3211192
vn -0.111356 0.7259015 0.6787243
vn 0.3175644 0.7024731 0.6369336
vn 0.2004223 0.5601004 0.8038149
vn -0.169026 0.4970239 0.8511155
vn 0.4761568 0.6934622 0.5407262
vn 0.5158049 0.5763201 0.6338773
vn 0.7392761 0.5042326 0.4463412
vn 0.6077164 0.7349125 0.3009724
vn 0.8438029 0.4195299 0.3346512
vn 0.5951011 0.7925825 0.1329199
vn 0.245477 0.9511749 0.1871025
vn 0.8203744 0.5601004 0.1152101
vn 0.09409326 0.9367574 0.3370935
vn -0.3005856 0.5763201 0.7599365
vn -0.1275756 0.9475705 0.2929755
vn -0.4681889 0.7060775 0.5312755
vn 0.2220485 0.9691967 -0.1065463
vn -0.111356 0.9854165 -0.1286633
vn -0.3528489 0.372673 0.8582613
vn -0.3132009 0.4285408 0.847501
vn -0.6339901 0.4952217 0.5939798
vn -0.7511322 0.6123639 0.2465987
vn -0.450167 0.5366719 0.7136756
vn -0.5474851 0.7961869 0.2575783
vn -0.6736382 0.7385169 0.02836237
vn -0.1654215 0.9637902 0.2091509
vn -0.8124065 0.5817266 -0.03987273
vn -0.7078797 0.6339901 -0.3113886
vn -0.2483222 0.9385596 -0.2396705
vn -0.2483222 0.9637902 -0.09718269
vn 0.2959382 0.9529771 -0.0652317
vn -0.5601004 0.7997912 -0.2159205
vn -0.324014 0.9457683 0.02317922
vn 0.1265327 0.9565814 0.2625671
vn -0.7655497 0.4970239 -0.4085351
vn -0.7150884 0.6574184 -0.2375911
vn -0.4735954 0.7925825 -0.3840839
vn -0.1744325 0.9818121 -0.07495594
vn 0.1409501 0.9800099 -0.1404057
vn -0.1762347 0.8556589 -0.4866098
vn 0.03462112 0.8051978 -0.5919949
vn -0.1744325 0.643001 -0.7457365
vn -0.226696 0.9511749 -0.2094641
vn 0.07426924 0.5114414 -0.8561026
vn 0.2472792 0.5294632 -0.8114935
vn -0.4970239 0.6880557 -0.5287216
vn 0.7068367 0.4753976 -0.5238119
vn 0.6996279 0.4916174 -0.5184911
vn 0.7266607 0.5168479 -0.4525842
vn 0.632947 0.7313082 -0.2540992
vn 0.5085962 0.8088022 -0.2952439
vn -0.2699484 0.9583836 0.09289061
vn 0.2671032 0.9493727 -0.1653703
vn -0.3150031 0.9475705 0.0536954
vn -0.769154 0.5114414 -0.3831837
g Choropoo_SoilHole_0
f 3/3/3 2/2/2 1/1/1
f 4/4/4 1/1/1 2/2/2
f 5/5/5 4/4/4 2/2/2
f 2/2/2 6/6/6 5/5/5
f 7/7/7 6/6/6 2/2/2
f 7/7/7 2/2/2 8/8/8
f 2/2/2 9/9/9 8/8/8
f 10/10/10 9/9/9 2/2/2
f 11/11/11 10/10/10 2/2/2
f 3/3/3 11/11/11 2/2/2
f 4/4/4 5/5/5 12/12/12
f 12/12/12 5/5/5 6/6/6
f 12/12/12 6/6/6 13/13/13
f 10/10/10 11/11/11 14/14/14
f 1/1/1 4/4/4 15/15/15
f 15/15/15 4/4/4 12/12/12
f 15/15/15 12/12/12 16/16/16
f 15/15/15 16/16/16 17/17/17
f 17/17/17 18/18/18 15/15/15
f 19/19/19 16/16/16 12/12/12
f 20/20/20 19/19/19 12/12/12
f 12/12/12 13/13/13 20/20/20
f 13/13/13 21/21/21 20/20/20
f 16/16/16 22/22/22 17/17/17
f 22/22/22 23/23/23 17/17/17
f 22/22/22 24/24/24 23/23/23
f 22/22/22 25/25/25 24/24/24
f 26/26/26 21/21/21 13/13/13
f 27/27/27 21/21/21 26/26/26
f 26/26/26 28/28/28 27/27/27
f 26/26/26 29/29/29 28/28/28
f 29/29/29 30/30/30 28/28/28
f 31/31/31 28/28/28 30/30/30
f 28/28/28 31/31/31 32/32/32
f 27/27/27 28/28/28 32/32/32
f 32/32/32 31/31/31 33/33/33
f 32/32/32 33/33/33 34/34/34
f 34/34/34 33/33/33 35/35/35
f 33/33/33 36/36/36 35/35/35
f 32/32/32 34/34/34 37/37/37
f 27/27/27 32/32/32 37/37/37
f 38/38/38 37/37/37 34/34/34
f 38/38/38 34/34/34 35/35/35
f 38/38/38 39/39/39 37/37/37
f 39/39/39 40/40/40 37/37/37
f 27/27/27 37/37/37 40/40/40
f 39/39/39 41/41/41 40/40/40
f 42/42/42 40/40/40 41/41/41
f 43/43/43 40/40/40 42/42/42
f 43/43/43 21/21/21 40/40/40
f 44/44/44 42/42/42 41/41/41
f 45/45/45 33/33/33 31/31/31
f 45/45/45 46/46/46 33/33/33
f 47/47/47 46/46/46 45/45/45
f 47/47/47 48/48/48 46/46/46
f 49/49/49 47/47/47 45/45/45
f 49/49/49 50/50/50 47/47/47
f 46/46/46 48/48/48 51/51/51
f 48/48/48 52/52/52 51/51/51
f 48/48/48 53/53/53 52/52/52
f 48/48/48 54/54/54 53/53/53
f 46/46/46 51/51/51 33/33/33
f 33/33/33 51/51/51 55/55/55
f 20/20/20 21/21/21 43/43/43
f 20/20/20 43/43/43 19/19/19
f 48/48/48 56/56/56 54/54/54
f 56/56/56 57/57/57 54/54/54
f 57/57/57 56/56/56 58/58/58
f 59/59/59 54/54/54 57/57/57
f 60/60/60 59/59/59 57/57/57
f 61/61/61 60/60/60 57/57/57
f 61/61/61 57/57/57 62/62/62
f 62/62/62 57/57/57 58/58/58
f 63/63/63 62/62/62 58/58/58
f 63/63/63 61/61/61 62/62/62
f 61/61/61 63/63/63 14/14/14
f 61/61/61 14/14/14 64/64/64
f 61/61/61 64/64/64 60/60/60
f 64/64/64 14/14/14 65/65/65
f 65/65/65 14/14/14 66/66/66
f 60/60/60 64/64/64 67/67/67
f 64/64/64 68/68/68 67/67/67
f 69/69/69 68/68/68 64/64/64
f 65/65/65 69/69/69 64/64/64
f 70/70/70 65/65/65 66/66/66
f 65/65/65 70/70/70 69/69/69
f 71/71/71 70/70/70 66/66/66
f 72/72/72 70/70/70 71/71/71
f 72/72/72 69/69/69 70/70/70
f 71/71/71 73/73/73 72/72/72
f 71/71/71 18/18/18 73/73/73
f 71/71/71 66/66/66 18/18/18
f 72/72/72 73/73/73 74/74/74
f 72/72/72 74/74/74 69/69/69
f 75/75/75 73/73/73 18/18/18
f 73/73/73 76/76/76 74/74/74
f 73/73/73 77/77/77 76/76/76
f 74/74/74 78/78/78 69/69/69
f 69/69/69 78/78/78 68/68/68
f 73/73/73 23/23/23 77/77/77
f 75/75/75 23/23/23 73/73/73
f 17/17/17 75/75/75 18/18/18
f 75/75/75 17/17/17 23/23/23
f 23/23/23 24/24/24 77/77/77
f 24/24/24 79/79/79 77/77/77
f 24/24/24 25/25/25 79/79/79
f 25/25/25 80/80/80 79/79/79
f 25/25/25 81/81/81 80/80/80
f 25/25/25 82/82/82 81/81/81
f 25/25/25 83/83/83 82/82/82
f 82/82/82 83/83/83 16/16/16
f 82/82/82 44/44/44 81/81/81
f 25/25/25 22/22/22 83/83/83
f 83/83/83 22/22/22 16/16/16
f 82/82/82 16/16/16 42/42/42
f 82/82/82 42/42/42 44/44/44
f 19/19/19 42/42/42 16/16/16
f 43/43/43 42/42/42 19/19/19
f 27/27/27 40/40/40 21/21/21
f 56/56/56 48/48/48 84/84/84
f 58/58/58 56/56/56 84/84/84
f 58/58/58 84/84/84 85/85/85
f 63/63/63 58/58/58 85/85/85
f 85/85/85 10/10/10 63/63/63
f 86/86/86 84/84/84 48/48/48
f 47/47/47 86/86/86 48/48/48
f 50/50/50 84/84/84 86/86/86
f 50/50/50 85/85/85 84/84/84
f 50/50/50 86/86/86 47/47/47
f 49/49/49 85/85/85 50/50/50
f 49/49/49 30/30/30 85/85/85
f 30/30/30 8/8/8 85/85/85
f 49/49/49 31/31/31 30/30/30
f 49/49/49 45/45/45 31/31/31
f 85/85/85 9/9/9 10/10/10
f 8/8/8 9/9/9 85/85/85
f 63/63/63 10/10/10 14/14/14
f 7/7/7 8/8/8 30/30/30
f 29/29/29 7/7/7 30/30/30
f 6/6/6 7/7/7 29/29/29
f 13/13/13 6/6/6 29/29/29
f 26/26/26 13/13/13 29/29/29
f 14/14/14 11/11/11 66/66/66
f 11/11/11 3/3/3 66/66/66
f 66/66/66 3/3/3 18/18/18
f 3/3/3 1/1/1 18/18/18
f 18/18/18 1/1/1 15/15/15
f 60/60/60 67/67/67 87/87/87
f 60/60/60 87/87/87 59/59/59
f 33/33/33 55/55/55 36/36/36
