g Cmn_Arrow_03_board27
v -65.28835 69.49747 231.5813
v -68.07097 69.68915 233.6349
v -67.94887 69.49027 233.5446
v -65.08669 69.29303 231.4325
v -65.23418 70.70922 231.5413
v -65.01566 70.88486 231.3801
v -68.01696 70.90106 233.5949
v -67.87782 71.08209 233.4923
v -67.98782 71.55514 233.5733
v -67.84345 71.85566 233.4666
v -70.25811 70.44765 235.2488
v -70.60283 70.47139 235.5033
v -67.98357 68.71654 233.57
v -68.10027 69.03506 233.6563
v -65.08669 69.29303 231.4325
v -67.94887 69.49027 233.5446
v -64.99159 68.3733 231.3623
v -67.98357 68.71654 233.57
v -70.76602 68.73978 235.6228
v -69.11969 68.96714 234.4081
v -70.60283 70.47139 235.5033
v -70.74736 69.158 235.609
v -70.6115 72.20251 235.5089
v -67.84345 71.85566 233.4666
v -64.84052 71.75549 231.2509
v -67.87782 71.08209 233.4923
v -70.75522 68.984 235.6148
v -65.01566 70.88486 231.3801
v -66.03361 71.18211 232.1314
v -64.86572 71.19209 231.2695
v -64.87374 71.01105 231.2755
v -68.01696 70.90106 233.5949
v -68.07097 69.68915 233.6349
v -65.28835 69.49747 231.5813
v -65.23418 70.70922 231.5413
v -70.25811 70.44765 235.2488
v -68.10027 69.03506 233.6563
v -67.98782 71.55514 233.5733
v -65.22992 65.79888 231.2873
v -64.98946 65.78235 231.11
v -64.5999 72.22952 230.8224
v -64.93709 72.27747 231.0714
v -64.93709 72.27747 231.0714
v -64.5999 72.22952 230.8224
v -64.38367 72.22952 231.1154
v -64.72086 72.27747 231.3644
v -64.72086 72.27747 231.3644
v -64.38367 72.22952 231.1154
v -64.77324 65.78235 231.403
v -65.01369 65.79888 231.5803
v -65.01369 65.79888 231.5803
v -64.77324 65.78235 231.403
v -64.98946 65.78235 231.11
v -65.22992 65.79888 231.2873
v -64.98946 65.78235 231.11
v -64.77324 65.78235 231.403
v -64.38367 72.22952 231.1154
v -64.5999 72.22952 230.8224
v -65.01369 65.79888 231.5803
v -65.22992 65.79888 231.2873
v -64.93709 72.27747 231.0714
v -64.72086 72.27747 231.3644
v -71.24348 66.20236 235.7251
v -71.0032 66.18583 235.5476
v -70.71053 72.66312 235.3318
v -70.99534 72.67032 235.5421
v -70.99534 72.67032 235.5421
v -70.71053 72.66312 235.3318
v -70.49431 72.66312 235.6248
v -70.77911 72.67032 235.8351
v -70.77911 72.67032 235.8351
v -70.49431 72.66312 235.6248
v -70.78697 66.18583 235.8408
v -71.02726 66.20236 236.0181
v -71.02726 66.20236 236.0181
v -70.78697 66.18583 235.8408
v -71.0032 66.18583 235.5476
v -71.24348 66.20236 235.7251
v -71.0032 66.18583 235.5476
v -70.78697 66.18583 235.8408
v -70.49431 72.66312 235.6248
v -70.71053 72.66312 235.3318
v -71.02726 66.20236 236.0181
v -71.24348 66.20236 235.7251
v -70.99534 72.67032 235.5421
v -70.77911 72.67032 235.8351
v -70.68664 72.20251 235.4069
v -64.91614 71.75549 231.1485
v -64.90337 72.04308 231.1392
v -70.67616 72.43871 235.3992
v -70.67616 72.43871 235.3992
v -64.90337 72.04308 231.1392
v -64.79861 72.15569 231.2704
v -70.57156 72.55132 235.5305
v -70.6115 72.20251 235.5089
v -64.84084 71.75549 231.2505
v -64.91614 71.75549 231.1485
v -70.68664 72.20251 235.4069
v -70.57156 72.55132 235.5305
v -64.79861 72.15569 231.2704
v -64.9839 68.00337 231.4071
v -70.75538 68.42976 235.6662
v -70.85506 68.42976 235.5311
v -65.08359 68.00337 231.2721
v -65.07033 68.29915 231.2624
v -70.84442 68.66547 235.5234
v -70.84442 68.66547 235.5234
v -65.07033 68.29915 231.2624
v -64.99176 68.3733 231.3619
v -70.76602 68.73978 235.623
v -70.75538 68.42976 235.6662
v -64.9839 68.00337 231.4071
v -65.08359 68.00337 231.2721
v -70.85506 68.42976 235.5311
v -70.75522 68.984 235.6148
v -69.11969 68.96714 234.4081
v -70.74736 69.158 235.609
v -66.03361 71.18211 232.1314
v -64.87374 71.01105 231.2755
v -64.86572 71.19209 231.2695
vt 0.1400188 0.03968333
vt 0.1400188 0.5389249
vt 0.1125868 0.5154966
vt 0.1125868 0.001990928
vt 0.3149475 0.03968333
vt 0.3423795 0.001990928
vt 0.3149475 0.5389249
vt 0.3423795 0.5154966
vt 0.4093764 0.5389249
vt 0.4540562 0.5154966
vt 0.2274755 0.9361566
vt 0.2274755 0.9980081
vt 0.0009100875 0.5154966
vt 0.04558989 0.5389249
vt 0.1316918 0.02541928
vt 0.1316918 0.5192567
vt 0.005309564 0.001990928
vt 0.02429277 0.5192567
vt 0.0009557568 0.9980081
vt 0.04813215 0.7165938
vt 0.242181 0.9833025
vt 0.05901667 0.9980081
vt 0.4817013 0.9980081
vt 0.4600845 0.5192567
vt 0.474851 0.001990928
vt 0.3526855 0.5192567
vt 0.03485761 0.9980081
vt 0.3526855 0.02541928
vt 0.3841213 0.2028141
vt 0.3966346 0.001990928
vt 0.3715165 0.001990928
vt 0.3000745 0.5566751
vt 0.1057211 0.5566751
vt 0.1057211 0.001990928
vt 0.3000745 0.001990928
vt 0.2029054 0.9980081
vt 0.0008035258 0.5566751
vt 0.4050074 0.5566751
vt 0.001092765 0.001990928
vt 0.0701752 0.001990928
vt 0.09833794 0.9922994
vt 0.001092765 0.9980081
vt 0.3904541 0.0992361
vt 0.3904541 0.001990928
vt 0.4745465 0.001990928
vt 0.4745465 0.0992361
vt 0.105919 0.001990928
vt 0.2031642 0.007699591
vt 0.1749863 0.9980081
vt 0.105919 0.9980081
vt 0.4804074 0.001990928
vt 0.5494898 0.001990928
vt 0.5494898 0.08606812
vt 0.4804074 0.08606812
vt 0.3005008 0.001990928
vt 0.3845932 0.001990928
vt 0.3845932 0.9922994
vt 0.3005008 0.9922994
vt 0.2105626 0.001990928
vt 0.2946399 0.001990928
vt 0.2946399 0.9980081
vt 0.2105626 0.9980081
vt 0.01369749 0.001990928
vt 0.08279515 0.001990928
vt 0.08279515 0.9980081
vt 0.001031872 0.9951614
vt 0.3590031 0.001990928
vt 0.4407664 0.001990928
vt 0.4407664 0.08609857
vt 0.3590031 0.08609857
vt 0.08883873 0.004837648
vt 0.170602 0.001990928
vt 0.170602 0.9980081
vt 0.1015043 0.9980081
vt 0.4466273 0.001990928
vt 0.515725 0.001990928
vt 0.515725 0.08609857
vt 0.4466273 0.08609857
vt 0.1764629 0.001990928
vt 0.2605706 0.001990928
vt 0.2605706 0.9980081
vt 0.1764629 0.9980081
vt 0.2677406 0.001990928
vt 0.3518483 0.001990928
vt 0.3518483 0.9951614
vt 0.2677406 0.9951614
vt 0.008338961 0.9980081
vt 0.001503789 0.001990928
vt 0.04141876 0.001990928
vt 0.04112953 0.9980081
vt 0.04112953 0.9980081
vt 0.04141876 0.001990928
vt 0.05705289 0.001990928
vt 0.05676365 0.9980081
vt 0.06285289 0.9980081
vt 0.06285289 0.001990928
vt 0.08042035 0.001990928
vt 0.08042035 0.9980081
vt 0.08654004 0.9980081
vt 0.0862508 0.001990928
vt 0.6626888 0.001990928
vt 0.6587307 0.9980081
vt 0.6732231 0.9980081
vt 0.6692652 0.001990928
vt 0.7103066 0.001990928
vt 0.7059528 0.9980081
vt 0.7059528 0.9980081
vt 0.7103066 0.001990928
vt 0.7206127 0.001990928
vt 0.7162589 0.9980081
vt 0.7268389 0.9980081
vt 0.7268389 0.001990928
vt 0.7500998 0.001990928
vt 0.7500998 0.9980081
vt 0.0003620558 0.9980081
vt 0.04735577 0.001990928
vt 0.085855 0.9980081
vt 0.1370807 0.7127423
vt 0.09247705 0.001990928
vt 0.1813952 0.001990928
vn -0.5934969 -0.000315249 -0.8048362
vn -0.5934969 -0.000315249 -0.8048362
vn -0.5934969 -0.000315249 -0.8048362
vn -0.5934969 -0.000315249 -0.8048362
vn -0.5934969 -0.000315249 -0.8048362
vn -0.5934969 -0.000315249 -0.8048362
vn -0.5934969 -0.000315249 -0.8048362
vn -0.5934969 -0.000315249 -0.8048362
vn -0.5934969 -0.000315249 -0.8048362
vn -0.5934969 -0.000315249 -0.8048362
vn -0.5934969 -0.000315249 -0.8048362
vn -0.5934969 -0.000315249 -0.8048362
vn -0.5934969 -0.000315249 -0.8048362
vn -0.5934969 -0.000315249 -0.8048362
vn -0.5934969 -0.000315249 -0.8048362
vn -0.5934969 -0.000315249 -0.8048362
vn -0.5934969 -0.000315249 -0.8048362
vn -0.5934969 -0.000315249 -0.8048362
vn -0.5934969 -0.000315249 -0.8048362
vn -0.5934969 -0.000315249 -0.8048362
vn -0.5934969 -0.000315249 -0.8048362
vn -0.5934969 -0.000315249 -0.8048362
vn -0.5934969 -0.000315249 -0.8048362
vn -0.5934969 -0.000315249 -0.8048362
vn -0.5934969 -0.000315249 -0.8048362
vn -0.5934969 -0.000315249 -0.8048362
vn -0.5934969 -0.000315249 -0.8048362
vn -0.5934969 -0.000315249 -0.8048362
vn -0.5934969 -0.000315249 -0.8048362
vn -0.5934969 -0.000315249 -0.8048362
vn -0.5934969 -0.000315249 -0.8048362
vn -0.5934969 -0.000315249 -0.8048362
vn -0.5934969 -0.000315249 -0.8048362
vn -0.5934969 -0.000315249 -0.8048362
vn -0.5934969 -0.000315249 -0.8048362
vn -0.5934969 -0.000315249 -0.8048362
vn -0.5934969 -0.000315249 -0.8048362
vn -0.5934969 -0.000315249 -0.8048362
vn -0.5934969 -0.000315249 -0.8048362
vn -0.5934969 -0.000315249 -0.8048362
vn -0.5934969 -0.000315249 -0.8048362
vn -0.5934969 -0.000315249 -0.8048362
vn 0.09212178 0.9939295 -0.06014735
vn 0.09212178 0.9939295 -0.06014735
vn 0.09212178 0.9939295 -0.06014735
vn 0.09212178 0.9939295 -0.06014735
vn 0.5941275 -0.000315249 0.8043708
vn 0.5941275 -0.000315249 0.8043708
vn 0.5941275 -0.000315249 0.8043708
vn 0.5941275 -0.000315249 0.8043708
vn -0.04461133 -0.9984667 0.03277218
vn -0.04461133 -0.9984667 0.03277218
vn -0.04461133 -0.9984667 0.03277218
vn -0.04461133 -0.9984667 0.03277218
vn 0.8031337 -0.07454181 -0.5911174
vn 0.8031337 -0.07454181 -0.5911174
vn 0.8031337 -0.07454181 -0.5911174
vn 0.8031337 -0.07454181 -0.5911174
vn -0.8025032 0.05633128 0.5939826
vn -0.8025032 0.05633128 0.5939826
vn -0.8025032 0.05633128 0.5939826
vn -0.8025032 0.05633128 0.5939826
vn -0.5934969 -0.000315249 -0.8048362
vn -0.5934969 -0.000315249 -0.8048362
vn -0.5934969 -0.000315249 -0.8048362
vn -0.5934969 -0.000315249 -0.8048362
vn 0.01594192 0.9997895 -0.0129164
vn 0.01594192 0.9997895 -0.0129164
vn 0.01594192 0.9997895 -0.0129164
vn 0.01594192 0.9997895 -0.0129164
vn 0.5941275 -0.000315249 0.8043708
vn 0.5941275 -0.000315249 0.8043708
vn 0.5941275 -0.000315249 0.8043708
vn 0.5941275 -0.000315249 0.8043708
vn -0.04461133 -0.9984667 0.03277218
vn -0.04461133 -0.9984667 0.03277218
vn -0.04461133 -0.9984667 0.03277218
vn -0.04461133 -0.9984667 0.03277218
vn 0.8031337 -0.05696183 -0.5930696
vn 0.8031337 -0.05696183 -0.5930696
vn 0.8031337 -0.05696183 -0.5930696
vn 0.8031337 -0.05696183 -0.5930696
vn -0.8044566 0.04851794 0.5920267
vn -0.8044566 0.04851794 0.5920267
vn -0.8044566 0.04851794 0.5920267
vn -0.8044566 0.04851794 0.5920267
vn -0.5934969 -0.000315249 -0.8048362
vn -0.5934969 -0.000315249 -0.8048362
vn -0.5934969 -0.000315249 -0.8048362
vn -0.5934969 -0.000315249 -0.8048362
vn -0.2946376 0.8278965 -0.477259
vn -0.2946376 0.8278965 -0.477259
vn -0.2946376 0.8278965 -0.477259
vn -0.2946376 0.8278965 -0.477259
vn -0.05047131 -0.9984667 0.02273525
vn -0.05047131 -0.9984667 0.02273525
vn -0.05047131 -0.9984667 0.02273525
vn -0.05047131 -0.9984667 0.02273525
vn 0.5941275 -0.000315249 0.8043708
vn 0.5941275 -0.000315249 0.8043708
vn 0.5941275 -0.000315249 0.8043708
vn 0.5941275 -0.000315249 0.8043708
vn -0.5934969 -0.000315249 -0.8048362
vn -0.5934969 -0.000315249 -0.8048362
vn -0.5934969 -0.000315249 -0.8048362
vn -0.5934969 -0.000315249 -0.8048362
vn -0.2653376 0.8611032 -0.4337018
vn -0.2653376 0.8611032 -0.4337018
vn -0.2653376 0.8611032 -0.4337018
vn -0.2653376 0.8611032 -0.4337018
vn -0.04851794 -0.9984667 0.0266505
vn -0.04851794 -0.9984667 0.0266505
vn -0.04851794 -0.9984667 0.0266505
vn -0.04851794 -0.9984667 0.0266505
vn -0.5934969 -0.000315249 -0.8048362
vn -0.5934969 -0.000315249 -0.8048362
vn -0.5934969 -0.000315249 -0.8048362
vn -0.5934969 -0.000315249 -0.8048362
vn -0.5934969 -0.000315249 -0.8048362
vn -0.5934969 -0.000315249 -0.8048362
g Cmn_Arrow_03_board27_0
f 3/3/3 2/2/2 1/1/1
f 4/4/4 3/3/3 1/1/1
f 4/4/4 1/1/1 5/5/5
f 6/6/6 4/4/4 5/5/5
f 6/6/6 5/5/5 7/7/7
f 8/8/8 6/6/6 7/7/7
f 8/8/8 7/7/7 9/9/9
f 10/10/10 8/8/8 9/9/9
f 10/10/10 9/9/9 11/11/11
f 12/12/12 10/10/10 11/11/11
f 3/3/3 13/13/13 2/2/2
f 13/13/13 14/14/14 2/2/2
f 12/12/12 11/11/11 14/14/14
f 13/13/13 12/12/12 14/14/14
f 17/17/17 16/16/16 15/15/15
f 17/17/17 18/18/18 16/16/16
f 19/19/19 18/18/18 17/17/17
f 20/20/20 18/18/18 19/19/19
f 21/21/21 18/18/18 20/20/20
f 22/22/22 21/21/21 20/20/20
f 23/23/23 21/21/21 22/22/22
f 23/23/23 24/24/24 21/21/21
f 25/25/25 24/24/24 23/23/23
f 25/25/25 26/26/26 24/24/24
f 27/27/27 20/20/20 19/19/19
f 17/17/17 15/15/15 28/28/28
f 29/29/29 28/28/28 26/26/26
f 25/25/25 29/29/29 26/26/26
f 25/25/25 30/30/30 29/29/29
f 31/31/31 17/17/17 28/28/28
f 29/29/29 31/31/31 28/28/28
f 34/34/34 33/33/33 32/32/32
f 35/35/35 34/34/34 32/32/32
f 33/33/33 36/36/36 32/32/32
f 37/37/37 36/36/36 33/33/33
f 36/36/36 38/38/38 32/32/32
f 41/41/41 40/40/40 39/39/39
f 42/42/42 41/41/41 39/39/39
f 45/45/45 44/44/44 43/43/43
f 46/46/46 45/45/45 43/43/43
f 49/49/49 48/48/48 47/47/47
f 50/50/50 49/49/49 47/47/47
f 53/53/53 52/52/52 51/51/51
f 54/54/54 53/53/53 51/51/51
f 57/57/57 56/56/56 55/55/55
f 58/58/58 57/57/57 55/55/55
f 61/61/61 60/60/60 59/59/59
f 62/62/62 61/61/61 59/59/59
f 65/65/65 64/64/64 63/63/63
f 66/66/66 65/65/65 63/63/63
f 69/69/69 68/68/68 67/67/67
f 70/70/70 69/69/69 67/67/67
f 73/73/73 72/72/72 71/71/71
f 74/74/74 73/73/73 71/71/71
f 77/77/77 76/76/76 75/75/75
f 78/78/78 77/77/77 75/75/75
f 81/81/81 80/80/80 79/79/79
f 82/82/82 81/81/81 79/79/79
f 85/85/85 84/84/84 83/83/83
f 86/86/86 85/85/85 83/83/83
f 89/89/89 88/88/88 87/87/87
f 90/90/90 89/89/89 87/87/87
f 93/93/93 92/92/92 91/91/91
f 94/94/94 93/93/93 91/91/91
f 97/97/97 96/96/96 95/95/95
f 98/98/98 97/97/97 95/95/95
f 101/101/101 100/100/100 99/99/99
f 102/102/102 101/101/101 99/99/99
f 105/105/105 104/104/104 103/103/103
f 106/106/106 105/105/105 103/103/103
f 109/109/109 108/108/108 107/107/107
f 110/110/110 109/109/109 107/107/107
f 113/113/113 112/112/112 111/111/111
f 114/114/114 113/113/113 111/111/111
f 117/117/117 116/116/116 115/115/115
f 120/120/120 119/119/119 118/118/118
