g Cmn_Arrow_03_board29
v 231.9405 62.99983 204.3521
v 228.8116 63.2628 208.5274
v 228.9456 62.9641 208.3402
v 232.1639 62.69344 204.0453
v 232.0218 64.82793 204.298
v 232.2707 65.09474 203.9742
v 228.8924 65.0909 208.4734
v 229.0524 65.36537 208.2687
v 228.9362 66.07771 208.444
v 229.1039 66.53221 208.2338
v 226.3622 64.38622 211.8228
v 225.9745 64.41856 212.3402
v 228.8933 61.79683 208.3747
v 228.7677 62.27599 208.5568
v 232.1639 62.69344 204.0453
v 228.9456 62.9641 208.3402
v 232.2558 61.30748 203.8823
v 228.8933 61.79683 208.3747
v 225.7613 61.80577 212.5453
v 227.6184 62.16408 210.0828
v 225.9745 64.41856 212.3402
v 225.7894 62.43642 212.5266
v 225.9937 67.02922 212.3905
v 229.1039 66.53221 208.2338
v 232.4827 66.40923 203.7308
v 229.0524 65.36537 208.2687
v 225.7779 62.17387 212.5343
v 232.2707 65.09474 203.9742
v 231.1299 65.53346 205.5065
v 232.4448 65.55943 203.7563
v 232.4324 65.28667 203.7644
v 228.8924 65.0909 208.4734
v 228.8116 63.2628 208.5274
v 231.9405 62.99983 204.3521
v 232.0218 64.82793 204.298
v 226.3622 64.38622 211.8228
v 228.7677 62.27599 208.5568
v 228.9362 66.07771 208.444
v 231.9222 59.32533 203.761
v 232.1924 59.30235 203.4006
v 232.6529 67.13304 203.018
v 232.2741 67.20241 203.5248
v 232.2741 67.20241 203.5248
v 232.6529 67.13304 203.018
v 233.092 67.1237 203.3478
v 232.7133 67.19264 203.8546
v 232.7133 67.19264 203.8546
v 233.092 67.1237 203.3478
v 232.6316 59.29256 203.7304
v 232.3614 59.31554 204.0908
v 232.3614 59.31554 204.0908
v 232.6316 59.29256 203.7304
v 232.1924 59.30235 203.4006
v 231.9222 59.32533 203.761
v 232.1924 59.30235 203.4006
v 232.6316 59.29256 203.7304
v 233.092 67.1237 203.3478
v 232.6529 67.13304 203.018
v 232.3614 59.31554 204.0908
v 231.9222 59.32533 203.761
v 232.2741 67.20241 203.5248
v 232.7133 67.19264 203.8546
v 225.16 59.87682 212.7841
v 225.4303 59.85426 212.4236
v 225.7818 67.72923 212.1875
v 225.4613 67.73775 212.6147
v 225.4613 67.73775 212.6147
v 225.7818 67.72923 212.1875
v 226.2209 67.71944 212.5173
v 225.9005 67.72795 212.9445
v 225.9005 67.72795 212.9445
v 226.2209 67.71944 212.5173
v 225.8694 59.84447 212.7534
v 225.5992 59.86705 213.1138
v 225.5992 59.86705 213.1138
v 225.8694 59.84447 212.7534
v 225.4303 59.85426 212.4236
v 225.16 59.87682 212.7841
v 225.4303 59.85426 212.4236
v 225.8694 59.84447 212.7534
v 226.2209 67.71944 212.5173
v 225.7818 67.72923 212.1875
v 225.5992 59.86705 213.1138
v 225.16 59.87682 212.7841
v 225.4613 67.73775 212.6147
v 225.9005 67.72795 212.9445
v 225.8409 67.03264 212.2756
v 232.329 66.41261 203.6159
v 232.3482 66.84666 203.6027
v 225.8566 67.38881 212.2649
v 225.8566 67.38881 212.2649
v 232.3482 66.84666 203.6027
v 232.5584 67.01176 203.75
v 226.0669 67.55434 212.4117
v 225.9937 67.02922 212.3905
v 232.4818 66.40923 203.7304
v 232.329 66.41261 203.6159
v 225.8409 67.03264 212.2756
v 226.0669 67.55434 212.4117
v 232.5584 67.01176 203.75
v 232.2801 60.74831 203.9359
v 225.7907 61.33684 212.5964
v 225.5881 61.34151 212.4445
v 232.0775 60.75258 203.784
v 232.0975 61.19896 203.7704
v 225.6039 61.69725 212.4339
v 225.6039 61.69725 212.4339
v 232.0975 61.19896 203.7704
v 232.2554 61.30748 203.8819
v 225.7617 61.80577 212.5453
v 225.7907 61.33684 212.5964
v 232.2801 60.74831 203.9359
v 232.0775 60.75258 203.784
v 225.5881 61.34151 212.4445
v 225.7779 62.17387 212.5343
v 227.6184 62.16408 210.0828
v 225.7894 62.43642 212.5266
v 231.1299 65.53346 205.5065
v 232.4324 65.28667 203.7644
v 232.4448 65.55943 203.7563
vt 0.1400188 0.03968333
vt 0.1400188 0.5389249
vt 0.1125868 0.5154966
vt 0.1125868 0.001990928
vt 0.3149475 0.03968333
vt 0.3423795 0.001990928
vt 0.3149475 0.5389249
vt 0.3423795 0.5154966
vt 0.4093764 0.5389249
vt 0.4540562 0.5154966
vt 0.2274755 0.9361566
vt 0.2274755 0.9980081
vt 0.0009100875 0.5154966
vt 0.04558989 0.5389249
vt 0.1316918 0.02541928
vt 0.1316918 0.5192567
vt 0.005309564 0.001990928
vt 0.02429277 0.5192567
vt 0.0009557568 0.9980081
vt 0.04813215 0.7165938
vt 0.242181 0.9833025
vt 0.05901667 0.9980081
vt 0.4817013 0.9980081
vt 0.4600845 0.5192567
vt 0.474851 0.001990928
vt 0.3526855 0.5192567
vt 0.03485761 0.9980081
vt 0.3526855 0.02541928
vt 0.3841213 0.2028141
vt 0.3966346 0.001990928
vt 0.3715165 0.001990928
vt 0.3000745 0.5566751
vt 0.1057211 0.5566751
vt 0.1057211 0.001990928
vt 0.3000745 0.001990928
vt 0.2029054 0.9980081
vt 0.0008035258 0.5566751
vt 0.4050074 0.5566751
vt 0.001092765 0.001990928
vt 0.0701752 0.001990928
vt 0.09833794 0.9922994
vt 0.001092765 0.9980081
vt 0.3904541 0.0992361
vt 0.3904541 0.001990928
vt 0.4745465 0.001990928
vt 0.4745465 0.0992361
vt 0.105919 0.001990928
vt 0.2031642 0.007699591
vt 0.1749863 0.9980081
vt 0.105919 0.9980081
vt 0.4804074 0.001990928
vt 0.5494898 0.001990928
vt 0.5494898 0.08606812
vt 0.4804074 0.08606812
vt 0.3005008 0.001990928
vt 0.3845932 0.001990928
vt 0.3845932 0.9922994
vt 0.3005008 0.9922994
vt 0.2105626 0.001990928
vt 0.2946399 0.001990928
vt 0.2946399 0.9980081
vt 0.2105626 0.9980081
vt 0.01369749 0.001990928
vt 0.08279515 0.001990928
vt 0.08279515 0.9980081
vt 0.001031872 0.9951614
vt 0.3590031 0.001990928
vt 0.4407664 0.001990928
vt 0.4407664 0.08609857
vt 0.3590031 0.08609857
vt 0.08883873 0.004837648
vt 0.170602 0.001990928
vt 0.170602 0.9980081
vt 0.1015043 0.9980081
vt 0.4466273 0.001990928
vt 0.515725 0.001990928
vt 0.515725 0.08609857
vt 0.4466273 0.08609857
vt 0.1764629 0.001990928
vt 0.2605706 0.001990928
vt 0.2605706 0.9980081
vt 0.1764629 0.9980081
vt 0.2677406 0.001990928
vt 0.3518483 0.001990928
vt 0.3518483 0.9951614
vt 0.2677406 0.9951614
vt 0.008338961 0.9980081
vt 0.001503789 0.001990928
vt 0.04141876 0.001990928
vt 0.04112953 0.9980081
vt 0.04112953 0.9980081
vt 0.04141876 0.001990928
vt 0.05705289 0.001990928
vt 0.05676365 0.9980081
vt 0.06285289 0.9980081
vt 0.06285289 0.001990928
vt 0.08042035 0.001990928
vt 0.08042035 0.9980081
vt 0.08654004 0.9980081
vt 0.0862508 0.001990928
vt 0.6626888 0.001990928
vt 0.6587307 0.9980081
vt 0.6732231 0.9980081
vt 0.6692652 0.001990928
vt 0.7103066 0.001990928
vt 0.7059528 0.9980081
vt 0.7059528 0.9980081
vt 0.7103066 0.001990928
vt 0.7206127 0.001990928
vt 0.7162589 0.9980081
vt 0.7268389 0.9980081
vt 0.7268389 0.001990928
vt 0.7500998 0.001990928
vt 0.7500998 0.9980081
vt 0.0003620558 0.9980081
vt 0.04735577 0.001990928
vt 0.085855 0.9980081
vt 0.1370807 0.7127423
vt 0.09247705 0.001990928
vt 0.1813952 0.001990928
vn -0.8004726 0.01717353 -0.5991232
vn -0.8004726 0.01717353 -0.5991232
vn -0.8004726 0.01717353 -0.5991232
vn -0.8004726 0.01717353 -0.5991232
vn -0.8004726 0.01717353 -0.5991232
vn -0.8004726 0.01717353 -0.5991232
vn -0.8004726 0.01717353 -0.5991232
vn -0.8004726 0.01717353 -0.5991232
vn -0.8004726 0.01717353 -0.5991232
vn -0.7985193 0.01717353 -0.6017242
vn -0.7985193 0.01717353 -0.6017242
vn -0.7985193 0.01717353 -0.6017242
vn -0.7985193 0.01912689 -0.6016653
vn -0.7985193 0.01912689 -0.6016653
vn -0.8004726 0.01717353 -0.5991232
vn -0.8004726 0.01717353 -0.5991232
vn -0.8004726 0.01717353 -0.5991232
vn -0.7985193 0.01912689 -0.6016653
vn -0.8004726 0.01717353 -0.5991232
vn -0.7985193 0.01717353 -0.6017242
vn -0.7985193 0.01717353 -0.6017242
vn -0.7985193 0.01717353 -0.6017242
vn -0.8004726 0.01717353 -0.5991232
vn -0.8004726 0.01717353 -0.5991232
vn -0.8004726 0.01717353 -0.5991232
vn -0.8004726 0.01717353 -0.5991232
vn -0.8004726 0.01717353 -0.5991232
vn -0.8004726 0.01717353 -0.5991232
vn -0.8004726 0.01717353 -0.5991232
vn -0.8004726 0.01717353 -0.5991232
vn -0.8004726 0.01717353 -0.5991232
vn -0.8004726 0.01717353 -0.5991232
vn -0.8004726 0.01717353 -0.5991232
vn -0.8004726 0.01717353 -0.5991232
vn -0.8004726 0.01717353 -0.5991232
vn -0.8004726 0.01717353 -0.5991232
vn -0.8004726 0.01717353 -0.5991232
vn -0.8004726 0.01717353 -0.5991232
vn -0.8004726 0.01717353 -0.5991232
vn -0.8004726 0.01717353 -0.5991232
vn -0.8004726 0.01717353 -0.5991232
vn -0.8004726 0.01717353 -0.5991232
vn 0.07854128 0.9938556 -0.07798946
vn 0.07854128 0.9938556 -0.07798946
vn 0.07854128 0.9938556 -0.07798946
vn 0.07854128 0.9938556 -0.07798946
vn 0.7993327 -0.01798701 0.6006195
vn 0.7993327 -0.01798701 0.6006195
vn 0.7993327 -0.01798701 0.6006195
vn 0.7993327 -0.01798701 0.6006195
vn -0.04452062 -0.9985758 0.02939842
vn -0.04452062 -0.9985758 0.02939842
vn -0.04452062 -0.9985758 0.02939842
vn -0.04452062 -0.9985758 0.02939842
vn 0.5981362 -0.07463455 -0.7979115
vn 0.5981362 -0.07463455 -0.7979115
vn 0.5981362 -0.07463455 -0.7979115
vn 0.5981362 -0.07463455 -0.7979115
vn -0.5992761 0.05038071 0.7989556
vn -0.5992761 0.05038071 0.7989556
vn -0.5992761 0.05038071 0.7989556
vn -0.5992761 0.05038071 0.7989556
vn -0.8004726 0.01717353 -0.5991232
vn -0.8004726 0.01717353 -0.5991232
vn -0.8004726 0.01717353 -0.5991232
vn -0.8004726 0.01717353 -0.5991232
vn 0.0238471 0.9997157 0
vn 0.0238471 0.9997157 0
vn 0.0238471 0.9997157 0
vn 0.0238471 0.9997157 0
vn 0.7993327 -0.01798701 0.6006195
vn 0.7993327 -0.01798701 0.6006195
vn 0.7993327 -0.01798701 0.6006195
vn 0.7993327 -0.01798701 0.6006195
vn -0.04452062 -0.9985758 0.02939842
vn -0.04452062 -0.9985758 0.02939842
vn -0.04452062 -0.9985758 0.02939842
vn -0.04452062 -0.9985758 0.02939842
vn 0.5981362 -0.05119419 -0.7997577
vn 0.5981362 -0.05119419 -0.7997577
vn 0.5981362 -0.05119419 -0.7997577
vn 0.5981362 -0.05119419 -0.7997577
vn -0.5992761 0.04061389 0.7995116
vn -0.5992761 0.04061389 0.7995116
vn -0.5992761 0.04061389 0.7995116
vn -0.5992761 0.04061389 0.7995116
vn -0.8004726 0.01717353 -0.5991232
vn -0.8004726 0.01717353 -0.5991232
vn -0.8004726 0.01717353 -0.5991232
vn -0.8004726 0.01717353 -0.5991232
vn -0.4097997 0.8395399 -0.3567029
vn -0.4097997 0.8395399 -0.3567029
vn -0.4097997 0.8395399 -0.3567029
vn -0.4097997 0.8395399 -0.3567029
vn -0.04842734 -0.9985758 0.02238651
vn -0.04842734 -0.9985758 0.02238651
vn -0.04842734 -0.9985758 0.02238651
vn -0.04842734 -0.9985758 0.02238651
vn 0.7993327 -0.01798701 0.6006195
vn 0.7993327 -0.01798701 0.6006195
vn 0.7993327 -0.01798701 0.6006195
vn 0.7993327 -0.01798701 0.6006195
vn -0.8004726 0.01717353 -0.5991232
vn -0.8004726 0.01717353 -0.5991232
vn -0.8004726 0.01717353 -0.5991232
vn -0.8004726 0.01717353 -0.5991232
vn -0.3687791 0.8707937 -0.3251466
vn -0.3687791 0.8707937 -0.3251466
vn -0.3687791 0.8707937 -0.3251466
vn -0.3687791 0.8707937 -0.3251466
vn -0.04647398 -0.9985758 0.02620165
vn -0.04647398 -0.9985758 0.02620165
vn -0.04647398 -0.9985758 0.02620165
vn -0.04647398 -0.9985758 0.02620165
vn -0.8004726 0.01717353 -0.5991232
vn -0.8004726 0.01717353 -0.5991232
vn -0.8004726 0.01717353 -0.5991232
vn -0.8004726 0.01717353 -0.5991232
vn -0.8004726 0.01717353 -0.5991232
vn -0.8004726 0.01717353 -0.5991232
g Cmn_Arrow_03_board29_0
f 3/3/3 2/2/2 1/1/1
f 4/4/4 3/3/3 1/1/1
f 4/4/4 1/1/1 5/5/5
f 6/6/6 4/4/4 5/5/5
f 6/6/6 5/5/5 7/7/7
f 8/8/8 6/6/6 7/7/7
f 8/8/8 7/7/7 9/9/9
f 10/10/10 8/8/8 9/9/9
f 10/10/10 9/9/9 11/11/11
f 12/12/12 10/10/10 11/11/11
f 3/3/3 13/13/13 2/2/2
f 13/13/13 14/14/14 2/2/2
f 12/12/12 11/11/11 14/14/14
f 13/13/13 12/12/12 14/14/14
f 17/17/17 16/16/16 15/15/15
f 17/17/17 18/18/18 16/16/16
f 19/19/19 18/18/18 17/17/17
f 20/20/20 18/18/18 19/19/19
f 21/21/21 18/18/18 20/20/20
f 22/22/22 21/21/21 20/20/20
f 23/23/23 21/21/21 22/22/22
f 23/23/23 24/24/24 21/21/21
f 25/25/25 24/24/24 23/23/23
f 25/25/25 26/26/26 24/24/24
f 27/27/27 20/20/20 19/19/19
f 17/17/17 15/15/15 28/28/28
f 29/29/29 28/28/28 26/26/26
f 25/25/25 29/29/29 26/26/26
f 25/25/25 30/30/30 29/29/29
f 31/31/31 17/17/17 28/28/28
f 29/29/29 31/31/31 28/28/28
f 34/34/34 33/33/33 32/32/32
f 35/35/35 34/34/34 32/32/32
f 33/33/33 36/36/36 32/32/32
f 37/37/37 36/36/36 33/33/33
f 36/36/36 38/38/38 32/32/32
f 41/41/41 40/40/40 39/39/39
f 42/42/42 41/41/41 39/39/39
f 45/45/45 44/44/44 43/43/43
f 46/46/46 45/45/45 43/43/43
f 49/49/49 48/48/48 47/47/47
f 50/50/50 49/49/49 47/47/47
f 53/53/53 52/52/52 51/51/51
f 54/54/54 53/53/53 51/51/51
f 57/57/57 56/56/56 55/55/55
f 58/58/58 57/57/57 55/55/55
f 61/61/61 60/60/60 59/59/59
f 62/62/62 61/61/61 59/59/59
f 65/65/65 64/64/64 63/63/63
f 66/66/66 65/65/65 63/63/63
f 69/69/69 68/68/68 67/67/67
f 70/70/70 69/69/69 67/67/67
f 73/73/73 72/72/72 71/71/71
f 74/74/74 73/73/73 71/71/71
f 77/77/77 76/76/76 75/75/75
f 78/78/78 77/77/77 75/75/75
f 81/81/81 80/80/80 79/79/79
f 82/82/82 81/81/81 79/79/79
f 85/85/85 84/84/84 83/83/83
f 86/86/86 85/85/85 83/83/83
f 89/89/89 88/88/88 87/87/87
f 90/90/90 89/89/89 87/87/87
f 93/93/93 92/92/92 91/91/91
f 94/94/94 93/93/93 91/91/91
f 97/97/97 96/96/96 95/95/95
f 98/98/98 97/97/97 95/95/95
f 101/101/101 100/100/100 99/99/99
f 102/102/102 101/101/101 99/99/99
f 105/105/105 104/104/104 103/103/103
f 106/106/106 105/105/105 103/103/103
f 109/109/109 108/108/108 107/107/107
f 110/110/110 109/109/109 107/107/107
f 113/113/113 112/112/112 111/111/111
f 114/114/114 113/113/113 111/111/111
f 117/117/117 116/116/116 115/115/115
f 120/120/120 119/119/119 118/118/118
