g Cmn_Arrow_03_board24
v 186.9135 49.56104 173.8379
v 187.2551 49.27275 173.6373
v 182.6034 49.27275 176.3718
v 182.3912 49.56104 176.4966
v 186.9135 51.39906 173.8379
v 187.2551 51.68735 173.6373
v 182.3912 51.39906 176.4966
v 182.6034 51.68735 176.3718
v 182.3912 52.3912 176.4966
v 182.6037 52.86079 176.3721
v 178.793 50.47987 178.6117
v 178.2326 50.47987 178.9414
v 182.6037 48.0993 176.3721
v 182.3912 48.56854 176.4966
v 187.2551 49.27275 173.6373
v 187.4757 47.89203 173.5076
v 182.6034 49.27275 176.3718
v 182.6037 48.0993 176.3721
v 178.0947 47.84435 179.0235
v 180.7454 48.35988 177.4653
v 178.2326 50.47987 178.9414
v 178.0947 48.47876 179.0235
v 178.0944 53.09682 179.0235
v 182.6037 52.86079 176.3721
v 187.4757 53.02213 173.5076
v 182.6034 51.68735 176.3718
v 178.0947 48.21468 179.0235
v 187.2551 51.68735 173.6373
v 185.5844 52.03069 174.6197
v 187.4757 52.16745 173.5076
v 187.4757 51.8932 173.5076
v 182.3912 51.39906 176.4966
v 186.9135 51.39906 173.8379
v 186.9135 49.56104 173.8379
v 182.3912 49.56104 176.4966
v 178.793 50.47987 178.6117
v 182.3912 48.56854 176.4966
v 182.3912 52.3912 176.4966
v 187.6307 47.28111 173.771
v 187.6307 53.81401 173.771
v 188.1806 53.77684 173.448
v 188.0214 47.28111 173.5416
v 187.6307 53.81401 173.771
v 187.3512 53.81401 173.2954
v 187.9011 53.77684 172.9724
v 188.1806 53.77684 173.448
v 187.3512 53.81401 173.2954
v 187.3512 47.28111 173.2954
v 187.7419 47.28111 173.0661
v 187.9011 53.77684 172.9724
v 187.3512 47.28111 173.2954
v 187.6307 47.28111 173.771
v 188.0214 47.28111 173.5416
v 187.7419 47.28111 173.0661
v 188.0214 47.28111 173.5416
v 188.1806 53.77684 173.448
v 187.9011 53.77684 172.9724
v 187.7419 47.28111 173.0661
v 187.3512 47.28111 173.2954
v 187.3512 53.81401 173.2954
v 187.6307 53.81401 173.771
v 187.6307 47.28111 173.771
v 177.8584 47.26428 179.5158
v 177.7868 53.77684 179.5579
v 178.2491 53.79543 179.2861
v 178.2491 47.26428 179.2861
v 177.7868 53.77684 179.5579
v 177.5073 53.77684 179.0824
v 177.9695 53.79543 178.8109
v 178.2491 53.79543 179.2861
v 177.5073 53.77684 179.0824
v 177.5789 47.26428 179.0403
v 177.9695 47.26428 178.8109
v 177.9695 53.79543 178.8109
v 177.5789 47.26428 179.0403
v 177.8584 47.26428 179.5158
v 178.2491 47.26428 179.2861
v 177.9695 47.26428 178.8109
v 178.2491 47.26428 179.2861
v 178.2491 53.79543 179.2861
v 177.9695 53.79543 178.8109
v 177.9695 47.26428 178.8109
v 177.5789 47.26428 179.0403
v 177.5073 53.77684 179.0824
v 177.7868 53.77684 179.5579
v 177.8584 47.26428 179.5158
v 178.1919 53.09682 179.1886
v 178.1919 53.45525 179.1886
v 187.5735 53.45839 173.6735
v 187.5735 53.02213 173.6735
v 178.1919 53.45525 179.1886
v 178.0628 53.62604 178.9698
v 187.4445 53.62918 173.4546
v 187.5735 53.45839 173.6735
v 178.0944 53.09682 179.0235
v 178.1919 53.09682 179.1886
v 187.5735 53.02213 173.6735
v 187.4761 53.02213 173.5083
v 178.0628 53.62604 178.9698
v 178.0628 47.37405 178.9698
v 187.4445 47.33092 173.4546
v 187.4445 53.62918 173.4546
v 178.1919 47.37405 179.1886
v 178.1919 47.73177 179.1886
v 187.5735 47.77946 173.6735
v 187.5735 47.33092 173.6735
v 178.1919 47.73177 179.1886
v 178.0944 47.84435 179.0235
v 187.4761 47.89203 173.5083
v 187.5735 47.77946 173.6735
v 178.0628 47.37405 178.9698
v 178.1919 47.37405 179.1886
v 187.5735 47.33092 173.6735
v 187.4445 47.33092 173.4546
v 178.0947 48.21468 179.0235
v 178.0947 48.47876 179.0235
v 180.7454 48.35988 177.4653
v 185.5844 52.03069 174.6197
v 187.4757 52.16745 173.5076
v 187.4757 51.8932 173.5076
vt 0.1400188 0.03968333
vt 0.1125868 0.001990928
vt 0.1125868 0.5154966
vt 0.1400188 0.5389249
vt 0.3149475 0.03968333
vt 0.3423795 0.001990928
vt 0.3149475 0.5389249
vt 0.3423795 0.5154966
vt 0.4093764 0.5389249
vt 0.4540562 0.5154966
vt 0.2274755 0.9361566
vt 0.2274755 0.9980081
vt 0.0009100875 0.5154966
vt 0.04558989 0.5389249
vt 0.1316918 0.02541928
vt 0.005309564 0.001990928
vt 0.1316918 0.5192567
vt 0.02429277 0.5192567
vt 0.0009557568 0.9980081
vt 0.04813215 0.7165938
vt 0.242181 0.9833025
vt 0.05901667 0.9980081
vt 0.4817013 0.9980081
vt 0.4600845 0.5192567
vt 0.474851 0.001990928
vt 0.3526855 0.5192567
vt 0.03485761 0.9980081
vt 0.3526855 0.02541928
vt 0.3841213 0.2028141
vt 0.3966346 0.001990928
vt 0.3715165 0.001990928
vt 0.3000745 0.5566751
vt 0.3000745 0.001990928
vt 0.1057211 0.001990928
vt 0.1057211 0.5566751
vt 0.2029054 0.9980081
vt 0.0008035258 0.5566751
vt 0.4050074 0.5566751
vt 0.001092765 0.001990928
vt 0.001092765 0.9980081
vt 0.09833794 0.9922994
vt 0.0701752 0.001990928
vt 0.3904541 0.0992361
vt 0.4745465 0.0992361
vt 0.4745465 0.001990928
vt 0.3904541 0.001990928
vt 0.105919 0.001990928
vt 0.105919 0.9980081
vt 0.1749863 0.9980081
vt 0.2031642 0.007699591
vt 0.4804074 0.001990928
vt 0.4804074 0.08606812
vt 0.5494898 0.08606812
vt 0.5494898 0.001990928
vt 0.3005008 0.001990928
vt 0.3005008 0.9922994
vt 0.3845932 0.9922994
vt 0.3845932 0.001990928
vt 0.2105626 0.001990928
vt 0.2105626 0.9980081
vt 0.2946399 0.9980081
vt 0.2946399 0.001990928
vt 0.01369749 0.001990928
vt 0.001031872 0.9951614
vt 0.08279515 0.9980081
vt 0.08279515 0.001990928
vt 0.3590031 0.001990928
vt 0.3590031 0.08609857
vt 0.4407664 0.08609857
vt 0.4407664 0.001990928
vt 0.08883873 0.004837648
vt 0.1015043 0.9980081
vt 0.170602 0.9980081
vt 0.170602 0.001990928
vt 0.4466273 0.001990928
vt 0.4466273 0.08609857
vt 0.515725 0.08609857
vt 0.515725 0.001990928
vt 0.1764629 0.001990928
vt 0.1764629 0.9980081
vt 0.2605706 0.9980081
vt 0.2605706 0.001990928
vt 0.2677406 0.001990928
vt 0.2677406 0.9951614
vt 0.3518483 0.9951614
vt 0.3518483 0.001990928
vt 0.008338961 0.9980081
vt 0.04112953 0.9980081
vt 0.04141876 0.001990928
vt 0.001503789 0.001990928
vt 0.04112953 0.9980081
vt 0.05676365 0.9980081
vt 0.05705289 0.001990928
vt 0.04141876 0.001990928
vt 0.06285289 0.9980081
vt 0.08042035 0.9980081
vt 0.08042035 0.001990928
vt 0.06285289 0.001990928
vt 0.08654004 0.9980081
vt 0.6587307 0.9980081
vt 0.6626888 0.001990928
vt 0.0862508 0.001990928
vt 0.6732231 0.9980081
vt 0.7059528 0.9980081
vt 0.7103066 0.001990928
vt 0.6692652 0.001990928
vt 0.7059528 0.9980081
vt 0.7162589 0.9980081
vt 0.7206127 0.001990928
vt 0.7103066 0.001990928
vt 0.7268389 0.9980081
vt 0.7500998 0.9980081
vt 0.7500998 0.001990928
vt 0.7268389 0.001990928
vt 0.0003620558 0.9980081
vt 0.085855 0.9980081
vt 0.04735577 0.001990928
vt 0.1370807 0.7127423
vt 0.1813952 0.001990928
vt 0.09247705 0.001990928
vn 0.507481 0.0006731749 0.8616626
vn 0.507481 0.0006731749 0.8616626
vn 0.507481 0.0006731749 0.8616626
vn 0.507481 0.0006731749 0.8616626
vn 0.507481 0.0006731749 0.8616626
vn 0.507481 0.0006731749 0.8616626
vn 0.507481 0.0006731749 0.8616626
vn 0.507481 0.0006731749 0.8616626
vn 0.507481 -0.001281202 0.861662
vn 0.507481 -0.001281202 0.861662
vn 0.507481 0.0006731749 0.8616626
vn 0.507481 0.0006731749 0.8616626
vn 0.507481 0.0006731749 0.8616626
vn 0.507481 0.0006731749 0.8616626
vn 0.507481 0.0006731749 0.8616626
vn 0.507481 0.0006731749 0.8616626
vn 0.507481 0.0006731749 0.8616626
vn 0.507481 0.0006731749 0.8616626
vn 0.507481 0.0006731749 0.8616626
vn 0.507481 0.0006731749 0.8616626
vn 0.507481 0.0006731749 0.8616626
vn 0.507481 0.0006731749 0.8616626
vn 0.507481 0.0006731749 0.8616626
vn 0.507481 0.0006731749 0.8616626
vn 0.507481 0.0006731749 0.8616626
vn 0.507481 0.0006731749 0.8616626
vn 0.507481 0.0006731749 0.8616626
vn 0.507481 0.0006731749 0.8616626
vn 0.507481 0.0006731749 0.8616626
vn 0.507481 0.0006731749 0.8616626
vn 0.507481 0.0006731749 0.8616626
vn 0.507481 0.0006731749 0.8616626
vn 0.507481 0.0006731749 0.8616626
vn 0.507481 0.0006731749 0.8616626
vn 0.507481 0.0006731749 0.8616626
vn 0.507481 0.0006731749 0.8616626
vn 0.507481 0.0006731749 0.8616626
vn 0.507481 0.0006731749 0.8616626
vn 0.507481 0.0006731749 0.8616626
vn 0.507481 0.0006731749 0.8616626
vn 0.507481 0.0006731749 0.8616626
vn 0.507481 0.0006731749 0.8616626
vn 0.05014223 0.9974374 -0.05103415
vn 0.05014223 0.9974374 -0.05103415
vn 0.05014223 0.9974374 -0.05103415
vn 0.05014223 0.9974374 -0.05103415
vn -0.506873 0.0006731749 -0.8620205
vn -0.506873 0.0006731749 -0.8620205
vn -0.506873 0.0006731749 -0.8620205
vn -0.506873 0.0006731749 -0.8620205
vn -0.0006731749 -0.9999998 0
vn -0.0006731749 -0.9999998 0
vn -0.0006731749 -0.9999998 0
vn -0.0006731749 -0.9999998 0
vn 0.8612345 -0.02864337 -0.5073999
vn 0.8612345 -0.02864337 -0.5073999
vn 0.8612345 -0.02864337 -0.5073999
vn 0.8612345 -0.02864337 -0.5073999
vn -0.862581 0.0006731749 0.5059185
vn -0.862581 0.0006731749 0.5059185
vn -0.862581 0.0006731749 0.5059185
vn -0.862581 0.0006731749 0.5059185
vn 0.507481 0.0006731749 0.8616626
vn 0.507481 0.0006731749 0.8616626
vn 0.507481 0.0006731749 0.8616626
vn 0.507481 0.0006731749 0.8616626
vn -0.02998984 0.9993918 0.01779549
vn -0.02998984 0.9993918 0.01779549
vn -0.02998984 0.9993918 0.01779549
vn -0.02998984 0.9993918 0.01779549
vn -0.506873 0.0006731749 -0.8620205
vn -0.506873 0.0006731749 -0.8620205
vn -0.506873 0.0006731749 -0.8620205
vn -0.506873 0.0006731749 -0.8620205
vn -0.0006731749 -0.9999998 0
vn -0.0006731749 -0.9999998 0
vn -0.0006731749 -0.9999998 0
vn -0.0006731749 -0.9999998 0
vn 0.8612345 0.0006731749 -0.5082072
vn 0.8612345 0.0006731749 -0.5082072
vn 0.8612345 0.0006731749 -0.5082072
vn 0.8612345 0.0006731749 -0.5082072
vn -0.862581 -0.01300788 0.5057517
vn -0.862581 -0.01300788 0.5057517
vn -0.862581 -0.01300788 0.5057517
vn -0.862581 -0.01300788 0.5057517
vn 0.507481 0.0006731749 0.8616626
vn 0.507481 0.0006731749 0.8616626
vn 0.507481 0.0006731749 0.8616626
vn 0.507481 0.0006731749 0.8616626
vn 0.2827205 0.8293555 0.4819114
vn 0.2827205 0.8293555 0.4819114
vn 0.2827205 0.8293555 0.4819114
vn 0.2827205 0.8293555 0.4819114
vn -0.006536346 -0.9999787 0
vn -0.006536346 -0.9999787 0
vn -0.006536346 -0.9999787 0
vn -0.006536346 -0.9999787 0
vn -0.506873 0.0006731749 -0.8620205
vn -0.506873 0.0006731749 -0.8620205
vn -0.506873 0.0006731749 -0.8620205
vn -0.506873 0.0006731749 -0.8620205
vn 0.507481 0.0006731749 0.8616626
vn 0.507481 0.0006731749 0.8616626
vn 0.507481 0.0006731749 0.8616626
vn 0.507481 0.0006731749 0.8616626
vn 0.2534039 0.862581 0.4378818
vn 0.2534039 0.862581 0.4378818
vn 0.2534039 0.862581 0.4378818
vn 0.2534039 0.862581 0.4378818
vn -0.002627603 -0.9999965 0
vn -0.002627603 -0.9999965 0
vn -0.002627603 -0.9999965 0
vn -0.002627603 -0.9999965 0
vn 0.507481 0.0006731749 0.8616626
vn 0.507481 0.0006731749 0.8616626
vn 0.507481 0.0006731749 0.8616626
vn 0.507481 0.0006731749 0.8616626
vn 0.507481 0.0006731749 0.8616626
vn 0.507481 0.0006731749 0.8616626
g Cmn_Arrow_03_board24_0
f 3/3/3 2/2/2 1/1/1
f 4/4/4 3/3/3 1/1/1
f 1/1/1 2/2/2 5/5/5
f 2/2/2 6/6/6 5/5/5
f 5/5/5 6/6/6 7/7/7
f 6/6/6 8/8/8 7/7/7
f 7/7/7 8/8/8 9/9/9
f 8/8/8 10/10/10 9/9/9
f 9/9/9 10/10/10 11/11/11
f 10/10/10 12/12/12 11/11/11
f 13/13/13 3/3/3 4/4/4
f 14/14/14 13/13/13 4/4/4
f 12/12/12 13/13/13 14/14/14
f 11/11/11 12/12/12 14/14/14
f 17/17/17 16/16/16 15/15/15
f 18/18/18 16/16/16 17/17/17
f 18/18/18 19/19/19 16/16/16
f 18/18/18 20/20/20 19/19/19
f 18/18/18 21/21/21 20/20/20
f 21/21/21 22/22/22 20/20/20
f 21/21/21 23/23/23 22/22/22
f 24/24/24 23/23/23 21/21/21
f 24/24/24 25/25/25 23/23/23
f 26/26/26 25/25/25 24/24/24
f 20/20/20 27/27/27 19/19/19
f 15/15/15 16/16/16 28/28/28
f 28/28/28 29/29/29 26/26/26
f 29/29/29 25/25/25 26/26/26
f 30/30/30 25/25/25 29/29/29
f 16/16/16 31/31/31 28/28/28
f 31/31/31 29/29/29 28/28/28
f 34/34/34 33/33/33 32/32/32
f 35/35/35 34/34/34 32/32/32
f 36/36/36 35/35/35 32/32/32
f 36/36/36 37/37/37 35/35/35
f 38/38/38 36/36/36 32/32/32
f 41/41/41 40/40/40 39/39/39
f 42/42/42 41/41/41 39/39/39
f 45/45/45 44/44/44 43/43/43
f 46/46/46 45/45/45 43/43/43
f 49/49/49 48/48/48 47/47/47
f 50/50/50 49/49/49 47/47/47
f 53/53/53 52/52/52 51/51/51
f 54/54/54 53/53/53 51/51/51
f 57/57/57 56/56/56 55/55/55
f 58/58/58 57/57/57 55/55/55
f 61/61/61 60/60/60 59/59/59
f 62/62/62 61/61/61 59/59/59
f 65/65/65 64/64/64 63/63/63
f 66/66/66 65/65/65 63/63/63
f 69/69/69 68/68/68 67/67/67
f 70/70/70 69/69/69 67/67/67
f 73/73/73 72/72/72 71/71/71
f 74/74/74 73/73/73 71/71/71
f 77/77/77 76/76/76 75/75/75
f 78/78/78 77/77/77 75/75/75
f 81/81/81 80/80/80 79/79/79
f 82/82/82 81/81/81 79/79/79
f 85/85/85 84/84/84 83/83/83
f 86/86/86 85/85/85 83/83/83
f 89/89/89 88/88/88 87/87/87
f 90/90/90 89/89/89 87/87/87
f 93/93/93 92/92/92 91/91/91
f 94/94/94 93/93/93 91/91/91
f 97/97/97 96/96/96 95/95/95
f 98/98/98 97/97/97 95/95/95
f 101/101/101 100/100/100 99/99/99
f 102/102/102 101/101/101 99/99/99
f 105/105/105 104/104/104 103/103/103
f 106/106/106 105/105/105 103/103/103
f 109/109/109 108/108/108 107/107/107
f 110/110/110 109/109/109 107/107/107
f 113/113/113 112/112/112 111/111/111
f 114/114/114 113/113/113 111/111/111
f 117/117/117 116/116/116 115/115/115
f 120/120/120 119/119/119 118/118/118
