g Combined_M_Cmn_JumpBar_Prefab_Mesh
v -23.29602 30.08339 -147.223
v -21.96548 30.40683 -145.887
v -22.03647 30.42055 -145.7759
v -23.4158 30.08339 -147.1732
v -22.08408 30.42241 -145.6641
v -23.46545 30.08339 -147.0531
v -20.63478 30.08339 -147.223
v -20.51498 30.08339 -147.1732
v -21.89449 30.42055 -145.7759
v -20.46535 30.08339 -147.0531
v -21.84671 30.42241 -145.6641
v -23.46545 30.08339 -137.393
v -22.08408 30.42241 -138.7818
v -21.96548 30.43715 -145.6154
v -21.96548 30.43715 -138.8306
v -21.84671 30.42241 -138.7818
v -22.03647 30.42055 -138.67
v -23.4158 30.08339 -137.2727
v -21.96548 30.40683 -138.559
v -23.29602 30.08339 -137.2231
v -20.46535 30.08339 -137.393
v -20.51498 30.08339 -137.2727
v -21.89449 30.42055 -138.67
v -20.63478 30.08339 -137.2231
v -21.96548 30.43309 -145.7135
v -21.96548 30.43309 -138.7325
v -23.29602 29.99934 -137.2231
v -20.63478 29.99934 -137.2231
v -23.4158 29.99934 -137.2727
v -23.46545 29.99934 -137.393
v -23.46545 29.99934 -147.0531
v -23.4158 29.99934 -147.1732
v -23.29602 29.99934 -147.223
v -20.63478 29.99934 -147.223
v -20.51498 29.99934 -147.1732
v -20.46535 29.99934 -147.0531
v -20.46535 29.99934 -137.393
v -20.51498 29.99934 -137.2727
v 5.539963 30.08339 -143.5699
v 6.870499 30.40683 -142.2339
v 6.799515 30.42055 -142.1228
v 5.420181 30.08339 -143.5201
v 6.751907 30.42241 -142.011
v 5.370529 30.08339 -143.3998
v 8.201202 30.08339 -143.5699
v 8.320999 30.08339 -143.5201
v 6.941498 30.42055 -142.1228
v 8.370636 30.08339 -143.3998
v 6.989105 30.42241 -142.011
v 5.370529 30.08339 -133.7399
v 6.751907 30.42241 -135.1287
v 6.870499 30.43715 -141.9624
v 6.870499 30.43715 -135.1774
v 6.989105 30.42241 -135.1287
v 6.799515 30.42055 -135.0169
v 5.420181 30.08339 -133.6196
v 6.870499 30.40683 -134.9058
v 5.539963 30.08339 -133.5698
v 8.370636 30.08339 -133.7399
v 8.320999 30.08339 -133.6196
v 6.941498 30.42055 -135.0169
v 8.201202 30.08339 -133.5698
v 6.870499 30.43309 -142.0605
v 6.870499 30.43309 -135.0793
v 5.539963 29.99934 -133.5698
v 8.201202 29.99934 -133.5698
v 5.420181 29.99934 -133.6196
v 5.370529 29.99934 -133.7399
v 5.370529 29.99934 -143.3998
v 5.420181 29.99934 -143.5201
v 5.539963 29.99934 -143.5699
v 8.201202 29.99934 -143.5699
v 8.320999 29.99934 -143.5201
v 8.370636 29.99934 -143.3998
v 8.370636 29.99934 -133.7399
v 8.320999 29.99934 -133.6196
vt 0.3396914 0.3347921
vt 0.3835994 0.2906987
vt 0.3812557 0.2870309
vt 0.3357323 0.3331502
vt 0.37968 0.2833498
vt 0.3341036 0.3291778
vt 0.4275074 0.3347921
vt 0.4314665 0.3331502
vt 0.3859431 0.2870309
vt 0.4331084 0.3291778
vt 0.3875188 0.2833498
vt 0.3341036 0.01037481
vt 0.37968 0.05621603
vt 0.3835994 0.2817344
vt 0.3835994 0.05781822
vt 0.3875188 0.05621603
vt 0.3812557 0.05252172
vt 0.3357323 0.006415679
vt 0.3835994 0.0488539
vt 0.3396914 0.004773764
vt 0.4331084 0.01037481
vt 0.4314665 0.006415679
vt 0.3859431 0.05252172
vt 0.4275074 0.004773764
vt 0.3835994 0.2849785
vt 0.3835994 0.05458736
vt 0.3395855 0.001993101
vt 0.4276133 0.001993101
vt 0.333746 0.004455973
vt 0.3313229 0.01034833
vt 0.3313229 0.3292043
vt 0.333746 0.3351099
vt 0.3395855 0.3375728
vt 0.4276133 0.3375728
vt 0.4334527 0.3351099
vt 0.4358758 0.3292043
vt 0.4358758 0.01034833
vt 0.4334527 0.004455973
vt 0.3396914 0.3347921
vt 0.3835994 0.2906987
vt 0.3812557 0.2870309
vt 0.3357323 0.3331502
vt 0.37968 0.2833498
vt 0.3341036 0.3291778
vt 0.4275074 0.3347921
vt 0.4314665 0.3331502
vt 0.3859431 0.2870309
vt 0.4331084 0.3291778
vt 0.3875188 0.2833498
vt 0.3341036 0.01037481
vt 0.37968 0.05621603
vt 0.3835994 0.2817344
vt 0.3835994 0.05781822
vt 0.3875188 0.05621603
vt 0.3812557 0.05252172
vt 0.3357323 0.006415679
vt 0.3835994 0.0488539
vt 0.3396914 0.004773764
vt 0.4331084 0.01037481
vt 0.4314665 0.006415679
vt 0.3859431 0.05252172
vt 0.4275074 0.004773764
vt 0.3835994 0.2849785
vt 0.3835994 0.05458736
vt 0.3395855 0.001993101
vt 0.4276133 0.001993101
vt 0.333746 0.004455973
vt 0.3313229 0.01034833
vt 0.3313229 0.3292043
vt 0.333746 0.3351099
vt 0.3395855 0.3375728
vt 0.4276133 0.3375728
vt 0.4334527 0.3351099
vt 0.4358758 0.3292043
vt 0.4358758 0.01034833
vt 0.4334527 0.004455973
vn -0.03421855 0.9217985 -0.3861562
vn 0.04202724 0.9745841 -0.2200444
vn -0.1182846 0.9863143 -0.1148603
vn -0.15543 0.9745841 -0.1613299
vn -0.2316759 0.9726291 -0.01786068
vn -0.3528872 0.9354837 -0.01846291
vn 0.03420717 0.9217985 -0.3861572
vn 0.1554185 0.9745841 -0.1613409
vn 0.1182731 0.9863143 -0.1148722
vn 0.3528757 0.9354837 -0.01868115
vn 0.2316644 0.9726291 -0.01800858
vn -0.3528872 0.9354837 0.01846291
vn -0.2316759 0.9726291 0.01786068
vn 0.0009717941 0.9999994 -0.0004882813
vn 0.0009717941 0.9999994 -0.0004882813
vn 0.2316644 0.9726291 0.01800858
vn -0.1182846 0.9863143 0.1148603
vn -0.15543 0.9745841 0.1613299
vn 0.0009717941 0.9765391 0.2153378
vn -0.03617358 0.9217985 0.3859781
vn 0.3528757 0.9354837 0.01868115
vn 0.1554185 0.9745841 0.1613409
vn 0.1182731 0.9863143 0.1148722
vn 0.0361622 0.9217985 0.3859791
vn 0.03420717 0.9960893 -0.08146069
vn 0.03420717 0.9960893 0.08146069
vn -0.01857841 -0.0009717941 0.9998269
vn 0.01856697 -0.0009717941 0.9998271
vn -0.7067461 -0.0009717941 0.7074666
vn -0.9999994 -0.0009717941 -0.0004977038
vn -0.9999994 -0.0009717941 -0.0004977038
vn -0.7067461 -0.0009717941 -0.7074666
vn 0.0009717941 -0.0009717941 -0.999999
vn 0.0009717941 -0.0009717941 -0.999999
vn 0.7067347 -0.0009717941 -0.707478
vn 0.999988 -0.0009717941 -0.004809978
vn 0.999988 -0.0009717941 0.004809978
vn 0.7067347 -0.0009717941 0.707478
vn -0.03421855 0.9217985 -0.3861562
vn 0.04202724 0.9745841 -0.2200444
vn -0.1182846 0.9863143 -0.1148603
vn -0.15543 0.9745841 -0.1613299
vn -0.2316759 0.9726291 -0.01786068
vn -0.3528872 0.9354837 -0.01846291
vn 0.03420717 0.9217985 -0.3861572
vn 0.1554185 0.9745841 -0.1613409
vn 0.1182731 0.9863143 -0.1148722
vn 0.3528757 0.9354837 -0.01868115
vn 0.2316644 0.9726291 -0.01800858
vn -0.3528872 0.9354837 0.01846291
vn -0.2316759 0.9726291 0.01786068
vn 0.0009717941 0.9999994 -0.0004882813
vn 0.0009717941 0.9999994 -0.0004882813
vn 0.2316644 0.9726291 0.01800858
vn -0.1182846 0.9863143 0.1148603
vn -0.15543 0.9745841 0.1613299
vn 0.0009717941 0.9765391 0.2153378
vn -0.03617358 0.9217985 0.3859781
vn 0.3528757 0.9354837 0.01868115
vn 0.1554185 0.9745841 0.1613409
vn 0.1182731 0.9863143 0.1148722
vn 0.0361622 0.9217985 0.3859791
vn 0.03420717 0.9960893 -0.08146069
vn 0.03420717 0.9960893 0.08146069
vn -0.01857841 -0.0009717941 0.9998269
vn 0.01856697 -0.0009717941 0.9998271
vn -0.7067461 -0.0009717941 0.7074666
vn -0.9999994 -0.0009717941 -0.0004977038
vn -0.9999994 -0.0009717941 -0.0004977038
vn -0.7067461 -0.0009717941 -0.7074666
vn 0.0009717941 -0.0009717941 -0.999999
vn 0.0009717941 -0.0009717941 -0.999999
vn 0.7067347 -0.0009717941 -0.707478
vn 0.999988 -0.0009717941 -0.004809978
vn 0.999988 -0.0009717941 0.004809978
vn 0.7067347 -0.0009717941 0.707478
g Combined_M_Cmn_JumpBar_Prefab_Mesh_0
f 3/3/3 2/2/2 1/1/1
f 4/4/4 3/3/3 1/1/1
f 5/5/5 3/3/3 4/4/4
f 6/6/6 5/5/5 4/4/4
f 7/7/7 1/1/1 2/2/2
f 8/8/8 7/7/7 2/2/2
f 9/9/9 8/8/8 2/2/2
f 2/2/2 3/3/3 9/9/9
f 10/10/10 8/8/8 9/9/9
f 11/11/11 10/10/10 9/9/9
f 6/6/6 12/12/12 5/5/5
f 12/12/12 13/13/13 5/5/5
f 5/5/5 13/13/13 14/14/14
f 5/5/5 14/14/14 3/3/3
f 11/11/11 9/9/9 14/14/14
f 14/14/14 15/15/15 11/11/11
f 13/13/13 15/15/15 14/14/14
f 15/15/15 16/16/16 11/11/11
f 10/10/10 11/11/11 16/16/16
f 13/13/13 12/12/12 17/17/17
f 13/13/13 17/17/17 15/15/15
f 12/12/12 18/18/18 17/17/17
f 17/17/17 18/18/18 19/19/19
f 18/18/18 20/20/20 19/19/19
f 21/21/21 10/10/10 16/16/16
f 22/22/22 21/21/21 16/16/16
f 23/23/23 22/22/22 16/16/16
f 19/19/19 23/23/23 17/17/17
f 16/16/16 15/15/15 23/23/23
f 24/24/24 22/22/22 23/23/23
f 19/19/19 24/24/24 23/23/23
f 20/20/20 24/24/24 19/19/19
f 9/9/9 25/25/25 14/14/14
f 14/14/14 25/25/25 3/3/3
f 3/3/3 25/25/25 9/9/9
f 17/17/17 26/26/26 15/15/15
f 23/23/23 26/26/26 17/17/17
f 15/15/15 26/26/26 23/23/23
f 20/20/20 27/27/27 24/24/24
f 27/27/27 28/28/28 24/24/24
f 24/24/24 28/28/28 22/22/22
f 29/29/29 27/27/27 20/20/20
f 18/18/18 29/29/29 20/20/20
f 30/30/30 29/29/29 18/18/18
f 12/12/12 30/30/30 18/18/18
f 31/31/31 30/30/30 12/12/12
f 6/6/6 31/31/31 12/12/12
f 32/32/32 31/31/31 6/6/6
f 4/4/4 32/32/32 6/6/6
f 33/33/33 32/32/32 4/4/4
f 1/1/1 33/33/33 4/4/4
f 34/34/34 33/33/33 1/1/1
f 7/7/7 34/34/34 1/1/1
f 35/35/35 34/34/34 7/7/7
f 8/8/8 35/35/35 7/7/7
f 36/36/36 35/35/35 8/8/8
f 10/10/10 36/36/36 8/8/8
f 37/37/37 36/36/36 10/10/10
f 21/21/21 37/37/37 10/10/10
f 38/38/38 37/37/37 21/21/21
f 22/22/22 38/38/38 21/21/21
f 28/28/28 38/38/38 22/22/22
f 41/41/41 40/40/40 39/39/39
f 42/42/42 41/41/41 39/39/39
f 43/43/43 41/41/41 42/42/42
f 44/44/44 43/43/43 42/42/42
f 45/45/45 39/39/39 40/40/40
f 46/46/46 45/45/45 40/40/40
f 47/47/47 46/46/46 40/40/40
f 40/40/40 41/41/41 47/47/47
f 48/48/48 46/46/46 47/47/47
f 49/49/49 48/48/48 47/47/47
f 44/44/44 50/50/50 43/43/43
f 50/50/50 51/51/51 43/43/43
f 43/43/43 51/51/51 52/52/52
f 43/43/43 52/52/52 41/41/41
f 49/49/49 47/47/47 52/52/52
f 52/52/52 53/53/53 49/49/49
f 51/51/51 53/53/53 52/52/52
f 53/53/53 54/54/54 49/49/49
f 48/48/48 49/49/49 54/54/54
f 51/51/51 50/50/50 55/55/55
f 51/51/51 55/55/55 53/53/53
f 50/50/50 56/56/56 55/55/55
f 55/55/55 56/56/56 57/57/57
f 56/56/56 58/58/58 57/57/57
f 59/59/59 48/48/48 54/54/54
f 60/60/60 59/59/59 54/54/54
f 61/61/61 60/60/60 54/54/54
f 57/57/57 61/61/61 55/55/55
f 54/54/54 53/53/53 61/61/61
f 62/62/62 60/60/60 61/61/61
f 57/57/57 62/62/62 61/61/61
f 58/58/58 62/62/62 57/57/57
f 47/47/47 63/63/63 52/52/52
f 52/52/52 63/63/63 41/41/41
f 41/41/41 63/63/63 47/47/47
f 55/55/55 64/64/64 53/53/53
f 61/61/61 64/64/64 55/55/55
f 53/53/53 64/64/64 61/61/61
f 58/58/58 65/65/65 62/62/62
f 65/65/65 66/66/66 62/62/62
f 62/62/62 66/66/66 60/60/60
f 67/67/67 65/65/65 58/58/58
f 56/56/56 67/67/67 58/58/58
f 68/68/68 67/67/67 56/56/56
f 50/50/50 68/68/68 56/56/56
f 69/69/69 68/68/68 50/50/50
f 44/44/44 69/69/69 50/50/50
f 70/70/70 69/69/69 44/44/44
f 42/42/42 70/70/70 44/44/44
f 71/71/71 70/70/70 42/42/42
f 39/39/39 71/71/71 42/42/42
f 72/72/72 71/71/71 39/39/39
f 45/45/45 72/72/72 39/39/39
f 73/73/73 72/72/72 45/45/45
f 46/46/46 73/73/73 45/45/45
f 74/74/74 73/73/73 46/46/46
f 48/48/48 74/74/74 46/46/46
f 75/75/75 74/74/74 48/48/48
f 59/59/59 75/75/75 48/48/48
f 76/76/76 75/75/75 59/59/59
f 60/60/60 76/76/76 59/59/59
f 66/66/66 76/76/76 60/60/60
