g Combined_ShadowCollisionPrefab_Mesh
v -161.6708 168.9423 -420.3681
v -162.5076 168.8701 -422.581
v -152.1908 171.4041 -426.565
v -151.3541 171.4763 -424.3513
v -142.3268 172.256 -400.4744
v -141.4901 172.3282 -398.2616
v -151.8068 169.7943 -394.2784
v -152.6436 169.7221 -396.4913
v -140.0111 173.063 -401.6773
v -139.002 173.1505 -399.0083
v -141.4645 172.5457 -398.0577
v -142.4737 172.4583 -400.7267
v -152.3105 171.6088 -426.7468
v -149.848 172.2136 -427.6973
v -148.8388 172.3011 -425.0283
v -151.3014 171.6954 -424.0769
v -149.0019 172.0377 -424.9578
v -140.1742 172.8005 -401.6076
v -142.2163 172.2994 -400.8185
v -151.044 171.5366 -424.1695
v -152.7905 169.9243 -396.7436
v -151.7813 170.0118 -394.0746
v -154.244 169.4069 -393.1232
v -155.2531 169.3195 -395.7922
v -161.7821 168.8989 -420.0233
v -152.9536 169.6618 -396.6731
v -154.9957 169.1606 -395.8848
v -163.8242 168.3978 -419.2349
v -165.0908 168.47 -421.8122
v -162.6282 169.0748 -422.7628
v -161.619 169.1623 -420.0938
v -164.0816 168.5566 -419.1432
v -161.6708 168.9423 -420.3681
v -162.5076 168.8701 -422.581
v -152.1908 171.4041 -426.565
v -151.3541 171.4763 -424.3513
v -142.3268 172.256 -400.4744
v -141.4901 172.3282 -398.2616
v -151.8068 169.7943 -394.2784
v -152.6436 169.7221 -396.4913
v -140.0111 173.063 -401.6773
v -139.002 173.1505 -399.0083
v -141.4645 172.5457 -398.0577
v -142.4737 172.4583 -400.7267
v -152.3105 171.6088 -426.7468
v -149.848 172.2136 -427.6973
v -148.8388 172.3011 -425.0283
v -151.3014 171.6954 -424.0769
v -149.0019 172.0377 -424.9578
v -140.1742 172.8005 -401.6076
v -142.2163 172.2994 -400.8185
v -151.044 171.5366 -424.1695
v -152.7905 169.9243 -396.7436
v -151.7813 170.0118 -394.0746
v -154.244 169.4069 -393.1232
v -155.2531 169.3195 -395.7922
v -161.7821 168.8989 -420.0233
v -152.9536 169.6618 -396.6731
v -154.9957 169.1606 -395.8848
v -163.8242 168.3978 -419.2349
v -165.0908 168.47 -421.8122
v -162.6282 169.0748 -422.7628
v -161.619 169.1623 -420.0938
v -164.0816 168.5566 -419.1432
v 204.1362 236.0349 -624.7967
v 201.5079 235.9993 -625.7795
v 206.0747 231.1497 -637.8114
v 208.7021 231.1853 -636.8277
v 237.0581 231.5667 -626.2213
v 239.6864 231.6024 -625.2376
v 235.1205 236.452 -613.2057
v 232.4922 236.4163 -614.1894
v 237.8651 230.6501 -629.298
v 241.0345 230.6926 -628.1122
v 239.9446 231.8505 -625.2401
v 236.7744 231.808 -626.426
v 205.875 231.3917 -637.9847
v 206.9649 230.2347 -640.8568
v 210.1343 230.2772 -639.6709
v 209.0444 231.4351 -636.7988
v 210.012 230.1311 -639.337
v 237.742 230.504 -628.9642
v 236.8381 231.4639 -626.5831
v 209.1081 231.091 -636.956
v 203.0463 237.1936 -621.923
v 195.8513 242.0075 -610.8748
v 200.4181 237.1579 -622.9058
v 198.4796 242.0432 -609.8911
v 226.8357 242.4246 -599.2838
v 234.0298 237.6098 -610.3328
v 229.4639 242.4603 -598.301
v 231.4016 237.575 -611.3157
v 225.4621 243.8237 -596.6165
v 226.5519 242.6658 -599.4885
v 229.7221 242.7083 -598.3027
v 228.6323 243.8661 -595.4306
v 195.6526 242.2496 -611.0481
v 198.8219 242.293 -609.8622
v 197.7321 243.4499 -606.9902
v 194.5627 243.4075 -608.1752
v 197.7957 243.1059 -607.1482
v 198.6996 242.146 -609.5292
v 226.4296 242.5189 -599.1564
v 225.5258 243.4788 -596.7745
v 197.3897 243.201 -607.019
v 190.1956 248.015 -595.97
v 194.7615 243.1653 -608.0019
v 192.8238 248.0507 -594.9872
v 221.179 248.4321 -584.3799
v 228.3732 243.6172 -595.429
v 223.8073 248.4677 -583.3971
v 225.7458 243.5825 -596.4117
v 219.8063 249.8311 -581.7126
v 220.8962 248.6733 -584.5847
v 224.0656 248.7158 -583.3988
v 222.9757 249.8736 -580.5267
v 189.9959 248.2571 -596.1433
v 193.1662 248.3004 -594.9583
v 192.0763 249.4573 -592.0854
v 188.9061 249.4149 -593.2713
v 192.14 249.1133 -592.2443
v 193.0439 248.1534 -594.6253
v 220.7739 248.5263 -584.2525
v 219.87 249.4862 -581.8706
v 232.2085 236.6576 -614.3942
v 235.3788 236.7001 -613.2083
v 234.2889 237.8578 -610.3362
v 231.1187 237.8154 -611.5212
v 204.3553 236.1385 -624.4332
v 232.0862 236.5115 -614.0603
v 231.1824 237.4714 -611.6784
v 203.4524 237.0984 -622.0521
v 200.2193 237.4 -623.0808
v 201.3091 236.2422 -625.9528
v 204.4785 236.2847 -624.767
v 203.3886 237.4425 -621.895
v 204.1362 236.0349 -624.7967
v 201.5079 235.9993 -625.7795
v 206.0747 231.1497 -637.8114
v 208.7021 231.1853 -636.8277
v 237.0581 231.5667 -626.2213
v 239.6864 231.6024 -625.2376
v 235.1205 236.452 -613.2057
v 232.4922 236.4163 -614.1894
v 237.8651 230.6501 -629.298
v 241.0345 230.6926 -628.1122
v 239.9446 231.8505 -625.2401
v 236.7744 231.808 -626.426
v 205.875 231.3917 -637.9847
v 206.9649 230.2347 -640.8568
v 210.1343 230.2772 -639.6709
v 209.0444 231.4351 -636.7988
v 210.012 230.1311 -639.337
v 237.742 230.504 -628.9642
v 236.8381 231.4639 -626.5831
v 209.1081 231.091 -636.956
v 203.0463 237.1936 -621.923
v 195.8513 242.0075 -610.8748
v 200.4181 237.1579 -622.9058
v 198.4796 242.0432 -609.8911
v 226.8357 242.4246 -599.2838
v 234.0298 237.6098 -610.3328
v 229.4639 242.4603 -598.301
v 231.4016 237.575 -611.3157
v 225.4621 243.8237 -596.6165
v 226.5519 242.6658 -599.4885
v 229.7221 242.7083 -598.3027
v 228.6323 243.8661 -595.4306
v 195.6526 242.2496 -611.0481
v 198.8219 242.293 -609.8622
v 197.7321 243.4499 -606.9902
v 194.5627 243.4075 -608.1752
v 197.7957 243.1059 -607.1482
v 198.6996 242.146 -609.5292
v 226.4296 242.5189 -599.1564
v 225.5258 243.4788 -596.7745
v 197.3897 243.201 -607.019
v 190.1956 248.015 -595.97
v 194.7615 243.1653 -608.0019
v 192.8238 248.0507 -594.9872
v 221.179 248.4321 -584.3799
v 228.3732 243.6172 -595.429
v 223.8073 248.4677 -583.3971
v 225.7458 243.5825 -596.4117
v 219.8063 249.8311 -581.7126
v 220.8962 248.6733 -584.5847
v 224.0656 248.7158 -583.3988
v 222.9757 249.8736 -580.5267
v 189.9959 248.2571 -596.1433
v 193.1662 248.3004 -594.9583
v 192.0763 249.4573 -592.0854
v 188.9061 249.4149 -593.2713
v 192.14 249.1133 -592.2443
v 193.0439 248.1534 -594.6253
v 220.7739 248.5263 -584.2525
v 219.87 249.4862 -581.8706
v 232.2085 236.6576 -614.3942
v 235.3788 236.7001 -613.2083
v 234.2889 237.8578 -610.3362
v 231.1187 237.8154 -611.5212
v 204.3553 236.1385 -624.4332
v 232.0862 236.5115 -614.0603
v 231.1824 237.4714 -611.6784
v 203.4524 237.0984 -622.0521
v 200.2193 237.4 -623.0808
v 201.3091 236.2422 -625.9528
v 204.4785 236.2847 -624.767
v 203.3886 237.4425 -621.895
vt 0.3430644 0.1985162
vt 0.2532105 0.1985162
vt 0.2532105 0.8010898
vt 0.3430644 0.8010898
vt 0.3430644 0.8010898
vt 0.2532105 0.8010898
vt 0.2532105 0.1985162
vt 0.3430644 0.1985162
vt 0.4972139 0.6657805
vt 0.4972139 0.8264971
vt 0.3457968 0.8264971
vt 0.3457968 0.6657805
vt 0.3457968 0.8264971
vt 0.4972139 0.8264971
vt 0.4972139 0.6657805
vt 0.3457968 0.6657805
vt 0.3422643 0.9944749
vt 0.3422643 0.005131
vt 0.25392 0.005131
vt 0.25392 0.9944749
vt 0.4972139 0.6657805
vt 0.4972139 0.8264971
vt 0.3457968 0.8264971
vt 0.3457968 0.6657805
vt 0.3422643 0.9944749
vt 0.3422643 0.005131
vt 0.25392 0.005131
vt 0.25392 0.9944749
vt 0.3457968 0.8264971
vt 0.4972139 0.8264971
vt 0.4972139 0.6657805
vt 0.3457968 0.6657805
vt 0.3430644 0.1985162
vt 0.2532105 0.1985162
vt 0.2532105 0.8010898
vt 0.3430644 0.8010898
vt 0.3430644 0.8010898
vt 0.2532105 0.8010898
vt 0.2532105 0.1985162
vt 0.3430644 0.1985162
vt 0.4972139 0.6657805
vt 0.4972139 0.8264971
vt 0.3457968 0.8264971
vt 0.3457968 0.6657805
vt 0.3457968 0.8264971
vt 0.4972139 0.8264971
vt 0.4972139 0.6657805
vt 0.3457968 0.6657805
vt 0.3422643 0.9944749
vt 0.3422643 0.005131
vt 0.25392 0.005131
vt 0.25392 0.9944749
vt 0.4972139 0.6657805
vt 0.4972139 0.8264971
vt 0.3457968 0.8264971
vt 0.3457968 0.6657805
vt 0.3422643 0.9944749
vt 0.3422643 0.005131
vt 0.25392 0.005131
vt 0.25392 0.9944749
vt 0.3457968 0.8264971
vt 0.4972139 0.8264971
vt 0.4972139 0.6657805
vt 0.3457968 0.6657805
vt 0.3430644 0.1985162
vt 0.2532105 0.1985162
vt 0.2532105 0.8010898
vt 0.3430644 0.8010898
vt 0.3430644 0.8010898
vt 0.2532105 0.8010898
vt 0.2532105 0.1985162
vt 0.3430644 0.1985162
vt 0.4972139 0.6657805
vt 0.4972139 0.8264971
vt 0.3457968 0.8264971
vt 0.3457968 0.6657805
vt 0.3457968 0.8264971
vt 0.4972139 0.8264971
vt 0.4972139 0.6657805
vt 0.3457968 0.6657805
vt 0.3422643 0.9944749
vt 0.3422643 0.005131
vt 0.25392 0.005131
vt 0.25392 0.9944749
vt 0.3430644 0.1985162
vt 0.2532105 0.8010898
vt 0.2532105 0.1985162
vt 0.3430644 0.8010898
vt 0.3430644 0.8010898
vt 0.2532105 0.1985162
vt 0.2532105 0.8010898
vt 0.3430644 0.1985162
vt 0.4972139 0.6657805
vt 0.3457968 0.6657805
vt 0.3457968 0.8264971
vt 0.4972139 0.8264971
vt 0.3457968 0.8264971
vt 0.3457968 0.6657805
vt 0.4972139 0.6657805
vt 0.4972139 0.8264971
vt 0.3422643 0.9944749
vt 0.25392 0.9944749
vt 0.25392 0.005131
vt 0.3422643 0.005131
vt 0.3430644 0.1985162
vt 0.2532105 0.8010898
vt 0.2532105 0.1985162
vt 0.3430644 0.8010898
vt 0.3430644 0.8010898
vt 0.2532105 0.1985162
vt 0.2532105 0.8010898
vt 0.3430644 0.1985162
vt 0.4972139 0.6657805
vt 0.3457968 0.6657805
vt 0.3457968 0.8264971
vt 0.4972139 0.8264971
vt 0.3457968 0.8264971
vt 0.3457968 0.6657805
vt 0.4972139 0.6657805
vt 0.4972139 0.8264971
vt 0.3422643 0.9944749
vt 0.25392 0.9944749
vt 0.25392 0.005131
vt 0.3422643 0.005131
vt 0.4972139 0.6657805
vt 0.4972139 0.8264971
vt 0.3457968 0.8264971
vt 0.3457968 0.6657805
vt 0.3422643 0.9944749
vt 0.3422643 0.005131
vt 0.25392 0.005131
vt 0.25392 0.9944749
vt 0.3457968 0.8264971
vt 0.4972139 0.8264971
vt 0.4972139 0.6657805
vt 0.3457968 0.6657805
vt 0.3430644 0.1985162
vt 0.2532105 0.1985162
vt 0.2532105 0.8010898
vt 0.3430644 0.8010898
vt 0.3430644 0.8010898
vt 0.2532105 0.8010898
vt 0.2532105 0.1985162
vt 0.3430644 0.1985162
vt 0.4972139 0.6657805
vt 0.4972139 0.8264971
vt 0.3457968 0.8264971
vt 0.3457968 0.6657805
vt 0.3457968 0.8264971
vt 0.4972139 0.8264971
vt 0.4972139 0.6657805
vt 0.3457968 0.6657805
vt 0.3422643 0.9944749
vt 0.3422643 0.005131
vt 0.25392 0.005131
vt 0.25392 0.9944749
vt 0.3430644 0.1985162
vt 0.2532105 0.8010898
vt 0.2532105 0.1985162
vt 0.3430644 0.8010898
vt 0.3430644 0.8010898
vt 0.2532105 0.1985162
vt 0.2532105 0.8010898
vt 0.3430644 0.1985162
vt 0.4972139 0.6657805
vt 0.3457968 0.6657805
vt 0.3457968 0.8264971
vt 0.4972139 0.8264971
vt 0.3457968 0.8264971
vt 0.3457968 0.6657805
vt 0.4972139 0.6657805
vt 0.4972139 0.8264971
vt 0.3422643 0.9944749
vt 0.25392 0.9944749
vt 0.25392 0.005131
vt 0.3422643 0.005131
vt 0.3430644 0.1985162
vt 0.2532105 0.8010898
vt 0.2532105 0.1985162
vt 0.3430644 0.8010898
vt 0.3430644 0.8010898
vt 0.2532105 0.1985162
vt 0.2532105 0.8010898
vt 0.3430644 0.1985162
vt 0.4972139 0.6657805
vt 0.3457968 0.6657805
vt 0.3457968 0.8264971
vt 0.4972139 0.8264971
vt 0.3457968 0.8264971
vt 0.3457968 0.6657805
vt 0.4972139 0.6657805
vt 0.4972139 0.8264971
vt 0.3422643 0.9944749
vt 0.25392 0.9944749
vt 0.25392 0.005131
vt 0.3422643 0.005131
vt 0.4972139 0.6657805
vt 0.4972139 0.8264971
vt 0.3457968 0.8264971
vt 0.3457968 0.6657805
vt 0.3422643 0.9944749
vt 0.3422643 0.005131
vt 0.25392 0.005131
vt 0.25392 0.9944749
vt 0.3457968 0.8264971
vt 0.4972139 0.8264971
vt 0.4972139 0.6657805
vt 0.3457968 0.6657805
vn -0.219997 0.9742647 0.04908805
vn -0.219997 0.9742647 0.04908805
vn -0.219997 0.9742647 0.04908805
vn -0.219997 0.9742647 0.04908805
vn -0.219997 0.9742647 0.04908805
vn -0.219997 0.9742647 0.04908805
vn -0.219997 0.9742647 0.04908805
vn -0.219997 0.9742647 0.04908805
vn -0.219997 0.9742647 0.04908805
vn -0.219997 0.9742647 0.04908805
vn -0.219997 0.9742647 0.04908805
vn -0.219997 0.9742647 0.04908805
vn -0.219997 0.9742647 0.04908805
vn -0.219997 0.9742647 0.04908805
vn -0.219997 0.9742647 0.04908805
vn -0.219997 0.9742647 0.04908805
vn -0.219997 0.9742647 0.04908805
vn -0.219997 0.9742647 0.04908805
vn -0.219997 0.9742647 0.04908805
vn -0.219997 0.9742647 0.04908805
vn -0.219997 0.9742647 0.04908805
vn -0.219997 0.9742647 0.04908805
vn -0.219997 0.9742647 0.04908805
vn -0.219997 0.9742647 0.04908805
vn -0.219997 0.9742647 0.04908805
vn -0.219997 0.9742647 0.04908805
vn -0.219997 0.9742647 0.04908805
vn -0.219997 0.9742647 0.04908805
vn -0.219997 0.9742647 0.04908805
vn -0.219997 0.9742647 0.04908805
vn -0.219997 0.9742647 0.04908805
vn -0.219997 0.9742647 0.04908805
vn -0.219997 0.9742647 0.04908805
vn -0.219997 0.9742647 0.04908805
vn -0.219997 0.9742647 0.04908805
vn -0.219997 0.9742647 0.04908805
vn -0.219997 0.9742647 0.04908805
vn -0.219997 0.9742647 0.04908805
vn -0.219997 0.9742647 0.04908805
vn -0.219997 0.9742647 0.04908805
vn -0.219997 0.9742647 0.04908805
vn -0.219997 0.9742647 0.04908805
vn -0.219997 0.9742647 0.04908805
vn -0.219997 0.9742647 0.04908805
vn -0.219997 0.9742647 0.04908805
vn -0.219997 0.9742647 0.04908805
vn -0.219997 0.9742647 0.04908805
vn -0.219997 0.9742647 0.04908805
vn -0.219997 0.9742647 0.04908805
vn -0.219997 0.9742647 0.04908805
vn -0.219997 0.9742647 0.04908805
vn -0.219997 0.9742647 0.04908805
vn -0.219997 0.9742647 0.04908805
vn -0.219997 0.9742647 0.04908805
vn -0.219997 0.9742647 0.04908805
vn -0.219997 0.9742647 0.04908805
vn -0.219997 0.9742647 0.04908805
vn -0.219997 0.9742647 0.04908805
vn -0.219997 0.9742647 0.04908805
vn -0.219997 0.9742647 0.04908805
vn -0.219997 0.9742647 0.04908805
vn -0.219997 0.9742647 0.04908805
vn -0.219997 0.9742647 0.04908805
vn -0.219997 0.9742647 0.04908805
vn 0.1125181 0.9360201 -0.3334758
vn 0.1125181 0.9360201 -0.3334758
vn 0.1125181 0.9360201 -0.3334758
vn 0.1125181 0.9360201 -0.3334758
vn 0.1125181 0.9360201 -0.3334758
vn 0.1125181 0.9360201 -0.3334758
vn 0.1125181 0.9360201 -0.3334758
vn 0.1125181 0.9360201 -0.3334758
vn 0.1125181 0.9360201 -0.3334758
vn 0.1125181 0.9360201 -0.3334758
vn 0.1125181 0.9360201 -0.3334758
vn 0.1125181 0.9360201 -0.3334758
vn 0.1125181 0.9360201 -0.3334758
vn 0.1125181 0.9360201 -0.3334758
vn 0.1125181 0.9360201 -0.3334758
vn 0.1125181 0.9360201 -0.3334758
vn 0.1125181 0.9360201 -0.3334758
vn 0.1125181 0.9360201 -0.3334758
vn 0.1125181 0.9360201 -0.3334758
vn 0.1125181 0.9360201 -0.3334758
vn 0.1125181 0.9360201 -0.3334758
vn 0.1125181 0.9360201 -0.3334758
vn 0.1125181 0.9360201 -0.3334758
vn 0.1125181 0.9360201 -0.3334758
vn 0.1125181 0.9360201 -0.3334758
vn 0.1125181 0.9360201 -0.3334758
vn 0.1125181 0.9360201 -0.3334758
vn 0.1125181 0.9360201 -0.3334758
vn 0.1125181 0.9360201 -0.3334758
vn 0.1125181 0.9360201 -0.3334758
vn 0.1125181 0.9360201 -0.3334758
vn 0.1125181 0.9360201 -0.3334758
vn 0.1125181 0.9360201 -0.3334758
vn 0.1125181 0.9360201 -0.3334758
vn 0.1125181 0.9360201 -0.3334758
vn 0.1125181 0.9360201 -0.3334758
vn 0.1125181 0.9360201 -0.3334758
vn 0.1125181 0.9360201 -0.3334758
vn 0.1125181 0.9360201 -0.3334758
vn 0.1125181 0.9360201 -0.3334758
vn 0.1125181 0.9360201 -0.3334758
vn 0.1125181 0.9360201 -0.3334758
vn 0.1125181 0.9360201 -0.3334758
vn 0.1125181 0.9360201 -0.3334758
vn 0.1125181 0.9360201 -0.3334758
vn 0.1125181 0.9360201 -0.3334758
vn 0.1125181 0.9360201 -0.3334758
vn 0.1125181 0.9360201 -0.3334758
vn 0.1125181 0.9360201 -0.3334758
vn 0.1125181 0.9360201 -0.3334758
vn 0.1125181 0.9360201 -0.3334758
vn 0.1125181 0.9360201 -0.3334758
vn 0.1125181 0.9360201 -0.3334758
vn 0.1125181 0.9360201 -0.3334758
vn 0.1125181 0.9360201 -0.3334758
vn 0.1125181 0.9360201 -0.3334758
vn 0.1125181 0.9360201 -0.3334758
vn 0.1125181 0.9360201 -0.3334758
vn 0.1125181 0.9360201 -0.3334758
vn 0.1125181 0.9360201 -0.3334758
vn 0.1125181 0.9360201 -0.3334758
vn 0.1125181 0.9360201 -0.3334758
vn 0.1125181 0.9360201 -0.3334758
vn 0.1125181 0.9360201 -0.3334758
vn 0.1125181 0.9360201 -0.3334758
vn 0.1125181 0.9360201 -0.3334758
vn 0.1125181 0.9360201 -0.3334758
vn 0.1125181 0.9360201 -0.3334758
vn 0.1125181 0.9360201 -0.3334758
vn 0.1125181 0.9360201 -0.3334758
vn 0.1125181 0.9360201 -0.3334758
vn 0.1125181 0.9360201 -0.3334758
vn 0.1125181 0.9360201 -0.3334758
vn 0.1125181 0.9360201 -0.3334758
vn 0.1125181 0.9360201 -0.3334758
vn 0.1125181 0.9360201 -0.3334758
vn 0.1125181 0.9360201 -0.3334758
vn 0.1125181 0.9360201 -0.3334758
vn 0.1125181 0.9360201 -0.3334758
vn 0.1125181 0.9360201 -0.3334758
vn 0.1125181 0.9360201 -0.3334758
vn 0.1125181 0.9360201 -0.3334758
vn 0.1125181 0.9360201 -0.3334758
vn 0.1125181 0.9360201 -0.3334758
vn 0.1125181 0.9360201 -0.3334758
vn 0.1125181 0.9360201 -0.3334758
vn 0.1125181 0.9360201 -0.3334758
vn 0.1125181 0.9360201 -0.3334758
vn 0.1125181 0.9360201 -0.3334758
vn 0.1125181 0.9360201 -0.3334758
vn 0.1125181 0.9360201 -0.3334758
vn 0.1125181 0.9360201 -0.3334758
vn 0.1125181 0.9360201 -0.3334758
vn 0.1125181 0.9360201 -0.3334758
vn 0.1125181 0.9360201 -0.3334758
vn 0.1125181 0.9360201 -0.3334758
vn 0.1125181 0.9360201 -0.3334758
vn 0.1125181 0.9360201 -0.3334758
vn 0.1125181 0.9360201 -0.3334758
vn 0.1125181 0.9360201 -0.3334758
vn 0.1125181 0.9360201 -0.3334758
vn 0.1125181 0.9360201 -0.3334758
vn 0.1125181 0.9360201 -0.3334758
vn 0.1125181 0.9360201 -0.3334758
vn 0.1125181 0.9360201 -0.3334758
vn 0.1125181 0.9360201 -0.3334758
vn 0.1125181 0.9360201 -0.3334758
vn 0.1125181 0.9360201 -0.3334758
vn 0.1125181 0.9360201 -0.3334758
vn 0.1125181 0.9360201 -0.3334758
vn 0.1125181 0.9360201 -0.3334758
vn 0.1125181 0.9360201 -0.3334758
vn 0.1125181 0.9360201 -0.3334758
vn 0.1125181 0.9360201 -0.3334758
vn 0.1125181 0.9360201 -0.3334758
vn 0.1125181 0.9360201 -0.3334758
vn 0.1125181 0.9360201 -0.3334758
vn 0.1125181 0.9360201 -0.3334758
vn 0.1125181 0.9360201 -0.3334758
vn 0.1125181 0.9360201 -0.3334758
vn 0.1125181 0.9360201 -0.3334758
vn 0.1125181 0.9360201 -0.3334758
vn 0.1125181 0.9360201 -0.3334758
vn 0.1125181 0.9360201 -0.3334758
vn 0.1125181 0.9360201 -0.3334758
vn 0.1125181 0.9360201 -0.3334758
vn 0.1125181 0.9360201 -0.3334758
vn 0.1125181 0.9360201 -0.3334758
vn 0.1125181 0.9360201 -0.3334758
vn 0.1125181 0.9360201 -0.3334758
vn 0.1125181 0.9360201 -0.3334758
vn 0.1125181 0.9360201 -0.3334758
vn 0.1125181 0.9360201 -0.3334758
vn 0.1125181 0.9360201 -0.3334758
vn 0.1125181 0.9360201 -0.3334758
vn 0.1125181 0.9360201 -0.3334758
vn 0.1125181 0.9360201 -0.3334758
vn 0.1125181 0.9360201 -0.3334758
vn 0.1125181 0.9360201 -0.3334758
vn 0.1125181 0.9360201 -0.3334758
vn 0.1125181 0.9360201 -0.3334758
vn 0.1125181 0.9360201 -0.3334758
vn 0.1125181 0.9360201 -0.3334758
vn 0.1125181 0.9360201 -0.3334758
g Combined_ShadowCollisionPrefab_Mesh_0
f 3/3/3 2/2/2 1/1/1
f 1/1/1 4/4/4 3/3/3
f 7/7/7 6/6/6 5/5/5
f 5/5/5 8/8/8 7/7/7
f 11/11/11 10/10/10 9/9/9
f 12/12/12 11/11/11 9/9/9
f 15/15/15 14/14/14 13/13/13
f 16/16/16 15/15/15 13/13/13
f 19/19/19 18/18/18 17/17/17
f 20/20/20 19/19/19 17/17/17
f 23/23/23 22/22/22 21/21/21
f 24/24/24 23/23/23 21/21/21
f 27/27/27 26/26/26 25/25/25
f 28/28/28 27/27/27 25/25/25
f 31/31/31 30/30/30 29/29/29
f 32/32/32 31/31/31 29/29/29
f 35/35/35 34/34/34 33/33/33
f 33/33/33 36/36/36 35/35/35
f 39/39/39 38/38/38 37/37/37
f 37/37/37 40/40/40 39/39/39
f 43/43/43 42/42/42 41/41/41
f 44/44/44 43/43/43 41/41/41
f 47/47/47 46/46/46 45/45/45
f 48/48/48 47/47/47 45/45/45
f 51/51/51 50/50/50 49/49/49
f 52/52/52 51/51/51 49/49/49
f 55/55/55 54/54/54 53/53/53
f 56/56/56 55/55/55 53/53/53
f 59/59/59 58/58/58 57/57/57
f 60/60/60 59/59/59 57/57/57
f 63/63/63 62/62/62 61/61/61
f 64/64/64 63/63/63 61/61/61
f 67/67/67 66/66/66 65/65/65
f 65/65/65 68/68/68 67/67/67
f 71/71/71 70/70/70 69/69/69
f 69/69/69 72/72/72 71/71/71
f 75/75/75 74/74/74 73/73/73
f 76/76/76 75/75/75 73/73/73
f 79/79/79 78/78/78 77/77/77
f 80/80/80 79/79/79 77/77/77
f 83/83/83 82/82/82 81/81/81
f 84/84/84 83/83/83 81/81/81
f 87/87/87 86/86/86 85/85/85
f 88/88/88 85/85/85 86/86/86
f 91/91/91 90/90/90 89/89/89
f 92/92/92 89/89/89 90/90/90
f 95/95/95 94/94/94 93/93/93
f 96/96/96 95/95/95 93/93/93
f 99/99/99 98/98/98 97/97/97
f 100/100/100 99/99/99 97/97/97
f 103/103/103 102/102/102 101/101/101
f 104/104/104 103/103/103 101/101/101
f 107/107/107 106/106/106 105/105/105
f 108/108/108 105/105/105 106/106/106
f 111/111/111 110/110/110 109/109/109
f 112/112/112 109/109/109 110/110/110
f 115/115/115 114/114/114 113/113/113
f 116/116/116 115/115/115 113/113/113
f 119/119/119 118/118/118 117/117/117
f 120/120/120 119/119/119 117/117/117
f 123/123/123 122/122/122 121/121/121
f 124/124/124 123/123/123 121/121/121
f 127/127/127 126/126/126 125/125/125
f 128/128/128 127/127/127 125/125/125
f 131/131/131 130/130/130 129/129/129
f 132/132/132 131/131/131 129/129/129
f 135/135/135 134/134/134 133/133/133
f 136/136/136 135/135/135 133/133/133
f 139/139/139 138/138/138 137/137/137
f 137/137/137 140/140/140 139/139/139
f 143/143/143 142/142/142 141/141/141
f 141/141/141 144/144/144 143/143/143
f 147/147/147 146/146/146 145/145/145
f 148/148/148 147/147/147 145/145/145
f 151/151/151 150/150/150 149/149/149
f 152/152/152 151/151/151 149/149/149
f 155/155/155 154/154/154 153/153/153
f 156/156/156 155/155/155 153/153/153
f 159/159/159 158/158/158 157/157/157
f 160/160/160 157/157/157 158/158/158
f 163/163/163 162/162/162 161/161/161
f 164/164/164 161/161/161 162/162/162
f 167/167/167 166/166/166 165/165/165
f 168/168/168 167/167/167 165/165/165
f 171/171/171 170/170/170 169/169/169
f 172/172/172 171/171/171 169/169/169
f 175/175/175 174/174/174 173/173/173
f 176/176/176 175/175/175 173/173/173
f 179/179/179 178/178/178 177/177/177
f 180/180/180 177/177/177 178/178/178
f 183/183/183 182/182/182 181/181/181
f 184/184/184 181/181/181 182/182/182
f 187/187/187 186/186/186 185/185/185
f 188/188/188 187/187/187 185/185/185
f 191/191/191 190/190/190 189/189/189
f 192/192/192 191/191/191 189/189/189
f 195/195/195 194/194/194 193/193/193
f 196/196/196 195/195/195 193/193/193
f 199/199/199 198/198/198 197/197/197
f 200/200/200 199/199/199 197/197/197
f 203/203/203 202/202/202 201/201/201
f 204/204/204 203/203/203 201/201/201
f 207/207/207 206/206/206 205/205/205
f 208/208/208 207/207/207 205/205/205
