g Combined_M_Cmn_ami01_Prefab_Mesh
v -63.67818 152.0761 -129.978
v -53.72011 155.1005 -130.9214
v -59.02544 155.1005 -125.4589
v -58.37312 152.0761 -135.4404
v -53.72011 155.1005 -130.9214
v -53.06808 152.0761 -140.9029
v -48.41507 155.1005 -136.3839
v -58.37312 152.0761 -135.4404
v -58.14055 155.6756 -124.5998
v -48.1825 158.7003 -125.5429
v -53.48753 158.7003 -120.0808
v -52.83522 155.6756 -130.062
v -48.1825 158.7003 -125.5429
v -47.53018 155.6756 -135.5244
v -42.87717 158.7003 -131.0054
v -52.83522 155.6756 -130.062
v -57.77682 154.5882 -124.2463
v -53.12381 157.6128 -119.7273
v -47.81848 157.6128 -125.1898
v -52.4715 154.5882 -129.7088
v -47.81848 157.6128 -125.1898
v -42.51344 157.6128 -130.6523
v -47.16646 154.5882 -135.1713
v -52.4715 154.5882 -129.7088
v -63.31444 150.9883 -129.6248
v -58.66171 154.013 -125.1058
v -53.35638 154.013 -130.5683
v -58.0094 150.9883 -135.0873
v -53.35638 154.013 -130.5683
v -48.05135 154.013 -136.0305
v -52.70407 150.9883 -140.5495
v -58.0094 150.9883 -135.0873
v 36.63245 150.364 15.23506
v 48.88544 150.364 17.90315
v 41.04803 150.364 22.60103
v 44.46986 150.364 10.5369
v 48.88544 150.364 17.90315
v 52.30727 150.364 5.83902
v 56.72285 150.364 13.205
v 44.46986 150.364 10.5369
v 41.88777 150.364 24.00194
v 54.14048 150.364 26.67003
v 46.30306 150.364 31.3679
v 49.7249 150.364 19.30377
v 54.14048 150.364 26.67003
v 57.56231 150.364 14.6059
v 61.97789 150.364 21.97215
v 49.7249 150.364 19.30377
v 47.14281 150.364 32.76881
v 59.39552 150.364 35.4369
v 51.55839 150.364 40.13478
v 54.98022 150.364 28.07094
v 59.39552 150.364 35.4369
v 62.81763 150.364 23.37277
v 67.23293 150.364 30.73903
v 54.98022 150.364 28.07094
v 52.39784 150.364 41.53569
v 64.65084 150.364 44.20378
v 56.81343 150.364 48.90195
v 60.23526 150.364 36.83781
v 64.65084 150.364 44.20378
v 68.07268 150.364 32.13994
v 72.48826 150.364 39.50591
v 60.23526 150.364 36.83781
v 41.88777 148.9243 24.00194
v 46.30306 148.9243 31.3679
v 54.14048 148.9243 26.67003
v 49.7249 148.9243 19.30377
v 54.14048 148.9243 26.67003
v 61.97789 148.9243 21.97215
v 57.56231 148.9243 14.6059
v 49.7249 148.9243 19.30377
v 36.63245 148.9243 15.23506
v 41.04803 148.9243 22.60103
v 48.88544 148.9243 17.90315
v 44.46986 148.9243 10.5369
v 48.88544 148.9243 17.90315
v 56.72285 148.9243 13.205
v 52.30727 148.9243 5.83902
v 44.46986 148.9243 10.5369
v 47.14281 148.9243 32.76881
v 51.55839 148.9243 40.13478
v 59.39552 148.9243 35.4369
v 54.98022 148.9243 28.07094
v 59.39552 148.9243 35.4369
v 67.23293 148.9243 30.73903
v 62.81763 148.9243 23.37277
v 54.98022 148.9243 28.07094
v 52.39784 148.9243 41.53569
v 56.81343 148.9243 48.90195
v 64.65084 148.9243 44.20378
v 60.23526 148.9243 36.83781
v 64.65084 148.9243 44.20378
v 72.48826 148.9243 39.50591
v 68.07268 148.9243 32.13994
v 60.23526 148.9243 36.83781
vt -1.5 2.5
vt 2.5 -1.5
vt 2.5 2.5
vt -1.5 -1.5
vt -1.5 2.5
vt 2.5 -1.5
vt 2.5 2.5
vt -1.5 -1.5
vt -1.5 2.5
vt 2.5 -1.5
vt 2.5 2.5
vt -1.5 -1.5
vt -1.5 2.5
vt 2.5 -1.5
vt 2.5 2.5
vt -1.5 -1.5
vt -1.5 2.5
vt 2.5 2.5
vt 2.5 -1.5
vt -1.5 -1.5
vt -1.5 2.5
vt 2.5 2.5
vt 2.5 -1.5
vt -1.5 -1.5
vt -1.5 2.5
vt 2.5 2.5
vt 2.5 -1.5
vt -1.5 -1.5
vt -1.5 2.5
vt 2.5 2.5
vt 2.5 -1.5
vt -1.5 -1.5
vt -1.5 2.5
vt 2.5 -1.5
vt 2.5 2.5
vt -1.5 -1.5
vt -1.5 2.5
vt 2.5 -1.5
vt 2.5 2.5
vt -1.5 -1.5
vt -1.5 2.5
vt 2.5 -1.5
vt 2.5 2.5
vt -1.5 -1.5
vt -1.5 2.5
vt 2.5 -1.5
vt 2.5 2.5
vt -1.5 -1.5
vt -1.5 2.5
vt 2.5 -1.5
vt 2.5 2.5
vt -1.5 -1.5
vt -1.5 2.5
vt 2.5 -1.5
vt 2.5 2.5
vt -1.5 -1.5
vt -1.5 2.5
vt 2.5 -1.5
vt 2.5 2.5
vt -1.5 -1.5
vt -1.5 2.5
vt 2.5 -1.5
vt 2.5 2.5
vt -1.5 -1.5
vt -1.5 2.5
vt 2.5 2.5
vt 2.5 -1.5
vt -1.5 -1.5
vt -1.5 2.5
vt 2.5 2.5
vt 2.5 -1.5
vt -1.5 -1.5
vt -1.5 2.5
vt 2.5 2.5
vt 2.5 -1.5
vt -1.5 -1.5
vt -1.5 2.5
vt 2.5 2.5
vt 2.5 -1.5
vt -1.5 -1.5
vt -1.5 2.5
vt 2.5 2.5
vt 2.5 -1.5
vt -1.5 -1.5
vt -1.5 2.5
vt 2.5 2.5
vt 2.5 -1.5
vt -1.5 -1.5
vt -1.5 2.5
vt 2.5 2.5
vt 2.5 -1.5
vt -1.5 -1.5
vt -1.5 2.5
vt 2.5 2.5
vt 2.5 -1.5
vt -1.5 -1.5
vn -0.3040076 0.906158 -0.2940359
vn -0.3040076 0.906158 -0.2940359
vn -0.3040076 0.906158 -0.2940359
vn -0.3040076 0.906158 -0.2940359
vn -0.3040076 0.906158 -0.2940359
vn -0.3040076 0.906158 -0.2940359
vn -0.3040076 0.906158 -0.2940359
vn -0.3040076 0.906158 -0.2940359
vn -0.3040076 0.906158 -0.2940359
vn -0.3040076 0.906158 -0.2940359
vn -0.3040076 0.906158 -0.2940359
vn -0.3040076 0.906158 -0.2940359
vn -0.3040076 0.906158 -0.2940359
vn -0.3040076 0.906158 -0.2940359
vn -0.3040076 0.906158 -0.2940359
vn -0.3040076 0.906158 -0.2940359
vn 0.3020526 -0.9061579 0.2960441
vn 0.3020526 -0.9061579 0.2960441
vn 0.3020526 -0.9061579 0.2960441
vn 0.3020526 -0.9061579 0.2960441
vn 0.3020526 -0.9061579 0.2960441
vn 0.3020526 -0.9061579 0.2960441
vn 0.3020526 -0.9061579 0.2960441
vn 0.3020526 -0.9061579 0.2960441
vn 0.3020526 -0.9061579 0.2960441
vn 0.3020526 -0.9061579 0.2960441
vn 0.3020526 -0.9061579 0.2960441
vn 0.3020526 -0.9061579 0.2960441
vn 0.3020526 -0.9061579 0.2960441
vn 0.3020526 -0.9061579 0.2960441
vn 0.3020526 -0.9061579 0.2960441
vn 0.3020526 -0.9061579 0.2960441
vn -0.0009775162 0.9999995 0
vn -0.0009775162 0.9999995 0
vn -0.0009775162 0.9999995 0
vn -0.0009775162 0.9999995 0
vn -0.0009775162 0.9999995 0
vn -0.0009775162 0.9999995 0
vn -0.0009775162 0.9999995 0
vn -0.0009775162 0.9999995 0
vn -0.0009775162 0.9999995 0
vn -0.0009775162 0.9999995 0
vn -0.0009775162 0.9999995 0
vn -0.0009775162 0.9999995 0
vn -0.0009775162 0.9999995 0
vn -0.0009775162 0.9999995 0
vn -0.0009775162 0.9999995 0
vn -0.0009775162 0.9999995 0
vn -0.0009775162 0.9999995 0
vn -0.0009775162 0.9999995 0
vn -0.0009775162 0.9999995 0
vn -0.0009775162 0.9999995 0
vn -0.0009775162 0.9999995 0
vn -0.0009775162 0.9999995 0
vn -0.0009775162 0.9999995 0
vn -0.0009775162 0.9999995 0
vn -0.0009775162 0.9999995 0
vn -0.0009775162 0.9999995 0
vn -0.0009775162 0.9999995 0
vn -0.0009775162 0.9999995 0
vn -0.0009775162 0.9999995 0
vn -0.0009775162 0.9999995 0
vn -0.0009775162 0.9999995 0
vn -0.0009775162 0.9999995 0
vn -0.0009775162 -0.9999995 0
vn -0.0009775162 -0.9999995 0
vn -0.0009775162 -0.9999995 0
vn -0.0009775162 -0.9999995 0
vn -0.0009775162 -0.9999995 0
vn -0.0009775162 -0.9999995 0
vn -0.0009775162 -0.9999995 0
vn -0.0009775162 -0.9999995 0
vn -0.0009775162 -0.9999995 0
vn -0.0009775162 -0.9999995 0
vn -0.0009775162 -0.9999995 0
vn -0.0009775162 -0.9999995 0
vn -0.0009775162 -0.9999995 0
vn -0.0009775162 -0.9999995 0
vn -0.0009775162 -0.9999995 0
vn -0.0009775162 -0.9999995 0
vn -0.0009775162 -0.9999995 0
vn -0.0009775162 -0.9999995 0
vn -0.0009775162 -0.9999995 0
vn -0.0009775162 -0.9999995 0
vn -0.0009775162 -0.9999995 0
vn -0.0009775162 -0.9999995 0
vn -0.0009775162 -0.9999995 0
vn -0.0009775162 -0.9999995 0
vn -0.0009775162 -0.9999995 0
vn -0.0009775162 -0.9999995 0
vn -0.0009775162 -0.9999995 0
vn -0.0009775162 -0.9999995 0
vn -0.0009775162 -0.9999995 0
vn -0.0009775162 -0.9999995 0
vn -0.0009775162 -0.9999995 0
vn -0.0009775162 -0.9999995 0
g Combined_M_Cmn_ami01_Prefab_Mesh_0
f 3/3/3 2/2/2 1/1/1
f 4/4/4 1/1/1 2/2/2
f 7/7/7 6/6/6 5/5/5
f 8/8/8 5/5/5 6/6/6
f 11/11/11 10/10/10 9/9/9
f 12/12/12 9/9/9 10/10/10
f 15/15/15 14/14/14 13/13/13
f 16/16/16 13/13/13 14/14/14
f 19/19/19 18/18/18 17/17/17
f 17/17/17 20/20/20 19/19/19
f 23/23/23 22/22/22 21/21/21
f 21/21/21 24/24/24 23/23/23
f 27/27/27 26/26/26 25/25/25
f 25/25/25 28/28/28 27/27/27
f 31/31/31 30/30/30 29/29/29
f 29/29/29 32/32/32 31/31/31
f 35/35/35 34/34/34 33/33/33
f 36/36/36 33/33/33 34/34/34
f 39/39/39 38/38/38 37/37/37
f 40/40/40 37/37/37 38/38/38
f 43/43/43 42/42/42 41/41/41
f 44/44/44 41/41/41 42/42/42
f 47/47/47 46/46/46 45/45/45
f 48/48/48 45/45/45 46/46/46
f 51/51/51 50/50/50 49/49/49
f 52/52/52 49/49/49 50/50/50
f 55/55/55 54/54/54 53/53/53
f 56/56/56 53/53/53 54/54/54
f 59/59/59 58/58/58 57/57/57
f 60/60/60 57/57/57 58/58/58
f 63/63/63 62/62/62 61/61/61
f 64/64/64 61/61/61 62/62/62
f 67/67/67 66/66/66 65/65/65
f 65/65/65 68/68/68 67/67/67
f 71/71/71 70/70/70 69/69/69
f 69/69/69 72/72/72 71/71/71
f 75/75/75 74/74/74 73/73/73
f 73/73/73 76/76/76 75/75/75
f 79/79/79 78/78/78 77/77/77
f 77/77/77 80/80/80 79/79/79
f 83/83/83 82/82/82 81/81/81
f 81/81/81 84/84/84 83/83/83
f 87/87/87 86/86/86 85/85/85
f 85/85/85 88/88/88 87/87/87
f 91/91/91 90/90/90 89/89/89
f 89/89/89 92/92/92 91/91/91
f 95/95/95 94/94/94 93/93/93
f 93/93/93 96/96/96 95/95/95
