g Combined_ShadowCollisionPrefab_Mesh
v -66.76758 255.4033 313.6366
v -69.12076 255.4033 310.717
v -69.12076 251.6534 310.717
v -66.76758 251.6534 313.6366
v -69.12076 255.4033 310.717
v -66.76758 255.4033 313.6366
v -69.68398 255.4033 315.9969
v -72.04437 255.4033 313.0688
v -72.04437 255.4033 313.0688
v -69.68398 255.4033 315.9969
v -72.60713 255.4033 318.3488
v -74.96527 255.4033 315.4234
v -74.96527 255.4033 315.4234
v -72.60713 255.4033 318.3488
v -75.52579 255.4033 320.706
v -77.88663 255.4033 317.7775
v -77.88663 255.4033 317.7775
v -75.52579 255.4033 320.706
v -78.4494 255.4033 323.0579
v -80.80754 255.4033 320.132
v -83.7262 251.6534 322.4897
v -83.7262 255.4033 322.4897
v -81.373 255.4033 325.4093
v -81.373 251.6534 325.4093
v -80.80754 255.4033 320.132
v -78.4494 255.4033 323.0579
v -81.373 255.4033 325.4093
v -83.7262 255.4033 322.4897
v 82.6557 86.03619 -146.2894
v 82.6557 86.03619 -142.5395
v 82.6557 82.28621 -142.5395
v 82.6557 82.28621 -146.2894
v 82.6557 86.03619 -142.5395
v 82.6557 86.03619 -146.2894
v 86.40749 86.03619 -146.2971
v 86.40749 86.03619 -142.5359
v 86.40749 86.03619 -142.5359
v 86.40749 86.03619 -146.2971
v 90.15927 86.03619 -146.2935
v 90.15927 86.03619 -142.5359
v 90.15927 86.03619 -142.5359
v 90.15927 86.03619 -146.2935
v 93.91106 86.03619 -146.2971
v 93.91106 86.03619 -142.5359
v 93.91106 86.03619 -142.5359
v 93.91106 86.03619 -146.2971
v 97.66286 86.03619 -146.2935
v 97.66286 86.03619 -142.5359
v 101.4151 82.28621 -142.5395
v 101.4151 86.03619 -142.5395
v 101.4151 86.03619 -146.2894
v 101.4151 82.28621 -146.2894
v 97.66286 86.03619 -142.5359
v 97.66286 86.03619 -146.2935
v 101.4151 86.03619 -146.2894
v 101.4151 86.03619 -142.5395
v -101.6124 234.131 270.4636
v -100.1985 234.1081 269.3115
v -94.97256 237.6242 275.6549
v -96.3869 237.6471 276.807
v -111.6424 237.8945 289.2373
v -113.0563 237.9175 290.3894
v -118.2818 234.4014 284.046
v -116.8679 234.3785 282.894
v -110.2676 238.8883 290.5613
v -111.9726 238.9157 291.9509
v -113.22 238.0763 290.4362
v -111.5151 238.0488 289.0471
v -94.89024 237.7789 275.5015
v -93.64279 238.6183 277.0157
v -95.34819 238.6458 278.4053
v -96.59564 237.8064 276.8911
v -95.41432 238.4173 278.3288
v -110.3333 238.6593 290.4848
v -111.3675 237.9633 289.2292
v -96.44853 237.7213 277.0733
v -102.8603 233.2916 268.9489
v -106.6719 229.7522 261.4534
v -101.4464 233.2687 267.7968
v -108.0858 229.7751 262.6055
v -123.3413 230.023 275.0354
v -119.5297 233.562 282.5309
v -124.7556 230.0459 276.1875
v -118.1158 233.539 281.3788
v -124.4614 229.3374 273.3309
v -123.214 230.1768 274.8452
v -124.9194 230.2047 276.2347
v -126.1668 229.3653 274.7206
v -106.5896 229.9069 261.2996
v -108.295 229.9348 262.6892
v -109.5424 229.0954 261.175
v -107.8371 229.0679 259.7854
v -109.3949 229.0103 261.3576
v -108.3602 229.7063 262.6132
v -123.2797 229.9488 274.7696
v -124.3139 229.2528 273.5136
v -116.7406 234.5328 282.7036
v -118.446 234.5602 284.0928
v -119.6934 233.7208 282.5786
v -117.988 233.6933 281.189
v -101.8873 234.0618 270.4712
v -116.8062 234.3043 282.6272
v -117.8409 233.6079 281.3716
v -102.9215 233.3658 269.2157
v -101.3636 233.4234 267.6439
v -100.1162 234.2628 269.1581
v -101.8216 234.2903 270.5477
v -103.069 233.4513 269.033
v -101.6124 234.131 270.4636
v -100.1985 234.1081 269.3115
v -94.97256 237.6242 275.6549
v -96.3869 237.6471 276.807
v -111.6424 237.8945 289.2373
v -113.0563 237.9175 290.3894
v -118.2818 234.4014 284.046
v -116.8679 234.3785 282.894
v -110.2676 238.8883 290.5613
v -111.9726 238.9157 291.9509
v -113.22 238.0763 290.4362
v -111.5151 238.0488 289.0471
v -94.89024 237.7789 275.5015
v -93.64279 238.6183 277.0157
v -95.34819 238.6458 278.4053
v -96.59564 237.8064 276.8911
v -95.41432 238.4173 278.3288
v -110.3333 238.6593 290.4848
v -111.3675 237.9633 289.2292
v -96.44853 237.7213 277.0733
v -102.8603 233.2916 268.9489
v -106.6719 229.7522 261.4534
v -101.4464 233.2687 267.7968
v -108.0858 229.7751 262.6055
v -123.3413 230.023 275.0354
v -119.5297 233.562 282.5309
v -124.7556 230.0459 276.1875
v -118.1158 233.539 281.3788
v -124.4614 229.3374 273.3309
v -123.214 230.1768 274.8452
v -124.9194 230.2047 276.2347
v -126.1668 229.3653 274.7206
v -106.5896 229.9069 261.2996
v -108.295 229.9348 262.6892
v -109.5424 229.0954 261.175
v -107.8371 229.0679 259.7854
v -109.3949 229.0103 261.3576
v -108.3602 229.7063 262.6132
v -123.2797 229.9488 274.7696
v -124.3139 229.2528 273.5136
v -116.7406 234.5328 282.7036
v -118.446 234.5602 284.0928
v -119.6934 233.7208 282.5786
v -117.988 233.6933 281.189
v -101.8873 234.0618 270.4712
v -116.8062 234.3043 282.6272
v -117.8409 233.6079 281.3716
v -102.9215 233.3658 269.2157
v -101.3636 233.4234 267.6439
v -100.1162 234.2628 269.1581
v -101.8216 234.2903 270.5477
v -103.069 233.4513 269.033
vt 0.6144527 0.969596
vt 0.3390789 0.9696111
vt 0.3421284 0.6972717
vt 0.6176381 0.6972717
vt 0.623737 0.731284
vt 0.623737 0.9136034
vt 0.8060716 0.9136034
vt 0.8060716 0.731284
vt 0.6314815 0.4216715
vt 0.6314815 0.5887133
vt 0.7983271 0.5887133
vt 0.7983271 0.4216715
vt 0.623737 0.731284
vt 0.623737 0.9136034
vt 0.8060716 0.9136034
vt 0.8060716 0.731284
vt 0.6314815 0.4216715
vt 0.6314815 0.5887133
vt 0.7983271 0.5887133
vt 0.7983271 0.4216715
vt 0.3421284 0.6972717
vt 0.3421737 0.969596
vt 0.6175475 0.9696111
vt 0.6176381 0.6972717
vt 0.623737 0.731284
vt 0.623737 0.9136034
vt 0.8060716 0.9136034
vt 0.8060716 0.731284
vt 0.6144527 0.969596
vt 0.3390789 0.9696111
vt 0.3421284 0.6972717
vt 0.6176381 0.6972717
vt 0.623737 0.731284
vt 0.623737 0.9136034
vt 0.8060716 0.9136034
vt 0.8060716 0.731284
vt 0.6314815 0.4216715
vt 0.6314815 0.5887133
vt 0.7983271 0.5887133
vt 0.7983271 0.4216715
vt 0.623737 0.731284
vt 0.623737 0.9136034
vt 0.8060716 0.9136034
vt 0.8060716 0.731284
vt 0.6314815 0.4216715
vt 0.6314815 0.5887133
vt 0.7983271 0.5887133
vt 0.7983271 0.4216715
vt 0.3421284 0.6972717
vt 0.3421737 0.969596
vt 0.6175475 0.9696111
vt 0.6176381 0.6972717
vt 0.623737 0.731284
vt 0.623737 0.9136034
vt 0.8060716 0.9136034
vt 0.8060716 0.731284
vt 0.3430644 0.1985162
vt 0.2532105 0.1985162
vt 0.2532105 0.8010898
vt 0.3430644 0.8010898
vt 0.3430644 0.8010898
vt 0.2532105 0.8010898
vt 0.2532105 0.1985162
vt 0.3430644 0.1985162
vt 0.4972139 0.6657805
vt 0.4972139 0.8264971
vt 0.3457968 0.8264971
vt 0.3457968 0.6657805
vt 0.3457968 0.8264971
vt 0.4972139 0.8264971
vt 0.4972139 0.6657805
vt 0.3457968 0.6657805
vt 0.3422643 0.9944749
vt 0.3422643 0.005131
vt 0.25392 0.005131
vt 0.25392 0.9944749
vt 0.3430644 0.1985162
vt 0.2532105 0.8010898
vt 0.2532105 0.1985162
vt 0.3430644 0.8010898
vt 0.3430644 0.8010898
vt 0.2532105 0.1985162
vt 0.2532105 0.8010898
vt 0.3430644 0.1985162
vt 0.4972139 0.6657805
vt 0.3457968 0.6657805
vt 0.3457968 0.8264971
vt 0.4972139 0.8264971
vt 0.3457968 0.8264971
vt 0.3457968 0.6657805
vt 0.4972139 0.6657805
vt 0.4972139 0.8264971
vt 0.3422643 0.9944749
vt 0.25392 0.9944749
vt 0.25392 0.005131
vt 0.3422643 0.005131
vt 0.4972139 0.6657805
vt 0.4972139 0.8264971
vt 0.3457968 0.8264971
vt 0.3457968 0.6657805
vt 0.3422643 0.9944749
vt 0.3422643 0.005131
vt 0.25392 0.005131
vt 0.25392 0.9944749
vt 0.3457968 0.8264971
vt 0.4972139 0.8264971
vt 0.4972139 0.6657805
vt 0.3457968 0.6657805
vt 0.3430644 0.1985162
vt 0.2532105 0.1985162
vt 0.2532105 0.8010898
vt 0.3430644 0.8010898
vt 0.3430644 0.8010898
vt 0.2532105 0.8010898
vt 0.2532105 0.1985162
vt 0.3430644 0.1985162
vt 0.4972139 0.6657805
vt 0.4972139 0.8264971
vt 0.3457968 0.8264971
vt 0.3457968 0.6657805
vt 0.3457968 0.8264971
vt 0.4972139 0.8264971
vt 0.4972139 0.6657805
vt 0.3457968 0.6657805
vt 0.3422643 0.9944749
vt 0.3422643 0.005131
vt 0.25392 0.005131
vt 0.25392 0.9944749
vt 0.3430644 0.1985162
vt 0.2532105 0.8010898
vt 0.2532105 0.1985162
vt 0.3430644 0.8010898
vt 0.3430644 0.8010898
vt 0.2532105 0.1985162
vt 0.2532105 0.8010898
vt 0.3430644 0.1985162
vt 0.4972139 0.6657805
vt 0.3457968 0.6657805
vt 0.3457968 0.8264971
vt 0.4972139 0.8264971
vt 0.3457968 0.8264971
vt 0.3457968 0.6657805
vt 0.4972139 0.6657805
vt 0.4972139 0.8264971
vt 0.3422643 0.9944749
vt 0.25392 0.9944749
vt 0.25392 0.005131
vt 0.3422643 0.005131
vt 0.4972139 0.6657805
vt 0.4972139 0.8264971
vt 0.3457968 0.8264971
vt 0.3457968 0.6657805
vt 0.3422643 0.9944749
vt 0.3422643 0.005131
vt 0.25392 0.005131
vt 0.25392 0.9944749
vt 0.3457968 0.8264971
vt 0.4972139 0.8264971
vt 0.4972139 0.6657805
vt 0.3457968 0.6657805
vn 0.7790807 0.0009775162 -0.6269228
vn 0.7790807 0.0009775162 -0.6269228
vn 0.7790807 0.0009775162 -0.6269228
vn 0.7790807 0.0009775162 -0.6269228
vn 0.0009775162 0.9999995 0
vn 0.0009775162 0.9999995 0
vn 0.0009775162 0.9999995 0
vn 0.0009775162 0.9999995 0
vn 0.0009775162 0.9999995 0
vn 0.0009775162 0.9999995 0
vn 0.0009775162 0.9999995 0
vn 0.0009775162 0.9999995 0
vn 0.0009775162 0.9999995 0
vn 0.0009775162 0.9999995 0
vn 0.0009775162 0.9999995 0
vn 0.0009775162 0.9999995 0
vn 0.0009775162 0.9999995 0
vn 0.0009775162 0.9999995 0
vn 0.0009775162 0.9999995 0
vn 0.0009775162 0.9999995 0
vn -0.7790807 0.0009775162 0.6269228
vn -0.7790807 0.0009775162 0.6269228
vn -0.7790807 0.0009775162 0.6269228
vn -0.7790807 0.0009775162 0.6269228
vn 0.0009775162 0.9999995 0
vn 0.0009775162 0.9999995 0
vn 0.0009775162 0.9999995 0
vn 0.0009775162 0.9999995 0
vn -0.9999995 0.0009775162 0
vn -0.9999995 0.0009775162 0
vn -0.9999995 0.0009775162 0
vn -0.9999995 0.0009775162 0
vn -0.0009775162 0.9999995 0
vn -0.0009775162 0.9999995 0
vn -0.0009775162 0.9999995 0
vn -0.0009775162 0.9999995 0
vn -0.0009775162 0.9999995 0
vn -0.0009775162 0.9999995 0
vn -0.0009775162 0.9999995 0
vn -0.0009775162 0.9999995 0
vn -0.0009775162 0.9999995 0
vn -0.0009775162 0.9999995 0
vn -0.0009775162 0.9999995 0
vn -0.0009775162 0.9999995 0
vn -0.0009775162 0.9999995 0
vn -0.0009775162 0.9999995 0
vn -0.0009775162 0.9999995 0
vn -0.0009775162 0.9999995 0
vn 0.9999995 0.0009775162 0
vn 0.9999995 0.0009775162 0
vn 0.9999995 0.0009775162 0
vn 0.9999995 0.0009775162 0
vn -0.0009775162 0.9999995 0
vn -0.0009775162 0.9999995 0
vn -0.0009775162 0.9999995 0
vn -0.0009775162 0.9999995 0
vn -0.2394916 0.9198432 -0.3106964
vn -0.2394916 0.9198432 -0.3106964
vn -0.2394916 0.9198432 -0.3106964
vn -0.2394916 0.9198432 -0.3106964
vn -0.2394916 0.9198432 -0.3106964
vn -0.2394916 0.9198432 -0.3106964
vn -0.2394916 0.9198432 -0.3106964
vn -0.2394916 0.9198432 -0.3106964
vn -0.2394916 0.9198432 -0.3106964
vn -0.2394916 0.9198432 -0.3106964
vn -0.2394916 0.9198432 -0.3106964
vn -0.2394916 0.9198432 -0.3106964
vn -0.2394916 0.9198432 -0.3106964
vn -0.2394916 0.9198432 -0.3106964
vn -0.2394916 0.9198432 -0.3106964
vn -0.2394916 0.9198432 -0.3106964
vn -0.2394916 0.9198432 -0.3106964
vn -0.2394916 0.9198432 -0.3106964
vn -0.2394916 0.9198432 -0.3106964
vn -0.2394916 0.9198432 -0.3106964
vn -0.2394916 0.9198432 -0.3106964
vn -0.2394916 0.9198432 -0.3106964
vn -0.2394916 0.9198432 -0.3106964
vn -0.2394916 0.9198432 -0.3106964
vn -0.2394916 0.9198432 -0.3106964
vn -0.2394916 0.9198432 -0.3106964
vn -0.2394916 0.9198432 -0.3106964
vn -0.2394916 0.9198432 -0.3106964
vn -0.2394916 0.9198432 -0.3106964
vn -0.2394916 0.9198432 -0.3106964
vn -0.2394916 0.9198432 -0.3106964
vn -0.2394916 0.9198432 -0.3106964
vn -0.2394916 0.9198432 -0.3106964
vn -0.2394916 0.9198432 -0.3106964
vn -0.2394916 0.9198432 -0.3106964
vn -0.2394916 0.9198432 -0.3106964
vn -0.2394916 0.9198432 -0.3106964
vn -0.2394916 0.9198432 -0.3106964
vn -0.2394916 0.9198432 -0.3106964
vn -0.2394916 0.9198432 -0.3106964
vn -0.2394916 0.9198432 -0.3106964
vn -0.2394916 0.9198432 -0.3106964
vn -0.2394916 0.9198432 -0.3106964
vn -0.2394916 0.9198432 -0.3106964
vn -0.2394916 0.9198432 -0.3106964
vn -0.2394916 0.9198432 -0.3106964
vn -0.2394916 0.9198432 -0.3106964
vn -0.2394916 0.9198432 -0.3106964
vn -0.2394916 0.9198432 -0.3106964
vn -0.2394916 0.9198432 -0.3106964
vn -0.2394916 0.9198432 -0.3106964
vn -0.2394916 0.9198432 -0.3106964
vn -0.2394916 0.9198432 -0.3106964
vn -0.2394916 0.9198432 -0.3106964
vn -0.2394916 0.9198432 -0.3106964
vn -0.2394916 0.9198432 -0.3106964
vn -0.2394916 0.9198432 -0.3106964
vn -0.2394916 0.9198432 -0.3106964
vn -0.2394916 0.9198432 -0.3106964
vn -0.2394916 0.9198432 -0.3106964
vn -0.2394916 0.9198432 -0.3106964
vn -0.2394916 0.9198432 -0.3106964
vn -0.2394916 0.9198432 -0.3106964
vn -0.2394916 0.9198432 -0.3106964
vn -0.2394916 0.9198432 -0.3106964
vn -0.2394916 0.9198432 -0.3106964
vn -0.2394916 0.9198432 -0.3106964
vn -0.2394916 0.9198432 -0.3106964
vn -0.2394916 0.9198432 -0.3106964
vn -0.2394916 0.9198432 -0.3106964
vn -0.2394916 0.9198432 -0.3106964
vn -0.2394916 0.9198432 -0.3106964
vn -0.2394916 0.9198432 -0.3106964
vn -0.2394916 0.9198432 -0.3106964
vn -0.2394916 0.9198432 -0.3106964
vn -0.2394916 0.9198432 -0.3106964
vn -0.2394916 0.9198432 -0.3106964
vn -0.2394916 0.9198432 -0.3106964
vn -0.2394916 0.9198432 -0.3106964
vn -0.2394916 0.9198432 -0.3106964
vn -0.2394916 0.9198432 -0.3106964
vn -0.2394916 0.9198432 -0.3106964
vn -0.2394916 0.9198432 -0.3106964
vn -0.2394916 0.9198432 -0.3106964
vn -0.2394916 0.9198432 -0.3106964
vn -0.2394916 0.9198432 -0.3106964
vn -0.2394916 0.9198432 -0.3106964
vn -0.2394916 0.9198432 -0.3106964
vn -0.2394916 0.9198432 -0.3106964
vn -0.2394916 0.9198432 -0.3106964
vn -0.2394916 0.9198432 -0.3106964
vn -0.2394916 0.9198432 -0.3106964
vn -0.2394916 0.9198432 -0.3106964
vn -0.2394916 0.9198432 -0.3106964
vn -0.2394916 0.9198432 -0.3106964
vn -0.2394916 0.9198432 -0.3106964
vn -0.2394916 0.9198432 -0.3106964
vn -0.2394916 0.9198432 -0.3106964
vn -0.2394916 0.9198432 -0.3106964
vn -0.2394916 0.9198432 -0.3106964
vn -0.2394916 0.9198432 -0.3106964
vn -0.2394916 0.9198432 -0.3106964
vn -0.2394916 0.9198432 -0.3106964
vn -0.2394916 0.9198432 -0.3106964
g Combined_ShadowCollisionPrefab_Mesh_0
f 3/3/3 2/2/2 1/1/1
f 4/4/4 3/3/3 1/1/1
f 7/7/7 6/6/6 5/5/5
f 8/8/8 7/7/7 5/5/5
f 11/11/11 10/10/10 9/9/9
f 12/12/12 11/11/11 9/9/9
f 15/15/15 14/14/14 13/13/13
f 16/16/16 15/15/15 13/13/13
f 19/19/19 18/18/18 17/17/17
f 20/20/20 19/19/19 17/17/17
f 23/23/23 22/22/22 21/21/21
f 24/24/24 23/23/23 21/21/21
f 27/27/27 26/26/26 25/25/25
f 28/28/28 27/27/27 25/25/25
f 31/31/31 30/30/30 29/29/29
f 32/32/32 31/31/31 29/29/29
f 35/35/35 34/34/34 33/33/33
f 36/36/36 35/35/35 33/33/33
f 39/39/39 38/38/38 37/37/37
f 40/40/40 39/39/39 37/37/37
f 43/43/43 42/42/42 41/41/41
f 44/44/44 43/43/43 41/41/41
f 47/47/47 46/46/46 45/45/45
f 48/48/48 47/47/47 45/45/45
f 51/51/51 50/50/50 49/49/49
f 52/52/52 51/51/51 49/49/49
f 55/55/55 54/54/54 53/53/53
f 56/56/56 55/55/55 53/53/53
f 59/59/59 58/58/58 57/57/57
f 57/57/57 60/60/60 59/59/59
f 63/63/63 62/62/62 61/61/61
f 61/61/61 64/64/64 63/63/63
f 67/67/67 66/66/66 65/65/65
f 68/68/68 67/67/67 65/65/65
f 71/71/71 70/70/70 69/69/69
f 72/72/72 71/71/71 69/69/69
f 75/75/75 74/74/74 73/73/73
f 76/76/76 75/75/75 73/73/73
f 79/79/79 78/78/78 77/77/77
f 80/80/80 77/77/77 78/78/78
f 83/83/83 82/82/82 81/81/81
f 84/84/84 81/81/81 82/82/82
f 87/87/87 86/86/86 85/85/85
f 88/88/88 87/87/87 85/85/85
f 91/91/91 90/90/90 89/89/89
f 92/92/92 91/91/91 89/89/89
f 95/95/95 94/94/94 93/93/93
f 96/96/96 95/95/95 93/93/93
f 99/99/99 98/98/98 97/97/97
f 100/100/100 99/99/99 97/97/97
f 103/103/103 102/102/102 101/101/101
f 104/104/104 103/103/103 101/101/101
f 107/107/107 106/106/106 105/105/105
f 108/108/108 107/107/107 105/105/105
f 111/111/111 110/110/110 109/109/109
f 109/109/109 112/112/112 111/111/111
f 115/115/115 114/114/114 113/113/113
f 113/113/113 116/116/116 115/115/115
f 119/119/119 118/118/118 117/117/117
f 120/120/120 119/119/119 117/117/117
f 123/123/123 122/122/122 121/121/121
f 124/124/124 123/123/123 121/121/121
f 127/127/127 126/126/126 125/125/125
f 128/128/128 127/127/127 125/125/125
f 131/131/131 130/130/130 129/129/129
f 132/132/132 129/129/129 130/130/130
f 135/135/135 134/134/134 133/133/133
f 136/136/136 133/133/133 134/134/134
f 139/139/139 138/138/138 137/137/137
f 140/140/140 139/139/139 137/137/137
f 143/143/143 142/142/142 141/141/141
f 144/144/144 143/143/143 141/141/141
f 147/147/147 146/146/146 145/145/145
f 148/148/148 147/147/147 145/145/145
f 151/151/151 150/150/150 149/149/149
f 152/152/152 151/151/151 149/149/149
f 155/155/155 154/154/154 153/153/153
f 156/156/156 155/155/155 153/153/153
f 159/159/159 158/158/158 157/157/157
f 160/160/160 159/159/159 157/157/157
