g Combined_M_Cmn_ami01_Prefab_Mesh
v 41.03394 46.80464 72.6626
v 52.20438 50.87041 60.0145
v 52.20438 50.87041 72.6626
v 41.03394 46.80464 60.0145
v 52.20438 50.87041 60.0145
v 41.03394 46.80464 47.3667
v 52.20438 50.87041 47.3667
v 41.03394 46.80464 60.0145
v 54.3286 51.64342 72.6626
v 65.49903 55.70918 60.0145
v 65.49903 55.70918 72.6626
v 54.3286 51.64342 60.0145
v 65.49903 55.70918 60.0145
v 54.3286 51.64342 47.3667
v 65.49903 55.70918 47.3667
v 54.3286 51.64342 60.0145
v 67.62326 56.4825 72.6626
v 78.79401 60.54796 60.0145
v 78.79401 60.54796 72.6626
v 67.62326 56.4825 60.0145
v 78.79401 60.54796 60.0145
v 67.62326 56.4825 47.3667
v 78.79401 60.54796 47.3667
v 67.62326 56.4825 60.0145
v 55.01026 49.77055 72.6626
v 66.1807 53.8363 72.6626
v 66.1807 53.8363 60.0145
v 55.01026 49.77055 60.0145
v 66.1807 53.8363 60.0145
v 66.1807 53.8363 47.3667
v 55.01026 49.77055 47.3667
v 55.01026 49.77055 60.0145
v 41.71561 44.93147 72.6626
v 52.88604 48.99722 72.6626
v 52.88604 48.99722 60.0145
v 41.71561 44.93147 60.0145
v 52.88604 48.99722 60.0145
v 52.88604 48.99722 47.3667
v 41.71561 44.93147 47.3667
v 41.71561 44.93147 60.0145
v 68.30524 54.60931 72.6626
v 79.47567 58.67508 72.6626
v 79.47567 58.67508 60.0145
v 68.30524 54.60931 60.0145
v 79.47567 58.67508 60.0145
v 79.47567 58.67508 47.3667
v 68.30524 54.60931 47.3667
v 68.30524 54.60931 60.0145
v 37.43671 183.5334 -106.7013
v 42.24907 182.6895 -97.464
v 35.11985 183.7191 -99.9328
v 44.56624 182.5037 -104.2325
v 42.24907 182.6895 -97.464
v 51.69576 181.4741 -101.764
v 49.3786 181.6599 -94.99522
v 44.56624 182.5037 -104.2325
v 37.27328 182.3446 -106.7249
v 34.95612 182.5304 -99.9561
v 42.08564 181.5008 -97.48731
v 44.40281 181.3153 -104.2561
v 42.08564 181.5008 -97.48731
v 49.21486 180.4711 -95.01852
v 51.53203 180.2853 -101.7873
v 44.40281 181.3153 -104.2561
v 54.28976 181.0994 -100.8655
v 59.10213 180.2555 -91.62822
v 51.9726 181.2852 -94.097
v 61.41898 180.0697 -98.39671
v 59.10213 180.2555 -91.62822
v 68.54851 179.0401 -95.92793
v 66.23135 179.2259 -89.15942
v 61.41898 180.0697 -98.39671
v 54.12602 179.9109 -100.8891
v 51.80917 180.0967 -94.1203
v 58.93839 179.0671 -91.65152
v 61.25555 178.8813 -98.42033
v 58.93839 179.0671 -91.65152
v 66.06792 178.0374 -89.18273
v 68.38477 177.8517 -95.95154
v 61.25555 178.8813 -98.42033
v 20.6927 185.9515 -112.4998
v 25.50475 185.1076 -103.2622
v 18.37554 186.1373 -105.731
v 27.82192 184.9218 -110.031
v 25.50475 185.1076 -103.2622
v 34.95145 183.8922 -107.5622
v 32.63428 184.078 -100.7934
v 27.82192 184.9218 -110.031
v 20.52897 184.7631 -112.5231
v 18.21211 184.9489 -105.7543
v 25.34133 183.9192 -103.2855
v 27.6585 183.7334 -110.0543
v 25.34133 183.9192 -103.2855
v 32.47086 182.8896 -100.8167
v 34.78772 182.7038 -107.5855
v 27.6585 183.7334 -110.0543
v -31.25682 181.2299 -132.4713
v -27.14694 179.0146 -123.1222
v -33.87132 181.3681 -125.8106
v -24.53244 178.8763 -129.7829
v -27.14694 179.0146 -123.1222
v -17.80806 176.5228 -127.0944
v -20.42256 176.6614 -120.4337
v -24.53244 178.8763 -129.7829
v -31.61009 180.089 -132.5863
v -34.22459 180.2272 -125.9256
v -27.5002 177.8737 -123.2371
v -24.8857 177.7355 -129.8978
v -27.5002 177.8737 -123.2371
v -20.77582 175.5202 -120.5487
v -18.16132 175.3819 -127.2094
v -24.8857 177.7355 -129.8978
v -47.03798 186.7534 -138.7809
v -42.9281 184.5381 -129.4318
v -49.65248 186.8917 -132.1202
v -40.3136 184.3999 -136.0925
v -42.9281 184.5381 -129.4318
v -33.58952 182.0464 -133.404
v -36.20403 182.1846 -126.7433
v -40.3136 184.3999 -136.0925
v -47.39156 185.6122 -138.8959
v -50.00606 185.7508 -132.2352
v -43.28168 183.3973 -129.5467
v -40.66718 183.2587 -136.2074
v -43.28168 183.3973 -129.5467
v -36.5573 181.0437 -126.8583
v -33.94279 180.9052 -133.519
v -40.66718 183.2587 -136.2074
vt -1.5 2.5
vt 2.5 -1.5
vt 2.5 2.5
vt -1.5 -1.5
vt -1.5 2.5
vt 2.5 -1.5
vt 2.5 2.5
vt -1.5 -1.5
vt -1.5 2.5
vt 2.5 -1.5
vt 2.5 2.5
vt -1.5 -1.5
vt -1.5 2.5
vt 2.5 -1.5
vt 2.5 2.5
vt -1.5 -1.5
vt -1.5 2.5
vt 2.5 -1.5
vt 2.5 2.5
vt -1.5 -1.5
vt -1.5 2.5
vt 2.5 -1.5
vt 2.5 2.5
vt -1.5 -1.5
vt -1.5 2.5
vt 2.5 2.5
vt 2.5 -1.5
vt -1.5 -1.5
vt -1.5 2.5
vt 2.5 2.5
vt 2.5 -1.5
vt -1.5 -1.5
vt -1.5 2.5
vt 2.5 2.5
vt 2.5 -1.5
vt -1.5 -1.5
vt -1.5 2.5
vt 2.5 2.5
vt 2.5 -1.5
vt -1.5 -1.5
vt -1.5 2.5
vt 2.5 2.5
vt 2.5 -1.5
vt -1.5 -1.5
vt -1.5 2.5
vt 2.5 2.5
vt 2.5 -1.5
vt -1.5 -1.5
vt -1.5 2.5
vt 2.5 -1.5
vt 2.5 2.5
vt -1.5 -1.5
vt -1.5 2.5
vt 2.5 -1.5
vt 2.5 2.5
vt -1.5 -1.5
vt -1.5 2.5
vt 2.5 2.5
vt 2.5 -1.5
vt -1.5 -1.5
vt -1.5 2.5
vt 2.5 2.5
vt 2.5 -1.5
vt -1.5 -1.5
vt -1.5 2.5
vt 2.5 -1.5
vt 2.5 2.5
vt -1.5 -1.5
vt -1.5 2.5
vt 2.5 -1.5
vt 2.5 2.5
vt -1.5 -1.5
vt -1.5 2.5
vt 2.5 2.5
vt 2.5 -1.5
vt -1.5 -1.5
vt -1.5 2.5
vt 2.5 2.5
vt 2.5 -1.5
vt -1.5 -1.5
vt -1.5 2.5
vt 2.5 -1.5
vt 2.5 2.5
vt -1.5 -1.5
vt -1.5 2.5
vt 2.5 -1.5
vt 2.5 2.5
vt -1.5 -1.5
vt -1.5 2.5
vt 2.5 2.5
vt 2.5 -1.5
vt -1.5 -1.5
vt -1.5 2.5
vt 2.5 2.5
vt 2.5 -1.5
vt -1.5 -1.5
vt -1.5 2.5
vt 2.5 -1.5
vt 2.5 2.5
vt -1.5 -1.5
vt -1.5 2.5
vt 2.5 -1.5
vt 2.5 2.5
vt -1.5 -1.5
vt -1.5 2.5
vt 2.5 2.5
vt 2.5 -1.5
vt -1.5 -1.5
vt -1.5 2.5
vt 2.5 2.5
vt 2.5 -1.5
vt -1.5 -1.5
vt -1.5 2.5
vt 2.5 -1.5
vt 2.5 2.5
vt -1.5 -1.5
vt -1.5 2.5
vt 2.5 -1.5
vt 2.5 2.5
vt -1.5 -1.5
vt -1.5 2.5
vt 2.5 2.5
vt 2.5 -1.5
vt -1.5 -1.5
vt -1.5 2.5
vt 2.5 2.5
vt 2.5 -1.5
vt -1.5 -1.5
vn -0.3416511 0.9398268 0
vn -0.3416511 0.9398268 0
vn -0.3416511 0.9398268 0
vn -0.3416511 0.9398268 0
vn -0.3416511 0.9398268 0
vn -0.3416511 0.9398268 0
vn -0.3416511 0.9398268 0
vn -0.3416511 0.9398268 0
vn -0.3416511 0.9398268 0
vn -0.3416511 0.9398268 0
vn -0.3416511 0.9398268 0
vn -0.3416511 0.9398268 0
vn -0.3416511 0.9398268 0
vn -0.3416511 0.9398268 0
vn -0.3416511 0.9398268 0
vn -0.3416511 0.9398268 0
vn -0.3416511 0.9398268 0
vn -0.3416511 0.9398268 0
vn -0.3416511 0.9398268 0
vn -0.3416511 0.9398268 0
vn -0.3416511 0.9398268 0
vn -0.3416511 0.9398268 0
vn -0.3416511 0.9398268 0
vn -0.3416511 0.9398268 0
vn 0.3416795 -0.9398165 0
vn 0.3416795 -0.9398165 0
vn 0.3416795 -0.9398165 0
vn 0.3416795 -0.9398165 0
vn 0.3416795 -0.9398165 0
vn 0.3416795 -0.9398165 0
vn 0.3416795 -0.9398165 0
vn 0.3416795 -0.9398165 0
vn 0.3416795 -0.9398165 0
vn 0.3416795 -0.9398165 0
vn 0.3416795 -0.9398165 0
vn 0.3416795 -0.9398165 0
vn 0.3416795 -0.9398165 0
vn 0.3416795 -0.9398165 0
vn 0.3416795 -0.9398165 0
vn 0.3416795 -0.9398165 0
vn 0.3416795 -0.9398165 0
vn 0.3416795 -0.9398165 0
vn 0.3416795 -0.9398165 0
vn 0.3416795 -0.9398165 0
vn 0.3416795 -0.9398165 0
vn 0.3416795 -0.9398165 0
vn 0.3416795 -0.9398165 0
vn 0.3416795 -0.9398165 0
vn 0.1365424 0.99045 0.01910235
vn 0.1365424 0.99045 0.01910235
vn 0.1365424 0.99045 0.01910235
vn 0.1365424 0.99045 0.01910235
vn 0.1365424 0.99045 0.01910235
vn 0.1365424 0.99045 0.01910235
vn 0.1365424 0.99045 0.01910235
vn 0.1365424 0.99045 0.01910235
vn -0.1364918 -0.9905007 -0.01668393
vn -0.1364918 -0.9905007 -0.01668393
vn -0.1364918 -0.9905007 -0.01668393
vn -0.1364918 -0.9905007 -0.01668393
vn -0.1364918 -0.9905007 -0.01668393
vn -0.1364918 -0.9905007 -0.01668393
vn -0.1364918 -0.9905007 -0.01668393
vn -0.1364918 -0.9905007 -0.01668393
vn 0.1365424 0.99045 0.01910235
vn 0.1365424 0.99045 0.01910235
vn 0.1365424 0.99045 0.01910235
vn 0.1365424 0.99045 0.01910235
vn 0.1365424 0.99045 0.01910235
vn 0.1365424 0.99045 0.01910235
vn 0.1365424 0.99045 0.01910235
vn 0.1365424 0.99045 0.01910235
vn -0.1364918 -0.9905007 -0.01668393
vn -0.1364918 -0.9905007 -0.01668393
vn -0.1364918 -0.9905007 -0.01668393
vn -0.1364918 -0.9905007 -0.01668393
vn -0.1364918 -0.9905007 -0.01668393
vn -0.1364918 -0.9905007 -0.01668393
vn -0.1364918 -0.9905007 -0.01668393
vn -0.1364918 -0.9905007 -0.01668393
vn 0.1365424 0.99045 0.01910235
vn 0.1365424 0.99045 0.01910235
vn 0.1365424 0.99045 0.01910235
vn 0.1365424 0.99045 0.01910235
vn 0.1365424 0.99045 0.01910235
vn 0.1365424 0.99045 0.01910235
vn 0.1365424 0.99045 0.01910235
vn 0.1365424 0.99045 0.01910235
vn -0.1364918 -0.9905007 -0.01668393
vn -0.1364918 -0.9905007 -0.01668393
vn -0.1364918 -0.9905007 -0.01668393
vn -0.1364918 -0.9905007 -0.01668393
vn -0.1364918 -0.9905007 -0.01668393
vn -0.1364918 -0.9905007 -0.01668393
vn -0.1364918 -0.9905007 -0.01668393
vn -0.1364918 -0.9905007 -0.01668393
vn 0.2953283 0.9517218 0.08370677
vn 0.2953283 0.9517218 0.08370677
vn 0.2953283 0.9517218 0.08370677
vn 0.2953283 0.9517218 0.08370677
vn 0.2953283 0.9517218 0.08370677
vn 0.2953283 0.9517218 0.08370677
vn 0.2953283 0.9517218 0.08370677
vn 0.2953283 0.9517218 0.08370677
vn -0.2933413 -0.9517725 -0.08988951
vn -0.2933413 -0.9517725 -0.08988951
vn -0.2933413 -0.9517725 -0.08988951
vn -0.2933413 -0.9517725 -0.08988951
vn -0.2933413 -0.9517725 -0.08988951
vn -0.2933413 -0.9517725 -0.08988951
vn -0.2933413 -0.9517725 -0.08988951
vn -0.2933413 -0.9517725 -0.08988951
vn 0.2953283 0.9517218 0.08370677
vn 0.2953283 0.9517218 0.08370677
vn 0.2953283 0.9517218 0.08370677
vn 0.2953283 0.9517218 0.08370677
vn 0.2953283 0.9517218 0.08370677
vn 0.2953283 0.9517218 0.08370677
vn 0.2953283 0.9517218 0.08370677
vn 0.2953283 0.9517218 0.08370677
vn -0.2933413 -0.9517725 -0.08988951
vn -0.2933413 -0.9517725 -0.08988951
vn -0.2933413 -0.9517725 -0.08988951
vn -0.2933413 -0.9517725 -0.08988951
vn -0.2933413 -0.9517725 -0.08988951
vn -0.2933413 -0.9517725 -0.08988951
vn -0.2933413 -0.9517725 -0.08988951
vn -0.2933413 -0.9517725 -0.08988951
g Combined_M_Cmn_ami01_Prefab_Mesh_0
f 3/3/3 2/2/2 1/1/1
f 4/4/4 1/1/1 2/2/2
f 7/7/7 6/6/6 5/5/5
f 8/8/8 5/5/5 6/6/6
f 11/11/11 10/10/10 9/9/9
f 12/12/12 9/9/9 10/10/10
f 15/15/15 14/14/14 13/13/13
f 16/16/16 13/13/13 14/14/14
f 19/19/19 18/18/18 17/17/17
f 20/20/20 17/17/17 18/18/18
f 23/23/23 22/22/22 21/21/21
f 24/24/24 21/21/21 22/22/22
f 27/27/27 26/26/26 25/25/25
f 25/25/25 28/28/28 27/27/27
f 31/31/31 30/30/30 29/29/29
f 29/29/29 32/32/32 31/31/31
f 35/35/35 34/34/34 33/33/33
f 33/33/33 36/36/36 35/35/35
f 39/39/39 38/38/38 37/37/37
f 37/37/37 40/40/40 39/39/39
f 43/43/43 42/42/42 41/41/41
f 41/41/41 44/44/44 43/43/43
f 47/47/47 46/46/46 45/45/45
f 45/45/45 48/48/48 47/47/47
f 51/51/51 50/50/50 49/49/49
f 52/52/52 49/49/49 50/50/50
f 55/55/55 54/54/54 53/53/53
f 56/56/56 53/53/53 54/54/54
f 59/59/59 58/58/58 57/57/57
f 57/57/57 60/60/60 59/59/59
f 63/63/63 62/62/62 61/61/61
f 61/61/61 64/64/64 63/63/63
f 67/67/67 66/66/66 65/65/65
f 68/68/68 65/65/65 66/66/66
f 71/71/71 70/70/70 69/69/69
f 72/72/72 69/69/69 70/70/70
f 75/75/75 74/74/74 73/73/73
f 73/73/73 76/76/76 75/75/75
f 79/79/79 78/78/78 77/77/77
f 77/77/77 80/80/80 79/79/79
f 83/83/83 82/82/82 81/81/81
f 84/84/84 81/81/81 82/82/82
f 87/87/87 86/86/86 85/85/85
f 88/88/88 85/85/85 86/86/86
f 91/91/91 90/90/90 89/89/89
f 89/89/89 92/92/92 91/91/91
f 95/95/95 94/94/94 93/93/93
f 93/93/93 96/96/96 95/95/95
f 99/99/99 98/98/98 97/97/97
f 100/100/100 97/97/97 98/98/98
f 103/103/103 102/102/102 101/101/101
f 104/104/104 101/101/101 102/102/102
f 107/107/107 106/106/106 105/105/105
f 105/105/105 108/108/108 107/107/107
f 111/111/111 110/110/110 109/109/109
f 109/109/109 112/112/112 111/111/111
f 115/115/115 114/114/114 113/113/113
f 116/116/116 113/113/113 114/114/114
f 119/119/119 118/118/118 117/117/117
f 120/120/120 117/117/117 118/118/118
f 123/123/123 122/122/122 121/121/121
f 121/121/121 124/124/124 123/123/123
f 127/127/127 126/126/126 125/125/125
f 125/125/125 128/128/128 127/127/127
