g Combined_M_Cmn_Gap_Prefab_Mesh
v 17.42154 16.28247 -197.0162
v 19.29778 16.60605 -197.2041
v 19.33919 16.61975 -197.0789
v 17.3846 16.28247 -196.892
v 19.39587 16.62134 -196.9713
v 17.44638 16.28247 -196.7776
v 19.10254 16.28247 -199.0794
v 19.21687 16.28247 -199.1408
v 19.429 16.61975 -197.1888
v 19.34142 16.28247 -199.1033
v 19.54556 16.62134 -197.155
v 21.83488 16.28247 -193.2026
v 21.6304 16.62134 -195.1508
v 19.5083 16.63631 -197.0324
v 21.66766 16.63631 -195.2737
v 21.78009 16.62134 -195.3349
v 21.7473 16.61975 -195.1173
v 21.95941 16.28247 -193.1653
v 21.87819 16.60605 -195.1021
v 22.07343 16.28247 -193.2268
v 23.72958 16.28247 -195.5285
v 23.79137 16.28247 -195.4142
v 21.83679 16.61975 -195.2272
v 23.75443 16.28247 -195.29
v 19.4325 16.63217 -197.0945
v 21.74347 16.63217 -195.2116
v 21.83488 16.28247 -193.2026
v 21.83488 16.19838 -193.2026
v 17.44638 16.19838 -196.7776
v 17.44638 16.28247 -196.7776
v 17.42154 16.28247 -197.0162
v 17.42154 16.19838 -197.0162
v 19.10254 16.19838 -199.0794
v 19.10254 16.28247 -199.0794
v 19.34142 16.28247 -199.1033
v 19.34142 16.19838 -199.1033
v 23.72958 16.19838 -195.5285
v 23.72958 16.28247 -195.5285
v 23.75443 16.28247 -195.29
v 23.75443 16.19838 -195.29
v 22.07343 16.19838 -193.2268
v 22.07343 16.28247 -193.2268
v 17.3846 16.28247 -196.892
v 17.3846 16.19838 -196.892
v 17.42154 16.19838 -197.0162
v 17.42154 16.28247 -197.0162
v 17.44638 16.28247 -196.7776
v 17.44638 16.19838 -196.7776
v 17.3846 16.19838 -196.892
v 17.3846 16.28247 -196.892
v 19.10254 16.28247 -199.0794
v 19.10254 16.19838 -199.0794
v 19.21687 16.19838 -199.1408
v 19.21687 16.28247 -199.1408
v 19.21687 16.28247 -199.1408
v 19.21687 16.19838 -199.1408
v 19.34142 16.19838 -199.1033
v 19.34142 16.28247 -199.1033
v 22.07343 16.28247 -193.2268
v 22.07343 16.19838 -193.2268
v 21.95941 16.19838 -193.1653
v 21.95941 16.28247 -193.1653
v 21.95941 16.28247 -193.1653
v 21.95941 16.19838 -193.1653
v 21.83488 16.19838 -193.2026
v 21.83488 16.28247 -193.2026
v 23.72958 16.28247 -195.5285
v 23.72958 16.19838 -195.5285
v 23.79137 16.19838 -195.4142
v 23.79137 16.28247 -195.4142
v 23.79137 16.28247 -195.4142
v 23.79137 16.19838 -195.4142
v 23.75443 16.19838 -195.29
v 23.75443 16.28247 -195.29
v -54.04437 16.28406 -162.3924
v -52.97424 16.60733 -160.8397
v -53.06406 16.62102 -160.7432
v -54.17114 16.28406 -162.365
v -53.13094 16.62294 -160.6416
v -54.24152 16.28406 -162.2554
v -51.42606 16.28406 -161.9159
v -51.31714 16.28406 -161.8455
v -52.92424 16.62102 -160.7177
v -51.28975 16.28406 -161.7184
v -52.89749 16.62294 -160.5993
v -55.25464 16.28406 -156.6869
v -53.6469 16.62294 -157.8061
v -53.02298 16.63791 -160.5725
v -53.52141 16.63791 -157.8325
v -53.41345 16.62294 -157.7634
v -53.62015 16.62102 -157.6876
v -55.22725 16.28406 -156.5598
v -53.57014 16.60733 -157.5653
v -55.11833 16.28406 -156.4891
v -52.30319 16.28406 -156.1496
v -52.37357 16.28406 -156.0404
v -53.48033 16.62102 -157.6621
v -52.50034 16.28406 -156.013
v -53.00546 16.63376 -160.669
v -53.53925 16.63376 -157.736
v -55.25464 16.28406 -156.6869
v -55.25464 16.19998 -156.6869
v -54.24152 16.19998 -162.2554
v -54.24152 16.28406 -162.2554
v -54.04437 16.28406 -162.3924
v -54.04437 16.19998 -162.3924
v -51.42606 16.19998 -161.9159
v -51.42606 16.28406 -161.9159
v -51.28975 16.28406 -161.7184
v -51.28975 16.19998 -161.7184
v -52.30319 16.19998 -156.1496
v -52.30319 16.28406 -156.1496
v -52.50034 16.28406 -156.013
v -52.50034 16.19998 -156.013
v -55.11833 16.19998 -156.4891
v -55.11833 16.28406 -156.4891
v -54.17114 16.28406 -162.365
v -54.17114 16.19998 -162.365
v -54.04437 16.19998 -162.3924
v -54.04437 16.28406 -162.3924
v -54.24152 16.28406 -162.2554
v -54.24152 16.19998 -162.2554
v -54.17114 16.19998 -162.365
v -54.17114 16.28406 -162.365
v -51.42606 16.28406 -161.9159
v -51.42606 16.19998 -161.9159
v -51.31714 16.19998 -161.8455
v -51.31714 16.28406 -161.8455
v -51.31714 16.28406 -161.8455
v -51.31714 16.19998 -161.8455
v -51.28975 16.19998 -161.7184
v -51.28975 16.28406 -161.7184
v -55.11833 16.28406 -156.4891
v -55.11833 16.19998 -156.4891
v -55.22725 16.19998 -156.5598
v -55.22725 16.28406 -156.5598
v -55.22725 16.28406 -156.5598
v -55.22725 16.19998 -156.5598
v -55.25464 16.19998 -156.6869
v -55.25464 16.28406 -156.6869
v -52.30319 16.28406 -156.1496
v -52.30319 16.19998 -156.1496
v -52.37357 16.19998 -156.0404
v -52.37357 16.28406 -156.0404
v -52.37357 16.28406 -156.0404
v -52.37357 16.19998 -156.0404
v -52.50034 16.19998 -156.013
v -52.50034 16.28406 -156.013
v -134.7765 16.06557 -168.5351
v -132.8923 16.38916 -168.6068
v -132.8589 16.40286 -168.479
v -134.8211 16.06557 -168.4131
v -132.8088 16.40445 -168.3682
v -134.7663 16.06557 -168.2953
v -132.9713 16.06557 -170.4906
v -132.8538 16.06557 -170.5448
v -132.7623 16.40286 -168.5835
v -132.7314 16.06557 -170.4996
v -132.648 16.40445 -168.5428
v -130.6074 16.06557 -164.4562
v -130.6909 16.40445 -166.4133
v -132.6926 16.41942 -168.4224
v -130.6463 16.41942 -166.5337
v -130.53 16.40445 -166.5879
v -130.5765 16.40286 -166.3726
v -130.4854 16.06557 -164.4113
v -130.4466 16.38916 -166.3493
v -130.3676 16.06557 -164.4654
v -128.5726 16.06557 -166.6608
v -128.5178 16.06557 -166.5426
v -130.4803 16.40286 -166.477
v -128.5624 16.06557 -166.421
v -132.7649 16.41528 -168.4889
v -130.5743 16.41528 -166.4671
v -130.6074 16.06557 -164.4562
v -130.6074 15.98149 -164.4562
v -134.7663 15.98149 -168.2953
v -134.7663 16.06557 -168.2953
v -134.7765 16.06557 -168.5351
v -134.7765 15.98149 -168.5351
v -132.9713 15.98149 -170.4906
v -132.9713 16.06557 -170.4906
v -132.7314 16.06557 -170.4996
v -132.7314 15.98149 -170.4996
v -128.5726 15.98149 -166.6608
v -128.5726 16.06557 -166.6608
v -128.5624 16.06557 -166.421
v -128.5624 15.98149 -166.421
v -130.3676 15.98149 -164.4654
v -130.3676 16.06557 -164.4654
v -134.8211 16.06557 -168.4131
v -134.8211 15.98149 -168.4131
v -134.7765 15.98149 -168.5351
v -134.7765 16.06557 -168.5351
v -134.7663 16.06557 -168.2953
v -134.7663 15.98149 -168.2953
v -134.8211 15.98149 -168.4131
v -134.8211 16.06557 -168.4131
v -132.9713 16.06557 -170.4906
v -132.9713 15.98149 -170.4906
v -132.8538 15.98149 -170.5448
v -132.8538 16.06557 -170.5448
v -132.8538 16.06557 -170.5448
v -132.8538 15.98149 -170.5448
v -132.7314 15.98149 -170.4996
v -132.7314 16.06557 -170.4996
v -130.3676 16.06557 -164.4654
v -130.3676 15.98149 -164.4654
v -130.4854 15.98149 -164.4113
v -130.4854 16.06557 -164.4113
v -130.4854 16.06557 -164.4113
v -130.4854 15.98149 -164.4113
v -130.6074 15.98149 -164.4562
v -130.6074 16.06557 -164.4562
v -128.5726 16.06557 -166.6608
v -128.5726 15.98149 -166.6608
v -128.5178 15.98149 -166.5426
v -128.5178 16.06557 -166.5426
v -128.5178 16.06557 -166.5426
v -128.5178 15.98149 -166.5426
v -128.5624 15.98149 -166.421
v -128.5624 16.06557 -166.421
vt 0.5203174 0.998001
vt 0.741207 0.7762265
vt 0.729427 0.7577935
vt 0.5004349 0.9897459
vt 0.7215076 0.7392233
vt 0.4922103 0.9697871
vt 0.9620966 0.998001
vt 0.9819791 0.9897459
vt 0.752987 0.7577935
vt 0.9902037 0.9697871
vt 0.7609064 0.7392233
vt 0.4922103 0.03021286
vt 0.7215076 0.2607767
vt 0.741207 0.7311513
vt 0.741207 0.2688487
vt 0.7609064 0.2607767
vt 0.729427 0.2422065
vt 0.5004349 0.01025406
vt 0.741207 0.2237736
vt 0.5203174 0.001998932
vt 0.9902037 0.03021286
vt 0.9819791 0.01025406
vt 0.752987 0.2422065
vt 0.9620966 0.001998932
vt 0.741207 0.7474326
vt 0.741207 0.2525673
vt 0 0
vt 0 1
vt 1 1
vt 1 0
vt 0 0
vt 0 1
vt 1 1
vt 1 0
vt 0 0
vt 0 1
vt 1 1
vt 1 0
vt 0 0
vt 0 1
vt 1 1
vt 1 0
vt 0 0
vt 0 1
vt 1 1
vt 1 0
vt 0 0
vt 0 1
vt 1 1
vt 1 0
vt 0 0
vt 0 1
vt 1 1
vt 1 0
vt 0 0
vt 0 1
vt 1 1
vt 1 0
vt 0 0
vt 0 1
vt 1 1
vt 1 0
vt 0 0
vt 0 1
vt 1 1
vt 1 0
vt 0 0
vt 0 1
vt 1 1
vt 1 0
vt 0 0
vt 0 1
vt 1 1
vt 1 0
vt 0.5203174 0.998001
vt 0.741207 0.7762265
vt 0.729427 0.7577935
vt 0.5004349 0.9897459
vt 0.7215076 0.7392233
vt 0.4922103 0.9697871
vt 0.9620966 0.998001
vt 0.9819791 0.9897459
vt 0.752987 0.7577935
vt 0.9902037 0.9697871
vt 0.7609064 0.7392233
vt 0.4922103 0.03021286
vt 0.7215076 0.2607767
vt 0.741207 0.7311513
vt 0.741207 0.2688487
vt 0.7609064 0.2607767
vt 0.729427 0.2422065
vt 0.5004349 0.01025406
vt 0.741207 0.2237736
vt 0.5203174 0.001998932
vt 0.9902037 0.03021286
vt 0.9819791 0.01025406
vt 0.752987 0.2422065
vt 0.9620966 0.001998932
vt 0.741207 0.7474326
vt 0.741207 0.2525673
vt 0 0
vt 0 1
vt 1 1
vt 1 0
vt 0 0
vt 0 1
vt 1 1
vt 1 0
vt 0 0
vt 0 1
vt 1 1
vt 1 0
vt 0 0
vt 0 1
vt 1 1
vt 1 0
vt 0 0
vt 0 1
vt 1 1
vt 1 0
vt 0 0
vt 0 1
vt 1 1
vt 1 0
vt 0 0
vt 0 1
vt 1 1
vt 1 0
vt 0 0
vt 0 1
vt 1 1
vt 1 0
vt 0 0
vt 0 1
vt 1 1
vt 1 0
vt 0 0
vt 0 1
vt 1 1
vt 1 0
vt 0 0
vt 0 1
vt 1 1
vt 1 0
vt 0 0
vt 0 1
vt 1 1
vt 1 0
vt 0.5203174 0.998001
vt 0.741207 0.7762265
vt 0.729427 0.7577935
vt 0.5004349 0.9897459
vt 0.7215076 0.7392233
vt 0.4922103 0.9697871
vt 0.9620966 0.998001
vt 0.9819791 0.9897459
vt 0.752987 0.7577935
vt 0.9902037 0.9697871
vt 0.7609064 0.7392233
vt 0.4922103 0.03021286
vt 0.7215076 0.2607767
vt 0.741207 0.7311513
vt 0.741207 0.2688487
vt 0.7609064 0.2607767
vt 0.729427 0.2422065
vt 0.5004349 0.01025406
vt 0.741207 0.2237736
vt 0.5203174 0.001998932
vt 0.9902037 0.03021286
vt 0.9819791 0.01025406
vt 0.752987 0.2422065
vt 0.9620966 0.001998932
vt 0.741207 0.7474326
vt 0.741207 0.2525673
vt 0 0
vt 0 1
vt 1 1
vt 1 0
vt 0 0
vt 0 1
vt 1 1
vt 1 0
vt 0 0
vt 0 1
vt 1 1
vt 1 0
vt 0 0
vt 0 1
vt 1 1
vt 1 0
vt 0 0
vt 0 1
vt 1 1
vt 1 0
vt 0 0
vt 0 1
vt 1 1
vt 1 0
vt 0 0
vt 0 1
vt 1 1
vt 1 0
vt 0 0
vt 0 1
vt 1 1
vt 1 0
vt 0 0
vt 0 1
vt 1 1
vt 1 0
vt 0 0
vt 0 1
vt 1 1
vt 1 0
vt 0 0
vt 0 1
vt 1 1
vt 1 0
vt 0 0
vt 0 1
vt 1 1
vt 1 0
vn -0.3199298 0.9218307 -0.2187993
vn -0.1440496 0.9745947 -0.1715077
vn -0.1635919 0.9863201 0.02025484
vn -0.2241629 0.9745517 0
vn -0.147958 0.9726405 0.1791057
vn -0.2319897 0.9335561 0.2732285
vn -0.2788911 0.9218307 -0.2691617
vn -0.02679622 0.9745947 -0.2223671
vn -0.0131166 0.9863201 -0.1643184
vn 0.2213902 0.9335561 -0.2818855
vn 0.1451755 0.9726405 -0.1813686
vn -0.2202643 0.9335561 0.2827661
vn -0.1460038 0.9726405 0.1807023
vn -0.001391291 0.999999 0
vn 0.0005629063 0.9999996 0.0006459354
vn 0.1471297 0.9726405 -0.1797868
vn 0.01424247 0.9863201 0.1642246
vn 0.02596784 0.9745947 0.2224654
vn 0.1705804 0.9765489 0.1313565
vn 0.2761084 0.9218307 0.2720154
vn 0.2311613 0.9335561 -0.2739297
vn 0.2233444 0.9745947 -0.01680496
vn 0.1627635 0.9863201 -0.0260888
vn 0.3210556 0.9218307 0.2171441
vn -0.04047573 0.9960912 -0.07851086
vn 0.08459455 0.9960912 0.02541643
vn -0.2202643 0.9335561 0.2827661
vn -0.6247886 -0.0005629063 0.7807937
vn -0.6384683 -0.0005629063 0.769648
vn -0.2319897 0.9335561 0.2732285
vn -0.3199298 0.9218307 -0.2187993
vn -0.7752639 -0.0005629063 -0.6316372
vn -0.7752639 -0.0005629063 -0.6316372
vn -0.2788911 0.9218307 -0.2691617
vn 0.2213902 0.9335561 -0.2818855
vn 0.6239603 -0.0005629063 -0.7814559
vn 0.6376399 -0.0005629063 -0.7703344
vn 0.2311613 0.9335561 -0.2739297
vn 0.3210556 0.9218307 0.2171441
vn 0.7861609 -0.0005629063 0.6180216
vn 0.7646644 -0.0005629063 0.6444284
vn 0.2761084 0.9218307 0.2720154
vn -0.2241629 0.9745517 0
vn -0.9941369 -0.0005629063 0.1081269
vn -0.7752639 -0.0005629063 -0.6316372
vn -0.3199298 0.9218307 -0.2187993
vn -0.2319897 0.9335561 0.2732285
vn -0.6384683 -0.0005629063 0.769648
vn -0.9941369 -0.0005629063 0.1081269
vn -0.2241629 0.9745517 0
vn -0.2788911 0.9218307 -0.2691617
vn -0.7752639 -0.0005629063 -0.6316372
vn -0.1010567 -0.0005629063 -0.9948805
vn -0.02679622 0.9745947 -0.2223671
vn -0.02679622 0.9745947 -0.2223671
vn -0.1010567 -0.0005629063 -0.9948805
vn 0.6239603 -0.0005629063 -0.7814559
vn 0.2213902 0.9335561 -0.2818855
vn 0.2761084 0.9218307 0.2720154
vn 0.7646644 -0.0005629063 0.6444284
vn 0.1002283 -0.0005629063 0.9949643
vn 0.02596784 0.9745947 0.2224654
vn 0.02596784 0.9745947 0.2224654
vn 0.1002283 -0.0005629063 0.9949643
vn -0.6247886 -0.0005629063 0.7807937
vn -0.2202643 0.9335561 0.2827661
vn 0.2311613 0.9335561 -0.2739297
vn 0.6376399 -0.0005629063 -0.7703344
vn 0.9952628 -0.0005629063 -0.09721969
vn 0.2233444 0.9745947 -0.01680496
vn 0.2233444 0.9745947 -0.01680496
vn 0.9952628 -0.0005629063 -0.09721969
vn 0.7861609 -0.0005629063 0.6180216
vn 0.3210556 0.9218307 0.2171441
vn 0.03573895 0.9218307 -0.3859417
vn 0.08068609 0.9745947 -0.2089376
vn -0.0971483 0.9863201 -0.1331719
vn -0.1245074 0.9745947 -0.1861802
vn -0.2280812 0.9726405 -0.04415235
vn -0.3511974 0.9335561 -0.0716481
vn 0.1021826 0.9218307 -0.373881
vn 0.1823058 0.9745947 -0.1301146
vn 0.1373586 0.9863201 -0.09113283
vn 0.3542774 0.9335561 0.05441105
vn 0.2292071 0.9726405 0.03787564
vn -0.3531516 0.9335561 -0.06129437
vn -0.2280812 0.9726405 -0.04415235
vn 0.0005629063 0.9999996 -0.0006459354
vn 0.0005629063 0.9999996 0.0006459354
vn 0.2292071 0.9726405 0.03787564
vn -0.1381869 0.9863201 0.08987194
vn -0.1811799 0.9745947 0.1316778
vn -0.03852153 0.9765489 0.2118214
vn -0.1049652 0.9218307 0.3731093
vn 0.3523232 0.9335561 0.06588948
vn 0.123679 0.9745947 0.1867315
vn 0.09631985 0.9863201 0.1337724
vn -0.03461313 0.9218307 0.3860443
vn 0.04941851 0.9960912 -0.07321247
vn 0.02010512 0.9960912 0.08601168
vn -0.3531516 0.9335561 -0.06129437
vn -0.9863201 -0.0005629063 -0.1648401
vn -0.9824116 -0.0005629063 -0.1867273
vn -0.3511974 0.9335561 -0.0716481
vn 0.03573895 0.9218307 -0.3859417
vn 0.1783973 -0.0005629063 -0.9839584
vn 0.1803515 -0.0005629063 -0.983602
vn 0.1021826 0.9218307 -0.373881
vn 0.3542774 0.9335561 0.05441105
vn 0.9854917 -0.0005629063 0.1697228
vn 0.9815832 -0.0005629063 0.1910342
vn 0.3523232 0.9335561 0.06588948
vn -0.03461313 0.9218307 0.3860443
vn -0.1616377 -0.0005629063 0.98685
vn -0.1968137 -0.0005629063 0.9804407
vn -0.1049652 0.9218307 0.3731093
vn -0.1245074 0.9745947 -0.1861802
vn -0.5700704 -0.0005629063 -0.8215957
vn 0.1783973 -0.0005629063 -0.9839584
vn 0.03573895 0.9218307 -0.3859417
vn -0.3511974 0.9335561 -0.0716481
vn -0.9824116 -0.0005629063 -0.1867273
vn -0.5700704 -0.0005629063 -0.8215957
vn -0.1245074 0.9745947 -0.1861802
vn 0.1021826 0.9218307 -0.373881
vn 0.1803515 -0.0005629063 -0.983602
vn 0.8232911 -0.0005629063 -0.567619
vn 0.1823058 0.9745947 -0.1301146
vn 0.1823058 0.9745947 -0.1301146
vn 0.8232911 -0.0005629063 -0.567619
vn 0.9854917 -0.0005629063 0.1697228
vn 0.3542774 0.9335561 0.05441105
vn -0.1049652 0.9218307 0.3731093
vn -0.1968137 -0.0005629063 0.9804407
vn -0.8221653 -0.0005629063 0.5692486
vn -0.1811799 0.9745947 0.1316778
vn -0.1811799 0.9745947 0.1316778
vn -0.8221653 -0.0005629063 0.5692486
vn -0.9863201 -0.0005629063 -0.1648401
vn -0.3531516 0.9335561 -0.06129437
vn 0.3523232 0.9335561 0.06588948
vn 0.9815832 -0.0005629063 0.1910342
vn 0.569242 -0.0005629063 0.8221698
vn 0.123679 0.9745947 0.1867315
vn 0.123679 0.9745947 0.1867315
vn 0.569242 -0.0005629063 0.8221698
vn -0.1616377 -0.0005629063 0.98685
vn -0.03461313 0.9218307 0.3860443
vn -0.3062502 0.9218307 -0.237569
vn -0.1323243 0.9745947 -0.1807081
vn -0.1655268 0.9862053 0
vn -0.2241629 0.9745517 0
vn -0.1577293 0.9726405 0.1705636
vn -0.2476236 0.9335561 0.259144
vn -0.2613031 0.9218307 -0.2862673
vn -0.0131166 0.9745947 -0.2235915
vn -0.00334549 0.9863201 -0.164807
vn 0.2389782 0.9335561 -0.2671375
vn 0.1569008 0.9726405 -0.171326
vn -0.2378523 0.9335561 0.2681404
vn -0.1577293 0.9726405 0.1705636
vn -0.001391291 0.999999 0
vn 0.0005629063 0.9999996 0.0006459354
vn 0.158855 0.9726405 -0.1695155
vn 0.002517164 0.9863201 0.1648219
vn 0.01228827 0.9745947 0.2236385
vn 0.1608093 0.9765489 0.1431524
vn 0.2585204 0.9218307 0.2887827
vn 0.2487493 0.9335561 -0.2580636
vn 0.2233444 0.9745947 -0.01680496
vn 0.1647177 0.9863201 -0.006375764
vn 0.307376 0.9218307 0.2361106
vn -0.03656733 0.9960912 -0.0804057
vn 0.08264029 0.9960912 0.03118986
vn -0.2378523 0.9335561 0.2681404
vn -0.6716901 -0.0005629063 0.740832
vn -0.6853696 -0.0005629063 0.7281952
vn -0.2476236 0.9335561 0.259144
vn -0.3062502 0.9218307 -0.237569
vn -0.7342253 -0.0005629063 -0.6789057
vn -0.7342253 -0.0005629063 -0.6789057
vn -0.2613031 0.9218307 -0.2862673
vn 0.2389782 0.9335561 -0.2671375
vn 0.6708617 -0.0005629063 -0.7415823
vn 0.6845412 -0.0005629063 -0.7289739
vn 0.2487493 0.9335561 -0.2580636
vn 0.307376 0.9218307 0.2361106
vn 0.7470764 -0.0005629063 0.6647379
vn 0.7216715 -0.0005629063 0.6922355
vn 0.2585204 0.9218307 0.2887827
vn -0.2241629 0.9745517 0
vn -0.9999996 -0.0005629063 0.0006311832
vn -0.7342253 -0.0005629063 -0.6789057
vn -0.3062502 0.9218307 -0.237569
vn -0.2476236 0.9335561 0.259144
vn -0.6853696 -0.0005629063 0.7281952
vn -0.9999996 -0.0005629063 0.0006311832
vn -0.2241629 0.9745517 0
vn -0.2613031 0.9218307 -0.2862673
vn -0.7342253 -0.0005629063 -0.6789057
vn -0.04047573 -0.0005629063 -0.9991804
vn -0.0131166 0.9745947 -0.2235915
vn -0.0131166 0.9745947 -0.2235915
vn -0.04047573 -0.0005629063 -0.9991804
vn 0.6708617 -0.0005629063 -0.7415823
vn 0.2389782 0.9335561 -0.2671375
vn 0.2585204 0.9218307 0.2887827
vn 0.7216715 -0.0005629063 0.6922355
vn 0.0396474 -0.0005629063 0.9992136
vn 0.01228827 0.9745947 0.2236385
vn 0.01228827 0.9745947 0.2236385
vn 0.0396474 -0.0005629063 0.9992136
vn -0.6716901 -0.0005629063 0.740832
vn -0.2378523 0.9335561 0.2681404
vn 0.2487493 0.9335561 -0.2580636
vn 0.6845412 -0.0005629063 -0.7289739
vn 0.9991713 -0.0005629063 -0.04069956
vn 0.2233444 0.9745947 -0.01680496
vn 0.2233444 0.9745947 -0.01680496
vn 0.9991713 -0.0005629063 -0.04069956
vn 0.7470764 -0.0005629063 0.6647379
vn 0.307376 0.9218307 0.2361106
g Combined_M_Cmn_Gap_Prefab_Mesh_0
f 3/3/3 2/2/2 1/1/1
f 4/4/4 3/3/3 1/1/1
f 5/5/5 3/3/3 4/4/4
f 6/6/6 5/5/5 4/4/4
f 7/7/7 1/1/1 2/2/2
f 8/8/8 7/7/7 2/2/2
f 9/9/9 8/8/8 2/2/2
f 2/2/2 3/3/3 9/9/9
f 10/10/10 8/8/8 9/9/9
f 11/11/11 10/10/10 9/9/9
f 6/6/6 12/12/12 5/5/5
f 12/12/12 13/13/13 5/5/5
f 5/5/5 13/13/13 14/14/14
f 5/5/5 14/14/14 3/3/3
f 11/11/11 9/9/9 14/14/14
f 14/14/14 15/15/15 11/11/11
f 13/13/13 15/15/15 14/14/14
f 15/15/15 16/16/16 11/11/11
f 10/10/10 11/11/11 16/16/16
f 13/13/13 12/12/12 17/17/17
f 13/13/13 17/17/17 15/15/15
f 12/12/12 18/18/18 17/17/17
f 17/17/17 18/18/18 19/19/19
f 18/18/18 20/20/20 19/19/19
f 21/21/21 10/10/10 16/16/16
f 22/22/22 21/21/21 16/16/16
f 23/23/23 22/22/22 16/16/16
f 19/19/19 23/23/23 17/17/17
f 16/16/16 15/15/15 23/23/23
f 24/24/24 22/22/22 23/23/23
f 19/19/19 24/24/24 23/23/23
f 20/20/20 24/24/24 19/19/19
f 9/9/9 25/25/25 14/14/14
f 14/14/14 25/25/25 3/3/3
f 3/3/3 25/25/25 9/9/9
f 17/17/17 26/26/26 15/15/15
f 23/23/23 26/26/26 17/17/17
f 15/15/15 26/26/26 23/23/23
f 29/29/29 28/28/28 27/27/27
f 30/30/30 29/29/29 27/27/27
f 33/33/33 32/32/32 31/31/31
f 34/34/34 33/33/33 31/31/31
f 37/37/37 36/36/36 35/35/35
f 38/38/38 37/37/37 35/35/35
f 41/41/41 40/40/40 39/39/39
f 42/42/42 41/41/41 39/39/39
f 45/45/45 44/44/44 43/43/43
f 46/46/46 45/45/45 43/43/43
f 49/49/49 48/48/48 47/47/47
f 50/50/50 49/49/49 47/47/47
f 53/53/53 52/52/52 51/51/51
f 54/54/54 53/53/53 51/51/51
f 57/57/57 56/56/56 55/55/55
f 58/58/58 57/57/57 55/55/55
f 61/61/61 60/60/60 59/59/59
f 62/62/62 61/61/61 59/59/59
f 65/65/65 64/64/64 63/63/63
f 66/66/66 65/65/65 63/63/63
f 69/69/69 68/68/68 67/67/67
f 70/70/70 69/69/69 67/67/67
f 73/73/73 72/72/72 71/71/71
f 74/74/74 73/73/73 71/71/71
f 77/77/77 76/76/76 75/75/75
f 78/78/78 77/77/77 75/75/75
f 79/79/79 77/77/77 78/78/78
f 80/80/80 79/79/79 78/78/78
f 81/81/81 75/75/75 76/76/76
f 82/82/82 81/81/81 76/76/76
f 83/83/83 82/82/82 76/76/76
f 76/76/76 77/77/77 83/83/83
f 84/84/84 82/82/82 83/83/83
f 85/85/85 84/84/84 83/83/83
f 80/80/80 86/86/86 79/79/79
f 86/86/86 87/87/87 79/79/79
f 79/79/79 87/87/87 88/88/88
f 79/79/79 88/88/88 77/77/77
f 85/85/85 83/83/83 88/88/88
f 88/88/88 89/89/89 85/85/85
f 87/87/87 89/89/89 88/88/88
f 89/89/89 90/90/90 85/85/85
f 84/84/84 85/85/85 90/90/90
f 87/87/87 86/86/86 91/91/91
f 87/87/87 91/91/91 89/89/89
f 86/86/86 92/92/92 91/91/91
f 91/91/91 92/92/92 93/93/93
f 92/92/92 94/94/94 93/93/93
f 95/95/95 84/84/84 90/90/90
f 96/96/96 95/95/95 90/90/90
f 97/97/97 96/96/96 90/90/90
f 93/93/93 97/97/97 91/91/91
f 90/90/90 89/89/89 97/97/97
f 98/98/98 96/96/96 97/97/97
f 93/93/93 98/98/98 97/97/97
f 94/94/94 98/98/98 93/93/93
f 83/83/83 99/99/99 88/88/88
f 88/88/88 99/99/99 77/77/77
f 77/77/77 99/99/99 83/83/83
f 91/91/91 100/100/100 89/89/89
f 97/97/97 100/100/100 91/91/91
f 89/89/89 100/100/100 97/97/97
f 103/103/103 102/102/102 101/101/101
f 104/104/104 103/103/103 101/101/101
f 107/107/107 106/106/106 105/105/105
f 108/108/108 107/107/107 105/105/105
f 111/111/111 110/110/110 109/109/109
f 112/112/112 111/111/111 109/109/109
f 115/115/115 114/114/114 113/113/113
f 116/116/116 115/115/115 113/113/113
f 119/119/119 118/118/118 117/117/117
f 120/120/120 119/119/119 117/117/117
f 123/123/123 122/122/122 121/121/121
f 124/124/124 123/123/123 121/121/121
f 127/127/127 126/126/126 125/125/125
f 128/128/128 127/127/127 125/125/125
f 131/131/131 130/130/130 129/129/129
f 132/132/132 131/131/131 129/129/129
f 135/135/135 134/134/134 133/133/133
f 136/136/136 135/135/135 133/133/133
f 139/139/139 138/138/138 137/137/137
f 140/140/140 139/139/139 137/137/137
f 143/143/143 142/142/142 141/141/141
f 144/144/144 143/143/143 141/141/141
f 147/147/147 146/146/146 145/145/145
f 148/148/148 147/147/147 145/145/145
f 151/151/151 150/150/150 149/149/149
f 152/152/152 151/151/151 149/149/149
f 153/153/153 151/151/151 152/152/152
f 154/154/154 153/153/153 152/152/152
f 155/155/155 149/149/149 150/150/150
f 156/156/156 155/155/155 150/150/150
f 157/157/157 156/156/156 150/150/150
f 150/150/150 151/151/151 157/157/157
f 158/158/158 156/156/156 157/157/157
f 159/159/159 158/158/158 157/157/157
f 154/154/154 160/160/160 153/153/153
f 160/160/160 161/161/161 153/153/153
f 153/153/153 161/161/161 162/162/162
f 153/153/153 162/162/162 151/151/151
f 159/159/159 157/157/157 162/162/162
f 162/162/162 163/163/163 159/159/159
f 161/161/161 163/163/163 162/162/162
f 163/163/163 164/164/164 159/159/159
f 158/158/158 159/159/159 164/164/164
f 161/161/161 160/160/160 165/165/165
f 161/161/161 165/165/165 163/163/163
f 160/160/160 166/166/166 165/165/165
f 165/165/165 166/166/166 167/167/167
f 166/166/166 168/168/168 167/167/167
f 169/169/169 158/158/158 164/164/164
f 170/170/170 169/169/169 164/164/164
f 171/171/171 170/170/170 164/164/164
f 167/167/167 171/171/171 165/165/165
f 164/164/164 163/163/163 171/171/171
f 172/172/172 170/170/170 171/171/171
f 167/167/167 172/172/172 171/171/171
f 168/168/168 172/172/172 167/167/167
f 157/157/157 173/173/173 162/162/162
f 162/162/162 173/173/173 151/151/151
f 151/151/151 173/173/173 157/157/157
f 165/165/165 174/174/174 163/163/163
f 171/171/171 174/174/174 165/165/165
f 163/163/163 174/174/174 171/171/171
f 177/177/177 176/176/176 175/175/175
f 178/178/178 177/177/177 175/175/175
f 181/181/181 180/180/180 179/179/179
f 182/182/182 181/181/181 179/179/179
f 185/185/185 184/184/184 183/183/183
f 186/186/186 185/185/185 183/183/183
f 189/189/189 188/188/188 187/187/187
f 190/190/190 189/189/189 187/187/187
f 193/193/193 192/192/192 191/191/191
f 194/194/194 193/193/193 191/191/191
f 197/197/197 196/196/196 195/195/195
f 198/198/198 197/197/197 195/195/195
f 201/201/201 200/200/200 199/199/199
f 202/202/202 201/201/201 199/199/199
f 205/205/205 204/204/204 203/203/203
f 206/206/206 205/205/205 203/203/203
f 209/209/209 208/208/208 207/207/207
f 210/210/210 209/209/209 207/207/207
f 213/213/213 212/212/212 211/211/211
f 214/214/214 213/213/213 211/211/211
f 217/217/217 216/216/216 215/215/215
f 218/218/218 217/217/217 215/215/215
f 221/221/221 220/220/220 219/219/219
f 222/222/222 221/221/221 219/219/219
