g Combined_M_Cmn_ami01_Group10000_Prefab_Mesh
v -133.7754 75.35067 85.03428
v -126.1407 70.29451 91.85497
v -133.2638 70.43114 101.6644
v -142.6275 76.6326 93.29894
v -119.0177 70.15775 82.0454
v -126.1407 70.29451 91.85497
v -133.7754 75.35067 85.03428
v -124.9231 74.06888 76.76949
v -140.3104 80.99496 74.54871
v -134.8482 76.25684 83.38543
v -143.9434 77.7439 91.27658
v -150.6428 83.55525 80.43845
v -125.753 74.76965 75.49428
v -134.8482 76.25684 83.38543
v -140.3104 80.99496 74.54871
v -129.9781 78.4348 68.65897
v -143.9239 85.90699 62.42707
v -141.0062 81.80971 72.6776
v -151.4961 84.55444 78.14363
v -155.0746 89.57978 65.57141
v -130.5163 79.06496 67.21156
v -141.0062 81.80971 72.6776
v -143.9239 85.90699 62.42707
v -132.773 82.2342 59.28273
v -144.3919 89.77582 49.44379
v -144.2177 86.59868 60.40958
v -155.435 90.42812 63.09702
v -155.6487 94.32487 49.64761
v -133.0004 82.76923 57.72229
v -144.2177 86.59868 60.40958
v -144.3919 89.77582 49.44379
v -133.1351 85.22677 49.2401
v -141.6912 92.35746 36.42638
v -144.2723 90.31705 47.36016
v -155.5018 94.98863 47.09206
v -152.3362 97.49122 33.68177
v -133.0426 85.64533 47.62841
v -144.2723 90.31705 47.36016
v -141.6912 92.35746 36.42638
v -131.0461 87.22369 39.17099
v -135.9991 93.49024 24.20264
v -141.1595 92.72543 34.35936
v -151.6842 97.94247 31.14651
v -145.3549 98.88052 18.68944
v -130.6349 87.50841 37.57208
v -141.1595 92.72543 34.35936
v -135.9991 93.49024 24.20264
v -126.6431 88.09996 29.71584
v -141.0138 79.27615 74.06189
v -151.3462 81.83632 79.95163
v -144.6468 76.02496 90.78976
v -135.5516 74.5379 82.89848
v -126.4564 73.05084 75.00732
v -130.6815 76.71587 68.17215
v -141.0138 79.27615 74.06189
v -135.5516 74.5379 82.89848
v -134.4788 73.63187 84.54746
v -143.3309 74.91365 92.81213
v -133.9672 68.71233 101.1776
v -126.8441 68.57557 91.36802
v -119.7211 68.43895 81.55859
v -125.6265 72.34994 76.28267
v -134.4788 73.63187 84.54746
v -126.8441 68.57557 91.36802
v -144.6273 84.18805 61.94025
v -155.7781 87.86084 65.08447
v -152.1995 82.8355 77.65668
v -141.7096 80.09076 72.19078
v -131.2197 77.34602 66.72475
v -133.4766 80.51526 58.79591
v -144.6273 84.18805 61.94025
v -141.7096 80.09076 72.19078
v -145.0953 88.05688 48.95697
v -156.3521 92.60594 49.16066
v -156.1384 88.70918 62.6102
v -144.9211 84.87974 59.92277
v -133.7038 81.05029 57.23547
v -133.8386 83.50796 48.75329
v -145.0953 88.05688 48.95697
v -144.9211 84.87974 59.92277
v -142.3946 90.63865 35.93957
v -153.0397 95.77242 33.19495
v -156.2054 93.26969 46.60511
v -144.9757 88.59811 46.87335
v -133.746 83.92653 47.14159
v -131.7495 85.50489 38.68418
v -142.3946 90.63865 35.93957
v -144.9757 88.59811 46.87335
v -136.7025 91.7713 23.71582
v -146.0583 97.16158 18.20262
v -152.3877 96.22366 30.65969
v -141.863 91.00649 33.87254
v -131.3384 85.78947 37.08527
v -127.3465 86.38103 29.22902
v -136.7025 91.7713 23.71582
v -141.863 91.00649 33.87254
v -131.3232 69.31047 103.2442
v -116.0761 63.93455 98.97986
v -123.0097 63.93455 108.998
v -124.3898 69.31047 93.22608
v -116.0761 63.93455 98.97986
v -117.4563 69.31047 83.20796
v -109.1426 63.93455 88.96174
v -124.3898 69.31047 93.22608
v -121.4286 62.9123 110.0922
v -106.1816 57.53639 105.8278
v -113.115 57.53639 115.8461
v -114.4951 62.9123 100.074
v -106.1816 57.53639 105.8278
v -107.5616 62.9123 90.05592
v -99.2481 57.53639 95.8097
v -114.4951 62.9123 100.074
v -111.5339 56.51414 116.9403
v -96.2869 51.13822 112.6758
v -103.2205 51.13822 122.694
v -104.6004 56.51414 106.922
v -96.2869 51.13822 112.6758
v -97.66698 56.51414 96.90388
v -89.35343 51.13822 102.6577
v -104.6004 56.51414 106.922
v -101.6394 50.11584 123.7882
v -86.39236 44.74006 119.5237
v -93.32582 44.74006 129.542
v -94.70589 50.11584 113.7701
v -86.39236 44.74006 119.5237
v -87.77243 50.11584 103.7518
v -79.45889 44.74006 109.5056
v -94.70589 50.11584 113.7701
v -91.74469 43.71768 130.6362
v -76.49768 38.34189 126.3717
v -83.43114 38.34189 136.39
v -84.81123 43.71768 120.618
v -76.49768 38.34189 126.3717
v -77.87776 43.71768 110.5998
v -69.56422 38.34189 116.3536
v -84.81123 43.71768 120.618
v -81.85015 37.31952 137.4841
v -66.60301 31.94373 133.2198
v -73.53661 31.94373 143.2379
v -74.91669 37.31952 127.466
v -66.60301 31.94373 133.2198
v -67.98322 37.31952 117.4479
v -59.66955 31.94373 123.2015
v -74.91669 37.31952 127.466
v -122.1698 61.21708 109.5793
v -113.8563 55.84116 115.333
v -106.9227 55.84116 105.3149
v -115.2363 61.21708 99.56114
v -106.9227 55.84116 105.3149
v -99.9892 55.84116 95.29666
v -108.3029 61.21708 89.54302
v -115.2363 61.21708 99.56114
v -132.0643 67.61525 102.7313
v -123.7508 62.23933 108.4851
v -116.8173 62.23933 98.46696
v -125.1309 67.61525 92.71318
v -116.8173 62.23933 98.46696
v -109.8839 62.23933 88.44871
v -118.1974 67.61525 82.69493
v -125.1309 67.61525 92.71318
v -112.2751 54.81878 116.4272
v -103.9616 49.443 122.181
v -97.02812 49.443 112.1629
v -105.3417 54.81878 106.4091
v -97.02812 49.443 112.1629
v -90.09466 49.443 102.1448
v -98.4082 54.81878 96.39098
v -105.3417 54.81878 106.4091
v -102.3805 48.42062 123.2752
v -94.06704 43.04483 129.0291
v -87.13345 43.04483 119.0108
v -95.44712 48.42062 113.2571
v -87.13345 43.04483 119.0108
v -80.19998 43.04483 108.9927
v -88.51366 48.42062 103.2389
v -95.44712 48.42062 113.2571
v -92.48592 42.02245 130.1231
v -84.17237 36.64667 135.877
v -77.23891 36.64667 125.8588
v -85.55245 42.02245 120.105
v -77.23891 36.64667 125.8588
v -70.30544 36.64667 115.8407
v -78.61899 42.02245 110.0869
v -85.55245 42.02245 120.105
v -82.59124 35.62429 136.9712
v -74.27769 30.2485 142.725
v -67.34424 30.2485 132.7068
v -75.65778 35.62429 126.953
v -67.34424 30.2485 132.7068
v -60.41077 30.2485 122.6886
v -68.72432 35.62429 116.9349
v -75.65778 35.62429 126.953
vt 2.5 -1.5
vt -1.5 -1.5
vt -1.5 2.5
vt 2.5 2.5
vt 2.5 -1.5
vt -1.5 -1.5
vt -1.5 2.5
vt 2.5 2.5
vt 2.5 -1.5
vt -1.5 -1.5
vt -1.5 2.5
vt 2.5 2.5
vt 2.5 -1.5
vt -1.5 -1.5
vt -1.5 2.5
vt 2.5 2.5
vt 2.5 -1.5
vt -1.5 -1.5
vt -1.5 2.5
vt 2.5 2.5
vt 2.5 -1.5
vt -1.5 -1.5
vt -1.5 2.5
vt 2.5 2.5
vt 2.5 -1.5
vt -1.5 -1.5
vt -1.5 2.5
vt 2.5 2.5
vt 2.5 -1.5
vt -1.5 -1.5
vt -1.5 2.5
vt 2.5 2.5
vt 2.5 -1.5
vt -1.5 -1.5
vt -1.5 2.5
vt 2.5 2.5
vt 2.5 -1.5
vt -1.5 -1.5
vt -1.5 2.5
vt 2.5 2.5
vt 2.5 -1.5
vt -1.5 -1.5
vt -1.5 2.5
vt 2.5 2.5
vt 2.5 -1.5
vt -1.5 -1.5
vt -1.5 2.5
vt 2.5 2.5
vt 2.5 -1.5
vt 2.5 2.5
vt -1.5 2.5
vt -1.5 -1.5
vt 2.5 -1.5
vt 2.5 2.5
vt -1.5 2.5
vt -1.5 -1.5
vt 2.5 -1.5
vt 2.5 2.5
vt -1.5 2.5
vt -1.5 -1.5
vt 2.5 -1.5
vt 2.5 2.5
vt -1.5 2.5
vt -1.5 -1.5
vt 2.5 -1.5
vt 2.5 2.5
vt -1.5 2.5
vt -1.5 -1.5
vt 2.5 -1.5
vt 2.5 2.5
vt -1.5 2.5
vt -1.5 -1.5
vt 2.5 -1.5
vt 2.5 2.5
vt -1.5 2.5
vt -1.5 -1.5
vt 2.5 -1.5
vt 2.5 2.5
vt -1.5 2.5
vt -1.5 -1.5
vt 2.5 -1.5
vt 2.5 2.5
vt -1.5 2.5
vt -1.5 -1.5
vt 2.5 -1.5
vt 2.5 2.5
vt -1.5 2.5
vt -1.5 -1.5
vt 2.5 -1.5
vt 2.5 2.5
vt -1.5 2.5
vt -1.5 -1.5
vt 2.5 -1.5
vt 2.5 2.5
vt -1.5 2.5
vt -1.5 -1.5
vt -1.5 2.5
vt 2.5 -1.5
vt 2.5 2.5
vt -1.5 -1.5
vt -1.5 2.5
vt 2.5 -1.5
vt 2.5 2.5
vt -1.5 -1.5
vt -1.5 2.5
vt 2.5 -1.5
vt 2.5 2.5
vt -1.5 -1.5
vt -1.5 2.5
vt 2.5 -1.5
vt 2.5 2.5
vt -1.5 -1.5
vt -1.5 2.5
vt 2.5 -1.5
vt 2.5 2.5
vt -1.5 -1.5
vt -1.5 2.5
vt 2.5 -1.5
vt 2.5 2.5
vt -1.5 -1.5
vt -1.5 2.5
vt 2.5 -1.5
vt 2.5 2.5
vt -1.5 -1.5
vt -1.5 2.5
vt 2.5 -1.5
vt 2.5 2.5
vt -1.5 -1.5
vt -1.5 2.5
vt 2.5 -1.5
vt 2.5 2.5
vt -1.5 -1.5
vt -1.5 2.5
vt 2.5 -1.5
vt 2.5 2.5
vt -1.5 -1.5
vt -1.5 2.5
vt 2.5 -1.5
vt 2.5 2.5
vt -1.5 -1.5
vt -1.5 2.5
vt 2.5 -1.5
vt 2.5 2.5
vt -1.5 -1.5
vt -1.5 2.5
vt 2.5 2.5
vt 2.5 -1.5
vt -1.5 -1.5
vt -1.5 2.5
vt 2.5 2.5
vt 2.5 -1.5
vt -1.5 -1.5
vt -1.5 2.5
vt 2.5 2.5
vt 2.5 -1.5
vt -1.5 -1.5
vt -1.5 2.5
vt 2.5 2.5
vt 2.5 -1.5
vt -1.5 -1.5
vt -1.5 2.5
vt 2.5 2.5
vt 2.5 -1.5
vt -1.5 -1.5
vt -1.5 2.5
vt 2.5 2.5
vt 2.5 -1.5
vt -1.5 -1.5
vt -1.5 2.5
vt 2.5 2.5
vt 2.5 -1.5
vt -1.5 -1.5
vt -1.5 2.5
vt 2.5 2.5
vt 2.5 -1.5
vt -1.5 -1.5
vt -1.5 2.5
vt 2.5 2.5
vt 2.5 -1.5
vt -1.5 -1.5
vt -1.5 2.5
vt 2.5 2.5
vt 2.5 -1.5
vt -1.5 -1.5
vt -1.5 2.5
vt 2.5 2.5
vt 2.5 -1.5
vt -1.5 -1.5
vt -1.5 2.5
vt 2.5 2.5
vt 2.5 -1.5
vt -1.5 -1.5
vn 0.3669785 0.8949497 0.2537554
vn 0.3669785 0.8949497 0.2537554
vn 0.3669785 0.8949497 0.2537554
vn 0.3669785 0.8949497 0.2537554
vn 0.3669785 0.8949497 0.2537554
vn 0.3669785 0.8949497 0.2537554
vn 0.3669785 0.8949497 0.2537554
vn 0.3669785 0.8949497 0.2537554
vn 0.3669785 0.8949497 0.2537554
vn 0.3669785 0.8949497 0.2537554
vn 0.3669785 0.8949497 0.2537554
vn 0.3669785 0.8949497 0.2537554
vn 0.3669785 0.8949497 0.2537554
vn 0.3669785 0.8949497 0.2537554
vn 0.3669785 0.8949497 0.2537554
vn 0.3669785 0.8949497 0.2537554
vn 0.3669785 0.8949497 0.2537554
vn 0.3669785 0.8949497 0.2537554
vn 0.3669785 0.8949497 0.2537554
vn 0.3669785 0.8949497 0.2537554
vn 0.3669785 0.8949497 0.2537554
vn 0.3669785 0.8949497 0.2537554
vn 0.3669785 0.8949497 0.2537554
vn 0.3669785 0.8949497 0.2537554
vn 0.3669785 0.8949497 0.2537554
vn 0.3669785 0.8949497 0.2537554
vn 0.3669785 0.8949497 0.2537554
vn 0.3669785 0.8949497 0.2537554
vn 0.3669785 0.8949497 0.2537554
vn 0.3669785 0.8949497 0.2537554
vn 0.3669785 0.8949497 0.2537554
vn 0.3669785 0.8949497 0.2537554
vn 0.3669785 0.8949497 0.2537554
vn 0.3669785 0.8949497 0.2537554
vn 0.3669785 0.8949497 0.2537554
vn 0.3669785 0.8949497 0.2537554
vn 0.3669785 0.8949497 0.2537554
vn 0.3669785 0.8949497 0.2537554
vn 0.3669785 0.8949497 0.2537554
vn 0.3669785 0.8949497 0.2537554
vn 0.3669785 0.8949497 0.2537554
vn 0.3669785 0.8949497 0.2537554
vn 0.3669785 0.8949497 0.2537554
vn 0.3669785 0.8949497 0.2537554
vn 0.3669785 0.8949497 0.2537554
vn 0.3669785 0.8949497 0.2537554
vn 0.3669785 0.8949497 0.2537554
vn 0.3669785 0.8949497 0.2537554
vn -0.3646249 -0.8955532 -0.2550161
vn -0.3646249 -0.8955532 -0.2550161
vn -0.3646249 -0.8955532 -0.2550161
vn -0.3646249 -0.8955532 -0.2550161
vn -0.3646249 -0.8955532 -0.2550161
vn -0.3646249 -0.8955532 -0.2550161
vn -0.3646249 -0.8955532 -0.2550161
vn -0.3646249 -0.8955532 -0.2550161
vn -0.3646249 -0.8955532 -0.2550161
vn -0.3646249 -0.8955532 -0.2550161
vn -0.3646249 -0.8955532 -0.2550161
vn -0.3646249 -0.8955532 -0.2550161
vn -0.3646249 -0.8955532 -0.2550161
vn -0.3646249 -0.8955532 -0.2550161
vn -0.3646249 -0.8955532 -0.2550161
vn -0.3646249 -0.8955532 -0.2550161
vn -0.3646249 -0.8955532 -0.2550161
vn -0.3646249 -0.8955532 -0.2550161
vn -0.3646249 -0.8955532 -0.2550161
vn -0.3646249 -0.8955532 -0.2550161
vn -0.3646249 -0.8955532 -0.2550161
vn -0.3646249 -0.8955532 -0.2550161
vn -0.3646249 -0.8955532 -0.2550161
vn -0.3646249 -0.8955532 -0.2550161
vn -0.3646249 -0.8955532 -0.2550161
vn -0.3646249 -0.8955532 -0.2550161
vn -0.3646249 -0.8955532 -0.2550161
vn -0.3646249 -0.8955532 -0.2550161
vn -0.3646249 -0.8955532 -0.2550161
vn -0.3646249 -0.8955532 -0.2550161
vn -0.3646249 -0.8955532 -0.2550161
vn -0.3646249 -0.8955532 -0.2550161
vn -0.3646249 -0.8955532 -0.2550161
vn -0.3646249 -0.8955532 -0.2550161
vn -0.3646249 -0.8955532 -0.2550161
vn -0.3646249 -0.8955532 -0.2550161
vn -0.3646249 -0.8955532 -0.2550161
vn -0.3646249 -0.8955532 -0.2550161
vn -0.3646249 -0.8955532 -0.2550161
vn -0.3646249 -0.8955532 -0.2550161
vn -0.3646249 -0.8955532 -0.2550161
vn -0.3646249 -0.8955532 -0.2550161
vn -0.3646249 -0.8955532 -0.2550161
vn -0.3646249 -0.8955532 -0.2550161
vn -0.3646249 -0.8955532 -0.2550161
vn -0.3646249 -0.8955532 -0.2550161
vn -0.3646249 -0.8955532 -0.2550161
vn -0.3646249 -0.8955532 -0.2550161
vn 0.3862312 0.8826981 0.2677115
vn 0.3862312 0.8826981 0.2677115
vn 0.3862312 0.8826981 0.2677115
vn 0.3862312 0.8826981 0.2677115
vn 0.3862312 0.8826981 0.2677115
vn 0.3862312 0.8826981 0.2677115
vn 0.3862312 0.8826981 0.2677115
vn 0.3862312 0.8826981 0.2677115
vn 0.3862312 0.8826981 0.2677115
vn 0.3862312 0.8826981 0.2677115
vn 0.3862312 0.8826981 0.2677115
vn 0.3862312 0.8826981 0.2677115
vn 0.3862312 0.8826981 0.2677115
vn 0.3862312 0.8826981 0.2677115
vn 0.3862312 0.8826981 0.2677115
vn 0.3862312 0.8826981 0.2677115
vn 0.3862312 0.8826981 0.2677115
vn 0.3862312 0.8826981 0.2677115
vn 0.3862312 0.8826981 0.2677115
vn 0.3862312 0.8826981 0.2677115
vn 0.3862312 0.8826981 0.2677115
vn 0.3862312 0.8826981 0.2677115
vn 0.3862312 0.8826981 0.2677115
vn 0.3862312 0.8826981 0.2677115
vn 0.3862312 0.8826981 0.2677115
vn 0.3862312 0.8826981 0.2677115
vn 0.3862312 0.8826981 0.2677115
vn 0.3862312 0.8826981 0.2677115
vn 0.3862312 0.8826981 0.2677115
vn 0.3862312 0.8826981 0.2677115
vn 0.3862312 0.8826981 0.2677115
vn 0.3862312 0.8826981 0.2677115
vn 0.3862312 0.8826981 0.2677115
vn 0.3862312 0.8826981 0.2677115
vn 0.3862312 0.8826981 0.2677115
vn 0.3862312 0.8826981 0.2677115
vn 0.3862312 0.8826981 0.2677115
vn 0.3862312 0.8826981 0.2677115
vn 0.3862312 0.8826981 0.2677115
vn 0.3862312 0.8826981 0.2677115
vn 0.3862312 0.8826981 0.2677115
vn 0.3862312 0.8826981 0.2677115
vn 0.3862312 0.8826981 0.2677115
vn 0.3862312 0.8826981 0.2677115
vn 0.3862312 0.8826981 0.2677115
vn 0.3862312 0.8826981 0.2677115
vn 0.3862312 0.8826981 0.2677115
vn 0.3862312 0.8826981 0.2677115
vn -0.387378 -0.8833014 -0.2640395
vn -0.387378 -0.8833014 -0.2640395
vn -0.387378 -0.8833014 -0.2640395
vn -0.387378 -0.8833014 -0.2640395
vn -0.387378 -0.8833014 -0.2640395
vn -0.387378 -0.8833014 -0.2640395
vn -0.387378 -0.8833014 -0.2640395
vn -0.387378 -0.8833014 -0.2640395
vn -0.387378 -0.8833014 -0.2640395
vn -0.387378 -0.8833014 -0.2640395
vn -0.387378 -0.8833014 -0.2640395
vn -0.387378 -0.8833014 -0.2640395
vn -0.387378 -0.8833014 -0.2640395
vn -0.387378 -0.8833014 -0.2640395
vn -0.387378 -0.8833014 -0.2640395
vn -0.387378 -0.8833014 -0.2640395
vn -0.387378 -0.8833014 -0.2640395
vn -0.387378 -0.8833014 -0.2640395
vn -0.387378 -0.8833014 -0.2640395
vn -0.387378 -0.8833014 -0.2640395
vn -0.387378 -0.8833014 -0.2640395
vn -0.387378 -0.8833014 -0.2640395
vn -0.387378 -0.8833014 -0.2640395
vn -0.387378 -0.8833014 -0.2640395
vn -0.387378 -0.8833014 -0.2640395
vn -0.387378 -0.8833014 -0.2640395
vn -0.387378 -0.8833014 -0.2640395
vn -0.387378 -0.8833014 -0.2640395
vn -0.387378 -0.8833014 -0.2640395
vn -0.387378 -0.8833014 -0.2640395
vn -0.387378 -0.8833014 -0.2640395
vn -0.387378 -0.8833014 -0.2640395
vn -0.387378 -0.8833014 -0.2640395
vn -0.387378 -0.8833014 -0.2640395
vn -0.387378 -0.8833014 -0.2640395
vn -0.387378 -0.8833014 -0.2640395
vn -0.387378 -0.8833014 -0.2640395
vn -0.387378 -0.8833014 -0.2640395
vn -0.387378 -0.8833014 -0.2640395
vn -0.387378 -0.8833014 -0.2640395
vn -0.387378 -0.8833014 -0.2640395
vn -0.387378 -0.8833014 -0.2640395
vn -0.387378 -0.8833014 -0.2640395
vn -0.387378 -0.8833014 -0.2640395
vn -0.387378 -0.8833014 -0.2640395
vn -0.387378 -0.8833014 -0.2640395
vn -0.387378 -0.8833014 -0.2640395
vn -0.387378 -0.8833014 -0.2640395
g Combined_M_Cmn_ami01_Group10000_Prefab_Mesh_0
f 3/3/3 2/2/2 1/1/1
f 4/4/4 3/3/3 1/1/1
f 7/7/7 6/6/6 5/5/5
f 8/8/8 7/7/7 5/5/5
f 11/11/11 10/10/10 9/9/9
f 12/12/12 11/11/11 9/9/9
f 15/15/15 14/14/14 13/13/13
f 16/16/16 15/15/15 13/13/13
f 19/19/19 18/18/18 17/17/17
f 20/20/20 19/19/19 17/17/17
f 23/23/23 22/22/22 21/21/21
f 24/24/24 23/23/23 21/21/21
f 27/27/27 26/26/26 25/25/25
f 28/28/28 27/27/27 25/25/25
f 31/31/31 30/30/30 29/29/29
f 32/32/32 31/31/31 29/29/29
f 35/35/35 34/34/34 33/33/33
f 36/36/36 35/35/35 33/33/33
f 39/39/39 38/38/38 37/37/37
f 40/40/40 39/39/39 37/37/37
f 43/43/43 42/42/42 41/41/41
f 44/44/44 43/43/43 41/41/41
f 47/47/47 46/46/46 45/45/45
f 48/48/48 47/47/47 45/45/45
f 51/51/51 50/50/50 49/49/49
f 52/52/52 51/51/51 49/49/49
f 55/55/55 54/54/54 53/53/53
f 56/56/56 55/55/55 53/53/53
f 59/59/59 58/58/58 57/57/57
f 60/60/60 59/59/59 57/57/57
f 63/63/63 62/62/62 61/61/61
f 64/64/64 63/63/63 61/61/61
f 67/67/67 66/66/66 65/65/65
f 68/68/68 67/67/67 65/65/65
f 71/71/71 70/70/70 69/69/69
f 72/72/72 71/71/71 69/69/69
f 75/75/75 74/74/74 73/73/73
f 76/76/76 75/75/75 73/73/73
f 79/79/79 78/78/78 77/77/77
f 80/80/80 79/79/79 77/77/77
f 83/83/83 82/82/82 81/81/81
f 84/84/84 83/83/83 81/81/81
f 87/87/87 86/86/86 85/85/85
f 88/88/88 87/87/87 85/85/85
f 91/91/91 90/90/90 89/89/89
f 92/92/92 91/91/91 89/89/89
f 95/95/95 94/94/94 93/93/93
f 96/96/96 95/95/95 93/93/93
f 99/99/99 98/98/98 97/97/97
f 100/100/100 97/97/97 98/98/98
f 103/103/103 102/102/102 101/101/101
f 104/104/104 101/101/101 102/102/102
f 107/107/107 106/106/106 105/105/105
f 108/108/108 105/105/105 106/106/106
f 111/111/111 110/110/110 109/109/109
f 112/112/112 109/109/109 110/110/110
f 115/115/115 114/114/114 113/113/113
f 116/116/116 113/113/113 114/114/114
f 119/119/119 118/118/118 117/117/117
f 120/120/120 117/117/117 118/118/118
f 123/123/123 122/122/122 121/121/121
f 124/124/124 121/121/121 122/122/122
f 127/127/127 126/126/126 125/125/125
f 128/128/128 125/125/125 126/126/126
f 131/131/131 130/130/130 129/129/129
f 132/132/132 129/129/129 130/130/130
f 135/135/135 134/134/134 133/133/133
f 136/136/136 133/133/133 134/134/134
f 139/139/139 138/138/138 137/137/137
f 140/140/140 137/137/137 138/138/138
f 143/143/143 142/142/142 141/141/141
f 144/144/144 141/141/141 142/142/142
f 147/147/147 146/146/146 145/145/145
f 145/145/145 148/148/148 147/147/147
f 151/151/151 150/150/150 149/149/149
f 149/149/149 152/152/152 151/151/151
f 155/155/155 154/154/154 153/153/153
f 153/153/153 156/156/156 155/155/155
f 159/159/159 158/158/158 157/157/157
f 157/157/157 160/160/160 159/159/159
f 163/163/163 162/162/162 161/161/161
f 161/161/161 164/164/164 163/163/163
f 167/167/167 166/166/166 165/165/165
f 165/165/165 168/168/168 167/167/167
f 171/171/171 170/170/170 169/169/169
f 169/169/169 172/172/172 171/171/171
f 175/175/175 174/174/174 173/173/173
f 173/173/173 176/176/176 175/175/175
f 179/179/179 178/178/178 177/177/177
f 177/177/177 180/180/180 179/179/179
f 183/183/183 182/182/182 181/181/181
f 181/181/181 184/184/184 183/183/183
f 187/187/187 186/186/186 185/185/185
f 185/185/185 188/188/188 187/187/187
f 191/191/191 190/190/190 189/189/189
f 189/189/189 192/192/192 191/191/191
