g Combined_ShadowCollisionPrefab_Mesh
v -180.6549 10.60503 -124.3806
v -182.2377 10.59283 -125.7681
v -175.4515 9.869247 -133.5021
v -173.869 9.881439 -132.1146
v -156.7945 10.01366 -117.1454
v -155.2118 10.02585 -115.7579
v -161.998 10.74944 -108.0239
v -163.5804 10.73724 -109.4114
v -155.3547 10.0359 -119.1677
v -153.4459 10.05052 -117.4945
v -155.0658 10.22327 -115.6482
v -156.9746 10.20834 -117.3215
v -175.581 10.06454 -133.634
v -173.9614 9.8918 -135.4803
v -172.0526 9.906418 -133.8071
v -173.6725 10.07916 -131.9608
v -172.1995 9.725143 -133.6376
v -155.5015 9.854324 -118.9987
v -156.8445 9.997513 -117.4677
v -173.5428 9.868332 -132.107
v -163.7605 10.93193 -109.5875
v -161.8517 10.94685 -107.9142
v -163.4716 11.11931 -106.0679
v -165.3804 11.10468 -107.7415
v -180.6053 10.62117 -124.0577
v -163.9073 10.75066 -109.4184
v -165.2506 10.89384 -107.8877
v -181.9485 10.76436 -122.5267
v -183.9871 10.96057 -124.054
v -182.3672 10.78783 -125.9
v -180.4584 10.80275 -124.2268
v -182.0783 10.97549 -122.3805
v -180.6549 10.60503 -124.3806
v -182.2377 10.59283 -125.7681
v -175.4515 9.869247 -133.5021
v -173.869 9.881439 -132.1146
v -156.7945 10.01366 -117.1454
v -155.2118 10.02585 -115.7579
v -161.998 10.74944 -108.0239
v -163.5804 10.73724 -109.4114
v -155.3547 10.0359 -119.1677
v -153.4459 10.05052 -117.4945
v -155.0658 10.22327 -115.6482
v -156.9746 10.20834 -117.3215
v -175.581 10.06454 -133.634
v -173.9614 9.8918 -135.4803
v -172.0526 9.906418 -133.8071
v -173.6725 10.07916 -131.9608
v -172.1995 9.725143 -133.6376
v -155.5015 9.854324 -118.9987
v -156.8445 9.997513 -117.4677
v -173.5428 9.868332 -132.107
v -163.7605 10.93193 -109.5875
v -161.8517 10.94685 -107.9142
v -163.4716 11.11931 -106.0679
v -165.3804 11.10468 -107.7415
v -180.6053 10.62117 -124.0577
v -163.9073 10.75066 -109.4184
v -165.2506 10.89384 -107.8877
v -181.9485 10.76436 -122.5267
v -183.9871 10.96057 -124.054
v -182.3672 10.78783 -125.9
v -180.4584 10.80275 -124.2268
v -182.0783 10.97549 -122.3805
vt 0.3430644 0.1985162
vt 0.2532105 0.1985162
vt 0.2532105 0.8010898
vt 0.3430644 0.8010898
vt 0.3430644 0.8010898
vt 0.2532105 0.8010898
vt 0.2532105 0.1985162
vt 0.3430644 0.1985162
vt 0.4972139 0.6657805
vt 0.4972139 0.8264971
vt 0.3457968 0.8264971
vt 0.3457968 0.6657805
vt 0.3457968 0.8264971
vt 0.4972139 0.8264971
vt 0.4972139 0.6657805
vt 0.3457968 0.6657805
vt 0.3422643 0.9944749
vt 0.3422643 0.005131
vt 0.25392 0.005131
vt 0.25392 0.9944749
vt 0.4972139 0.6657805
vt 0.4972139 0.8264971
vt 0.3457968 0.8264971
vt 0.3457968 0.6657805
vt 0.3422643 0.9944749
vt 0.3422643 0.005131
vt 0.25392 0.005131
vt 0.25392 0.9944749
vt 0.3457968 0.8264971
vt 0.4972139 0.8264971
vt 0.4972139 0.6657805
vt 0.3457968 0.6657805
vt 0.3430644 0.1985162
vt 0.2532105 0.1985162
vt 0.2532105 0.8010898
vt 0.3430644 0.8010898
vt 0.3430644 0.8010898
vt 0.2532105 0.8010898
vt 0.2532105 0.1985162
vt 0.3430644 0.1985162
vt 0.4972139 0.6657805
vt 0.4972139 0.8264971
vt 0.3457968 0.8264971
vt 0.3457968 0.6657805
vt 0.3457968 0.8264971
vt 0.4972139 0.8264971
vt 0.4972139 0.6657805
vt 0.3457968 0.6657805
vt 0.3422643 0.9944749
vt 0.3422643 0.005131
vt 0.25392 0.005131
vt 0.25392 0.9944749
vt 0.4972139 0.6657805
vt 0.4972139 0.8264971
vt 0.3457968 0.8264971
vt 0.3457968 0.6657805
vt 0.3422643 0.9944749
vt 0.3422643 0.005131
vt 0.25392 0.005131
vt 0.25392 0.9944749
vt 0.3457968 0.8264971
vt 0.4972139 0.8264971
vt 0.4972139 0.6657805
vt 0.3457968 0.6657805
vn 0.04187634 0.9975201 -0.05656902
vn 0.04187634 0.9975201 -0.05656902
vn 0.04187634 0.9975201 -0.05656902
vn 0.04187634 0.9975201 -0.05656902
vn 0.04187634 0.9975201 -0.05656902
vn 0.04187634 0.9975201 -0.05656902
vn 0.04187634 0.9975201 -0.05656902
vn 0.04187634 0.9975201 -0.05656902
vn 0.04187634 0.9975201 -0.05656902
vn 0.04187634 0.9975201 -0.05656902
vn 0.04187634 0.9975201 -0.05656902
vn 0.04187634 0.9975201 -0.05656902
vn 0.04187634 0.9975201 -0.05656902
vn 0.04187634 0.9975201 -0.05656902
vn 0.04187634 0.9975201 -0.05656902
vn 0.04187634 0.9975201 -0.05656902
vn 0.04187634 0.9975201 -0.05656902
vn 0.04187634 0.9975201 -0.05656902
vn 0.04187634 0.9975201 -0.05656902
vn 0.04187634 0.9975201 -0.05656902
vn 0.04187634 0.9975201 -0.05656902
vn 0.04187634 0.9975201 -0.05656902
vn 0.04187634 0.9975201 -0.05656902
vn 0.04187634 0.9975201 -0.05656902
vn 0.04187634 0.9975201 -0.05656902
vn 0.04187634 0.9975201 -0.05656902
vn 0.04187634 0.9975201 -0.05656902
vn 0.04187634 0.9975201 -0.05656902
vn 0.04187634 0.9975201 -0.05656902
vn 0.04187634 0.9975201 -0.05656902
vn 0.04187634 0.9975201 -0.05656902
vn 0.04187634 0.9975201 -0.05656902
vn 0.04187634 0.9975201 -0.05656902
vn 0.04187634 0.9975201 -0.05656902
vn 0.04187634 0.9975201 -0.05656902
vn 0.04187634 0.9975201 -0.05656902
vn 0.04187634 0.9975201 -0.05656902
vn 0.04187634 0.9975201 -0.05656902
vn 0.04187634 0.9975201 -0.05656902
vn 0.04187634 0.9975201 -0.05656902
vn 0.04187634 0.9975201 -0.05656902
vn 0.04187634 0.9975201 -0.05656902
vn 0.04187634 0.9975201 -0.05656902
vn 0.04187634 0.9975201 -0.05656902
vn 0.04187634 0.9975201 -0.05656902
vn 0.04187634 0.9975201 -0.05656902
vn 0.04187634 0.9975201 -0.05656902
vn 0.04187634 0.9975201 -0.05656902
vn 0.04187634 0.9975201 -0.05656902
vn 0.04187634 0.9975201 -0.05656902
vn 0.04187634 0.9975201 -0.05656902
vn 0.04187634 0.9975201 -0.05656902
vn 0.04187634 0.9975201 -0.05656902
vn 0.04187634 0.9975201 -0.05656902
vn 0.04187634 0.9975201 -0.05656902
vn 0.04187634 0.9975201 -0.05656902
vn 0.04187634 0.9975201 -0.05656902
vn 0.04187634 0.9975201 -0.05656902
vn 0.04187634 0.9975201 -0.05656902
vn 0.04187634 0.9975201 -0.05656902
vn 0.04187634 0.9975201 -0.05656902
vn 0.04187634 0.9975201 -0.05656902
vn 0.04187634 0.9975201 -0.05656902
vn 0.04187634 0.9975201 -0.05656902
g Combined_ShadowCollisionPrefab_Mesh_0
f 3/3/3 2/2/2 1/1/1
f 1/1/1 4/4/4 3/3/3
f 7/7/7 6/6/6 5/5/5
f 5/5/5 8/8/8 7/7/7
f 11/11/11 10/10/10 9/9/9
f 12/12/12 11/11/11 9/9/9
f 15/15/15 14/14/14 13/13/13
f 16/16/16 15/15/15 13/13/13
f 19/19/19 18/18/18 17/17/17
f 20/20/20 19/19/19 17/17/17
f 23/23/23 22/22/22 21/21/21
f 24/24/24 23/23/23 21/21/21
f 27/27/27 26/26/26 25/25/25
f 28/28/28 27/27/27 25/25/25
f 31/31/31 30/30/30 29/29/29
f 32/32/32 31/31/31 29/29/29
f 35/35/35 34/34/34 33/33/33
f 33/33/33 36/36/36 35/35/35
f 39/39/39 38/38/38 37/37/37
f 37/37/37 40/40/40 39/39/39
f 43/43/43 42/42/42 41/41/41
f 44/44/44 43/43/43 41/41/41
f 47/47/47 46/46/46 45/45/45
f 48/48/48 47/47/47 45/45/45
f 51/51/51 50/50/50 49/49/49
f 52/52/52 51/51/51 49/49/49
f 55/55/55 54/54/54 53/53/53
f 56/56/56 55/55/55 53/53/53
f 59/59/59 58/58/58 57/57/57
f 60/60/60 59/59/59 57/57/57
f 63/63/63 62/62/62 61/61/61
f 64/64/64 63/63/63 61/61/61
