g Combined_M_Cmn_ami01_Prefab_Mesh
v -173.7905 9.662735 -132.3054
v -172.2649 10.48242 -116.7264
v -180.8535 10.41582 -124.256
v -165.2022 9.72934 -124.7758
v -172.2649 10.48242 -116.7264
v -156.6136 9.795654 -117.2462
v -163.6763 10.54874 -109.1968
v -165.2022 9.72934 -124.7758
v -173.8661 7.867401 -132.2036
v -180.9288 8.620483 -124.1542
v -172.3402 8.686798 -116.6245
v -165.2775 7.933716 -124.6739
v -172.3402 8.686798 -116.6245
v -163.7519 8.753418 -109.0949
v -156.6889 8.000336 -117.1443
v -165.2775 7.933716 -124.6739
vt -1.5 2.5
vt 2.5 -1.5
vt 2.5 2.5
vt -1.5 -1.5
vt -1.5 2.5
vt 2.5 -1.5
vt 2.5 2.5
vt -1.5 -1.5
vt -1.5 2.5
vt 2.5 2.5
vt 2.5 -1.5
vt -1.5 -1.5
vt -1.5 2.5
vt 2.5 2.5
vt 2.5 -1.5
vt -1.5 -1.5
vn 0.04193467 0.9975139 -0.05663484
vn 0.04193467 0.9975139 -0.05663484
vn 0.04193467 0.9975139 -0.05663484
vn 0.04193467 0.9975139 -0.05663484
vn 0.04193467 0.9975139 -0.05663484
vn 0.04193467 0.9975139 -0.05663484
vn 0.04193467 0.9975139 -0.05663484
vn 0.04193467 0.9975139 -0.05663484
vn -0.04192328 -0.9975252 0.0564435
vn -0.04192328 -0.9975252 0.0564435
vn -0.04192328 -0.9975252 0.0564435
vn -0.04192328 -0.9975252 0.0564435
vn -0.04192328 -0.9975252 0.0564435
vn -0.04192328 -0.9975252 0.0564435
vn -0.04192328 -0.9975252 0.0564435
vn -0.04192328 -0.9975252 0.0564435
g Combined_M_Cmn_ami01_Prefab_Mesh_0
f 3/3/3 2/2/2 1/1/1
f 4/4/4 1/1/1 2/2/2
f 7/7/7 6/6/6 5/5/5
f 8/8/8 5/5/5 6/6/6
f 11/11/11 10/10/10 9/9/9
f 9/9/9 12/12/12 11/11/11
f 15/15/15 14/14/14 13/13/13
f 13/13/13 16/16/16 15/15/15
