g Combined_M_Cmn_ami01_Prefab_Mesh
v -151.1219 171.3069 -424.5157
v -157.3189 169.062 -408.3595
v -161.8595 168.6694 -420.3702
v -146.5806 171.6987 -412.5058
v -157.3189 169.062 -408.3595
v -142.04 172.0913 -400.4951
v -152.7784 169.4538 -396.3497
v -146.5806 171.6987 -412.5058
v -150.6871 169.3778 -424.617
v -161.4247 166.7402 -420.4716
v -156.8842 167.1329 -408.4608
v -146.1466 169.7704 -412.6071
v -156.8842 167.1329 -408.4608
v -152.3436 167.5246 -396.451
v -141.6052 170.1621 -400.5964
v -146.1466 169.7704 -412.6071
v 208.6797 230.8312 -637.0133
v 218.1897 236.0708 -619.1551
v 203.9273 235.8784 -624.491
v 222.9422 231.0229 -631.6783
v 218.1897 236.0708 -619.1551
v 237.2054 231.2145 -626.3425
v 232.453 236.2625 -613.8201
v 222.9422 231.0229 -631.6783
v 203.0231 236.8383 -622.1093
v 212.5339 242.0779 -604.251
v 198.2715 241.8862 -609.5869
v 217.2863 237.0308 -616.7742
v 212.5339 242.0779 -604.251
v 231.5488 237.2224 -611.4384
v 226.7971 242.2704 -598.916
v 217.2863 237.0308 -616.7742
v 197.3672 242.8462 -607.2051
v 206.8781 248.0858 -589.3469
v 192.6148 247.8932 -594.6828
v 211.6305 243.0378 -601.8702
v 206.8781 248.0858 -589.3469
v 225.8929 243.2303 -596.5343
v 221.1405 248.2774 -584.012
v 211.6305 243.0378 -601.8702
v 202.7538 234.5925 -621.3063
v 198.0013 239.6404 -608.7839
v 212.2637 239.8321 -603.449
v 217.0162 234.785 -615.9713
v 212.2637 239.8321 -603.449
v 226.527 240.0246 -598.1131
v 231.2794 234.9766 -610.6355
v 217.0162 234.785 -615.9713
v 208.4096 228.5854 -636.2104
v 203.6571 233.6334 -623.688
v 217.9196 233.8251 -618.353
v 222.672 228.7771 -630.8754
v 217.9196 233.8251 -618.353
v 232.1828 234.0167 -613.0172
v 236.9353 228.9696 -625.5396
v 222.672 228.7771 -630.8754
v 197.0971 240.6004 -606.4022
v 192.3446 245.6483 -593.8799
v 206.6079 245.84 -588.5449
v 211.3604 240.7921 -601.0673
v 206.6079 245.84 -588.5449
v 220.8703 246.0316 -583.209
v 225.6228 240.9846 -595.7314
v 211.3604 240.7921 -601.0673
vt -1.5 2.5
vt 2.5 -1.5
vt 2.5 2.5
vt -1.5 -1.5
vt -1.5 2.5
vt 2.5 -1.5
vt 2.5 2.5
vt -1.5 -1.5
vt -1.5 2.5
vt 2.5 2.5
vt 2.5 -1.5
vt -1.5 -1.5
vt -1.5 2.5
vt 2.5 2.5
vt 2.5 -1.5
vt -1.5 -1.5
vt -1.5 2.5
vt 2.5 -1.5
vt 2.5 2.5
vt -1.5 -1.5
vt -1.5 2.5
vt 2.5 -1.5
vt 2.5 2.5
vt -1.5 -1.5
vt -1.5 2.5
vt 2.5 -1.5
vt 2.5 2.5
vt -1.5 -1.5
vt -1.5 2.5
vt 2.5 -1.5
vt 2.5 2.5
vt -1.5 -1.5
vt -1.5 2.5
vt 2.5 -1.5
vt 2.5 2.5
vt -1.5 -1.5
vt -1.5 2.5
vt 2.5 -1.5
vt 2.5 2.5
vt -1.5 -1.5
vt -1.5 2.5
vt 2.5 2.5
vt 2.5 -1.5
vt -1.5 -1.5
vt -1.5 2.5
vt 2.5 2.5
vt 2.5 -1.5
vt -1.5 -1.5
vt -1.5 2.5
vt 2.5 2.5
vt 2.5 -1.5
vt -1.5 -1.5
vt -1.5 2.5
vt 2.5 2.5
vt 2.5 -1.5
vt -1.5 -1.5
vt -1.5 2.5
vt 2.5 2.5
vt 2.5 -1.5
vt -1.5 -1.5
vt -1.5 2.5
vt 2.5 2.5
vt 2.5 -1.5
vt -1.5 -1.5
vn -0.2199658 0.9742349 0.04981307
vn -0.2199658 0.9742349 0.04981307
vn -0.2199658 0.9742349 0.04981307
vn -0.2199658 0.9742349 0.04981307
vn -0.2199658 0.9742349 0.04981307
vn -0.2199658 0.9742349 0.04981307
vn -0.2199658 0.9742349 0.04981307
vn -0.2199658 0.9742349 0.04981307
vn 0.2200244 -0.9742935 -0.04838914
vn 0.2200244 -0.9742935 -0.04838914
vn 0.2200244 -0.9742935 -0.04838914
vn 0.2200244 -0.9742935 -0.04838914
vn 0.2200244 -0.9742935 -0.04838914
vn 0.2200244 -0.9742935 -0.04838914
vn 0.2200244 -0.9742935 -0.04838914
vn 0.2200244 -0.9742935 -0.04838914
vn 0.1114554 0.9361405 -0.3334945
vn 0.1114554 0.9361405 -0.3334945
vn 0.1114554 0.9361405 -0.3334945
vn 0.1114554 0.9361405 -0.3334945
vn 0.1114554 0.9361405 -0.3334945
vn 0.1114554 0.9361405 -0.3334945
vn 0.1114554 0.9361405 -0.3334945
vn 0.1114554 0.9361405 -0.3334945
vn 0.1114554 0.9361405 -0.3334945
vn 0.1114554 0.9361405 -0.3334945
vn 0.1114554 0.9361405 -0.3334945
vn 0.1114554 0.9361405 -0.3334945
vn 0.1114554 0.9361405 -0.3334945
vn 0.1114554 0.9361405 -0.3334945
vn 0.1114554 0.9361405 -0.3334945
vn 0.1114554 0.9361405 -0.3334945
vn 0.1114554 0.9361405 -0.3334945
vn 0.1114554 0.9361405 -0.3334945
vn 0.1114554 0.9361405 -0.3334945
vn 0.1114554 0.9361405 -0.3334945
vn 0.1114554 0.9361405 -0.3334945
vn 0.1114554 0.9361405 -0.3334945
vn 0.1114554 0.9361405 -0.3334945
vn 0.1114554 0.9361405 -0.3334945
vn -0.1133015 -0.9361991 0.3327072
vn -0.1133015 -0.9361991 0.3327072
vn -0.1133015 -0.9361991 0.3327072
vn -0.1133015 -0.9361991 0.3327072
vn -0.1133015 -0.9361991 0.3327072
vn -0.1133015 -0.9361991 0.3327072
vn -0.1133015 -0.9361991 0.3327072
vn -0.1133015 -0.9361991 0.3327072
vn -0.1133015 -0.9361991 0.3327072
vn -0.1133015 -0.9361991 0.3327072
vn -0.1133015 -0.9361991 0.3327072
vn -0.1133015 -0.9361991 0.3327072
vn -0.1133015 -0.9361991 0.3327072
vn -0.1133015 -0.9361991 0.3327072
vn -0.1133015 -0.9361991 0.3327072
vn -0.1133015 -0.9361991 0.3327072
vn -0.1133015 -0.9361991 0.3327072
vn -0.1133015 -0.9361991 0.3327072
vn -0.1133015 -0.9361991 0.3327072
vn -0.1133015 -0.9361991 0.3327072
vn -0.1133015 -0.9361991 0.3327072
vn -0.1133015 -0.9361991 0.3327072
vn -0.1133015 -0.9361991 0.3327072
vn -0.1133015 -0.9361991 0.3327072
g Combined_M_Cmn_ami01_Prefab_Mesh_0
f 3/3/3 2/2/2 1/1/1
f 4/4/4 1/1/1 2/2/2
f 7/7/7 6/6/6 5/5/5
f 8/8/8 5/5/5 6/6/6
f 11/11/11 10/10/10 9/9/9
f 9/9/9 12/12/12 11/11/11
f 15/15/15 14/14/14 13/13/13
f 13/13/13 16/16/16 15/15/15
f 19/19/19 18/18/18 17/17/17
f 20/20/20 17/17/17 18/18/18
f 23/23/23 22/22/22 21/21/21
f 24/24/24 21/21/21 22/22/22
f 27/27/27 26/26/26 25/25/25
f 28/28/28 25/25/25 26/26/26
f 31/31/31 30/30/30 29/29/29
f 32/32/32 29/29/29 30/30/30
f 35/35/35 34/34/34 33/33/33
f 36/36/36 33/33/33 34/34/34
f 39/39/39 38/38/38 37/37/37
f 40/40/40 37/37/37 38/38/38
f 43/43/43 42/42/42 41/41/41
f 41/41/41 44/44/44 43/43/43
f 47/47/47 46/46/46 45/45/45
f 45/45/45 48/48/48 47/47/47
f 51/51/51 50/50/50 49/49/49
f 49/49/49 52/52/52 51/51/51
f 55/55/55 54/54/54 53/53/53
f 53/53/53 56/56/56 55/55/55
f 59/59/59 58/58/58 57/57/57
f 57/57/57 60/60/60 59/59/59
f 63/63/63 62/62/62 61/61/61
f 61/61/61 64/64/64 63/63/63
