g Combined_M_Cmn_ami01_Prefab_Mesh
v -96.19238 237.5551 276.9539
v -109.3047 234.0202 276.604
v -101.6312 233.8958 270.3516
v -103.866 237.6797 283.2062
v -109.3047 234.0202 276.604
v -111.5396 237.8043 289.4586
v -116.9783 234.1448 282.8563
v -103.866 237.6797 283.2062
v -102.6654 233.1999 269.096
v -115.7779 229.6647 268.7463
v -108.1043 229.5403 262.494
v -110.339 233.3243 275.3484
v -115.7779 229.6647 268.7463
v -118.0126 233.4489 281.6009
v -123.4515 229.7893 274.9987
v -110.339 233.3243 275.3484
v -102.2918 231.7656 269.5831
v -107.7307 228.1061 262.9811
v -115.4043 228.2307 269.2334
v -109.9654 231.8902 275.8357
v -115.4043 228.2307 269.2334
v -123.0777 228.3553 275.4858
v -117.639 232.0146 282.088
v -109.9654 231.8902 275.8357
v -95.81877 236.1211 277.441
v -101.2575 232.4615 270.8387
v -108.9311 232.5861 277.0911
v -103.4924 236.2457 283.6933
v -108.9311 232.5861 277.0911
v -116.6047 232.7106 283.3436
v -111.166 236.3701 289.9456
v -103.4924 236.2457 283.6933
vt -1.5 2.5
vt 2.5 -1.5
vt 2.5 2.5
vt -1.5 -1.5
vt -1.5 2.5
vt 2.5 -1.5
vt 2.5 2.5
vt -1.5 -1.5
vt -1.5 2.5
vt 2.5 -1.5
vt 2.5 2.5
vt -1.5 -1.5
vt -1.5 2.5
vt 2.5 -1.5
vt 2.5 2.5
vt -1.5 -1.5
vt -1.5 2.5
vt 2.5 2.5
vt 2.5 -1.5
vt -1.5 -1.5
vt -1.5 2.5
vt 2.5 2.5
vt 2.5 -1.5
vt -1.5 -1.5
vt -1.5 2.5
vt 2.5 2.5
vt 2.5 -1.5
vt -1.5 -1.5
vt -1.5 2.5
vt 2.5 2.5
vt 2.5 -1.5
vt -1.5 -1.5
vn -0.2381274 0.9192967 -0.3133512
vn -0.2381274 0.9192967 -0.3133512
vn -0.2381274 0.9192967 -0.3133512
vn -0.2381274 0.9192967 -0.3133512
vn -0.2381274 0.9192967 -0.3133512
vn -0.2381274 0.9192967 -0.3133512
vn -0.2381274 0.9192967 -0.3133512
vn -0.2381274 0.9192967 -0.3133512
vn -0.2381274 0.9192967 -0.3133512
vn -0.2381274 0.9192967 -0.3133512
vn -0.2381274 0.9192967 -0.3133512
vn -0.2381274 0.9192967 -0.3133512
vn -0.2381274 0.9192967 -0.3133512
vn -0.2381274 0.9192967 -0.3133512
vn -0.2381274 0.9192967 -0.3133512
vn -0.2381274 0.9192967 -0.3133512
vn 0.2399492 -0.9193212 0.3118859
vn 0.2399492 -0.9193212 0.3118859
vn 0.2399492 -0.9193212 0.3118859
vn 0.2399492 -0.9193212 0.3118859
vn 0.2399492 -0.9193212 0.3118859
vn 0.2399492 -0.9193212 0.3118859
vn 0.2399492 -0.9193212 0.3118859
vn 0.2399492 -0.9193212 0.3118859
vn 0.2399492 -0.9193212 0.3118859
vn 0.2399492 -0.9193212 0.3118859
vn 0.2399492 -0.9193212 0.3118859
vn 0.2399492 -0.9193212 0.3118859
vn 0.2399492 -0.9193212 0.3118859
vn 0.2399492 -0.9193212 0.3118859
vn 0.2399492 -0.9193212 0.3118859
vn 0.2399492 -0.9193212 0.3118859
g Combined_M_Cmn_ami01_Prefab_Mesh_0
f 3/3/3 2/2/2 1/1/1
f 4/4/4 1/1/1 2/2/2
f 7/7/7 6/6/6 5/5/5
f 8/8/8 5/5/5 6/6/6
f 11/11/11 10/10/10 9/9/9
f 12/12/12 9/9/9 10/10/10
f 15/15/15 14/14/14 13/13/13
f 16/16/16 13/13/13 14/14/14
f 19/19/19 18/18/18 17/17/17
f 17/17/17 20/20/20 19/19/19
f 23/23/23 22/22/22 21/21/21
f 21/21/21 24/24/24 23/23/23
f 27/27/27 26/26/26 25/25/25
f 25/25/25 28/28/28 27/27/27
f 31/31/31 30/30/30 29/29/29
f 29/29/29 32/32/32 31/31/31
