g ConnectingRod_Body_LOD2
v 3.865769 0.186295 3.903952
v 3.765845 0.2349563 3.829307
v 3.765845 0.2349563 0.3604269
v 3.865769 0.186295 0.2857909
v 3.865769 0.3300004 3.814697E-06
v 3.765845 0.4161901 3.814697E-06
v 3.865769 3.814697E-06 -0.3300011
v 3.765845 3.814697E-06 -0.4161904
v 3.865769 -0.3300011 3.814697E-06
v 3.765845 -0.4161904 3.814697E-06
v 3.865769 -0.1862955 0.2857909
v 3.765845 -0.2349567 0.3604269
v 3.765845 -0.2349567 3.829307
v 3.865769 -0.1862955 3.903952
v 3.865769 -0.3300011 4.189738
v 3.765845 -0.4161904 4.189738
v 3.765845 0.4161901 4.189738
v 3.865769 0.3300004 4.189738
v 3.765845 3.814697E-06 4.605925
v 3.865769 3.814697E-06 4.519735
v 3.765845 -0.2349567 3.829307
v 3.765845 -0.2349567 0.3604269
v 3.765845 0.2349563 0.3604269
v 3.765845 0.2349563 3.829307
v 3.765845 -0.4161904 3.814697E-06
v 3.765845 0.4161901 3.814697E-06
v 3.765845 3.814697E-06 -0.4161904
v 3.765845 0.4161901 4.189738
v 3.765845 -0.4161904 4.189738
v 3.765845 3.814697E-06 4.605925
v 3.865769 0.186295 0.2857909
v 3.865769 -0.1862955 0.2857909
v 3.865769 -0.1862955 3.903952
v 3.865769 0.186295 3.903952
v 3.865769 0.3300004 3.814697E-06
v 3.865769 -0.3300011 3.814697E-06
v 3.865769 3.814697E-06 -0.3300011
v 3.865769 -0.3300011 4.189738
v 3.865769 0.3300004 4.189738
v 3.865769 3.814697E-06 4.519735
v -3.865769 0.186295 3.903952
v -3.865769 0.186295 0.2857909
v -3.765853 0.2349563 0.3604269
v -3.765853 0.2349563 3.829307
v -3.765853 0.4161901 3.814697E-06
v -3.865769 0.3300004 3.814697E-06
v -3.765853 3.814697E-06 -0.4161904
v -3.865769 3.814697E-06 -0.3300011
v -3.865769 -0.3300011 3.814697E-06
v -3.765853 -0.4161904 3.814697E-06
v -3.765853 -0.2349567 0.3604269
v -3.865769 -0.1862955 0.2857909
v -3.765853 -0.2349567 3.829307
v -3.865769 -0.1862955 3.903952
v -3.865769 0.3300004 4.189738
v -3.765853 0.4161901 4.189738
v -3.765853 3.814697E-06 4.605925
v -3.865769 3.814697E-06 4.519735
v -3.765853 -0.4161904 4.189738
v -3.865769 -0.3300011 4.189738
v -3.765853 -0.2349567 3.829307
v -3.765853 0.2349563 3.829307
v -3.765853 0.2349563 0.3604269
v -3.765853 -0.2349567 0.3604269
v -3.765853 0.4161901 3.814697E-06
v -3.765853 -0.4161904 3.814697E-06
v -3.765853 3.814697E-06 -0.4161904
v -3.765853 -0.4161904 4.189738
v -3.765853 0.4161901 4.189738
v -3.765853 3.814697E-06 4.605925
v -3.865769 0.186295 0.2857909
v -3.865769 0.186295 3.903952
v -3.865769 -0.1862955 3.903952
v -3.865769 -0.1862955 0.2857909
v -3.865769 -0.3300011 3.814697E-06
v -3.865769 0.3300004 3.814697E-06
v -3.865769 3.814697E-06 -0.3300011
v -3.865769 0.3300004 4.189738
v -3.865769 -0.3300011 4.189738
v -3.865769 3.814697E-06 4.519735
vt 0.7937531 0.6525726
vt 0.7942755 0.6529128
vt 0.8184841 0.6529128
vt 0.8190064 0.6525726
vt 0.8210019 0.6535743
vt 0.8210019 0.6541771
vt 0.8233028 0.6512708
vt 0.8239055 0.6512708
vt 0.8210019 0.6489699
vt 0.8210019 0.6483673
vt 0.8190064 0.6499717
vt 0.8184841 0.6496316
vt 0.7942755 0.6496316
vt 0.7937531 0.6499717
vt 0.7917576 0.6489699
vt 0.7917576 0.6483673
vt 0.7917576 0.6541771
vt 0.7917576 0.6535743
vt 0.7888541 0.6512708
vt 0.7894567 0.6512708
vt 0.81846 0.6633376
vt 0.7942995 0.6633376
vt 0.7942995 0.6666108
vt 0.81846 0.6666108
vt 0.7917871 0.6620761
vt 0.7917871 0.6678751
vt 0.7888889 0.6649742
vt 0.8209724 0.6678751
vt 0.8209724 0.6620761
vt 0.8238707 0.6649742
vt 0.8190064 0.6525726
vt 0.8190064 0.6499717
vt 0.7937531 0.6499717
vt 0.7937531 0.6525726
vt 0.8210019 0.6535743
vt 0.8210019 0.6489699
vt 0.8233028 0.6512708
vt 0.7917576 0.6489699
vt 0.7917576 0.6535743
vt 0.7894567 0.6512708
vt 0.7937531 0.6594404
vt 0.8190064 0.6594404
vt 0.8184841 0.6597779
vt 0.7942755 0.6597779
vt 0.8210019 0.6610448
vt 0.8210019 0.6604422
vt 0.8239055 0.6581386
vt 0.8233028 0.6581386
vt 0.8210019 0.655835
vt 0.8210019 0.6552351
vt 0.8184841 0.6564993
vt 0.8190064 0.6568395
vt 0.7942755 0.6564993
vt 0.7937531 0.6568395
vt 0.7917576 0.6604422
vt 0.7917576 0.6610448
vt 0.7888541 0.6581386
vt 0.7894567 0.6581386
vt 0.7917576 0.6552351
vt 0.7917576 0.655835
vt 0.81846 0.6732027
vt 0.81846 0.6699296
vt 0.7942995 0.6699296
vt 0.7942995 0.6732027
vt 0.7917871 0.6686653
vt 0.7917871 0.6744643
vt 0.7888889 0.6715661
vt 0.8209724 0.6744643
vt 0.8209724 0.6686653
vt 0.8238707 0.6715661
vt 0.8190064 0.6594404
vt 0.7937531 0.6594404
vt 0.7937531 0.6568395
vt 0.8190064 0.6568395
vt 0.8210019 0.655835
vt 0.8210019 0.6604422
vt 0.8233028 0.6581386
vt 0.7917576 0.6604422
vt 0.7917576 0.655835
vt 0.7894567 0.6581386
vn 0.4760506 0.8768324 -0.06738546
vn 0.4506352 0.8924727 -0.020502
vn 0.4506352 0.8924727 0.020502
vn 0.4760506 0.8768324 0.06738546
vn 0.6324533 0.734115 -0.2471398
vn 0.6422284 0.7438902 -0.1848515
vn 0.6539586 0.0009775162 -0.7565297
vn 0.6539586 0.0009775162 -0.7565297
vn 0.6324533 -0.734115 -0.2471398
vn 0.6422284 -0.7438902 -0.1848515
vn 0.4760506 -0.8768324 0.06738458
vn 0.4506352 -0.8924727 0.02050491
vn 0.4506352 -0.8924727 -0.02050491
vn 0.4760506 -0.8768324 -0.06738458
vn 0.6324533 -0.734115 0.2471398
vn 0.6422284 -0.7438902 0.1848515
vn 0.6422284 0.7438902 0.1848515
vn 0.6324533 0.734115 0.2471398
vn 0.6539586 0.0009775162 0.7565297
vn 0.6539586 0.0009775162 0.7565297
vn -0.9999995 0.0009775162 0
vn -0.9999995 0.0009775162 0
vn -0.9999995 0.0009775162 0
vn -0.9999995 0.0009775162 0
vn -0.9999995 0.0009775162 0
vn -0.9999995 0.0009775162 0
vn -0.9999995 0.0009775162 0
vn -0.9999995 0.0009775162 0
vn -0.9999995 0.0009775162 0
vn -0.9999995 0.0009775162 0
vn 0.9999995 0.0009775162 0
vn 0.9999995 0.0009775162 0
vn 0.9999995 0.0009775162 0
vn 0.9999995 0.0009775162 0
vn 0.9999995 0.0009775162 0
vn 0.9999995 0.0009775162 0
vn 0.9999995 0.0009775162 0
vn 0.9999995 0.0009775162 0
vn 0.9999995 0.0009775162 0
vn 0.9999995 0.0009775162 0
vn -0.4760506 0.8768324 -0.06738546
vn -0.4760506 0.8768324 0.06738546
vn -0.4506352 0.8924727 0.020502
vn -0.4506352 0.8924727 -0.020502
vn -0.6422285 0.7438902 -0.1848512
vn -0.6324533 0.734115 -0.2471395
vn -0.6539587 0.0009775162 -0.7565296
vn -0.6539587 0.0009775162 -0.7565296
vn -0.6324533 -0.734115 -0.2471395
vn -0.6422285 -0.7438902 -0.1848512
vn -0.4506352 -0.8924727 0.02050491
vn -0.4760506 -0.8768324 0.06738458
vn -0.4506352 -0.8924727 -0.02050491
vn -0.4760506 -0.8768324 -0.06738458
vn -0.6324533 0.734115 0.2471395
vn -0.6422285 0.7438902 0.1848512
vn -0.6539587 0.0009775162 0.7565296
vn -0.6539587 0.0009775162 0.7565296
vn -0.6422285 -0.7438902 0.1848512
vn -0.6324533 -0.734115 0.2471395
vn 0.9999995 0.0009775162 0
vn 0.9999995 0.0009775162 0
vn 0.9999995 0.0009775162 0
vn 0.9999995 0.0009775162 0
vn 0.9999995 0.0009775162 0
vn 0.9999995 0.0009775162 0
vn 0.9999995 0.0009775162 0
vn 0.9999995 0.0009775162 0
vn 0.9999995 0.0009775162 0
vn 0.9999995 0.0009775162 0
vn -0.9999995 0.0009775162 0
vn -0.9999995 0.0009775162 0
vn -0.9999995 0.0009775162 0
vn -0.9999995 0.0009775162 0
vn -0.9999995 0.0009775162 0
vn -0.9999995 0.0009775162 0
vn -0.9999995 0.0009775162 0
vn -0.9999995 0.0009775162 0
vn -0.9999995 0.0009775162 0
vn -0.9999995 0.0009775162 0
g ConnectingRod_Body_LOD2_0
f 3/3/3 2/2/2 1/1/1
f 4/4/4 3/3/3 1/1/1
f 4/4/4 5/5/5 3/3/3
f 5/5/5 6/6/6 3/3/3
f 5/5/5 7/7/7 6/6/6
f 7/7/7 8/8/8 6/6/6
f 7/7/7 9/9/9 8/8/8
f 9/9/9 10/10/10 8/8/8
f 9/9/9 11/11/11 10/10/10
f 11/11/11 12/12/12 10/10/10
f 13/13/13 12/12/12 11/11/11
f 14/14/14 13/13/13 11/11/11
f 14/14/14 15/15/15 13/13/13
f 15/15/15 16/16/16 13/13/13
f 1/1/1 2/2/2 17/17/17
f 18/18/18 1/1/1 17/17/17
f 18/18/18 17/17/17 19/19/19
f 20/20/20 18/18/18 19/19/19
f 20/20/20 19/19/19 16/16/16
f 15/15/15 20/20/20 16/16/16
f 23/23/23 22/22/22 21/21/21
f 24/24/24 23/23/23 21/21/21
f 22/22/22 23/23/23 25/25/25
f 23/23/23 26/26/26 25/25/25
f 25/25/25 26/26/26 27/27/27
f 28/28/28 24/24/24 21/21/21
f 29/29/29 28/28/28 21/21/21
f 30/30/30 28/28/28 29/29/29
f 33/33/33 32/32/32 31/31/31
f 34/34/34 33/33/33 31/31/31
f 35/35/35 31/31/31 32/32/32
f 36/36/36 35/35/35 32/32/32
f 37/37/37 35/35/35 36/36/36
f 33/33/33 34/34/34 38/38/38
f 34/34/34 39/39/39 38/38/38
f 38/38/38 39/39/39 40/40/40
f 43/43/43 42/42/42 41/41/41
f 44/44/44 43/43/43 41/41/41
f 42/42/42 43/43/43 45/45/45
f 46/46/46 42/42/42 45/45/45
f 46/46/46 45/45/45 47/47/47
f 48/48/48 46/46/46 47/47/47
f 49/49/49 48/48/48 47/47/47
f 50/50/50 49/49/49 47/47/47
f 49/49/49 50/50/50 51/51/51
f 52/52/52 49/49/49 51/51/51
f 51/51/51 53/53/53 52/52/52
f 53/53/53 54/54/54 52/52/52
f 41/41/41 55/55/55 44/44/44
f 55/55/55 56/56/56 44/44/44
f 56/56/56 55/55/55 57/57/57
f 55/55/55 58/58/58 57/57/57
f 57/57/57 58/58/58 59/59/59
f 54/54/54 53/53/53 59/59/59
f 58/58/58 60/60/60 59/59/59
f 60/60/60 54/54/54 59/59/59
f 63/63/63 62/62/62 61/61/61
f 64/64/64 63/63/63 61/61/61
f 65/65/65 63/63/63 64/64/64
f 66/66/66 65/65/65 64/64/64
f 67/67/67 65/65/65 66/66/66
f 61/61/61 62/62/62 68/68/68
f 62/62/62 69/69/69 68/68/68
f 69/69/69 70/70/70 68/68/68
f 73/73/73 72/72/72 71/71/71
f 74/74/74 73/73/73 71/71/71
f 74/74/74 71/71/71 75/75/75
f 71/71/71 76/76/76 75/75/75
f 75/75/75 76/76/76 77/77/77
f 78/78/78 72/72/72 73/73/73
f 79/79/79 78/78/78 73/73/73
f 80/80/80 78/78/78 79/79/79
