g ConnectingRod02_Body_LOD1
v -6.195624 0.005286306 0.01978475
v -6.195624 0.005286306 -0.2674236
v -6.071331 0.005286306 -0.3300097
v -6.071331 0.3379599 -0.08831051
v -6.195624 0.1741044 0.2521425
v -6.071331 0.2108869 0.3027709
v -6.195624 0.005286306 -0.2674236
v -6.195624 -0.2270714 -0.1490333
v -6.071331 -0.2777061 -0.1858221
v -6.071331 0.005286306 -0.3300097
v -6.195624 -0.2270714 -0.1490333
v -6.195624 -0.2819221 0.01978475
v -6.071331 -0.3445081 0.01978475
v -6.071331 -0.2777061 -0.1858221
v -6.071331 -0.2003205 0.3027709
v -6.195624 -0.1635317 0.2521425
v -6.195624 -0.2270714 -0.1490333
v -6.195624 0.005286306 -0.2674236
v -6.195624 0.005286306 0.01978475
v -6.195624 -0.2819221 0.01978475
v -6.195624 -0.1635317 0.2521425
v -6.195624 0.1741044 0.2521425
v -6.195624 0.1740416 2.471991
v -6.195624 -0.1634753 2.471991
v -6.195624 0.005286306 2.704355
v -6.195624 0.2923881 2.704355
v -6.195624 0.2375562 2.87311
v -6.195624 0.09400219 2.97741
v -6.195624 -0.08343586 2.97741
v -6.195624 -0.2818217 2.704355
v -6.071331 0.3379599 -0.08831051
v -6.071331 0.005286306 -0.3300097
v -6.071331 0.005286306 0.01978475
v -6.071331 -0.2777061 -0.1858221
v -6.071331 -0.3445081 0.01978475
v -6.071331 -0.2003205 0.3027709
v -6.071331 0.2108869 0.3027709
v -6.071331 -0.2003205 2.438697
v -6.071331 0.2108869 2.438697
v -6.071331 0.005286306 2.721789
v -6.071331 0.3550745 2.721789
v -6.071331 0.2882725 2.927396
v -6.071331 0.1133753 3.054463
v -6.071331 -0.1028089 3.054463
v -6.071331 -0.3445081 2.721789
v -6.071331 -0.2003205 0.3027709
v -6.195624 -0.1635317 0.2521425
v -6.195624 -0.1634753 2.471991
v -6.071331 -0.2003205 2.438697
v -6.195624 0.1741044 0.2521425
v -6.071331 0.2108869 0.3027709
v -6.071331 0.2108869 2.438697
v -6.195624 0.1740416 2.471991
v -6.195624 -0.2818217 2.704355
v -6.195624 -0.08343586 2.97741
v -6.071331 -0.1028089 3.054463
v -6.071331 -0.3445081 2.721789
v -6.195624 -0.1634753 2.471991
v -6.071331 -0.2003205 2.438697
v -6.195624 -0.08343586 2.97741
v -6.195624 0.09400219 2.97741
v -6.071331 0.1133753 3.054463
v -6.071331 -0.1028089 3.054463
v -6.195624 0.09400219 2.97741
v -6.195624 0.2375562 2.87311
v -6.071331 0.2882725 2.927396
v -6.071331 0.1133753 3.054463
v -6.071331 0.3550745 2.721789
v -6.195624 0.2923881 2.704355
v -6.071331 0.2108869 2.438697
v -6.195624 0.1740416 2.471991
v -6.2339 -2.384186E-06 -2.384186E-06
v -6.192481 0.1338839 -2.384186E-06
v -6.192481 0.0946672 0.0946672
v -6.192481 0.1338839 2.697498
v -6.192481 -2.384186E-06 2.831378
v -6.2339 -2.384186E-06 2.697498
v -0.03827325 0.005286306 0.01978475
v -0.1625671 0.3379599 -0.08831051
v -0.1625671 0.005286306 -0.3300097
v -0.03827325 0.005286306 -0.2674236
v -0.03827325 0.1741044 0.2521425
v -0.1625671 0.2108869 0.3027709
v -0.03827325 0.005286306 -0.2674236
v -0.1625671 0.005286306 -0.3300097
v -0.1625671 -0.2777061 -0.1858221
v -0.03827325 -0.2270714 -0.1490333
v -0.03827325 -0.2270714 -0.1490333
v -0.1625671 -0.2777061 -0.1858221
v -0.1625671 -0.3445081 0.01978475
v -0.03827325 -0.2819221 0.01978475
v -0.1625671 -0.2003205 0.3027709
v -0.03827325 -0.1635317 0.2521425
v -0.03827325 -0.2270714 -0.1490333
v -0.03827325 0.005286306 0.01978475
v -0.03827325 0.005286306 -0.2674236
v -0.03827325 -0.2819221 0.01978475
v -0.03827325 -0.1635317 0.2521425
v -0.03827325 0.1741044 0.2521425
v -0.03827325 0.1740416 2.471991
v -0.03827325 -0.1634753 2.471991
v -0.03827325 0.005286306 2.704355
v -0.03827325 0.2923881 2.704355
v -0.03827325 0.2375562 2.87311
v -0.03827325 0.09400219 2.97741
v -0.03827325 -0.08343586 2.97741
v -0.03827325 -0.2269899 2.87311
v -0.03827325 -0.2818217 2.704355
v -0.1625671 0.3379599 -0.08831051
v -0.1625671 0.005286306 0.01978475
v -0.1625671 0.005286306 -0.3300097
v -0.1625671 -0.2777061 -0.1858221
v -0.1625671 -0.3445081 0.01978475
v -0.1625671 -0.2003205 0.3027709
v -0.1625671 0.2108869 0.3027709
v -0.1625671 -0.2003205 2.438697
v -0.1625671 0.2108869 2.438697
v -0.1625671 0.005286306 2.721789
v -0.1625671 0.3550745 2.721789
v -0.1625671 0.2882725 2.927396
v -0.1625671 0.1133753 3.054463
v -0.1625671 -0.1028089 3.054463
v -0.1625671 -0.2777061 2.927396
v -0.1625671 -0.3445081 2.721789
v -0.1625671 -0.2003205 0.3027709
v -0.1625671 -0.2003205 2.438697
v -0.03827325 -0.1634753 2.471991
v -0.03827325 -0.1635317 0.2521425
v -0.03827325 0.1741044 0.2521425
v -0.03827325 0.1740416 2.471991
v -0.1625671 0.2108869 2.438697
v -0.1625671 0.2108869 0.3027709
v -0.03827325 -0.2269899 2.87311
v -0.1625671 -0.2777061 2.927396
v -0.1625671 -0.1028089 3.054463
v -0.03827325 -0.08343586 2.97741
v -0.03827325 -0.2818217 2.704355
v -0.1625671 -0.3445081 2.721789
v -0.03827325 -0.1634753 2.471991
v -0.1625671 -0.2003205 2.438697
v -0.03827325 -0.08343586 2.97741
v -0.1625671 -0.1028089 3.054463
v -0.1625671 0.1133753 3.054463
v -0.03827325 0.09400219 2.97741
v -0.03827325 0.09400219 2.97741
v -0.1625671 0.1133753 3.054463
v -0.1625671 0.2882725 2.927396
v -0.03827325 0.2375562 2.87311
v -0.1625671 0.3550745 2.721789
v -0.03827325 0.2923881 2.704355
v -0.1625671 0.2108869 2.438697
v -0.03827325 0.1740416 2.471991
v 2.384186E-06 -2.384186E-06 -2.384186E-06
v -0.04141635 0.0946672 0.0946672
v -0.04141635 0.1338839 -2.384186E-06
v -0.04141635 0.1338839 2.697498
v 2.384186E-06 -2.384186E-06 2.697498
v -0.04141635 -2.384186E-06 2.831378
vt 0.07173495 0.9564654
vt 0.07173495 0.9577995
vt 0.07019459 0.9582671
vt 0.07019459 0.9566442
vt 0.07173495 0.9534947
vt 0.07019459 0.9530271
vt 0.1976044 0.9277487
vt 0.1976044 0.9261946
vt 0.1991447 0.9258507
vt 0.1991447 0.9277487
vt 0.07306901 0.9572081
vt 0.07306901 0.955654
vt 0.07460938 0.955654
vt 0.07460938 0.957552
vt 0.07460938 0.9530271
vt 0.07306901 0.9534947
vt 0.08914652 0.9272949
vt 0.09129202 0.9261946
vt 0.09129202 0.928849
vt 0.08863765 0.928849
vt 0.08972415 0.9310082
vt 0.09284614 0.9310082
vt 0.09284614 0.9518031
vt 0.08972415 0.9518031
vt 0.09129202 0.9544575
vt 0.0939464 0.9545537
vt 0.09343752 0.9561079
vt 0.09211722 0.9570706
vt 0.09046683 0.9570706
vt 0.08863765 0.9545537
vt 0.05711529 0.891564
vt 0.06018225 0.889336
vt 0.06018225 0.892568
vt 0.06280912 0.8906701
vt 0.06342801 0.892568
vt 0.06209395 0.8951811
vt 0.05828431 0.8951811
vt 0.06209395 0.915082
vt 0.05828431 0.915082
vt 0.06018225 0.918314
vt 0.05695025 0.918424
vt 0.05756914 0.920322
vt 0.05919202 0.9215047
vt 0.06118624 0.9215047
vt 0.06342801 0.918424
vt 0.07460938 0.9530271
vt 0.07306901 0.9534947
vt 0.07306901 0.9324386
vt 0.07460938 0.9329062
vt 0.07173495 0.9534947
vt 0.07019459 0.9530271
vt 0.07019459 0.9329062
vt 0.07173495 0.9324386
vt 0.07306901 0.9299492
vt 0.07282145 0.9274186
vt 0.07432055 0.9267172
vt 0.07460938 0.9297842
vt 0.07306901 0.9324386
vt 0.07460938 0.9329062
vt 0.2022667 0.926676
vt 0.2022667 0.9288214
vt 0.2006713 0.9289452
vt 0.2006713 0.9265522
vt 0.07198251 0.9274186
vt 0.07180372 0.9282988
vt 0.07023586 0.9278312
vt 0.07048341 0.9267172
vt 0.07019459 0.9297842
vt 0.07173495 0.9299492
vt 0.07019459 0.9329062
vt 0.07173495 0.9324386
vt 0.8208863 0.8242558
vt 0.8208863 0.8582537
vt 0.7968456 0.8482964
vt 0.77821 0.8582537
vt 0.7441983 0.8242558
vt 0.77821 0.8242558
vt 0.07173495 0.9564654
vt 0.07019459 0.9566442
vt 0.07019459 0.9582671
vt 0.07173495 0.9577995
vt 0.07173495 0.9534947
vt 0.07019459 0.9530271
vt 0.1976044 0.9277487
vt 0.1991447 0.9277487
vt 0.1991447 0.9258507
vt 0.1976044 0.9261946
vt 0.07306901 0.9572081
vt 0.07460938 0.957552
vt 0.07460938 0.955654
vt 0.07306901 0.955654
vt 0.07460938 0.9530271
vt 0.07306901 0.9534947
vt 0.08914652 0.9272949
vt 0.09129202 0.928849
vt 0.09129202 0.9261946
vt 0.08863765 0.928849
vt 0.08972415 0.9310082
vt 0.09284614 0.9310082
vt 0.09284614 0.9518031
vt 0.08972415 0.9518031
vt 0.09129202 0.9544575
vt 0.0939464 0.9545537
vt 0.09343752 0.9561079
vt 0.09211722 0.9570706
vt 0.09046683 0.9570706
vt 0.08914652 0.9561079
vt 0.08863765 0.9545537
vt 0.05711529 0.891564
vt 0.06018225 0.892568
vt 0.06018225 0.889336
vt 0.06280912 0.8906701
vt 0.06342801 0.892568
vt 0.06209395 0.8951811
vt 0.05828431 0.8951811
vt 0.06209395 0.915082
vt 0.05828431 0.915082
vt 0.06018225 0.918314
vt 0.05695025 0.918424
vt 0.05756914 0.920322
vt 0.05919202 0.9215047
vt 0.06118624 0.9215047
vt 0.06280912 0.920322
vt 0.06342801 0.918424
vt 0.07460938 0.9530271
vt 0.07460938 0.9329062
vt 0.07306901 0.9324386
vt 0.07306901 0.9534947
vt 0.07173495 0.9534947
vt 0.07173495 0.9324386
vt 0.07019459 0.9329062
vt 0.07019459 0.9530271
vt 0.07300025 0.9282988
vt 0.07456812 0.9278312
vt 0.07432055 0.9267172
vt 0.07282145 0.9274186
vt 0.07306901 0.9299492
vt 0.07460938 0.9297842
vt 0.07306901 0.9324386
vt 0.07460938 0.9329062
vt 0.2022667 0.926676
vt 0.2006713 0.9265522
vt 0.2006713 0.9289452
vt 0.2022667 0.9288214
vt 0.07198251 0.9274186
vt 0.07048341 0.9267172
vt 0.07023586 0.9278312
vt 0.07180372 0.9282988
vt 0.07019459 0.9297842
vt 0.07173495 0.9299492
vt 0.07019459 0.9329062
vt 0.07173495 0.9324386
vt 0.8208863 0.8242558
vt 0.7968456 0.8482964
vt 0.8208863 0.8582537
vt 0.77821 0.8582537
vt 0.77821 0.8242558
vt 0.7441983 0.8242558
vn -0.4506352 0.8494619 0.2744857
vn -0.4506352 -0.2766372 -0.8487637
vn -0.4506352 -0.2766372 -0.8487637
vn -0.4506352 0.8494619 0.2744857
vn -0.4506352 0.7223848 0.5244884
vn -0.4506352 0.7223848 0.5244884
vn -0.4506352 -0.2766372 -0.8487637
vn -0.4506352 -0.849462 -0.2744855
vn -0.4506352 -0.849462 -0.2744855
vn -0.4506352 -0.2766372 -0.8487637
vn -0.4506352 -0.849462 -0.2744855
vn -0.4506352 -0.849462 0.2744855
vn -0.4506352 -0.849462 0.2744855
vn -0.4506352 -0.849462 -0.2744855
vn -0.4506352 -0.7223848 0.5244884
vn -0.4506352 -0.7223848 0.5244884
vn -0.9999995 0.0009775162 0
vn -0.9999995 0.0009775162 0
vn -0.9999995 0.0009775162 0
vn -0.9999995 0.0009775162 0
vn -0.9999995 0.0009775162 0
vn -0.9999995 0.0009775162 0
vn -0.9999995 0.0009775162 0
vn -0.9999995 0.0009775162 0
vn -0.9999995 0.0009775162 0
vn -0.9999995 0.0009775162 0
vn -0.9999995 0.0009775162 0
vn -0.9999995 0.0009775162 0
vn -0.9999995 0.0009775162 0
vn -0.9999995 0.0009775162 0
vn 0.9999995 0.0009775162 0
vn 0.9999995 0.0009775162 0
vn 0.9999995 0.0009775162 0
vn 0.9999995 0.0009775162 0
vn 0.9999995 0.0009775162 0
vn 0.9999995 0.0009775162 0
vn 0.9999995 0.0009775162 0
vn 0.9999995 0.0009775162 0
vn 0.9999995 0.0009775162 0
vn 0.9999995 0.0009775162 0
vn 0.9999995 0.0009775162 0
vn 0.9999995 0.0009775162 0
vn 0.9999995 0.0009775162 0
vn 0.9999995 0.0009775162 0
vn 0.9999995 0.0009775162 0
vn -0.2843878 -0.9587093 0
vn -0.2843878 -0.9587093 0
vn -0.2843878 -0.9587093 0
vn -0.2843878 -0.9587093 0
vn -0.2843878 0.9587093 0
vn -0.2843878 0.9587093 0
vn -0.2843878 0.9587093 0
vn -0.2843878 0.9587093 0
vn -0.4173996 -0.8611922 -0.2900441
vn -0.5425217 0.0009775162 0.8400412
vn -0.5425217 0.0009775162 0.8400412
vn -0.4193547 -0.8651022 -0.2752085
vn -0.3880742 -0.7419351 -0.5467455
vn -0.3900292 -0.7497553 -0.5345505
vn -0.5425217 0.0009775162 0.8400412
vn -0.5249264 0.5034211 0.6863086
vn -0.5268815 0.4956009 0.6904894
vn -0.5425217 0.0009775162 0.8400412
vn -0.5249264 0.5034211 0.6863086
vn -0.4799607 0.8377317 0.2604675
vn -0.4819157 0.8318666 0.2752366
vn -0.5268815 0.4956009 0.6904894
vn -0.4193547 0.8651022 -0.2752088
vn -0.4173996 0.8611921 -0.2900443
vn -0.3900292 0.7497553 -0.5345505
vn -0.3880742 0.7419351 -0.5467455
vn -0.9999995 0.0009775162 0
vn -0.9550338 0.2961875 -0.01354348
vn -0.9550338 0.2082111 0.2110891
vn -0.9550338 0.2082111 0.2110891
vn -0.9550338 -0.0009775162 0.2964954
vn -0.9999995 0.0009775162 0
vn 0.4506352 0.8494619 0.2744857
vn 0.4506352 0.8494619 0.2744857
vn 0.4506352 -0.2766372 -0.8487637
vn 0.4506352 -0.2766372 -0.8487637
vn 0.4506352 0.7223848 0.5244884
vn 0.4506352 0.7223848 0.5244884
vn 0.4506352 -0.2766372 -0.8487637
vn 0.4506352 -0.2766372 -0.8487637
vn 0.4506352 -0.849462 -0.2744855
vn 0.4506352 -0.849462 -0.2744855
vn 0.4506352 -0.849462 -0.2744855
vn 0.4506352 -0.849462 -0.2744855
vn 0.4506352 -0.849462 0.2744855
vn 0.4506352 -0.849462 0.2744855
vn 0.4506352 -0.7223848 0.5244884
vn 0.4506352 -0.7223848 0.5244884
vn 0.9999995 0.0009775162 0
vn 0.9999995 0.0009775162 0
vn 0.9999995 0.0009775162 0
vn 0.9999995 0.0009775162 0
vn 0.9999995 0.0009775162 0
vn 0.9999995 0.0009775162 0
vn 0.9999995 0.0009775162 0
vn 0.9999995 0.0009775162 0
vn 0.9999995 0.0009775162 0
vn 0.9999995 0.0009775162 0
vn 0.9999995 0.0009775162 0
vn 0.9999995 0.0009775162 0
vn 0.9999995 0.0009775162 0
vn 0.9999995 0.0009775162 0
vn 0.9999995 0.0009775162 0
vn -0.9999995 0.0009775162 0
vn -0.9999995 0.0009775162 0
vn -0.9999995 0.0009775162 0
vn -0.9999995 0.0009775162 0
vn -0.9999995 0.0009775162 0
vn -0.9999995 0.0009775162 0
vn -0.9999995 0.0009775162 0
vn -0.9999995 0.0009775162 0
vn -0.9999995 0.0009775162 0
vn -0.9999995 0.0009775162 0
vn -0.9999995 0.0009775162 0
vn -0.9999995 0.0009775162 0
vn -0.9999995 0.0009775162 0
vn -0.9999995 0.0009775162 0
vn -0.9999995 0.0009775162 0
vn -0.9999995 0.0009775162 0
vn 0.2843878 -0.9587093 0
vn 0.2843878 -0.9587093 0
vn 0.2843878 -0.9587093 0
vn 0.2843878 -0.9587093 0
vn 0.2843878 0.9587093 0
vn 0.2843878 0.9587093 0
vn 0.2843878 0.9587093 0
vn 0.2843878 0.9587093 0
vn 0.4799607 -0.8377318 0.2604674
vn 0.4819157 -0.8318667 0.2752364
vn 0.5425217 0.0009775162 0.8400412
vn 0.5425217 0.0009775162 0.8400412
vn 0.4486802 -0.8924727 -0.04667621
vn 0.4506352 -0.8924727 0.02050491
vn 0.3880741 -0.7419351 -0.5467456
vn 0.3900291 -0.7497553 -0.5345505
vn 0.5425217 0.0009775162 0.8400412
vn 0.5425217 0.0009775162 0.8400412
vn 0.5268815 0.4956009 0.6904894
vn 0.5249264 0.5034211 0.6863086
vn 0.5249264 0.5034211 0.6863086
vn 0.5268815 0.4956009 0.6904894
vn 0.4819157 0.8318666 0.2752366
vn 0.4799607 0.8377317 0.2604675
vn 0.4193546 0.8651022 -0.275209
vn 0.4173996 0.8611921 -0.2900444
vn 0.3900291 0.7497553 -0.5345505
vn 0.3880741 0.7419351 -0.5467456
vn 0.9999995 0.0009775162 0
vn 0.9550338 0.2082111 0.2110891
vn 0.9550338 0.2961875 -0.01354348
vn 0.9550338 0.2082111 0.2110891
vn 0.9999995 0.0009775162 0
vn 0.9550338 -0.0009775162 0.2964954
g ConnectingRod02_Body_LOD1_0
f 3/3/3 2/2/2 1/1/1
f 4/4/4 3/3/3 1/1/1
f 4/4/4 1/1/1 5/5/5
f 6/6/6 4/4/4 5/5/5
f 9/9/9 8/8/8 7/7/7
f 10/10/10 9/9/9 7/7/7
f 13/13/13 12/12/12 11/11/11
f 14/14/14 13/13/13 11/11/11
f 13/13/13 15/15/15 12/12/12
f 15/15/15 16/16/16 12/12/12
f 19/19/19 18/18/18 17/17/17
f 19/19/19 17/17/17 20/20/20
f 19/19/19 20/20/20 21/21/21
f 19/19/19 21/21/21 22/22/22
f 22/22/22 21/21/21 23/23/23
f 21/21/21 24/24/24 23/23/23
f 24/24/24 25/25/25 23/23/23
f 25/25/25 26/26/26 23/23/23
f 25/25/25 27/27/27 26/26/26
f 25/25/25 28/28/28 27/27/27
f 25/25/25 29/29/29 28/28/28
f 25/25/25 30/30/30 29/29/29
f 25/25/25 24/24/24 30/30/30
f 33/33/33 32/32/32 31/31/31
f 33/33/33 34/34/34 32/32/32
f 33/33/33 35/35/35 34/34/34
f 33/33/33 36/36/36 35/35/35
f 37/37/37 36/36/36 33/33/33
f 33/33/33 31/31/31 37/37/37
f 36/36/36 37/37/37 38/38/38
f 37/37/37 39/39/39 38/38/38
f 38/38/38 39/39/39 40/40/40
f 40/40/40 39/39/39 41/41/41
f 40/40/40 41/41/41 42/42/42
f 40/40/40 42/42/42 43/43/43
f 40/40/40 43/43/43 44/44/44
f 40/40/40 44/44/44 45/45/45
f 40/40/40 45/45/45 38/38/38
f 48/48/48 47/47/47 46/46/46
f 49/49/49 48/48/48 46/46/46
f 52/52/52 51/51/51 50/50/50
f 53/53/53 52/52/52 50/50/50
f 56/56/56 55/55/55 54/54/54
f 57/57/57 56/56/56 54/54/54
f 57/57/57 54/54/54 58/58/58
f 59/59/59 57/57/57 58/58/58
f 62/62/62 61/61/61 60/60/60
f 63/63/63 62/62/62 60/60/60
f 66/66/66 65/65/65 64/64/64
f 67/67/67 66/66/66 64/64/64
f 66/66/66 68/68/68 65/65/65
f 68/68/68 69/69/69 65/65/65
f 68/68/68 70/70/70 69/69/69
f 70/70/70 71/71/71 69/69/69
f 74/74/74 73/73/73 72/72/72
f 77/77/77 76/76/76 75/75/75
f 80/80/80 79/79/79 78/78/78
f 81/81/81 80/80/80 78/78/78
f 78/78/78 79/79/79 82/82/82
f 79/79/79 83/83/83 82/82/82
f 86/86/86 85/85/85 84/84/84
f 87/87/87 86/86/86 84/84/84
f 90/90/90 89/89/89 88/88/88
f 91/91/91 90/90/90 88/88/88
f 92/92/92 90/90/90 91/91/91
f 93/93/93 92/92/92 91/91/91
f 96/96/96 95/95/95 94/94/94
f 94/94/94 95/95/95 97/97/97
f 97/97/97 95/95/95 98/98/98
f 98/98/98 95/95/95 99/99/99
f 98/98/98 99/99/99 100/100/100
f 101/101/101 98/98/98 100/100/100
f 102/102/102 101/101/101 100/100/100
f 103/103/103 102/102/102 100/100/100
f 104/104/104 102/102/102 103/103/103
f 105/105/105 102/102/102 104/104/104
f 106/106/106 102/102/102 105/105/105
f 107/107/107 102/102/102 106/106/106
f 101/101/101 102/102/102 108/108/108
f 108/108/108 102/102/102 107/107/107
f 111/111/111 110/110/110 109/109/109
f 112/112/112 110/110/110 111/111/111
f 113/113/113 110/110/110 112/112/112
f 114/114/114 110/110/110 113/113/113
f 114/114/114 115/115/115 110/110/110
f 109/109/109 110/110/110 115/115/115
f 115/115/115 114/114/114 116/116/116
f 117/117/117 115/115/115 116/116/116
f 117/117/117 116/116/116 118/118/118
f 117/117/117 118/118/118 119/119/119
f 119/119/119 118/118/118 120/120/120
f 120/120/120 118/118/118 121/121/121
f 121/121/121 118/118/118 122/122/122
f 122/122/122 118/118/118 123/123/123
f 124/124/124 118/118/118 116/116/116
f 123/123/123 118/118/118 124/124/124
f 127/127/127 126/126/126 125/125/125
f 128/128/128 127/127/127 125/125/125
f 131/131/131 130/130/130 129/129/129
f 132/132/132 131/131/131 129/129/129
f 135/135/135 134/134/134 133/133/133
f 136/136/136 135/135/135 133/133/133
f 133/133/133 134/134/134 137/137/137
f 134/134/134 138/138/138 137/137/137
f 137/137/137 138/138/138 139/139/139
f 138/138/138 140/140/140 139/139/139
f 143/143/143 142/142/142 141/141/141
f 144/144/144 143/143/143 141/141/141
f 147/147/147 146/146/146 145/145/145
f 148/148/148 147/147/147 145/145/145
f 149/149/149 147/147/147 148/148/148
f 150/150/150 149/149/149 148/148/148
f 151/151/151 149/149/149 150/150/150
f 152/152/152 151/151/151 150/150/150
f 155/155/155 154/154/154 153/153/153
f 158/158/158 157/157/157 156/156/156
