g CrackStone
v 3.472265 0.2181763 -3.822461
v 2.974756 0.1118286 -4.159448
v 3.97821 0.1118286 -4.187549
v 4.573535 0.1118164 -3.629345
v 4.790527 -1.220703E-05 -3.746826
v 4.739306 0.1118286 -2.77102
v 4.977417 0 -2.788428
v 4.721185 0.1118286 -1.59624
v 1.498144 0.9843994 -0.9816894
v 4.999945 0.1727295 -0.9833496
v 5.577826 0.1118164 -1.067334
v 5.182556 0.1118286 -0.2984863
v 4.960815 0 -1.724609
v 4.067663 0 -4.428051
v 3.020447 0 -4.397754
v 2.172803 0 -4.785986
v 2.006091 0.1118286 -4.602148
v 0.7944458 0.5858154 -1.907055
v 1.453076 0.1118164 -5.555688
v 1.606653 -1.220703E-05 -5.764355
v 0.6772217 -1.220703E-05 -5.981079
v 0.6412109 0.1118164 -5.729834
v -0.2563721 0.1118164 -5.566089
v -0.6013672 0.460791 -2.241406
v -1.086059 0.1118164 -5.625244
v -1.909912 0.1118286 -4.808008
v -0.2318237 0 -5.802221
v -1.179993 -1.220703E-05 -5.869897
v -1.990344 0 -5.06709
v -2.959253 0 -5.265771
v -2.806567 0.1118164 -4.991138
v -3.375134 0.1118286 -4.4635
v -1.746924 0.995288 -1.471167
v -3.589807 0 -4.585254
v -3.931653 0 -3.619653
v -3.715564 0.1118286 -3.497046
v -4.415613 0.1118286 -2.74397
v -4.562243 0 -2.93916
v -5.481518 0 -2.543603
v -5.291821 0.1118286 -2.364502
v -4.945251 0.1699341 -2.286938
v -5.851769 -1.220703E-05 -1.660083
v -5.59862 0.1118164 -1.634033
v -2.383569 0.991394 -0.2588623
v -5.450683 0.1118286 -0.6719482
v -5.206323 0.1118286 0.2870605
v -5.714648 0 -0.7075439
v -5.469311 0 0.259668
v -5.947753 0 1.128491
v -5.685546 0.1118286 1.155786
v -5.145361 0.2217285 0.9671875
v -5.701086 0 2.065185
v -5.46394 0.1118164 1.991797
v -2.211621 0.552185 0.9845703
v -5.086169 0.1118164 2.707593
v -5.267883 0 2.885449
v -4.343322 0 3.398413
v -4.116138 0.1118286 3.243652
v -4.215246 0 4.409326
v -3.985644 0.1118286 4.284497
v -3.85487 0.1482544 4.014429
v -3.480444 0 5.041723
v -3.325049 0.1118164 4.845434
v -1.027283 0.5436035 1.942578
v -2.593603 0.1118164 5.185571
v -2.635083 0 5.434668
v -1.546716 0 5.301294
v -1.459863 0.1118286 5.045459
v -0.7340087 0.2290039 5.022851
v -0.7997924 0.1118286 5.654443
v -0.07832031 0.1118286 5.005054
v -0.8338134 0 5.981079
v -0.02802734 0 5.280517
v 0.232373 0.5452636 2.089062
v 0.9479858 0.1118286 5.354565
v 1.968799 0.1118164 5.588183
v 1.008923 0 5.632617
v 2.015826 -1.220703E-05 5.847754
v 2.851654 -1.220703E-05 5.284106
v 2.734418 0.1118164 5.072485
v 3.43703 0.1118164 4.599145
v 1.290405 0.9552734 1.380273
v 3.657135 -1.220703E-05 4.743066
v 3.79624 0 3.611157
v 3.570141 0.1118286 3.49707
v 4.311053 0.1118286 2.719922
v 4.443066 0 2.929443
v 5.438867 -1.220703E-05 2.557275
v 5.276153 0.1118164 2.357226
v 4.639935 0.09128417 2.189013
v 5.691583 0.1118164 1.644995
v 5.94776 -1.220703E-05 1.679736
v 5.663079 -1.220703E-05 0.704248
v 5.410998 0.1118164 0.6730713
v 1.842322 0.5178955 0.2322021
v 5.434186 0 -0.2644287
v 5.887195 -1.220703E-05 -1.148828
v -0.06779785 0.04182129 -0.009057617
v 1.738647 0.4821777 0.1289062
v 1.678259 0.4837402 0.2116943
v 1.717004 0.4799438 0.3065918
v 4.639935 0.09128417 2.189013
v 1.842322 0.5178955 0.2322021
v 4.999945 0.1727295 -0.9833496
v 1.443164 0.923059 -0.8489257
v 1.361804 0.9327514 -0.8975341
v 1.357251 0.9217041 -0.9927734
v 1.498144 0.9843994 -0.9816894
v 3.472265 0.2181763 -3.822461
v 0.8214843 0.5653808 -1.762256
v 0.720166 0.5460449 -1.766284
v 0.6703247 0.5234374 -1.851977
v 0.7944458 0.5858154 -1.907055
v 0.6412109 0.1118164 -5.729834
v -0.4887207 0.4346802 -2.137598
v -0.566394 0.4363647 -2.06853
v -0.6633667 0.4273559 -2.102148
v -0.6013672 0.460791 -2.241406
v -2.806567 0.1118164 -4.991138
v -1.59956 0.9416748 -1.454443
v -1.619946 0.9542724 -1.36167
v -1.708948 0.9416869 -1.327905
v -1.746924 0.995288 -1.471167
v -4.945251 0.1699341 -2.286938
v -2.271826 0.9463745 -0.336914
v -2.239258 0.9604126 -0.2452637
v -2.286206 0.9496825 -0.1605713
v -2.383569 0.991394 -0.2588623
v -5.145361 0.2217285 0.9671875
v -2.160498 0.5327026 0.8566406
v -2.082934 0.5218261 0.9227294
v -2.085193 0.5120971 1.026392
v -2.211621 0.552185 0.9845703
v -3.85487 0.1482544 4.014429
v -1.069775 0.4931884 1.814966
v -0.9695556 0.508435 1.803906
v -0.9002075 0.5233032 1.880884
v -1.027283 0.5436035 1.942578
v -0.7340087 0.2290039 5.022851
v 0.1239136 0.5109497 2.012744
v 0.2072632 0.5097534 1.956274
v 0.3090332 0.5156982 1.979639
v 0.232373 0.5452636 2.089062
v 2.734418 0.1118164 5.072485
v 1.150879 0.8992553 1.358203
v 1.181103 0.9108276 1.267651
v 1.290405 0.9552734 1.380273
v 1.272449 0.8990722 1.239746
vt -12.36264 18.02349
vt -12.34891 18.00234
vt -12.38786 18.01728
vt -12.40221 18.04756
vt -12.41241 18.04636
vt -12.39529 18.08275
vt -12.40494 18.08557
vt -12.37618 18.12756
vt -12.24187 18.10113
vt -12.37725 18.15559
vt -12.4016 18.16191
vt -12.3739 18.18595
vt -12.38772 18.12631
vt -12.39515 18.00954
vt -12.35459 17.99369
vt -12.32719 17.965
vt -12.31773 17.96987
vt -12.22994 18.05811
vt -12.31003 17.92389
vt -12.31916 17.91778
vt -12.28579 17.8958
vt -12.28062 17.90502
vt -12.24356 17.89747
vt -12.17968 18.02055
vt -12.21242 17.88233
vt -12.16793 17.90137
vt -12.24816 17.88869
vt -12.21261 17.87133
vt -12.16876 17.89003
vt -12.13412 17.86789
vt -12.13583 17.88073
vt -12.10631 17.8923
vt -12.12425 18.03342
vt -12.09997 17.88401
vt -12.07214 17.91572
vt -12.07869 17.92409
vt -12.04053 17.94259
vt -12.03754 17.93261
vt -11.99626 17.93435
vt -12.00111 17.94407
vt -12.01363 17.95231
vt -11.96861 17.96231
vt -11.97821 17.96727
vt -12.08461 18.07032
vt -11.9697 18.00653
vt -11.96518 18.04731
vt -11.95975 18.00095
vt -11.95503 18.04217
vt -11.92309 18.06897
vt -11.93317 18.07389
vt -11.9575 18.07437
vt -11.91881 18.10928
vt -11.92927 18.1099
vt -12.07253 18.11835
vt -11.93344 18.14348
vt -11.92363 18.14773
vt -11.95239 18.18147
vt -11.9638 18.17876
vt -11.94222 18.22274
vt -11.95322 18.22136
vt -11.96247 18.21288
vt -11.96028 18.25854
vt -11.96944 18.25341
vt -12.1044 18.17808
vt -11.99195 18.27811
vt -11.98634 18.28704
vt -12.03029 18.29916
vt -12.03777 18.2906
vt -12.06623 18.30091
vt -12.05373 18.32445
vt -12.09161 18.3106
vt -12.04723 18.33677
vt -12.0893 18.3221
vt -12.14799 18.20258
vt -12.12558 18.33989
vt -12.16116 18.36458
vt -12.12367 18.35158
vt -12.15897 18.37536
vt -12.19969 18.36628
vt -12.19845 18.35636
vt -12.23228 18.34924
vt -12.19751 18.19163
vt -12.23855 18.35839
vt -12.26079 18.31693
vt -12.2537 18.30886
vt -12.29344 18.29017
vt -12.2956 18.30037
vt -12.33968 18.30129
vt -12.33626 18.29104
vt -12.31366 18.27473
vt -12.36336 18.27004
vt -12.37282 18.27538
vt -12.37645 18.23293
vt -12.36737 18.22767
vt -12.2349 18.15396
vt -12.38334 18.19159
vt -12.41526 18.16376
vt -12.65431 18.34311
vt -12.72531 18.38198
vt -12.72246 18.38347
vt -12.72272 18.38678
vt -12.7963 18.50285
vt -12.72793 18.38659
vt -12.85647 18.38937
vt -12.73557 18.33241
vt -12.73411 18.33055
vt -12.735 18.32883
vt -12.73956 18.32988
vt -12.84098 18.25384
vt -12.7198 18.28854
vt -12.71686 18.28765
vt -12.71626 18.28409
vt -12.72153 18.28371
vt -12.76281 18.13611
vt -12.66835 18.25005
vt -12.66499 18.25137
vt -12.66257 18.24893
vt -12.66621 18.24466
vt -12.62027 18.11311
vt -12.60735 18.2567
vt -12.6061 18.25885
vt -12.60394 18.25857
vt -12.60331 18.25367
vt -12.49671 18.18735
vt -12.56321 18.29572
vt -12.56335 18.29827
vt -12.56138 18.29972
vt -12.55873 18.2961
vt -12.44107 18.30902
vt -12.55474 18.34649
vt -12.55669 18.34912
vt -12.55519 18.35264
vt -12.55102 18.34967
vt -12.44484 18.44361
vt -12.58546 18.40445
vt -12.58901 18.40528
vt -12.58988 18.40867
vt -12.58482 18.4097
vt -12.54871 18.53133
vt -12.62986 18.43005
vt -12.6331 18.42898
vt -12.63567 18.43133
vt -12.63188 18.43429
vt -12.6764 18.58612
vt -12.68458 18.42559
vt -12.68552 18.42399
vt -12.68794 18.42893
vt -12.68795 18.42433
vn 0.07946096 0.9770782 -0.197495
vn 0.02683668 0.9729701 -0.2293666
vn 0.1186895 0.9467504 -0.2992933
vn 0.2180358 0.9674499 -0.1284562
vn 0.3612854 0.911469 -0.1967158
vn 0.2739467 0.9613804 -0.02647821
vn 0.4235356 0.9052857 -0.03279363
vn 0.254541 0.9636506 -0.08115688
vn 0.2139518 0.9732487 -0.08373545
vn 0.1574474 0.9861395 -0.05233632
vn 0.2648683 0.9602631 -0.08797472
vn 0.1546367 0.9879166 0.01040895
vn 0.3376512 0.9244038 -0.1773956
vn 0.13172 0.91621 -0.3784298
vn 0.08240071 0.9084803 -0.4097239
vn 0.2815728 0.9117467 -0.2990562
vn 0.1400783 0.9801763 -0.1401161
vn 0.06700303 0.9877072 -0.1412275
vn 0.1082577 0.9810027 -0.1609779
vn 0.246887 0.919897 -0.3046905
vn 0.0127668 0.9096565 -0.4151651
vn 0.005571707 0.9846779 -0.1742937
vn -0.009202375 0.9893125 -0.1455199
vn -0.03112157 0.9938601 -0.1061771
vn -0.06412063 0.9849768 -0.1603409
vn -0.04638991 0.9888419 -0.1415615
vn -0.03047673 0.9046131 -0.4251428
vn -0.1588591 0.9197032 -0.3590401
vn -0.1261989 0.9244252 -0.3598775
vn -0.1245858 0.9331439 -0.3372253
vn -0.09861854 0.9672322 -0.2339579
vn -0.2449735 0.954137 -0.1720773
vn -0.2281621 0.9546967 -0.1910396
vn -0.33786 0.9195784 -0.2005645
vn -0.3526717 0.9113341 -0.2123508
vn -0.2804751 0.9464158 -0.1600963
vn -0.198461 0.9424196 -0.269181
vn -0.2385294 0.9097041 -0.3399147
vn -0.2766969 0.9185618 -0.2822823
vn -0.2419415 0.9398286 -0.2412192
vn -0.1920036 0.9652685 -0.177176
vn -0.3964652 0.9170806 -0.04217235
vn -0.2755164 0.9601038 -0.04786959
vn -0.2702098 0.962617 -0.01884643
vn -0.3012509 0.9516889 0.05946369
vn -0.3095876 0.9507293 -0.01640994
vn -0.4010026 0.9128625 0.07667431
vn -0.3868936 0.9207036 -0.05116763
vn -0.3864706 0.9208555 -0.05162949
vn -0.3195379 0.9469235 -0.0350903
vn -0.1844597 0.9828401 0.0003118714
vn -0.3850547 0.9111701 0.1466352
vn -0.1677766 0.9824637 0.08133937
vn -0.1116596 0.9902553 0.08322618
vn -0.133679 0.981972 0.1336444
vn -0.2777191 0.9156501 0.2906146
vn -0.3105313 0.9258557 0.2153175
vn -0.1496574 0.98379 0.09879202
vn -0.3481757 0.920362 0.1780658
vn -0.2966697 0.9419032 0.1574976
vn -0.1083454 0.9914779 0.0723374
vn -0.2266378 0.9114464 0.3433669
vn -0.08895168 0.9861066 0.1402898
vn -0.05161707 0.9920143 0.1150793
vn -0.02651952 0.9838923 0.1767839
vn -0.04926429 0.9144458 0.4016988
vn -0.1023413 0.9255349 0.3645701
vn -0.05120603 0.9856878 0.1606164
vn -0.0105171 0.989262 0.1457747
vn 0.01050458 0.9572424 0.2890963
vn 0.04298144 0.9831617 0.1776107
vn -0.01769932 0.9465638 0.3220305
vn 0.06826872 0.9262459 0.3706858
vn 0.01801738 0.9912765 0.1305616
vn -0.05060401 0.9819736 0.1821177
vn 0.03685323 0.9855016 0.165615
vn -0.1045217 0.912052 0.3965304
vn 0.06445172 0.9228384 0.3797566
vn 0.2347406 0.9073954 0.3486123
vn 0.1091791 0.9807161 0.1620981
vn 0.2145458 0.9653755 0.1483925
vn 0.2077359 0.9686815 0.1360223
vn 0.3415358 0.9201359 0.191581
vn 0.3710341 0.9138632 0.1648869
vn 0.2706285 0.9562298 0.1112877
vn 0.2035402 0.9640055 0.1710694
vn 0.225643 0.9120353 0.3424572
vn 0.2490494 0.9168113 0.31214
vn 0.1489589 0.9709567 0.1872279
vn 0.08669887 0.9897457 0.1135191
vn 0.1550874 0.9868063 0.04649017
vn 0.3952414 0.9176201 0.04192198
vn 0.4134841 0.9036938 -0.1112137
vn 0.1566566 0.9867851 -0.04139976
vn 0.1000879 0.9944071 0.03371961
vn 0.4009856 0.9150917 0.04263498
vn 0.3128912 0.9443229 -0.1017521
vn 0.04267502 0.9988945 0.01971628
vn -0.1348578 0.7889156 -0.599521
vn -0.2413623 0.9702842 -0.01711542
vn -0.2782783 0.7650844 0.5806953
vn 0.2256697 0.8385561 -0.4958798
vn -0.05700094 0.9983087 0.01143973
vn 0.08718804 0.8302579 0.550518
vn 0.1436237 0.5672618 0.810917
vn -0.3997167 0.8876976 0.2285159
vn -0.6646448 0.44749 -0.598331
vn -0.08080667 0.9966036 0.01586023
vn -0.3562916 0.8867 -0.2946512
vn 0.4345745 0.785673 0.4402987
vn -0.3339882 0.9352458 0.1173334
vn -0.6536367 0.7533032 -0.07275478
vn -0.1731334 0.9848984 -0.0003941365
vn -0.02567293 0.9996413 0.007624992
vn 0.4544924 0.8882531 0.06665718
vn -0.005613047 0.9822472 0.1875073
vn -0.4979198 0.8193455 0.2841633
vn -0.01727641 0.998742 0.04707434
vn 0.5067172 0.8189369 -0.269407
vn 0.6934471 0.6151446 -0.3751377
vn 0.30184 0.917235 0.2599475
vn -0.3479257 0.5329964 0.7712734
vn 0.03728232 0.9989214 0.02767983
vn 0.04880496 0.9972425 -0.05590761
vn 0.3427043 0.6206661 -0.7052144
vn 0.382001 0.9240904 0.01149064
vn 0.1707089 0.5898508 0.789262
vn 0.004520652 0.9999295 -0.01097331
vn 0.1290726 0.8367217 0.5322002
vn -0.09520701 0.7674019 -0.6340585
vn 0.2369694 0.9714405 0.01220281
vn 0.3605431 0.8773122 0.3167522
vn 0.06753978 0.9969993 0.03782769
vn 0.08768807 0.9944742 0.05772037
vn -0.4302715 0.7964966 -0.4248052
vn -0.06544101 0.958119 -0.2787927
vn 0.5488239 0.834916 0.04132321
vn -0.07774323 0.9915538 -0.1038122
vn 0.07162784 0.9971184 -0.02499003
vn -0.6190711 0.7775694 -0.1101671
vn -0.06613008 0.9725125 -0.2232627
vn 0.4839343 0.82965 -0.2783673
vn 0.008921678 0.9988838 -0.04638425
vn -0.3698347 0.908545 0.1943406
vn -0.775678 0.4688071 0.4225442
vn -0.2993225 0.9027713 -0.3088852
vn -0.08071553 0.9966814 0.01054946
vn 0.3408634 0.5833389 -0.7372434
g CrackStone_0
f 3/3/3 2/2/2 1/1/1
f 3/3/3 1/1/1 4/4/4
f 3/3/3 4/4/4 5/5/5
f 5/5/5 4/4/4 6/6/6
f 7/7/7 5/5/5 6/6/6
f 7/7/7 6/6/6 8/8/8
f 8/8/8 6/6/6 9/9/9
f 6/6/6 4/4/4 9/9/9
f 9/9/9 4/4/4 1/1/1
f 8/8/8 9/9/9 10/10/10
f 8/8/8 10/10/10 11/11/11
f 11/11/11 10/10/10 12/12/12
f 13/13/13 7/7/7 8/8/8
f 14/14/14 3/3/3 5/5/5
f 15/15/15 2/2/2 3/3/3
f 14/14/14 15/15/15 3/3/3
f 15/15/15 16/16/16 2/2/2
f 16/16/16 17/17/17 2/2/2
f 2/2/2 17/17/17 18/18/18
f 19/19/19 18/18/18 17/17/17
f 2/2/2 18/18/18 1/1/1
f 17/17/17 16/16/16 20/20/20
f 19/19/19 17/17/17 20/20/20
f 19/19/19 20/20/20 21/21/21
f 22/22/22 19/19/19 21/21/21
f 19/19/19 22/22/22 18/18/18
f 23/23/23 22/22/22 21/21/21
f 23/23/23 24/24/24 22/22/22
f 25/25/25 24/24/24 23/23/23
f 26/26/26 24/24/24 25/25/25
f 27/27/27 23/23/23 21/21/21
f 23/23/23 27/27/27 28/28/28
f 25/25/25 23/23/23 28/28/28
f 25/25/25 28/28/28 29/29/29
f 26/26/26 25/25/25 29/29/29
f 26/26/26 29/29/29 30/30/30
f 31/31/31 26/26/26 30/30/30
f 26/26/26 31/31/31 24/24/24
f 32/32/32 31/31/31 30/30/30
f 32/32/32 33/33/33 31/31/31
f 34/34/34 32/32/32 30/30/30
f 34/34/34 35/35/35 32/32/32
f 35/35/35 36/36/36 32/32/32
f 32/32/32 36/36/36 33/33/33
f 37/37/37 33/33/33 36/36/36
f 36/36/36 35/35/35 38/38/38
f 37/37/37 36/36/36 38/38/38
f 37/37/37 38/38/38 39/39/39
f 40/40/40 37/37/37 39/39/39
f 40/40/40 41/41/41 37/37/37
f 33/33/33 37/37/37 41/41/41
f 39/39/39 42/42/42 40/40/40
f 42/42/42 43/43/43 40/40/40
f 40/40/40 43/43/43 41/41/41
f 43/43/43 44/44/44 41/41/41
f 45/45/45 44/44/44 43/43/43
f 45/45/45 43/43/43 42/42/42
f 45/45/45 46/46/46 44/44/44
f 47/47/47 45/45/45 42/42/42
f 48/48/48 46/46/46 45/45/45
f 47/47/47 48/48/48 45/45/45
f 48/48/48 49/49/49 46/46/46
f 49/49/49 50/50/50 46/46/46
f 46/46/46 50/50/50 51/51/51
f 46/46/46 51/51/51 44/44/44
f 49/49/49 52/52/52 50/50/50
f 52/52/52 53/53/53 50/50/50
f 50/50/50 53/53/53 51/51/51
f 53/53/53 54/54/54 51/51/51
f 55/55/55 54/54/54 53/53/53
f 53/53/53 52/52/52 56/56/56
f 55/55/55 53/53/53 56/56/56
f 56/56/56 57/57/57 55/55/55
f 57/57/57 58/58/58 55/55/55
f 55/55/55 58/58/58 54/54/54
f 57/57/57 59/59/59 58/58/58
f 59/59/59 60/60/60 58/58/58
f 58/58/58 60/60/60 61/61/61
f 58/58/58 61/61/61 54/54/54
f 59/59/59 62/62/62 60/60/60
f 62/62/62 63/63/63 60/60/60
f 60/60/60 63/63/63 61/61/61
f 63/63/63 64/64/64 61/61/61
f 65/65/65 64/64/64 63/63/63
f 63/63/63 62/62/62 66/66/66
f 65/65/65 63/63/63 66/66/66
f 66/66/66 67/67/67 65/65/65
f 67/67/67 68/68/68 65/65/65
f 65/65/65 68/68/68 64/64/64
f 68/68/68 69/69/69 64/64/64
f 70/70/70 69/69/69 68/68/68
f 70/70/70 68/68/68 67/67/67
f 70/70/70 71/71/71 69/69/69
f 72/72/72 70/70/70 67/67/67
f 73/73/73 71/71/71 70/70/70
f 72/72/72 73/73/73 70/70/70
f 69/69/69 71/71/71 74/74/74
f 75/75/75 74/74/74 71/71/71
f 75/75/75 71/71/71 73/73/73
f 76/76/76 74/74/74 75/75/75
f 77/77/77 75/75/75 73/73/73
f 75/75/75 77/77/77 78/78/78
f 76/76/76 75/75/75 78/78/78
f 76/76/76 78/78/78 79/79/79
f 80/80/80 76/76/76 79/79/79
f 76/76/76 80/80/80 74/74/74
f 81/81/81 80/80/80 79/79/79
f 81/81/81 82/82/82 80/80/80
f 83/83/83 81/81/81 79/79/79
f 83/83/83 84/84/84 81/81/81
f 84/84/84 85/85/85 81/81/81
f 81/81/81 85/85/85 82/82/82
f 86/86/86 82/82/82 85/85/85
f 85/85/85 84/84/84 87/87/87
f 86/86/86 85/85/85 87/87/87
f 87/87/87 88/88/88 86/86/86
f 88/88/88 89/89/89 86/86/86
f 86/86/86 89/89/89 90/90/90
f 82/82/82 86/86/86 90/90/90
f 91/91/91 90/90/90 89/89/89
f 89/89/89 88/88/88 92/92/92
f 91/91/91 89/89/89 92/92/92
f 92/92/92 93/93/93 91/91/91
f 93/93/93 94/94/94 91/91/91
f 91/91/91 94/94/94 95/95/95
f 91/91/91 95/95/95 90/90/90
f 94/94/94 12/12/12 95/95/95
f 96/96/96 12/12/12 94/94/94
f 93/93/93 96/96/96 94/94/94
f 11/11/11 12/12/12 96/96/96
f 97/97/97 11/11/11 96/96/96
f 8/8/8 11/11/11 97/97/97
f 13/13/13 8/8/8 97/97/97
f 95/95/95 12/12/12 10/10/10
f 100/100/100 99/99/99 98/98/98
f 101/101/101 100/100/100 98/98/98
f 98/98/98 102/102/102 101/101/101
f 103/103/103 101/101/101 102/102/102
f 99/99/99 100/100/100 103/103/103
f 101/101/101 103/103/103 100/100/100
f 99/99/99 103/103/103 104/104/104
f 98/98/98 99/99/99 104/104/104
f 98/98/98 104/104/104 105/105/105
f 105/105/105 106/106/106 98/98/98
f 106/106/106 107/107/107 98/98/98
f 108/108/108 105/105/105 104/104/104
f 107/107/107 106/106/106 108/108/108
f 105/105/105 108/108/108 106/106/106
f 107/107/107 108/108/108 109/109/109
f 98/98/98 107/107/107 109/109/109
f 98/98/98 109/109/109 110/110/110
f 110/110/110 111/111/111 98/98/98
f 111/111/111 112/112/112 98/98/98
f 113/113/113 110/110/110 109/109/109
f 112/112/112 111/111/111 113/113/113
f 110/110/110 113/113/113 111/111/111
f 112/112/112 113/113/113 114/114/114
f 98/98/98 112/112/112 114/114/114
f 98/98/98 114/114/114 115/115/115
f 115/115/115 116/116/116 98/98/98
f 116/116/116 117/117/117 98/98/98
f 118/118/118 115/115/115 114/114/114
f 117/117/117 116/116/116 118/118/118
f 115/115/115 118/118/118 116/116/116
f 117/117/117 118/118/118 119/119/119
f 98/98/98 117/117/117 119/119/119
f 98/98/98 119/119/119 120/120/120
f 120/120/120 121/121/121 98/98/98
f 121/121/121 122/122/122 98/98/98
f 123/123/123 120/120/120 119/119/119
f 122/122/122 121/121/121 123/123/123
f 120/120/120 123/123/123 121/121/121
f 122/122/122 123/123/123 124/124/124
f 98/98/98 122/122/122 124/124/124
f 98/98/98 124/124/124 125/125/125
f 125/125/125 126/126/126 98/98/98
f 126/126/126 127/127/127 98/98/98
f 128/128/128 125/125/125 124/124/124
f 127/127/127 126/126/126 128/128/128
f 125/125/125 128/128/128 126/126/126
f 127/127/127 128/128/128 129/129/129
f 98/98/98 127/127/127 129/129/129
f 98/98/98 129/129/129 130/130/130
f 130/130/130 131/131/131 98/98/98
f 131/131/131 132/132/132 98/98/98
f 133/133/133 130/130/130 129/129/129
f 132/132/132 131/131/131 133/133/133
f 130/130/130 133/133/133 131/131/131
f 132/132/132 133/133/133 134/134/134
f 98/98/98 132/132/132 134/134/134
f 98/98/98 134/134/134 135/135/135
f 135/135/135 136/136/136 98/98/98
f 136/136/136 137/137/137 98/98/98
f 138/138/138 135/135/135 134/134/134
f 137/137/137 136/136/136 138/138/138
f 135/135/135 138/138/138 136/136/136
f 137/137/137 138/138/138 139/139/139
f 98/98/98 137/137/137 139/139/139
f 98/98/98 139/139/139 140/140/140
f 140/140/140 141/141/141 98/98/98
f 141/141/141 142/142/142 98/98/98
f 143/143/143 140/140/140 139/139/139
f 142/142/142 141/141/141 143/143/143
f 140/140/140 143/143/143 141/141/141
f 142/142/142 143/143/143 144/144/144
f 98/98/98 142/142/142 144/144/144
f 98/98/98 144/144/144 145/145/145
f 145/145/145 146/146/146 98/98/98
f 147/147/147 145/145/145 144/144/144
f 145/145/145 147/147/147 146/146/146
f 148/148/148 146/146/146 147/147/147
f 146/146/146 148/148/148 98/98/98
f 148/148/148 147/147/147 102/102/102
f 98/98/98 148/148/148 102/102/102
