g CrashBox_L
v -0.1893041 -0.5910513 -0.04611051
v -0.1893041 -0.5910513 0.04611063
v -0.09170753 -0.6755254 0.04611063
v -0.09170753 -0.6755254 -0.04611051
v 0.03142899 -0.695019 0.04611063
v 0.03142899 -0.695019 -0.04611051
v 0.1071631 -0.6206782 0.04611063
v 0.1071631 -0.6206782 -0.04611051
v 0.1893041 -0.5910513 0.04611063
v 0.1893041 -0.5910513 -0.04611051
v -0.09465176 0.6950191 0.04611063
v -0.0525254 0.5420185 0.04611063
v -0.1893041 0.5420185 0.04611063
v -0.1893041 -0.5910513 0.04611063
v 0.1071631 -0.6206782 0.04611063
v -0.09170753 -0.6755254 0.04611063
v 0.03142899 -0.695019 0.04611063
v 0.1893041 0.5420185 0.04611063
v 0.1893041 -0.5910513 0.04611063
v 0.03778416 0.6134336 0.04611063
v -0.1893041 0.5420185 0.04611063
v -0.1893041 0.5420185 -0.04611051
v -0.09465176 0.6950191 -0.04611051
v -0.09465176 0.6950191 0.04611063
v -0.0525254 0.5420185 -0.04611051
v -0.0525254 0.5420185 0.04611063
v 0.03778416 0.6134336 -0.04611051
v 0.03778416 0.6134336 0.04611063
v 0.1893041 0.5420185 -0.04611051
v 0.1893041 0.5420185 0.04611063
v -0.09465176 0.6950191 -0.04611051
v -0.1893041 0.5420185 -0.04611051
v -0.0525254 0.5420185 -0.04611051
v -0.1893041 -0.5910513 -0.04611051
v 0.1071631 -0.6206782 -0.04611051
v -0.09170753 -0.6755254 -0.04611051
v 0.03142899 -0.695019 -0.04611051
v 0.1893041 0.5420185 -0.04611051
v 0.03778416 0.6134336 -0.04611051
v 0.1893041 -0.5910513 -0.04611051
v 0.1893041 -0.5910513 -0.04611051
v 0.1893041 -0.5910513 0.04611063
v 0.1893041 0.5420185 0.04611063
v 0.1893041 0.5420185 -0.04611051
v -0.1893041 0.5420185 -0.04611051
v -0.1893041 0.5420185 0.04611063
v -0.1893041 -0.5910513 0.04611063
v -0.1893041 -0.5910513 -0.04611051
vt 0.07812733 0.4296852
vt 0.07812733 0.3750021
vt 0.234382 0.3750021
vt 0.234382 0.4296852
vt 0.3671924 0.3750021
vt 0.3671924 0.4296852
vt 0.4952202 0.3750021
vt 0.4952202 0.4296852
vt 0.6015593 0.3750021
vt 0.6015593 0.4296852
vt 0.08964514 0.9918782
vt 0.1300407 0.8837379
vt 0 0.8837379
vt 0 0.0829403
vt 0.2831624 0.06200846
vt 0.0924754 0.0232475
vt 0.2105442 0.009459431
vt 0.3671924 0.8837379
vt 0.3671924 0.0829403
vt 0.2166286 0.9342135
vt 0.07812733 0.4687489
vt 0.07812733 0.523432
vt 0.2265572 0.523432
vt 0.2265572 0.4687489
vt 0.3671924 0.523432
vt 0.3671924 0.4687489
vt 0.4687489 0.523432
vt 0.4687489 0.4687489
vt 0.640623 0.523432
vt 0.640623 0.4687489
vt 0.4568376 0.9918782
vt 0.3671924 0.8837379
vt 0.4982472 0.8837379
vt 0.3671924 0.0829403
vt 0.655198 0.06200846
vt 0.4597435 0.0232475
vt 0.5807637 0.009459431
vt 0.7421945 0.8837379
vt 0.5870145 0.9342135
vt 0.7421945 0.0829403
vt 0.8675736 0.02519993
vt 0.8017057 0.02519993
vt 0.8017057 0.8255284
vt 0.8675736 0.8255284
vt 0.9100578 0.9780749
vt 0.9683279 0.9780749
vt 0.9683279 0.1777465
vt 0.9100578 0.1777465
vn -0.6539587 -0.7556204 -0.03709331
vn -0.6539587 -0.7556204 -0.03709331
vn -0.4252198 -0.9042029 -0.04006585
vn -0.4252198 -0.9042029 -0.04006585
vn 0.2647704 -0.9643115 0
vn 0.2647704 -0.9643115 0
vn 0.5499573 -0.8351928 0
vn 0.5499573 -0.8351928 0
vn 0.3389962 -0.9407877 0
vn 0.3389962 -0.9407877 0
vn -0.0009775162 0.0009775162 0.999999
vn -0.0009775162 0.0009775162 0.999999
vn -0.0009775162 0.0009775162 0.999999
vn -0.0009775162 0.0009775162 0.999999
vn -0.0009775162 0.0009775162 0.999999
vn -0.0009775162 0.0009775162 0.999999
vn -0.0009775162 0.0009775162 0.999999
vn -0.0009775162 0.0009775162 0.999999
vn -0.0009775162 0.0009775162 0.999999
vn -0.0009775162 0.0009775162 0.999999
vn -0.8494619 0.5268815 -0.02846778
vn -0.8494619 0.5268815 -0.02846778
vn -0.0009775162 0.9999995 0
vn -0.0009775162 0.9999995 0
vn 0.5248061 0.8512218 0
vn 0.5248061 0.8512218 0
vn -0.0009775162 0.9999995 0
vn -0.0009775162 0.9999995 0
vn 0.4271617 0.9041752 0
vn 0.4271617 0.9041752 0
vn -0.0009775162 0.0009775162 -0.999999
vn -0.0009775162 0.0009775162 -0.999999
vn -0.0009775162 0.0009775162 -0.999999
vn -0.0009775162 0.0009775162 -0.999999
vn -0.0009775162 0.0009775162 -0.999999
vn -0.0009775162 0.0009775162 -0.999999
vn -0.0009775162 0.0009775162 -0.999999
vn -0.0009775162 0.0009775162 -0.999999
vn -0.0009775162 0.0009775162 -0.999999
vn -0.0009775162 0.0009775162 -0.999999
vn 0.9999995 0.0009775162 0
vn 0.9999995 0.0009775162 0
vn 0.9999995 0.0009775162 0
vn 0.9999995 0.0009775162 0
vn -0.9999995 0.0009775162 0
vn -0.9999995 0.0009775162 0
vn -0.9999995 0.0009775162 0
vn -0.9999995 0.0009775162 0
g CrashBox_L_0
f 3/3/3 2/2/2 1/1/1
f 4/4/4 3/3/3 1/1/1
f 5/5/5 3/3/3 4/4/4
f 6/6/6 5/5/5 4/4/4
f 7/7/7 5/5/5 6/6/6
f 8/8/8 7/7/7 6/6/6
f 9/9/9 7/7/7 8/8/8
f 10/10/10 9/9/9 8/8/8
f 13/13/13 12/12/12 11/11/11
f 14/14/14 12/12/12 13/13/13
f 12/12/12 14/14/14 15/15/15
f 16/16/16 15/15/15 14/14/14
f 15/15/15 16/16/16 17/17/17
f 18/18/18 12/12/12 15/15/15
f 18/18/18 15/15/15 19/19/19
f 20/20/20 12/12/12 18/18/18
f 23/23/23 22/22/22 21/21/21
f 24/24/24 23/23/23 21/21/21
f 25/25/25 23/23/23 24/24/24
f 26/26/26 25/25/25 24/24/24
f 27/27/27 25/25/25 26/26/26
f 28/28/28 27/27/27 26/26/26
f 29/29/29 27/27/27 28/28/28
f 30/30/30 29/29/29 28/28/28
f 33/33/33 32/32/32 31/31/31
f 33/33/33 34/34/34 32/32/32
f 33/33/33 35/35/35 34/34/34
f 36/36/36 34/34/34 35/35/35
f 37/37/37 36/36/36 35/35/35
f 38/38/38 35/35/35 33/33/33
f 38/38/38 33/33/33 39/39/39
f 38/38/38 40/40/40 35/35/35
f 43/43/43 42/42/42 41/41/41
f 44/44/44 43/43/43 41/41/41
f 47/47/47 46/46/46 45/45/45
f 48/48/48 47/47/47 45/45/45
