g CrashBox_S
v 0.01563779 -0.3214737 -0.04611138
v 0.01563779 -0.3214737 0.0461114
v 0.06903082 -0.2918469 0.0461114
v 0.06903082 -0.2918469 -0.04611138
v 0.01563779 -0.3214737 0.0461114
v -0.06903085 0.1094824 0.0461114
v 0.06903082 0.2039617 0.0461114
v 0.06903082 -0.2918469 0.0461114
v -0.0392397 0.3214737 0.0461114
v -0.06903085 0.1094824 0.0461114
v -0.06903085 0.1094824 -0.04611138
v -0.0392397 0.3214737 -0.04611138
v -0.0392397 0.3214737 0.0461114
v -0.0392397 0.3214737 0.0461114
v -0.0392397 0.3214737 -0.04611138
v 0.06903082 0.2039617 -0.04611138
v 0.06903082 0.2039617 0.0461114
v -0.0392397 0.3214737 -0.04611138
v -0.06903085 0.1094824 -0.04611138
v 0.06903082 0.2039617 -0.04611138
v 0.01563779 -0.3214737 -0.04611138
v 0.06903082 -0.2918469 -0.04611138
v 0.06903082 -0.2918469 -0.04611138
v 0.06903082 -0.2918469 0.0461114
v 0.06903082 0.2039617 0.0461114
v 0.06903082 0.2039617 -0.04611138
v 0.01563779 -0.3214737 0.0461114
v 0.01563779 -0.3214737 -0.04611138
v -0.06903085 0.1094824 -0.04611138
v -0.06903085 0.1094824 0.0461114
vt 0.9245268 0.2488144
vt 0.9245268 0.1419629
vt 0.9863852 0.1419629
vt 0.9863852 0.2488144
vt 0.5389563 0.03538793
vt 0.4475294 0.5007442
vt 0.5966093 0.6027645
vt 0.5966093 0.06737208
vt 0.4796882 0.7296534
vt 0.9034417 0.7596004
vt 0.9871709 0.7596004
vt 0.9871709 0.9847699
vt 0.9034417 0.9847699
vt 0.03353989 0.05244226
vt 0.03353989 0.1260727
vt 0.1913652 0.1260727
vt 0.1913652 0.05244226
vt 0.8216188 0.9507923
vt 0.78946 0.7218829
vt 0.9385399 0.8239034
vt 0.8808869 0.2565267
vt 0.9385399 0.2885254
vt 0.9698983 0.3920883
vt 0.8846849 0.3920883
vt 0.8846849 0.9294452
vt 0.9698983 0.9294452
vt 0.9034417 0.30184
vt 0.9871709 0.30184
vt 0.9871709 0.7596004
vt 0.9034417 0.7596004
vn 0.4844692 -0.873549 -0.04692139
vn 0.4844692 -0.873549 -0.04692139
vn 0.4844692 -0.873549 -0.04692139
vn 0.4844692 -0.873549 -0.04692139
vn 6.484985E-05 -6.484985E-05 1
vn 6.484985E-05 -6.484985E-05 1
vn 6.484985E-05 -6.484985E-05 1
vn 6.484985E-05 -6.484985E-05 1
vn 6.484985E-05 -6.484985E-05 1
vn -0.9901433 0.1400039 -0.003892158
vn -0.9901433 0.1400039 -0.003892158
vn -0.564101 0.8247844 -0.0389976
vn -0.564101 0.8247844 -0.0389976
vn -0.564101 0.8247844 -0.0389976
vn -0.564101 0.8247844 -0.0389976
vn 0.7354257 0.6769341 -0.0301531
vn 0.7354257 0.6769341 -0.0301531
vn 6.484985E-05 -6.484985E-05 -1
vn 6.484985E-05 -6.484985E-05 -1
vn 6.484985E-05 -6.484985E-05 -1
vn 6.484985E-05 -6.484985E-05 -1
vn 6.484985E-05 -6.484985E-05 -1
vn 1 -6.484985E-05 0
vn 1 -6.484985E-05 0
vn 1 -6.484985E-05 0
vn 1 -6.484985E-05 0
vn -0.9804163 -0.1926593 -0.04082029
vn -0.9804163 -0.1926593 -0.04082029
vn -0.9804163 -0.1926593 -0.04082029
vn -0.9804163 -0.1926593 -0.04082029
g CrashBox_S_0
f 3/3/3 2/2/2 1/1/1
f 4/4/4 3/3/3 1/1/1
f 7/7/7 6/6/6 5/5/5
f 8/8/8 7/7/7 5/5/5
f 9/9/9 6/6/6 7/7/7
f 12/12/12 11/11/11 10/10/10
f 13/13/13 12/12/12 10/10/10
f 16/16/16 15/15/15 14/14/14
f 17/17/17 16/16/16 14/14/14
f 20/20/20 19/19/19 18/18/18
f 19/19/19 20/20/20 21/21/21
f 20/20/20 22/22/22 21/21/21
f 25/25/25 24/24/24 23/23/23
f 26/26/26 25/25/25 23/23/23
f 29/29/29 28/28/28 27/27/27
f 30/30/30 29/29/29 27/27/27
