g CrossBarUp
v 15.29999 -0.1945343 -0.3637276
v 17 -0.1945343 -0.3637276
v 17 0.2254658 -0.3637276
v 15.29999 0.2254658 -0.3637276
v 15.29999 -0.4045181 1.525879E-05
v 17 -0.4045181 1.525879E-05
v -15.29999 -0.4045181 1.525879E-05
v -15.29999 -0.1945343 -0.3637276
v -15.29999 0.2254658 -0.3637276
v -17 -0.4045181 1.525879E-05
v -17 -0.1945343 -0.3637276
v -17 0.2254658 -0.3637276
v 15.29999 -0.1945343 0.3637257
v 17 -0.1945343 0.3637257
v 17 -0.4045181 1.525879E-05
v 15.29999 -0.4045181 1.525879E-05
v 15.29999 0.2254658 0.3637257
v 17 0.2254658 0.3637257
v 15.29999 0.435482 1.525879E-05
v 17 0.435482 1.525879E-05
v -15.29999 0.2254658 0.3637257
v -15.29999 -0.1945343 0.3637257
v -15.29999 -0.4045181 1.525879E-05
v -15.29999 0.435482 1.525879E-05
v -17 0.2254658 0.3637257
v -17 -0.1945343 0.3637257
v -17 -0.4045181 1.525879E-05
v -17 0.435482 1.525879E-05
v 15.29999 0.2254658 -0.3637276
v 17 0.2254658 -0.3637276
v 17 0.435482 1.525879E-05
v 15.29999 0.435482 1.525879E-05
v -15.29999 0.2254658 -0.3637276
v -15.29999 0.435482 1.525879E-05
v -17 0.2254658 -0.3637276
v -17 0.435482 1.525879E-05
vt 0.720835 0.4143924
vt 0.720835 0.4102064
vt 0.7198009 0.4102064
vt 0.7198009 0.4143924
vt 0.7222221 0.4143924
vt 0.7222221 0.4102064
vt 0.7222221 0.4897985
vt 0.7213193 0.4897985
vt 0.7198009 0.4897985
vt 0.7222221 0.4939846
vt 0.7213193 0.4939846
vt 0.7198009 0.4939846
vt 0.7231168 0.4143924
vt 0.7231168 0.4102064
vt 0.7222221 0.4102064
vt 0.7222221 0.4143924
vt 0.7247748 0.4143924
vt 0.7247748 0.4102064
vt 0.7262933 0.4143924
vt 0.7262933 0.4102064
vt 0.7247748 0.4897985
vt 0.7237324 0.4897985
vt 0.7222221 0.4897985
vt 0.7262933 0.4897985
vt 0.7247748 0.4939846
vt 0.7237324 0.4939846
vt 0.7222221 0.4939846
vt 0.7262933 0.4939846
vt 0.7271879 0.4143924
vt 0.7271879 0.4102064
vt 0.7262933 0.4102064
vt 0.7262933 0.4143924
vt 0.7271879 0.4897985
vt 0.7262933 0.4897985
vt 0.7271879 0.4939846
vt 0.7262933 0.4939846
vn -0.0009775162 -0.499511 -0.866307
vn -0.0009775162 -0.499511 -0.866307
vn -0.0009775162 0.499511 -0.866307
vn -0.0009775162 0.499511 -0.866307
vn -0.0009775162 -0.9999995 0
vn -0.0009775162 -0.9999995 0
vn -0.0009775162 -0.9999995 0
vn -0.0009775162 -0.499511 -0.866307
vn -0.0009775162 0.499511 -0.866307
vn -0.0009775162 -0.9999995 0
vn -0.0009775162 -0.499511 -0.866307
vn -0.0009775162 0.499511 -0.866307
vn -0.0009775162 -0.499511 0.866307
vn -0.0009775162 -0.499511 0.866307
vn -0.0009775162 -0.9999995 0
vn -0.0009775162 -0.9999995 0
vn -0.0009775162 0.499511 0.866307
vn -0.0009775162 0.499511 0.866307
vn -0.0009775162 0.9999995 0
vn -0.0009775162 0.9999995 0
vn -0.0009775162 0.499511 0.866307
vn -0.0009775162 -0.499511 0.866307
vn -0.0009775162 -0.9999995 0
vn -0.0009775162 0.9999995 0
vn -0.0009775162 0.499511 0.866307
vn -0.0009775162 -0.499511 0.866307
vn -0.0009775162 -0.9999995 0
vn -0.0009775162 0.9999995 0
vn -0.0009775162 0.499511 -0.866307
vn -0.0009775162 0.499511 -0.866307
vn -0.0009775162 0.9999995 0
vn -0.0009775162 0.9999995 0
vn -0.0009775162 0.499511 -0.866307
vn -0.0009775162 0.9999995 0
vn -0.0009775162 0.499511 -0.866307
vn -0.0009775162 0.9999995 0
g CrossBarUp_0
f 3/3/3 2/2/2 1/1/1
f 4/4/4 3/3/3 1/1/1
f 1/1/1 2/2/2 5/5/5
f 2/2/2 6/6/6 5/5/5
f 5/5/5 7/7/7 1/1/1
f 7/7/7 8/8/8 1/1/1
f 1/1/1 8/8/8 4/4/4
f 8/8/8 9/9/9 4/4/4
f 7/7/7 10/10/10 8/8/8
f 10/10/10 11/11/11 8/8/8
f 8/8/8 11/11/11 9/9/9
f 11/11/11 12/12/12 9/9/9
f 15/15/15 14/14/14 13/13/13
f 16/16/16 15/15/15 13/13/13
f 13/13/13 14/14/14 17/17/17
f 14/14/14 18/18/18 17/17/17
f 17/17/17 18/18/18 19/19/19
f 18/18/18 20/20/20 19/19/19
f 17/17/17 21/21/21 13/13/13
f 21/21/21 22/22/22 13/13/13
f 13/13/13 22/22/22 16/16/16
f 22/22/22 23/23/23 16/16/16
f 24/24/24 21/21/21 17/17/17
f 19/19/19 24/24/24 17/17/17
f 21/21/21 25/25/25 22/22/22
f 25/25/25 26/26/26 22/22/22
f 22/22/22 26/26/26 23/23/23
f 26/26/26 27/27/27 23/23/23
f 28/28/28 25/25/25 21/21/21
f 24/24/24 28/28/28 21/21/21
f 31/31/31 30/30/30 29/29/29
f 32/32/32 31/31/31 29/29/29
f 29/29/29 33/33/33 32/32/32
f 33/33/33 34/34/34 32/32/32
f 33/33/33 35/35/35 34/34/34
f 35/35/35 36/36/36 34/34/34
