g CrossBarDown
v 13.89267 1.20001 1.335144E-05
v -13.89267 1.20001 1.335144E-05
v -13.89267 0.8999977 -0.5196161
v 13.89267 0.8999977 -0.5196161
v -13.89267 0.2999992 -0.5196161
v 13.89267 0.2999992 -0.5196161
v -13.89267 1.335144E-05 1.335144E-05
v 13.89267 1.335144E-05 1.335144E-05
v 13.89267 0.8999977 0.5196161
v -13.89267 0.8999977 0.5196161
v -13.89267 1.20001 1.335144E-05
v 13.89267 1.20001 1.335144E-05
v 13.89267 0.2999992 0.5196161
v -13.89267 0.2999992 0.5196161
v 13.89267 1.335144E-05 1.335144E-05
v -13.89267 1.335144E-05 1.335144E-05
vt 0.7234104 0.4102048
vt 0.7234104 0.4939922
vt 0.7225013 0.4939922
vt 0.7225013 0.4102048
vt 0.7206957 0.4939922
vt 0.7206957 0.4102048
vt 0.7197866 0.4939922
vt 0.7197866 0.4102048
vt 0.7225013 0.4102048
vt 0.7225013 0.4939922
vt 0.7234104 0.4939922
vt 0.7234104 0.4102048
vt 0.7206957 0.4102048
vt 0.7206957 0.4939922
vt 0.7197866 0.4102048
vt 0.7197866 0.4939922
vn -0.0009775162 0.9999995 0
vn -0.0009775162 0.9999995 0
vn -0.0009775162 0.499511 -0.866307
vn -0.0009775162 0.499511 -0.866307
vn -0.0009775162 -0.499511 -0.866307
vn -0.0009775162 -0.499511 -0.866307
vn -0.0009775162 -0.9999995 0
vn -0.0009775162 -0.9999995 0
vn -0.0009775162 0.499511 0.866307
vn -0.0009775162 0.499511 0.866307
vn -0.0009775162 0.9999995 0
vn -0.0009775162 0.9999995 0
vn -0.0009775162 -0.499511 0.866307
vn -0.0009775162 -0.499511 0.866307
vn -0.0009775162 -0.9999995 0
vn -0.0009775162 -0.9999995 0
g CrossBarDown_0
f 3/3/3 2/2/2 1/1/1
f 4/4/4 3/3/3 1/1/1
f 5/5/5 3/3/3 4/4/4
f 6/6/6 5/5/5 4/4/4
f 7/7/7 5/5/5 6/6/6
f 8/8/8 7/7/7 6/6/6
f 11/11/11 10/10/10 9/9/9
f 12/12/12 11/11/11 9/9/9
f 9/9/9 10/10/10 13/13/13
f 10/10/10 14/14/14 13/13/13
f 13/13/13 14/14/14 15/15/15
f 14/14/14 16/16/16 15/15/15
