g DokanJA1_Body_LOD1
v 0.696981 -4.291534E-06 -5.000004
v 0.696981 2.572499 -5.000004
v 0.696981 2.363063 -5.985316
v 0.696981 1.770971 -6.800272
v 0.696981 0.8985929 -7.30394
v 0.696981 -0.1032209 -7.409229
v 0.696981 -1.061253 -7.097951
v 0.696981 -1.809848 -6.423907
v 0.696981 -2.219561 -5.503661
v 0.696981 -2.219561 -4.496337
v 0.696981 -1.809848 -3.576091
v 0.696981 -1.061253 -2.902047
v 0.696981 -0.1032209 -2.590769
v 0.696981 0.8985929 -2.696069
v 0.696981 1.770971 -3.199736
v 0.696981 2.363063 -4.014682
v 0.4292116 2.373912 -5.990149
v 0.4292116 2.645119 -6.110899
v 0.4292116 2.881249 -5.000004
v 0.4292116 2.58437 -5.000004
v 0.4292116 2.359634 -6.605386
v 0.4292116 1.977567 -7.029719
v 0.4292116 1.778918 -6.8091
v 0.4292116 0.9940033 -7.597574
v 0.4292116 0.9022636 -7.315234
v 0.4292116 2.645119 -3.889099
v 0.4292116 2.373912 -4.009849
v 0.4292116 1.977567 -2.970289
v 0.4292116 1.778918 -3.190909
v 0.4292116 0.9940033 -2.402424
v 0.4292116 0.9022636 -2.684774
v 0.4292116 -0.1354966 -2.283707
v 0.4292116 -0.104465 -2.578959
v 0.4292116 -1.215623 -2.634663
v 0.4292116 -1.067188 -2.891764
v 0.4292116 -2.059629 -3.394612
v 0.4292116 -1.819454 -3.569104
v 0.4292116 -2.521567 -4.43214
v 0.4292116 -2.231178 -4.493859
v 0.4292116 -2.521567 -5.567859
v 0.4292116 -2.231178 -5.506139
v 0.4292116 -2.059629 -6.605386
v 0.4292116 -1.819454 -6.430894
v 0.4292116 -1.215623 -7.365336
v 0.4292116 -1.067188 -7.108234
v 0.4292116 -0.1354966 -7.716291
v 0.4292116 -0.104465 -7.42104
v 0.4292116 -0.104465 -7.42104
v 0.4292116 -0.1354966 -7.716291
v 0.4292116 0.9940033 -7.597574
v 0.4292116 0.9022636 -7.315234
v 0.4292116 2.645119 -6.110899
v 1.996716 2.645119 -6.110899
v 1.996716 2.881249 -5.000004
v 0.4292116 2.881249 -5.000004
v 0.4292116 2.359634 -6.605386
v 1.996716 1.977567 -7.029719
v 0.4292116 1.977567 -7.029719
v 0.4292116 0.9940033 -7.597574
v 1.996716 0.9940033 -7.597574
v 1.996716 2.645119 -3.889099
v 0.4292116 2.645119 -3.889099
v 1.996716 1.977567 -2.970289
v 0.4292116 1.977567 -2.970289
v 1.996716 0.9940033 -2.402424
v 0.4292116 0.9940033 -2.402424
v 1.996716 -0.1354966 -2.283707
v 0.4292116 -0.1354966 -2.283707
v 1.996716 -1.215623 -2.634663
v 0.4292116 -1.215623 -2.634663
v 1.996716 -2.059629 -3.394612
v 0.4292116 -2.059629 -3.394612
v 1.996716 -2.521567 -4.43214
v 0.4292116 -2.521567 -4.43214
v 1.996716 -2.521567 -5.567859
v 0.4292116 -2.521567 -5.567859
v 1.996716 -2.059629 -6.605386
v 0.4292116 -2.059629 -6.605386
v 1.996716 -1.215623 -7.365336
v 0.4292116 -1.215623 -7.365336
v 0.4292116 -0.1354966 -7.716291
v 2.003288 -0.1355066 -7.721276
v 0.4292116 -0.1354966 -7.716291
v 2.003288 -0.1355066 -7.721276
v 1.996716 0.9940033 -7.597574
v 0.4292116 0.9940033 -7.597574
v 2.000002 0.8151846 -2.952776
v 1.996716 0.9940033 -2.402424
v 1.996716 1.977567 -2.970289
v 2.000002 1.590352 -3.400325
v 1.996716 -0.1354966 -2.283707
v 2.000002 -0.0750103 -2.859216
v 2.000002 -0.9262862 -3.135812
v 1.996716 -1.215623 -2.634663
v 2.000002 -1.591473 -3.734749
v 1.996716 -2.059629 -3.394612
v 2.000002 -1.955533 -4.552455
v 1.996716 -2.521567 -4.43214
v 2.000002 -1.955533 -5.447543
v 1.996716 -2.521567 -5.567859
v 2.000002 -1.591473 -6.26525
v 1.996716 -2.059629 -6.605386
v 2.000002 -0.9262862 -6.864186
v 1.996716 -1.215623 -7.365336
v 2.000002 1.590352 -3.400325
v 1.996716 1.977567 -2.970289
v 1.996716 2.645119 -3.889099
v 2.000002 2.116477 -4.124471
v 0.696981 1.590352 -3.400325
v 2.000002 1.590352 -3.400325
v 2.000002 2.116477 -4.124471
v 0.696981 2.116477 -4.124471
v 2.000002 2.302576 -5.000004
v 0.696981 2.302576 -5.000004
v 0.7148981 2.115304 -5.90578
v 2.000002 2.116477 -5.875527
v 2.000002 1.590352 -6.599673
v 0.696981 1.590352 -6.599673
v 2.000002 0.8151846 -7.047222
v 0.696981 0.8151846 -7.047222
v 2.000002 2.116477 -4.124471
v 1.996716 2.645119 -3.889099
v 1.996716 2.881249 -5.000004
v 2.000002 2.302576 -5.000004
v 1.996716 2.645119 -6.110899
v 2.000002 2.116477 -5.875527
v 1.996716 1.977567 -7.029719
v 2.000002 1.590352 -6.599673
v 1.996716 0.9940033 -7.597574
v 2.000002 0.8151846 -7.047222
v 2.000002 0.8151846 -7.047222
v 1.996716 0.9940033 -7.597574
v 2.003288 -0.1355066 -7.721276
v 2.000002 -0.07502031 -7.145768
v 1.996716 -1.215623 -7.365336
v 2.000002 -0.9262862 -6.864186
v 2.000002 -1.591473 -6.26525
v 0.696981 -1.591473 -6.26525
v 0.696981 -0.9262862 -6.864186
v 2.000002 -0.9262862 -6.864186
v 2.000002 -1.955533 -5.447543
v 0.696981 -1.955533 -5.447543
v 2.000002 -1.955533 -4.552455
v 0.696981 -1.955533 -4.552455
v 2.000002 -1.591473 -3.734749
v 0.696981 -1.591473 -3.734749
v 2.000002 -0.9262862 -3.135812
v 0.696981 -0.9262862 -3.135812
v 2.000002 -0.0750103 -2.859216
v 0.696981 -0.0750103 -2.859216
v 2.000002 0.8151846 -2.952776
v 0.696981 0.8151846 -2.952776
v 2.000002 1.590352 -3.400325
v 0.696981 1.590352 -3.400325
v 0.696981 -0.0750103 -7.140783
v 2.000002 -0.07502031 -7.145768
v 0.696981 0.8151846 -7.047222
v 2.000002 0.8151846 -7.047222
v 4.291534E-06 2.620003 -5.000004
v 4.291534E-06 2.406461 -6.004639
v 1.623526 2.406461 -6.004639
v 1.623526 2.620003 -5.000004
v 1.623526 1.802752 -6.835571
v 4.291534E-06 1.802752 -6.835571
v 1.623526 0.9132748 -7.349107
v 4.291534E-06 0.9132748 -7.349107
v 4.291534E-06 2.406461 -3.995359
v 1.623526 2.406461 -3.995359
v 4.291534E-06 1.802752 -3.164427
v 1.623526 1.802752 -3.164427
v 4.291534E-06 0.9132748 -2.650891
v 1.623526 0.9132748 -2.650891
v 4.291534E-06 -0.1081858 -2.543529
v 1.623526 -0.1081858 -2.543529
v 4.291534E-06 -1.085004 -2.860914
v 1.623526 -1.085004 -2.860914
v 4.291534E-06 -1.848271 -3.548174
v 1.623526 -1.848271 -3.548174
v 4.291534E-06 -2.266022 -4.486458
v 1.623526 -2.266022 -4.486458
v 4.291534E-06 -2.266022 -5.51354
v 1.623526 -2.266022 -5.51354
v 4.291534E-06 -1.848271 -6.451835
v 1.623526 -1.848271 -6.451835
v 1.623526 -1.085004 -7.139084
v 4.291534E-06 -1.085004 -7.139084
v 4.291534E-06 -0.1081858 -7.45647
v 1.623526 -0.1081858 -7.45647
v 4.291534E-06 0.9132748 -7.349107
v 4.291534E-06 -0.1081858 -7.45647
v 1.623526 -0.1081858 -7.45647
v 1.623526 0.9132748 -7.349107
vt 0.7068071 0.2664479
vt 0.8224851 0.2664479
vt 0.8124737 0.3134987
vt 0.7842087 0.3524081
vt 0.7425519 0.3764586
vt 0.69471 0.381493
vt 0.648968 0.3666198
vt 0.6132232 0.3344422
vt 0.5936607 0.2904983
vt 0.5936607 0.2423974
vt 0.6132232 0.1984536
vt 0.648968 0.166276
vt 0.69471 0.1514027
vt 0.7425519 0.1564372
vt 0.7842087 0.1804876
vt 0.8124737 0.219397
vt 0.7055988 0.7632508
vt 0.7055988 0.7878048
vt 0.651701 0.7878048
vt 0.651701 0.7632508
vt 0.7325405 0.7878048
vt 0.7594966 0.7878048
vt 0.7594966 0.7632508
vt 0.8133799 0.7878048
vt 0.8133799 0.7632508
vt 0.5978177 0.7878048
vt 0.5978177 0.7632508
vt 0.5439199 0.7878048
vt 0.5439199 0.7632508
vt 0.4900222 0.7878048
vt 0.4900222 0.7632508
vt 0.4361388 0.7878048
vt 0.4361388 0.7632508
vt 0.382241 0.7878048
vt 0.382241 0.7632508
vt 0.3283576 0.7878048
vt 0.3283576 0.7632508
vt 0.2744599 0.7878048
vt 0.2744599 0.7632508
vt 0.2205621 0.7878048
vt 0.2205621 0.7632508
vt 0.1666788 0.7878048
vt 0.1666788 0.7632508
vt 0.112781 0.7878048
vt 0.112781 0.7632508
vt 0.05888325 0.7878048
vt 0.05888325 0.7632508
vt 0.05888325 0.7632508
vt 0.05888325 0.7878048
vt 0.8133799 0.7878048
vt 0.01014943 0.7632508
vt 0.7055988 0.7878048
vt 0.7055988 0.9183849
vt 0.651701 0.9183849
vt 0.651701 0.7878048
vt 0.7325405 0.7878048
vt 0.7594966 0.9183849
vt 0.7594966 0.7878048
vt 0.8133799 0.7878048
vt 0.8133799 0.9183849
vt 0.5978177 0.9183849
vt 0.5978177 0.7878048
vt 0.5439199 0.9183849
vt 0.5439199 0.7878048
vt 0.4900222 0.9183849
vt 0.4900222 0.7878048
vt 0.4361388 0.9183849
vt 0.4361388 0.7878048
vt 0.382241 0.9183849
vt 0.382241 0.7878048
vt 0.3283576 0.9183849
vt 0.3283576 0.7878048
vt 0.2744599 0.9183849
vt 0.2744599 0.7878048
vt 0.2205621 0.9183849
vt 0.2205621 0.7878048
vt 0.1666788 0.9183849
vt 0.1666788 0.7878048
vt 0.112781 0.9183849
vt 0.112781 0.7878048
vt 0.05888325 0.7878048
vt 0.05888325 0.9184281
vt 0.05888325 0.7878048
vt 0.05888325 0.9184281
vt 0.8133799 0.9183849
vt 0.8133799 0.7878048
vt 0.4882241 0.9507782
vt 0.4900222 0.9183849
vt 0.5439199 0.9183849
vt 0.5500764 0.9506344
vt 0.4361388 0.9183849
vt 0.422819 0.9508501
vt 0.3522786 0.9525187
vt 0.382241 0.9183849
vt 0.3029551 0.9528208
vt 0.3283576 0.9183849
vt 0.2467415 0.9511091
vt 0.2744599 0.9183849
vt 0.2103493 0.9496131
vt 0.2205621 0.9183849
vt 0.1835515 0.9490665
vt 0.1666788 0.9183849
vt 0.1621909 0.9489514
vt 0.112781 0.9183849
vt 0.5500764 0.9506344
vt 0.5439199 0.9183849
vt 0.5978177 0.9183849
vt 0.1625217 0.3862111
vt 0.1996906 0.1560776
vt 0.5500764 0.9506344
vt 0.1625217 0.3862111
vt 0.1625217 0.1560776
vt 0.1253528 0.3862111
vt 0.1253528 0.1560776
vt 0.08818395 0.1560776
vt 0.08818395 0.3862111
vt 0.05101507 0.3862111
vt 0.05101507 0.1560776
vt 0.01384619 0.3862111
vt 0.01384619 0.1560776
vt 0.6044056 0.9503467
vt 0.5978177 0.9183849
vt 0.651701 0.9183849
vt 0.6476591 0.949944
vt 0.7055988 0.9183849
vt 0.677794 0.9494981
vt 0.7594966 0.9183849
vt 0.6950408 0.9490952
vt 0.8133799 0.9183849
vt 0.7004492 0.9490089
vt 0.7004492 0.9490089
vt 0.8133799 0.9183849
vt 0.05888325 0.9184281
vt 0.4046229 0.9404359
vt 0.112781 0.9183849
vt 0.1621909 0.9489514
vt 0.4598872 0.3862111
vt 0.4599016 0.1560776
vt 0.4970704 0.1560776
vt 0.4970561 0.3862111
vt 0.4227183 0.3862111
vt 0.4227183 0.1560776
vt 0.3855494 0.3862111
vt 0.3855494 0.1560776
vt 0.3483805 0.3862111
vt 0.3483805 0.1560776
vt 0.3112116 0.3862111
vt 0.3112116 0.1560776
vt 0.2740428 0.3862111
vt 0.2740428 0.1560776
vt 0.2368739 0.3862111
vt 0.2368739 0.1560776
vt 0.1996906 0.3862111
vt 0.1996906 0.1560776
vt 0.5342393 0.1560776
vt 0.5342537 0.3862111
vt 0.569567 0.1560776
vt 0.569567 0.3862111
vt 0.6258813 0.6470981
vt 0.679736 0.6470981
vt 0.679736 0.73664
vt 0.6258813 0.73664
vt 0.7335762 0.73664
vt 0.7335762 0.6470981
vt 0.7874308 0.73664
vt 0.7874308 0.6470981
vt 0.5720267 0.6470981
vt 0.5720267 0.73664
vt 0.5181865 0.6470981
vt 0.5181865 0.73664
vt 0.4643319 0.6470981
vt 0.4643319 0.73664
vt 0.4104773 0.6470981
vt 0.4104773 0.73664
vt 0.3566371 0.6470981
vt 0.3566371 0.73664
vt 0.3027825 0.6470981
vt 0.3027825 0.73664
vt 0.2489279 0.6470981
vt 0.2489279 0.73664
vt 0.1950876 0.6470981
vt 0.1950876 0.73664
vt 0.141233 0.6470981
vt 0.141233 0.73664
vt 0.08737843 0.73664
vt 0.08737843 0.6470981
vt 0.03353821 0.6470981
vt 0.03353821 0.73664
vt 0.7874308 0.6470981
vt 0.03353821 0.6470981
vt 0.03353821 0.73664
vt 0.7874308 0.73664
vn 0.9999995 0.0009775162 0
vn 0.9999995 0.0009775162 0
vn 0.9999995 0.0009775162 0
vn 0.9999995 0.0009775162 0
vn 0.9999995 0.0009775162 0
vn 0.9999995 0.0009775162 0
vn 0.9999995 0.0009775162 0
vn 0.9999995 0.0009775162 0
vn 0.9999995 0.0009775162 0
vn 0.9999995 0.0009775162 0
vn 0.9999995 0.0009775162 0
vn 0.9999995 0.0009775162 0
vn 0.9999995 0.0009775162 0
vn 0.9999995 0.0009775162 0
vn 0.9999995 0.0009775162 0
vn 0.9999995 0.0009775162 0
vn -0.9999995 0.0009775162 0
vn -0.9999995 0.0009775162 0
vn -0.9999995 0.0009775162 0
vn -0.9999995 0.0009775162 0
vn -0.9999995 0.0009775162 0
vn -0.9999995 0.0009775162 0
vn -0.9999995 0.0009775162 0
vn -0.9999995 0.0009775162 0
vn -0.9999995 0.0009775162 0
vn -0.9999995 0.0009775162 0
vn -0.9999995 0.0009775162 0
vn -0.9999995 0.0009775162 0
vn -0.9999995 0.0009775162 0
vn -0.9999995 0.0009775162 0
vn -0.9999995 0.0009775162 0
vn -0.9999995 0.0009775162 0
vn -0.9999995 0.0009775162 0
vn -0.9999995 0.0009775162 0
vn -0.9999995 0.0009775162 0
vn -0.9999995 0.0009775162 0
vn -0.9999995 0.0009775162 0
vn -0.9999995 0.0009775162 0
vn -0.9999995 0.0009775162 0
vn -0.9999995 0.0009775162 0
vn -0.9999995 0.0009775162 0
vn -0.9999995 0.0009775162 0
vn -0.9999995 0.0009775162 0
vn -0.9999995 0.0009775162 0
vn -0.9999995 0.0009775162 0
vn -0.9999995 0.0009775162 0
vn -0.9999995 0.0009775162 0
vn -0.9999995 0.0009775162 0
vn -0.9999995 0.0009775162 0
vn -0.9999995 0.0009775162 0
vn -0.9999995 0.0009775162 0
vn 0.008797646 0.9139781 -0.4056681
vn 0.008797646 0.9139781 -0.4056681
vn -0.0009775162 0.9999995 0
vn -0.0009775162 0.9999995 0
vn 0.01857281 0.8084062 -0.5883319
vn 0.008797646 0.6695989 -0.7426707
vn 0.008797646 0.6695989 -0.7426707
vn -0.0009775162 0.3098727 -0.9507775
vn -0.0009775162 0.3098727 -0.9507775
vn -0.0009775162 0.9139781 0.4057624
vn -0.0009775162 0.9139781 0.4057624
vn -0.0009775162 0.6695989 0.7427223
vn -0.0009775162 0.6695989 0.7427223
vn -0.0009775162 0.3098727 0.9507775
vn -0.0009775162 0.3098727 0.9507775
vn -0.0009775162 -0.1045943 0.9945145
vn -0.0009775162 -0.1045943 0.9945145
vn -0.0009775162 -0.499511 0.866307
vn -0.0009775162 -0.499511 0.866307
vn -0.0009775162 -0.8084062 0.5886242
vn -0.0009775162 -0.8084062 0.5886242
vn -0.0009775162 -0.9784942 0.2062722
vn -0.0009775162 -0.9784942 0.2062722
vn -0.0009775162 -0.9784942 -0.2062722
vn -0.0009775162 -0.9784942 -0.2062722
vn -0.0009775162 -0.8084062 -0.5886242
vn -0.0009775162 -0.8084062 -0.5886242
vn -0.0009775162 -0.501466 -0.8651768
vn -0.0009775162 -0.501466 -0.8651768
vn -0.0009775162 -0.1045943 -0.9945145
vn -0.0009775162 -0.1045943 -0.9945145
vn -0.0009775162 -0.1045943 -0.9945145
vn -0.0009775162 -0.1045943 -0.9945145
vn -0.0009775162 0.3098727 -0.9507775
vn -0.0009775162 0.3098727 -0.9507775
vn 0.9999995 0.0009775162 0
vn 0.9999995 0.0009775162 0
vn 0.9999957 0.002932537 0
vn 0.9999957 0.002932537 0
vn 0.9999995 -0.0009775162 0
vn 0.9999995 -0.0009775162 0
vn 0.9999957 -0.002932537 0
vn 0.9999957 -0.002932537 0
vn 0.9999881 -0.004887525 0
vn 0.9999881 -0.004887525 0
vn 0.9999881 -0.004887525 0
vn 0.9999881 -0.004887525 0
vn 0.9999881 -0.004887525 0
vn 0.9999881 -0.004887525 0
vn 0.9999881 -0.004887525 0
vn 0.9999881 -0.004887525 0
vn 0.9999957 -0.002932537 0
vn 0.9999957 -0.002932537 0
vn 0.9999957 0.002932537 0
vn 0.9999957 0.002932537 0
vn 0.9999881 0.004887525 0
vn 0.9999881 0.004887525 0
vn -0.0009775162 -0.6695989 -0.7427223
vn -0.0009775162 -0.6695989 -0.7427223
vn -0.0009775162 -0.913978 -0.4057625
vn -0.0009775162 -0.913978 -0.4057625
vn -0.0009775162 -0.9999995 0
vn -0.0009775162 -0.9999995 0
vn -0.004887581 -0.912023 0.4101099
vn -0.004887581 -0.912023 0.4101099
vn -0.002932549 -0.6656889 0.7462236
vn -0.002932549 -0.6656889 0.7462236
vn 0.0009775162 -0.3098727 0.9507775
vn 0.0009775162 -0.3098727 0.9507775
vn 0.9999881 0.004887525 0
vn 0.9999881 0.004887525 0
vn 0.9999881 0.004887525 0
vn 0.9999881 0.004887525 0
vn 0.9999881 0.004887525 0
vn 0.9999881 0.004887525 0
vn 0.9999957 0.002932537 0
vn 0.9999957 0.002932537 0
vn 0.9999957 0.002932537 0
vn 0.9999957 0.002932537 0
vn 0.9999957 0.002932537 0
vn 0.9999957 0.002932537 0
vn 0.9999995 0.0009775162 0
vn 0.9999995 0.0009775162 0
vn 0.9999957 -0.002932537 0
vn 0.9999957 -0.002932537 0
vn -0.0009775162 0.8084062 0.5886242
vn -0.0009775162 0.8084062 0.5886242
vn 0.0009775162 0.501466 0.8651768
vn 0.0009775162 0.501466 0.8651768
vn -0.0009775162 0.9784942 0.2062722
vn -0.0009775162 0.9784942 0.2062722
vn -0.0009775162 0.9784942 -0.2062722
vn -0.0009775162 0.9784942 -0.2062722
vn -0.0009775162 0.8084062 -0.5886242
vn -0.0009775162 0.8084062 -0.5886242
vn -0.0009775162 0.499511 -0.866307
vn -0.0009775162 0.499511 -0.866307
vn -0.0009775162 0.1045942 -0.9945145
vn -0.0009775162 0.1045942 -0.9945145
vn -0.0009775162 -0.3098727 -0.9507775
vn -0.0009775162 -0.3098727 -0.9507775
vn -0.0009775162 -0.6695989 -0.7427223
vn -0.0009775162 -0.6695989 -0.7427223
vn 0.0009775162 0.1045942 0.9945145
vn 0.0009775162 0.1045942 0.9945145
vn 0.0009775162 -0.3098727 0.9507775
vn 0.0009775162 -0.3098727 0.9507775
vn -0.0009775162 0.9999995 0
vn -0.0009775162 0.9139781 -0.4057624
vn -0.0009775162 0.9139781 -0.4057624
vn -0.0009775162 0.9999995 0
vn -0.0009775162 0.6695989 -0.7427223
vn -0.0009775162 0.6695989 -0.7427223
vn -0.0009775162 0.3098727 -0.9507775
vn -0.0009775162 0.3098727 -0.9507775
vn -0.0009775162 0.9139781 0.4057624
vn -0.0009775162 0.9139781 0.4057624
vn -0.0009775162 0.6695989 0.7427223
vn -0.0009775162 0.6695989 0.7427223
vn -0.0009775162 0.3098727 0.9507775
vn -0.0009775162 0.3098727 0.9507775
vn -0.0009775162 -0.1045943 0.9945145
vn -0.0009775162 -0.1045943 0.9945145
vn -0.0009775162 -0.499511 0.866307
vn -0.0009775162 -0.499511 0.866307
vn -0.0009775162 -0.8084062 0.5886242
vn -0.0009775162 -0.8084062 0.5886242
vn -0.0009775162 -0.9784942 0.2062722
vn -0.0009775162 -0.9784942 0.2062722
vn -0.0009775162 -0.9784942 -0.2062722
vn -0.0009775162 -0.9784942 -0.2062722
vn -0.0009775162 -0.8084062 -0.5886242
vn -0.0009775162 -0.8084062 -0.5886242
vn -0.0009775162 -0.499511 -0.866307
vn -0.0009775162 -0.499511 -0.866307
vn -0.0009775162 -0.1045943 -0.9945145
vn -0.0009775162 -0.1045943 -0.9945145
vn -0.0009775162 0.3098727 -0.9507775
vn -0.0009775162 -0.1045943 -0.9945145
vn -0.0009775162 -0.1045943 -0.9945145
vn -0.0009775162 0.3098727 -0.9507775
g DokanJA1_Body_LOD1_0
f 3/3/3 2/2/2 1/1/1
f 4/4/4 3/3/3 1/1/1
f 5/5/5 4/4/4 1/1/1
f 6/6/6 5/5/5 1/1/1
f 7/7/7 6/6/6 1/1/1
f 8/8/8 7/7/7 1/1/1
f 9/9/9 8/8/8 1/1/1
f 10/10/10 9/9/9 1/1/1
f 11/11/11 10/10/10 1/1/1
f 12/12/12 11/11/11 1/1/1
f 13/13/13 12/12/12 1/1/1
f 14/14/14 13/13/13 1/1/1
f 15/15/15 14/14/14 1/1/1
f 16/16/16 15/15/15 1/1/1
f 2/2/2 16/16/16 1/1/1
f 19/19/19 18/18/18 17/17/17
f 20/20/20 19/19/19 17/17/17
f 17/17/17 18/18/18 21/21/21
f 17/17/17 21/21/21 22/22/22
f 22/22/22 23/23/23 17/17/17
f 23/23/23 22/22/22 24/24/24
f 25/25/25 23/23/23 24/24/24
f 26/26/26 19/19/19 20/20/20
f 27/27/27 26/26/26 20/20/20
f 28/28/28 26/26/26 27/27/27
f 29/29/29 28/28/28 27/27/27
f 30/30/30 28/28/28 29/29/29
f 31/31/31 30/30/30 29/29/29
f 32/32/32 30/30/30 31/31/31
f 33/33/33 32/32/32 31/31/31
f 34/34/34 32/32/32 33/33/33
f 35/35/35 34/34/34 33/33/33
f 36/36/36 34/34/34 35/35/35
f 37/37/37 36/36/36 35/35/35
f 38/38/38 36/36/36 37/37/37
f 39/39/39 38/38/38 37/37/37
f 40/40/40 38/38/38 39/39/39
f 41/41/41 40/40/40 39/39/39
f 42/42/42 40/40/40 41/41/41
f 43/43/43 42/42/42 41/41/41
f 44/44/44 42/42/42 43/43/43
f 45/45/45 44/44/44 43/43/43
f 46/46/46 44/44/44 45/45/45
f 47/47/47 46/46/46 45/45/45
f 50/50/50 49/49/49 48/48/48
f 51/51/51 50/50/50 48/48/48
f 54/54/54 53/53/53 52/52/52
f 55/55/55 54/54/54 52/52/52
f 56/56/56 52/52/52 53/53/53
f 56/56/56 53/53/53 57/57/57
f 57/57/57 58/58/58 56/56/56
f 58/58/58 57/57/57 59/59/59
f 57/57/57 60/60/60 59/59/59
f 61/61/61 54/54/54 55/55/55
f 62/62/62 61/61/61 55/55/55
f 63/63/63 61/61/61 62/62/62
f 64/64/64 63/63/63 62/62/62
f 65/65/65 63/63/63 64/64/64
f 66/66/66 65/65/65 64/64/64
f 67/67/67 65/65/65 66/66/66
f 68/68/68 67/67/67 66/66/66
f 69/69/69 67/67/67 68/68/68
f 70/70/70 69/69/69 68/68/68
f 71/71/71 69/69/69 70/70/70
f 72/72/72 71/71/71 70/70/70
f 73/73/73 71/71/71 72/72/72
f 74/74/74 73/73/73 72/72/72
f 75/75/75 73/73/73 74/74/74
f 76/76/76 75/75/75 74/74/74
f 77/77/77 75/75/75 76/76/76
f 78/78/78 77/77/77 76/76/76
f 79/79/79 77/77/77 78/78/78
f 80/80/80 79/79/79 78/78/78
f 80/80/80 81/81/81 79/79/79
f 81/81/81 82/82/82 79/79/79
f 85/85/85 84/84/84 83/83/83
f 86/86/86 85/85/85 83/83/83
f 89/89/89 88/88/88 87/87/87
f 90/90/90 89/89/89 87/87/87
f 87/87/87 88/88/88 91/91/91
f 92/92/92 87/87/87 91/91/91
f 92/92/92 91/91/91 93/93/93
f 91/91/91 94/94/94 93/93/93
f 93/93/93 94/94/94 95/95/95
f 94/94/94 96/96/96 95/95/95
f 95/95/95 96/96/96 97/97/97
f 96/96/96 98/98/98 97/97/97
f 97/97/97 98/98/98 99/99/99
f 98/98/98 100/100/100 99/99/99
f 99/99/99 100/100/100 101/101/101
f 100/100/100 102/102/102 101/101/101
f 101/101/101 102/102/102 103/103/103
f 102/102/102 104/104/104 103/103/103
f 107/107/107 106/106/106 105/105/105
f 108/108/108 107/107/107 105/105/105
f 111/111/111 110/110/110 109/109/109
f 112/112/112 111/111/111 109/109/109
f 111/111/111 112/112/112 113/113/113
f 112/112/112 114/114/114 113/113/113
f 114/114/114 115/115/115 113/113/113
f 115/115/115 116/116/116 113/113/113
f 117/117/117 116/116/116 115/115/115
f 118/118/118 117/117/117 115/115/115
f 119/119/119 117/117/117 118/118/118
f 120/120/120 119/119/119 118/118/118
f 123/123/123 122/122/122 121/121/121
f 124/124/124 123/123/123 121/121/121
f 125/125/125 123/123/123 124/124/124
f 126/126/126 125/125/125 124/124/124
f 127/127/127 125/125/125 126/126/126
f 128/128/128 127/127/127 126/126/126
f 129/129/129 127/127/127 128/128/128
f 130/130/130 129/129/129 128/128/128
f 133/133/133 132/132/132 131/131/131
f 134/134/134 133/133/133 131/131/131
f 135/135/135 133/133/133 134/134/134
f 136/136/136 135/135/135 134/134/134
f 139/139/139 138/138/138 137/137/137
f 140/140/140 139/139/139 137/137/137
f 141/141/141 137/137/137 138/138/138
f 142/142/142 141/141/141 138/138/138
f 141/141/141 142/142/142 143/143/143
f 142/142/142 144/144/144 143/143/143
f 143/143/143 144/144/144 145/145/145
f 144/144/144 146/146/146 145/145/145
f 147/147/147 145/145/145 146/146/146
f 148/148/148 147/147/147 146/146/146
f 147/147/147 148/148/148 149/149/149
f 148/148/148 150/150/150 149/149/149
f 151/151/151 149/149/149 150/150/150
f 152/152/152 151/151/151 150/150/150
f 151/151/151 152/152/152 153/153/153
f 152/152/152 154/154/154 153/153/153
f 139/139/139 140/140/140 155/155/155
f 157/157/157 155/155/155 156/156/156
f 158/158/158 157/157/157 156/156/156
f 140/140/140 156/156/156 155/155/155
f 161/161/161 160/160/160 159/159/159
f 162/162/162 161/161/161 159/159/159
f 161/161/161 163/163/163 160/160/160
f 163/163/163 164/164/164 160/160/160
f 163/163/163 165/165/165 164/164/164
f 165/165/165 166/166/166 164/164/164
f 162/162/162 159/159/159 167/167/167
f 168/168/168 162/162/162 167/167/167
f 168/168/168 167/167/167 169/169/169
f 170/170/170 168/168/168 169/169/169
f 170/170/170 169/169/169 171/171/171
f 172/172/172 170/170/170 171/171/171
f 172/172/172 171/171/171 173/173/173
f 174/174/174 172/172/172 173/173/173
f 174/174/174 173/173/173 175/175/175
f 176/176/176 174/174/174 175/175/175
f 176/176/176 175/175/175 177/177/177
f 178/178/178 176/176/176 177/177/177
f 178/178/178 177/177/177 179/179/179
f 180/180/180 178/178/178 179/179/179
f 180/180/180 179/179/179 181/181/181
f 182/182/182 180/180/180 181/181/181
f 182/182/182 181/181/181 183/183/183
f 184/184/184 182/182/182 183/183/183
f 184/184/184 183/183/183 185/185/185
f 183/183/183 186/186/186 185/185/185
f 185/185/185 186/186/186 187/187/187
f 188/188/188 185/185/185 187/187/187
f 191/191/191 190/190/190 189/189/189
f 192/192/192 191/191/191 189/189/189
