g Eye1_Body_LOD0
v -7.175432 2.538273 0.674335
v -7.32367 2.630233 0.7175956
v -7.330633 2.315161 1.36354
v -7.182395 2.223201 1.32028
v -7.013505 3.032596 0.1783767
v -7.161743 3.124556 0.2216372
v -6.72128 3.630931 -0.09209251
v -6.869518 3.722891 -0.04883194
v -6.343217 4.242172 -0.0959096
v -6.49147 4.334132 -0.05264902
v -5.936912 4.773267 0.1675267
v -6.08515 4.865227 0.2107873
v -5.564192 5.143373 0.658102
v -5.71243 5.235333 0.7013631
v -5.281809 5.296128 1.301124
v -5.430048 5.388088 1.344385
v -5.132747 5.208292 1.998704
v -5.280999 5.300252 2.041965
v -5.13971 4.893219 2.644649
v -5.287961 4.985179 2.68791
v -5.301636 4.398897 3.140607
v -5.449874 4.490858 3.183868
v -5.593876 3.800561 3.411077
v -5.742114 3.892522 3.454338
v -5.971923 3.189321 3.414894
v -6.120162 3.281267 3.458141
v -6.378229 2.658211 3.151457
v -6.526481 2.750171 3.194704
v -6.750949 2.28812 2.660882
v -6.899202 2.38008 2.704143
v -7.033331 2.135365 2.01786
v -7.181584 2.227312 2.061121
v -5.665268 4.473617 3.031673
v -5.523462 4.906531 2.597319
v -5.921182 3.949625 3.268529
v -6.252264 3.41432 3.271871
v -6.608108 2.949207 3.041167
v -6.93452 2.625074 2.611539
v -7.181821 2.491293 2.048411
v -7.312358 2.568223 1.437492
v -7.306248 2.84416 0.8718047
v -7.164442 3.277072 0.4374647
v -6.908528 3.801065 0.2005944
v -6.577446 4.336369 0.1972528
v -6.221615 4.801484 0.4279571
v -5.89519 5.125602 0.8575845
v -5.647903 5.259383 1.420727
v -5.517352 5.182453 2.031632
v -7.03245 3.570711 0.9343181
v -7.124173 3.290705 1.21526
v -7.128116 3.112224 1.581144
v -6.422608 4.556727 0.9281659
v -6.652767 4.255874 0.7789493
v -6.866917 3.909636 0.7811027
v -5.967085 4.803147 1.965441
v -6.051524 4.852895 1.570293
v -6.211479 4.766374 1.20606
v -7.043679 3.062476 1.976291
v -6.883723 3.148997 2.340539
v -6.672594 3.358644 2.618433
v -6.442435 3.659482 2.767649
v -6.228285 4.005721 2.765496
v -6.062751 4.34466 2.61228
v -5.971029 4.624666 2.331338
v -6.619713 4.002421 1.794343
v 7.175431 2.538273 0.674335
v 7.182394 2.223201 1.32028
v 7.330632 2.315161 1.36354
v 7.323668 2.630233 0.7175956
v 7.013504 3.032596 0.1783767
v 7.161742 3.124556 0.2216372
v 6.721279 3.630931 -0.09209251
v 6.869516 3.722891 -0.04883194
v 6.343217 4.242172 -0.0959096
v 6.491469 4.334132 -0.05264902
v 5.936912 4.773267 0.1675267
v 6.08515 4.865227 0.2107873
v 5.564191 5.143373 0.658102
v 5.712429 5.235333 0.7013631
v 5.281809 5.296128 1.301124
v 5.430047 5.388088 1.344385
v 5.132746 5.208292 1.998704
v 5.280998 5.300252 2.041965
v 5.139709 4.893219 2.644649
v 5.287961 4.985179 2.68791
v 5.301636 4.398897 3.140607
v 5.449873 4.490858 3.183868
v 5.593875 3.800561 3.411077
v 5.742113 3.892522 3.454338
v 5.971923 3.189321 3.414894
v 6.120161 3.281267 3.458141
v 6.378228 2.658211 3.151457
v 6.52648 2.750171 3.194704
v 6.750948 2.28812 2.660882
v 6.8992 2.38008 2.704143
v 7.033331 2.135365 2.01786
v 7.181583 2.227312 2.061121
v 5.665267 4.473617 3.031673
v 5.523461 4.906531 2.597319
v 5.921182 3.949625 3.268529
v 6.252264 3.41432 3.271871
v 6.608108 2.949207 3.041167
v 6.934519 2.625074 2.611539
v 7.18182 2.491293 2.048411
v 7.312357 2.568223 1.437492
v 7.306247 2.84416 0.8718047
v 7.164441 3.277072 0.4374647
v 6.908526 3.801065 0.2005944
v 6.577445 4.336369 0.1972528
v 6.221615 4.801484 0.4279571
v 5.895189 5.125602 0.8575845
v 5.647902 5.259383 1.420727
v 5.517351 5.182453 2.031632
v 6.866902 3.909636 0.7811027
v 6.652766 4.255874 0.7789493
v 6.422607 4.556727 0.9281659
v 6.211478 4.766374 1.20606
v 6.051523 4.852895 1.570293
v 5.967085 4.803147 1.965441
v 5.971028 4.624666 2.331338
v 6.06275 4.34466 2.61228
v 6.228284 4.005721 2.765496
v 6.442434 3.659482 2.767649
v 6.672593 3.358644 2.618433
v 6.883722 3.148997 2.340539
v 7.043677 3.062476 1.976291
v 7.128115 3.112224 1.581144
v 7.124172 3.290705 1.21526
v 7.03245 3.570711 0.9343181
v 6.619713 4.002421 1.794343
vt 0.762661 0.8261083
vt 0.7728958 0.8304645
vt 0.7974087 0.7944694
vt 0.7896121 0.7865371
vt 0.7529085 0.8729863
vt 0.7640327 0.8730767
vt 0.761847 0.9200188
vt 0.7721572 0.9158586
vt 0.7880896 0.9600573
vt 0.796022 0.9522606
vt 0.8276609 0.9870083
vt 0.8320171 0.9767736
vt 0.8745388 0.9967608
vt 0.8746331 0.9856367
vt 0.9215714 0.9878223
vt 0.9174111 0.9775121
vt 0.9616098 0.9615797
vt 0.9538282 0.9536473
vt 0.9885609 0.9219934
vt 0.9783261 0.9176522
vt 0.9983133 0.8751305
vt 0.9871892 0.8750401
vt 0.9893749 0.828098
vt 0.9790647 0.8322582
vt 0.9631322 0.7880595
vt 0.9551999 0.7958562
vt 0.923561 0.7611085
vt 0.9192048 0.7713432
vt 0.876683 0.751356
vt 0.8765926 0.7624801
vt 0.8296505 0.7602945
vt 0.8338107 0.7706046
vt 0.9704579 0.8766227
vt 0.9629664 0.9125876
vt 0.9635995 0.8405335
vt 0.9434578 0.8098291
vt 0.9131001 0.7891448
vt 0.8771352 0.7816684
vt 0.841046 0.7885268
vt 0.8103417 0.8086685
vt 0.7896573 0.8390262
vt 0.7821809 0.8749797
vt 0.7890393 0.9110652
vt 0.809181 0.9417846
vt 0.8395386 0.9624539
vt 0.8754922 0.9699454
vt 0.9115777 0.963087
vt 0.9422971 0.9429453
vt 0.8170944 0.8752963
vt 0.8217974 0.8526675
vt 0.8348056 0.8335545
vt 0.85318 0.930329
vt 0.834067 0.9173207
vt 0.8214054 0.8979967
vt 0.9178331 0.9180442
vt 0.8985091 0.9307208
vt 0.8758088 0.9350318
vt 0.8541296 0.8208929
vt 0.8768337 0.816582
vt 0.8994588 0.8212848
vt 0.9185567 0.8342931
vt 0.9312333 0.8536171
vt 0.9355443 0.8763213
vt 0.9308414 0.8989463
vt 0.8763213 0.8758088
vt 0.9623786 0.7872908
vt 0.9225662 0.7607015
vt 0.9183155 0.7709664
vt 0.9545065 0.7951628
vt 0.9889679 0.8271031
vt 0.978703 0.8313538
vt 0.9983133 0.8740565
vt 0.9872043 0.8740565
vt 0.9889679 0.9210136
vt 0.978703 0.9167629
vt 0.9623786 0.960826
vt 0.9545065 0.9529539
vt 0.9225662 0.9874153
vt 0.9183155 0.9771504
vt 0.8756128 0.9967608
vt 0.8756128 0.9856367
vt 0.8286557 0.9874153
vt 0.8329064 0.9771504
vt 0.7888433 0.960826
vt 0.7967154 0.9529539
vt 0.762254 0.9210136
vt 0.7725189 0.9167629
vt 0.7529085 0.8740565
vt 0.7640327 0.8740565
vt 0.762254 0.8271031
vt 0.7725189 0.8313538
vt 0.7888433 0.7872908
vt 0.7967154 0.7951628
vt 0.8286557 0.7607015
vt 0.8329064 0.7709664
vt 0.8756128 0.751356
vt 0.8756128 0.7624651
vt 0.7886323 0.9119697
vt 0.8090453 0.9425082
vt 0.7814724 0.8759444
vt 0.7886323 0.8399155
vt 0.8090453 0.809377
vt 0.8395839 0.7889639
vt 0.8756128 0.7818041
vt 0.911638 0.7889639
vt 0.9421766 0.809377
vt 0.9625896 0.8399155
vt 0.9697494 0.8759444
vt 0.9625896 0.9119697
vt 0.9421766 0.9425082
vt 0.911638 0.9629212
vt 0.8756128 0.970081
vt 0.8395839 0.9629212
vt 0.9348359 0.8759444
vt 0.930329 0.8986147
vt 0.9175016 0.9178181
vt 0.8982831 0.9306605
vt 0.8756128 0.9351674
vt 0.8529388 0.9306605
vt 0.8337354 0.9178181
vt 0.8208929 0.8986147
vt 0.816386 0.8759444
vt 0.8208929 0.8532704
vt 0.8337354 0.834052
vt 0.8529388 0.8212246
vt 0.8756128 0.8167176
vt 0.8982831 0.8212246
vt 0.9175016 0.834052
vt 0.930329 0.8532704
vt 0.8756128 0.8759444
vn -0.5530128 -0.6391768 -0.5344434
vn -0.9150995 -0.2520522 -0.3147421
vn -0.9188771 -0.3945438 0
vn -0.5568647 -0.8105902 -0.1812323
vn -0.4644171 -0.3714638 -0.8039474
vn -0.8419117 -0.02863705 -0.538855
vn -0.3064857 -0.04597104 -0.9507645
vn -0.7090182 0.2429279 -0.6620266
vn -0.1004045 0.2852998 -0.9531647
vn -0.5376048 0.5202709 -0.6635504
vn 0.1191587 0.5741987 -0.8099982
vn -0.3546355 0.7610201 -0.5432146
vn 0.321388 0.7745019 -0.5448454
vn -0.1851481 0.9285814 -0.3216471
vn 0.4754674 0.8573197 -0.1973161
vn -0.05803263 0.9979172 -0.02816943
vn 0.5563592 0.8110958 0.1805217
vn 0.01130313 0.9574713 0.2883072
vn 0.5525072 0.6396824 0.5343615
vn 0.007451177 0.8149478 0.5794864
vn 0.4639115 0.3700435 0.8048938
vn -0.06573653 0.5915327 0.8035968
vn 0.30598 0.0464766 0.9509028
vn -0.1986301 0.3199676 0.9263729
vn 0.09989882 -0.2867201 0.9527916
vn -0.3700435 0.04262471 0.9280361
vn -0.1196644 -0.573693 0.8102819
vn -0.5549388 -0.1981245 0.807954
vn -0.3218937 -0.7759223 0.542521
vn -0.7225002 -0.3656858 0.5867429
vn -0.4759731 -0.85874 0.1897766
vn -0.8515416 -0.4350216 0.2926313
vn -0.5934587 0.6127186 0.521903
vn -0.5607167 0.7128702 0.4212039
vn -0.6531644 0.491381 0.5761259
vn -0.7282782 0.3681175 0.5780143
vn -0.8110958 0.2621878 0.5228586
vn -0.8862096 0.1870742 0.4238346
vn -0.9420633 0.1562582 0.2968166
vn -0.9728793 0.1735922 0.1528779
vn -0.9709532 0.23715 0.03177647
vn -0.9382113 0.3373016 -0.0773765
vn -0.8804315 0.4586391 -0.1203764
vn -0.8033918 0.5819027 -0.1262964
vn -0.7205741 0.6878322 -0.0875199
vn -0.6454605 0.762946 0.0359741
vn -0.5896066 0.7937618 0.1493524
vn -0.5587908 0.776428 0.2913974
vn -0.9035435 0.4239713 0.06210896
vn -0.9208775 0.3681175 0.128352
vn -0.9228034 0.3334496 0.1929902
vn -0.7822059 0.6184965 0.07493924
vn -0.8284298 0.5587908 0.03816879
vn -0.8708016 0.491381 0.0157896
vn -0.6916842 0.6685723 0.2731007
vn -0.7090182 0.6782023 0.1932223
vn -0.7398341 0.6608684 0.1260892
vn -0.9054695 0.3238196 0.2743461
vn -0.8727276 0.3411536 0.3492287
vn -0.8322817 0.3815994 0.4021058
vn -0.7860579 0.4413052 0.4328541
vn -0.7436861 0.510641 0.4314821
vn -0.7109442 0.5780507 0.4005193
vn -0.6936103 0.6319785 0.3456992
vn -0.8245778 0.5125669 0.2394715
vn 0.5525072 -0.6391768 -0.5349662
vn 0.5563592 -0.8105902 -0.1827785
vn 0.9184458 -0.3945757 -0.0276992
vn 0.9145938 -0.2520522 -0.3162085
vn 0.4639115 -0.3714638 -0.8042392
vn 0.8414061 -0.02863705 -0.5396441
vn 0.30598 -0.04597104 -0.9509274
vn 0.7104386 0.2429279 -0.6605021
vn 0.09989882 0.2852998 -0.9532178
vn 0.5390252 0.5202709 -0.6623971
vn -0.1196644 0.5741987 -0.8099236
vn 0.3541299 0.7610201 -0.5435444
vn -0.3218937 0.7745019 -0.5445468
vn 0.1846425 0.9285814 -0.3219376
vn -0.4759731 0.8573197 -0.1960931
vn 0.05752695 0.9979172 -0.02918783
vn -0.5568647 0.8110958 0.1789559
vn -0.009882808 0.9574713 0.2883593
vn -0.5530128 0.6396824 0.5338382
vn -0.007956803 0.8149478 0.5794797
vn -0.4644171 0.3700435 0.8046021
vn 0.06523097 0.5915327 0.803638
vn -0.3064857 0.0464766 0.95074
vn 0.1981245 0.3199676 0.9264812
vn -0.1004045 -0.2867201 0.9527385
vn 0.3695378 0.04262471 0.9282376
vn 0.1191587 -0.573693 0.8103564
vn 0.5544331 -0.1981245 0.8083011
vn 0.321388 -0.7759223 0.5428207
vn 0.7239205 -0.3656858 0.5849897
vn 0.4754674 -0.85874 0.19104
vn 0.8510361 -0.4350216 0.2940983
vn 0.592953 0.6127186 0.5224774
vn 0.5602111 0.7128702 0.4218762
vn 0.6526588 0.491381 0.5766985
vn 0.7277725 0.3681175 0.5786508
vn 0.8105902 0.2621878 0.5236421
vn 0.8857039 0.1870742 0.4248903
vn 0.9415577 0.1562582 0.2984165
vn 0.9723736 0.1735922 0.1560618
vn 0.9704476 0.23715 0.0446248
vn 0.9377058 0.3373016 -0.08327996
vn 0.879926 0.4586391 -0.1240179
vn 0.8028862 0.5819027 -0.1294716
vn 0.7219945 0.6878322 -0.07490503
vn 0.6467057 0.7627395 0
vn 0.589101 0.7937618 0.1513345
vn 0.5602111 0.776428 0.2886573
vn 0.870296 0.491381 0.03360882
vn 0.8279241 0.5587908 0.04790074
vn 0.7817003 0.6184965 0.08004165
vn 0.7412544 0.6608684 0.1174513
vn 0.7085125 0.6782023 0.1950684
vn 0.6931046 0.6685723 0.2694755
vn 0.6931046 0.6319785 0.3467119
vn 0.7104386 0.5780507 0.4014154
vn 0.7431805 0.510641 0.4323524
vn 0.7855523 0.4413052 0.4337711
vn 0.8317761 0.3815994 0.4031505
vn 0.874148 0.3411536 0.3456582
vn 0.9049639 0.3238196 0.2760095
vn 0.9222978 0.3334496 0.1953923
vn 0.9203718 0.3681175 0.1319292
vn 0.9030378 0.4239713 0.06907216
vn 0.8240721 0.5125669 0.2412059
g Eye1_Body_LOD0_0
f 3/3/3 2/2/2 1/1/1
f 4/4/4 3/3/3 1/1/1
f 1/1/1 2/2/2 5/5/5
f 2/2/2 6/6/6 5/5/5
f 5/5/5 6/6/6 7/7/7
f 6/6/6 8/8/8 7/7/7
f 7/7/7 8/8/8 9/9/9
f 8/8/8 10/10/10 9/9/9
f 9/9/9 10/10/10 11/11/11
f 10/10/10 12/12/12 11/11/11
f 11/11/11 12/12/12 13/13/13
f 12/12/12 14/14/14 13/13/13
f 13/13/13 14/14/14 15/15/15
f 14/14/14 16/16/16 15/15/15
f 15/15/15 16/16/16 17/17/17
f 16/16/16 18/18/18 17/17/17
f 17/17/17 18/18/18 19/19/19
f 18/18/18 20/20/20 19/19/19
f 19/19/19 20/20/20 21/21/21
f 20/20/20 22/22/22 21/21/21
f 21/21/21 22/22/22 23/23/23
f 22/22/22 24/24/24 23/23/23
f 23/23/23 24/24/24 25/25/25
f 24/24/24 26/26/26 25/25/25
f 25/25/25 26/26/26 27/27/27
f 26/26/26 28/28/28 27/27/27
f 27/27/27 28/28/28 29/29/29
f 28/28/28 30/30/30 29/29/29
f 29/29/29 30/30/30 31/31/31
f 30/30/30 32/32/32 31/31/31
f 31/31/31 32/32/32 4/4/4
f 32/32/32 3/3/3 4/4/4
f 33/33/33 22/22/22 20/20/20
f 34/34/34 33/33/33 20/20/20
f 35/35/35 24/24/24 22/22/22
f 33/33/33 35/35/35 22/22/22
f 36/36/36 26/26/26 24/24/24
f 35/35/35 36/36/36 24/24/24
f 37/37/37 28/28/28 26/26/26
f 36/36/36 37/37/37 26/26/26
f 38/38/38 30/30/30 28/28/28
f 37/37/37 38/38/38 28/28/28
f 39/39/39 32/32/32 30/30/30
f 38/38/38 39/39/39 30/30/30
f 40/40/40 3/3/3 32/32/32
f 39/39/39 40/40/40 32/32/32
f 40/40/40 41/41/41 3/3/3
f 41/41/41 2/2/2 3/3/3
f 41/41/41 42/42/42 2/2/2
f 42/42/42 6/6/6 2/2/2
f 42/42/42 43/43/43 6/6/6
f 43/43/43 8/8/8 6/6/6
f 43/43/43 44/44/44 8/8/8
f 44/44/44 10/10/10 8/8/8
f 44/44/44 45/45/45 10/10/10
f 45/45/45 12/12/12 10/10/10
f 45/45/45 46/46/46 12/12/12
f 46/46/46 14/14/14 12/12/12
f 46/46/46 47/47/47 14/14/14
f 47/47/47 16/16/16 14/14/14
f 47/47/47 48/48/48 16/16/16
f 48/48/48 18/18/18 16/16/16
f 48/48/48 34/34/34 18/18/18
f 34/34/34 20/20/20 18/18/18
f 42/42/42 49/49/49 43/43/43
f 50/50/50 49/49/49 42/42/42
f 41/41/41 50/50/50 42/42/42
f 51/51/51 50/50/50 41/41/41
f 40/40/40 51/51/51 41/41/41
f 45/45/45 52/52/52 46/46/46
f 53/53/53 52/52/52 45/45/45
f 44/44/44 53/53/53 45/45/45
f 54/54/54 53/53/53 44/44/44
f 49/49/49 54/54/54 43/43/43
f 43/43/43 54/54/54 44/44/44
f 48/48/48 55/55/55 34/34/34
f 56/56/56 55/55/55 48/48/48
f 47/47/47 56/56/56 48/48/48
f 57/57/57 56/56/56 47/47/47
f 52/52/52 57/57/57 46/46/46
f 46/46/46 57/57/57 47/47/47
f 58/58/58 51/51/51 40/40/40
f 39/39/39 58/58/58 40/40/40
f 59/59/59 58/58/58 39/39/39
f 38/38/38 59/59/59 39/39/39
f 60/60/60 59/59/59 38/38/38
f 37/37/37 60/60/60 38/38/38
f 61/61/61 60/60/60 37/37/37
f 36/36/36 61/61/61 37/37/37
f 62/62/62 61/61/61 36/36/36
f 35/35/35 62/62/62 36/36/36
f 63/63/63 62/62/62 35/35/35
f 33/33/33 63/63/63 35/35/35
f 64/64/64 63/63/63 33/33/33
f 34/34/34 64/64/64 33/33/33
f 55/55/55 64/64/64 34/34/34
f 55/55/55 65/65/65 64/64/64
f 64/64/64 65/65/65 63/63/63
f 63/63/63 65/65/65 62/62/62
f 62/62/62 65/65/65 61/61/61
f 61/61/61 65/65/65 60/60/60
f 60/60/60 65/65/65 59/59/59
f 59/59/59 65/65/65 58/58/58
f 56/56/56 65/65/65 55/55/55
f 57/57/57 65/65/65 56/56/56
f 52/52/52 65/65/65 57/57/57
f 53/53/53 65/65/65 52/52/52
f 54/54/54 65/65/65 53/53/53
f 49/49/49 65/65/65 54/54/54
f 50/50/50 65/65/65 49/49/49
f 51/51/51 65/65/65 50/50/50
f 58/58/58 65/65/65 51/51/51
f 68/68/68 67/67/67 66/66/66
f 69/69/69 68/68/68 66/66/66
f 69/69/69 66/66/66 70/70/70
f 71/71/71 69/69/69 70/70/70
f 71/71/71 70/70/70 72/72/72
f 73/73/73 71/71/71 72/72/72
f 73/73/73 72/72/72 74/74/74
f 75/75/75 73/73/73 74/74/74
f 75/75/75 74/74/74 76/76/76
f 77/77/77 75/75/75 76/76/76
f 77/77/77 76/76/76 78/78/78
f 79/79/79 77/77/77 78/78/78
f 79/79/79 78/78/78 80/80/80
f 81/81/81 79/79/79 80/80/80
f 81/81/81 80/80/80 82/82/82
f 83/83/83 81/81/81 82/82/82
f 83/83/83 82/82/82 84/84/84
f 85/85/85 83/83/83 84/84/84
f 85/85/85 84/84/84 86/86/86
f 87/87/87 85/85/85 86/86/86
f 87/87/87 86/86/86 88/88/88
f 89/89/89 87/87/87 88/88/88
f 89/89/89 88/88/88 90/90/90
f 91/91/91 89/89/89 90/90/90
f 91/91/91 90/90/90 92/92/92
f 93/93/93 91/91/91 92/92/92
f 93/93/93 92/92/92 94/94/94
f 95/95/95 93/93/93 94/94/94
f 95/95/95 94/94/94 96/96/96
f 97/97/97 95/95/95 96/96/96
f 97/97/97 96/96/96 67/67/67
f 68/68/68 97/97/97 67/67/67
f 87/87/87 98/98/98 85/85/85
f 98/98/98 99/99/99 85/85/85
f 100/100/100 98/98/98 87/87/87
f 89/89/89 100/100/100 87/87/87
f 101/101/101 100/100/100 89/89/89
f 91/91/91 101/101/101 89/89/89
f 102/102/102 101/101/101 91/91/91
f 93/93/93 102/102/102 91/91/91
f 103/103/103 102/102/102 93/93/93
f 95/95/95 103/103/103 93/93/93
f 104/104/104 103/103/103 95/95/95
f 97/97/97 104/104/104 95/95/95
f 105/105/105 104/104/104 97/97/97
f 68/68/68 105/105/105 97/97/97
f 106/106/106 105/105/105 68/68/68
f 69/69/69 106/106/106 68/68/68
f 107/107/107 106/106/106 69/69/69
f 71/71/71 107/107/107 69/69/69
f 108/108/108 107/107/107 71/71/71
f 73/73/73 108/108/108 71/71/71
f 109/109/109 108/108/108 73/73/73
f 75/75/75 109/109/109 73/73/73
f 110/110/110 109/109/109 75/75/75
f 77/77/77 110/110/110 75/75/75
f 111/111/111 110/110/110 77/77/77
f 79/79/79 111/111/111 77/77/77
f 112/112/112 111/111/111 79/79/79
f 81/81/81 112/112/112 79/79/79
f 113/113/113 112/112/112 81/81/81
f 83/83/83 113/113/113 81/81/81
f 99/99/99 113/113/113 83/83/83
f 85/85/85 99/99/99 83/83/83
f 108/108/108 114/114/114 107/107/107
f 115/115/115 114/114/114 108/108/108
f 109/109/109 115/115/115 108/108/108
f 116/116/116 115/115/115 109/109/109
f 110/110/110 116/116/116 109/109/109
f 117/117/117 116/116/116 110/110/110
f 111/111/111 117/117/117 110/110/110
f 118/118/118 117/117/117 111/111/111
f 112/112/112 118/118/118 111/111/111
f 119/119/119 118/118/118 112/112/112
f 113/113/113 119/119/119 112/112/112
f 120/120/120 119/119/119 113/113/113
f 99/99/99 120/120/120 113/113/113
f 121/121/121 120/120/120 99/99/99
f 98/98/98 121/121/121 99/99/99
f 122/122/122 121/121/121 98/98/98
f 100/100/100 122/122/122 98/98/98
f 123/123/123 122/122/122 100/100/100
f 101/101/101 123/123/123 100/100/100
f 124/124/124 123/123/123 101/101/101
f 102/102/102 124/124/124 101/101/101
f 125/125/125 124/124/124 102/102/102
f 103/103/103 125/125/125 102/102/102
f 126/126/126 125/125/125 103/103/103
f 104/104/104 126/126/126 103/103/103
f 127/127/127 126/126/126 104/104/104
f 105/105/105 127/127/127 104/104/104
f 128/128/128 127/127/127 105/105/105
f 106/106/106 128/128/128 105/105/105
f 129/129/129 128/128/128 106/106/106
f 107/107/107 129/129/129 106/106/106
f 114/114/114 129/129/129 107/107/107
f 128/128/128 130/130/130 127/127/127
f 129/129/129 130/130/130 128/128/128
f 114/114/114 130/130/130 129/129/129
f 124/124/124 130/130/130 123/123/123
f 125/125/125 130/130/130 124/124/124
f 126/126/126 130/130/130 125/125/125
f 127/127/127 130/130/130 126/126/126
f 115/115/115 130/130/130 114/114/114
f 116/116/116 130/130/130 115/115/115
f 117/117/117 130/130/130 116/116/116
f 118/118/118 130/130/130 117/117/117
f 119/119/119 130/130/130 118/118/118
f 120/120/120 130/130/130 119/119/119
f 121/121/121 130/130/130 120/120/120
f 122/122/122 130/130/130 121/121/121
f 123/123/123 130/130/130 122/122/122
