g Eye1_Body_LOD0
v 1.133231 4.718071 0.8065896
v 1.134161 4.604882 0.8589996
v 1.096082 4.66353 0.9435679
v 1.093457 4.742407 0.9070426
v 1.089755 4.834227 0.7858551
v 1.065136 4.823356 0.892594
v 1.018447 4.935663 0.7999507
v 1.015439 4.894053 0.9024168
v 0.9273161 5.006936 0.8467226
v 0.9519292 4.94372 0.9350106
v 0.8302354 5.037193 0.9190608
v 0.8842698 4.964813 0.9854254
v 0.7419887 5.021826 1.005948
v 0.8227667 4.954102 1.045981
v 0.6760126 4.963189 1.094154
v 0.7767894 4.913239 1.107455
v 0.6423419 4.870193 1.170258
v 0.753324 4.848428 1.160488
v 0.6461144 4.757003 1.222663
v 0.755949 4.769539 1.197014
v 0.6867477 4.640853 1.243397
v 0.7842698 4.688591 1.211469
v 0.758056 4.539418 1.229307
v 0.8339667 4.617906 1.201646
v 0.8491924 4.468144 1.18253
v 0.8974827 4.568227 1.169046
v 0.9462674 4.437887 1.110191
v 0.9651362 4.547139 1.118631
v 1.034514 4.453249 1.023304
v 1.026639 4.557845 1.058076
v 1.100496 4.511885 0.9350988
v 1.072622 4.598714 0.9966019
v 0.9542834 4.7722 1.084943
v -1.133227 4.718071 0.8065896
v -1.093459 4.742407 0.9070426
v -1.096084 4.66353 0.9435679
v -1.134163 4.604882 0.8589996
v -1.089757 4.834227 0.7858551
v -1.065138 4.823356 0.892594
v -1.018449 4.935663 0.7999507
v -1.015441 4.894053 0.9024168
v -0.9273182 5.006936 0.8467226
v -0.9519254 4.94372 0.9350106
v -0.8302374 5.037193 0.9190608
v -0.8842717 4.964813 0.9854254
v -0.7419907 5.021826 1.005948
v -0.8227687 4.954102 1.045981
v -0.6760145 4.963189 1.094154
v -0.7767856 4.913239 1.107455
v -0.6423439 4.870193 1.170258
v -0.7533261 4.848428 1.160488
v -0.6461105 4.757003 1.222663
v -0.755951 4.769539 1.197014
v -0.6867439 4.640853 1.243397
v -0.7842718 4.688591 1.211469
v -0.7580581 4.539418 1.229307
v -0.8339688 4.617906 1.201646
v -0.8491886 4.468144 1.18253
v -0.8974789 4.568227 1.169046
v -0.9462694 4.437887 1.110191
v -0.9651381 4.547139 1.118631
v -1.034516 4.453249 1.023304
v -1.026636 4.557845 1.058076
v -1.100492 4.511885 0.9350988
v -1.072619 4.598714 0.9966019
v -0.9542853 4.7722 1.084943
vt 0.9980305 0.4952535
vt 0.9821954 0.4342409
vt 0.940135 0.4561503
vt 0.9512545 0.49896
vt 0.9893386 0.5576748
vt 0.9451603 0.5427788
vt 0.9574586 0.6120536
vt 0.9227912 0.5809429
vt 0.907226 0.6501178
vt 0.8875345 0.6076578
vt 0.8462533 0.6660928
vt 0.8447447 0.6188573
vt 0.783812 0.6575308
vt 0.800926 0.6128329
vt 0.7293832 0.6257108
vt 0.7627419 0.5904939
vt 0.6912791 0.5754481
vt 0.736017 0.5552271
vt 0.6753141 0.5134764
vt 0.7248275 0.5123874
vt 0.683956 0.4518244
vt 0.7309018 0.4685087
vt 0.7158959 0.3973257
vt 0.7533008 0.4302846
vt 0.7662585 0.3592115
vt 0.7886275 0.4035498
vt 0.8273511 0.3432965
vt 0.8314772 0.3923703
vt 0.8898423 0.3519883
vt 0.8753159 0.3984546
vt 0.9442111 0.3839283
vt 0.91347 0.4208535
vt 0.8365624 0.5047146
vt 0.9980305 0.4952535
vt 0.9512545 0.49896
vt 0.940135 0.4561503
vt 0.9821954 0.4342409
vt 0.9893386 0.5576748
vt 0.9451603 0.5427788
vt 0.9574586 0.6120536
vt 0.9227912 0.5809429
vt 0.907226 0.6501178
vt 0.8875345 0.6076578
vt 0.8462533 0.6660928
vt 0.8447447 0.6188573
vt 0.783812 0.6575308
vt 0.800926 0.6128329
vt 0.7293832 0.6257108
vt 0.7627419 0.5904939
vt 0.6912791 0.5754481
vt 0.736017 0.5552271
vt 0.6753141 0.5134764
vt 0.7248275 0.5123874
vt 0.683956 0.4518244
vt 0.7309018 0.4685087
vt 0.7158959 0.3973257
vt 0.7533008 0.4302846
vt 0.7662585 0.3592115
vt 0.7886275 0.4035498
vt 0.8273511 0.3432965
vt 0.8314772 0.3923703
vt 0.8898423 0.3519883
vt 0.8753159 0.3984546
vt 0.9442111 0.3839283
vt 0.91347 0.4208535
vt 0.8365624 0.5047146
vn 0.9180434 0.2691598 0.2911174
vn 0.927106 0.08428228 0.3651999
vn 0.8763554 0.1531582 0.456666
vn 0.8691053 0.294535 0.3973728
vn 0.8546051 0.4558498 0.2486989
vn 0.8201671 0.4377245 0.3684063
vn 0.7458537 0.6081017 0.2718724
vn 0.736791 0.5573511 0.3827515
vn 0.6044768 0.7186657 0.3436967
vn 0.626227 0.6425397 0.4415681
vn 0.4558498 0.7621663 0.4596777
vn 0.5102255 0.6769776 0.5304443
vn 0.321723 0.7349784 0.5969095
vn 0.4050992 0.6588525 0.6338834
vn 0.2238467 0.6443522 0.7312338
vn 0.3271606 0.588164 0.7396141
vn 0.1730961 0.5029753 0.8467901
vn 0.2872851 0.4757875 0.8313203
vn 0.1785337 0.3307856 0.9266642
vn 0.2927226 0.3416607 0.8930741
vn 0.2383469 0.1531582 0.9590273
vn 0.3398483 0.2020963 0.9185098
vn 0.3452858 -0.004531324 0.9384866
vn 0.4250369 0.08065724 0.9015753
vn 0.4848502 -0.1169078 0.8667485
vn 0.5337883 -0.006343901 0.8455943
vn 0.6334772 -0.1676585 0.755379
vn 0.6497899 -0.04440689 0.7588156
vn 0.771229 -0.1477208 0.6191805
vn 0.7567288 -0.02628165 0.6532004
vn 0.8763554 -0.05709451 0.4782693
vn 0.8364798 0.04259425 0.5463398
vn 0.6280396 0.3434732 0.6982782
vn -0.9180434 0.2691598 0.2911174
vn -0.8691052 0.294535 0.3973729
vn -0.8763553 0.1531582 0.4566662
vn -0.9271059 0.08428228 0.3652001
vn -0.854605 0.4558498 0.2486993
vn -0.8201671 0.4377245 0.3684064
vn -0.7458535 0.6081017 0.2718728
vn -0.7367909 0.5573511 0.3827518
vn -0.6044767 0.7186657 0.3436969
vn -0.626227 0.6425397 0.4415681
vn -0.4558498 0.7621663 0.4596777
vn -0.5102254 0.6769776 0.5304444
vn -0.321723 0.7349784 0.5969095
vn -0.405099 0.6588525 0.6338834
vn -0.2238467 0.6443522 0.7312338
vn -0.3271605 0.588164 0.7396142
vn -0.1730959 0.5029753 0.8467902
vn -0.287285 0.4757875 0.8313203
vn -0.1785336 0.3307856 0.9266642
vn -0.2927226 0.3416607 0.8930742
vn -0.2383468 0.1531582 0.9590273
vn -0.3398482 0.2020963 0.9185098
vn -0.3452858 -0.004531324 0.9384866
vn -0.4250368 0.08065724 0.9015754
vn -0.48485 -0.1169078 0.8667485
vn -0.5337882 -0.006343901 0.8455944
vn -0.6334771 -0.1676585 0.755379
vn -0.6497898 -0.04440689 0.7588157
vn -0.7712289 -0.1477208 0.6191806
vn -0.7567286 -0.02628165 0.6532006
vn -0.8763553 -0.05709451 0.4782694
vn -0.8364798 0.04259425 0.5463399
vn -0.6280395 0.3434732 0.6982782
g Eye1_Body_LOD0_0
f 3/3/3 2/2/2 1/1/1
f 4/4/4 3/3/3 1/1/1
f 4/4/4 1/1/1 5/5/5
f 6/6/6 4/4/4 5/5/5
f 6/6/6 5/5/5 7/7/7
f 8/8/8 6/6/6 7/7/7
f 8/8/8 7/7/7 9/9/9
f 10/10/10 8/8/8 9/9/9
f 10/10/10 9/9/9 11/11/11
f 12/12/12 10/10/10 11/11/11
f 12/12/12 11/11/11 13/13/13
f 14/14/14 12/12/12 13/13/13
f 14/14/14 13/13/13 15/15/15
f 16/16/16 14/14/14 15/15/15
f 16/16/16 15/15/15 17/17/17
f 18/18/18 16/16/16 17/17/17
f 18/18/18 17/17/17 19/19/19
f 20/20/20 18/18/18 19/19/19
f 20/20/20 19/19/19 21/21/21
f 22/22/22 20/20/20 21/21/21
f 22/22/22 21/21/21 23/23/23
f 24/24/24 22/22/22 23/23/23
f 24/24/24 23/23/23 25/25/25
f 26/26/26 24/24/24 25/25/25
f 26/26/26 25/25/25 27/27/27
f 28/28/28 26/26/26 27/27/27
f 28/28/28 27/27/27 29/29/29
f 30/30/30 28/28/28 29/29/29
f 30/30/30 29/29/29 31/31/31
f 32/32/32 30/30/30 31/31/31
f 32/32/32 31/31/31 2/2/2
f 3/3/3 32/32/32 2/2/2
f 33/33/33 20/20/20 22/22/22
f 33/33/33 22/22/22 24/24/24
f 33/33/33 24/24/24 26/26/26
f 33/33/33 26/26/26 28/28/28
f 33/33/33 28/28/28 30/30/30
f 33/33/33 30/30/30 32/32/32
f 33/33/33 32/32/32 3/3/3
f 33/33/33 18/18/18 20/20/20
f 33/33/33 16/16/16 18/18/18
f 33/33/33 14/14/14 16/16/16
f 33/33/33 12/12/12 14/14/14
f 33/33/33 3/3/3 4/4/4
f 33/33/33 4/4/4 6/6/6
f 33/33/33 6/6/6 8/8/8
f 33/33/33 8/8/8 10/10/10
f 33/33/33 10/10/10 12/12/12
f 36/36/36 35/35/35 34/34/34
f 37/37/37 36/36/36 34/34/34
f 34/34/34 35/35/35 38/38/38
f 35/35/35 39/39/39 38/38/38
f 38/38/38 39/39/39 40/40/40
f 39/39/39 41/41/41 40/40/40
f 40/40/40 41/41/41 42/42/42
f 41/41/41 43/43/43 42/42/42
f 42/42/42 43/43/43 44/44/44
f 43/43/43 45/45/45 44/44/44
f 44/44/44 45/45/45 46/46/46
f 45/45/45 47/47/47 46/46/46
f 46/46/46 47/47/47 48/48/48
f 47/47/47 49/49/49 48/48/48
f 48/48/48 49/49/49 50/50/50
f 49/49/49 51/51/51 50/50/50
f 50/50/50 51/51/51 52/52/52
f 51/51/51 53/53/53 52/52/52
f 52/52/52 53/53/53 54/54/54
f 53/53/53 55/55/55 54/54/54
f 54/54/54 55/55/55 56/56/56
f 55/55/55 57/57/57 56/56/56
f 56/56/56 57/57/57 58/58/58
f 57/57/57 59/59/59 58/58/58
f 58/58/58 59/59/59 60/60/60
f 59/59/59 61/61/61 60/60/60
f 60/60/60 61/61/61 62/62/62
f 61/61/61 63/63/63 62/62/62
f 62/62/62 63/63/63 64/64/64
f 63/63/63 65/65/65 64/64/64
f 64/64/64 65/65/65 37/37/37
f 65/65/65 36/36/36 37/37/37
f 53/53/53 66/66/66 55/55/55
f 55/55/55 66/66/66 57/57/57
f 57/57/57 66/66/66 59/59/59
f 59/59/59 66/66/66 61/61/61
f 61/61/61 66/66/66 63/63/63
f 63/63/63 66/66/66 65/65/65
f 65/65/65 66/66/66 36/36/36
f 51/51/51 66/66/66 53/53/53
f 49/49/49 66/66/66 51/51/51
f 47/47/47 66/66/66 49/49/49
f 45/45/45 66/66/66 47/47/47
f 36/36/36 66/66/66 35/35/35
f 35/35/35 66/66/66 39/39/39
f 39/39/39 66/66/66 41/41/41
f 41/41/41 66/66/66 43/43/43
f 43/43/43 66/66/66 45/45/45
