g Eye4_Body_LOD0
v 0.4443503 1.312248 0.7099425
v 0.2396706 1.464694 0.7515383
v 0.4749654 1.482151 0.5773112
v 0.3382323 1.874341 0.4384834
v 0.1573513 1.874341 0.4982913
v -1.072884E-06 1.464694 0.7809886
v -1.072884E-06 1.874341 0.5294313
v 0.2716705 1.309247 0.8078293
v 0.1380544 1.310151 0.8522121
v -1.072884E-06 1.312494 0.875216
v 0.2782919 1.237348 0.837392
v 0.1391467 1.251036 0.883797
v -1.072884E-06 1.254085 0.9028665
v -0.1380565 1.310151 0.8522121
v -0.1573508 1.874341 0.4982913
v -0.2396727 1.464694 0.7515383
v -0.3382319 1.874341 0.4384834
v -0.474965 1.482151 0.5773112
v -0.4443499 1.312248 0.7099425
v -0.4915124 1.874341 0.2725749
v -0.2716701 1.309247 0.8078293
v -0.2782915 1.237348 0.837392
v -0.1391463 1.251036 0.883797
v -0.5767112 1.322424 0.6211367
v -0.7466766 1.35273 0.4244705
v -0.6715411 1.497744 0.3800153
v -0.4473419 1.236018 0.7386628
v -0.5680851 1.223583 0.681157
v 0.4915128 1.874341 0.2725749
v 0.6715415 1.497744 0.3800153
v 0.7466769 1.35273 0.4244705
v 0.5767117 1.322424 0.6211367
v 0.4473423 1.236018 0.7386628
v 0.5680855 1.223583 0.6811545
vt 0.367582 0.06683113
vt 0.309707 0.09462115
vt 0.3779093 0.1204064
vt 0.3371805 0.2224922
vt 0.2898833 0.2146445
vt 0.2499987 0.09075667
vt 0.2499987 0.2105954
vt 0.3196254 0.05409019
vt 0.2848186 0.0486166
vt 0.2499987 0.04624251
vt 0.3221182 0.03468861
vt 0.2852011 0.03180013
vt 0.2499987 0.03012508
vt 0.2151853 0.0486166
vt 0.2101206 0.2146445
vt 0.1902969 0.09563673
vt 0.1628103 0.2224922
vt 0.1220814 0.1204064
vt 0.1324219 0.06683113
vt 0.1106594 0.2446108
vt 0.1803653 0.05409019
vt 0.1778857 0.03468861
vt 0.2147896 0.03180013
vt 0.09466072 0.0800337
vt 0.03769579 0.1127697
vt 0.05852182 0.1497791
vt 0.1302457 0.04653267
vt 0.09688973 0.05105663
vt 0.3893313 0.2446108
vt 0.4414821 0.1497791
vt 0.4623081 0.1127697
vt 0.4053432 0.0800337
vt 0.369745 0.04653267
vt 0.4031142 0.05105663
vn 0.4770154 0.4308285 0.7660568
vn 0.2727505 0.5015869 0.8209859
vn 0.5611244 0.4735505 0.6788883
vn 0.4997115 0.5082622 0.7013971
vn 0.1779609 0.5509843 0.8153197
vn 0.0003973842 0.5296232 0.8482329
vn 0.0003973842 0.5483142 0.8362724
vn 0.3822258 0.3894414 0.8379969
vn 0.1899765 0.4588649 0.8679585
vn 0.0003973842 0.4935765 0.8697023
vn 0.3808908 0.3413791 0.8592919
vn 0.2286934 0.3280285 0.9165679
vn 0.0003973842 0.3373739 0.9413706
vn -0.1891818 0.4588649 0.8681321
vn -0.1785013 0.5523193 0.8142976
vn -0.2732909 0.5015869 0.8208061
vn -0.5002518 0.5109324 0.6990681
vn -0.5616648 0.4735505 0.6784413
vn -0.4762207 0.4308285 0.7665511
vn -0.6764804 0.4869012 0.552541
vn -0.3827662 0.3894414 0.8377502
vn -0.380096 0.3413791 0.8596437
vn -0.2292337 0.3280285 0.9164329
vn -0.5523193 0.5069272 0.6617916
vn -0.6831557 0.5403038 0.4912943
vn -0.648444 0.5015869 0.5726526
vn -0.4735505 0.3039973 0.8266411
vn -0.4281583 0.3280285 0.8420675
vn 0.6786101 0.4842311 0.5522758
vn 0.6479037 0.5015869 0.5732639
vn 0.6826153 0.5403038 0.4920448
vn 0.5557842 0.5015869 0.662959
vn 0.4730102 0.3039973 0.8269504
vn 0.4289531 0.3280285 0.8416629
g Eye4_Body_LOD0_0
f 3/3/3 2/2/2 1/1/1
f 4/4/4 2/2/2 3/3/3
f 4/4/4 5/5/5 2/2/2
f 2/2/2 5/5/5 6/6/6
f 5/5/5 7/7/7 6/6/6
f 2/2/2 8/8/8 1/1/1
f 9/9/9 8/8/8 2/2/2
f 6/6/6 9/9/9 2/2/2
f 6/6/6 10/10/10 9/9/9
f 11/11/11 8/8/8 9/9/9
f 11/11/11 1/1/1 8/8/8
f 12/12/12 11/11/11 9/9/9
f 12/12/12 9/9/9 10/10/10
f 13/13/13 12/12/12 10/10/10
f 10/10/10 6/6/6 14/14/14
f 7/7/7 15/15/15 6/6/6
f 15/15/15 16/16/16 6/6/6
f 14/14/14 6/6/6 16/16/16
f 16/16/16 15/15/15 17/17/17
f 16/16/16 17/17/17 18/18/18
f 16/16/16 18/18/18 19/19/19
f 18/18/18 17/17/17 20/20/20
f 21/21/21 16/16/16 19/19/19
f 21/21/21 14/14/14 16/16/16
f 21/21/21 22/22/22 14/14/14
f 19/19/19 22/22/22 21/21/21
f 22/22/22 23/23/23 14/14/14
f 10/10/10 14/14/14 23/23/23
f 13/13/13 10/10/10 23/23/23
f 19/19/19 18/18/18 24/24/24
f 25/25/25 24/24/24 18/18/18
f 26/26/26 25/25/25 18/18/18
f 18/18/18 20/20/20 26/26/26
f 19/19/19 24/24/24 27/27/27
f 19/19/19 27/27/27 22/22/22
f 24/24/24 28/28/28 27/27/27
f 29/29/29 4/4/4 3/3/3
f 29/29/29 3/3/3 30/30/30
f 31/31/31 30/30/30 3/3/3
f 32/32/32 31/31/31 3/3/3
f 3/3/3 1/1/1 32/32/32
f 32/32/32 1/1/1 33/33/33
f 34/34/34 32/32/32 33/33/33
f 11/11/11 33/33/33 1/1/1
