g F_Body_LOD1
v 0.5405777 0.6072223 0.3948467
v 0.5999987 0.4231424 0.2107584
v 0.5405777 0.4231424 0.4710963
v 0.3740957 0.7548487 0.5424645
v 0.3740957 0.4231424 0.6798646
v 0.1335154 0.8367741 0.6243899
v 0.1335154 0.4231424 0.7957203
v -0.1335158 0.8367741 0.6243899
v -0.1335158 0.4231424 0.7957203
v -0.3740964 0.7548487 0.5424645
v -0.3740964 0.4231424 0.6798646
v -0.5405781 0.6072223 0.3948467
v -0.5405781 0.4231424 0.4710963
v -0.5999992 0.4231424 0.2107584
v 0.5405777 0.6834719 0.2107668
v 0.5999987 0.4231424 0.2107584
v 0.5405777 0.6072223 0.3948467
v 0.3740957 0.8922403 0.2107668
v 0.3740957 0.7548487 0.5424645
v 0.1335154 1.008104 0.2107668
v 0.1335154 0.8367741 0.6243899
v -0.1335158 1.008104 0.2107668
v -0.1335158 0.8367741 0.6243899
v -0.3740964 0.8922403 0.2107668
v -0.3740964 0.7548487 0.5424645
v -0.5405781 0.6834719 0.2107668
v -0.5405781 0.6072223 0.3948467
v -0.5999992 0.4231424 0.2107584
v 0.5405777 0.6072223 0.02667856
v 0.5999987 0.4231424 0.2107584
v 0.5405777 0.6834719 0.2107668
v 0.5405777 0.4231424 -0.04957104
v 0.5999987 0.4231424 0.2107584
v 0.5405777 0.6072223 0.02667856
v 0.5405777 0.2390625 0.02667856
v 0.5999987 0.4231424 0.2107584
v 0.5405777 0.4231424 -0.04957104
v 0.5405777 0.1628129 0.2107584
v 0.5999987 0.4231424 0.2107584
v 0.5405777 0.2390625 0.02667856
v 0.3740957 -0.04595542 0.2107584
v 0.3740957 0.09144449 -0.1209395
v 0.3740957 0.09144449 0.5424645
v 0.5405777 0.2390625 0.3948467
v 0.5999987 0.4231424 0.2107584
v 0.3740957 0.4231424 0.6798646
v 0.5405777 0.4231424 0.4710963
v 0.5999987 0.4231424 0.2107584
v 0.1335154 0.0095191 0.6243899
v 0.1335154 -0.1618111 0.2107584
v 0.1335154 0.4231424 0.7957203
v -0.1335158 0.0095191 0.6243899
v -0.1335158 -0.1618111 0.2107584
v -0.1335158 0.4231424 0.7957203
v -0.3740964 0.09144449 0.5424645
v -0.3740964 -0.04595542 0.2107584
v -0.3740964 0.4231424 0.6798646
v -0.5405781 0.2390625 0.3948467
v -0.5405781 0.1628129 0.2107584
v -0.3740964 0.09144449 -0.1209395
v -0.5405781 0.2390625 0.02667856
v -0.5405781 0.4231424 0.4710963
v -0.5999992 0.4231424 0.2107584
v -0.5999992 0.4231424 0.2107584
v -0.5999992 0.4231424 0.2107584
v -0.5405781 0.6834719 0.2107668
v -0.5999992 0.4231424 0.2107584
v -0.5405781 0.6072223 0.02667856
v -0.5405781 0.6072223 0.02667856
v -0.5999992 0.4231424 0.2107584
v -0.5405781 0.4231424 -0.04957104
v -0.5405781 0.4231424 -0.04957104
v -0.5999992 0.4231424 0.2107584
v -0.5405781 0.2390625 0.02667856
v 0.4365616 -0.1665518 0.2893662
v 0.871026 -0.2950661 -0.4558392
v 3.814697E-06 -3.475149 0.1050465
v -0.4363141 -0.165832 0.2886961
v -0.8698766 -0.2934611 -0.4561205
v -0.433923 -0.4212306 -1.196701
v 0.434154 -0.4221075 -1.197073
v -0.9765322 5.038468 0.3213603
v -1.953059 4.744755 -1.344344
v -0.9765322 4.451049 -3.010039
v 0.9765315 4.451049 -3.010039
v 1.953059 4.744755 -1.344344
v 0.9765315 5.038468 0.3213603
v 3.814697E-06 -3.475149 0.1050465
v 0.434154 -0.4221075 -1.197073
v -0.433923 -0.4212306 -1.196701
v -0.9765322 4.451049 -3.010039
v 0.9765315 4.451049 -3.010039
v 0.9000087 5.200366 0.1582294
v 1.800022 4.92967 -1.37695
v 1.953059 4.744755 -1.344344
v 0.9765315 5.038468 0.3213603
v -0.9765322 5.038468 0.3213603
v -0.9000094 5.200366 0.1582294
v -1.953059 4.744755 -1.344344
v -1.800022 4.92967 -1.37695
v -0.9765322 4.451049 -3.010039
v -0.9000094 4.658982 -2.912129
v 0.9765315 4.451049 -3.010039
v 0.9000087 4.658982 -2.912129
v 3.814697E-06 4.92967 -1.37695
vt 0.1988355 0.1122723
vt 0.2052655 0.1292808
vt 0.01882287 0.1122723
vt 0.1988355 0.09525011
vt 0.01882287 0.09525011
vt 0.1988355 0.07824169
vt 0.01882287 0.07824169
vt 0.1988355 0.06121945
vt 0.01882287 0.06121945
vt 0.1988355 0.04421104
vt 0.01882287 0.04421104
vt 0.1988355 0.0271888
vt 0.01882287 0.0271888
vt 0.01239287 0.01016656
vt 0.1731293 0.1122723
vt 0.1795455 0.1292808
vt 0.1988355 0.1122723
vt 0.1731293 0.09525011
vt 0.1988355 0.09525011
vt 0.1731293 0.07824169
vt 0.1988355 0.07824169
vt 0.1731293 0.06121945
vt 0.1988355 0.06121945
vt 0.1731293 0.04421104
vt 0.1988355 0.04421104
vt 0.1731293 0.0271888
vt 0.1988355 0.0271888
vt 0.1924055 0.01016656
vt 0.1474092 0.1122723
vt 0.1538392 0.1292808
vt 0.1731293 0.1122723
vt 0.1216892 0.1122723
vt 0.1281192 0.1292808
vt 0.1474092 0.1122723
vt 0.09596916 0.1122723
vt 0.1023992 0.1292808
vt 0.1216892 0.1122723
vt 0.07026295 0.1122723
vt 0.07669296 0.1292808
vt 0.09596916 0.1122723
vt 0.07026295 0.09525011
vt 0.09596916 0.09525011
vt 0.04454291 0.09525011
vt 0.04454291 0.1122723
vt 0.05097292 0.1292808
vt 0.01882287 0.09525011
vt 0.01882287 0.1122723
vt 0.02525288 0.1292808
vt 0.04454291 0.07824169
vt 0.07026295 0.07824169
vt 0.01882287 0.07824169
vt 0.04454291 0.06121945
vt 0.07026295 0.06121945
vt 0.01882287 0.06121945
vt 0.04454291 0.04421104
vt 0.07026295 0.04421104
vt 0.01882287 0.04421104
vt 0.04454291 0.0271888
vt 0.07026295 0.0271888
vt 0.09596916 0.04421104
vt 0.09596916 0.0271888
vt 0.01882287 0.0271888
vt 0.08955298 0.01016656
vt 0.06383294 0.01016656
vt 0.0381129 0.01016656
vt 0.1731293 0.0271888
vt 0.1666993 0.01016656
vt 0.1474092 0.0271888
vt 0.1474092 0.0271888
vt 0.1409792 0.01016656
vt 0.1216892 0.0271888
vt 0.1216892 0.0271888
vt 0.1152592 0.01016656
vt 0.09596916 0.0271888
vt 0.358362 0.1137796
vt 0.3913831 0.1113597
vt 0.3428193 0.006308556
vt 0.3247046 0.1135445
vt 0.2917941 0.1106821
vt 0.2610406 0.1050541
vt 0.4223025 0.1060359
vt 0.3168089 0.2713701
vt 0.2705958 0.2713701
vt 0.219052 0.2713701
vt 0.4594168 0.2713701
vt 0.4079076 0.2713701
vt 0.3616668 0.2713701
vt 0.3428193 0.006308556
vt 0.4223025 0.1060359
vt 0.2610406 0.1050541
vt 0.219052 0.2713701
vt 0.4594168 0.2713701
vt 0.2986527 0.4470684
vt 0.2593813 0.3803623
vt 0.2488859 0.3803761
vt 0.2934119 0.4561672
vt 0.3813164 0.4554897
vt 0.3760618 0.4464185
vt 0.4246947 0.3790348
vt 0.4141993 0.3790486
vt 0.3801548 0.3032436
vt 0.3749278 0.3123424
vt 0.2922504 0.3039074
vt 0.2975188 0.3129924
vt 0.3367903 0.3796985
vn 0.8299116 0.3939393 0.3950424
vn 0.9999995 0.0009775162 0
vn 0.8299116 0.0009775162 0.557894
vn 0.5640271 0.5835774 0.5842181
vn 0.5640271 0.0009775162 0.8257557
vn 0.1984359 0.6930593 0.693031
vn 0.1984359 0.0009775162 0.9801134
vn -0.1984359 0.6930593 0.693031
vn -0.1984359 0.0009775162 0.9801134
vn -0.5640271 0.5835774 0.5842181
vn -0.5640271 0.0009775162 0.8257557
vn -0.8299116 0.3939393 0.3950425
vn -0.8299116 0.0009775162 0.5578941
vn -0.9999995 0.0009775162 0
vn 0.8475069 0.501466 0.1739649
vn 0.9999995 0.0009775162 0
vn 0.8299116 0.3939393 0.3950424
vn 0.5327466 0.7810358 0.3258285
vn 0.5640271 0.5835774 0.5842181
vn 0.1847506 0.908113 0.3757632
vn 0.1984359 0.6930593 0.693031
vn -0.1847507 0.908113 0.3757631
vn -0.1984359 0.6930593 0.693031
vn -0.5327466 0.7810358 0.3258285
vn -0.5640271 0.5835774 0.5842181
vn -0.8475069 0.501466 0.1739652
vn -0.8299116 0.3939393 0.3950425
vn -0.9999995 0.0009775162 0
vn 0.9745841 0.1573802 -0.1594279
vn 0.9999995 0.0009775162 0
vn 0.8475069 0.501466 0.1739649
vn 0.9745841 0.0009775162 -0.2240197
vn 0.9999995 0.0009775162 0
vn 0.9745841 0.1573802 -0.1594279
vn 0.8475069 -0.4799607 -0.2266489
vn 0.9999995 0.0009775162 0
vn 0.9745841 0.0009775162 -0.2240197
vn 0.829788 -0.5580788 0
vn 0.9999995 0.0009775162 0
vn 0.8475069 -0.4799607 -0.2266489
vn 0.6129029 -0.7673506 0.1884756
vn 0.7575754 -0.6031278 -0.2496325
vn 0.5640271 -0.5835774 0.5842181
vn 0.8299116 -0.3939392 0.3950425
vn 0.9999995 0.0009775162 0
vn 0.5640271 0.0009775162 0.8257557
vn 0.8299116 0.0009775162 0.557894
vn 0.9999995 0.0009775162 0
vn 0.1984359 -0.6930593 0.693031
vn 0.1847506 -0.9081129 0.3757634
vn 0.1984359 0.0009775162 0.9801134
vn -0.1984359 -0.6930593 0.693031
vn -0.1847507 -0.9081129 0.3757633
vn -0.1984359 0.0009775162 0.9801134
vn -0.5640271 -0.5835774 0.5842181
vn -0.6129029 -0.7673506 0.1884759
vn -0.5640271 0.0009775162 0.8257557
vn -0.8299116 -0.3939392 0.3950426
vn -0.8297879 -0.5580788 0
vn -0.7575754 -0.6031278 -0.2496325
vn -0.8475069 -0.4799607 -0.2266491
vn -0.8299116 0.0009775162 0.5578941
vn -0.9999995 0.0009775162 0
vn -0.9999995 0.0009775162 0
vn -0.9999995 0.0009775162 0
vn -0.8475069 0.501466 0.1739652
vn -0.9999995 0.0009775162 0
vn -0.9745841 0.1573802 -0.1594279
vn -0.9745841 0.1573802 -0.1594279
vn -0.9999995 0.0009775162 0
vn -0.9745841 0.0009775162 -0.2240197
vn -0.9745841 0.0009775162 -0.2240197
vn -0.9999995 0.0009775162 0
vn -0.8475069 -0.4799607 -0.2266491
vn 0.4877808 -0.06353861 0.8706508
vn 0.9765391 -0.2121211 0.03709401
vn 0.0009775162 -0.9843593 0.1761701
vn -0.4877808 -0.06353861 0.8706508
vn -0.9765391 -0.2121211 0.03709401
vn -0.4877808 -0.3587486 -0.795845
vn 0.4877808 -0.3587486 -0.795845
vn -0.4936459 -0.01661777 0.8695042
vn -0.9862615 -0.1651915 0
vn -0.4936459 -0.3137829 -0.8110821
vn 0.4916909 -0.3137829 -0.8122687
vn 0.9862615 -0.1651915 0
vn 0.4936459 -0.01661777 0.8695042
vn 0.0009775162 -0.9843593 0.1761701
vn 0.4877808 -0.3587486 -0.795845
vn -0.4877808 -0.3587486 -0.795845
vn -0.4936459 -0.3137829 -0.8110821
vn 0.4916909 -0.3137829 -0.8122687
vn 0.1417399 0.9863143 0.08422533
vn 0.2844573 0.9433036 -0.1710625
vn 0.9862615 -0.1651915 0
vn 0.4936459 -0.01661777 0.8695042
vn -0.4936459 -0.01661777 0.8695042
vn -0.14174 0.9863143 0.08422533
vn -0.9862615 -0.1651915 0
vn -0.2844573 0.9433036 -0.1710625
vn -0.4936459 -0.3137829 -0.8110821
vn -0.14174 0.9002929 -0.4115611
vn 0.4916909 -0.3137829 -0.8122687
vn 0.1417399 0.9002929 -0.4115611
vn -0.0009775162 0.9843593 -0.1761701
g F_Body_LOD1_0
f 3/3/3 2/2/2 1/1/1
f 1/1/1 4/4/4 3/3/3
f 4/4/4 5/5/5 3/3/3
f 4/4/4 6/6/6 5/5/5
f 6/6/6 7/7/7 5/5/5
f 6/6/6 8/8/8 7/7/7
f 8/8/8 9/9/9 7/7/7
f 8/8/8 10/10/10 9/9/9
f 10/10/10 11/11/11 9/9/9
f 10/10/10 12/12/12 11/11/11
f 12/12/12 13/13/13 11/11/11
f 12/12/12 14/14/14 13/13/13
f 17/17/17 16/16/16 15/15/15
f 15/15/15 18/18/18 17/17/17
f 18/18/18 19/19/19 17/17/17
f 18/18/18 20/20/20 19/19/19
f 20/20/20 21/21/21 19/19/19
f 20/20/20 22/22/22 21/21/21
f 22/22/22 23/23/23 21/21/21
f 22/22/22 24/24/24 23/23/23
f 24/24/24 25/25/25 23/23/23
f 24/24/24 26/26/26 25/25/25
f 26/26/26 27/27/27 25/25/25
f 26/26/26 28/28/28 27/27/27
f 31/31/31 30/30/30 29/29/29
f 34/34/34 33/33/33 32/32/32
f 37/37/37 36/36/36 35/35/35
f 40/40/40 39/39/39 38/38/38
f 38/38/38 41/41/41 40/40/40
f 41/41/41 42/42/42 40/40/40
f 43/43/43 41/41/41 38/38/38
f 44/44/44 43/43/43 38/38/38
f 38/38/38 45/45/45 44/44/44
f 46/46/46 43/43/43 44/44/44
f 47/47/47 46/46/46 44/44/44
f 44/44/44 48/48/48 47/47/47
f 43/43/43 49/49/49 41/41/41
f 49/49/49 50/50/50 41/41/41
f 51/51/51 49/49/49 43/43/43
f 46/46/46 51/51/51 43/43/43
f 49/49/49 52/52/52 50/50/50
f 52/52/52 53/53/53 50/50/50
f 54/54/54 52/52/52 49/49/49
f 51/51/51 54/54/54 49/49/49
f 52/52/52 55/55/55 53/53/53
f 55/55/55 56/56/56 53/53/53
f 57/57/57 55/55/55 52/52/52
f 54/54/54 57/57/57 52/52/52
f 55/55/55 58/58/58 56/56/56
f 58/58/58 59/59/59 56/56/56
f 56/56/56 59/59/59 60/60/60
f 59/59/59 61/61/61 60/60/60
f 62/62/62 58/58/58 55/55/55
f 57/57/57 62/62/62 55/55/55
f 59/59/59 63/63/63 61/61/61
f 58/58/58 64/64/64 59/59/59
f 62/62/62 65/65/65 58/58/58
f 68/68/68 67/67/67 66/66/66
f 71/71/71 70/70/70 69/69/69
f 74/74/74 73/73/73 72/72/72
f 77/77/77 76/76/76 75/75/75
f 75/75/75 78/78/78 77/77/77
f 78/78/78 79/79/79 77/77/77
f 79/79/79 80/80/80 77/77/77
f 81/81/81 76/76/76 77/77/77
f 78/78/78 82/82/82 79/79/79
f 82/82/82 83/83/83 79/79/79
f 79/79/79 83/83/83 80/80/80
f 83/83/83 84/84/84 80/80/80
f 81/81/81 85/85/85 76/76/76
f 85/85/85 86/86/86 76/76/76
f 76/76/76 86/86/86 87/87/87
f 75/75/75 76/76/76 87/87/87
f 87/87/87 82/82/82 78/78/78
f 75/75/75 87/87/87 78/78/78
f 90/90/90 89/89/89 88/88/88
f 90/90/90 91/91/91 89/89/89
f 91/91/91 92/92/92 89/89/89
f 95/95/95 94/94/94 93/93/93
f 96/96/96 95/95/95 93/93/93
f 96/96/96 93/93/93 97/97/97
f 93/93/93 98/98/98 97/97/97
f 97/97/97 98/98/98 99/99/99
f 98/98/98 100/100/100 99/99/99
f 99/99/99 100/100/100 101/101/101
f 100/100/100 102/102/102 101/101/101
f 101/101/101 102/102/102 103/103/103
f 102/102/102 104/104/104 103/103/103
f 104/104/104 94/94/94 95/95/95
f 103/103/103 104/104/104 95/95/95
f 94/94/94 104/104/104 105/105/105
f 93/93/93 105/105/105 98/98/98
f 104/104/104 102/102/102 105/105/105
f 100/100/100 105/105/105 102/102/102
f 98/98/98 105/105/105 100/100/100
f 94/94/94 105/105/105 93/93/93
