g F_Grass
v -400.0154 28.9823 -300.0063
v -400.0154 28.9823 -400.0154
v -300.0062 28.9823 -400.0154
v -199.9971 28.9823 -400.0154
v -99.98792 28.9823 -400.0154
v -0.02111816 28.9823 -400.0154
v 99.98804 28.9823 -400.0154
v 199.9972 28.9823 -400.0154
v 300.0063 28.9823 -400.0154
v 400.0154 28.9823 -400.0154
v 400.0154 28.9823 -300.0063
v -400.0154 28.9823 -199.9972
v 400.0154 28.9823 -199.9972
v -400.0154 28.9823 -99.98804
v 400.0154 28.9823 -99.98804
v -400.0154 28.9823 0.02111816
v 400.0154 28.9823 0.02111816
v -400.0154 28.9823 99.98792
v 400.0154 28.9823 99.98792
v -400.0154 28.9823 199.9971
v 400.0154 28.9823 199.9971
v -400.0154 28.9823 300.0062
v 400.0154 28.9823 300.0062
v -400.0154 28.9823 400.0154
v 400.0154 28.9823 400.0154
v -300.0062 28.9823 400.0154
v -199.9971 28.9823 400.0154
v -99.98792 28.9823 400.0154
v -0.02111816 28.9823 400.0154
v 99.98804 28.9823 400.0154
v 199.9972 28.9823 400.0154
v 300.0063 28.9823 400.0154
v -398.9568 42.27734 558.709
v -496.3408 42.27734 496.3408
v -558.709 42.27734 398.9568
v -281.6302 42.27734 591.6501
v -145.1233 42.27734 609.7721
v -0.02111816 42.27734 619.6375
v 145.1234 42.27734 609.7721
v 281.6304 42.27734 591.6501
v 398.9569 42.27734 558.709
v 496.3409 42.27734 496.3408
v 558.709 42.27734 398.9568
v 591.6503 42.27734 281.6302
v 609.7722 42.27734 145.1233
v 619.6376 42.27734 0.02111816
v 609.7722 42.27734 -145.1234
v 591.6503 42.27734 -281.6304
v 558.709 42.27734 -398.9569
v 496.3409 42.27734 -496.3409
v 398.9569 42.27734 -558.709
v 281.6304 42.27734 -591.6503
v 145.1234 42.27734 -609.7722
v -0.02111816 42.27734 -619.6376
v -145.1233 42.27734 -609.7722
v -281.6302 42.27734 -591.6503
v -398.9568 42.27734 -558.709
v -496.3408 42.27734 -496.3409
v -558.709 42.27734 -398.9569
v -591.6501 42.27734 -281.6304
v -609.7721 42.27734 -145.1234
v -619.6375 42.27734 0.02111816
v -609.7721 42.27734 145.1233
v -591.6501 42.27734 281.6302
v -971.1937 72.50867 458.0223
v -917.0822 72.50867 650.885
v -813.0929 72.50867 813.0929
v -650.885 72.50867 917.0822
v -458.0223 72.50867 971.1937
v -235.9445 72.50867 1000.663
v -0.02111816 72.50867 1016.71
v 235.9446 72.50867 1000.663
v 458.0225 72.50867 971.1937
v 650.8851 72.50867 917.0822
v 813.093 72.50867 813.0929
v 917.0822 72.50867 650.885
v 971.1938 72.50867 458.0223
v 1000.663 72.50867 235.9445
v 1016.71 72.50867 0.02111816
v 1000.663 72.50867 -235.9446
v 971.1938 72.50867 -458.0225
v 917.0822 72.50867 -650.8851
v 813.093 72.50867 -813.093
v 650.8851 72.50867 -917.0822
v 458.0225 72.50867 -971.1938
v 235.9446 72.50867 -1000.663
v -0.02111816 72.50867 -1016.71
v -235.9445 72.50867 -1000.663
v -458.0223 72.50867 -971.1938
v -650.885 72.50867 -917.0822
v -813.0929 72.50867 -813.093
v -917.0822 72.50867 -650.8851
v -971.1937 72.50867 -458.0225
v -1000.663 72.50867 -235.9446
v -1016.71 72.50867 0.02111816
v -1000.663 72.50867 235.9445
v -1365.684 55.23364 319.1866
v -1325.841 55.23364 619.7645
v -1251.829 55.23364 883.3788
v -1107.955 55.23364 1107.955
v -883.3788 55.23364 1251.829
v -619.7645 55.23364 1325.841
v -319.1866 55.23364 1365.684
v -0.02111816 55.23364 1387.405
v 319.1868 55.23364 1365.684
v 619.7646 55.23364 1325.841
v 883.3789 55.23364 1251.829
v 1107.955 55.23364 1107.955
v 1251.829 55.23364 883.3788
v 1325.841 55.23364 619.7645
v 1365.684 55.23364 319.1866
v 1387.405 55.23364 0.02111816
v 1365.684 55.23364 -319.1868
v 1325.841 55.23364 -619.7646
v 1251.829 55.23364 -883.3789
v 1107.955 55.23364 -1107.955
v 883.3789 55.23364 -1251.829
v 619.7646 55.23364 -1325.841
v 319.1868 55.23364 -1365.684
v -0.02111816 55.23364 -1387.405
v -319.1866 55.23364 -1365.684
v -619.7645 55.23364 -1325.841
v -883.3788 55.23364 -1251.829
v -1107.955 55.23364 -1107.955
v -1251.829 55.23364 -883.3789
v -1325.841 55.23364 -619.7646
v -1365.684 55.23364 -319.1868
v -1387.405 55.23364 0.02111816
vt 0.356104 0.6077999
vt 0.356104 0.6438959
vt 0.3921999 0.6438959
vt 0.4282958 0.6438959
vt 0.4643918 0.6438959
vt 0.4995121 0.6438959
vt 0.5356081 0.6438959
vt 0.571704 0.6438959
vt 0.6077999 0.6438959
vt 0.6438959 0.6438959
vt 0.6438959 0.6077999
vt 0.356104 0.571704
vt 0.6438959 0.571704
vt 0.356104 0.5356081
vt 0.6438959 0.5356081
vt 0.356104 0.4995121
vt 0.6438959 0.4995121
vt 0.356104 0.4643918
vt 0.6438959 0.4643918
vt 0.356104 0.4282958
vt 0.6438959 0.4282958
vt 0.356104 0.3921999
vt 0.6438959 0.3921999
vt 0.356104 0.356104
vt 0.6438959 0.356104
vt 0.3921999 0.356104
vt 0.4282958 0.356104
vt 0.4643918 0.356104
vt 0.4995121 0.356104
vt 0.5356081 0.356104
vt 0.571704 0.356104
vt 0.6077999 0.356104
vt 0.3570795 0.2995211
vt 0.3219591 0.3219591
vt 0.2995211 0.3570795
vt 0.3990289 0.2878143
vt 0.4478071 0.2809854
vt 0.4995121 0.2770831
vt 0.5521927 0.2809854
vt 0.600971 0.2878143
vt 0.6429203 0.2995211
vt 0.6780407 0.3219591
vt 0.7004787 0.3570795
vt 0.7121855 0.3990289
vt 0.7190145 0.4478071
vt 0.7229167 0.4995121
vt 0.7190145 0.5521927
vt 0.7121855 0.600971
vt 0.7004787 0.6429203
vt 0.6780407 0.6780407
vt 0.6429203 0.7004787
vt 0.600971 0.7121855
vt 0.5521927 0.7190145
vt 0.4995121 0.7229167
vt 0.4478071 0.7190145
vt 0.3990289 0.7121855
vt 0.3570795 0.7004787
vt 0.3219591 0.6780407
vt 0.2995211 0.6429203
vt 0.2878143 0.600971
vt 0.2809854 0.5521927
vt 0.2770831 0.4995121
vt 0.2809854 0.4478071
vt 0.2878143 0.3990289
vt 0.1512351 0.3356171
vt 0.1707465 0.2663519
vt 0.207818 0.207818
vt 0.2663519 0.1707465
vt 0.3356171 0.1512351
vt 0.4156135 0.1405039
vt 0.4995121 0.1346505
vt 0.5843864 0.1405039
vt 0.6643828 0.1512351
vt 0.7336479 0.1707465
vt 0.7921819 0.207818
vt 0.8292534 0.2663519
vt 0.8487647 0.3356171
vt 0.8594959 0.4156135
vt 0.8653494 0.4995121
vt 0.8594959 0.5843864
vt 0.8487647 0.6643828
vt 0.8292534 0.7336479
vt 0.7921819 0.7921819
vt 0.7336479 0.8292534
vt 0.6643828 0.8487647
vt 0.5843864 0.8594959
vt 0.4995121 0.8653494
vt 0.4156135 0.8594959
vt 0.3356171 0.8487647
vt 0.2663519 0.8292534
vt 0.207818 0.7921819
vt 0.1707465 0.7336479
vt 0.1512351 0.6643828
vt 0.1405039 0.5843864
vt 0.1346505 0.4995121
vt 0.1405039 0.4156135
vt 0.00880253 0.3853709
vt 0.02343602 0.2770831
vt 0.0497763 0.1824532
vt 0.1014813 0.1014813
vt 0.1824532 0.0497763
vt 0.2770831 0.02343602
vt 0.3853709 0.00880253
vt 0.4995121 0.0009980039
vt 0.6146289 0.00880253
vt 0.7229167 0.02343602
vt 0.8175466 0.0497763
vt 0.8985186 0.1014813
vt 0.9502236 0.1824532
vt 0.9765639 0.2770831
vt 0.9911973 0.3853709
vt 0.9990019 0.4995121
vt 0.9911973 0.6146289
vt 0.9765639 0.7229167
vt 0.9502236 0.8175466
vt 0.8985186 0.8985186
vt 0.8175466 0.9502236
vt 0.7229167 0.9765639
vt 0.6146289 0.9911973
vt 0.4995121 0.9990019
vt 0.3853709 0.9911973
vt 0.2770831 0.9765639
vt 0.1824532 0.9502236
vt 0.1014813 0.8985186
vt 0.0497763 0.8175466
vt 0.02343602 0.7229167
vt 0.00880253 0.6146289
vt 0.0009980039 0.4995121
vn 0.002216494 0.9999976 0
vn 0.002216494 0.9999976 0
vn -0.001994491 0.999998 0
vn -0.001994491 0.999998 0
vn -0.001994491 0.999998 0
vn -0.001994491 0.999998 0
vn -0.001994491 0.999998 0
vn -0.001994491 0.999998 0
vn -0.001994491 0.999998 0
vn -0.001994491 0.999998 0
vn -0.001994491 0.999998 0
vn 0.002216494 0.9999976 0
vn -0.001994491 0.999998 0
vn 0.002216494 0.9999976 0
vn -0.001994491 0.999998 0
vn 0.002216494 0.9999976 0
vn -0.001994491 0.999998 0
vn 0.002216494 0.9999976 0
vn -0.001994491 0.999998 0
vn 0.002216494 0.9999976 0
vn -0.001994491 0.999998 0
vn 0.002216494 0.9999976 0
vn -0.001994491 0.999998 0
vn 0.002216494 0.9999976 0
vn -0.001994491 0.999998 0
vn -0.001994491 0.999998 0
vn -0.001994491 0.999998 0
vn -0.001994491 0.999998 0
vn -0.001994491 0.999998 0
vn -0.001994491 0.999998 0
vn -0.001994491 0.999998 0
vn -0.001994491 0.999998 0
vn 0.02748241 0.9957871 -0.08748005
vn 0.04853733 0.9957871 -0.07779586
vn 0.06538127 0.9957871 -0.06429108
vn 0.01484945 0.9957871 -0.09048531
vn 0.006427482 0.9957871 -0.09147002
vn -0.001994491 0.9957871 -0.09167375
vn -0.006205477 0.9957871 -0.09148533
vn -0.01462745 0.9957871 -0.09052121
vn -0.02726041 0.9957871 -0.08754952
vn -0.04831533 0.9957871 -0.07793403
vn -0.06515928 0.9957871 -0.06451598
vn -0.07358125 0.9957871 -0.05471637
vn -0.07358125 0.9957871 -0.05471637
vn -0.07358125 0.9957871 -0.05471637
vn -0.07358125 0.9957871 0.05471637
vn -0.07358125 0.9957871 0.05471637
vn -0.06515928 0.9957871 0.06451598
vn -0.04831533 0.9957871 0.07793403
vn -0.02726041 0.9957871 0.08754952
vn -0.01462745 0.9957871 0.09052121
vn -0.006205477 0.9957871 0.09148533
vn -0.001994491 0.9957871 0.09167375
vn 0.006427482 0.9957871 0.09147002
vn 0.01484945 0.9957871 0.09048531
vn 0.02748241 0.9957871 0.08748005
vn 0.04853733 0.9957871 0.07779586
vn 0.06538127 0.9957871 0.06429108
vn 0.07380325 0.9957871 0.05441653
vn 0.07380325 0.9957871 0.05441653
vn 0.07380325 0.9957871 -0.05441653
vn 0.07380325 0.9957871 -0.05441653
vn 0.07380325 0.9957871 -0.05441653
vn 0.002216494 0.9999976 0
vn -0.001994491 0.999998 0
vn -0.001994491 0.999998 0
vn 0.002216494 0.9999976 0
vn 0.002216494 0.9999976 0
vn 0.002216494 0.9999976 0
vn -0.001994491 0.999998 0
vn -0.001994491 0.999998 0
vn -0.001994491 0.999998 0
vn -0.001994491 0.999998 0
vn 0.002216494 0.9999976 0
vn 0.002216494 0.9999976 0
vn -0.001994491 0.999998 0
vn -0.001994491 0.999998 0
vn -0.001994491 0.999998 0
vn -0.001994491 0.999998 0
vn -0.001994491 0.999998 0
vn 0.002216494 0.9999976 0
vn 0.002216494 0.9999976 0
vn -0.001994491 0.999998 0
vn -0.001994491 0.999998 0
vn -0.001994491 0.999998 0
vn -0.001994491 0.999998 0
vn 0.002216494 0.9999976 0
vn 0.002216494 0.9999976 0
vn 0.002216494 0.9999976 0
vn -0.001994491 0.999998 0
vn -0.001994491 0.999998 0
vn 0.002216494 0.9999976 0
vn 0.002216494 0.9999976 0
vn 0.002216494 0.9999976 0
vn 0.002216494 0.9999976 0
vn -0.0440616 0.9990289 0
vn -0.0440616 0.9990289 0
vn -0.03986173 0.9992052 0
vn -0.02725034 0.9996286 0
vn -0.01883513 0.9998226 0
vn -0.01041592 0.9999458 0
vn -0.00620537 0.9999807 0
vn -0.001994491 0.999998 0
vn 0.006427362 0.9999793 0
vn 0.01063789 0.9999434 0
vn 0.01905701 0.9998184 0
vn 0.02747209 0.9996225 0
vn 0.04008321 0.9991964 0
vn 0.04428296 0.9990191 0
vn 0.04428296 0.9990191 0
vn 0.04848035 0.9988241 0
vn 0.04428296 0.9990191 0
vn 0.04428296 0.9990191 0
vn 0.04008321 0.9991964 0
vn 0.02747209 0.9996225 0
vn 0.01905701 0.9998184 0
vn 0.01063789 0.9999434 0
vn 0.006427362 0.9999793 0
vn -0.001994491 0.999998 0
vn -0.00620537 0.9999807 0
vn -0.01041592 0.9999458 0
vn -0.01883513 0.9998226 0
vn -0.02725034 0.9996286 0
vn -0.03986173 0.9992052 0
vn -0.0440616 0.9990289 0
vn -0.0440616 0.9990289 0
vn -0.04825913 0.9988348 0
g F_Grass_0
f 3/3/3 2/2/2 1/1/1
f 1/1/1 4/4/4 3/3/3
f 1/1/1 5/5/5 4/4/4
f 1/1/1 6/6/6 5/5/5
f 1/1/1 7/7/7 6/6/6
f 1/1/1 8/8/8 7/7/7
f 1/1/1 9/9/9 8/8/8
f 1/1/1 10/10/10 9/9/9
f 1/1/1 11/11/11 10/10/10
f 1/1/1 12/12/12 11/11/11
f 12/12/12 13/13/13 11/11/11
f 12/12/12 14/14/14 13/13/13
f 14/14/14 15/15/15 13/13/13
f 14/14/14 16/16/16 15/15/15
f 16/16/16 17/17/17 15/15/15
f 16/16/16 18/18/18 17/17/17
f 18/18/18 19/19/19 17/17/17
f 18/18/18 20/20/20 19/19/19
f 20/20/20 21/21/21 19/19/19
f 20/20/20 22/22/22 21/21/21
f 22/22/22 23/23/23 21/21/21
f 22/22/22 24/24/24 23/23/23
f 24/24/24 25/25/25 23/23/23
f 24/24/24 26/26/26 25/25/25
f 26/26/26 27/27/27 25/25/25
f 27/27/27 28/28/28 25/25/25
f 28/28/28 29/29/29 25/25/25
f 29/29/29 30/30/30 25/25/25
f 30/30/30 31/31/31 25/25/25
f 31/31/31 32/32/32 25/25/25
f 24/24/24 33/33/33 26/26/26
f 24/24/24 34/34/34 33/33/33
f 35/35/35 24/24/24 22/22/22
f 35/35/35 34/34/34 24/24/24
f 26/26/26 36/36/36 27/27/27
f 26/26/26 33/33/33 36/36/36
f 27/27/27 37/37/37 28/28/28
f 27/27/27 36/36/36 37/37/37
f 28/28/28 38/38/38 29/29/29
f 28/28/28 37/37/37 38/38/38
f 38/38/38 30/30/30 29/29/29
f 38/38/38 39/39/39 30/30/30
f 39/39/39 31/31/31 30/30/30
f 39/39/39 40/40/40 31/31/31
f 40/40/40 32/32/32 31/31/31
f 40/40/40 41/41/41 32/32/32
f 41/41/41 25/25/25 32/32/32
f 41/41/41 42/42/42 25/25/25
f 25/25/25 42/42/42 43/43/43
f 25/25/25 43/43/43 23/23/23
f 23/23/23 43/43/43 44/44/44
f 23/23/23 44/44/44 21/21/21
f 21/21/21 44/44/44 45/45/45
f 21/21/21 45/45/45 19/19/19
f 19/19/19 45/45/45 46/46/46
f 19/19/19 46/46/46 17/17/17
f 46/46/46 15/15/15 17/17/17
f 46/46/46 47/47/47 15/15/15
f 47/47/47 13/13/13 15/15/15
f 47/47/47 48/48/48 13/13/13
f 48/48/48 11/11/11 13/13/13
f 48/48/48 49/49/49 11/11/11
f 49/49/49 10/10/10 11/11/11
f 49/49/49 50/50/50 10/10/10
f 10/10/10 50/50/50 51/51/51
f 10/10/10 51/51/51 9/9/9
f 9/9/9 51/51/51 52/52/52
f 9/9/9 52/52/52 8/8/8
f 8/8/8 52/52/52 53/53/53
f 8/8/8 53/53/53 7/7/7
f 7/7/7 53/53/53 54/54/54
f 7/7/7 54/54/54 6/6/6
f 54/54/54 5/5/5 6/6/6
f 54/54/54 55/55/55 5/5/5
f 55/55/55 4/4/4 5/5/5
f 55/55/55 56/56/56 4/4/4
f 56/56/56 3/3/3 4/4/4
f 56/56/56 57/57/57 3/3/3
f 57/57/57 2/2/2 3/3/3
f 57/57/57 58/58/58 2/2/2
f 2/2/2 58/58/58 59/59/59
f 2/2/2 59/59/59 1/1/1
f 1/1/1 59/59/59 60/60/60
f 1/1/1 60/60/60 12/12/12
f 12/12/12 60/60/60 61/61/61
f 12/12/12 61/61/61 14/14/14
f 14/14/14 61/61/61 62/62/62
f 14/14/14 62/62/62 16/16/16
f 62/62/62 18/18/18 16/16/16
f 62/62/62 63/63/63 18/18/18
f 63/63/63 20/20/20 18/18/18
f 63/63/63 64/64/64 20/20/20
f 64/64/64 22/22/22 20/20/20
f 64/64/64 35/35/35 22/22/22
f 64/64/64 65/65/65 35/35/35
f 65/65/65 66/66/66 35/35/35
f 35/35/35 66/66/66 34/34/34
f 66/66/66 67/67/67 34/34/34
f 34/34/34 67/67/67 33/33/33
f 67/67/67 68/68/68 33/33/33
f 33/33/33 68/68/68 36/36/36
f 68/68/68 69/69/69 36/36/36
f 36/36/36 69/69/69 37/37/37
f 69/69/69 70/70/70 37/37/37
f 37/37/37 70/70/70 38/38/38
f 70/70/70 71/71/71 38/38/38
f 38/38/38 71/71/71 39/39/39
f 71/71/71 72/72/72 39/39/39
f 39/39/39 72/72/72 40/40/40
f 72/72/72 73/73/73 40/40/40
f 40/40/40 73/73/73 41/41/41
f 73/73/73 74/74/74 41/41/41
f 41/41/41 74/74/74 42/42/42
f 74/74/74 75/75/75 42/42/42
f 42/42/42 75/75/75 43/43/43
f 75/75/75 76/76/76 43/43/43
f 43/43/43 76/76/76 44/44/44
f 76/76/76 77/77/77 44/44/44
f 44/44/44 77/77/77 45/45/45
f 77/77/77 78/78/78 45/45/45
f 45/45/45 78/78/78 46/46/46
f 78/78/78 79/79/79 46/46/46
f 46/46/46 79/79/79 47/47/47
f 79/79/79 80/80/80 47/47/47
f 47/47/47 80/80/80 48/48/48
f 80/80/80 81/81/81 48/48/48
f 48/48/48 81/81/81 49/49/49
f 81/81/81 82/82/82 49/49/49
f 49/49/49 82/82/82 50/50/50
f 82/82/82 83/83/83 50/50/50
f 50/50/50 83/83/83 51/51/51
f 83/83/83 84/84/84 51/51/51
f 51/51/51 84/84/84 52/52/52
f 84/84/84 85/85/85 52/52/52
f 52/52/52 85/85/85 53/53/53
f 85/85/85 86/86/86 53/53/53
f 53/53/53 86/86/86 54/54/54
f 86/86/86 87/87/87 54/54/54
f 54/54/54 87/87/87 55/55/55
f 87/87/87 88/88/88 55/55/55
f 55/55/55 88/88/88 56/56/56
f 88/88/88 89/89/89 56/56/56
f 56/56/56 89/89/89 57/57/57
f 89/89/89 90/90/90 57/57/57
f 57/57/57 90/90/90 58/58/58
f 90/90/90 91/91/91 58/58/58
f 58/58/58 91/91/91 59/59/59
f 91/91/91 92/92/92 59/59/59
f 59/59/59 92/92/92 60/60/60
f 92/92/92 93/93/93 60/60/60
f 60/60/60 93/93/93 61/61/61
f 93/93/93 94/94/94 61/61/61
f 61/61/61 94/94/94 62/62/62
f 94/94/94 95/95/95 62/62/62
f 62/62/62 95/95/95 63/63/63
f 95/95/95 96/96/96 63/63/63
f 63/63/63 96/96/96 64/64/64
f 96/96/96 65/65/65 64/64/64
f 96/96/96 97/97/97 65/65/65
f 97/97/97 98/98/98 65/65/65
f 65/65/65 98/98/98 66/66/66
f 98/98/98 99/99/99 66/66/66
f 66/66/66 99/99/99 67/67/67
f 99/99/99 100/100/100 67/67/67
f 67/67/67 100/100/100 68/68/68
f 100/100/100 101/101/101 68/68/68
f 68/68/68 101/101/101 69/69/69
f 101/101/101 102/102/102 69/69/69
f 69/69/69 102/102/102 70/70/70
f 102/102/102 103/103/103 70/70/70
f 70/70/70 103/103/103 71/71/71
f 103/103/103 104/104/104 71/71/71
f 71/71/71 104/104/104 72/72/72
f 104/104/104 105/105/105 72/72/72
f 72/72/72 105/105/105 73/73/73
f 105/105/105 106/106/106 73/73/73
f 73/73/73 106/106/106 74/74/74
f 106/106/106 107/107/107 74/74/74
f 74/74/74 107/107/107 75/75/75
f 107/107/107 108/108/108 75/75/75
f 75/75/75 108/108/108 76/76/76
f 108/108/108 109/109/109 76/76/76
f 76/76/76 109/109/109 77/77/77
f 109/109/109 110/110/110 77/77/77
f 77/77/77 110/110/110 78/78/78
f 110/110/110 111/111/111 78/78/78
f 78/78/78 111/111/111 79/79/79
f 111/111/111 112/112/112 79/79/79
f 79/79/79 112/112/112 80/80/80
f 112/112/112 113/113/113 80/80/80
f 80/80/80 113/113/113 81/81/81
f 113/113/113 114/114/114 81/81/81
f 81/81/81 114/114/114 82/82/82
f 114/114/114 115/115/115 82/82/82
f 82/82/82 115/115/115 83/83/83
f 115/115/115 116/116/116 83/83/83
f 83/83/83 116/116/116 84/84/84
f 116/116/116 117/117/117 84/84/84
f 84/84/84 117/117/117 85/85/85
f 117/117/117 118/118/118 85/85/85
f 85/85/85 118/118/118 86/86/86
f 118/118/118 119/119/119 86/86/86
f 86/86/86 119/119/119 87/87/87
f 119/119/119 120/120/120 87/87/87
f 87/87/87 120/120/120 88/88/88
f 120/120/120 121/121/121 88/88/88
f 88/88/88 121/121/121 89/89/89
f 121/121/121 122/122/122 89/89/89
f 89/89/89 122/122/122 90/90/90
f 122/122/122 123/123/123 90/90/90
f 90/90/90 123/123/123 91/91/91
f 123/123/123 124/124/124 91/91/91
f 91/91/91 124/124/124 92/92/92
f 124/124/124 125/125/125 92/92/92
f 92/92/92 125/125/125 93/93/93
f 125/125/125 126/126/126 93/93/93
f 93/93/93 126/126/126 94/94/94
f 126/126/126 127/127/127 94/94/94
f 94/94/94 127/127/127 95/95/95
f 127/127/127 128/128/128 95/95/95
f 95/95/95 128/128/128 96/96/96
f 128/128/128 97/97/97 96/96/96
