g Face2_Body_LOD1
v -2.726068 3.27367 -2.0119
v -2.455707 3.079624 -2.76297
v 2.455708 3.079624 -2.76297
v 2.726068 3.27367 -2.0119
v -2.455707 -3.079624 -2.76297
v -2.726068 -3.27367 -2.0119
v 2.726068 -3.27367 -2.0119
v 2.455708 -3.079624 -2.76297
v -3.099442E-06 -0.01111746 -3.014149
v -3.099442E-06 -0.01111746 -3.014149
v -3.099442E-06 -0.01111746 -3.014149
v -3.099442E-06 -0.01111746 -3.014149
v 2.455708 -3.079624 2.76297
v 2.726068 -3.27367 2.0119
v -2.726068 -3.27367 2.0119
v -2.455707 -3.079624 2.76297
v -2.455707 3.079624 2.76297
v -2.726068 3.27367 2.0119
v 2.726068 3.27367 2.0119
v 2.455708 3.079624 2.76297
v -3.099442E-06 -0.01111746 3.014149
v -3.099442E-06 -0.01111746 3.014149
v -3.099442E-06 -0.01111746 3.014149
v -3.099442E-06 -0.01111746 3.014149
vt 0.9865412 0.4490915
vt 0.9577231 0.4187909
vt 0.6993825 0.4187909
vt 0.6702679 0.4488394
vt 0.9563593 0.0459189
vt 0.9857704 0.01533667
vt 0.6713352 0.01533667
vt 0.7007464 0.0459189
vt 0.8285602 0.230361
vt 0.8285602 0.230361
vt 0.8285602 0.230361
vt 0.8285602 0.230361
vt 0.9563593 0.0459189
vt 0.9857704 0.01533667
vt 0.6713352 0.01533667
vt 0.7007464 0.0459189
vt 0.6993825 0.4187909
vt 0.6705644 0.4490915
vt 0.9868377 0.4488394
vt 0.9577231 0.4187909
vt 0.8285602 0.230361
vt 0.8285602 0.230361
vt 0.8285602 0.230361
vt 0.8285602 0.230361
vn -0.7292469 0.5510341 -0.4056605
vn -0.4384036 0.3828012 -0.8131824
vn 0.4384035 0.3828012 -0.8131824
vn 0.7292469 0.5510341 -0.4056605
vn -0.4398292 -0.3828011 -0.8124122
vn -0.7292469 -0.551034 -0.4056606
vn 0.7292469 -0.551034 -0.4056606
vn 0.4398292 -0.3828011 -0.8124122
vn -0.0007128716 -0.0007128119 -0.9999995
vn -0.0007128716 -0.0007128119 -0.9999995
vn -0.0007128716 -0.0007128119 -0.9999995
vn -0.0007128716 -0.0007128119 -0.9999995
vn 0.4398292 -0.3828011 0.8124122
vn 0.7292469 -0.551034 0.4056606
vn -0.7292469 -0.551034 0.4056606
vn -0.4398292 -0.3828011 0.8124122
vn -0.4384036 0.3828012 0.8131824
vn -0.7292469 0.5510341 0.4056605
vn 0.7292469 0.5510341 0.4056605
vn 0.4384035 0.3828012 0.8131824
vn -0.0007128716 -0.0007128119 0.9999995
vn -0.0007128716 -0.0007128119 0.9999995
vn -0.0007128716 -0.0007128119 0.9999995
vn -0.0007128716 -0.0007128119 0.9999995
g Face2_Body_LOD1_0
f 3/3/3 2/2/2 1/1/1
f 4/4/4 3/3/3 1/1/1
f 2/2/2 5/5/5 1/1/1
f 5/5/5 6/6/6 1/1/1
f 7/7/7 6/6/6 5/5/5
f 4/4/4 7/7/7 3/3/3
f 8/8/8 7/7/7 5/5/5
f 7/7/7 8/8/8 3/3/3
f 3/3/3 8/8/8 9/9/9
f 2/2/2 3/3/3 10/10/10
f 2/2/2 11/11/11 5/5/5
f 8/8/8 5/5/5 12/12/12
f 15/15/15 14/14/14 13/13/13
f 16/16/16 15/15/15 13/13/13
f 16/16/16 17/17/17 15/15/15
f 17/17/17 18/18/18 15/15/15
f 19/19/19 18/18/18 17/17/17
f 14/14/14 19/19/19 13/13/13
f 20/20/20 19/19/19 17/17/17
f 19/19/19 20/20/20 13/13/13
f 20/20/20 21/21/21 13/13/13
f 17/17/17 22/22/22 20/20/20
f 17/17/17 16/16/16 23/23/23
f 13/13/13 24/24/24 16/16/16
