g Face0_Body_LOD0
v -2.347671 3.371701 -2.45709
v -1.381944 3.371701 -2.45709
v -1.416952 3.457112 -2.011902
v -2.407141 3.457112 -2.011902
v -2.60786 3.247741 -2.45709
v -2.673925 3.33002 -2.011902
v -2.709578 3.137834 -2.45709
v -2.778214 3.217324 -2.011902
v -1.427146 3.182699 -2.762969
v -2.275599 3.182699 -2.762969
v -2.455712 3.079623 -2.762969
v -1.162407 3.306955 -2.45709
v -1.242984 3.118177 -2.762969
v -0.9556472 2.860058 -2.762969
v -0.8591979 3.047939 -2.45709
v -0.8809645 3.125147 -2.011902
v -1.191855 3.390724 -2.011902
v 0.8809648 3.125147 -2.011902
v 0.8592048 3.047939 -2.45709
v 0.9556475 2.860058 -2.762969
v 1.191855 3.390724 -2.011902
v 1.162406 3.306955 -2.45709
v 1.242984 3.118177 -2.762969
v 1.427146 3.182699 -2.762969
v 1.381945 3.371701 -2.45709
v 2.347671 3.371701 -2.45709
v 2.407141 3.457112 -2.011902
v 1.416952 3.457112 -2.011902
v 2.673925 3.33002 -2.011902
v 2.607861 3.247741 -2.45709
v 2.709578 3.137834 -2.45709
v 2.778214 3.217324 -2.011902
v 2.275599 3.182699 -2.762969
v 2.455712 3.079623 -2.762969
v 1.348118 1.42642 -3.014145
v 2.540339 2.875666 -2.762969
v 2.826277 2.893094 -2.45709
v 2.826277 -2.893094 -2.45709
v 2.897874 -2.966379 -2.011902
v 2.897874 2.966378 -2.011902
v 2.540339 -2.875666 -2.762969
v 2.778214 -3.217324 -2.011902
v 2.709578 -3.137834 -2.45709
v 2.673925 -3.33002 -2.011902
v 2.607861 -3.247741 -2.45709
v 2.407141 -3.457112 -2.011902
v 2.347671 -3.371701 -2.45709
v 1.386442 -3.457112 -2.011902
v 1.352193 -3.371701 -2.45709
v 2.275599 -3.182699 -2.762969
v 1.3975 -3.182699 -2.762969
v 2.455712 -3.079623 -2.762969
v 1.203454 -3.118177 -2.762969
v 1.122737 -3.306955 -2.45709
v 0.8393703 -3.077684 -2.45709
v 0.8606291 -3.155651 -2.011902
v -0.8606288 -3.155651 -2.011902
v -0.83937 -3.077684 -2.45709
v -1.151183 -3.390724 -2.011902
v -1.122738 -3.306955 -2.45709
v -1.203454 -3.118177 -2.762969
v -0.9358852 -2.889704 -2.762969
v 0.9358854 -2.889704 -2.762969
v -1.352193 -3.371701 -2.45709
v -1.3975 -3.182699 -2.762969
v -2.275599 -3.182699 -2.762969
v -2.347671 -3.371701 -2.45709
v -2.407141 -3.457112 -2.011902
v -1.386448 -3.457112 -2.011902
v -2.673925 -3.33002 -2.011902
v -2.60786 -3.247741 -2.45709
v -2.778214 -3.217324 -2.011902
v -2.709578 -3.137834 -2.45709
v -2.455712 -3.079623 -2.762969
v -2.540339 -2.875666 -2.762969
v -2.826277 -2.893094 -2.45709
v -2.540339 2.875666 -2.762969
v -2.826277 2.893094 -2.45709
v -2.897874 2.966378 -2.011902
v -2.897874 -2.966379 -2.011902
v -1.348111 1.42642 -3.014145
v -1.340706 -1.448655 -3.014145
v 1.3407 -1.448655 -3.014145
v 1.151184 -3.390724 -2.011902
v -2.347671 3.371701 2.45709
v -2.407141 3.457112 2.011902
v -1.416952 3.457112 2.011902
v -1.381944 3.371701 2.45709
v -2.60786 3.247741 2.45709
v -2.673925 3.33002 2.011902
v -2.709578 3.137834 2.45709
v -2.778214 3.217324 2.011902
v -1.427146 3.182699 2.762969
v -2.275599 3.182699 2.762969
v -2.455712 3.079623 2.762969
v -1.162407 3.306955 2.45709
v -1.242984 3.118177 2.762969
v -0.9556472 2.860058 2.762969
v -0.8591979 3.047939 2.45709
v -0.8809645 3.125147 2.011902
v -1.191855 3.390724 2.011902
v 0.8809648 3.125147 2.011902
v 0.8592048 3.047939 2.45709
v 0.9556475 2.860058 2.762969
v 1.191855 3.390724 2.011902
v 1.162406 3.306955 2.45709
v 1.242984 3.118177 2.762969
v 1.427146 3.182699 2.762969
v 1.381945 3.371701 2.45709
v 2.347671 3.371701 2.45709
v 2.407141 3.457112 2.011902
v 1.416952 3.457112 2.011902
v 2.673925 3.33002 2.011902
v 2.607861 3.247741 2.45709
v 2.709578 3.137834 2.45709
v 2.778214 3.217324 2.011902
v 2.275599 3.182699 2.762969
v 2.455712 3.079623 2.762969
v 1.348118 1.42642 3.014145
v 2.540339 2.875666 2.762969
v 2.826277 2.893094 2.45709
v 2.826277 -2.893094 2.45709
v 2.897874 -2.966379 2.011902
v 2.897874 2.966378 2.011902
v 2.540339 -2.875666 2.762969
v 2.778214 -3.217324 2.011902
v 2.709578 -3.137834 2.45709
v 2.673925 -3.33002 2.011902
v 2.607861 -3.247741 2.45709
v 2.407141 -3.457112 2.011902
v 2.347671 -3.371701 2.45709
v 1.386442 -3.457112 2.011902
v 1.352193 -3.371701 2.45709
v 2.275599 -3.182699 2.762969
v 1.3975 -3.182699 2.762969
v 2.455712 -3.079623 2.762969
v 1.203454 -3.118177 2.762969
v 1.122737 -3.306955 2.45709
v 0.8393703 -3.077684 2.45709
v 0.8606291 -3.155651 2.011902
v -0.8606288 -3.155651 2.011902
v -0.83937 -3.077684 2.45709
v -1.151183 -3.390724 2.011902
v -1.122738 -3.306955 2.45709
v -1.203454 -3.118177 2.762969
v -0.9358852 -2.889704 2.762969
v 0.9358854 -2.889704 2.762969
v -1.352193 -3.371701 2.45709
v -1.3975 -3.182699 2.762969
v -2.275599 -3.182699 2.762969
v -2.347671 -3.371701 2.45709
v -2.407141 -3.457112 2.011902
v -1.386448 -3.457112 2.011902
v -2.673925 -3.33002 2.011902
v -2.60786 -3.247741 2.45709
v -2.778214 -3.217324 2.011902
v -2.709578 -3.137834 2.45709
v -2.455712 -3.079623 2.762969
v -2.540339 -2.875666 2.762969
v -2.826277 -2.893094 2.45709
v -2.540339 2.875666 2.762969
v -2.826277 2.893094 2.45709
v -2.897874 2.966378 2.011902
v -2.897874 -2.966379 2.011902
v -1.348111 1.42642 3.014145
v -1.340706 -1.448655 3.014145
v 1.3407 -1.448655 3.014145
v 1.151184 -3.390724 2.011902
vt 0.9562057 0.9549887
vt 0.90649 0.9547032
vt 0.9068205 0.9689614
vt 0.9628764 0.9692618
vt 0.9698478 0.9481977
vt 0.9801545 0.9650099
vt 0.9754819 0.9407306
vt 0.9929402 0.9540572
vt 0.9051979 0.935472
vt 0.9469957 0.935472
vt 0.9577231 0.9292369
vt 0.8941249 0.950902
vt 0.8953119 0.9315657
vt 0.8793409 0.9159403
vt 0.8747585 0.9344503
vt 0.8728354 0.9473262
vt 0.8934038 0.9648897
vt 0.7842818 0.9473262
vt 0.7823436 0.9344503
vt 0.7777612 0.9159403
vt 0.7636984 0.9648897
vt 0.7629772 0.950902
vt 0.7618053 0.9315657
vt 0.7519042 0.935472
vt 0.7506121 0.9547032
vt 0.7008965 0.9549887
vt 0.6942407 0.9692618
vt 0.7502967 0.9689614
vt 0.6768124 0.9651151
vt 0.6871341 0.9483028
vt 0.6812146 0.9401596
vt 0.6637262 0.9534411
vt 0.7101215 0.935472
vt 0.699379 0.9292369
vt 0.7574031 0.8284835
vt 0.6963441 0.9168869
vt 0.6765119 0.9158051
vt 0.6764969 0.5706352
vt 0.6584376 0.5697037
vt 0.6584526 0.9167967
vt 0.6963441 0.5687121
vt 0.6654691 0.5309859
vt 0.6827771 0.5443425
vt 0.6772181 0.520574
vt 0.6875098 0.5373862
vt 0.6942407 0.5169381
vt 0.7008965 0.5311662
vt 0.7547138 0.5164123
vt 0.7550293 0.5306854
vt 0.7101215 0.5501269
vt 0.7558106 0.5501269
vt 0.7007462 0.556362
vt 0.7682508 0.5540333
vt 0.7691672 0.5359139
vt 0.7767696 0.5461605
vt 0.7789181 0.532924
vt 0.8781841 0.532924
vt 0.8803326 0.5461605
vt 0.8872738 0.5219863
vt 0.8879349 0.5359139
vt 0.8888664 0.5540333
vt 0.879356 0.56434
vt 0.7777461 0.56434
vt 0.9020728 0.5306854
vt 0.9012915 0.5501269
vt 0.9469957 0.5501269
vt 0.9562057 0.5311662
vt 0.9628764 0.5169381
vt 0.9023883 0.5164123
vt 0.979884 0.520574
vt 0.9696074 0.5373862
vt 0.9916481 0.5309859
vt 0.9743251 0.5443425
vt 0.9563709 0.556362
vt 0.9607731 0.5687121
vt 0.9806052 0.5706352
vt 0.9607731 0.9168869
vt 0.9806052 0.9158051
vt 0.9986645 0.9167967
vt 0.9986645 0.5697037
vt 0.899699 0.8284835
vt 0.899714 0.653119
vt 0.7574031 0.653119
vt 0.7698283 0.5219863
vt 0.7008965 0.9549887
vt 0.6942407 0.9692618
vt 0.7502967 0.9689614
vt 0.7506121 0.9547032
vt 0.6872544 0.9481977
vt 0.6769477 0.9650099
vt 0.6816202 0.9407306
vt 0.6641619 0.9540572
vt 0.7519042 0.935472
vt 0.7101215 0.935472
vt 0.699379 0.9292369
vt 0.7629772 0.950902
vt 0.7618053 0.9315657
vt 0.7777612 0.9159403
vt 0.7823436 0.9344503
vt 0.7842818 0.9473262
vt 0.7636984 0.9648897
vt 0.8728354 0.9473262
vt 0.8747585 0.9344503
vt 0.8793409 0.9159403
vt 0.8934038 0.9648897
vt 0.8941249 0.950902
vt 0.8953119 0.9315657
vt 0.9051979 0.935472
vt 0.90649 0.9547032
vt 0.9562057 0.9549887
vt 0.9628764 0.9692618
vt 0.9068205 0.9689614
vt 0.9802897 0.9651151
vt 0.969968 0.9483028
vt 0.9758876 0.9401596
vt 0.993391 0.9534411
vt 0.9469957 0.935472
vt 0.9577231 0.9292369
vt 0.899699 0.8284835
vt 0.9607731 0.9168869
vt 0.9806052 0.9182991
vt 0.9806052 0.5681412
vt 0.9986645 0.568682
vt 0.9986645 0.9178184
vt 0.9607731 0.5687121
vt 0.9916331 0.5309859
vt 0.9743251 0.5443425
vt 0.9798991 0.520574
vt 0.9696074 0.5373862
vt 0.9628764 0.5169381
vt 0.9562057 0.5311662
vt 0.9023883 0.5164123
vt 0.9020728 0.5306854
vt 0.9469957 0.5501269
vt 0.9012915 0.5501269
vt 0.9563709 0.556362
vt 0.8888664 0.5540333
vt 0.8879349 0.5359139
vt 0.8803326 0.5461605
vt 0.8781841 0.532924
vt 0.7789181 0.532924
vt 0.7767696 0.5461605
vt 0.7698283 0.5219863
vt 0.7691672 0.5359139
vt 0.7682508 0.5540333
vt 0.7777461 0.56434
vt 0.879356 0.56434
vt 0.7550293 0.5306854
vt 0.7558106 0.5501269
vt 0.7101215 0.5501269
vt 0.7008965 0.5311662
vt 0.6942407 0.5169381
vt 0.7547138 0.5164123
vt 0.6772181 0.520574
vt 0.6875098 0.5373862
vt 0.6654691 0.5309859
vt 0.6827771 0.5443425
vt 0.7007462 0.556362
vt 0.6963441 0.5687121
vt 0.6764969 0.5681412
vt 0.6963441 0.9168869
vt 0.6765119 0.9182991
vt 0.6584526 0.9178184
vt 0.6584376 0.568682
vt 0.7574031 0.8284835
vt 0.7574031 0.653119
vt 0.899714 0.653119
vt 0.8872738 0.5219863
vn -0.09353834 0.9382771 -0.3329965
vn 0.05689454 0.9402058 -0.3358216
vn 0.0472514 0.9807069 -0.1896875
vn -0.1070388 0.9729924 -0.2045202
vn -0.5043359 0.7878441 -0.3534784
vn -0.5294082 0.8167736 -0.2293642
vn -0.7936301 0.4599776 -0.398211
vn -0.8283454 0.5159077 -0.2183648
vn 0.02217925 0.4021187 -0.9153188
vn -0.04532272 0.4445485 -0.8946074
vn -0.2844725 0.2825438 -0.9161028
vn 0.5139792 0.8013446 -0.3060593
vn 0.2574717 0.4001901 -0.8795205
vn 0.02410787 0.2690435 -0.9628263
vn 0.1070389 0.928634 -0.3552205
vn 0.1378969 0.9768496 -0.163552
vn 0.5062647 0.8534175 -0.1239948
vn -0.1378968 0.9768496 -0.163552
vn -0.1070388 0.928634 -0.3552205
vn -0.02410775 0.2690435 -0.9628263
vn -0.5062646 0.8534175 -0.1239948
vn -0.5139791 0.8013446 -0.3060593
vn -0.2574717 0.4001901 -0.8795205
vn -0.02217919 0.4021187 -0.9153188
vn -0.05689448 0.9402058 -0.3358216
vn 0.09353846 0.9382771 -0.3329965
vn 0.1070389 0.9729924 -0.2045202
vn -0.04725128 0.9807069 -0.1896875
vn 0.5294082 0.8167736 -0.229364
vn 0.504336 0.7878441 -0.3534782
vn 0.7936301 0.4599776 -0.3982108
vn 0.8283454 0.5159077 -0.2183646
vn 0.04532278 0.4445485 -0.8946074
vn 0.2844725 0.2825438 -0.9161028
vn 0.08968121 0.02796501 -0.9955779
vn 0.488907 0.01060742 -0.8722714
vn 0.9112763 0.01446468 -0.4115413
vn 0.9112763 -0.01446474 -0.4115413
vn 0.9864928 -0.02217925 -0.162296
vn 0.9864928 0.02217919 -0.1622961
vn 0.4869784 -0.01060748 -0.8733496
vn 0.8283454 -0.5159078 -0.2183644
vn 0.7936301 -0.4599776 -0.3982108
vn 0.5294082 -0.8167737 -0.2293637
vn 0.504336 -0.7878442 -0.353478
vn 0.1051102 -0.974921 -0.1961653
vn 0.08968121 -0.9382771 -0.3340559
vn -0.04725128 -0.9826356 -0.1794287
vn -0.05496579 -0.9402058 -0.3361427
vn 0.04532278 -0.4484059 -0.8926802
vn -0.02217919 -0.4059761 -0.9136145
vn 0.2844725 -0.2844725 -0.9155057
vn -0.2381855 -0.4001902 -0.8849381
vn -0.4869784 -0.8167737 -0.3094073
vn -0.0973956 -0.9305626 -0.352941
vn -0.1263251 -0.9787783 -0.1613537
vn 0.1263251 -0.9787783 -0.1613537
vn 0.09739572 -0.9305626 -0.352941
vn 0.4773353 -0.8688465 -0.1313649
vn 0.4869784 -0.8167737 -0.3094073
vn 0.2381855 -0.4001902 -0.8849381
vn 0.02217925 -0.2671149 -0.9634094
vn -0.02217919 -0.2671149 -0.9634094
vn 0.05496591 -0.9402058 -0.3361427
vn 0.02217925 -0.4059761 -0.9136145
vn -0.04532272 -0.4484059 -0.8926802
vn -0.08968109 -0.9382771 -0.3340559
vn -0.1051101 -0.974921 -0.1961653
vn 0.0472514 -0.9826356 -0.1794287
vn -0.5294082 -0.8167737 -0.229364
vn -0.5043359 -0.7878442 -0.3534782
vn -0.8283454 -0.5159078 -0.2183647
vn -0.7936301 -0.4599776 -0.3982109
vn -0.2844725 -0.2844725 -0.9155057
vn -0.4869784 -0.01060748 -0.8733496
vn -0.9112763 -0.01446474 -0.4115413
vn -0.4889069 0.01060742 -0.8722714
vn -0.9112763 0.01446468 -0.4115413
vn -0.9864927 0.02217919 -0.1622968
vn -0.9864927 -0.02217925 -0.1622968
vn -0.08968109 0.02796501 -0.9955779
vn -0.08968109 -0.02796513 -0.9955778
vn 0.08968121 -0.02796513 -0.9955778
vn -0.4773352 -0.8688465 -0.1313651
vn -0.09353834 0.9382771 0.3329965
vn -0.1070388 0.9729924 0.2045202
vn 0.0472514 0.9807069 0.1896875
vn 0.05689454 0.9402058 0.3358216
vn -0.5043359 0.7878441 0.3534784
vn -0.5294082 0.8167736 0.2293642
vn -0.7936301 0.4599776 0.398211
vn -0.8283454 0.5159077 0.2183648
vn 0.02217925 0.4021187 0.9153188
vn -0.04532272 0.4445485 0.8946074
vn -0.2844725 0.2825438 0.9161028
vn 0.5139792 0.8013446 0.3060593
vn 0.2574717 0.4001901 0.8795205
vn 0.02410787 0.2690435 0.9628263
vn 0.1070389 0.928634 0.3552205
vn 0.1378969 0.9768496 0.163552
vn 0.5062647 0.8534175 0.1239948
vn -0.1378968 0.9768496 0.163552
vn -0.1070388 0.928634 0.3552205
vn -0.02410775 0.2690435 0.9628263
vn -0.5062646 0.8534175 0.1239948
vn -0.5139791 0.8013446 0.3060593
vn -0.2574717 0.4001901 0.8795205
vn -0.02217919 0.4021187 0.9153188
vn -0.05689448 0.9402058 0.3358216
vn 0.09353846 0.9382771 0.3329965
vn 0.1070389 0.9729924 0.2045202
vn -0.04725128 0.9807069 0.1896875
vn 0.5294082 0.8167736 0.229364
vn 0.504336 0.7878441 0.3534782
vn 0.7936301 0.4599776 0.3982108
vn 0.8283454 0.5159077 0.2183646
vn 0.04532278 0.4445485 0.8946074
vn 0.2844725 0.2825438 0.9161028
vn 0.08968121 0.02796501 0.9955779
vn 0.488907 0.01060742 0.8722714
vn 0.9112763 0.01446468 0.4115413
vn 0.9112763 -0.01446474 0.4115413
vn 0.9864928 -0.02217925 0.162296
vn 0.9864928 0.02217919 0.1622961
vn 0.4869784 -0.01060748 0.8733496
vn 0.8283454 -0.5159078 0.2183644
vn 0.7936301 -0.4599776 0.3982108
vn 0.5294082 -0.8167737 0.2293637
vn 0.504336 -0.7878442 0.353478
vn 0.1051102 -0.974921 0.1961653
vn 0.08968121 -0.9382771 0.3340559
vn -0.04725128 -0.9826356 0.1794287
vn -0.05496579 -0.9402058 0.3361427
vn 0.04532278 -0.4484059 0.8926802
vn -0.02217919 -0.4059761 0.9136145
vn 0.2844725 -0.2844725 0.9155057
vn -0.2381855 -0.4001902 0.8849381
vn -0.4869784 -0.8167737 0.3094073
vn -0.0973956 -0.9305626 0.352941
vn -0.1263251 -0.9787783 0.1613537
vn 0.1263251 -0.9787783 0.1613537
vn 0.09739572 -0.9305626 0.352941
vn 0.4773353 -0.8688465 0.1313649
vn 0.4869784 -0.8167737 0.3094073
vn 0.2381855 -0.4001902 0.8849381
vn 0.02217925 -0.2671149 0.9634094
vn -0.02217919 -0.2671149 0.9634094
vn 0.05496591 -0.9402058 0.3361427
vn 0.02217925 -0.4059761 0.9136145
vn -0.04532272 -0.4484059 0.8926802
vn -0.08968109 -0.9382771 0.3340559
vn -0.1051101 -0.974921 0.1961653
vn 0.0472514 -0.9826356 0.1794287
vn -0.5294082 -0.8167737 0.229364
vn -0.5043359 -0.7878442 0.3534782
vn -0.8283454 -0.5159078 0.2183647
vn -0.7936301 -0.4599776 0.3982109
vn -0.2844725 -0.2844725 0.9155057
vn -0.4869784 -0.01060748 0.8733496
vn -0.9112763 -0.01446474 0.4115413
vn -0.4889069 0.01060742 0.8722714
vn -0.9112763 0.01446468 0.4115413
vn -0.9864927 0.02217919 0.1622968
vn -0.9864927 -0.02217925 0.1622968
vn -0.08968109 0.02796501 0.9955779
vn -0.08968109 -0.02796513 0.9955778
vn 0.08968121 -0.02796513 0.9955778
vn -0.4773352 -0.8688465 0.1313651
g Face0_Body_LOD0_0
f 3/3/3 2/2/2 1/1/1
f 4/4/4 3/3/3 1/1/1
f 4/4/4 1/1/1 5/5/5
f 6/6/6 4/4/4 5/5/5
f 6/6/6 5/5/5 7/7/7
f 8/8/8 6/6/6 7/7/7
f 1/1/1 2/2/2 9/9/9
f 10/10/10 1/1/1 9/9/9
f 5/5/5 1/1/1 10/10/10
f 11/11/11 5/5/5 10/10/10
f 7/7/7 5/5/5 11/11/11
f 9/9/9 2/2/2 12/12/12
f 13/13/13 9/9/9 12/12/12
f 14/14/14 13/13/13 12/12/12
f 15/15/15 14/14/14 12/12/12
f 16/16/16 15/15/15 12/12/12
f 17/17/17 16/16/16 12/12/12
f 17/17/17 12/12/12 2/2/2
f 3/3/3 17/17/17 2/2/2
f 16/16/16 18/18/18 15/15/15
f 18/18/18 19/19/19 15/15/15
f 20/20/20 14/14/14 15/15/15
f 19/19/19 20/20/20 15/15/15
f 18/18/18 21/21/21 19/19/19
f 21/21/21 22/22/22 19/19/19
f 20/20/20 19/19/19 22/22/22
f 23/23/23 20/20/20 22/22/22
f 24/24/24 23/23/23 22/22/22
f 25/25/25 24/24/24 22/22/22
f 25/25/25 26/26/26 24/24/24
f 27/27/27 26/26/26 25/25/25
f 28/28/28 27/27/27 25/25/25
f 28/28/28 25/25/25 22/22/22
f 21/21/21 28/28/28 22/22/22
f 27/27/27 29/29/29 26/26/26
f 29/29/29 30/30/30 26/26/26
f 31/31/31 30/30/30 29/29/29
f 32/32/32 31/31/31 29/29/29
f 26/26/26 33/33/33 24/24/24
f 26/26/26 30/30/30 33/33/33
f 30/30/30 34/34/34 33/33/33
f 30/30/30 31/31/31 34/34/34
f 23/23/23 24/24/24 35/35/35
f 23/23/23 35/35/35 20/20/20
f 35/35/35 33/33/33 34/34/34
f 35/35/35 24/24/24 33/33/33
f 36/36/36 35/35/35 34/34/34
f 37/37/37 36/36/36 34/34/34
f 31/31/31 37/37/37 34/34/34
f 37/37/37 38/38/38 36/36/36
f 39/39/39 38/38/38 37/37/37
f 40/40/40 39/39/39 37/37/37
f 40/40/40 37/37/37 31/31/31
f 32/32/32 40/40/40 31/31/31
f 38/38/38 41/41/41 36/36/36
f 39/39/39 42/42/42 38/38/38
f 42/42/42 43/43/43 38/38/38
f 38/38/38 43/43/43 41/41/41
f 42/42/42 44/44/44 43/43/43
f 44/44/44 45/45/45 43/43/43
f 44/44/44 46/46/46 45/45/45
f 46/46/46 47/47/47 45/45/45
f 46/46/46 48/48/48 47/47/47
f 48/48/48 49/49/49 47/47/47
f 50/50/50 47/47/47 49/49/49
f 51/51/51 50/50/50 49/49/49
f 52/52/52 45/45/45 47/47/47
f 50/50/50 52/52/52 47/47/47
f 45/45/45 52/52/52 43/43/43
f 43/43/43 52/52/52 41/41/41
f 53/53/53 51/51/51 49/49/49
f 54/54/54 53/53/53 49/49/49
f 54/54/54 55/55/55 53/53/53
f 56/56/56 55/55/55 54/54/54
f 56/56/56 57/57/57 55/55/55
f 57/57/57 58/58/58 55/55/55
f 57/57/57 59/59/59 58/58/58
f 59/59/59 60/60/60 58/58/58
f 58/58/58 60/60/60 61/61/61
f 62/62/62 58/58/58 61/61/61
f 55/55/55 58/58/58 62/62/62
f 63/63/63 55/55/55 62/62/62
f 55/55/55 63/63/63 53/53/53
f 61/61/61 60/60/60 64/64/64
f 65/65/65 61/61/61 64/64/64
f 66/66/66 65/65/65 64/64/64
f 67/67/67 66/66/66 64/64/64
f 68/68/68 67/67/67 64/64/64
f 69/69/69 68/68/68 64/64/64
f 69/69/69 64/64/64 60/60/60
f 59/59/59 69/69/69 60/60/60
f 68/68/68 70/70/70 67/67/67
f 70/70/70 71/71/71 67/67/67
f 70/70/70 72/72/72 71/71/71
f 72/72/72 73/73/73 71/71/71
f 74/74/74 66/66/66 67/67/67
f 71/71/71 74/74/74 67/67/67
f 71/71/71 73/73/73 74/74/74
f 74/74/74 73/73/73 75/75/75
f 73/73/73 76/76/76 75/75/75
f 75/75/75 76/76/76 77/77/77
f 76/76/76 78/78/78 77/77/77
f 79/79/79 78/78/78 76/76/76
f 80/80/80 79/79/79 76/76/76
f 80/80/80 76/76/76 73/73/73
f 72/72/72 80/80/80 73/73/73
f 79/79/79 8/8/8 78/78/78
f 8/8/8 7/7/7 78/78/78
f 78/78/78 7/7/7 11/11/11
f 77/77/77 78/78/78 11/11/11
f 11/11/11 81/81/81 77/77/77
f 77/77/77 81/81/81 75/75/75
f 81/81/81 11/11/11 10/10/10
f 10/10/10 9/9/9 81/81/81
f 81/81/81 9/9/9 13/13/13
f 75/75/75 82/82/82 74/74/74
f 81/81/81 82/82/82 75/75/75
f 82/82/82 81/81/81 83/83/83
f 81/81/81 35/35/35 83/83/83
f 83/83/83 35/35/35 36/36/36
f 41/41/41 83/83/83 36/36/36
f 52/52/52 83/83/83 41/41/41
f 83/83/83 52/52/52 50/50/50
f 50/50/50 51/51/51 83/83/83
f 83/83/83 51/51/51 53/53/53
f 63/63/63 83/83/83 53/53/53
f 82/82/82 83/83/83 63/63/63
f 14/14/14 81/81/81 13/13/13
f 81/81/81 14/14/14 35/35/35
f 14/14/14 20/20/20 35/35/35
f 62/62/62 82/82/82 63/63/63
f 61/61/61 82/82/82 62/62/62
f 65/65/65 82/82/82 61/61/61
f 66/66/66 82/82/82 65/65/65
f 74/74/74 82/82/82 66/66/66
f 84/84/84 56/56/56 54/54/54
f 84/84/84 54/54/54 49/49/49
f 48/48/48 84/84/84 49/49/49
f 87/87/87 86/86/86 85/85/85
f 88/88/88 87/87/87 85/85/85
f 85/85/85 86/86/86 89/89/89
f 86/86/86 90/90/90 89/89/89
f 89/89/89 90/90/90 91/91/91
f 90/90/90 92/92/92 91/91/91
f 88/88/88 85/85/85 93/93/93
f 85/85/85 94/94/94 93/93/93
f 85/85/85 89/89/89 94/94/94
f 89/89/89 95/95/95 94/94/94
f 89/89/89 91/91/91 95/95/95
f 88/88/88 93/93/93 96/96/96
f 93/93/93 97/97/97 96/96/96
f 97/97/97 98/98/98 96/96/96
f 98/98/98 99/99/99 96/96/96
f 99/99/99 100/100/100 96/96/96
f 100/100/100 101/101/101 96/96/96
f 101/101/101 87/87/87 88/88/88
f 96/96/96 101/101/101 88/88/88
f 102/102/102 100/100/100 99/99/99
f 103/103/103 102/102/102 99/99/99
f 104/104/104 103/103/103 99/99/99
f 98/98/98 104/104/104 99/99/99
f 105/105/105 102/102/102 103/103/103
f 106/106/106 105/105/105 103/103/103
f 103/103/103 104/104/104 106/106/106
f 104/104/104 107/107/107 106/106/106
f 107/107/107 108/108/108 106/106/106
f 108/108/108 109/109/109 106/106/106
f 110/110/110 109/109/109 108/108/108
f 110/110/110 111/111/111 109/109/109
f 111/111/111 112/112/112 109/109/109
f 112/112/112 105/105/105 106/106/106
f 109/109/109 112/112/112 106/106/106
f 113/113/113 111/111/111 110/110/110
f 114/114/114 113/113/113 110/110/110
f 114/114/114 115/115/115 113/113/113
f 115/115/115 116/116/116 113/113/113
f 117/117/117 110/110/110 108/108/108
f 114/114/114 110/110/110 117/117/117
f 118/118/118 114/114/114 117/117/117
f 115/115/115 114/114/114 118/118/118
f 108/108/108 107/107/107 119/119/119
f 119/119/119 107/107/107 104/104/104
f 117/117/117 119/119/119 118/118/118
f 108/108/108 119/119/119 117/117/117
f 119/119/119 120/120/120 118/118/118
f 121/121/121 115/115/115 118/118/118
f 120/120/120 121/121/121 118/118/118
f 122/122/122 121/121/121 120/120/120
f 122/122/122 123/123/123 121/121/121
f 123/123/123 124/124/124 121/121/121
f 124/124/124 116/116/116 115/115/115
f 121/121/121 124/124/124 115/115/115
f 125/125/125 122/122/122 120/120/120
f 126/126/126 123/123/123 122/122/122
f 127/127/127 126/126/126 122/122/122
f 127/127/127 122/122/122 125/125/125
f 128/128/128 126/126/126 127/127/127
f 129/129/129 128/128/128 127/127/127
f 130/130/130 128/128/128 129/129/129
f 131/131/131 130/130/130 129/129/129
f 132/132/132 130/130/130 131/131/131
f 133/133/133 132/132/132 131/131/131
f 131/131/131 134/134/134 133/133/133
f 134/134/134 135/135/135 133/133/133
f 136/136/136 134/134/134 131/131/131
f 129/129/129 136/136/136 131/131/131
f 136/136/136 129/129/129 127/127/127
f 136/136/136 127/127/127 125/125/125
f 135/135/135 137/137/137 133/133/133
f 137/137/137 138/138/138 133/133/133
f 139/139/139 138/138/138 137/137/137
f 139/139/139 140/140/140 138/138/138
f 141/141/141 140/140/140 139/139/139
f 142/142/142 141/141/141 139/139/139
f 143/143/143 141/141/141 142/142/142
f 144/144/144 143/143/143 142/142/142
f 144/144/144 142/142/142 145/145/145
f 142/142/142 146/146/146 145/145/145
f 142/142/142 139/139/139 146/146/146
f 139/139/139 147/147/147 146/146/146
f 147/147/147 139/139/139 137/137/137
f 144/144/144 145/145/145 148/148/148
f 145/145/145 149/149/149 148/148/148
f 149/149/149 150/150/150 148/148/148
f 150/150/150 151/151/151 148/148/148
f 151/151/151 152/152/152 148/148/148
f 152/152/152 153/153/153 148/148/148
f 153/153/153 143/143/143 144/144/144
f 148/148/148 153/153/153 144/144/144
f 154/154/154 152/152/152 151/151/151
f 155/155/155 154/154/154 151/151/151
f 156/156/156 154/154/154 155/155/155
f 157/157/157 156/156/156 155/155/155
f 158/158/158 155/155/155 151/151/151
f 150/150/150 158/158/158 151/151/151
f 157/157/157 155/155/155 158/158/158
f 157/157/157 158/158/158 159/159/159
f 160/160/160 157/157/157 159/159/159
f 160/160/160 159/159/159 161/161/161
f 162/162/162 160/160/160 161/161/161
f 162/162/162 163/163/163 160/160/160
f 163/163/163 164/164/164 160/160/160
f 164/164/164 156/156/156 157/157/157
f 160/160/160 164/164/164 157/157/157
f 92/92/92 163/163/163 162/162/162
f 91/91/91 92/92/92 162/162/162
f 162/162/162 161/161/161 95/95/95
f 91/91/91 162/162/162 95/95/95
f 165/165/165 95/95/95 161/161/161
f 165/165/165 161/161/161 159/159/159
f 95/95/95 165/165/165 94/94/94
f 93/93/93 94/94/94 165/165/165
f 93/93/93 165/165/165 97/97/97
f 166/166/166 159/159/159 158/158/158
f 166/166/166 165/165/165 159/159/159
f 165/165/165 166/166/166 167/167/167
f 119/119/119 165/165/165 167/167/167
f 119/119/119 167/167/167 120/120/120
f 167/167/167 125/125/125 120/120/120
f 167/167/167 136/136/136 125/125/125
f 136/136/136 167/167/167 134/134/134
f 135/135/135 134/134/134 167/167/167
f 135/135/135 167/167/167 137/137/137
f 167/167/167 147/147/147 137/137/137
f 167/167/167 166/166/166 147/147/147
f 165/165/165 98/98/98 97/97/97
f 98/98/98 165/165/165 119/119/119
f 104/104/104 98/98/98 119/119/119
f 166/166/166 146/146/146 147/147/147
f 166/166/166 145/145/145 146/146/146
f 166/166/166 149/149/149 145/145/145
f 166/166/166 150/150/150 149/149/149
f 166/166/166 158/158/158 150/150/150
f 140/140/140 168/168/168 138/138/138
f 138/138/138 168/168/168 133/133/133
f 168/168/168 132/132/132 133/133/133
