g Face2_Body_LOD1
v 2.455708 3.079624 2.76297
v 2.726068 3.27367 2.0119
v 2.726068 -3.27367 2.0119
v 2.455708 -3.079624 2.76297
v -2.726068 -3.27367 2.0119
v -2.455707 -3.079624 2.76297
v -2.726068 3.27367 2.0119
v -2.455707 3.079624 2.76297
v -3.099442E-06 3.099442E-06 2.76297
v 2.455708 -3.079624 -2.76297
v 2.726068 -3.27367 -2.0119
v 2.726068 3.27367 -2.0119
v 2.455708 3.079624 -2.76297
v -2.455707 -3.079624 -2.76297
v -2.726068 -3.27367 -2.0119
v -2.455707 3.079624 -2.76297
v -3.099442E-06 3.099442E-06 -2.76297
v -2.726068 3.27367 -2.0119
vt 0.9577231 0.4187909
vt 0.9868377 0.4488395
vt 0.9857705 0.01533672
vt 0.9563593 0.04591896
vt 0.6707867 0.01533672
vt 0.7001979 0.04591896
vt 0.6697195 0.4488395
vt 0.6988341 0.4187909
vt 0.8275967 0.2323624
vt 0.9563593 0.04591896
vt 0.9857705 0.01533672
vt 0.9868377 0.4488395
vt 0.9577231 0.4187909
vt 0.7001979 0.04591896
vt 0.6707867 0.01533672
vt 0.6988341 0.4187909
vt 0.8275967 0.2323624
vt 0.6697195 0.4488395
vn 0.4241465 0.3642669 0.8291016
vn 0.7292468 0.551034 0.4056607
vn 0.7292468 -0.551034 0.4056608
vn 0.4241465 -0.364267 0.8291015
vn -0.7292468 -0.551034 0.4056608
vn -0.4241465 -0.364267 0.8291015
vn -0.7292468 0.551034 0.4056607
vn -0.4241465 0.3642669 0.8291016
vn -0.0007128716 0.0007128716 0.9999995
vn 0.4241465 -0.364267 -0.8291015
vn 0.7292468 -0.551034 -0.4056608
vn 0.7292468 0.551034 -0.4056607
vn 0.4241465 0.3642669 -0.8291016
vn -0.4241465 -0.364267 -0.8291015
vn -0.7292468 -0.551034 -0.4056608
vn -0.4241465 0.3642669 -0.8291016
vn -0.0007128716 0.0007128716 -0.9999995
vn -0.7292468 0.551034 -0.4056607
g Face2_Body_LOD1_0
f 3/3/3 2/2/2 1/1/1
f 4/4/4 3/3/3 1/1/1
f 3/3/3 4/4/4 5/5/5
f 4/4/4 6/6/6 5/5/5
f 2/2/2 7/7/7 1/1/1
f 7/7/7 8/8/8 1/1/1
f 8/8/8 7/7/7 5/5/5
f 6/6/6 8/8/8 5/5/5
f 9/9/9 1/1/1 8/8/8
f 6/6/6 9/9/9 8/8/8
f 6/6/6 4/4/4 9/9/9
f 9/9/9 4/4/4 1/1/1
f 12/12/12 11/11/11 10/10/10
f 13/13/13 12/12/12 10/10/10
f 10/10/10 11/11/11 14/14/14
f 11/11/11 15/15/15 14/14/14
f 13/13/13 16/16/16 12/12/12
f 17/17/17 14/14/14 16/16/16
f 17/17/17 16/16/16 13/13/13
f 13/13/13 10/10/10 17/17/17
f 17/17/17 10/10/10 14/14/14
f 16/16/16 18/18/18 12/12/12
f 14/14/14 15/15/15 18/18/18
f 16/16/16 14/14/14 18/18/18
