g Face1_Body_LOD1
v 2.455708 3.079624 -2.76297
v 2.726068 3.27367 -2.0119
v -2.726068 3.27367 -2.0119
v -2.455707 3.079624 -2.76297
v -2.726068 -3.27367 -2.0119
v -2.455707 -3.079624 -2.76297
v 2.726068 -3.27367 -2.0119
v 2.455708 -3.079624 -2.76297
v -2.455707 -3.079624 2.76297
v -2.726068 -3.27367 2.0119
v -2.726068 3.27367 2.0119
v -2.455707 3.079624 2.76297
v 2.726068 3.27367 2.0119
v 2.455708 3.079624 2.76297
v 2.455708 -3.079624 2.76297
v 2.726068 -3.27367 2.0119
vt 0.3471929 0.9292291
vt 0.3183596 0.9595313
vt 0.6345168 0.9595313
vt 0.605698 0.9292291
vt 0.6337391 0.5257802
vt 0.6043442 0.5563561
vt 0.3191374 0.5257802
vt 0.3485467 0.5563561
vt 0.6043442 0.5563561
vt 0.6337391 0.5257802
vt 0.6345168 0.9595313
vt 0.605698 0.9292291
vt 0.3183596 0.9595313
vt 0.3471929 0.9292291
vt 0.3485467 0.5563561
vt 0.3191374 0.5257802
vn 0.1603916 0.1375803 -0.9774181
vn 0.729247 0.5510342 -0.4056601
vn -0.729247 0.5510342 -0.4056601
vn -0.1603916 0.1375803 -0.9774181
vn -0.729247 -0.5510342 -0.4056601
vn -0.1603916 -0.1375803 -0.9774181
vn 0.729247 -0.5510342 -0.4056601
vn 0.1603916 -0.1375803 -0.9774181
vn -0.1603916 -0.1375803 0.9774181
vn -0.729247 -0.5510342 0.4056601
vn -0.729247 0.5510342 0.4056601
vn -0.1603916 0.1375803 0.9774181
vn 0.729247 0.5510342 0.4056601
vn 0.1603916 0.1375803 0.9774181
vn 0.1603916 -0.1375803 0.9774181
vn 0.729247 -0.5510342 0.4056601
g Face1_Body_LOD1_0
f 3/3/3 2/2/2 1/1/1
f 4/4/4 3/3/3 1/1/1
f 3/3/3 4/4/4 5/5/5
f 4/4/4 6/6/6 5/5/5
f 7/7/7 5/5/5 6/6/6
f 8/8/8 7/7/7 6/6/6
f 8/8/8 1/1/1 2/2/2
f 7/7/7 8/8/8 2/2/2
f 4/4/4 1/1/1 8/8/8
f 6/6/6 4/4/4 8/8/8
f 11/11/11 10/10/10 9/9/9
f 12/12/12 11/11/11 9/9/9
f 11/11/11 12/12/12 13/13/13
f 12/12/12 14/14/14 13/13/13
f 15/15/15 9/9/9 10/10/10
f 12/12/12 9/9/9 15/15/15
f 14/14/14 12/12/12 15/15/15
f 16/16/16 15/15/15 10/10/10
f 16/16/16 13/13/13 14/14/14
f 15/15/15 16/16/16 14/14/14
