g Face1_Body_LOD1
v 2.455708 -3.079625 -2.762966
v -2.455712 -3.079625 -2.762966
v -2.72607 -3.27367 -2.011898
v 2.726072 -3.27367 -2.011898
v -2.455712 3.079623 -2.762966
v -2.72607 3.273668 -2.011898
v 2.726072 3.273668 -2.011898
v 2.455708 3.079623 -2.762966
v -2.145767E-06 -0.01111388 -3.014149
v -2.145767E-06 -0.01111388 -3.014149
v -2.145767E-06 -0.01111388 -3.014149
v -2.145767E-06 -0.01111388 -3.014149
v 1.191851 3.390726 2.011902
v 1.242983 3.118176 2.762971
v -2.455712 3.079623 2.762971
v -2.72607 3.273668 2.011902
v -2.455712 -3.079625 2.762971
v -2.72607 -3.27367 2.011902
v 2.726072 3.273668 2.011902
v 2.455708 3.079623 2.762971
v 2.455708 -3.079625 2.762971
v 2.726072 -3.27367 2.011902
v -2.145767E-06 -0.01111388 3.014147
v -2.145767E-06 -0.01111388 3.014147
v -2.145767E-06 -0.01111388 3.014147
v -2.145767E-06 -0.01111388 3.014147
vt 0.3487124 0.556363
vt 0.6043344 0.556363
vt 0.6337334 0.5257689
vt 0.3193134 0.5257689
vt 0.605702 0.9292355
vt 0.6345252 0.9595271
vt 0.318248 0.9592824
vt 0.3473591 0.9292355
vt 0.4765306 0.7408051
vt 0.4765306 0.7408051
vt 0.4765306 0.7408051
vt 0.4765306 0.7408051
vt 0.5413755 0.9648973
vt 0.543276 0.9315678
vt 0.3473591 0.9292355
vt 0.318536 0.9595271
vt 0.3487124 0.556363
vt 0.3193134 0.5257689
vt 0.6348132 0.9592824
vt 0.605702 0.9292355
vt 0.6043344 0.556363
vt 0.6337334 0.5257689
vt 0.4765306 0.7408051
vt 0.4765306 0.7408051
vt 0.4765306 0.7408051
vt 0.4765306 0.7408051
vn 0.4391924 -0.3828288 -0.8127436
vn -0.4389902 -0.3828288 -0.8128528
vn -0.7298996 -0.5519198 -0.4032754
vn 0.7301018 -0.5519198 -0.4029092
vn -0.4389902 0.3826265 -0.812948
vn -0.7298996 0.5517176 -0.4035519
vn 0.7301018 0.5517176 -0.403186
vn 0.4391924 0.3826265 -0.8128388
vn -0.0008080006 0.0008080006 -0.9999993
vn -0.0008080006 0.0008080006 -0.9999993
vn -0.0008080006 0.0008080006 -0.9999993
vn -0.0008080006 0.0008080006 -0.9999993
vn -0.0008080006 0.9535362 0.3012775
vn 0.00101018 0.4844449 0.8748212
vn -0.4953539 0.3135356 0.8101357
vn -0.7935361 0.4389902 0.4214121
vn -0.4389902 -0.3828288 0.8128528
vn -0.7298996 -0.5519198 0.4032754
vn 0.9064656 0.1826264 0.3807462
vn 0.6501018 0.1480808 0.7452783
vn 0.4391924 -0.3828288 0.8127436
vn 0.7301018 -0.5519198 0.4029092
vn -0.0008080006 -0.006464779 0.9999788
vn -0.0008080006 -0.006464779 0.9999788
vn -0.0008080006 -0.006464779 0.9999788
vn -0.0008080006 -0.006464779 0.9999788
g Face1_Body_LOD1_0
f 3/3/3 2/2/2 1/1/1
f 4/4/4 3/3/3 1/1/1
f 5/5/5 2/2/2 3/3/3
f 6/6/6 5/5/5 3/3/3
f 6/6/6 7/7/7 5/5/5
f 4/4/4 1/1/1 7/7/7
f 7/7/7 8/8/8 5/5/5
f 1/1/1 8/8/8 7/7/7
f 8/8/8 1/1/1 9/9/9
f 5/5/5 8/8/8 10/10/10
f 2/2/2 5/5/5 11/11/11
f 1/1/1 2/2/2 12/12/12
f 15/15/15 14/14/14 13/13/13
f 16/16/16 15/15/15 13/13/13
f 17/17/17 15/15/15 16/16/16
f 18/18/18 17/17/17 16/16/16
f 13/13/13 14/14/14 19/19/19
f 14/14/14 20/20/20 19/19/19
f 21/21/21 17/17/17 18/18/18
f 22/22/22 21/21/21 18/18/18
f 20/20/20 21/21/21 22/22/22
f 19/19/19 20/20/20 22/22/22
f 20/20/20 23/23/23 21/21/21
f 15/15/15 24/24/24 14/14/14
f 20/20/20 14/14/14 24/24/24
f 17/17/17 25/25/25 15/15/15
f 21/21/21 26/26/26 17/17/17
