g Face0_Body_LOD1
v 2.726068 -3.27367 -2.0119
v 2.455708 -3.079624 -2.76297
v -2.455707 -3.079624 -2.76297
v -2.726068 -3.27367 -2.0119
v -2.455707 3.079624 -2.76297
v -2.726068 3.27367 -2.0119
v 2.726068 3.27367 -2.0119
v 2.455708 3.079624 -2.76297
v -3.099442E-06 -0.01111746 -3.014149
v -3.099442E-06 -0.01111746 -3.014149
v -3.099442E-06 -0.01111746 -3.014149
v -3.099442E-06 -0.01111746 -3.014149
v 2.455708 -3.079624 2.76297
v 2.726068 -3.27367 2.0119
v -2.726068 -3.27367 2.0119
v -2.455707 -3.079624 2.76297
v -2.455707 3.079624 2.76297
v -2.726068 3.27367 2.0119
v 2.726068 3.27367 2.0119
v 2.455708 3.079624 2.76297
v -3.099442E-06 -0.01111746 3.014149
v -3.099442E-06 -0.01111746 3.014149
v -3.099442E-06 -0.01111746 3.014149
v -3.099442E-06 -0.01111746 3.014149
vt 0.671338 0.5257714
vt 0.700743 0.5563549
vt 0.9563574 0.5563549
vt 0.9857624 0.5257714
vt 0.9577274 0.9292358
vt 0.9865432 0.9595248
vt 0.6702626 0.9592743
vt 0.6993877 0.9292358
vt 0.8285575 0.7407992
vt 0.8285575 0.7407992
vt 0.8285575 0.7407992
vt 0.8285575 0.7407992
vt 0.9563574 0.5563549
vt 0.9857624 0.5257714
vt 0.671338 0.5257714
vt 0.700743 0.5563549
vt 0.6993877 0.9292358
vt 0.6705571 0.9595248
vt 0.9868379 0.9592743
vt 0.9577274 0.9292358
vt 0.8285575 0.7407992
vt 0.8285575 0.7407992
vt 0.8285575 0.7407992
vt 0.8285575 0.7407992
vn 0.7292469 -0.551034 -0.4056606
vn 0.4398292 -0.3828011 -0.8124122
vn -0.4398292 -0.3828011 -0.8124122
vn -0.7292469 -0.551034 -0.4056606
vn -0.4384036 0.3828012 -0.8131824
vn -0.7292469 0.5510341 -0.4056605
vn 0.7292469 0.5510341 -0.4056605
vn 0.4384035 0.3828012 -0.8131824
vn -0.0007128716 -0.0007128119 -0.9999995
vn -0.0007128716 -0.0007128119 -0.9999995
vn -0.0007128716 -0.0007128119 -0.9999995
vn -0.0007128716 -0.0007128119 -0.9999995
vn 0.4398292 -0.3828011 0.8124122
vn 0.7292469 -0.551034 0.4056606
vn -0.7292469 -0.551034 0.4056606
vn -0.4398292 -0.3828011 0.8124122
vn -0.4384036 0.3828012 0.8131824
vn -0.7292469 0.5510341 0.4056605
vn 0.7292469 0.5510341 0.4056605
vn 0.4384035 0.3828012 0.8131824
vn -0.0007128716 -0.0007128119 0.9999995
vn -0.0007128716 -0.0007128119 0.9999995
vn -0.0007128716 -0.0007128119 0.9999995
vn -0.0007128716 -0.0007128119 0.9999995
g Face0_Body_LOD1_0
f 3/3/3 2/2/2 1/1/1
f 4/4/4 3/3/3 1/1/1
f 5/5/5 3/3/3 4/4/4
f 6/6/6 5/5/5 4/4/4
f 6/6/6 7/7/7 5/5/5
f 1/1/1 2/2/2 7/7/7
f 7/7/7 8/8/8 5/5/5
f 2/2/2 8/8/8 7/7/7
f 8/8/8 2/2/2 9/9/9
f 5/5/5 8/8/8 10/10/10
f 3/3/3 5/5/5 11/11/11
f 2/2/2 3/3/3 12/12/12
f 15/15/15 14/14/14 13/13/13
f 16/16/16 15/15/15 13/13/13
f 16/16/16 17/17/17 15/15/15
f 17/17/17 18/18/18 15/15/15
f 19/19/19 18/18/18 17/17/17
f 13/13/13 14/14/14 19/19/19
f 20/20/20 19/19/19 17/17/17
f 20/20/20 13/13/13 19/19/19
f 20/20/20 21/21/21 13/13/13
f 16/16/16 22/22/22 17/17/17
f 20/20/20 17/17/17 23/23/23
f 13/13/13 24/24/24 16/16/16
