g Fastener
v 1.199069 0.05614007 -0.8711734
v 1.341648 0.4500017 -0.9747646
v 0.5124632 0.4500017 -1.577204
v 0.4580044 0.05614007 -1.409591
v -0.5124631 0.4500017 -1.577204
v -0.4580042 0.05614007 -1.409591
v -1.341648 0.4500017 -0.9747646
v -1.199069 0.05614007 -0.8711734
v -1.658368 0.4500017 1.549721E-06
v -1.482131 0.05614007 1.549721E-06
v -1.341648 0.4500017 0.9747646
v -1.199069 0.05614007 0.8711765
v -0.5124631 0.4500017 1.577204
v -0.4580042 0.05614007 1.409591
v 0.5124632 0.4500017 1.577204
v 0.4580044 0.05614007 1.409591
v 1.341648 0.4500017 0.9747646
v 1.199069 0.05614007 0.8711765
v 1.658368 0.4500017 1.549721E-06
v 1.482131 0.05614007 1.549721E-06
v -0.8265326 -0.1879872 -0.600511
v -0.3157064 -0.1879872 -0.9716489
v -1.021651 -0.1879872 1.549721E-06
v -0.8265326 -0.1879872 0.6005111
v -0.3157064 -0.1879872 0.9716489
v 0.3157064 -0.1879872 0.9716489
v 0.8265327 -0.1879872 0.6005111
v 1.021651 -0.1879872 1.549721E-06
v 0.8265327 -0.1879872 -0.600511
v 0.3157064 -0.1879872 -0.9716489
v -0.1827396 -0.307476 0.5705628
v 0.1827744 -0.307476 0.5705628
v 0.4784536 -0.307476 0.3557227
v 0.5914297 -0.307476 1.549721E-06
v 0.4784536 -0.307476 -0.3395308
v 0.1827744 -0.307476 -0.5543679
v -0.1827396 -0.307476 -0.5543679
v -0.4784441 -0.307476 -0.3395308
v -0.5914075 -0.307476 1.549721E-06
v -0.4784441 -0.307476 0.3557227
v -0.4784441 -0.307476 -0.3395308
v -1.549721E-06 -0.3608817 1.549721E-06
v -0.1827396 -0.307476 -0.5543679
v -0.1827396 -0.307476 -0.5543679
v 0.1827744 -0.307476 -0.5543679
v 0.1827744 -0.307476 -0.5543679
v 0.4784536 -0.307476 -0.3395308
v 0.4784536 -0.307476 -0.3395308
v 0.5914297 -0.307476 1.549721E-06
v 0.5914297 -0.307476 1.549721E-06
v 0.4784536 -0.307476 0.3557227
v 0.4784536 -0.307476 0.3557227
v 0.1827744 -0.307476 0.5705628
v 0.1827744 -0.307476 0.5705628
v -0.1827396 -0.307476 0.5705628
v -0.1827396 -0.307476 0.5705628
v -0.4784441 -0.307476 0.3557227
v -0.4784441 -0.307476 0.3557227
v -0.5914075 -0.307476 1.549721E-06
v -0.5914075 -0.307476 1.549721E-06
v -0.4784441 -0.307476 -0.3395308
vt 0.8985122 0.8485084
vt 0.9208362 0.864744
vt 0.8615397 0.9078202
vt 0.8530098 0.8815747
vt 0.7882506 0.9078202
vt 0.7967803 0.8815747
vt 0.728954 0.864744
vt 0.7512779 0.8485084
vt 0.7062944 0.7950256
vt 0.7338979 0.7950256
vt 0.728954 0.7253224
vt 0.7512779 0.7415427
vt 0.7882506 0.6822461
vt 0.7967803 0.7084916
vt 0.8615397 0.6822461
vt 0.8530098 0.7084916
vt 0.9208362 0.7253224
vt 0.8985122 0.7415427
vt 0.9434959 0.7950256
vt 0.9158922 0.7950256
vt 0.7777676 0.8292668
vt 0.8068971 0.8504311
vt 0.7666438 0.7950256
vt 0.7777676 0.7607996
vt 0.8068971 0.7396353
vt 0.8428931 0.7396353
vt 0.8720226 0.7607996
vt 0.8831464 0.7950256
vt 0.8720226 0.8292668
vt 0.8428931 0.8504311
vt 0.8144808 0.7624933
vt 0.8353094 0.7624933
vt 0.8521706 0.7747463
vt 0.8586099 0.7950256
vt 0.8521706 0.8143892
vt 0.8353094 0.8266423
vt 0.8144808 0.8266423
vt 0.7976196 0.8143892
vt 0.7911803 0.7950256
vt 0.7976196 0.7747463
vt 0 0
vt 0.5000076 1
vt 1 0
vt 0 0
vt 1 0
vt 0 0
vt 1 0
vt 0 0
vt 1 0
vt 0 0
vt 1 0
vt 0 0
vt 1 0
vt 0 0
vt 1 0
vt 0 0
vt 1 0
vt 0 0
vt 1 0
vt 0 0
vt 1 0
vn 0.6186325 -0.6429353 -0.4515839
vn 0.7382772 -0.4092543 -0.5361508
vn 0.2821318 -0.4092543 -0.8677053
vn 0.237265 -0.6429353 -0.7282441
vn -0.2824416 -0.4092543 -0.8676046
vn -0.2357055 -0.6429353 -0.7287503
vn -0.7385871 -0.4092543 -0.5357238
vn -0.6189424 -0.6429353 -0.4511591
vn -0.9124247 -0.4092448 0
vn -0.7647594 -0.6429353 -0.04215652
vn -0.7385871 -0.4092543 0.5357238
vn -0.6189424 -0.6429353 0.4511591
vn -0.2824416 -0.4092543 0.8676046
vn -0.2357055 -0.6429353 0.7287503
vn 0.2821318 -0.4092543 0.8677053
vn 0.237265 -0.6429353 0.7282441
vn 0.7382772 -0.4092543 0.5361508
vn 0.6186325 -0.6429353 0.4515839
vn 0.9121359 -0.4092543 -0.02278272
vn 0.7644495 -0.6429353 -0.04744627
vn -0.3347862 -0.9102665 -0.2435841
vn -0.1272775 -0.9102665 -0.3939738
vn -0.4149748 -0.9098328 0
vn -0.3366557 -0.9102665 0.2409935
vn -0.1291469 -0.908397 0.3976631
vn 0.128837 -0.908397 0.3977637
vn 0.3363458 -0.9102665 0.2414259
vn 0.4147183 -0.9099498 0
vn 0.3344764 -0.9102665 -0.2440092
vn 0.1269675 -0.9102665 -0.3940739
vn -0.06932449 -0.9738277 0.2164572
vn 0.07088411 -0.9738277 0.2159515
vn 0.183051 -0.9738277 0.1347291
vn 0.2241789 -0.9738277 -0.03746266
vn 0.1811816 -0.9738277 -0.1372327
vn 0.06901467 -0.9756972 -0.2079713
vn -0.06932449 -0.9756972 -0.2078682
vn -0.1796221 -0.9738277 -0.1392676
vn -0.2244887 -0.9738277 -0.03555831
vn -0.1814915 -0.9738277 0.1368227
vn -0.1796221 -0.9738277 -0.1392676
vn -0.0001549721 -1 0
vn -0.06932449 -0.9756972 -0.2078682
vn -0.06932449 -0.9756972 -0.2078682
vn 0.06901467 -0.9756972 -0.2079713
vn 0.06901467 -0.9756972 -0.2079713
vn 0.1811816 -0.9738277 -0.1372327
vn 0.1811816 -0.9738277 -0.1372327
vn 0.2241789 -0.9738277 -0.03746266
vn 0.2241789 -0.9738277 -0.03746266
vn 0.183051 -0.9738277 0.1347291
vn 0.183051 -0.9738277 0.1347291
vn 0.07088411 -0.9738277 0.2159515
vn 0.07088411 -0.9738277 0.2159515
vn -0.06932449 -0.9738277 0.2164572
vn -0.06932449 -0.9738277 0.2164572
vn -0.1814915 -0.9738277 0.1368227
vn -0.1814915 -0.9738277 0.1368227
vn -0.2244887 -0.9738277 -0.03555831
vn -0.2244887 -0.9738277 -0.03555831
vn -0.1796221 -0.9738277 -0.1392676
g Fastener_0
f 3/3/3 2/2/2 1/1/1
f 4/4/4 3/3/3 1/1/1
f 5/5/5 3/3/3 4/4/4
f 6/6/6 5/5/5 4/4/4
f 7/7/7 5/5/5 6/6/6
f 8/8/8 7/7/7 6/6/6
f 9/9/9 7/7/7 8/8/8
f 10/10/10 9/9/9 8/8/8
f 11/11/11 9/9/9 10/10/10
f 12/12/12 11/11/11 10/10/10
f 13/13/13 11/11/11 12/12/12
f 14/14/14 13/13/13 12/12/12
f 15/15/15 13/13/13 14/14/14
f 16/16/16 15/15/15 14/14/14
f 17/17/17 15/15/15 16/16/16
f 18/18/18 17/17/17 16/16/16
f 19/19/19 17/17/17 18/18/18
f 20/20/20 19/19/19 18/18/18
f 2/2/2 19/19/19 20/20/20
f 1/1/1 2/2/2 20/20/20
f 8/8/8 21/21/21 10/10/10
f 22/22/22 21/21/21 8/8/8
f 21/21/21 23/23/23 10/10/10
f 10/10/10 23/23/23 12/12/12
f 23/23/23 24/24/24 12/12/12
f 12/12/12 24/24/24 14/14/14
f 24/24/24 25/25/25 14/14/14
f 14/14/14 25/25/25 16/16/16
f 25/25/25 26/26/26 16/16/16
f 16/16/16 26/26/26 18/18/18
f 26/26/26 27/27/27 18/18/18
f 18/18/18 27/27/27 20/20/20
f 27/27/27 28/28/28 20/20/20
f 20/20/20 28/28/28 1/1/1
f 28/28/28 29/29/29 1/1/1
f 1/1/1 29/29/29 4/4/4
f 29/29/29 30/30/30 4/4/4
f 30/30/30 22/22/22 6/6/6
f 4/4/4 30/30/30 6/6/6
f 6/6/6 22/22/22 8/8/8
f 25/25/25 31/31/31 26/26/26
f 31/31/31 25/25/25 24/24/24
f 31/31/31 32/32/32 26/26/26
f 26/26/26 32/32/32 27/27/27
f 32/32/32 33/33/33 27/27/27
f 27/27/27 33/33/33 28/28/28
f 33/33/33 34/34/34 28/28/28
f 28/28/28 34/34/34 29/29/29
f 34/34/34 35/35/35 29/29/29
f 29/29/29 35/35/35 30/30/30
f 35/35/35 36/36/36 30/30/30
f 30/30/30 36/36/36 22/22/22
f 36/36/36 37/37/37 22/22/22
f 22/22/22 37/37/37 21/21/21
f 37/37/37 38/38/38 21/21/21
f 21/21/21 38/38/38 23/23/23
f 38/38/38 39/39/39 23/23/23
f 23/23/23 39/39/39 24/24/24
f 39/39/39 40/40/40 24/24/24
f 40/40/40 31/31/31 24/24/24
f 43/43/43 42/42/42 41/41/41
f 45/45/45 42/42/42 44/44/44
f 47/47/47 42/42/42 46/46/46
f 49/49/49 42/42/42 48/48/48
f 51/51/51 42/42/42 50/50/50
f 53/53/53 42/42/42 52/52/52
f 55/55/55 42/42/42 54/54/54
f 57/57/57 42/42/42 56/56/56
f 59/59/59 42/42/42 58/58/58
f 61/61/61 42/42/42 60/60/60
