g Frame0
v 0.6999989 0.09443378 -9.195072
v -0.005078316 0.09443378 -9.195072
v -0.005078316 0.09443378 -9.899985
v 0.6999989 0.09443378 -9.899985
v 0.6999989 0.09443378 -5.395721
v -0.005078316 0.09443378 -5.395721
v 0.6999989 0.09443378 -0.09999847
v -0.005078316 0.09443378 -0.09999847
v 0.6999989 0.09443378 -9.899985
v 0.8000021 -0.005569458 -9.999989
v 0.8000021 -0.005569458 -9.195072
v 0.6999989 0.09443378 -9.195072
v -0.005078316 0.09443378 -9.899985
v -0.005078316 -0.005569458 -9.999989
v 0.8000021 -0.005569458 -9.999989
v 0.6999989 0.09443378 -9.899985
v 0.6999989 0.09443378 -0.09999847
v 0.8000021 -0.005569458 4.768372E-06
v -0.005078316 -0.005569458 4.768372E-06
v -0.005078316 0.09443378 -0.09999847
v 0.6999989 0.09443378 -5.395721
v 0.8000021 -0.005569458 -5.395721
v 0.8000021 -0.005569458 4.768372E-06
v 0.6999989 0.09443378 -0.09999847
v 0.6999989 0.09443378 -9.195072
v 0.8000021 -0.005569458 -9.195072
v 0.8000021 -0.005569458 -5.395721
v 0.6999989 0.09443378 -5.395721
v 0.8000021 -0.005569458 -9.999989
v 0.8000021 -0.6055689 -9.999989
v 0.8000021 -0.6055689 -9.195072
v 0.8000021 -0.005569458 -9.195072
v -0.005078316 -0.005569458 -9.999989
v -0.005078316 -0.6055689 -9.999989
v 0.8000021 -0.6055689 -9.999989
v 0.8000021 -0.005569458 -9.999989
v 0.8000021 -0.005569458 4.768372E-06
v 0.8000021 -0.6055689 4.768372E-06
v -0.005078316 -0.6055689 4.768372E-06
v -0.005078316 -0.005569458 4.768372E-06
v 0.8000021 -0.005569458 -5.395721
v 0.8000021 -0.6055689 -5.395721
v 0.8000021 -0.6055689 4.768372E-06
v 0.8000021 -0.005569458 4.768372E-06
v 0.8000021 -0.005569458 -9.195072
v 0.8000021 -0.6055689 -9.195072
v 0.8000021 -0.6055689 -5.395721
v 0.8000021 -0.005569458 -5.395721
v -0.005078316 -0.6055689 -9.999989
v -0.005078316 -0.6055689 4.768372E-06
v 0.8000021 -0.6055689 4.768372E-06
v 0.8000021 -0.6055689 -9.999989
v 0.5791731 -1.319868 -4.636167
v 0.5791731 -0.4958239 -2.646749
v 0.5791731 -0.4958239 -4.800082
v 0.5791731 -2.018466 -4.169382
v 0.5791731 -2.48525 -3.470794
v 0.5791731 -2.649156 -2.646749
v 0.5791731 -2.48525 -1.822705
v 0.5791731 -2.018466 -1.124117
v 0.5791731 -1.319878 -0.6573324
v 0.5791731 -0.4958239 -0.4934168
v 0.5791731 -0.4958239 -4.800082
v -0.005078316 -0.4958239 -4.800082
v -0.005078316 -1.319868 -4.636167
v 0.5791731 -1.319868 -4.636167
v -0.005078316 -2.018466 -4.169382
v 0.5791731 -2.018466 -4.169382
v -0.005078316 -2.48525 -3.470794
v 0.5791731 -2.48525 -3.470794
v -0.005078316 -2.649156 -2.646749
v 0.5791731 -2.649156 -2.646749
v -0.005078316 -2.48525 -1.822705
v 0.5791731 -2.48525 -1.822705
v -0.005078316 -2.018466 -1.124117
v 0.5791731 -2.018466 -1.124117
v -0.005078316 -1.319878 -0.6573324
v 0.5791731 -1.319878 -0.6573324
v -0.005078316 -0.4958239 -0.4934168
v 0.5791731 -0.4958239 -0.4934168
vt -0.5044559 0.9311002
vt -0.6223746 0.9311002
vt -0.6223746 0.9951014
vt -0.5044559 0.9951014
vt -0.5044559 0.5403811
vt -0.6223746 0.5403811
vt -0.5044559 0.006625354
vt -0.6223746 0.006625354
vt 1.438802 0.3108829
vt 1.438802 0.3294715
vt 1.457391 0.3294715
vt 1.457391 0.3108829
vt 1.438802 0.3108829
vt 1.438802 0.3294715
vt 1.457391 0.3294715
vt 1.457391 0.3108829
vt 1.438802 0.3108829
vt 1.438802 0.3294715
vt 1.457391 0.3294715
vt 1.457391 0.3108829
vt 1.438802 0.3108829
vt 1.438802 0.3294715
vt 1.457391 0.3294715
vt 1.457391 0.3108829
vt 1.438802 0.3108829
vt 1.438802 0.3294715
vt 1.457391 0.3294715
vt 1.457391 0.3108829
vt 1.438802 0.3108829
vt 1.438802 0.3294715
vt 1.457391 0.3294715
vt 1.457391 0.3108829
vt 1.438802 0.3108829
vt 1.438802 0.3294715
vt 1.457391 0.3294715
vt 1.457391 0.3108829
vt 1.438802 0.3108829
vt 1.438802 0.3294715
vt 1.457391 0.3294715
vt 1.457391 0.3108829
vt 1.438802 0.3108829
vt 1.438802 0.3294715
vt 1.457391 0.3294715
vt 1.457391 0.3108829
vt 1.438802 0.3108829
vt 1.438802 0.3294715
vt 1.457391 0.3294715
vt 1.457391 0.3108829
vt 1.446402 0.2817265
vt 1.446402 0.2937699
vt 1.44737 0.2937699
vt 1.44737 0.2817265
vt 1.448917 0.3907039
vt 1.448164 0.3889744
vt 1.448164 0.3908547
vt 1.449552 0.3902834
vt 1.44998 0.3896407
vt 1.450123 0.388895
vt 1.44998 0.3881413
vt 1.449552 0.3875065
vt 1.448917 0.3870861
vt 1.448164 0.3869354
vt 1.449147 0.3869354
vt 1.449147 0.3864197
vt 1.448949 0.3864197
vt 1.448949 0.3869354
vt 1.448751 0.3864197
vt 1.448751 0.3869354
vt 1.44856 0.3864197
vt 1.44856 0.3869354
vt 1.448362 0.3864197
vt 1.448362 0.3869354
vt 1.448164 0.3864197
vt 1.448164 0.3869354
vt 1.447973 0.3864197
vt 1.447973 0.3869354
vt 1.447775 0.3864197
vt 1.447775 0.3869354
vt 1.447577 0.3864197
vt 1.447577 0.3869354
vn -0.0009775162 0.9999995 0
vn -0.0009775162 0.9999995 0
vn -0.0009775162 0.9999995 0
vn -0.0009775162 0.9999995 0
vn -0.0009775162 0.9999995 0
vn -0.0009775162 0.9999995 0
vn -0.0009775162 0.9999995 0
vn -0.0009775162 0.9999995 0
vn 0.7067446 0.7067446 -0.03200431
vn 0.7067446 0.7067446 -0.03200431
vn 0.7067446 0.7067446 -0.03200431
vn 0.7067446 0.7067446 -0.03200431
vn -0.0009775162 0.7067446 -0.7074682
vn -0.0009775162 0.7067446 -0.7074682
vn -0.0009775162 0.7067446 -0.7074682
vn -0.0009775162 0.7067446 -0.7074682
vn -0.0009775162 0.7067446 0.7074682
vn -0.0009775162 0.7067446 0.7074682
vn -0.0009775162 0.7067446 0.7074682
vn -0.0009775162 0.7067446 0.7074682
vn 0.7067446 0.7067446 -0.03200431
vn 0.7067446 0.7067446 -0.03200431
vn 0.7067446 0.7067446 -0.03200431
vn 0.7067446 0.7067446 -0.03200431
vn 0.7067446 0.7067446 -0.03200431
vn 0.7067446 0.7067446 -0.03200431
vn 0.7067446 0.7067446 -0.03200431
vn 0.7067446 0.7067446 -0.03200431
vn 0.9999995 0.0009775162 0
vn 0.9999995 0.0009775162 0
vn 0.9999995 0.0009775162 0
vn 0.9999995 0.0009775162 0
vn -0.0009775162 0.0009775162 -0.999999
vn -0.0009775162 0.0009775162 -0.999999
vn -0.0009775162 0.0009775162 -0.999999
vn -0.0009775162 0.0009775162 -0.999999
vn -0.0009775162 0.0009775162 0.999999
vn -0.0009775162 0.0009775162 0.999999
vn -0.0009775162 0.0009775162 0.999999
vn -0.0009775162 0.0009775162 0.999999
vn 0.9999995 0.0009775162 0
vn 0.9999995 0.0009775162 0
vn 0.9999995 0.0009775162 0
vn 0.9999995 0.0009775162 0
vn 0.9999995 0.0009775162 0
vn 0.9999995 0.0009775162 0
vn 0.9999995 0.0009775162 0
vn 0.9999995 0.0009775162 0
vn -0.0009775162 -0.9999995 0
vn -0.0009775162 -0.9999995 0
vn -0.0009775162 -0.9999995 0
vn -0.0009775162 -0.9999995 0
vn 0.9999995 0.0009775162 0
vn 0.9999995 0.0009775162 0
vn 0.9999995 0.0009775162 0
vn 0.9999995 0.0009775162 0
vn 0.9999995 0.0009775162 0
vn 0.9999995 0.0009775162 0
vn 0.9999995 0.0009775162 0
vn 0.9999995 0.0009775162 0
vn 0.9999995 0.0009775162 0
vn 0.9999995 0.0009775162 0
vn -0.0009775162 -0.1945258 -0.9808969
vn -0.0009775162 -0.1945258 -0.9808969
vn -0.0009775162 -0.382209 -0.9240754
vn -0.0009775162 -0.382209 -0.9240754
vn -0.0009775162 -0.7067446 -0.7074682
vn -0.0009775162 -0.7067446 -0.7074682
vn -0.0009775162 -0.9237532 -0.382987
vn -0.0009775162 -0.9237532 -0.382987
vn -0.0009775162 -0.9999995 0
vn -0.0009775162 -0.9999995 0
vn -0.0009775162 -0.9237532 0.382987
vn -0.0009775162 -0.9237532 0.382987
vn -0.0009775162 -0.7067446 0.7074682
vn -0.0009775162 -0.7067446 0.7074682
vn -0.0009775162 -0.382209 0.9240754
vn -0.0009775162 -0.382209 0.9240754
vn -0.0009775162 -0.1945258 0.9808969
vn -0.0009775162 -0.1945258 0.9808969
g Frame0_0
f 3/3/3 2/2/2 1/1/1
f 4/4/4 3/3/3 1/1/1
f 1/1/1 2/2/2 5/5/5
f 2/2/2 6/6/6 5/5/5
f 5/5/5 6/6/6 7/7/7
f 6/6/6 8/8/8 7/7/7
f 11/11/11 10/10/10 9/9/9
f 12/12/12 11/11/11 9/9/9
f 15/15/15 14/14/14 13/13/13
f 16/16/16 15/15/15 13/13/13
f 19/19/19 18/18/18 17/17/17
f 20/20/20 19/19/19 17/17/17
f 23/23/23 22/22/22 21/21/21
f 24/24/24 23/23/23 21/21/21
f 27/27/27 26/26/26 25/25/25
f 28/28/28 27/27/27 25/25/25
f 31/31/31 30/30/30 29/29/29
f 32/32/32 31/31/31 29/29/29
f 35/35/35 34/34/34 33/33/33
f 36/36/36 35/35/35 33/33/33
f 39/39/39 38/38/38 37/37/37
f 40/40/40 39/39/39 37/37/37
f 43/43/43 42/42/42 41/41/41
f 44/44/44 43/43/43 41/41/41
f 47/47/47 46/46/46 45/45/45
f 48/48/48 47/47/47 45/45/45
f 51/51/51 50/50/50 49/49/49
f 52/52/52 51/51/51 49/49/49
f 55/55/55 54/54/54 53/53/53
f 53/53/53 54/54/54 56/56/56
f 56/56/56 54/54/54 57/57/57
f 57/57/57 54/54/54 58/58/58
f 58/58/58 54/54/54 59/59/59
f 59/59/59 54/54/54 60/60/60
f 60/60/60 54/54/54 61/61/61
f 61/61/61 54/54/54 62/62/62
f 65/65/65 64/64/64 63/63/63
f 66/66/66 65/65/65 63/63/63
f 67/67/67 65/65/65 66/66/66
f 68/68/68 67/67/67 66/66/66
f 69/69/69 67/67/67 68/68/68
f 70/70/70 69/69/69 68/68/68
f 71/71/71 69/69/69 70/70/70
f 72/72/72 71/71/71 70/70/70
f 73/73/73 71/71/71 72/72/72
f 74/74/74 73/73/73 72/72/72
f 75/75/75 73/73/73 74/74/74
f 76/76/76 75/75/75 74/74/74
f 77/77/77 75/75/75 76/76/76
f 78/78/78 77/77/77 76/76/76
f 79/79/79 77/77/77 78/78/78
f 80/80/80 79/79/79 78/78/78
