g Frame_Body_LOD0
v 2.636593 -0.04714823 -0.8566792
v 2.636593 0.05549145 -0.8566792
v 2.242818 0.05549145 -1.629503
v 2.242818 -0.04714823 -1.629503
v 1.629503 0.05549145 -2.242818
v 1.629503 -0.04714823 -2.242818
v 0.8566792 0.05549145 -2.636588
v 0.8566792 -0.04714823 -2.636588
v -2.145767E-06 0.05549145 -2.772275
v -2.145767E-06 -0.04714823 -2.772275
v 2.772275 -0.04714823 2.145767E-06
v 2.772275 0.05549145 2.145767E-06
v 2.636588 -0.04714823 0.8566785
v 2.636588 0.05549145 0.8566785
v 2.242818 -0.04714823 1.629502
v 2.242818 0.05549145 1.629502
v 1.629503 -0.04714823 2.242817
v 1.629503 0.05549145 2.242817
v 0.8566792 -0.04714823 2.636592
v 0.8566792 0.05549145 2.636592
v -2.145767E-06 -0.04714823 2.772274
v -2.145767E-06 0.05549145 2.772274
v -0.8566785 -0.04714823 2.636592
v -0.8566785 0.05549145 2.636592
v -1.629502 -0.04714823 2.242817
v -1.629502 0.05549145 2.242817
v -2.242817 -0.04714823 1.629502
v -2.242817 0.05549145 1.629502
v -2.636592 -0.04714823 0.8566785
v -2.636592 0.05549145 0.8566785
v -2.772274 -0.04714823 2.145767E-06
v -2.772274 0.05549145 2.145767E-06
v -2.636592 -0.04714823 -0.8566792
v -2.636592 0.05549145 -0.8566792
v -2.242817 -0.04714823 -1.629503
v -2.242817 0.05549145 -1.629503
v -1.629502 -0.04714823 -2.242818
v -1.629502 0.05549145 -2.242818
v -0.8566785 -0.04714823 -2.636588
v -0.8566785 0.05549145 -2.636588
v -2.145767E-06 -0.04714823 -2.772275
v -2.145767E-06 0.05549145 -2.772275
v -2.145767E-06 0.05549145 2.772274
v -2.145767E-06 0.05549145 2.624425
v 0.8109882 0.05549145 2.495976
v 0.8566792 0.05549145 2.636592
v 1.542594 0.05549145 2.123204
v 1.629503 0.05549145 2.242817
v 2.1232 0.05549145 1.542599
v 2.242818 0.05549145 1.629502
v 2.495972 0.05549145 0.8109927
v 2.636588 0.05549145 0.8566785
v 2.624421 0.05549145 2.145767E-06
v 2.772275 0.05549145 2.145767E-06
v 2.495977 0.05549145 -0.8109934
v 2.636593 0.05549145 -0.8566792
v 2.123205 0.05549145 -1.5426
v 2.242818 0.05549145 -1.629503
v 1.5426 0.05549145 -2.123205
v 1.629503 0.05549145 -2.242818
v 0.8109934 0.05549145 -2.495972
v 0.8566792 0.05549145 -2.636588
v -2.145767E-06 0.05549145 -2.624426
v -2.145767E-06 0.05549145 -2.772275
v -0.8109927 0.05549145 -2.495972
v -0.8566785 0.05549145 -2.636588
v -1.542599 0.05549145 -2.1232
v -1.629502 0.05549145 -2.242818
v -2.123204 0.05549145 -1.5426
v -2.242817 0.05549145 -1.629503
v -2.495976 0.05549145 -0.8109934
v -2.636592 0.05549145 -0.8566792
v -2.624425 0.05549145 2.145767E-06
v -2.772274 0.05549145 2.145767E-06
v -2.495976 0.05549145 0.8109927
v -2.636592 0.05549145 0.8566785
v -2.123204 0.05549145 1.542599
v -2.242817 0.05549145 1.629502
v -1.542599 0.05549145 2.123204
v -1.629502 0.05549145 2.242817
v -0.8109927 0.05549145 2.495976
v -0.8566785 0.05549145 2.636592
v -2.145767E-06 0.05549145 2.624425
v -2.145767E-06 0.05549145 -3.099442E-06
v 0.8109882 0.05549145 2.495976
v 1.542594 0.05549145 2.123204
v 2.1232 0.05549145 1.542599
v 2.495972 0.05549145 0.8109927
v 2.624421 0.05549145 2.145767E-06
v 2.495977 0.05549145 -0.8109934
v 2.123205 0.05549145 -1.5426
v 1.5426 0.05549145 -2.123205
v 0.8109934 0.05549145 -2.495972
v -2.145767E-06 0.05549145 -2.624426
v -0.8109927 0.05549145 -2.495972
v -1.542599 0.05549145 -2.1232
v -2.123204 0.05549145 -1.5426
v -2.495976 0.05549145 -0.8109934
v -2.624425 0.05549145 2.145767E-06
v -2.495976 0.05549145 0.8109927
v -2.123204 0.05549145 1.542599
v -1.542599 0.05549145 2.123204
v -0.8109927 0.05549145 2.495976
vt 0.7723938 0.01097083
vt 0.7723938 0.05200837
vt 0.8189878 0.05200837
vt 0.8189878 0.01097083
vt 0.865582 0.05200837
vt 0.865582 0.01097083
vt 0.9121761 0.05200837
vt 0.9121761 0.01097083
vt 0.9587702 0.05200837
vt 0.9587702 0.01097083
vt 0.7257997 0.01097083
vt 0.7257997 0.05200837
vt 0.6792055 0.01097083
vt 0.6792055 0.05200837
vt 0.6326259 0.01097083
vt 0.6326259 0.05200837
vt 0.5860318 0.01097083
vt 0.5860318 0.05200837
vt 0.5394377 0.01097083
vt 0.5394377 0.05200837
vt 0.4928436 0.01097083
vt 0.4928436 0.05200837
vt 0.4462495 0.01097083
vt 0.4462495 0.05200837
vt 0.3996554 0.01097083
vt 0.3996554 0.05200837
vt 0.3530613 0.01097083
vt 0.3530613 0.05200837
vt 0.3064672 0.01097083
vt 0.3064672 0.05200837
vt 0.2598731 0.01097083
vt 0.2598731 0.05200837
vt 0.213279 0.01097083
vt 0.213279 0.05200837
vt 0.1666849 0.01097083
vt 0.1666849 0.05200837
vt 0.1200908 0.01097083
vt 0.1200908 0.05200837
vt 0.07351112 0.01097083
vt 0.07351112 0.05200837
vt 0.02691701 0.01097083
vt 0.02691701 0.05200837
vt 0.5171102 0.2536075
vt 0.5171102 0.2616384
vt 0.5612009 0.2686276
vt 0.5636753 0.2609728
vt 0.6009651 0.2888859
vt 0.6056969 0.2823887
vt 0.6325246 0.3204454
vt 0.6390362 0.3157281
vt 0.6527974 0.360224
vt 0.6604377 0.3577352
vt 0.659772 0.4043003
vt 0.6678175 0.4043003
vt 0.6527974 0.4483911
vt 0.6604377 0.45088
vt 0.6325246 0.4881552
vt 0.6390362 0.492887
vt 0.6009651 0.5197293
vt 0.6056969 0.5262264
vt 0.5612009 0.5399876
vt 0.5636753 0.5476279
vt 0.5171102 0.5469622
vt 0.5171102 0.5550076
vt 0.4730339 0.5399876
vt 0.470545 0.5476279
vt 0.4332552 0.5197293
vt 0.4285379 0.5262264
vt 0.4016957 0.4881552
vt 0.3951986 0.492887
vt 0.3814374 0.4483911
vt 0.3737826 0.45088
vt 0.3744483 0.4043003
vt 0.3664173 0.4043003
vt 0.3814374 0.360224
vt 0.3737826 0.3577352
vt 0.4016957 0.3204454
vt 0.3951986 0.3157281
vt 0.4332552 0.2888859
vt 0.4285379 0.2823887
vt 0.4730339 0.2686276
vt 0.470545 0.2609728
vt 0.183152 0.1487273
vt 0.183152 0.3214294
vt 0.2365181 0.1571924
vt 0.2846605 0.1817194
vt 0.3228764 0.2199208
vt 0.3474034 0.2680632
vt 0.355854 0.3214294
vt 0.3474034 0.3747956
vt 0.3228764 0.422938
vt 0.2846605 0.4611394
vt 0.2365181 0.4856664
vt 0.183152 0.494117
vt 0.1298003 0.4856664
vt 0.08165785 0.4611394
vt 0.043442 0.422938
vt 0.01891498 0.3747956
vt 0.01046437 0.3214294
vt 0.01891498 0.2680632
vt 0.043442 0.2199208
vt 0.08165785 0.1817194
vt 0.1298003 0.1571924
vn 0.9511237 0.0009775162 -0.3088086
vn 0.9511237 0.0009775162 -0.3088086
vn 0.8084062 0.0009775162 -0.5886242
vn 0.8084062 0.0009775162 -0.5886242
vn 0.5874875 0.0009775162 -0.8092327
vn 0.5874875 0.0009775162 -0.8092327
vn 0.3098727 0.0009775162 -0.9507775
vn 0.3098727 0.0009775162 -0.9507775
vn -0.0009775162 0.0009775162 -0.999999
vn -0.0009775162 0.0009775162 -0.999999
vn 0.9999995 0.0009775162 0
vn 0.9999995 0.0009775162 0
vn 0.9511237 0.0009775162 0.3088086
vn 0.9511237 0.0009775162 0.3088086
vn 0.8084062 0.0009775162 0.5886242
vn 0.8084062 0.0009775162 0.5886242
vn 0.5874875 0.0009775162 0.8092327
vn 0.5874875 0.0009775162 0.8092327
vn 0.3098727 0.0009775162 0.9507775
vn 0.3098727 0.0009775162 0.9507775
vn -0.0009775162 0.0009775162 0.999999
vn -0.0009775162 0.0009775162 0.999999
vn -0.3098727 0.0009775162 0.9507775
vn -0.3098727 0.0009775162 0.9507775
vn -0.5874875 0.0009775162 0.8092327
vn -0.5874875 0.0009775162 0.8092327
vn -0.8084062 0.0009775162 0.5886242
vn -0.8084062 0.0009775162 0.5886242
vn -0.9511237 0.0009775162 0.3088086
vn -0.9511237 0.0009775162 0.3088086
vn -0.9999995 0.0009775162 0
vn -0.9999995 0.0009775162 0
vn -0.9511237 0.0009775162 -0.3088086
vn -0.9511237 0.0009775162 -0.3088086
vn -0.8084062 0.0009775162 -0.5886242
vn -0.8084062 0.0009775162 -0.5886242
vn -0.5874875 0.0009775162 -0.8092327
vn -0.5874875 0.0009775162 -0.8092327
vn -0.3098727 0.0009775162 -0.9507775
vn -0.3098727 0.0009775162 -0.9507775
vn -0.0009775162 0.0009775162 -0.999999
vn -0.0009775162 0.0009775162 -0.999999
vn -0.0009775162 0.9999995 0
vn -0.0009775162 0.9999995 0
vn -0.0009775162 0.9999995 0
vn -0.0009775162 0.9999995 0
vn -0.0009775162 0.9999995 0
vn -0.0009775162 0.9999995 0
vn -0.0009775162 0.9999995 0
vn -0.0009775162 0.9999995 0
vn -0.0009775162 0.9999995 0
vn -0.0009775162 0.9999995 0
vn -0.0009775162 0.9999995 0
vn -0.0009775162 0.9999995 0
vn -0.0009775162 0.9999995 0
vn -0.0009775162 0.9999995 0
vn -0.0009775162 0.9999995 0
vn -0.0009775162 0.9999995 0
vn -0.0009775162 0.9999995 0
vn -0.0009775162 0.9999995 0
vn -0.0009775162 0.9999995 0
vn -0.0009775162 0.9999995 0
vn -0.0009775162 0.9999995 0
vn -0.0009775162 0.9999995 0
vn -0.0009775162 0.9999995 0
vn -0.0009775162 0.9999995 0
vn -0.0009775162 0.9999995 0
vn -0.0009775162 0.9999995 0
vn -0.0009775162 0.9999995 0
vn -0.0009775162 0.9999995 0
vn -0.0009775162 0.9999995 0
vn -0.0009775162 0.9999995 0
vn -0.0009775162 0.9999995 0
vn -0.0009775162 0.9999995 0
vn -0.0009775162 0.9999995 0
vn -0.0009775162 0.9999995 0
vn -0.0009775162 0.9999995 0
vn -0.0009775162 0.9999995 0
vn -0.0009775162 0.9999995 0
vn -0.0009775162 0.9999995 0
vn -0.0009775162 0.9999995 0
vn -0.0009775162 0.9999995 0
vn -0.0009775162 0.9999995 0
vn -0.0009775162 0.9999995 0
vn -0.0009775162 0.9999995 0
vn -0.0009775162 0.9999995 0
vn -0.0009775162 0.9999995 0
vn -0.0009775162 0.9999995 0
vn -0.0009775162 0.9999995 0
vn -0.0009775162 0.9999995 0
vn -0.0009775162 0.9999995 0
vn -0.0009775162 0.9999995 0
vn -0.0009775162 0.9999995 0
vn -0.0009775162 0.9999995 0
vn -0.0009775162 0.9999995 0
vn -0.0009775162 0.9999995 0
vn -0.0009775162 0.9999995 0
vn -0.0009775162 0.9999995 0
vn -0.0009775162 0.9999995 0
vn -0.0009775162 0.9999995 0
vn -0.0009775162 0.9999995 0
vn -0.0009775162 0.9999995 0
vn -0.0009775162 0.9999995 0
g Frame_Body_LOD0_0
f 3/3/3 2/2/2 1/1/1
f 4/4/4 3/3/3 1/1/1
f 5/5/5 3/3/3 4/4/4
f 6/6/6 5/5/5 4/4/4
f 7/7/7 5/5/5 6/6/6
f 8/8/8 7/7/7 6/6/6
f 9/9/9 7/7/7 8/8/8
f 10/10/10 9/9/9 8/8/8
f 1/1/1 2/2/2 11/11/11
f 2/2/2 12/12/12 11/11/11
f 11/11/11 12/12/12 13/13/13
f 12/12/12 14/14/14 13/13/13
f 13/13/13 14/14/14 15/15/15
f 14/14/14 16/16/16 15/15/15
f 15/15/15 16/16/16 17/17/17
f 16/16/16 18/18/18 17/17/17
f 17/17/17 18/18/18 19/19/19
f 18/18/18 20/20/20 19/19/19
f 19/19/19 20/20/20 21/21/21
f 20/20/20 22/22/22 21/21/21
f 21/21/21 22/22/22 23/23/23
f 22/22/22 24/24/24 23/23/23
f 23/23/23 24/24/24 25/25/25
f 24/24/24 26/26/26 25/25/25
f 25/25/25 26/26/26 27/27/27
f 26/26/26 28/28/28 27/27/27
f 27/27/27 28/28/28 29/29/29
f 28/28/28 30/30/30 29/29/29
f 29/29/29 30/30/30 31/31/31
f 30/30/30 32/32/32 31/31/31
f 31/31/31 32/32/32 33/33/33
f 32/32/32 34/34/34 33/33/33
f 33/33/33 34/34/34 35/35/35
f 34/34/34 36/36/36 35/35/35
f 35/35/35 36/36/36 37/37/37
f 36/36/36 38/38/38 37/37/37
f 37/37/37 38/38/38 39/39/39
f 38/38/38 40/40/40 39/39/39
f 39/39/39 40/40/40 41/41/41
f 40/40/40 42/42/42 41/41/41
f 45/45/45 44/44/44 43/43/43
f 46/46/46 45/45/45 43/43/43
f 47/47/47 45/45/45 46/46/46
f 48/48/48 47/47/47 46/46/46
f 49/49/49 47/47/47 48/48/48
f 50/50/50 49/49/49 48/48/48
f 51/51/51 49/49/49 50/50/50
f 52/52/52 51/51/51 50/50/50
f 53/53/53 51/51/51 52/52/52
f 54/54/54 53/53/53 52/52/52
f 55/55/55 53/53/53 54/54/54
f 56/56/56 55/55/55 54/54/54
f 57/57/57 55/55/55 56/56/56
f 58/58/58 57/57/57 56/56/56
f 59/59/59 57/57/57 58/58/58
f 60/60/60 59/59/59 58/58/58
f 61/61/61 59/59/59 60/60/60
f 62/62/62 61/61/61 60/60/60
f 63/63/63 61/61/61 62/62/62
f 64/64/64 63/63/63 62/62/62
f 65/65/65 63/63/63 64/64/64
f 66/66/66 65/65/65 64/64/64
f 67/67/67 65/65/65 66/66/66
f 68/68/68 67/67/67 66/66/66
f 69/69/69 67/67/67 68/68/68
f 70/70/70 69/69/69 68/68/68
f 71/71/71 69/69/69 70/70/70
f 72/72/72 71/71/71 70/70/70
f 73/73/73 71/71/71 72/72/72
f 74/74/74 73/73/73 72/72/72
f 75/75/75 73/73/73 74/74/74
f 76/76/76 75/75/75 74/74/74
f 77/77/77 75/75/75 76/76/76
f 78/78/78 77/77/77 76/76/76
f 79/79/79 77/77/77 78/78/78
f 80/80/80 79/79/79 78/78/78
f 81/81/81 79/79/79 80/80/80
f 82/82/82 81/81/81 80/80/80
f 44/44/44 81/81/81 82/82/82
f 43/43/43 44/44/44 82/82/82
f 85/85/85 84/84/84 83/83/83
f 86/86/86 84/84/84 85/85/85
f 87/87/87 84/84/84 86/86/86
f 88/88/88 84/84/84 87/87/87
f 89/89/89 84/84/84 88/88/88
f 90/90/90 84/84/84 89/89/89
f 91/91/91 84/84/84 90/90/90
f 92/92/92 84/84/84 91/91/91
f 93/93/93 84/84/84 92/92/92
f 94/94/94 84/84/84 93/93/93
f 95/95/95 84/84/84 94/94/94
f 96/96/96 84/84/84 95/95/95
f 97/97/97 84/84/84 96/96/96
f 98/98/98 84/84/84 97/97/97
f 99/99/99 84/84/84 98/98/98
f 100/100/100 84/84/84 99/99/99
f 101/101/101 84/84/84 100/100/100
f 102/102/102 84/84/84 101/101/101
f 103/103/103 84/84/84 102/102/102
f 83/83/83 84/84/84 103/103/103
