g Frame1
v -0.7050734 0.1055765 -9.195071
v -0.7050734 0.1055765 -9.899994
v 2.861023E-06 0.1055765 -9.899994
v 2.861023E-06 0.1055765 -9.195071
v -0.7050734 0.1055765 -5.39572
v 2.861023E-06 0.1055765 -5.39572
v -0.7050734 0.1055765 -0.09999847
v 2.861023E-06 0.1055765 -0.09999847
v -0.7050734 0.1055765 -9.899994
v -0.7050734 0.1055765 -9.195071
v -0.8050795 6.67572E-06 -9.195071
v -0.8050795 6.67572E-06 -9.999989
v 2.861023E-06 0.1055765 -9.899994
v -0.7050734 0.1055765 -9.899994
v -0.8050795 6.67572E-06 -9.999989
v 2.861023E-06 6.67572E-06 -9.999989
v -0.7050734 0.1055765 -0.09999847
v 2.861023E-06 0.1055765 -0.09999847
v 2.861023E-06 -2.861023E-06 -2.861023E-06
v -0.8050795 -2.861023E-06 -2.861023E-06
v -0.7050734 0.1055765 -5.39572
v -0.7050734 0.1055765 -0.09999847
v -0.8050795 -2.861023E-06 -2.861023E-06
v -0.8050795 6.67572E-06 -5.397792
v -0.7050734 0.1055765 -9.195071
v -0.7050734 0.1055765 -5.39572
v -0.8050795 6.67572E-06 -5.397792
v -0.8050795 6.67572E-06 -9.195071
v -0.7999992 -3.815687 -9.238783
v -0.7999992 -2.257457 -9.787468
v -0.7999992 -2.115192 -8.904525
v -0.7999992 -3.490558 -8.453867
v -0.7999992 -0.8439026 -9.161994
v -0.7999992 -0.8439026 -9.972775
v -0.7999992 -0.8439026 -9.972775
v -0.8050795 6.67572E-06 -9.999989
v -0.7999992 -0.8439026 -9.161994
v -0.8050795 6.67572E-06 -9.195071
v -0.7999992 -2.115192 -8.904525
v -0.7999992 -0.7297802 -1.700116
v -0.7999992 -3.490558 -8.453867
v -0.7999992 -0.8439026 -9.161994
v 2.861023E-06 -0.844717 -9.972692
v 2.861023E-06 6.67572E-06 -9.999989
v -0.8050795 6.67572E-06 -9.999989
v -0.7999992 -0.8439026 -9.972775
v -0.7999992 -2.257457 -9.787468
v 2.861023E-06 -2.257457 -9.787468
v -0.7999992 -3.815687 -9.238783
v 2.861023E-06 -3.815687 -9.238783
v -0.8050795 6.67572E-06 -9.195071
v -0.8050795 6.67572E-06 -5.397792
v -0.7999992 -0.8439026 -9.161994
v -0.7999992 -0.7297802 -1.700116
v -0.8050795 -2.861023E-06 -2.861023E-06
v -0.7999992 -3.815687 -9.238783
v -0.7999992 -3.490558 -8.453867
v -0.7999992 -4.781766 -7.800003
v -0.7999992 -5.305504 -8.524927
v -0.7999992 -5.862752 -7.083117
v -0.7999992 -6.436066 -7.65642
v -0.7999992 -6.436066 -7.65642
v -0.7999992 -5.862752 -7.083117
v -0.7999992 -7.059922 -7.071061
v -0.7999992 -6.494235 -6.505374
v -0.7999992 -4.781766 -7.800003
v -0.7999992 -3.490558 -8.453867
v -0.7999992 -0.7297802 -1.700116
v -0.7999992 -5.862752 -7.083117
v 2.861023E-06 -6.435437 -7.656946
v -0.7999992 -6.436066 -7.65642
v -0.7999992 -7.059922 -7.071061
v 2.861023E-06 -7.059922 -7.071061
v -0.7999992 -5.305504 -8.524927
v 2.861023E-06 -5.305504 -8.524927
v -0.7999992 -3.815687 -9.238783
v 2.861023E-06 -3.815687 -9.238783
v -0.7999992 -6.494235 -6.505374
v -0.7999992 -5.862752 -7.083117
v -0.7999992 -0.7297802 -1.700116
v -0.8050795 -2.861023E-06 -2.861023E-06
vt -0.5044538 0.9311073
vt -0.5044538 0.9951036
vt -0.6223698 0.9951036
vt -0.6223698 0.9311073
vt -0.5044538 0.5403762
vt -0.6223698 0.5403762
vt -0.5044538 0.006626487
vt -0.6223698 0.006626487
vt 1.438805 0.310882
vt 1.457392 0.310882
vt 1.457392 0.3294685
vt 1.438805 0.3294685
vt 1.438805 0.310882
vt 1.457392 0.310882
vt 1.457392 0.3294685
vt 1.438805 0.3294685
vt 1.438805 0.310882
vt 1.457392 0.310882
vt 1.457392 0.3294685
vt 1.438805 0.3294685
vt 1.438805 0.310882
vt 1.457392 0.310882
vt 1.457392 0.3294685
vt 1.438805 0.3294685
vt 1.438805 0.310882
vt 1.457392 0.310882
vt 1.457392 0.3294685
vt 1.438805 0.3294685
vt -1.503304 0.2711573
vt -1.503304 0.3672348
vt -1.620532 0.3672348
vt -1.620532 0.2711573
vt -1.620532 0.4532239
vt -1.503304 0.4532239
vt -1.499115 0.9290066
vt -1.499115 1.00594
vt -1.622277 0.9290066
vt -1.622277 1.00594
vt 1.468228 0.2355392
vt 1.430544 0.2097602
vt 1.472239 0.2273141
vt 1.463397 0.2431233
vt 1.3792 0.9310362
vt 1.3792 0.9951036
vt 1.489034 0.9951036
vt 1.489034 0.9310362
vt 1.489034 0.8050375
vt 1.3792 0.8050375
vt 1.489034 0.7601142
vt 1.3792 0.7604704
vt -1.503304 0.0799042
vt -1.503304 0.2275634
vt -1.620532 0.0799042
vt -1.620532 0.437664
vt -1.503304 0.437664
vt -1.503304 0.2711573
vt -1.620532 0.2711573
vt -1.620532 0.3672348
vt -1.503304 0.3672348
vt -1.620532 0.4532239
vt -1.503304 0.4532239
vt -1.499115 0.9290066
vt -1.622277 0.9290066
vt -1.499115 1.00594
vt -1.622277 1.00594
vt 1.468228 0.2355392
vt 1.472239 0.2273141
vt 1.430544 0.2097602
vt 1.463397 0.2431233
vt 1.3792 0.9310362
vt 1.489034 0.9310362
vt 1.489034 0.9951036
vt 1.3792 0.9951036
vt 1.489034 0.8050375
vt 1.3792 0.8050375
vt 1.489034 0.7601142
vt 1.3792 0.7604704
vt -1.503304 0.0799042
vt -1.620532 0.0799042
vt -1.620532 0.437664
vt -1.503304 0.437664
vn -0.0006563663 0.9999998 0
vn -0.0006563663 0.9999998 0
vn -0.0006563663 0.9999998 0
vn -0.0006563663 0.9999998 0
vn -0.0006563663 0.9999998 0
vn -0.0006563663 0.9999998 0
vn -0.0006563663 0.9999998 0
vn -0.0006563663 0.9999998 0
vn -0.726584 0.6870777 0
vn -0.726584 0.6870777 0
vn -0.726584 0.6870777 0
vn -0.726584 0.6870777 0
vn -0.0006563663 0.6871906 -0.7264769
vn -0.0006563663 0.6871906 -0.7264769
vn -0.0006563663 0.6871906 -0.7264769
vn -0.0006563663 0.6871906 -0.7264769
vn -0.0006563663 0.6871906 0.7264769
vn -0.0006563663 0.6871906 0.7264769
vn -0.0006563663 0.6871906 0.7264769
vn -0.0006563663 0.6871906 0.7264769
vn -0.726584 0.6870777 0
vn -0.726584 0.6870777 0
vn -0.726584 0.6870777 0
vn -0.726584 0.6870777 0
vn -0.726584 0.6870777 0
vn -0.726584 0.6870777 0
vn -0.726584 0.6870777 0
vn -0.726584 0.6870777 0
vn -0.9999998 0.0006563663 0
vn -0.9999998 0.0006563663 0
vn -0.9999998 0.0006563663 0
vn -0.9999998 0.0006563663 0
vn -0.9999996 -0.0009900328 0
vn -0.9999996 -0.0009900328 0
vn -0.9999996 -0.0009900328 0
vn -0.9999824 -0.005929009 0
vn -0.9999996 -0.0009900328 0
vn -0.9999824 -0.005929009 0
vn -0.9999998 0.0006563663 0
vn -0.9999996 -0.0009900328 0
vn -0.9999998 0.0006563663 0
vn -0.9999996 -0.0009900328 0
vn -0.0006563663 -0.09318644 -0.9956484
vn -0.0006563663 -0.03227097 -0.9994789
vn -0.0006563663 -0.03227097 -0.9994789
vn -0.0006563663 -0.09318644 -0.9956484
vn -0.0006563663 -0.2397129 -0.9708436
vn -0.0006563663 -0.2397129 -0.9708436
vn -0.0006563663 -0.3829467 -0.9237702
vn -0.0006563663 -0.3829467 -0.9237702
vn -0.9999824 -0.005929009 0
vn -0.9999824 -0.005929009 0
vn -0.9999996 -0.0009900328 0
vn -0.9999996 -0.0009900328 0
vn -0.9999996 -0.0009900328 0
vn -0.9999998 0.0006563663 0
vn -0.9999998 0.0006563663 0
vn -0.9999998 0.0006563663 0
vn -0.9999998 0.0006563663 0
vn -0.9999998 0.0006563663 0
vn -0.9999998 0.0006563663 0
vn -0.9999998 0.0006563663 0
vn -0.9999998 0.0006563663 0
vn -0.9999998 0.0006563663 0
vn -0.9999974 0.0023027 0
vn -0.9999998 0.0006563663 0
vn -0.9999998 0.0006563663 0
vn -0.9999996 -0.0009900328 0
vn -0.9999998 0.0006563663 0
vn -0.0006563663 -0.6381332 -0.7699257
vn -0.0006563663 -0.6381332 -0.7699257
vn -0.0006563663 -0.6842315 -0.7292646
vn -0.0006563663 -0.6842315 -0.7292646
vn -0.0006563663 -0.5163022 -0.8564062
vn -0.0006563663 -0.5163022 -0.8564062
vn -0.0006563663 -0.3829467 -0.9237702
vn -0.0006563663 -0.3829467 -0.9237702
vn -0.9999974 0.0023027 0
vn -0.9999998 0.0006563663 0
vn -0.9999996 -0.0009900328 0
vn -0.9999996 -0.0009900328 0
g Frame1_0
f 3/3/3 2/2/2 1/1/1
f 4/4/4 3/3/3 1/1/1
f 4/4/4 1/1/1 5/5/5
f 6/6/6 4/4/4 5/5/5
f 6/6/6 5/5/5 7/7/7
f 8/8/8 6/6/6 7/7/7
f 11/11/11 10/10/10 9/9/9
f 12/12/12 11/11/11 9/9/9
f 15/15/15 14/14/14 13/13/13
f 16/16/16 15/15/15 13/13/13
f 19/19/19 18/18/18 17/17/17
f 20/20/20 19/19/19 17/17/17
f 23/23/23 22/22/22 21/21/21
f 24/24/24 23/23/23 21/21/21
f 27/27/27 26/26/26 25/25/25
f 28/28/28 27/27/27 25/25/25
f 31/31/31 30/30/30 29/29/29
f 32/32/32 31/31/31 29/29/29
f 31/31/31 33/33/33 30/30/30
f 33/33/33 34/34/34 30/30/30
f 37/37/37 36/36/36 35/35/35
f 37/37/37 38/38/38 36/36/36
f 41/41/41 40/40/40 39/39/39
f 39/39/39 40/40/40 42/42/42
f 45/45/45 44/44/44 43/43/43
f 46/46/46 45/45/45 43/43/43
f 46/46/46 43/43/43 47/47/47
f 43/43/43 48/48/48 47/47/47
f 47/47/47 48/48/48 49/49/49
f 48/48/48 50/50/50 49/49/49
f 53/53/53 52/52/52 51/51/51
f 53/53/53 54/54/54 52/52/52
f 54/54/54 55/55/55 52/52/52
f 58/58/58 57/57/57 56/56/56
f 59/59/59 58/58/58 56/56/56
f 60/60/60 58/58/58 59/59/59
f 61/61/61 60/60/60 59/59/59
f 64/64/64 63/63/63 62/62/62
f 65/65/65 63/63/63 64/64/64
f 68/68/68 67/67/67 66/66/66
f 68/68/68 66/66/66 69/69/69
f 72/72/72 71/71/71 70/70/70
f 73/73/73 72/72/72 70/70/70
f 70/70/70 71/71/71 74/74/74
f 75/75/75 70/70/70 74/74/74
f 75/75/75 74/74/74 76/76/76
f 77/77/77 75/75/75 76/76/76
f 80/80/80 79/79/79 78/78/78
f 81/81/81 80/80/80 78/78/78
