g Frame1
v -0.7000008 0.09443188 -0.09999943
v -0.7000008 0.09443188 -0.792572
v 4.768372E-07 0.09443188 -0.792572
v 4.768372E-07 0.09443188 -0.09999943
v -0.7000008 0.09443188 -4.591931
v -0.7000008 0.09443188 -5.296843
v 4.768372E-07 0.09443188 -5.296843
v 4.768372E-07 0.09443188 -4.591931
v -0.7000008 0.09443188 -0.792572
v 4.768372E-07 0.09443188 -0.792572
v -0.7000008 0.09443188 -5.296843
v -0.7000008 0.09443188 -4.591931
v -0.8000002 -0.005567074 -4.591931
v -0.8000002 -0.005567074 -5.396842
v 4.768372E-07 0.09443188 -5.296843
v -0.7000008 0.09443188 -5.296843
v -0.8000002 -0.005567074 -5.396842
v 4.768372E-07 -0.005567074 -5.396842
v -0.7000008 0.09443188 -0.09999943
v 4.768372E-07 0.09443188 -0.09999943
v 4.768372E-07 -0.005573273 -4.768372E-07
v -0.8000002 -0.005573273 -4.768372E-07
v -0.7000008 0.09443188 -0.792572
v -0.7000008 0.09443188 -0.09999943
v -0.8000002 -0.005573273 -4.768372E-07
v -0.8000002 -0.005567074 -0.792572
v -0.7000008 0.09443188 -4.591931
v -0.7000008 0.09443188 -0.792572
v -0.8000002 -0.005567074 -0.792572
v -0.8000002 -0.005567074 -4.591931
v -0.8000002 -0.005567074 -5.396842
v -0.8000002 -0.005567074 -4.591931
v -0.8000002 -0.6055689 -4.591931
v -0.8000002 -0.6055632 -5.396842
v 4.768372E-07 -0.005567074 -5.396842
v -0.8000002 -0.005567074 -5.396842
v -0.8000002 -0.6055632 -5.396842
v 4.768372E-07 -0.6055632 -5.396842
v -0.8000002 -0.005573273 -4.768372E-07
v 4.768372E-07 -0.005573273 -4.768372E-07
v 4.768372E-07 -0.6055689 -4.768372E-07
v -0.8000002 -0.6055689 -4.768372E-07
v -0.8000002 -0.005567074 -0.792572
v -0.8000002 -0.005573273 -4.768372E-07
v -0.8000002 -0.6055689 -4.768372E-07
v -0.8000002 -0.6055689 -0.792572
v -0.8000002 -0.005567074 -4.591931
v -0.8000002 -0.005567074 -0.792572
v -0.8000002 -0.6055689 -0.792572
v -0.8000002 -0.6055689 -4.591931
v 4.768372E-07 -0.6055632 -5.396842
v -0.8000002 -0.6055632 -5.396842
v -0.8000002 -0.6055689 -4.768372E-07
v 4.768372E-07 -0.6055689 -4.768372E-07
v -0.5974426 -0.4958305 -2.361753
v -0.5974426 -0.4958305 -1.329043
v -0.5974426 -0.8910289 -2.283141
v -0.5974364 -1.226066 -2.059279
v -0.5974426 -1.449928 -1.724248
v -0.5974426 -1.52854 -1.329043
v -0.5974426 -1.449928 -0.933845
v -0.5974426 -1.226066 -0.5988083
v -0.5974364 -0.8910289 -0.3749461
v -0.5974426 -0.4958305 -0.2963343
v 4.768372E-07 -0.8910289 -0.3749461
v -0.5974364 -0.8910289 -0.3749461
v -0.5974426 -0.4958305 -0.2963343
v 4.768372E-07 -0.4958305 -0.2963343
v 4.768372E-07 -1.226066 -0.5988083
v -0.5974426 -1.226066 -0.5988083
v 4.768372E-07 -1.449928 -0.933845
v -0.5974426 -1.449928 -0.933845
v 4.768372E-07 -1.52854 -1.329043
v -0.5974426 -1.52854 -1.329043
v 4.768372E-07 -1.449928 -1.724248
v -0.5974426 -1.449928 -1.724248
v 4.768372E-07 -1.226066 -2.059279
v -0.5974364 -1.226066 -2.059279
v 4.768372E-07 -0.8910289 -2.283141
v -0.5974426 -0.8910289 -2.283141
v 4.768372E-07 -0.4958305 -2.361753
v -0.5974426 -0.4958305 -2.361753
vt -0.5044559 0.006625354
vt -0.5044559 0.0713802
vt -0.6223746 0.0713802
vt -0.6223746 0.006625354
vt -0.5044559 0.9311002
vt -0.5044559 0.9951014
vt -0.6223746 0.9951014
vt -0.6223746 0.9311002
vt -0.5044559 0.5403811
vt -0.6223746 0.5403811
vt 1.438802 0.3108829
vt 1.457391 0.3108829
vt 1.457391 0.3294715
vt 1.438802 0.3294715
vt 1.438802 0.3108829
vt 1.457391 0.3108829
vt 1.457391 0.3294715
vt 1.438802 0.3294715
vt 1.438802 0.3108829
vt 1.457391 0.3108829
vt 1.457391 0.3294715
vt 1.438802 0.3294715
vt 1.438802 0.3108829
vt 1.457391 0.3108829
vt 1.457391 0.3294715
vt 1.438802 0.3294715
vt 1.438802 0.3108829
vt 1.457391 0.3108829
vt 1.457391 0.3294715
vt 1.438802 0.3294715
vt 1.438802 0.3108829
vt 1.457391 0.3108829
vt 1.457391 0.3294715
vt 1.438802 0.3294715
vt 1.438802 0.3108829
vt 1.457391 0.3108829
vt 1.457391 0.3294715
vt 1.438802 0.3294715
vt 1.438802 0.3108829
vt 1.457391 0.3108829
vt 1.457391 0.3294715
vt 1.438802 0.3294715
vt 1.438802 0.3108829
vt 1.457391 0.3108829
vt 1.457391 0.3294715
vt 1.438802 0.3294715
vt 1.438802 0.3108829
vt 1.457391 0.3108829
vt 1.457391 0.3294715
vt 1.438802 0.3294715
vt 1.438802 0.3294715
vt 1.457391 0.3294715
vt 1.438802 0.3294715
vt 1.457391 0.3294715
vt 1.448164 0.3783115
vt 1.448164 0.3803504
vt 1.448917 0.3784621
vt 1.449552 0.3788827
vt 1.44998 0.3795174
vt 1.450123 0.380271
vt 1.44998 0.3810168
vt 1.449552 0.3816515
vt 1.448917 0.3820799
vt 1.448164 0.3822307
vt 1.447775 0.3826908
vt 1.447775 0.3822148
vt 1.447577 0.3822148
vt 1.447577 0.3826908
vt 1.447973 0.3826908
vt 1.447973 0.3822148
vt 1.448164 0.3826908
vt 1.448164 0.3822148
vt 1.448362 0.3826908
vt 1.448362 0.3822148
vt 1.44856 0.3826908
vt 1.44856 0.3822148
vt 1.448751 0.3826908
vt 1.448751 0.3822148
vt 1.448949 0.3826908
vt 1.448949 0.3822148
vt 1.449147 0.3826908
vt 1.449147 0.3822148
vn -0.0009775162 0.9999995 0
vn -0.0009775162 0.9999995 0
vn -0.0009775162 0.9999995 0
vn -0.0009775162 0.9999995 0
vn -0.0009775162 0.9999995 0
vn -0.0009775162 0.9999995 0
vn -0.0009775162 0.9999995 0
vn -0.0009775162 0.9999995 0
vn -0.0009775162 0.9999995 0
vn -0.0009775162 0.9999995 0
vn -0.7067446 0.7067446 -0.03200431
vn -0.7067446 0.7067446 -0.03200431
vn -0.7067446 0.7067446 -0.03200431
vn -0.7067446 0.7067446 -0.03200431
vn -0.0009775162 0.7067446 -0.7074682
vn -0.0009775162 0.7067446 -0.7074682
vn -0.0009775162 0.7067446 -0.7074682
vn -0.0009775162 0.7067446 -0.7074682
vn -0.0009775162 0.7067446 0.7074682
vn -0.0009775162 0.7067446 0.7074682
vn -0.0009775162 0.7067446 0.7074682
vn -0.0009775162 0.7067446 0.7074682
vn -0.7067446 0.7067446 -0.03200431
vn -0.7067446 0.7067446 0.03200431
vn -0.7067446 0.7067446 0.03200431
vn -0.7067446 0.7067446 -0.03200431
vn -0.7067446 0.7067446 -0.03200431
vn -0.7067446 0.7067446 -0.03200431
vn -0.7067446 0.7067446 -0.03200431
vn -0.7067446 0.7067446 -0.03200431
vn -0.9999995 0.0009775162 0
vn -0.9999995 0.0009775162 0
vn -0.9999995 0.0009775162 0
vn -0.9999995 0.0009775162 0
vn -0.0009775162 0.0009775162 -0.999999
vn -0.0009775162 0.0009775162 -0.999999
vn -0.0009775162 0.0009775162 -0.999999
vn -0.0009775162 0.0009775162 -0.999999
vn -0.0009775162 0.0009775162 0.999999
vn -0.0009775162 0.0009775162 0.999999
vn -0.0009775162 0.0009775162 0.999999
vn -0.0009775162 0.0009775162 0.999999
vn -0.9999995 0.0009775162 0
vn -0.9999995 0.0009775162 0
vn -0.9999995 0.0009775162 0
vn -0.9999995 0.0009775162 0
vn -0.9999995 0.0009775162 0
vn -0.9999995 0.0009775162 0
vn -0.9999995 0.0009775162 0
vn -0.9999995 0.0009775162 0
vn -0.0009775162 -0.9999995 0
vn -0.0009775162 -0.9999995 0
vn -0.0009775162 -0.9999995 0
vn -0.0009775162 -0.9999995 0
vn -0.9999995 0.0009775162 0
vn -0.9999995 0.0009775162 0
vn -0.9999995 -0.0009775162 0
vn -0.9999995 -0.0009775162 0
vn -0.9999995 0.0009775162 0
vn -0.9999995 0.0009775162 0
vn -0.9999995 0.0009775162 0
vn -0.9999995 0.0009775162 0
vn -0.9999995 -0.0009775162 0
vn -0.9999995 -0.0009775162 0
vn -0.0009775162 -0.382209 0.9240754
vn -0.0009775162 -0.382209 0.9240754
vn -0.0009775162 -0.1945258 0.9808969
vn -0.0009775162 -0.1945258 0.9808969
vn -0.0009775162 -0.7067446 0.7074682
vn -0.0009775162 -0.7067446 0.7074682
vn -0.0009775162 -0.9237532 0.382987
vn -0.0009775162 -0.9237532 0.382987
vn -0.0009775162 -0.9999995 0
vn -0.0009775162 -0.9999995 0
vn -0.0009775162 -0.9237532 -0.382987
vn -0.0009775162 -0.9237532 -0.382987
vn -0.0009775162 -0.7067446 -0.7074682
vn -0.0009775162 -0.7067446 -0.7074682
vn -0.0009775162 -0.382209 -0.9240754
vn -0.0009775162 -0.382209 -0.9240754
vn -0.0009775162 -0.1945258 -0.9808969
vn -0.0009775162 -0.1945258 -0.9808969
g Frame1_0
f 3/3/3 2/2/2 1/1/1
f 4/4/4 3/3/3 1/1/1
f 7/7/7 6/6/6 5/5/5
f 8/8/8 7/7/7 5/5/5
f 8/8/8 5/5/5 9/9/9
f 10/10/10 8/8/8 9/9/9
f 13/13/13 12/12/12 11/11/11
f 14/14/14 13/13/13 11/11/11
f 17/17/17 16/16/16 15/15/15
f 18/18/18 17/17/17 15/15/15
f 21/21/21 20/20/20 19/19/19
f 22/22/22 21/21/21 19/19/19
f 25/25/25 24/24/24 23/23/23
f 26/26/26 25/25/25 23/23/23
f 29/29/29 28/28/28 27/27/27
f 30/30/30 29/29/29 27/27/27
f 33/33/33 32/32/32 31/31/31
f 34/34/34 33/33/33 31/31/31
f 37/37/37 36/36/36 35/35/35
f 38/38/38 37/37/37 35/35/35
f 41/41/41 40/40/40 39/39/39
f 42/42/42 41/41/41 39/39/39
f 45/45/45 44/44/44 43/43/43
f 46/46/46 45/45/45 43/43/43
f 49/49/49 48/48/48 47/47/47
f 50/50/50 49/49/49 47/47/47
f 53/53/53 52/52/52 51/51/51
f 54/54/54 53/53/53 51/51/51
f 57/57/57 56/56/56 55/55/55
f 58/58/58 56/56/56 57/57/57
f 59/59/59 56/56/56 58/58/58
f 60/60/60 56/56/56 59/59/59
f 61/61/61 56/56/56 60/60/60
f 62/62/62 56/56/56 61/61/61
f 63/63/63 56/56/56 62/62/62
f 64/64/64 56/56/56 63/63/63
f 67/67/67 66/66/66 65/65/65
f 68/68/68 67/67/67 65/65/65
f 65/65/65 66/66/66 69/69/69
f 66/66/66 70/70/70 69/69/69
f 69/69/69 70/70/70 71/71/71
f 70/70/70 72/72/72 71/71/71
f 71/71/71 72/72/72 73/73/73
f 72/72/72 74/74/74 73/73/73
f 73/73/73 74/74/74 75/75/75
f 74/74/74 76/76/76 75/75/75
f 75/75/75 76/76/76 77/77/77
f 76/76/76 78/78/78 77/77/77
f 77/77/77 78/78/78 79/79/79
f 78/78/78 80/80/80 79/79/79
f 79/79/79 80/80/80 81/81/81
f 80/80/80 82/82/82 81/81/81
