g Frame1
v -0.3779955 0.03849101 -0.05400109
v -0.4319971 4.768372E-07 4.768372E-07
v -0.4319971 3.576279E-06 -2.916001
v -0.3779955 0.03849721 -2.862006
v -0.05399561 0.03849411 -2.538
v -0.05399561 0.03849101 -0.378001
v -0.3779955 0.03849101 -0.05400109
v -0.3779955 0.03849721 -2.862006
v -4.768372E-07 0.03849721 -2.862006
v 2.622604E-06 0.03849411 -2.538
v 2.622604E-06 0.03849101 -0.378001
v -4.768372E-07 0.03849101 -0.05400109
v 2.622604E-06 0.005495548 -2.483986
v 2.622604E-06 0.00549221 -0.4319737
v -0.05399561 0.03849101 -0.378001
v -0.05399561 0.03849411 -2.538
v -0.4319971 3.576279E-06 -2.916001
v -0.4319971 4.768372E-07 4.768372E-07
v -0.4319971 -0.3270071 4.768372E-07
v -0.4319971 -0.327004 -2.916001
v -0.3968592 -0.481154 -1.232894
v -0.3968592 -0.2677467 -1.275347
v -0.3968592 -0.2677467 -0.7176843
v -0.3968592 -0.481154 -0.7176843
v -0.3968592 -0.4811573 -0.202471
v -0.3968592 -0.2677467 -0.1600215
v -0.3968592 -0.6620736 -0.3233576
v -0.3968592 -0.7829599 -0.504277
v -0.3968592 -0.8254097 -0.7176843
v -0.3968592 -0.7829599 -0.9310915
v -0.3968592 -0.6620736 -1.112011
v 2.622604E-06 0.03849411 -2.538
v 2.622604E-06 0.005495548 -2.483986
v -0.05399561 0.03849411 -2.538
v -4.768372E-07 3.576279E-06 -2.916001
v -4.768372E-07 0.03849721 -2.862006
v -0.3779955 0.03849721 -2.862006
v -0.4319971 3.576279E-06 -2.916001
v -4.768372E-07 -0.327004 -2.916001
v -4.768372E-07 3.576279E-06 -2.916001
v -0.4319971 3.576279E-06 -2.916001
v -0.4319971 -0.327004 -2.916001
v -4.768372E-07 -0.3270071 4.768372E-07
v -4.768372E-07 -0.327004 -2.916001
v -0.4319971 -0.327004 -2.916001
v -0.4319971 -0.3270071 4.768372E-07
v -4.768372E-07 4.768372E-07 4.768372E-07
v -4.768372E-07 -0.3270071 4.768372E-07
v -0.4319971 -0.3270071 4.768372E-07
v -0.4319971 4.768372E-07 4.768372E-07
v -4.768372E-07 0.03849101 -0.05400109
v -4.768372E-07 4.768372E-07 4.768372E-07
v -0.4319971 4.768372E-07 4.768372E-07
v -0.3779955 0.03849101 -0.05400109
v 2.622604E-06 0.00549221 -0.4319737
v 2.622604E-06 0.03849101 -0.378001
v -0.05399561 0.03849101 -0.378001
v -0.3968592 -0.2677467 -1.275347
v -0.3968592 -0.481154 -1.232894
v -4.768372E-07 -0.481154 -1.232894
v -4.768372E-07 -0.2677467 -1.275347
v -4.768372E-07 -0.6620736 -1.112011
v -0.3968592 -0.6620736 -1.112011
v -4.768372E-07 -0.7829599 -0.9310915
v -0.3968592 -0.7829599 -0.9310915
v -4.768372E-07 -0.8254097 -0.7176843
v -0.3968592 -0.8254097 -0.7176843
v -4.768372E-07 -0.7829599 -0.504277
v -0.3968592 -0.7829599 -0.504277
v -4.768372E-07 -0.6620736 -0.3233576
v -0.3968592 -0.6620736 -0.3233576
v -4.768372E-07 -0.4811573 -0.202471
v -0.3968592 -0.4811573 -0.202471
v -4.768372E-07 -0.2677467 -0.1600215
v -0.3968592 -0.2677467 -0.1600215
vt 0.1227282 0.2007565
vt 0.1227176 0.2007459
vt 0.123345 0.2007459
vt 0.1233343 0.2007565
vt 0.1232599 0.2008309
vt 0.122792 0.2008309
vt 0.1227282 0.2007565
vt 0.1233343 0.2007565
vt 0.1233343 0.2008415
vt 0.1232599 0.2009054
vt 0.122792 0.2009054
vt 0.1227282 0.2008415
vt 0.1232493 0.2008841
vt 0.1228027 0.2008841
vt 0.122792 0.2008309
vt 0.1232599 0.2008309
vt 0.2852924 0.08248065
vt 0.122271 0.08248065
vt 0.1155081 0.07714266
vt 0.2920552 0.07714266
vt 0.4390095 0.2155901
vt 0.4382545 0.215739
vt 0.4382545 0.2138569
vt 0.4390095 0.213825
vt 0.4390095 0.2119641
vt 0.4382545 0.2118153
vt 0.4396369 0.2123895
vt 0.4400622 0.2130275
vt 0.4402111 0.2137718
vt 0.4400622 0.2145268
vt 0.4396369 0.2151648
vt 0.1232599 0.2009054
vt 0.1232493 0.2008841
vt 0.1232599 0.2008309
vt 0.123345 0.2008309
vt 0.1233343 0.2008415
vt 0.1233343 0.2007565
vt 0.123345 0.2007459
vt 0.2920552 0.1005043
vt 0.2852924 0.1050555
vt 0.2852924 0.08248065
vt 0.2920552 0.07714266
vt 0.7710495 0.3695412
vt 0.7710495 0.390925
vt 0.7740056 0.390925
vt 0.7740056 0.3695412
vt 0.122271 0.1050555
vt 0.1155081 0.1005043
vt 0.1155081 0.07714266
vt 0.122271 0.08248065
vt 0.1227282 0.2008415
vt 0.1227176 0.2008309
vt 0.1227176 0.2007459
vt 0.1227282 0.2007565
vt 0.1228027 0.2008841
vt 0.122792 0.2009054
vt 0.122792 0.2008309
vt 0.4392328 0.2118153
vt 0.4390414 0.2118153
vt 0.4390414 0.211475
vt 0.4392328 0.211475
vt 0.4388393 0.211475
vt 0.4388393 0.2118153
vt 0.438648 0.211475
vt 0.438648 0.2118153
vt 0.4384565 0.211475
vt 0.4384565 0.2118153
vt 0.4382545 0.211475
vt 0.4382545 0.2118153
vt 0.4380631 0.211475
vt 0.4380631 0.2118153
vt 0.4378611 0.211475
vt 0.4378611 0.2118153
vt 0.4376697 0.211475
vt 0.4376697 0.2118153
vn -0.5796673 0.8142713 -0.0307898
vn -0.5796673 0.8142713 -0.0307898
vn -0.5796673 0.8142713 -0.0307898
vn -0.5796673 0.8142713 -0.0307898
vn 0.0009775162 0.9999995 0
vn 0.0009775162 0.9999995 0
vn 0.0009775162 0.9999995 0
vn 0.0009775162 0.9999995 0
vn -0.0009775162 0.9999995 0
vn -0.0009775162 0.9999995 0
vn -0.0009775162 0.9999995 0
vn -0.0009775162 0.9999995 0
vn 0.5210164 0.853372 0.01727025
vn 0.5210164 0.853372 0.01727025
vn 0.5210164 0.853372 0.01727025
vn 0.5210164 0.853372 0.01727025
vn -0.9999995 0.0009775162 0
vn -0.9999995 0.0009775162 0
vn -0.9999995 0.0009775162 0
vn -0.9999995 0.0009775162 0
vn -0.9999995 0.0009775162 0
vn -0.9999995 0.0009775162 0
vn -0.9999995 0.0009775162 0
vn -0.9999995 0.0009775162 0
vn -0.9999995 0.0009775162 0
vn -0.9999995 0.0009775162 0
vn -0.9999995 0.0009775162 0
vn -0.9999995 0.0009775162 0
vn -0.9999995 0.0009775162 0
vn -0.9999995 0.0009775162 0
vn -0.9999995 0.0009775162 0
vn -0.0009775162 0.853372 0.5213016
vn -0.0009775162 0.853372 0.5213016
vn -0.0009775162 0.853372 0.5213016
vn -0.0009775162 0.8142713 -0.5804837
vn -0.0009775162 0.8142713 -0.5804837
vn -0.0009775162 0.8142713 -0.5804837
vn -0.0009775162 0.8142713 -0.5804837
vn -0.0009775162 0.0009775162 -0.999999
vn -0.0009775162 0.0009775162 -0.999999
vn -0.0009775162 0.0009775162 -0.999999
vn -0.0009775162 0.0009775162 -0.999999
vn -0.0009775162 -0.9999995 0
vn -0.0009775162 -0.9999995 0
vn -0.0009775162 -0.9999995 0
vn -0.0009775162 -0.9999995 0
vn -0.0009775162 0.0009775162 0.999999
vn -0.0009775162 0.0009775162 0.999999
vn -0.0009775162 0.0009775162 0.999999
vn -0.0009775162 0.0009775162 0.999999
vn -0.0009775162 0.8142713 0.5804837
vn -0.0009775162 0.8142713 0.5804837
vn -0.0009775162 0.8142713 0.5804837
vn -0.0009775162 0.8142713 0.5804837
vn -0.0009775162 0.853372 -0.5213016
vn -0.0009775162 0.853372 -0.5213016
vn -0.0009775162 0.853372 -0.5213016
vn -0.0009775162 -0.1945258 -0.9808969
vn -0.0009775162 -0.382209 -0.9240754
vn -0.0009775162 -0.382209 -0.9240754
vn -0.0009775162 -0.1945258 -0.9808969
vn -0.0009775162 -0.7067446 -0.7074682
vn -0.0009775162 -0.7067446 -0.7074682
vn -0.0009775162 -0.9237532 -0.382987
vn -0.0009775162 -0.9237532 -0.382987
vn -0.0009775162 -0.9999995 0
vn -0.0009775162 -0.9999995 0
vn -0.0009775162 -0.9237532 0.382987
vn -0.0009775162 -0.9237532 0.382987
vn -0.0009775162 -0.7067446 0.7074682
vn -0.0009775162 -0.7067446 0.7074682
vn -0.0009775162 -0.382209 0.9240754
vn -0.0009775162 -0.382209 0.9240754
vn -0.0009775162 -0.1945258 0.9808969
vn -0.0009775162 -0.1945258 0.9808969
g Frame1_0
f 3/3/3 2/2/2 1/1/1
f 4/4/4 3/3/3 1/1/1
f 7/7/7 6/6/6 5/5/5
f 8/8/8 7/7/7 5/5/5
f 8/8/8 5/5/5 9/9/9
f 5/5/5 10/10/10 9/9/9
f 6/6/6 7/7/7 11/11/11
f 7/7/7 12/12/12 11/11/11
f 15/15/15 14/14/14 13/13/13
f 16/16/16 15/15/15 13/13/13
f 19/19/19 18/18/18 17/17/17
f 20/20/20 19/19/19 17/17/17
f 23/23/23 22/22/22 21/21/21
f 24/24/24 23/23/23 21/21/21
f 23/23/23 24/24/24 25/25/25
f 26/26/26 23/23/23 25/25/25
f 24/24/24 27/27/27 25/25/25
f 24/24/24 28/28/28 27/27/27
f 24/24/24 29/29/29 28/28/28
f 24/24/24 30/30/30 29/29/29
f 24/24/24 31/31/31 30/30/30
f 24/24/24 21/21/21 31/31/31
f 34/34/34 33/33/33 32/32/32
f 37/37/37 36/36/36 35/35/35
f 38/38/38 37/37/37 35/35/35
f 41/41/41 40/40/40 39/39/39
f 42/42/42 41/41/41 39/39/39
f 45/45/45 44/44/44 43/43/43
f 46/46/46 45/45/45 43/43/43
f 49/49/49 48/48/48 47/47/47
f 50/50/50 49/49/49 47/47/47
f 53/53/53 52/52/52 51/51/51
f 54/54/54 53/53/53 51/51/51
f 57/57/57 56/56/56 55/55/55
f 60/60/60 59/59/59 58/58/58
f 61/61/61 60/60/60 58/58/58
f 60/60/60 62/62/62 59/59/59
f 62/62/62 63/63/63 59/59/59
f 62/62/62 64/64/64 63/63/63
f 64/64/64 65/65/65 63/63/63
f 64/64/64 66/66/66 65/65/65
f 66/66/66 67/67/67 65/65/65
f 66/66/66 68/68/68 67/67/67
f 68/68/68 69/69/69 67/67/67
f 68/68/68 70/70/70 69/69/69
f 70/70/70 71/71/71 69/69/69
f 70/70/70 72/72/72 71/71/71
f 72/72/72 73/73/73 71/71/71
f 72/72/72 74/74/74 73/73/73
f 74/74/74 75/75/75 73/73/73
