g Frame0
v 0.6999999 0.09443364 -9.195076
v -0.005078125 0.09443364 -9.195076
v -0.005078125 0.09443383 -9.899989
v 0.6999999 0.09443383 -9.899989
v 0.6999999 0.09443173 -5.395719
v -0.005078125 0.09443173 -5.395719
v 0.6999999 0.09442944 -0.09999984
v -0.005078125 0.09442944 -0.09999984
v 0.6999999 0.09443383 -9.899989
v 0.8 -0.005565977 -9.999989
v 0.8 -0.005566358 -9.195076
v 0.6999999 0.09443364 -9.195076
v -0.005078125 0.09443383 -9.899989
v -0.005078125 -0.005565977 -9.999989
v 0.8 -0.005565977 -9.999989
v 0.6999999 0.09443383 -9.899989
v 0.6999999 0.09442944 -0.09999984
v 0.8 -0.005570745 -8.940696E-08
v -0.005078125 -0.005570745 1.072884E-07
v -0.005078125 0.09442944 -0.09999984
v 0.6999999 0.09443173 -5.395719
v 0.8 -0.005568265 -5.395719
v 0.8 -0.005570745 -8.940696E-08
v 0.6999999 0.09442944 -0.09999984
v 0.6999999 0.09443364 -9.195076
v 0.8 -0.005566358 -9.195076
v 0.8 -0.005568265 -5.395719
v 0.6999999 0.09443173 -5.395719
v 0.8 -0.005565977 -9.999989
v 0.8 -0.6055659 -9.999989
v 0.8 -0.6055663 -9.195076
v 0.8 -0.005566358 -9.195076
v -0.005078125 -0.005565977 -9.999989
v -0.005078125 -0.6055659 -9.999989
v 0.8 -0.6055659 -9.999989
v 0.8 -0.005565977 -9.999989
v 0.8 -0.005570745 -8.940696E-08
v 0.8 -0.6055707 -8.940696E-08
v -0.005078125 -0.6055707 -8.344649E-08
v -0.005078125 -0.005570745 1.072884E-07
v 0.8 -0.005568265 -5.395719
v 0.8 -0.6055682 -5.395719
v 0.8 -0.6055707 -8.940696E-08
v 0.8 -0.005570745 -8.940696E-08
v 0.8 -0.005566358 -9.195076
v 0.8 -0.6055663 -9.195076
v 0.8 -0.6055682 -5.395719
v 0.8 -0.005568265 -5.395719
v -0.005078125 -0.6055659 -9.999989
v -0.005078125 -0.6055707 -8.344649E-08
v 0.8 -0.6055707 -8.940696E-08
v 0.8 -0.6055659 -9.999989
v 0.5791742 -1.319872 -4.636168
v 0.5791742 -0.4958284 -2.646748
v 0.5791742 -0.4958273 -4.80008
v 0.5791763 -2.018464 -4.169384
v 0.5791742 -2.485247 -3.470794
v 0.5791742 -2.64916 -2.646749
v 0.5791742 -2.485248 -1.822704
v 0.5791742 -2.018465 -1.124113
v 0.5791763 -1.319873 -0.657329
v 0.5791742 -0.4958288 -0.4934161
v 0.5791742 -0.4958273 -4.80008
v -0.005078125 -0.4958273 -4.80008
v -0.005078125 -1.319872 -4.636168
v 0.5791742 -1.319872 -4.636168
v -0.005078125 -2.018464 -4.169384
v 0.5791763 -2.018464 -4.169384
v -0.005078125 -2.485247 -3.470794
v 0.5791742 -2.485247 -3.470794
v -0.005078125 -2.64916 -2.646749
v 0.5791742 -2.64916 -2.646749
v -0.005078125 -2.485248 -1.822704
v 0.5791742 -2.485248 -1.822704
v -0.005078125 -2.018465 -1.124113
v 0.5791742 -2.018465 -1.124113
v -0.005078125 -1.319873 -0.657329
v 0.5791763 -1.319873 -0.657329
v -0.005078125 -0.4958288 -0.4934161
v 0.5791742 -0.4958288 -0.4934161
vt -0.5044546 0.9311022
vt -0.6223746 0.9311022
vt -0.6223746 0.9950978
vt -0.5044546 0.9950978
vt -0.5044546 0.5403799
vt -0.6223746 0.5403799
vt -0.5044546 0.006625657
vt -0.6223746 0.006625657
vt 1.438801 0.3108805
vt 1.438801 0.3294697
vt 1.45739 0.3294697
vt 1.45739 0.3108805
vt 1.438801 0.3108805
vt 1.438801 0.3294697
vt 1.45739 0.3294697
vt 1.45739 0.3108805
vt 1.438801 0.3108805
vt 1.438801 0.3294697
vt 1.45739 0.3294697
vt 1.45739 0.3108805
vt 1.438801 0.3108805
vt 1.438801 0.3294697
vt 1.45739 0.3294697
vt 1.45739 0.3108805
vt 1.438801 0.3108805
vt 1.438801 0.3294697
vt 1.45739 0.3294697
vt 1.45739 0.3108805
vt 1.438801 0.3108805
vt 1.438801 0.3294697
vt 1.45739 0.3294697
vt 1.45739 0.3108805
vt 1.438801 0.3108805
vt 1.438801 0.3294697
vt 1.45739 0.3294697
vt 1.45739 0.3108805
vt 1.438801 0.3108805
vt 1.438801 0.3294697
vt 1.45739 0.3294697
vt 1.45739 0.3108805
vt 1.438801 0.3108805
vt 1.438801 0.3294697
vt 1.45739 0.3294697
vt 1.45739 0.3108805
vt 1.438801 0.3108805
vt 1.438801 0.3294697
vt 1.45739 0.3294697
vt 1.45739 0.3108805
vt 1.4464 0.2817233
vt 1.4464 0.2937723
vt 1.44737 0.2937723
vt 1.44737 0.2817233
vt 1.448916 0.3907053
vt 1.448166 0.3889727
vt 1.448166 0.3908545
vt 1.449552 0.3902804
vt 1.449977 0.3896444
vt 1.450126 0.3888943
vt 1.449977 0.3881441
vt 1.449552 0.3875082
vt 1.448916 0.3870833
vt 1.448166 0.386934
vt 1.449146 0.386934
vt 1.449146 0.3864215
vt 1.44895 0.3864215
vt 1.44895 0.386934
vt 1.448754 0.3864216
vt 1.448754 0.386934
vt 1.448558 0.3864215
vt 1.448558 0.386934
vt 1.448362 0.3864215
vt 1.448362 0.386934
vt 1.448166 0.3864215
vt 1.448166 0.386934
vt 1.44797 0.3864215
vt 1.44797 0.386934
vt 1.447774 0.3864216
vt 1.447774 0.386934
vt 1.447578 0.3864215
vt 1.447578 0.386934
vn 0 1 0
vn 0 1 0
vn 0 1 0
vn 0 1 0
vn 0 1 0
vn 0 1 0
vn 0 1 0
vn 0 1 0
vn 0.7071061 0.7071074 0
vn 0.7071061 0.7071075 0
vn 0.7071061 0.7071075 0
vn 0.7071061 0.7071075 0
vn 0 0.7071074 -0.7071061
vn 0 0.7071074 -0.7071061
vn 0 0.7071074 -0.7071061
vn 0 0.7071074 -0.7071061
vn 0 0.7071055 0.707108
vn 0 0.7071055 0.707108
vn 0 0.7071055 0.707108
vn 0 0.7071055 0.707108
vn 0.7071062 0.7071072 0
vn 0.7071063 0.7071072 0
vn 0.7071064 0.7071071 0
vn 0.7071065 0.7071071 0
vn 0.7071061 0.7071075 0
vn 0.7071061 0.7071075 0
vn 0.7071063 0.7071072 0
vn 0.7071062 0.7071072 0
vn 1 0 0
vn 1 0 0
vn 1 0 0
vn 1 0 0
vn 0 0 -1
vn 0 0 -1
vn 0 0 -1
vn 0 0 -1
vn 0 0 1
vn 0 0 1
vn 0 0 1
vn 0 0 1
vn 1 0 0
vn 1 0 0
vn 1 0 0
vn 1 0 0
vn 1 0 0
vn 1 0 0
vn 1 0 0
vn 1 0 0
vn 0 -1 0
vn 0 -1 0
vn 0 -1 0
vn 0 -1 0
vn 1 1.160893E-06 0
vn 1 0 0
vn 1 0 0
vn 1 0 0
vn 1 0 1.176135E-06
vn 1 0 0
vn 1 0 0
vn 1 0 0
vn 1 0 0
vn 1 2.579762E-06 0
vn 0 -0.1950891 -0.9807854
vn 0 -0.1950891 -0.9807854
vn 0 -0.3826829 -0.9238797
vn 0 -0.3826831 -0.9238796
vn 0 -0.7071065 -0.7071071
vn 0 -0.7071064 -0.7071071
vn 0 -0.9238794 -0.3826839
vn 0 -0.9238793 -0.3826841
vn 0 -1 0
vn 0 -1 0
vn 0 -0.9238796 0.3826831
vn 0 -0.9238796 0.3826831
vn 0 -0.7071068 0.7071068
vn 0 -0.7071068 0.7071068
vn 0 -0.3826836 0.9238794
vn 0 -0.3826836 0.9238794
vn 0 -0.1950906 0.9807853
vn 0 -0.1950906 0.9807853
g Frame0_0
f 3/3/3 2/2/2 1/1/1
f 4/4/4 3/3/3 1/1/1
f 1/1/1 2/2/2 5/5/5
f 2/2/2 6/6/6 5/5/5
f 5/5/5 6/6/6 7/7/7
f 6/6/6 8/8/8 7/7/7
f 11/11/11 10/10/10 9/9/9
f 12/12/12 11/11/11 9/9/9
f 15/15/15 14/14/14 13/13/13
f 16/16/16 15/15/15 13/13/13
f 19/19/19 18/18/18 17/17/17
f 20/20/20 19/19/19 17/17/17
f 23/23/23 22/22/22 21/21/21
f 24/24/24 23/23/23 21/21/21
f 27/27/27 26/26/26 25/25/25
f 28/28/28 27/27/27 25/25/25
f 31/31/31 30/30/30 29/29/29
f 32/32/32 31/31/31 29/29/29
f 35/35/35 34/34/34 33/33/33
f 36/36/36 35/35/35 33/33/33
f 39/39/39 38/38/38 37/37/37
f 40/40/40 39/39/39 37/37/37
f 43/43/43 42/42/42 41/41/41
f 44/44/44 43/43/43 41/41/41
f 47/47/47 46/46/46 45/45/45
f 48/48/48 47/47/47 45/45/45
f 51/51/51 50/50/50 49/49/49
f 52/52/52 51/51/51 49/49/49
f 55/55/55 54/54/54 53/53/53
f 53/53/53 54/54/54 56/56/56
f 56/56/56 54/54/54 57/57/57
f 57/57/57 54/54/54 58/58/58
f 58/58/58 54/54/54 59/59/59
f 59/59/59 54/54/54 60/60/60
f 60/60/60 54/54/54 61/61/61
f 61/61/61 54/54/54 62/62/62
f 65/65/65 64/64/64 63/63/63
f 66/66/66 65/65/65 63/63/63
f 67/67/67 65/65/65 66/66/66
f 68/68/68 67/67/67 66/66/66
f 69/69/69 67/67/67 68/68/68
f 70/70/70 69/69/69 68/68/68
f 71/71/71 69/69/69 70/70/70
f 72/72/72 71/71/71 70/70/70
f 73/73/73 71/71/71 72/72/72
f 74/74/74 73/73/73 72/72/72
f 75/75/75 73/73/73 74/74/74
f 76/76/76 75/75/75 74/74/74
f 77/77/77 75/75/75 76/76/76
f 78/78/78 77/77/77 76/76/76
f 79/79/79 77/77/77 78/78/78
f 80/80/80 79/79/79 78/78/78
