g Frame_Body_LOD1
v 2.495122 0.9469094 -1.110902
v 0.8440026 0.9469094 -2.597576
v 0.7522656 0.9469094 -2.315232
v 2.223916 0.9469094 -0.9901532
v 2.22391 0.9469094 0.9901507
v 2.495122 0.9469094 1.110899
v 0.8440026 0.9469094 2.597574
v 0.7522656 0.9469094 2.31523
v -1.365624 0.9469094 2.188534
v -1.21719 0.9469094 1.931435
v -2.576277 0.8793495 -0.04964852
v -2.292344 0.8793495 -0.1173403
v -1.365628 0.9469094 -2.233326
v -1.21719 0.9469094 -1.976228
v 0.8440026 0.9469094 -2.597576
v -1.365628 0.9469094 -2.233326
v -1.21719 0.9469094 -1.976228
v 0.7522656 0.9469094 -2.315232
v 2.549364 2.513698 -1.135053
v 0.8623531 2.49632 -2.654045
v 0.8440026 0.9469094 -2.597576
v 2.495122 0.9469094 -1.110902
v 2.549364 2.513698 1.135051
v 2.495122 0.9469094 1.110899
v 0.8623531 2.49632 2.654042
v 0.8440026 0.9469094 2.597574
v -1.395314 2.513698 2.239955
v -1.365624 0.9469094 2.188534
v -2.633065 2.513698 -0.05592585
v -2.576277 0.8793495 -0.04964852
v -1.395314 2.513698 -2.284748
v -1.365628 0.9469094 -2.233326
v 0.8623531 2.49632 -2.654045
v -1.395314 2.513698 -2.284748
v -1.365628 0.9469094 -2.233326
v 0.8440026 0.9469094 -2.597576
v 0.6758569 2.508297 -2.082599
v 0.8623531 2.49632 -2.654045
v 2.549364 2.513698 -1.135053
v 1.998066 2.52239 -0.8895978
v 2.549364 2.513698 1.135051
v 1.998066 2.52239 0.8895955
v 0.8623531 2.49632 2.654042
v 0.6758671 2.505012 2.080106
v -1.395314 2.513698 2.239955
v -1.093576 2.512058 1.717335
v -2.633065 2.513698 -0.05592585
v -2.055894 2.47761 -0.09121418
v -1.395314 2.513698 -2.284748
v -1.093586 2.515343 -1.764618
v -1.093586 2.515343 -1.764618
v -1.395314 2.513698 -2.284748
v 0.8623531 2.49632 -2.654045
v 0.6758569 2.508297 -2.082599
v 1.998066 2.52239 0.8895955
v 0.6758671 2.505012 2.080106
v 0.6651807 1.180899 2.047222
v 1.966473 1.180899 0.8755326
v -1.076289 1.180899 1.687387
v -1.093576 2.512058 1.717335
v -2.022823 1.113339 -0.08755946
v -2.055894 2.47761 -0.09121418
v -1.076289 1.180899 -1.732179
v -1.093586 2.515343 -1.764618
v 1.998066 2.52239 -0.8895978
v 1.966478 1.180899 -0.87553
v 0.6758569 2.508297 -2.082599
v 0.6651807 1.180899 -2.047225
v -1.093586 2.515343 -1.764618
v 0.6758569 2.508297 -2.082599
v 0.6651807 1.180899 -2.047225
v -1.076289 1.180899 -1.732179
v 0.1082082 1.147119 0.0135529
v 0.7485955 1.214679 -2.303939
v 2.213067 1.214679 -0.9853188
v -1.211252 1.214679 -1.965941
v -2.280984 1.147119 -0.1160848
v -1.211252 1.214679 1.921149
v 0.7485955 1.214679 2.303936
v 2.213062 1.214679 0.9853215
v 0.7632709 2.141217 -2.349114
v 0.7632709 1.430511E-06 -2.349114
v 2.25646 1.430511E-06 -1.004641
v 2.25646 2.141217 -1.004641
v 2.256455 1.430511E-06 1.004639
v 2.256455 2.141217 1.004639
v 0.7632709 1.430511E-06 2.349111
v 0.7632709 2.141217 2.349111
v -1.234999 1.430511E-06 1.962284
v -1.234999 2.141217 1.962284
v -2.316328 1.430511E-06 -0.07138562
v -2.316328 2.141217 -0.02557278
v -1.234999 1.430511E-06 -2.007082
v -1.234999 2.141217 -2.007082
v -1.234999 2.141217 -2.007082
v -1.234999 1.430511E-06 -2.007082
v 0.7632709 1.430511E-06 -2.349114
v 0.7632709 2.141217 -2.349114
vt 0.7051526 0.7868079
vt 0.793439 0.8226364
vt 0.7755395 0.7632521
vt 0.7055957 0.7632521
vt 0.5978149 0.7632521
vt 0.5973866 0.7868079
vt 0.489591 0.7868079
vt 0.4900341 0.7632521
vt 0.3818693 0.7872657
vt 0.3822385 0.7632521
vt 0.220139 0.7868079
vt 0.2205673 0.7632521
vt 0.1123435 0.7867931
vt 0.1127865 0.7632521
vt 0.793439 0.8226364
vt 0.1123435 0.7867931
vt 0.1127865 0.7632521
vt 0.1103054 0.7521166
vt 0.7055957 0.9094754
vt 0.8133765 0.9094754
vt 0.793439 0.8226364
vt 0.7051526 0.7868079
vt 0.5978149 0.9094754
vt 0.5973866 0.7868079
vt 0.4900341 0.9094754
vt 0.489591 0.7868079
vt 0.3822385 0.9094754
vt 0.3818693 0.7872657
vt 0.2205673 0.9094754
vt 0.220139 0.7868079
vt 0.1127865 0.9094754
vt 0.1123435 0.7867931
vt 0.8133765 0.9094754
vt 0.1127865 0.9094754
vt 0.1123435 0.7867931
vt 0.793439 0.8226364
vt 0.8121507 0.9492323
vt 0.8133765 0.9094754
vt 0.7055957 0.9094754
vt 0.7043995 0.94938
vt 0.5978149 0.9094754
vt 0.5966187 0.94938
vt 0.4900341 0.9094754
vt 0.4888378 0.94938
vt 0.3822385 0.9094754
vt 0.381057 0.94938
vt 0.2205673 0.9094754
vt 0.2193711 0.94938
vt 0.1127865 0.9094754
vt 0.111738 0.94938
vt 0.111738 0.94938
vt 0.1127865 0.9094754
vt 0.8133765 0.9094754
vt 0.8121507 0.9492323
vt 0.5966187 0.94938
vt 0.4888378 0.94938
vt 0.4826498 0.9821662
vt 0.408305 0.9821662
vt 0.5569947 0.9821662
vt 0.381057 0.94938
vt 0.6684971 0.9821662
vt 0.2193711 0.94938
vt 0.742842 0.9821662
vt 0.111738 0.94938
vt 0.7043995 0.94938
vt 0.3339602 0.9821662
vt 0.8121507 0.9492323
vt 0.2596153 0.9821662
vt 0.111738 0.94938
vt 0.8121507 0.9492323
vt 0.8153407 0.9821662
vt 0.742842 0.9821662
vt 0.7068067 0.2664532
vt 0.7425466 0.376464
vt 0.8124756 0.3135057
vt 0.6489731 0.3666282
vt 0.5936649 0.2904963
vt 0.6489731 0.1662782
vt 0.7425466 0.1564423
vt 0.8124756 0.2194006
vt 0.7874282 0.7366392
vt 0.7874282 0.587595
vt 0.679736 0.587595
vt 0.679736 0.7366392
vt 0.5720291 0.587595
vt 0.5720291 0.7366392
vt 0.4643368 0.587595
vt 0.4643368 0.7366392
vt 0.3565856 0.587595
vt 0.3566299 0.7366392
vt 0.1951359 0.587595
vt 0.1950768 0.7366392
vt 0.08735509 0.587595
vt 0.08738463 0.7366392
vt 0.08738463 0.7366392
vt 0.08735509 0.587595
vt 0.7874282 0.587595
vt 0.7874282 0.7366392
vn -0.000977397 -0.9999995 0
vn -0.000977397 -0.9999995 0
vn -0.000977397 -0.9999995 0
vn -0.000977397 -0.9999995 0
vn -0.000977397 -0.9999995 0
vn -0.000977397 -0.9999995 0
vn -0.000977397 -0.9999995 0
vn -0.000977397 -0.9999995 0
vn 0.00879743 -0.9999614 0
vn 0.00879743 -0.9999614 0
vn 0.01466129 -0.9998925 0
vn 0.01466129 -0.9998925 0
vn 0.004887644 -0.9999881 0
vn 0.006842576 -0.9999766 0
vn -0.000977397 -0.9999995 0
vn 0.004887644 -0.9999881 0
vn 0.006842576 -0.9999766 0
vn -0.000977397 -0.9999995 0
vn 0.9139781 -0.03812325 -0.4039687
vn 0.2805474 -0.03812325 -0.9590828
vn 0.2785923 -0.03812325 -0.9596525
vn 0.9139781 -0.03812325 -0.4039687
vn 0.9139781 -0.03812325 0.4039687
vn 0.9139781 -0.03812325 0.4039687
vn 0.2688172 -0.03812325 0.9624364
vn 0.2688172 -0.03812325 0.9624364
vn -0.6168128 -0.03616822 0.7862784
vn -0.6207229 -0.03616822 0.7831953
vn -0.9993466 -0.03614461 0
vn -0.9993466 -0.03614461 0
vn -0.6011726 -0.03616822 -0.7983003
vn -0.6050826 -0.03616822 -0.7953407
vn 0.2805474 -0.03812325 -0.9590828
vn -0.6011726 -0.03616822 -0.7983003
vn -0.6050826 -0.03616822 -0.7953407
vn 0.2785923 -0.03812325 -0.9596525
vn 0.004887645 0.9999881 0
vn 0.004887645 0.9999881 0
vn 0.01075218 0.9999422 0
vn 0.01075218 0.9999422 0
vn 0.01075218 0.9999422 0
vn 0.01075218 0.9999422 0
vn 0.004887645 0.9999881 0
vn 0.004887645 0.9999881 0
vn 0.01661561 0.999862 0
vn 0.01661561 0.999862 0
vn 0.02638389 0.9996519 0
vn 0.02638389 0.9996519 0
vn 0.0146613 0.9998925 0
vn 0.0146613 0.9998925 0
vn 0.0146613 0.9998925 0
vn 0.0146613 0.9998925 0
vn 0.004887645 0.9999881 0
vn 0.004887645 0.9999881 0
vn -0.9139779 0.02639282 -0.4049048
vn -0.2609968 0.02639282 -0.9649788
vn -0.2590418 0.02639282 -0.9655054
vn -0.9139779 0.02639282 -0.4049048
vn 0.6285433 0.02443779 -0.7773907
vn 0.6226782 0.02443779 -0.7820964
vn 0.9997014 0.0244305 0
vn 0.9997014 0.0244305 0
vn 0.5953077 0.02639282 0.8030642
vn 0.5894426 0.02639282 0.8073789
vn -0.9139779 0.02639282 0.4049048
vn -0.9139779 0.02639282 0.4049048
vn -0.272727 0.02834785 0.9616737
vn -0.272727 0.02834785 0.9616737
vn 0.5894426 0.02639282 0.8073789
vn -0.272727 0.02834785 0.9616737
vn -0.272727 0.02834785 0.9616737
vn 0.5953077 0.02639282 0.8030642
vn -0.008797193 0.9999614 0
vn -0.006842339 0.9999766 0
vn -0.02638365 0.9996519 0
vn 0.0009776354 0.9999993 0.000690534
vn -0.000977397 0.9999993 0.000690534
vn 0.004887645 0.9999881 0
vn -0.006842339 0.9999766 0
vn -0.02638365 0.9996519 0
vn 0.2766373 0.000977397 -0.9609739
vn 0.2766373 0.000977397 -0.9609739
vn 0.9139781 0.000977397 -0.4057624
vn 0.9139781 0.000977397 -0.4057624
vn 0.9139781 0.000977397 0.4057624
vn 0.9139781 0.000977397 0.4057624
vn 0.2649071 0.000977397 0.9642735
vn 0.2649071 0.000977397 0.9642735
vn -0.6148578 -0.002932668 0.7886326
vn -0.6148578 -0.002932668 0.7886326
vn -0.9999993 0.000977397 -0.0006893523
vn -0.9999993 -0.0009776354 0.0006890142
vn -0.5992175 0.002932429 -0.8005809
vn -0.5992175 0.002932429 -0.8005809
vn -0.5992175 0.002932429 -0.8005809
vn -0.5992175 0.002932429 -0.8005809
vn 0.2766373 0.000977397 -0.9609739
vn 0.2766373 0.000977397 -0.9609739
g Frame_Body_LOD1_0
f 3/3/3 2/2/2 1/1/1
f 4/4/4 3/3/3 1/1/1
f 5/5/5 4/4/4 1/1/1
f 6/6/6 5/5/5 1/1/1
f 5/5/5 6/6/6 7/7/7
f 8/8/8 5/5/5 7/7/7
f 8/8/8 7/7/7 9/9/9
f 10/10/10 8/8/8 9/9/9
f 10/10/10 9/9/9 11/11/11
f 12/12/12 10/10/10 11/11/11
f 12/12/12 11/11/11 13/13/13
f 14/14/14 12/12/12 13/13/13
f 17/17/17 16/16/16 15/15/15
f 18/18/18 17/17/17 15/15/15
f 21/21/21 20/20/20 19/19/19
f 22/22/22 21/21/21 19/19/19
f 22/22/22 19/19/19 23/23/23
f 24/24/24 22/22/22 23/23/23
f 24/24/24 23/23/23 25/25/25
f 26/26/26 24/24/24 25/25/25
f 26/26/26 25/25/25 27/27/27
f 28/28/28 26/26/26 27/27/27
f 28/28/28 27/27/27 29/29/29
f 30/30/30 28/28/28 29/29/29
f 30/30/30 29/29/29 31/31/31
f 32/32/32 30/30/30 31/31/31
f 35/35/35 34/34/34 33/33/33
f 36/36/36 35/35/35 33/33/33
f 39/39/39 38/38/38 37/37/37
f 40/40/40 39/39/39 37/37/37
f 41/41/41 39/39/39 40/40/40
f 42/42/42 41/41/41 40/40/40
f 43/43/43 41/41/41 42/42/42
f 44/44/44 43/43/43 42/42/42
f 45/45/45 43/43/43 44/44/44
f 46/46/46 45/45/45 44/44/44
f 47/47/47 45/45/45 46/46/46
f 48/48/48 47/47/47 46/46/46
f 49/49/49 47/47/47 48/48/48
f 50/50/50 49/49/49 48/48/48
f 53/53/53 52/52/52 51/51/51
f 54/54/54 53/53/53 51/51/51
f 57/57/57 56/56/56 55/55/55
f 58/58/58 57/57/57 55/55/55
f 57/57/57 59/59/59 56/56/56
f 59/59/59 60/60/60 56/56/56
f 59/59/59 61/61/61 60/60/60
f 61/61/61 62/62/62 60/60/60
f 61/61/61 63/63/63 62/62/62
f 63/63/63 64/64/64 62/62/62
f 58/58/58 55/55/55 65/65/65
f 66/66/66 58/58/58 65/65/65
f 66/66/66 65/65/65 67/67/67
f 68/68/68 66/66/66 67/67/67
f 71/71/71 70/70/70 69/69/69
f 72/72/72 71/71/71 69/69/69
f 75/75/75 74/74/74 73/73/73
f 74/74/74 76/76/76 73/73/73
f 76/76/76 77/77/77 73/73/73
f 77/77/77 78/78/78 73/73/73
f 78/78/78 79/79/79 73/73/73
f 79/79/79 80/80/80 73/73/73
f 80/80/80 75/75/75 73/73/73
f 83/83/83 82/82/82 81/81/81
f 84/84/84 83/83/83 81/81/81
f 85/85/85 83/83/83 84/84/84
f 86/86/86 85/85/85 84/84/84
f 87/87/87 85/85/85 86/86/86
f 88/88/88 87/87/87 86/86/86
f 89/89/89 87/87/87 88/88/88
f 90/90/90 89/89/89 88/88/88
f 91/91/91 89/89/89 90/90/90
f 92/92/92 91/91/91 90/90/90
f 93/93/93 91/91/91 92/92/92
f 94/94/94 93/93/93 92/92/92
f 97/97/97 96/96/96 95/95/95
f 98/98/98 97/97/97 95/95/95
