g Frame1
v -0.7135391 0.09444237 -10.061
v -0.7179461 0.09444237 -9.15208
v -0.7248249 -0.8210478 -9.118996
v -0.7190866 -0.8599958 -10.03365
v -0.8148518 -0.6461277 -1.758082
v -0.9298801 -0.01113892 -1.907349E-06
v -0.9296789 0.09443188 -0.05000305
v -0.7443409 -2.126339 -8.904526
v -0.8148518 -0.6461277 -1.758082
v -0.766161 -3.501709 -8.45386
v -0.7248249 -0.8210478 -9.118996
v -0.7838602 -4.792904 -7.799999
v -0.7927465 -5.705446 -7.118538
v -0.766161 -3.501709 -8.45386
v -0.7838602 -4.792904 -7.799999
v -0.7833214 -5.34875 -8.577193
v -0.7634563 -3.850205 -9.295236
v -0.7925463 -6.439761 -7.749311
v -0.7927465 -5.705446 -7.118538
v -0.7387409 -2.282852 -9.84713
v -0.7443409 -2.126339 -8.904526
v -0.7190866 -0.8599958 -10.03365
v -0.7248249 -0.8210478 -9.118996
v -0.7927465 -5.705446 -7.118538
v -0.7947645 -7.112811 -7.115548
v -0.7925463 -6.439761 -7.749311
v -0.7949762 -6.444717 -6.441631
v -0.8148518 -0.6461277 -1.758082
v -0.9298801 -0.01113892 -1.907349E-06
v -0.9296789 0.09443188 -0.05000305
v -0.8284302 0.1834345 -0.1000042
v -0.04798126 0.1834345 -0.1000042
v 0.05265522 0.09443188 -0.05000305
v -0.9296789 0.09443188 -0.05000305
v 0.05265522 0.09443188 -0.05000305
v 0.05265522 -0.01113892 -1.907349E-06
v -0.9298801 -0.01113892 -1.907349E-06
v -0.08050537 0.09444237 -10.14999
v 0.009828568 0.09444237 -9.899994
v -0.08135033 0.1834345 -10.061
v -0.08135033 0.1834345 -10.061
v 0.009828568 0.09444237 -9.899994
v 0.01037788 0.09444237 -9.15208
v -0.08000851 0.1834345 -9.15208
v 0.05265522 0.09443188 -0.05000305
v -0.04798126 0.1834345 -0.1000042
v -0.7135391 0.09444237 -10.061
v -0.620162 0.1834345 -10.061
v -0.6234379 0.1834345 -9.15208
v -0.7179461 0.09444237 -9.15208
v -0.8284302 0.1834345 -0.1000042
v -0.9296789 0.09443188 -0.05000305
v -0.08050537 0.09444237 -10.14999
v 0.01124477 -0.01113892 -9.999986
v 0.009828568 0.09444237 -9.899994
v 0.02084923 -0.855854 -9.972692
v -0.07241154 -0.8679953 -10.12239
v 0.04158115 -2.268597 -9.78747
v -0.05668831 -2.303636 -9.934155
v 0.06761742 -3.826832 -9.23879
v -0.03651619 -3.884315 -9.377571
v 0.08924675 -5.316638 -8.524931
v -0.01954651 -5.395581 -8.653432
v 0.1003313 -6.399576 -7.703283
v -0.01089287 -6.496853 -7.817698
v 0.1017685 -7.071063 -7.071052
v -0.009867668 -7.173696 -7.180448
v -0.6201096 0.09444237 -10.14999
v -0.7135391 0.09444237 -10.061
v -0.7190866 -0.8599958 -10.03365
v -0.6229305 -0.8672762 -10.12245
v -0.7387409 -2.282852 -9.84713
v -0.6383791 -2.303626 -9.934155
v -0.7634563 -3.850205 -9.295236
v -0.657568 -3.884315 -9.377571
v -0.7833214 -5.34875 -8.577193
v -0.6734495 -5.395602 -8.653432
v -0.7925463 -6.439761 -7.749311
v -0.6813116 -6.497413 -7.817244
v -0.7947645 -7.112811 -7.115548
v -0.6831284 -7.173696 -7.180448
v -0.08050537 0.09444237 -10.14999
v -0.08135033 0.1834345 -10.061
v -0.620162 0.1834345 -10.061
v -0.6201096 0.09444237 -10.14999
v -0.07241154 -0.8679953 -10.12239
v -0.08050537 0.09444237 -10.14999
v -0.6201096 0.09444237 -10.14999
v -0.6229305 -0.8672762 -10.12245
v -0.6383791 -2.303626 -9.934155
v -0.05668831 -2.303636 -9.934155
v -0.657568 -3.884315 -9.377571
v -0.03651619 -3.884315 -9.377571
v -0.01954651 -5.395581 -8.653432
v -0.6734495 -5.395602 -8.653432
v -0.01089287 -6.496853 -7.817698
v -0.6813116 -6.497413 -7.817244
v -0.6831284 -7.173696 -7.180448
v -0.009867668 -7.173696 -7.180448
v -0.6234379 0.1834345 -9.15208
v -0.620162 0.1834345 -10.061
v -0.08135033 0.1834345 -10.061
v -0.08000851 0.1834345 -9.15208
v -0.8284302 0.1834345 -0.1000042
v -0.04798126 0.1834345 -0.1000042
v -0.6201096 0.09444237 -10.14999
v -0.620162 0.1834345 -10.061
v -0.7135391 0.09444237 -10.061
vt 0.9954681 0.534844
vt 0.9945983 0.4562448
vt 0.9003586 0.4562448
vt 0.9012284 0.534844
vt 0.9003586 0.2086366
vt 0.9809567 0.0396582
vt 0.9945983 0.04463264
vt 0.779736 0.1399252
vt 0.8254215 0.3775082
vt 0.7343862 0.1547875
vt 0.8216525 0.1314412
vt 0.6917983 0.1763485
vt 0.6561532 0.2
vt 0.900328 0.2698253
vt 0.900328 0.2057984
vt 0.9976806 0.2057984
vt 0.9976806 0.2698253
vt 0.9976806 0.1484245
vt 0.900328 0.1484245
vt 0.9976806 0.3338521
vt 0.900328 0.3338521
vt 0.9976806 0.3912261
vt 0.900328 0.3912261
vt 0.8972458 0.4573434
vt 0.991455 0.5343557
vt 0.8959334 0.5343557
vt 0.991455 0.4573434
vt 0.8972458 0.2729076
vt 0.991455 0.04985122
vt 0.4868086 0.007385367
vt 0.5016098 0.009857329
vt 0.605951 0.009857329
vt 0.6207523 0.004928664
vt 0.4868086 0.007385367
vt 0.6207523 0.004928664
vt 0.6207523 0
vt 0.4868086 0
vt 0.605951 1
vt 0.6207523 0.9912261
vt 0.605951 0.9912261
vt 0.605951 0.9912261
vt 0.6207523 0.9912261
vt 0.6207523 0.9059129
vt 0.605951 0.8893416
vt 0.6207523 0.004928664
vt 0.605951 0.009857329
vt 0.4868086 0.9912261
vt 0.5016098 0.9912261
vt 0.5016098 0.8893416
vt 0.4868086 0.9059129
vt 0.5016098 0.009857329
vt 0.4868086 0.007385367
vt 0.6013733 0.9982758
vt 0.6148317 0.9838102
vt 0.6148317 0.9982758
vt 0.6148317 0.8970169
vt 0.6013733 0.8953536
vt 0.6148317 0.6258945
vt 0.6013733 0.621088
vt 0.6148317 0.4670787
vt 0.6013733 0.4591897
vt 0.6148317 0.2563516
vt 0.6013733 0.2455177
vt 0.6148317 0.1127031
vt 0.6013733 0.09936675
vt 0.6148317 0.02870222
vt 0.6013733 0.01461814
vt 0.5065233 0.9982758
vt 0.4930648 0.9982758
vt 0.4938277 0.8964522
vt 0.5072862 0.8954452
vt 0.4938277 0.6239262
vt 0.5072862 0.621088
vt 0.4938277 0.4638743
vt 0.5072862 0.4591897
vt 0.4938277 0.2519417
vt 0.5072862 0.2455177
vt 0.4938277 0.1071946
vt 0.5072862 0.09929045
vt 0.4938277 0.02296483
vt 0.5072862 0.01461814
vt 0.605951 1
vt 0.605951 0.9912261
vt 0.5016098 0.9912261
vt 0.5016098 1
vt 0.6013733 0.8953536
vt 0.6013733 0.9982758
vt 0.5065233 0.9982758
vt 0.5072862 0.8954452
vt 0.5072862 0.621088
vt 0.6013733 0.621088
vt 0.5072862 0.4591897
vt 0.6013733 0.4591897
vt 0.6013733 0.2455177
vt 0.5072862 0.2455177
vt 0.6013733 0.09936675
vt 0.5072862 0.09929045
vt 0.5072862 0.01461814
vt 0.6013733 0.01461814
vt 0.5016098 0.8893416
vt 0.5016098 0.9912261
vt 0.605951 0.9912261
vt 0.605951 0.8893416
vt 0.5016098 0.009857329
vt 0.605951 0.009857329
vt 0.5016098 1
vt 0.5016098 0.9912261
vt 0.4868086 0.9912261
vn -0.9999764 0.006880359 0
vn -0.9981506 -0.04305285 -0.04291713
vn -0.9998193 -0.01900747 0
vn -0.9999441 0.0105787 0
vn -0.9999912 -0.00421574 0
vn -0.9996516 -0.02639923 0
vn -0.9981506 -0.04675162 -0.03885505
vn -0.9999228 0.01242768 0
vn -0.9999912 -0.00421574 0
vn -0.9999441 0.0105787 0
vn -0.9998193 -0.01900747 0
vn -0.9999764 0.006880359 0
vn -0.9997652 0.0216705 0
vn -0.9999441 0.0105787 0
vn -0.9999764 0.006880359 0
vn -0.9999764 0.006880359 0
vn -0.9999441 0.0105787 0
vn -0.999995 0.00318174 0
vn -0.9997652 0.0216705 0
vn -0.9999228 0.01242768 0
vn -0.9999228 0.01242768 0
vn -0.9999441 0.0105787 0
vn -0.9998193 -0.01900747 0
vn -0.9997652 0.0216705 0
vn -0.9999992 0.001332341 0
vn -0.999995 0.00318174 0
vn -0.9981506 0.03277189 -0.05119992
vn -0.9999912 -0.00421574 0
vn -0.9996516 -0.02639923 0
vn 0.0005170107 0.4895699 0.8719639
vn 0.0005170107 0.4895699 0.8719639
vn 0.0005170107 0.4895699 0.8719639
vn 0.0005170107 0.4895699 0.8719639
vn 0.0005170107 0.4285401 0.9035226
vn 0.0005170107 0.4285401 0.9035226
vn 0.0005170107 0.4285401 0.9035226
vn 0.0005170107 0.4285401 0.9035226
vn 0.8882216 0.3286734 -0.3209926
vn 0.8882216 0.3286734 -0.3209926
vn 0.8882216 0.3286734 -0.3209926
vn 0.6995844 0.7133454 -0.04147374
vn 0.6995844 0.7133454 -0.04147374
vn 0.6829399 0.7299898 -0.02660909
vn 0.6829399 0.7299898 -0.02660909
vn 0.6822596 0.7311102 0
vn 0.6822596 0.7311102 0
vn -0.6874225 0.7262578 0
vn -0.6874225 0.7262578 0
vn -0.6759523 0.7369454 0
vn -0.6759523 0.7369454 0
vn -0.6745083 0.7373873 -0.03603453
vn -0.6745083 0.7373873 -0.03603453
vn 0.8549327 0.008729875 -0.5186655
vn 0.856782 0.01427805 -0.5154811
vn 0.8919203 0.3175771 -0.3219051
vn 0.8456857 -0.03935409 -0.5322283
vn 0.8456857 -0.03935409 -0.5322283
vn 0.8364388 -0.1225764 -0.5341771
vn 0.8364388 -0.1225764 -0.5341771
vn 0.8216437 -0.2094975 -0.5301061
vn 0.8234931 -0.2076481 -0.5279596
vn 0.8123968 -0.2927198 -0.504308
vn 0.8123968 -0.2927198 -0.504308
vn 0.8049992 -0.3759421 -0.4589595
vn 0.8049992 -0.3759421 -0.4589595
vn 0.8031499 -0.4073816 -0.4347304
vn 0.8031499 -0.4073816 -0.4347304
vn -0.6837552 -0.01716149 -0.7295097
vn -0.6837552 -0.01716149 -0.7295097
vn -0.6763576 -0.06154674 -0.7339975
vn -0.6763576 -0.05969733 -0.7341503
vn -0.663412 -0.1743591 -0.7276561
vn -0.663412 -0.1725098 -0.7280968
vn -0.6449181 -0.2871716 -0.7082465
vn -0.6449181 -0.2853222 -0.7089936
vn -0.6338218 -0.3925865 -0.6664426
vn -0.6338218 -0.3925865 -0.6664426
vn -0.6264243 -0.4961521 -0.6011869
vn -0.6264243 -0.4943027 -0.6027085
vn -0.6245749 -0.5349891 -0.5689401
vn -0.6245749 -0.5349891 -0.5689401
vn 0.0005170107 0.7077972 -0.7064155
vn 0.0005170107 0.7077972 -0.7064155
vn 0.0005170107 0.7077972 -0.7064155
vn 0.0005170107 0.7077972 -0.7064155
vn 0.0005170107 -0.09113687 -0.9958383
vn 0.0005170107 -0.02825779 -0.9996005
vn 0.0005170107 -0.02825779 -0.9996005
vn 0.0005170107 -0.09113687 -0.9958383
vn 0.0005170107 -0.2427864 -0.9700797
vn 0.0005170107 -0.2427864 -0.9700797
vn 0.0005170107 -0.385189 -0.9228376
vn 0.0005170107 -0.385189 -0.9228376
vn 0.0005170107 -0.5146459 -0.8574027
vn 0.0005170107 -0.5146459 -0.8574027
vn 0.0005170107 -0.6385547 -0.7695763
vn 0.0005170107 -0.6385547 -0.7695763
vn 0.0005170107 -0.6847893 -0.7287409
vn 0.0005170107 -0.6847893 -0.7287409
vn 0.0005170106 0.9999999 0
vn 0.0005170106 0.9999999 0
vn 0.0005170106 0.9999999 0
vn 0.0005170106 0.9999999 0
vn 0.0005170106 0.9999999 0
vn 0.0005170106 0.9999999 0
vn -0.5579971 0.5857378 -0.5878354
vn -0.5579971 0.5857378 -0.5878354
vn -0.5579971 0.5857378 -0.5878354
g Frame1_0
f 3/3/3 2/2/2 1/1/1
f 1/1/1 4/4/4 3/3/3
f 2/2/2 3/3/3 5/5/5
f 5/5/5 6/6/6 2/2/2
f 6/6/6 7/7/7 2/2/2
f 10/10/10 9/9/9 8/8/8
f 8/8/8 9/9/9 11/11/11
f 9/9/9 10/10/10 12/12/12
f 9/9/9 12/12/12 13/13/13
f 16/16/16 15/15/15 14/14/14
f 17/17/17 16/16/16 14/14/14
f 16/16/16 18/18/18 15/15/15
f 18/18/18 19/19/19 15/15/15
f 20/20/20 17/17/17 14/14/14
f 21/21/21 20/20/20 14/14/14
f 22/22/22 20/20/20 21/21/21
f 23/23/23 22/22/22 21/21/21
f 26/26/26 25/25/25 24/24/24
f 27/27/27 24/24/24 25/25/25
f 28/28/28 24/24/24 27/27/27
f 29/29/29 28/28/28 27/27/27
f 32/32/32 31/31/31 30/30/30
f 33/33/33 32/32/32 30/30/30
f 36/36/36 35/35/35 34/34/34
f 37/37/37 36/36/36 34/34/34
f 40/40/40 39/39/39 38/38/38
f 43/43/43 42/42/42 41/41/41
f 44/44/44 43/43/43 41/41/41
f 45/45/45 43/43/43 44/44/44
f 46/46/46 45/45/45 44/44/44
f 49/49/49 48/48/48 47/47/47
f 50/50/50 49/49/49 47/47/47
f 51/51/51 49/49/49 50/50/50
f 52/52/52 51/51/51 50/50/50
f 55/55/55 54/54/54 53/53/53
f 54/54/54 56/56/56 53/53/53
f 56/56/56 57/57/57 53/53/53
f 56/56/56 58/58/58 57/57/57
f 58/58/58 59/59/59 57/57/57
f 58/58/58 60/60/60 59/59/59
f 60/60/60 61/61/61 59/59/59
f 60/60/60 62/62/62 61/61/61
f 62/62/62 63/63/63 61/61/61
f 62/62/62 64/64/64 63/63/63
f 64/64/64 65/65/65 63/63/63
f 64/64/64 66/66/66 65/65/65
f 66/66/66 67/67/67 65/65/65
f 70/70/70 69/69/69 68/68/68
f 71/71/71 70/70/70 68/68/68
f 72/72/72 70/70/70 71/71/71
f 73/73/73 72/72/72 71/71/71
f 72/72/72 73/73/73 74/74/74
f 73/73/73 75/75/75 74/74/74
f 76/76/76 74/74/74 75/75/75
f 77/77/77 76/76/76 75/75/75
f 76/76/76 77/77/77 78/78/78
f 77/77/77 79/79/79 78/78/78
f 80/80/80 78/78/78 79/79/79
f 81/81/81 80/80/80 79/79/79
f 84/84/84 83/83/83 82/82/82
f 85/85/85 84/84/84 82/82/82
f 88/88/88 87/87/87 86/86/86
f 89/89/89 88/88/88 86/86/86
f 89/89/89 86/86/86 90/90/90
f 86/86/86 91/91/91 90/90/90
f 90/90/90 91/91/91 92/92/92
f 91/91/91 93/93/93 92/92/92
f 93/93/93 94/94/94 92/92/92
f 94/94/94 95/95/95 92/92/92
f 94/94/94 96/96/96 95/95/95
f 96/96/96 97/97/97 95/95/95
f 98/98/98 97/97/97 96/96/96
f 99/99/99 98/98/98 96/96/96
f 102/102/102 101/101/101 100/100/100
f 103/103/103 102/102/102 100/100/100
f 100/100/100 104/104/104 103/103/103
f 104/104/104 105/105/105 103/103/103
f 108/108/108 107/107/107 106/106/106
