g Frame1
v -0.6025183 -0.4958273 -4.80008
v -0.6025183 -0.4958284 -2.646748
v -0.6025183 -1.319872 -4.636168
v -0.6025165 -2.018464 -4.169384
v -0.6025183 -2.485247 -3.470794
v -0.6025183 -2.64916 -2.646749
v -0.6025183 -2.485248 -1.822704
v -0.6025183 -2.018465 -1.124113
v -0.6025165 -1.319873 -0.657329
v -0.6025183 -0.4958288 -0.4934161
v 0 -1.319873 -0.657329
v -0.6025165 -1.319873 -0.657329
v -0.6025183 -0.4958288 -0.4934161
v 0 -0.4958288 -0.4934161
v 0 -2.018465 -1.124113
v -0.6025183 -2.018465 -1.124113
v 0 -2.485248 -1.822704
v -0.6025183 -2.485248 -1.822704
v 0 -2.64916 -2.646749
v -0.6025183 -2.64916 -2.646749
v 0 -2.485247 -3.470794
v -0.6025183 -2.485247 -3.470794
v 0 -2.018464 -4.169384
v -0.6025165 -2.018464 -4.169384
v 0 -1.319872 -4.636168
v -0.6025183 -1.319872 -4.636168
v 0 -0.4958273 -4.80008
v -0.6025183 -0.4958273 -4.80008
v -0.7050781 0.09443364 -9.195076
v -0.7050781 0.09443383 -9.899989
v 0 0.09443383 -9.899989
v 0 0.09443364 -9.195076
v -0.7050781 0.09443173 -5.395719
v 0 0.09443173 -5.395719
v -0.7050781 0.09442944 -0.09999984
v 0 0.09442944 -0.09999984
v -0.7050781 0.09443383 -9.899989
v -0.7050781 0.09443364 -9.195076
v -0.8050781 -0.005566358 -9.195076
v -0.8050781 -0.005565977 -9.999989
v 0 0.09443383 -9.899989
v -0.7050781 0.09443383 -9.899989
v -0.8050781 -0.005565977 -9.999989
v 0 -0.005565977 -9.999989
v -0.7050781 0.09442944 -0.09999984
v 0 0.09442944 -0.09999984
v 0 -0.005570745 1.072884E-07
v -0.8050781 -0.005570745 -8.940696E-08
v -0.7050781 0.09443173 -5.395719
v -0.7050781 0.09442944 -0.09999984
v -0.8050781 -0.005570745 -8.940696E-08
v -0.8050781 -0.005568265 -5.395719
v -0.7050781 0.09443364 -9.195076
v -0.7050781 0.09443173 -5.395719
v -0.8050781 -0.005568265 -5.395719
v -0.8050781 -0.005566358 -9.195076
v -0.8050781 -0.005565977 -9.999989
v -0.8050781 -0.005566358 -9.195076
v -0.8050781 -0.6055663 -9.195076
v -0.8050781 -0.6055659 -9.999989
v 0 -0.005565977 -9.999989
v -0.8050781 -0.005565977 -9.999989
v -0.8050781 -0.6055659 -9.999989
v 0 -0.6055659 -9.999989
v -0.8050781 -0.005570745 -8.940696E-08
v 0 -0.005570745 1.072884E-07
v 0 -0.6055707 -8.344649E-08
v -0.8050781 -0.6055707 -8.940696E-08
v -0.8050781 -0.005568265 -5.395719
v -0.8050781 -0.005570745 -8.940696E-08
v -0.8050781 -0.6055707 -8.940696E-08
v -0.8050781 -0.6055682 -5.395719
v -0.8050781 -0.005566358 -9.195076
v -0.8050781 -0.005568265 -5.395719
v -0.8050781 -0.6055682 -5.395719
v -0.8050781 -0.6055663 -9.195076
v 0 -0.6055659 -9.999989
v -0.8050781 -0.6055659 -9.999989
v -0.8050781 -0.6055707 -8.940696E-08
v 0 -0.6055707 -8.344649E-08
vt 1.448166 0.3783091
vt 1.448166 0.3803477
vt 1.448916 0.3784583
vt 1.449552 0.3788832
vt 1.449977 0.3795192
vt 1.450126 0.3802693
vt 1.449977 0.3810195
vt 1.449552 0.3816554
vt 1.448916 0.3820803
vt 1.448166 0.3822296
vt 1.447774 0.3827462
vt 1.447774 0.3822177
vt 1.447578 0.3822177
vt 1.447578 0.3827462
vt 1.44797 0.3827462
vt 1.44797 0.3822177
vt 1.448166 0.3827462
vt 1.448166 0.3822177
vt 1.448362 0.3827462
vt 1.448362 0.3822177
vt 1.448558 0.3827462
vt 1.448558 0.3822177
vt 1.448754 0.3827462
vt 1.448754 0.3822177
vt 1.44895 0.3827462
vt 1.44895 0.3822177
vt 1.449146 0.3827463
vt 1.449146 0.3822177
vt -0.5044546 0.9311022
vt -0.5044546 0.9950978
vt -0.6223746 0.9950978
vt -0.6223746 0.9311022
vt -0.5044546 0.5403799
vt -0.6223746 0.5403799
vt -0.5044546 0.006625657
vt -0.6223746 0.006625657
vt 1.438801 0.3108805
vt 1.45739 0.3108805
vt 1.45739 0.3294697
vt 1.438801 0.3294697
vt 1.438801 0.3108805
vt 1.45739 0.3108805
vt 1.45739 0.3294697
vt 1.438801 0.3294697
vt 1.438801 0.3108805
vt 1.45739 0.3108805
vt 1.45739 0.3294697
vt 1.438801 0.3294697
vt 1.438801 0.3108805
vt 1.45739 0.3108805
vt 1.45739 0.3294697
vt 1.438801 0.3294697
vt 1.438801 0.3108805
vt 1.45739 0.3108805
vt 1.45739 0.3294697
vt 1.438801 0.3294697
vt 1.438801 0.3108805
vt 1.45739 0.3108805
vt 1.45739 0.3294697
vt 1.438801 0.3294697
vt 1.438801 0.3108805
vt 1.45739 0.3108805
vt 1.45739 0.3294697
vt 1.438801 0.3294697
vt 1.438801 0.3108805
vt 1.45739 0.3108805
vt 1.45739 0.3294697
vt 1.438801 0.3294697
vt 1.438801 0.3108805
vt 1.45739 0.3108805
vt 1.45739 0.3294697
vt 1.438801 0.3294697
vt 1.438801 0.3108805
vt 1.45739 0.3108805
vt 1.45739 0.3294697
vt 1.438801 0.3294697
vt 1.44737 0.2817233
vt 1.4464 0.2817233
vt 1.4464 0.2937723
vt 1.44737 0.2937723
vn -1 0 0
vn -1 0 0
vn -1 0 0
vn -1 0 0
vn -1 0 0
vn -1 0 0
vn -1 0 0
vn -1 0 0
vn -1 0 0
vn -1 -2.235793E-06 0
vn 0 -0.3826837 0.9238794
vn 0 -0.3826836 0.9238794
vn 0 -0.1950905 0.9807853
vn 0 -0.1950906 0.9807853
vn 0 -0.7071072 0.7071064
vn 0 -0.7071072 0.7071063
vn 0 -0.9238796 0.3826831
vn 0 -0.9238796 0.3826831
vn 0 -1 0
vn 0 -1 0
vn 0 -0.9238795 -0.3826835
vn 0 -0.9238795 -0.3826833
vn 0 -0.7071064 -0.7071071
vn 0 -0.7071063 -0.7071072
vn 0 -0.3826826 -0.9238799
vn 0 -0.3826824 -0.9238799
vn 0 -0.1950894 -0.9807854
vn 0 -0.1950894 -0.9807854
vn 0 1 0
vn 0 1 0
vn 0 1 0
vn 0 1 0
vn 0 1 0
vn 0 1 0
vn 0 1 0
vn 0 1 0
vn -0.7071061 0.7071074 0
vn -0.7071061 0.7071075 0
vn -0.7071061 0.7071075 0
vn -0.7071061 0.7071075 0
vn 0 0.7071074 -0.7071061
vn 0 0.7071074 -0.7071061
vn 0 0.7071074 -0.7071061
vn 0 0.7071074 -0.7071061
vn 0 0.7071055 0.707108
vn 0 0.7071055 0.707108
vn 0 0.7071055 0.707108
vn 0 0.7071055 0.707108
vn -0.7071062 0.7071072 0
vn -0.7071065 0.7071071 0
vn -0.7071064 0.7071071 0
vn -0.7071063 0.7071072 0
vn -0.7071061 0.7071075 0
vn -0.7071062 0.7071072 0
vn -0.7071063 0.7071072 0
vn -0.7071061 0.7071075 0
vn -1 0 0
vn -1 0 0
vn -1 0 0
vn -1 0 0
vn 0 0 -1
vn 0 0 -1
vn 0 0 -1
vn 0 0 -1
vn 0 0 1
vn 0 0 1
vn 0 0 1
vn 0 0 1
vn -1 0 0
vn -1 0 0
vn -1 0 0
vn -1 0 0
vn -1 0 0
vn -1 0 0
vn -1 0 0
vn -1 0 0
vn 0 -1 0
vn 0 -1 0
vn 0 -1 0
vn 0 -1 0
g Frame1_0
f 3/3/3 2/2/2 1/1/1
f 4/4/4 2/2/2 3/3/3
f 5/5/5 2/2/2 4/4/4
f 6/6/6 2/2/2 5/5/5
f 7/7/7 2/2/2 6/6/6
f 8/8/8 2/2/2 7/7/7
f 9/9/9 2/2/2 8/8/8
f 10/10/10 2/2/2 9/9/9
f 13/13/13 12/12/12 11/11/11
f 14/14/14 13/13/13 11/11/11
f 11/11/11 12/12/12 15/15/15
f 12/12/12 16/16/16 15/15/15
f 15/15/15 16/16/16 17/17/17
f 16/16/16 18/18/18 17/17/17
f 17/17/17 18/18/18 19/19/19
f 18/18/18 20/20/20 19/19/19
f 19/19/19 20/20/20 21/21/21
f 20/20/20 22/22/22 21/21/21
f 21/21/21 22/22/22 23/23/23
f 22/22/22 24/24/24 23/23/23
f 23/23/23 24/24/24 25/25/25
f 24/24/24 26/26/26 25/25/25
f 25/25/25 26/26/26 27/27/27
f 26/26/26 28/28/28 27/27/27
f 31/31/31 30/30/30 29/29/29
f 32/32/32 31/31/31 29/29/29
f 32/32/32 29/29/29 33/33/33
f 34/34/34 32/32/32 33/33/33
f 34/34/34 33/33/33 35/35/35
f 36/36/36 34/34/34 35/35/35
f 39/39/39 38/38/38 37/37/37
f 40/40/40 39/39/39 37/37/37
f 43/43/43 42/42/42 41/41/41
f 44/44/44 43/43/43 41/41/41
f 47/47/47 46/46/46 45/45/45
f 48/48/48 47/47/47 45/45/45
f 51/51/51 50/50/50 49/49/49
f 52/52/52 51/51/51 49/49/49
f 55/55/55 54/54/54 53/53/53
f 56/56/56 55/55/55 53/53/53
f 59/59/59 58/58/58 57/57/57
f 60/60/60 59/59/59 57/57/57
f 63/63/63 62/62/62 61/61/61
f 64/64/64 63/63/63 61/61/61
f 67/67/67 66/66/66 65/65/65
f 68/68/68 67/67/67 65/65/65
f 71/71/71 70/70/70 69/69/69
f 72/72/72 71/71/71 69/69/69
f 75/75/75 74/74/74 73/73/73
f 76/76/76 75/75/75 73/73/73
f 79/79/79 78/78/78 77/77/77
f 80/80/80 79/79/79 77/77/77
