g Fx_CurvePaper01
v -0.05877852 0.05300006 -0.08090175
v -0.05877852 -0.05299992 -0.08090175
v -0.03090167 -0.05299992 -0.09510569
v -0.03090167 0.05300006 -0.09510569
v 0 -0.05299992 -0.09999999
v 0 0.05300006 -0.09999999
v 0.03090168 -0.05299992 -0.09510569
v 0.03090168 0.05300006 -0.09510569
v 0.05877853 -0.05299992 -0.08090175
v 0.05877853 0.05300006 -0.08090175
vt 1 -8.728898E-09
vt -8.728898E-09 -8.728898E-09
vt -8.728898E-09 0.2500019
vt 1 0.2500019
vt -8.728898E-09 0.4999962
vt 1 0.4999962
vt -8.728898E-09 0.7499982
vt 1 0.7499982
vt -8.728898E-09 1
vt 1 1
vn -0.4539905 0.0004436374 -0.8910064
vn -0.4539905 0.0004436374 -0.8910064
vn -0.3093171 0.0004436374 -0.9509588
vn -0.3093171 0.0004436374 -0.9509588
vn -0.0004436374 0.0004436374 -0.9999998
vn -0.0004436374 0.0004436374 -0.9999998
vn 0.3093174 0.0004436374 -0.9509588
vn 0.3093174 0.0004436374 -0.9509588
vn 0.4539908 0.0004436374 -0.8910062
vn 0.4539908 0.0004436374 -0.8910062
g Fx_CurvePaper01_0
f 3/3/3 2/2/2 1/1/1
f 4/4/4 3/3/3 1/1/1
f 5/5/5 3/3/3 4/4/4
f 6/6/6 5/5/5 4/4/4
f 7/7/7 5/5/5 6/6/6
f 8/8/8 7/7/7 6/6/6
f 9/9/9 7/7/7 8/8/8
f 10/10/10 9/9/9 8/8/8
