g Fx_HalfSphere01
v 0.06830139 0.02928938 -0.0183012
v 0.06123741 0.02928938 -0.03535537
v 0.04330129 0.01339754 -0.02500002
v 0.0482963 0.01339754 -0.01294103
v 0.03535537 0.01339754 -0.03535537
v 0.05000012 0.02928938 -0.05000012
v 0.02500002 0.01339754 -0.04330129
v 0.03535537 0.02928938 -0.06123723
v 0.01294103 0.01339754 -0.0482963
v 0.01830138 0.02928938 -0.06830139
v -7.450581E-08 0.01339754 -0.05000012
v -7.450581E-08 0.02928938 -0.07071083
v 0.04999993 0.01339754 7.450581E-08
v 0.07071064 0.02928938 7.450581E-08
v 0.06830121 0.02928938 0.01830135
v 0.0482963 0.01339754 0.012941
v 0.06123723 0.02928938 0.03535534
v 0.04330129 0.01339754 0.02499999
v 0.04999993 0.02928938 0.05000009
v 0.03535537 0.01339754 0.03535534
v 0.03535537 0.02928938 0.0612372
v 0.02500002 0.01339754 0.04330127
v 0.0183012 0.02928938 0.06830136
v 0.01294103 0.01339754 0.04829627
v -7.450581E-08 0.02928938 0.07071061
v -7.450581E-08 0.01339754 0.05000009
v -0.01830135 0.02928938 0.06830136
v -0.012941 0.01339754 0.04829627
v -0.03535534 0.02928938 0.0612372
v -0.02499999 0.01339754 0.04330127
v -0.05000009 0.02928938 0.05000009
v -0.03535534 0.01339754 0.03535534
v -0.06123738 0.02928938 0.03535534
v -0.04330127 0.01339754 0.02499999
v -0.06830136 0.02928938 0.01830135
v -0.04829627 0.01339754 0.012941
v -0.07071079 0.02928938 7.450581E-08
v -0.05000009 0.01339754 7.450581E-08
v -0.06830136 0.02928938 -0.01830138
v -0.04829627 0.01339754 -0.01294103
v -0.04619396 0.01339754 -0.01913413
v -0.04330127 0.01339754 -0.02500002
v -0.06123738 0.02928938 -0.03535537
v -0.05000009 0.02928938 -0.05000012
v -0.03535534 0.01339754 -0.03535537
v -0.03535534 0.02928938 -0.06123723
v -0.02499999 0.01339754 -0.04330129
v -0.01830135 0.02928938 -0.06830139
v -0.012941 0.01339754 -0.0482963
v -7.450581E-08 0.02928938 -0.07071083
v -7.450581E-08 0.01339754 -0.05000012
v 1.043081E-07 0.05000009 -0.08660267
v -0.02241442 0.05000009 -0.08365175
v -0.04330127 0.05000009 -0.07500003
v -0.06123738 0.05000009 -0.06123723
v -0.075 0.05000009 -0.04330129
v -0.08365172 0.05000009 -0.02241445
v -0.08660263 0.05000009 -1.043081E-07
v -0.08365172 0.05000009 0.02241442
v -0.075 0.05000009 0.04330127
v -0.06123738 0.05000009 0.0612372
v -0.04330127 0.05000009 0.075
v -0.02241442 0.05000009 0.08365172
v -7.450581E-08 0.05000009 0.08660263
v 0.02241445 0.05000009 0.08365172
v 0.04330129 0.05000009 0.075
v 0.06123723 0.05000009 0.0612372
v 0.07500003 0.05000009 0.04330127
v 0.08365157 0.05000009 0.02241442
v 0.08660248 0.05000009 7.450581E-08
v 0.08365175 0.05000009 -0.02241445
v 0.07500003 0.05000009 -0.04330129
v 0.06123741 0.05000009 -0.06123723
v 0.04330129 0.05000009 -0.07500003
v 0.02241445 0.05000009 -0.08365175
v 1.043081E-07 0.05000009 -0.08660267
v 0.08365175 0.07411806 -0.0482963
v 0.0933013 0.07411806 -0.02500002
v 0.06830139 0.07411806 -0.06830139
v 0.0482963 0.07411806 -0.08365175
v 0.02500002 0.07411806 -0.0933013
v 1.043081E-07 0.07411806 -0.09659268
v 0.09659249 0.07411806 7.450581E-08
v 0.0933013 0.07411806 0.02499999
v 0.08365157 0.07411806 0.04829627
v 0.06830121 0.07411806 0.06830136
v 0.0482963 0.07411806 0.08365172
v 0.02500002 0.07411806 0.09330127
v -7.450581E-08 0.07411806 0.09659265
v -0.02499999 0.07411806 0.09330127
v -0.04829627 0.07411806 0.08365172
v -0.06830136 0.07411806 0.06830136
v -0.08365172 0.07411806 0.04829627
v -0.09330127 0.07411806 0.02499999
v -0.09659265 0.07411806 -1.043081E-07
v -0.09330127 0.07411806 -0.02500002
v -0.08365172 0.07411806 -0.0482963
v -0.06830136 0.07411806 -0.06830139
v -0.04829627 0.07411806 -0.08365175
v -0.02499999 0.07411806 -0.0933013
v 1.043081E-07 0.07411806 -0.09659268
vt 0.7901121 0.4444495
vt 0.8315557 0.4444495
vt 0.8315557 0
vt 0.7901121 0
vt 0.8729991 0
vt 0.8729991 0.4444495
vt 0.9144274 0
vt 0.9144274 0.4444495
vt 0.9558709 0
vt 0.9558709 0.4444495
vt 1 0
vt 1 0.4444495
vt 0.7486687 0
vt 0.7486687 0.4444495
vt 0.7072404 0.4444495
vt 0.7072404 0
vt 0.6657969 0.4444495
vt 0.6657969 0
vt 0.6243534 0.4444495
vt 0.6243534 0
vt 0.5829099 0.4444495
vt 0.5829099 0
vt 0.5414664 0.4444495
vt 0.5414664 0
vt 0.5000381 0.4444495
vt 0.5000381 0
vt 0.4585947 0.4444495
vt 0.4585947 0
vt 0.4171512 0.4444495
vt 0.4171512 0
vt 0.3757076 0.4444495
vt 0.3757076 0
vt 0.3342641 0.4444495
vt 0.3342641 0
vt 0.2928359 0.4444495
vt 0.2928359 0
vt 0.2513924 0.4444495
vt 0.2513924 0
vt 0.2099489 0.4444495
vt 0.2099489 0
vt 0.1892271 0
vt 0.1685054 0
vt 0.1685054 0.4444495
vt 0.1270771 0.4444495
vt 0.1270771 0
vt 0.08563363 0.4444495
vt 0.08563363 0
vt 0.04419013 0.4444495
vt 0.04419013 0
vt 0 0.4444495
vt 0 0
vt 0 0.7777829
vt 0.04419013 0.7777829
vt 0.08563363 0.7777829
vt 0.1270771 0.7777829
vt 0.1685054 0.7777829
vt 0.2099489 0.7777829
vt 0.2513924 0.7777829
vt 0.2928359 0.7777829
vt 0.3342641 0.7777829
vt 0.3757076 0.7777829
vt 0.4171512 0.7777829
vt 0.4585947 0.7777829
vt 0.5000381 0.7777829
vt 0.5414664 0.7777829
vt 0.5829099 0.7777829
vt 0.6243534 0.7777829
vt 0.6657969 0.7777829
vt 0.7072404 0.7777829
vt 0.7486687 0.7777829
vt 0.7901121 0.7777829
vt 0.8315557 0.7777829
vt 0.8729991 0.7777829
vt 0.9144274 0.7777829
vt 0.9558709 0.7777829
vt 1 0.7777829
vt 0.8315557 1
vt 0.7901121 1
vt 0.8729991 1
vt 0.9144274 1
vt 0.9558709 1
vt 1 1
vt 0.7486687 1
vt 0.7072404 1
vt 0.6657969 1
vt 0.6243534 1
vt 0.5829099 1
vt 0.5414664 1
vt 0.5000381 1
vt 0.4585947 1
vt 0.4171512 1
vt 0.3757076 1
vt 0.3342641 1
vt 0.2928359 1
vt 0.2513924 1
vt 0.2099489 1
vt 0.1685054 1
vt 0.1270771 1
vt 0.08563363 1
vt 0.04419013 1
vt 0 1
vn 0.6999089 -0.6890715 -0.1879043
vn 0.6276602 -0.6890715 -0.3622474
vn 0.5265121 -0.7938321 -0.3043282
vn 0.5879234 -0.7938321 -0.1554888
vn 0.4307826 -0.7938321 -0.4292516
vn 0.5120624 -0.6890715 -0.5128085
vn 0.3043475 -0.7938321 -0.5265009
vn 0.3621464 -0.6890715 -0.6277184
vn 0.158044 -0.7938321 -0.5872416
vn 0.1869435 -0.6890715 -0.7001661
vn -0.0009030104 -0.7938321 -0.6081364
vn -0.0009030104 -0.6890715 -0.7246928
vn 0.6090565 -0.7931268 0
vn 0.7249319 -0.6888207 0
vn 0.6999089 -0.6890715 0.1879043
vn 0.5879234 -0.7938321 0.1554888
vn 0.6276602 -0.6890715 0.3622474
vn 0.5265121 -0.7938321 0.3043282
vn 0.5120624 -0.6890715 0.5128085
vn 0.4307826 -0.7938321 0.4292516
vn 0.3621464 -0.6890715 0.6277184
vn 0.3043475 -0.7938321 0.5265009
vn 0.1869435 -0.6890715 0.7001661
vn 0.158044 -0.7938321 0.5872416
vn -0.0009030104 -0.6890715 0.7246928
vn -0.0009030104 -0.7938321 0.6081364
vn -0.1869433 -0.6890715 0.7001661
vn -0.1580439 -0.7938321 0.5872417
vn -0.3621463 -0.6890715 0.6277185
vn -0.3043473 -0.7938321 0.5265011
vn -0.5120622 -0.6890715 0.5128087
vn -0.4307824 -0.7938321 0.4292518
vn -0.62766 -0.6890715 0.3622476
vn -0.5265119 -0.7938321 0.3043286
vn -0.6999086 -0.6890715 0.1879051
vn -0.5879233 -0.7938321 0.1554892
vn -0.7249317 -0.6888208 0
vn -0.6090563 -0.7931269 0
vn -0.6999086 -0.6890715 -0.1879051
vn -0.5897294 -0.7920259 -0.1578423
vn -0.5680549 -0.7884134 -0.2360465
vn -0.528318 -0.7920259 -0.3059004
vn -0.62766 -0.6890715 -0.3622476
vn -0.5120622 -0.6890715 -0.5128087
vn -0.4307824 -0.7938321 -0.4292518
vn -0.3621463 -0.6890715 -0.6277185
vn -0.3043473 -0.7938321 -0.5265011
vn -0.1869433 -0.6890715 -0.7001661
vn -0.1580439 -0.7938321 -0.5872417
vn -0.0009030104 -0.6890715 -0.7246928
vn -0.0009030104 -0.7938321 -0.6081364
vn -0.0009030104 -0.4867753 -0.8735268
vn -0.22668 -0.4867753 -0.843603
vn -0.4362011 -0.4867753 -0.7568213
vn -0.6186289 -0.4867753 -0.6167237
vn -0.7559013 -0.4867753 -0.4377933
vn -0.8444059 -0.4867753 -0.2236705
vn -0.8733053 -0.4867753 -0.01968741
vn -0.8444059 -0.4867753 0.2236705
vn -0.7559013 -0.4867753 0.4377933
vn -0.6186289 -0.4867753 0.6167237
vn -0.4362011 -0.4867753 0.7568213
vn -0.22668 -0.4867753 0.843603
vn -0.0009030104 -0.4867753 0.8735268
vn 0.2266802 -0.4867753 0.8436029
vn 0.4362013 -0.4867753 0.7568212
vn 0.6186291 -0.4867753 0.6167234
vn 0.7559015 -0.4867753 0.4377929
vn 0.8444061 -0.4867753 0.2236696
vn 0.8733056 -0.4867753 0.01967681
vn 0.8444061 -0.4867753 -0.2236696
vn 0.7559015 -0.4867753 -0.4377929
vn 0.6186291 -0.4867753 -0.6167234
vn 0.4362013 -0.4867753 -0.7568212
vn 0.2266802 -0.4867753 -0.8436029
vn -0.0009030104 -0.4867753 -0.8735268
vn 0.7992507 -0.3820148 -0.4639644
vn 0.8931739 -0.3820148 -0.2372868
vn 0.6529472 -0.3820148 -0.6540066
vn 0.4614883 -0.3820148 -0.800683
vn 0.2393237 -0.3820148 -0.8926303
vn -0.0009030104 -0.3820148 -0.9241558
vn 0.9238796 -0.3820148 0.02260873
vn 0.8931739 -0.3820148 0.2372868
vn 0.7992507 -0.3820148 0.4639644
vn 0.6529472 -0.3820148 0.6540066
vn 0.4614883 -0.3820148 0.800683
vn 0.2393237 -0.3820148 0.8926303
vn -0.0009030104 -0.3820148 0.9241558
vn -0.2393235 -0.3820148 0.8926304
vn -0.4614881 -0.3820148 0.8006831
vn -0.6529471 -0.3820148 0.6540068
vn -0.7992505 -0.3820148 0.4639648
vn -0.8931737 -0.3820148 0.2372877
vn -0.9238794 -0.3820148 -0.02261795
vn -0.8931737 -0.3820148 -0.2372877
vn -0.7992505 -0.3820148 -0.4639648
vn -0.6529471 -0.3820148 -0.6540068
vn -0.4614881 -0.3820148 -0.8006831
vn -0.2393235 -0.3820148 -0.8926304
vn -0.0009030104 -0.3820148 -0.9241558
g Fx_HalfSphere01_0
f 3/3/3 2/2/2 1/1/1
f 4/4/4 3/3/3 1/1/1
f 3/3/3 5/5/5 2/2/2
f 5/5/5 6/6/6 2/2/2
f 5/5/5 7/7/7 6/6/6
f 7/7/7 8/8/8 6/6/6
f 7/7/7 9/9/9 8/8/8
f 9/9/9 10/10/10 8/8/8
f 9/9/9 11/11/11 10/10/10
f 11/11/11 12/12/12 10/10/10
f 13/13/13 4/4/4 1/1/1
f 14/14/14 13/13/13 1/1/1
f 13/13/13 14/14/14 15/15/15
f 16/16/16 13/13/13 15/15/15
f 16/16/16 15/15/15 17/17/17
f 18/18/18 16/16/16 17/17/17
f 18/18/18 17/17/17 19/19/19
f 20/20/20 18/18/18 19/19/19
f 20/20/20 19/19/19 21/21/21
f 22/22/22 20/20/20 21/21/21
f 22/22/22 21/21/21 23/23/23
f 24/24/24 22/22/22 23/23/23
f 24/24/24 23/23/23 25/25/25
f 26/26/26 24/24/24 25/25/25
f 26/26/26 25/25/25 27/27/27
f 28/28/28 26/26/26 27/27/27
f 28/28/28 27/27/27 29/29/29
f 30/30/30 28/28/28 29/29/29
f 30/30/30 29/29/29 31/31/31
f 32/32/32 30/30/30 31/31/31
f 32/32/32 31/31/31 33/33/33
f 34/34/34 32/32/32 33/33/33
f 34/34/34 33/33/33 35/35/35
f 36/36/36 34/34/34 35/35/35
f 36/36/36 35/35/35 37/37/37
f 38/38/38 36/36/36 37/37/37
f 38/38/38 37/37/37 39/39/39
f 40/40/40 38/38/38 39/39/39
f 41/41/41 40/40/40 39/39/39
f 42/42/42 41/41/41 39/39/39
f 39/39/39 43/43/43 42/42/42
f 42/42/42 43/43/43 44/44/44
f 45/45/45 42/42/42 44/44/44
f 45/45/45 44/44/44 46/46/46
f 47/47/47 45/45/45 46/46/46
f 47/47/47 46/46/46 48/48/48
f 49/49/49 47/47/47 48/48/48
f 49/49/49 48/48/48 50/50/50
f 51/51/51 49/49/49 50/50/50
f 50/50/50 48/48/48 52/52/52
f 48/48/48 53/53/53 52/52/52
f 48/48/48 46/46/46 53/53/53
f 46/46/46 54/54/54 53/53/53
f 46/46/46 44/44/44 54/54/54
f 44/44/44 55/55/55 54/54/54
f 44/44/44 43/43/43 55/55/55
f 43/43/43 56/56/56 55/55/55
f 43/43/43 39/39/39 56/56/56
f 39/39/39 57/57/57 56/56/56
f 39/39/39 37/37/37 57/57/57
f 37/37/37 58/58/58 57/57/57
f 37/37/37 35/35/35 58/58/58
f 35/35/35 59/59/59 58/58/58
f 35/35/35 33/33/33 59/59/59
f 33/33/33 60/60/60 59/59/59
f 33/33/33 31/31/31 60/60/60
f 31/31/31 61/61/61 60/60/60
f 31/31/31 29/29/29 61/61/61
f 29/29/29 62/62/62 61/61/61
f 29/29/29 27/27/27 62/62/62
f 27/27/27 63/63/63 62/62/62
f 27/27/27 25/25/25 63/63/63
f 25/25/25 64/64/64 63/63/63
f 25/25/25 23/23/23 64/64/64
f 23/23/23 65/65/65 64/64/64
f 23/23/23 21/21/21 65/65/65
f 21/21/21 66/66/66 65/65/65
f 21/21/21 19/19/19 66/66/66
f 19/19/19 67/67/67 66/66/66
f 19/19/19 17/17/17 67/67/67
f 17/17/17 68/68/68 67/67/67
f 17/17/17 15/15/15 68/68/68
f 15/15/15 69/69/69 68/68/68
f 15/15/15 14/14/14 69/69/69
f 14/14/14 70/70/70 69/69/69
f 70/70/70 14/14/14 71/71/71
f 14/14/14 1/1/1 71/71/71
f 1/1/1 2/2/2 71/71/71
f 2/2/2 72/72/72 71/71/71
f 2/2/2 6/6/6 72/72/72
f 6/6/6 73/73/73 72/72/72
f 6/6/6 8/8/8 73/73/73
f 8/8/8 74/74/74 73/73/73
f 8/8/8 10/10/10 74/74/74
f 10/10/10 75/75/75 74/74/74
f 10/10/10 12/12/12 75/75/75
f 12/12/12 76/76/76 75/75/75
f 71/71/71 72/72/72 77/77/77
f 78/78/78 71/71/71 77/77/77
f 70/70/70 71/71/71 78/78/78
f 72/72/72 73/73/73 79/79/79
f 77/77/77 72/72/72 79/79/79
f 73/73/73 74/74/74 80/80/80
f 79/79/79 73/73/73 80/80/80
f 74/74/74 75/75/75 81/81/81
f 80/80/80 74/74/74 81/81/81
f 75/75/75 76/76/76 82/82/82
f 81/81/81 75/75/75 82/82/82
f 83/83/83 70/70/70 78/78/78
f 69/69/69 70/70/70 83/83/83
f 84/84/84 69/69/69 83/83/83
f 68/68/68 69/69/69 84/84/84
f 85/85/85 68/68/68 84/84/84
f 67/67/67 68/68/68 85/85/85
f 86/86/86 67/67/67 85/85/85
f 66/66/66 67/67/67 86/86/86
f 87/87/87 66/66/66 86/86/86
f 65/65/65 66/66/66 87/87/87
f 88/88/88 65/65/65 87/87/87
f 64/64/64 65/65/65 88/88/88
f 89/89/89 64/64/64 88/88/88
f 63/63/63 64/64/64 89/89/89
f 90/90/90 63/63/63 89/89/89
f 62/62/62 63/63/63 90/90/90
f 91/91/91 62/62/62 90/90/90
f 61/61/61 62/62/62 91/91/91
f 92/92/92 61/61/61 91/91/91
f 60/60/60 61/61/61 92/92/92
f 93/93/93 60/60/60 92/92/92
f 59/59/59 60/60/60 93/93/93
f 94/94/94 59/59/59 93/93/93
f 58/58/58 59/59/59 94/94/94
f 95/95/95 58/58/58 94/94/94
f 57/57/57 58/58/58 95/95/95
f 96/96/96 57/57/57 95/95/95
f 56/56/56 57/57/57 96/96/96
f 97/97/97 56/56/56 96/96/96
f 55/55/55 56/56/56 97/97/97
f 98/98/98 55/55/55 97/97/97
f 54/54/54 55/55/55 98/98/98
f 99/99/99 54/54/54 98/98/98
f 53/53/53 54/54/54 99/99/99
f 100/100/100 53/53/53 99/99/99
f 52/52/52 53/53/53 100/100/100
f 101/101/101 52/52/52 100/100/100
