g Fx_ItemBox01A
v -0.02807318 0.02566212 -0.003909517
v -0.02577917 0.02336811 -0.01336388
v -0.0163248 0.03052846 -0.003909517
v -0.0163248 0.02566212 -0.01565789
v -0.0163248 0.01391374 -0.02052424
v 0.03286036 0.02566212 -0.01565789
v 0.03293952 0.01391374 -0.02052424
v -0.03293952 0.01391374 -0.003909517
v 0.01643701 0.03052846 -0.003909517
v -0.0163248 0.03052846 0.01554436
v -0.02807318 0.02566212 0.02052423
v -0.03293952 0.01391374 0.01859456
v 0.01188795 -0.01655921 -0.02052424
v -0.0163248 -0.02503454 -0.02052424
v -0.02807318 -0.009597955 -0.01565795
v -0.02807318 0.01391374 -0.01565789
v -0.03293952 -0.0008080527 -0.00390958
v -0.01179175 -0.03052846 -0.02052424
v -0.03293952 0.003700428 0.01440493
v -0.01179175 -0.03052846 -0.02052424
v -0.01793883 -0.01896097 -0.003798438
v 0.01188795 -0.01655921 -0.02052424
v 0.01643701 0.03052846 -0.003909517
v 0.03286036 0.02566212 -0.01565789
v 0.03293952 0.01391374 -0.02052424
v -0.03293952 0.003700428 0.01440493
v -0.01793883 -0.01896097 -0.003798438
v 0.01188795 -0.01655921 -0.02052424
v -0.0163248 0.03052846 0.01554436
v -0.03293952 0.01391374 0.01859456
v -0.02807318 0.02566212 0.02052423
v -0.03293952 0.003700428 0.01440493
v -0.01793883 -0.01896097 -0.003798438
v -0.03293952 -0.0008080527 -0.00390958
v -0.02807318 -0.009597955 -0.01565795
v -0.0163248 -0.02503454 -0.02052424
v -0.01179175 -0.03052846 -0.02052424
vt 0.75 0.25
vt 0.75 0.25
vt 0.75 0.25
vt 0.75 0.25
vt 0.75 0.25
vt 0.75 0.25
vt 0.75 0.25
vt 0.75 0.25
vt 0.75 0.25
vt 0.75 0.25
vt 0.75 0.25
vt 0.75 0.25
vt 0.75 0.25
vt 0.75 0.25
vt 0.75 0.25
vt 0.75 0.25
vt 0.75 0.25
vt 0.75 0.25
vt 0.75 0.25
vt 0.3750019 0.6249981
vt 0.3750019 0.6249981
vt 0.3750019 0.6249981
vt 0.5000114 0.5000114
vt 0.5000114 0.5000114
vt 0.5000114 0.5000114
vt 0.5000114 0.5000114
vt 0.5000114 0.5000114
vt 0.5000114 0.5000114
vt 0.5000114 0.5000114
vt 0.5000114 0.5000114
vt 0.5000114 0.5000114
vt 0.6249981 0.3750019
vt 0.6249981 0.3750019
vt 0.6249981 0.3750019
vt 0.6249981 0.3750019
vt 0.6249981 0.3750019
vt 0.6249981 0.3750019
vn -0.7128934 0.6948466 -0.09471634
vn -0.5767229 0.5767229 -0.578603
vn -0.09602463 0.9852343 -0.1417488
vn -0.05829066 0.6702375 -0.7398539
vn -0.07469672 0.1189932 -0.9900813
vn 0.0007712245 0.5783634 -0.8157789
vn 0.0007712245 0.1567271 -0.9876416
vn -0.9737501 0.1813363 -0.1375787
vn 0.0007712245 0.9491409 -0.3148507
vn -0.1796957 0.9835937 -0.01590291
vn -0.73094 0.6817218 -0.03133857
vn -0.9665112 0.2566246 0
vn 0.0007712245 -0.0007712245 -0.9999994
vn -0.06649369 -0.0007712245 -0.9977865
vn -0.5193015 -0.0007712245 -0.8545908
vn -0.6800811 0.09930587 -0.7263801
vn -0.9704689 -0.0007712245 -0.2412251
vn 0.0007712245 -0.0007712245 -0.9999994
vn -0.9999998 -0.0007712245 0
vn 0.3994391 -0.6783425 0.6166847
vn 0.3994391 -0.6783425 0.6166847
vn 0.3994391 -0.6783425 0.6166847
vn 0.4814695 -0.3321741 0.811078
vn 0.4814695 -0.3321741 0.811078
vn 0.4814695 -0.3321741 0.811078
vn 0.4814695 -0.3321741 0.811078
vn 0.4814695 -0.3321741 0.811078
vn 0.4814695 -0.3321741 0.811078
vn 0.4814695 -0.3321741 0.811078
vn 0.4814695 -0.3321741 0.811078
vn 0.4814695 -0.3321741 0.811078
vn -0.7621115 -0.6291242 0.1529337
vn -0.7621115 -0.6291242 0.1529337
vn -0.7621115 -0.6291242 0.1529337
vn -0.7621115 -0.6291242 0.1529337
vn -0.7621115 -0.6291242 0.1529337
vn -0.7621115 -0.6291242 0.1529337
g Fx_ItemBox01A_0
f 3/3/3 2/2/2 1/1/1
f 3/3/3 4/4/4 2/2/2
f 2/2/2 4/4/4 5/5/5
f 4/4/4 6/6/6 5/5/5
f 5/5/5 6/6/6 7/7/7
f 2/2/2 8/8/8 1/1/1
f 9/9/9 4/4/4 3/3/3
f 9/9/9 6/6/6 4/4/4
f 9/9/9 3/3/3 10/10/10
f 10/10/10 3/3/3 1/1/1
f 10/10/10 1/1/1 11/11/11
f 1/1/1 12/12/12 11/11/11
f 12/12/12 1/1/1 8/8/8
f 13/13/13 5/5/5 7/7/7
f 14/14/14 5/5/5 13/13/13
f 5/5/5 14/14/14 15/15/15
f 5/5/5 15/15/15 16/16/16
f 8/8/8 2/2/2 16/16/16
f 2/2/2 5/5/5 16/16/16
f 16/16/16 15/15/15 17/17/17
f 16/16/16 17/17/17 8/8/8
f 14/14/14 13/13/13 18/18/18
f 8/8/8 17/17/17 19/19/19
f 19/19/19 12/12/12 8/8/8
f 22/22/22 21/21/21 20/20/20
f 25/25/25 24/24/24 23/23/23
f 25/25/25 23/23/23 26/26/26
f 27/27/27 25/25/25 26/26/26
f 25/25/25 27/27/27 28/28/28
f 23/23/23 29/29/29 26/26/26
f 30/30/30 26/26/26 29/29/29
f 29/29/29 31/31/31 30/30/30
f 34/34/34 33/33/33 32/32/32
f 35/35/35 33/33/33 34/34/34
f 33/33/33 35/35/35 36/36/36
f 33/33/33 36/36/36 37/37/37
