g Fx_RingDisk03
v -0.003439285 -0.0348262 0.005559728
v -0.008671194 -0.08654727 0.01387899
v -0.002955042 -0.08694224 0.01389297
v -0.00115291 -0.03498401 0.005565368
v -0.00571122 -0.03451623 0.005529746
v -0.01435106 -0.08577245 0.01380392
v -0.007959269 -0.03405837 0.005475871
v -0.01997116 -0.08462791 0.01366933
v -0.025509 -0.08312403 0.01347636
v -0.0101744 -0.03345668 0.005398773
v -0.03094132 -0.08127095 0.01322681
v -0.01234738 -0.03271567 0.005298905
v -0.03624539 -0.07907949 0.01292202
v -0.01446918 -0.03183895 0.005176939
v 0.002774633 -0.0869499 0.01384472
v 0.001138873 -0.03498717 0.005546205
v 0.008494169 -0.0865759 0.01373561
v 0.00342682 -0.03483748 0.00550247
v 0.01418011 -0.08582881 0.01356721
v 0.005701244 -0.03453877 0.005435064
v 0.01980857 -0.08471741 0.01334088
v 0.007952444 -0.03409421 0.005344443
v 0.02535609 -0.08325072 0.0130584
v 0.01017164 -0.0335074 0.0052315
v 0.03079902 -0.0814371 0.01272137
v 0.01234867 -0.03278195 0.005096689
v 0.03611389 -0.07928531 0.01233137
v 0.01447476 -0.03192124 0.004940681
v 0.0412766 -0.07680394 0.01188997
v 0.01653975 -0.03092887 0.004764169
v 0.04626414 -0.074002 0.01139875
v 0.01853485 -0.029808 0.004567586
v 0.0510524 -0.07088827 0.01085927
v 0.02045016 -0.02856246 0.004351847
v 0.05561792 -0.06747089 0.01027337
v 0.02227642 -0.02719565 0.004117616
v 0.05993728 -0.06375909 0.009642377
v 0.02400393 -0.02571093 0.00386513
v -0.0397951 0.004001521 2.980232E-08
v -0.09948781 0.01000375 2.980232E-08
v -0.09993912 0.003490001 2.980232E-08
v -0.03997567 0.001395933 2.980232E-08
v -0.03943913 0.006590426 2.980232E-08
v -0.09859802 0.01647579 2.980232E-08
v -0.03891274 0.009151824 2.980232E-08
v -0.09728169 0.02287975 2.980232E-08
v -0.0382202 0.0116758 2.980232E-08
v -0.09555034 0.02918947 2.980232E-08
v -0.03736648 0.01415154 2.980232E-08
v -0.09341636 0.03537881 2.980232E-08
v -0.03635652 0.01656867 2.980232E-08
v -0.09089126 0.04142162 2.980232E-08
v -0.03519486 0.01891658 2.980232E-08
v -0.08798742 0.04729152 2.980232E-08
v -0.03388642 0.02118514 2.980232E-08
v -0.08471635 0.05296281 2.980232E-08
v -0.03243597 0.02336353 2.980232E-08
v -0.08108999 0.05840889 2.980232E-08
v -0.03084822 0.0254416 2.980232E-08
v -0.07712074 0.06360383 2.980232E-08
v -0.02912793 0.02740853 2.980232E-08
v -0.07281987 0.06852126 2.980232E-08
v -0.02728002 0.02925417 2.980232E-08
v -0.06819978 0.07313526 2.980232E-08
v -0.02530994 0.03096883 2.980232E-08
v -0.0632747 0.07742237 2.980232E-08
v -0.02322759 0.03254779 2.980232E-08
v -0.05806915 0.08136953 2.980232E-08
v -0.02104402 0.03398675 2.980232E-08
v -0.05261 0.08496703 2.980232E-08
v -0.01876959 0.03528164 2.980232E-08
v -0.04692428 0.08820429 2.980232E-08
v -0.0164156 0.03642866 2.980232E-08
v -0.04103883 0.09107183 2.980232E-08
v -0.01399216 0.03742373 2.980232E-08
v -0.03498046 0.09355929 2.980232E-08
v -0.02877624 0.09565675 2.980232E-08
v -0.01151056 0.03826259 2.980232E-08
v -0.02245322 0.09735383 2.980232E-08
v -0.008981168 0.03894159 2.980232E-08
v -0.01603799 0.09864062 2.980232E-08
v -0.006415263 0.03945626 2.980232E-08
v -0.009557836 0.0995072 2.980232E-08
v -0.003823198 0.03980298 2.980232E-08
v -0.08997262 -0.07332975 -0.0002441183
v -0.08506285 -0.07898526 0.0009209365
v -0.03598906 -0.02933188 -9.758025E-05
v -0.03402507 -0.03159413 0.000368394
v -0.03779504 -0.02693956 -0.0005633309
v -0.09448786 -0.06734893 -0.001408495
v -0.03943868 -0.02442978 -0.001027055
v -0.09859666 -0.06107415 -0.002567455
v -0.1022877 -0.05453651 -0.003715828
v -0.04091506 -0.0218145 -0.001486264
v -0.1055498 -0.04776645 -0.004849322
v -0.04221989 -0.01910656 -0.001939617
v -0.03980298 -0.003823139 2.980232E-08
v -0.09864062 -0.01603793 2.980232E-08
v -0.09735383 -0.02245315 2.980232E-08
v -0.03997725 -0.001215741 2.980232E-08
v -0.0995072 -0.009557776 2.980232E-08
v -0.09994341 -0.003039517 2.980232E-08
v -0.03945626 -0.006415196 2.980232E-08
v -0.03894159 -0.008981332 2.980232E-08
v -0.09565675 -0.02877618 2.980232E-08
v -0.03826259 -0.0115105 2.980232E-08
v 0.08401135 0.06952851 -0.006541438
v 0.07936827 0.07487315 -0.005664267
v 0.03162704 0.02617471 -0.002462633
v 0.02987901 0.02818695 -0.002132364
v 0.03323621 0.0240466 -0.002782069
v 0.08828583 0.06387548 -0.007390209
v 0.03470244 0.02181366 -0.003089793
v 0.09218069 0.05794358 -0.008207187
v 0.03602169 0.01948649 -0.003384434
v 0.09568532 0.05176213 -0.0089899
v 0.03718989 0.01707657 -0.003664881
v 0.09878822 0.04536043 -0.009734966
v 0.03820301 0.01459453 -0.003929995
v 0.101479 0.03876778 -0.01043946
v 0.03905673 0.01205184 -0.004178874
v 0.1037467 0.03201351 -0.01110066
v 0.03974701 0.009459317 -0.00441017
v 0.1055804 0.02512689 -0.01171497
v 0.1069691 0.01813702 -0.01227991
v 0.0402698 0.006828032 -0.004622981
v 0.1079019 0.01107366 -0.01279233
v 0.0406208 0.004168794 -0.004815951
v 0.1083681 0.003965899 -0.01324929
v 0.04079642 0.001493096 -0.004987963
v 0.07437035 0.07988301 -0.004761621
v 0.02799752 0.03007296 -0.001792632
v 0.06904286 0.08454277 -0.003837787
v 0.02599204 0.03182706 -0.001444787
v 0.01607309 0.05276826 0.003731444
v 0.03740023 0.1227857 0.008682691
v 0.02951403 0.1250682 0.006791063
v 0.01268389 0.05374935 0.002918527
v 0.045132 0.1199856 0.01053848
v 0.01939602 0.05156487 0.004529037
v 0.05267689 0.1166832 0.01235076
v 0.02263846 0.05014554 0.00530792
v 0.0215061 0.1268179 0.004871704
v 0.009242386 0.05450095 0.002093658
v 0.01340935 0.1280183 0.002931826
v 0.005762786 0.05501698 0.00125999
vt 0.5729153 0
vt 0.5729153 1
vt 0.5624933 1
vt 0.5624933 0
vt 0.5833371 0
vt 0.5833371 1
vt 0.5937438 0
vt 0.5937438 1
vt 0.6041657 1
vt 0.6041657 0
vt 0.6145876 1
vt 0.6145876 0
vt 0.6249943 1
vt 0.6249943 0
vt 0.5520867 1
vt 0.5520867 0
vt 0.5416648 1
vt 0.5416648 0
vt 0.5312428 1
vt 0.5312428 0
vt 0.5208362 1
vt 0.5208362 0
vt 0.5104143 1
vt 0.5104143 0
vt 0.5000076 1
vt 0.5000076 0
vt 0.4895857 1
vt 0.4895857 0
vt 0.4791638 1
vt 0.4791638 0
vt 0.4687572 1
vt 0.4687572 0
vt 0.4583353 1
vt 0.4583353 0
vt 0.4479133 1
vt 0.4479133 0
vt 0.4375067 1
vt 0.4375067 0
vt 0.2395819 0
vt 0.2395819 1
vt 0.2500038 1
vt 0.2500038 0
vt 0.22916 0
vt 0.22916 1
vt 0.2187533 0
vt 0.2187533 1
vt 0.2083314 0
vt 0.2083314 1
vt 0.1979095 0
vt 0.1979095 1
vt 0.1875029 0
vt 0.1875029 1
vt 0.1770809 0
vt 0.1770809 1
vt 0.1666743 0
vt 0.1666743 1
vt 0.1562524 0
vt 0.1562524 1
vt 0.1458305 0
vt 0.1458305 1
vt 0.1354238 0
vt 0.1354238 1
vt 0.1250019 0
vt 0.1250019 1
vt 0.11458 0
vt 0.11458 1
vt 0.1041733 0
vt 0.1041733 1
vt 0.09375143 0
vt 0.09375143 1
vt 0.08332952 0
vt 0.08332952 1
vt 0.07292286 0
vt 0.07292286 1
vt 0.06250095 0
vt 0.06250095 1
vt 0.05207904 1
vt 0.05207904 0
vt 0.04167239 1
vt 0.04167239 0
vt 0.03125048 1
vt 0.03125048 0
vt 0.02082857 1
vt 0.02082857 0
vt 0.3333333 1
vt 0.3229114 1
vt 0.3333333 0
vt 0.3229114 0
vt 0.3437552 0
vt 0.3437552 1
vt 0.3541619 0
vt 0.3541619 1
vt 0.3645838 1
vt 0.3645838 0
vt 0.3750057 1
vt 0.3750057 0
vt 0.2708324 0
vt 0.2812543 1
vt 0.2916609 1
vt 0.2604105 0
vt 0.2708324 1
vt 0.2604105 1
vt 0.2812543 0
vt 0.2916609 0
vt 0.3020829 1
vt 0.3020829 0
vt 0.8645762 1
vt 0.8749981 1
vt 0.8645762 0
vt 0.8749981 0
vt 0.8541695 0
vt 0.8541695 1
vt 0.8437476 0
vt 0.8437476 1
vt 0.8333409 0
vt 0.8333409 1
vt 0.8229191 0
vt 0.8229191 1
vt 0.8124971 0
vt 0.8124971 1
vt 0.8020905 0
vt 0.8020905 1
vt 0.7916686 0
vt 0.7916686 1
vt 0.7812467 1
vt 0.7812467 0
vt 0.77084 1
vt 0.77084 0
vt 0.7604181 1
vt 0.7604181 0
vt 0.88542 1
vt 0.88542 0
vt 0.8958266 1
vt 0.8958266 0
vt 0.9486076 0
vt 0.9486076 1
vt 0.9381857 1
vt 0.9381857 0
vt 0.9590296 1
vt 0.9590296 0
vt 0.9694362 1
vt 0.9694362 0
vt 0.9277791 1
vt 0.9277791 0
vt 0.9173571 1
vt 0.9173571 0
vn -0.008387104 -0.1578848 -0.9874219
vn -0.008387104 -0.1578848 -0.9874219
vn -0.008387104 -0.1578848 -0.9874219
vn -0.008387104 -0.1578848 -0.9874219
vn -0.008387104 -0.1578848 -0.9874219
vn -0.008387104 -0.1578848 -0.9874219
vn -0.008387104 -0.1578848 -0.9874219
vn -0.008387104 -0.1578848 -0.9874219
vn -0.008387104 -0.1578848 -0.9874219
vn -0.008387104 -0.1578848 -0.9874219
vn -0.008387104 -0.1578848 -0.9874219
vn -0.008387104 -0.1578848 -0.9874219
vn -0.008387104 -0.1578848 -0.9874219
vn -0.008387104 -0.1578848 -0.9874219
vn -0.008387104 -0.1578848 -0.9874219
vn -0.008387104 -0.1578848 -0.9874219
vn -0.008387104 -0.1578848 -0.9874219
vn -0.008387104 -0.1578848 -0.9874219
vn -0.008387104 -0.1578848 -0.9874219
vn -0.008387104 -0.1578848 -0.9874219
vn -0.008387104 -0.1578848 -0.9874219
vn -0.008387104 -0.1578848 -0.9874219
vn -0.008387104 -0.1578848 -0.9874219
vn -0.008387104 -0.1578848 -0.9874219
vn -0.008387104 -0.1578848 -0.9874219
vn -0.008387104 -0.1578848 -0.9874219
vn -0.008387104 -0.1578848 -0.9874219
vn -0.008387104 -0.1578848 -0.9874219
vn -0.008387104 -0.1578848 -0.9874219
vn -0.008387104 -0.1578848 -0.9874219
vn -0.008387104 -0.1578848 -0.9874219
vn -0.008387104 -0.1578848 -0.9874219
vn -0.008387104 -0.1578848 -0.9874219
vn -0.008387104 -0.1578848 -0.9874219
vn -0.008387104 -0.1578848 -0.9874219
vn -0.008387104 -0.1578848 -0.9874219
vn -0.008387104 -0.1578848 -0.9874219
vn -0.008387104 -0.1578848 -0.9874219
vn -3.871322E-05 3.871322E-05 -1
vn -3.871322E-05 3.871322E-05 -1
vn -3.871322E-05 3.871322E-05 -1
vn -3.871322E-05 3.871322E-05 -1
vn -3.871322E-05 3.871322E-05 -1
vn -3.871322E-05 3.871322E-05 -1
vn -3.871322E-05 3.871322E-05 -1
vn -3.871322E-05 3.871322E-05 -1
vn -3.871322E-05 3.871322E-05 -1
vn -3.871322E-05 3.871322E-05 -1
vn -3.871322E-05 3.871322E-05 -1
vn -3.871322E-05 3.871322E-05 -1
vn -3.871322E-05 3.871322E-05 -1
vn -3.871322E-05 3.871322E-05 -1
vn -3.871322E-05 3.871322E-05 -1
vn -3.871322E-05 3.871322E-05 -1
vn -3.871322E-05 3.871322E-05 -1
vn -3.871322E-05 3.871322E-05 -1
vn -3.871322E-05 3.871322E-05 -1
vn -3.871322E-05 3.871322E-05 -1
vn -3.871322E-05 3.871322E-05 -1
vn -3.871322E-05 3.871322E-05 -1
vn -3.871322E-05 3.871322E-05 -1
vn -3.871322E-05 3.871322E-05 -1
vn -3.871322E-05 3.871322E-05 -1
vn -3.871322E-05 3.871322E-05 -1
vn -3.871322E-05 3.871322E-05 -1
vn -3.871322E-05 3.871322E-05 -1
vn -3.871322E-05 3.871322E-05 -1
vn -3.871322E-05 3.871322E-05 -1
vn -3.871322E-05 3.871322E-05 -1
vn -3.871322E-05 3.871322E-05 -1
vn -3.871322E-05 3.871322E-05 -1
vn -3.871322E-05 3.871322E-05 -1
vn -3.871322E-05 3.871322E-05 -1
vn -3.871322E-05 3.871322E-05 -1
vn -3.871322E-05 3.871322E-05 -1
vn -3.871322E-05 3.871322E-05 -1
vn -3.871322E-05 3.871322E-05 -1
vn -3.871322E-05 3.871322E-05 -1
vn -3.871322E-05 3.871322E-05 -1
vn -3.871322E-05 3.871322E-05 -1
vn -3.871322E-05 3.871322E-05 -1
vn -3.871322E-05 3.871322E-05 -1
vn -3.871322E-05 3.871322E-05 -1
vn -3.871322E-05 3.871322E-05 -1
vn 0.09875043 -0.1178821 -0.9881054
vn 0.09875043 -0.1178821 -0.9881054
vn 0.09875043 -0.1178821 -0.9881054
vn 0.09875043 -0.1178821 -0.9881054
vn 0.09875043 -0.1178821 -0.9881054
vn 0.09875043 -0.1178821 -0.9881054
vn 0.09875043 -0.1178821 -0.9881054
vn 0.09875043 -0.1178821 -0.9881054
vn 0.09875043 -0.1178821 -0.9881054
vn 0.09875043 -0.1178821 -0.9881054
vn 0.09875043 -0.1178821 -0.9881054
vn 0.09875043 -0.1178821 -0.9881054
vn -3.871322E-05 3.871322E-05 -1
vn -3.871322E-05 3.871322E-05 -1
vn -3.871322E-05 3.871322E-05 -1
vn -3.871322E-05 3.871322E-05 -1
vn -3.871322E-05 3.871322E-05 -1
vn -3.871322E-05 3.871322E-05 -1
vn -3.871322E-05 3.871322E-05 -1
vn -3.871322E-05 3.871322E-05 -1
vn -3.871322E-05 3.871322E-05 -1
vn -3.871322E-05 3.871322E-05 -1
vn -0.1231773 0.05569457 -0.9908206
vn -0.1231773 0.05569457 -0.9908206
vn -0.1231773 0.05569457 -0.9908206
vn -0.1231773 0.05569457 -0.9908206
vn -0.1231773 0.05569457 -0.9908206
vn -0.1231773 0.05569457 -0.9908206
vn -0.1231773 0.05569457 -0.9908206
vn -0.1231773 0.05569457 -0.9908206
vn -0.1231773 0.05569457 -0.9908206
vn -0.1231773 0.05569457 -0.9908206
vn -0.1231773 0.05569457 -0.9908206
vn -0.1231773 0.05569457 -0.9908206
vn -0.1231773 0.05569457 -0.9908206
vn -0.1231773 0.05569457 -0.9908206
vn -0.1231773 0.05569457 -0.9908206
vn -0.1231773 0.05569457 -0.9908206
vn -0.1231773 0.05569457 -0.9908206
vn -0.1231773 0.05569457 -0.9908206
vn -0.1231773 0.05569457 -0.9908206
vn -0.1231773 0.05569457 -0.9908206
vn -0.1231773 0.05569457 -0.9908206
vn -0.1231773 0.05569457 -0.9908206
vn -0.1231773 0.05569457 -0.9908206
vn -0.1231773 0.05569457 -0.9908206
vn -0.1231773 0.05569457 -0.9908206
vn -0.1231773 0.05569457 -0.9908206
vn -0.1231773 0.05569457 -0.9908206
vn -0.1231773 0.05569457 -0.9908206
vn 0.2326723 -0.002048373 -0.9725531
vn 0.2326723 -0.002048373 -0.9725531
vn 0.2326723 -0.002048373 -0.9725531
vn 0.2326723 -0.002048373 -0.9725531
vn 0.2326723 -0.002048373 -0.9725531
vn 0.2326723 -0.002048373 -0.9725531
vn 0.2326723 -0.002048373 -0.9725531
vn 0.2326723 -0.002048373 -0.9725531
vn 0.2326723 -0.002048373 -0.9725531
vn 0.2326723 -0.002048373 -0.9725531
vn 0.2326723 -0.002048373 -0.9725531
vn 0.2326723 -0.002048373 -0.9725531
g Fx_RingDisk03_0
f 3/3/3 2/2/2 1/1/1
f 4/4/4 3/3/3 1/1/1
f 1/1/1 2/2/2 5/5/5
f 2/2/2 6/6/6 5/5/5
f 5/5/5 6/6/6 7/7/7
f 6/6/6 8/8/8 7/7/7
f 7/7/7 8/8/8 9/9/9
f 7/7/7 9/9/9 10/10/10
f 10/10/10 9/9/9 11/11/11
f 10/10/10 11/11/11 12/12/12
f 12/12/12 11/11/11 13/13/13
f 12/12/12 13/13/13 14/14/14
f 15/15/15 3/3/3 4/4/4
f 16/16/16 15/15/15 4/4/4
f 17/17/17 15/15/15 16/16/16
f 18/18/18 17/17/17 16/16/16
f 19/19/19 17/17/17 18/18/18
f 20/20/20 19/19/19 18/18/18
f 21/21/21 19/19/19 20/20/20
f 22/22/22 21/21/21 20/20/20
f 23/23/23 21/21/21 22/22/22
f 24/24/24 23/23/23 22/22/22
f 25/25/25 23/23/23 24/24/24
f 26/26/26 25/25/25 24/24/24
f 27/27/27 25/25/25 26/26/26
f 28/28/28 27/27/27 26/26/26
f 29/29/29 27/27/27 28/28/28
f 30/30/30 29/29/29 28/28/28
f 31/31/31 29/29/29 30/30/30
f 32/32/32 31/31/31 30/30/30
f 32/32/32 33/33/33 31/31/31
f 32/32/32 34/34/34 33/33/33
f 34/34/34 35/35/35 33/33/33
f 34/34/34 36/36/36 35/35/35
f 36/36/36 37/37/37 35/35/35
f 36/36/36 38/38/38 37/37/37
f 41/41/41 40/40/40 39/39/39
f 42/42/42 41/41/41 39/39/39
f 39/39/39 40/40/40 43/43/43
f 40/40/40 44/44/44 43/43/43
f 43/43/43 44/44/44 45/45/45
f 44/44/44 46/46/46 45/45/45
f 45/45/45 46/46/46 47/47/47
f 46/46/46 48/48/48 47/47/47
f 47/47/47 48/48/48 49/49/49
f 48/48/48 50/50/50 49/49/49
f 49/49/49 50/50/50 51/51/51
f 50/50/50 52/52/52 51/51/51
f 51/51/51 52/52/52 53/53/53
f 52/52/52 54/54/54 53/53/53
f 53/53/53 54/54/54 55/55/55
f 54/54/54 56/56/56 55/55/55
f 55/55/55 56/56/56 57/57/57
f 56/56/56 58/58/58 57/57/57
f 57/57/57 58/58/58 59/59/59
f 58/58/58 60/60/60 59/59/59
f 59/59/59 60/60/60 61/61/61
f 60/60/60 62/62/62 61/61/61
f 61/61/61 62/62/62 63/63/63
f 62/62/62 64/64/64 63/63/63
f 63/63/63 64/64/64 65/65/65
f 64/64/64 66/66/66 65/65/65
f 65/65/65 66/66/66 67/67/67
f 66/66/66 68/68/68 67/67/67
f 67/67/67 68/68/68 69/69/69
f 68/68/68 70/70/70 69/69/69
f 69/69/69 70/70/70 71/71/71
f 70/70/70 72/72/72 71/71/71
f 71/71/71 72/72/72 73/73/73
f 72/72/72 74/74/74 73/73/73
f 73/73/73 74/74/74 75/75/75
f 74/74/74 76/76/76 75/75/75
f 75/75/75 76/76/76 77/77/77
f 75/75/75 77/77/77 78/78/78
f 78/78/78 77/77/77 79/79/79
f 78/78/78 79/79/79 80/80/80
f 80/80/80 79/79/79 81/81/81
f 80/80/80 81/81/81 82/82/82
f 82/82/82 81/81/81 83/83/83
f 82/82/82 83/83/83 84/84/84
f 87/87/87 86/86/86 85/85/85
f 87/87/87 88/88/88 86/86/86
f 89/89/89 87/87/87 85/85/85
f 89/89/89 85/85/85 90/90/90
f 89/89/89 90/90/90 91/91/91
f 90/90/90 92/92/92 91/91/91
f 91/91/91 92/92/92 93/93/93
f 91/91/91 93/93/93 94/94/94
f 94/94/94 93/93/93 95/95/95
f 94/94/94 95/95/95 96/96/96
f 99/99/99 98/98/98 97/97/97
f 97/97/97 98/98/98 100/100/100
f 98/98/98 101/101/101 100/100/100
f 101/101/101 102/102/102 100/100/100
f 100/100/100 102/102/102 42/42/42
f 102/102/102 41/41/41 42/42/42
f 103/103/103 99/99/99 97/97/97
f 99/99/99 103/103/103 104/104/104
f 104/104/104 105/105/105 99/99/99
f 104/104/104 106/106/106 105/105/105
f 109/109/109 108/108/108 107/107/107
f 109/109/109 110/110/110 108/108/108
f 109/109/109 107/107/107 111/111/111
f 107/107/107 112/112/112 111/111/111
f 111/111/111 112/112/112 113/113/113
f 112/112/112 114/114/114 113/113/113
f 113/113/113 114/114/114 115/115/115
f 114/114/114 116/116/116 115/115/115
f 115/115/115 116/116/116 117/117/117
f 116/116/116 118/118/118 117/117/117
f 117/117/117 118/118/118 119/119/119
f 118/118/118 120/120/120 119/119/119
f 119/119/119 120/120/120 121/121/121
f 120/120/120 122/122/122 121/121/121
f 121/121/121 122/122/122 123/123/123
f 122/122/122 124/124/124 123/123/123
f 123/123/123 124/124/124 125/125/125
f 123/123/123 125/125/125 126/126/126
f 126/126/126 125/125/125 127/127/127
f 126/126/126 127/127/127 128/128/128
f 128/128/128 127/127/127 129/129/129
f 128/128/128 129/129/129 130/130/130
f 110/110/110 131/131/131 108/108/108
f 110/110/110 132/132/132 131/131/131
f 133/133/133 131/131/131 132/132/132
f 133/133/133 132/132/132 134/134/134
f 137/137/137 136/136/136 135/135/135
f 138/138/138 137/137/137 135/135/135
f 135/135/135 136/136/136 139/139/139
f 135/135/135 139/139/139 140/140/140
f 140/140/140 139/139/139 141/141/141
f 140/140/140 141/141/141 142/142/142
f 138/138/138 143/143/143 137/137/137
f 138/138/138 144/144/144 143/143/143
f 144/144/144 145/145/145 143/143/143
f 144/144/144 146/146/146 145/145/145
