g Fx_Thunder
v -0.04065336 0.002666019 -0.001712538
v -0.05271624 0.02766603 -0.008538976
v 0.04728381 0.02766603 -0.008538976
v 0.05934669 0.002666019 -0.001712538
v 0.03548489 0.05266604 -0.01224013
v -0.06451516 0.05266604 -0.01224013
v 0.02509829 0.07766606 -0.01146234
v -0.07490176 0.07766606 -0.01146234
v 0.01713477 0.1026661 -0.006489292
v -0.08286527 0.1026661 -0.006489292
v 0.01236816 0.1276661 0.0008583069
v -0.08763188 0.1276661 0.0008583069
v 0.01126267 0.1526661 0.007891744
v -0.08873738 0.1526661 0.007891744
v 0.01392545 0.1776661 0.01203736
v -0.08607461 0.1776661 0.01203736
v 0.02009818 0.2026661 0.01177734
v -0.07990187 0.2026661 0.01177734
v 0.02918017 0.2276661 0.00720758
v -0.07081987 0.2276661 0.00720758
v 0.04028759 0.2526661 -1.41561E-07
v -0.05971245 0.2526661 -1.41561E-07
v 0.05233976 0.2776662 -0.00720787
v -0.04766029 0.2776662 -0.00720787
v 0.06416406 0.3026662 -0.01177763
v -0.03583599 0.3026662 -0.01177763
v 0.07461043 0.3276662 -0.01203708
v -0.02538961 0.3276662 -0.01203708
v 0.08266307 0.3526662 -0.007892035
v -0.01733697 0.3526662 -0.007892035
v 0.08753742 0.3776662 -0.0008580312
v -0.01246264 0.3776662 -0.0008580312
v 0.08876023 0.4026662 0.006489575
v -0.01123982 0.4026662 0.006489575
v 0.08621194 0.4276662 0.01146205
v -0.0137881 0.4276662 0.01146205
v 0.08014074 0.4526663 0.01224041
v -0.01985931 0.4526663 0.01224041
v 0.07113771 0.4776662 0.008538686
v -0.02886233 0.4776662 0.008538686
v 0.06007767 0.5026662 0.001712248
v -0.03992237 0.5026662 0.001712248
vt 0 0
vt 0 0.05000382
vt 1 0.05000382
vt 1 0
vt 1 0.1000076
vt 0 0.1000076
vt 1 0.1499962
vt 0 0.1499962
vt 1 0.2
vt 0 0.2
vt 1 0.2500038
vt 0 0.2500038
vt 1 0.3000076
vt 0 0.3000076
vt 1 0.3499962
vt 0 0.3499962
vt 1 0.4
vt 0 0.4
vt 1 0.4500038
vt 0 0.4500038
vt 1 0.5000076
vt 0 0.5000076
vt 1 0.5499962
vt 0 0.5499962
vt 1 0.6
vt 0 0.6
vt 1 0.6500038
vt 0 0.6500038
vt 1 0.7000076
vt 0 0.7000076
vt 1 0.7499962
vt 0 0.7499962
vt 1 0.8
vt 0 0.8
vt 1 0.8500038
vt 0 0.8500038
vt 1 0.9000076
vt 0 0.9000076
vt 1 0.9499962
vt 0 0.9499962
vt 1 1
vt 0 1
vn 0.0001845956 0.2634874 0.9646628
vn 0.0001845956 0.1898541 0.9818123
vn 0.0001845956 0.2223394 0.9749693
vn 0.0001845956 0.2634874 0.9646628
vn 0.0001845956 0.08156997 0.9966676
vn 0.0001845956 0.03446636 0.9994059
vn 0.0001845956 -0.09655751 0.9953274
vn 0.0001845956 -0.1328327 0.9911385
vn 0.0001845956 -0.2329956 0.9724777
vn 0.0001845956 -0.2459897 0.9692724
vn 0.0001845956 -0.2768507 0.9609129
vn 0.0001845956 -0.2757678 0.9612243
vn 0.0001845956 -0.2172944 0.9761061
vn 0.0001845956 -0.2194601 0.9756215
vn 0.0001845956 -0.06840362 0.9976577
vn 0.0001845956 -0.08735335 0.9961774
vn 0.0001845956 0.1113481 0.9937814
vn 0.0001845956 0.07994571 0.9967992
vn 0.0001845956 0.2407477 0.9705877
vn 0.0001845956 0.2174666 0.9760677
vn 0.0001845956 0.2770229 0.9608633
vn 0.0001845956 0.2770229 0.9608633
vn 0.0001845956 0.2158424 0.9764282
vn 0.0001845956 0.2429134 0.970048
vn 0.0001845956 0.07344866 0.997299
vn 0.0001845956 0.1183866 0.9929675
vn 0.0001845956 -0.09764035 0.9952217
vn 0.0001845956 -0.05865805 0.9982781
vn 0.0001845956 -0.2270399 0.9738854
vn 0.0001845956 -0.2102559 0.9776464
vn 0.0001845956 -0.2768507 0.9609129
vn 0.0001845956 -0.2757678 0.9612243
vn 0.0001845956 -0.240034 0.9707645
vn 0.0001845956 -0.2384098 0.9711646
vn 0.0001845956 -0.1236286 0.9923285
vn 0.0001845956 -0.1057617 0.9943915
vn 0.0001845956 0.04150483 0.9991383
vn 0.0001845956 0.0745315 0.9972187
vn 0.0001845956 0.1920199 0.981391
vn 0.0001845956 0.2196323 0.9755827
vn 0.0001845956 0.2634874 0.9646628
vn 0.0001845956 0.2634874 0.9646628
g Fx_Thunder_0
f 3/3/3 2/2/2 1/1/1
f 4/4/4 3/3/3 1/1/1
f 3/3/3 5/5/5 2/2/2
f 5/5/5 6/6/6 2/2/2
f 5/5/5 7/7/7 6/6/6
f 7/7/7 8/8/8 6/6/6
f 7/7/7 9/9/9 8/8/8
f 9/9/9 10/10/10 8/8/8
f 9/9/9 11/11/11 10/10/10
f 11/11/11 12/12/12 10/10/10
f 11/11/11 13/13/13 12/12/12
f 13/13/13 14/14/14 12/12/12
f 13/13/13 15/15/15 14/14/14
f 15/15/15 16/16/16 14/14/14
f 15/15/15 17/17/17 16/16/16
f 17/17/17 18/18/18 16/16/16
f 17/17/17 19/19/19 18/18/18
f 19/19/19 20/20/20 18/18/18
f 19/19/19 21/21/21 20/20/20
f 21/21/21 22/22/22 20/20/20
f 21/21/21 23/23/23 22/22/22
f 23/23/23 24/24/24 22/22/22
f 23/23/23 25/25/25 24/24/24
f 25/25/25 26/26/26 24/24/24
f 25/25/25 27/27/27 26/26/26
f 27/27/27 28/28/28 26/26/26
f 27/27/27 29/29/29 28/28/28
f 29/29/29 30/30/30 28/28/28
f 29/29/29 31/31/31 30/30/30
f 31/31/31 32/32/32 30/30/30
f 31/31/31 33/33/33 32/32/32
f 33/33/33 34/34/34 32/32/32
f 33/33/33 35/35/35 34/34/34
f 35/35/35 36/36/36 34/34/34
f 35/35/35 37/37/37 36/36/36
f 37/37/37 38/38/38 36/36/36
f 37/37/37 39/39/39 38/38/38
f 39/39/39 40/40/40 38/38/38
f 39/39/39 41/41/41 40/40/40
f 41/41/41 42/42/42 40/40/40
