g GearBox_Std_Rear_LOD2
v 0.08000028 -0.3549995 -0.8073341
v 0.08000028 -0.3299999 -0.57
v 0.08000028 -0.3299999 -0.8556327
v 0.08000028 -0.1837497 -0.57
v 0.08000028 -0.1837497 -0.9000003
v 0.08000028 4.172325E-07 -0.7999997
v 0.08000028 4.172325E-07 -0.57
v -0.08000016 -0.3549995 -0.8073341
v 0.08000028 -0.3549995 -0.8073341
v -0.08000016 -0.3299999 -0.8556327
v 0.08000028 -0.3299999 -0.8556327
v 0.08000028 -0.3299999 -0.57
v -0.08000016 -0.3299999 -0.57
v 0.08000028 -0.1837497 -0.9000003
v -0.08000016 -0.1837497 -0.9000003
v 0.08000028 -0.1837497 -0.57
v -0.08000016 -0.1837497 -0.57
v -0.08000016 4.172325E-07 -0.7999997
v 0.08000028 4.172325E-07 -0.7999997
v 0.08000028 4.172325E-07 -0.57
v -0.08000016 4.172325E-07 -0.57
v -0.08000016 4.172325E-07 -0.57
v -0.08000016 4.172325E-07 -0.7999997
v 0.08000028 4.172325E-07 -0.57
v 0.08000028 4.172325E-07 -0.7999997
v -0.08000016 -0.3299999 -0.57
v -0.08000016 -0.3549995 -0.8073341
v -0.08000016 -0.3299999 -0.8556327
v -0.08000016 -0.1837497 -0.57
v -0.08000016 -0.1837497 -0.9000003
v -0.08000016 4.172325E-07 -0.7999997
v -0.08000016 4.172325E-07 -0.57
v 0.1200001 -0.3193595 -0.8334254
v 0.1200001 -0.1906403 -0.8334254
v 0.08000028 -0.3257107 -0.8397766
v 0.08000028 -0.1842891 -0.8397766
v 0.1200001 -0.1906403 -0.7047062
v 0.08000028 -0.1842891 -0.698355
v 0.1200001 -0.3193595 -0.7047062
v 0.08000028 -0.3257107 -0.698355
v 0.1200001 -0.3193595 -0.7047062
v 0.1200001 -0.3193595 -0.8334254
v 0.08000028 -0.3257107 -0.698355
v 0.08000028 -0.3257107 -0.8397766
v 0.1200001 -0.2549999 -0.7690658
v 0.1200001 -0.1906403 -0.8334254
v 0.1200001 -0.3193595 -0.8334254
v 0.1200001 -0.1906403 -0.7047062
v 0.1200001 -0.3193595 -0.7047062
v -0.12 -0.3193595 -0.8334254
v -0.12 -0.3193595 -0.7047062
v -0.08000016 -0.3257107 -0.8397766
v -0.08000016 -0.3257107 -0.698355
v -0.12 -0.1906403 -0.8334254
v -0.12 -0.3193595 -0.8334254
v -0.08000016 -0.1842891 -0.8397766
v -0.08000016 -0.3257107 -0.8397766
v -0.08000016 -0.1842891 -0.698355
v -0.12 -0.1906403 -0.7047062
v -0.08000016 -0.3257107 -0.698355
v -0.12 -0.3193595 -0.7047062
v -0.12 -0.2549999 -0.7690658
v -0.12 -0.3193595 -0.7047062
v -0.12 -0.3193595 -0.8334254
v -0.12 -0.1906403 -0.8334254
v -0.12 -0.1906403 -0.7047062
v 0.04999989 -0.3250002 -0.1377808
v 0.04999989 0.01499963 -0.1377808
v 0.04999989 -0.3250002 -0.6677804
v 0.04999989 0.01499963 -0.6677804
v -0.04999977 -0.3250002 -0.1377808
v -0.04999977 -0.3250002 -0.6677804
v -0.04999977 0.01499963 -0.1377808
v -0.04999977 0.01499963 -0.6677804
v -0.04999977 -0.3250002 -0.6677804
v -0.04999977 -0.3250002 -0.1377808
v 0.04999989 -0.3250002 -0.6677804
v 0.04999989 -0.3250002 -0.1377808
v 0.02977502 4.172325E-07 -0.8537399
v 0.02389061 -0.006613493 -0.8642289
v 0.02913016 -0.157723 -0.9201376
v 0.02389061 -0.1475066 -0.9235102
v -0.0238905 -0.1475066 -0.9235102
v -0.0238905 -0.006613493 -0.8642289
v -0.02913004 -0.157723 -0.9201376
v 0.02913016 -0.157723 -0.9201376
v -0.02913004 -0.157723 -0.9201376
v -0.0297749 4.172325E-07 -0.8537399
v 0.02977502 4.172325E-07 -0.8537399
v -0.0297749 4.172325E-07 -0.8537399
vt 0.4178924 0.5909727
vt 0.2890414 0.6045516
vt 0.4441116 0.6045516
vt 0.2890414 0.683946
vt 0.4681925 0.683946
vt 0.4139126 0.7837145
vt 0.2890414 0.7837145
vt 0.2292729 0.8076766
vt 0.2292729 0.8923219
vt 0.2604224 0.8076766
vt 0.2604224 0.8923219
vt 0.1175411 0.8923219
vt 0.1175411 0.8076766
vt 0.3420977 0.8923219
vt 0.3420977 0.8076766
vt 0.06361763 0.8923219
vt 0.06361763 0.8076766
vt 0.4604111 0.8076766
vt 0.4604111 0.8923219
vt 0.009741635 0.8923219
vt 0.009741635 0.8076766
vt 0.4814625 0.3950471
vt 0.3499979 0.3950471
vt 0.4814625 0.4796924
vt 0.3499979 0.4796924
vt 1.289032 0.6045516
vt 1.417883 0.5909727
vt 1.444114 0.6045516
vt 1.289032 0.683946
vt 1.468195 0.683946
vt 1.413903 0.7837145
vt 1.289032 0.7837145
vt 0.2371732 1.557129
vt 0.2371732 1.51726
vt 0.1781175 1.557129
vt 0.1781175 1.51726
vt 0.2371732 1.47739
vt 0.1781175 1.47739
vt 0.2371732 1.437521
vt 0.1781175 1.437521
vt 0.2371732 1.437521
vt 0.2371732 1.557129
vt 0.1781175 1.437521
vt 0.1781175 1.557129
vt 0.0903002 1.491848
vt 0.1393885 1.540937
vt 0.1393885 1.44276
vt 0.04122375 1.540937
vt 0.04122375 1.44276
vt 1.237176 1.557129
vt 1.237176 1.437521
vt 1.17812 1.557129
vt 1.17812 1.437521
vt 1.237176 1.51726
vt 1.237176 1.557129
vt 1.17812 1.51726
vt 1.17812 1.557129
vt 1.17812 1.47739
vt 1.237176 1.47739
vt 1.17812 1.437521
vt 1.237176 1.437521
vt 1.090303 1.491848
vt 1.041214 1.44276
vt 1.139379 1.44276
vt 1.139379 1.540937
vt 1.041214 1.540937
vt 0.3499979 0.285228
vt 0.3499979 0.3747678
vt 0.4938415 0.285228
vt 0.4938415 0.3747678
vt 1.350001 0.285228
vt 1.493844 0.285228
vt 1.350001 0.3747678
vt 1.493844 0.3747678
vt 0.4938415 0.2600185
vt 0.3499979 0.2600185
vt 0.4938415 0.2749279
vt 0.3499979 0.2749279
vt 0.2813194 0.4338116
vt 0.2902176 0.4338116
vt 0.2813194 0.2829707
vt 0.2902176 0.2829707
vt 0.3190385 0.2829707
vt 0.3190385 0.4338116
vt 0.3190385 0.2706987
vt 0.2902176 0.2706987
vt 0.327711 0.2829707
vt 0.327711 0.4338116
vt 0.2902176 0.4452402
vt 0.3190385 0.4452402
vn 0.9999995 0.0009775162 0
vn 0.9999995 0.0009775162 0
vn 0.9999995 0.0009775162 0
vn 0.9999995 0.0009775162 0
vn 0.9999995 0.0009775162 0
vn 0.9999995 0.0009775162 0
vn 0.9999995 0.0009775162 0
vn -0.0009775162 -0.9999995 0
vn -0.0009775162 -0.9999995 0
vn -0.0009775162 -0.4760506 -0.8794174
vn -0.0009775162 -0.4760506 -0.8794174
vn -0.0009775162 -0.8103613 0.5859298
vn -0.0009775162 -0.8103613 0.5859298
vn -0.0009775162 0.1671554 -0.9859301
vn -0.0009775162 0.1671554 -0.9859301
vn -0.0009775162 0.0009775162 0.999999
vn -0.0009775162 0.0009775162 0.999999
vn -0.0009775162 0.4780056 -0.8783562
vn -0.0009775162 0.4780056 -0.8783562
vn -0.0009775162 0.0009775162 0.999999
vn -0.0009775162 0.0009775162 0.999999
vn -0.0009775162 0.9999995 0
vn -0.0009775162 0.9999995 0
vn -0.0009775162 0.9999995 0
vn -0.0009775162 0.9999995 0
vn -0.9999995 0.0009775162 0
vn -0.9999995 0.0009775162 0
vn -0.9999995 0.0009775162 0
vn -0.9999995 0.0009775162 0
vn -0.9999995 0.0009775162 0
vn -0.9999995 0.0009775162 0
vn -0.9999995 0.0009775162 0
vn 0.2179862 -0.7165197 -0.6626322
vn 0.2179862 0.6617788 -0.717308
vn 0.2179862 -0.7145647 -0.66474
vn 0.2179862 0.6637338 -0.7154994
vn 0.2179862 0.7165197 0.6626322
vn 0.2179862 0.7145647 0.66474
vn 0.2179862 -0.6617788 0.717308
vn 0.2179862 -0.6637338 0.7154994
vn 0.2179862 -0.6617788 0.717308
vn 0.2179862 -0.7165197 -0.6626322
vn 0.2179862 -0.6637338 0.7154994
vn 0.2179862 -0.7145647 -0.66474
vn 0.9999995 0.0009775162 0
vn 0.9999995 0.0009775162 0
vn 0.9999995 0.0009775162 0
vn 0.9999995 0.0009775162 0
vn 0.9999995 0.0009775162 0
vn -0.2179862 -0.6617788 -0.717308
vn -0.2179862 -0.7165197 0.6626322
vn -0.2179862 -0.6637338 -0.7154994
vn -0.2179862 -0.7145647 0.66474
vn -0.2179862 0.7165197 -0.6626322
vn -0.2179862 -0.6617788 -0.717308
vn -0.2179862 0.7145647 -0.66474
vn -0.2179862 -0.6637338 -0.7154994
vn -0.2179862 0.6637338 0.7154994
vn -0.2179862 0.6617788 0.717308
vn -0.2179862 -0.7145647 0.66474
vn -0.2179862 -0.7165197 0.6626322
vn -0.9999995 0.0009775162 0
vn -0.9999995 0.0009775162 0
vn -0.9999995 0.0009775162 0
vn -0.9999995 0.0009775162 0
vn -0.9999995 0.0009775162 0
vn 0.9999995 0.0009775162 0
vn 0.9999995 0.0009775162 0
vn 0.9999995 0.0009775162 0
vn 0.9999995 0.0009775162 0
vn -0.9999995 0.0009775162 0
vn -0.9999995 0.0009775162 0
vn -0.9999995 0.0009775162 0
vn -0.9999995 0.0009775162 0
vn -0.0009775162 -0.9999995 0
vn -0.0009775162 -0.9999995 0
vn -0.0009775162 -0.9999995 0
vn -0.0009775162 -0.9999995 0
vn 0.7712606 0.2434016 -0.5881434
vn 0.1925708 0.4213097 -0.8862362
vn 0.8005861 0.2316715 -0.5526212
vn 0.1730204 0.3294231 -0.9281942
vn -0.1749755 0.3372432 -0.9250138
vn -0.1906158 0.4291298 -0.8829004
vn -0.0009775162 -0.3137829 -0.9494942
vn -0.0009775162 -0.3137829 -0.9494942
vn -0.8005861 0.2316715 -0.5526212
vn -0.7712606 0.2434016 -0.5881434
vn -0.0009775162 0.8455518 -0.5338924
vn -0.0009775162 0.8455518 -0.5338924
g GearBox_Std_Rear_LOD2_0
f 3/3/3 2/2/2 1/1/1
f 3/3/3 4/4/4 2/2/2
f 3/3/3 5/5/5 4/4/4
f 4/4/4 5/5/5 6/6/6
f 4/4/4 6/6/6 7/7/7
f 10/10/10 9/9/9 8/8/8
f 10/10/10 11/11/11 9/9/9
f 8/8/8 9/9/9 12/12/12
f 8/8/8 12/12/12 13/13/13
f 14/14/14 11/11/11 10/10/10
f 14/14/14 10/10/10 15/15/15
f 16/16/16 13/13/13 12/12/12
f 16/16/16 17/17/17 13/13/13
f 18/18/18 14/14/14 15/15/15
f 18/18/18 19/19/19 14/14/14
f 17/17/17 16/16/16 20/20/20
f 17/17/17 20/20/20 21/21/21
f 24/24/24 23/23/23 22/22/22
f 24/24/24 25/25/25 23/23/23
f 28/28/28 27/27/27 26/26/26
f 29/29/29 28/28/28 26/26/26
f 29/29/29 30/30/30 28/28/28
f 31/31/31 30/30/30 29/29/29
f 31/31/31 29/29/29 32/32/32
f 35/35/35 34/34/34 33/33/33
f 35/35/35 36/36/36 34/34/34
f 36/36/36 37/37/37 34/34/34
f 36/36/36 38/38/38 37/37/37
f 38/38/38 39/39/39 37/37/37
f 38/38/38 40/40/40 39/39/39
f 43/43/43 42/42/42 41/41/41
f 43/43/43 44/44/44 42/42/42
f 47/47/47 46/46/46 45/45/45
f 46/46/46 48/48/48 45/45/45
f 48/48/48 49/49/49 45/45/45
f 49/49/49 47/47/47 45/45/45
f 52/52/52 51/51/51 50/50/50
f 52/52/52 53/53/53 51/51/51
f 56/56/56 55/55/55 54/54/54
f 56/56/56 57/57/57 55/55/55
f 58/58/58 56/56/56 54/54/54
f 58/58/58 54/54/54 59/59/59
f 60/60/60 58/58/58 59/59/59
f 60/60/60 59/59/59 61/61/61
f 64/64/64 63/63/63 62/62/62
f 65/65/65 64/64/64 62/62/62
f 66/66/66 65/65/65 62/62/62
f 63/63/63 66/66/66 62/62/62
f 69/69/69 68/68/68 67/67/67
f 69/69/69 70/70/70 68/68/68
f 73/73/73 72/72/72 71/71/71
f 73/73/73 74/74/74 72/72/72
f 77/77/77 76/76/76 75/75/75
f 77/77/77 78/78/78 76/76/76
f 81/81/81 80/80/80 79/79/79
f 81/81/81 82/82/82 80/80/80
f 83/83/83 80/80/80 82/82/82
f 83/83/83 84/84/84 80/80/80
f 85/85/85 83/83/83 82/82/82
f 85/85/85 82/82/82 86/86/86
f 87/87/87 84/84/84 83/83/83
f 87/87/87 88/88/88 84/84/84
f 84/84/84 89/89/89 80/80/80
f 84/84/84 90/90/90 89/89/89
