g Glide
v 4.87618 1.28078 40.99124
v 3.250804 1.28078 40.99124
v 3.250804 0.4994349 37.78877
v 4.87618 0.4994349 37.78877
v 6.5016 0.4994349 37.78877
v 6.5016 1.28078 40.99124
v 1.625383 1.28078 40.99124
v 8.106232E-06 1.28078 40.99124
v 8.106232E-06 0.4994349 37.78877
v 1.625383 0.4994349 37.78877
v 3.250804 0.4994349 37.78877
v 3.250804 1.28078 40.99124
v -1.625413 1.28078 40.99124
v -3.250788 1.28078 40.99124
v -3.250788 0.4994349 37.78877
v -1.625413 0.4994349 37.78877
v 8.106232E-06 0.4994349 37.78877
v 8.106232E-06 1.28078 40.99124
v -4.876208 1.28078 40.99124
v -6.501584 1.28078 40.99124
v -6.501584 0.4994349 37.78877
v -4.876208 0.4994349 37.78877
v -3.250788 0.4994349 37.78877
v -3.250788 1.28078 40.99124
vt 0.7500008 0.9896845
vt 0.9993431 0.9896845
vt 0.9993431 0.01031971
vt 0.7500008 0.01031971
vt 0.500387 0.01031971
vt 0.500387 0.9896845
vt 0.7500008 0.9896845
vt 0.9993431 0.9896845
vt 0.9993431 0.01031971
vt 0.7500008 0.01031971
vt 0.500387 0.01031971
vt 0.500387 0.9896845
vt 0.7500008 0.9896845
vt 0.9993431 0.9896845
vt 0.9993431 0.01031971
vt 0.7500008 0.01031971
vt 0.500387 0.01031971
vt 0.500387 0.9896845
vt 0.7500008 0.9896845
vt 0.9993431 0.9896845
vt 0.9993431 0.01031971
vt 0.7500008 0.01031971
vt 0.500387 0.01031971
vt 0.500387 0.9896845
vn 0 0.9715021 -0.2370311
vn 0 0.9715021 -0.2370311
vn 0 0.9715021 -0.2370311
vn 0 0.9715021 -0.2370311
vn 0 0.9715021 -0.2370311
vn 0 0.9715021 -0.2370311
vn 0 0.9715021 -0.2370311
vn 0 0.9715021 -0.2370311
vn 0 0.9715021 -0.2370311
vn 0 0.9715021 -0.2370311
vn 0 0.9715021 -0.2370311
vn 0 0.9715021 -0.2370311
vn 0 0.9715021 -0.2370311
vn 0 0.9715021 -0.2370311
vn 0 0.9715021 -0.2370311
vn 0 0.9715021 -0.2370311
vn 0 0.9715021 -0.2370311
vn 0 0.9715021 -0.2370311
vn 0 0.9715021 -0.2370311
vn 0 0.9715021 -0.2370311
vn 0 0.9715021 -0.2370311
vn 0 0.9715021 -0.2370311
vn 0 0.9715021 -0.2370311
vn 0 0.9715021 -0.2370311
g Glide_0
f 3/3/3 2/2/2 1/1/1
f 4/4/4 3/3/3 1/1/1
f 5/5/5 4/4/4 1/1/1
f 6/6/6 5/5/5 1/1/1
f 9/9/9 8/8/8 7/7/7
f 10/10/10 9/9/9 7/7/7
f 11/11/11 10/10/10 7/7/7
f 12/12/12 11/11/11 7/7/7
f 15/15/15 14/14/14 13/13/13
f 16/16/16 15/15/15 13/13/13
f 17/17/17 16/16/16 13/13/13
f 18/18/18 17/17/17 13/13/13
f 21/21/21 20/20/20 19/19/19
f 22/22/22 21/21/21 19/19/19
f 23/23/23 22/22/22 19/19/19
f 24/24/24 23/23/23 19/19/19
