g ItemBox_Body_LOD1
v -1.181858 -1.181858 -1.181858
v -1.181858 1.181858 -1.181858
v 1.181858 1.181858 -1.181858
v 1.181858 -1.181858 -1.181858
v -1.181858 -1.181858 1.181858
v -1.181858 -1.181858 -1.181858
v 1.181858 -1.181858 -1.181858
v 1.181858 -1.181858 1.181858
v 1.181858 -1.181858 -1.181858
v 1.181858 1.181858 -1.181858
v 1.181858 1.181858 1.181858
v 1.181858 -1.181858 1.181858
v -1.181858 1.181858 -1.181858
v -1.181858 1.181858 1.181858
v 1.181858 1.181858 1.181858
v 1.181858 1.181858 -1.181858
v -1.181858 1.181858 -1.181858
v -1.181858 -1.181858 -1.181858
v -1.181858 -1.181858 1.181858
v -1.181858 1.181858 1.181858
v -1.181858 1.181858 1.181858
v -1.181858 -1.181858 1.181858
v 1.181858 -1.181858 1.181858
v 1.181858 1.181858 1.181858
vt 0.9580829 0.03515
vt 0.9547889 0.9379972
vt 0.05071203 0.9461661
vt 0.05282016 0.04169396
vt 0.05595306 0.9465321
vt 0.05413774 0.06475154
vt 0.9368553 0.06416595
vt 0.9345422 0.9410568
vt 0.9549646 0.04708138
vt 0.9551988 0.9659444
vt 0.03570631 0.9601471
vt 0.03894169 0.04630548
vt 0.02850356 0.9843904
vt 0.02548777 0.03894169
vt 0.9651099 0.02497538
vt 0.9702192 0.9715368
vt 0.06243847 0.9451999
vt 0.06113553 0.05378638
vt 0.9527394 0.05614338
vt 0.9532225 0.9497382
vt 0.04692034 0.9410129
vt 0.03690676 0.02673215
vt 0.9565896 0.02848892
vt 0.9604106 0.9480839
vn 0.5778122 0.5769463 0.577292
vn 0.5778122 -0.5778122 0.5764253
vn -0.5769463 -0.5778122 0.577292
vn -0.5769463 0.5769463 0.5781574
vn 0.5778122 0.5769463 -0.577292
vn 0.5778122 0.5769463 0.577292
vn -0.5769463 0.5769463 0.5781574
vn -0.5769463 0.5769463 -0.5781574
vn -0.5769463 0.5769463 0.5781574
vn -0.5769463 -0.5778122 0.577292
vn -0.7071069 -0.0004329681 -0.7071065
vn -0.5769463 0.5769463 -0.5781574
vn 0.5778122 -0.5778122 0.5764253
vn 0.5778122 -0.5778122 -0.5764253
vn 0.0004329681 -0.9999999 -0.0002441406
vn -0.5769463 -0.5778122 0.577292
vn 0.5778122 -0.5778122 0.5764253
vn 0.5778122 0.5769463 0.577292
vn 0.5778122 0.5769463 -0.577292
vn 0.5778122 -0.5778122 -0.5764253
vn 0.5778122 -0.5778122 -0.5764253
vn 0.5778122 0.5769463 -0.577292
vn -0.5769463 0.5769463 -0.5781574
vn -0.7071069 -0.0004329681 -0.7071065
g ItemBox_Body_LOD1_0
f 3/3/3 2/2/2 1/1/1
f 4/4/4 3/3/3 1/1/1
f 7/7/7 6/6/6 5/5/5
f 8/8/8 7/7/7 5/5/5
f 11/11/11 10/10/10 9/9/9
f 12/12/12 11/11/11 9/9/9
f 15/15/15 14/14/14 13/13/13
f 16/16/16 15/15/15 13/13/13
f 19/19/19 18/18/18 17/17/17
f 20/20/20 19/19/19 17/17/17
f 23/23/23 22/22/22 21/21/21
f 24/24/24 23/23/23 21/21/21
