g ItemBox_Body_LOD0
v 1.124944 -1.21336 -1.21336
v 1.135727 -1.135727 -1.261928
v 1.21336 -1.124944 -1.21336
v 1.18796 -1.18796 -1.18796
v -1.124944 -1.21336 -1.21336
v -1.135727 -1.135727 -1.261928
v -1.21336 -1.124944 -1.21336
v -1.18796 -1.18796 -1.18796
v 1.135727 1.135727 -1.261928
v 1.21336 1.124944 -1.21336
v 1.124944 1.21336 -1.21336
v 1.18796 1.18796 -1.18796
v -1.124944 1.21336 -1.21336
v -1.135727 1.135727 -1.261928
v -1.21336 1.124944 -1.21336
v -1.18796 1.18796 -1.18796
v 1.21336 -1.21336 -1.124944
v 1.135727 -1.261928 -1.135727
v 1.124944 -1.21336 -1.21336
v 1.18796 -1.18796 -1.18796
v -1.124944 -1.21336 -1.21336
v -1.135727 -1.261928 -1.135727
v -1.21336 -1.21336 -1.124944
v -1.18796 -1.18796 -1.18796
v 1.21336 -1.21336 1.124944
v 1.135727 -1.261928 1.135727
v 1.124944 -1.21336 1.21336
v 1.18796 -1.18796 1.18796
v -1.124944 -1.21336 1.21336
v -1.135727 -1.261928 1.135727
v -1.21336 -1.21336 1.124944
v -1.18796 -1.18796 1.18796
v 1.21336 -1.124944 -1.21336
v 1.261928 -1.135727 -1.135727
v 1.21336 -1.21336 -1.124944
v 1.18796 -1.18796 -1.18796
v 1.21336 1.124944 -1.21336
v 1.261928 1.135727 -1.135727
v 1.21336 1.21336 -1.124944
v 1.18796 1.18796 -1.18796
v 1.21336 1.21336 1.124944
v 1.261928 1.135727 1.135727
v 1.21336 1.124944 1.21336
v 1.18796 1.18796 1.18796
v 1.21336 -1.124944 1.21336
v 1.261928 -1.135727 1.135727
v 1.21336 -1.21336 1.124944
v 1.18796 -1.18796 1.18796
v -1.21336 -1.21336 -1.124944
v -1.261928 -1.135727 -1.135727
v -1.21336 -1.124944 -1.21336
v -1.18796 -1.18796 -1.18796
v -1.261928 1.135727 -1.135727
v -1.21336 1.124944 -1.21336
v -1.21336 1.21336 -1.124944
v -1.18796 1.18796 -1.18796
v -1.261928 1.135727 1.135727
v -1.21336 1.21336 1.124944
v -1.21336 1.124944 1.21336
v -1.18796 1.18796 1.18796
v -1.261928 -1.135727 1.135727
v -1.21336 -1.124944 1.21336
v -1.21336 -1.21336 1.124944
v -1.18796 -1.18796 1.18796
v 1.124944 1.21336 -1.21336
v 1.135727 1.261928 -1.135727
v 1.21336 1.21336 -1.124944
v 1.18796 1.18796 -1.18796
v -1.124944 1.21336 -1.21336
v -1.135727 1.261928 -1.135727
v -1.21336 1.21336 -1.124944
v -1.18796 1.18796 -1.18796
v 1.135727 1.261928 1.135727
v 1.21336 1.21336 1.124944
v 1.124944 1.21336 1.21336
v 1.18796 1.18796 1.18796
v -1.124944 1.21336 1.21336
v -1.135727 1.261928 1.135727
v -1.21336 1.21336 1.124944
v -1.18796 1.18796 1.18796
v 1.124944 1.21336 1.21336
v 1.135727 1.135727 1.261928
v 1.21336 1.124944 1.21336
v 1.18796 1.18796 1.18796
v -1.124944 1.21336 1.21336
v -1.135727 1.135727 1.261928
v -1.21336 1.124944 1.21336
v -1.18796 1.18796 1.18796
v 1.135727 -1.135727 1.261928
v 1.21336 -1.124944 1.21336
v 1.124944 -1.21336 1.21336
v 1.18796 -1.18796 1.18796
v -1.21336 -1.124944 1.21336
v -1.135727 -1.135727 1.261928
v -1.124944 -1.21336 1.21336
v -1.18796 -1.18796 1.18796
v -0.8627272 -0.8627273 -1.261928
v -0.8627272 0.8627272 -1.261928
v 0.8627273 0.8627272 -1.261928
v 0.8627273 -0.8627273 -1.261928
v -1.135727 -1.135727 -1.261928
v 1.135727 -1.135727 -1.261928
v 1.135727 1.135727 -1.261928
v -1.135727 1.135727 -1.261928
v -0.8627272 -1.261928 0.8627272
v -0.8627272 -1.261928 -0.8627273
v 0.8627273 -1.261928 -0.8627273
v 0.8627273 -1.261928 0.8627272
v -1.135727 -1.261928 1.135727
v 1.135727 -1.261928 1.135727
v 1.135727 -1.261928 -1.135727
v -1.135727 -1.261928 -1.135727
v 1.261928 -0.8627273 -0.8627273
v 1.261928 0.8627272 -0.8627273
v 1.261928 0.8627272 0.8627272
v 1.261928 -0.8627273 0.8627272
v 1.261928 -1.135727 -1.135727
v 1.261928 -1.135727 1.135727
v 1.261928 1.135727 1.135727
v 1.261928 1.135727 -1.135727
v -0.8627272 1.261928 -0.8627273
v -0.8627272 1.261928 0.8627272
v 0.8627273 1.261928 0.8627272
v 0.8627273 1.261928 -0.8627273
v -1.135727 1.261928 -1.135727
v 1.135727 1.261928 -1.135727
v 1.135727 1.261928 1.135727
v -1.135727 1.261928 1.135727
v -1.261928 0.8627272 -0.8627273
v -1.261928 -0.8627273 -0.8627273
v -1.261928 -0.8627273 0.8627272
v -1.261928 0.8627272 0.8627272
v -1.261928 1.135727 -1.135727
v -1.261928 1.135727 1.135727
v -1.261928 -1.135727 1.135727
v -1.261928 -1.135727 -1.135727
v -0.8627272 0.8627272 1.261928
v -0.8627272 -0.8627273 1.261928
v 0.8627273 -0.8627273 1.261928
v 0.8627273 0.8627272 1.261928
v -1.135727 1.135727 1.261928
v 1.135727 1.135727 1.261928
v 1.135727 -1.135727 1.261928
v -1.135727 -1.135727 1.261928
vt 0.0390628 0
vt 0.0390628 0.0390628
vt 0 0.0390628
vt 0 0
vt 0.9609373 0
vt 0.9609373 0.0390628
vt 1 0.0390628
vt 1 0
vt 0.0390628 0.9609373
vt 0 0.9609373
vt 0.0390628 1
vt 0 1
vt 0.9609373 1
vt 0.9609373 0.9609373
vt 1 0.9609373
vt 1 1
vt 1 0.0390628
vt 0.9609373 0.0390628
vt 0.9609373 0
vt 1 0
vt 0.0390628 0
vt 0.0390628 0.0390628
vt 0 0.0390628
vt 0 0
vt 1 0.9609373
vt 0.9609373 0.9609373
vt 0.9609373 1
vt 1 1
vt 0.0390628 1
vt 0.0390628 0.9609373
vt 0 0.9609373
vt 0 1
vt 1 0.0390628
vt 0.9609373 0.0390628
vt 0.9609373 0
vt 1 0
vt 1 0.9609373
vt 0.9609373 0.9609373
vt 0.9609373 1
vt 1 1
vt 0.0390628 1
vt 0.0390628 0.9609373
vt 0 0.9609373
vt 0 1
vt 0 0.0390628
vt 0.0390628 0.0390628
vt 0.0390628 0
vt 0 0
vt 0.0390628 0
vt 0.0390628 0.0390628
vt 0 0.0390628
vt 0 0
vt 0.0390628 0.9609373
vt 0 0.9609373
vt 0.0390628 1
vt 0 1
vt 0.9609373 0.9609373
vt 0.9609373 1
vt 1 0.9609373
vt 1 1
vt 0.9609373 0.0390628
vt 1 0.0390628
vt 0.9609373 0
vt 1 0
vt 0.9609373 1
vt 0.9609373 0.9609373
vt 1 0.9609373
vt 1 1
vt 0.0390628 1
vt 0.0390628 0.9609373
vt 0 0.9609373
vt 0 1
vt 0.9609373 0.0390628
vt 1 0.0390628
vt 0.9609373 0
vt 1 0
vt 0.0390628 0
vt 0.0390628 0.0390628
vt 0 0.0390628
vt 0 0
vt 0.9609373 1
vt 0.9609373 0.9609373
vt 1 0.9609373
vt 1 1
vt 0.0390628 1
vt 0.0390628 0.9609373
vt 0 0.9609373
vt 0 1
vt 0.9609373 0.0390628
vt 1 0.0390628
vt 0.9609373 0
vt 1 0
vt 0 0.0390628
vt 0.0390628 0.0390628
vt 0.0390628 0
vt 0 0
vt 0.8000703 0.1999298
vt 0.8000703 0.8000703
vt 0.1999298 0.8000703
vt 0.1999298 0.1999298
vt 0.9609373 0.0390628
vt 0.0390628 0.0390628
vt 0.0390628 0.9609373
vt 0.9609373 0.9609373
vt 0.1999298 0.8000703
vt 0.1999298 0.1999298
vt 0.8000703 0.1999298
vt 0.8000703 0.8000703
vt 0.0390628 0.9609373
vt 0.9609373 0.9609373
vt 0.9609373 0.0390628
vt 0.0390628 0.0390628
vt 0.8000703 0.1999298
vt 0.8000703 0.8000703
vt 0.1999298 0.8000703
vt 0.1999298 0.1999298
vt 0.9609373 0.0390628
vt 0.0390628 0.0390628
vt 0.0390628 0.9609373
vt 0.9609373 0.9609373
vt 0.1999298 0.8000703
vt 0.1999298 0.1999298
vt 0.8000703 0.1999298
vt 0.8000703 0.8000703
vt 0.0390628 0.9609373
vt 0.9609373 0.9609373
vt 0.9609373 0.0390628
vt 0.0390628 0.0390628
vt 0.1999298 0.8000703
vt 0.1999298 0.1999298
vt 0.8000703 0.1999298
vt 0.8000703 0.8000703
vt 0.0390628 0.9609373
vt 0.9609373 0.9609373
vt 0.9609373 0.0390628
vt 0.0390628 0.0390628
vt 0.1999298 0.8000703
vt 0.1999298 0.1999298
vt 0.8000703 0.1999298
vt 0.8000703 0.8000703
vt 0.0390628 0.9609373
vt 0.9609373 0.9609373
vt 0.9609373 0.0390628
vt 0.0390628 0.0390628
vn -0.01270771 0.7067446 0.7073547
vn -0.2903224 0.2903224 0.9118255
vn -0.7067446 0.01270771 0.7073547
vn -0.5777123 0.5777123 0.5766255
vn 0.01270771 0.7067446 0.7073547
vn 0.2903224 0.2903224 0.9118255
vn 0.7067446 0.01270771 0.7073547
vn 0.5777123 0.5777123 0.5766255
vn -0.2903224 -0.2903224 0.9118255
vn -0.7067446 -0.01270771 0.7073547
vn -0.01270771 -0.7067446 0.7073547
vn -0.5777123 -0.5777123 0.5766255
vn 0.01270771 -0.7067446 0.7073547
vn 0.2903224 -0.2903224 0.9118255
vn 0.7067446 -0.01270771 0.7073547
vn 0.5777123 -0.5777123 0.5766255
vn -0.7067446 0.7067446 0.03200431
vn -0.2903224 0.9120231 0.2897012
vn -0.01270771 0.7067446 0.7073547
vn -0.5777123 0.5777123 0.5766255
vn 0.01270771 0.7067446 0.7073547
vn 0.2903224 0.9120231 0.2897012
vn 0.7067446 0.7067446 0.03200431
vn 0.5777123 0.5777123 0.5766255
vn -0.7067446 0.7067446 -0.03200431
vn -0.2903224 0.9120231 -0.2897012
vn -0.01270771 0.7067446 -0.7073547
vn -0.5777123 0.5777123 -0.5766255
vn 0.01270771 0.7067446 -0.7073547
vn 0.2903224 0.9120231 -0.2897012
vn 0.7067446 0.7067446 -0.03200431
vn 0.5777123 0.5777123 -0.5766255
vn -0.7067446 0.01270771 0.7073547
vn -0.9120231 0.2903224 0.2897012
vn -0.7067446 0.7067446 0.03200431
vn -0.5777123 0.5777123 0.5766255
vn -0.7067446 -0.01270771 0.7073547
vn -0.9120231 -0.2903224 0.2897012
vn -0.7067446 -0.7067446 0.03200431
vn -0.5777123 -0.5777123 0.5766255
vn -0.7067446 -0.7067446 -0.03200431
vn -0.9120231 -0.2903224 -0.2897012
vn -0.7067446 -0.01270771 -0.7073547
vn -0.5777123 -0.5777123 -0.5766255
vn -0.7067446 0.01270771 -0.7073547
vn -0.9120231 0.2903224 -0.2897012
vn -0.7067446 0.7067446 -0.03200431
vn -0.5777123 0.5777123 -0.5766255
vn 0.7067446 0.7067446 0.03200431
vn 0.912023 0.2903224 0.2897014
vn 0.7067446 0.01270771 0.7073547
vn 0.5777123 0.5777123 0.5766255
vn 0.912023 -0.2903224 0.2897014
vn 0.7067446 -0.01270771 0.7073547
vn 0.7067446 -0.7067446 0.03200431
vn 0.5777123 -0.5777123 0.5766255
vn 0.912023 -0.2903224 -0.2897014
vn 0.7067446 -0.7067446 -0.03200431
vn 0.7067446 -0.01270771 -0.7073547
vn 0.5777123 -0.5777123 -0.5766255
vn 0.912023 0.2903224 -0.2897014
vn 0.7067446 0.01270771 -0.7073547
vn 0.7067446 0.7067446 -0.03200431
vn 0.5777123 0.5777123 -0.5766255
vn -0.01270771 -0.7067446 0.7073547
vn -0.2903224 -0.912023 0.2897014
vn -0.7067446 -0.7067446 0.03200431
vn -0.5777123 -0.5777123 0.5766255
vn 0.01270771 -0.7067446 0.7073547
vn 0.2903224 -0.912023 0.2897014
vn 0.7067446 -0.7067446 0.03200431
vn 0.5777123 -0.5777123 0.5766255
vn -0.2903224 -0.912023 -0.2897014
vn -0.7067446 -0.7067446 -0.03200431
vn -0.01270771 -0.7067446 -0.7073547
vn -0.5777123 -0.5777123 -0.5766255
vn 0.01270771 -0.7067446 -0.7073547
vn 0.2903224 -0.912023 -0.2897014
vn 0.7067446 -0.7067446 -0.03200431
vn 0.5777123 -0.5777123 -0.5766255
vn -0.01270771 -0.7067446 -0.7073547
vn -0.2903224 -0.2903224 -0.9118255
vn -0.7067446 -0.01270771 -0.7073547
vn -0.5777123 -0.5777123 -0.5766255
vn 0.01270771 -0.7067446 -0.7073547
vn 0.2903224 -0.2903224 -0.9118255
vn 0.7067446 -0.01270771 -0.7073547
vn 0.5777123 -0.5777123 -0.5766255
vn -0.2903224 0.2903224 -0.9118255
vn -0.7067446 0.01270771 -0.7073547
vn -0.01270771 0.7067446 -0.7073547
vn -0.5777123 0.5777123 -0.5766255
vn 0.7067446 0.01270771 -0.7073547
vn 0.2903224 0.2903224 -0.9118255
vn 0.01270771 0.7067446 -0.7073547
vn 0.5777123 0.5777123 -0.5766255
vn -0.0009775162 0.0009775162 0.999999
vn -0.0009775162 0.0009775162 0.999999
vn -0.0009775162 0.0009775162 0.999999
vn -0.0009775162 0.0009775162 0.999999
vn -0.0009775162 0.0009775162 0.999999
vn -0.0009775162 0.0009775162 0.999999
vn -0.0009775162 0.0009775162 0.999999
vn -0.0009775162 0.0009775162 0.999999
vn -0.0009775162 0.9999995 0
vn -0.0009775162 0.9999995 0
vn -0.0009775162 0.9999995 0
vn -0.0009775162 0.9999995 0
vn -0.0009775162 0.9999995 0
vn -0.0009775162 0.9999995 0
vn -0.0009775162 0.9999995 0
vn -0.0009775162 0.9999995 0
vn -0.9999995 0.0009775162 0
vn -0.9999995 0.0009775162 0
vn -0.9999995 0.0009775162 0
vn -0.9999995 0.0009775162 0
vn -0.9999995 0.0009775162 0
vn -0.9999995 0.0009775162 0
vn -0.9999995 0.0009775162 0
vn -0.9999995 0.0009775162 0
vn -0.0009775162 -0.9999995 0
vn -0.0009775162 -0.9999995 0
vn -0.0009775162 -0.9999995 0
vn -0.0009775162 -0.9999995 0
vn -0.0009775162 -0.9999995 0
vn -0.0009775162 -0.9999995 0
vn -0.0009775162 -0.9999995 0
vn -0.0009775162 -0.9999995 0
vn 0.9999995 0.0009775162 0
vn 0.9999995 0.0009775162 0
vn 0.9999995 0.0009775162 0
vn 0.9999995 0.0009775162 0
vn 0.9999995 0.0009775162 0
vn 0.9999995 0.0009775162 0
vn 0.9999995 0.0009775162 0
vn 0.9999995 0.0009775162 0
vn -0.0009775162 0.0009775162 -0.999999
vn -0.0009775162 0.0009775162 -0.999999
vn -0.0009775162 0.0009775162 -0.999999
vn -0.0009775162 0.0009775162 -0.999999
vn -0.0009775162 0.0009775162 -0.999999
vn -0.0009775162 0.0009775162 -0.999999
vn -0.0009775162 0.0009775162 -0.999999
vn -0.0009775162 0.0009775162 -0.999999
g ItemBox_Body_LOD0_0
f 3/3/3 2/2/2 1/1/1
f 4/4/4 3/3/3 1/1/1
f 1/1/1 2/2/2 5/5/5
f 2/2/2 6/6/6 5/5/5
f 5/5/5 6/6/6 7/7/7
f 8/8/8 5/5/5 7/7/7
f 2/2/2 3/3/3 9/9/9
f 3/3/3 10/10/10 9/9/9
f 11/11/11 9/9/9 10/10/10
f 12/12/12 11/11/11 10/10/10
f 11/11/11 13/13/13 9/9/9
f 13/13/13 14/14/14 9/9/9
f 15/15/15 14/14/14 13/13/13
f 6/6/6 14/14/14 15/15/15
f 7/7/7 6/6/6 15/15/15
f 16/16/16 15/15/15 13/13/13
f 19/19/19 18/18/18 17/17/17
f 20/20/20 19/19/19 17/17/17
f 19/19/19 21/21/21 18/18/18
f 21/21/21 22/22/22 18/18/18
f 23/23/23 22/22/22 21/21/21
f 24/24/24 23/23/23 21/21/21
f 25/25/25 17/17/17 18/18/18
f 26/26/26 25/25/25 18/18/18
f 25/25/25 26/26/26 27/27/27
f 28/28/28 25/25/25 27/27/27
f 27/27/27 26/26/26 29/29/29
f 26/26/26 30/30/30 29/29/29
f 30/30/30 22/22/22 23/23/23
f 29/29/29 30/30/30 31/31/31
f 31/31/31 30/30/30 23/23/23
f 32/32/32 29/29/29 31/31/31
f 35/35/35 34/34/34 33/33/33
f 36/36/36 35/35/35 33/33/33
f 33/33/33 34/34/34 37/37/37
f 34/34/34 38/38/38 37/37/37
f 37/37/37 38/38/38 39/39/39
f 40/40/40 37/37/37 39/39/39
f 41/41/41 39/39/39 38/38/38
f 42/42/42 41/41/41 38/38/38
f 41/41/41 42/42/42 43/43/43
f 44/44/44 41/41/41 43/43/43
f 45/45/45 43/43/43 42/42/42
f 46/46/46 45/45/45 42/42/42
f 46/46/46 34/34/34 35/35/35
f 45/45/45 46/46/46 47/47/47
f 47/47/47 46/46/46 35/35/35
f 48/48/48 45/45/45 47/47/47
f 51/51/51 50/50/50 49/49/49
f 52/52/52 51/51/51 49/49/49
f 50/50/50 51/51/51 53/53/53
f 51/51/51 54/54/54 53/53/53
f 55/55/55 53/53/53 54/54/54
f 56/56/56 55/55/55 54/54/54
f 57/57/57 53/53/53 55/55/55
f 58/58/58 57/57/57 55/55/55
f 59/59/59 57/57/57 58/58/58
f 60/60/60 59/59/59 58/58/58
f 61/61/61 57/57/57 59/59/59
f 62/62/62 61/61/61 59/59/59
f 63/63/63 61/61/61 62/62/62
f 63/63/63 49/49/49 50/50/50
f 61/61/61 63/63/63 50/50/50
f 64/64/64 63/63/63 62/62/62
f 67/67/67 66/66/66 65/65/65
f 68/68/68 67/67/67 65/65/65
f 65/65/65 66/66/66 69/69/69
f 66/66/66 70/70/70 69/69/69
f 69/69/69 70/70/70 71/71/71
f 72/72/72 69/69/69 71/71/71
f 73/73/73 66/66/66 67/67/67
f 74/74/74 73/73/73 67/67/67
f 75/75/75 73/73/73 74/74/74
f 76/76/76 75/75/75 74/74/74
f 75/75/75 77/77/77 73/73/73
f 77/77/77 78/78/78 73/73/73
f 79/79/79 78/78/78 77/77/77
f 79/79/79 71/71/71 70/70/70
f 78/78/78 79/79/79 70/70/70
f 80/80/80 79/79/79 77/77/77
f 83/83/83 82/82/82 81/81/81
f 84/84/84 83/83/83 81/81/81
f 81/81/81 82/82/82 85/85/85
f 82/82/82 86/86/86 85/85/85
f 85/85/85 86/86/86 87/87/87
f 88/88/88 85/85/85 87/87/87
f 89/89/89 82/82/82 83/83/83
f 90/90/90 89/89/89 83/83/83
f 91/91/91 89/89/89 90/90/90
f 92/92/92 91/91/91 90/90/90
f 93/93/93 87/87/87 86/86/86
f 94/94/94 93/93/93 86/86/86
f 89/89/89 91/91/91 94/94/94
f 93/93/93 94/94/94 95/95/95
f 91/91/91 95/95/95 94/94/94
f 96/96/96 93/93/93 95/95/95
f 99/99/99 98/98/98 97/97/97
f 100/100/100 99/99/99 97/97/97
f 100/100/100 97/97/97 101/101/101
f 102/102/102 100/100/100 101/101/101
f 99/99/99 100/100/100 102/102/102
f 103/103/103 99/99/99 102/102/102
f 98/98/98 99/99/99 103/103/103
f 104/104/104 98/98/98 103/103/103
f 97/97/97 98/98/98 104/104/104
f 101/101/101 97/97/97 104/104/104
f 107/107/107 106/106/106 105/105/105
f 108/108/108 107/107/107 105/105/105
f 108/108/108 105/105/105 109/109/109
f 110/110/110 108/108/108 109/109/109
f 107/107/107 108/108/108 110/110/110
f 111/111/111 107/107/107 110/110/110
f 106/106/106 107/107/107 111/111/111
f 112/112/112 106/106/106 111/111/111
f 105/105/105 106/106/106 112/112/112
f 109/109/109 105/105/105 112/112/112
f 115/115/115 114/114/114 113/113/113
f 116/116/116 115/115/115 113/113/113
f 116/116/116 113/113/113 117/117/117
f 118/118/118 116/116/116 117/117/117
f 115/115/115 116/116/116 118/118/118
f 119/119/119 115/115/115 118/118/118
f 114/114/114 115/115/115 119/119/119
f 120/120/120 114/114/114 119/119/119
f 113/113/113 114/114/114 120/120/120
f 117/117/117 113/113/113 120/120/120
f 123/123/123 122/122/122 121/121/121
f 124/124/124 123/123/123 121/121/121
f 124/124/124 121/121/121 125/125/125
f 126/126/126 124/124/124 125/125/125
f 123/123/123 124/124/124 126/126/126
f 127/127/127 123/123/123 126/126/126
f 122/122/122 123/123/123 127/127/127
f 128/128/128 122/122/122 127/127/127
f 121/121/121 122/122/122 128/128/128
f 125/125/125 121/121/121 128/128/128
f 131/131/131 130/130/130 129/129/129
f 132/132/132 131/131/131 129/129/129
f 132/132/132 129/129/129 133/133/133
f 134/134/134 132/132/132 133/133/133
f 131/131/131 132/132/132 134/134/134
f 135/135/135 131/131/131 134/134/134
f 130/130/130 131/131/131 135/135/135
f 136/136/136 130/130/130 135/135/135
f 129/129/129 130/130/130 136/136/136
f 133/133/133 129/129/129 136/136/136
f 139/139/139 138/138/138 137/137/137
f 140/140/140 139/139/139 137/137/137
f 140/140/140 137/137/137 141/141/141
f 142/142/142 140/140/140 141/141/141
f 139/139/139 140/140/140 142/142/142
f 143/143/143 139/139/139 142/142/142
f 138/138/138 139/139/139 143/143/143
f 144/144/144 138/138/138 143/143/143
f 137/137/137 138/138/138 144/144/144
f 141/141/141 137/137/137 144/144/144
