g ItemBomheiBig_Parts:Small
v -0.09996995 -0.268817 -0.2050871
v 0.2114334 -0.2783378 0.1272731
v 0.2892853 0.06786445 0.006671637
v 0.01644155 0.003412157 -0.2413199
v 0.01644155 0.003412157 -0.2413199
v 0.1915649 0.1907938 -0.201065
v -0.09371141 -0.1851691 0.0978322
v -0.1093746 0.09182155 -0.1539647
v 0.1829006 0.1530302 0.1196679
v 0.07494587 0.2819664 -0.1039019
v -0.239505 -0.20039 -0.1198321
v 0.1079039 -0.2227786 0.2594742
v -0.09371141 -0.1851691 0.0978322
v 0.1079039 -0.2227786 0.2594742
v 0.2114334 -0.2783378 0.1272731
v -0.09996995 -0.268817 -0.2050871
v -0.239505 -0.20039 -0.1198321
v -0.09371141 -0.1851691 0.0978322
v 0.1079039 -0.2227786 0.2594742
v 0.1829006 0.1530302 0.1196679
v 0.2892853 0.06786445 0.006671637
v 0.2114334 -0.2783378 0.1272731
v 0.1829006 0.1530302 0.1196679
v 0.07494587 0.2819664 -0.1039019
v 0.1915649 0.1907938 -0.201065
v 0.2892853 0.06786445 0.006671637
v 0.07494587 0.2819664 -0.1039019
v -0.1093746 0.09182155 -0.1539647
v 0.01644155 0.003412157 -0.2413199
v 0.1915649 0.1907938 -0.201065
v -0.1093746 0.09182155 -0.1539647
v -0.239505 -0.20039 -0.1198321
v -0.09996995 -0.268817 -0.2050871
v 0.01644155 0.003412157 -0.2413199
vt 0.1938711 0.3026774
vt 0.2190139 0.2999086
vt 0.2190037 0.3219671
vt 0.1983296 0.319636
vt 0.1993883 0.3195037
vt 0.2076335 0.3317697
vt 0.6153542 0.7731533
vt 0.593713 0.8193672
vt 0.6459327 0.8256885
vt 0.6154457 0.8519511
vt 0.5860276 0.7730617
vt 0.6459531 0.7664553
vt 0.383684 0.856379
vt 0.385669 0.8560024
vt 0.3866869 0.8554629
vt 0.3836229 0.8555545
vt 0.3822488 0.8562263
vt 0.383684 0.856379
vt 0.385669 0.8560024
vt 0.3864019 0.8596975
vt 0.3874504 0.8588628
vt 0.3866869 0.8554629
vt 0.3864019 0.8596975
vt 0.3853433 0.8609699
vt 0.3864935 0.8600741
vt 0.3874504 0.8588628
vt 0.3853433 0.8609699
vt 0.3835313 0.8590969
vt 0.384763 0.8582317
vt 0.3864935 0.8600741
vt 0.3835313 0.8590969
vt 0.3822488 0.8562263
vt 0.3836229 0.8555545
vt 0.384763 0.8582317
vn 0.3855417 -0.278339 -0.8797073
vn 0.6719739 -0.3738164 -0.6393062
vn 0.6686238 -0.3855417 -0.6358458
vn 0.4659437 -0.3168649 -0.8261315
vn 0.4659437 -0.3168649 -0.8261315
vn 0.6501983 -0.481019 -0.588101
vn -0.6446093 0.4385791 0.6262006
vn -0.6781101 0.4704049 0.5646998
vn -0.6211587 0.4637047 0.6317751
vn -0.6513095 0.4771051 0.5900565
vn -0.7735876 0.4017282 0.4900783
vn -0.5323815 0.3866528 0.7530401
vn -0.3045758 -0.9198801 0.2470915
vn -0.3029007 -0.9399806 0.1571229
vn -0.3045758 -0.9265803 0.2206411
vn -0.2928505 -0.9198801 0.2608816
vn -0.2928505 -0.9198801 0.2608816
vn -0.2928505 -0.9198801 0.2608816
vn 0.7758265 0.06169462 0.6279228
vn 0.7758265 0.06169462 0.6279228
vn 0.7758265 0.06169462 0.6279228
vn 0.7758265 0.06169462 0.6279228
vn 0.675324 0.7300365 0.104806
vn 0.675324 0.7300365 0.104806
vn 0.675324 0.7300365 0.104806
vn 0.675324 0.7300365 0.104806
vn -0.2861503 0.47208 -0.8338216
vn -0.2861503 0.47208 -0.8338216
vn -0.2861503 0.47208 -0.8338216
vn -0.2861503 0.47208 -0.8338216
vn -0.4955306 0.1085958 -0.8617751
vn -0.4955306 0.1085958 -0.8617751
vn 0.3855417 -0.278339 -0.8797073
vn 0.4659437 -0.3168649 -0.8261315
g ItemBomheiBig_Parts:Small_0
f 3/3/3 2/2/2 1/1/1
f 4/4/4 3/3/3 1/1/1
f 6/6/6 3/3/3 5/5/5
f 9/9/9 8/8/8 7/7/7
f 9/9/9 10/10/10 8/8/8
f 11/11/11 7/7/7 8/8/8
f 12/12/12 9/9/9 7/7/7
f 15/15/15 14/14/14 13/13/13
f 16/16/16 15/15/15 13/13/13
f 16/16/16 18/18/18 17/17/17
f 21/21/21 20/20/20 19/19/19
f 22/22/22 21/21/21 19/19/19
f 25/25/25 24/24/24 23/23/23
f 26/26/26 25/25/25 23/23/23
f 29/29/29 28/28/28 27/27/27
f 30/30/30 29/29/29 27/27/27
f 33/33/33 32/32/32 31/31/31
f 34/34/34 33/33/33 31/31/31
