g JumpBar15M
v -7.500012 0.08338404 1.33062
v -6.164041 0.4068661 -9.536743E-07
v -6.052933 0.420599 0.0709815
v -7.450216 0.08338404 1.450383
v -5.941109 0.4223728 0.1186318
v -7.330024 0.08338404 1.499993
v -7.499998 0.08338404 -1.330622
v -7.450202 0.08338404 -1.450399
v -6.052919 0.420599 -0.07098293
v -7.33001 0.08338404 -1.500009
v -5.941109 0.4223728 -0.1186333
v 7.329997 0.08338404 1.499993
v 5.941097 0.4223728 0.1186318
v -5.892443 0.4371786 -9.536743E-07
v 5.892431 0.4371786 -9.536743E-07
v 5.941097 0.4223728 -0.1186333
v 6.052906 0.420599 0.0709815
v 7.450203 0.08338404 1.450383
v 6.164028 0.4068661 -9.536743E-07
v 7.5 0.08338404 1.33062
v 7.329997 0.08338404 -1.500009
v 7.450203 0.08338404 -1.450399
v 6.052906 0.420599 -0.07098293
v 7.5 0.08338404 -1.330622
v -5.990534 0.4331589 -9.536743E-07
v 5.990521 0.4331589 -9.536743E-07
v 7.5 -0.0006446838 1.33062
v 7.5 -0.0006446838 -1.330622
v 7.450203 -0.0006446838 1.450383
v 7.329997 -0.0006446838 1.499993
v -7.330024 -0.0006446838 1.499993
v -7.450216 -0.0006446838 1.450383
v -7.500012 -0.0006446838 1.33062
v -7.499998 -0.0006446838 -1.330622
v -7.450202 -0.0006446838 -1.450399
v -7.33001 -0.0006446838 -1.500009
v 7.329997 -0.0006446838 -1.500009
v 7.450203 -0.0006446838 -1.450399
vt 0.2296097 0.4998961
vt 0.2735319 0.4557983
vt 0.2711864 0.4521311
vt 0.2256599 0.4982535
vt 0.2696202 0.448441
vt 0.2240173 0.4942884
vt 0.3174539 0.4998961
vt 0.3214038 0.4982535
vt 0.2758773 0.4521311
vt 0.3230464 0.4942884
vt 0.2774512 0.448441
vt 0.2240173 0.01038115
vt 0.2696202 0.05622853
vt 0.2735319 0.4468366
vt 0.2735319 0.05783293
vt 0.2774512 0.05622853
vt 0.2711864 0.05253844
vt 0.2256599 0.006416014
vt 0.2735319 0.04887126
vt 0.2296097 0.004773423
vt 0.3230464 0.01038115
vt 0.3214038 0.006416014
vt 0.2758773 0.05253844
vt 0.3174539 0.004773423
vt 0.2735319 0.450076
vt 0.2735319 0.05459358
vt 0.2295028 0.001992479
vt 0.3175609 0.001992479
vt 0.2236658 0.004460185
vt 0.221244 0.01036587
vt 0.221244 0.4943036
vt 0.2236658 0.5002093
vt 0.2295028 0.502677
vt 0.3175609 0.502677
vt 0.3233978 0.5002093
vt 0.3258197 0.4943036
vt 0.3258197 0.01036587
vt 0.3233978 0.004460185
vn -0.3861681 0.9218044 0.03392325
vn -0.2200035 0.9745861 -0.04219397
vn -0.1144402 0.9863154 0.118682
vn -0.1613572 0.9745861 0.1553889
vn -0.001057267 0.9726312 0.2323519
vn -0.00301218 0.9374434 0.3481247
vn -0.3861681 0.9218044 -0.03392325
vn -0.1613572 0.9745861 -0.1553889
vn -0.1144402 0.9863154 -0.118682
vn -0.00301218 0.9374434 -0.3481247
vn -0.001057267 0.9726312 -0.2323519
vn 0.00285244 0.9374434 0.3481261
vn 0.0008975863 0.9726312 0.2323525
vn -0.001057267 0.9999995 0
vn 0.0008975863 0.9999995 -0.000345267
vn 0.0008975863 0.9726312 -0.2323525
vn 0.1142805 0.9863154 0.1188358
vn 0.1611975 0.9745861 0.1555546
vn 0.2196283 0.9755837 0
vn 0.3860084 0.9218044 0.03569466
vn 0.00285244 0.9374434 -0.3481261
vn 0.1611975 0.9745861 -0.1555546
vn 0.1142805 0.9863154 -0.1188358
vn 0.3860084 0.9218044 -0.03569466
vn -0.08120728 0.9960897 -0.03479496
vn 0.08104753 0.9960897 -0.03516473
vn 0.9998398 -0.0008975863 0.01787817
vn 0.9998398 -0.0008975863 -0.01787817
vn 0.7066082 -0.0008975863 0.7076045
vn 0.00285244 -0.0008975863 0.9999955
vn -0.00301218 -0.0008975863 0.9999951
vn -0.7067679 -0.0008975863 0.7074449
vn -0.9999995 -0.0008975863 -0.0003847246
vn -0.9999995 -0.0008975863 -0.0003847246
vn -0.7067679 -0.0008975863 -0.7074449
vn -0.00301218 -0.0008975863 -0.9999951
vn 0.00285244 -0.0008975863 -0.9999955
vn 0.7066082 -0.0008975863 -0.7076045
g JumpBar15M_0
f 3/3/3 2/2/2 1/1/1
f 4/4/4 3/3/3 1/1/1
f 5/5/5 3/3/3 4/4/4
f 6/6/6 5/5/5 4/4/4
f 7/7/7 1/1/1 2/2/2
f 8/8/8 7/7/7 2/2/2
f 9/9/9 8/8/8 2/2/2
f 2/2/2 3/3/3 9/9/9
f 10/10/10 8/8/8 9/9/9
f 11/11/11 10/10/10 9/9/9
f 6/6/6 12/12/12 5/5/5
f 12/12/12 13/13/13 5/5/5
f 5/5/5 13/13/13 14/14/14
f 5/5/5 14/14/14 3/3/3
f 11/11/11 9/9/9 14/14/14
f 14/14/14 15/15/15 11/11/11
f 13/13/13 15/15/15 14/14/14
f 15/15/15 16/16/16 11/11/11
f 10/10/10 11/11/11 16/16/16
f 13/13/13 12/12/12 17/17/17
f 13/13/13 17/17/17 15/15/15
f 12/12/12 18/18/18 17/17/17
f 17/17/17 18/18/18 19/19/19
f 18/18/18 20/20/20 19/19/19
f 21/21/21 10/10/10 16/16/16
f 22/22/22 21/21/21 16/16/16
f 23/23/23 22/22/22 16/16/16
f 19/19/19 23/23/23 17/17/17
f 16/16/16 15/15/15 23/23/23
f 24/24/24 22/22/22 23/23/23
f 19/19/19 24/24/24 23/23/23
f 20/20/20 24/24/24 19/19/19
f 9/9/9 25/25/25 14/14/14
f 14/14/14 25/25/25 3/3/3
f 3/3/3 25/25/25 9/9/9
f 17/17/17 26/26/26 15/15/15
f 23/23/23 26/26/26 17/17/17
f 15/15/15 26/26/26 23/23/23
f 20/20/20 27/27/27 24/24/24
f 27/27/27 28/28/28 24/24/24
f 24/24/24 28/28/28 22/22/22
f 29/29/29 27/27/27 20/20/20
f 18/18/18 29/29/29 20/20/20
f 30/30/30 29/29/29 18/18/18
f 12/12/12 30/30/30 18/18/18
f 31/31/31 30/30/30 12/12/12
f 6/6/6 31/31/31 12/12/12
f 32/32/32 31/31/31 6/6/6
f 4/4/4 32/32/32 6/6/6
f 33/33/33 32/32/32 4/4/4
f 1/1/1 33/33/33 4/4/4
f 34/34/34 33/33/33 1/1/1
f 7/7/7 34/34/34 1/1/1
f 35/35/35 34/34/34 7/7/7
f 8/8/8 35/35/35 7/7/7
f 36/36/36 35/35/35 8/8/8
f 10/10/10 36/36/36 8/8/8
f 37/37/37 36/36/36 10/10/10
f 21/21/21 37/37/37 10/10/10
f 38/38/38 37/37/37 21/21/21
f 22/22/22 38/38/38 21/21/21
f 28/28/28 38/38/38 22/22/22
