g JumpSfcgv
v -6 0.7397633 -1.486
v -5.245209E-06 0.7397633 -1.486
v -5.245209E-06 0.7715554 -1.414371
v -6 0.7715554 -1.414371
v -5.245209E-06 0.7547555 -1.303741
v -6 0.7547555 -1.303741
v -5.245209E-06 -0.0006356239 -6.198883E-06
v -6 -0.0006356239 -6.198883E-06
v 6 0.7397633 -1.486
v 6 0.7715554 -1.414371
v 6 0.7547555 -1.303741
v 6 -0.0006356239 -6.198883E-06
v -6 0.7547555 -1.303741
v -6 -0.0006356239 -6.198883E-06
v -6 -0.0006356239 -1.285763
v -6 -0.0006356239 -1.407379
v -6 0.7715554 -1.414371
v -6 0.7397633 -1.486
v -6 -0.0006356239 -1.486
v -6 -0.0006356239 -1.486
v -5.245209E-06 -0.0006356239 -1.486
v -5.245209E-06 0.7397633 -1.486
v -6 0.7397633 -1.486
v 6 -0.0006356239 -1.486
v 6 0.7397633 -1.486
v 6 0.7547555 -1.303741
v 6 -0.0006356239 -1.285763
v 6 -0.0006356239 -6.198883E-06
v 6 -0.0006356239 -1.407379
v 6 0.7715554 -1.414371
v 6 0.7397633 -1.486
v 6 -0.0006356239 -1.486
vt 0.07097328 1.602816
vt 0.07097328 0.501628
vt 0.05782247 0.501628
vt 0.05782247 1.602816
vt 0.03751981 0.501628
vt 0.03751981 1.602816
vt -0.2017618 0.501628
vt -0.2017618 1.602816
vt 0.07097328 -0.5995688
vt 0.05782247 -0.5995688
vt 0.03751981 -0.5995688
vt -0.2017618 -0.5995688
vt 0.2414885 -0.5652571
vt 0.380132 -0.3259755
vt 0.380132 -0.5619504
vt 0.380132 -0.5842724
vt 0.238409 -0.5855597
vt 0.2442398 -0.5987021
vt 0.380132 -0.5987021
vt 0.2220861 1.602648
vt 0.2220861 0.5014598
vt 0.08620238 0.5014598
vt 0.08620238 1.602648
vt 0.2220861 -0.599737
vt 0.08620238 -0.599737
vt 0.5333651 -0.5693631
vt 0.39473 -0.5660648
vt 0.39473 -0.3300899
vt 0.39473 -0.5883868
vt 0.5364529 -0.5896741
vt 0.5306137 -0.6028165
vt 0.39473 -0.6028165
vn -0.0009775162 0.9139781 -0.4057624
vn -0.0009775162 0.9139781 -0.4057624
vn -0.0009775162 0.9960895 -0.08834484
vn -0.0009775162 0.9960895 -0.08834484
vn -0.0009775162 0.8768324 0.4807952
vn -0.0009775162 0.8768324 0.4807952
vn -0.0009775162 0.8651022 0.5015947
vn -0.0009775162 0.8651022 0.5015947
vn -0.0009775162 0.9139781 -0.4057624
vn -0.0009775162 0.9960895 -0.08834484
vn -0.0009775162 0.8768324 0.4807952
vn -0.0009775162 0.8651022 0.5015947
vn -0.9999995 0.0009775162 0
vn -0.9999995 0.0009775162 0
vn -0.9999995 0.0009775162 0
vn -0.9999995 0.0009775162 0
vn -0.9999995 0.0009775162 0
vn -0.9999995 0.0009775162 0
vn -0.9999995 0.0009775162 0
vn -0.0009775162 0.0009775162 -0.999999
vn -0.0009775162 0.0009775162 -0.999999
vn -0.0009775162 0.0009775162 -0.999999
vn -0.0009775162 0.0009775162 -0.999999
vn -0.0009775162 0.0009775162 -0.999999
vn -0.0009775162 0.0009775162 -0.999999
vn 0.9999995 0.0009775162 0
vn 0.9999995 0.0009775162 0
vn 0.9999995 0.0009775162 0
vn 0.9999995 0.0009775162 0
vn 0.9999995 0.0009775162 0
vn 0.9999995 0.0009775162 0
vn 0.9999995 0.0009775162 0
g JumpSfcgv_0
f 3/3/3 2/2/2 1/1/1
f 4/4/4 3/3/3 1/1/1
f 5/5/5 3/3/3 4/4/4
f 6/6/6 5/5/5 4/4/4
f 5/5/5 6/6/6 7/7/7
f 6/6/6 8/8/8 7/7/7
f 2/2/2 3/3/3 9/9/9
f 3/3/3 10/10/10 9/9/9
f 3/3/3 5/5/5 10/10/10
f 5/5/5 11/11/11 10/10/10
f 11/11/11 5/5/5 7/7/7
f 12/12/12 11/11/11 7/7/7
f 15/15/15 14/14/14 13/13/13
f 16/16/16 15/15/15 13/13/13
f 17/17/17 16/16/16 13/13/13
f 17/17/17 18/18/18 16/16/16
f 18/18/18 19/19/19 16/16/16
f 22/22/22 21/21/21 20/20/20
f 23/23/23 22/22/22 20/20/20
f 21/21/21 22/22/22 24/24/24
f 22/22/22 25/25/25 24/24/24
f 28/28/28 27/27/27 26/26/26
f 27/27/27 29/29/29 26/26/26
f 29/29/29 30/30/30 26/26/26
f 31/31/31 30/30/30 29/29/29
f 32/32/32 31/31/31 29/29/29
