g JumpBar20M
v -10.00001 0.08338642 1.330623
v -8.664046 0.4068546 -2.861023E-06
v -8.552924 0.4206066 0.07098866
v -9.950212 0.08338642 1.450386
v -8.441115 0.4223804 0.1186342
v -9.83001 0.08338642 1.499996
v -9.999993 0.08338642 -1.330628
v -9.950212 0.08338642 -1.450391
v -8.552924 0.4206066 -0.07099438
v -9.83001 0.08338642 -1.500001
v -8.441115 0.4223804 -0.1186399
v 9.829997 0.08338642 1.499996
v 8.441101 0.4223804 0.1186342
v -8.39244 0.4371815 -2.861023E-06
v 8.392426 0.4371815 -2.861023E-06
v 8.441101 0.4223804 -0.1186399
v 8.552911 0.4206066 0.07098866
v 9.950198 0.08338642 1.450386
v 8.664033 0.4068546 -2.861023E-06
v 9.999999 0.08338642 1.330623
v 9.829997 0.08338642 -1.500001
v 9.950198 0.08338642 -1.450391
v 8.552911 0.4206066 -0.07099438
v 9.999999 0.08338642 -1.330628
v -8.490535 0.433157 -2.861023E-06
v 8.49052 0.433157 -2.861023E-06
v 9.999999 -0.0006322861 1.330623
v 9.999999 -0.0006322861 -1.330628
v 9.950198 -0.0006322861 1.450386
v 9.829997 -0.0006322861 1.499996
v -9.83001 -0.0006322861 1.499996
v -9.950212 -0.0006322861 1.450386
v -10.00001 -0.0006322861 1.330623
v -9.999993 -0.0006322861 -1.330628
v -9.950212 -0.0006322861 -1.450391
v -9.83001 -0.0006322861 -1.500001
v 9.829997 -0.0006322861 -1.500001
v 9.950198 -0.0006322861 -1.450391
vt 0.1195363 0.6650035
vt 0.1634552 0.6209016
vt 0.1611186 0.6172341
vt 0.1155843 0.6633679
vt 0.1595439 0.6135463
vt 0.1139384 0.6593956
vt 0.2073844 0.6650035
vt 0.2113364 0.6633679
vt 0.1658021 0.6172341
vt 0.2129721 0.6593956
vt 0.1673768 0.6135463
vt 0.1139384 0.01038388
vt 0.1595439 0.05623316
vt 0.1634552 0.6119411
vt 0.1634552 0.05783834
vt 0.1673768 0.05623316
vt 0.1611186 0.05254531
vt 0.1155843 0.006411561
vt 0.1634552 0.04887777
vt 0.1195363 0.004765742
vt 0.2129721 0.01038388
vt 0.2113364 0.006411561
vt 0.1658021 0.05254531
vt 0.2073844 0.004765742
vt 0.1634552 0.6151819
vt 0.1634552 0.0545975
vt 0.1194245 0.001992231
vt 0.207486 0.001992231
vt 0.113593 0.00446096
vt 0.1111649 0.01036356
vt 0.1111649 0.6594158
vt 0.113593 0.6653185
vt 0.1194245 0.6677872
vt 0.207486 0.6677872
vt 0.2133276 0.6653185
vt 0.2157557 0.6594158
vt 0.2157557 0.01036356
vt 0.2133276 0.00446096
vn -0.3861681 0.9218044 0.03392325
vn -0.2200035 0.9745861 -0.04219397
vn -0.1144402 0.9863154 0.118682
vn -0.1613572 0.9745861 0.1553889
vn -0.001057267 0.9726312 0.2323519
vn -0.001057267 0.9374434 0.3481362
vn -0.3861681 0.9218044 -0.03392325
vn -0.1613572 0.9745861 -0.1553889
vn -0.1144402 0.9863154 -0.118682
vn -0.001057267 0.9374434 -0.3481362
vn -0.001057267 0.9726312 -0.2323519
vn 0.00285244 0.9374434 0.3481261
vn 0.0008975863 0.9726312 0.2323525
vn -0.001057267 0.9999995 0
vn 0.0008975863 0.9999995 -0.000345267
vn 0.0008975863 0.9726312 -0.2323525
vn 0.1142805 0.9863154 0.1188358
vn 0.1611975 0.9745861 0.1555546
vn 0.2196283 0.9755837 0
vn 0.3860084 0.9218044 0.03569466
vn 0.00285244 0.9374434 -0.3481261
vn 0.1611975 0.9745861 -0.1555546
vn 0.1142805 0.9863154 -0.1188358
vn 0.3860084 0.9218044 -0.03569466
vn -0.08120728 0.9960897 -0.03479496
vn 0.08104753 0.9960897 -0.03516473
vn 0.9998398 -0.0008975863 0.01787817
vn 0.9998398 -0.0008975863 -0.01787817
vn 0.7066082 -0.0008975863 0.7076045
vn 0.00285244 -0.0008975863 0.9999955
vn -0.00301218 -0.0008975863 0.9999951
vn -0.7067679 -0.0008975863 0.7074449
vn -0.9999995 -0.0008975863 -0.0003847246
vn -0.9999995 -0.0008975863 -0.0003847246
vn -0.7067679 -0.0008975863 -0.7074449
vn -0.00301218 -0.0008975863 -0.9999951
vn 0.00285244 -0.0008975863 -0.9999955
vn 0.7066082 -0.0008975863 -0.7076045
g JumpBar20M_0
f 3/3/3 2/2/2 1/1/1
f 4/4/4 3/3/3 1/1/1
f 5/5/5 3/3/3 4/4/4
f 6/6/6 5/5/5 4/4/4
f 7/7/7 1/1/1 2/2/2
f 8/8/8 7/7/7 2/2/2
f 9/9/9 8/8/8 2/2/2
f 2/2/2 3/3/3 9/9/9
f 10/10/10 8/8/8 9/9/9
f 11/11/11 10/10/10 9/9/9
f 6/6/6 12/12/12 5/5/5
f 12/12/12 13/13/13 5/5/5
f 5/5/5 13/13/13 14/14/14
f 5/5/5 14/14/14 3/3/3
f 11/11/11 9/9/9 14/14/14
f 14/14/14 15/15/15 11/11/11
f 13/13/13 15/15/15 14/14/14
f 15/15/15 16/16/16 11/11/11
f 10/10/10 11/11/11 16/16/16
f 13/13/13 12/12/12 17/17/17
f 13/13/13 17/17/17 15/15/15
f 12/12/12 18/18/18 17/17/17
f 17/17/17 18/18/18 19/19/19
f 18/18/18 20/20/20 19/19/19
f 21/21/21 10/10/10 16/16/16
f 22/22/22 21/21/21 16/16/16
f 23/23/23 22/22/22 16/16/16
f 19/19/19 23/23/23 17/17/17
f 16/16/16 15/15/15 23/23/23
f 24/24/24 22/22/22 23/23/23
f 19/19/19 24/24/24 23/23/23
f 20/20/20 24/24/24 19/19/19
f 9/9/9 25/25/25 14/14/14
f 14/14/14 25/25/25 3/3/3
f 3/3/3 25/25/25 9/9/9
f 17/17/17 26/26/26 15/15/15
f 23/23/23 26/26/26 17/17/17
f 15/15/15 26/26/26 23/23/23
f 20/20/20 27/27/27 24/24/24
f 27/27/27 28/28/28 24/24/24
f 24/24/24 28/28/28 22/22/22
f 29/29/29 27/27/27 20/20/20
f 18/18/18 29/29/29 20/20/20
f 30/30/30 29/29/29 18/18/18
f 12/12/12 30/30/30 18/18/18
f 31/31/31 30/30/30 12/12/12
f 6/6/6 31/31/31 12/12/12
f 32/32/32 31/31/31 6/6/6
f 4/4/4 32/32/32 6/6/6
f 33/33/33 32/32/32 4/4/4
f 1/1/1 33/33/33 4/4/4
f 34/34/34 33/33/33 1/1/1
f 7/7/7 34/34/34 1/1/1
f 35/35/35 34/34/34 7/7/7
f 8/8/8 35/35/35 7/7/7
f 36/36/36 35/35/35 8/8/8
f 10/10/10 36/36/36 8/8/8
f 37/37/37 36/36/36 10/10/10
f 21/21/21 37/37/37 10/10/10
f 38/38/38 37/37/37 21/21/21
f 22/22/22 38/38/38 21/21/21
f 28/28/28 38/38/38 22/22/22
