g Kanaami
v -0.3824177 9.536743E-07 -4.917322
v -2.196083 9.536743E-07 -11.81882
v 4.926044 9.536743E-07 -14.46965
v 7.146467 9.536743E-07 -6.02022
v -0.3824177 9.536743E-07 -4.917322
v -7.911303 9.536743E-07 -3.814396
v -9.31818 9.536743E-07 -9.167982
v -2.196083 9.536743E-07 -11.81882
v -0.2390671 9.536743E-07 3.568018
v -0.2390394 9.536743E-07 -3.56741
v 7.322027 9.536743E-07 -4.367542
v 7.321971 9.536743E-07 4.36829
v -0.2390671 9.536743E-07 3.568018
v -7.800104 9.536743E-07 2.767748
v -7.800077 9.536743E-07 -2.767277
v -0.2390394 9.536743E-07 -3.56741
v -2.196276 9.536743E-07 11.81937
v -0.382556 9.536743E-07 4.917904
v 7.146302 9.536743E-07 6.020939
v 4.925795 9.536743E-07 14.47035
v -9.318317 9.536743E-07 9.168427
v -7.911413 9.536743E-07 3.814867
v -0.382556 9.536743E-07 4.917904
v -2.196276 9.536743E-07 11.81937
v -0.2390671 -1.199991 3.568018
v 7.321971 -1.199991 4.36829
v 7.322027 -1.199991 -4.367542
v -0.2390394 -1.199991 -3.56741
v -0.2390671 -1.199991 3.568018
v -0.2390394 -1.199991 -3.56741
v -7.800077 -1.199991 -2.767277
v -7.800104 -1.199991 2.767748
v -0.3824177 -1.199991 -4.917322
v 7.146467 -1.199991 -6.02022
v 4.926044 -1.199991 -14.46965
v -2.196083 -1.199991 -11.81882
v -0.3824177 -1.199991 -4.917322
v -2.196083 -1.199991 -11.81882
v -9.31818 -1.199991 -9.167982
v -7.911303 -1.199991 -3.814396
v -2.196276 -1.199991 11.81937
v 4.925795 -1.199991 14.47035
v 7.146302 -1.199991 6.020939
v -0.382556 -1.199991 4.917904
v -9.318317 -1.199991 9.168427
v -2.196276 -1.199991 11.81937
v -0.382556 -1.199991 4.917904
v -7.911413 -1.199991 3.814867
vt 2.5 -1.5
vt -1.5 -1.5
vt -1.5 2.5
vt 2.5 2.5
vt -1.5 2.5
vt 2.5 2.5
vt 2.5 -1.5
vt -1.5 -1.5
vt 2.5 -1.5
vt -1.5 -1.5
vt -1.5 2.5
vt 2.5 2.5
vt -1.5 2.5
vt 2.5 2.5
vt 2.5 -1.5
vt -1.5 -1.5
vt 2.5 -1.5
vt -1.5 -1.5
vt -1.5 2.5
vt 2.5 2.5
vt 2.5 2.5
vt 2.5 -1.5
vt -1.5 -1.5
vt -1.5 2.5
vt 2.5 -1.5
vt 2.5 2.5
vt -1.5 2.5
vt -1.5 -1.5
vt -1.5 2.5
vt -1.5 -1.5
vt 2.5 -1.5
vt 2.5 2.5
vt 2.5 -1.5
vt 2.5 2.5
vt -1.5 2.5
vt -1.5 -1.5
vt -1.5 2.5
vt -1.5 -1.5
vt 2.5 -1.5
vt 2.5 2.5
vt 2.5 -1.5
vt 2.5 2.5
vt -1.5 2.5
vt -1.5 -1.5
vt 2.5 2.5
vt -1.5 2.5
vt -1.5 -1.5
vt 2.5 -1.5
vn -0.0009775162 0.9999995 0
vn -0.0009775162 0.9999995 0
vn -0.0009775162 0.9999995 0
vn -0.0009775162 0.9999995 0
vn -0.0009775162 0.9999995 0
vn -0.0009775162 0.9999995 0
vn -0.0009775162 0.9999995 0
vn -0.0009775162 0.9999995 0
vn -0.0009775162 0.9999995 0
vn -0.0009775162 0.9999995 0
vn -0.0009775162 0.9999995 0
vn -0.0009775162 0.9999995 0
vn -0.0009775162 0.9999995 0
vn -0.0009775162 0.9999995 0
vn -0.0009775162 0.9999995 0
vn -0.0009775162 0.9999995 0
vn -0.0009775162 0.9999995 0
vn -0.0009775162 0.9999995 0
vn -0.0009775162 0.9999995 0
vn -0.0009775162 0.9999995 0
vn -0.0009775162 0.9999995 0
vn -0.0009775162 0.9999995 0
vn -0.0009775162 0.9999995 0
vn -0.0009775162 0.9999995 0
vn -0.0009775162 -0.9999995 0
vn -0.0009775162 -0.9999995 0
vn -0.0009775162 -0.9999995 0
vn -0.0009775162 -0.9999995 0
vn -0.0009775162 -0.9999995 0
vn -0.0009775162 -0.9999995 0
vn -0.0009775162 -0.9999995 0
vn -0.0009775162 -0.9999995 0
vn -0.0009775162 -0.9999995 0
vn -0.0009775162 -0.9999995 0
vn -0.0009775162 -0.9999995 0
vn -0.0009775162 -0.9999995 0
vn -0.0009775162 -0.9999995 0
vn -0.0009775162 -0.9999995 0
vn -0.0009775162 -0.9999995 0
vn -0.0009775162 -0.9999995 0
vn -0.0009775162 -0.9999995 0
vn -0.0009775162 -0.9999995 0
vn -0.0009775162 -0.9999995 0
vn -0.0009775162 -0.9999995 0
vn -0.0009775162 -0.9999995 0
vn -0.0009775162 -0.9999995 0
vn -0.0009775162 -0.9999995 0
vn -0.0009775162 -0.9999995 0
g Kanaami_0
f 3/3/3 2/2/2 1/1/1
f 4/4/4 3/3/3 1/1/1
f 7/7/7 6/6/6 5/5/5
f 8/8/8 7/7/7 5/5/5
f 11/11/11 10/10/10 9/9/9
f 12/12/12 11/11/11 9/9/9
f 15/15/15 14/14/14 13/13/13
f 16/16/16 15/15/15 13/13/13
f 19/19/19 18/18/18 17/17/17
f 20/20/20 19/19/19 17/17/17
f 23/23/23 22/22/22 21/21/21
f 24/24/24 23/23/23 21/21/21
f 27/27/27 26/26/26 25/25/25
f 28/28/28 27/27/27 25/25/25
f 31/31/31 30/30/30 29/29/29
f 32/32/32 31/31/31 29/29/29
f 35/35/35 34/34/34 33/33/33
f 36/36/36 35/35/35 33/33/33
f 39/39/39 38/38/38 37/37/37
f 40/40/40 39/39/39 37/37/37
f 43/43/43 42/42/42 41/41/41
f 44/44/44 43/43/43 41/41/41
f 47/47/47 46/46/46 45/45/45
f 48/48/48 47/47/47 45/45/45
