g Kanaami
v -7.614664 1.144409E-05 -12.09587
v -1.144409E-05 1.144409E-05 -4.939093
v -7.614664 1.144409E-05 -4.939093
v -1.144409E-05 1.144409E-05 -12.09587
v -1.144409E-05 1.144409E-05 -4.939093
v 7.614663 1.144409E-05 -12.09587
v 7.614663 1.144409E-05 -4.939093
v -1.144409E-05 1.144409E-05 -12.09587
v -7.614664 1.144409E-05 -3.578074
v -1.144409E-05 1.144409E-05 3.578675
v -7.614664 1.144409E-05 3.578675
v -1.144409E-05 1.144409E-05 -3.578074
v -1.144409E-05 1.144409E-05 3.578675
v 7.614663 1.144409E-05 -3.578074
v 7.614663 1.144409E-05 3.578675
v -1.144409E-05 1.144409E-05 -3.578074
v -7.614664 1.144409E-05 4.939693
v -1.144409E-05 1.144409E-05 12.09647
v -7.614664 1.144409E-05 12.09647
v -1.144409E-05 1.144409E-05 4.939693
v -1.144409E-05 1.144409E-05 12.09647
v 7.614663 1.144409E-05 4.939693
v 7.614663 1.144409E-05 12.09647
v -1.144409E-05 1.144409E-05 4.939693
v -7.614664 -1.199989 -3.578074
v -7.614664 -1.199989 3.578675
v -1.144409E-05 -1.199989 3.578675
v -1.144409E-05 -1.199989 -3.578074
v -1.144409E-05 -1.199989 3.578675
v 7.614663 -1.199989 3.578675
v 7.614663 -1.199989 -3.578074
v -1.144409E-05 -1.199989 -3.578074
v -7.614664 -1.199989 -12.09587
v -7.614664 -1.199989 -4.939093
v -1.144409E-05 -1.199989 -4.939093
v -1.144409E-05 -1.199989 -12.09587
v -1.144409E-05 -1.199989 -4.939093
v 7.614663 -1.199989 -4.939093
v 7.614663 -1.199989 -12.09587
v -1.144409E-05 -1.199989 -12.09587
v -7.614664 -1.199989 4.939693
v -7.614664 -1.199989 12.09647
v -1.144409E-05 -1.199989 12.09647
v -1.144409E-05 -1.199989 4.939693
v -1.144409E-05 -1.199989 12.09647
v 7.614663 -1.199989 12.09647
v 7.614663 -1.199989 4.939693
v -1.144409E-05 -1.199989 4.939693
vt -1.5 2.5
vt 2.5 -1.5
vt 2.5 2.5
vt -1.5 -1.5
vt -1.5 2.5
vt 2.5 -1.5
vt 2.5 2.5
vt -1.5 -1.5
vt -1.5 2.5
vt 2.5 -1.5
vt 2.5 2.5
vt -1.5 -1.5
vt -1.5 2.5
vt 2.5 -1.5
vt 2.5 2.5
vt -1.5 -1.5
vt -1.5 2.5
vt 2.5 -1.5
vt 2.5 2.5
vt -1.5 -1.5
vt -1.5 2.5
vt 2.5 -1.5
vt 2.5 2.5
vt -1.5 -1.5
vt -1.5 2.5
vt 2.5 2.5
vt 2.5 -1.5
vt -1.5 -1.5
vt -1.5 2.5
vt 2.5 2.5
vt 2.5 -1.5
vt -1.5 -1.5
vt -1.5 2.5
vt 2.5 2.5
vt 2.5 -1.5
vt -1.5 -1.5
vt -1.5 2.5
vt 2.5 2.5
vt 2.5 -1.5
vt -1.5 -1.5
vt -1.5 2.5
vt 2.5 2.5
vt 2.5 -1.5
vt -1.5 -1.5
vt -1.5 2.5
vt 2.5 2.5
vt 2.5 -1.5
vt -1.5 -1.5
vn -0.0009775162 0.9999995 0
vn -0.0009775162 0.9999995 0
vn -0.0009775162 0.9999995 0
vn -0.0009775162 0.9999995 0
vn -0.0009775162 0.9999995 0
vn -0.0009775162 0.9999995 0
vn -0.0009775162 0.9999995 0
vn -0.0009775162 0.9999995 0
vn -0.0009775162 0.9999995 0
vn -0.0009775162 0.9999995 0
vn -0.0009775162 0.9999995 0
vn -0.0009775162 0.9999995 0
vn -0.0009775162 0.9999995 0
vn -0.0009775162 0.9999995 0
vn -0.0009775162 0.9999995 0
vn -0.0009775162 0.9999995 0
vn -0.0009775162 0.9999995 0
vn -0.0009775162 0.9999995 0
vn -0.0009775162 0.9999995 0
vn -0.0009775162 0.9999995 0
vn -0.0009775162 0.9999995 0
vn -0.0009775162 0.9999995 0
vn -0.0009775162 0.9999995 0
vn -0.0009775162 0.9999995 0
vn -0.0009775162 -0.9999995 0
vn -0.0009775162 -0.9999995 0
vn -0.0009775162 -0.9999995 0
vn -0.0009775162 -0.9999995 0
vn -0.0009775162 -0.9999995 0
vn -0.0009775162 -0.9999995 0
vn -0.0009775162 -0.9999995 0
vn -0.0009775162 -0.9999995 0
vn -0.0009775162 -0.9999995 0
vn -0.0009775162 -0.9999995 0
vn -0.0009775162 -0.9999995 0
vn -0.0009775162 -0.9999995 0
vn -0.0009775162 -0.9999995 0
vn -0.0009775162 -0.9999995 0
vn -0.0009775162 -0.9999995 0
vn -0.0009775162 -0.9999995 0
vn -0.0009775162 -0.9999995 0
vn -0.0009775162 -0.9999995 0
vn -0.0009775162 -0.9999995 0
vn -0.0009775162 -0.9999995 0
vn -0.0009775162 -0.9999995 0
vn -0.0009775162 -0.9999995 0
vn -0.0009775162 -0.9999995 0
vn -0.0009775162 -0.9999995 0
g Kanaami_0
f 3/3/3 2/2/2 1/1/1
f 4/4/4 1/1/1 2/2/2
f 7/7/7 6/6/6 5/5/5
f 8/8/8 5/5/5 6/6/6
f 11/11/11 10/10/10 9/9/9
f 12/12/12 9/9/9 10/10/10
f 15/15/15 14/14/14 13/13/13
f 16/16/16 13/13/13 14/14/14
f 19/19/19 18/18/18 17/17/17
f 20/20/20 17/17/17 18/18/18
f 23/23/23 22/22/22 21/21/21
f 24/24/24 21/21/21 22/22/22
f 27/27/27 26/26/26 25/25/25
f 25/25/25 28/28/28 27/27/27
f 31/31/31 30/30/30 29/29/29
f 29/29/29 32/32/32 31/31/31
f 35/35/35 34/34/34 33/33/33
f 33/33/33 36/36/36 35/35/35
f 39/39/39 38/38/38 37/37/37
f 37/37/37 40/40/40 39/39/39
f 43/43/43 42/42/42 41/41/41
f 41/41/41 44/44/44 43/43/43
f 47/47/47 46/46/46 45/45/45
f 45/45/45 48/48/48 47/47/47
