g Kanaami
v -7.614639 -7.629395E-06 -24.87254
v 7.629395E-06 -7.629395E-06 -17.71579
v -7.614689 -7.629395E-06 -17.71579
v 7.629395E-06 -7.629395E-06 -24.87254
v 7.629395E-06 -7.629395E-06 -17.71579
v 7.614656 -7.629395E-06 -24.87254
v 7.614656 -7.629395E-06 -17.71579
v 7.629395E-06 -7.629395E-06 -24.87254
v -7.614639 -7.629395E-06 -16.35475
v 7.629395E-06 -7.629395E-06 -9.198007
v -7.614689 -7.629395E-06 -9.198007
v 7.629395E-06 -7.629395E-06 -16.35475
v 7.629395E-06 -7.629395E-06 -9.198007
v 7.614656 -7.629395E-06 -16.35475
v 7.614656 -7.629395E-06 -9.198007
v 7.629395E-06 -7.629395E-06 -16.35475
v -7.614639 -7.629395E-06 -7.836966
v 7.629395E-06 -7.629395E-06 -0.6802197
v -7.614689 -7.629395E-06 -0.6802197
v 7.629395E-06 -7.629395E-06 -7.836966
v 7.629395E-06 -7.629395E-06 -0.6802197
v 7.614656 -7.629395E-06 -7.836966
v 7.614656 -7.629395E-06 -0.6802197
v 7.629395E-06 -7.629395E-06 -7.836966
v -7.614639 -7.629395E-06 0.6808205
v 7.629395E-06 -7.629395E-06 7.837566
v -7.614689 -7.629395E-06 7.837566
v 7.629395E-06 -7.629395E-06 0.6808205
v 7.629395E-06 -7.629395E-06 7.837566
v 7.614656 -7.629395E-06 0.6808205
v 7.614656 -7.629395E-06 7.837566
v 7.629395E-06 -7.629395E-06 0.6808205
v -7.614639 -7.629395E-06 9.198608
v 7.629395E-06 -7.629395E-06 16.35535
v -7.614689 -7.629395E-06 16.35535
v 7.629395E-06 -7.629395E-06 9.198608
v 7.629395E-06 -7.629395E-06 16.35535
v 7.614656 -7.629395E-06 9.198608
v 7.614656 -7.629395E-06 16.35535
v 7.629395E-06 -7.629395E-06 9.198608
v -7.614639 -7.629395E-06 17.7164
v 7.629395E-06 -7.629395E-06 24.87314
v -7.614689 -7.629395E-06 24.87314
v 7.629395E-06 -7.629395E-06 17.7164
v 7.629395E-06 -7.629395E-06 24.87314
v 7.614656 -7.629395E-06 17.7164
v 7.614656 -7.629395E-06 24.87314
v 7.629395E-06 -7.629395E-06 17.7164
v -7.614639 -1.199986 -16.35475
v -7.614689 -1.199986 -9.198007
v 7.629395E-06 -1.199986 -9.198007
v 7.629395E-06 -1.199986 -16.35475
v 7.629395E-06 -1.199986 -9.198007
v 7.614656 -1.199986 -9.198007
v 7.614656 -1.199986 -16.35475
v 7.629395E-06 -1.199986 -16.35475
v -7.614639 -1.199986 -24.87254
v -7.614689 -1.199986 -17.71579
v 7.629395E-06 -1.199986 -17.71579
v 7.629395E-06 -1.199986 -24.87254
v 7.629395E-06 -1.199986 -17.71579
v 7.614656 -1.199986 -17.71579
v 7.614656 -1.199986 -24.87254
v 7.629395E-06 -1.199986 -24.87254
v -7.614639 -1.199986 -7.836966
v -7.614689 -1.199986 -0.6802197
v 7.629395E-06 -1.199986 -0.6802197
v 7.629395E-06 -1.199986 -7.836966
v 7.629395E-06 -1.199986 -0.6802197
v 7.614656 -1.199986 -0.6802197
v 7.614656 -1.199986 -7.836966
v 7.629395E-06 -1.199986 -7.836966
v -7.614639 -1.199986 0.6808205
v -7.614689 -1.199986 7.837566
v 7.629395E-06 -1.199986 7.837566
v 7.629395E-06 -1.199986 0.6808205
v 7.629395E-06 -1.199986 7.837566
v 7.614656 -1.199986 7.837566
v 7.614656 -1.199986 0.6808205
v 7.629395E-06 -1.199986 0.6808205
v -7.614639 -1.199986 9.198608
v -7.614689 -1.199986 16.35535
v 7.629395E-06 -1.199986 16.35535
v 7.629395E-06 -1.199986 9.198608
v 7.629395E-06 -1.199986 16.35535
v 7.614656 -1.199986 16.35535
v 7.614656 -1.199986 9.198608
v 7.629395E-06 -1.199986 9.198608
v -7.614639 -1.199986 17.7164
v -7.614689 -1.199986 24.87314
v 7.629395E-06 -1.199986 24.87314
v 7.629395E-06 -1.199986 17.7164
v 7.629395E-06 -1.199986 24.87314
v 7.614656 -1.199986 24.87314
v 7.614656 -1.199986 17.7164
v 7.629395E-06 -1.199986 17.7164
vt -1.5 2.5
vt 2.5 -1.5
vt 2.5 2.5
vt -1.5 -1.5
vt -1.5 2.5
vt 2.5 -1.5
vt 2.5 2.5
vt -1.5 -1.5
vt -1.5 2.5
vt 2.5 -1.5
vt 2.5 2.5
vt -1.5 -1.5
vt -1.5 2.5
vt 2.5 -1.5
vt 2.5 2.5
vt -1.5 -1.5
vt -1.5 2.5
vt 2.5 -1.5
vt 2.5 2.5
vt -1.5 -1.5
vt -1.5 2.5
vt 2.5 -1.5
vt 2.5 2.5
vt -1.5 -1.5
vt -1.5 2.5
vt 2.5 -1.5
vt 2.5 2.5
vt -1.5 -1.5
vt -1.5 2.5
vt 2.5 -1.5
vt 2.5 2.5
vt -1.5 -1.5
vt -1.5 2.5
vt 2.5 -1.5
vt 2.5 2.5
vt -1.5 -1.5
vt -1.5 2.5
vt 2.5 -1.5
vt 2.5 2.5
vt -1.5 -1.5
vt -1.5 2.5
vt 2.5 -1.5
vt 2.5 2.5
vt -1.5 -1.5
vt -1.5 2.5
vt 2.5 -1.5
vt 2.5 2.5
vt -1.5 -1.5
vt -1.5 2.5
vt 2.5 2.5
vt 2.5 -1.5
vt -1.5 -1.5
vt -1.5 2.5
vt 2.5 2.5
vt 2.5 -1.5
vt -1.5 -1.5
vt -1.5 2.5
vt 2.5 2.5
vt 2.5 -1.5
vt -1.5 -1.5
vt -1.5 2.5
vt 2.5 2.5
vt 2.5 -1.5
vt -1.5 -1.5
vt -1.5 2.5
vt 2.5 2.5
vt 2.5 -1.5
vt -1.5 -1.5
vt -1.5 2.5
vt 2.5 2.5
vt 2.5 -1.5
vt -1.5 -1.5
vt -1.5 2.5
vt 2.5 2.5
vt 2.5 -1.5
vt -1.5 -1.5
vt -1.5 2.5
vt 2.5 2.5
vt 2.5 -1.5
vt -1.5 -1.5
vt -1.5 2.5
vt 2.5 2.5
vt 2.5 -1.5
vt -1.5 -1.5
vt -1.5 2.5
vt 2.5 2.5
vt 2.5 -1.5
vt -1.5 -1.5
vt -1.5 2.5
vt 2.5 2.5
vt 2.5 -1.5
vt -1.5 -1.5
vt -1.5 2.5
vt 2.5 2.5
vt 2.5 -1.5
vt -1.5 -1.5
vn -0.0009775162 0.9999995 0
vn -0.0009775162 0.9999995 0
vn -0.0009775162 0.9999995 0
vn -0.0009775162 0.9999995 0
vn -0.0009775162 0.9999995 0
vn -0.0009775162 0.9999995 0
vn -0.0009775162 0.9999995 0
vn -0.0009775162 0.9999995 0
vn -0.0009775162 0.9999995 0
vn -0.0009775162 0.9999995 0
vn -0.0009775162 0.9999995 0
vn -0.0009775162 0.9999995 0
vn -0.0009775162 0.9999995 0
vn -0.0009775162 0.9999995 0
vn -0.0009775162 0.9999995 0
vn -0.0009775162 0.9999995 0
vn -0.0009775162 0.9999995 0
vn -0.0009775162 0.9999995 0
vn -0.0009775162 0.9999995 0
vn -0.0009775162 0.9999995 0
vn -0.0009775162 0.9999995 0
vn -0.0009775162 0.9999995 0
vn -0.0009775162 0.9999995 0
vn -0.0009775162 0.9999995 0
vn -0.0009775162 0.9999995 0
vn -0.0009775162 0.9999995 0
vn -0.0009775162 0.9999995 0
vn -0.0009775162 0.9999995 0
vn -0.0009775162 0.9999995 0
vn -0.0009775162 0.9999995 0
vn -0.0009775162 0.9999995 0
vn -0.0009775162 0.9999995 0
vn -0.0009775162 0.9999995 0
vn -0.0009775162 0.9999995 0
vn -0.0009775162 0.9999995 0
vn -0.0009775162 0.9999995 0
vn -0.0009775162 0.9999995 0
vn -0.0009775162 0.9999995 0
vn -0.0009775162 0.9999995 0
vn -0.0009775162 0.9999995 0
vn -0.0009775162 0.9999995 0
vn -0.0009775162 0.9999995 0
vn -0.0009775162 0.9999995 0
vn -0.0009775162 0.9999995 0
vn -0.0009775162 0.9999995 0
vn -0.0009775162 0.9999995 0
vn -0.0009775162 0.9999995 0
vn -0.0009775162 0.9999995 0
vn -0.0009775162 -0.9999995 0
vn -0.0009775162 -0.9999995 0
vn -0.0009775162 -0.9999995 0
vn -0.0009775162 -0.9999995 0
vn -0.0009775162 -0.9999995 0
vn -0.0009775162 -0.9999995 0
vn -0.0009775162 -0.9999995 0
vn -0.0009775162 -0.9999995 0
vn -0.0009775162 -0.9999995 0
vn -0.0009775162 -0.9999995 0
vn -0.0009775162 -0.9999995 0
vn -0.0009775162 -0.9999995 0
vn -0.0009775162 -0.9999995 0
vn -0.0009775162 -0.9999995 0
vn -0.0009775162 -0.9999995 0
vn -0.0009775162 -0.9999995 0
vn -0.0009775162 -0.9999995 0
vn -0.0009775162 -0.9999995 0
vn -0.0009775162 -0.9999995 0
vn -0.0009775162 -0.9999995 0
vn -0.0009775162 -0.9999995 0
vn -0.0009775162 -0.9999995 0
vn -0.0009775162 -0.9999995 0
vn -0.0009775162 -0.9999995 0
vn -0.0009775162 -0.9999995 0
vn -0.0009775162 -0.9999995 0
vn -0.0009775162 -0.9999995 0
vn -0.0009775162 -0.9999995 0
vn -0.0009775162 -0.9999995 0
vn -0.0009775162 -0.9999995 0
vn -0.0009775162 -0.9999995 0
vn -0.0009775162 -0.9999995 0
vn -0.0009775162 -0.9999995 0
vn -0.0009775162 -0.9999995 0
vn -0.0009775162 -0.9999995 0
vn -0.0009775162 -0.9999995 0
vn -0.0009775162 -0.9999995 0
vn -0.0009775162 -0.9999995 0
vn -0.0009775162 -0.9999995 0
vn -0.0009775162 -0.9999995 0
vn -0.0009775162 -0.9999995 0
vn -0.0009775162 -0.9999995 0
vn -0.0009775162 -0.9999995 0
vn -0.0009775162 -0.9999995 0
vn -0.0009775162 -0.9999995 0
vn -0.0009775162 -0.9999995 0
vn -0.0009775162 -0.9999995 0
vn -0.0009775162 -0.9999995 0
g Kanaami_0
f 3/3/3 2/2/2 1/1/1
f 4/4/4 1/1/1 2/2/2
f 7/7/7 6/6/6 5/5/5
f 8/8/8 5/5/5 6/6/6
f 11/11/11 10/10/10 9/9/9
f 12/12/12 9/9/9 10/10/10
f 15/15/15 14/14/14 13/13/13
f 16/16/16 13/13/13 14/14/14
f 19/19/19 18/18/18 17/17/17
f 20/20/20 17/17/17 18/18/18
f 23/23/23 22/22/22 21/21/21
f 24/24/24 21/21/21 22/22/22
f 27/27/27 26/26/26 25/25/25
f 28/28/28 25/25/25 26/26/26
f 31/31/31 30/30/30 29/29/29
f 32/32/32 29/29/29 30/30/30
f 35/35/35 34/34/34 33/33/33
f 36/36/36 33/33/33 34/34/34
f 39/39/39 38/38/38 37/37/37
f 40/40/40 37/37/37 38/38/38
f 43/43/43 42/42/42 41/41/41
f 44/44/44 41/41/41 42/42/42
f 47/47/47 46/46/46 45/45/45
f 48/48/48 45/45/45 46/46/46
f 51/51/51 50/50/50 49/49/49
f 49/49/49 52/52/52 51/51/51
f 55/55/55 54/54/54 53/53/53
f 53/53/53 56/56/56 55/55/55
f 59/59/59 58/58/58 57/57/57
f 57/57/57 60/60/60 59/59/59
f 63/63/63 62/62/62 61/61/61
f 61/61/61 64/64/64 63/63/63
f 67/67/67 66/66/66 65/65/65
f 65/65/65 68/68/68 67/67/67
f 71/71/71 70/70/70 69/69/69
f 69/69/69 72/72/72 71/71/71
f 75/75/75 74/74/74 73/73/73
f 73/73/73 76/76/76 75/75/75
f 79/79/79 78/78/78 77/77/77
f 77/77/77 80/80/80 79/79/79
f 83/83/83 82/82/82 81/81/81
f 81/81/81 84/84/84 83/83/83
f 87/87/87 86/86/86 85/85/85
f 85/85/85 88/88/88 87/87/87
f 91/91/91 90/90/90 89/89/89
f 89/89/89 92/92/92 91/91/91
f 95/95/95 94/94/94 93/93/93
f 93/93/93 96/96/96 95/95/95
