g Kanaami
v -7.614649 5.722046E-06 -20.61365
v -5.722046E-06 5.722046E-06 -13.4569
v -7.614649 5.722046E-06 -13.4569
v -5.722046E-06 5.722046E-06 -20.61365
v -5.722046E-06 5.722046E-06 -13.4569
v 7.614676 5.722046E-06 -20.61365
v 7.614676 5.722046E-06 -13.45686
v -5.722046E-06 5.722046E-06 -20.61365
v -7.614649 5.722046E-06 -12.09587
v -5.722046E-06 5.722046E-06 -4.939085
v -7.614649 5.722046E-06 -4.939085
v -5.722046E-06 5.722046E-06 -12.09587
v -5.722046E-06 5.722046E-06 -4.939085
v 7.614676 5.722046E-06 -12.09587
v 7.614676 5.722046E-06 -4.939085
v -5.722046E-06 5.722046E-06 -12.09587
v -7.614649 5.722046E-06 -3.578093
v -5.722046E-06 5.722046E-06 3.578693
v -7.614649 5.722046E-06 3.578693
v -5.722046E-06 5.722046E-06 -3.578093
v -5.722046E-06 5.722046E-06 3.578693
v 7.614676 5.722046E-06 -3.578093
v 7.614676 5.722046E-06 3.578693
v -5.722046E-06 5.722046E-06 -3.578093
v -7.614649 5.722046E-06 4.939686
v -5.722046E-06 5.722046E-06 12.09647
v -7.614649 5.722046E-06 12.09647
v -5.722046E-06 5.722046E-06 4.939686
v -5.722046E-06 5.722046E-06 12.09647
v 7.614676 5.722046E-06 4.939686
v 7.614676 5.722046E-06 12.09647
v -5.722046E-06 5.722046E-06 4.939686
v -7.614649 5.722046E-06 13.4575
v -5.722046E-06 5.722046E-06 20.61425
v -7.614649 5.722046E-06 20.61425
v -5.722046E-06 5.722046E-06 13.4575
v -5.722046E-06 5.722046E-06 20.61425
v 7.614676 5.722046E-06 13.4575
v 7.614676 5.722046E-06 20.61425
v -5.722046E-06 5.722046E-06 13.4575
v -7.614649 -1.19998 -12.09587
v -7.614649 -1.19998 -4.939085
v -5.722046E-06 -1.20002 -4.939085
v -5.722046E-06 -1.19998 -12.09587
v -5.722046E-06 -1.20002 -4.939085
v 7.614676 -1.19998 -4.939085
v 7.614676 -1.19998 -12.09587
v -5.722046E-06 -1.19998 -12.09587
v -7.614649 -1.19998 -20.61365
v -7.614649 -1.19998 -13.4569
v -5.722046E-06 -1.20002 -13.4569
v -5.722046E-06 -1.19998 -20.61365
v -5.722046E-06 -1.20002 -13.4569
v 7.614676 -1.19998 -13.45686
v 7.614676 -1.19998 -20.61365
v -5.722046E-06 -1.19998 -20.61365
v -7.614649 -1.19998 -3.578093
v -7.614649 -1.19998 3.578693
v -5.722046E-06 -1.20002 3.578693
v -5.722046E-06 -1.19998 -3.578093
v -5.722046E-06 -1.20002 3.578693
v 7.614676 -1.19998 3.578693
v 7.614676 -1.19998 -3.578093
v -5.722046E-06 -1.19998 -3.578093
v -7.614649 -1.19998 4.939686
v -7.614649 -1.19998 12.09647
v -5.722046E-06 -1.20002 12.09647
v -5.722046E-06 -1.19998 4.939686
v -5.722046E-06 -1.20002 12.09647
v 7.614676 -1.19998 12.09647
v 7.614676 -1.19998 4.939686
v -5.722046E-06 -1.19998 4.939686
v -7.614649 -1.19998 13.4575
v -7.614649 -1.19998 20.61425
v -5.722046E-06 -1.20002 20.61425
v -5.722046E-06 -1.19998 13.4575
v -5.722046E-06 -1.20002 20.61425
v 7.614676 -1.19998 20.61425
v 7.614676 -1.19998 13.4575
v -5.722046E-06 -1.19998 13.4575
vt -1.5 2.5
vt 2.5 -1.5
vt 2.5 2.5
vt -1.5 -1.5
vt -1.5 2.5
vt 2.5 -1.5
vt 2.5 2.5
vt -1.5 -1.5
vt -1.5 2.5
vt 2.5 -1.5
vt 2.5 2.5
vt -1.5 -1.5
vt -1.5 2.5
vt 2.5 -1.5
vt 2.5 2.5
vt -1.5 -1.5
vt -1.5 2.5
vt 2.5 -1.5
vt 2.5 2.5
vt -1.5 -1.5
vt -1.5 2.5
vt 2.5 -1.5
vt 2.5 2.5
vt -1.5 -1.5
vt -1.5 2.5
vt 2.5 -1.5
vt 2.5 2.5
vt -1.5 -1.5
vt -1.5 2.5
vt 2.5 -1.5
vt 2.5 2.5
vt -1.5 -1.5
vt -1.5 2.5
vt 2.5 -1.5
vt 2.5 2.5
vt -1.5 -1.5
vt -1.5 2.5
vt 2.5 -1.5
vt 2.5 2.5
vt -1.5 -1.5
vt -1.5 2.5
vt 2.5 2.5
vt 2.5 -1.5
vt -1.5 -1.5
vt -1.5 2.5
vt 2.5 2.5
vt 2.5 -1.5
vt -1.5 -1.5
vt -1.5 2.5
vt 2.5 2.5
vt 2.5 -1.5
vt -1.5 -1.5
vt -1.5 2.5
vt 2.5 2.5
vt 2.5 -1.5
vt -1.5 -1.5
vt -1.5 2.5
vt 2.5 2.5
vt 2.5 -1.5
vt -1.5 -1.5
vt -1.5 2.5
vt 2.5 2.5
vt 2.5 -1.5
vt -1.5 -1.5
vt -1.5 2.5
vt 2.5 2.5
vt 2.5 -1.5
vt -1.5 -1.5
vt -1.5 2.5
vt 2.5 2.5
vt 2.5 -1.5
vt -1.5 -1.5
vt -1.5 2.5
vt 2.5 2.5
vt 2.5 -1.5
vt -1.5 -1.5
vt -1.5 2.5
vt 2.5 2.5
vt 2.5 -1.5
vt -1.5 -1.5
vn -0.0009775162 0.9999995 0
vn -0.0009775162 0.9999995 0
vn -0.0009775162 0.9999995 0
vn -0.0009775162 0.9999995 0
vn -0.0009775162 0.9999995 0
vn -0.0009775162 0.9999995 0
vn -0.0009775162 0.9999995 0
vn -0.0009775162 0.9999995 0
vn -0.0009775162 0.9999995 0
vn -0.0009775162 0.9999995 0
vn -0.0009775162 0.9999995 0
vn -0.0009775162 0.9999995 0
vn -0.0009775162 0.9999995 0
vn -0.0009775162 0.9999995 0
vn -0.0009775162 0.9999995 0
vn -0.0009775162 0.9999995 0
vn -0.0009775162 0.9999995 0
vn -0.0009775162 0.9999995 0
vn -0.0009775162 0.9999995 0
vn -0.0009775162 0.9999995 0
vn -0.0009775162 0.9999995 0
vn -0.0009775162 0.9999995 0
vn -0.0009775162 0.9999995 0
vn -0.0009775162 0.9999995 0
vn -0.0009775162 0.9999995 0
vn -0.0009775162 0.9999995 0
vn -0.0009775162 0.9999995 0
vn -0.0009775162 0.9999995 0
vn -0.0009775162 0.9999995 0
vn -0.0009775162 0.9999995 0
vn -0.0009775162 0.9999995 0
vn -0.0009775162 0.9999995 0
vn -0.0009775162 0.9999995 0
vn -0.0009775162 0.9999995 0
vn -0.0009775162 0.9999995 0
vn -0.0009775162 0.9999995 0
vn -0.0009775162 0.9999995 0
vn -0.0009775162 0.9999995 0
vn -0.0009775162 0.9999995 0
vn -0.0009775162 0.9999995 0
vn -0.0009775162 -0.9999995 0
vn -0.0009775162 -0.9999995 0
vn -0.0009775162 -0.9999995 0
vn -0.0009775162 -0.9999995 0
vn -0.0009775162 -0.9999995 0
vn -0.0009775162 -0.9999995 0
vn -0.0009775162 -0.9999995 0
vn -0.0009775162 -0.9999995 0
vn -0.0009775162 -0.9999995 0
vn -0.0009775162 -0.9999995 0
vn -0.0009775162 -0.9999995 0
vn -0.0009775162 -0.9999995 0
vn -0.0009775162 -0.9999995 0
vn -0.0009775162 -0.9999995 0
vn -0.0009775162 -0.9999995 0
vn -0.0009775162 -0.9999995 0
vn -0.0009775162 -0.9999995 0
vn -0.0009775162 -0.9999995 0
vn -0.0009775162 -0.9999995 0
vn -0.0009775162 -0.9999995 0
vn -0.0009775162 -0.9999995 0
vn -0.0009775162 -0.9999995 0
vn -0.0009775162 -0.9999995 0
vn -0.0009775162 -0.9999995 0
vn -0.0009775162 -0.9999995 0
vn -0.0009775162 -0.9999995 0
vn -0.0009775162 -0.9999995 0
vn -0.0009775162 -0.9999995 0
vn -0.0009775162 -0.9999995 0
vn -0.0009775162 -0.9999995 0
vn -0.0009775162 -0.9999995 0
vn -0.0009775162 -0.9999995 0
vn -0.0009775162 -0.9999995 0
vn -0.0009775162 -0.9999995 0
vn -0.0009775162 -0.9999995 0
vn -0.0009775162 -0.9999995 0
vn -0.0009775162 -0.9999995 0
vn -0.0009775162 -0.9999995 0
vn -0.0009775162 -0.9999995 0
vn -0.0009775162 -0.9999995 0
g Kanaami_0
f 3/3/3 2/2/2 1/1/1
f 4/4/4 1/1/1 2/2/2
f 7/7/7 6/6/6 5/5/5
f 8/8/8 5/5/5 6/6/6
f 11/11/11 10/10/10 9/9/9
f 12/12/12 9/9/9 10/10/10
f 15/15/15 14/14/14 13/13/13
f 16/16/16 13/13/13 14/14/14
f 19/19/19 18/18/18 17/17/17
f 20/20/20 17/17/17 18/18/18
f 23/23/23 22/22/22 21/21/21
f 24/24/24 21/21/21 22/22/22
f 27/27/27 26/26/26 25/25/25
f 28/28/28 25/25/25 26/26/26
f 31/31/31 30/30/30 29/29/29
f 32/32/32 29/29/29 30/30/30
f 35/35/35 34/34/34 33/33/33
f 36/36/36 33/33/33 34/34/34
f 39/39/39 38/38/38 37/37/37
f 40/40/40 37/37/37 38/38/38
f 43/43/43 42/42/42 41/41/41
f 41/41/41 44/44/44 43/43/43
f 47/47/47 46/46/46 45/45/45
f 45/45/45 48/48/48 47/47/47
f 51/51/51 50/50/50 49/49/49
f 49/49/49 52/52/52 51/51/51
f 55/55/55 54/54/54 53/53/53
f 53/53/53 56/56/56 55/55/55
f 59/59/59 58/58/58 57/57/57
f 57/57/57 60/60/60 59/59/59
f 63/63/63 62/62/62 61/61/61
f 61/61/61 64/64/64 63/63/63
f 67/67/67 66/66/66 65/65/65
f 65/65/65 68/68/68 67/67/67
f 71/71/71 70/70/70 69/69/69
f 69/69/69 72/72/72 71/71/71
f 75/75/75 74/74/74 73/73/73
f 73/73/73 76/76/76 75/75/75
f 79/79/79 78/78/78 77/77/77
f 77/77/77 80/80/80 79/79/79
