g Kanaami
v -7.462364 99.82631 -54.10608
v -4.577637E-05 96.13722 -47.57598
v -7.462364 96.13722 -47.57598
v -4.577637E-05 99.82631 -54.10608
v -4.577637E-05 96.13722 -47.57598
v 7.462421 99.82631 -54.10608
v 7.462421 96.13722 -47.57598
v -4.577637E-05 99.82631 -54.10608
v -7.462364 95.43567 -46.3341
v -4.577637E-05 91.74658 -39.80386
v -7.462364 91.74658 -39.80386
v -4.577637E-05 95.43567 -46.3341
v -4.577637E-05 91.74658 -39.80386
v 7.462421 95.43567 -46.3341
v 7.462421 91.74658 -39.80386
v -4.577637E-05 95.43567 -46.3341
v -7.462364 91.04503 -38.56198
v -4.577637E-05 87.35609 -32.03188
v -7.462364 87.35609 -32.03188
v -4.577637E-05 91.04503 -38.56198
v -4.577637E-05 87.35609 -32.03188
v 7.462421 91.04503 -38.56198
v 7.462421 87.35609 -32.03188
v -4.577637E-05 91.04503 -38.56198
v -7.462364 86.65454 -30.79
v -4.577637E-05 82.96545 -24.25975
v -7.462364 82.96545 -24.25975
v -4.577637E-05 86.65454 -30.79
v -4.577637E-05 82.96545 -24.25975
v 7.462421 86.65454 -30.79
v 7.462421 82.96545 -24.25975
v -4.577637E-05 86.65454 -30.79
v -7.462364 82.2639 -23.01787
v -4.577637E-05 78.57481 -16.48777
v -7.462364 78.57481 -16.48777
v -4.577637E-05 82.2639 -23.01787
v -4.577637E-05 78.57481 -16.48777
v 7.462421 82.2639 -23.01787
v 7.462421 78.57481 -16.48777
v -4.577637E-05 82.2639 -23.01787
v -7.462364 73.48262 -7.47377
v -4.577637E-05 69.79353 -0.9435234
v -7.462364 69.79353 -0.9435234
v -4.577637E-05 73.48262 -7.47377
v -4.577637E-05 69.79353 -0.9435234
v 7.462421 73.48262 -7.47377
v 7.462421 69.79353 -0.9435234
v -4.577637E-05 73.48262 -7.47377
v -7.462364 98.78708 -54.71936
v -7.462364 95.09801 -48.18911
v -4.577637E-05 95.09801 -48.18911
v -4.577637E-05 98.78708 -54.71936
v -4.577637E-05 95.09801 -48.18911
v 7.462421 95.09801 -48.18911
v 7.462421 98.78708 -54.71936
v -4.577637E-05 98.78708 -54.71936
v -7.462364 94.39644 -46.94723
v -7.462364 90.70737 -40.41713
v -4.577637E-05 90.70737 -40.41713
v -4.577637E-05 94.39644 -46.94723
v -4.577637E-05 90.70737 -40.41713
v 7.462421 90.70737 -40.41713
v 7.462421 94.39644 -46.94723
v -4.577637E-05 94.39644 -46.94723
v -7.462364 90.0058 -39.17525
v -7.462364 86.31673 -32.645
v -4.577637E-05 86.31673 -32.645
v -4.577637E-05 90.0058 -39.17525
v -4.577637E-05 86.31673 -32.645
v 7.462421 86.31673 -32.645
v 7.462421 90.0058 -39.17525
v -4.577637E-05 90.0058 -39.17525
v -7.462364 85.61531 -31.40313
v -7.462364 81.92624 -24.87303
v -4.577637E-05 81.92624 -24.87303
v -4.577637E-05 85.61531 -31.40313
v -4.577637E-05 81.92624 -24.87303
v 7.462421 81.92624 -24.87303
v 7.462421 85.61531 -31.40313
v -4.577637E-05 85.61531 -31.40313
v -7.462364 81.22467 -23.63115
v -7.462364 77.5356 -17.1009
v -4.577637E-05 77.5356 -17.1009
v -4.577637E-05 81.22467 -23.63115
v -4.577637E-05 77.5356 -17.1009
v 7.462421 77.5356 -17.1009
v 7.462421 81.22467 -23.63115
v -4.577637E-05 81.22467 -23.63115
v -7.462364 72.44339 -8.087044
v -7.462364 68.75432 -1.556797
v -4.577637E-05 68.75432 -1.556797
v -4.577637E-05 72.44339 -8.087044
v -4.577637E-05 68.75432 -1.556797
v 7.462421 68.75432 -1.556797
v 7.462421 72.44339 -8.087044
v -4.577637E-05 72.44339 -8.087044
v -7.462364 76.83403 -15.85902
v -7.462364 73.14496 -9.328773
v -4.577637E-05 73.14496 -9.328773
v -4.577637E-05 76.83403 -15.85902
v -4.577637E-05 73.14496 -9.328773
v 7.462421 73.14496 -9.328773
v 7.462421 76.83403 -15.85902
v -4.577637E-05 76.83403 -15.85902
v -7.462364 77.87326 -15.2459
v -4.577637E-05 74.18417 -8.715649
v -7.462364 74.18417 -8.715649
v -4.577637E-05 77.87326 -15.2459
v -4.577637E-05 74.18417 -8.715649
v 7.462421 77.87326 -15.2459
v 7.462421 74.18417 -8.715649
v -4.577637E-05 77.87326 -15.2459
vt -1.5 2.5
vt 2.5 -1.5
vt 2.5 2.5
vt -1.5 -1.5
vt -1.5 2.5
vt 2.5 -1.5
vt 2.5 2.5
vt -1.5 -1.5
vt -1.5 2.5
vt 2.5 -1.5
vt 2.5 2.5
vt -1.5 -1.5
vt -1.5 2.5
vt 2.5 -1.5
vt 2.5 2.5
vt -1.5 -1.5
vt -1.5 2.5
vt 2.5 -1.5
vt 2.5 2.5
vt -1.5 -1.5
vt -1.5 2.5
vt 2.5 -1.5
vt 2.5 2.5
vt -1.5 -1.5
vt -1.5 2.5
vt 2.5 -1.5
vt 2.5 2.5
vt -1.5 -1.5
vt -1.5 2.5
vt 2.5 -1.5
vt 2.5 2.5
vt -1.5 -1.5
vt -1.5 2.5
vt 2.5 -1.5
vt 2.5 2.5
vt -1.5 -1.5
vt -1.5 2.5
vt 2.5 -1.5
vt 2.5 2.5
vt -1.5 -1.5
vt -1.5 2.5
vt 2.5 -1.5
vt 2.5 2.5
vt -1.5 -1.5
vt -1.5 2.5
vt 2.5 -1.5
vt 2.5 2.5
vt -1.5 -1.5
vt -1.5 2.5
vt 2.5 2.5
vt 2.5 -1.5
vt -1.5 -1.5
vt -1.5 2.5
vt 2.5 2.5
vt 2.5 -1.5
vt -1.5 -1.5
vt -1.5 2.5
vt 2.5 2.5
vt 2.5 -1.5
vt -1.5 -1.5
vt -1.5 2.5
vt 2.5 2.5
vt 2.5 -1.5
vt -1.5 -1.5
vt -1.5 2.5
vt 2.5 2.5
vt 2.5 -1.5
vt -1.5 -1.5
vt -1.5 2.5
vt 2.5 2.5
vt 2.5 -1.5
vt -1.5 -1.5
vt -1.5 2.5
vt 2.5 2.5
vt 2.5 -1.5
vt -1.5 -1.5
vt -1.5 2.5
vt 2.5 2.5
vt 2.5 -1.5
vt -1.5 -1.5
vt -1.5 2.5
vt 2.5 2.5
vt 2.5 -1.5
vt -1.5 -1.5
vt -1.5 2.5
vt 2.5 2.5
vt 2.5 -1.5
vt -1.5 -1.5
vt -1.5 2.5
vt 2.5 2.5
vt 2.5 -1.5
vt -1.5 -1.5
vt -1.5 2.5
vt 2.5 2.5
vt 2.5 -1.5
vt -1.5 -1.5
vt -1.5 2.5
vt 2.5 2.5
vt 2.5 -1.5
vt -1.5 -1.5
vt -1.5 2.5
vt 2.5 2.5
vt 2.5 -1.5
vt -1.5 -1.5
vt -1.5 2.5
vt 2.5 -1.5
vt 2.5 2.5
vt -1.5 -1.5
vt -1.5 2.5
vt 2.5 -1.5
vt 2.5 2.5
vt -1.5 -1.5
vn 0.0008508563 0.8706738 0.4918601
vn 0.0008508563 0.8706738 0.4918601
vn 0.0008508563 0.8706738 0.4918601
vn 0.0008508563 0.8706738 0.4918601
vn 0.0008508563 0.8706738 0.4918601
vn 0.0008508563 0.8706738 0.4918601
vn 0.0008508563 0.8706738 0.4918601
vn 0.0008508563 0.8706738 0.4918601
vn 0.0008508563 0.8706738 0.4918601
vn 0.0008508563 0.8706738 0.4918601
vn 0.0008508563 0.8706738 0.4918601
vn 0.0008508563 0.8706738 0.4918601
vn 0.0008508563 0.8706738 0.4918601
vn 0.0008508563 0.8706738 0.4918601
vn 0.0008508563 0.8706738 0.4918601
vn 0.0008508563 0.8706738 0.4918601
vn 0.0008508563 0.8706738 0.4918601
vn 0.0008508563 0.8706738 0.4918601
vn 0.0008508563 0.8706738 0.4918601
vn 0.0008508563 0.8706738 0.4918601
vn 0.0008508563 0.8706738 0.4918601
vn 0.0008508563 0.8706738 0.4918601
vn 0.0008508563 0.8706738 0.4918601
vn 0.0008508563 0.8706738 0.4918601
vn 0.0008508563 0.8706738 0.4918601
vn 0.0008508563 0.8706738 0.4918601
vn 0.0008508563 0.8706738 0.4918601
vn 0.0008508563 0.8706738 0.4918601
vn 0.0008508563 0.8706738 0.4918601
vn 0.0008508563 0.8706738 0.4918601
vn 0.0008508563 0.8706738 0.4918601
vn 0.0008508563 0.8706738 0.4918601
vn 0.0008508563 0.8706738 0.4918601
vn 0.0008508563 0.8706738 0.4918601
vn 0.0008508563 0.8706738 0.4918601
vn 0.0008508563 0.8706738 0.4918601
vn 0.0008508563 0.8706738 0.4918601
vn 0.0008508563 0.8706738 0.4918601
vn 0.0008508563 0.8706738 0.4918601
vn 0.0008508563 0.8706738 0.4918601
vn 0.0008508563 0.8706738 0.4918601
vn 0.0008508563 0.8706738 0.4918601
vn 0.0008508563 0.8706738 0.4918601
vn 0.0008508563 0.8706738 0.4918601
vn 0.0008508563 0.8706738 0.4918601
vn 0.0008508563 0.8706738 0.4918601
vn 0.0008508563 0.8706738 0.4918601
vn 0.0008508563 0.8706738 0.4918601
vn 0.0008508563 -0.8706734 -0.491861
vn 0.0008508563 -0.8706734 -0.491861
vn 0.0008508563 -0.8706734 -0.491861
vn 0.0008508563 -0.8706734 -0.491861
vn 0.0008508563 -0.8706734 -0.491861
vn 0.0008508563 -0.8706734 -0.491861
vn 0.0008508563 -0.8706734 -0.491861
vn 0.0008508563 -0.8706734 -0.491861
vn 0.0008508563 -0.8706734 -0.491861
vn 0.0008508563 -0.8706734 -0.491861
vn 0.0008508563 -0.8706734 -0.491861
vn 0.0008508563 -0.8706734 -0.491861
vn 0.0008508563 -0.8706734 -0.491861
vn 0.0008508563 -0.8706734 -0.491861
vn 0.0008508563 -0.8706734 -0.491861
vn 0.0008508563 -0.8706734 -0.491861
vn 0.0008508563 -0.8706734 -0.491861
vn 0.0008508563 -0.8706734 -0.491861
vn 0.0008508563 -0.8706734 -0.491861
vn 0.0008508563 -0.8706734 -0.491861
vn 0.0008508563 -0.8706734 -0.491861
vn 0.0008508563 -0.8706734 -0.491861
vn 0.0008508563 -0.8706734 -0.491861
vn 0.0008508563 -0.8706734 -0.491861
vn 0.0008508563 -0.8706734 -0.491861
vn 0.0008508563 -0.8706734 -0.491861
vn 0.0008508563 -0.8706734 -0.491861
vn 0.0008508563 -0.8706734 -0.491861
vn 0.0008508563 -0.8706734 -0.491861
vn 0.0008508563 -0.8706734 -0.491861
vn 0.0008508563 -0.8706734 -0.491861
vn 0.0008508563 -0.8706734 -0.491861
vn 0.0008508563 -0.8706734 -0.491861
vn 0.0008508563 -0.8706734 -0.491861
vn 0.0008508563 -0.8706734 -0.491861
vn 0.0008508563 -0.8706734 -0.491861
vn 0.0008508563 -0.8706734 -0.491861
vn 0.0008508563 -0.8706734 -0.491861
vn 0.0008508563 -0.8706734 -0.491861
vn 0.0008508563 -0.8706734 -0.491861
vn 0.0008508563 -0.8706734 -0.491861
vn 0.0008508563 -0.8706734 -0.491861
vn 0.0008508563 -0.8706734 -0.491861
vn 0.0008508563 -0.8706734 -0.491861
vn 0.0008508563 -0.8706734 -0.491861
vn 0.0008508563 -0.8706734 -0.491861
vn 0.0008508563 -0.8706734 -0.491861
vn 0.0008508563 -0.8706734 -0.491861
vn 0.0008508563 -0.8706734 -0.491861
vn 0.0008508563 -0.8706734 -0.491861
vn 0.0008508563 -0.8706734 -0.491861
vn 0.0008508563 -0.8706734 -0.491861
vn 0.0008508563 -0.8706734 -0.491861
vn 0.0008508563 -0.8706734 -0.491861
vn 0.0008508563 -0.8706734 -0.491861
vn 0.0008508563 -0.8706734 -0.491861
vn 0.0008508563 0.8706738 0.4918601
vn 0.0008508563 0.8706738 0.4918601
vn 0.0008508563 0.8706738 0.4918601
vn 0.0008508563 0.8706738 0.4918601
vn 0.0008508563 0.8706738 0.4918601
vn 0.0008508563 0.8706738 0.4918601
vn 0.0008508563 0.8706738 0.4918601
vn 0.0008508563 0.8706738 0.4918601
g Kanaami_0
f 3/3/3 2/2/2 1/1/1
f 4/4/4 1/1/1 2/2/2
f 7/7/7 6/6/6 5/5/5
f 8/8/8 5/5/5 6/6/6
f 11/11/11 10/10/10 9/9/9
f 12/12/12 9/9/9 10/10/10
f 15/15/15 14/14/14 13/13/13
f 16/16/16 13/13/13 14/14/14
f 19/19/19 18/18/18 17/17/17
f 20/20/20 17/17/17 18/18/18
f 23/23/23 22/22/22 21/21/21
f 24/24/24 21/21/21 22/22/22
f 27/27/27 26/26/26 25/25/25
f 28/28/28 25/25/25 26/26/26
f 31/31/31 30/30/30 29/29/29
f 32/32/32 29/29/29 30/30/30
f 35/35/35 34/34/34 33/33/33
f 36/36/36 33/33/33 34/34/34
f 39/39/39 38/38/38 37/37/37
f 40/40/40 37/37/37 38/38/38
f 43/43/43 42/42/42 41/41/41
f 44/44/44 41/41/41 42/42/42
f 47/47/47 46/46/46 45/45/45
f 48/48/48 45/45/45 46/46/46
f 51/51/51 50/50/50 49/49/49
f 49/49/49 52/52/52 51/51/51
f 55/55/55 54/54/54 53/53/53
f 53/53/53 56/56/56 55/55/55
f 59/59/59 58/58/58 57/57/57
f 57/57/57 60/60/60 59/59/59
f 63/63/63 62/62/62 61/61/61
f 61/61/61 64/64/64 63/63/63
f 67/67/67 66/66/66 65/65/65
f 65/65/65 68/68/68 67/67/67
f 71/71/71 70/70/70 69/69/69
f 69/69/69 72/72/72 71/71/71
f 75/75/75 74/74/74 73/73/73
f 73/73/73 76/76/76 75/75/75
f 79/79/79 78/78/78 77/77/77
f 77/77/77 80/80/80 79/79/79
f 83/83/83 82/82/82 81/81/81
f 81/81/81 84/84/84 83/83/83
f 87/87/87 86/86/86 85/85/85
f 85/85/85 88/88/88 87/87/87
f 91/91/91 90/90/90 89/89/89
f 89/89/89 92/92/92 91/91/91
f 95/95/95 94/94/94 93/93/93
f 93/93/93 96/96/96 95/95/95
f 99/99/99 98/98/98 97/97/97
f 97/97/97 100/100/100 99/99/99
f 103/103/103 102/102/102 101/101/101
f 101/101/101 104/104/104 103/103/103
f 107/107/107 106/106/106 105/105/105
f 108/108/108 105/105/105 106/106/106
f 111/111/111 110/110/110 109/109/109
f 112/112/112 109/109/109 110/110/110
