g Kanaami
v -3.578084 -7.152557E-06 7.614662
v 3.578678 -7.152557E-06 -7.152557E-06
v 3.578678 -7.152557E-06 7.614662
v -3.578084 -7.152557E-06 -7.152557E-06
v 3.578678 -7.152557E-06 -7.152557E-06
v -3.578084 -7.152557E-06 -7.614661
v 3.578678 -7.152557E-06 -7.614661
v -3.578084 -7.152557E-06 -7.152557E-06
v -3.578084 -1.199995 7.614662
v 3.578678 -1.199995 7.614662
v 3.578678 -1.200009 -7.152557E-06
v -3.578084 -1.199995 -7.152557E-06
v 3.578678 -1.200009 -7.152557E-06
v 3.578678 -1.199995 -7.614661
v -3.578084 -1.199995 -7.614661
v -3.578084 -1.199995 -7.152557E-06
vt -1.5 2.5
vt 2.5 -1.5
vt 2.5 2.5
vt -1.5 -1.5
vt -1.5 2.5
vt 2.5 -1.5
vt 2.5 2.5
vt -1.5 -1.5
vt -1.5 2.5
vt 2.5 2.5
vt 2.5 -1.5
vt -1.5 -1.5
vt -1.5 2.5
vt 2.5 2.5
vt 2.5 -1.5
vt -1.5 -1.5
vn -0.0009775162 0.9999995 0
vn -0.0009775162 0.9999995 0
vn -0.0009775162 0.9999995 0
vn -0.0009775162 0.9999995 0
vn -0.0009775162 0.9999995 0
vn -0.0009775162 0.9999995 0
vn -0.0009775162 0.9999995 0
vn -0.0009775162 0.9999995 0
vn -0.0009775162 -0.9999995 0
vn -0.0009775162 -0.9999995 0
vn -0.0009775162 -0.9999995 0
vn -0.0009775162 -0.9999995 0
vn -0.0009775162 -0.9999995 0
vn -0.0009775162 -0.9999995 0
vn -0.0009775162 -0.9999995 0
vn -0.0009775162 -0.9999995 0
g Kanaami_0
f 3/3/3 2/2/2 1/1/1
f 4/4/4 1/1/1 2/2/2
f 7/7/7 6/6/6 5/5/5
f 8/8/8 5/5/5 6/6/6
f 11/11/11 10/10/10 9/9/9
f 9/9/9 12/12/12 11/11/11
f 15/15/15 14/14/14 13/13/13
f 13/13/13 16/16/16 15/15/15
