g Lamp_Left_On_Body_LOD1
v -0.6107436 -0.2732721 -0.06721205
v -0.6541637 -0.1396429 -0.06721205
v -0.518473 -0.1107975 0.0502196
v -0.4840152 -0.2168517 0.0502196
v -0.5404882 -0.3949521 -0.06721205
v -0.4282587 -0.3134219 0.0502196
v -0.4464677 -0.4993718 -0.06721205
v -0.3536447 -0.3962956 0.0502196
v -0.3327923 -0.5819635 -0.06721205
v -0.2634304 -0.4618347 0.0502196
v -0.2044294 -0.6391172 -0.06721205
v -0.1615618 -0.5071841 0.0502196
v -0.06698895 -0.6683294 -0.06721205
v -0.05248863 -0.5303645 0.0502196
v 0.07352185 -0.6683294 -0.06721205
v 0.05902159 -0.5303645 0.0502196
v 0.2109623 -0.6391172 -0.06721205
v 0.1680948 -0.5071841 0.0502196
v 0.3393252 -0.5819635 -0.06721205
v 0.2699646 -0.4618347 0.0502196
v 0.4530007 -0.4993718 -0.06721205
v 0.3601776 -0.3962956 0.0502196
v 0.5470211 -0.3949521 -0.06721205
v 0.434793 -0.3134219 0.0502196
v 0.6172765 -0.2732721 -0.06721205
v 0.4905481 -0.2168517 0.0502196
v 0.6606966 -0.1396429 -0.06721205
v 0.5250059 -0.1107975 0.0502196
v 0.675384 0.0001038313 -0.06721205
v 0.5366616 0.0001038313 0.0502196
v 0.6606966 0.1398492 -0.06721205
v 0.5250059 0.1110051 0.0502196
v 0.5470211 0.3951598 -0.06721205
v 0.434793 0.3136295 0.0502196
v 0.4530007 0.4995795 -0.06721205
v 0.5470211 0.3951598 -0.06721205
v 0.434793 0.3136295 0.0502196
v 0.3601776 0.3965033 0.0502196
v 0.3393252 0.5821711 -0.06721205
v 0.2699646 0.4620423 0.0502196
v 0.2109623 0.6393248 -0.06721205
v 0.1680948 0.5073918 0.0502196
v 0.07352185 0.668537 -0.06721205
v 0.05902159 0.5305721 0.0502196
v -0.06698895 0.668537 -0.06721205
v -0.05248863 0.5305721 0.0502196
v -0.2044281 0.6393248 -0.06721205
v -0.1615618 0.5073918 0.0502196
v -0.3327923 0.5821711 -0.06721205
v -0.2634304 0.4620423 0.0502196
v -0.4464677 0.4995795 -0.06721205
v -0.3536447 0.3965033 0.0502196
v -0.5404869 0.3951598 -0.06721205
v -0.4282587 0.3136295 0.0502196
v -0.6107423 0.2734798 -0.06721205
v -0.4840139 0.2170593 0.0502196
v -0.6541623 0.1398492 -0.06721205
v -0.5184718 0.1110051 0.0502196
v -0.6688498 0.0001038313 -0.06721205
v -0.5301287 0.0001038313 0.0502196
v -0.518473 -0.1107975 0.0502196
v 0.003266454 0.0001038313 0.1861089
v -0.4840152 -0.2168517 0.0502196
v -0.4282587 -0.3134219 0.0502196
v -0.3536447 -0.3962956 0.0502196
v -0.2634304 -0.4618347 0.0502196
v -0.1615618 -0.5071841 0.0502196
v -0.05248863 -0.5303645 0.0502196
v 0.05902159 -0.5303645 0.0502196
v 0.1680948 -0.5071841 0.0502196
v 0.2699646 -0.4618347 0.0502196
v 0.3601776 -0.3962956 0.0502196
v 0.434793 -0.3134219 0.0502196
v 0.4905481 -0.2168517 0.0502196
v 0.5250059 -0.1107975 0.0502196
v 0.5366616 0.0001038313 0.0502196
v 0.5250059 0.1110051 0.0502196
v 0.434793 0.3136295 0.0502196
v 0.3601776 0.3965033 0.0502196
v 0.2699646 0.4620423 0.0502196
v 0.1680948 0.5073918 0.0502196
v 0.05902159 0.5305721 0.0502196
v -0.05248863 0.5305721 0.0502196
v -0.1615618 0.5073918 0.0502196
v -0.2634304 0.4620423 0.0502196
v -0.3536447 0.3965033 0.0502196
v -0.4282587 0.3136295 0.0502196
v -0.4840139 0.2170593 0.0502196
v -0.5184718 0.1110051 0.0502196
v -0.5301287 0.0001038313 0.0502196
vt 0.1005927 0.7573207
vt 0.09327617 0.7787933
vt 0.1199067 0.7853443
vt 0.1253659 0.7691301
vt 0.1121635 0.7378058
vt 0.1340252 0.7543966
vt 0.1275119 0.7210645
vt 0.1455333 0.7417716
vt 0.1460102 0.7078496
vt 0.1594008 0.7318196
vt 0.1668428 0.6987385
vt 0.1750126 0.7249424
vt 0.189106 0.6941202
vt 0.1917163 0.7214535
vt 0.2118461 0.6942206
vt 0.208784 0.7214912
vt 0.2340717 0.6990021
vt 0.2254752 0.7250553
vt 0.254829 0.7082638
vt 0.2410745 0.7320079
vt 0.2732269 0.7216042
vt 0.2549168 0.7420226
vt 0.2884874 0.7384459
vt 0.2663873 0.7546978
vt 0.2999579 0.7580612
vt 0.2750341 0.7694688
vt 0.307174 0.7796091
vt 0.2804681 0.7857333
vt 0.3099098 0.8022237
vt 0.2824761 0.802801
vt 0.3079019 0.8249387
vt 0.2809576 0.8199816
vt 0.2897926 0.8674196
vt 0.2673787 0.8516446
vt 0.2742435 0.8849014
vt 0.2897926 0.8674196
vt 0.2673787 0.8516446
vt 0.2557954 0.8646712
vt 0.2553812 0.8986936
vt 0.2416894 0.8749745
vt 0.2340466 0.9081812
vt 0.2257262 0.8820903
vt 0.2112187 0.9129752
vt 0.2086208 0.8857046
vt 0.1879012 0.9128622
vt 0.1911391 0.885667
vt 0.1651234 0.9078549
vt 0.1740589 0.8819522
vt 0.1439144 0.898154
vt 0.1581583 0.8747486
vt 0.1252278 0.8842112
vt 0.1441528 0.86437
vt 0.1099046 0.8666164
vt 0.1326698 0.8512932
vt 0.09857216 0.8462231
vt 0.1242615 0.8361205
vt 0.09232239 0.8238344
vt 0.1193169 0.8195925
vt 0.09052777 0.801295
vt 0.1178737 0.8023994
vt 0.1199067 0.7853443
vt 0.2001372 0.803554
vt 0.1253659 0.7691301
vt 0.1340252 0.7543966
vt 0.1455333 0.7417716
vt 0.1594008 0.7318196
vt 0.1750126 0.7249424
vt 0.1917163 0.7214535
vt 0.208784 0.7214912
vt 0.2254752 0.7250553
vt 0.2410745 0.7320079
vt 0.2549168 0.7420226
vt 0.2663873 0.7546978
vt 0.2750341 0.7694688
vt 0.2804681 0.7857333
vt 0.2824761 0.802801
vt 0.2809576 0.8199816
vt 0.2673787 0.8516446
vt 0.2557954 0.8646712
vt 0.2416894 0.8749745
vt 0.2257262 0.8820903
vt 0.2086208 0.8857046
vt 0.1911391 0.885667
vt 0.1740589 0.8819522
vt 0.1581583 0.8747486
vt 0.1441528 0.86437
vt 0.1326698 0.8512932
vt 0.1242615 0.8361205
vt 0.1193169 0.8195925
vt 0.1178737 0.8023994
vn -0.7360488 -0.3286705 0.5917836
vn -0.7884121 -0.1684072 0.5916463
vn -0.5377033 -0.1144572 0.8353291
vn -0.5027944 -0.223944 0.8348933
vn -0.6519504 -0.4746529 0.5913251
vn -0.444084 -0.3223234 0.8360006
vn -0.5408767 -0.6000073 0.5894435
vn -0.3679193 -0.4080088 0.8355622
vn -0.404415 -0.6999735 0.5886303
vn -0.2743002 -0.4762397 0.8354371
vn -0.248912 -0.7697912 0.5877622
vn -0.1695737 -0.5222558 0.8357593
vn -0.08388841 -0.8062868 0.5855461
vn -0.05691344 -0.5460573 0.8358123
vn 0.08589542 -0.8078735 0.5830629
vn 0.05733365 -0.5460573 0.8357836
vn 0.2525058 -0.7729647 0.5820364
vn 0.169994 -0.5222558 0.8356739
vn 0.4080088 -0.7047338 0.5804129
vn 0.2747205 -0.4762397 0.835299
vn 0.5460573 -0.6047676 0.5797219
vn 0.3683396 -0.4080088 0.835377
vn 0.6603044 -0.4794132 0.5780667
vn 0.4445044 -0.3223234 0.8357772
vn 0.7459897 -0.331844 0.5773897
vn 0.5016279 -0.223944 0.8355947
vn 0.7999398 -0.169994 0.5754984
vn 0.5381235 -0.1144572 0.8350585
vn 0.8173941 -0.0002101064 0.5760788
vn 0.5492308 -0.0002101064 0.8356707
vn 0.7856588 0.1457723 0.6012409
vn 0.5381235 0.114037 0.835116
vn 0.6968 0.2854075 0.6580367
vn 0.5016279 0.2235237 0.8357072
vn 0.4841735 0.5377033 0.6902545
vn 0.5873132 0.4250429 0.6887683
vn 0.4445044 0.3234899 0.8353264
vn 0.3683396 0.4091753 0.8348063
vn 0.3619926 0.6249753 0.691641
vn 0.2747205 0.4758193 0.8355385
vn 0.223944 0.6852723 0.6930014
vn 0.169994 0.5234224 0.8349438
vn 0.07637483 0.715421 0.6945068
vn 0.05733365 0.5472238 0.8350203
vn -0.07436782 0.7138342 0.6963549
vn -0.05691344 0.5472238 0.8350491
vn -0.2203503 0.6820989 0.697271
vn -0.1695737 0.5234224 0.8350292
vn -0.356812 0.6202151 0.6985832
vn -0.2743002 0.4758193 0.8356766
vn -0.4774061 0.5313562 0.6998171
vn -0.3679193 0.4091753 0.8349916
vn -0.5757856 0.4186958 0.7022569
vn -0.444084 0.3234899 0.8355499
vn -0.6852723 0.2790605 0.6727013
vn -0.5027944 0.2235237 0.8350059
vn -0.7741312 0.141012 0.6171196
vn -0.5377033 0.114037 0.8353866
vn -0.8058665 -0.0002101064 0.5920973
vn -0.5503974 -0.0002101064 0.8349028
vn -0.1775076 -0.03829247 0.9833742
vn 0.0002101064 -0.0002101064 0.9999999
vn -0.1648135 -0.0732013 0.9836046
vn -0.1457723 -0.1065234 0.9835666
vn -0.120384 -0.1350852 0.9834936
vn -0.09023547 -0.1572999 0.9834197
vn -0.05532664 -0.1715807 0.9836153
vn -0.01883107 -0.1795146 0.983575
vn 0.01925129 -0.1795146 0.9835669
vn 0.05574691 -0.1715807 0.9835916
vn 0.09065574 -0.1572999 0.983381
vn 0.1208043 -0.1350852 0.9834421
vn 0.1461925 -0.1065234 0.9835042
vn 0.1652337 -0.0732013 0.9835342
vn 0.1763411 -0.03829247 0.983584
vn 0.1811013 -0.0002101064 0.9834644
vn 0.1763411 0.03787225 0.9836003
vn 0.1652337 0.07278109 0.9835653
vn 0.1208043 0.1346649 0.9834997
vn 0.09065574 0.1568796 0.9834481
vn 0.05574691 0.1711605 0.9836648
vn 0.01925129 0.1790943 0.9836435
vn -0.01883107 0.1790943 0.9836517
vn -0.05532664 0.1711605 0.9836885
vn -0.09023547 0.1568796 0.9834868
vn -0.120384 0.1346649 0.9835512
vn -0.1457723 0.1061031 0.983612
vn -0.1648135 0.07278109 0.9836358
vn -0.1775076 0.03787225 0.9833905
vn -0.1806811 -0.0002101064 0.9835417
g Lamp_Left_On_Body_LOD1_0
f 3/3/3 2/2/2 1/1/1
f 4/4/4 3/3/3 1/1/1
f 4/4/4 1/1/1 5/5/5
f 6/6/6 4/4/4 5/5/5
f 6/6/6 5/5/5 7/7/7
f 8/8/8 6/6/6 7/7/7
f 8/8/8 7/7/7 9/9/9
f 10/10/10 8/8/8 9/9/9
f 10/10/10 9/9/9 11/11/11
f 12/12/12 10/10/10 11/11/11
f 12/12/12 11/11/11 13/13/13
f 14/14/14 12/12/12 13/13/13
f 14/14/14 13/13/13 15/15/15
f 16/16/16 14/14/14 15/15/15
f 16/16/16 15/15/15 17/17/17
f 18/18/18 16/16/16 17/17/17
f 18/18/18 17/17/17 19/19/19
f 20/20/20 18/18/18 19/19/19
f 20/20/20 19/19/19 21/21/21
f 22/22/22 20/20/20 21/21/21
f 22/22/22 21/21/21 23/23/23
f 24/24/24 22/22/22 23/23/23
f 24/24/24 23/23/23 25/25/25
f 26/26/26 24/24/24 25/25/25
f 26/26/26 25/25/25 27/27/27
f 28/28/28 26/26/26 27/27/27
f 28/28/28 27/27/27 29/29/29
f 30/30/30 28/28/28 29/29/29
f 30/30/30 29/29/29 31/31/31
f 32/32/32 30/30/30 31/31/31
f 32/32/32 31/31/31 33/33/33
f 34/34/34 32/32/32 33/33/33
f 37/37/37 36/36/36 35/35/35
f 38/38/38 37/37/37 35/35/35
f 38/38/38 35/35/35 39/39/39
f 40/40/40 38/38/38 39/39/39
f 40/40/40 39/39/39 41/41/41
f 42/42/42 40/40/40 41/41/41
f 42/42/42 41/41/41 43/43/43
f 44/44/44 42/42/42 43/43/43
f 44/44/44 43/43/43 45/45/45
f 46/46/46 44/44/44 45/45/45
f 46/46/46 45/45/45 47/47/47
f 48/48/48 46/46/46 47/47/47
f 48/48/48 47/47/47 49/49/49
f 50/50/50 48/48/48 49/49/49
f 50/50/50 49/49/49 51/51/51
f 52/52/52 50/50/50 51/51/51
f 52/52/52 51/51/51 53/53/53
f 54/54/54 52/52/52 53/53/53
f 54/54/54 53/53/53 55/55/55
f 56/56/56 54/54/54 55/55/55
f 56/56/56 55/55/55 57/57/57
f 58/58/58 56/56/56 57/57/57
f 58/58/58 57/57/57 59/59/59
f 60/60/60 58/58/58 59/59/59
f 60/60/60 59/59/59 2/2/2
f 3/3/3 60/60/60 2/2/2
f 63/63/63 62/62/62 61/61/61
f 64/64/64 62/62/62 63/63/63
f 65/65/65 62/62/62 64/64/64
f 66/66/66 62/62/62 65/65/65
f 67/67/67 62/62/62 66/66/66
f 68/68/68 62/62/62 67/67/67
f 69/69/69 62/62/62 68/68/68
f 70/70/70 62/62/62 69/69/69
f 71/71/71 62/62/62 70/70/70
f 72/72/72 62/62/62 71/71/71
f 73/73/73 62/62/62 72/72/72
f 74/74/74 62/62/62 73/73/73
f 75/75/75 62/62/62 74/74/74
f 76/76/76 62/62/62 75/75/75
f 77/77/77 62/62/62 76/76/76
f 78/78/78 62/62/62 77/77/77
f 79/79/79 62/62/62 78/78/78
f 80/80/80 62/62/62 79/79/79
f 81/81/81 62/62/62 80/80/80
f 82/82/82 62/62/62 81/81/81
f 83/83/83 62/62/62 82/82/82
f 84/84/84 62/62/62 83/83/83
f 85/85/85 62/62/62 84/84/84
f 86/86/86 62/62/62 85/85/85
f 87/87/87 62/62/62 86/86/86
f 88/88/88 62/62/62 87/87/87
f 89/89/89 62/62/62 88/88/88
f 90/90/90 62/62/62 89/89/89
f 61/61/61 62/62/62 90/90/90
