g LOD1
v -0.02337894 -0.3530601 -2.980232E-07
v -0.02337894 -0.3386886 -2.980232E-07
v 2.980232E-07 -0.3530601 0.02755451
v 2.980232E-07 -0.3386886 0.02755451
v 2.980232E-07 -0.3386886 -0.02755442
v 2.980232E-07 -0.3530601 -0.02755442
v 0.02337882 -0.3386886 -2.980232E-07
v 0.02337882 -0.3530601 -2.980232E-07
v 2.980232E-07 -0.3386886 0.02755451
v 2.980232E-07 -0.3530601 0.02755451
v 2.980232E-07 -0.3728492 -2.980232E-07
v 2.980232E-07 -0.3728492 -2.980232E-07
v 2.980232E-07 -0.3728492 -2.980232E-07
v 2.980232E-07 -0.3728492 -2.980232E-07
v 2.980232E-07 -0.3195326 -2.980232E-07
v 2.980232E-07 -0.3195326 -2.980232E-07
v 2.980232E-07 -0.3195326 -2.980232E-07
v 2.980232E-07 -0.3195326 -2.980232E-07
v -0.03545749 -0.3744884 -2.980232E-07
v 2.980232E-07 -0.3331379 -2.980232E-07
v 2.980232E-07 -0.3692901 0.04376936
v 2.980232E-07 -0.3665489 -2.980232E-07
v 2.980232E-07 -0.3692901 0.04376936
v 2.980232E-07 -0.3331379 -2.980232E-07
v 0.03545737 -0.3744884 -2.980232E-07
v 2.980232E-07 -0.3665489 -2.980232E-07
v 0.03545737 -0.3744884 -2.980232E-07
v 2.980232E-07 -0.3331379 -2.980232E-07
v 2.980232E-07 -0.3692901 -0.04376924
v 2.980232E-07 -0.3665489 -2.980232E-07
v 2.980232E-07 -0.3692901 -0.04376924
v 2.980232E-07 -0.3331379 -2.980232E-07
v -0.03545749 -0.3744884 -2.980232E-07
v 2.980232E-07 -0.3665489 -2.980232E-07
v -0.1995382 -0.1704482 -2.980232E-07
v 2.980232E-07 -0.3601238 -2.980232E-07
v -0.136287 -0.1704482 -0.1362876
v -0.2489427 -0.006916404 -0.1437271
v -0.1437272 -0.006916404 -0.2489425
v -0.2874547 -0.006916404 -2.980232E-07
v 2.980232E-07 -0.1704482 -0.1995381
v 2.980232E-07 -0.3601238 -2.980232E-07
v 2.980232E-07 -0.006916404 -0.2874546
v 0.1437271 -0.006916404 -0.2489425
v 0.1362876 -0.1704482 -0.1362876
v 2.980232E-07 -0.3601238 -2.980232E-07
v 0.2489425 -0.006916404 -0.1437271
v 0.1995381 -0.1704482 -2.980232E-07
v 2.980232E-07 -0.3601238 -2.980232E-07
v 0.2874546 -0.006916404 -2.980232E-07
v 0.2489425 -0.006916404 0.1437272
v 0.1362876 -0.1704482 0.136287
v 2.980232E-07 -0.3601238 -2.980232E-07
v 0.1437271 -0.006916404 0.2489427
v 2.980232E-07 -0.1704482 0.1995382
v 2.980232E-07 -0.3601238 -2.980232E-07
v 2.980232E-07 -0.006916404 0.2874547
v -0.1437272 -0.006916404 0.2489427
v -0.136287 -0.1704482 0.136287
v 2.980232E-07 -0.3601238 -2.980232E-07
v -0.2489427 -0.006916404 0.1437272
v -0.1995382 -0.1704482 -2.980232E-07
v 2.980232E-07 -0.3601238 -2.980232E-07
v -0.2874547 -0.006916404 -2.980232E-07
v -0.2783677 0.1644377 -2.980232E-07
v -0.2410735 0.1644377 0.1391841
v -0.1391841 0.1644377 0.2410735
v 2.980232E-07 0.1644377 0.2783677
v 0.1391839 0.1644377 0.2410735
v 0.2410734 0.1644377 0.1391841
v 0.2783676 0.1644377 -2.980232E-07
v 0.2410734 0.1644377 -0.1391839
v 0.1391839 0.1644377 -0.2410734
v 2.980232E-07 0.1644377 -0.2783676
v -0.1391841 0.1644377 -0.2410734
v -0.2410735 0.1644377 -0.1391839
v -0.2783677 0.1644377 -2.980232E-07
v -0.1285357 0.2878478 -0.1285356
v -0.1881892 0.2878478 -2.980232E-07
v 0.1881891 0.2878478 -2.980232E-07
v 0.1285356 0.2878478 0.1285357
v 2.980232E-07 0.2878478 0.1881892
v -0.1285357 0.2878478 0.1285357
v -0.1881892 0.2878478 -2.980232E-07
v -0.09751356 0.3331373 -2.980232E-07
v -0.06660309 0.3331373 -0.06660298
v -0.09751356 0.3331373 -2.980232E-07
v -0.06660309 0.3331373 0.06660309
v 2.980232E-07 0.3331373 0.09751356
v 0.06660298 0.3331373 0.06660309
v 0.09751347 0.3331373 -2.980232E-07
v 0.1285356 0.2878478 -0.1285356
v 2.980232E-07 0.2878478 -0.1881891
v 0.06660298 0.3331373 -0.06660298
v 2.980232E-07 0.3331373 -0.09751347
v 2.980232E-07 0.3486212 -2.980232E-07
v 2.980232E-07 0.3486212 -2.980232E-07
v 2.980232E-07 0.3486212 -2.980232E-07
v 2.980232E-07 0.3486212 -2.980232E-07
v 2.980232E-07 0.3486212 -2.980232E-07
v 2.980232E-07 0.3486212 -2.980232E-07
v 2.980232E-07 0.3486212 -2.980232E-07
v 2.980232E-07 0.3486212 -2.980232E-07
vt 0.3603008 0.04176801
vt 0.3603008 0.06394125
vt 0.4798022 0.04176801
vt 0.4798022 0.06394125
vt 0.2407917 0.06394125
vt 0.2407917 0.04176801
vt 0.1212827 0.06394125
vt 0.1212827 0.04176801
vt 0.001773582 0.06394125
vt 0.001773582 0.04176801
vt 0.4421024 0.01124252
vt 0.04256346 0.01124252
vt 0.2030842 0.01124252
vt 0.2815816 0.01124252
vt 0.4421024 0.09348772
vt 0.04256346 0.09348772
vt 0.2030842 0.09348772
vt 0.2815816 0.09348772
vt 0.7823954 0.05886259
vt 0.8122019 0.09376307
vt 0.8472477 0.06595282
vt 0.8120642 0.004037562
vt 0.8420084 0.06595282
vt 0.8719603 0.09376307
vt 0.9460903 0.06504264
vt 0.871945 0.004014616
vt 0.5045224 0.06504264
vt 0.5731838 0.09376307
vt 0.6082372 0.06595282
vt 0.5731914 0.004014616
vt 0.6030056 0.06595282
vt 0.6329421 0.09376307
vt 0.6678503 0.05886259
vt 0.6330721 0.004037562
vt 0.9970146 0.3269912
vt 0.9588711 0.08853909
vt 0.8751727 0.3278785
vt 0.9132243 0.5394688
vt 0.8374652 0.5393847
vt 1.001267 0.5394306
vt 0.7499807 0.3277637
vt 0.790174 0.08854673
vt 0.750019 0.5393847
vt 0.6626109 0.5393847
vt 0.6249647 0.3278938
vt 0.7088466 0.08854673
vt 0.587433 0.5393847
vt 0.4999792 0.3277637
vt 0.5401725 0.08854673
vt 0.5000174 0.5393847
vt 0.4126095 0.5393847
vt 0.3749631 0.3278938
vt 0.4588298 0.08854673
vt 0.3374316 0.5393847
vt 0.2499777 0.3277637
vt 0.290171 0.08854673
vt 0.2500159 0.5393847
vt 0.1625773 0.5393847
vt 0.1247475 0.3278785
vt 0.2088436 0.08854673
vt 0.08678756 0.5394688
vt 0.003180921 0.3269912
vt 0.04013886 0.08853909
vt -0.001239959 0.5394306
vt 0.001039318 0.7613847
vt 0.0876748 0.7613924
vt 0.1623555 0.7613847
vt 0.2500159 0.7613924
vt 0.3377069 0.7613924
vt 0.4123265 0.7613924
vt 0.5000174 0.7613924
vt 0.5877084 0.7613924
vt 0.6623279 0.7613924
vt 0.7500113 0.7613924
vt 0.8376717 0.7613847
vt 0.9123601 0.7613924
vt 0.9989955 0.7613847
vt 0.8750197 0.9157713
vt 0.9973282 0.9157637
vt 0.5000174 0.9157713
vt 0.3750167 0.9157713
vt 0.2500159 0.9157713
vt 0.1250152 0.9157713
vt 0.002706709 0.9157637
vt 1.000013 0.9707876
vt 0.8750197 0.9707876
vt 1.440849E-05 0.9707876
vt 0.1250152 0.9707876
vt 0.2500159 0.9707876
vt 0.3750167 0.9707876
vt 0.5000174 0.9707876
vt 0.6250182 0.9157713
vt 0.750019 0.9157713
vt 0.6250182 0.9707876
vt 0.750019 0.9707876
vt 0.2078569 0.9908498
vt 0.2911882 0.9908498
vt 0.4578432 0.9908498
vt 0.5411897 0.9908498
vt 0.7078599 0.9908498
vt 0.7911912 0.9908498
vt 0.9578615 0.9908498
vt 0.04119437 0.9908498
vn -0.7790807 -0.4447701 0.4418289
vn -0.7790807 0.4447701 -0.4418289
vn -0.0009775162 -0.4486802 0.8936919
vn -0.0009775162 0.4486802 0.8936919
vn -0.0009775162 0.4486802 -0.8936919
vn -0.0009775162 -0.4486802 -0.8936919
vn 0.7790807 0.4447701 -0.4418289
vn 0.7790807 -0.4447701 -0.4418289
vn -0.0009775162 0.4486802 0.8936919
vn -0.0009775162 -0.4486802 0.8936919
vn -0.0009775162 -0.9999995 0
vn -0.0009775162 -0.9999995 0
vn -0.0009775162 -0.9999995 0
vn -0.0009775162 -0.9999995 0
vn -0.0009775162 0.9999995 0
vn -0.0009775162 0.9999995 0
vn -0.0009775162 0.9999995 0
vn -0.0009775162 0.9999995 0
vn -0.7047895 -0.06744868 0.7062028
vn -0.0009775162 0.9999995 0
vn -0.0009775162 0.380254 0.9248816
vn -0.0009775162 -0.9999995 0
vn -0.0009775162 0.380254 0.9248816
vn -0.0009775162 0.9999995 0
vn 0.7047895 -0.06744868 -0.7062028
vn -0.0009775162 -0.9999995 0
vn 0.7047895 -0.06744868 -0.7062028
vn -0.0009775162 0.9999995 0
vn -0.0009775162 0.380254 -0.9248816
vn -0.0009775162 -0.9999995 0
vn -0.0009775162 0.380254 -0.9248816
vn -0.0009775162 0.9999995 0
vn -0.7047895 -0.06744868 0.7062028
vn -0.0009775162 -0.9999995 0
vn -0.8377317 -0.5444767 -0.04184039
vn -0.0009775162 -0.9999995 0
vn -0.4193547 -0.5444767 -0.7264205
vn -0.8611921 -0.1045943 -0.4974014
vn -0.497556 -0.1045943 -0.8611028
vn -0.9941344 -0.1045943 -0.02750982
vn -0.0009775162 -0.5444767 -0.8387754
vn -0.0009775162 -0.9999995 0
vn -0.0009775162 -0.1045943 -0.9945145
vn 0.497556 -0.1045943 -0.8611028
vn 0.4193546 -0.5444767 -0.7264206
vn -0.0009775162 -0.9999995 0
vn 0.8611922 -0.1045943 -0.4974013
vn 0.8377318 -0.5444767 -0.04183968
vn -0.0009775162 -0.9999995 0
vn 0.9941344 -0.1045943 -0.02750982
vn 0.8611922 -0.1045943 0.4974013
vn 0.7262949 -0.5444767 0.4195722
vn -0.0009775162 -0.9999995 0
vn 0.497556 -0.1045943 0.8611028
vn -0.0009775162 -0.5444767 0.8387754
vn -0.0009775162 -0.9999995 0
vn -0.0009775162 -0.1045943 0.9945145
vn -0.497556 -0.1045943 0.8611028
vn -0.4193547 -0.5444767 0.7264205
vn -0.0009775162 -0.9999995 0
vn -0.8611921 -0.1045943 0.4974014
vn -0.8377317 -0.5444767 -0.04184039
vn -0.0009775162 -0.9999995 0
vn -0.9941344 -0.1045943 -0.02750982
vn -0.8690122 0.4936459 -0.03363718
vn -0.7536653 0.4936459 0.4339381
vn -0.4349949 0.4936459 0.7530559
vn -0.0009775162 0.4936459 0.8696625
vn 0.4349949 0.4936459 0.7530559
vn 0.7536653 0.4936459 0.4339381
vn 0.8690123 0.4936459 -0.03363541
vn 0.7536653 0.4936459 -0.4339381
vn 0.4349949 0.4936459 -0.7530559
vn -0.0009775162 0.4936459 -0.8696625
vn -0.4349949 0.4936459 -0.7530559
vn -0.7536653 0.4936459 -0.4339381
vn -0.8690122 0.4936459 -0.03363718
vn -0.3313781 0.7478002 -0.5753115
vn -0.6637338 0.7478002 -0.01588228
vn 0.6637338 0.7478002 -0.01588228
vn 0.5757573 0.7478002 0.3306031
vn -0.0009775162 0.7478002 0.6639231
vn -0.3313781 0.7478002 0.5753115
vn -0.6637338 0.7478002 -0.01588228
vn -0.4073163 0.9132871 0
vn -0.204301 0.9139781 -0.3505784
vn -0.4073163 0.9132871 0
vn -0.204301 0.9139781 0.3505784
vn -0.0009775162 0.9139781 0.4057624
vn 0.3528835 0.9139781 0.2002929
vn 0.4073163 0.9132872 0
vn 0.3313782 0.7478002 -0.5753115
vn -0.0009775162 0.7478002 -0.6639231
vn 0.204301 0.9139781 -0.3505784
vn -0.0009775162 0.9139781 -0.4057624
vn -0.0009775162 0.9999995 0
vn -0.0009775162 0.9999995 0
vn -0.0009775162 0.9999995 0
vn -0.0009775162 0.9999995 0
vn -0.0009775162 0.9999995 0
vn -0.0009775162 0.9999995 0
vn -0.0009775162 0.9999995 0
vn -0.0009775162 0.9999995 0
g LOD1_0
f 3/3/3 2/2/2 1/1/1
f 3/3/3 4/4/4 2/2/2
f 1/1/1 2/2/2 5/5/5
f 1/1/1 5/5/5 6/6/6
f 6/6/6 5/5/5 7/7/7
f 6/6/6 7/7/7 8/8/8
f 8/8/8 7/7/7 9/9/9
f 8/8/8 9/9/9 10/10/10
f 1/1/1 11/11/11 3/3/3
f 10/10/10 12/12/12 8/8/8
f 8/8/8 13/13/13 6/6/6
f 6/6/6 14/14/14 1/1/1
f 4/4/4 15/15/15 2/2/2
f 7/7/7 16/16/16 9/9/9
f 5/5/5 17/17/17 7/7/7
f 2/2/2 18/18/18 5/5/5
f 21/21/21 20/20/20 19/19/19
f 19/19/19 22/22/22 21/21/21
f 25/25/25 24/24/24 23/23/23
f 23/23/23 26/26/26 25/25/25
f 29/29/29 28/28/28 27/27/27
f 27/27/27 30/30/30 29/29/29
f 33/33/33 32/32/32 31/31/31
f 31/31/31 34/34/34 33/33/33
f 37/37/37 36/36/36 35/35/35
f 35/35/35 38/38/38 37/37/37
f 38/38/38 39/39/39 37/37/37
f 35/35/35 40/40/40 38/38/38
f 39/39/39 41/41/41 37/37/37
f 41/41/41 42/42/42 37/37/37
f 39/39/39 43/43/43 41/41/41
f 41/41/41 43/43/43 44/44/44
f 41/41/41 44/44/44 45/45/45
f 45/45/45 46/46/46 41/41/41
f 44/44/44 47/47/47 45/45/45
f 47/47/47 48/48/48 45/45/45
f 48/48/48 49/49/49 45/45/45
f 47/47/47 50/50/50 48/48/48
f 48/48/48 50/50/50 51/51/51
f 48/48/48 51/51/51 52/52/52
f 52/52/52 53/53/53 48/48/48
f 51/51/51 54/54/54 52/52/52
f 54/54/54 55/55/55 52/52/52
f 55/55/55 56/56/56 52/52/52
f 54/54/54 57/57/57 55/55/55
f 55/55/55 57/57/57 58/58/58
f 55/55/55 58/58/58 59/59/59
f 59/59/59 60/60/60 55/55/55
f 58/58/58 61/61/61 59/59/59
f 61/61/61 62/62/62 59/59/59
f 62/62/62 63/63/63 59/59/59
f 61/61/61 64/64/64 62/62/62
f 61/61/61 65/65/65 64/64/64
f 61/61/61 66/66/66 65/65/65
f 58/58/58 66/66/66 61/61/61
f 58/58/58 67/67/67 66/66/66
f 57/57/57 67/67/67 58/58/58
f 57/57/57 68/68/68 67/67/67
f 54/54/54 68/68/68 57/57/57
f 54/54/54 69/69/69 68/68/68
f 51/51/51 69/69/69 54/54/54
f 51/51/51 70/70/70 69/69/69
f 50/50/50 70/70/70 51/51/51
f 50/50/50 71/71/71 70/70/70
f 47/47/47 71/71/71 50/50/50
f 47/47/47 72/72/72 71/71/71
f 44/44/44 72/72/72 47/47/47
f 44/44/44 73/73/73 72/72/72
f 43/43/43 73/73/73 44/44/44
f 43/43/43 74/74/74 73/73/73
f 39/39/39 74/74/74 43/43/43
f 39/39/39 75/75/75 74/74/74
f 38/38/38 75/75/75 39/39/39
f 38/38/38 76/76/76 75/75/75
f 40/40/40 76/76/76 38/38/38
f 40/40/40 77/77/77 76/76/76
f 76/76/76 78/78/78 75/75/75
f 79/79/79 76/76/76 77/77/77
f 79/79/79 78/78/78 76/76/76
f 72/72/72 80/80/80 71/71/71
f 80/80/80 70/70/70 71/71/71
f 80/80/80 81/81/81 70/70/70
f 70/70/70 81/81/81 69/69/69
f 69/69/69 81/81/81 82/82/82
f 69/69/69 82/82/82 68/68/68
f 82/82/82 67/67/67 68/68/68
f 82/82/82 83/83/83 67/67/67
f 67/67/67 83/83/83 66/66/66
f 66/66/66 83/83/83 84/84/84
f 66/66/66 84/84/84 65/65/65
f 85/85/85 78/78/78 79/79/79
f 85/85/85 86/86/86 78/78/78
f 83/83/83 87/87/87 84/84/84
f 83/83/83 88/88/88 87/87/87
f 89/89/89 83/83/83 82/82/82
f 89/89/89 88/88/88 83/83/83
f 81/81/81 89/89/89 82/82/82
f 81/81/81 90/90/90 89/89/89
f 91/91/91 90/90/90 81/81/81
f 91/91/91 81/81/81 80/80/80
f 92/92/92 91/91/91 80/80/80
f 72/72/72 92/92/92 80/80/80
f 73/73/73 92/92/92 72/72/72
f 93/93/93 92/92/92 73/73/73
f 93/93/93 73/73/73 74/74/74
f 75/75/75 93/93/93 74/74/74
f 75/75/75 78/78/78 93/93/93
f 92/92/92 94/94/94 91/91/91
f 95/95/95 92/92/92 93/93/93
f 95/95/95 94/94/94 92/92/92
f 78/78/78 95/95/95 93/93/93
f 78/78/78 86/86/86 95/95/95
f 89/89/89 96/96/96 88/88/88
f 90/90/90 97/97/97 89/89/89
f 91/91/91 98/98/98 90/90/90
f 94/94/94 99/99/99 91/91/91
f 95/95/95 100/100/100 94/94/94
f 86/86/86 101/101/101 95/95/95
f 85/85/85 102/102/102 86/86/86
f 88/88/88 103/103/103 87/87/87
