g M_y01SR_yajirushi_wood
v -1.697825 1.049678 -0.04737949
v -3.103732 -1.154767 0.02324915
v -1.736546 -1.169578 -0.03556776
v 3.215404 1.119629 -0.04737949
v 3.570627 -0.7221942 0.01448202
v 3.683377 -1.30694 -0.004269123
v 5.848274 -0.8698859 0.01448202
v 5.830499 -1.39324 -0.05857086
v 6.024001 1.116527 -0.08408976
v 5.888018 -0.6470962 0.01445913
v -3.426737 0.3149667 -0.02507782
v -4.470918 -1.139968 0.08205462
v -6.024045 -0.1572804 0.01445913
v -3.573211 0.9816351 -0.04700041
v -4.490795 0.9367671 -0.04679346
v -5.169459 0.4555688 -0.02106762
v -5.380495 0.3111749 -0.0105772
v -1.840449 -1.298127 -0.03556776
v -3.103732 -1.154767 0.02324915
v -1.920626 -2.766435 0.01445913
v -4.301292 -1.268735 0.08203125
v -4.171215 1.170208 0.01404572
v -3.58601 1.078633 0.01448202
v -1.700123 2.766445 0.08406544
v -1.763984 1.135818 0.01448202
vt 0.04152209 0.6434131
vt 0.2300273 0.7500967
vt 0.2252491 0.6369359
vt 0.01409652 0.237354
vt 0.1648461 0.1998107
vt 0.2127347 0.1879182
vt 0.1669849 0.0107745
vt 0.2104593 0.009925039
vt 0.001930973 0.004964774
vt 0.1484484 0.008483985
vt 0.1098888 0.7832562
vt 0.2348359 0.8632575
vt 0.1604016 0.9960319
vt 0.05538656 0.7983342
vt 0.06309241 0.8739972
vt 0.1059145 0.9280292
vt 0.1187778 0.9448213
vt 0.3716756 0.04951615
vt 0.4052597 0.1493737
vt 0.4846695 0.003963619
vt 0.4558939 0.235291
vt 0.2734866 0.2487155
vt 0.3017616 0.2085935
vt 0.2454087 0.006694041
vt 0.3642427 0.0711775
vn 0.003299683 -0.01794147 -0.9998336
vn -0.02068495 -0.0419261 -0.9989066
vn -0.0007442348 -0.01543145 -0.9998807
vn 0.002602458 -0.0247743 -0.9996897
vn 0.001486894 -0.01487366 -0.9998882
vn -0.0007442348 0.05805635 -0.9983131
vn -0.007855959 0.08190154 -0.9966095
vn -0.007855959 0.08190154 -0.9966095
vn -0.006461501 -0.04485445 -0.9989727
vn -0.006461501 -0.04485445 -0.9989727
vn -0.008832075 -0.04750392 -0.998832
vn -0.01775659 -0.06075124 -0.997995
vn -0.01678047 -0.0590779 -0.9981123
vn -0.001441464 -0.03718495 -0.9993073
vn -0.002975367 -0.04011331 -0.9991907
vn -0.002975367 -0.04011331 -0.9991907
vn -0.007298179 -0.04332055 -0.9990346
vn -0.04996851 -0.03132824 -0.9982594
vn -0.04731904 -0.02923656 -0.9984518
vn -0.04857405 -0.03021267 -0.9983625
vn -0.04634292 -0.02853933 -0.9985178
vn 0.006088596 0.03435061 -0.9993913
vn 0.002881348 0.03797619 -0.9992745
vn -0.0007442348 0.04215956 -0.9991106
vn -0.001302019 0.04271734 -0.9990863
g M_y01SR_yajirushi_wood_0
f 3/3/3 2/2/2 1/1/1
f 1/1/1 4/4/4 3/3/3
f 4/4/4 5/5/5 3/3/3
f 5/5/5 6/6/6 3/3/3
f 5/5/5 7/7/7 6/6/6
f 7/7/7 8/8/8 6/6/6
f 4/4/4 9/9/9 5/5/5
f 9/9/9 10/10/10 5/5/5
f 2/2/2 11/11/11 1/1/1
f 2/2/2 12/12/12 11/11/11
f 12/12/12 13/13/13 11/11/11
f 1/1/1 11/11/11 14/14/14
f 14/14/14 11/11/11 15/15/15
f 11/11/11 16/16/16 15/15/15
f 13/13/13 17/17/17 11/11/11
f 20/20/20 19/19/19 18/18/18
f 21/21/21 19/19/19 20/20/20
f 24/24/24 23/23/23 22/22/22
f 25/25/25 23/23/23 24/24/24
