g Model1
v -0.5605662 -4.440892E-17 -1.378037E-16
v 0.5605662 1.776357E-16 1.378037E-16
v 0.5605662 1.776357E-16 0.8
v -0.5605662 -4.440892E-17 0.8
v 0.5605662 1.776357E-16 1.6
v -0.5605661 -2.384186E-08 1.6
v 0.5605662 1.776357E-16 2.4
v -0.5605662 -4.440892E-17 2.4
v 0.5605662 1.776357E-16 3.2
v -0.5605662 -4.440892E-17 3.2
v 0.5605662 1.776357E-16 4
v -0.5605662 -4.440892E-17 4
v 0.5605662 1.776357E-16 4.8
v -0.5605662 -4.440892E-17 4.8
v 0.5605662 1.44329E-16 5.599999
v -0.5605662 -4.440892E-17 5.599999
v 0.5605662 -2.664535E-16 6.4
v -0.5605662 -3.774758E-16 6.4
v -1.494939 -7.105427E-16 5.678635
v -0.5605662 -3.774758E-16 6.4
v -2.672988E-08 4.768371E-08 11.56213
v 0.5605662 -2.664535E-16 6.4
v 1.494939 -7.105427E-16 5.678635
vt 0.3416666 0.9845237
vt 0.6583333 0.9845237
vt 0.6583333 0.9251487
vt 0.3416666 0.9251487
vt 0.6583333 0.8657737
vt 0.3416666 0.8657737
vt 0.6583333 0.8063987
vt 0.3416666 0.8063987
vt 0.6583333 0.7470237
vt 0.3416666 0.7470237
vt 0.6583333 0.6876487
vt 0.3416666 0.6876487
vt 0.6583333 0.6282737
vt 0.3416666 0.6282737
vt 0.6583333 0.5688987
vt 0.3416666 0.5688987
vt 0.6583333 0.5095237
vt 0.3416666 0.5095237
vt 0.025 0.5095237
vt 0.3416666 0.5095237
vt 0.5 0.03452376
vt 0.6583333 0.5095237
vt 0.975 0.5095237
vn 0 1 0
vn 0 1 0
vn 0 1 0
vn 0 1 0
vn 0 1 0
vn 0 1 0
vn 0 1 0
vn 0 1 0
vn 0 1 0
vn 0 1 0
vn 0 1 0
vn 0 1 0
vn 0 1 0
vn 0 1 0
vn 0 1 0
vn 0 1 0
vn 0 1 0
vn 0 1 0
vn 0 1 0
vn 0 1 0
vn 0 1 0
vn 0 1 0
vn 0 1 0
g Model1_0
f 3/3/3 2/2/2 1/1/1
f 4/4/4 3/3/3 1/1/1
f 5/5/5 3/3/3 4/4/4
f 6/6/6 5/5/5 4/4/4
f 7/7/7 5/5/5 6/6/6
f 8/8/8 7/7/7 6/6/6
f 9/9/9 7/7/7 8/8/8
f 10/10/10 9/9/9 8/8/8
f 11/11/11 9/9/9 10/10/10
f 12/12/12 11/11/11 10/10/10
f 13/13/13 11/11/11 12/12/12
f 14/14/14 13/13/13 12/12/12
f 15/15/15 13/13/13 14/14/14
f 16/16/16 15/15/15 14/14/14
f 17/17/17 15/15/15 16/16/16
f 18/18/18 17/17/17 16/16/16
f 21/21/21 20/20/20 19/19/19
f 21/21/21 22/22/22 20/20/20
f 21/21/21 23/23/23 22/22/22
