g PillarCurveR
v 2.338925 0.9000018 -0.5196168
v 2.338925 0.3000014 -0.5196168
v 3.807327 0.3000014 -0.5196168
v 3.807327 0.9000018 -0.5196168
v 1.588941 0.463176 -0.4833393
v 1.807921 0.9724691 -0.4833393
v 1.360442 1.322717 -0.5196168
v 0.9361758 0.8984578 -0.5196168
v 1.067483 1.793296 -0.5196168
v 0.5820954 1.456327 -0.5196168
v 0.9328663 2.451545 -0.5196168
v 0.358161 2.279167 -0.5196168
v 0.8999991 3.231825 -0.5196168
v 0.299999 3.231825 -0.5196168
v 2.338925 1.200002 1.192093E-06
v 2.338925 0.9000018 -0.5196168
v 3.807327 0.9000018 -0.5196168
v 3.807327 1.200002 1.192093E-06
v 1.807921 0.9724691 -0.4833393
v 1.917418 1.227116 0.03627872
v 1.572575 1.53485 1.192093E-06
v 1.360442 1.322717 -0.5196168
v 2.338925 0.9000018 0.5196126
v 2.338925 1.200002 1.192093E-06
v 3.807327 1.200002 1.192093E-06
v 3.807327 0.9000018 0.5196126
v 1.917418 1.227116 0.03627872
v 1.807921 0.9724691 0.5558898
v 1.360442 1.322717 0.5196126
v 1.572575 1.53485 1.192093E-06
v 2.338925 0.3000014 0.5196126
v 2.338925 0.9000018 0.5196126
v 3.807327 0.9000018 0.5196126
v 3.807327 0.3000014 0.5196126
v 1.807921 0.9724691 0.5558898
v 1.588941 0.463176 0.5558898
v 0.9361758 0.8984578 0.5196126
v 1.360442 1.322717 0.5196126
v 0.5820954 1.456327 0.5196126
v 1.067483 1.793296 0.5196126
v 0.358161 2.279167 0.5196126
v 0.9328663 2.451545 0.5196126
v 0.299999 3.231825 0.5196126
v 0.8999991 3.231825 0.5196126
v 2.338925 1.192093E-06 1.192093E-06
v 2.338925 0.3000014 0.5196126
v 3.807327 0.3000014 0.5196126
v 3.807327 1.192093E-06 1.192093E-06
v 1.588941 0.463176 0.5558898
v 1.479451 0.2085292 0.03627872
v 0.7240431 0.6863248 1.192093E-06
v 0.9361758 0.8984578 0.5196126
v 3.807327 1.192093E-06 1.192093E-06
v 3.807327 0.3000014 -0.5196168
v 2.338925 0.3000014 -0.5196168
v 2.338925 1.192093E-06 1.192093E-06
v 1.588941 0.463176 -0.4833393
v 1.479451 0.2085292 0.03627872
v 0.9361758 0.8984578 -0.5196168
v 0.7240431 0.6863248 1.192093E-06
v 0.3394046 1.287843 1.192093E-06
v 0.5820954 1.456327 0.5196126
v 0.9361758 0.8984578 0.5196126
v 0.7240431 0.6863248 1.192093E-06
v 0.07080817 2.192971 1.192093E-06
v 0.358161 2.279167 0.5196126
v -1.192093E-06 3.231825 1.192093E-06
v 0.299999 3.231825 0.5196126
v 1.067483 1.793296 0.5196126
v 1.310181 1.96178 1.192093E-06
v 1.572575 1.53485 1.192093E-06
v 1.360442 1.322717 0.5196126
v 0.9328663 2.451545 0.5196126
v 1.220219 2.537735 1.192093E-06
v 0.8999991 3.231825 0.5196126
v 1.199999 3.231825 1.192093E-06
v 1.310181 1.96178 1.192093E-06
v 1.067483 1.793296 -0.5196168
v 1.360442 1.322717 -0.5196168
v 1.572575 1.53485 1.192093E-06
v 1.220219 2.537735 1.192093E-06
v 0.9328663 2.451545 -0.5196168
v 1.199999 3.231825 1.192093E-06
v 0.8999991 3.231825 -0.5196168
v 0.7240431 0.6863248 1.192093E-06
v 0.9361758 0.8984578 -0.5196168
v 0.5820954 1.456327 -0.5196168
v 0.3394046 1.287843 1.192093E-06
v 0.358161 2.279167 -0.5196168
v 0.07080817 2.192971 1.192093E-06
v 0.299999 3.231825 -0.5196168
v -1.192093E-06 3.231825 1.192093E-06
vt 0.7673492 0.434955
vt 0.7746434 0.434955
vt 0.7746434 0.4527758
vt 0.7673492 0.4527758
vt 0.7726541 0.4258511
vt 0.7664789 0.4285035
vt 0.762224 0.4230744
vt 0.7673769 0.4179215
vt 0.7565048 0.4195102
vt 0.7605939 0.4136251
vt 0.7485199 0.4178801
vt 0.7506059 0.4109037
vt 0.739043 0.4174795
vt 0.739043 0.4101992
vt 0.7898118 0.464988
vt 0.7961252 0.464988
vt 0.7961252 0.4828228
vt 0.7898118 0.4828228
vt 0.7956831 0.4585505
vt 0.7893698 0.4598767
vt 0.7898118 0.4556907
vt 0.7961252 0.4531075
vt 0.7835124 0.464988
vt 0.7898118 0.464988
vt 0.7898118 0.4828228
vt 0.7835124 0.4828228
vt 0.7893698 0.4598767
vt 0.7830703 0.4585505
vt 0.7835124 0.4531075
vt 0.7898118 0.4556907
vt 0.7752926 0.434955
vt 0.782573 0.434955
vt 0.782573 0.4527758
vt 0.7752926 0.4527758
vt 0.7834572 0.4285035
vt 0.7772682 0.4258511
vt 0.7825592 0.4179215
vt 0.7877121 0.4230744
vt 0.7893283 0.4136251
vt 0.7934175 0.4195102
vt 0.7993164 0.4109037
vt 0.8014162 0.4178801
vt 0.8108792 0.4101992
vt 0.8108792 0.4174795
vt 0.8160735 0.4727104
vt 0.8223869 0.4727104
vt 0.8223869 0.4905452
vt 0.8160735 0.4905452
vt 0.8228289 0.4636066
vt 0.8165156 0.4622804
vt 0.8160735 0.4531075
vt 0.8223869 0.4556907
vt 0.8160735 0.4905452
vt 0.809774 0.4905452
vt 0.809774 0.4727104
vt 0.8160735 0.4727104
vt 0.8102161 0.4636066
vt 0.8165156 0.4622804
vt 0.809774 0.4556907
vt 0.8160735 0.4531075
vt 0.8029495 0.4604154
vt 0.7966363 0.4624599
vt 0.7966363 0.4556907
vt 0.8029495 0.4531075
vt 0.8029495 0.471398
vt 0.7966363 0.472448
vt 0.8029495 0.4840108
vt 0.7966363 0.4840108
vt 0.7825453 0.4588267
vt 0.7762458 0.4608712
vt 0.7762458 0.4556907
vt 0.7825453 0.4531075
vt 0.7825453 0.4668115
vt 0.7762458 0.4678615
vt 0.7825453 0.4762884
vt 0.7762458 0.4762884
vt 0.7762458 0.4608712
vt 0.7699326 0.4588267
vt 0.7699326 0.4531075
vt 0.7762458 0.4556907
vt 0.7762458 0.4678615
vt 0.7699326 0.4668115
vt 0.7762458 0.4762884
vt 0.7699326 0.4762884
vt 0.8029495 0.4531075
vt 0.8092629 0.4556907
vt 0.8092629 0.4624599
vt 0.8029495 0.4604154
vt 0.8092629 0.472448
vt 0.8029495 0.471398
vt 0.8092629 0.4840108
vt 0.8029495 0.4840108
vn -0.002932549 0.4760506 -0.879413
vn -0.05767345 -0.5347016 -0.8430706
vn -0.0009775162 -0.499511 -0.866307
vn -0.0009775162 0.499511 -0.866307
vn -0.2434016 -0.5738022 -0.7819889
vn 0.147605 0.3411533 -0.9283465
vn 0.3313782 0.2531768 -0.908895
vn -0.3978493 -0.438905 -0.805654
vn 0.3880741 0.1476051 -0.9097314
vn -0.5386117 -0.2238513 -0.8122734
vn 0.44086 0.04594326 -0.8963993
vn -0.5640271 -0.09090906 -0.8207368
vn 0.4545453 0.01661777 -0.8905686
vn -0.5522969 -0.0361681 -0.8328626
vn 0.02638376 0.9996519 0
vn -0.002932549 0.4760506 -0.879413
vn -0.0009775162 0.499511 -0.866307
vn 0.0009775162 0.9999995 0
vn 0.147605 0.3411533 -0.9283465
vn 0.3976897 0.91752 0
vn 0.7595304 0.6500486 -0.02345911
vn 0.3313782 0.2531768 -0.908895
vn 0.02639294 0.4760506 0.8790218
vn 0.02638376 0.9996519 0
vn 0.0009775162 0.9999995 0
vn -0.0009775162 0.499511 0.866307
vn 0.3976897 0.91752 0
vn 0.147605 0.3411533 0.9283465
vn 0.2942325 0.2922775 0.9099457
vn 0.7595304 0.6500486 -0.02345911
vn -0.03421307 -0.5425217 0.8393448
vn 0.02639294 0.4760506 0.8790218
vn -0.0009775162 0.499511 0.866307
vn -0.0009775162 -0.499511 0.866307
vn 0.147605 0.3411533 0.9283465
vn -0.2355815 -0.5542519 0.7983146
vn -0.4310849 -0.4193546 0.7989416
vn 0.2942325 0.2922775 0.9099457
vn -0.5386117 -0.2238513 0.8122734
vn 0.3880741 0.1476051 0.9097314
vn -0.5640271 -0.09090906 0.8207368
vn 0.44086 0.04594326 0.8963993
vn -0.5522969 -0.0361681 0.8328626
vn 0.4545453 0.01661777 0.8905686
vn -0.07722378 -0.9960895 -0.04292156
vn -0.03421307 -0.5425217 0.8393448
vn -0.0009775162 -0.499511 0.866307
vn -0.0009775162 -0.9999995 0
vn -0.2355815 -0.5542519 0.7983146
vn -0.3919842 -0.9198431 0.01539442
vn -0.6942982 -0.7196874 0
vn -0.4310849 -0.4193546 0.7989416
vn -0.0009775162 -0.9999995 0
vn -0.0009775162 -0.499511 -0.866307
vn -0.05767345 -0.5347016 -0.8430706
vn -0.07722378 -0.9960895 -0.04292156
vn -0.2434016 -0.5738022 -0.7819889
vn -0.3919842 -0.9198431 0.01539442
vn -0.3978493 -0.438905 -0.805654
vn -0.6942982 -0.7196874 0
vn -0.9159331 -0.3998043 -0.03497139
vn -0.5386117 -0.2238513 0.8122734
vn -0.4310849 -0.4193546 0.7989416
vn -0.6942982 -0.7196874 0
vn -0.9856176 -0.1689909 0
vn -0.5640271 -0.09090906 0.8207368
vn -0.9978538 -0.06548113 0
vn -0.5522969 -0.0361681 0.8328626
vn 0.3880741 0.1476051 0.9097314
vn 0.9433036 0.3313781 -0.01915473
vn 0.7595304 0.6500486 -0.02345911
vn 0.2942325 0.2922775 0.9099457
vn 0.44086 0.04594326 0.8963993
vn 0.9953137 0.09669873 0
vn 0.4545453 0.01661777 0.8905686
vn 0.9993466 0.03614448 0
vn 0.9433036 0.3313781 -0.01915473
vn 0.3880741 0.1476051 -0.9097314
vn 0.3313782 0.2531768 -0.908895
vn 0.7595304 0.6500486 -0.02345911
vn 0.9953137 0.09669873 0
vn 0.44086 0.04594326 -0.8963993
vn 0.9993466 0.03614448 0
vn 0.4545453 0.01661777 -0.8905686
vn -0.6942982 -0.7196874 0
vn -0.3978493 -0.438905 -0.805654
vn -0.5386117 -0.2238513 -0.8122734
vn -0.9159331 -0.3998043 -0.03497139
vn -0.5640271 -0.09090906 -0.8207368
vn -0.9856176 -0.1689909 0
vn -0.5522969 -0.0361681 -0.8328626
vn -0.9978538 -0.06548113 0
g PillarCurveR_0
f 3/3/3 2/2/2 1/1/1
f 4/4/4 3/3/3 1/1/1
f 1/1/1 2/2/2 5/5/5
f 6/6/6 1/1/1 5/5/5
f 6/6/6 5/5/5 7/7/7
f 5/5/5 8/8/8 7/7/7
f 7/7/7 8/8/8 9/9/9
f 8/8/8 10/10/10 9/9/9
f 9/9/9 10/10/10 11/11/11
f 10/10/10 12/12/12 11/11/11
f 11/11/11 12/12/12 13/13/13
f 12/12/12 14/14/14 13/13/13
f 17/17/17 16/16/16 15/15/15
f 18/18/18 17/17/17 15/15/15
f 15/15/15 16/16/16 19/19/19
f 20/20/20 15/15/15 19/19/19
f 20/20/20 19/19/19 21/21/21
f 19/19/19 22/22/22 21/21/21
f 25/25/25 24/24/24 23/23/23
f 26/26/26 25/25/25 23/23/23
f 23/23/23 24/24/24 27/27/27
f 28/28/28 23/23/23 27/27/27
f 28/28/28 27/27/27 29/29/29
f 27/27/27 30/30/30 29/29/29
f 33/33/33 32/32/32 31/31/31
f 34/34/34 33/33/33 31/31/31
f 31/31/31 32/32/32 35/35/35
f 36/36/36 31/31/31 35/35/35
f 36/36/36 35/35/35 37/37/37
f 35/35/35 38/38/38 37/37/37
f 37/37/37 38/38/38 39/39/39
f 38/38/38 40/40/40 39/39/39
f 39/39/39 40/40/40 41/41/41
f 40/40/40 42/42/42 41/41/41
f 41/41/41 42/42/42 43/43/43
f 42/42/42 44/44/44 43/43/43
f 47/47/47 46/46/46 45/45/45
f 48/48/48 47/47/47 45/45/45
f 45/45/45 46/46/46 49/49/49
f 50/50/50 45/45/45 49/49/49
f 50/50/50 49/49/49 51/51/51
f 49/49/49 52/52/52 51/51/51
f 55/55/55 54/54/54 53/53/53
f 56/56/56 55/55/55 53/53/53
f 57/57/57 55/55/55 56/56/56
f 58/58/58 57/57/57 56/56/56
f 59/59/59 57/57/57 58/58/58
f 60/60/60 59/59/59 58/58/58
f 63/63/63 62/62/62 61/61/61
f 64/64/64 63/63/63 61/61/61
f 61/61/61 62/62/62 65/65/65
f 62/62/62 66/66/66 65/65/65
f 65/65/65 66/66/66 67/67/67
f 66/66/66 68/68/68 67/67/67
f 71/71/71 70/70/70 69/69/69
f 72/72/72 71/71/71 69/69/69
f 69/69/69 70/70/70 73/73/73
f 70/70/70 74/74/74 73/73/73
f 73/73/73 74/74/74 75/75/75
f 74/74/74 76/76/76 75/75/75
f 79/79/79 78/78/78 77/77/77
f 80/80/80 79/79/79 77/77/77
f 77/77/77 78/78/78 81/81/81
f 78/78/78 82/82/82 81/81/81
f 81/81/81 82/82/82 83/83/83
f 82/82/82 84/84/84 83/83/83
f 87/87/87 86/86/86 85/85/85
f 88/88/88 87/87/87 85/85/85
f 89/89/89 87/87/87 88/88/88
f 90/90/90 89/89/89 88/88/88
f 91/91/91 89/89/89 90/90/90
f 92/92/92 91/91/91 90/90/90
