g PillarR
v -1.200001 -19.76816 -7.629395E-06
v -0.8999882 -19.76816 -0.5196056
v -0.9000092 -7.629395E-06 -0.5196056
v -1.200001 -7.629395E-06 -7.629395E-06
v -0.300005 -7.629395E-06 -0.5196056
v -0.300005 -19.76816 -0.5196056
v 7.629395E-06 -7.629395E-06 -7.629395E-06
v 7.629395E-06 -19.76816 -7.629395E-06
v -0.300005 -7.629395E-06 0.5196095
v 7.629395E-06 -7.629395E-06 -7.629395E-06
v 7.629395E-06 -19.76816 -7.629395E-06
v -0.300005 -19.76816 0.5196095
v -0.9000092 -7.629395E-06 0.5196095
v -0.8999882 -19.76816 0.5196095
v -1.200001 -7.629395E-06 -7.629395E-06
v -0.9000092 -7.629395E-06 0.5196095
v -0.8999882 -19.76816 0.5196095
v -1.200001 -19.76816 -7.629395E-06
vt 0.722257 0.4102037
vt 0.7246916 0.4102037
vt 0.7246916 0.4939908
vt 0.722257 0.4939908
vt 0.7280999 0.4939908
vt 0.7280999 0.4102037
vt 0.7311398 0.4939908
vt 0.7311398 0.4102037
vt 0.7335743 0.4939908
vt 0.7311398 0.4939908
vt 0.7311398 0.4102037
vt 0.7335743 0.4102037
vt 0.7369695 0.4939908
vt 0.7369695 0.4102037
vt 0.722257 0.4939908
vt 0.7198225 0.4939908
vt 0.7198225 0.4102037
vt 0.722257 0.4102037
vn -0.9999995 0.0009775162 0
vn -0.499511 0.0009775162 -0.866307
vn -0.499511 0.0009775162 -0.866307
vn -0.9999995 0.0009775162 0
vn 0.499511 0.0009775162 -0.866307
vn 0.499511 0.0009775162 -0.866307
vn 0.9999995 0.0009775162 0
vn 0.9999995 0.0009775162 0
vn 0.499511 0.0009775162 0.866307
vn 0.9999995 0.0009775162 0
vn 0.9999995 0.0009775162 0
vn 0.499511 0.0009775162 0.866307
vn -0.499511 0.0009775162 0.866307
vn -0.499511 0.0009775162 0.866307
vn -0.9999995 0.0009775162 0
vn -0.499511 0.0009775162 0.866307
vn -0.499511 0.0009775162 0.866307
vn -0.9999995 0.0009775162 0
g PillarR_0
f 3/3/3 2/2/2 1/1/1
f 4/4/4 3/3/3 1/1/1
f 2/2/2 3/3/3 5/5/5
f 6/6/6 2/2/2 5/5/5
f 6/6/6 5/5/5 7/7/7
f 8/8/8 6/6/6 7/7/7
f 11/11/11 10/10/10 9/9/9
f 12/12/12 11/11/11 9/9/9
f 12/12/12 9/9/9 13/13/13
f 14/14/14 12/12/12 13/13/13
f 17/17/17 16/16/16 15/15/15
f 18/18/18 17/17/17 15/15/15
