g PillarL
v 1.199991 -19.76816 7.629395E-06
v 1.199991 7.629395E-06 7.629395E-06
v 0.9000015 7.629395E-06 -0.5196209
v 0.9000015 -19.76816 -0.5196209
v 0.3000011 7.629395E-06 -0.5196209
v 0.2999821 -19.76816 -0.5196209
v -7.629395E-06 7.629395E-06 7.629395E-06
v -7.629395E-06 -19.76816 7.629395E-06
v 0.3000011 7.629395E-06 0.5196152
v 0.2999821 -19.76816 0.5196152
v -7.629395E-06 -19.76816 7.629395E-06
v -7.629395E-06 7.629395E-06 7.629395E-06
v 0.9000015 7.629395E-06 0.5196152
v 0.9000015 -19.76816 0.5196152
v 1.199991 7.629395E-06 7.629395E-06
v 1.199991 -19.76816 7.629395E-06
v 0.9000015 -19.76816 0.5196152
v 0.9000015 7.629395E-06 0.5196152
vt 0.7222514 0.4102054
vt 0.7222514 0.493986
vt 0.7246873 0.493986
vt 0.7246873 0.4102054
vt 0.7280995 0.493986
vt 0.7280995 0.4102054
vt 0.7311398 0.493986
vt 0.7311398 0.4102054
vt 0.7335851 0.493986
vt 0.7335851 0.4102054
vt 0.7311398 0.4102054
vt 0.7311398 0.493986
vt 0.7369694 0.493986
vt 0.7369694 0.4102054
vt 0.7222514 0.493986
vt 0.7222514 0.4102054
vt 0.7198153 0.4102054
vt 0.7198153 0.493986
vn 0.9999995 0.0009775162 0
vn 0.9999995 0.0009775162 0
vn 0.499511 0.0009775162 -0.866307
vn 0.499511 0.0009775162 -0.866307
vn -0.499511 0.0009775162 -0.866307
vn -0.499511 0.0009775162 -0.866307
vn -0.9999995 0.0009775162 0
vn -0.9999995 0.0009775162 0
vn -0.499511 0.0009775162 0.866307
vn -0.499511 0.0009775162 0.866307
vn -0.9999995 0.0009775162 0
vn -0.9999995 0.0009775162 0
vn 0.499511 0.0009775162 0.866307
vn 0.499511 0.0009775162 0.866307
vn 0.9999995 0.0009775162 0
vn 0.9999995 0.0009775162 0
vn 0.499511 0.0009775162 0.866307
vn 0.499511 0.0009775162 0.866307
g PillarL_0
f 3/3/3 2/2/2 1/1/1
f 4/4/4 3/3/3 1/1/1
f 3/3/3 4/4/4 5/5/5
f 4/4/4 6/6/6 5/5/5
f 5/5/5 6/6/6 7/7/7
f 6/6/6 8/8/8 7/7/7
f 11/11/11 10/10/10 9/9/9
f 12/12/12 11/11/11 9/9/9
f 9/9/9 10/10/10 13/13/13
f 10/10/10 14/14/14 13/13/13
f 17/17/17 16/16/16 15/15/15
f 18/18/18 17/17/17 15/15/15
