g PipeRotating3dsrr_glide1
v 9.732124 4.218994 -120.9018
v 9.733627 4.213104 -116.0033
v 10.05516 3.435837 -116.006
v 10.05378 3.440849 -120.9039
v -8.519676 6.46093 -120.8898
v -8.517418 6.454666 -115.9913
v -8.004311 7.12191 -115.9899
v -8.006813 7.128059 -120.8878
v -1.335869 -10.46077 -120.9332
v -1.334236 -10.46415 -116.0352
v -2.169014 -10.35363 -116.0344
v -2.170395 -10.35037 -120.9323
v 10.42593 1.998978 -116.0096
v 10.42443 2.003487 -120.9074
v 10.05378 3.440849 -120.9039
v 10.05516 3.435837 -116.006
v 10.59296 0.5245209 -116.0132
v 10.59121 0.5285339 -120.9111
v 10.55324 -0.9588242 -116.0167
v 10.55124 -0.9551926 -120.9146
v 10.59121 0.5285339 -120.9111
v 10.59296 0.5245209 -116.0132
v 10.30714 -2.422256 -116.0202
v 10.30489 -2.418869 -120.9181
v 10.55124 -0.9551926 -120.9146
v 10.55324 -0.9588242 -116.0167
v 10.05328 -3.224953 -116.022
v 10.05127 -3.221069 -120.9209
v -6.944611 8.161064 -115.9878
v -6.946991 8.167824 -120.8857
v -8.006813 7.128059 -120.8878
v -8.004311 7.12191 -115.9899
v -5.750587 9.042824 -115.9863
v -5.752838 9.049965 -120.8842
v -4.44529 9.749794 -115.985
v -4.447418 9.757179 -120.8829
v -5.752838 9.049965 -120.8842
v -5.750587 9.042824 -115.9863
v -3.054161 10.26855 -115.9844
v -3.056297 10.27607 -120.8823
v -4.447418 9.757179 -120.8829
v -4.44529 9.749794 -115.985
v -2.232292 10.44999 -115.984
v -2.234299 10.45763 -120.882
v -3.599487 -9.956039 -116.0329
v -3.600616 -9.95266 -120.9308
v -2.170395 -10.35037 -120.9323
v -2.169014 -10.35363 -116.0344
v -4.960915 -9.363106 -116.031
v -4.961792 -9.35997 -120.9288
v -6.226112 -8.586716 -116.0286
v -6.22699 -8.583588 -120.9265
v -4.961792 -9.35997 -120.9288
v -4.960915 -9.363106 -116.031
v -7.371147 -7.6418 -116.0259
v -7.371895 -7.638916 -120.9238
v -6.22699 -8.583588 -120.9265
v -6.226112 -8.586716 -116.0286
v -7.9394 -7.021172 -116.0234
v -7.940529 -7.017532 -120.922
vt 2.001942 0.9926381
vt 2.001942 -3.814697E-06
vt 1.891649 -3.814697E-06
vt 1.891649 0.9926381
vt 2.001942 0.9926381
vt 2.001942 -3.814697E-06
vt 1.891649 -3.814697E-06
vt 1.891649 0.9926381
vt 2.001942 0.9926381
vt 2.001942 -3.814697E-06
vt 1.891649 -3.814697E-06
vt 1.891649 0.9926381
vt 1.697044 -3.814697E-06
vt 1.697044 0.9926381
vt 1.891649 0.9926381
vt 1.891649 -3.814697E-06
vt 1.50198 -3.814697E-06
vt 1.50198 0.9926381
vt 0.8068929 -3.814697E-06
vt 0.8068929 0.9926381
vt 1.00198 0.9926381
vt 1.00198 -3.814697E-06
vt 0.6118059 -3.814697E-06
vt 0.6118059 0.9926381
vt 0.8068929 0.9926381
vt 0.8068929 -3.814697E-06
vt 0.5012212 -3.814697E-06
vt 0.5012212 0.9926381
vt 1.697044 -3.814697E-06
vt 1.697044 0.9926381
vt 1.891649 0.9926381
vt 1.891649 -3.814697E-06
vt 1.50198 -3.814697E-06
vt 1.50198 0.9926381
vt 0.8068929 -3.814697E-06
vt 0.8068929 0.9926381
vt 1.00198 0.9926381
vt 1.00198 -3.814697E-06
vt 0.6118059 -3.814697E-06
vt 0.6118059 0.9926381
vt 0.8068929 0.9926381
vt 0.8068929 -3.814697E-06
vt 0.5012212 -3.814697E-06
vt 0.5012212 0.9926381
vt 1.697044 -3.814697E-06
vt 1.697044 0.9926381
vt 1.891649 0.9926381
vt 1.891649 -3.814697E-06
vt 1.50198 -3.814697E-06
vt 1.50198 0.9926381
vt 0.8068929 -3.814697E-06
vt 0.8068929 0.9926381
vt 1.00198 0.9926381
vt 1.00198 -3.814697E-06
vt 0.6118059 -3.814697E-06
vt 0.6118059 0.9926381
vt 0.8068929 0.9926381
vt 0.8068929 -3.814697E-06
vt 0.5012212 -3.814697E-06
vt 0.5012212 0.9926381
vn -0.8936603 -0.4487442 0
vn -0.9232715 -0.3828877 -0.03109105
vn -0.9541755 -0.2992479 0
vn -0.9479111 -0.3185348 0
vn 0.8299363 -0.5558761 -0.04698296
vn 0.7924817 -0.6098958 0
vn 0.7346956 -0.6783285 -0.009636599
vn 0.744414 -0.6666664 -0.03746664
vn 0.06018172 0.9981875 0
vn 0.1302081 0.9913007 0.01920349
vn 0.2195825 0.9755939 0
vn 0.1982372 0.9796386 -0.03178426
vn -0.983526 -0.1807441 0.002868003
vn -0.9831828 -0.182624 0
vn -0.9479111 -0.3185348 0
vn -0.9541755 -0.2992479 0
vn -0.9990755 -0.04274207 0.004606171
vn -0.9990755 -0.04274207 -0.004606171
vn -0.9951881 0.09720361 0.01233276
vn -0.9951881 0.09720361 -0.01233276
vn -0.9990755 -0.04274207 -0.004606171
vn -0.9990755 -0.04274207 0.004606171
vn -0.9757512 0.2157686 0.03679129
vn -0.9714952 0.2370593 0
vn -0.9951881 0.09720361 -0.01233276
vn -0.9951881 0.09720361 0.01233276
vn -0.9536083 0.3010503 0
vn -0.9286066 0.3710655 0
vn 0.6485482 -0.7611737 0
vn 0.6452858 -0.7638509 -0.01174923
vn 0.744414 -0.6666664 -0.03746664
vn 0.7346956 -0.6783285 -0.009636599
vn 0.5364392 -0.8435422 -0.02587776
vn 0.5325518 -0.8454858 -0.03927251
vn 0.4139867 -0.9096276 -0.03453447
vn 0.4100994 -0.9115713 -0.02926227
vn 0.5325518 -0.8454858 -0.03927251
vn 0.5364392 -0.8435422 -0.02587776
vn 0.3010266 -0.9536157 0
vn 0.2798382 -0.9600471 0
vn 0.4100994 -0.9115713 -0.02926227
vn 0.4139867 -0.9096276 -0.03453447
vn 0.2157304 -0.975713 -0.03800682
vn 0.1457576 -0.9893188 -0.001708984
vn 0.3342198 0.9424952 0
vn 0.3323518 0.9427085 -0.02903426
vn 0.1982372 0.9796386 -0.03178426
vn 0.2195825 0.9755939 0
vn 0.462579 0.8863415 0.02048018
vn 0.4586916 0.8882852 -0.0234845
vn 0.580849 0.8140114 0
vn 0.5772567 0.8163687 -0.01780219
vn 0.4586916 0.8882852 -0.0234845
vn 0.462579 0.8863415 0.02048018
vn 0.6742955 0.7384616 0
vn 0.6841596 0.7289027 -0.02502888
vn 0.5772567 0.8163687 -0.01780219
vn 0.580849 0.8140114 0
vn 0.7384253 0.6743354 0
vn 0.7794003 0.6258872 -0.02829083
g PipeRotating3dsrr_glide1_0
f 3/3/3 2/2/2 1/1/1
f 4/4/4 3/3/3 1/1/1
f 7/7/7 6/6/6 5/5/5
f 8/8/8 7/7/7 5/5/5
f 11/11/11 10/10/10 9/9/9
f 12/12/12 11/11/11 9/9/9
f 15/15/15 14/14/14 13/13/13
f 16/16/16 15/15/15 13/13/13
f 13/13/13 14/14/14 17/17/17
f 14/14/14 18/18/18 17/17/17
f 21/21/21 20/20/20 19/19/19
f 22/22/22 21/21/21 19/19/19
f 25/25/25 24/24/24 23/23/23
f 26/26/26 25/25/25 23/23/23
f 23/23/23 24/24/24 27/27/27
f 24/24/24 28/28/28 27/27/27
f 31/31/31 30/30/30 29/29/29
f 32/32/32 31/31/31 29/29/29
f 29/29/29 30/30/30 33/33/33
f 30/30/30 34/34/34 33/33/33
f 37/37/37 36/36/36 35/35/35
f 38/38/38 37/37/37 35/35/35
f 41/41/41 40/40/40 39/39/39
f 42/42/42 41/41/41 39/39/39
f 39/39/39 40/40/40 43/43/43
f 40/40/40 44/44/44 43/43/43
f 47/47/47 46/46/46 45/45/45
f 48/48/48 47/47/47 45/45/45
f 45/45/45 46/46/46 49/49/49
f 46/46/46 50/50/50 49/49/49
f 53/53/53 52/52/52 51/51/51
f 54/54/54 53/53/53 51/51/51
f 57/57/57 56/56/56 55/55/55
f 58/58/58 57/57/57 55/55/55
f 55/55/55 56/56/56 59/59/59
f 56/56/56 60/60/60 59/59/59
