g polySurface4
v -20.27923 1.556879 -0.9071093
v -20.27923 4.022755 -0.9071093
v -20.83337 4.022755 -0.5303345
v -20.83322 1.556879 -0.5310555
v -20.83322 1.556879 -0.5310555
v -20.83337 4.022755 -0.5303345
v -20.92395 4.022755 0.003568649
v -20.92368 1.556879 0.003568649
v -20.27923 4.022755 -0.9071093
v -20.27923 1.556879 -0.9071093
v -15.43033 1.556879 -1.965742
v -15.43033 4.022755 -1.965742
v -20.27923 1.556879 0.9142461
v -20.83322 1.556879 0.5381923
v -20.83337 4.022755 0.5374718
v -20.27923 4.022755 0.9142461
v -20.83322 1.556879 0.5381923
v -20.92368 1.556879 0.003568649
v -20.92395 4.022755 0.003568649
v -20.83337 4.022755 0.5374718
v -20.27923 4.022755 0.9142461
v -15.43033 4.022755 1.972879
v -15.43033 1.556879 1.972879
v -20.27923 1.556879 0.9142461
v 4.793106 1.556879 -1.742442
v 4.793106 4.022755 -1.742442
v 3.794704 4.022755 -3.303532
v 3.794704 1.556879 -3.303532
v 3.794704 1.556879 -3.303532
v 3.794704 4.022755 -3.303532
v 2.551723 4.022755 -4.415735
v 2.551723 1.556879 -4.415735
v 2.551723 1.556879 -4.415735
v 2.551723 4.022755 -4.415735
v 0.8340263 4.022755 -5.018271
v 0.8340263 1.556879 -5.018271
v 0.8340263 1.556879 -5.018271
v 0.8340263 4.022755 -5.018271
v -0.883646 4.022755 -5.141667
v -0.883646 1.556879 -5.141667
v 5.12976 1.556879 0.003568649
v 5.12976 4.022755 0.003568649
v 4.793106 4.022755 -1.742442
v 4.793106 1.556879 -1.742442
v -4.576918 4.022755 4.342481
v -0.883646 4.022755 5.148804
v -0.883646 1.556879 5.148804
v -4.576918 1.556879 4.342481
v -8.270164 4.022755 3.536132
v -8.270164 1.556879 3.536132
v 4.793106 1.556879 1.749579
v 3.794704 1.556879 3.310669
v 3.794704 4.022755 3.310669
v 4.793106 4.022755 1.749579
v 3.794704 1.556879 3.310669
v 2.551723 1.556879 4.422872
v 2.551723 4.022755 4.422872
v 3.794704 4.022755 3.310669
v 2.551723 1.556879 4.422872
v 0.8340263 1.556879 5.025408
v 0.8340263 4.022755 5.025408
v 2.551723 4.022755 4.422872
v 0.8340263 1.556879 5.025408
v -0.883646 1.556879 5.148804
v -0.883646 4.022755 5.148804
v 0.8340263 4.022755 5.025408
v 5.12976 1.556879 0.003568649
v 4.793106 1.556879 1.749579
v 4.793106 4.022755 1.749579
v 5.12976 4.022755 0.003568649
v -8.270164 1.556879 -3.528996
v -4.576918 1.556879 -4.335319
v -4.576918 4.022755 -4.335319
v -8.270164 4.022755 -3.528996
v -0.883646 4.022755 -5.141667
v -0.883646 1.556879 -5.141667
v -11.85026 4.022755 2.754494
v -8.270164 4.022755 3.536132
v -8.270164 1.556879 3.536132
v -11.85026 1.556879 2.754494
v -15.43033 4.022755 1.972879
v -15.43033 1.556879 1.972879
v -15.43033 1.556879 -1.965742
v -11.85026 1.556879 -2.747356
v -11.85026 4.022755 -2.747356
v -15.43033 4.022755 -1.965742
v -8.270164 4.022755 -3.528996
v -8.270164 1.556879 -3.528996
vt 0.4905945 0.9007248
vt 0.009401321 0.9007248
vt 0.009401321 0.9507247
vt 0.4905945 0.9507247
vt 0.4905945 0.9507247
vt 0.009401321 0.9507247
vt 0.009401321 0.9953281
vt 0.4905945 0.9953281
vt 0.009401321 0.9007248
vt 0.4905945 0.9007248
vt 0.4905945 0.5050281
vt 0.009401321 0.5050281
vt 0.4905945 0.6007248
vt 0.4905945 0.5507247
vt 0.009401321 0.5507247
vt 0.009401321 0.6007248
vt 0.4905945 0.5507247
vt 0.4905945 0.5050281
vt 0.009401321 0.5050281
vt 0.009401321 0.5507247
vt 0.009401321 0.6007248
vt 0.009401321 0.9953281
vt 0.4905945 0.9953281
vt 0.4905945 0.6007248
vt 0.4905945 0.6000037
vt 0.009401321 0.6000037
vt 0.009401321 0.7000036
vt 0.4905945 0.7000036
vt 0.4905945 0.7000036
vt 0.009401321 0.7000036
vt 0.009401321 0.8000036
vt 0.4905945 0.8000036
vt 0.4905945 0.8000036
vt 0.009401321 0.8000036
vt 0.009401321 0.9000037
vt 0.4905945 0.9000037
vt 0.4905945 0.9000037
vt 0.009401321 0.9000037
vt 0.009401321 0.9953281
vt 0.4905945 0.9953281
vt 0.4905945 0.5043186
vt 0.009401321 0.5043186
vt 0.009401321 0.6000037
vt 0.4905945 0.6000037
vt 0.009401321 0.7500037
vt 0.009401321 0.9953281
vt 0.4905945 0.9953281
vt 0.4905945 0.7507248
vt 0.009401321 0.5043186
vt 0.4905945 0.5043186
vt 0.4905945 0.9000037
vt 0.4905945 0.8000036
vt 0.009401321 0.8000036
vt 0.009401321 0.9000037
vt 0.4905945 0.8000036
vt 0.4905945 0.7000036
vt 0.009401321 0.7000036
vt 0.009401321 0.8000036
vt 0.4905945 0.7000036
vt 0.4905945 0.6000037
vt 0.009401321 0.6000037
vt 0.009401321 0.7000036
vt 0.4905945 0.6000037
vt 0.4905945 0.5043186
vt 0.009401321 0.5043186
vt 0.009401321 0.6000037
vt 0.4905945 0.9953281
vt 0.4905945 0.9000037
vt 0.009401321 0.9000037
vt 0.009401321 0.9953281
vt 0.4905945 0.9953281
vt 0.4905945 0.7507248
vt 0.009401321 0.7510736
vt 0.009401321 0.9953281
vt 0.009401321 0.5046675
vt 0.4905945 0.5043186
vt 0.009401321 0.7500037
vt 0.009401321 0.9953281
vt 0.4905945 0.9953281
vt 0.4905945 0.7507248
vt 0.009401321 0.5043186
vt 0.4905945 0.5043186
vt 0.4905945 0.9953281
vt 0.4905945 0.7507248
vt 0.009401321 0.7507248
vt 0.009401321 0.9953281
vt 0.009401321 0.5050281
vt 0.4905945 0.5043186
vn -0.2570869 0.0009775162 -0.9663878
vn -0.2570869 0.0009775162 -0.9663878
vn -0.8162264 0.0009775162 -0.5777314
vn -0.8162264 0.0009775162 -0.5777314
vn -0.8162264 0.0009775162 -0.5777314
vn -0.8162264 0.0009775162 -0.5777314
vn -0.9999995 -0.0009775162 0
vn -0.9999995 -0.0009775162 0
vn -0.2570869 0.0009775162 -0.9663878
vn -0.2570869 0.0009775162 -0.9663878
vn -0.2140762 0.0009775162 -0.9768165
vn -0.2140762 0.0009775162 -0.9768165
vn -0.2570869 0.0009775162 0.9663878
vn -0.8162264 0.0009775162 0.5777314
vn -0.8162264 0.0009775162 0.5777314
vn -0.2570869 0.0009775162 0.9663878
vn -0.8162264 0.0009775162 0.5777314
vn -0.9999995 -0.0009775162 0
vn -0.9999995 -0.0009775162 0
vn -0.8162264 0.0009775162 0.5777314
vn -0.2570869 0.0009775162 0.9663878
vn -0.2140762 0.0009775162 0.9768165
vn -0.2140762 0.0009775162 0.9768165
vn -0.2570869 0.0009775162 0.9663878
vn 0.9276633 0.0009775162 -0.3734165
vn 0.9276633 0.0009775162 -0.3734165
vn 0.7653955 0.0009775162 -0.6435594
vn 0.7653955 0.0009775162 -0.6435594
vn 0.7653955 0.0009775162 -0.6435594
vn 0.7653955 0.0009775162 -0.6435594
vn 0.501466 0.0009775162 -0.8651768
vn 0.501466 0.0009775162 -0.8651768
vn 0.501466 0.0009775162 -0.8651768
vn 0.501466 0.0009775162 -0.8651768
vn 0.206256 0.0009775162 -0.9784976
vn 0.206256 0.0009775162 -0.9784976
vn 0.206256 0.0009775162 -0.9784976
vn 0.206256 0.0009775162 -0.9784976
vn -0.1260996 0.0009775162 -0.9920171
vn -0.1260996 0.0009775162 -0.9920171
vn 0.9999995 0.0009775162 0
vn 0.9999995 0.0009775162 0
vn 0.9276633 0.0009775162 -0.3734165
vn 0.9276633 0.0009775162 -0.3734165
vn -0.2140762 0.0009775162 0.9768165
vn -0.1260996 0.0009775162 0.9920171
vn -0.1260996 0.0009775162 0.9920171
vn -0.2140762 0.0009775162 0.9768165
vn -0.2140762 0.0009775162 0.9768165
vn -0.2140762 0.0009775162 0.9768165
vn 0.9276633 0.0009775162 0.3734165
vn 0.7653955 0.0009775162 0.6435594
vn 0.7653955 0.0009775162 0.6435594
vn 0.9276633 0.0009775162 0.3734165
vn 0.7653955 0.0009775162 0.6435594
vn 0.501466 0.0009775162 0.8651768
vn 0.501466 0.0009775162 0.8651768
vn 0.7653955 0.0009775162 0.6435594
vn 0.501466 0.0009775162 0.8651768
vn 0.206256 0.0009775162 0.9784976
vn 0.206256 0.0009775162 0.9784976
vn 0.501466 0.0009775162 0.8651768
vn 0.206256 0.0009775162 0.9784976
vn -0.1260996 0.0009775162 0.9920171
vn -0.1260996 0.0009775162 0.9920171
vn 0.206256 0.0009775162 0.9784976
vn 0.9999995 0.0009775162 0
vn 0.9276633 0.0009775162 0.3734165
vn 0.9276633 0.0009775162 0.3734165
vn 0.9999995 0.0009775162 0
vn -0.2140762 0.0009775162 -0.9768165
vn -0.2140762 0.0009775162 -0.9768165
vn -0.2140762 0.0009775162 -0.9768165
vn -0.2140762 0.0009775162 -0.9768165
vn -0.1260996 0.0009775162 -0.9920171
vn -0.1260996 0.0009775162 -0.9920171
vn -0.2140762 0.0009775162 0.9768165
vn -0.2140762 0.0009775162 0.9768165
vn -0.2140762 0.0009775162 0.9768165
vn -0.2140762 0.0009775162 0.9768165
vn -0.2140762 0.0009775162 0.9768165
vn -0.2140762 0.0009775162 0.9768165
vn -0.2140762 0.0009775162 -0.9768165
vn -0.2140762 0.0009775162 -0.9768165
vn -0.2140762 0.0009775162 -0.9768165
vn -0.2140762 0.0009775162 -0.9768165
vn -0.2140762 0.0009775162 -0.9768165
vn -0.2140762 0.0009775162 -0.9768165
g polySurface4_0
f 3/3/3 2/2/2 1/1/1
f 4/4/4 3/3/3 1/1/1
f 7/7/7 6/6/6 5/5/5
f 8/8/8 7/7/7 5/5/5
f 11/11/11 10/10/10 9/9/9
f 12/12/12 11/11/11 9/9/9
f 15/15/15 14/14/14 13/13/13
f 16/16/16 15/15/15 13/13/13
f 19/19/19 18/18/18 17/17/17
f 20/20/20 19/19/19 17/17/17
f 23/23/23 22/22/22 21/21/21
f 24/24/24 23/23/23 21/21/21
f 27/27/27 26/26/26 25/25/25
f 28/28/28 27/27/27 25/25/25
f 31/31/31 30/30/30 29/29/29
f 32/32/32 31/31/31 29/29/29
f 35/35/35 34/34/34 33/33/33
f 36/36/36 35/35/35 33/33/33
f 39/39/39 38/38/38 37/37/37
f 40/40/40 39/39/39 37/37/37
f 43/43/43 42/42/42 41/41/41
f 44/44/44 43/43/43 41/41/41
f 47/47/47 46/46/46 45/45/45
f 48/48/48 47/47/47 45/45/45
f 48/48/48 45/45/45 49/49/49
f 50/50/50 48/48/48 49/49/49
f 53/53/53 52/52/52 51/51/51
f 54/54/54 53/53/53 51/51/51
f 57/57/57 56/56/56 55/55/55
f 58/58/58 57/57/57 55/55/55
f 61/61/61 60/60/60 59/59/59
f 62/62/62 61/61/61 59/59/59
f 65/65/65 64/64/64 63/63/63
f 66/66/66 65/65/65 63/63/63
f 69/69/69 68/68/68 67/67/67
f 70/70/70 69/69/69 67/67/67
f 73/73/73 72/72/72 71/71/71
f 74/74/74 73/73/73 71/71/71
f 73/73/73 75/75/75 72/72/72
f 75/75/75 76/76/76 72/72/72
f 79/79/79 78/78/78 77/77/77
f 80/80/80 79/79/79 77/77/77
f 80/80/80 77/77/77 81/81/81
f 82/82/82 80/80/80 81/81/81
f 85/85/85 84/84/84 83/83/83
f 86/86/86 85/85/85 83/83/83
f 85/85/85 87/87/87 84/84/84
f 87/87/87 88/88/88 84/84/84
