g Red_Effect
v -2.129457 1.969929 -0.8036811
v -2.129457 0.9934783 -0.8036811
v -2.129457 0.9934783 -4.65634
v -2.129457 1.969929 -4.65634
v -2.129457 0.08601952 -4.65634
v -2.129457 0.08601952 -0.8036811
v -2.129457 0.9934783 -0.8036811
v -2.129457 1.969929 -0.8036811
v 2.129461 1.969929 -0.8037007
v 2.129461 0.9934783 -0.8037007
v 2.129461 0.08607769 -0.8037007
v -2.129457 0.08601952 -0.8036811
v 2.129461 1.969929 -4.65634
v 2.129461 0.9934783 -4.65634
v 2.129461 0.9934783 -0.8037007
v 2.129461 1.969929 -0.8037007
v 2.129461 0.08607769 -0.8037007
v 2.129461 0.08607769 -4.65634
v -2.129457 1.969929 -4.65634
v -2.129457 0.9934783 -4.65634
v 2.129461 0.9934783 -4.65634
v 2.129461 1.969929 -4.65634
v 2.129461 0.08607769 -4.65634
v -2.129457 0.08601952 -4.65634
v -2.099998 1.940782 -0.7925632
v -2.099998 1.940782 -4.59193
v -2.099998 0.9706597 -4.59193
v -2.099998 0.9706597 -0.7925632
v -2.099998 0.08482885 -4.59193
v -2.099998 0.08482885 -0.7925632
v -2.099998 0.9706597 -0.7925632
v 2.100003 0.9706597 -0.7925828
v 2.100003 1.940782 -0.7925828
v -2.099998 1.940782 -0.7925632
v 2.100003 0.08488703 -0.7925828
v -2.099998 0.08482885 -0.7925632
v 2.100003 1.940782 -4.59193
v 2.100003 1.940782 -0.7925828
v 2.100003 0.9706597 -0.7925828
v 2.100003 0.9706597 -4.59193
v 2.100003 0.08488703 -0.7925828
v 2.100003 0.08488703 -4.59193
v -2.099998 1.940782 -4.59193
v 2.100003 1.940782 -4.59193
v 2.100003 0.9706597 -4.59193
v -2.099998 0.9706597 -4.59193
v 2.100003 0.08488703 -4.59193
v -2.099998 0.08482885 -4.59193
vt -1.000008 0.8092754
vt -1.000008 0.6260294
vt -0.1812608 0.6260294
vt -0.1812608 0.8092754
vt -0.1812608 -2.503395E-06
vt -1.000008 -2.503395E-06
vt -0.3491569 0.6260155
vt -0.3491569 0.8092616
vt -0.6508537 0.8092616
vt -0.6508537 0.6260155
vt -0.6508537 1.132488E-05
vt -0.3491569 -2.503395E-06
vt -0.8187498 0.8092479
vt -0.8187498 0.6260018
vt -2.503395E-06 0.6260018
vt -2.503395E-06 0.8092479
vt -2.503395E-06 -2.503395E-06
vt -0.8187498 -2.503395E-06
vt -0.6508399 0.8092616
vt -0.6508399 0.6260155
vt -0.3491569 0.6260155
vt -0.3491569 0.8092616
vt -0.3491569 1.132488E-05
vt -0.6508399 -2.503395E-06
vt -1.000008 0.8092754
vt -0.1812608 0.8092754
vt -0.1812608 0.6260294
vt -1.000008 0.6260294
vt -0.1812608 -2.503395E-06
vt -1.000008 -2.503395E-06
vt -0.3491569 0.6260155
vt -0.6508537 0.6260155
vt -0.6508537 0.8092616
vt -0.3491569 0.8092616
vt -0.6508537 1.132488E-05
vt -0.3491569 -2.503395E-06
vt -0.8187498 0.8092479
vt -2.503395E-06 0.8092479
vt -2.503395E-06 0.6260018
vt -0.8187498 0.6260018
vt -2.503395E-06 -2.503395E-06
vt -0.8187498 -2.503395E-06
vt -0.6508399 0.8092616
vt -0.3491569 0.8092616
vt -0.3491569 0.6260155
vt -0.6508399 0.6260155
vt -0.3491569 1.132488E-05
vt -0.6508399 -2.503395E-06
vn -0.9999995 0.0009775162 0
vn -0.9999995 0.0009775162 0
vn -0.9999995 0.0009775162 0
vn -0.9999995 0.0009775162 0
vn -0.9999995 0.0009775162 0
vn -0.9999995 0.0009775162 0
vn 0.0009775162 0.0009775162 0.999999
vn 0.0009775162 0.0009775162 0.999999
vn 0.0009775162 0.0009775162 0.999999
vn 0.0009775162 0.0009775162 0.999999
vn 0.0009775162 0.0009775162 0.999999
vn 0.0009775162 0.0009775162 0.999999
vn 0.9999995 0.0009775162 0
vn 0.9999995 0.0009775162 0
vn 0.9999995 0.0009775162 0
vn 0.9999995 0.0009775162 0
vn 0.9999995 0.0009775162 0
vn 0.9999995 0.0009775162 0
vn -0.0009775162 0.0009775162 -0.999999
vn -0.0009775162 0.0009775162 -0.999999
vn -0.0009775162 0.0009775162 -0.999999
vn -0.0009775162 0.0009775162 -0.999999
vn -0.0009775162 0.0009775162 -0.999999
vn -0.0009775162 0.0009775162 -0.999999
vn 0.9999995 0.0009775162 0
vn 0.9999995 0.0009775162 0
vn 0.9999995 0.0009775162 0
vn 0.9999995 0.0009775162 0
vn 0.9999995 0.0009775162 0
vn 0.9999995 0.0009775162 0
vn -0.0009775162 0.0009775162 -0.999999
vn -0.0009775162 0.0009775162 -0.999999
vn -0.0009775162 0.0009775162 -0.999999
vn -0.0009775162 0.0009775162 -0.999999
vn -0.0009775162 0.0009775162 -0.999999
vn -0.0009775162 0.0009775162 -0.999999
vn -0.9999995 0.0009775162 0
vn -0.9999995 0.0009775162 0
vn -0.9999995 0.0009775162 0
vn -0.9999995 0.0009775162 0
vn -0.9999995 0.0009775162 0
vn -0.9999995 0.0009775162 0
vn -0.0009775162 0.0009775162 0.999999
vn -0.0009775162 0.0009775162 0.999999
vn -0.0009775162 0.0009775162 0.999999
vn -0.0009775162 0.0009775162 0.999999
vn -0.0009775162 0.0009775162 0.999999
vn -0.0009775162 0.0009775162 0.999999
g Red_Effect_0
f 3/3/3 2/2/2 1/1/1
f 4/4/4 3/3/3 1/1/1
f 3/3/3 5/5/5 2/2/2
f 5/5/5 6/6/6 2/2/2
f 9/9/9 8/8/8 7/7/7
f 10/10/10 9/9/9 7/7/7
f 10/10/10 7/7/7 11/11/11
f 7/7/7 12/12/12 11/11/11
f 15/15/15 14/14/14 13/13/13
f 16/16/16 15/15/15 13/13/13
f 15/15/15 17/17/17 14/14/14
f 17/17/17 18/18/18 14/14/14
f 21/21/21 20/20/20 19/19/19
f 22/22/22 21/21/21 19/19/19
f 21/21/21 23/23/23 20/20/20
f 23/23/23 24/24/24 20/20/20
f 27/27/27 26/26/26 25/25/25
f 28/28/28 27/27/27 25/25/25
f 29/29/29 27/27/27 28/28/28
f 30/30/30 29/29/29 28/28/28
f 33/33/33 32/32/32 31/31/31
f 34/34/34 33/33/33 31/31/31
f 31/31/31 32/32/32 35/35/35
f 36/36/36 31/31/31 35/35/35
f 39/39/39 38/38/38 37/37/37
f 40/40/40 39/39/39 37/37/37
f 41/41/41 39/39/39 40/40/40
f 42/42/42 41/41/41 40/40/40
f 45/45/45 44/44/44 43/43/43
f 46/46/46 45/45/45 43/43/43
f 47/47/47 45/45/45 46/46/46
f 48/48/48 47/47/47 46/46/46
