g RingDisk11
v 0.01360523 8.940697E-08 -0.09903239
v 0.009637371 0.01427776 -0.07014996
v -8.940697E-08 0.01427776 -0.07083528
v -8.940697E-08 8.940697E-08 -0.09999999
v 0.02694886 8.940697E-08 -0.09620227
v 0.01908924 0.01427776 -0.06814514
v 0.03979525 8.940697E-08 -0.09161548
v 0.02818902 0.01427776 -0.06489617
v 0.05192142 8.940697E-08 -0.08536833
v 0.03677858 0.01427776 -0.06047092
v 0.0630983 8.940697E-08 -0.07754972
v 0.04469599 0.01427776 -0.05493274
v 0.07308003 8.940697E-08 -0.06825463
v 0.05176654 0.01427776 -0.04834837
v 0.08164995 8.940697E-08 -0.05764328
v 0.05783706 0.01427776 -0.04083189
v 0.08869398 8.940697E-08 -0.04596228
v 0.06282669 0.01427776 -0.03255761
v 0.09412231 8.940697E-08 -0.03344816
v 0.06667171 0.01427776 -0.0236932
v 0.09784336 8.940697E-08 -0.02032501
v 0.06930768 0.01427776 -0.01439716
v 0.09975585 8.940697E-08 -0.006819636
v 0.07066247 0.01427776 -0.004830651
v 0.09975585 8.940697E-08 0.006819636
v 0.07066247 0.01427776 0.004830644
v 0.09784336 8.940697E-08 0.02032501
v 0.06930768 0.01427776 0.01439735
v 0.09412231 8.940697E-08 0.03344814
v 0.06667171 0.01427776 0.0236932
v 0.08869398 8.940697E-08 0.04596227
v 0.06282669 0.01427776 0.03255761
v 0.08164995 8.940697E-08 0.05764346
v 0.05783706 0.01427776 0.04083188
v 0.07308003 8.940697E-08 0.06825462
v 0.05176654 0.01427776 0.04834837
v 0.0630983 8.940697E-08 0.0775499
v 0.04469599 0.01427776 0.05493273
v 0.05192142 8.940697E-08 0.08536851
v 0.03677858 0.01427776 0.06047091
v 0.03979525 8.940697E-08 0.09161547
v 0.02818902 0.01427776 0.06489615
v 0.02694886 8.940697E-08 0.09620227
v 0.01908924 0.01427776 0.06814514
v 0.01360523 8.940697E-08 0.09903239
v 0.009637371 0.01427776 0.07014996
v -8.940697E-08 8.940697E-08 0.09999999
v -8.940697E-08 0.01427776 0.07083546
v -0.01360522 8.940697E-08 0.09903239
v -0.009637363 0.01427776 0.07014996
v -0.02694885 8.940697E-08 0.09620227
v -0.01908924 0.01427776 0.06814514
v -0.03979523 8.940697E-08 0.09161547
v -0.02818902 0.01427776 0.06489615
v -0.05192141 8.940697E-08 0.08536851
v -0.03677857 0.01427776 0.06047091
v -0.0630983 8.940697E-08 0.0775499
v -0.04469599 0.01427776 0.05493273
v -0.07308003 8.940697E-08 0.06825462
v -0.05176653 0.01427776 0.04834837
v -0.08164994 8.940697E-08 0.05764346
v -0.05783705 0.01427776 0.04083188
v -0.08869398 8.940697E-08 0.04596227
v -0.06282668 0.01427776 0.03255761
v -0.09412229 8.940697E-08 0.03344814
v -0.06667171 0.01427776 0.0236932
v -0.09784335 8.940697E-08 0.02032501
v -0.06930767 0.01427776 0.01439735
v -0.09975585 8.940697E-08 0.006819636
v -0.07066245 0.01427776 0.004830644
v -0.09975585 8.940697E-08 -0.006819636
v -0.07066245 0.01427776 -0.004830651
v -0.09784335 8.940697E-08 -0.02032501
v -0.06930767 0.01427776 -0.01439716
v -0.09412229 8.940697E-08 -0.03344816
v -0.06667171 0.01427776 -0.0236932
v -0.08869398 8.940697E-08 -0.04596228
v -0.06282668 0.01427776 -0.03255761
v -0.08164994 8.940697E-08 -0.05764328
v -0.05783705 0.01427776 -0.04083189
v -0.07308003 8.940697E-08 -0.06825463
v -0.05176653 0.01427776 -0.04834837
v -0.0630983 8.940697E-08 -0.07754972
v -0.04469599 0.01427776 -0.05493274
v -0.05192141 8.940697E-08 -0.08536833
v -0.03677857 0.01427776 -0.06047092
v -0.03979523 8.940697E-08 -0.09161548
v -0.02818902 0.01427776 -0.06489617
v -0.02694885 8.940697E-08 -0.09620227
v -0.01908924 0.01427776 -0.06814514
v -0.01360522 8.940697E-08 -0.09903239
v -0.009637363 0.01427776 -0.07014996
v -8.940697E-08 8.940697E-08 -0.09999999
v -8.940697E-08 0.01427776 -0.07083528
vt 0.9782254 0
vt 0.9782254 1
vt 1 1
vt 1 0
vt 0.9564965 0
vt 0.9564965 1
vt 0.9347829 0
vt 0.9347829 1
vt 0.9130694 0
vt 0.9130694 1
vt 0.8913252 0
vt 0.8913252 1
vt 0.8695506 0
vt 0.8695506 1
vt 0.8477913 0
vt 0.8477913 1
vt 0.8260624 0
vt 0.8260624 1
vt 0.8043641 0
vt 0.8043641 1
vt 0.7826352 0
vt 0.7826352 1
vt 0.7608911 0
vt 0.7608911 1
vt 0.7391165 0
vt 0.7391165 1
vt 0.7173572 0
vt 0.7173572 1
vt 0.6956435 0
vt 0.6956435 1
vt 0.67393 0
vt 0.67393 1
vt 0.6522011 0
vt 0.6522011 1
vt 0.6304417 0
vt 0.6304417 1
vt 0.6086671 0
vt 0.6086671 1
vt 0.586923 0
vt 0.586923 1
vt 0.5652094 0
vt 0.5652094 1
vt 0.5434958 0
vt 0.5434958 1
vt 0.521767 0
vt 0.521767 1
vt 0.5000076 0
vt 0.5000076 1
vt 0.478233 0
vt 0.478233 1
vt 0.4565042 0
vt 0.4565042 1
vt 0.4347906 0
vt 0.4347906 1
vt 0.413077 0
vt 0.413077 1
vt 0.3913329 0
vt 0.3913329 1
vt 0.3695582 0
vt 0.3695582 1
vt 0.3477989 0
vt 0.3477989 1
vt 0.32607 0
vt 0.32607 1
vt 0.3043565 0
vt 0.3043565 1
vt 0.2826429 0
vt 0.2826429 1
vt 0.2608835 0
vt 0.2608835 1
vt 0.2391089 0
vt 0.2391089 1
vt 0.2173648 0
vt 0.2173648 1
vt 0.1956359 0
vt 0.1956359 1
vt 0.1739376 0
vt 0.1739376 1
vt 0.1522087 0
vt 0.1522087 1
vt 0.1304494 0
vt 0.1304494 1
vt 0.1086748 0
vt 0.1086748 1
vt 0.08693065 0
vt 0.08693065 1
vt 0.06521706 0
vt 0.06521706 1
vt 0.04350347 0
vt 0.04350347 1
vt 0.02177462 0
vt 0.02177462 1
vt 0 0
vt 0 1
vn 0.06100005 0.8981475 -0.4354424
vn 0.06100005 0.8981475 -0.4354424
vn -0.0004167557 0.8981475 -0.4396941
vn -0.0004167557 0.8981475 -0.4396941
vn 0.1198034 0.8981475 -0.4230582
vn 0.1198034 0.8981475 -0.4230582
vn 0.1746865 0.8981475 -0.4035043
vn 0.1746865 0.8981475 -0.4035043
vn 0.2269561 0.8981475 -0.3765927
vn 0.2269561 0.8981475 -0.3765927
vn 0.2766122 0.8981475 -0.3417847
vn 0.2766122 0.8981475 -0.3417847
vn 0.3210414 0.8981475 -0.3004389
vn 0.3210414 0.8981475 -0.3004389
vn 0.3602436 0.8981475 -0.2521025
vn 0.3602436 0.8981475 -0.2521025
vn 0.3916054 0.8981475 -0.1999409
vn 0.3916054 0.8981475 -0.1999409
vn 0.4151267 0.8981475 -0.1449172
vn 0.4151267 0.8981475 -0.1449172
vn 0.4308076 0.8981475 -0.08795435
vn 0.4308076 0.8981475 -0.08795435
vn 0.438648 0.8981475 -0.03031574
vn 0.438648 0.8981475 -0.03031574
vn 0.438648 0.8981475 0.03031574
vn 0.438648 0.8981475 0.03031574
vn 0.4308076 0.8981475 0.08795435
vn 0.4308076 0.8981475 0.08795435
vn 0.4151267 0.8981475 0.1449172
vn 0.4151267 0.8981475 0.1449172
vn 0.3916054 0.8981475 0.1999409
vn 0.3916054 0.8981475 0.1999409
vn 0.3602436 0.8981475 0.2521025
vn 0.3602436 0.8981475 0.2521025
vn 0.3210414 0.8981475 0.3004389
vn 0.3210414 0.8981475 0.3004389
vn 0.2766122 0.8981475 0.3417847
vn 0.2766122 0.8981475 0.3417847
vn 0.2269561 0.8981475 0.3765927
vn 0.2269561 0.8981475 0.3765927
vn 0.1746865 0.8981475 0.4035043
vn 0.1746865 0.8981475 0.4035043
vn 0.1198034 0.8981475 0.4230582
vn 0.1198034 0.8981475 0.4230582
vn 0.06100005 0.8981475 0.4354424
vn 0.06100005 0.8981475 0.4354424
vn -0.0004167557 0.8981475 0.4396941
vn -0.0004167557 0.8981475 0.4396941
vn -0.06183353 0.8981475 0.4353248
vn -0.06183353 0.8981475 0.4353248
vn -0.1193301 0.8981475 0.423192
vn -0.1193301 0.8981475 0.423192
vn -0.17552 0.8981475 0.4031425
vn -0.17552 0.8981475 0.4031425
vn -0.2277896 0.8981475 0.3760891
vn -0.2277896 0.8981475 0.3760891
vn -0.276139 0.8981475 0.3421672
vn -0.276139 0.8981475 0.3421672
vn -0.3218749 0.8981475 0.2995458
vn -0.3218749 0.8981475 0.2995458
vn -0.3597704 0.8981475 0.2527774
vn -0.3597704 0.8981475 0.2527774
vn -0.3911321 0.8981475 0.200865
vn -0.3911321 0.8981475 0.200865
vn -0.4146535 0.8981475 0.1462657
vn -0.4146535 0.8981475 0.1462657
vn -0.4303344 0.8981475 0.09024093
vn -0.4303344 0.8981475 0.09024093
vn -0.4381748 0.8981475 0.03652331
vn -0.4381748 0.8981475 0.03652331
vn -0.4381748 0.8981475 -0.03652331
vn -0.4381748 0.8981475 -0.03652331
vn -0.4303344 0.8981475 -0.09024093
vn -0.4303344 0.8981475 -0.09024093
vn -0.4146535 0.8981475 -0.1462657
vn -0.4146535 0.8981475 -0.1462657
vn -0.3911321 0.8981475 -0.200865
vn -0.3911321 0.8981475 -0.200865
vn -0.3597704 0.8981475 -0.2527774
vn -0.3597704 0.8981475 -0.2527774
vn -0.3218749 0.8981475 -0.2995458
vn -0.3218749 0.8981475 -0.2995458
vn -0.276139 0.8981475 -0.3421672
vn -0.276139 0.8981475 -0.3421672
vn -0.2277896 0.8981475 -0.3760891
vn -0.2277896 0.8981475 -0.3760891
vn -0.17552 0.8981475 -0.4031425
vn -0.17552 0.8981475 -0.4031425
vn -0.1193301 0.8981475 -0.423192
vn -0.1193301 0.8981475 -0.423192
vn -0.06183353 0.8981475 -0.4353248
vn -0.06183353 0.8981475 -0.4353248
vn -0.0004167557 0.8981475 -0.4396941
vn -0.0004167557 0.8981475 -0.4396941
g RingDisk11_0
f 3/3/3 2/2/2 1/1/1
f 4/4/4 3/3/3 1/1/1
f 1/1/1 2/2/2 5/5/5
f 2/2/2 6/6/6 5/5/5
f 5/5/5 6/6/6 7/7/7
f 6/6/6 8/8/8 7/7/7
f 7/7/7 8/8/8 9/9/9
f 8/8/8 10/10/10 9/9/9
f 9/9/9 10/10/10 11/11/11
f 10/10/10 12/12/12 11/11/11
f 11/11/11 12/12/12 13/13/13
f 12/12/12 14/14/14 13/13/13
f 13/13/13 14/14/14 15/15/15
f 14/14/14 16/16/16 15/15/15
f 15/15/15 16/16/16 17/17/17
f 16/16/16 18/18/18 17/17/17
f 17/17/17 18/18/18 19/19/19
f 18/18/18 20/20/20 19/19/19
f 19/19/19 20/20/20 21/21/21
f 20/20/20 22/22/22 21/21/21
f 21/21/21 22/22/22 23/23/23
f 22/22/22 24/24/24 23/23/23
f 23/23/23 24/24/24 25/25/25
f 24/24/24 26/26/26 25/25/25
f 25/25/25 26/26/26 27/27/27
f 26/26/26 28/28/28 27/27/27
f 27/27/27 28/28/28 29/29/29
f 28/28/28 30/30/30 29/29/29
f 29/29/29 30/30/30 31/31/31
f 30/30/30 32/32/32 31/31/31
f 31/31/31 32/32/32 33/33/33
f 32/32/32 34/34/34 33/33/33
f 33/33/33 34/34/34 35/35/35
f 34/34/34 36/36/36 35/35/35
f 35/35/35 36/36/36 37/37/37
f 36/36/36 38/38/38 37/37/37
f 37/37/37 38/38/38 39/39/39
f 38/38/38 40/40/40 39/39/39
f 39/39/39 40/40/40 41/41/41
f 40/40/40 42/42/42 41/41/41
f 41/41/41 42/42/42 43/43/43
f 42/42/42 44/44/44 43/43/43
f 43/43/43 44/44/44 45/45/45
f 44/44/44 46/46/46 45/45/45
f 45/45/45 46/46/46 47/47/47
f 46/46/46 48/48/48 47/47/47
f 47/47/47 48/48/48 49/49/49
f 48/48/48 50/50/50 49/49/49
f 49/49/49 50/50/50 51/51/51
f 50/50/50 52/52/52 51/51/51
f 51/51/51 52/52/52 53/53/53
f 52/52/52 54/54/54 53/53/53
f 53/53/53 54/54/54 55/55/55
f 54/54/54 56/56/56 55/55/55
f 55/55/55 56/56/56 57/57/57
f 56/56/56 58/58/58 57/57/57
f 57/57/57 58/58/58 59/59/59
f 58/58/58 60/60/60 59/59/59
f 59/59/59 60/60/60 61/61/61
f 60/60/60 62/62/62 61/61/61
f 61/61/61 62/62/62 63/63/63
f 62/62/62 64/64/64 63/63/63
f 63/63/63 64/64/64 65/65/65
f 64/64/64 66/66/66 65/65/65
f 65/65/65 66/66/66 67/67/67
f 66/66/66 68/68/68 67/67/67
f 67/67/67 68/68/68 69/69/69
f 68/68/68 70/70/70 69/69/69
f 69/69/69 70/70/70 71/71/71
f 70/70/70 72/72/72 71/71/71
f 71/71/71 72/72/72 73/73/73
f 72/72/72 74/74/74 73/73/73
f 73/73/73 74/74/74 75/75/75
f 74/74/74 76/76/76 75/75/75
f 75/75/75 76/76/76 77/77/77
f 76/76/76 78/78/78 77/77/77
f 77/77/77 78/78/78 79/79/79
f 78/78/78 80/80/80 79/79/79
f 79/79/79 80/80/80 81/81/81
f 80/80/80 82/82/82 81/81/81
f 81/81/81 82/82/82 83/83/83
f 82/82/82 84/84/84 83/83/83
f 83/83/83 84/84/84 85/85/85
f 84/84/84 86/86/86 85/85/85
f 85/85/85 86/86/86 87/87/87
f 86/86/86 88/88/88 87/87/87
f 87/87/87 88/88/88 89/89/89
f 88/88/88 90/90/90 89/89/89
f 89/89/89 90/90/90 91/91/91
f 90/90/90 92/92/92 91/91/91
f 91/91/91 92/92/92 93/93/93
f 92/92/92 94/94/94 93/93/93
