g RingDisk12
v 0.01724475 0.01427765 -0.1255245
v -1.192093E-07 0.01427765 -0.126751
v -1.192093E-07 1.192093E-07 -0.07083536
v 0.009637333 1.192093E-07 -0.07014997
v 0.03415793 0.01427765 -0.1219373
v 0.01908937 1.192093E-07 -0.06814507
v 0.05044086 0.01427765 -0.1161235
v 0.02818916 1.192093E-07 -0.06489632
v 0.06581089 0.01427765 -0.1082052
v 0.0367786 1.192093E-07 -0.06047093
v 0.0799777 0.01427765 -0.09829526
v 0.04469594 1.192093E-07 -0.05493273
v 0.09262965 0.01427765 -0.0865134
v 0.05176642 1.192093E-07 -0.04834843
v 0.1034921 0.01427765 -0.07306365
v 0.05783697 -1.192093E-07 -0.04083192
v 0.1124205 0.01427765 -0.05825763
v 0.06282663 -1.192093E-07 -0.03255749
v 0.1193009 0.01427765 -0.04239585
v 0.0666718 -1.192093E-07 -0.02369317
v 0.1240174 0.01427765 -0.02576214
v 0.06930768 1.192093E-07 -0.01439732
v 0.1264415 0.01427765 -0.008643948
v 0.0706625 1.192093E-07 -0.004830696
v 0.1264415 0.01427765 0.008643955
v 0.0706625 1.192093E-07 0.004830703
v 0.1240174 0.01427765 0.02576216
v 0.06930768 1.192093E-07 0.01439732
v 0.1193009 0.01427765 0.04239586
v 0.0666718 1.192093E-07 0.02369319
v 0.1124205 0.01427765 0.05825764
v 0.06282663 1.192093E-07 0.0325575
v 0.1034921 0.01427765 0.07306366
v 0.05783697 1.192093E-07 0.04083192
v 0.09262965 0.01427765 0.08651341
v 0.05176642 -1.192093E-07 0.04834844
v 0.0799777 0.01427765 0.09829527
v 0.04469594 1.192093E-07 0.05493274
v 0.06581089 0.01427765 0.1082052
v 0.0367786 -1.192093E-07 0.06047094
v 0.05044086 0.01427765 0.1161235
v 0.02818916 1.192093E-07 0.06489633
v 0.03415793 0.01427765 0.1219373
v 0.01908937 1.192093E-07 0.06814532
v 0.01724475 0.01427765 0.1255245
v 0.009637333 1.192093E-07 0.07014999
v -1.192093E-07 0.01427765 0.126751
v -1.192093E-07 1.192093E-07 0.07083537
v -0.01724476 0.01427765 0.1255245
v -0.009637341 1.192093E-07 0.07014999
v -0.03415795 0.01427765 0.1219373
v -0.01908937 1.192093E-07 0.06814532
v -0.05044086 0.01427765 0.1161235
v -0.02818917 1.192093E-07 0.06489633
v -0.0658109 0.01427765 0.1082052
v -0.03677861 -1.192093E-07 0.06047094
v -0.07997771 0.01427765 0.09829527
v -0.04469596 1.192093E-07 0.05493274
v -0.09262966 0.01427765 0.08651341
v -0.05176643 -1.192093E-07 0.04834844
v -0.1034921 0.01427765 0.07306366
v -0.05783698 1.192093E-07 0.04083192
v -0.1124205 0.01427765 0.05825764
v -0.06282663 1.192093E-07 0.0325575
v -0.1193007 0.01427765 0.04239586
v -0.0666718 1.192093E-07 0.02369319
v -0.1240174 0.01427765 0.02576216
v -0.0693077 1.192093E-07 0.01439732
v -0.1264415 0.01427765 0.008643955
v -0.07066251 1.192093E-07 0.004830703
v -0.1264415 0.01427765 -0.008643948
v -0.07066251 1.192093E-07 -0.004830696
v -0.1240174 0.01427765 -0.02576214
v -0.0693077 1.192093E-07 -0.01439732
v -0.1193007 0.01427765 -0.04239585
v -0.0666718 -1.192093E-07 -0.02369317
v -0.1124205 0.01427765 -0.05825763
v -0.06282663 -1.192093E-07 -0.03255749
v -0.1034921 0.01427765 -0.07306365
v -0.05783698 -1.192093E-07 -0.04083192
v -0.09262966 0.01427765 -0.0865134
v -0.05176643 1.192093E-07 -0.04834843
v -0.07997771 0.01427765 -0.09829526
v -0.04469596 1.192093E-07 -0.05493273
v -0.0658109 0.01427765 -0.1082052
v -0.03677861 1.192093E-07 -0.06047093
v -0.05044086 0.01427765 -0.1161235
v -0.02818917 1.192093E-07 -0.06489632
v -0.03415795 0.01427765 -0.1219373
v -0.01908937 1.192093E-07 -0.06814507
v -0.01724476 0.01427765 -0.1255245
v -0.009637341 1.192093E-07 -0.07014997
v -1.192093E-07 0.01427765 -0.126751
v -1.192093E-07 1.192093E-07 -0.07083536
vt 0.9782254 0
vt 1 0
vt 1 1
vt 0.9782254 1
vt 0.9564965 0
vt 0.9564965 1
vt 0.9347829 0
vt 0.9347829 1
vt 0.9130694 0
vt 0.9130694 1
vt 0.8913252 0
vt 0.8913252 1
vt 0.8695506 0
vt 0.8695506 1
vt 0.8477913 0
vt 0.8477913 1
vt 0.8260624 0
vt 0.8260624 1
vt 0.8043641 0
vt 0.8043641 1
vt 0.7826352 0
vt 0.7826352 1
vt 0.7608911 0
vt 0.7608911 1
vt 0.7391165 0
vt 0.7391165 1
vt 0.7173572 0
vt 0.7173572 1
vt 0.6956435 0
vt 0.6956435 1
vt 0.67393 0
vt 0.67393 1
vt 0.6522011 0
vt 0.6522011 1
vt 0.6304417 0
vt 0.6304417 1
vt 0.6086671 0
vt 0.6086671 1
vt 0.586923 0
vt 0.586923 1
vt 0.5652094 0
vt 0.5652094 1
vt 0.5434958 0
vt 0.5434958 1
vt 0.521767 0
vt 0.521767 1
vt 0.5000076 0
vt 0.5000076 1
vt 0.478233 0
vt 0.478233 1
vt 0.4565042 0
vt 0.4565042 1
vt 0.4347906 0
vt 0.4347906 1
vt 0.413077 0
vt 0.413077 1
vt 0.3913329 0
vt 0.3913329 1
vt 0.3695582 0
vt 0.3695582 1
vt 0.3477989 0
vt 0.3477989 1
vt 0.32607 0
vt 0.32607 1
vt 0.3043565 0
vt 0.3043565 1
vt 0.2826429 0
vt 0.2826429 1
vt 0.2608835 0
vt 0.2608835 1
vt 0.2391089 0
vt 0.2391089 1
vt 0.2173648 0
vt 0.2173648 1
vt 0.1956359 0
vt 0.1956359 1
vt 0.1739376 0
vt 0.1739376 1
vt 0.1522087 0
vt 0.1522087 1
vt 0.1304494 0
vt 0.1304494 1
vt 0.1086748 0
vt 0.1086748 1
vt 0.08693065 0
vt 0.08693065 1
vt 0.06521706 0
vt 0.06521706 1
vt 0.04350347 0
vt 0.04350347 1
vt 0.02177462 0
vt 0.02177462 1
vt 0 0
vt 0 1
vn 0.03482932 -0.9689118 -0.2449424
vn 0.0003656745 -0.9689118 -0.247406
vn 0.0003656745 -0.9689118 -0.247406
vn 0.03482932 -0.9689118 -0.2449424
vn 0.06691611 -0.9689118 -0.238185
vn 0.06691611 -0.9689118 -0.238185
vn 0.0990029 -0.9689118 -0.226734
vn 0.0990029 -0.9689118 -0.226734
vn 0.1275245 -0.9689118 -0.212008
vn 0.1275245 -0.9689118 -0.212008
vn 0.1560461 -0.9689118 -0.1919882
vn 0.1560461 -0.9689118 -0.1919882
vn 0.1810025 -0.9689118 -0.1686651
vn 0.1810025 -0.9689118 -0.1686651
vn 0.2023937 -0.9689118 -0.1422906
vn 0.2023937 -0.9689118 -0.1422906
vn 0.2202197 -0.9689118 -0.1127525
vn 0.2202197 -0.9689118 -0.1127525
vn 0.2332921 -0.9689118 -0.08236916
vn 0.2332921 -0.9689118 -0.08236916
vn 0.2416109 -0.9689118 -0.05323553
vn 0.2416109 -0.9689118 -0.05323553
vn 0.2463645 -0.9689118 -0.02268013
vn 0.2463645 -0.9689118 -0.02268013
vn 0.2463645 -0.9689118 0.02268013
vn 0.2463645 -0.9689118 0.02268013
vn 0.2416109 -0.9689118 0.05323553
vn 0.2416109 -0.9689118 0.05323553
vn 0.2332921 -0.9689118 0.08236916
vn 0.2332921 -0.9689118 0.08236916
vn 0.2202197 -0.9689118 0.1127525
vn 0.2202197 -0.9689118 0.1127525
vn 0.2023937 -0.9689118 0.1422906
vn 0.2023937 -0.9689118 0.1422906
vn 0.1810025 -0.9689118 0.1686651
vn 0.1810025 -0.9689118 0.1686651
vn 0.1560461 -0.9689118 0.1919882
vn 0.1560461 -0.9689118 0.1919882
vn 0.1275245 -0.9689118 0.212008
vn 0.1275245 -0.9689118 0.212008
vn 0.0990029 -0.9689118 0.226734
vn 0.0990029 -0.9689118 0.226734
vn 0.06691611 -0.9689118 0.238185
vn 0.06691611 -0.9689118 0.238185
vn 0.03482932 -0.9689118 0.2449424
vn 0.03482932 -0.9689118 0.2449424
vn 0.0003656745 -0.9689118 0.247406
vn 0.0003656745 -0.9689118 0.247406
vn -0.03409785 -0.9689118 0.2450453
vn -0.03409785 -0.9689118 0.2450453
vn -0.0673731 -0.9689118 0.2380561
vn -0.0673731 -0.9689118 0.2380561
vn -0.09827155 -0.9689118 0.2270518
vn -0.09827155 -0.9689118 0.2270518
vn -0.1279815 -0.9689118 0.2117324
vn -0.1279815 -0.9689118 0.2117324
vn -0.1553147 -0.9689118 0.1925804
vn -0.1553147 -0.9689118 0.1925804
vn -0.1814595 -0.9689118 0.1681734
vn -0.1814595 -0.9689118 0.1681734
vn -0.2028508 -0.9689118 0.1416384
vn -0.2028508 -0.9689118 0.1416384
vn -0.2206767 -0.9689118 0.1118556
vn -0.2206767 -0.9689118 0.1118556
vn -0.2337491 -0.9689118 0.08106314
vn -0.2337491 -0.9689118 0.08106314
vn -0.242068 -0.9689118 0.05111701
vn -0.242068 -0.9689118 0.05111701
vn -0.2468216 -0.9689118 0.01699892
vn -0.2468216 -0.9689118 0.01699892
vn -0.2468216 -0.9689118 -0.01699892
vn -0.2468216 -0.9689118 -0.01699892
vn -0.242068 -0.9689118 -0.05111701
vn -0.242068 -0.9689118 -0.05111701
vn -0.2337491 -0.9689118 -0.08106314
vn -0.2337491 -0.9689118 -0.08106314
vn -0.2206767 -0.9689118 -0.1118556
vn -0.2206767 -0.9689118 -0.1118556
vn -0.2028508 -0.9689118 -0.1416384
vn -0.2028508 -0.9689118 -0.1416384
vn -0.1814595 -0.9689118 -0.1681734
vn -0.1814595 -0.9689118 -0.1681734
vn -0.1553147 -0.9689118 -0.1925804
vn -0.1553147 -0.9689118 -0.1925804
vn -0.1279815 -0.9689118 -0.2117324
vn -0.1279815 -0.9689118 -0.2117324
vn -0.09827155 -0.9689118 -0.2270518
vn -0.09827155 -0.9689118 -0.2270518
vn -0.0673731 -0.9689118 -0.2380561
vn -0.0673731 -0.9689118 -0.2380561
vn -0.03409785 -0.9689118 -0.2450453
vn -0.03409785 -0.9689118 -0.2450453
vn 0.0003656745 -0.9689118 -0.247406
vn 0.0003656745 -0.9689118 -0.247406
g RingDisk12_0
f 3/3/3 2/2/2 1/1/1
f 4/4/4 3/3/3 1/1/1
f 4/4/4 1/1/1 5/5/5
f 6/6/6 4/4/4 5/5/5
f 6/6/6 5/5/5 7/7/7
f 8/8/8 6/6/6 7/7/7
f 8/8/8 7/7/7 9/9/9
f 10/10/10 8/8/8 9/9/9
f 10/10/10 9/9/9 11/11/11
f 12/12/12 10/10/10 11/11/11
f 12/12/12 11/11/11 13/13/13
f 14/14/14 12/12/12 13/13/13
f 14/14/14 13/13/13 15/15/15
f 16/16/16 14/14/14 15/15/15
f 16/16/16 15/15/15 17/17/17
f 18/18/18 16/16/16 17/17/17
f 18/18/18 17/17/17 19/19/19
f 20/20/20 18/18/18 19/19/19
f 20/20/20 19/19/19 21/21/21
f 22/22/22 20/20/20 21/21/21
f 22/22/22 21/21/21 23/23/23
f 24/24/24 22/22/22 23/23/23
f 24/24/24 23/23/23 25/25/25
f 26/26/26 24/24/24 25/25/25
f 26/26/26 25/25/25 27/27/27
f 28/28/28 26/26/26 27/27/27
f 28/28/28 27/27/27 29/29/29
f 30/30/30 28/28/28 29/29/29
f 30/30/30 29/29/29 31/31/31
f 32/32/32 30/30/30 31/31/31
f 32/32/32 31/31/31 33/33/33
f 34/34/34 32/32/32 33/33/33
f 34/34/34 33/33/33 35/35/35
f 36/36/36 34/34/34 35/35/35
f 36/36/36 35/35/35 37/37/37
f 38/38/38 36/36/36 37/37/37
f 38/38/38 37/37/37 39/39/39
f 40/40/40 38/38/38 39/39/39
f 40/40/40 39/39/39 41/41/41
f 42/42/42 40/40/40 41/41/41
f 42/42/42 41/41/41 43/43/43
f 44/44/44 42/42/42 43/43/43
f 44/44/44 43/43/43 45/45/45
f 46/46/46 44/44/44 45/45/45
f 46/46/46 45/45/45 47/47/47
f 48/48/48 46/46/46 47/47/47
f 48/48/48 47/47/47 49/49/49
f 50/50/50 48/48/48 49/49/49
f 50/50/50 49/49/49 51/51/51
f 52/52/52 50/50/50 51/51/51
f 52/52/52 51/51/51 53/53/53
f 54/54/54 52/52/52 53/53/53
f 54/54/54 53/53/53 55/55/55
f 56/56/56 54/54/54 55/55/55
f 56/56/56 55/55/55 57/57/57
f 58/58/58 56/56/56 57/57/57
f 58/58/58 57/57/57 59/59/59
f 60/60/60 58/58/58 59/59/59
f 60/60/60 59/59/59 61/61/61
f 62/62/62 60/60/60 61/61/61
f 62/62/62 61/61/61 63/63/63
f 64/64/64 62/62/62 63/63/63
f 64/64/64 63/63/63 65/65/65
f 66/66/66 64/64/64 65/65/65
f 66/66/66 65/65/65 67/67/67
f 68/68/68 66/66/66 67/67/67
f 68/68/68 67/67/67 69/69/69
f 70/70/70 68/68/68 69/69/69
f 70/70/70 69/69/69 71/71/71
f 72/72/72 70/70/70 71/71/71
f 72/72/72 71/71/71 73/73/73
f 74/74/74 72/72/72 73/73/73
f 74/74/74 73/73/73 75/75/75
f 76/76/76 74/74/74 75/75/75
f 76/76/76 75/75/75 77/77/77
f 78/78/78 76/76/76 77/77/77
f 78/78/78 77/77/77 79/79/79
f 80/80/80 78/78/78 79/79/79
f 80/80/80 79/79/79 81/81/81
f 82/82/82 80/80/80 81/81/81
f 82/82/82 81/81/81 83/83/83
f 84/84/84 82/82/82 83/83/83
f 84/84/84 83/83/83 85/85/85
f 86/86/86 84/84/84 85/85/85
f 86/86/86 85/85/85 87/87/87
f 88/88/88 86/86/86 87/87/87
f 88/88/88 87/87/87 89/89/89
f 90/90/90 88/88/88 89/89/89
f 90/90/90 89/89/89 91/91/91
f 92/92/92 90/90/90 91/91/91
f 92/92/92 91/91/91 93/93/93
f 94/94/94 92/92/92 93/93/93
