g Rock_FX00
v 0.9116745 -0.6335363 0.4337978
v 0.4848568 -0.2565053 0.8894871
v 0.7511368 0.1249954 0.781315
v 0.1446062 -0.03990185 1.093238
v 0.06073773 0.4921715 1.112657
v -0.9116749 -0.3976235 0.2846175
v -0.6382986 -0.7224256 0.4176809
v -0.5768716 -1.2565 -0.3084609
v 0.08796299 -0.8316189 0.349625
v 0.8188787 -1.151431 -0.2213641
v 0.4621132 -1.25568 -0.2948171
v 0.7511368 0.1249954 0.781315
v 0.6197559 1.086666 -0.7070803
v 0.6567448 0.9547104 -1.093089
v 0.9116745 -0.6335363 0.4337978
v 0.7229457 -0.2675008 -1.112657
v 0.8188787 -1.151431 -0.2213641
v 0.4621132 -1.25568 -0.2948171
v 0.8188787 -1.151431 -0.2213641
v 0.5063902 -0.4059349 -1.082496
v 0.7229457 -0.2675008 -1.112657
v -0.4045979 -0.5580869 -0.9520905
v -0.5768716 -1.2565 -0.3084609
v -0.5768716 -1.2565 -0.3084609
v -0.4045979 -0.5580869 -0.9520905
v -0.9116749 -0.3976235 0.2846175
v -0.5402398 0.4882603 -0.9239259
v 0.06073773 0.4921715 1.112657
v -0.9116749 -0.3976235 0.2846175
v 0.2258146 1.2565 -0.4635631
v -0.0213573 1.144946 -0.9935371
v -0.5402398 0.4882603 -0.9239259
v 0.06073773 0.4921715 1.112657
v 0.2258146 1.2565 -0.4635631
v 0.7511368 0.1249954 0.781315
v 0.6197559 1.086666 -0.7070803
v -0.4045979 -0.5580869 -0.9520905
v 0.5063902 -0.4059349 -1.082496
v -0.5402398 0.4882603 -0.9239259
v 0.6567448 0.9547104 -1.093089
v -0.0213573 1.144946 -0.9935371
v 0.7229457 -0.2675008 -1.112657
v 0.6567448 0.9547104 -1.093089
v 0.6197559 1.086666 -0.7070803
v -0.0213573 1.144946 -0.9935371
v 0.2258146 1.2565 -0.4635631
vt 0.6557517 0.84497
vt 0.5946944 0.9099196
vt 0.6370631 0.9556606
vt 0.5506617 0.9364818
vt 0.5251989 0.9968706
vt 0.4206884 0.8286435
vt 0.4730996 0.8156447
vt 0.4918031 0.7118918
vt 0.5581045 0.8133866
vt 0.6578166 0.738959
vt 0.6183596 0.7169279
vt 0.09663879 0.3482366
vt 0.4667116 0.6035782
vt 0.5653987 0.5710588
vt 0.1903343 0.1530017
vt 0.5728415 0.260424
vt 0.3518912 0.0291786
vt 0.4090563 0.05510197
vt 0.3014112 0.08044596
vt 0.4422293 0.3922098
vt 0.3812611 0.4380845
vt 0.6985216 0.3041743
vt 0.7108222 0.0232957
vt 0.5276204 0.0232957
vt 0.3731647 0.1907354
vt 0.6880482 0.2242056
vt 0.3930714 0.4380994
vt 0.5463833 0.3531093
vt 0.2978012 0.06995777
vt 0.1747357 0.5750402
vt 0.03452669 0.5355386
vt 0.02518239 0.3328312
vt 0.3332323 0.1560768
vt 0.5686818 0.4931847
vt 0.5143245 0.07838101
vt 0.679001 0.4632502
vt 0.2694415 0.06214362
vt 0.07445908 0.09423215
vt 0.2986183 0.2844013
vt 0.04244483 0.3831626
vt 0.1876306 0.4237338
vt 0.02812384 0.1235724
vt 0.8240828 0.2349612
vt 0.7895728 0.3226995
vt 0.9693874 0.337377
vt 0.8532744 0.4222779
vn 0.9625054 -0.165969 0.2145639
vn 0.2722982 -0.5222651 0.8081416
vn 0.8636379 0.3917931 0.3172189
vn -0.2015197 -0.2909524 0.9352735
vn -0.4141781 0.7424929 0.5264607
vn -0.9458242 0.281733 0.1613788
vn -0.3899276 -0.5950167 0.7027884
vn -0.5484887 -0.7815592 -0.2971958
vn 0.01300418 -0.7666358 0.6419505
vn 0.861752 -0.5073297 0
vn 0.09881371 -0.9531783 -0.2858094
vn 0.8636379 0.3917931 0.3172189
vn 0.7685012 0.6268366 0.1283813
vn 0.6994805 0.1884617 -0.6893542
vn 0.9625054 -0.165969 0.2145639
vn 0.9550437 -0.01113874 -0.2962558
vn 0.861752 -0.5073297 0
vn 0.09881371 -0.9531783 -0.2858094
vn 0.861752 -0.5073297 0
vn -0.03363144 -0.315203 -0.9484282
vn 0.9550437 -0.01113874 -0.2962558
vn -0.5503541 -0.3189338 -0.7716162
vn -0.5484887 -0.7815592 -0.2971958
vn -0.5484887 -0.7815592 -0.2971958
vn -0.5503541 -0.3189338 -0.7716162
vn -0.9458242 0.281733 0.1613788
vn -0.75182 0.2761367 -0.5987614
vn -0.4141781 0.7424929 0.5264607
vn -0.9458242 0.281733 0.1613788
vn -0.378735 0.8693418 0.3174976
vn -0.6846647 0.6790684 -0.2647648
vn -0.75182 0.2761367 -0.5987614
vn -0.4141781 0.7424929 0.5264607
vn -0.378735 0.8693418 0.3174976
vn 0.8636379 0.3917931 0.3172189
vn 0.7685012 0.6268366 0.1283813
vn -0.5503541 -0.3189338 -0.7716162
vn -0.03363144 -0.315203 -0.9484282
vn -0.75182 0.2761367 -0.5987614
vn 0.6994805 0.1884617 -0.6893542
vn -0.6846647 0.6790684 -0.2647648
vn 0.9550437 -0.01113874 -0.2962558
vn 0.6994805 0.1884617 -0.6893542
vn 0.7685012 0.6268366 0.1283813
vn -0.6846647 0.6790684 -0.2647648
vn -0.378735 0.8693418 0.3174976
g Rock_FX00_0
f 3/3/3 2/2/2 1/1/1
f 4/4/4 2/2/2 3/3/3
f 4/4/4 3/3/3 5/5/5
f 6/6/6 4/4/4 5/5/5
f 6/6/6 7/7/7 4/4/4
f 8/8/8 7/7/7 6/6/6
f 4/4/4 7/7/7 9/9/9
f 8/8/8 9/9/9 7/7/7
f 4/4/4 9/9/9 2/2/2
f 2/2/2 9/9/9 1/1/1
f 9/9/9 10/10/10 1/1/1
f 8/8/8 11/11/11 9/9/9
f 9/9/9 11/11/11 10/10/10
f 14/14/14 13/13/13 12/12/12
f 12/12/12 15/15/15 14/14/14
f 14/14/14 15/15/15 16/16/16
f 16/16/16 15/15/15 17/17/17
f 20/20/20 19/19/19 18/18/18
f 20/20/20 21/21/21 19/19/19
f 22/22/22 20/20/20 18/18/18
f 22/22/22 18/18/18 23/23/23
f 26/26/26 25/25/25 24/24/24
f 26/26/26 27/27/27 25/25/25
f 30/30/30 29/29/29 28/28/28
f 31/31/31 29/29/29 30/30/30
f 31/31/31 32/32/32 29/29/29
f 35/35/35 34/34/34 33/33/33
f 35/35/35 36/36/36 34/34/34
f 39/39/39 38/38/38 37/37/37
f 39/39/39 40/40/40 38/38/38
f 41/41/41 40/40/40 39/39/39
f 40/40/40 42/42/42 38/38/38
f 45/45/45 44/44/44 43/43/43
f 45/45/45 46/46/46 44/44/44
