g Rock_Fx01
v 1.454383 0.5089121 0.1076232
v 1.439354 -0.4122398 0.1448715
v 1.524011 -0.1093165 0.5808265
v 1.191439 0.7750499 0.5608134
v 1.060244 1.173194 0.0677557
v 0.7083305 1.194633 0.5454581
v 1.013988 0.8680463 1.027057
v 1.419732 -0.2900519 0.9687638
v 1.419947 -0.7497423 0.6181152
v 1.165016 -1.27906 -0.1826322
v 1.263149 -0.8017556 -0.3864474
v 1.164845 -0.8917971 -0.5873979
v 0.9330007 -1.310302 -0.6268274
v 0.6648213 -0.4990219 -1.232537
v 1.244897 0.5440288 -0.7102227
v 0.4807737 1.572134 -0.56443
v 0.5555685 0.3002808 -1.319938
v -0.03107297 1.629029 -0.2887065
v 0.2282698 1.481863 -0.8368444
v 1.013988 0.8680463 1.027057
v 1.419732 -0.2900519 0.9687638
v 0.306877 0.5142004 1.15934
v -0.002866387 -0.6761996 1.319938
v 1.013988 0.8680463 1.027057
v 0.306877 0.5142004 1.15934
v 0.7083305 1.194633 0.5454581
v -0.4838841 0.5125878 0.7430589
v -0.03107297 1.629029 -0.2887065
v -1.449806 0.4175408 0.2598912
v 1.165016 -1.27906 -0.1826322
v 0.9330007 -1.310302 -0.6268274
v -1.001494 -1.617259 0.6400516
v -1.069674 -1.629029 0.4219871
v 1.419732 -0.2900519 0.9687638
v 1.419947 -0.7497423 0.6181152
v -0.002866387 -0.6761996 1.319938
v -0.4685318 -1.118692 1.19491
v 1.165016 -1.27906 -0.1826322
v -0.9159489 -1.372812 1.028256
v -1.001494 -1.617259 0.6400516
v 0.5555685 0.3002808 -1.319938
v -1.524014 0.1847484 -0.08721232
v -1.338692 -0.8996053 -0.05139339
v 0.6648213 -0.4990219 -1.232537
v 0.9330007 -1.310302 -0.6268274
v -1.069674 -1.629029 0.4219871
v 0.2282698 1.481863 -0.8368444
v -1.449806 0.4175408 0.2598912
v -0.4838841 0.5125878 0.7430589
v -0.9159489 -1.372812 1.028256
v -0.4685318 -1.118692 1.19491
v -0.002866387 -0.6761996 1.319938
v 0.306877 0.5142004 1.15934
v 0.2282698 1.481863 -0.8368444
v -0.03107297 1.629029 -0.2887065
v -1.524014 0.1847484 -0.08721232
v -1.449806 0.4175408 0.2598912
v -1.449806 0.4175408 0.2598912
v -0.9159489 -1.372812 1.028256
v -1.524014 0.1847484 -0.08721232
v -1.338692 -0.8996053 -0.05139339
v -1.001494 -1.617259 0.6400516
v -1.069674 -1.629029 0.4219871
vt 0.1336224 0.7390108
vt 0.1881864 0.6621219
vt 0.1256177 0.6535003
vt 0.05987657 0.7466778
vt 0.07913186 0.8145926
vt 0.02672694 0.8134176
vt 0.005665094 0.7318875
vt 0.1024262 0.613242
vt 0.1753642 0.5976292
vt 0.2975346 0.6241548
vt 0.2694816 0.6757225
vt 0.2956987 0.6874285
vt 0.3448724 0.6683494
vt 0.3263074 0.7919738
vt 0.1977479 0.8145338
vt 0.1050259 0.9223253
vt 0.267161 0.863355
vt 0.07623842 0.9540502
vt 0.1403052 0.9453112
vt 0.8966515 0.2977696
vt 0.9682089 0.09562589
vt 0.7712499 0.2361997
vt 0.7140127 0.02895943
vt 0.6152835 0.1284377
vt 0.4676009 0.02721162
vt 0.5252053 0.2421922
vt 0.27496 0.06044938
vt 0.3233993 0.4101729
vt 0.04088566 0.08156998
vt 0.1913295 0.4862247
vt 0.2975346 0.5463846
vt 0.5334302 0.02518475
vt 0.5760827 0.06075782
vt 0.5700021 0.5586193
vt 0.6261669 0.4604041
vt 0.3072871 0.3656992
vt 0.2597144 0.2351276
vt 0.7173468 0.2661769
vt 0.2214388 0.1250743
vt 0.2711706 0.03741942
vt 0.1375293 0.3408921
vt 0.5282456 0.3630702
vt 0.5330631 0.1884067
vt 0.1488093 0.2106288
vt 0.166772 0.0476419
vt 0.5408033 0.04382316
vt 0.1819148 0.5132203
vt 0.05047659 0.5014262
vt 0.2773541 0.5208137
vt 0.2282979 0.1290546
vt 0.327409 0.1817092
vt 0.4255066 0.2735059
vt 0.4652656 0.520843
vt 0.03553942 0.3887439
vt 0.169313 0.4277832
vt 0.395882 0.02136601
vt 0.4503285 0.09869558
vt 0.5296408 0.5087847
vt 0.7377771 0.08402278
vt 0.4458341 0.4553075
vt 0.4653538 0.1997454
vt 0.6438948 0.02797537
vt 0.5899183 0.02605131
vn 0.9664248 0.2465502 -0.07236136
vn 0.9718722 -0.1093526 -0.2085819
vn 0.9827672 0.1176263 0.1425926
vn 0.8375008 0.4735291 0.2726952
vn 0.6758918 0.7368245 -0.01612068
vn -0.05951965 0.8348794 0.5472054
vn 0.3672006 0.4154226 0.8322186
vn 0.4652554 -0.1347742 0.8748562
vn 0.5052037 -0.7212876 0.4738285
vn 0.394438 -0.8901598 0.2281098
vn 0.9518981 -0.1347742 -0.2751834
vn 0.78121 -0.1892492 -0.5948913
vn -0.163022 -0.7339984 -0.6592952
vn -0.1557587 -0.4452813 -0.8817391
vn 0.7902892 0.2683402 -0.5508507
vn 0.5251778 0.818537 -0.2327776
vn -0.2229445 0.1139946 -0.968143
vn -0.4626341 0.8748277 0.1436877
vn -0.3609476 0.4154226 -0.8349497
vn 0.3672006 0.4154226 0.8322186
vn 0.4652554 -0.1347742 0.8748562
vn -0.1103629 0.3228152 0.9400055
vn 0.007666051 -0.1075368 0.9941716
vn 0.3672006 0.4154226 0.8322186
vn -0.1103629 0.3228152 0.9400055
vn -0.05951965 0.8348794 0.5472054
vn -0.4136066 0.4989507 0.7615627
vn -0.4626341 0.8748277 0.1436877
vn -0.6968763 0.4517391 0.5570415
vn 0.394438 -0.8901598 0.2281098
vn -0.163022 -0.7339984 -0.6592952
vn -0.09583628 -0.9119498 0.3989523
vn -0.3010252 -0.6940501 -0.6539711
vn 0.4652554 -0.1347742 0.8748562
vn 0.5052037 -0.7212876 0.4738285
vn 0.007666051 -0.1075368 0.9941716
vn 0.0040344 -0.5033879 0.8640511
vn 0.394438 -0.8901598 0.2281098
vn -0.3373418 -0.4634396 0.8194048
vn -0.09583628 -0.9119498 0.3989523
vn -0.2229445 0.1139946 -0.968143
vn -0.7658778 0.05407214 -0.6407084
vn -0.5643207 -0.4707029 -0.6782189
vn -0.1557587 -0.4452813 -0.8817391
vn -0.163022 -0.7339984 -0.6592952
vn -0.3010252 -0.6940501 -0.6539711
vn -0.3609476 0.4154226 -0.8349497
vn -0.6968763 0.4517391 0.5570415
vn -0.4136066 0.4989507 0.7615627
vn -0.3373418 -0.4634396 0.8194048
vn 0.0040344 -0.5033879 0.8640511
vn 0.007666051 -0.1075368 0.9941716
vn -0.1103629 0.3228152 0.9400055
vn -0.3609476 0.4154226 -0.8349497
vn -0.4626341 0.8748277 0.1436877
vn -0.7658778 0.05407214 -0.6407084
vn -0.6968763 0.4517391 0.5570415
vn -0.6968763 0.4517391 0.5570415
vn -0.3373418 -0.4634396 0.8194048
vn -0.7658778 0.05407214 -0.6407084
vn -0.5643207 -0.4707029 -0.6782189
vn -0.09583628 -0.9119498 0.3989523
vn -0.3010252 -0.6940501 -0.6539711
g Rock_Fx01_0
f 3/3/3 2/2/2 1/1/1
f 3/3/3 1/1/1 4/4/4
f 1/1/1 5/5/5 4/4/4
f 4/4/4 5/5/5 6/6/6
f 4/4/4 6/6/6 7/7/7
f 8/8/8 4/4/4 7/7/7
f 8/8/8 3/3/3 4/4/4
f 9/9/9 3/3/3 8/8/8
f 9/9/9 2/2/2 3/3/3
f 10/10/10 2/2/2 9/9/9
f 10/10/10 11/11/11 2/2/2
f 12/12/12 11/11/11 10/10/10
f 12/12/12 10/10/10 13/13/13
f 14/14/14 12/12/12 13/13/13
f 2/2/2 11/11/11 15/15/15
f 11/11/11 12/12/12 15/15/15
f 1/1/1 15/15/15 5/5/5
f 15/15/15 12/12/12 14/14/14
f 1/1/1 2/2/2 15/15/15
f 15/15/15 16/16/16 5/5/5
f 15/15/15 14/14/14 17/17/17
f 5/5/5 18/18/18 6/6/6
f 5/5/5 16/16/16 18/18/18
f 18/18/18 16/16/16 19/19/19
f 16/16/16 15/15/15 19/19/19
f 17/17/17 19/19/19 15/15/15
f 22/22/22 21/21/21 20/20/20
f 22/22/22 23/23/23 21/21/21
f 26/26/26 25/25/25 24/24/24
f 26/26/26 27/27/27 25/25/25
f 28/28/28 27/27/27 26/26/26
f 28/28/28 29/29/29 27/27/27
f 32/32/32 31/31/31 30/30/30
f 32/32/32 33/33/33 31/31/31
f 36/36/36 35/35/35 34/34/34
f 36/36/36 37/37/37 35/35/35
f 37/37/37 38/38/38 35/35/35
f 38/38/38 37/37/37 39/39/39
f 38/38/38 39/39/39 40/40/40
f 43/43/43 42/42/42 41/41/41
f 43/43/43 41/41/41 44/44/44
f 44/44/44 45/45/45 43/43/43
f 45/45/45 46/46/46 43/43/43
f 47/47/47 41/41/41 42/42/42
f 50/50/50 49/49/49 48/48/48
f 51/51/51 49/49/49 50/50/50
f 52/52/52 49/49/49 51/51/51
f 52/52/52 53/53/53 49/49/49
f 56/56/56 55/55/55 54/54/54
f 56/56/56 57/57/57 55/55/55
f 60/60/60 59/59/59 58/58/58
f 61/61/61 59/59/59 60/60/60
f 61/61/61 62/62/62 59/59/59
f 61/61/61 63/63/63 62/62/62
