g Rope
v -8.106232E-06 9.388212 -0.3471751
v -8.106232E-06 10.92703 -0.3471751
v -0.3471913 9.388212 8.106232E-06
v -0.3471913 7.849391 8.106232E-06
v -8.106232E-06 7.849391 0.347168
v -8.106232E-06 6.310569 0.347168
v 0.3471751 6.310569 8.106232E-06
v 0.3471751 4.771748 8.106232E-06
v -8.106232E-06 4.771748 -0.3471751
v -8.106232E-06 10.92703 -0.3471751
v -0.3471913 10.92703 8.106232E-06
v -0.3471913 9.388212 8.106232E-06
v -8.106232E-06 9.388212 0.347168
v -8.106232E-06 12.46585 -0.3471751
v -8.106232E-06 7.849391 0.347168
v 0.3471751 7.849391 8.106232E-06
v 0.3471751 6.310569 8.106232E-06
v -8.106232E-06 6.310569 -0.3471751
v -8.106232E-06 4.771748 -0.3471751
v -0.3471913 10.92703 8.106232E-06
v -8.106232E-06 10.92703 0.347168
v -8.106232E-06 9.388212 0.347168
v -0.3471913 12.46585 8.106232E-06
v -8.106232E-06 12.46585 -0.3471751
v -8.106232E-06 14.00465 -0.3471751
v -8.106232E-06 9.388212 0.347168
v -8.106232E-06 10.92703 0.347168
v 0.3471751 9.388212 8.106232E-06
v 0.3471751 7.849391 8.106232E-06
v -8.106232E-06 7.849391 -0.3471751
v -8.106232E-06 6.310569 -0.3471751
v -8.106232E-06 10.92703 0.347168
v 0.3471751 10.92703 8.106232E-06
v 0.3471751 9.388212 8.106232E-06
v -8.106232E-06 9.388212 -0.3471751
v -8.106232E-06 12.46585 0.347168
v -0.3471913 12.46585 8.106232E-06
v -0.3471913 14.00465 8.106232E-06
v -8.106232E-06 14.00465 -0.3471751
v -8.106232E-06 15.54347 -0.3471751
v -8.106232E-06 7.849391 -0.3471751
v 0.3471751 10.92703 8.106232E-06
v -8.106232E-06 10.92703 -0.3471751
v -8.106232E-06 9.388212 -0.3471751
v 0.3471751 12.46585 8.106232E-06
v -8.106232E-06 12.46585 0.347168
v -8.106232E-06 14.00465 0.347168
v -0.3471913 14.00465 8.106232E-06
v -0.3471913 15.54347 8.106232E-06
v -8.106232E-06 15.54347 -0.3471751
v -0.3471913 17.08229 8.106232E-06
v -0.3471913 18.62111 8.106232E-06
v -8.106232E-06 17.08229 0.347168
v -8.106232E-06 18.62111 -0.3471751
v -8.106232E-06 15.54347 0.347168
v 0.3471751 15.54347 8.106232E-06
v -0.3471913 18.62111 8.106232E-06
v -8.106232E-06 18.62111 0.347168
v -8.106232E-06 17.08229 0.347168
v 0.3471751 17.08229 8.106232E-06
v 0.3471751 15.54347 8.106232E-06
v -8.106232E-06 15.54347 -0.3471751
v -8.106232E-06 17.08229 -0.3471751
v -8.106232E-06 18.62111 -0.3471751
v -0.3471913 17.08229 8.106232E-06
v -0.3471913 15.54347 8.106232E-06
v -8.106232E-06 15.54347 0.347168
v 0.3471751 17.08229 8.106232E-06
v 0.3471751 18.62111 8.106232E-06
v -8.106232E-06 17.08229 -0.3471751
v -8.106232E-06 18.62111 0.347168
v -8.106232E-06 15.54347 -0.3471751
v 0.3471751 18.62111 8.106232E-06
v -8.106232E-06 18.62111 -0.3471751
v -8.106232E-06 17.08229 -0.3471751
v -8.106232E-06 15.54347 -0.3471751
v -8.106232E-06 17.08229 -0.3471751
v -0.3471913 15.54347 8.106232E-06
v -0.3471913 15.54347 8.106232E-06
v -8.106232E-06 15.54347 0.347168
v -8.106232E-06 14.00465 0.347168
v 0.3471751 14.00465 8.106232E-06
v 0.3471751 15.54347 8.106232E-06
v -8.106232E-06 14.00465 -0.3471751
v -8.106232E-06 15.54347 0.347168
v -8.106232E-06 12.46585 -0.3471751
v 0.3471751 15.54347 8.106232E-06
v -8.106232E-06 15.54347 -0.3471751
v -8.106232E-06 14.00465 -0.3471751
v -8.106232E-06 14.00465 0.347168
v -8.106232E-06 15.54347 0.347168
v 0.3471751 14.00465 8.106232E-06
v 0.3471751 12.46585 8.106232E-06
v -8.106232E-06 12.46585 -0.3471751
v -8.106232E-06 10.92703 -0.3471751
v -8.106232E-06 7.849391 -0.3471751
v -8.106232E-06 9.388212 -0.3471751
v -0.3471913 7.849391 8.106232E-06
v -0.3471913 6.310569 8.106232E-06
v -8.106232E-06 6.310569 0.347168
v -8.106232E-06 4.771748 0.347168
v 0.3471751 4.771748 8.106232E-06
v -8.106232E-06 6.310569 -0.3471751
v -8.106232E-06 7.849391 -0.3471751
v -0.3471913 6.310569 8.106232E-06
v -0.3471913 4.771748 8.106232E-06
v -8.106232E-06 4.771748 0.347168
v -8.106232E-06 4.771748 -0.3471751
v -8.106232E-06 6.310569 -0.3471751
v -0.3471913 4.771748 8.106232E-06
v -0.3471913 3.232927 8.106232E-06
v -0.3471913 4.771748 8.106232E-06
v -8.106232E-06 3.232927 0.347168
v -8.106232E-06 4.771748 -0.3471751
v -8.106232E-06 1.694106 0.347168
v 0.3471751 1.694106 8.106232E-06
v 0.3471751 0.1552849 8.106232E-06
v -8.106232E-06 0.1552849 -0.3471751
v -8.106232E-06 -1.383536 -0.3471751
v -0.3471913 4.771748 8.106232E-06
v -8.106232E-06 4.771748 0.347168
v -8.106232E-06 3.232927 0.347168
v 0.3471751 3.232927 8.106232E-06
v 0.3471751 1.694106 8.106232E-06
v -8.106232E-06 1.694106 -0.3471751
v -8.106232E-06 0.1552849 -0.3471751
v -8.106232E-06 3.232927 -0.3471751
v -8.106232E-06 4.771748 -0.3471751
v -0.3471913 3.232927 8.106232E-06
v -0.3471913 1.694106 8.106232E-06
v -8.106232E-06 1.694106 0.347168
v -8.106232E-06 0.1552849 0.347168
v 0.3471751 0.1552849 8.106232E-06
v 0.3471751 -1.383536 8.106232E-06
v -8.106232E-06 -1.383536 -0.3471751
v -8.106232E-06 -2.922357 -0.3471751
v 0.3471751 3.232927 8.106232E-06
v 0.3471751 4.771748 8.106232E-06
v -8.106232E-06 3.232927 -0.3471751
v -8.106232E-06 4.771748 0.347168
v -8.106232E-06 1.694106 -0.3471751
v 0.3471751 4.771748 8.106232E-06
v -8.106232E-06 4.771748 -0.3471751
v -8.106232E-06 3.232927 -0.3471751
v -8.106232E-06 1.694106 -0.3471751
v -8.106232E-06 3.232927 -0.3471751
v -0.3471913 1.694106 8.106232E-06
v -0.3471913 0.1552849 8.106232E-06
v -8.106232E-06 0.1552849 0.347168
v -8.106232E-06 -1.383536 0.347168
v 0.3471751 -1.383536 8.106232E-06
v 0.3471751 -2.922357 8.106232E-06
v -8.106232E-06 -2.922357 -0.3471751
v -8.106232E-06 -4.461178 -0.3471751
v -8.106232E-06 0.1552849 -0.3471751
v -8.106232E-06 1.694106 -0.3471751
v -0.3471913 0.1552849 8.106232E-06
v -0.3471913 -1.383536 8.106232E-06
v -8.106232E-06 -1.383536 0.347168
v -8.106232E-06 -2.922357 0.347168
v 0.3471751 -2.922357 8.106232E-06
v 0.3471751 -4.461178 8.106232E-06
v -8.106232E-06 -4.461178 -0.3471751
v -8.106232E-06 -6 -0.3471751
v -8.106232E-06 -1.383536 -0.3471751
v -8.106232E-06 0.1552849 -0.3471751
v -0.3471913 -1.383536 8.106232E-06
v -0.3471913 -2.922357 8.106232E-06
v -8.106232E-06 -2.922357 0.347168
v -8.106232E-06 -4.461178 0.347168
v 0.3471751 -4.461178 8.106232E-06
v 0.3471751 -6 8.106232E-06
v -8.106232E-06 -6 -0.3471751
v -8.106232E-06 -2.922357 -0.3471751
v -8.106232E-06 -1.383536 -0.3471751
v -0.3471913 -2.922357 8.106232E-06
v -0.3471913 -4.461178 8.106232E-06
v -8.106232E-06 -4.461178 0.347168
v -8.106232E-06 -6 0.347168
v 0.3471751 -6 8.106232E-06
v -8.106232E-06 -4.461178 -0.3471751
v -8.106232E-06 -2.922357 -0.3471751
v -0.3471913 -4.461178 8.106232E-06
v -0.3471913 -6 8.106232E-06
v -8.106232E-06 -6 0.347168
v -8.106232E-06 -6 -0.3471751
v -8.106232E-06 -4.461178 -0.3471751
v -0.3471913 -6 8.106232E-06
vt -0.203332 0.4523767
vt -0.203332 0.5476155
vt -0.1783364 0.4523767
vt -0.1783364 0.3571379
vt -0.1533293 0.3571379
vt -0.1533293 0.2619106
vt -0.1283337 0.2619106
vt -0.1283337 0.1666718
vt -0.1033382 0.1666718
vt -0.203332 0.5476155
vt -0.1783364 0.5476155
vt -0.1783364 0.4523767
vt -0.1533293 0.4523767
vt -0.203332 0.6428543
vt -0.1533293 0.3571379
vt -0.1283337 0.3571379
vt -0.1283337 0.2619106
vt -0.1033382 0.2619106
vt -0.1033382 0.1666718
vt -0.1783364 0.5476155
vt -0.1533293 0.5476155
vt -0.1533293 0.4523767
vt -0.1783364 0.6428543
vt -0.203332 0.6428543
vt -0.203332 0.7380931
vt -0.1533293 0.4523767
vt -0.1533293 0.5476155
vt -0.1283337 0.4523767
vt -0.1283337 0.3571379
vt -0.1033382 0.3571379
vt -0.1033382 0.2619106
vt -0.1533293 0.5476155
vt -0.1283337 0.5476155
vt -0.1283337 0.4523767
vt -0.1033382 0.4523767
vt -0.1533293 0.6428543
vt -0.1783364 0.6428543
vt -0.1783364 0.7380931
vt -0.203332 0.7380931
vt -0.203332 0.8333319
vt -0.1033382 0.3571379
vt -0.1283337 0.5476155
vt -0.1033382 0.5476155
vt -0.1033382 0.4523767
vt -0.1283337 0.6428543
vt -0.1533293 0.6428543
vt -0.1533293 0.7380931
vt -0.1783364 0.7380931
vt -0.1783364 0.8333319
vt -0.203332 0.8333319
vt -0.1783364 0.9285709
vt -0.1783364 1.02381
vt -0.1533293 0.9285709
vt -0.203332 1.02381
vt -0.1533293 0.8333319
vt -0.1283337 0.8333319
vt -0.1783364 1.02381
vt -0.1533293 1.02381
vt -0.1533293 0.9285709
vt -0.1283337 0.9285709
vt -0.1283337 0.8333319
vt -0.1033382 0.8333319
vt -0.203332 0.9285709
vt -0.203332 1.02381
vt -0.1783364 0.9285709
vt -0.1783364 0.8333319
vt -0.1533293 0.8333319
vt -0.1283337 0.9285709
vt -0.1283337 1.02381
vt -0.1033382 0.9285709
vt -0.1533293 1.02381
vt -0.1033382 0.8333319
vt -0.1283337 1.02381
vt -0.1033382 1.02381
vt -0.1033382 0.9285709
vt -0.203332 0.8333319
vt -0.203332 0.9285709
vt -0.1783364 0.8333319
vt -0.1783364 0.8333319
vt -0.1533293 0.8333319
vt -0.1533293 0.7380931
vt -0.1283337 0.7380931
vt -0.1283337 0.8333319
vt -0.1033382 0.7380931
vt -0.1533293 0.8333319
vt -0.1033382 0.6428543
vt -0.1283337 0.8333319
vt -0.1033382 0.8333319
vt -0.1033382 0.7380931
vt -0.1533293 0.7380931
vt -0.1533293 0.8333319
vt -0.1283337 0.7380931
vt -0.1283337 0.6428543
vt -0.1033382 0.6428543
vt -0.1033382 0.5476155
vt -0.203332 0.3571379
vt -0.203332 0.4523767
vt -0.1783364 0.3571379
vt -0.1783364 0.2619106
vt -0.1533293 0.2619106
vt -0.1533293 0.1666718
vt -0.1283337 0.1666718
vt -0.203332 0.2619106
vt -0.203332 0.3571379
vt -0.1783364 0.2619106
vt -0.1783364 0.1666718
vt -0.1533293 0.1666718
vt -0.203332 0.1666718
vt -0.203332 0.2619106
vt -0.1783364 0.1666718
vt -0.1783364 0.07143301
vt -0.1783364 0.1666718
vt -0.1533293 0.07143301
vt -0.203332 0.1666718
vt -0.1533293 -0.02380586
vt -0.1283337 -0.02380586
vt -0.1283337 -0.1190447
vt -0.1033382 -0.1190447
vt -0.1033382 -0.2142835
vt -0.1783364 0.1666718
vt -0.1533293 0.1666718
vt -0.1533293 0.07143301
vt -0.1283337 0.07143301
vt -0.1283337 -0.02380586
vt -0.1033382 -0.02380586
vt -0.1033382 -0.1190447
vt -0.203332 0.07143301
vt -0.203332 0.1666718
vt -0.1783364 0.07143301
vt -0.1783364 -0.02380586
vt -0.1533293 -0.02380586
vt -0.1533293 -0.1190447
vt -0.1283337 -0.1190447
vt -0.1283337 -0.2142835
vt -0.1033382 -0.2142835
vt -0.1033382 -0.3095223
vt -0.1283337 0.07143301
vt -0.1283337 0.1666718
vt -0.1033382 0.07143301
vt -0.1533293 0.1666718
vt -0.1033382 -0.02380586
vt -0.1283337 0.1666718
vt -0.1033382 0.1666718
vt -0.1033382 0.07143301
vt -0.203332 -0.02380586
vt -0.203332 0.07143301
vt -0.1783364 -0.02380586
vt -0.1783364 -0.1190447
vt -0.1533293 -0.1190447
vt -0.1533293 -0.2142835
vt -0.1283337 -0.2142835
vt -0.1283337 -0.3095223
vt -0.1033382 -0.3095223
vt -0.1033382 -0.4047612
vt -0.203332 -0.1190447
vt -0.203332 -0.02380586
vt -0.1783364 -0.1190447
vt -0.1783364 -0.2142835
vt -0.1533293 -0.2142835
vt -0.1533293 -0.3095223
vt -0.1283337 -0.3095223
vt -0.1283337 -0.4047612
vt -0.1033382 -0.4047612
vt -0.1033382 -0.5
vt -0.203332 -0.2142835
vt -0.203332 -0.1190447
vt -0.1783364 -0.2142835
vt -0.1783364 -0.3095223
vt -0.1533293 -0.3095223
vt -0.1533293 -0.4047612
vt -0.1283337 -0.4047612
vt -0.1283337 -0.5
vt -0.1033382 -0.5
vt -0.203332 -0.3095223
vt -0.203332 -0.2142835
vt -0.1783364 -0.3095223
vt -0.1783364 -0.4047612
vt -0.1533293 -0.4047612
vt -0.1533293 -0.5
vt -0.1283337 -0.5
vt -0.203332 -0.4047612
vt -0.203332 -0.3095223
vt -0.1783364 -0.4047612
vt -0.1783364 -0.5
vt -0.1533293 -0.5
vt -0.203332 -0.5
vt -0.203332 -0.4047612
vt -0.1783364 -0.5
vn -0.6257265 -0.0008113384 -0.7800421
vn 0.6257261 -0.0008113384 -0.7800425
vn -0.7799262 -0.0008113384 -0.6258709
vn -0.7799262 -0.0008113384 0.6258709
vn -0.6257265 -0.0008113384 0.7800421
vn 0.6257261 -0.0008113384 0.7800425
vn 0.7799258 -0.0008113384 0.6258714
vn 0.7799258 -0.0008113384 -0.6258714
vn 0.6257261 -0.0008113384 -0.7800425
vn -0.6257265 -0.0008113384 -0.7800421
vn -0.7799262 -0.0008113384 -0.6258709
vn -0.7799262 -0.0008113384 0.6258709
vn -0.6257265 -0.0008113384 0.7800421
vn 0.6257261 -0.0008113384 -0.7800425
vn 0.6257261 -0.0008113384 0.7800425
vn 0.7799258 -0.0008113384 0.6258714
vn 0.7799258 -0.0008113384 -0.6258714
vn 0.6257261 -0.0008113384 -0.7800425
vn -0.6257265 -0.0008113384 -0.7800421
vn -0.7799262 -0.0008113384 0.6258709
vn -0.7068843 -0.0008113384 0.7073287
vn -0.7068843 -0.0008113384 0.7073287
vn -0.7799262 -0.0008113384 -0.6258709
vn -0.6257265 -0.0008113384 -0.7800421
vn 0.6257261 -0.0008113384 -0.7800425
vn 0.7068838 -0.0008113384 0.7073292
vn 0.7068838 -0.0008113384 0.7073292
vn 0.7799258 -0.0008113384 0.6258714
vn 0.7799258 -0.0008113384 -0.6258714
vn 0.6257261 -0.0008113384 -0.7800425
vn -0.6257265 -0.0008113384 -0.7800421
vn 0.6257261 -0.0008113384 0.7800425
vn 0.7799258 -0.0008113384 0.6258714
vn 0.7799258 -0.0008113384 -0.6258714
vn 0.6257261 -0.0008113384 -0.7800425
vn -0.6257265 -0.0008113384 0.7800421
vn -0.7799262 -0.0008113384 0.6258709
vn -0.7799262 -0.0008113384 -0.6258709
vn -0.6257265 -0.0008113384 -0.7800421
vn 0.6257261 -0.0008113384 -0.7800425
vn -0.6257265 -0.0008113384 -0.7800421
vn 0.7799258 -0.0008113384 -0.6258714
vn 0.6257261 -0.0008113384 -0.7800425
vn -0.6257265 -0.0008113384 -0.7800421
vn 0.7799258 -0.0008113384 0.6258714
vn 0.6257261 -0.0008113384 0.7800425
vn -0.6257265 -0.0008113384 0.7800421
vn -0.7799262 -0.0008113384 0.6258709
vn -0.7799262 -0.0008113384 -0.6258709
vn -0.6257265 -0.0008113384 -0.7800421
vn -0.7799262 -0.0008113384 0.6258709
vn -0.8302441 -0.0008113384 -0.5573993
vn -0.6257265 -0.0008113384 0.7800421
vn -0.7068843 -0.0008113384 -0.7073287
vn 0.6257261 -0.0008113384 0.7800425
vn 0.7799258 -0.0008113384 0.6258714
vn -0.7068843 -0.0008113384 0.7073287
vn -0.5575541 -0.0008113384 0.8301402
vn 0.6257261 -0.0008113384 0.7800425
vn 0.7799258 -0.0008113384 0.6258714
vn 0.7799258 -0.0008113384 -0.6258714
vn 0.6257261 -0.0008113384 -0.7800425
vn -0.6257265 -0.0008113384 -0.7800421
vn 0.5575536 -0.0008113384 -0.8301405
vn -0.7799262 -0.0008113384 -0.6258709
vn -0.7799262 -0.0008113384 0.6258709
vn -0.7068843 -0.0008113384 0.7073287
vn 0.7799258 -0.0008113384 -0.6258714
vn 0.8302436 -0.0008113384 0.5574
vn 0.6257261 -0.0008113384 -0.7800425
vn 0.7068838 -0.0008113384 0.7073292
vn -0.6257265 -0.0008113384 -0.7800421
vn 0.7068838 -0.0008113384 -0.7073292
vn 0.5575536 -0.0008113384 -0.8301405
vn -0.6257265 -0.0008113384 -0.7800421
vn -0.6257265 -0.0008113384 -0.7800421
vn 0.6257261 -0.0008113384 -0.7800425
vn -0.7799262 -0.0008113384 -0.6258709
vn -0.7799262 -0.0008113384 0.6258709
vn -0.7068843 -0.0008113384 0.7073287
vn -0.7068843 -0.0008113384 0.7073287
vn 0.7799258 -0.0008113384 -0.6258714
vn 0.7799258 -0.0008113384 0.6258714
vn 0.6257261 -0.0008113384 -0.7800425
vn 0.6257261 -0.0008113384 0.7800425
vn -0.6257265 -0.0008113384 -0.7800421
vn 0.7799258 -0.0008113384 -0.6258714
vn 0.6257261 -0.0008113384 -0.7800425
vn -0.6257265 -0.0008113384 -0.7800421
vn 0.7068838 -0.0008113384 0.7073292
vn 0.7068838 -0.0008113384 0.7073292
vn 0.7799258 -0.0008113384 0.6258714
vn 0.7799258 -0.0008113384 -0.6258714
vn 0.6257261 -0.0008113384 -0.7800425
vn -0.6257265 -0.0008113384 -0.7800421
vn -0.6257265 -0.0008113384 -0.7800421
vn 0.6257261 -0.0008113384 -0.7800425
vn -0.7799262 -0.0008113384 -0.6258709
vn -0.7799262 -0.0008113384 0.6258709
vn -0.6257265 -0.0008113384 0.7800421
vn 0.6257261 -0.0008113384 0.7800425
vn 0.7799258 -0.0008113384 0.6258714
vn -0.6257265 -0.0008113384 -0.7800421
vn 0.6257261 -0.0008113384 -0.7800425
vn -0.7799262 -0.0008113384 -0.6258709
vn -0.7799262 -0.0008113384 0.6258709
vn -0.6257265 -0.0008113384 0.7800421
vn -0.6257265 -0.0008113384 -0.7800421
vn 0.6257261 -0.0008113384 -0.7800425
vn -0.7799262 -0.0008113384 -0.6258709
vn -0.7799262 -0.0008113384 0.6258709
vn -0.7799262 -0.0008113384 -0.6258709
vn -0.6257265 -0.0008113384 0.7800421
vn -0.6257265 -0.0008113384 -0.7800421
vn 0.6257261 -0.0008113384 0.7800425
vn 0.7799258 -0.0008113384 0.6258714
vn 0.7799258 -0.0008113384 -0.6258714
vn 0.6257261 -0.0008113384 -0.7800425
vn -0.6257265 -0.0008113384 -0.7800421
vn -0.7799262 -0.0008113384 0.6258709
vn -0.6257265 -0.0008113384 0.7800421
vn 0.6257261 -0.0008113384 0.7800425
vn 0.7799258 -0.0008113384 0.6258714
vn 0.7799258 -0.0008113384 -0.6258714
vn 0.6257261 -0.0008113384 -0.7800425
vn -0.6257265 -0.0008113384 -0.7800421
vn -0.6257265 -0.0008113384 -0.7800421
vn 0.6257261 -0.0008113384 -0.7800425
vn -0.7799262 -0.0008113384 -0.6258709
vn -0.7799262 -0.0008113384 0.6258709
vn -0.6257265 -0.0008113384 0.7800421
vn 0.6257261 -0.0008113384 0.7800425
vn 0.7799258 -0.0008113384 0.6258714
vn 0.7799258 -0.0008113384 -0.6258714
vn 0.6257261 -0.0008113384 -0.7800425
vn -0.6257265 -0.0008113384 -0.7800421
vn 0.7799258 -0.0008113384 -0.6258714
vn 0.7799258 -0.0008113384 0.6258714
vn 0.6257261 -0.0008113384 -0.7800425
vn 0.6257261 -0.0008113384 0.7800425
vn -0.6257265 -0.0008113384 -0.7800421
vn 0.7799258 -0.0008113384 -0.6258714
vn 0.6257261 -0.0008113384 -0.7800425
vn -0.6257265 -0.0008113384 -0.7800421
vn -0.6257265 -0.0008113384 -0.7800421
vn 0.6257261 -0.0008113384 -0.7800425
vn -0.7799262 -0.0008113384 -0.6258709
vn -0.7799262 -0.0008113384 0.6258709
vn -0.6257265 -0.0008113384 0.7800421
vn 0.6257261 -0.0008113384 0.7800425
vn 0.7799258 -0.0008113384 0.6258714
vn 0.7799258 -0.0008113384 -0.6258714
vn 0.6257261 -0.0008113384 -0.7800425
vn -0.6257265 -0.0008113384 -0.7800421
vn -0.6257265 -0.0008113384 -0.7800421
vn 0.6257261 -0.0008113384 -0.7800425
vn -0.7799262 -0.0008113384 -0.6258709
vn -0.7799262 -0.0008113384 0.6258709
vn -0.6257265 -0.0008113384 0.7800421
vn 0.6257261 -0.0008113384 0.7800425
vn 0.7799258 -0.0008113384 0.6258714
vn 0.7799258 -0.0008113384 -0.6258714
vn 0.6257261 -0.0008113384 -0.7800425
vn -0.5575541 -0.0008113384 -0.8301402
vn -0.6257265 -0.0008113384 -0.7800421
vn 0.6257261 -0.0008113384 -0.7800425
vn -0.7799262 -0.0008113384 -0.6258709
vn -0.7799262 -0.0008113384 0.6258709
vn -0.6257265 -0.0008113384 0.7800421
vn 0.6257261 -0.0008113384 0.7800425
vn 0.7799258 -0.0008113384 0.6258714
vn 0.8302436 -0.0008113384 -0.5574
vn 0.7068838 -0.0008113384 -0.7073292
vn -0.6257265 -0.0008113384 -0.7800421
vn 0.6257261 -0.0008113384 -0.7800425
vn -0.7799262 -0.0008113384 -0.6258709
vn -0.7799262 -0.0008113384 0.6258709
vn -0.6257265 -0.0008113384 0.7800421
vn 0.5575536 -0.0008113384 0.8301405
vn 0.7068838 -0.0008113384 0.7073292
vn -0.6257265 -0.0008113384 -0.7800421
vn 0.6257261 -0.0008113384 -0.7800425
vn -0.7799262 -0.0008113384 -0.6258709
vn -0.8302441 -0.0008113384 0.5573993
vn -0.7068843 -0.0008113384 0.7073287
vn -0.5575541 -0.0008113384 -0.8301402
vn 0.6257261 -0.0008113384 -0.7800425
vn -0.7068843 -0.0008113384 -0.7073287
g Rope_0
f 3/3/3 2/2/2 1/1/1
f 4/4/4 3/3/3 1/1/1
f 5/5/5 3/3/3 4/4/4
f 6/6/6 5/5/5 4/4/4
f 7/7/7 5/5/5 6/6/6
f 8/8/8 7/7/7 6/6/6
f 9/9/9 7/7/7 8/8/8
f 12/12/12 11/11/11 10/10/10
f 13/13/13 11/11/11 12/12/12
f 11/11/11 14/14/14 10/10/10
f 15/15/15 13/13/13 12/12/12
f 16/16/16 13/13/13 15/15/15
f 17/17/17 16/16/16 15/15/15
f 18/18/18 16/16/16 17/17/17
f 19/19/19 18/18/18 17/17/17
f 22/22/22 21/21/21 20/20/20
f 21/21/21 23/23/23 20/20/20
f 20/20/20 23/23/23 24/24/24
f 23/23/23 25/25/25 24/24/24
f 28/28/28 27/27/27 26/26/26
f 29/29/29 28/28/28 26/26/26
f 30/30/30 28/28/28 29/29/29
f 31/31/31 30/30/30 29/29/29
f 34/34/34 33/33/33 32/32/32
f 35/35/35 33/33/33 34/34/34
f 33/33/33 36/36/36 32/32/32
f 32/32/32 36/36/36 37/37/37
f 36/36/36 38/38/38 37/37/37
f 37/37/37 38/38/38 39/39/39
f 38/38/38 40/40/40 39/39/39
f 41/41/41 35/35/35 34/34/34
f 44/44/44 43/43/43 42/42/42
f 43/43/43 45/45/45 42/42/42
f 42/42/42 45/45/45 46/46/46
f 45/45/45 47/47/47 46/46/46
f 46/46/46 47/47/47 48/48/48
f 47/47/47 49/49/49 48/48/48
f 48/48/48 49/49/49 50/50/50
f 53/53/53 52/52/52 51/51/51
f 51/51/51 52/52/52 54/54/54
f 55/55/55 53/53/53 51/51/51
f 56/56/56 53/53/53 55/55/55
f 59/59/59 58/58/58 57/57/57
f 60/60/60 58/58/58 59/59/59
f 61/61/61 60/60/60 59/59/59
f 62/62/62 60/60/60 61/61/61
f 65/65/65 64/64/64 63/63/63
f 66/66/66 65/65/65 63/63/63
f 67/67/67 65/65/65 66/66/66
f 70/70/70 69/69/69 68/68/68
f 68/68/68 69/69/69 71/71/71
f 72/72/72 70/70/70 68/68/68
f 75/75/75 74/74/74 73/73/73
f 78/78/78 77/77/77 76/76/76
f 81/81/81 80/80/80 79/79/79
f 84/84/84 83/83/83 82/82/82
f 82/82/82 83/83/83 85/85/85
f 86/86/86 84/84/84 82/82/82
f 89/89/89 88/88/88 87/87/87
f 92/92/92 91/91/91 90/90/90
f 93/93/93 92/92/92 90/90/90
f 94/94/94 92/92/92 93/93/93
f 95/95/95 94/94/94 93/93/93
f 98/98/98 97/97/97 96/96/96
f 99/99/99 98/98/98 96/96/96
f 100/100/100 98/98/98 99/99/99
f 101/101/101 100/100/100 99/99/99
f 102/102/102 100/100/100 101/101/101
f 105/105/105 104/104/104 103/103/103
f 106/106/106 105/105/105 103/103/103
f 107/107/107 105/105/105 106/106/106
f 110/110/110 109/109/109 108/108/108
f 113/113/113 112/112/112 111/111/111
f 111/111/111 112/112/112 114/114/114
f 115/115/115 113/113/113 111/111/111
f 116/116/116 113/113/113 115/115/115
f 117/117/117 116/116/116 115/115/115
f 118/118/118 116/116/116 117/117/117
f 119/119/119 118/118/118 117/117/117
f 122/122/122 121/121/121 120/120/120
f 123/123/123 121/121/121 122/122/122
f 124/124/124 123/123/123 122/122/122
f 125/125/125 123/123/123 124/124/124
f 126/126/126 125/125/125 124/124/124
f 129/129/129 128/128/128 127/127/127
f 130/130/130 129/129/129 127/127/127
f 131/131/131 129/129/129 130/130/130
f 132/132/132 131/131/131 130/130/130
f 133/133/133 131/131/131 132/132/132
f 134/134/134 133/133/133 132/132/132
f 135/135/135 133/133/133 134/134/134
f 136/136/136 135/135/135 134/134/134
f 139/139/139 138/138/138 137/137/137
f 137/137/137 138/138/138 140/140/140
f 141/141/141 139/139/139 137/137/137
f 144/144/144 143/143/143 142/142/142
f 147/147/147 146/146/146 145/145/145
f 148/148/148 147/147/147 145/145/145
f 149/149/149 147/147/147 148/148/148
f 150/150/150 149/149/149 148/148/148
f 151/151/151 149/149/149 150/150/150
f 152/152/152 151/151/151 150/150/150
f 153/153/153 151/151/151 152/152/152
f 154/154/154 153/153/153 152/152/152
f 157/157/157 156/156/156 155/155/155
f 158/158/158 157/157/157 155/155/155
f 159/159/159 157/157/157 158/158/158
f 160/160/160 159/159/159 158/158/158
f 161/161/161 159/159/159 160/160/160
f 162/162/162 161/161/161 160/160/160
f 163/163/163 161/161/161 162/162/162
f 164/164/164 163/163/163 162/162/162
f 167/167/167 166/166/166 165/165/165
f 168/168/168 167/167/167 165/165/165
f 169/169/169 167/167/167 168/168/168
f 170/170/170 169/169/169 168/168/168
f 171/171/171 169/169/169 170/170/170
f 172/172/172 171/171/171 170/170/170
f 173/173/173 171/171/171 172/172/172
f 176/176/176 175/175/175 174/174/174
f 177/177/177 176/176/176 174/174/174
f 178/178/178 176/176/176 177/177/177
f 179/179/179 178/178/178 177/177/177
f 180/180/180 178/178/178 179/179/179
f 183/183/183 182/182/182 181/181/181
f 184/184/184 183/183/183 181/181/181
f 185/185/185 183/183/183 184/184/184
f 188/188/188 187/187/187 186/186/186
