g Screw_LOD1
v 0.06161766 0.03349531 -0.07500014
v 0.06161766 0.03349531 0.04999989
v -0.06161755 0.03349531 0.04999989
v -0.06161755 0.03349531 -0.07500014
v 0.06161766 -0.03349543 -0.07500014
v -0.06161755 -0.03349543 -0.07500014
v -0.06161755 -0.03349543 0.04999989
v 0.06161766 -0.03349543 0.04999989
v -0.06161755 -0.03349543 -0.07500014
v 0.06161766 -0.03349543 -0.07500014
v -0.06161755 0.03349531 0.04999989
v -0.06161755 0.03349531 -0.07500014
v -0.06161755 -0.03349543 -0.07500014
v 0.06161766 0.03349531 0.04999989
v 0.06161766 -0.03349543 -0.07500014
v 0.06161766 0.03349531 -0.07500014
v -0.03556377 -0.03556389 -0.06884831
v 0.03556389 -0.03556389 -0.06884831
v 0.03556389 -0.03556389 -0.3051885
v -0.03556377 -0.03556389 -0.3051885
v -0.03556377 0.03556377 -0.06884831
v -0.03556377 0.03556377 -0.3051885
v 0.03556389 0.03556377 -0.06884831
v 0.03556389 0.03556377 -0.3051885
v 0.03556389 -0.03556389 -0.06884831
v 0.03556389 0.03556377 -0.06884831
v 0.03556389 -0.03556389 -0.3051885
v 0.03556389 0.03556377 -0.3051885
v -0.03556377 0.03556377 -0.3051885
v -0.03556377 0.03556377 -0.06884831
v -0.03556377 -0.03556389 -0.06884831
v -0.03556377 -0.03556389 -0.3051885
vt 0.3843 0.4310203
vt 0.281024 0.4310203
vt 0.3124944 0.5689828
vt 0.4157821 0.5689828
vt 0.4907686 0.4310203
vt 0.4907686 0.5689828
vt 0.2060258 0.5689828
vt 0.2060258 0.4310203
vt 0.1027498 0.5689828
vt 0.1027498 0.4310203
vt 0.281024 0.5689828
vt 0.281024 0.6407766
vt 0.2060258 0.6407766
vt 0.281024 0.4310203
vt 0.2060258 0.3592265
vt 0.281024 0.3592265
vt 1.551911 0.6150366
vt 1.635587 0.6150366
vt 1.635587 0.3849666
vt 1.551911 0.3849666
vt 0.6355842 0.6150366
vt 0.6355842 0.3849666
vt 0.5519085 0.6150366
vt 0.5519085 0.3849666
vt 1.551911 0.6150366
vt 1.635587 0.6150366
vt 1.551911 0.3849666
vt 1.635587 0.3849666
vt 1.551911 0.3849666
vt 1.551911 0.6150366
vt 1.635587 0.6150366
vt 1.635587 0.3849666
vn 0.4327904 0.7948737 -0.4252862
vn 0.4327904 0.7948737 0.4252862
vn -0.4327905 0.7948737 0.4252861
vn -0.4327905 0.7948737 -0.4252861
vn 0.4327904 -0.7948737 -0.4252862
vn -0.4327905 -0.7948737 -0.4252861
vn -0.4327905 -0.7948737 0.4252861
vn 0.4327904 -0.7948737 0.4252862
vn -0.4327905 -0.7948737 -0.4252861
vn 0.4327904 -0.7948737 -0.4252862
vn -0.4327905 0.7948737 0.4252861
vn -0.4327905 0.7948737 -0.4252861
vn -0.4327905 -0.7948737 -0.4252861
vn 0.4327904 0.7948737 0.4252862
vn 0.4327904 -0.7948737 -0.4252862
vn 0.4327904 0.7948737 -0.4252862
vn -0.7071068 -0.7071067 0
vn 0.7071067 -0.7071067 0
vn 0.7071067 -0.7071067 0
vn -0.7071068 -0.7071067 0
vn -0.7071068 0.7071068 0
vn -0.7071068 0.7071068 0
vn 0.7071067 0.7071068 0
vn 0.7071067 0.7071068 0
vn 0.7071067 -0.7071067 0
vn 0.7071067 0.7071068 0
vn 0.7071067 -0.7071067 0
vn 0.7071067 0.7071068 0
vn -0.7071068 0.7071068 0
vn -0.7071068 0.7071068 0
vn -0.7071068 -0.7071067 0
vn -0.7071068 -0.7071067 0
g Screw_LOD1_0
f 3/3/3 2/2/2 1/1/1
f 3/3/3 1/1/1 4/4/4
f 4/4/4 1/1/1 5/5/5
f 4/4/4 5/5/5 6/6/6
f 9/9/9 8/8/8 7/7/7
f 9/9/9 10/10/10 8/8/8
f 7/7/7 8/8/8 11/11/11
f 7/7/7 11/11/11 12/12/12
f 7/7/7 12/12/12 13/13/13
f 11/11/11 8/8/8 14/14/14
f 15/15/15 14/14/14 8/8/8
f 15/15/15 16/16/16 14/14/14
f 19/19/19 18/18/18 17/17/17
f 19/19/19 17/17/17 20/20/20
f 23/23/23 22/22/22 21/21/21
f 23/23/23 24/24/24 22/22/22
f 27/27/27 26/26/26 25/25/25
f 27/27/27 28/28/28 26/26/26
f 31/31/31 30/30/30 29/29/29
f 31/31/31 29/29/29 32/32/32
