g Screw_LOD0
v -0.03349531 0.06161755 -0.07500014
v 0.03349543 0.06161755 -0.07500014
v -0.03349531 0.06161755 0.04999989
v 0.03349543 0.06161755 0.04999989
v -0.06161755 0.03349531 -0.07500014
v -0.06161755 0.03349531 0.04999989
v 0.06161766 0.03349531 0.04999989
v 0.06161766 0.03349531 -0.07500014
v 5.960464E-08 -5.960464E-08 -0.07500014
v -0.06161755 0.03349531 -0.07500014
v -0.06161755 -0.03349543 -0.07500014
v 0.06161766 0.03349531 -0.07500014
v 0.06161766 -0.03349543 -0.07500014
v 0.03349543 -0.06161766 -0.07500014
v -0.03349531 -0.06161766 -0.07500014
v 5.960464E-08 -5.960464E-08 0.04999989
v 0.06161766 0.03349531 0.04999989
v 0.06161766 -0.03349543 0.04999989
v 0.06161766 -0.03349543 -0.07500014
v 0.06161766 0.03349531 -0.07500014
v 0.03349543 -0.06161766 0.04999989
v -0.03349531 -0.06161766 0.04999989
v -0.03349531 -0.06161766 -0.07500014
v 0.03349543 -0.06161766 -0.07500014
v -0.06161755 -0.03349543 0.04999989
v -0.06161755 -0.03349543 -0.07500014
v 0.06161766 -0.03349543 -0.07500014
v 0.06161766 -0.03349543 0.04999989
v -0.06161755 -0.03349543 0.04999989
v -0.06161755 0.03349531 0.04999989
v -0.06161755 0.03349531 -0.07500014
v -0.06161755 -0.03349543 -0.07500014
v -0.03556377 0.03556377 -0.06884831
v -0.03556377 0.03556377 -0.3051885
v 0.03556389 0.03556377 -0.06884831
v 0.03556389 0.03556377 -0.3051885
v -0.03556377 -0.03556389 -0.3051885
v -0.03556377 -0.03556389 -0.06884831
v 0.03556389 -0.03556389 -0.3051885
v 0.03556389 -0.03556389 -0.06884831
v 0.03556389 -0.03556389 -0.06884831
v 0.03556389 0.03556377 -0.06884831
v 0.03556389 -0.03556389 -0.3051885
v 0.03556389 0.03556377 -0.3051885
v -0.03556377 -0.03556389 -0.3051885
v -0.03556377 0.03556377 -0.3051885
v -0.03556377 -0.03556389 -0.06884831
v -0.03556377 0.03556377 -0.06884831
vt 0.3843 0.5375006
vt 0.3843 0.4625025
vt 0.3124944 0.5375006
vt 0.3124944 0.4625025
vt 0.3843 0.5689828
vt 0.3124944 0.5689828
vt 0.3124944 0.4310203
vt 0.3843 0.4310203
vt 0.4532754 0.4999957
vt 0.4157821 0.5689828
vt 0.4907686 0.5689828
vt 0.4157821 0.4310203
vt 0.4907686 0.4310203
vt 0.5222507 0.4625025
vt 0.5222507 0.5375006
vt 0.243519 0.4999957
vt 0.281024 0.4310203
vt 0.2060258 0.4310203
vt 0.2060258 0.3592265
vt 0.281024 0.3592265
vt 0.1745436 0.4625025
vt 0.1745436 0.5375006
vt 0.1027498 0.5375006
vt 0.1027498 0.4625025
vt 0.1745436 0.5689828
vt 0.1027498 0.5689828
vt 0.1027498 0.4310203
vt 0.1745436 0.4310203
vt 0.2060258 0.5689828
vt 0.281024 0.5689828
vt 0.281024 0.6407766
vt 0.2060258 0.6407766
vt 0.6355842 0.6150366
vt 0.6355842 0.3849666
vt 0.5519085 0.6150366
vt 0.5519085 0.3849666
vt 1.551911 0.3849666
vt 1.551911 0.6150366
vt 1.635587 0.3849666
vt 1.635587 0.6150366
vt 1.551911 0.6150366
vt 1.635587 0.6150366
vt 1.551911 0.3849666
vt 1.635587 0.3849666
vt 1.635587 0.3849666
vt 1.551911 0.3849666
vt 1.635587 0.6150366
vt 1.551911 0.6150366
vn -0.2633832 0.8892445 -0.3739967
vn 0.2633833 0.8892445 -0.3739967
vn -0.2633832 0.8892445 0.3739967
vn 0.2633833 0.8892445 0.3739967
vn -0.8892445 0.2633832 -0.3739967
vn -0.8892445 0.2633832 0.3739967
vn 0.8892446 0.2633832 0.3739964
vn 0.8892446 0.2633832 -0.3739964
vn -0.0008692145 0.0008692145 -0.9999992
vn -0.8892445 0.2633832 -0.3739967
vn -0.8892445 -0.2633833 -0.3739966
vn 0.8892446 0.2633832 -0.3739964
vn 0.8892446 -0.2633833 -0.3739963
vn 0.2633833 -0.8892446 -0.3739963
vn -0.2633832 -0.8892446 -0.3739963
vn -0.0008692145 0.0008692145 0.9999992
vn 0.8892446 0.2633832 0.3739964
vn 0.8892446 -0.2633833 0.3739963
vn 0.8892446 -0.2633833 -0.3739963
vn 0.8892446 0.2633832 -0.3739964
vn 0.2633833 -0.8892446 0.3739963
vn -0.2633832 -0.8892446 0.3739963
vn -0.2633832 -0.8892446 -0.3739963
vn 0.2633833 -0.8892446 -0.3739963
vn -0.8892445 -0.2633833 0.3739966
vn -0.8892445 -0.2633833 -0.3739966
vn 0.8892446 -0.2633833 -0.3739963
vn 0.8892446 -0.2633833 0.3739963
vn -0.8892445 -0.2633833 0.3739966
vn -0.8892445 0.2633832 0.3739967
vn -0.8892445 0.2633832 -0.3739967
vn -0.8892445 -0.2633833 -0.3739966
vn -0.7067017 0.7067017 -0.03384365
vn -0.7067017 0.7067017 -0.03384365
vn 0.7067018 0.7067017 -0.03384277
vn 0.7067018 0.7067017 -0.03384277
vn -0.7067017 -0.7067018 -0.03384233
vn -0.7067017 -0.7067018 -0.03384233
vn 0.7067018 -0.7067018 -0.03384145
vn 0.7067018 -0.7067018 -0.03384145
vn 0.7067018 -0.7067018 -0.03384145
vn 0.7067018 0.7067017 -0.03384277
vn 0.7067018 -0.7067018 -0.03384145
vn 0.7067018 0.7067017 -0.03384277
vn -0.7067017 -0.7067018 -0.03384233
vn -0.7067017 0.7067017 -0.03384365
vn -0.7067017 -0.7067018 -0.03384233
vn -0.7067017 0.7067017 -0.03384365
g Screw_LOD0_0
f 3/3/3 2/2/2 1/1/1
f 3/3/3 4/4/4 2/2/2
f 3/3/3 1/1/1 5/5/5
f 3/3/3 5/5/5 6/6/6
f 7/7/7 2/2/2 4/4/4
f 7/7/7 8/8/8 2/2/2
f 1/1/1 2/2/2 9/9/9
f 10/10/10 1/1/1 9/9/9
f 10/10/10 9/9/9 11/11/11
f 2/2/2 12/12/12 9/9/9
f 9/9/9 12/12/12 13/13/13
f 9/9/9 13/13/13 14/14/14
f 9/9/9 14/14/14 15/15/15
f 9/9/9 15/15/15 11/11/11
f 16/16/16 4/4/4 3/3/3
f 16/16/16 17/17/17 4/4/4
f 16/16/16 18/18/18 17/17/17
f 19/19/19 17/17/17 18/18/18
f 19/19/19 20/20/20 17/17/17
f 21/21/21 18/18/18 16/16/16
f 22/22/22 21/21/21 16/16/16
f 23/23/23 21/21/21 22/22/22
f 23/23/23 24/24/24 21/21/21
f 25/25/25 23/23/23 22/22/22
f 25/25/25 26/26/26 23/23/23
f 21/21/21 24/24/24 27/27/27
f 21/21/21 27/27/27 28/28/28
f 29/29/29 22/22/22 16/16/16
f 29/29/29 16/16/16 30/30/30
f 29/29/29 30/30/30 31/31/31
f 29/29/29 31/31/31 32/32/32
f 16/16/16 3/3/3 30/30/30
f 35/35/35 34/34/34 33/33/33
f 35/35/35 36/36/36 34/34/34
f 39/39/39 38/38/38 37/37/37
f 39/39/39 40/40/40 38/38/38
f 43/43/43 42/42/42 41/41/41
f 43/43/43 44/44/44 42/42/42
f 47/47/47 46/46/46 45/45/45
f 47/47/47 48/48/48 46/46/46
