g ShadowCollision
v -6.253128 2.500005 -1.250006
v -6.253128 2.500005 1.250005
v -6.253128 5.722046E-06 1.250005
v -6.253128 5.722046E-06 -1.250006
v -6.253128 2.500005 1.250005
v -6.253128 2.500005 -1.250006
v -3.751877 2.499992 -1.255003
v -3.751877 2.499992 1.252498
v -3.751877 2.499992 1.252498
v -3.751877 2.499992 -1.255003
v -1.250626 2.499992 -1.252498
v -1.250626 2.499992 1.252498
v -1.250626 2.499992 1.252498
v -1.250626 2.499992 -1.252498
v 1.250626 2.499992 -1.255003
v 1.250626 2.499992 1.252498
v 1.250626 2.499992 1.252498
v 1.250626 2.499992 -1.255003
v 3.751877 2.499992 -1.252498
v 3.751877 2.499992 1.252498
v 6.253128 5.722046E-06 1.250005
v 6.253128 2.500005 1.250005
v 6.253128 2.500005 -1.250006
v 6.253128 5.722046E-06 -1.250006
v 3.751877 2.499992 1.252498
v 3.751877 2.499992 -1.252498
v 6.253128 2.500005 -1.250006
v 6.253128 2.500005 1.250005
vt 0.6144562 0.969589
vt 0.3390746 0.9696083
vt 0.3421342 0.6972766
vt 0.6176313 0.6972669
vt 0.6237408 0.7312784
vt 0.6237408 0.9136025
vt 0.806065 0.9136025
vt 0.806065 0.7312784
vt 0.6314763 0.4216737
vt 0.6314763 0.5887095
vt 0.7983294 0.5887095
vt 0.7983294 0.4216737
vt 0.6237408 0.7312784
vt 0.6237408 0.9136025
vt 0.806065 0.9136025
vt 0.806065 0.7312784
vt 0.6314763 0.4216737
vt 0.6314763 0.5887095
vt 0.7983294 0.5887095
vt 0.7983294 0.4216737
vt 0.3421342 0.6972766
vt 0.3421727 0.969589
vt 0.6175447 0.9696083
vt 0.6176313 0.6972669
vt 0.6237408 0.7312784
vt 0.6237408 0.9136025
vt 0.806065 0.9136025
vt 0.806065 0.7312784
vn -0.9999995 0.0009775162 0
vn -0.9999995 0.0009775162 0
vn -0.9999995 0.0009775162 0
vn -0.9999995 0.0009775162 0
vn -0.0009775162 0.9999995 0
vn -0.0009775162 0.9999995 0
vn -0.0009775162 0.9999995 0
vn -0.0009775162 0.9999995 0
vn -0.0009775162 0.9999995 0
vn -0.0009775162 0.9999995 0
vn -0.0009775162 0.9999995 0
vn -0.0009775162 0.9999995 0
vn -0.0009775162 0.9999995 0
vn -0.0009775162 0.9999995 0
vn -0.0009775162 0.9999995 0
vn -0.0009775162 0.9999995 0
vn -0.0009775162 0.9999995 0
vn -0.0009775162 0.9999995 0
vn -0.0009775162 0.9999995 0
vn -0.0009775162 0.9999995 0
vn 0.9999995 0.0009775162 0
vn 0.9999995 0.0009775162 0
vn 0.9999995 0.0009775162 0
vn 0.9999995 0.0009775162 0
vn -0.0009775162 0.9999995 0
vn -0.0009775162 0.9999995 0
vn -0.0009775162 0.9999995 0
vn -0.0009775162 0.9999995 0
g ShadowCollision_0
f 3/3/3 2/2/2 1/1/1
f 4/4/4 3/3/3 1/1/1
f 7/7/7 6/6/6 5/5/5
f 8/8/8 7/7/7 5/5/5
f 11/11/11 10/10/10 9/9/9
f 12/12/12 11/11/11 9/9/9
f 15/15/15 14/14/14 13/13/13
f 16/16/16 15/15/15 13/13/13
f 19/19/19 18/18/18 17/17/17
f 20/20/20 19/19/19 17/17/17
f 23/23/23 22/22/22 21/21/21
f 24/24/24 23/23/23 21/21/21
f 27/27/27 26/26/26 25/25/25
f 28/28/28 27/27/27 25/25/25
