g ShadowCollision
v -2.500012 0.08337903 1.330618
v -1.164039 0.5802402 -9.536743E-07
v -1.052931 0.5939779 0.07098126
v -2.450221 0.08337903 1.45039
v -0.9411118 0.5957565 0.1186271
v -2.330019 0.08337903 1.499995
v -0.9411118 0.5957565 -0.118629
v 0.9410994 0.5957565 -0.118629
v 0.8924333 0.6105578 -9.536743E-07
v -0.8924456 0.6105578 -9.536743E-07
v 0.9410994 0.5957565 0.1186271
v -0.9411118 0.5957565 0.1186271
v -1.164039 0.5802402 -9.536743E-07
v -2.499998 0.08337903 -1.330624
v -2.450207 0.08337903 -1.450392
v -1.052916 0.5939779 -0.07098794
v -2.330005 0.08337903 -1.500002
v -0.9411118 0.5957565 -0.118629
v 1.164026 0.5802402 -9.536743E-07
v 2.5 0.08337903 1.330618
v 2.450208 0.08337903 1.45039
v 1.052904 0.5939779 0.07098126
v 2.330007 0.08337903 1.499995
v 0.9410994 0.5957565 0.1186271
v 0.9410994 0.5957565 -0.118629
v 2.330007 0.08337903 -1.500002
v 2.450208 0.08337903 -1.450392
v 1.052904 0.5939779 -0.07098794
v 2.5 0.08337903 -1.330624
v 1.164026 0.5802402 -9.536743E-07
v -1.164039 0.5802402 -9.536743E-07
v -2.500012 0.08337903 1.330618
v -2.499998 0.08337903 -1.330624
v -0.9411118 0.5957565 0.1186271
v 0.9410994 0.5957565 0.1186271
v 2.330007 0.08337903 1.499995
v -2.330019 0.08337903 1.499995
v 0.9410994 0.5957565 -0.118629
v -0.9411118 0.5957565 -0.118629
v -2.330005 0.08337903 -1.500002
v 2.330007 0.08337903 -1.500002
v 1.164026 0.5802402 -9.536743E-07
v 2.5 0.08337903 -1.330624
v 2.5 0.08337903 1.330618
v -1.052931 0.5939779 0.07098126
v -0.9905267 0.6065378 -9.536743E-07
v -0.8924456 0.6105578 -9.536743E-07
v -0.9411118 0.5957565 0.1186271
v -1.052916 0.5939779 -0.07098794
v -0.9411118 0.5957565 -0.118629
v -1.164039 0.5802402 -9.536743E-07
v 0.8924333 0.6105578 -9.536743E-07
v 0.9905143 0.6065378 -9.536743E-07
v 1.052904 0.5939779 0.07098126
v 0.9410994 0.5957565 0.1186271
v 1.052904 0.5939779 -0.07098794
v 1.164026 0.5802402 -9.536743E-07
v 0.9410994 0.5957565 -0.118629
vt 0.5203275 0.9980079
vt 0.7412034 0.7762353
vt 0.7294248 0.7577847
vt 0.500433 0.9897401
vt 0.7215217 0.7392277
vt 0.4922108 0.9697848
vt 0.7609003 0.7392277
vt 0.7609003 0.2607722
vt 0.7412034 0.2688576
vt 0.7412034 0.7311422
vt 0.7215217 0.2607722
vt 0.7215217 0.7392277
vt 0.7412034 0.7762353
vt 0.9620945 0.9980079
vt 0.9819738 0.9897401
vt 0.7529972 0.7577847
vt 0.9902112 0.9697848
vt 0.7609003 0.7392277
vt 0.7412034 0.2237645
vt 0.5203275 0.001991884
vt 0.500433 0.01025972
vt 0.7294248 0.2422151
vt 0.4922108 0.030215
vt 0.7215217 0.2607722
vt 0.7609003 0.2607722
vt 0.9902112 0.030215
vt 0.9819738 0.01025972
vt 0.7529972 0.2422151
vt 0.9620945 0.001991884
vt 0.7412034 0.2237645
vt 0.7412034 0.7762353
vt 0.5203275 0.9980079
vt 0.9620945 0.9980079
vt 0.7215217 0.7392277
vt 0.7215217 0.2607722
vt 0.4922108 0.030215
vt 0.4922108 0.9697848
vt 0.7609003 0.2607722
vt 0.7609003 0.7392277
vt 0.9902112 0.9697848
vt 0.9902112 0.030215
vt 0.7412034 0.2237645
vt 0.9620945 0.001991884
vt 0.5203275 0.001991884
vt 0.7294248 0.7577847
vt 0.7412034 0.7474347
vt 0.7412034 0.7311422
vt 0.7215217 0.7392277
vt 0.7529972 0.7577847
vt 0.7609003 0.7392277
vt 0.7412034 0.7762353
vt 0.7412034 0.2688576
vt 0.7412034 0.2525651
vt 0.7294248 0.2422151
vt 0.7215217 0.2607722
vt 0.7529972 0.2422151
vt 0.7412034 0.2237645
vt 0.7609003 0.2607722
vn -0.2314527 0.9644067 0.1278642
vn -0.2314527 0.9644067 0.1278642
vn -0.1615848 0.9670433 0.1967681
vn -0.1734492 0.9670433 0.186394
vn -0.1101726 0.9630885 0.2456064
vn -0.1101726 0.9630885 0.2456064
vn 0.0005614758 0.9920902 -0.1255256
vn 0.0005614758 0.9920902 -0.1255256
vn 0.0005614758 0.9999999 0
vn 0.0005614758 0.9999999 0
vn 0.0005614758 0.9920902 0.1255256
vn 0.0005614758 0.9920902 0.1255256
vn -0.2314527 0.9644067 -0.1278642
vn -0.2314527 0.9644067 -0.1278642
vn -0.1734492 0.9670433 -0.186394
vn -0.1615848 0.9670433 -0.1967681
vn -0.1101726 0.9630885 -0.2456064
vn -0.1101726 0.9630885 -0.2456064
vn 0.2312575 0.9644067 0.1282171
vn 0.2312575 0.9644067 0.1282171
vn 0.1732539 0.9670433 0.1865755
vn 0.1613895 0.9670433 0.1969283
vn 0.1099773 0.9630885 0.245694
vn 0.1099773 0.9630885 0.245694
vn 0.1099773 0.9630885 -0.245694
vn 0.1099773 0.9630885 -0.245694
vn 0.1732539 0.9670433 -0.1865755
vn 0.1613895 0.9670433 -0.1969283
vn 0.2312575 0.9644067 -0.1282171
vn 0.2312575 0.9644067 -0.1282171
vn -0.3487781 0.9367232 -0.03005707
vn -0.3487781 0.9367232 -0.03005707
vn -0.3487781 0.9367232 -0.03005707
vn 0.0005614758 0.9380416 0.3465223
vn 0.0005614758 0.9380416 0.3465223
vn 0.0005614758 0.9380416 0.3465223
vn 0.0005614758 0.9380416 0.3465223
vn 0.0005614758 0.9380416 -0.3465223
vn 0.0005614758 0.9380416 -0.3465223
vn 0.0005614758 0.9380416 -0.3465223
vn 0.0005614758 0.9380416 -0.3465223
vn 0.3485828 0.9367232 -0.0322432
vn 0.3485828 0.9367232 -0.0322432
vn 0.3485828 0.9367232 -0.0322432
vn -0.1114908 0.9920902 0.05767819
vn -0.0811708 0.9960451 -0.03613116
vn -0.05348124 0.9985689 0
vn -0.05348727 0.9920902 0.1135608
vn -0.1114908 0.9920902 -0.05767819
vn -0.05348727 0.9920902 -0.1135608
vn -0.1497205 0.9881355 -0.03423544
vn 0.05328655 0.9985793 0
vn 0.0809755 0.9960451 -0.03656653
vn 0.1112956 0.9920902 0.05805416
vn 0.05329201 0.9920902 0.1136526
vn 0.1112956 0.9920902 -0.05805416
vn 0.1495252 0.9881355 -0.03507902
vn 0.05329201 0.9920902 -0.1136526
g ShadowCollision_0
f 3/3/3 2/2/2 1/1/1
f 4/4/4 3/3/3 1/1/1
f 5/5/5 3/3/3 4/4/4
f 6/6/6 5/5/5 4/4/4
f 9/9/9 8/8/8 7/7/7
f 10/10/10 9/9/9 7/7/7
f 11/11/11 9/9/9 10/10/10
f 12/12/12 11/11/11 10/10/10
f 15/15/15 14/14/14 13/13/13
f 16/16/16 15/15/15 13/13/13
f 17/17/17 15/15/15 16/16/16
f 18/18/18 17/17/17 16/16/16
f 21/21/21 20/20/20 19/19/19
f 22/22/22 21/21/21 19/19/19
f 23/23/23 21/21/21 22/22/22
f 24/24/24 23/23/23 22/22/22
f 27/27/27 26/26/26 25/25/25
f 28/28/28 27/27/27 25/25/25
f 29/29/29 27/27/27 28/28/28
f 30/30/30 29/29/29 28/28/28
f 33/33/33 32/32/32 31/31/31
f 36/36/36 35/35/35 34/34/34
f 37/37/37 36/36/36 34/34/34
f 40/40/40 39/39/39 38/38/38
f 41/41/41 40/40/40 38/38/38
f 44/44/44 43/43/43 42/42/42
f 47/47/47 46/46/46 45/45/45
f 48/48/48 47/47/47 45/45/45
f 49/49/49 46/46/46 47/47/47
f 45/45/45 46/46/46 49/49/49
f 50/50/50 49/49/49 47/47/47
f 51/51/51 45/45/45 49/49/49
f 54/54/54 53/53/53 52/52/52
f 55/55/55 54/54/54 52/52/52
f 56/56/56 53/53/53 54/54/54
f 52/52/52 53/53/53 56/56/56
f 57/57/57 56/56/56 54/54/54
f 58/58/58 52/52/52 56/56/56
