g ShadowCollision
v -14.30281 3.599986 2.259606
v -14.30281 3.599986 24.65959
v -15.92501 3.599986 24.65959
v -15.92501 3.599986 2.259606
v -15.625 0.6000051 0.5319414
v -15.625 0.8403215 0.1000147
v -10.00001 0.8403215 0.1000147
v -10.00001 0.6000051 0.5420847
v -15.62504 0.6000051 2.259606
v -14.30281 0.6000051 2.259606
v -10.00001 0.6000051 24.6726
v -14.30281 0.6000051 24.6726
v -15.625 0.8403215 0.1000147
v -15.625 0.769702 -0.4141464
v -10.00001 0.769702 -0.4141464
v -10.00001 0.8403215 0.1000147
v -15.87422 0.8403215 0.1000147
v -15.87422 0.769702 -0.4141464
v -15.625 0.769702 -0.4141464
v -10.00001 0.769702 -0.4141464
v -9.759229 0.8403978 0.1000528
v -9.759229 0.769702 -0.4141464
v -15.625 0.769702 -0.4141464
v -15.625 0.2940245 -0.6975155
v -10.00001 0.2940245 -0.6975155
v -10.00001 0.769702 -0.4141464
v -15.87422 0.769702 -0.4141464
v -15.87422 0.2940245 -0.6975155
v -15.625 0.2940245 -0.6975155
v -10.00001 0.2940245 -0.6975155
v -9.759229 0.769702 -0.4141464
v -9.759229 0.2940245 -0.6975155
v -15.625 0.2940245 -0.6975155
v -15.625 -0.229002 -0.6975155
v -10.00001 -0.229002 -0.6975155
v -10.00001 0.2940245 -0.6975155
v -15.87422 0.2940245 -0.6975155
v -15.87422 -0.229002 -0.6975155
v -15.625 -0.229002 -0.6975155
v -10.00001 -0.229002 -0.6975155
v -9.759229 0.2940245 -0.6975155
v -9.759229 -0.229002 -0.6975155
v -15.625 0.6000051 0.5319414
v -15.87422 0.6000051 0.5319414
v -15.87422 0.8403215 0.1000147
v -15.625 0.8403215 0.1000147
v -10.00001 0.8403215 0.1000147
v -9.759229 0.8403978 0.1000528
v -9.759229 0.6001978 0.5421629
v -10.00001 0.6000051 0.5420847
v 14.3028 3.599986 2.259606
v 15.925 3.599986 2.259606
v 15.925 3.599986 24.65959
v 14.3028 3.599986 24.65959
v 15.62502 0.6000051 0.5319414
v 9.99999 0.6000051 0.5420847
v 9.99999 0.8403215 0.1000147
v 15.62502 0.8403215 0.1000147
v 15.62506 0.6000051 2.259606
v 14.3028 0.6000051 2.259606
v 9.99999 0.6000051 24.6726
v 14.3028 0.6000051 24.6726
v 9.99999 8.583069E-06 24.6726
v -10.00001 8.583069E-06 24.6726
v -10.00001 8.583069E-06 8.583069E-06
v 9.99999 8.583069E-06 8.583069E-06
v 15.62502 0.8403215 0.1000147
v 9.99999 0.8403215 0.1000147
v 9.99999 0.769702 -0.4141464
v 15.62502 0.769702 -0.4141464
v 15.62502 0.769702 -0.4141464
v 15.8742 0.769702 -0.4141464
v 15.8742 0.8403215 0.1000147
v 9.99999 0.769702 -0.4141464
v 9.759211 0.8403978 0.1000528
v 9.759211 0.769702 -0.4141464
v 15.62502 0.769702 -0.4141464
v 9.99999 0.769702 -0.4141464
v 9.99999 0.2940245 -0.6975155
v 15.62502 0.2940245 -0.6975155
v 15.62502 0.2940245 -0.6975155
v 15.8742 0.2940245 -0.6975155
v 15.8742 0.769702 -0.4141464
v 9.99999 0.2940245 -0.6975155
v 9.759211 0.769702 -0.4141464
v 9.759211 0.2940245 -0.6975155
v 15.62502 0.2940245 -0.6975155
v 9.99999 0.2940245 -0.6975155
v 9.99999 -0.229002 -0.6975155
v 15.62502 -0.229002 -0.6975155
v 15.62502 -0.229002 -0.6975155
v 15.8742 -0.229002 -0.6975155
v 15.8742 0.2940245 -0.6975155
v 9.99999 -0.229002 -0.6975155
v 9.759211 0.2940245 -0.6975155
v 9.759211 -0.229002 -0.6975155
v 15.62502 0.6000051 0.5319414
v 15.62502 0.8403215 0.1000147
v 15.8742 0.8403215 0.1000147
v 15.87424 0.6000051 0.5319414
v 9.99999 0.8403215 0.1000147
v 9.99999 0.6000051 0.5420847
v 9.759211 0.6001978 0.5421629
v 9.759211 0.8403978 0.1000528
v -10.00001 0.6000051 24.6726
v -10.00001 -1.916982 24.6726
v -14.30281 -1.916982 24.6726
v -14.30281 0.6000051 24.6726
v 9.99999 8.583069E-06 24.6726
v 9.99999 -1.920002 24.6726
v -10.00001 -1.920002 24.6726
v -10.00001 8.583069E-06 24.6726
v 14.3028 0.6000051 24.6726
v 14.3028 -1.916982 24.6726
v 9.99999 -1.916982 24.6726
v 9.99999 0.6000051 24.6726
vt 0.9067979 0.5844358
vt 0.9067979 0.001327535
vt 0.8645609 0.001327535
vt 0.8645609 0.5844358
vt 0.008484016 0.6294041
vt 0.008484016 0.64065
vt 0.1549096 0.64065
vt 0.1549096 0.6291447
vt 0.008484016 0.5844358
vt 0.04289311 0.5844358
vt 0.1549096 0.001327535
vt 0.04289311 0.001327535
vt 0.008484016 0.64065
vt 0.008484016 0.6540322
vt 0.1549096 0.6540322
vt 0.1549096 0.64065
vt 0.001998932 0.64065
vt 0.001998932 0.6540322
vt 0.008484016 0.6540322
vt 0.1549096 0.6540322
vt 0.161181 0.64065
vt 0.161181 0.6540322
vt 0.008484016 0.6540322
vt 0.008484016 0.6614023
vt 0.1549096 0.6614023
vt 0.1549096 0.6540322
vt 0.001998932 0.6540322
vt 0.001998932 0.6614023
vt 0.008484016 0.6614023
vt 0.1549096 0.6614023
vt 0.161181 0.6540322
vt 0.161181 0.6614023
vt 0.9627832 0.1540093
vt 0.9763943 0.1540093
vt 0.9763943 0.007583734
vt 0.9627832 0.007583734
vt 0.9627832 0.1605096
vt 0.9763943 0.1605096
vt 0.9763943 0.1540093
vt 0.9763943 0.007583734
vt 0.9627832 0.001327535
vt 0.9763943 0.001327535
vt 0.008484016 0.6294041
vt 0.001998932 0.6294041
vt 0.001998932 0.64065
vt 0.008484016 0.64065
vt 0.1549096 0.64065
vt 0.161181 0.64065
vt 0.161181 0.6291295
vt 0.1549096 0.6291447
vt 0.9136797 0.5844358
vt 0.9559014 0.5844358
vt 0.9559014 0.001327535
vt 0.9136797 0.001327535
vt 0.3218586 0.6294041
vt 0.175433 0.6291447
vt 0.175433 0.64065
vt 0.3218586 0.64065
vt 0.3218586 0.5844358
vt 0.2874342 0.5844358
vt 0.175433 0.001327535
vt 0.2874342 0.001327535
vt 0.8567635 0.001327535
vt 0.336141 0.001327535
vt 0.336141 0.6432441
vt 0.8567635 0.6432441
vt 0.3218586 0.64065
vt 0.175433 0.64065
vt 0.175433 0.6540322
vt 0.3218586 0.6540322
vt 0.3218586 0.6540322
vt 0.3283436 0.6540322
vt 0.3283436 0.64065
vt 0.175433 0.6540322
vt 0.1691615 0.64065
vt 0.1691615 0.6540322
vt 0.3218586 0.6540322
vt 0.175433 0.6540322
vt 0.175433 0.6614023
vt 0.3218586 0.6614023
vt 0.3218586 0.6614023
vt 0.3283436 0.6614023
vt 0.3283436 0.6540322
vt 0.175433 0.6614023
vt 0.1691615 0.6540322
vt 0.1691615 0.6614023
vt 0.98439 0.007812619
vt 0.98439 0.1542382
vt 0.998001 0.1542382
vt 0.998001 0.007812619
vt 0.998001 0.007812619
vt 0.998001 0.001327535
vt 0.98439 0.001327535
vt 0.998001 0.1542382
vt 0.98439 0.1605096
vt 0.998001 0.1605096
vt 0.3218586 0.6294041
vt 0.3218586 0.64065
vt 0.3283436 0.64065
vt 0.3283436 0.6294041
vt 0.175433 0.64065
vt 0.175433 0.6291447
vt 0.1691615 0.6291295
vt 0.1691615 0.64065
vt 0 0
vt 0 1
vt 1 1
vt 1 0
vt 0 0
vt 0 1
vt 1 1
vt 1 0
vt 0 0
vt 0 1
vt 1 1
vt 1 0
vn -0.0003316469 0.9999999 0
vn -0.0003316469 0.9999999 0
vn -0.0003316469 0.9999999 0
vn -0.0003316469 0.9999999 0
vn -0.0003316469 0.9863058 0.1649264
vn -0.0003316469 0.9843495 0.1762268
vn -0.0003316469 0.9843495 0.1762268
vn -0.0003316469 0.9999999 0
vn -0.0003316469 0.9999999 0
vn -0.0003316469 0.9999999 0
vn -0.0003316469 0.9999999 0
vn -0.0003316469 0.9999999 0
vn -0.0003316469 0.9843495 0.1762268
vn -0.0003316469 0.8249112 -0.5652621
vn -0.0003316469 0.8249112 -0.5652621
vn -0.0003316469 0.9843495 0.1762268
vn -0.0003316469 0.9843495 0.1762268
vn -0.0003316469 0.8249112 -0.5652621
vn -0.0003316469 0.8249112 -0.5652621
vn -0.0003316469 0.8249112 -0.5652621
vn -0.0003316469 0.9843495 0.1762268
vn -0.0003316469 0.8249112 -0.5652621
vn -0.0003316469 0.8249112 -0.5652621
vn -0.0003316469 0.2732352 -0.9619472
vn -0.0003316469 0.2732352 -0.9619472
vn -0.0003316469 0.8249112 -0.5652621
vn -0.0003316469 0.8249112 -0.5652621
vn -0.0003316469 0.2732352 -0.9619472
vn -0.0003316469 0.2732352 -0.9619472
vn -0.0003316469 0.2732352 -0.9619472
vn -0.0003316469 0.8249112 -0.5652621
vn -0.0003316469 0.2732352 -0.9619472
vn -0.0003316469 0.2732352 -0.9619472
vn -0.0003316469 0.0003316469 -0.9999999
vn -0.0003316469 0.0003316469 -0.9999999
vn -0.0003316469 0.2732352 -0.9619472
vn -0.0003316469 0.2732352 -0.9619472
vn -0.0003316469 0.0003316469 -0.9999999
vn -0.0003316469 0.0003316469 -0.9999999
vn -0.0003316469 0.0003316469 -0.9999999
vn -0.0003316469 0.2732352 -0.9619472
vn -0.0003316469 0.0003316469 -0.9999999
vn -0.0003316469 0.9863058 0.1649264
vn -0.0003316469 0.8738187 0.4862518
vn -0.0003316469 0.9843495 0.1762268
vn -0.0003316469 0.9843495 0.1762268
vn -0.0003316469 0.9843495 0.1762268
vn -0.0003316469 0.9843495 0.1762268
vn -0.0003316469 0.8787094 0.4773569
vn -0.0003316469 0.9999999 0
vn -0.0003316469 0.9999999 0
vn -0.0003316469 0.9999999 0
vn -0.0003316469 0.9999999 0
vn -0.0003316469 0.9999999 0
vn -0.0003316469 0.9863058 0.1649264
vn -0.0003316469 0.9999999 0
vn 0.0006465021 0.9843495 0.1762259
vn 0.0006465021 0.9843495 0.1762259
vn -0.0003316469 0.9999999 0
vn -0.0003316469 0.9999999 0
vn -0.0003316469 0.9999999 0
vn -0.0003316469 0.9999999 0
vn -0.0003316469 0.9999999 0
vn -0.0003316469 0.9999999 0
vn -0.0003316469 0.9999999 0
vn -0.0003316469 0.9999999 0
vn 0.0006465021 0.9843495 0.1762259
vn 0.0006465021 0.9843495 0.1762259
vn -0.0003316469 0.8249112 -0.5652621
vn -0.0003316469 0.8249112 -0.5652621
vn -0.0003316469 0.8249112 -0.5652621
vn -0.0003316469 0.8249112 -0.5652621
vn -0.0003316469 0.9843495 0.1762268
vn -0.0003316469 0.8249112 -0.5652621
vn 0.0006465021 0.9843495 0.1762259
vn -0.0003316469 0.8249112 -0.5652621
vn -0.0003316469 0.8249112 -0.5652621
vn -0.0003316469 0.8249112 -0.5652621
vn -0.0003316469 0.2732352 -0.9619472
vn -0.0003316469 0.2732352 -0.9619472
vn -0.0003316469 0.2732352 -0.9619472
vn -0.0003316469 0.2732352 -0.9619472
vn -0.0003316469 0.8249112 -0.5652621
vn -0.0003316469 0.2732352 -0.9619472
vn -0.0003316469 0.8249112 -0.5652621
vn -0.0003316469 0.2732352 -0.9619472
vn -0.0003316469 0.2732352 -0.9619472
vn -0.0003316469 0.2732352 -0.9619472
vn -0.0003316469 0.0003316469 -0.9999999
vn -0.0003316469 0.0003316469 -0.9999999
vn -0.0003316469 0.0003316469 -0.9999999
vn -0.0003316469 0.0003316469 -0.9999999
vn -0.0003316469 0.2732352 -0.9619472
vn -0.0003316469 0.0003316469 -0.9999999
vn -0.0003316469 0.2732352 -0.9619472
vn -0.0003316469 0.0003316469 -0.9999999
vn -0.0003316469 0.9863058 0.1649264
vn 0.0006465021 0.9843495 0.1762259
vn -0.0003316469 0.9843495 0.1762268
vn -0.0003316469 0.8738187 0.4862518
vn 0.0006465021 0.9843495 0.1762259
vn -0.0003316469 0.9999999 0
vn 0.0006465021 0.8787094 0.4773566
vn 0.0006465021 0.9843495 0.1762259
vn -0.0003316469 0.0003316469 0.9999999
vn -0.0003316469 0.0003316469 0.9999999
vn -0.0003316469 0.0003316469 0.9999999
vn -0.0003316469 0.0003316469 0.9999999
vn -0.0003316469 0.0003316469 0.9999999
vn -0.0003316469 0.0003316469 0.9999999
vn -0.0003316469 0.0003316469 0.9999999
vn -0.0003316469 0.0003316469 0.9999999
vn -0.0003316469 0.0003316469 0.9999999
vn -0.0003316469 0.0003316469 0.9999999
vn -0.0003316469 0.0003316469 0.9999999
vn -0.0003316469 0.0003316469 0.9999999
g ShadowCollision_0
f 3/3/3 2/2/2 1/1/1
f 4/4/4 3/3/3 1/1/1
f 7/7/7 6/6/6 5/5/5
f 8/8/8 7/7/7 5/5/5
f 5/5/5 9/9/9 8/8/8
f 9/9/9 10/10/10 8/8/8
f 8/8/8 10/10/10 11/11/11
f 10/10/10 12/12/12 11/11/11
f 15/15/15 14/14/14 13/13/13
f 16/16/16 15/15/15 13/13/13
f 18/18/18 17/17/17 13/13/13
f 19/19/19 18/18/18 13/13/13
f 16/16/16 21/21/21 20/20/20
f 21/21/21 22/22/22 20/20/20
f 25/25/25 24/24/24 23/23/23
f 26/26/26 25/25/25 23/23/23
f 28/28/28 27/27/27 23/23/23
f 29/29/29 28/28/28 23/23/23
f 26/26/26 31/31/31 30/30/30
f 31/31/31 32/32/32 30/30/30
f 35/35/35 34/34/34 33/33/33
f 36/36/36 35/35/35 33/33/33
f 38/38/38 37/37/37 33/33/33
f 39/39/39 38/38/38 33/33/33
f 36/36/36 41/41/41 40/40/40
f 41/41/41 42/42/42 40/40/40
f 45/45/45 44/44/44 43/43/43
f 46/46/46 45/45/45 43/43/43
f 49/49/49 48/48/48 47/47/47
f 50/50/50 49/49/49 47/47/47
f 53/53/53 52/52/52 51/51/51
f 54/54/54 53/53/53 51/51/51
f 57/57/57 56/56/56 55/55/55
f 58/58/58 57/57/57 55/55/55
f 59/59/59 55/55/55 56/56/56
f 60/60/60 59/59/59 56/56/56
f 60/60/60 56/56/56 61/61/61
f 62/62/62 60/60/60 61/61/61
f 65/65/65 64/64/64 63/63/63
f 65/65/65 63/63/63 66/66/66
f 69/69/69 68/68/68 67/67/67
f 70/70/70 69/69/69 67/67/67
f 72/72/72 71/71/71 67/67/67
f 73/73/73 72/72/72 67/67/67
f 75/75/75 68/68/68 74/74/74
f 76/76/76 75/75/75 74/74/74
f 79/79/79 78/78/78 77/77/77
f 80/80/80 79/79/79 77/77/77
f 82/82/82 81/81/81 77/77/77
f 83/83/83 82/82/82 77/77/77
f 85/85/85 78/78/78 84/84/84
f 86/86/86 85/85/85 84/84/84
f 89/89/89 88/88/88 87/87/87
f 90/90/90 89/89/89 87/87/87
f 92/92/92 91/91/91 87/87/87
f 93/93/93 92/92/92 87/87/87
f 95/95/95 88/88/88 94/94/94
f 96/96/96 95/95/95 94/94/94
f 99/99/99 98/98/98 97/97/97
f 100/100/100 99/99/99 97/97/97
f 103/103/103 102/102/102 101/101/101
f 104/104/104 103/103/103 101/101/101
f 107/107/107 106/106/106 105/105/105
f 108/108/108 107/107/107 105/105/105
f 111/111/111 110/110/110 109/109/109
f 112/112/112 111/111/111 109/109/109
f 115/115/115 114/114/114 113/113/113
f 116/116/116 115/115/115 113/113/113
