g ShadowCollision
v -7.569227 0.1360569 3.438148
v -8.972347 0.1360569 3.438148
v -8.972347 0.1360569 -3.438148
v -7.569227 0.1360569 -3.438148
v 7.569226 0.1360569 -3.438148
v 8.972347 0.1360569 -3.438148
v 8.972347 0.1360569 3.438148
v 7.569226 0.1360569 3.438148
v 7.402284 0.2671795 -5.079627
v 9.094536 0.2671795 -5.079627
v 9.094536 0.2671795 -3.438148
v 7.402284 0.2671795 -3.438148
v -9.094536 0.2671795 -3.438148
v -9.094536 0.2671795 -5.079627
v -7.402285 0.2671795 -5.079627
v -7.402285 0.2671795 -3.438148
v -7.402285 0.1360569 -4.939103
v 7.402284 0.1360569 -4.939103
v 7.402284 0.1360569 -3.578082
v -7.402285 0.1360569 -3.578082
v 7.402284 0.2671795 3.438148
v 9.094536 0.2671795 3.438148
v 9.094536 0.2671795 5.079627
v 7.402284 0.2671795 5.079627
v -7.402285 0.1360569 3.57869
v 7.402284 0.1360569 3.57869
v 7.402284 0.1360569 4.939711
v -7.402285 0.1360569 4.939711
v -9.094536 0.2671795 5.079627
v -9.094536 0.2671795 3.438148
v -7.402285 0.2671795 3.438148
v -7.402285 0.2671795 5.079627
vt 0.3430644 0.1985162
vt 0.2532105 0.1985162
vt 0.2532105 0.8010898
vt 0.3430644 0.8010898
vt 0.3430644 0.8010898
vt 0.2532105 0.8010898
vt 0.2532105 0.1985162
vt 0.3430644 0.1985162
vt 0.4972139 0.6657805
vt 0.4972139 0.8264971
vt 0.3457968 0.8264971
vt 0.3457968 0.6657805
vt 0.3457968 0.8264971
vt 0.4972139 0.8264971
vt 0.4972139 0.6657805
vt 0.3457968 0.6657805
vt 0.3422643 0.9944749
vt 0.3422643 0.005131
vt 0.25392 0.005131
vt 0.25392 0.9944749
vt 0.4972139 0.6657805
vt 0.4972139 0.8264971
vt 0.3457968 0.8264971
vt 0.3457968 0.6657805
vt 0.3422643 0.9944749
vt 0.3422643 0.005131
vt 0.25392 0.005131
vt 0.25392 0.9944749
vt 0.3457968 0.8264971
vt 0.4972139 0.8264971
vt 0.4972139 0.6657805
vt 0.3457968 0.6657805
vn 0 1 0
vn 0 1 0
vn 0 1 0
vn 0 1 0
vn 0 1 0
vn 0 1 0
vn 0 1 0
vn 0 1 0
vn 0 1 0
vn 0 1 0
vn 0 1 0
vn 0 1 0
vn 0 1 0
vn 0 1 0
vn 0 1 0
vn 0 1 0
vn 0 1 0
vn 0 1 0
vn 0 1 0
vn 0 1 0
vn 0 1 0
vn 0 1 0
vn 0 1 0
vn 0 1 0
vn 0 1 0
vn 0 1 0
vn 0 1 0
vn 0 1 0
vn 0 1 0
vn 0 1 0
vn 0 1 0
vn 0 1 0
g ShadowCollision_0
f 3/3/3 2/2/2 1/1/1
f 1/1/1 4/4/4 3/3/3
f 7/7/7 6/6/6 5/5/5
f 5/5/5 8/8/8 7/7/7
f 11/11/11 10/10/10 9/9/9
f 12/12/12 11/11/11 9/9/9
f 15/15/15 14/14/14 13/13/13
f 16/16/16 15/15/15 13/13/13
f 19/19/19 18/18/18 17/17/17
f 20/20/20 19/19/19 17/17/17
f 23/23/23 22/22/22 21/21/21
f 24/24/24 23/23/23 21/21/21
f 27/27/27 26/26/26 25/25/25
f 28/28/28 27/27/27 25/25/25
f 31/31/31 30/30/30 29/29/29
f 32/32/32 31/31/31 29/29/29
