g ShadowCollision
v -2.9 0.1144338 -9.865813
v 2.9 0.1144338 -9.865813
v 2.9 0.1144294 -0.09999984
v -2.9 0.1144294 -0.09999984
v 2.9 0.01443402 -10.06086
v 2.9 0.1144338 -9.865813
v -2.9 0.1144338 -9.865813
v -2.9 0.01443402 -10.06086
v -2.9 0.01442925 1.072884E-07
v -2.9 0.1144294 -0.09999984
v 2.9 0.1144294 -0.09999984
v 2.9 0.01442925 1.072884E-07
vt 0.188066 0.9978426
vt 0.1876268 0.9978427
vt 0.1876268 0.003778638
vt 0.188066 0.004229184
vt 0.08247095 0.5092946
vt 0.08247095 0.4907054
vt 0.06383672 0.4907059
vt 0.06383672 0.5092942
vt 0.08251601 0.509294
vt 0.08251601 0.4907061
vt 0.06388178 0.4907059
vt 0.06388178 0.5092942
vn 0 1 0
vn 0 1 0
vn 0 1 0
vn 0 1 0
vn 0 0.7071074 -0.7071061
vn 0 0.7071074 -0.7071061
vn 0 0.7071074 -0.7071061
vn 0 0.7071074 -0.7071061
vn 0 0.7071059 0.7071077
vn 0 0.7071059 0.7071077
vn 0 0.7071059 0.7071077
vn 0 0.7071059 0.7071077
g ShadowCollision_0
f 3/3/3 2/2/2 1/1/1
f 4/4/4 3/3/3 1/1/1
f 7/7/7 6/6/6 5/5/5
f 8/8/8 7/7/7 5/5/5
f 11/11/11 10/10/10 9/9/9
f 12/12/12 11/11/11 9/9/9
