g ShadowCollision
v 2.700005 2.669712 -7.979504
v 2.700005 1.67412 -5.42387
v -2.699981 1.67412 -5.42387
v -2.699981 2.669712 -7.979504
v -2.699991 0.001984596 -1.430511E-06
v 2.700005 0.001984596 -1.430511E-06
vt 2.000079 3.715116
vt 2.000079 3.573536
vt 5.960464E-08 3.573536
vt 5.960464E-08 3.715116
vt 5.960464E-08 3.287147
vt 2.000079 3.287147
vn 0 0.9313305 0.3641751
vn 0 0.9481449 0.3178384
vn 0 0.9481449 0.3178384
vn 0 0.9313305 0.3641751
vn 0 0.955618 0.2946087
vn 0 0.955618 0.2946087
g ShadowCollision_0
f 3/3/3 2/2/2 1/1/1
f 4/4/4 3/3/3 1/1/1
f 3/3/3 5/5/5 2/2/2
f 5/5/5 6/6/6 2/2/2
