g ShadowCollision
v -20 0.02809525 -1.999151
v 20 0.02809525 -1.999151
v 20 0.02916336 1.999189
v -20 0.02916336 1.999189
v 20 -0.02916336 -1.999151
v 20 0.02809525 -1.999151
v -20 0.02809525 -1.999151
v -20 -0.02916336 -1.999151
v -20 0.02916336 1.999189
v 20 0.02916336 1.999189
v 20 -0.02916336 1.999189
v -20 -0.02916336 1.999189
v -20 -0.02916336 -1.999151
v -20 0.02809525 -1.999151
v -20 0.02916336 1.999189
v -20 -0.02916336 1.999189
v 20 0.02809525 -1.999151
v 20 -0.02916336 -1.999151
v 20 -0.02916336 1.999189
v 20 0.02916336 1.999189
vt 0.9577895 0.369385
vt 0.9577895 0.369385
vt 0.9581234 0.2060538
vt 0.9581234 0.2060538
vt 0.957778 0.3718027
vt 0.9577895 0.369385
vt 0.9577895 0.369385
vt 0.957778 0.3718027
vt 0.9581234 0.2060538
vt 0.9581234 0.2060538
vt 0.9581234 0.2036361
vt 0.9581234 0.2036361
vt 0.9577895 0.369385
vt 0.9577895 0.369385
vt 0.9581234 0.2060538
vt 0.9581234 0.2036361
vt 0.9577895 0.369385
vt 0.957778 0.3718027
vt 0.9581234 0.2060538
vt 0.9581234 0.2060538
vn 0.0009775162 0.9999995 0
vn -0.0009775162 0.9999995 0
vn -0.0009775162 0.9999995 0
vn 0.0009775162 0.9999995 0
vn -0.0009775162 0.0009775162 -0.999999
vn -0.0009775162 0.0009775162 -0.999999
vn -0.0009775162 0.0009775162 -0.999999
vn -0.0009775162 0.0009775162 -0.999999
vn -0.0009775162 0.0009775162 0.999999
vn -0.0009775162 0.0009775162 0.999999
vn -0.0009775162 0.0009775162 0.999999
vn -0.0009775162 0.0009775162 0.999999
vn -0.9999995 0.0009775162 0
vn -0.9999995 0.0009775162 0
vn -0.9999995 0.0009775162 0
vn -0.9999995 0.0009775162 0
vn 0.9999995 0.0009775162 0
vn 0.9999995 0.0009775162 0
vn 0.9999995 0.0009775162 0
vn 0.9999995 0.0009775162 0
g ShadowCollision_0
f 3/3/3 2/2/2 1/1/1
f 4/4/4 3/3/3 1/1/1
f 7/7/7 6/6/6 5/5/5
f 8/8/8 7/7/7 5/5/5
f 11/11/11 10/10/10 9/9/9
f 12/12/12 11/11/11 9/9/9
f 15/15/15 14/14/14 13/13/13
f 16/16/16 15/15/15 13/13/13
f 19/19/19 18/18/18 17/17/17
f 20/20/20 19/19/19 17/17/17
