g ShadowCollision
v -4.047685 8.298816 9.438664
v -4.047685 8.298816 6.271504
v 4.182606 8.298816 6.271504
v 4.182606 8.298816 9.438664
v 4.182606 9.382009 5.694215
v -4.047685 9.382009 5.694215
v 4.182606 9.382009 -12.59663
v -4.047685 9.382009 -12.59663
vt 0 0.1236591
vt 0 0.2496223
vt 1 0.2496223
vt 1 0.1236591
vt 1 0.2755016
vt 0 0.2755016
vt 1 1
vt 0 1
vn 0 1 0
vn 0 0.9608993 0.2768981
vn 0 0.9608993 0.2768981
vn 0 1 0
vn 0 0.998045 0.0625
vn 0 0.998045 0.0625
vn 0 1 0
vn 0 1 0
g ShadowCollision_0
f 3/3/3 2/2/2 1/1/1
f 4/4/4 3/3/3 1/1/1
f 3/3/3 5/5/5 2/2/2
f 5/5/5 6/6/6 2/2/2
f 5/5/5 7/7/7 6/6/6
f 7/7/7 8/8/8 6/6/6
