g ShadowCollision
v -5.028357 1.86454 -3.273646
v -4.842724 2.067055 -3.208756
v -4.842724 0.1638098 -3.71933E-05
v -5.028344 -0.08555984 0.0140686
v -5.028357 2.846935 -4.929867
v -4.842724 3.025217 -4.82413
v -4.842724 4.929983 -8.035435
v -5.028357 4.822801 -8.261041
v 4.842811 3.025268 -4.824142
v 4.842748 4.929996 -8.035358
v 5.028355 4.822814 -8.260964
v 5.028355 2.846986 -4.92988
v 5.028355 1.885122 -3.308233
v 4.842836 2.065749 -3.20645
v 5.028355 -0.08554745 0.0141573
v 4.8429 0.1638222 3.910065E-05
v 5.028355 4.822814 -8.260964
v 4.842748 4.929996 -8.035358
v -4.842724 4.929983 -8.035435
v -5.028357 4.822801 -8.261041
v -5.028344 -0.08555984 0.0140686
v -4.842724 0.1638098 -3.71933E-05
v 4.8429 0.1638222 3.910065E-05
v 5.028355 -0.08554745 0.0141573
v 4.842836 2.065749 -3.20645
v -4.842724 2.067055 -3.208756
v -4.842724 3.025217 -4.82413
v 4.842811 3.025268 -4.824142
v -4.842724 3.025217 -4.82413
v -4.842724 4.929983 -8.035435
v 4.842748 4.929996 -8.035358
v 4.842811 3.025268 -4.824142
v -4.842724 0.1638098 -3.71933E-05
v -4.842724 2.067055 -3.208756
v 4.842836 2.065749 -3.20645
v 4.8429 0.1638222 3.910065E-05
vt 0.8557937 0.3656506
vt 0.8410358 0.3703926
vt 0.9798304 0.6043767
vt 0.998008 0.6054102
vt 0.7841622 0.2448817
vt 0.7711673 0.2525874
vt 0.6322663 0.01840574
vt 0.6400785 0.001960744
vt 0.7087463 0.6295153
vt 0.8476472 0.3953337
vt 0.839835 0.3788887
vt 0.6957513 0.6217944
vt 0.6256093 0.7400556
vt 0.6387866 0.7474725
vt 0.4819055 0.9823381
vt 0.5000831 0.9813046
vt 0.6044071 0.002401507
vt 0.5879621 0.01592836
vt 0.5879621 0.7222275
vt 0.6044071 0.7357543
vt 0.6096051 0.737563
vt 0.6277827 0.7240362
vt 0.6277827 0.017737
vt 0.6096051 0.004210153
vt 0.2358232 0.01592836
vt 0.2359904 0.7222275
vt 0.3537804 0.7222275
vt 0.3537804 0.01592836
vt 0.3537804 0.7222275
vt 0.5879621 0.7222275
vt 0.5879621 0.01592836
vt 0.3537804 0.01592836
vt 0.001991141 0.7222275
vt 0.2359904 0.7222275
vt 0.2358232 0.01592836
vt 0.001991141 0.01591316
vn -0.7453362 0.5745289 0.3382166
vn -0.7453362 0.5745289 0.3382166
vn -0.7453362 0.5745289 0.3382166
vn -0.7453362 0.5745289 0.3382166
vn -0.7453362 0.5745289 0.3382166
vn -0.7453362 0.5745289 0.3382166
vn -0.7453362 0.5745289 0.3382166
vn -0.7453362 0.5745289 0.3382166
vn 0.7451987 0.5729176 0.3412393
vn 0.7451987 0.5729176 0.3412393
vn 0.7451987 0.5729176 0.3412393
vn 0.7451987 0.5729176 0.3412393
vn 0.7451987 0.5729176 0.3412393
vn 0.7451987 0.5729176 0.3412393
vn 0.7451987 0.5729176 0.3412393
vn 0.7451987 0.5729176 0.3412393
vn 0.0007369518 0.9032524 -0.4291091
vn 0.0007369518 0.9032524 -0.4291091
vn 0.0007369518 0.9032524 -0.4291091
vn 0.0007369518 0.9032524 -0.4291091
vn 0.0007369518 0.05727303 0.9983582
vn 0.0007369518 0.05727303 0.9983582
vn 0.0007369518 0.05727303 0.9983582
vn 0.0007369518 0.05727303 0.9983582
vn 0.0007369518 0.8597448 0.5107234
vn 0.0007369518 0.8597448 0.5107234
vn 0.0007369518 0.8597448 0.5107234
vn 0.0007369518 0.8597448 0.5107234
vn 0.0007369518 0.8597448 0.5107234
vn 0.0007369518 0.8597448 0.5107234
vn 0.0007369518 0.8597448 0.5107234
vn 0.0007369518 0.8597448 0.5107234
vn 0.0007369518 0.8597448 0.5107234
vn 0.0007369518 0.8597448 0.5107234
vn 0.0007369518 0.8597448 0.5107234
vn 0.0007369518 0.8597448 0.5107234
g ShadowCollision_0
f 3/3/3 2/2/2 1/1/1
f 4/4/4 3/3/3 1/1/1
f 1/1/1 2/2/2 5/5/5
f 2/2/2 6/6/6 5/5/5
f 5/5/5 6/6/6 7/7/7
f 8/8/8 5/5/5 7/7/7
f 11/11/11 10/10/10 9/9/9
f 12/12/12 11/11/11 9/9/9
f 12/12/12 9/9/9 13/13/13
f 9/9/9 14/14/14 13/13/13
f 13/13/13 14/14/14 15/15/15
f 14/14/14 16/16/16 15/15/15
f 19/19/19 18/18/18 17/17/17
f 20/20/20 19/19/19 17/17/17
f 23/23/23 22/22/22 21/21/21
f 24/24/24 23/23/23 21/21/21
f 27/27/27 26/26/26 25/25/25
f 28/28/28 27/27/27 25/25/25
f 31/31/31 30/30/30 29/29/29
f 32/32/32 31/31/31 29/29/29
f 35/35/35 34/34/34 33/33/33
f 36/36/36 35/35/35 33/33/33
