g ShadowCollision
v -2.497189 2.369532 6.530674
v -2.497189 2.614083 6.206266
v 2.497188 2.614083 6.206266
v 2.497188 2.369532 6.530674
v 2.779267 2.831379 3.062609
v -2.779268 2.831379 3.062609
v 1.856638 4.439309 1.468624
v -1.845069 4.439309 1.468624
v 1.906631 4.466957 0.1685467
v -1.892612 4.466957 0.1685467
v 2.779267 2.831379 3.062609
v 1.856638 4.439309 1.468624
v 2.712415 2.661222 1.453809
v 1.906631 4.466957 0.1685467
v 1.928046 4.478809 -0.2340145
v 2.703782 2.701224 -0.2340145
v 1.920907 4.471891 -0.4795456
v 1.856638 4.409703 -2.68931
v 2.653386 2.759188 -2.912054
v 2.749588 2.898746 -3.64561
v -2.712416 2.661222 1.453809
v -1.845069 4.439309 1.468624
v -2.779268 2.831379 3.062609
v -1.892612 4.466957 0.1685467
v -2.703783 2.701224 -0.2340145
v -1.912999 4.478809 -0.2340145
v -1.906203 4.471891 -0.4795456
v -2.653387 2.759188 -2.912054
v -1.845069 4.409703 -2.68931
v -2.749588 2.898746 -3.64561
v -1.845069 4.409703 -2.68931
v -2.749588 2.898746 -3.64561
v 2.749588 2.898746 -3.64561
v 1.856638 4.409703 -2.68931
v 2.685306 2.773905 -6.132018
v -2.685307 2.773905 -6.132018
v -1.906203 4.471891 -0.4795456
v 1.920907 4.471891 -0.4795456
v 2.685306 2.631971 -6.308173
v -2.685307 2.631971 -6.308173
v -1.420909 5.207283 0.019732
v -1.420909 5.219124 -0.2340145
v 1.42092 5.219124 -0.2340145
v 1.42092 5.207283 0.019732
v 1.42092 5.212217 -0.3352365
v -1.420909 5.212217 -0.3352365
v -1.892612 4.466957 0.1685467
v -1.420909 5.207283 0.019732
v 1.42092 5.207283 0.019732
v 1.906631 4.466957 0.1685467
v 1.906631 4.466957 0.1685467
v 1.42092 5.207283 0.019732
v 1.42092 5.219124 -0.2340145
v 1.928046 4.478809 -0.2340145
v -1.912999 4.478809 -0.2340145
v -1.420909 5.219124 -0.2340145
v -1.420909 5.207283 0.019732
v -1.892612 4.466957 0.1685467
v 1.928046 4.478809 -0.2340145
v 1.42092 5.219124 -0.2340145
v 1.42092 5.212217 -0.3352365
v 1.920907 4.471891 -0.4795456
v 1.920907 4.471891 -0.4795456
v 1.42092 5.212217 -0.3352365
v -1.420909 5.212217 -0.3352365
v -1.906203 4.471891 -0.4795456
v -1.906203 4.471891 -0.4795456
v -1.420909 5.212217 -0.3352365
v -1.420909 5.219124 -0.2340145
v -1.912999 4.478809 -0.2340145
vt 0.3749985 0.2499979
vt 0.3749985 0.2635724
vt 0.6249998 0.2635724
vt 0.6249998 0.2499979
vt 0.6249998 0.3232982
vt 0.3749985 0.3232982
vt 0.6249998 0.3515691
vt 0.3749985 0.3515691
vt 0.6249998 0.370349
vt 0.3749985 0.370349
vt 0.6983001 0.2499979
vt 0.7265711 0.2499979
vt 0.7265711 0.158322
vt 0.7453408 0.2499979
vt 0.7533865 0.2499979
vt 0.7533865 0.1605154
vt 0.7574296 0.2499979
vt 0.7937865 0.2499979
vt 0.7937865 0.1638104
vt 0.8207233 0.2499979
vt 0.2734273 0.158322
vt 0.2734273 0.2499979
vt 0.3016983 0.2499979
vt 0.2546575 0.2499979
vt 0.2466119 0.1605154
vt 0.2466119 0.2499979
vt 0.2425688 0.2499979
vt 0.2062118 0.1638104
vt 0.2062118 0.2499979
vt 0.1792751 0.2499979
vt 0.3749985 0.4187846
vt 0.3749985 0.4457214
vt 0.6249998 0.4457214
vt 0.6249998 0.4187846
vt 0.6249998 0.4918828
vt 0.3749985 0.4918828
vt 0.3749985 0.3824276
vt 0.6249998 0.3824276
vt 0.6249998 0.4999992
vt 0.3749985 0.4999992
vt 0.3749985 0.370349
vt 0.3749985 0.3783947
vt 0.6249998 0.3783947
vt 0.6249998 0.370349
vt 0.6249998 0.3824276
vt 0.3749985 0.3824276
vt 0.3749985 0.370349
vt 0.3749985 0.370349
vt 0.6249998 0.370349
vt 0.6249998 0.370349
vt 0.6249998 0.370349
vt 0.6249998 0.370349
vt 0.6249998 0.3783947
vt 0.6249998 0.3783947
vt 0.3749985 0.3783947
vt 0.3749985 0.3783947
vt 0.3749985 0.370349
vt 0.3749985 0.370349
vt 0.6249998 0.3783947
vt 0.6249998 0.3783947
vt 0.6249998 0.3824276
vt 0.6249998 0.3824276
vt 0.6249998 0.3824276
vt 0.6249998 0.3824276
vt 0.3749985 0.3824276
vt 0.3749985 0.3824276
vt 0.3749985 0.3824276
vt 0.3749985 0.3824276
vt 0.3749985 0.3783947
vt 0.3749985 0.3783947
vn 0.0005499721 0.7979426 0.6027332
vn 0.0005499721 0.9924232 0.1228651
vn 0.0005499721 0.9924232 0.1228651
vn 0.0005499721 0.7979426 0.6027332
vn 0.0005499721 0.9531531 0.3024879
vn 0.0005499721 0.9531531 0.3024879
vn 0.0005499721 0.8334727 0.5525604
vn 0.0005499721 0.8334727 0.5525604
vn 0.0005499721 0.9999033 0.01389887
vn 0.0005499721 0.9999033 0.01389887
vn 0.8981529 0.4332914 -0.07469935
vn 0.9013737 0.433042 0
vn 0.9056329 0.4239414 -0.01013257
vn 0.9093729 0.4145914 0.03398316
vn 0.9131129 0.4071113 0.02202549
vn 0.9093729 0.4145914 -0.03398316
vn 0.9075029 0.4183313 -0.03791163
vn 0.9075029 0.4183313 -0.03791163
vn 0.9075029 0.4183313 0.03791163
vn 0.8925429 0.4052413 0.1978551
vn -0.9026629 0.4295514 -0.02617633
vn -0.8986098 0.4387487 0
vn -0.8951829 0.4370314 -0.08747043
vn -0.9075794 0.4198805 0
vn -0.9064029 0.4220714 -0.01701688
vn -0.910031 0.4145404 0
vn -0.904533 0.4239414 -0.04575765
vn -0.9058177 0.4236678 0
vn -0.904533 0.4239414 -0.04575765
vn -0.891443 0.4108513 0.19113
vn 0.0005499721 0.8372127 -0.5468771
vn 0.0005499721 0.9475431 -0.3196276
vn 0.0005499721 0.9475431 -0.3196276
vn 0.0005499721 0.8372127 -0.5468771
vn 0.0005499721 0.9942933 -0.10668
vn 0.0005499721 0.9942933 -0.10668
vn 0.0005499721 0.9999033 -0.01389887
vn 0.0005499721 0.9999033 -0.01389887
vn 0.0005499721 0.7792426 -0.6267222
vn 0.0005499721 0.7792426 -0.6267222
vn 0.0005499721 0.9980332 0.06268474
vn 0.0005499721 0.9999033 0.01389887
vn 0.0005499721 0.9999033 0.01389887
vn 0.0005499721 0.9980332 0.06268474
vn 0.0005499721 0.9980332 -0.06268474
vn 0.0005499721 0.9980332 -0.06268474
vn 0.0005499721 0.1976706 0.9802683
vn 0.0005499721 0.1976706 0.9802683
vn 0.0005499721 0.1976706 0.9802683
vn 0.0005499721 0.1976706 0.9802683
vn 0.8270926 0.5604518 0.04256177
vn 0.8270926 0.5604518 0.04256177
vn 0.8270926 0.5604518 0.04256177
vn 0.8270926 0.5604518 0.04256177
vn -0.8353427 0.5473618 0.05096724
vn -0.8353427 0.5473618 0.05096724
vn -0.8353427 0.5473618 0.05096724
vn -0.8353427 0.5473618 0.05096724
vn 0.8252227 0.5641919 -0.0263638
vn 0.8252227 0.5641919 -0.0263638
vn 0.8252227 0.5641919 -0.0263638
vn 0.8252227 0.5641919 -0.0263638
vn 0.0005499721 0.1920606 -0.9813829
vn 0.0005499721 0.1920606 -0.9813829
vn 0.0005499721 0.1920606 -0.9813829
vn 0.0005499721 0.1920606 -0.9813829
vn -0.8316028 0.5529718 -0.05156629
vn -0.8316028 0.5529718 -0.05156629
vn -0.8316028 0.5529718 -0.05156629
vn -0.8316028 0.5529718 -0.05156629
g ShadowCollision_0
f 3/3/3 2/2/2 1/1/1
f 4/4/4 3/3/3 1/1/1
f 3/3/3 5/5/5 2/2/2
f 5/5/5 6/6/6 2/2/2
f 5/5/5 7/7/7 6/6/6
f 7/7/7 8/8/8 6/6/6
f 7/7/7 9/9/9 8/8/8
f 9/9/9 10/10/10 8/8/8
f 13/13/13 12/12/12 11/11/11
f 14/14/14 12/12/12 13/13/13
f 15/15/15 14/14/14 13/13/13
f 16/16/16 15/15/15 13/13/13
f 17/17/17 15/15/15 16/16/16
f 18/18/18 17/17/17 16/16/16
f 19/19/19 18/18/18 16/16/16
f 20/20/20 18/18/18 19/19/19
f 23/23/23 22/22/22 21/21/21
f 21/21/21 22/22/22 24/24/24
f 21/21/21 24/24/24 25/25/25
f 24/24/24 26/26/26 25/25/25
f 25/25/25 26/26/26 27/27/27
f 25/25/25 27/27/27 28/28/28
f 27/27/27 29/29/29 28/28/28
f 28/28/28 29/29/29 30/30/30
f 33/33/33 32/32/32 31/31/31
f 34/34/34 33/33/33 31/31/31
f 33/33/33 35/35/35 32/32/32
f 35/35/35 36/36/36 32/32/32
f 34/34/34 31/31/31 37/37/37
f 38/38/38 34/34/34 37/37/37
f 35/35/35 39/39/39 36/36/36
f 39/39/39 40/40/40 36/36/36
f 43/43/43 42/42/42 41/41/41
f 44/44/44 43/43/43 41/41/41
f 43/43/43 45/45/45 42/42/42
f 45/45/45 46/46/46 42/42/42
f 49/49/49 48/48/48 47/47/47
f 50/50/50 49/49/49 47/47/47
f 53/53/53 52/52/52 51/51/51
f 54/54/54 53/53/53 51/51/51
f 57/57/57 56/56/56 55/55/55
f 58/58/58 57/57/57 55/55/55
f 61/61/61 60/60/60 59/59/59
f 62/62/62 61/61/61 59/59/59
f 65/65/65 64/64/64 63/63/63
f 66/66/66 65/65/65 63/63/63
f 69/69/69 68/68/68 67/67/67
f 70/70/70 69/69/69 67/67/67
