g ShadowCollision
v 4.552104 2.321243 -0.8411715
v 4.79394 2.259241 0.4301009
v 3.296612 2.466763 0.4337802
v 3.15768 2.512581 -0.2835431
v 3.863149 2.410155 -1.976218
v 2.742782 2.568042 -0.9767916
v 2.802142 2.500159 -2.869787
v 2.040212 2.622751 -1.580128
v 1.473876 2.548509 -3.441618
v 1.093108 2.653055 -1.996944
v -0.01624012 2.55473 -3.640571
v -0.01624012 2.657018 -2.149601
v 3.156973 2.432192 1.151782
v 4.548039 2.216633 1.705438
v 2.739993 2.403797 1.84615
v 3.84991 2.182403 2.845889
v 2.034744 2.378392 2.450377
v 2.780416 2.155933 3.738301
v 1.084925 2.359905 2.868082
v 1.451692 2.137621 4.304049
v -0.01624012 2.35163 3.021254
v -0.01624012 2.128896 4.49825
v -0.01624012 2.298903 0.41255
v -4.584575 2.321243 -0.8411715
v -3.19015 2.512581 -0.2835431
v -3.329082 2.46746 0.4337802
v -4.82641 2.259241 0.4301009
v -3.895619 2.410155 -1.976218
v -2.775252 2.568042 -0.9767916
v -2.834613 2.500159 -2.869787
v -2.072682 2.622751 -1.580128
v -1.506347 2.548509 -3.441618
v -1.125579 2.653055 -1.996944
v -0.01624012 2.55473 -3.640571
v -0.01624012 2.657018 -2.149601
v -3.189444 2.43244 1.151782
v -4.58051 2.216633 1.705438
v -2.772463 2.403797 1.84615
v -3.88238 2.182403 2.845889
v -2.067214 2.378392 2.450377
v -2.812887 2.155933 3.738301
v -1.117386 2.359905 2.868082
v -1.484163 2.137621 4.304049
v -0.01624012 2.35163 3.021254
v -0.01624012 2.128896 4.49825
v -0.01624012 2.298903 0.41255
vt 0.6486076 0.8920424
vt 0.6562524 0.8437476
vt 0.6074235 0.8439002
vt 0.6028916 0.8711681
vt 0.6264057 0.9355917
vt 0.5894179 0.8975967
vt 0.5918441 0.9701533
vt 0.5665446 0.9206684
vt 0.5482795 0.9923552
vt 0.5356298 0.9366598
vt 0.5 1
vt 0.5000763 0.9424888
vt 0.6029984 0.8166018
vt 0.6486076 0.7954681
vt 0.5895857 0.7901121
vt 0.6264057 0.7519188
vt 0.5667277 0.7669337
vt 0.5918441 0.7173343
vt 0.5357519 0.7507896
vt 0.5482795 0.6951476
vt 0.5000153 0.7448158
vt 0.5 0.6875029
vt 0.5 0.8684977
vt 0.6486076 0.8920424
vt 0.6028916 0.8711681
vt 0.6074235 0.8439002
vt 0.6562524 0.8437476
vt 0.6264057 0.9355917
vt 0.5894179 0.8975967
vt 0.5918441 0.9701533
vt 0.5665446 0.9206684
vt 0.5482795 0.9923552
vt 0.5356298 0.9366598
vt 0.5 1
vt 0.5000763 0.9424888
vt 0.6029984 0.8166018
vt 0.6486076 0.7954681
vt 0.5895857 0.7901121
vt 0.6264057 0.7519188
vt 0.5667277 0.7669337
vt 0.5918441 0.7173343
vt 0.5357519 0.7507896
vt 0.5482795 0.6951476
vt 0.5000153 0.7448158
vt 0.5 0.6875029
vt 0.5 0.8684977
vn 0.1384411 0.9899278 0.02961356
vn 0.1373284 0.9899278 0.03440651
vn 0.06499701 0.9966046 0.0505436
vn 0.06722259 0.9966046 0.04754353
vn 0.1217493 0.9921535 -0.02843583
vn 0.05943306 0.9977173 0.0320606
vn 0.08280165 0.9954918 -0.04625998
vn 0.04051563 0.9988301 0.02639769
vn 0.03606448 0.9977173 -0.05709238
vn 0.01380815 0.9999047 0
vn 0.0004552007 0.9977173 -0.06752773
vn 0.0004552007 0.999943 0.0106726
vn 0.05609469 0.9966046 0.06027159
vn 0.1206365 0.988815 0.08770223
vn 0.04162842 0.9966046 0.07103737
vn 0.09392954 0.988815 0.1158539
vn 0.02604936 0.9966046 0.07810669
vn 0.06165864 0.988815 0.1358054
vn 0.01158309 0.9966046 0.08151738
vn 0.02938773 0.988815 0.1462233
vn 0.0004552007 0.9966046 0.08233514
vn 0.0004552007 0.988815 0.1491465
vn 0.0004552007 0.9977173 0.06752773
vn -0.1386435 0.9899278 0.02865092
vn -0.06631219 0.9966046 0.04880493
vn -0.0651994 0.9966046 0.0502823
vn -0.1375307 0.9899278 0.03358864
vn -0.1219517 0.9921535 -0.02755546
vn -0.05963546 0.9977173 0.03168283
vn -0.08300404 0.9954918 -0.04589519
vn -0.03960524 0.9988301 0.02774516
vn -0.03515409 0.9977173 -0.05765752
vn -0.01401049 0.9999018 0
vn 0.0004552007 0.9977173 -0.06752773
vn 0.0004552007 0.999943 0.0106726
vn -0.05629709 0.9966046 0.06008241
vn -0.1208389 0.988815 0.08742314
vn -0.04183082 0.9966046 0.07091855
vn -0.09413195 0.988815 0.1156894
vn -0.02513897 0.9966046 0.0784045
vn -0.06186104 0.988815 0.1357132
vn -0.0106727 0.9966046 0.08164159
vn -0.02959013 0.988815 0.1461823
vn 0.0004552007 0.9966046 0.08233514
vn 0.0004552007 0.988815 0.1491465
vn 0.0004552007 0.9977173 0.06752773
g ShadowCollision_0
f 3/3/3 2/2/2 1/1/1
f 4/4/4 3/3/3 1/1/1
f 1/1/1 5/5/5 4/4/4
f 5/5/5 6/6/6 4/4/4
f 5/5/5 7/7/7 6/6/6
f 7/7/7 8/8/8 6/6/6
f 7/7/7 9/9/9 8/8/8
f 9/9/9 10/10/10 8/8/8
f 9/9/9 11/11/11 10/10/10
f 11/11/11 12/12/12 10/10/10
f 2/2/2 3/3/3 13/13/13
f 14/14/14 2/2/2 13/13/13
f 14/14/14 13/13/13 15/15/15
f 16/16/16 14/14/14 15/15/15
f 16/16/16 15/15/15 17/17/17
f 18/18/18 16/16/16 17/17/17
f 18/18/18 17/17/17 19/19/19
f 20/20/20 18/18/18 19/19/19
f 20/20/20 19/19/19 21/21/21
f 22/22/22 20/20/20 21/21/21
f 23/23/23 21/21/21 19/19/19
f 23/23/23 17/17/17 15/15/15
f 23/23/23 19/19/19 17/17/17
f 23/23/23 15/15/15 13/13/13
f 23/23/23 8/8/8 10/10/10
f 23/23/23 10/10/10 12/12/12
f 23/23/23 13/13/13 3/3/3
f 4/4/4 23/23/23 3/3/3
f 23/23/23 4/4/4 6/6/6
f 23/23/23 6/6/6 8/8/8
f 26/26/26 25/25/25 24/24/24
f 27/27/27 26/26/26 24/24/24
f 28/28/28 24/24/24 25/25/25
f 29/29/29 28/28/28 25/25/25
f 30/30/30 28/28/28 29/29/29
f 31/31/31 30/30/30 29/29/29
f 32/32/32 30/30/30 31/31/31
f 33/33/33 32/32/32 31/31/31
f 34/34/34 32/32/32 33/33/33
f 35/35/35 34/34/34 33/33/33
f 26/26/26 27/27/27 36/36/36
f 27/27/27 37/37/37 36/36/36
f 36/36/36 37/37/37 38/38/38
f 37/37/37 39/39/39 38/38/38
f 38/38/38 39/39/39 40/40/40
f 39/39/39 41/41/41 40/40/40
f 40/40/40 41/41/41 42/42/42
f 41/41/41 43/43/43 42/42/42
f 42/42/42 43/43/43 44/44/44
f 43/43/43 45/45/45 44/44/44
f 44/44/44 46/46/46 42/42/42
f 40/40/40 46/46/46 38/38/38
f 42/42/42 46/46/46 40/40/40
f 38/38/38 46/46/46 36/36/36
f 31/31/31 46/46/46 33/33/33
f 33/33/33 46/46/46 35/35/35
f 36/36/36 46/46/46 26/26/26
f 46/46/46 25/25/25 26/26/26
f 25/25/25 46/46/46 29/29/29
f 29/29/29 46/46/46 31/31/31
