g ShadowCollision
v -5.000012 0.1000004 1.330623
v -3.664038 0.5068574 -1.907349E-06
v -3.552935 0.5205998 0.07098007
v -4.950221 0.1000004 1.450395
v -3.441115 0.5223832 0.1186256
v -4.83002 0.1000004 1.500005
v -3.441115 0.5223832 -0.1186295
v 3.441091 0.5223832 -0.1186295
v 3.392416 0.5371842 -1.907349E-06
v -3.39244 0.5371842 -1.907349E-06
v 3.441091 0.5223832 0.1186256
v -3.441115 0.5223832 0.1186256
v -3.664038 0.5068574 -1.907349E-06
v -5.000003 0.1000004 -1.330617
v -4.950212 0.1000004 -1.450389
v -3.552916 0.5205998 -0.07098389
v -4.830001 0.1000004 -1.5
v -3.441115 0.5223832 -0.1186295
v 3.664012 0.5068574 -1.907349E-06
v 4.999988 0.1000004 1.330623
v 4.950196 0.1000004 1.450395
v 3.55289 0.5205998 0.07098007
v 4.829995 0.1000004 1.500005
v 3.441091 0.5223832 0.1186256
v 3.441091 0.5223832 -0.1186295
v 4.829995 0.1000004 -1.5
v 4.950196 0.1000004 -1.450389
v 3.55289 0.5205998 -0.07098389
v 4.999988 0.1000004 -1.330617
v 3.664012 0.5068574 -1.907349E-06
v -3.664038 0.5068574 -1.907349E-06
v -5.000012 0.1000004 1.330623
v -5.000003 0.1000004 -1.330617
v -3.441115 0.5223832 0.1186256
v 3.441091 0.5223832 0.1186256
v 4.829995 0.1000004 1.500005
v -4.83002 0.1000004 1.500005
v 3.441091 0.5223832 -0.1186295
v -3.441115 0.5223832 -0.1186295
v -4.830001 0.1000004 -1.5
v 4.829995 0.1000004 -1.5
v 3.664012 0.5068574 -1.907349E-06
v 4.999988 0.1000004 -1.330617
v 4.999988 0.1000004 1.330623
v -3.552935 0.5205998 0.07098007
v -3.490525 0.5331597 -1.907349E-06
v -3.39244 0.5371842 -1.907349E-06
v -3.441115 0.5223832 0.1186256
v -3.552916 0.5205998 -0.07098389
v -3.441115 0.5223832 -0.1186295
v -3.664038 0.5068574 -1.907349E-06
v 3.392416 0.5371842 -1.907349E-06
v 3.490501 0.5331597 -1.907349E-06
v 3.55289 0.5205998 0.07098007
v 3.441091 0.5223832 0.1186256
v 3.55289 0.5205998 -0.07098389
v 3.664012 0.5068574 -1.907349E-06
v 3.441091 0.5223832 -0.1186295
vt 0.1808297 0.9980081
vt 0.3133582 0.8649476
vt 0.3062911 0.8538833
vt 0.1688991 0.9930536
vt 0.3015492 0.842743
vt 0.1639597 0.9810773
vt 0.3251825 0.842743
vt 0.3251825 0.1572572
vt 0.3133582 0.1621055
vt 0.3133582 0.8378948
vt 0.3015492 0.1572572
vt 0.3015492 0.842743
vt 0.3133582 0.8649476
vt 0.4458868 0.9980081
vt 0.4578174 0.9930536
vt 0.3204254 0.8538681
vt 0.4627569 0.9810773
vt 0.3251825 0.842743
vt 0.3133582 0.1350526
vt 0.1808297 0.001992102
vt 0.1688991 0.006946725
vt 0.3062911 0.1461321
vt 0.1639597 0.01892293
vt 0.3015492 0.1572572
vt 0.3251825 0.1572572
vt 0.4627569 0.01892293
vt 0.4578174 0.006946725
vt 0.3204254 0.1461321
vt 0.4458868 0.001992102
vt 0.3133582 0.1350526
vt 0.3133582 0.8649476
vt 0.1808297 0.9980081
vt 0.4458868 0.9980081
vt 0.3015492 0.842743
vt 0.3015492 0.1572572
vt 0.1639597 0.01892293
vt 0.1639597 0.9810773
vt 0.3251825 0.1572572
vt 0.3251825 0.842743
vt 0.4627569 0.9810773
vt 0.4627569 0.01892293
vt 0.3133582 0.1350526
vt 0.4458868 0.001992102
vt 0.1808297 0.001992102
vt 0.3062911 0.8538833
vt 0.3133582 0.8476673
vt 0.3133582 0.8378948
vt 0.3015492 0.842743
vt 0.3204254 0.8538681
vt 0.3251825 0.842743
vt 0.3133582 0.8649476
vt 0.3133582 0.1621055
vt 0.3133582 0.152333
vt 0.3062911 0.1461321
vt 0.3015492 0.1572572
vt 0.3204254 0.1461321
vt 0.3133582 0.1350526
vt 0.3251825 0.1572572
vn -0.1985927 0.9747589 0.1020102
vn -0.1985927 0.9747589 0.1020102
vn -0.1380139 0.977283 0.1608418
vn -0.1481103 0.977283 0.1515958
vn -0.09257975 0.9747589 0.2031604
vn -0.09257975 0.9747589 0.2031604
vn -0.0004494786 0.9924277 -0.1228294
vn -0.0004494786 0.9924277 -0.1228294
vn -0.0004494786 0.9999999 0
vn -0.0004494786 0.9999999 0
vn -0.0004494786 0.9924277 0.1228294
vn -0.0004494786 0.9924277 0.1228294
vn -0.1985927 0.9747589 -0.1020102
vn -0.1985927 0.9747589 -0.1020102
vn -0.1481103 0.977283 -0.1515958
vn -0.1380139 0.977283 -0.1608418
vn -0.09257975 0.9747589 -0.2031604
vn -0.09257975 0.9747589 -0.2031604
vn 0.1989558 0.9747589 0.1013001
vn 0.1989558 0.9747589 0.1013001
vn 0.1472114 0.977283 0.1524689
vn 0.1371149 0.977283 0.1616089
vn 0.09294288 0.9747589 0.2029945
vn 0.09294288 0.9747589 0.2029945
vn 0.09294288 0.9747589 -0.2029945
vn 0.09294288 0.9747589 -0.2029945
vn 0.1472114 0.977283 -0.1524689
vn 0.1371149 0.977283 -0.1616089
vn 0.1989558 0.9747589 -0.1013001
vn 0.1989558 0.9747589 -0.1013001
vn -0.2917989 0.9564797 0
vn -0.2917989 0.9564797 0
vn -0.2917989 0.9564797 0
vn -0.0004494786 0.955828 0.2939264
vn -0.0004494786 0.955828 0.2939264
vn -0.0004494786 0.955828 0.2939264
vn -0.0004494786 0.955828 0.2939264
vn -0.0004494786 0.955828 -0.2939264
vn -0.0004494786 0.955828 -0.2939264
vn -0.0004494786 0.955828 -0.2939264
vn -0.0004494786 0.955828 -0.2939264
vn 0.2909767 0.9567302 0
vn 0.2909767 0.9567302 0
vn 0.2909767 0.9567302 0
vn -0.1115106 0.9924277 0.05150384
vn -0.08122122 0.9962138 -0.03100298
vn -0.05344697 0.9985707 0
vn -0.05345592 0.9924277 0.1105882
vn -0.1115106 0.9924277 -0.05150384
vn -0.05345592 0.9924277 -0.1105882
vn -0.1506267 0.9885907 0
vn 0.05255071 0.9986183 0
vn 0.0803223 0.9962138 -0.03326231
vn 0.1118738 0.9924277 0.05071019
vn 0.05255701 0.9924277 0.111018
vn 0.1118738 0.9924277 -0.05071019
vn 0.1497355 0.9886415 -0.01293254
vn 0.05255701 0.9924277 -0.111018
g ShadowCollision_0
f 3/3/3 2/2/2 1/1/1
f 4/4/4 3/3/3 1/1/1
f 5/5/5 3/3/3 4/4/4
f 6/6/6 5/5/5 4/4/4
f 9/9/9 8/8/8 7/7/7
f 10/10/10 9/9/9 7/7/7
f 11/11/11 9/9/9 10/10/10
f 12/12/12 11/11/11 10/10/10
f 15/15/15 14/14/14 13/13/13
f 16/16/16 15/15/15 13/13/13
f 17/17/17 15/15/15 16/16/16
f 18/18/18 17/17/17 16/16/16
f 21/21/21 20/20/20 19/19/19
f 22/22/22 21/21/21 19/19/19
f 23/23/23 21/21/21 22/22/22
f 24/24/24 23/23/23 22/22/22
f 27/27/27 26/26/26 25/25/25
f 28/28/28 27/27/27 25/25/25
f 29/29/29 27/27/27 28/28/28
f 30/30/30 29/29/29 28/28/28
f 33/33/33 32/32/32 31/31/31
f 36/36/36 35/35/35 34/34/34
f 37/37/37 36/36/36 34/34/34
f 40/40/40 39/39/39 38/38/38
f 41/41/41 40/40/40 38/38/38
f 44/44/44 43/43/43 42/42/42
f 47/47/47 46/46/46 45/45/45
f 48/48/48 47/47/47 45/45/45
f 49/49/49 46/46/46 47/47/47
f 45/45/45 46/46/46 49/49/49
f 50/50/50 49/49/49 47/47/47
f 51/51/51 45/45/45 49/49/49
f 54/54/54 53/53/53 52/52/52
f 55/55/55 54/54/54 52/52/52
f 56/56/56 53/53/53 54/54/54
f 52/52/52 53/53/53 56/56/56
f 57/57/57 56/56/56 54/54/54
f 58/58/58 52/52/52 56/56/56
