g ShadowCollision
v -7.383083 0.4574623 9.072437
v -6.233829 0.4646492 9.069313
v -6.202271 1.259598 15.32537
v -7.351524 1.258869 15.341
v 7.346004 1.268448 15.14114
v 6.196857 1.267719 15.15676
v 6.16634 0.5424461 9.034527
v 7.315594 0.549633 9.0313
v 6.059799 1.373531 15.14062
v 7.445881 1.374367 15.12177
v 7.4865 1.559536 16.47078
v 6.100937 1.563393 16.50139
v -7.40641 1.601612 16.79978
v -7.451817 1.364681 15.32423
v -6.065842 1.365513 15.30538
v -6.020847 1.597759 16.76915
v -6.206856 1.279072 15.45066
v 6.208103 1.28376 15.27351
v 6.242577 1.441124 16.401
v -6.169048 1.472473 16.66605
v -7.309868 1.475388 16.69053
v -6.16103 1.472473 16.66594
v -5.962318 2.489563 23.05698
v -7.109592 2.510078 23.12436
v 7.563255 2.248257 22.26255
v 6.415981 2.268669 22.32994
v 6.234558 1.441124 16.4011
v 7.383396 1.438206 16.37663
v 6.278194 2.376461 22.31681
v 7.66188 2.351673 22.23548
v 7.799873 2.527992 23.45388
v 6.42046 2.56361 23.56897
v -7.026173 2.910732 24.69052
v -7.21072 2.617142 23.10906
v -5.827034 2.592461 23.02782
v -5.646755 2.875111 24.57544
v -5.956696 2.513309 23.18904
v 6.434727 2.2845 22.43794
v 6.554184 2.438843 23.472
v -5.804642 2.749409 24.4765
v -6.94067 2.777943 24.56877
v -5.796623 2.749199 24.47587
v -4.997196 3.990208 31.24485
v -6.125309 4.058735 31.46117
v 8.302174 3.18203 28.69473
v 7.174061 3.250664 28.91105
v 6.546162 2.439053 23.47263
v 7.690208 2.410309 23.37963
v -5.691746 4.516041 32.93911
v -4.575718 4.428452 32.68406
v -2.539345 6.536583 39.54552
v -3.596848 6.716339 39.98668
v 9.927792 4.417725 34.34497
v 8.870186 4.597485 34.78614
v 7.465252 3.483013 29.93219
v 8.581284 3.395428 29.67714
v 8.750313 4.723186 34.8079
v 10.02569 4.506458 34.27582
v 10.46966 4.765781 35.17231
v 9.242718 5.009796 35.76741
v -2.718475 7.388809 41.56866
v -3.683079 6.836315 39.99428
v -2.407703 6.619587 39.46231
v -1.491425 7.144794 40.97357
v -2.478733 6.581989 39.67997
v 8.915386 4.61977 34.86852
v 9.322388 4.855766 35.65618
v -1.705757 7.020863 40.93816
v -2.719311 7.21978 41.42369
v -1.698574 7.019402 40.93473
v 0.2999916 8.172821 44.36478
v -0.6316986 8.422668 44.9683
v 1.701176 9.625454 48.26745
v 2.543823 9.326241 47.54947
v 12.3443 5.799225 38.86138
v 11.50165 6.098335 39.57936
v 10.28574 5.477726 37.74212
v 11.21754 5.227985 37.13859
v 10.33615 4.656742 35.17065
v 9.315308 4.857121 35.65951
v 11.41083 6.238308 39.62831
v 12.4272 5.877441 38.76234
v 13.14768 6.041679 39.61394
v 12.19735 6.424 40.53126
v 2.933331 10.15087 49.47409
v 1.637337 9.755741 48.29348
v 2.653698 9.394978 47.42751
v 3.883663 9.768551 48.55677
v 2.645367 9.36488 47.66267
v 11.56861 6.114895 39.64008
v 12.21807 6.264343 40.41566
v 3.655064 9.672527 48.59395
v 2.867928 9.985802 49.34557
v 3.660583 9.670341 48.58854
v 9.90696 11.28721 53.48393
v 9.354778 11.67963 54.42541
v 16.416 6.660515 42.38568
v 15.86392 7.052937 43.32707
v 12.21255 6.266529 40.42097
v 13.0051 5.951073 39.66393
v 19.55184 13.44793 58.09021
v 19.8095 12.9649 57.04385
v 26.79406 13.6858 58.24528
v 26.68721 14.19758 59.29123
v 28.05371 7.652611 45.91426
v 27.94686 8.164387 46.96021
v 22.58989 7.753323 45.75502
v 22.84765 7.270397 44.70877
v 27.9304 8.330395 47.04311
v 28.05923 7.71312 45.78158
v 29.3596 7.781231 45.79846
v 29.25587 8.40361 47.0654
v 28.24419 14.47044 59.41599
v 26.67419 14.34724 59.34069
v 26.80302 13.73006 58.07927
v 28.34803 13.84806 58.14905
v 26.9282 13.70163 58.26767
v 28.05673 8.167927 46.96594
v 29.15787 8.227501 46.97604
v 28.20983 13.79818 58.32006
v 28.12266 14.31026 59.36267
v 28.21045 13.79453 58.31266
v 34.9485 14.30214 58.58772
v 34.94861 14.83579 59.65834
v 34.94757 8.01046 45.96561
v 34.94767 8.544106 47.03633
v 29.15724 8.231041 46.98333
v 29.24504 7.715412 45.93332
v 34.94069 8.712093 47.10882
v 34.94069 8.068466 45.81752
v 36.26304 8.128353 45.76711
v 36.27085 8.773849 47.05769
v 36.34656 15.0671 59.63845
v 34.94163 14.9868 59.69667
v 34.94152 14.34307 58.40535
v 36.33875 14.42149 58.34787
v 35.07536 14.31443 58.59615
v 35.06129 8.546082 47.02748
v 36.16316 8.596699 46.98249
v 36.22752 14.37785 58.54314
v 36.23346 14.90921 59.60575
v 36.22752 14.3741 58.53564
v 42.28592 14.70779 58.25674
v 42.31633 15.24914 59.32299
v 41.92661 8.325085 45.68681
v 41.95713 8.866436 46.75306
v 36.16316 8.600449 46.98999
v 36.15723 8.065342 45.91979
v 49.37744 17.8755 57.56083
v 49.50846 17.86634 57.68185
v 39.66841 15.01304 59.24363
v 39.73423 15.07928 59.09147
v 49.2031 11.25149 44.36071
v 49.37744 17.8755 57.56083
v 39.73423 15.07928 59.09147
v 39.55978 8.455269 45.89125
v 49.50846 17.86634 57.68185
v 49.37744 17.8755 57.56083
v 49.2031 11.25149 44.36071
v 49.33162 11.14766 44.29303
v 39.73423 15.07928 59.09147
v 39.66841 15.01304 59.24363
v 39.49157 8.294361 45.8548
v 39.55978 8.455269 45.89125
v 49.33162 11.14766 44.29303
v 49.2031 11.25149 44.36071
v 39.55978 8.455269 45.89125
v 39.49157 8.294361 45.8548
v 18.33166 15.52325 57.37931
v 18.39488 15.51086 57.54375
v 9.383522 11.64954 54.18306
v 9.500584 11.7392 54.08589
v 24.82632 10.60547 45.61495
v 18.33166 15.52325 57.37931
v 9.500584 11.7392 54.08589
v 15.99525 6.821423 42.32143
v 24.98233 10.52278 45.61131
v 18.39488 15.51086 57.54375
v 18.33166 15.52325 57.37931
v 24.82632 10.60547 45.61495
v 9.500584 11.7392 54.08589
v 9.383522 11.64954 54.18306
v 15.97108 6.661453 42.25061
v 15.99525 6.821423 42.32143
v 15.97108 6.661453 42.25061
v 24.98233 10.52278 45.61131
v 24.82632 10.60547 45.61495
v 15.99525 6.821423 42.32143
v -3.903973 8.314671 37.17379
v -3.973125 8.278946 37.33147
v -6.308605 3.531441 28.41999
v -6.192692 3.662144 28.44051
v 9.843952 7.54607 33.98036
v -3.903973 8.314671 37.17379
v -6.192692 3.662144 28.44051
v 7.555237 2.893547 25.24707
v 9.971218 7.49931 34.09242
v -3.973125 8.278946 37.33147
v -3.903973 8.314671 37.17379
v 9.843952 7.54607 33.98036
v -6.192692 3.662144 28.44051
v -6.308605 3.531441 28.41999
v 7.635845 2.751907 25.18094
v 7.555237 2.893547 25.24707
v 7.635845 2.751907 25.18094
v 9.971218 7.49931 34.09242
v 9.843952 7.54607 33.98036
v 7.555237 2.893547 25.24707
v -7.203533 2.984467 10.03329
v -7.305805 2.916874 10.16045
v -7.305805 0.06024933 0.1981392
v -7.203533 0.1849098 0.2702065
v 7.106155 2.984467 10.03329
v -7.203533 2.984467 10.03329
v -7.203533 0.1849098 0.2702065
v 7.106155 0.1849098 0.2702065
v -7.305805 2.916874 10.16045
v -7.203533 2.984467 10.03329
v 7.106155 2.984467 10.03329
v 7.208324 2.916874 10.16045
v -7.203533 0.1849098 0.2702065
v -7.305805 0.06024933 0.1981392
v 7.208324 0.06024933 0.1981392
v 7.106155 0.1849098 0.2702065
v 7.208324 2.916874 10.16045
v 7.106155 2.984467 10.03329
v 7.106155 0.1849098 0.2702065
v 7.208324 0.06024933 0.1981392
vt 0.2532082 0.8010986
vt 0.3430533 0.8010986
vt 0.3430533 0.1985046
vt 0.2532082 0.1985046
vt 0.2532082 0.1985046
vt 0.3430533 0.1985046
vt 0.3430533 0.8010986
vt 0.2532082 0.8010986
vt 0.4972152 0.6657816
vt 0.4972152 0.8264897
vt 0.3457847 0.8264897
vt 0.3457847 0.6657816
vt 0.3457847 0.8264897
vt 0.4972152 0.8264897
vt 0.4972152 0.6657816
vt 0.3457847 0.6657816
vt 0.3422599 0.9944763
vt 0.3422599 0.005127031
vt 0.2539101 0.005127031
vt 0.2539101 0.9944763
vt 0.2532082 0.8010986
vt 0.3430533 0.8010986
vt 0.3430533 0.1985046
vt 0.2532082 0.1985046
vt 0.2532082 0.1985046
vt 0.3430533 0.1985046
vt 0.3430533 0.8010986
vt 0.2532082 0.8010986
vt 0.4972152 0.6657816
vt 0.4972152 0.8264897
vt 0.3457847 0.8264897
vt 0.3457847 0.6657816
vt 0.3457847 0.8264897
vt 0.4972152 0.8264897
vt 0.4972152 0.6657816
vt 0.3457847 0.6657816
vt 0.3422599 0.9944763
vt 0.3422599 0.005127031
vt 0.2539101 0.005127031
vt 0.2539101 0.9944763
vt 0.2532082 0.8010986
vt 0.3430533 0.8010986
vt 0.3430533 0.1985046
vt 0.2532082 0.1985046
vt 0.2532082 0.1985046
vt 0.3430533 0.1985046
vt 0.3430533 0.8010986
vt 0.2532082 0.8010986
vt 0.2532082 0.8010986
vt 0.3430533 0.8010986
vt 0.3430533 0.1985046
vt 0.2532082 0.1985046
vt 0.2532082 0.1985046
vt 0.3430533 0.1985046
vt 0.3430533 0.8010986
vt 0.2532082 0.8010986
vt 0.4972152 0.6657816
vt 0.4972152 0.8264897
vt 0.3457847 0.8264897
vt 0.3457847 0.6657816
vt 0.3457847 0.8264897
vt 0.4972152 0.8264897
vt 0.4972152 0.6657816
vt 0.3457847 0.6657816
vt 0.3422599 0.9944763
vt 0.3422599 0.005127031
vt 0.2539101 0.005127031
vt 0.2539101 0.9944763
vt 0.2532082 0.8010986
vt 0.3430533 0.8010986
vt 0.3430533 0.4998093
vt 0.2532082 0.4998093
vt 0.2532082 0.1985046
vt 0.3430533 0.1985046
vt 0.2532082 0.1985046
vt 0.3430533 0.1985046
vt 0.3430533 0.4998093
vt 0.2532082 0.4998093
vt 0.2532082 0.8010986
vt 0.3430533 0.8010986
vt 0.4972152 0.6657816
vt 0.4972152 0.8264897
vt 0.3457847 0.8264897
vt 0.3457847 0.6657816
vt 0.3457847 0.8264897
vt 0.4972152 0.8264897
vt 0.4972152 0.6657816
vt 0.3457847 0.6657816
vt 0.3422599 0.9944763
vt 0.3422599 0.005127031
vt 0.2539101 0.005127031
vt 0.2539101 0.9944763
vt 0.2532082 0.8010986
vt 0.3430533 0.8010986
vt 0.3430533 0.1985046
vt 0.2532082 0.1985046
vt 0.2532082 0.1985046
vt 0.3430533 0.1985046
vt 0.3430533 0.8010986
vt 0.2532082 0.8010986
vt 0.2532082 0.8010986
vt 0.3430533 0.8010986
vt 0.3430533 0.1985046
vt 0.2532082 0.1985046
vt 0.2532082 0.1985046
vt 0.3430533 0.1985046
vt 0.3430533 0.8010986
vt 0.2532082 0.8010986
vt 0.4972152 0.6657816
vt 0.4972152 0.8264897
vt 0.3457847 0.8264897
vt 0.3457847 0.6657816
vt 0.3457847 0.8264897
vt 0.4972152 0.8264897
vt 0.4972152 0.6657816
vt 0.3457847 0.6657816
vt 0.3422599 0.9944763
vt 0.3422599 0.005127031
vt 0.2539101 0.005127031
vt 0.2539101 0.9944763
vt 0.2532082 0.8010986
vt 0.3430533 0.8010986
vt 0.3430533 0.1985046
vt 0.2532082 0.1985046
vt 0.2532082 0.1985046
vt 0.3430533 0.1985046
vt 0.3430533 0.8010986
vt 0.2532082 0.8010986
vt 0.4972152 0.6657816
vt 0.4972152 0.8264897
vt 0.3457847 0.8264897
vt 0.3457847 0.6657816
vt 0.3457847 0.8264897
vt 0.4972152 0.8264897
vt 0.4972152 0.6657816
vt 0.3457847 0.6657816
vt 0.3422599 0.9944763
vt 0.3422599 0.005127031
vt 0.2539101 0.005127031
vt 0.2539101 0.9944763
vt 0.2532082 0.8010986
vt 0.3430533 0.8010986
vt 0.3430533 0.1985046
vt 0.2532082 0.1985046
vt 0.2532082 0.1985046
vt 0.3430533 0.1985046
vt 0.3430533 0.8010986
vt 0.2532082 0.8010986
vt 0.7268177 0.3108873
vt 0.7268177 0.3294728
vt 0.7454032 0.3294728
vt 0.7454032 0.3108873
vt 0.2482185 0.9978485
vt 0.2482185 0.9978485
vt 0.2482185 0.003784237
vt 0.2482185 0.003784237
vt 0.7454032 0.3294728
vt 0.7454032 0.3108873
vt 0.7454032 0.3108873
vt 0.7454032 0.3294728
vt 0.7268177 0.3108873
vt 0.7268177 0.3294728
vt 0.7268177 0.3294728
vt 0.7268177 0.3108873
vt 0.7268177 0.3294728
vt 0.7268177 0.3108873
vt 0.7454032 0.3108873
vt 0.7454032 0.3294728
vt 0.7268177 0.3108873
vt 0.7268177 0.3294728
vt 0.7454032 0.3294728
vt 0.7454032 0.3108873
vt 0.2482185 0.9978485
vt 0.2482185 0.9978485
vt 0.2482185 0.003784237
vt 0.2482185 0.003784237
vt 0.7454032 0.3294728
vt 0.7454032 0.3294728
vt 0.7454032 0.3108873
vt 0.7454032 0.3108873
vt 0.7268177 0.3108873
vt 0.7268177 0.3294728
vt 0.7268177 0.3294728
vt 0.7268177 0.3108873
vt 0.7454032 0.3294728
vt 0.7268177 0.3294728
vt 0.7268177 0.3108873
vt 0.7454032 0.3108873
vt 0.7268177 0.3108873
vt 0.7268177 0.3294728
vt 0.7454032 0.3294728
vt 0.7454032 0.3108873
vt 0.2482185 0.9978485
vt 0.2482185 0.9978485
vt 0.2482185 0.003784237
vt 0.2482185 0.003784237
vt 0.7454032 0.3294728
vt 0.7454032 0.3294728
vt 0.7454032 0.3108873
vt 0.7454032 0.3108873
vt 0.7268177 0.3108873
vt 0.7268177 0.3294728
vt 0.7268177 0.3294728
vt 0.7268177 0.3108873
vt 0.7454032 0.3294728
vt 0.7268177 0.3294728
vt 0.7268177 0.3108873
vt 0.7454032 0.3108873
vt 0.7268177 0.3108873
vt 0.7268177 0.3294728
vt 0.7454032 0.3294728
vt 0.7454032 0.3108873
vt 0.2482185 0.9978485
vt 0.2482185 0.9978485
vt 0.2482185 0.003784237
vt 0.2482185 0.003784237
vt 0.7454032 0.3294728
vt 0.7454032 0.3108873
vt 0.7454032 0.3108873
vt 0.7454032 0.3294728
vt 0.7268177 0.3108873
vt 0.7268177 0.3294728
vt 0.7268177 0.3294728
vt 0.7268177 0.3108873
vt 0.7268177 0.3294728
vt 0.7268177 0.3108873
vt 0.7454032 0.3108873
vt 0.7454032 0.3294728
vn -0.003855407 0.9914425 -0.1304872
vn -0.003855407 0.9914425 -0.1304872
vn -0.003855407 0.9914425 -0.1304872
vn -0.003855407 0.9914425 -0.1304872
vn -0.003855407 0.9930968 -0.1172345
vn -0.003855407 0.9930968 -0.1172345
vn -0.003855407 0.9930968 -0.1172345
vn -0.003855407 0.9930968 -0.1172345
vn -0.0005468726 0.9897884 -0.1425438
vn -0.0005468726 0.9897884 -0.1425438
vn -0.0005468726 0.9897884 -0.1425438
vn -0.0005468726 0.9897884 -0.1425438
vn -0.00220114 0.9881341 -0.153578
vn -0.00220114 0.9881341 -0.153578
vn -0.00220114 0.9881341 -0.153578
vn -0.00220114 0.9881341 -0.153578
vn -0.00220114 0.9897884 -0.142528
vn -0.00220114 0.9897884 -0.142528
vn -0.00220114 0.9897884 -0.142528
vn -0.00220114 0.9897884 -0.142528
vn 0.00441587 0.9881341 -0.1535303
vn 0.00441587 0.9881341 -0.1535303
vn 0.00441587 0.9881341 -0.1535303
vn 0.00441587 0.9881341 -0.1535303
vn 0.00441587 0.9897884 -0.1424765
vn 0.00441587 0.9897884 -0.1424765
vn 0.00441587 0.9897884 -0.1424765
vn 0.00441587 0.9897884 -0.1424765
vn 0.01103288 0.9897884 -0.1421173
vn 0.01103288 0.9897884 -0.1421173
vn 0.01103288 0.9897884 -0.1421173
vn 0.01103288 0.9897884 -0.1421173
vn 0.007724345 0.9831713 -0.1825228
vn 0.007724345 0.9831713 -0.1825228
vn 0.007724345 0.9831713 -0.1825228
vn 0.007724345 0.9831713 -0.1825228
vn 0.009378612 0.9864798 -0.1636141
vn 0.009378612 0.9864798 -0.1636141
vn 0.009378612 0.9864798 -0.1636141
vn 0.009378612 0.9864798 -0.1636141
vn 0.01764989 0.9831713 -0.1818317
vn 0.01764989 0.9831713 -0.1818317
vn 0.01764989 0.9831713 -0.1818317
vn 0.01764989 0.9831713 -0.1818317
vn 0.02261263 0.9881341 -0.15192
vn 0.02261263 0.9881341 -0.15192
vn 0.02261263 0.9881341 -0.15192
vn 0.02261263 0.9881341 -0.15192
vn 0.02095836 0.9533948 -0.3009968
vn 0.02095836 0.9533948 -0.3009968
vn 0.02095836 0.9533948 -0.3009968
vn 0.02095836 0.9533948 -0.3009968
vn 0.04577214 0.9715915 -0.2321956
vn 0.04577214 0.9715915 -0.2321956
vn 0.04577214 0.9715915 -0.2321956
vn 0.04577214 0.9715915 -0.2321956
vn 0.04080933 0.9533948 -0.298953
vn 0.04080933 0.9533948 -0.298953
vn 0.04080933 0.9533948 -0.298953
vn 0.04080933 0.9533948 -0.298953
vn 0.0193041 0.9401608 -0.3401837
vn 0.0193041 0.9401608 -0.3401837
vn 0.0193041 0.9401608 -0.3401837
vn 0.0193041 0.9401608 -0.3401837
vn 0.02592111 0.9451236 -0.3256831
vn 0.02592111 0.9451236 -0.3256831
vn 0.02592111 0.9451236 -0.3256831
vn 0.02592111 0.9451236 -0.3256831
vn 0.02922964 0.9418151 -0.3348581
vn 0.02922964 0.9418151 -0.3348581
vn 0.02592111 0.9385065 -0.344287
vn 0.02592111 0.9385065 -0.344287
vn 0.02426684 0.9335439 -0.3576409
vn 0.02426684 0.9335439 -0.3576409
vn 0.03750086 0.9401608 -0.3386611
vn 0.03750086 0.9401608 -0.3386611
vn 0.04411787 0.9451236 -0.3237205
vn 0.04411787 0.9467778 -0.3188503
vn 0.05073488 0.9517406 -0.3026811
vn 0.05073488 0.9517406 -0.3026811
vn 0.1053251 0.9533948 -0.2827453
vn 0.1053251 0.9533948 -0.2827453
vn 0.1053251 0.9533948 -0.2827453
vn 0.1053251 0.9533948 -0.2827453
vn 0.03584659 0.935198 -0.3523062
vn 0.03584659 0.935198 -0.3523062
vn 0.03584659 0.935198 -0.3523062
vn 0.03584659 0.935198 -0.3523062
vn 0.0656231 0.9467778 -0.3151278
vn 0.0656231 0.9467778 -0.3151278
vn 0.0656231 0.9467778 -0.3151278
vn 0.0656231 0.9467778 -0.3151278
vn 0.03750086 0.9335439 -0.3564962
vn 0.03750086 0.9335439 -0.3564962
vn 0.03750086 0.9335439 -0.3564962
vn 0.03750086 0.9335439 -0.3564962
vn 0.06893164 0.9385065 -0.3383104
vn 0.06893164 0.9385065 -0.3383104
vn 0.06893164 0.9385065 -0.3383104
vn 0.06893164 0.9385065 -0.3383104
vn -0.0203979 0.902113 -0.4310174
vn -0.0203979 0.902113 -0.4310174
vn -0.0203979 0.902113 -0.4310174
vn -0.0203979 0.902113 -0.4310174
vn 0.02922964 0.9054216 -0.4235061
vn 0.02922964 0.9054216 -0.4235061
vn 0.02922964 0.9054216 -0.4235061
vn 0.02922964 0.9054216 -0.4235061
vn -0.04190314 0.8954961 -0.4430924
vn -0.04190314 0.8954961 -0.4430924
vn -0.04190314 0.8954961 -0.4430924
vn -0.04190314 0.8954961 -0.4430924
vn -0.04852015 0.8954961 -0.4424168
vn -0.04852015 0.8954961 -0.4424168
vn -0.04852015 0.8954961 -0.4424168
vn -0.04852015 0.8954961 -0.4424168
vn -0.04686588 0.8954961 -0.442595
vn -0.04686588 0.8954961 -0.442595
vn -0.04686588 0.8954961 -0.442595
vn -0.04686588 0.8954961 -0.442595
vn -0.05017436 0.8938418 -0.4455663
vn -0.05017436 0.8938418 -0.4455663
vn -0.05017436 0.8938418 -0.4455663
vn -0.05017436 0.8938418 -0.4455663
vn -0.04355741 0.8954961 -0.4429329
vn -0.04355741 0.8954961 -0.4429329
vn -0.04355741 0.8954961 -0.4429329
vn -0.04355741 0.8954961 -0.4429329
vn -0.05844563 0.8938418 -0.444557
vn -0.05844563 0.8938418 -0.444557
vn -0.05844563 0.8938418 -0.444557
vn -0.05844563 0.8938418 -0.444557
vn -0.06837112 0.8921875 -0.4464603
vn -0.06837112 0.8921875 -0.4464603
vn -0.06837112 0.8921875 -0.4464603
vn -0.06837112 0.8921875 -0.4464603
vn -0.06506264 0.8921875 -0.4469545
vn -0.06506264 0.8921875 -0.4469545
vn -0.06506264 0.8921875 -0.4469545
vn -0.06506264 0.8921875 -0.4469545
vn -0.07002538 0.8905333 -0.4494963
vn -0.07002538 0.8905333 -0.4494963
vn -0.07002538 0.8905333 -0.4494963
vn -0.07002538 0.8905333 -0.4494963
vn -0.05844563 0.8921875 -0.4478678
vn -0.05844563 0.8921875 -0.4478678
vn -0.05844563 0.8921875 -0.4478678
vn -0.05844563 0.8921875 -0.4478678
vn -0.2189079 0.9252725 0.3097582
vn -0.2189079 0.9252725 0.3097582
vn -0.2189079 0.9252725 0.3097582
vn -0.2189079 0.9252725 0.3097582
vn -0.3132001 0.8508313 -0.4218907
vn -0.3132001 0.8508313 -0.4218907
vn -0.3132001 0.8508313 -0.4218907
vn -0.3132001 0.8508313 -0.4218907
vn 0.4328666 0.8028581 -0.4099335
vn 0.4328666 0.8028581 -0.4099335
vn 0.4328666 0.8028581 -0.4099335
vn 0.4328666 0.8028581 -0.4099335
vn -0.8855706 0.4207264 -0.1968606
vn -0.8855706 0.4207264 -0.1968606
vn -0.8855706 0.4207264 -0.1968606
vn -0.8855706 0.4207264 -0.1968606
vn -0.2354504 0.3082374 -0.9217119
vn -0.2354504 0.3082374 -0.9217119
vn -0.2354504 0.3082374 -0.9217119
vn -0.2354504 0.3082374 -0.9217119
vn -0.4571199 0.855794 0.2421943
vn -0.4571199 0.855794 0.2421943
vn -0.4571199 0.855794 0.2421943
vn -0.4571199 0.855794 0.2421943
vn -0.1940941 0.8624111 -0.4675196
vn -0.1940941 0.8624111 -0.4675196
vn -0.1940941 0.8624111 -0.4675196
vn -0.1940941 0.8624111 -0.4675196
vn 0.4642973 0.8789535 -0.1089436
vn 0.4642973 0.8789535 -0.1089436
vn 0.4642973 0.8789535 -0.1089436
vn 0.4642973 0.8789535 -0.1089436
vn -0.743305 0.3611733 -0.5630732
vn -0.743305 0.3611733 -0.5630732
vn -0.743305 0.3611733 -0.5630732
vn -0.743305 0.3611733 -0.5630732
vn 0.1781121 0.3760616 -0.909315
vn 0.1781121 0.3760616 -0.909315
vn 0.1781121 0.3760616 -0.909315
vn 0.1781121 0.3760616 -0.909315
vn -0.7251083 0.6688638 -0.1638264
vn -0.7251083 0.6688638 -0.1638264
vn -0.7251083 0.6688638 -0.1638264
vn -0.7251083 0.6688638 -0.1638264
vn -0.05679137 0.8872249 -0.4578283
vn -0.05679137 0.8872249 -0.4578283
vn -0.05679137 0.8872249 -0.4578283
vn -0.05679137 0.8872249 -0.4578283
vn 0.1152506 0.9567032 0.2672755
vn 0.1152506 0.9567032 0.2672755
vn 0.1152506 0.9567032 0.2672755
vn 0.1152506 0.9567032 0.2672755
vn -0.1974026 0.3198171 -0.9266872
vn -0.1974026 0.3198171 -0.9266872
vn -0.1974026 0.3198171 -0.9266872
vn -0.1974026 0.3198171 -0.9266872
vn 0.6446106 0.5927684 -0.4828073
vn 0.6446106 0.5927684 -0.4828073
vn 0.6446106 0.5927684 -0.4828073
vn 0.6446106 0.5927684 -0.4828073
vn -0.6986403 0.6870605 -0.1996235
vn -0.6986403 0.6870605 -0.1996235
vn -0.6986403 0.6870605 -0.1996235
vn -0.6986403 0.6870605 -0.1996235
vn -0.0005468726 0.961666 -0.2742227
vn -0.0005468726 0.961666 -0.2742227
vn -0.0005468726 0.961666 -0.2742227
vn -0.0005468726 0.961666 -0.2742227
vn -0.0005468726 0.8839163 0.4676448
vn -0.0005468726 0.8839163 0.4676448
vn -0.0005468726 0.8839163 0.4676448
vn -0.0005468726 0.8839163 0.4676448
vn -0.0005468726 0.5001304 -0.86595
vn -0.0005468726 0.5001304 -0.86595
vn -0.0005468726 0.5001304 -0.86595
vn -0.0005468726 0.5001304 -0.86595
vn 0.6992008 0.6870605 -0.1976513
vn 0.6992008 0.6870605 -0.1976513
vn 0.6992008 0.6870605 -0.1976513
vn 0.6992008 0.6870605 -0.1976513
g ShadowCollision_0
f 3/3/3 2/2/2 1/1/1
f 4/4/4 3/3/3 1/1/1
f 7/7/7 6/6/6 5/5/5
f 8/8/8 7/7/7 5/5/5
f 11/11/11 10/10/10 9/9/9
f 12/12/12 11/11/11 9/9/9
f 15/15/15 14/14/14 13/13/13
f 16/16/16 15/15/15 13/13/13
f 19/19/19 18/18/18 17/17/17
f 20/20/20 19/19/19 17/17/17
f 23/23/23 22/22/22 21/21/21
f 24/24/24 23/23/23 21/21/21
f 27/27/27 26/26/26 25/25/25
f 28/28/28 27/27/27 25/25/25
f 31/31/31 30/30/30 29/29/29
f 32/32/32 31/31/31 29/29/29
f 35/35/35 34/34/34 33/33/33
f 36/36/36 35/35/35 33/33/33
f 39/39/39 38/38/38 37/37/37
f 40/40/40 39/39/39 37/37/37
f 43/43/43 42/42/42 41/41/41
f 44/44/44 43/43/43 41/41/41
f 47/47/47 46/46/46 45/45/45
f 48/48/48 47/47/47 45/45/45
f 51/51/51 50/50/50 49/49/49
f 52/52/52 51/51/51 49/49/49
f 55/55/55 54/54/54 53/53/53
f 56/56/56 55/55/55 53/53/53
f 59/59/59 58/58/58 57/57/57
f 60/60/60 59/59/59 57/57/57
f 63/63/63 62/62/62 61/61/61
f 64/64/64 63/63/63 61/61/61
f 67/67/67 66/66/66 65/65/65
f 68/68/68 67/67/67 65/65/65
f 71/71/71 70/70/70 69/69/69
f 72/72/72 71/71/71 69/69/69
f 72/72/72 73/73/73 71/71/71
f 73/73/73 74/74/74 71/71/71
f 77/77/77 76/76/76 75/75/75
f 78/78/78 77/77/77 75/75/75
f 78/78/78 79/79/79 77/77/77
f 79/79/79 80/80/80 77/77/77
f 83/83/83 82/82/82 81/81/81
f 84/84/84 83/83/83 81/81/81
f 87/87/87 86/86/86 85/85/85
f 88/88/88 87/87/87 85/85/85
f 91/91/91 90/90/90 89/89/89
f 92/92/92 91/91/91 89/89/89
f 95/95/95 94/94/94 93/93/93
f 96/96/96 95/95/95 93/93/93
f 99/99/99 98/98/98 97/97/97
f 100/100/100 99/99/99 97/97/97
f 103/103/103 102/102/102 101/101/101
f 104/104/104 103/103/103 101/101/101
f 107/107/107 106/106/106 105/105/105
f 108/108/108 107/107/107 105/105/105
f 111/111/111 110/110/110 109/109/109
f 112/112/112 111/111/111 109/109/109
f 115/115/115 114/114/114 113/113/113
f 116/116/116 115/115/115 113/113/113
f 119/119/119 118/118/118 117/117/117
f 120/120/120 119/119/119 117/117/117
f 123/123/123 122/122/122 121/121/121
f 124/124/124 123/123/123 121/121/121
f 127/127/127 126/126/126 125/125/125
f 128/128/128 127/127/127 125/125/125
f 131/131/131 130/130/130 129/129/129
f 132/132/132 131/131/131 129/129/129
f 135/135/135 134/134/134 133/133/133
f 136/136/136 135/135/135 133/133/133
f 139/139/139 138/138/138 137/137/137
f 140/140/140 139/139/139 137/137/137
f 143/143/143 142/142/142 141/141/141
f 144/144/144 143/143/143 141/141/141
f 147/147/147 146/146/146 145/145/145
f 148/148/148 147/147/147 145/145/145
f 151/151/151 150/150/150 149/149/149
f 152/152/152 151/151/151 149/149/149
f 155/155/155 154/154/154 153/153/153
f 156/156/156 155/155/155 153/153/153
f 159/159/159 158/158/158 157/157/157
f 160/160/160 159/159/159 157/157/157
f 163/163/163 162/162/162 161/161/161
f 164/164/164 163/163/163 161/161/161
f 167/167/167 166/166/166 165/165/165
f 168/168/168 167/167/167 165/165/165
f 171/171/171 170/170/170 169/169/169
f 172/172/172 171/171/171 169/169/169
f 175/175/175 174/174/174 173/173/173
f 176/176/176 175/175/175 173/173/173
f 179/179/179 178/178/178 177/177/177
f 180/180/180 179/179/179 177/177/177
f 183/183/183 182/182/182 181/181/181
f 184/184/184 183/183/183 181/181/181
f 187/187/187 186/186/186 185/185/185
f 188/188/188 187/187/187 185/185/185
f 191/191/191 190/190/190 189/189/189
f 192/192/192 191/191/191 189/189/189
f 195/195/195 194/194/194 193/193/193
f 196/196/196 195/195/195 193/193/193
f 199/199/199 198/198/198 197/197/197
f 200/200/200 199/199/199 197/197/197
f 203/203/203 202/202/202 201/201/201
f 204/204/204 203/203/203 201/201/201
f 207/207/207 206/206/206 205/205/205
f 208/208/208 207/207/207 205/205/205
f 211/211/211 210/210/210 209/209/209
f 212/212/212 211/211/211 209/209/209
f 215/215/215 214/214/214 213/213/213
f 216/216/216 215/215/215 213/213/213
f 219/219/219 218/218/218 217/217/217
f 220/220/220 219/219/219 217/217/217
f 223/223/223 222/222/222 221/221/221
f 224/224/224 223/223/223 221/221/221
f 227/227/227 226/226/226 225/225/225
f 228/228/228 227/227/227 225/225/225
