g ShadowCollision
v -7.999999 1.637902 -3.307491
v -7.999999 1.624215 -4.665997
v 8 1.624215 -4.692944
v 8 1.637902 -3.307491
v 8 0.006141186 0.0006785393
v -7.999999 0.05022383 -0.000679493
v -7.999999 1.637902 -3.307491
v 8 1.637902 -3.307491
v -7.999999 1.624215 -4.665997
v -7.999999 -0.02843523 -5.498776
v 8 -0.02843523 -5.498776
v 8 1.624215 -4.692944
vt 0 0.2823203
vt 0 0.7333049
vt 1 0.7333049
vt 1 0.2823203
vt 1 0
vt 0 0
vt 0 0.2823203
vt 1 0.2823203
vt 0 0
vt 0 1
vt 1 1
vt 1 0
vn 0 1 0
vn 0 1 0
vn 0 1 0
vn 0 1 0
vn 0 0.9667644 0.255669
vn 0 0.9667644 0.255669
vn 0 0.8817204 0.4717723
vn 0 0.8817204 0.4717723
vn -0.0009775171 0.4437928 -0.896129
vn -0.0009775171 0.4437928 -0.896129
vn -0.0009775171 0.4437928 -0.896129
vn -0.0009775171 0.4437928 -0.896129
g ShadowCollision_0
f 3/3/3 2/2/2 1/1/1
f 4/4/4 3/3/3 1/1/1
f 7/7/7 6/6/6 5/5/5
f 8/8/8 7/7/7 5/5/5
f 11/11/11 10/10/10 9/9/9
f 12/12/12 11/11/11 9/9/9
