g ShadowCollision
v -7.067234 0.136055 -6.182271
v -8.453398 0.136055 -6.391195
v -6.253811 0.136055 -14.77566
v -4.939571 0.136055 -14.29267
v 9.186573 0.136055 -8.927425
v 10.50081 0.136055 -8.444404
v 9.288714 0.136055 -3.848436
v 7.90255 0.136055 -4.057362
v 9.50481 0.2671661 -10.35037
v 11.06306 0.2671661 -9.690624
v 10.61528 0.2671661 -8.402344
v 9.030207 0.2671661 -8.984882
v -6.368277 0.2671661 -14.81772
v -5.685486 0.2671661 -16.7821
v -4.127237 0.2671661 -16.12233
v -4.783205 0.2671661 -14.23518
v -4.183414 0.136055 -15.96078
v 9.468767 0.136055 -10.24666
v 9.11961 0.136055 -9.242141
v -4.727285 0.136055 -14.39606
v -7.288355 0.136055 -4.191801
v -8.681946 0.136055 4.334211
v -8.681978 0.136055 -4.333443
v -7.288322 0.136055 4.192505
v 7.721185 0.136055 2.487879
v 9.127068 0.136055 -2.393547
v 9.114807 0.136055 2.346174
v 7.733444 0.136055 -2.535189
v 7.747112 0.2671661 4.111233
v 7.555376 0.2671661 2.504717
v 9.236187 0.2671661 2.333851
v 9.418897 0.2671661 3.859224
v -8.803293 0.2671661 4.346535
v -7.122513 0.2671661 4.175669
v -6.902288 0.2671661 6.157431
v -8.574106 0.2671661 6.409409
v -6.936411 0.136055 5.989799
v -7.111118 0.136055 4.345606
v 7.58921 0.136055 2.789824
v 7.70137 0.136055 3.845396
v -7.067234 0.136055 6.18227
v -6.253811 0.136055 14.77566
v -8.453398 0.136055 6.391195
v -4.939571 0.136055 14.29267
v 9.150818 0.136055 8.870512
v 9.298189 0.136055 3.877438
v 10.46506 0.136055 8.387491
v 7.912056 0.136055 4.086363
v 9.50481 0.2671661 10.35037
v 8.994421 0.2671661 8.927969
v 10.57949 0.2671661 8.34543
v 11.06306 0.2671661 9.690624
v -6.368277 0.2671661 14.81772
v -4.783205 0.2671661 14.23518
v -4.127237 0.2671661 16.12233
v -5.685486 0.2671661 16.7821
v -4.183414 0.136055 15.96078
v -4.727285 0.136055 14.39606
v 9.11961 0.136055 9.242142
v 9.468767 0.136055 10.24666
v 7.737638 0.2671661 -4.082201
v 9.409422 0.2671661 -3.830223
v 9.248447 0.2671661 -2.381639
v 7.567668 0.2671661 -2.552538
v -6.936411 0.136055 -5.989799
v 7.70137 0.136055 -3.845396
v 7.58921 0.136055 -2.789824
v -7.111118 0.136055 -4.345606
v -8.803293 0.2671661 -4.346534
v -8.574106 0.2671661 -6.40941
v -6.902288 0.2671661 -6.157432
v -7.122513 0.2671661 -4.175669
vt 0.3430644 0.1985162
vt 0.2532105 0.1985162
vt 0.2532105 0.8010898
vt 0.3430644 0.8010898
vt 0.3430644 0.8010898
vt 0.2532105 0.8010898
vt 0.2532105 0.1985162
vt 0.3430644 0.1985162
vt 0.4972139 0.6657805
vt 0.4972139 0.8264971
vt 0.3457968 0.8264971
vt 0.3457968 0.6657805
vt 0.3457968 0.8264971
vt 0.4972139 0.8264971
vt 0.4972139 0.6657805
vt 0.3457968 0.6657805
vt 0.3422643 0.9944749
vt 0.3422643 0.005131
vt 0.25392 0.005131
vt 0.25392 0.9944749
vt 0.3430644 0.1985162
vt 0.2532105 0.8010898
vt 0.2532105 0.1985162
vt 0.3430644 0.8010898
vt 0.3430644 0.8010898
vt 0.2532105 0.1985162
vt 0.2532105 0.8010898
vt 0.3430644 0.1985162
vt 0.4972139 0.6657805
vt 0.3457968 0.6657805
vt 0.3457968 0.8264971
vt 0.4972139 0.8264971
vt 0.3457968 0.8264971
vt 0.3457968 0.6657805
vt 0.4972139 0.6657805
vt 0.4972139 0.8264971
vt 0.3422643 0.9944749
vt 0.25392 0.9944749
vt 0.25392 0.005131
vt 0.3422643 0.005131
vt 0.3430644 0.1985162
vt 0.2532105 0.8010898
vt 0.2532105 0.1985162
vt 0.3430644 0.8010898
vt 0.3430644 0.8010898
vt 0.2532105 0.1985162
vt 0.2532105 0.8010898
vt 0.3430644 0.1985162
vt 0.4972139 0.6657805
vt 0.3457968 0.6657805
vt 0.3457968 0.8264971
vt 0.4972139 0.8264971
vt 0.3457968 0.8264971
vt 0.3457968 0.6657805
vt 0.4972139 0.6657805
vt 0.4972139 0.8264971
vt 0.3422643 0.9944749
vt 0.25392 0.9944749
vt 0.25392 0.005131
vt 0.3422643 0.005131
vt 0.4972139 0.6657805
vt 0.4972139 0.8264971
vt 0.3457968 0.8264971
vt 0.3457968 0.6657805
vt 0.3422643 0.9944749
vt 0.3422643 0.005131
vt 0.25392 0.005131
vt 0.25392 0.9944749
vt 0.3457968 0.8264971
vt 0.4972139 0.8264971
vt 0.4972139 0.6657805
vt 0.3457968 0.6657805
vn 0 1 0
vn 0 1 0
vn 0 1 0
vn 0 1 0
vn 0 1 0
vn 0 1 0
vn 0 1 0
vn 0 1 0
vn 0 1 0
vn 0 1 0
vn 0 1 0
vn 0 1 0
vn 0 1 0
vn 0 1 0
vn 0 1 0
vn 0 1 0
vn 0 1 0
vn 0 1 0
vn 0 1 0
vn 0 1 0
vn 0 1 0
vn 0 1 0
vn 0 1 0
vn 0 1 0
vn 0 1 0
vn 0 1 0
vn 0 1 0
vn 0 1 0
vn 0 1 0
vn 0 1 0
vn 0 1 0
vn 0 1 0
vn 0 1 0
vn 0 1 0
vn 0 1 0
vn 0 1 0
vn 0 1 0
vn 0 1 0
vn 0 1 0
vn 0 1 0
vn 0 1 0
vn 0 1 0
vn 0 1 0
vn 0 1 0
vn 0 1 0
vn 0 1 0
vn 0 1 0
vn 0 1 0
vn 0 1 0
vn 0 1 0
vn 0 1 0
vn 0 1 0
vn 0 1 0
vn 0 1 0
vn 0 1 0
vn 0 1 0
vn 0 1 0
vn 0 1 0
vn 0 1 0
vn 0 1 0
vn 0 1 0
vn 0 1 0
vn 0 1 0
vn 0 1 0
vn 0 1 0
vn 0 1 0
vn 0 1 0
vn 0 1 0
vn 0 1 0
vn 0 1 0
vn 0 1 0
vn 0 1 0
g ShadowCollision_0
f 3/3/3 2/2/2 1/1/1
f 1/1/1 4/4/4 3/3/3
f 7/7/7 6/6/6 5/5/5
f 5/5/5 8/8/8 7/7/7
f 11/11/11 10/10/10 9/9/9
f 12/12/12 11/11/11 9/9/9
f 15/15/15 14/14/14 13/13/13
f 16/16/16 15/15/15 13/13/13
f 19/19/19 18/18/18 17/17/17
f 20/20/20 19/19/19 17/17/17
f 23/23/23 22/22/22 21/21/21
f 24/24/24 21/21/21 22/22/22
f 27/27/27 26/26/26 25/25/25
f 28/28/28 25/25/25 26/26/26
f 31/31/31 30/30/30 29/29/29
f 32/32/32 31/31/31 29/29/29
f 35/35/35 34/34/34 33/33/33
f 36/36/36 35/35/35 33/33/33
f 39/39/39 38/38/38 37/37/37
f 40/40/40 39/39/39 37/37/37
f 43/43/43 42/42/42 41/41/41
f 44/44/44 41/41/41 42/42/42
f 47/47/47 46/46/46 45/45/45
f 48/48/48 45/45/45 46/46/46
f 51/51/51 50/50/50 49/49/49
f 52/52/52 51/51/51 49/49/49
f 55/55/55 54/54/54 53/53/53
f 56/56/56 55/55/55 53/53/53
f 59/59/59 58/58/58 57/57/57
f 60/60/60 59/59/59 57/57/57
f 63/63/63 62/62/62 61/61/61
f 64/64/64 63/63/63 61/61/61
f 67/67/67 66/66/66 65/65/65
f 68/68/68 67/67/67 65/65/65
f 71/71/71 70/70/70 69/69/69
f 72/72/72 71/71/71 69/69/69
