g ShadowCollision
v -3.621523 8.058128 6.669844
v -3.621523 8.059727 -7.0858
v -3.559639 8.207357 -7.033848
v -3.559639 8.205759 6.560067
v -3.559639 8.205759 6.560067
v -3.559639 8.207357 -7.033848
v -2.917241 8.524635 -7.033848
v -2.917241 8.523052 6.560067
v -2.116604 8.832674 -7.033848
v -2.116604 8.831089 6.560067
v -2.917241 8.523052 6.560067
v -2.917241 8.524635 -7.033848
v -1.281497 9.036022 -7.033848
v -1.281497 9.034424 6.560067
v -2.116604 8.831089 6.560067
v -2.116604 8.832674 -7.033848
v -0.480875 9.036022 -7.033848
v -0.480875 9.034424 6.560067
v -1.281497 9.034424 6.560067
v -1.281497 9.036022 -7.033848
v 0.3197618 9.036022 -7.033848
v 0.3197618 9.034424 6.560067
v 1.120399 9.036022 -7.033848
v 1.120399 9.034424 6.560067
v 1.92102 8.861624 -7.033848
v 1.92102 8.860041 6.560067
v 1.120399 9.034424 6.560067
v 1.120399 9.036022 -7.033848
v 2.721657 8.599403 -7.033848
v 2.721657 8.597805 6.560067
v 1.92102 8.860041 6.560067
v 1.92102 8.861624 -7.033848
v 3.596893 8.182957 -7.033848
v 3.596893 8.181358 6.560067
v 2.721657 8.597805 6.560067
v 2.721657 8.599403 -7.033848
v 3.658762 8.035326 -7.0858
v 3.658762 8.033728 6.669844
v 3.596893 8.181358 6.560067
v 3.596893 8.182957 -7.033848
vt 0.7195898 0.5345348
vt 0.7195898 0.5080486
vt 0.7193002 0.5081451
vt 0.7193002 0.5343279
vt 0.7201688 0.50809
vt 0.7201688 0.534259
vt 0.721396 0.534259
vt 0.721396 0.50809
vt 0.7229401 0.534259
vt 0.7229401 0.50809
vt 0.721396 0.50809
vt 0.721396 0.534259
vt 0.7245533 0.534259
vt 0.7245533 0.50809
vt 0.7229401 0.50809
vt 0.7229401 0.534259
vt 0.7260976 0.534259
vt 0.7260976 0.50809
vt 0.7245533 0.50809
vt 0.7245533 0.534259
vt 0.727628 0.534259
vt 0.727628 0.50809
vt 0.7291722 0.534259
vt 0.7291722 0.50809
vt 0.7307164 0.534259
vt 0.7307164 0.50809
vt 0.7291722 0.50809
vt 0.7291722 0.534259
vt 0.7322606 0.534259
vt 0.7322606 0.50809
vt 0.7307164 0.50809
vt 0.7307164 0.534259
vt 0.7339427 0.534259
vt 0.7339427 0.50809
vt 0.7322606 0.50809
vt 0.7322606 0.534259
vt 0.7197276 0.5080486
vt 0.7197276 0.5345348
vt 0.7200172 0.5343279
vt 0.7200172 0.5081451
vn -0.921096 0.3875557 -0.03718619
vn -0.921096 0.3875557 -0.03718619
vn -0.921096 0.3875557 -0.03718619
vn -0.921096 0.3875557 -0.03718619
vn -0.442037 0.8966733 0.02408964
vn -0.442037 0.8966733 0.02408964
vn -0.442037 0.8966733 0.02408964
vn -0.442037 0.8966733 0.02408964
vn -0.3590227 0.9333289 0
vn -0.3590227 0.9333289 0
vn -0.3590227 0.9333289 0
vn -0.3590227 0.9333289 0
vn -0.2371765 0.9714667 0
vn -0.2371765 0.9714667 0
vn -0.2371765 0.9714667 0
vn -0.2371765 0.9714667 0
vn -0.0005511642 0.9999999 0
vn -0.0005511642 0.9999999 0
vn -0.0005511642 0.9999999 0
vn -0.0005511642 0.9999999 0
vn -0.0005511642 0.9999999 0
vn -0.0005511642 0.9999999 0
vn -0.0005511642 0.9999999 0
vn -0.0005511642 0.9999999 0
vn 0.211711 0.9773324 0
vn 0.211711 0.9773324 0
vn 0.211711 0.9773324 0
vn 0.211711 0.9773324 0
vn 0.3110571 0.9503912 0
vn 0.3110571 0.9503912 0
vn 0.3110571 0.9503912 0
vn 0.3110571 0.9503912 0
vn 0.4296627 0.9023093 0.03504162
vn 0.4296627 0.9023093 0.03504162
vn 0.4296627 0.9023093 0.03504162
vn 0.4296627 0.9023093 0.03504162
vn 0.9218502 0.3875464 0
vn 0.9218502 0.3875464 0
vn 0.9218502 0.3875464 0
vn 0.9218502 0.3875464 0
g ShadowCollision_0
f 3/3/3 2/2/2 1/1/1
f 4/4/4 3/3/3 1/1/1
f 7/7/7 6/6/6 5/5/5
f 8/8/8 7/7/7 5/5/5
f 11/11/11 10/10/10 9/9/9
f 12/12/12 11/11/11 9/9/9
f 15/15/15 14/14/14 13/13/13
f 16/16/16 15/15/15 13/13/13
f 19/19/19 18/18/18 17/17/17
f 20/20/20 19/19/19 17/17/17
f 17/17/17 18/18/18 21/21/21
f 18/18/18 22/22/22 21/21/21
f 21/21/21 22/22/22 23/23/23
f 22/22/22 24/24/24 23/23/23
f 27/27/27 26/26/26 25/25/25
f 28/28/28 27/27/27 25/25/25
f 31/31/31 30/30/30 29/29/29
f 32/32/32 31/31/31 29/29/29
f 35/35/35 34/34/34 33/33/33
f 36/36/36 35/35/35 33/33/33
f 39/39/39 38/38/38 37/37/37
f 40/40/40 39/39/39 37/37/37
