g ShadowCollision
v 10.11022 1.907349E-05 24.38742
v 9.910662 0.05694771 24.18241
v 9.910662 0.05694771 18.47343
v 10.11022 1.907349E-05 18.27387
v -10.11026 1.907349E-05 18.27368
v -9.910855 0.05694771 18.47327
v -9.910701 0.05694771 24.18221
v -10.11022 1.907349E-05 24.38742
v 9.910662 0.05694771 18.47343
v -9.910855 0.05694771 18.47327
v -10.11026 1.907349E-05 18.27368
v 10.11022 1.907349E-05 18.27387
v -10.11022 1.907349E-05 24.38742
v -9.910701 0.05694771 24.18221
v 9.910662 0.05694771 24.18241
v 10.11022 1.907349E-05 24.38742
v 9.910662 0.05694771 18.47343
v 9.910662 0.05694771 24.18241
v -9.910701 0.05694771 24.18221
v -9.910855 0.05694771 18.47327
v -14.30282 3.599992 2.259593
v -14.30282 3.599992 24.6596
v -15.925 3.599992 24.6596
v -15.925 3.599992 2.259593
v -15.62502 0.600009 0.5319281
v -15.62502 0.8403063 0.1000109
v -10 0.8403063 0.1000109
v -10 0.600009 0.5420732
v -15.62506 0.600009 2.259593
v -14.30282 0.600009 2.259593
v -10 0.600009 24.6826
v -14.30282 0.600009 24.6826
v -15.62502 0.8403063 0.1000109
v -15.62502 0.7697077 -0.4141598
v -10 0.7697077 -0.4141598
v -10 0.8403063 0.1000109
v -15.87423 0.8403063 0.1000109
v -15.87423 0.7697077 -0.4141598
v -15.62502 0.7697077 -0.4141598
v -10 0.7697077 -0.4141598
v -9.759202 0.8404226 0.100049
v -9.759202 0.7697077 -0.4141598
v -15.62502 0.7697077 -0.4141598
v -15.62502 0.2940302 -0.6975212
v -10 0.2940302 -0.6975212
v -10 0.7697077 -0.4141598
v -15.87423 0.7697077 -0.4141598
v -15.87423 0.2940302 -0.6975212
v -15.62502 0.2940302 -0.6975212
v -10 0.2940302 -0.6975212
v -9.759202 0.7697077 -0.4141598
v -9.759202 0.2940302 -0.6975212
v -15.62502 0.2940302 -0.6975212
v -15.62502 -0.2289696 -0.6975212
v -10 -0.2289696 -0.6975212
v -10 0.2940302 -0.6975212
v -15.87423 0.2940302 -0.6975212
v -15.87423 -0.2289696 -0.6975212
v -15.62502 -0.2289696 -0.6975212
v -10 -0.2289696 -0.6975212
v -9.759202 0.2940302 -0.6975212
v -9.759202 -0.2289696 -0.6975212
v -15.62502 0.600009 0.5319281
v -15.87423 0.600009 0.5319281
v -15.87423 0.8403063 0.1000109
v -15.62502 0.8403063 0.1000109
v -10 0.8403063 0.1000109
v -9.759202 0.8404226 0.100049
v -9.759202 0.6002016 0.5421896
v -10 0.600009 0.5420732
v 14.30282 3.599992 2.259593
v 15.925 3.599992 2.259593
v 15.925 3.599992 24.6596
v 14.30282 3.599992 24.6596
v 15.62502 0.600009 0.5319281
v 10 0.600009 0.5420732
v 10 0.8403063 0.1000109
v 15.62498 0.8403063 0.1000109
v 15.62506 0.600009 2.259593
v 14.30282 0.600009 2.259593
v 10 0.600009 24.6826
v 14.30282 0.600009 24.6826
v -10 1.907349E-05 1.907349E-05
v 10 1.907349E-05 1.907349E-05
v 10 1.907349E-05 18.29471
v -10 1.907349E-05 18.29471
v 15.62498 0.8403063 0.1000109
v 10 0.8403063 0.1000109
v 10 0.7697077 -0.4141598
v 15.62498 0.7697077 -0.4141598
v 15.62498 0.7697077 -0.4141598
v 15.87423 0.7697077 -0.4141598
v 15.87423 0.8403063 0.1000109
v 10 0.7697077 -0.4141598
v 9.759203 0.8404226 0.100049
v 9.759203 0.7697077 -0.4141598
v 15.62498 0.7697077 -0.4141598
v 10 0.7697077 -0.4141598
v 10 0.2940302 -0.6975212
v 15.62498 0.2940302 -0.6975212
v 15.62498 0.2940302 -0.6975212
v 15.87423 0.2940302 -0.6975212
v 15.87423 0.7697077 -0.4141598
v 10 0.2940302 -0.6975212
v 9.759203 0.7697077 -0.4141598
v 9.759203 0.2940302 -0.6975212
v 15.62498 0.2940302 -0.6975212
v 10 0.2940302 -0.6975212
v 10 -0.2289696 -0.6975212
v 15.62498 -0.2289696 -0.6975212
v 15.62498 -0.2289696 -0.6975212
v 15.87423 -0.2289696 -0.6975212
v 15.87423 0.2940302 -0.6975212
v 10 -0.2289696 -0.6975212
v 9.759203 0.2940302 -0.6975212
v 9.759203 -0.2289696 -0.6975212
v 15.62502 0.600009 0.5319281
v 15.62498 0.8403063 0.1000109
v 15.87423 0.8403063 0.1000109
v 15.87423 0.600009 0.5319281
v 10 0.8403063 0.1000109
v 10 0.600009 0.5420732
v 9.759203 0.6002016 0.5421896
v 9.759203 0.8404226 0.100049
v 10 1.907349E-05 24.38742
v 10 1.907349E-05 24.6826
v -10 1.907349E-05 24.6826
v -10 1.907349E-05 24.38742
v -10 0.600009 24.6826
v -10 -1.800993 24.6826
v -14.30282 -1.800993 24.6826
v -14.30282 0.600009 24.6826
v 10 1.907349E-05 24.6826
v 10 -1.798979 24.6826
v -10 -1.798979 24.6826
v -10 1.907349E-05 24.6826
v 14.30282 0.600009 24.6826
v 14.30282 -1.800993 24.6826
v 10 -1.800993 24.6826
v 10 0.600009 24.6826
vt 0.6442512 0.1227283
vt 0.6480507 0.1180438
vt 0.6480507 0.02030976
vt 0.6442512 0.01560998
vt 0.9905699 0.01560998
vt 0.9867705 0.0202945
vt 0.9867705 0.1180591
vt 0.9905699 0.1227283
vt 0.6480507 0.02030976
vt 0.9867705 0.0202945
vt 0.9905699 0.01560998
vt 0.6442512 0.01560998
vt 0.9905699 0.1227283
vt 0.9867705 0.1180591
vt 0.6480507 0.1180438
vt 0.6442512 0.1227283
vt 0.6480507 0.02030976
vt 0.6480507 0.1180438
vt 0.9867705 0.1180591
vt 0.9867705 0.0202945
vt 0.9067979 0.5844358
vt 0.9067979 0.001327535
vt 0.8645609 0.001327535
vt 0.8645609 0.5844358
vt 0.008484016 0.6294041
vt 0.008484016 0.64065
vt 0.1549096 0.64065
vt 0.1549096 0.6291447
vt 0.008484016 0.5844358
vt 0.04289311 0.5844358
vt 0.1549096 0.001327535
vt 0.04289311 0.001327535
vt 0.008484016 0.64065
vt 0.008484016 0.6540322
vt 0.1549096 0.6540322
vt 0.1549096 0.64065
vt 0.001998932 0.64065
vt 0.001998932 0.6540322
vt 0.008484016 0.6540322
vt 0.1549096 0.6540322
vt 0.161181 0.64065
vt 0.161181 0.6540322
vt 0.008484016 0.6540322
vt 0.008484016 0.6614023
vt 0.1549096 0.6614023
vt 0.1549096 0.6540322
vt 0.001998932 0.6540322
vt 0.001998932 0.6614023
vt 0.008484016 0.6614023
vt 0.1549096 0.6614023
vt 0.161181 0.6540322
vt 0.161181 0.6614023
vt 0.9627832 0.1540093
vt 0.9763943 0.1540093
vt 0.9763943 0.007583734
vt 0.9627832 0.007583734
vt 0.9627832 0.1605096
vt 0.9763943 0.1605096
vt 0.9763943 0.1540093
vt 0.9763943 0.007583734
vt 0.9627832 0.001327535
vt 0.9763943 0.001327535
vt 0.008484016 0.6294041
vt 0.001998932 0.6294041
vt 0.001998932 0.64065
vt 0.008484016 0.64065
vt 0.1549096 0.64065
vt 0.161181 0.64065
vt 0.161181 0.6291295
vt 0.1549096 0.6291447
vt 0.9136797 0.5844358
vt 0.9559014 0.5844358
vt 0.9559014 0.001327535
vt 0.9136797 0.001327535
vt 0.3218586 0.6294041
vt 0.175433 0.6291447
vt 0.175433 0.64065
vt 0.3218586 0.64065
vt 0.3218586 0.5844358
vt 0.2874342 0.5844358
vt 0.175433 0.001327535
vt 0.2874342 0.001327535
vt 0.336141 0.6432441
vt 0.8567635 0.6432441
vt 0.8567635 0.1677119
vt 0.336141 0.1677119
vt 0.3218586 0.64065
vt 0.175433 0.64065
vt 0.175433 0.6540322
vt 0.3218586 0.6540322
vt 0.3218586 0.6540322
vt 0.3283436 0.6540322
vt 0.3283436 0.64065
vt 0.175433 0.6540322
vt 0.1691615 0.64065
vt 0.1691615 0.6540322
vt 0.3218586 0.6540322
vt 0.175433 0.6540322
vt 0.175433 0.6614023
vt 0.3218586 0.6614023
vt 0.3218586 0.6614023
vt 0.3283436 0.6614023
vt 0.3283436 0.6540322
vt 0.175433 0.6614023
vt 0.1691615 0.6540322
vt 0.1691615 0.6614023
vt 0.98439 0.007812619
vt 0.98439 0.1542382
vt 0.998001 0.1542382
vt 0.998001 0.007812619
vt 0.998001 0.007812619
vt 0.998001 0.001327535
vt 0.98439 0.001327535
vt 0.998001 0.1542382
vt 0.98439 0.1605096
vt 0.998001 0.1605096
vt 0.3218586 0.6294041
vt 0.3218586 0.64065
vt 0.3283436 0.64065
vt 0.3283436 0.6294041
vt 0.175433 0.64065
vt 0.175433 0.6291447
vt 0.1691615 0.6291295
vt 0.1691615 0.64065
vt 0.8567635 0.006469825
vt 0.8567635 0.001327535
vt 0.336141 0.001327535
vt 0.336141 0.006469825
vt 0 0
vt 0 1
vt 1 1
vt 1 0
vt 0 0
vt 0 1
vt 1 1
vt 1 0
vt 0 0
vt 0 1
vt 1 1
vt 1 0
vn 0.2744433 0.9613805 -0.02069443
vn 0.2744433 0.9613805 -0.02069443
vn 0.2744433 0.9613805 -0.02069443
vn 0.2744433 0.9613805 -0.02069443
vn -0.2749501 0.9613805 0.01224116
vn -0.2749501 0.9613805 0.01224116
vn -0.2749501 0.9613805 0.01224116
vn -0.2749501 0.9613805 0.01224116
vn 0.0003694892 0.9613805 -0.2752223
vn 0.0003694892 0.9613805 -0.2752223
vn 0.0003694892 0.9613805 -0.2752223
vn 0.0003694892 0.9613805 -0.2752223
vn 0.0003694892 0.9638721 0.2663651
vn 0.0003694892 0.9638721 0.2663651
vn 0.0003694892 0.9638721 0.2663651
vn 0.0003694892 0.9638721 0.2663651
vn 0.0003694892 1 0
vn 0.0003694892 1 0
vn 0.0003694892 1 0
vn 0.0003694892 1 0
vn 0.0003694892 1 0
vn 0.0003694892 1 0
vn 0.0003694892 1 0
vn 0.0003694892 1 0
vn 0.0003694892 0.9862964 0.1649829
vn 0.0003694892 0.9850506 0.1722649
vn 0.0003694892 0.9850506 0.1722649
vn 0.0003694892 1 0
vn 0.0003694892 1 0
vn 0.0003694892 1 0
vn 0.0003694892 1 0
vn 0.0003694892 1 0
vn 0.0003694892 0.9850506 0.1722649
vn 0.0003694892 0.8255895 -0.5642711
vn 0.0003694892 0.8255895 -0.5642711
vn 0.0003694892 0.9850506 0.1722649
vn 0.0003694892 0.9838048 0.1792431
vn 0.0003694892 0.8255895 -0.5642711
vn 0.0003694892 0.8255895 -0.5642711
vn 0.0003694892 0.8255895 -0.5642711
vn -0.0008763075 0.9850506 0.172263
vn 0.0003694892 0.8255895 -0.5642711
vn 0.0003694892 0.8255895 -0.5642711
vn 0.0003694892 0.2724586 -0.9621674
vn 0.0003694892 0.2724586 -0.9621674
vn 0.0003694892 0.8255895 -0.5642711
vn 0.0003694892 0.8255895 -0.5642711
vn 0.0003694892 0.2724586 -0.9621674
vn 0.0003694892 0.2724586 -0.9621674
vn 0.0003694892 0.2724586 -0.9621674
vn 0.0003694892 0.8255895 -0.5642711
vn 0.0003694892 0.2724586 -0.9621674
vn 0.0003694892 0.2724586 -0.9621674
vn 0.0003694892 -0.0003694892 -0.9999999
vn 0.0003694892 -0.0003694892 -0.9999999
vn 0.0003694892 0.2724586 -0.9621674
vn 0.0003694892 0.2724586 -0.9621674
vn 0.0003694892 -0.0003694892 -0.9999999
vn 0.0003694892 -0.0003694892 -0.9999999
vn 0.0003694892 -0.0003694892 -0.9999999
vn 0.0003694892 0.2724586 -0.9621674
vn 0.0003694892 -0.0003694892 -0.9999999
vn 0.0003694892 0.9862964 0.1649829
vn 0.0003694892 0.8741753 0.4856104
vn 0.0003694892 0.9838048 0.1792431
vn 0.0003694892 0.9850506 0.1722649
vn 0.0003694892 0.9850506 0.1722649
vn -0.0008763075 0.9850506 0.172263
vn -0.0008763075 0.8791584 0.4765288
vn 0.0003694892 1 0
vn 0.0003694892 1 0
vn 0.0003694892 1 0
vn 0.0003694892 1 0
vn 0.0003694892 1 0
vn 0.0003694892 0.9862964 0.1649829
vn 0.0003694892 1 0
vn 0.0003694892 0.9850506 0.1722649
vn 0.0003694892 0.9850506 0.1722649
vn 0.0003694892 1 0
vn 0.0003694892 1 0
vn 0.0003694892 1 0
vn 0.0003694892 1 0
vn 0.0003694892 1 0
vn 0.0003694892 1 0
vn 0.0003694892 1 0
vn 0.0003694892 1 0
vn 0.0003694892 0.9850506 0.1722649
vn 0.0003694892 0.9850506 0.1722649
vn 0.0003694892 0.8255895 -0.5642711
vn 0.0003694892 0.8255895 -0.5642711
vn 0.0003694892 0.8255895 -0.5642711
vn 0.0003694892 0.8255895 -0.5642711
vn 0.0003694892 0.9838048 0.1792431
vn 0.0003694892 0.8255895 -0.5642711
vn 0.0003694892 0.9850506 0.1722649
vn 0.0003694892 0.8255895 -0.5642711
vn 0.0003694892 0.8255895 -0.5642711
vn 0.0003694892 0.8255895 -0.5642711
vn 0.0003694892 0.2724586 -0.9621674
vn 0.0003694892 0.2724586 -0.9621674
vn 0.0003694892 0.2724586 -0.9621674
vn 0.0003694892 0.2724586 -0.9621674
vn 0.0003694892 0.8255895 -0.5642711
vn 0.0003694892 0.2724586 -0.9621674
vn 0.0003694892 0.8255895 -0.5642711
vn 0.0003694892 0.2724586 -0.9621674
vn 0.0003694892 0.2724586 -0.9621674
vn 0.0003694892 0.2724586 -0.9621674
vn 0.0003694892 -0.0003694892 -0.9999999
vn 0.0003694892 -0.0003694892 -0.9999999
vn 0.0003694892 -0.0003694892 -0.9999999
vn 0.0003694892 -0.0003694892 -0.9999999
vn 0.0003694892 0.2724586 -0.9621674
vn 0.0003694892 -0.0003694892 -0.9999999
vn 0.0003694892 0.2724586 -0.9621674
vn 0.0003694892 -0.0003694892 -0.9999999
vn 0.0003694892 0.9862964 0.1649829
vn 0.0003694892 0.9850506 0.1722649
vn 0.0003694892 0.9838048 0.1792431
vn 0.0003694892 0.8741753 0.4856104
vn 0.0003694892 0.9850506 0.1722649
vn 0.0003694892 1 0
vn 0.0003694892 0.8791584 0.4765295
vn 0.0003694892 0.9850506 0.1722649
vn 0.0003694892 1 0
vn 0.0003694892 1 0
vn 0.0003694892 1 0
vn 0.0003694892 1 0
vn 0.0003694892 -0.0003694892 0.9999999
vn 0.0003694892 -0.0003694892 0.9999999
vn 0.0003694892 -0.0003694892 0.9999999
vn 0.0003694892 -0.0003694892 0.9999999
vn 0.0003694892 -0.0003694892 0.9999999
vn 0.0003694892 -0.0003694892 0.9999999
vn 0.0003694892 -0.0003694892 0.9999999
vn 0.0003694892 -0.0003694892 0.9999999
vn 0.0003694892 -0.0003694892 0.9999999
vn 0.0003694892 -0.0003694892 0.9999999
vn 0.0003694892 -0.0003694892 0.9999999
vn 0.0003694892 -0.0003694892 0.9999999
g ShadowCollision_0
f 3/3/3 2/2/2 1/1/1
f 4/4/4 3/3/3 1/1/1
f 7/7/7 6/6/6 5/5/5
f 8/8/8 7/7/7 5/5/5
f 11/11/11 10/10/10 9/9/9
f 12/12/12 11/11/11 9/9/9
f 15/15/15 14/14/14 13/13/13
f 16/16/16 15/15/15 13/13/13
f 19/19/19 18/18/18 17/17/17
f 20/20/20 19/19/19 17/17/17
f 23/23/23 22/22/22 21/21/21
f 24/24/24 23/23/23 21/21/21
f 27/27/27 26/26/26 25/25/25
f 28/28/28 27/27/27 25/25/25
f 25/25/25 29/29/29 28/28/28
f 29/29/29 30/30/30 28/28/28
f 28/28/28 30/30/30 31/31/31
f 30/30/30 32/32/32 31/31/31
f 35/35/35 34/34/34 33/33/33
f 36/36/36 35/35/35 33/33/33
f 38/38/38 37/37/37 33/33/33
f 39/39/39 38/38/38 33/33/33
f 36/36/36 41/41/41 40/40/40
f 41/41/41 42/42/42 40/40/40
f 45/45/45 44/44/44 43/43/43
f 46/46/46 45/45/45 43/43/43
f 48/48/48 47/47/47 43/43/43
f 49/49/49 48/48/48 43/43/43
f 46/46/46 51/51/51 50/50/50
f 51/51/51 52/52/52 50/50/50
f 55/55/55 54/54/54 53/53/53
f 56/56/56 55/55/55 53/53/53
f 58/58/58 57/57/57 53/53/53
f 59/59/59 58/58/58 53/53/53
f 56/56/56 61/61/61 60/60/60
f 61/61/61 62/62/62 60/60/60
f 65/65/65 64/64/64 63/63/63
f 66/66/66 65/65/65 63/63/63
f 69/69/69 68/68/68 67/67/67
f 70/70/70 69/69/69 67/67/67
f 73/73/73 72/72/72 71/71/71
f 74/74/74 73/73/73 71/71/71
f 77/77/77 76/76/76 75/75/75
f 78/78/78 77/77/77 75/75/75
f 79/79/79 75/75/75 76/76/76
f 80/80/80 79/79/79 76/76/76
f 80/80/80 76/76/76 81/81/81
f 82/82/82 80/80/80 81/81/81
f 85/85/85 84/84/84 83/83/83
f 86/86/86 85/85/85 83/83/83
f 89/89/89 88/88/88 87/87/87
f 90/90/90 89/89/89 87/87/87
f 92/92/92 91/91/91 87/87/87
f 93/93/93 92/92/92 87/87/87
f 95/95/95 88/88/88 94/94/94
f 96/96/96 95/95/95 94/94/94
f 99/99/99 98/98/98 97/97/97
f 100/100/100 99/99/99 97/97/97
f 102/102/102 101/101/101 97/97/97
f 103/103/103 102/102/102 97/97/97
f 105/105/105 98/98/98 104/104/104
f 106/106/106 105/105/105 104/104/104
f 109/109/109 108/108/108 107/107/107
f 110/110/110 109/109/109 107/107/107
f 112/112/112 111/111/111 107/107/107
f 113/113/113 112/112/112 107/107/107
f 115/115/115 108/108/108 114/114/114
f 116/116/116 115/115/115 114/114/114
f 119/119/119 118/118/118 117/117/117
f 120/120/120 119/119/119 117/117/117
f 123/123/123 122/122/122 121/121/121
f 124/124/124 123/123/123 121/121/121
f 127/127/127 126/126/126 125/125/125
f 128/128/128 127/127/127 125/125/125
f 131/131/131 130/130/130 129/129/129
f 132/132/132 131/131/131 129/129/129
f 135/135/135 134/134/134 133/133/133
f 136/136/136 135/135/135 133/133/133
f 139/139/139 138/138/138 137/137/137
f 140/140/140 139/139/139 137/137/137
