g ShadowCollision
v -7.417904 99.881 -53.95604
v -8.792839 96.31907 -47.65077
v -8.792839 99.881 -53.95604
v -7.417904 96.31907 -47.65077
v 7.417816 96.31907 -47.65077
v 8.7929 99.87862 -53.95159
v 8.7929 96.31907 -47.65077
v 7.417816 99.87862 -53.95159
v 7.254303 95.58645 -46.08589
v 7.254303 96.43267 -47.58379
v 8.912601 96.43267 -47.58379
v 8.912601 95.58645 -46.08589
v -8.912689 96.43267 -47.58379
v -7.254242 96.43267 -47.58379
v -7.254242 95.58645 -46.08589
v -8.912689 95.58645 -46.08589
v -7.254242 95.54531 -46.28118
v -7.254242 96.24688 -47.52305
v 7.254303 96.24688 -47.52305
v 7.254303 95.54531 -46.28118
v -7.417904 95.47298 -46.15302
v -8.792839 91.92841 -39.87863
v -8.792839 95.47298 -46.15302
v -7.417904 91.92841 -39.87863
v 7.417816 91.92841 -39.87863
v 8.7929 95.47298 -46.15302
v 8.7929 91.92841 -39.87863
v 7.417816 95.47298 -46.15302
v 7.254303 91.19595 -38.3139
v 7.254303 92.04203 -39.81165
v 8.912601 92.04203 -39.81165
v 8.912601 91.19595 -38.3139
v -8.912689 92.04203 -39.81165
v -7.254242 92.04203 -39.81165
v -7.254242 91.19595 -38.3139
v -8.912689 91.19595 -38.3139
v -7.254242 91.15481 -38.50919
v -7.254242 91.85639 -39.75091
v 7.254303 91.85639 -39.75091
v 7.254303 91.15481 -38.50919
v -7.417904 91.08234 -38.38087
v -8.792839 87.53777 -32.10664
v -8.792839 91.08234 -38.38087
v -7.417904 87.53777 -32.10664
v 7.417816 87.53777 -32.10664
v 8.7929 91.08234 -38.38087
v 8.7929 87.53777 -32.10664
v 7.417816 91.08234 -38.38087
v 7.254303 86.80531 -30.54176
v 7.254303 87.65139 -32.03967
v 8.912601 87.65139 -32.03967
v 8.912601 86.80531 -30.54176
v -8.912689 87.65139 -32.03967
v -7.254242 87.65139 -32.03967
v -7.254242 86.80531 -30.54176
v -8.912689 86.80531 -30.54176
v -7.254242 86.76417 -30.73705
v -7.254242 87.46575 -31.97892
v 7.254303 87.46575 -31.97892
v 7.254303 86.76417 -30.73705
v -7.417904 86.6917 -30.60889
v -8.792839 83.14729 -24.3345
v -8.792839 86.6917 -30.60889
v -7.417904 83.14729 -24.3345
v 7.417816 83.14729 -24.3345
v 8.7929 86.6917 -30.60889
v 8.7929 83.14729 -24.3345
v 7.417816 86.6917 -30.60889
v 7.254303 82.41467 -22.76977
v 7.254303 83.26075 -24.26752
v 8.912601 83.26075 -24.26752
v 8.912601 82.41467 -22.76977
v -8.912689 83.26075 -24.26752
v -7.254242 83.26075 -24.26752
v -7.254242 82.41467 -22.76977
v -8.912689 82.41467 -22.76977
v -7.254242 82.37353 -22.96507
v -7.254242 83.07511 -24.20693
v 7.254303 83.07511 -24.20693
v 7.254303 82.37353 -22.96507
v -7.417904 82.30105 -22.83675
v -8.792839 78.75665 -16.56252
v -8.792839 82.30105 -22.83675
v -7.417904 78.75665 -16.56252
v 7.417816 78.75665 -16.56252
v 8.7929 82.30105 -22.83675
v 8.7929 78.75665 -16.56252
v 7.417816 82.30105 -22.83675
v 7.254303 78.02402 -14.99763
v 7.254303 78.87011 -16.49553
v 8.912601 78.87011 -16.49553
v 8.912601 78.02402 -14.99763
v -8.912689 78.87011 -16.49553
v -7.254242 78.87011 -16.49553
v -7.254242 78.02402 -14.99763
v -8.912689 78.02402 -14.99763
v -7.254242 77.98289 -15.19292
v -7.254242 78.68446 -16.43479
v 7.254303 78.68446 -16.43479
v 7.254303 77.98289 -15.19292
v -7.417904 77.91041 -15.06476
v -8.792839 74.36599 -8.790375
v -8.792839 77.91041 -15.06476
v -7.417904 74.36599 -8.790375
v 7.417816 74.36599 -8.790375
v 8.7929 77.91041 -15.06476
v 8.7929 74.36599 -8.790375
v 7.417816 77.91041 -15.06476
v 7.254303 73.63338 -7.225639
v 7.254303 74.47961 -8.723396
v 8.912601 74.47961 -8.723396
v 8.912601 73.63338 -7.225639
v -8.912689 74.47961 -8.723396
v -7.254242 74.47961 -8.723396
v -7.254242 73.63338 -7.225639
v -8.912689 73.63338 -7.225639
v -7.254242 73.59238 -7.420937
v -7.254242 74.29382 -8.662804
v 7.254303 74.29382 -8.662804
v 7.254303 73.59238 -7.420937
v -7.417904 73.51992 -7.292622
v -8.792839 70.35124 -1.683723
v -8.792839 73.51992 -7.292622
v -7.417904 70.35124 -1.683723
v 7.417816 70.35124 -1.683723
v 8.7929 73.51992 -7.292622
v 8.7929 70.35124 -1.683723
v 7.417816 73.51992 -7.292622
v 7.254303 70.39059 0.1554642
v 7.254303 70.39059 -1.660557
v 8.912601 70.39059 -1.660557
v 8.912601 70.39059 0.1554642
v -8.912689 70.39059 -1.660557
v -7.254242 70.39059 -1.660557
v -7.254242 70.39059 0.1554642
v -8.912689 70.39059 0.1554642
v -7.254242 70.33862 0.007396698
v -7.254242 70.33862 -1.556744
v 7.254303 70.33862 -1.556744
v 7.254303 70.33862 0.007396698
v 7.254303 99.95986 -53.95129
v 7.254303 99.95986 -55.76731
v 8.912601 99.95986 -55.76731
v 8.912601 99.95986 -53.95129
v -8.912689 99.95986 -55.76731
v -7.254242 99.95986 -55.76731
v -7.254242 99.95986 -53.95129
v -8.912689 99.95986 -53.95129
v -7.254242 99.90788 -54.09936
v -7.254242 99.90788 -55.66365
v 7.254303 99.90788 -55.66365
v 7.254303 99.90788 -54.09936
vt 0.3430644 0.1985162
vt 0.2532105 0.8010898
vt 0.2532105 0.1985162
vt 0.3430644 0.8010898
vt 0.3430644 0.8010898
vt 0.2532105 0.1985162
vt 0.2532105 0.8010898
vt 0.3430644 0.1985162
vt 0.4972139 0.6657805
vt 0.3457968 0.6657805
vt 0.3457968 0.8264971
vt 0.4972139 0.8264971
vt 0.3457968 0.8264971
vt 0.3457968 0.6657805
vt 0.4972139 0.6657805
vt 0.4972139 0.8264971
vt 0.3422643 0.9944749
vt 0.25392 0.9944749
vt 0.25392 0.005131
vt 0.3422643 0.005131
vt 0.3430644 0.1985162
vt 0.2532105 0.8010898
vt 0.2532105 0.1985162
vt 0.3430644 0.8010898
vt 0.3430644 0.8010898
vt 0.2532105 0.1985162
vt 0.2532105 0.8010898
vt 0.3430644 0.1985162
vt 0.4972139 0.6657805
vt 0.3457968 0.6657805
vt 0.3457968 0.8264971
vt 0.4972139 0.8264971
vt 0.3457968 0.8264971
vt 0.3457968 0.6657805
vt 0.4972139 0.6657805
vt 0.4972139 0.8264971
vt 0.3422643 0.9944749
vt 0.25392 0.9944749
vt 0.25392 0.005131
vt 0.3422643 0.005131
vt 0.3430644 0.1985162
vt 0.2532105 0.8010898
vt 0.2532105 0.1985162
vt 0.3430644 0.8010898
vt 0.3430644 0.8010898
vt 0.2532105 0.1985162
vt 0.2532105 0.8010898
vt 0.3430644 0.1985162
vt 0.4972139 0.6657805
vt 0.3457968 0.6657805
vt 0.3457968 0.8264971
vt 0.4972139 0.8264971
vt 0.3457968 0.8264971
vt 0.3457968 0.6657805
vt 0.4972139 0.6657805
vt 0.4972139 0.8264971
vt 0.3422643 0.9944749
vt 0.25392 0.9944749
vt 0.25392 0.005131
vt 0.3422643 0.005131
vt 0.3430644 0.1985162
vt 0.2532105 0.8010898
vt 0.2532105 0.1985162
vt 0.3430644 0.8010898
vt 0.3430644 0.8010898
vt 0.2532105 0.1985162
vt 0.2532105 0.8010898
vt 0.3430644 0.1985162
vt 0.4972139 0.6657805
vt 0.3457968 0.6657805
vt 0.3457968 0.8264971
vt 0.4972139 0.8264971
vt 0.3457968 0.8264971
vt 0.3457968 0.6657805
vt 0.4972139 0.6657805
vt 0.4972139 0.8264971
vt 0.3422643 0.9944749
vt 0.25392 0.9944749
vt 0.25392 0.005131
vt 0.3422643 0.005131
vt 0.3430644 0.1985162
vt 0.2532105 0.8010898
vt 0.2532105 0.1985162
vt 0.3430644 0.8010898
vt 0.3430644 0.8010898
vt 0.2532105 0.1985162
vt 0.2532105 0.8010898
vt 0.3430644 0.1985162
vt 0.4972139 0.6657805
vt 0.3457968 0.6657805
vt 0.3457968 0.8264971
vt 0.4972139 0.8264971
vt 0.3457968 0.8264971
vt 0.3457968 0.6657805
vt 0.4972139 0.6657805
vt 0.4972139 0.8264971
vt 0.3422643 0.9944749
vt 0.25392 0.9944749
vt 0.25392 0.005131
vt 0.3422643 0.005131
vt 0.3430644 0.1985162
vt 0.2532105 0.8010898
vt 0.2532105 0.1985162
vt 0.3430644 0.8010898
vt 0.3430644 0.8010898
vt 0.2532105 0.1985162
vt 0.2532105 0.8010898
vt 0.3430644 0.1985162
vt 0.4972139 0.6657805
vt 0.3457968 0.6657805
vt 0.3457968 0.8264971
vt 0.4972139 0.8264971
vt 0.3457968 0.8264971
vt 0.3457968 0.6657805
vt 0.4972139 0.6657805
vt 0.4972139 0.8264971
vt 0.3422643 0.9944749
vt 0.25392 0.9944749
vt 0.25392 0.005131
vt 0.3422643 0.005131
vt 0.3430644 0.1985162
vt 0.2532105 0.8010898
vt 0.2532105 0.1985162
vt 0.3430644 0.8010898
vt 0.3430644 0.8010898
vt 0.2532105 0.1985162
vt 0.2532105 0.8010898
vt 0.3430644 0.1985162
vt 0.4972139 0.6657805
vt 0.3457968 0.6657805
vt 0.3457968 0.8264971
vt 0.4972139 0.8264971
vt 0.3457968 0.8264971
vt 0.3457968 0.6657805
vt 0.4972139 0.6657805
vt 0.4972139 0.8264971
vt 0.3422643 0.9944749
vt 0.25392 0.9944749
vt 0.25392 0.005131
vt 0.3422643 0.005131
vt 0.4972139 0.6657805
vt 0.3457968 0.6657805
vt 0.3457968 0.8264971
vt 0.4972139 0.8264971
vt 0.3457968 0.8264971
vt 0.3457968 0.6657805
vt 0.4972139 0.6657805
vt 0.4972139 0.8264971
vt 0.3422643 0.9944749
vt 0.25392 0.9944749
vt 0.25392 0.005131
vt 0.3422643 0.005131
vn 0 0.8709677 0.4913402
vn 0 0.8709677 0.4913402
vn 0 0.8709677 0.4913402
vn 0 0.8709677 0.4913402
vn 0 0.8709677 0.4913402
vn 0 0.8709677 0.4913402
vn 0 0.8709677 0.4913402
vn 0 0.8709677 0.4913402
vn 0 0.8709677 0.4913402
vn 0 0.8709677 0.4913402
vn 0 0.8709677 0.4913402
vn 0 0.8709677 0.4913402
vn 0 0.8709677 0.4913402
vn 0 0.8709677 0.4913402
vn 0 0.8709677 0.4913402
vn 0 0.8709677 0.4913402
vn 0 0.8709677 0.4913402
vn 0 0.8709677 0.4913402
vn 0 0.8709677 0.4913402
vn 0 0.8709677 0.4913402
vn 0 0.8709677 0.4913402
vn 0 0.8709677 0.4913402
vn 0 0.8709677 0.4913402
vn 0 0.8709677 0.4913402
vn 0 0.8709677 0.4913402
vn 0 0.8709677 0.4913402
vn 0 0.8709677 0.4913402
vn 0 0.8709677 0.4913402
vn 0 0.8709677 0.4913402
vn 0 0.8709677 0.4913402
vn 0 0.8709677 0.4913402
vn 0 0.8709677 0.4913402
vn 0 0.8709677 0.4913402
vn 0 0.8709677 0.4913402
vn 0 0.8709677 0.4913402
vn 0 0.8709677 0.4913402
vn 0 0.8709677 0.4913402
vn 0 0.8709677 0.4913402
vn 0 0.8709677 0.4913402
vn 0 0.8709677 0.4913402
vn 0 0.8709677 0.4913402
vn 0 0.8709677 0.4913402
vn 0 0.8709677 0.4913402
vn 0 0.8709677 0.4913402
vn 0 0.8709677 0.4913402
vn 0 0.8709677 0.4913402
vn 0 0.8709677 0.4913402
vn 0 0.8709677 0.4913402
vn 0 0.8709677 0.4913402
vn 0 0.8709677 0.4913402
vn 0 0.8709677 0.4913402
vn 0 0.8709677 0.4913402
vn 0 0.8709677 0.4913402
vn 0 0.8709677 0.4913402
vn 0 0.8709677 0.4913402
vn 0 0.8709677 0.4913402
vn 0 0.8709677 0.4913402
vn 0 0.8709677 0.4913402
vn 0 0.8709677 0.4913402
vn 0 0.8709677 0.4913402
vn 0 0.8709677 0.4913402
vn 0 0.8709677 0.4913402
vn 0 0.8709677 0.4913402
vn 0 0.8709677 0.4913402
vn 0 0.8709677 0.4913402
vn 0 0.8709677 0.4913402
vn 0 0.8709677 0.4913402
vn 0 0.8709677 0.4913402
vn 0 0.8709677 0.4913402
vn 0 0.8709677 0.4913402
vn 0 0.8709677 0.4913402
vn 0 0.8709677 0.4913402
vn 0 0.8709677 0.4913402
vn 0 0.8709677 0.4913402
vn 0 0.8709677 0.4913402
vn 0 0.8709677 0.4913402
vn 0 0.8709677 0.4913402
vn 0 0.8709677 0.4913402
vn 0 0.8709677 0.4913402
vn 0 0.8709677 0.4913402
vn 0 0.8709677 0.4913402
vn 0 0.8709677 0.4913402
vn 0 0.8709677 0.4913402
vn 0 0.8709677 0.4913402
vn 0 0.8709677 0.4913402
vn 0 0.8709677 0.4913402
vn 0 0.8709677 0.4913402
vn 0 0.8709677 0.4913402
vn 0 0.8709677 0.4913402
vn 0 0.8709677 0.4913402
vn 0 0.8709677 0.4913402
vn 0 0.8709677 0.4913402
vn 0 0.8709677 0.4913402
vn 0 0.8709677 0.4913402
vn 0 0.8709677 0.4913402
vn 0 0.8709677 0.4913402
vn 0 0.8709677 0.4913402
vn 0 0.8709677 0.4913402
vn 0 0.8709677 0.4913402
vn 0 0.8709677 0.4913402
vn 0 0.8709677 0.4913402
vn 0 0.8709677 0.4913402
vn 0 0.8709677 0.4913402
vn 0 0.8709677 0.4913402
vn 0 0.8709677 0.4913402
vn 0 0.8709677 0.4913402
vn 0 0.8709677 0.4913402
vn 0 0.8709677 0.4913402
vn 0 0.8709677 0.4913402
vn 0 0.8709677 0.4913402
vn 0 0.8709677 0.4913402
vn 0 0.8709677 0.4913402
vn 0 0.8709677 0.4913402
vn 0 0.8709677 0.4913402
vn 0 0.8709677 0.4913402
vn 0 0.8709677 0.4913402
vn 0 0.8709677 0.4913402
vn 0 0.8709677 0.4913402
vn 0 0.8709677 0.4913402
vn 0 0.8709677 0.4913402
vn 0 0.8709677 0.4913402
vn 0 0.8709677 0.4913402
vn 0 0.8709677 0.4913402
vn 0 0.8709677 0.4913402
vn 0 0.8709677 0.4913402
vn 0 0.8709677 0.4913402
vn 0 0.8709677 0.4913402
vn 0 0.8709677 0.4913402
vn 0 1 0
vn 0 1 0
vn 0 1 0
vn 0 1 0
vn 0 1 0
vn 0 1 0
vn 0 1 0
vn 0 1 0
vn 0 1 0
vn 0 1 0
vn 0 1 0
vn 0 1 0
vn 0 1 0
vn 0 1 0
vn 0 1 0
vn 0 1 0
vn 0 1 0
vn 0 1 0
vn 0 1 0
vn 0 1 0
vn 0 1 0
vn 0 1 0
vn 0 1 0
vn 0 1 0
g ShadowCollision_0
f 3/3/3 2/2/2 1/1/1
f 4/4/4 1/1/1 2/2/2
f 7/7/7 6/6/6 5/5/5
f 8/8/8 5/5/5 6/6/6
f 11/11/11 10/10/10 9/9/9
f 12/12/12 11/11/11 9/9/9
f 15/15/15 14/14/14 13/13/13
f 16/16/16 15/15/15 13/13/13
f 19/19/19 18/18/18 17/17/17
f 20/20/20 19/19/19 17/17/17
f 23/23/23 22/22/22 21/21/21
f 24/24/24 21/21/21 22/22/22
f 27/27/27 26/26/26 25/25/25
f 28/28/28 25/25/25 26/26/26
f 31/31/31 30/30/30 29/29/29
f 32/32/32 31/31/31 29/29/29
f 35/35/35 34/34/34 33/33/33
f 36/36/36 35/35/35 33/33/33
f 39/39/39 38/38/38 37/37/37
f 40/40/40 39/39/39 37/37/37
f 43/43/43 42/42/42 41/41/41
f 44/44/44 41/41/41 42/42/42
f 47/47/47 46/46/46 45/45/45
f 48/48/48 45/45/45 46/46/46
f 51/51/51 50/50/50 49/49/49
f 52/52/52 51/51/51 49/49/49
f 55/55/55 54/54/54 53/53/53
f 56/56/56 55/55/55 53/53/53
f 59/59/59 58/58/58 57/57/57
f 60/60/60 59/59/59 57/57/57
f 63/63/63 62/62/62 61/61/61
f 64/64/64 61/61/61 62/62/62
f 67/67/67 66/66/66 65/65/65
f 68/68/68 65/65/65 66/66/66
f 71/71/71 70/70/70 69/69/69
f 72/72/72 71/71/71 69/69/69
f 75/75/75 74/74/74 73/73/73
f 76/76/76 75/75/75 73/73/73
f 79/79/79 78/78/78 77/77/77
f 80/80/80 79/79/79 77/77/77
f 83/83/83 82/82/82 81/81/81
f 84/84/84 81/81/81 82/82/82
f 87/87/87 86/86/86 85/85/85
f 88/88/88 85/85/85 86/86/86
f 91/91/91 90/90/90 89/89/89
f 92/92/92 91/91/91 89/89/89
f 95/95/95 94/94/94 93/93/93
f 96/96/96 95/95/95 93/93/93
f 99/99/99 98/98/98 97/97/97
f 100/100/100 99/99/99 97/97/97
f 103/103/103 102/102/102 101/101/101
f 104/104/104 101/101/101 102/102/102
f 107/107/107 106/106/106 105/105/105
f 108/108/108 105/105/105 106/106/106
f 111/111/111 110/110/110 109/109/109
f 112/112/112 111/111/111 109/109/109
f 115/115/115 114/114/114 113/113/113
f 116/116/116 115/115/115 113/113/113
f 119/119/119 118/118/118 117/117/117
f 120/120/120 119/119/119 117/117/117
f 123/123/123 122/122/122 121/121/121
f 124/124/124 121/121/121 122/122/122
f 127/127/127 126/126/126 125/125/125
f 128/128/128 125/125/125 126/126/126
f 131/131/131 130/130/130 129/129/129
f 132/132/132 131/131/131 129/129/129
f 135/135/135 134/134/134 133/133/133
f 136/136/136 135/135/135 133/133/133
f 139/139/139 138/138/138 137/137/137
f 140/140/140 139/139/139 137/137/137
f 143/143/143 142/142/142 141/141/141
f 144/144/144 143/143/143 141/141/141
f 147/147/147 146/146/146 145/145/145
f 148/148/148 147/147/147 145/145/145
f 151/151/151 150/150/150 149/149/149
f 152/152/152 151/151/151 149/149/149
