g ShadowCollision
v -20.39036 12.19414 31.00898
v -15.54772 10.0907 30.07248
v -15.44556 10.01122 30.18855
v -20.47455 12.19564 31.16109
v -25.05387 6.642357 19.34092
v -20.21123 4.538881 18.40443
v -15.54772 10.0907 30.07248
v -20.39036 12.19414 31.00898
v -20.47455 12.19564 31.16109
v -25.20628 6.559342 19.33014
v -25.05387 6.642357 19.34092
v -20.39036 12.19414 31.00898
v -20.21123 4.538881 18.40443
v -20.17725 4.374951 18.3576
v -15.44556 10.01122 30.18855
v -15.54772 10.0907 30.07248
v -25.20628 6.559342 19.33014
v -20.17725 4.374951 18.3576
v -20.21123 4.538881 18.40443
v -25.05387 6.642357 19.34092
v 5.16069 0.9401588 9.540668
v 5.336621 0.7815304 7.93859
v 6.667901 0.8137426 8.121479
v 6.478827 0.9806166 9.774065
v -7.641102 0.4367738 6.155722
v -6.309822 0.4689856 6.338611
v -6.370895 0.5553126 7.498892
v -7.688996 0.5148549 7.265532
v -6.503976 0.4361849 7.401447
v -6.456744 0.3671598 6.436681
v 5.458179 0.6921482 8.113011
v 5.316741 0.8167982 9.448563
v -7.55194 0.3401389 6.28258
v -7.348989 0.004033566 1.388693
v -6.200229 0.004217625 1.363365
v -6.449014 0.3673439 6.437785
v 7.342652 0.01139593 1.06503
v 6.553338 0.7192059 8.267076
v 5.450448 0.6919641 8.111907
v 6.193892 0.01194811 1.090321
v -22.95691 4.808612 19.21767
v -17.26016 3.664197 17.42523
v -16.86957 4.138463 18.34163
v -22.58399 5.282878 20.13981
v -12.26474 9.023441 29.14538
v -18.18767 10.72252 31.01104
v -18.56059 10.24693 30.0889
v -12.65533 8.549176 28.22898
v -12.69583 8.598064 28.06631
v -11.18814 8.18524 27.52342
v -10.66491 8.737144 28.61887
v -12.22476 9.170069 29.17155
v -16.28895 3.511201 16.84476
v -15.76569 4.063106 17.94018
v -16.81711 4.30022 18.39703
v -17.28821 3.728215 17.29175
v -16.78155 4.114902 18.29653
v -15.91603 3.920418 17.91964
v -11.2692 8.173312 27.73929
v -12.52387 8.517737 28.18952
v -16.34318 3.464595 17.01705
v -11.98018 2.514481 15.0708
v -11.36061 2.900541 15.94409
v -15.91305 3.923657 17.926
v -4.289176 6.47585 26.11262
v -10.84206 8.513247 28.64188
v -11.27218 8.045496 27.73292
v -4.908781 6.078156 25.23937
v -4.972615 6.217016 25.07386
v -3.435328 5.651453 24.12411
v -2.614759 6.08169 25.1004
v -4.225379 6.682593 26.12709
v -11.28091 2.36384 14.48057
v -10.46034 2.794078 15.45679
v -11.27701 3.050151 15.98639
v -12.02428 2.584573 14.93319
v -11.30167 2.876429 15.88272
v -10.61322 2.667255 15.46809
v -3.472915 5.641661 24.39867
v -4.786708 6.114712 25.13696
v -9.709826 1.824415 13.45609
v -8.617023 1.338259 11.86852
v -7.676001 1.569077 12.40276
v -8.901737 2.1194 14.13066
v -11.28367 2.310534 14.65886
v -10.60851 2.669759 15.4738
v 0.7859802 4.405249 22.27564
v -2.802471 5.964071 25.20786
v -3.477627 5.59049 24.39293
v -0.02214575 4.057105 21.60104
v 3.417837 2.958707 18.70089
v 2.476816 2.723396 18.16665
v 2.363173 2.827872 18.07108
v 3.169715 2.217176 16.56789
v 4.3399 2.450536 17.1343
v 3.49809 3.106255 18.71539
v -8.237404 1.247882 11.04622
v -7.067256 1.481241 11.61263
v -7.565708 1.698477 12.43431
v -8.700626 1.420131 11.79
v -7.656343 1.548646 12.32335
v -7.207588 1.372458 11.66277
v 3.247465 2.191554 16.79587
v 2.54157 2.702928 18.03505
v -7.698789 0.7948942 9.326488
v -7.597515 0.4126611 7.30415
v -6.504564 0.4462352 7.497641
v -6.668421 0.9100094 9.660828
v -8.168563 1.177127 11.19097
v -7.200815 1.37382 11.66609
v 5.478462 1.520852 13.60228
v 4.20844 2.398003 17.26764
v 3.240692 2.202377 16.79249
v 4.448132 1.383429 13.26794
v 6.38002 0.7712965 9.778961
v 5.28707 0.7197943 9.58547
v -6.055921 0.1526489 0.0144515
v -6.055958 0.1526856 1.398927
v -7.440433 0.1526856 1.398927
v -7.440433 0.1526856 0.0144515
v 7.440428 0.1526489 1.398927
v 6.055953 0.1526856 1.398927
v 6.055953 0.1526856 0.0144515
v 7.440428 0.1526489 0.0144515
v 6.200592 0.04537487 0.1329904
v 6.200592 0.04537487 1.280903
v -6.200561 0.04537487 1.280903
v -6.200561 0.04537487 0.1329904
vt 0.7268177 0.3108873
vt 0.7454032 0.3108873
vt 0.7454032 0.3294728
vt 0.7268177 0.3294728
vt 0.2482643 0.9960632
vt 0.2482643 0.004242008
vt 0.2482643 0.004242008
vt 0.2482643 0.9960632
vt 0.7454032 0.3294728
vt 0.7454032 0.3294728
vt 0.7454032 0.3108873
vt 0.7454032 0.3108873
vt 0.7268177 0.3108873
vt 0.7268177 0.3294728
vt 0.7268177 0.3294728
vt 0.7268177 0.3108873
vt 0.7268177 0.3294728
vt 0.7454032 0.3294728
vt 0.7454032 0.3108873
vt 0.7268177 0.3108873
vt 0.4972152 0.6657816
vt 0.3457847 0.6657816
vt 0.3457847 0.8264897
vt 0.4972152 0.8264897
vt 0.3457847 0.8264897
vt 0.3457847 0.6657816
vt 0.4972152 0.6657816
vt 0.4972152 0.8264897
vt 0.3422599 0.9944763
vt 0.2539101 0.9944763
vt 0.2539101 0.005127031
vt 0.3422599 0.005127031
vt 0.2532082 0.8010986
vt 0.2532082 0.1985046
vt 0.3430533 0.1985046
vt 0.3430533 0.8010986
vt 0.2532082 0.1985046
vt 0.2532082 0.8010986
vt 0.3430533 0.8010986
vt 0.3430533 0.1985046
vt 0.2532082 0.8010986
vt 0.2532082 0.1985046
vt 0.3430533 0.1985046
vt 0.3430533 0.8010986
vt 0.2532082 0.1985046
vt 0.2532082 0.8010986
vt 0.3430533 0.8010986
vt 0.3430533 0.1985046
vt 0.4972152 0.6657816
vt 0.3457847 0.6657816
vt 0.3457847 0.8264897
vt 0.4972152 0.8264897
vt 0.3457847 0.8264897
vt 0.3457847 0.6657816
vt 0.4972152 0.6657816
vt 0.4972152 0.8264897
vt 0.3422599 0.9944763
vt 0.2539101 0.9944763
vt 0.2539101 0.005127031
vt 0.3422599 0.005127031
vt 0.2532082 0.8010986
vt 0.2532082 0.1985046
vt 0.3430533 0.1985046
vt 0.3430533 0.8010986
vt 0.2532082 0.1985046
vt 0.2532082 0.8010986
vt 0.3430533 0.8010986
vt 0.3430533 0.1985046
vt 0.4972152 0.6657816
vt 0.3457847 0.6657816
vt 0.3457847 0.8264897
vt 0.4972152 0.8264897
vt 0.3457847 0.8264897
vt 0.3457847 0.6657816
vt 0.4972152 0.6657816
vt 0.4972152 0.8264897
vt 0.3422599 0.9944763
vt 0.2539101 0.9944763
vt 0.2539101 0.005127031
vt 0.3422599 0.005127031
vt 0.2532082 0.4998093
vt 0.2532082 0.1985046
vt 0.3430533 0.1985046
vt 0.3430533 0.4998093
vt 0.2532082 0.8010986
vt 0.3430533 0.8010986
vt 0.2532082 0.4998093
vt 0.2532082 0.8010986
vt 0.3430533 0.8010986
vt 0.3430533 0.4998093
vt 0.2532082 0.1985046
vt 0.3430533 0.1985046
vt 0.4972152 0.6657816
vt 0.3457847 0.6657816
vt 0.3457847 0.8264897
vt 0.4972152 0.8264897
vt 0.3457847 0.8264897
vt 0.3457847 0.6657816
vt 0.4972152 0.6657816
vt 0.4972152 0.8264897
vt 0.3422599 0.9944763
vt 0.2539101 0.9944763
vt 0.2539101 0.005127031
vt 0.3422599 0.005127031
vt 0.2532082 0.4998093
vt 0.2532082 0.1985046
vt 0.3430533 0.1985046
vt 0.3430533 0.4998093
vt 0.2532082 0.8010986
vt 0.3430533 0.8010986
vt 0.2532082 0.4998093
vt 0.2532082 0.8010986
vt 0.3430533 0.8010986
vt 0.3430533 0.4998093
vt 0.2532082 0.1985046
vt 0.3430533 0.1985046
vt 0.4972152 0.6657816
vt 0.3457847 0.6657816
vt 0.3457847 0.8264897
vt 0.4972152 0.8264897
vt 0.3457847 0.8264897
vt 0.3457847 0.6657816
vt 0.4972152 0.6657816
vt 0.4972152 0.8264897
vt 0.3422599 0.9944763
vt 0.2539101 0.9944763
vt 0.2539101 0.005127031
vt 0.3422599 0.005127031
vn 0.42511 0.876231 0.2269379
vn 0.42511 0.876231 0.2269379
vn 0.42511 0.876231 0.2269379
vn 0.42511 0.876231 0.2269379
vn 0.2518336 0.8125784 -0.5256388
vn 0.2518336 0.8125784 -0.5256388
vn 0.2518336 0.8125784 -0.5256388
vn 0.2518336 0.8125784 -0.5256388
vn -0.4483445 0.8567816 -0.2547794
vn -0.4483445 0.8567816 -0.2547794
vn -0.4483445 0.8567816 -0.2547794
vn -0.4483445 0.8567816 -0.2547794
vn 0.8087934 0.3104305 -0.4994858
vn 0.8087934 0.3104305 -0.4994858
vn 0.8087934 0.3104305 -0.4994858
vn 0.8087934 0.3104305 -0.4994858
vn -0.07350165 0.2591549 -0.9630349
vn -0.07350165 0.2591549 -0.9630349
vn -0.07350165 0.2591549 -0.9630349
vn -0.07350165 0.2591549 -0.9630349
vn -0.01161718 0.9946954 -0.102206
vn -0.01161718 0.9946954 -0.102206
vn -0.01161718 0.9946954 -0.102206
vn -0.01161718 0.9946954 -0.102206
vn -0.01515347 0.9964637 -0.08264692
vn -0.01515347 0.9964637 -0.08264692
vn -0.01515347 0.9964637 -0.08264692
vn -0.01515347 0.9964637 -0.08264692
vn -0.01692158 0.9964637 -0.08230328
vn -0.01692158 0.9964637 -0.08230328
vn -0.01692158 0.9964637 -0.08230328
vn -0.01692158 0.9964637 -0.08230328
vn -0.008080959 0.9982318 -0.05889004
vn -0.008080959 0.9982318 -0.05889004
vn -0.008080959 0.9982318 -0.05889004
vn -0.008080959 0.9982318 -0.05889004
vn -0.006312847 0.9946954 -0.1026701
vn -0.006312847 0.9946954 -0.1026701
vn -0.006312847 0.9946954 -0.1026701
vn -0.006312847 0.9946954 -0.1026701
vn 0.02904969 0.8833035 -0.4679007
vn 0.02904969 0.8833035 -0.4679007
vn 0.02904969 0.8833035 -0.4679007
vn 0.02904969 0.8833035 -0.4679007
vn 0.09623849 0.8673904 -0.4882336
vn 0.09623849 0.8673904 -0.4882336
vn 0.09623849 0.8673904 -0.4882336
vn 0.09623849 0.8673904 -0.4882336
vn 0.06971657 0.8744628 -0.4800566
vn 0.06971657 0.8744628 -0.4800566
vn 0.06971657 0.8744628 -0.4800566
vn 0.06971657 0.8744628 -0.4800566
vn -0.002776563 0.890376 -0.4552175
vn -0.002776563 0.890376 -0.4552175
vn -0.002776563 0.890376 -0.4552175
vn -0.002776563 0.890376 -0.4552175
vn 0.06441224 0.9027529 -0.4253097
vn 0.06441224 0.9027529 -0.4253097
vn 0.06441224 0.9027529 -0.4253097
vn 0.06441224 0.9027529 -0.4253097
vn 0.009600282 0.9009848 -0.4337445
vn 0.009600282 0.9009848 -0.4337445
vn 0.009600282 0.9009848 -0.4337445
vn 0.009600282 0.9009848 -0.4337445
vn 0.08562976 0.8744628 -0.4774749
vn 0.08562976 0.8744628 -0.4774749
vn 0.08562976 0.8744628 -0.4774749
vn 0.08562976 0.8744628 -0.4774749
vn 0.05557162 0.8974485 -0.4376048
vn 0.05557162 0.8974485 -0.4376048
vn 0.05557162 0.8974485 -0.4376048
vn 0.05557162 0.8974485 -0.4376048
vn 0.01667279 0.9098254 -0.4146561
vn 0.01667279 0.9098254 -0.4146561
vn 0.01667279 0.9098254 -0.4146561
vn 0.01667279 0.9098254 -0.4146561
vn 0.09270227 0.918666 -0.3840039
vn 0.09270227 0.918666 -0.3840039
vn 0.09270227 0.918666 -0.3840039
vn 0.09270227 0.918666 -0.3840039
vn -0.03283471 0.9310429 -0.3634295
vn -0.05405223 0.9416517 -0.3322205
vn -0.05405223 0.9416517 -0.3322205
vn -0.03283471 0.9310429 -0.3634295
vn -0.01338536 0.9204341 -0.3906685
vn -0.01338536 0.9204341 -0.3906685
vn -0.004544675 0.904521 -0.4264049
vn 0.02197719 0.890376 -0.4546951
vn 0.02197719 0.890376 -0.4546951
vn -0.006312847 0.9062891 -0.4226111
vn -0.03637099 0.918666 -0.3933572
vn -0.03637099 0.918666 -0.3933572
vn -0.004544675 0.9239705 -0.3824368
vn -0.004544675 0.9239705 -0.3824368
vn -0.004544675 0.9239705 -0.3824368
vn -0.004544675 0.9239705 -0.3824368
vn -0.06642914 0.9575648 -0.2804582
vn -0.06642914 0.9575648 -0.2804582
vn -0.06642914 0.9575648 -0.2804582
vn -0.06642914 0.9575648 -0.2804582
vn 0.06794846 0.9504923 -0.3032285
vn 0.06794846 0.9504923 -0.3032285
vn 0.06794846 0.9504923 -0.3032285
vn 0.06794846 0.9504923 -0.3032285
vn -0.03637099 0.9770142 -0.2100486
vn -0.01868969 0.9805504 -0.1953755
vn -0.01868969 0.9805504 -0.1953755
vn -0.04167533 0.9752461 -0.2171596
vn -0.05935663 0.9717098 -0.2285974
vn -0.05935663 0.9717098 -0.2285974
vn -0.05051601 0.973478 -0.2231341
vn -0.06112474 0.9664054 -0.2496484
vn -0.06112474 0.9664054 -0.2496484
vn -0.04874784 0.973478 -0.223527
vn -0.03990722 0.9805504 -0.1921674
vn -0.03990722 0.9805504 -0.1921674
vn 0.0007596611 0.9999998 0
vn 0.0007596611 0.9999998 0
vn 0.0007596611 0.9999998 0
vn 0.0007596611 0.9999998 0
vn 0.0007596611 0.9999998 0
vn 0.0007596611 0.9999998 0
vn 0.0007596611 0.9999998 0
vn 0.0007596611 0.9999998 0
vn 0.0007596611 0.9999998 0
vn 0.0007596611 0.9999998 0
vn 0.0007596611 0.9999998 0
vn 0.0007596611 0.9999998 0
g ShadowCollision_0
f 3/3/3 2/2/2 1/1/1
f 4/4/4 3/3/3 1/1/1
f 7/7/7 6/6/6 5/5/5
f 8/8/8 7/7/7 5/5/5
f 11/11/11 10/10/10 9/9/9
f 12/12/12 11/11/11 9/9/9
f 15/15/15 14/14/14 13/13/13
f 16/16/16 15/15/15 13/13/13
f 19/19/19 18/18/18 17/17/17
f 20/20/20 19/19/19 17/17/17
f 23/23/23 22/22/22 21/21/21
f 24/24/24 23/23/23 21/21/21
f 27/27/27 26/26/26 25/25/25
f 28/28/28 27/27/27 25/25/25
f 31/31/31 30/30/30 29/29/29
f 32/32/32 31/31/31 29/29/29
f 35/35/35 34/34/34 33/33/33
f 36/36/36 35/35/35 33/33/33
f 39/39/39 38/38/38 37/37/37
f 40/40/40 39/39/39 37/37/37
f 43/43/43 42/42/42 41/41/41
f 44/44/44 43/43/43 41/41/41
f 47/47/47 46/46/46 45/45/45
f 48/48/48 47/47/47 45/45/45
f 51/51/51 50/50/50 49/49/49
f 52/52/52 51/51/51 49/49/49
f 55/55/55 54/54/54 53/53/53
f 56/56/56 55/55/55 53/53/53
f 59/59/59 58/58/58 57/57/57
f 60/60/60 59/59/59 57/57/57
f 63/63/63 62/62/62 61/61/61
f 64/64/64 63/63/63 61/61/61
f 67/67/67 66/66/66 65/65/65
f 68/68/68 67/67/67 65/65/65
f 71/71/71 70/70/70 69/69/69
f 72/72/72 71/71/71 69/69/69
f 75/75/75 74/74/74 73/73/73
f 76/76/76 75/75/75 73/73/73
f 79/79/79 78/78/78 77/77/77
f 80/80/80 79/79/79 77/77/77
f 83/83/83 82/82/82 81/81/81
f 84/84/84 83/83/83 81/81/81
f 84/84/84 81/81/81 85/85/85
f 86/86/86 84/84/84 85/85/85
f 89/89/89 88/88/88 87/87/87
f 90/90/90 89/89/89 87/87/87
f 90/90/90 87/87/87 91/91/91
f 92/92/92 90/90/90 91/91/91
f 95/95/95 94/94/94 93/93/93
f 96/96/96 95/95/95 93/93/93
f 99/99/99 98/98/98 97/97/97
f 100/100/100 99/99/99 97/97/97
f 103/103/103 102/102/102 101/101/101
f 104/104/104 103/103/103 101/101/101
f 107/107/107 106/106/106 105/105/105
f 108/108/108 107/107/107 105/105/105
f 108/108/108 105/105/105 109/109/109
f 110/110/110 108/108/108 109/109/109
f 113/113/113 112/112/112 111/111/111
f 114/114/114 113/113/113 111/111/111
f 114/114/114 111/111/111 115/115/115
f 116/116/116 114/114/114 115/115/115
f 119/119/119 118/118/118 117/117/117
f 120/120/120 119/119/119 117/117/117
f 123/123/123 122/122/122 121/121/121
f 124/124/124 123/123/123 121/121/121
f 127/127/127 126/126/126 125/125/125
f 128/128/128 127/127/127 125/125/125
