g ShadowCollision
v -5.76368 0.01603651 9.126196
v -7.177863 0.01603651 9.126196
v -7.177863 0.01603651 1.635152
v -5.76368 0.01603651 1.635152
v 5.763671 0.01603651 1.635152
v 7.1779 0.01603651 1.635152
v 7.1779 0.01603651 9.126196
v 5.763671 0.01603651 9.126196
v 5.636539 0.1471825 -0.1530995
v 7.275629 0.1471825 -0.1530995
v 7.275629 0.1471825 1.635152
v 5.636539 0.1471825 1.635152
v -7.275639 0.1471825 1.635152
v -7.275639 0.1471825 -0.1530995
v -5.636549 0.1471825 -0.1530995
v -5.636549 0.1471825 1.635152
v -5.636549 0.01603651 -1.859665E-05
v 5.636539 0.01603651 -1.859665E-05
v 5.636539 0.01603651 1.482724
v -5.636549 0.01603651 1.482724
v -5.76368 0.01603651 10.9151
v -7.177863 0.01603651 18.40615
v -7.177863 0.01603651 10.9151
v -5.76368 0.01603651 18.40615
v 5.763671 0.01603651 18.40615
v 7.1779 0.01603651 10.9151
v 7.1779 0.01603651 18.40615
v 5.763671 0.01603651 10.9151
v 5.636539 0.1471825 20.1944
v 5.636539 0.1471825 18.40615
v 7.275629 0.1471825 18.40615
v 7.275629 0.1471825 20.1944
v -7.275639 0.1471825 18.40615
v -5.636549 0.1471825 18.40615
v -5.636549 0.1471825 20.1944
v -7.275639 0.1471825 20.1944
v -5.636549 0.01603651 20.04127
v -5.636549 0.01603651 18.55857
v 5.636539 0.01603651 18.55857
v 5.636539 0.01603651 20.04127
v -5.76368 0.01603651 20.1944
v -7.177863 0.01603651 27.68544
v -7.177863 0.01603651 20.1944
v -5.76368 0.01603651 27.68544
v 5.763671 0.01603651 27.68544
v 7.1779 0.01603651 20.1944
v 7.1779 0.01603651 27.68544
v 5.763671 0.01603651 20.19435
v 5.636539 0.1471825 29.47365
v 5.636539 0.1471825 27.68544
v 7.275629 0.1471825 27.68544
v 7.275629 0.1471825 29.47365
v -7.275639 0.1471825 27.68544
v -5.636549 0.1471825 27.68544
v -5.636549 0.1471825 29.47365
v -7.275639 0.1471825 29.47365
v -5.636549 0.01603651 29.32057
v -5.636549 0.01603651 27.83787
v 5.636539 0.01603651 27.83787
v 5.636539 0.01603651 29.32057
v -5.76368 0.01603651 29.47365
v -7.177863 0.01603651 36.96474
v -7.177863 0.01603651 29.47365
v -5.76368 0.01603651 36.96474
v 5.763671 0.01603651 36.96474
v 7.1779 0.01603651 29.47365
v 7.1779 0.01603651 36.96474
v 5.763671 0.01603651 29.47365
v -7.275639 0.1471825 36.96474
v -7.084147 0.1471825 36.96474
v -7.084147 0.1471825 38.75294
v -7.275639 0.1471825 38.75294
v -7.109396 1.461721 41.66256
v -7.109396 0.3237395 36.95872
v 7.115967 0.3237395 36.95872
v 7.115967 1.461721 41.66256
v 5.636539 0.1471825 9.126196
v 7.275629 0.1471825 9.126196
v 7.275629 0.1471825 10.91445
v 5.636539 0.1471825 10.91445
v -5.636549 0.01603651 9.279278
v 5.636539 0.01603651 9.279278
v 5.636539 0.01603651 10.76197
v -5.636549 0.01603651 10.76197
v -7.275639 0.1471825 10.91445
v -7.275639 0.1471825 9.126196
v -5.636549 0.1471825 9.126196
v -5.636549 0.1471825 10.91445
v 7.090672 0.1471825 36.96474
v 7.275629 0.1471825 36.96474
v 7.275629 0.1471825 38.75294
v 7.090672 0.1471825 38.75294
vt 0.3430644 0.1985162
vt 0.2532105 0.1985162
vt 0.2532105 0.8010898
vt 0.3430644 0.8010898
vt 0.3430644 0.8010898
vt 0.2532105 0.8010898
vt 0.2532105 0.1985162
vt 0.3430644 0.1985162
vt 0.4972139 0.6657805
vt 0.4972139 0.8264971
vt 0.3457968 0.8264971
vt 0.3457968 0.6657805
vt 0.3457968 0.8264971
vt 0.4972139 0.8264971
vt 0.4972139 0.6657805
vt 0.3457968 0.6657805
vt 0.3422643 0.9944749
vt 0.3422643 0.005131
vt 0.25392 0.005131
vt 0.25392 0.9944749
vt 0.3430644 0.1985162
vt 0.2532105 0.8010898
vt 0.2532105 0.1985162
vt 0.3430644 0.8010898
vt 0.3430644 0.8010898
vt 0.2532105 0.1985162
vt 0.2532105 0.8010898
vt 0.3430644 0.1985162
vt 0.4972139 0.6657805
vt 0.3457968 0.6657805
vt 0.3457968 0.8264971
vt 0.4972139 0.8264971
vt 0.3457968 0.8264971
vt 0.3457968 0.6657805
vt 0.4972139 0.6657805
vt 0.4972139 0.8264971
vt 0.3422643 0.9944749
vt 0.25392 0.9944749
vt 0.25392 0.005131
vt 0.3422643 0.005131
vt 0.3430644 0.1985162
vt 0.2532105 0.8010898
vt 0.2532105 0.1985162
vt 0.3430644 0.8010898
vt 0.3430644 0.8010898
vt 0.2532105 0.1985162
vt 0.2532105 0.8010898
vt 0.3430644 0.1985162
vt 0.4972139 0.6657805
vt 0.3457968 0.6657805
vt 0.3457968 0.8264971
vt 0.4972139 0.8264971
vt 0.3457968 0.8264971
vt 0.3457968 0.6657805
vt 0.4972139 0.6657805
vt 0.4972139 0.8264971
vt 0.3422643 0.9944749
vt 0.25392 0.9944749
vt 0.25392 0.005131
vt 0.3422643 0.005131
vt 0.3430644 0.1985162
vt 0.2532105 0.8010898
vt 0.2532105 0.1985162
vt 0.3430644 0.8010898
vt 0.3430644 0.8010898
vt 0.2532105 0.1985162
vt 0.2532105 0.8010898
vt 0.3430644 0.1985162
vt 0.3457968 0.8264971
vt 0.3457968 0.7461388
vt 0.4972139 0.7461388
vt 0.4972139 0.8264971
vt 0.3422643 0.9944749
vt 0.25392 0.9944749
vt 0.25392 0.005131
vt 0.3422643 0.005131
vt 0.4972139 0.6657805
vt 0.4972139 0.8264971
vt 0.3457968 0.8264971
vt 0.3457968 0.6657805
vt 0.3422643 0.9944749
vt 0.3422643 0.005131
vt 0.25392 0.005131
vt 0.25392 0.9944749
vt 0.3457968 0.8264971
vt 0.4972139 0.8264971
vt 0.4972139 0.6657805
vt 0.3457968 0.6657805
vt 0.3457968 0.7461388
vt 0.3457968 0.8264971
vt 0.4972139 0.8264971
vt 0.4972139 0.7461388
vn 0 1 0
vn 0 1 0
vn 0 1 0
vn 0 1 0
vn 0 1 0
vn 0 1 0
vn 0 1 0
vn 0 1 0
vn 0 1 0
vn 0 1 0
vn 0 1 0
vn 0 1 0
vn 0 1 0
vn 0 1 0
vn 0 1 0
vn 0 1 0
vn 0 1 0
vn 0 1 0
vn 0 1 0
vn 0 1 0
vn 0 1 0
vn 0 1 0
vn 0 1 0
vn 0 1 0
vn 0 1 0
vn 0 1 0
vn 0 1 0
vn 0 1 0
vn 0 1 0
vn 0 1 0
vn 0 1 0
vn 0 1 0
vn 0 1 0
vn 0 1 0
vn 0 1 0
vn 0 1 0
vn 0 1 0
vn 0 1 0
vn 0 1 0
vn 0 1 0
vn 0 1 0
vn 0 1 0
vn 0 1 0
vn 0 1 0
vn 0 1 0
vn 0 1 0
vn 0 1 0
vn 0 1 0
vn 0 1 0
vn 0 1 0
vn 0 1 0
vn 0 1 0
vn 0 1 0
vn 0 1 0
vn 0 1 0
vn 0 1 0
vn 0 1 0
vn 0 1 0
vn 0 1 0
vn 0 1 0
vn 0 1 0
vn 0 1 0
vn 0 1 0
vn 0 1 0
vn 0 1 0
vn 0 1 0
vn 0 1 0
vn 0 1 0
vn 0 1 0
vn 0 1 0
vn 0 1 0
vn 0 1 0
vn 0 1 0
vn 0 1 0
vn 0 1 0
vn 0 1 0
vn 0 1 0
vn 0 1 0
vn 0 1 0
vn 0 1 0
vn 0 1 0
vn 0 1 0
vn 0 1 0
vn 0 1 0
vn 0 1 0
vn 0 1 0
vn 0 1 0
vn 0 1 0
vn 0 1 0
vn 0 1 0
vn 0 1 0
vn 0 1 0
g ShadowCollision_0
f 3/3/3 2/2/2 1/1/1
f 1/1/1 4/4/4 3/3/3
f 7/7/7 6/6/6 5/5/5
f 5/5/5 8/8/8 7/7/7
f 11/11/11 10/10/10 9/9/9
f 12/12/12 11/11/11 9/9/9
f 15/15/15 14/14/14 13/13/13
f 16/16/16 15/15/15 13/13/13
f 19/19/19 18/18/18 17/17/17
f 20/20/20 19/19/19 17/17/17
f 23/23/23 22/22/22 21/21/21
f 24/24/24 21/21/21 22/22/22
f 27/27/27 26/26/26 25/25/25
f 28/28/28 25/25/25 26/26/26
f 31/31/31 30/30/30 29/29/29
f 32/32/32 31/31/31 29/29/29
f 35/35/35 34/34/34 33/33/33
f 36/36/36 35/35/35 33/33/33
f 39/39/39 38/38/38 37/37/37
f 40/40/40 39/39/39 37/37/37
f 43/43/43 42/42/42 41/41/41
f 44/44/44 41/41/41 42/42/42
f 47/47/47 46/46/46 45/45/45
f 48/48/48 45/45/45 46/46/46
f 51/51/51 50/50/50 49/49/49
f 52/52/52 51/51/51 49/49/49
f 55/55/55 54/54/54 53/53/53
f 56/56/56 55/55/55 53/53/53
f 59/59/59 58/58/58 57/57/57
f 60/60/60 59/59/59 57/57/57
f 63/63/63 62/62/62 61/61/61
f 64/64/64 61/61/61 62/62/62
f 67/67/67 66/66/66 65/65/65
f 68/68/68 65/65/65 66/66/66
f 71/71/71 70/70/70 69/69/69
f 72/72/72 71/71/71 69/69/69
f 75/75/75 74/74/74 73/73/73
f 76/76/76 75/75/75 73/73/73
f 79/79/79 78/78/78 77/77/77
f 80/80/80 79/79/79 77/77/77
f 83/83/83 82/82/82 81/81/81
f 84/84/84 83/83/83 81/81/81
f 87/87/87 86/86/86 85/85/85
f 88/88/88 87/87/87 85/85/85
f 91/91/91 90/90/90 89/89/89
f 92/92/92 91/91/91 89/89/89
