g ShadowCollision
v -2.145767E-06 0.08722806 2.772274
v -2.145767E-06 0.08722806 2.145767E-06
v 0.8566792 0.08722806 2.636592
v 1.629503 0.08722806 2.242817
v 2.242818 0.08722806 1.629502
v 2.636588 0.08722806 0.8566785
v 2.772275 0.08722806 2.145767E-06
v 2.636593 0.08722806 -0.8566792
v 2.242818 0.08722806 -1.629503
v 1.629503 0.08722806 -2.242818
v 0.8566792 0.08722806 -2.636588
v -2.145767E-06 0.08722806 -2.772275
v -0.8566785 0.08722806 -2.636588
v -1.629502 0.08722806 -2.242818
v -2.242817 0.08722806 -1.629503
v -2.636592 0.08722806 -0.8566792
v -2.772274 0.08722806 2.145767E-06
v -2.636592 0.08722806 0.8566785
v -2.242817 0.08722806 1.629502
v -1.629502 0.08722806 2.242817
v -0.8566785 0.08722806 2.636592
vt 0.5171094 0.2536029
vt 0.5171094 0.404308
vt 0.5636785 0.2609725
vt 0.605697 0.2823862
vt 0.6390311 0.3157204
vt 0.6604449 0.3577389
vt 0.6678145 0.404308
vt 0.6604449 0.4508646
vt 0.6390311 0.4928893
vt 0.605697 0.5262234
vt 0.5636785 0.5476372
vt 0.5171094 0.5550069
vt 0.4705402 0.5476372
vt 0.428528 0.5262234
vt 0.3951939 0.4928893
vt 0.3737802 0.4508646
vt 0.3664105 0.404308
vt 0.3737802 0.3577389
vt 0.3951939 0.3157204
vt 0.428528 0.2823862
vt 0.4705402 0.2609725
vn 0 1 0
vn 0 1 0
vn 0 1 0
vn 0 1 0
vn 0 1 0
vn 0 1 0
vn 0 1 0
vn 0 1 0
vn 0 1 0
vn 0 1 0
vn 0 1 0
vn 0 1 0
vn 0 1 0
vn 0 1 0
vn 0 1 0
vn 0 1 0
vn 0 1 0
vn 0 1 0
vn 0 1 0
vn 0 1 0
vn 0 1 0
g ShadowCollision_0
f 3/3/3 2/2/2 1/1/1
f 4/4/4 2/2/2 3/3/3
f 5/5/5 2/2/2 4/4/4
f 6/6/6 2/2/2 5/5/5
f 7/7/7 2/2/2 6/6/6
f 8/8/8 2/2/2 7/7/7
f 9/9/9 2/2/2 8/8/8
f 10/10/10 2/2/2 9/9/9
f 11/11/11 2/2/2 10/10/10
f 12/12/12 2/2/2 11/11/11
f 13/13/13 2/2/2 12/12/12
f 14/14/14 2/2/2 13/13/13
f 15/15/15 2/2/2 14/14/14
f 16/16/16 2/2/2 15/15/15
f 17/17/17 2/2/2 16/16/16
f 18/18/18 2/2/2 17/17/17
f 19/19/19 2/2/2 18/18/18
f 20/20/20 2/2/2 19/19/19
f 21/21/21 2/2/2 20/20/20
f 1/1/1 2/2/2 21/21/21
