g ShadowCollision
v -1.430511E-06 0.09943533 -0.7925739
v 2.899997 0.09943533 -0.7925739
v 2.899997 0.09942722 -0.1000013
v -1.430511E-06 0.09942722 -0.1000013
v 2.899997 0.09943533 -5.493505
v 2.899997 0.09943533 -4.59193
v -1.430511E-06 0.09943533 -4.59193
v -1.430511E-06 0.09943533 -5.493505
v 2.899997 0.09943533 -0.7925739
v -1.430511E-06 0.09943533 -0.7925739
v -1.430511E-06 0.09942722 -0.1000013
v 2.899997 0.09942722 -0.1000013
v 2.899997 -0.0005669594 1.430511E-06
v -1.430511E-06 -0.0005669594 1.430511E-06
v -1.430511E-06 0.09943533 -0.7925739
v -1.430511E-06 0.09942722 -0.1000013
v -2.9 0.09942722 -0.1000013
v -2.9 0.09943533 -0.7925739
v -2.9 0.09943533 -5.493505
v -1.430511E-06 0.09943533 -5.493505
v -1.430511E-06 0.09943533 -4.59193
v -2.9 0.09943533 -4.59193
v -2.9 0.09943533 -0.7925739
v -1.430511E-06 0.09943533 -0.7925739
v -1.430511E-06 0.09942722 -0.1000013
v -1.430511E-06 -0.0005669594 1.430511E-06
v -2.9 -0.0005669594 1.430511E-06
v -2.9 0.09942722 -0.1000013
vt 0.006439307 0.0713817
vt 0.1876249 0.0713817
vt 0.1876249 0.004242008
vt 0.006439307 0.004242008
vt 0.1876249 0.9960632
vt 0.1876249 0.928069
vt 0.006439307 0.928069
vt 0.006439307 0.9960632
vt 0.1876249 0.540383
vt 0.006439307 0.540383
vt 0.06387427 0.4906996
vt 0.08247501 0.4906996
vt 0.08247501 0.5093004
vt 0.06387427 0.5093004
vt 0.006439307 0.0713817
vt 0.006439307 0.004242008
vt 0.1876249 0.004242008
vt 0.1876249 0.0713817
vt 0.1876249 0.9960632
vt 0.006439307 0.9960632
vt 0.006439307 0.928069
vt 0.1876249 0.928069
vt 0.1876249 0.540383
vt 0.006439307 0.540383
vt 0.06387427 0.4906996
vt 0.06387427 0.5093004
vt 0.08247501 0.5093004
vt 0.08247501 0.4906996
vn 0 1 0
vn 0 1 0
vn 0 1 0
vn 0 1 0
vn 0 1 0
vn 0 1 0
vn 0 1 0
vn 0 1 0
vn 0 1 0
vn 0 1 0
vn 0 0.7067448 0.7074685
vn 0 0.7067448 0.7074685
vn 0 0.7067448 0.7074685
vn 0 0.7067448 0.7074685
vn 0 1 0
vn 0 1 0
vn 0 1 0
vn 0 1 0
vn 0 1 0
vn 0 1 0
vn 0 1 0
vn 0 1 0
vn 0 1 0
vn 0 1 0
vn 0 0.7067448 0.7074685
vn 0 0.7067448 0.7074685
vn 0 0.7067448 0.7074685
vn 0 0.7067448 0.7074685
g ShadowCollision_0
f 3/3/3 2/2/2 1/1/1
f 4/4/4 3/3/3 1/1/1
f 7/7/7 6/6/6 5/5/5
f 8/8/8 7/7/7 5/5/5
f 9/9/9 6/6/6 7/7/7
f 10/10/10 9/9/9 7/7/7
f 13/13/13 12/12/12 11/11/11
f 14/14/14 13/13/13 11/11/11
f 17/17/17 16/16/16 15/15/15
f 18/18/18 17/17/17 15/15/15
f 21/21/21 20/20/20 19/19/19
f 22/22/22 21/21/21 19/19/19
f 22/22/22 23/23/23 21/21/21
f 23/23/23 24/24/24 21/21/21
f 27/27/27 26/26/26 25/25/25
f 28/28/28 27/27/27 25/25/25
