g ShadowCollision
v 13.63467 2.380621 -3.653395
v 18.01593 1.373846 -4.82737
v 18.65146 1.373846 1.907349E-05
v 14.11567 2.380621 1.907349E-05
v -1.907349E-05 2.903389 1.907349E-05
v 12.22449 2.380621 -7.057825
v 16.15264 1.373846 -9.325741
v 9.981297 2.380621 -9.981259
v 13.18858 1.373846 -13.18858
v 7.057825 2.380621 -12.22449
v 9.325741 1.373846 -16.15264
v 3.653395 2.380621 -13.63467
v 4.82737 1.373846 -18.01593
v 1.907349E-05 2.380621 -14.11567
v -1.907349E-05 1.373846 -18.65146
v -3.653397 2.380621 -13.63467
v -4.82737 1.373846 -18.01593
v -7.057825 2.380621 -12.22453
v -9.325743 1.373846 -16.15264
v -9.981298 2.380621 -9.981259
v -13.18859 1.373846 -13.18858
v -12.22453 2.380621 -7.057825
v -16.15264 1.373846 -9.325741
v -13.63468 2.380621 -3.653395
v -18.01594 1.373846 -4.82737
v -14.11567 2.380621 1.907349E-05
v -18.65146 1.373846 1.907349E-05
v -13.63468 2.380621 3.653397
v -18.01594 1.373846 4.82737
v -12.22453 2.380621 7.057825
v -16.15264 1.373846 9.325743
v -9.981298 2.380621 9.981298
v -13.18859 1.373846 13.18859
v -7.057825 2.380621 12.22453
v -9.325743 1.373846 16.15264
v -3.653397 2.380621 13.63468
v -4.82737 1.373846 18.01594
v 1.907349E-05 2.380621 14.11567
v -1.907349E-05 1.373846 18.6515
v 3.653395 2.380621 13.63468
v 4.82737 1.373846 18.01597
v 7.057825 2.380621 12.22453
v 9.325741 1.373846 16.15268
v 9.981297 2.380621 9.981298
v 13.18858 1.373846 13.18859
v 12.22453 2.380621 7.057825
v 16.15264 1.373846 9.325743
v 13.63467 2.380621 3.653397
v 18.01593 1.373846 4.82737
v -1.907349E-05 0.3593636 19.6962
v 5.097755 0.3593636 19.02508
v 5.176376 -0.5481911 19.3185
v -1.907349E-05 -0.5481911 20
v -5.097757 0.3593636 19.02508
v -9.848089 0.3593636 17.05742
v -13.9273 0.3593636 13.9273
v -17.05742 0.3593636 9.848089
v -19.02508 0.3593636 5.097757
v -19.6962 0.3593636 1.907349E-05
v -19.02508 0.3593636 -5.097755
v -17.05742 0.3593636 -9.848088
v -13.9273 0.3593636 -13.9273
v -9.848089 0.3593636 -17.05742
v -5.097757 0.3593636 -19.02504
v -1.907349E-05 0.3593636 -19.6962
v 5.097755 0.3593636 -19.02504
v 9.848088 0.3593636 -17.05742
v 13.9273 0.3593636 -13.9273
v 17.05742 0.3593636 -9.848088
v 19.02508 0.3593636 -5.097755
v 19.6962 0.3593636 1.907349E-05
v 19.3185 -0.5481911 -5.176376
v 20 -0.5481911 1.907349E-05
v 17.32048 -0.5481911 -9.99999
v 14.14214 -0.5481911 -14.14214
v 9.99999 -0.5481911 -17.32048
v 5.176376 -0.5481911 -19.3185
v 19.02508 0.3593636 5.097757
v 17.05742 0.3593636 9.848089
v 13.9273 0.3593636 13.92734
v 9.848088 0.3593636 17.05742
v 9.99999 -0.5481911 17.32048
v 14.14214 -0.5481911 14.14215
v 17.32051 -0.5481911 9.99999
v 19.3185 -0.5481911 5.176378
v -1.907349E-05 -0.5481911 -20
v -5.176378 -0.5481911 -19.3185
v -9.99999 -0.5481911 -17.32048
v -14.14215 -0.5481911 -14.14214
v -17.32052 -0.5481911 -9.99999
v -19.3185 -0.5481911 -5.176376
v -20 -0.5481911 1.907349E-05
v -19.3185 -0.5481911 5.176378
v -17.32052 -0.5481911 9.99999
v -14.14215 -0.5481911 14.14215
v -9.99999 -0.5481911 17.32048
v -5.176378 -0.5481911 19.3185
vt 0.8406277 0.4281676
vt 0.9029459 0.4458201
vt 0.9136184 0.3728428
vt 0.848852 0.3719095
vt 0.6311107 0.3687848
vt 0.818119 0.4803676
vt 0.8737414 0.5135489
vt 0.7828681 0.5249656
vt 0.8280072 0.5714167
vt 0.7372692 0.5589179
vt 0.7688544 0.6154736
vt 0.6844469 0.5799116
vt 0.7003139 0.6427166
vt 0.627986 0.5865262
vt 0.6270525 0.6512927
vt 0.5717279 0.5783019
vt 0.5540753 0.64062
vt 0.5195278 0.5557932
vt 0.4863465 0.6114155
vt 0.4749298 0.5205423
vt 0.4284787 0.5656813
vt 0.4409775 0.4749433
vt 0.3844218 0.5065285
vt 0.4199838 0.4221211
vt 0.3571787 0.437988
vt 0.4133692 0.3656601
vt 0.3486027 0.3647267
vt 0.4215935 0.309402
vt 0.3592754 0.2917495
vt 0.4441022 0.2572019
vt 0.3884798 0.2240206
vt 0.4793531 0.212604
vt 0.4342141 0.1661528
vt 0.5249521 0.1786516
vt 0.4933669 0.1220959
vt 0.5777743 0.157658
vt 0.5619073 0.09485289
vt 0.6342353 0.1510434
vt 0.6351687 0.08627689
vt 0.6904799 0.1592677
vt 0.708146 0.09694956
vt 0.7426934 0.1817763
vt 0.7758747 0.126154
vt 0.7872914 0.2170272
vt 0.8337426 0.1718882
vt 0.8212438 0.2626262
vt 0.8777995 0.231041
vt 0.8422374 0.3154485
vt 0.9050425 0.2995815
vt 0.6353986 0.07088336
vt 0.7123528 0.0821512
vt 0.7162349 0.06850263
vt 0.6356151 0.05670723
vt 0.5581604 0.0799328
vt 0.485873 0.1086503
vt 0.4235008 0.1551014
vt 0.3752641 0.2161209
vt 0.3444771 0.2875426
vt 0.3332092 0.3644968
vt 0.3422451 0.441735
vt 0.3709761 0.5140224
vt 0.4174273 0.5763946
vt 0.4784468 0.6246313
vt 0.5498549 0.6554184
vt 0.6268091 0.6666862
vt 0.7040608 0.6576502
vt 0.7763346 0.6289192
vt 0.8387204 0.5824682
vt 0.8869572 0.5214486
vt 0.9177442 0.4500405
vt 0.9290121 0.3730728
vt 0.9313928 0.4539091
vt 0.9431882 0.3732892
vt 0.8991177 0.528726
vt 0.848595 0.5926539
vt 0.7832469 0.6413099
vt 0.7075237 0.6713935
vt 0.9199626 0.2958346
vt 0.8912451 0.2235607
vt 0.844794 0.161175
vt 0.7837745 0.1129383
vt 0.7910519 0.1007777
vt 0.8549662 0.1513004
vt 0.9036357 0.2166485
vt 0.9337194 0.2923717
vt 0.6266062 0.6808623
vt 0.5459863 0.6690669
vt 0.4711694 0.6367919
vt 0.4072416 0.5862691
vt 0.3585855 0.5209211
vt 0.3285019 0.4451979
vt 0.3190331 0.3642803
vt 0.3308285 0.2836604
vt 0.3631035 0.2088435
vt 0.4136262 0.1449292
vt 0.4789743 0.09625969
vt 0.5546975 0.06617601
vn 0.117769 0.9923832 -0.03613859
vn 0.357699 0.9295444 -0.08943481
vn 0.3707107 0.9287484 0
vn 0.1215774 0.9923832 -0.01986111
vn -0.0002917647 1 0
vn 0.1063437 0.9923832 -0.06218161
vn 0.3215191 0.9295444 -0.1804787
vn 0.08730173 0.9923832 -0.08691338
vn 0.2624887 0.9295444 -0.258934
vn 0.06064284 0.9923832 -0.1072286
vn 0.1863204 0.9295444 -0.3181695
vn 0.03207976 0.9923832 -0.1189386
vn 0.09682274 0.9295444 -0.3557703
vn -0.0002917647 0.9923832 -0.1231887
vn -0.0002917647 0.9295444 -0.36871
vn -0.03266329 0.9923832 -0.1187799
vn -0.09550214 0.9295444 -0.356127
vn -0.06122637 0.9923832 -0.1068965
vn -0.1849998 0.9295444 -0.3189391
vn -0.08598101 0.9923832 -0.08821994
vn -0.2630723 0.9295444 -0.258341
vn -0.1069273 0.9923832 -0.0611727
vn -0.3221027 0.9295444 -0.1794352
vn -0.1183525 0.9923832 -0.03417882
vn -0.3582826 0.9295444 -0.0870672
vn -0.122161 0.9923832 -0.0158804
vn -0.371612 0.9276402 -0.03725845
vn -0.1183525 0.9923832 0.03417882
vn -0.3582826 0.9295444 0.0870672
vn -0.1069273 0.9923832 0.0611727
vn -0.3221027 0.9295444 0.1794352
vn -0.08598101 0.9923832 0.08821994
vn -0.2630723 0.9295444 0.258341
vn -0.06122637 0.9923832 0.1068965
vn -0.1849998 0.9295444 0.3189391
vn -0.03266329 0.9923832 0.1187799
vn -0.09550214 0.9295444 0.356127
vn -0.0002917647 0.9923832 0.1231887
vn -0.0002917647 0.9295444 0.36871
vn 0.03207976 0.9923832 0.1189386
vn 0.09682274 0.9295444 0.3557703
vn 0.06064284 0.9923832 0.1072286
vn 0.1863204 0.9295444 0.3181695
vn 0.08730173 0.9923832 0.08691338
vn 0.2624887 0.9295444 0.258934
vn 0.1063437 0.9923832 0.06218161
vn 0.3215191 0.9295444 0.1804787
vn 0.117769 0.9923832 0.03613859
vn 0.357699 0.9295444 0.08943481
vn -0.0002917647 0.5620326 0.8271151
vn 0.2129793 0.5620326 0.7992241
vn 0.2453508 0.3182942 0.915692
vn -0.0002917647 0.3182942 0.947992
vn -0.2135628 0.5620326 0.7990683
vn -0.4135045 0.5620326 0.7163333
vn -0.5848831 0.5620326 0.5848343
vn -0.7162733 0.5620326 0.4136084
vn -0.7981542 0.5620326 0.2169543
vn -0.8267173 0.5620326 -0.02565045
vn -0.7981542 0.5620326 -0.2169543
vn -0.7162733 0.5620326 -0.4136084
vn -0.5848831 0.5620326 -0.5848343
vn -0.4135045 0.5620326 -0.7163333
vn -0.2135628 0.5620326 -0.7990683
vn -0.0002917647 0.5620326 -0.8271151
vn 0.2129793 0.5620326 -0.7992241
vn 0.412921 0.5620326 -0.7166698
vn 0.5842996 0.5620326 -0.5854173
vn 0.7156898 0.5620326 -0.4146173
vn 0.7975706 0.5620326 -0.21909
vn 0.8261337 0.5620326 -0.04027914
vn 0.9156314 0.3182942 -0.2455768
vn 0.9479931 0.3182909 0
vn 0.8204211 0.3182942 -0.4749717
vn 0.6699888 0.3182942 -0.6706742
vn 0.4738556 0.3182942 -0.8210662
vn 0.2453508 0.3182942 -0.915692
vn 0.7975706 0.5620326 0.21909
vn 0.7156898 0.5620326 0.4146173
vn 0.5842996 0.5620326 0.5854173
vn 0.412921 0.5620326 0.7166698
vn 0.4738556 0.3182942 0.8210662
vn 0.6699888 0.3182942 0.6706742
vn 0.8204211 0.3182942 0.4749717
vn 0.9156314 0.3182942 0.2455768
vn -0.0002917647 0.3182942 -0.947992
vn -0.2459344 0.3182942 -0.9155354
vn -0.4744391 0.3182942 -0.8207291
vn -0.6705724 0.3182942 -0.6700907
vn -0.8210046 0.3182942 -0.4739622
vn -0.9162149 0.3182942 -0.2433906
vn -0.9480521 0.3181149 0
vn -0.9162149 0.3182942 0.2433906
vn -0.8210046 0.3182942 0.4739622
vn -0.6705724 0.3182942 0.6700907
vn -0.4744391 0.3182942 0.8207291
vn -0.2459344 0.3182942 0.9155354
g ShadowCollision_0
f 3/3/3 2/2/2 1/1/1
f 4/4/4 3/3/3 1/1/1
f 1/1/1 5/5/5 4/4/4
f 6/6/6 5/5/5 1/1/1
f 1/1/1 2/2/2 6/6/6
f 2/2/2 7/7/7 6/6/6
f 8/8/8 5/5/5 6/6/6
f 6/6/6 7/7/7 8/8/8
f 7/7/7 9/9/9 8/8/8
f 10/10/10 5/5/5 8/8/8
f 8/8/8 9/9/9 10/10/10
f 9/9/9 11/11/11 10/10/10
f 12/12/12 5/5/5 10/10/10
f 10/10/10 11/11/11 12/12/12
f 11/11/11 13/13/13 12/12/12
f 14/14/14 5/5/5 12/12/12
f 12/12/12 13/13/13 14/14/14
f 13/13/13 15/15/15 14/14/14
f 16/16/16 5/5/5 14/14/14
f 14/14/14 15/15/15 16/16/16
f 15/15/15 17/17/17 16/16/16
f 18/18/18 5/5/5 16/16/16
f 16/16/16 17/17/17 18/18/18
f 17/17/17 19/19/19 18/18/18
f 20/20/20 5/5/5 18/18/18
f 18/18/18 19/19/19 20/20/20
f 19/19/19 21/21/21 20/20/20
f 20/20/20 21/21/21 22/22/22
f 22/22/22 5/5/5 20/20/20
f 21/21/21 23/23/23 22/22/22
f 24/24/24 5/5/5 22/22/22
f 22/22/22 23/23/23 24/24/24
f 23/23/23 25/25/25 24/24/24
f 26/26/26 5/5/5 24/24/24
f 24/24/24 25/25/25 26/26/26
f 25/25/25 27/27/27 26/26/26
f 28/28/28 5/5/5 26/26/26
f 26/26/26 27/27/27 28/28/28
f 27/27/27 29/29/29 28/28/28
f 30/30/30 5/5/5 28/28/28
f 28/28/28 29/29/29 30/30/30
f 29/29/29 31/31/31 30/30/30
f 32/32/32 5/5/5 30/30/30
f 30/30/30 31/31/31 32/32/32
f 31/31/31 33/33/33 32/32/32
f 34/34/34 5/5/5 32/32/32
f 32/32/32 33/33/33 34/34/34
f 33/33/33 35/35/35 34/34/34
f 36/36/36 5/5/5 34/34/34
f 34/34/34 35/35/35 36/36/36
f 35/35/35 37/37/37 36/36/36
f 38/38/38 5/5/5 36/36/36
f 36/36/36 37/37/37 38/38/38
f 37/37/37 39/39/39 38/38/38
f 38/38/38 39/39/39 40/40/40
f 40/40/40 5/5/5 38/38/38
f 39/39/39 41/41/41 40/40/40
f 42/42/42 5/5/5 40/40/40
f 40/40/40 41/41/41 42/42/42
f 41/41/41 43/43/43 42/42/42
f 44/44/44 5/5/5 42/42/42
f 42/42/42 43/43/43 44/44/44
f 43/43/43 45/45/45 44/44/44
f 46/46/46 5/5/5 44/44/44
f 44/44/44 45/45/45 46/46/46
f 45/45/45 47/47/47 46/46/46
f 48/48/48 5/5/5 46/46/46
f 46/46/46 47/47/47 48/48/48
f 47/47/47 49/49/49 48/48/48
f 4/4/4 5/5/5 48/48/48
f 48/48/48 49/49/49 4/4/4
f 49/49/49 3/3/3 4/4/4
f 50/50/50 39/39/39 37/37/37
f 51/51/51 41/41/41 39/39/39
f 50/50/50 51/51/51 39/39/39
f 52/52/52 51/51/51 50/50/50
f 53/53/53 52/52/52 50/50/50
f 53/53/53 50/50/50 54/54/54
f 54/54/54 50/50/50 37/37/37
f 54/54/54 37/37/37 35/35/35
f 55/55/55 54/54/54 35/35/35
f 55/55/55 35/35/35 33/33/33
f 56/56/56 55/55/55 33/33/33
f 56/56/56 33/33/33 31/31/31
f 57/57/57 56/56/56 31/31/31
f 57/57/57 31/31/31 29/29/29
f 58/58/58 57/57/57 29/29/29
f 58/58/58 29/29/29 27/27/27
f 59/59/59 58/58/58 27/27/27
f 59/59/59 27/27/27 25/25/25
f 60/60/60 59/59/59 25/25/25
f 60/60/60 25/25/25 23/23/23
f 61/61/61 60/60/60 23/23/23
f 61/61/61 23/23/23 21/21/21
f 62/62/62 61/61/61 21/21/21
f 62/62/62 21/21/21 19/19/19
f 63/63/63 62/62/62 19/19/19
f 63/63/63 19/19/19 17/17/17
f 64/64/64 63/63/63 17/17/17
f 64/64/64 17/17/17 15/15/15
f 65/65/65 64/64/64 15/15/15
f 65/65/65 15/15/15 13/13/13
f 66/66/66 65/65/65 13/13/13
f 66/66/66 13/13/13 11/11/11
f 67/67/67 66/66/66 11/11/11
f 67/67/67 11/11/11 9/9/9
f 68/68/68 67/67/67 9/9/9
f 68/68/68 9/9/9 7/7/7
f 69/69/69 68/68/68 7/7/7
f 69/69/69 7/7/7 2/2/2
f 70/70/70 69/69/69 2/2/2
f 2/2/2 3/3/3 70/70/70
f 3/3/3 71/71/71 70/70/70
f 70/70/70 71/71/71 72/72/72
f 71/71/71 73/73/73 72/72/72
f 74/74/74 69/69/69 70/70/70
f 72/72/72 74/74/74 70/70/70
f 75/75/75 68/68/68 69/69/69
f 74/74/74 75/75/75 69/69/69
f 76/76/76 67/67/67 68/68/68
f 75/75/75 76/76/76 68/68/68
f 77/77/77 66/66/66 67/67/67
f 76/76/76 77/77/77 67/67/67
f 71/71/71 3/3/3 49/49/49
f 78/78/78 71/71/71 49/49/49
f 73/73/73 71/71/71 78/78/78
f 78/78/78 49/49/49 47/47/47
f 79/79/79 78/78/78 47/47/47
f 79/79/79 47/47/47 45/45/45
f 80/80/80 79/79/79 45/45/45
f 80/80/80 45/45/45 43/43/43
f 81/81/81 80/80/80 43/43/43
f 81/81/81 43/43/43 41/41/41
f 51/51/51 81/81/81 41/41/41
f 82/82/82 81/81/81 51/51/51
f 52/52/52 82/82/82 51/51/51
f 83/83/83 80/80/80 81/81/81
f 82/82/82 83/83/83 81/81/81
f 84/84/84 79/79/79 80/80/80
f 83/83/83 84/84/84 80/80/80
f 85/85/85 78/78/78 79/79/79
f 84/84/84 85/85/85 79/79/79
f 85/85/85 73/73/73 78/78/78
f 86/86/86 65/65/65 66/66/66
f 77/77/77 86/86/86 66/66/66
f 86/86/86 87/87/87 65/65/65
f 87/87/87 64/64/64 65/65/65
f 87/87/87 88/88/88 64/64/64
f 88/88/88 63/63/63 64/64/64
f 88/88/88 89/89/89 63/63/63
f 89/89/89 62/62/62 63/63/63
f 89/89/89 90/90/90 62/62/62
f 90/90/90 61/61/61 62/62/62
f 90/90/90 91/91/91 61/61/61
f 91/91/91 60/60/60 61/61/61
f 91/91/91 92/92/92 60/60/60
f 92/92/92 59/59/59 60/60/60
f 92/92/92 93/93/93 59/59/59
f 93/93/93 58/58/58 59/59/59
f 93/93/93 94/94/94 58/58/58
f 94/94/94 57/57/57 58/58/58
f 94/94/94 95/95/95 57/57/57
f 95/95/95 56/56/56 57/57/57
f 95/95/95 96/96/96 56/56/56
f 96/96/96 55/55/55 56/56/56
f 96/96/96 97/97/97 55/55/55
f 97/97/97 54/54/54 55/55/55
f 97/97/97 53/53/53 54/54/54
