g ShadowCollision
v 2.054897 0.03240037 -0.1377287
v 1.893326 0.03240037 0.2897549
v -0.05109382 0.03240037 -0.04845548
v 1.833848 0.03240037 0.6144617
v 1.807409 0.03240037 0.9640727
v 1.844857 0.03240037 1.225669
v 2.123258 0.03240037 1.836883
v 2.132342 0.03240037 2.361397
v 1.957347 0.03240037 2.645031
v 1.679692 0.03240037 2.82521
v 1.22264 0.03240037 2.945292
v 0.6114259 0.03240037 3.019504
v 0.2580373 0.03240037 2.978852
v 2.119291 0.03240037 -0.6079659
v 1.999636 0.03240037 -1.219174
v 1.863587 0.03240037 -1.534766
v 1.692027 0.03240037 -1.830388
v 1.212407 0.03240037 -2.400669
v 0.6114259 0.03240037 -2.744668
v 0.000218153 0.03240037 -2.908727
v -0.6109955 0.03240037 -2.92923
v -1.222209 0.03240037 -2.795938
v -1.790474 0.03240037 -2.421771
v -2.100216 0.03240037 -1.830388
v -2.126349 0.03240037 -1.219174
v -2.070972 0.03240037 -0.6079659
v -1.833417 0.03240037 0.003247738
v -1.790113 0.03240037 0.2999513
v -1.744211 0.03240037 0.6144617
v -1.762984 0.03240037 0.9640727
v -1.725041 0.03240037 1.225669
v -1.54301 0.03240037 1.541188
v -1.227693 0.03240037 1.856708
v -0.95225 0.03240037 2.062628
v -0.6822968 0.03240037 2.290487
v -0.3973241 0.03240037 2.629126
v -0.09534526 0.03240037 2.842436
v -2.231742 1.907349E-06 -0.6585934
v -1.975775 1.907349E-06 1.907349E-06
v -1.323091 1.907349E-06 1.997134
v -1.026302 1.907349E-06 2.219021
v -0.7354183 1.907349E-06 2.464541
v -0.4283533 1.907349E-06 2.829428
v -1.859 1.907349E-06 1.31718
v -1.662854 1.907349E-06 1.657157
v -0.1029742 1.907349E-06 3.059274
v 0.2778127 1.907349E-06 3.206266
v 0.6585934 1.907349E-06 3.250071
v 1.317182 1.907349E-06 3.170108
v 1.809665 1.907349E-06 3.040715
v 2.108844 1.907349E-06 2.846562
v 2.297403 1.907349E-06 2.540946
v 2.287617 1.907349E-06 1.975775
v 1.987637 1.907349E-06 1.31718
v 1.947285 1.907349E-06 1.035306
v 1.975771 1.907349E-06 0.6585908
v 2.039859 1.907349E-06 0.3087173
v 2.21395 1.907349E-06 -0.1519046
v 2.283338 1.907349E-06 -0.6585934
v 2.15441 1.907349E-06 -1.317182
v 2.007815 1.907349E-06 -1.657233
v 1.82296 1.907349E-06 -1.975771
v 1.306155 1.907349E-06 -2.590262
v 0.6585934 1.907349E-06 -2.960926
v -1.907349E-06 1.907349E-06 -3.137699
v -0.6585908 1.907349E-06 -3.159798
v -1.31718 1.907349E-06 -3.016168
v -1.9295 1.907349E-06 -2.613002
v -2.263254 1.907349E-06 -1.975771
v -2.291404 1.907349E-06 -1.317182
v -1.879649 1.907349E-06 0.6585908
v -1.899877 1.907349E-06 1.035306
v -1.929109 1.907349E-06 0.3197083
vt 0.0834114 0.9029736
vt 0.08077352 0.8960205
vt 0.04911901 0.9015256
vt 0.07981299 0.8907304
vt 0.07936856 0.8850389
vt 0.07998502 0.8807811
vt 0.08451529 0.8708317
vt 0.08465865 0.8622872
vt 0.08182007 0.857671
vt 0.0772898 0.8547463
vt 0.06984928 0.8527823
vt 0.05989989 0.8515781
vt 0.05415104 0.8522375
vt 0.08445794 0.9106292
vt 0.08250821 0.9205785
vt 0.08028609 0.9257253
vt 0.07749051 0.9305279
vt 0.06969158 0.9398178
vt 0.05989989 0.9454234
vt 0.04995051 0.9480899
vt 0.04000114 0.9484196
vt 0.03005175 0.9462548
vt 0.02080485 0.9401619
vt 0.01575848 0.9305279
vt 0.01532839 0.9205785
vt 0.01623158 0.9106292
vt 0.02010238 0.9006798
vt 0.02080485 0.8958485
vt 0.02155034 0.8907304
vt 0.02124928 0.8850389
vt 0.02186574 0.8807811
vt 0.02483335 0.8756487
vt 0.02996574 0.8705019
vt 0.03445299 0.8671616
vt 0.0388399 0.8634485
vt 0.04348485 0.857929
vt 0.0484022 0.8544596
vt 0.01362238 0.9114607
vt 0.0177799 0.9007372
vt 0.02841742 0.8682225
vt 0.03324874 0.8646097
vt 0.03797972 0.8606099
vt 0.04298308 0.8546747
vt 0.01968662 0.87929
vt 0.02288361 0.8737563
vt 0.04827317 0.8509329
vt 0.05448078 0.8485388
vt 0.06067405 0.847822
vt 0.07139759 0.8491265
vt 0.07941157 0.851234
vt 0.08428591 0.8543879
vt 0.08735387 0.8593627
vt 0.08719617 0.8685665
vt 0.0823075 0.87929
vt 0.08164804 0.8838777
vt 0.08212113 0.8900136
vt 0.08315334 0.8957051
vt 0.08599193 0.903203
vt 0.08712449 0.9114607
vt 0.0850314 0.9221842
vt 0.08263724 0.927718
vt 0.07962662 0.9328935
vt 0.07121122 0.9429002
vt 0.06067405 0.9489357
vt 0.04995051 0.9518173
vt 0.03922698 0.9521757
vt 0.02850344 0.9498389
vt 0.01853972 0.9432729
vt 0.01310627 0.9328935
vt 0.01264751 0.9221842
vt 0.01935689 0.8900136
vt 0.01902715 0.8838777
vt 0.01853972 0.8955331
vn 0.03157965 0.9995012 0
vn 0.0252663 0.9996808 0
vn -9.834766E-06 0.9999999 -0.0004882813
vn 0.02779206 0.9996138 0
vn 0.03031726 0.9995403 0
vn 0.02400324 0.9997118 0
vn 0.04044488 0.9987357 -0.02985412
vn 0.0328419 0.9994605 0
vn 0.01642268 0.9998652 0
vn 0.007575207 0.9999714 0
vn 0.003782782 0.9999928 0
vn -9.834766E-06 0.9999999 -0.0004882813
vn -0.006330751 0.99998 0
vn 0.03031726 0.9995403 0
vn 0.02905474 0.9995778 0
vn 0.02274006 0.9997414 0
vn 0.01894992 0.9998205 0
vn 0.01768634 0.9998436 0
vn 0.01010334 0.999949 0
vn 0.003782782 0.9999928 0
vn -0.001274048 0.9999992 0
vn -0.00885896 0.9999608 0
vn -0.02023307 0.9997953 0
vn -0.02781171 0.9996132 0
vn -0.0303369 0.9995397 0
vn -0.03540772 0.9987357 0.03568381
vn -0.02528595 0.9996803 0
vn -0.03286154 0.9994599 0
vn -0.0303369 0.9995397 0
vn -0.03920034 0.9987357 0.03147047
vn -0.03159929 0.9995006 0
vn -0.02402289 0.9997113 0
vn -0.01896958 0.9998201 0
vn -0.0151786 0.9998848 0
vn -0.01644234 0.9998648 0
vn -0.02275971 0.9997409 0
vn -0.01265091 0.99992 0
vn -0.2086045 0.9772441 0.03844575
vn -0.2225108 0.9721873 0.07308087
vn -0.1239024 0.982301 0.1404738
vn -0.1188456 0.982301 0.1447772
vn -0.1466582 0.9797726 0.136151
vn -0.1188456 0.982301 0.1447772
vn -0.1845845 0.9797726 0.07729355
vn -0.1491866 0.9810368 0.1237343
vn -0.07080561 0.9873579 0.1418135
vn -0.03161508 0.9886221 0.1470608
vn 0.006311208 0.9898863 0.1417227
vn 0.02527437 0.9911505 0.1303146
vn 0.05055857 0.9911505 0.1227377
vn 0.08974908 0.9911505 0.09780475
vn 0.1403175 0.9886221 0.05419757
vn 0.2111132 0.9772441 -0.02061796
vn 0.2932869 0.9481673 -0.1223174
vn 0.2313406 0.9721873 -0.03651596
vn 0.2149059 0.9759799 0.03575806
vn 0.2073206 0.9759799 0.06694263
vn 0.203528 0.9785084 0.03313304
vn 0.1895391 0.9818732 0
vn 0.1731869 0.9835652 -0.05104641
vn 0.1542238 0.9848294 -0.07953628
vn 0.131468 0.9860936 -0.1016637
vn 0.09607013 0.9873579 -0.1260754
vn 0.0543512 0.9886221 -0.1402581
vn 0.01895332 0.9898863 -0.1405913
vn -0.01391613 0.9911505 -0.1320115
vn -0.05310667 0.9911505 -0.1216568
vn -0.09861821 0.9898863 -0.1019783
vn -0.1479224 0.9873579 -0.05695126
vn -0.1921698 0.9810368 -0.02525174
vn -0.2312291 0.9728993 0
vn -0.2237587 0.9746446 0
vn -0.2225108 0.9747157 0.0204496
g ShadowCollision_0
f 3/3/3 2/2/2 1/1/1
f 4/4/4 2/2/2 3/3/3
f 4/4/4 3/3/3 5/5/5
f 3/3/3 6/6/6 5/5/5
f 3/3/3 7/7/7 6/6/6
f 3/3/3 8/8/8 7/7/7
f 3/3/3 9/9/9 8/8/8
f 3/3/3 10/10/10 9/9/9
f 3/3/3 11/11/11 10/10/10
f 3/3/3 12/12/12 11/11/11
f 3/3/3 13/13/13 12/12/12
f 3/3/3 1/1/1 14/14/14
f 3/3/3 14/14/14 15/15/15
f 3/3/3 15/15/15 16/16/16
f 3/3/3 16/16/16 17/17/17
f 3/3/3 17/17/17 18/18/18
f 3/3/3 18/18/18 19/19/19
f 3/3/3 19/19/19 20/20/20
f 3/3/3 20/20/20 21/21/21
f 3/3/3 21/21/21 22/22/22
f 3/3/3 22/22/22 23/23/23
f 3/3/3 23/23/23 24/24/24
f 3/3/3 24/24/24 25/25/25
f 3/3/3 25/25/25 26/26/26
f 3/3/3 26/26/26 27/27/27
f 3/3/3 27/27/27 28/28/28
f 3/3/3 28/28/28 29/29/29
f 3/3/3 29/29/29 30/30/30
f 3/3/3 30/30/30 31/31/31
f 3/3/3 31/31/31 32/32/32
f 3/3/3 32/32/32 33/33/33
f 3/3/3 33/33/33 34/34/34
f 3/3/3 34/34/34 35/35/35
f 3/3/3 35/35/35 36/36/36
f 3/3/3 36/36/36 37/37/37
f 3/3/3 37/37/37 13/13/13
f 27/27/27 26/26/26 38/38/38
f 39/39/39 27/27/27 38/38/38
f 28/28/28 27/27/27 39/39/39
f 34/34/34 33/33/33 40/40/40
f 41/41/41 34/34/34 40/40/40
f 35/35/35 34/34/34 41/41/41
f 36/36/36 35/35/35 42/42/42
f 42/42/42 35/35/35 41/41/41
f 43/43/43 36/36/36 42/42/42
f 37/37/37 36/36/36 43/43/43
f 32/32/32 31/31/31 44/44/44
f 45/45/45 32/32/32 44/44/44
f 33/33/33 32/32/32 45/45/45
f 40/40/40 33/33/33 45/45/45
f 46/46/46 37/37/37 43/43/43
f 13/13/13 37/37/37 46/46/46
f 47/47/47 13/13/13 46/46/46
f 12/12/12 13/13/13 47/47/47
f 48/48/48 12/12/12 47/47/47
f 11/11/11 12/12/12 48/48/48
f 49/49/49 11/11/11 48/48/48
f 10/10/10 11/11/11 49/49/49
f 50/50/50 10/10/10 49/49/49
f 9/9/9 10/10/10 50/50/50
f 51/51/51 9/9/9 50/50/50
f 8/8/8 9/9/9 51/51/51
f 52/52/52 8/8/8 51/51/51
f 7/7/7 8/8/8 52/52/52
f 53/53/53 7/7/7 52/52/52
f 6/6/6 7/7/7 53/53/53
f 54/54/54 6/6/6 53/53/53
f 5/5/5 6/6/6 54/54/54
f 55/55/55 5/5/5 54/54/54
f 4/4/4 5/5/5 55/55/55
f 56/56/56 4/4/4 55/55/55
f 2/2/2 4/4/4 56/56/56
f 57/57/57 2/2/2 56/56/56
f 1/1/1 2/2/2 57/57/57
f 58/58/58 1/1/1 57/57/57
f 14/14/14 1/1/1 58/58/58
f 59/59/59 14/14/14 58/58/58
f 15/15/15 14/14/14 59/59/59
f 60/60/60 15/15/15 59/59/59
f 16/16/16 15/15/15 60/60/60
f 61/61/61 16/16/16 60/60/60
f 17/17/17 16/16/16 61/61/61
f 62/62/62 17/17/17 61/61/61
f 18/18/18 17/17/17 62/62/62
f 63/63/63 18/18/18 62/62/62
f 19/19/19 18/18/18 63/63/63
f 64/64/64 19/19/19 63/63/63
f 20/20/20 19/19/19 64/64/64
f 65/65/65 20/20/20 64/64/64
f 21/21/21 20/20/20 65/65/65
f 66/66/66 21/21/21 65/65/65
f 22/22/22 21/21/21 66/66/66
f 67/67/67 22/22/22 66/66/66
f 23/23/23 22/22/22 67/67/67
f 68/68/68 23/23/23 67/67/67
f 24/24/24 23/23/23 68/68/68
f 69/69/69 24/24/24 68/68/68
f 25/25/25 24/24/24 69/69/69
f 70/70/70 25/25/25 69/69/69
f 26/26/26 25/25/25 70/70/70
f 38/38/38 26/26/26 70/70/70
f 30/30/30 29/29/29 71/71/71
f 72/72/72 30/30/30 71/71/71
f 31/31/31 30/30/30 72/72/72
f 44/44/44 31/31/31 72/72/72
f 71/71/71 29/29/29 73/73/73
f 29/29/29 28/28/28 73/73/73
f 73/73/73 28/28/28 39/39/39
