g ShadowCollision
v -2.900001 0.1144371 -9.86581
v 2.900005 0.1144371 -9.86581
v 2.900005 0.1144247 -0.1000042
v -2.900001 0.1144247 -0.1000042
v 2.900005 0.01444054 -10.06086
v 2.900005 0.1144371 -9.86581
v -2.900001 0.1144371 -9.86581
v -2.900001 0.01444054 -10.06086
v -2.900001 0.01442814 3.814697E-06
v -2.900001 0.1144247 -0.1000042
v 2.900005 0.1144247 -0.1000042
v 2.900005 0.01442814 3.814697E-06
vt 0.1880641 0.9978392
vt 0.1876271 0.9978392
vt 0.1876271 0.003778226
vt 0.1880641 0.004230546
vt 0.08247421 0.5092955
vt 0.08247421 0.4907044
vt 0.0638371 0.4907044
vt 0.0638371 0.5092955
vt 0.08251254 0.5092955
vt 0.08251254 0.4907044
vt 0.0638831 0.4907044
vt 0.0638831 0.5092955
vn 0 1 0
vn 0 1 0
vn 0 1 0
vn 0 1 0
vn 0 0.7067448 -0.7074685
vn 0 0.7067448 -0.7074685
vn 0 0.7067448 -0.7074685
vn 0 0.7067448 -0.7074685
vn 0 0.7067448 0.7074685
vn 0 0.7067448 0.7074685
vn 0 0.7067448 0.7074685
vn 0 0.7067448 0.7074685
g ShadowCollision_0
f 3/3/3 2/2/2 1/1/1
f 4/4/4 3/3/3 1/1/1
f 7/7/7 6/6/6 5/5/5
f 8/8/8 7/7/7 5/5/5
f 11/11/11 10/10/10 9/9/9
f 12/12/12 11/11/11 9/9/9
