g ShadowCollision
v -6 0.7534628 -1.493427
v -5.722046E-06 0.7534628 -1.493427
v -5.722046E-06 0.7854147 -1.421443
v -6 0.7854147 -1.421443
v -5.722046E-06 0.7685347 -1.310264
v -6 0.7685347 -1.310264
v -5.722046E-06 0.003358841 0.004995346
v -6 0.003358841 0.004995346
v 6 0.7534628 -1.493427
v 6 0.7854147 -1.421443
v -5.722046E-06 0.7854147 -1.421443
v -5.722046E-06 0.7534628 -1.493427
v -5.722046E-06 0.7685347 -1.310264
v 6 0.7685347 -1.310264
v -5.722046E-06 0.003358841 0.004995346
v 6 0.003358841 0.004995346
vt 0.7608959 0.7392241
vt 0.7608959 0.468553
vt 0.7412031 0.4684638
vt 0.7412031 0.7311457
vt 0.7215102 0.4688369
vt 0.7215102 0.7392241
vt 0.5004525 1
vt 1 1
vt 0.7608959 0.7392241
vt 0.7412031 0.7311457
vt 0.7412031 0.4684638
vt 0.7608959 0.468553
vt 0.7215102 0.4688369
vt 0.7215102 0.7392241
vt 0.5004525 1
vt 1 1
vn 0 0.9138213 -0.4061165
vn 0 0.9138213 -0.4061165
vn 0 0.9966303 -0.08202434
vn 0 0.9966303 -0.08202434
vn 0 0.8758266 0.4826259
vn 0 0.8758266 0.4826259
vn 0 0.8631617 0.5049276
vn 0 0.8631617 0.5049276
vn 0 0.9138213 -0.4061165
vn 0 0.9966303 -0.08202434
vn 0 0.9966303 -0.08202434
vn 0 0.9138213 -0.4061165
vn 0 0.8758266 0.4826259
vn 0 0.8758266 0.4826259
vn 0 0.8631617 0.5049276
vn 0 0.8631617 0.5049276
g ShadowCollision_0
f 3/3/3 2/2/2 1/1/1
f 4/4/4 3/3/3 1/1/1
f 5/5/5 3/3/3 4/4/4
f 6/6/6 5/5/5 4/4/4
f 5/5/5 6/6/6 7/7/7
f 6/6/6 8/8/8 7/7/7
f 11/11/11 10/10/10 9/9/9
f 12/12/12 11/11/11 9/9/9
f 11/11/11 13/13/13 10/10/10
f 13/13/13 14/14/14 10/10/10
f 14/14/14 13/13/13 15/15/15
f 16/16/16 14/14/14 15/15/15
