g ShadowCollision
v 1.792016 0.003000975 -2.24712
v 2.58954 0.003000975 -1.247056
v 2.475031 0.1311166 -1.191912
v 1.712778 0.1311166 -2.147752
v 0.6112852 0.1311166 -2.678201
v 0.6395617 0.003000975 -2.802112
v -0.6112845 0.1311166 -2.678207
v -0.6395609 0.003000975 -2.802112
v 2.874174 0.003000975 2.384186E-06
v 2.747078 0.1311166 2.384186E-06
v 2.58954 0.003000975 1.24706
v 2.475031 0.1311166 1.191911
v 1.792016 0.003000975 2.247119
v 1.712778 0.1311166 2.147751
v 0.6395617 0.003000975 2.802111
v 0.6112852 0.1311166 2.678206
v -0.6395664 0.003000975 2.802111
v -0.6112845 0.1311166 2.678206
v -1.79202 0.003000975 2.247119
v -1.712777 0.1311166 2.147751
v -2.589539 0.003000975 1.247055
v -2.47503 0.1311166 1.191911
v -2.874173 0.003000975 2.384186E-06
v -2.747077 0.1311166 2.384186E-06
v -2.589539 0.003000975 -1.247056
v -2.47503 0.1311166 -1.191912
v -1.792015 0.003000975 -2.24712
v -1.712777 0.1311166 -2.147752
v -0.6395609 0.003000975 -2.802112
v -0.6112845 0.1311166 -2.678207
v -1.515539 0.2283792 1.900105
v 3.099442E-06 0.2074926 -3.099442E-06
v -0.5410264 0.2283792 2.3695
v -2.189875 0.2283792 1.054372
v -2.430482 0.2283792 -0.0001950264
v -2.189705 0.2283792 -1.054723
v -1.515226 0.2283792 -1.900352
v -0.5406427 0.2283792 -2.369589
v 0.5410273 0.2283792 -2.369501
v 3.099442E-06 0.2074926 -3.099442E-06
v -0.5406427 0.2283792 -2.369589
v 1.515534 0.2283792 -1.900105
v 2.189876 0.2283792 -1.054372
v 2.430483 0.2283792 0.0001940727
v 2.189706 0.2283792 1.054722
v 1.515227 0.2283792 1.900352
v 0.5406435 0.2283792 2.369594
v -0.5410264 0.2283792 2.3695
v 2.475031 0.1311166 1.191911
v 2.227527 0.1287539 1.07272
v 2.472372 0.1287539 2.384186E-06
v 2.747078 0.1311166 2.384186E-06
v 2.227527 0.1287539 -1.072721
v 2.475031 0.1311166 -1.191912
v 1.541497 0.1287539 -1.932976
v 1.712778 0.1311166 -2.147752
v 0.5501549 0.1287539 -2.410381
v 0.6112852 0.1311166 -2.678201
v -0.550154 0.1287539 -2.410386
v -0.6112845 0.1311166 -2.678207
v 1.712778 0.1311166 2.147751
v 1.541497 0.1287539 1.932981
v 0.6112852 0.1311166 2.678206
v 0.5501549 0.1287539 2.410386
v -0.6112845 0.1311166 2.678206
v -0.550154 0.1287539 2.410386
v -0.6112845 0.1311166 -2.678207
v -0.550154 0.1287539 -2.410386
v -1.541496 0.1287539 -1.932976
v -1.712777 0.1311166 -2.147752
v -2.227531 0.1287539 -1.072721
v -2.47503 0.1311166 -1.191912
v -2.472371 0.1287539 2.384186E-06
v -2.747077 0.1311166 2.384186E-06
v -2.227531 0.1287539 1.07272
v -2.47503 0.1311166 1.191911
v -1.541502 0.1287539 1.932975
v -1.712777 0.1311166 2.147751
v -0.550154 0.1287539 2.410386
v -0.6112845 0.1311166 2.678206
v -1.541502 0.1287539 1.932975
v -1.515539 0.2283792 1.900105
v -0.5410264 0.2283792 2.3695
v -0.550154 0.1287539 2.410386
v -2.227531 0.1287539 1.07272
v -2.189875 0.2283792 1.054372
v -2.472371 0.1287539 2.384186E-06
v -2.430482 0.2283792 -0.0001950264
v -2.227531 0.1287539 -1.072721
v -2.189705 0.2283792 -1.054723
v -1.541496 0.1287539 -1.932976
v -1.515226 0.2283792 -1.900352
v -0.550154 0.1287539 -2.410386
v -0.5406427 0.2283792 -2.369589
v 0.5501549 0.1287539 -2.410381
v 0.5410273 0.2283792 -2.369501
v -0.5406427 0.2283792 -2.369589
v -0.550154 0.1287539 -2.410386
v 1.541497 0.1287539 -1.932976
v 1.515534 0.2283792 -1.900105
v 2.227527 0.1287539 -1.072721
v 2.189876 0.2283792 -1.054372
v 2.472372 0.1287539 2.384186E-06
v 2.430483 0.2283792 0.0001940727
v 2.227527 0.1287539 1.07272
v 2.189706 0.2283792 1.054722
v 1.541497 0.1287539 1.932981
v 1.515227 0.2283792 1.900352
v 0.5501549 0.1287539 2.410386
v 0.5406435 0.2283792 2.369594
v -0.550154 0.1287539 2.410386
v -0.5410264 0.2283792 2.3695
vt 0.9327106 0.1958908
vt 0.904235 0.1958908
vt 0.904235 0.2026736
vt 0.9327106 0.2026736
vt 0.9611864 0.2026736
vt 0.9611864 0.1958908
vt 0.9896622 0.2027099
vt 0.9896622 0.1958908
vt 0.8757714 0.1958908
vt 0.8757714 0.2026736
vt 0.8472956 0.1958908
vt 0.8472956 0.2026736
vt 0.8188199 0.1958908
vt 0.8188199 0.2026736
vt 0.7903442 0.1958908
vt 0.7903442 0.2026736
vt 0.7618685 0.1958908
vt 0.7618685 0.2026736
vt 0.7333927 0.1958908
vt 0.7333927 0.2026736
vt 0.7049171 0.1958908
vt 0.7049171 0.2026736
vt 0.6764534 0.1958908
vt 0.6764534 0.2026736
vt 0.6479777 0.1958908
vt 0.6479777 0.2026736
vt 0.6195019 0.1958908
vt 0.6195019 0.2026736
vt 0.5910262 0.1958908
vt 0.5910262 0.2027099
vt 0.7277 0.2049022
vt 0.6764534 0.2249842
vt 0.7533294 0.2049022
vt 0.7020707 0.2049022
vt 0.6764534 0.2049022
vt 0.6508241 0.2049022
vt 0.6251947 0.2049022
vt 0.5995653 0.2049385
vt 0.9540645 0.2049022
vt 0.8900032 0.2249842
vt 0.9796938 0.2049385
vt 0.9284472 0.2049022
vt 0.9028178 0.2049022
vt 0.8771884 0.2049022
vt 0.8515592 0.2049022
vt 0.8259419 0.2049022
vt 0.8003125 0.2049022
vt 0.7746831 0.2049022
vt 0.8472956 0.2026736
vt 0.8515592 0.2049022
vt 0.8771884 0.2049022
vt 0.8757714 0.2026736
vt 0.9028178 0.2049022
vt 0.904235 0.2026736
vt 0.9284472 0.2049022
vt 0.9327106 0.2026736
vt 0.9540645 0.2049022
vt 0.9611864 0.2026736
vt 0.9796938 0.2049385
vt 0.9896622 0.2027099
vt 0.8188199 0.2026736
vt 0.8259419 0.2049022
vt 0.7903442 0.2026736
vt 0.8003125 0.2049022
vt 0.7618685 0.2026736
vt 0.7746831 0.2049022
vt 0.5910262 0.2027099
vt 0.5995653 0.2049385
vt 0.6251947 0.2049022
vt 0.6195019 0.2026736
vt 0.6508241 0.2049022
vt 0.6479777 0.2026736
vt 0.6764534 0.2049022
vt 0.6764534 0.2026736
vt 0.7020707 0.2049022
vt 0.7049171 0.2026736
vt 0.7277 0.2049022
vt 0.7333927 0.2026736
vt 0.7533294 0.2049022
vt 0.7618685 0.2026736
vt 0.7277 0.2049022
vt 0.7277 0.2049022
vt 0.7533294 0.2049022
vt 0.7533294 0.2049022
vt 0.7020707 0.2049022
vt 0.7020707 0.2049022
vt 0.6764534 0.2049022
vt 0.6764534 0.2049022
vt 0.6508241 0.2049022
vt 0.6508241 0.2049022
vt 0.6251947 0.2049022
vt 0.6251947 0.2049022
vt 0.5995653 0.2049385
vt 0.5995653 0.2049385
vt 0.9540645 0.2049022
vt 0.9540645 0.2049022
vt 0.9796938 0.2049385
vt 0.9796938 0.2049385
vt 0.9284472 0.2049022
vt 0.9284472 0.2049022
vt 0.9028178 0.2049022
vt 0.9028178 0.2049022
vt 0.8771884 0.2049022
vt 0.8771884 0.2049022
vt 0.8515592 0.2049022
vt 0.8515592 0.2049022
vt 0.8259419 0.2049022
vt 0.8259419 0.2049022
vt 0.8003125 0.2049022
vt 0.8003125 0.2049022
vt 0.7746831 0.2049022
vt 0.7746831 0.2049022
vn 0.4427855 0.7050554 -0.5539294
vn 0.6400414 0.7050554 -0.3053587
vn 0.6400414 0.7050554 -0.3053587
vn 0.4427855 0.7050554 -0.5539294
vn 0.1572343 0.7050554 -0.6915014
vn 0.1572343 0.7050554 -0.6915014
vn -0.1583751 0.7050554 -0.6912411
vn -0.1583751 0.7050554 -0.6912411
vn 0.7093501 0.7048563 0
vn 0.7093501 0.7048563 0
vn 0.6400414 0.7050554 0.3053587
vn 0.6400414 0.7050554 0.3053587
vn 0.4427855 0.7050554 0.5539294
vn 0.4427855 0.7050554 0.5539294
vn 0.1572343 0.7050554 0.6915014
vn 0.1572343 0.7050554 0.6915014
vn -0.1583751 0.7050554 0.6912411
vn -0.1583751 0.7050554 0.6912411
vn -0.4420477 0.7050554 0.5545185
vn -0.4420477 0.7050554 0.5545185
vn -0.6393035 0.7050554 0.3069006
vn -0.6393035 0.7050554 0.3069006
vn -0.7099161 0.7042863 0
vn -0.7099161 0.7042863 0
vn -0.6393035 0.7050554 -0.3069006
vn -0.6393035 0.7050554 -0.3069006
vn -0.4420477 0.7050554 -0.5545185
vn -0.4420477 0.7050554 -0.5545185
vn -0.1583751 0.7050554 -0.6912411
vn -0.1583751 0.7050554 -0.6912411
vn 0.005065437 0.9999872 0
vn -0.0005703568 0.9999998 -0.0002441406
vn 0.001308262 0.9999992 0
vn 0.006943954 0.9999759 0
vn 0.008822397 0.9999611 0
vn 0.006943954 0.9999759 0
vn 0.005065437 0.9999872 0
vn 0.001308262 0.9999992 0
vn -0.002449029 0.9999971 0
vn -0.0005703568 0.9999998 -0.0002441406
vn 0.001308262 0.9999992 0
vn -0.006206156 0.9999807 0
vn -0.008084632 0.9999674 0
vn -0.008084632 0.9999674 0
vn -0.008084632 0.9999674 0
vn -0.006206156 0.9999807 0
vn -0.002449029 0.9999971 0
vn 0.001308262 0.9999992 0
vn -0.008084632 0.9999674 0
vn -0.008084632 0.9999674 0
vn -0.008084632 0.9999674 0
vn -0.008084632 0.9999674 0
vn -0.008084632 0.9999674 0
vn -0.008084632 0.9999674 0
vn -0.006206156 0.9999807 0
vn -0.006206156 0.9999807 0
vn -0.002449029 0.9999971 0
vn -0.002449029 0.9999971 0
vn 0.001308262 0.9999992 0
vn 0.001308262 0.9999992 0
vn -0.006206156 0.9999807 0
vn -0.006206156 0.9999807 0
vn -0.002449029 0.9999971 0
vn -0.002449029 0.9999971 0
vn 0.001308262 0.9999992 0
vn 0.001308262 0.9999992 0
vn 0.001308262 0.9999992 0
vn 0.001308262 0.9999992 0
vn 0.005065437 0.9999872 0
vn 0.005065437 0.9999872 0
vn 0.006943954 0.9999759 0
vn 0.006943954 0.9999759 0
vn 0.008822397 0.9999611 0
vn 0.008822397 0.9999611 0
vn 0.006943954 0.9999759 0
vn 0.006943954 0.9999759 0
vn 0.005065437 0.9999872 0
vn 0.005065437 0.9999872 0
vn 0.001308262 0.9999992 0
vn 0.001308262 0.9999992 0
vn -0.5754302 0.3875675 0.7201886
vn -0.5754302 0.3875675 0.7201886
vn -0.2053407 0.3875675 0.8986805
vn -0.2053407 0.3875675 0.8986805
vn -0.8309234 0.3875675 0.3991964
vn -0.8309234 0.3875675 0.3991964
vn -0.9210975 0.3875675 -0.03702657
vn -0.9210975 0.3875675 -0.03702657
vn -0.8309234 0.3875675 -0.3991964
vn -0.8309234 0.3875675 -0.3991964
vn -0.5754302 0.3875675 -0.7201886
vn -0.5754302 0.3875675 -0.7201886
vn -0.2053407 0.3875675 -0.8986805
vn -0.2053407 0.3875675 -0.8986805
vn 0.2060786 0.3875675 -0.8985116
vn 0.2060786 0.3875675 -0.8985116
vn -0.2053407 0.3875675 -0.8986805
vn -0.2053407 0.3875675 -0.8986805
vn 0.5742894 0.3875675 -0.7210985
vn 0.5742894 0.3875675 -0.7210985
vn 0.8297827 0.3875675 -0.4015622
vn 0.8297827 0.3875675 -0.4015622
vn 0.9218354 0.3875675 0.003320672
vn 0.9218354 0.3875675 0.003320672
vn 0.8297827 0.3875675 0.4015622
vn 0.8297827 0.3875675 0.4015622
vn 0.5742894 0.3875675 0.7210985
vn 0.5742894 0.3875675 0.7210985
vn 0.2041999 0.3875675 0.8989404
vn 0.2041999 0.3875675 0.8989404
vn -0.2053407 0.3875675 0.8986805
vn -0.2053407 0.3875675 0.8986805
g ShadowCollision_0
f 3/3/3 2/2/2 1/1/1
f 4/4/4 3/3/3 1/1/1
f 4/4/4 1/1/1 5/5/5
f 1/1/1 6/6/6 5/5/5
f 5/5/5 6/6/6 7/7/7
f 6/6/6 8/8/8 7/7/7
f 9/9/9 2/2/2 3/3/3
f 10/10/10 9/9/9 3/3/3
f 11/11/11 9/9/9 10/10/10
f 12/12/12 11/11/11 10/10/10
f 13/13/13 11/11/11 12/12/12
f 14/14/14 13/13/13 12/12/12
f 15/15/15 13/13/13 14/14/14
f 16/16/16 15/15/15 14/14/14
f 17/17/17 15/15/15 16/16/16
f 18/18/18 17/17/17 16/16/16
f 19/19/19 17/17/17 18/18/18
f 20/20/20 19/19/19 18/18/18
f 21/21/21 19/19/19 20/20/20
f 22/22/22 21/21/21 20/20/20
f 23/23/23 21/21/21 22/22/22
f 24/24/24 23/23/23 22/22/22
f 25/25/25 23/23/23 24/24/24
f 26/26/26 25/25/25 24/24/24
f 27/27/27 25/25/25 26/26/26
f 28/28/28 27/27/27 26/26/26
f 29/29/29 27/27/27 28/28/28
f 30/30/30 29/29/29 28/28/28
f 33/33/33 32/32/32 31/31/31
f 31/31/31 32/32/32 34/34/34
f 34/34/34 32/32/32 35/35/35
f 35/35/35 32/32/32 36/36/36
f 36/36/36 32/32/32 37/37/37
f 37/37/37 32/32/32 38/38/38
f 41/41/41 40/40/40 39/39/39
f 39/39/39 40/40/40 42/42/42
f 43/43/43 42/42/42 40/40/40
f 43/43/43 40/40/40 44/44/44
f 44/44/44 40/40/40 45/45/45
f 45/45/45 40/40/40 46/46/46
f 46/46/46 40/40/40 47/47/47
f 47/47/47 40/40/40 48/48/48
f 51/51/51 50/50/50 49/49/49
f 52/52/52 51/51/51 49/49/49
f 53/53/53 51/51/51 52/52/52
f 54/54/54 53/53/53 52/52/52
f 53/53/53 54/54/54 55/55/55
f 54/54/54 56/56/56 55/55/55
f 57/57/57 55/55/55 56/56/56
f 58/58/58 57/57/57 56/56/56
f 59/59/59 57/57/57 58/58/58
f 60/60/60 59/59/59 58/58/58
f 49/49/49 50/50/50 61/61/61
f 50/50/50 62/62/62 61/61/61
f 61/61/61 62/62/62 63/63/63
f 62/62/62 64/64/64 63/63/63
f 63/63/63 64/64/64 65/65/65
f 64/64/64 66/66/66 65/65/65
f 69/69/69 68/68/68 67/67/67
f 70/70/70 69/69/69 67/67/67
f 71/71/71 69/69/69 70/70/70
f 72/72/72 71/71/71 70/70/70
f 73/73/73 71/71/71 72/72/72
f 74/74/74 73/73/73 72/72/72
f 75/75/75 73/73/73 74/74/74
f 76/76/76 75/75/75 74/74/74
f 77/77/77 75/75/75 76/76/76
f 78/78/78 77/77/77 76/76/76
f 79/79/79 77/77/77 78/78/78
f 80/80/80 79/79/79 78/78/78
f 83/83/83 82/82/82 81/81/81
f 84/84/84 83/83/83 81/81/81
f 81/81/81 82/82/82 85/85/85
f 82/82/82 86/86/86 85/85/85
f 85/85/85 86/86/86 87/87/87
f 86/86/86 88/88/88 87/87/87
f 87/87/87 88/88/88 89/89/89
f 88/88/88 90/90/90 89/89/89
f 89/89/89 90/90/90 91/91/91
f 90/90/90 92/92/92 91/91/91
f 91/91/91 92/92/92 93/93/93
f 92/92/92 94/94/94 93/93/93
f 97/97/97 96/96/96 95/95/95
f 98/98/98 97/97/97 95/95/95
f 95/95/95 96/96/96 99/99/99
f 96/96/96 100/100/100 99/99/99
f 99/99/99 100/100/100 101/101/101
f 100/100/100 102/102/102 101/101/101
f 101/101/101 102/102/102 103/103/103
f 102/102/102 104/104/104 103/103/103
f 103/103/103 104/104/104 105/105/105
f 104/104/104 106/106/106 105/105/105
f 105/105/105 106/106/106 107/107/107
f 106/106/106 108/108/108 107/107/107
f 107/107/107 108/108/108 109/109/109
f 108/108/108 110/110/110 109/109/109
f 109/109/109 110/110/110 111/111/111
f 110/110/110 112/112/112 111/111/111
