g ShadowCollision
v -15 1.634862 -3.307502
v -15 1.634862 -4.719905
v 15 1.600444 -4.719905
v 15 1.634862 -3.307502
v 15 0.006137848 0.0006732941
v -15 0.05022621 -0.0006713867
v -15 1.634862 -3.307502
v 15 1.634862 -3.307502
v -15 1.634862 -4.719905
v -15 -0.02999687 -5.581846
v 15 -0.02999687 -5.581846
v 15 1.600444 -4.719905
vt 0 0.2823203
vt 0 0.7333049
vt 1 0.7333049
vt 1 0.2823203
vt 1 0
vt 0 0
vt 0 0.2823203
vt 1 0.2823203
vt 0 0
vt 0 1
vt 1 1
vt 1 0
vn 0.0002660562 1 0
vn 0.0002660562 1 0
vn 0.0002660562 1 0
vn 0.0002660562 1 0
vn 0.0002660562 0.9667556 0.255702
vn 0.0002660562 0.9667556 0.255702
vn 0.0002660562 0.881689 0.4718309
vn 0.0002660562 0.881689 0.4718309
vn 0.0002660562 0.4632004 -0.8862535
vn 0.0002660562 0.4632004 -0.8862535
vn 0.0002660562 0.4632004 -0.8862535
vn 0.0002660562 0.4632004 -0.8862535
g ShadowCollision_0
f 3/3/3 2/2/2 1/1/1
f 4/4/4 3/3/3 1/1/1
f 7/7/7 6/6/6 5/5/5
f 8/8/8 7/7/7 5/5/5
f 11/11/11 10/10/10 9/9/9
f 12/12/12 11/11/11 9/9/9
