g ShaftK_Down_RF_LOD2
v -0.04000008 0.01386341 -0.02401184
v 0.05000002 0.01386341 -0.02401184
v -0.04000008 0.01386341 0.02401182
v 0.05000002 0.01386341 0.02401182
v -0.04000008 -0.02772672 1.341105E-07
v 0.05000002 -0.02772672 1.341105E-07
v 0.05000002 -0.02772672 1.341105E-07
v -0.04000008 -0.02772672 1.341105E-07
v -0.1249999 -0.08500001 1.341105E-07
v -0.1249999 -0.06249991 0.01299045
v -0.05 -0.01500003 1.341105E-07
v -0.1249999 -0.06249991 0.01299045
v -0.05 0.007500067 0.01299045
v -0.05 -0.01500003 1.341105E-07
v -0.05 0.007500067 -0.01299047
v -0.1249999 -0.06249991 -0.01299047
v -0.05 -0.01500003 1.341105E-07
v -0.1249999 -0.06249991 -0.01299047
v -0.1249999 -0.08500001 1.341105E-07
v -0.05 -0.01500003 1.341105E-07
v -0.1249999 -0.06249991 0.01299045
v -0.1249999 -0.06249991 -0.01299047
v -0.05 0.007500067 0.01299045
v -0.05 0.007500067 -0.01299047
v -0.1249999 -0.08500001 1.341105E-07
v -0.1249999 -0.06249991 -0.01299047
v -0.1403264 -0.09781776 1.341105E-07
v -0.1403264 -0.05609103 -0.02409101
v -0.1249999 -0.06249991 0.01299045
v -0.1403264 -0.05609103 0.024091
v -0.1249999 -0.08500001 1.341105E-07
v -0.1403264 -0.09781776 1.341105E-07
v -0.2062907 -0.05609103 -0.02409101
v -0.2062907 -0.09781776 1.341105E-07
v -0.2062907 -0.09781776 1.341105E-07
v -0.2062907 -0.05609103 0.024091
v -0.05 -0.01500003 1.341105E-07
v -0.05 0.007500067 0.01299045
v -0.04000008 -0.02772672 1.341105E-07
v -0.04000008 0.01386341 0.02401182
v -0.04000008 0.01386341 -0.02401184
v -0.05 0.007500067 -0.01299047
vt 0.2659011 0.1033633
vt 0.3287025 0.1033633
vt 0.2659011 0.08412998
vt 0.3287025 0.08412998
vt 0.2656847 0.0648967
vt 0.3287025 0.0648967
vt 0.3287025 0.1225966
vt 0.2659011 0.1225966
vt 0.3731361 0.06709446
vt 0.361874 0.06709446
vt 0.3562486 0.1203988
vt 0.361874 0.06709446
vt 0.3675107 0.1203988
vt 0.3562486 0.1203988
vt 0.3449979 0.1203988
vt 0.3506232 0.06709446
vt 0.3562486 0.1203988
vt 0.3506232 0.06709446
vt 0.3393611 0.06709446
vt 0.3562486 0.1203988
vt 0.361874 0.06709446
vt 0.3506232 0.06709446
vt 0.3675107 0.1203988
vt 0.3449979 0.1203988
vt 0.309287 0.06042145
vt 0.309287 0.04123371
vt 0.3148327 0.06041006
vt 0.3148327 0.04123371
vt 0.309287 0.02204597
vt 0.3148327 0.02204597
vt 0.309287 0.002858233
vt 0.3148327 0.002858233
vt 0.3286456 0.04123371
vt 0.3286456 0.06041006
vt 0.3286456 0.002949332
vt 0.3286456 0.02204597
vt 0.2714923 0.02242176
vt 0.2635211 0.03584748
vt 0.2714923 0.01492886
vt 0.2573605 0.03940034
vt 0.285624 0.03940034
vt 0.278951 0.03555141
vn -0.06061065 0.5102545 -0.857885
vn -0.0005437136 0.4999573 -0.8660499
vn -0.06061065 0.4879439 0.8707681
vn -0.0005437136 0.4999573 0.8660499
vn -0.06060326 -0.998162 0
vn -0.0005437136 -0.9999999 0
vn -0.0005437136 -0.9999999 0
vn -0.06060326 -0.998162 0
vn 0.6825032 -0.7305567 -0.02182295
vn -0.2167846 0.2339466 0.9477729
vn 0.6825032 -0.7305567 -0.02182295
vn -0.2167846 0.2339466 0.9477729
vn -0.601213 0.644118 0.4729218
vn 0.6825032 -0.7305567 -0.02182295
vn -0.601213 0.644118 -0.4729218
vn -0.2167846 0.2339466 -0.9477729
vn 0.6825032 -0.7305567 -0.02182295
vn -0.2167846 0.2339466 -0.9477729
vn 0.6825032 -0.7305567 -0.02182295
vn 0.6825032 -0.7305567 -0.02182295
vn -0.2167846 0.2339466 0.9477729
vn -0.2167846 0.2339466 -0.9477729
vn -0.601213 0.644118 0.4729218
vn -0.601213 0.644118 -0.4729218
vn 0.6069905 -0.7254082 0.3245698
vn 0.6069905 0.0846374 -0.7901893
vn 0.09384722 -0.9948513 0.03825692
vn 0.09384722 0.4724982 -0.8763208
vn 0.6069905 0.6424018 0.4678488
vn 0.09384722 0.5222679 0.8476018
vn 0.6069905 -0.7254082 0.3245698
vn 0.09384722 -0.9948513 0.03825692
vn -0.0005437136 0.4999573 -0.8660499
vn -0.0005437136 -0.9999999 0
vn -0.0005437136 -0.9999999 0
vn -0.0005437136 0.4999573 0.8660499
vn -0.7556709 -0.5932609 -0.2774941
vn -0.7556709 0.05717814 0.6524509
vn -0.06060326 -0.998162 0
vn -0.06061065 0.4879439 0.8707681
vn -0.06061065 0.5102545 -0.857885
vn -0.7556709 0.5359975 -0.3763883
g ShaftK_Down_RF_LOD2_0
f 3/3/3 2/2/2 1/1/1
f 3/3/3 4/4/4 2/2/2
f 5/5/5 4/4/4 3/3/3
f 5/5/5 6/6/6 4/4/4
f 1/1/1 2/2/2 7/7/7
f 1/1/1 7/7/7 8/8/8
f 11/11/11 10/10/10 9/9/9
f 14/14/14 13/13/13 12/12/12
f 17/17/17 16/16/16 15/15/15
f 20/20/20 19/19/19 18/18/18
f 23/23/23 22/22/22 21/21/21
f 23/23/23 24/24/24 22/22/22
f 27/27/27 26/26/26 25/25/25
f 27/27/27 28/28/28 26/26/26
f 28/28/28 29/29/29 26/26/26
f 28/28/28 30/30/30 29/29/29
f 30/30/30 31/31/31 29/29/29
f 30/30/30 32/32/32 31/31/31
f 27/27/27 33/33/33 28/28/28
f 33/33/33 30/30/30 28/28/28
f 27/27/27 34/34/34 33/33/33
f 30/30/30 35/35/35 32/32/32
f 30/30/30 36/36/36 35/35/35
f 33/33/33 36/36/36 30/30/30
f 39/39/39 38/38/38 37/37/37
f 39/39/39 40/40/40 38/38/38
f 41/41/41 39/39/39 37/37/37
f 41/41/41 37/37/37 42/42/42
f 40/40/40 42/42/42 38/38/38
f 40/40/40 41/41/41 42/42/42
