g ShaftK_Normal_RF_LOD1
v -0.17 0.01027422 -0.01779534
v -0.03999988 0.01343888 -0.02327689
v -0.17 0.01027422 0.01779521
v -0.03999988 0.01343888 0.02327701
v -0.17 -0.02054814 -6.332994E-08
v -0.03999988 -0.02687795 -6.332994E-08
v -0.03999988 -0.02687795 -6.332994E-08
v -0.17 -0.02054814 -6.332994E-08
v 0.03464094 0.02000003 0.03464106
v -0.03999988 0.01343888 0.02327701
v 0.03464094 0.02000003 -0.03464094
v -0.03999988 0.01343888 -0.02327689
v -0.03999988 -0.02687795 -6.332994E-08
v 0.03464094 -0.04 -6.332994E-08
v 0.03464094 -0.04 -6.332994E-08
v -0.03999988 -0.02687795 -6.332994E-08
v -0.17 0.01027422 0.01779521
v -0.22 0.01500001 0.02598072
v -0.17 0.01027422 -0.01779534
v -0.22 0.01500001 -0.02598085
v -0.22 -0.02999996 -6.332994E-08
v -0.17 -0.02054814 -6.332994E-08
v -0.17 -0.02054814 -6.332994E-08
v -0.22 -0.02999996 -6.332994E-08
vt 0.08799297 0.08025028
vt 0.03699653 0.08025028
vt 0.08799297 0.04475563
vt 0.03699653 0.04475563
vt 0.08799297 0.009260979
vt 0.03701111 0.009260979
vt 0.03701111 0.1157303
vt 0.08799297 0.1157303
vt 0.005555494 0.04475563
vt 0.03699653 0.04475563
vt 0.005555494 0.08025028
vt 0.03699653 0.08025028
vt 0.03701111 0.009260979
vt 0.005555494 0.009260979
vt 0.005555494 0.1157303
vt 0.03701111 0.1157303
vt 0.08799297 0.04475563
vt 0.1194486 0.04475563
vt 0.08799297 0.08025028
vt 0.1194486 0.08025028
vt 0.1194486 0.009260979
vt 0.08799297 0.009260979
vt 0.08799297 0.1157303
vt 0.1194486 0.1157303
vn -0.04928255 0.4500626 -0.8916361
vn -0.04928255 0.4676267 -0.8825511
vn -0.04928255 0.5474633 0.8353773
vn -0.04928255 0.5298992 0.8466275
vn -0.04928255 -0.9965776 0.0663654
vn -0.04928255 -0.9981743 0.03491808
vn -0.04928255 -0.9981743 0.03491808
vn -0.04928255 -0.9965776 0.0663654
vn -0.1722311 0.5809947 0.7954757
vn -0.1706343 0.6352836 0.7531924
vn -0.1722311 0.3989671 -0.9006451
vn -0.1706343 0.3350978 -0.9266032
vn -0.1706343 -0.9694331 0.1763047
vn -0.1722311 -0.9790135 0.108945
vn -0.1722311 -0.9790135 0.108945
vn -0.1706343 -0.9694331 0.1763047
vn 0.1822437 0.3319044 0.9255413
vn 0.1838405 0.3909835 0.9018506
vn 0.1822437 0.6352836 -0.7504679
vn 0.1838405 0.5857849 -0.7893407
vn 0.1838405 -0.9758201 -0.1182281
vn 0.1822437 -0.9678364 -0.1734357
vn 0.1822437 -0.9678364 -0.1734357
vn 0.1838405 -0.9758201 -0.1182281
g ShaftK_Normal_RF_LOD1_0
f 3/3/3 2/2/2 1/1/1
f 3/3/3 4/4/4 2/2/2
f 5/5/5 4/4/4 3/3/3
f 5/5/5 6/6/6 4/4/4
f 1/1/1 2/2/2 7/7/7
f 1/1/1 7/7/7 8/8/8
f 11/11/11 10/10/10 9/9/9
f 11/11/11 12/12/12 10/10/10
f 9/9/9 10/10/10 13/13/13
f 9/9/9 13/13/13 14/14/14
f 15/15/15 12/12/12 11/11/11
f 15/15/15 16/16/16 12/12/12
f 19/19/19 18/18/18 17/17/17
f 19/19/19 20/20/20 18/18/18
f 17/17/17 18/18/18 21/21/21
f 17/17/17 21/21/21 22/22/22
f 23/23/23 20/20/20 19/19/19
f 23/23/23 24/24/24 20/20/20
