g ShaftK_Down_LF_LOD1
v 0.05000003 0.007500082 0.01299044
v 0.05000003 0.007500082 -0.01299047
v 0.05976306 0.007500082 0.01299044
v 0.05976306 0.007500082 -0.01299047
v 0.08076738 -0.009421229 -0.01299047
v 0.08076738 -0.009421229 0.01299044
v 0.05976306 0.007500082 -0.01299047
v 0.05000003 0.007500082 -0.01299047
v 0.05373424 -0.01500008 1.043081E-07
v 0.05000003 -0.01500008 1.043081E-07
v 0.05000003 0.007500082 0.01299044
v 0.05976306 0.007500082 0.01299044
v 0.08076738 -0.009421229 -0.01299047
v 0.06108853 -0.02032937 1.043081E-07
v 0.08076738 -0.009421229 0.01299044
v 0.0399999 0.01386327 -0.02401201
v 0.0399999 0.01386327 0.02401198
v -0.04999998 0.01386327 -0.02401201
v -0.04999998 0.01386327 0.02401198
v 0.0399999 -0.02772668 1.043081E-07
v -0.04999998 -0.02772668 1.043081E-07
v -0.04999998 -0.02772668 1.043081E-07
v 0.0399999 -0.02772668 1.043081E-07
v 0.08076738 -0.009421229 0.01299044
v 0.1049174 -0.05330676 0.01299044
v 0.06108853 -0.02032937 1.043081E-07
v 0.08523827 -0.06421489 1.043081E-07
v 0.1049174 -0.05330676 -0.01299047
v 0.08076738 -0.009421229 -0.01299047
v 0.06108853 -0.02032937 1.043081E-07
v 0.08523827 -0.06421489 1.043081E-07
v 0.1168215 -0.06250006 0.01299044
v 0.1107927 -0.08499996 1.043081E-07
v 0.125 -0.08499996 1.043081E-07
v 0.125 -0.06250006 0.01299044
v 0.1168215 -0.06250006 -0.01299047
v 0.125 -0.06250006 -0.01299047
v 0.125 -0.08499996 1.043081E-07
v 0.1107927 -0.08499996 1.043081E-07
v 0.125 -0.08499996 1.043081E-07
v 0.1403262 -0.09781774 1.043081E-07
v 0.125 -0.06250006 -0.01299047
v 0.1403262 -0.05609116 -0.02409096
v 0.125 -0.06250006 0.01299044
v 0.1403262 -0.05609116 0.02409093
v 0.125 -0.08499996 1.043081E-07
v 0.1403262 -0.09781774 1.043081E-07
v 0.2062908 -0.05609116 -0.02409096
v 0.2062908 -0.09781774 1.043081E-07
v 0.2062908 -0.09781774 1.043081E-07
v 0.2062908 -0.05609116 0.02409093
v 0.05000003 -0.01500008 1.043081E-07
v 0.0399999 -0.02772668 1.043081E-07
v 0.05000003 0.007500082 0.01299044
v 0.0399999 0.01386327 0.02401198
v 0.0399999 0.01386327 -0.02401201
v 0.05000003 0.007500082 -0.01299047
vt 0.3675107 0.1203988
vt 0.3449979 0.1203988
vt 0.3675107 0.1155592
vt 0.3449979 0.1155592
vt 0.3449979 0.1010175
vt 0.3675107 0.1010175
vt 0.3449979 0.1155592
vt 0.3449979 0.1203988
vt 0.3562486 0.1155592
vt 0.3562486 0.1203988
vt 0.3675107 0.1203988
vt 0.3675107 0.1155592
vt 0.3449979 0.1010175
vt 0.3562486 0.1010175
vt 0.3675107 0.1010175
vt 0.2659011 0.1033633
vt 0.2659011 0.08412998
vt 0.3287025 0.1033633
vt 0.3287025 0.08412998
vt 0.2656847 0.0648967
vt 0.3287025 0.0648967
vt 0.3287025 0.1225966
vt 0.2659011 0.1225966
vt 0.361874 0.1010175
vt 0.361874 0.08163615
vt 0.3731361 0.1010175
vt 0.3731361 0.08163615
vt 0.3506232 0.08163615
vt 0.3506232 0.1010175
vt 0.3393611 0.1010175
vt 0.3393611 0.08163615
vt 0.361874 0.07464429
vt 0.3731361 0.07464429
vt 0.3731361 0.06709446
vt 0.361874 0.06709446
vt 0.3506232 0.07464429
vt 0.3506232 0.06709446
vt 0.3393611 0.06709446
vt 0.3393611 0.07464429
vt 0.309287 0.06042145
vt 0.3148327 0.06041006
vt 0.309287 0.04123371
vt 0.3148327 0.04123371
vt 0.309287 0.02204597
vt 0.3148327 0.02204597
vt 0.309287 0.002858233
vt 0.3148327 0.002858233
vt 0.3286456 0.04123371
vt 0.3286456 0.06041006
vt 0.3286456 0.002949332
vt 0.3286456 0.02204597
vt 0.2714923 0.02242176
vt 0.2714923 0.01492886
vt 0.2635211 0.03584748
vt 0.2573605 0.03940034
vt 0.285624 0.03940034
vt 0.278951 0.03555141
vn 0.0008157492 0.5427259 0.8399095
vn 0.0008157492 0.5427259 -0.8399095
vn 0.321918 0.5732217 0.7535156
vn 0.321918 0.5732217 -0.7535156
vn 0.4636334 0.3633392 -0.808102
vn 0.4636334 0.3633392 0.808102
vn 0.321918 0.5732217 -0.7535156
vn 0.0008157492 0.5427259 -0.8399095
vn -0.5086424 -0.860078 -0.03935286
vn 0.0008157492 -0.9999996 -0.0002441406
vn 0.0008157492 0.5427259 0.8399095
vn 0.321918 0.5732217 0.7535156
vn 0.4636334 0.3633392 -0.808102
vn -0.8351262 -0.549739 -0.01874406
vn 0.4636334 0.3633392 0.808102
vn 0.06001335 0.5104363 -0.8578188
vn 0.06001335 0.487116 0.8712729
vn 0.0008157492 0.4996731 -0.8662137
vn 0.0008157492 0.4996731 0.8662137
vn 0.06001287 -0.9981977 0
vn 0.0008157492 -0.9999996 -0.0002441406
vn 0.0008157492 -0.9999996 -0.0002441406
vn 0.06001287 -0.9981977 0
vn 0.4636334 0.3633392 0.808102
vn 0.388291 0.2539133 0.8858657
vn -0.8351262 -0.549739 -0.01874406
vn -0.8147668 -0.5797887 0
vn 0.388291 0.2539133 -0.8858657
vn 0.4636334 0.3633392 -0.808102
vn -0.8351262 -0.549739 -0.01874406
vn -0.8147668 -0.5797887 0
vn -0.015329 0.06376338 0.9978473
vn -0.4491024 -0.8934804 0
vn 0.0008157492 -0.9999996 -0.0002441406
vn 0.0008157492 0.4996731 0.8662137
vn -0.015329 0.06376338 -0.9978473
vn 0.0008157492 0.4996731 -0.8662137
vn 0.0008157492 -0.9999996 -0.0002441406
vn -0.4491024 -0.8934804 0
vn -0.6073052 -0.725538 0.3236897
vn -0.09246528 -0.9946181 0.04674512
vn -0.6073052 0.08349597 -0.7900689
vn -0.09246528 0.4727651 -0.8763238
vn -0.6073052 0.6413885 0.4688296
vn -0.09246528 0.5229933 0.8473064
vn -0.6073052 -0.725538 0.3236897
vn -0.09246528 -0.9946181 0.04674512
vn 0.0008157492 0.4996731 -0.8662137
vn 0.0008157492 -0.9999996 -0.0002441406
vn 0.0008157492 -0.9999996 -0.0002441406
vn 0.0008157492 0.4996731 0.8662137
vn 0.7560338 -0.5945857 -0.2736435
vn 0.06001287 -0.9981977 0
vn 0.7560338 0.0583818 0.6519237
vn 0.06001335 0.487116 0.8712729
vn 0.06001335 0.5104363 -0.8578188
vn 0.7560338 0.5355505 -0.3762959
g ShaftK_Down_LF_LOD1_0
f 3/3/3 2/2/2 1/1/1
f 3/3/3 4/4/4 2/2/2
f 3/3/3 5/5/5 4/4/4
f 3/3/3 6/6/6 5/5/5
f 9/9/9 8/8/8 7/7/7
f 9/9/9 10/10/10 8/8/8
f 9/9/9 11/11/11 10/10/10
f 9/9/9 12/12/12 11/11/11
f 13/13/13 9/9/9 7/7/7
f 13/13/13 14/14/14 9/9/9
f 9/9/9 15/15/15 12/12/12
f 9/9/9 14/14/14 15/15/15
f 18/18/18 17/17/17 16/16/16
f 18/18/18 19/19/19 17/17/17
f 19/19/19 20/20/20 17/17/17
f 19/19/19 21/21/21 20/20/20
f 22/22/22 18/18/18 16/16/16
f 22/22/22 16/16/16 23/23/23
f 26/26/26 25/25/25 24/24/24
f 26/26/26 27/27/27 25/25/25
f 24/24/24 25/25/25 28/28/28
f 24/24/24 28/28/28 29/29/29
f 28/28/28 30/30/30 29/29/29
f 28/28/28 31/31/31 30/30/30
f 32/32/32 25/25/25 27/27/27
f 32/32/32 27/27/27 33/33/33
f 32/32/32 33/33/33 34/34/34
f 32/32/32 34/34/34 35/35/35
f 36/36/36 32/32/32 35/35/35
f 31/31/31 28/28/28 36/36/36
f 36/36/36 25/25/25 32/32/32
f 36/36/36 28/28/28 25/25/25
f 36/36/36 35/35/35 37/37/37
f 36/36/36 37/37/37 38/38/38
f 36/36/36 38/38/38 39/39/39
f 31/31/31 36/36/36 39/39/39
f 42/42/42 41/41/41 40/40/40
f 42/42/42 43/43/43 41/41/41
f 44/44/44 43/43/43 42/42/42
f 44/44/44 45/45/45 43/43/43
f 46/46/46 45/45/45 44/44/44
f 46/46/46 47/47/47 45/45/45
f 48/48/48 41/41/41 43/43/43
f 45/45/45 48/48/48 43/43/43
f 48/48/48 49/49/49 41/41/41
f 50/50/50 45/45/45 47/47/47
f 50/50/50 51/51/51 45/45/45
f 45/45/45 51/51/51 48/48/48
f 54/54/54 53/53/53 52/52/52
f 54/54/54 55/55/55 53/53/53
f 52/52/52 53/53/53 56/56/56
f 52/52/52 56/56/56 57/57/57
f 57/57/57 55/55/55 54/54/54
f 57/57/57 56/56/56 55/55/55
