g ShaftK_Big_RF_LOD0
v -0.06087828 -0.02340601 -0.04054066
v -0.06087828 0.02340613 -0.04054066
v -0.1280156 -0.01799037 -0.03116016
v -0.1280156 0.01799019 -0.03116016
v -0.06087828 0.04681205 -8.940697E-08
v -0.1280156 0.03598078 -8.940697E-08
v -0.06087828 0.02340613 0.04054048
v -0.1280156 0.01799019 0.03116028
v -0.06087828 -0.02340601 0.04054048
v -0.1280156 -0.01799037 0.03116028
v -0.1280156 -0.03598066 -8.940697E-08
v -0.06087828 -0.04681223 -8.940697E-08
v -0.1280156 -0.01799037 0.03116028
v -0.06087828 -0.02340601 0.04054048
v -0.02000009 0.03200001 -0.05542562
v -0.02000009 -0.03199989 -0.05542562
v 0.01999997 -0.03199989 -0.05542562
v 0.01999997 0.03200001 -0.05542562
v -0.02000009 0.06400011 -8.940697E-08
v 0.01999997 0.06400011 -8.940697E-08
v -0.02000009 0.03200001 0.05542574
v 0.01999997 0.03200001 0.05542574
v -0.02000009 -0.03199989 0.05542574
v 0.01999997 -0.03199989 0.05542574
v 0.01999997 -0.064 -8.940697E-08
v -0.02000009 -0.064 -8.940697E-08
v 0.01999997 -0.03199989 0.05542574
v -0.02000009 -0.03199989 0.05542574
v 0.04639896 0.02422696 -0.04196232
v 0.04639896 0.04845399 -8.940697E-08
v 0.04639896 0.02422696 0.04196244
v 0.04639896 -0.02422683 0.04196244
v 0.04639896 -0.04845387 -8.940697E-08
v 0.04639896 -0.02422683 0.04196244
v 0.04639896 -0.02422683 -0.04196232
v 0.06081304 -8.940697E-08 -8.940697E-08
v 0.06081304 -8.940697E-08 -8.940697E-08
v 0.06081304 -8.940697E-08 -8.940697E-08
v 0.06081304 -8.940697E-08 -8.940697E-08
v 0.06081304 -8.940697E-08 -8.940697E-08
v 0.06081304 -8.940697E-08 -8.940697E-08
v -0.2444174 -0.01312216 -0.02272804
v -0.2444174 0.01312198 -0.02272804
v -0.2444174 0.02624404 -8.940697E-08
v -0.2444174 0.01312198 0.02272816
v -0.2444174 -0.01312216 0.02272816
v -0.2444174 -0.02624393 -8.940697E-08
v -0.2444174 -0.01312216 0.02272816
v -0.2506964 -8.940697E-08 -8.940697E-08
v -0.2506964 -8.940697E-08 -8.940697E-08
v -0.2506964 -8.940697E-08 -8.940697E-08
v -0.2506964 -8.940697E-08 -8.940697E-08
v -0.2506964 -8.940697E-08 -8.940697E-08
v -0.2506964 -8.940697E-08 -8.940697E-08
vt 0.1715348 0.08163467
vt 0.1715348 0.06250682
vt 0.2073458 0.08163467
vt 0.2073458 0.06250682
vt 0.1715348 0.04336413
vt 0.2073458 0.04336413
vt 0.1715348 0.02423257
vt 0.2073458 0.02423257
vt 0.1715348 0.005104717
vt 0.2073458 0.005104717
vt 0.2073458 0.1007625
vt 0.1715348 0.1007625
vt 0.2073458 0.1198904
vt 0.1715348 0.1198904
vt 0.1348669 0.06250682
vt 0.1348669 0.08163467
vt 0.1348669 0.08163467
vt 0.1348669 0.06250682
vt 0.1348669 0.04336413
vt 0.1348669 0.04336413
vt 0.1348669 0.02423257
vt 0.1348669 0.02423257
vt 0.1348669 0.005104717
vt 0.1348669 0.005104717
vt 0.1348669 0.1007625
vt 0.1348669 0.1007625
vt 0.1348669 0.1198904
vt 0.1348669 0.1198904
vt 0.1317062 0.06250682
vt 0.1317062 0.04336413
vt 0.1317062 0.02423257
vt 0.1317062 0.005104717
vt 0.1317062 0.1007625
vt 0.1317062 0.1198904
vt 0.1317062 0.08163467
vt 0.1289312 0.05293547
vt 0.1289312 0.07206333
vt 0.1289312 0.09119117
vt 0.1289312 0.110319
vt 0.1289312 0.01467606
vt 0.1289312 0.03380391
vt 0.2308957 0.08163467
vt 0.2308957 0.06250682
vt 0.2308957 0.04336413
vt 0.2308957 0.02423257
vt 0.2308957 0.005104717
vt 0.2308957 0.1007625
vt 0.2308957 0.1198904
vt 0.2431233 0.03380391
vt 0.2431233 0.01467606
vt 0.2431233 0.1084048
vt 0.2431233 0.09119117
vt 0.2431233 0.07206333
vt 0.2431233 0.05293547
vn -0.2688171 -0.4486802 -0.8523048
vn -0.2688171 0.5131962 -0.8150871
vn -0.1143694 -0.4799607 -0.8698031
vn -0.1143694 0.5131962 -0.850617
vn -0.2688171 0.9628539 0.02548903
vn -0.1142904 0.9934474 0
vn -0.2688171 0.4486802 0.8523048
vn -0.1143694 0.4799607 0.8698031
vn -0.2688171 -0.5131962 0.8150871
vn -0.1143694 -0.5131962 0.850617
vn -0.1142904 -0.9934474 0
vn -0.2688171 -0.9628539 -0.02548903
vn -0.1143694 -0.5131962 0.850617
vn -0.2688171 -0.5131962 0.8150871
vn -0.1867057 0.5073311 -0.8412824
vn -0.1867057 -0.4740956 -0.8604501
vn 0.1945258 -0.5034211 -0.8418592
vn 0.1945258 0.4760506 -0.8576337
vn -0.1867057 0.9824042 0.004790385
vn 0.204301 0.9784942 -0.02846621
vn -0.1867057 0.4740956 0.8604501
vn 0.1847506 0.4916909 0.8509449
vn -0.1867057 -0.5073311 0.8412824
vn 0.1945258 -0.4760506 0.8576337
vn 0.1945258 -0.9804492 0.02964877
vn -0.1867057 -0.9824042 -0.004790385
vn 0.1945258 -0.4760506 0.8576337
vn -0.1867057 -0.5073311 0.8412824
vn 0.7693056 0.2922775 -0.5681046
vn 0.7569767 0.6534419 0
vn 0.7829908 0.3098727 0.5393555
vn 0.7693056 -0.2922775 0.5681046
vn 0.7693056 -0.6383184 0.0268066
vn 0.7693056 -0.2922775 0.5681046
vn 0.7693056 -0.3450634 -0.5376804
vn 0.9999995 0.0009775162 0
vn 0.9999995 0.0009775162 0
vn 0.9999995 0.0009775162 0
vn 0.9999995 0.0009775162 0
vn 0.9999995 0.0009775162 0
vn 0.9999995 0.0009775162 0
vn -0.2140762 -0.4721406 -0.8551343
vn -0.2140762 0.5034211 -0.8371013
vn -0.2140762 0.9765391 0.02329721
vn -0.2140762 0.4721406 0.8551343
vn -0.2140762 -0.5034211 0.8371013
vn -0.2140762 -0.9765391 -0.02329721
vn -0.2140762 -0.5034211 0.8371013
vn -0.9999995 0.0009775162 0
vn -0.9999995 0.0009775162 0
vn -0.9999995 0.0009775162 0
vn -0.9999995 0.0009775162 0
vn -0.9999995 0.0009775162 0
vn -0.9999995 0.0009775162 0
g ShaftK_Big_RF_LOD0_0
f 3/3/3 2/2/2 1/1/1
f 3/3/3 4/4/4 2/2/2
f 4/4/4 5/5/5 2/2/2
f 4/4/4 6/6/6 5/5/5
f 6/6/6 7/7/7 5/5/5
f 6/6/6 8/8/8 7/7/7
f 8/8/8 9/9/9 7/7/7
f 8/8/8 10/10/10 9/9/9
f 11/11/11 3/3/3 1/1/1
f 11/11/11 1/1/1 12/12/12
f 13/13/13 11/11/11 12/12/12
f 13/13/13 12/12/12 14/14/14
f 1/1/1 2/2/2 15/15/15
f 1/1/1 15/15/15 16/16/16
f 12/12/12 1/1/1 16/16/16
f 17/17/17 16/16/16 15/15/15
f 17/17/17 15/15/15 18/18/18
f 18/18/18 15/15/15 19/19/19
f 18/18/18 19/19/19 20/20/20
f 20/20/20 19/19/19 21/21/21
f 20/20/20 21/21/21 22/22/22
f 22/22/22 21/21/21 23/23/23
f 22/22/22 23/23/23 24/24/24
f 25/25/25 16/16/16 17/17/17
f 25/25/25 26/26/26 16/16/16
f 14/14/14 12/12/12 26/26/26
f 12/12/12 16/16/16 26/26/26
f 27/27/27 26/26/26 25/25/25
f 27/27/27 28/28/28 26/26/26
f 14/14/14 26/26/26 28/28/28
f 2/2/2 19/19/19 15/15/15
f 2/2/2 5/5/5 19/19/19
f 5/5/5 21/21/21 19/19/19
f 5/5/5 7/7/7 21/21/21
f 7/7/7 23/23/23 21/21/21
f 7/7/7 9/9/9 23/23/23
f 29/29/29 17/17/17 18/18/18
f 30/30/30 18/18/18 20/20/20
f 30/30/30 20/20/20 22/22/22
f 30/30/30 29/29/29 18/18/18
f 30/30/30 22/22/22 31/31/31
f 32/32/32 22/22/22 24/24/24
f 32/32/32 31/31/31 22/22/22
f 33/33/33 27/27/27 25/25/25
f 33/33/33 34/34/34 27/27/27
f 35/35/35 33/33/33 25/25/25
f 29/29/29 35/35/35 17/17/17
f 35/35/35 25/25/25 17/17/17
f 36/36/36 29/29/29 30/30/30
f 37/37/37 35/35/35 29/29/29
f 38/38/38 33/33/33 35/35/35
f 39/39/39 34/34/34 33/33/33
f 40/40/40 31/31/31 32/32/32
f 41/41/41 30/30/30 31/31/31
f 42/42/42 4/4/4 3/3/3
f 42/42/42 43/43/43 4/4/4
f 43/43/43 6/6/6 4/4/4
f 43/43/43 44/44/44 6/6/6
f 44/44/44 8/8/8 6/6/6
f 44/44/44 45/45/45 8/8/8
f 45/45/45 10/10/10 8/8/8
f 45/45/45 46/46/46 10/10/10
f 47/47/47 42/42/42 3/3/3
f 47/47/47 3/3/3 11/11/11
f 48/48/48 47/47/47 11/11/11
f 48/48/48 11/11/11 13/13/13
f 49/49/49 45/45/45 44/44/44
f 50/50/50 46/46/46 45/45/45
f 51/51/51 47/47/47 48/48/48
f 52/52/52 42/42/42 47/47/47
f 53/53/53 43/43/43 42/42/42
f 54/54/54 44/44/44 43/43/43
