g ShaftK_Down_RF_LOD1
v -0.05 0.007500067 0.01299045
v -0.05976325 0.007500067 0.01299045
v -0.05 0.007500067 -0.01299047
v -0.05976325 0.007500067 -0.01299047
v -0.08076742 -0.009421185 -0.01299047
v -0.08076742 -0.009421185 0.01299045
v -0.05 -0.01500003 1.341105E-07
v -0.05 0.007500067 -0.01299047
v -0.0537343 -0.01500003 1.341105E-07
v -0.05976325 0.007500067 -0.01299047
v -0.05 0.007500067 0.01299045
v -0.05976325 0.007500067 0.01299045
v -0.08076742 -0.009421185 -0.01299047
v -0.06108865 -0.02032945 1.341105E-07
v -0.08076742 -0.009421185 0.01299045
v -0.04000008 0.01386341 -0.02401184
v 0.05000002 0.01386341 -0.02401184
v -0.04000008 0.01386341 0.02401182
v 0.05000002 0.01386341 0.02401182
v -0.04000008 -0.02772672 1.341105E-07
v 0.05000002 -0.02772672 1.341105E-07
v 0.05000002 -0.02772672 1.341105E-07
v -0.04000008 -0.02772672 1.341105E-07
v -0.08076742 -0.009421185 0.01299045
v -0.06108865 -0.02032945 1.341105E-07
v -0.1049175 -0.05330654 0.01299045
v -0.08523838 -0.0642148 1.341105E-07
v -0.1049175 -0.05330654 -0.01299047
v -0.08076742 -0.009421185 -0.01299047
v -0.06108865 -0.02032945 1.341105E-07
v -0.08523838 -0.0642148 1.341105E-07
v -0.1168216 -0.06249991 0.01299045
v -0.1107927 -0.08500001 1.341105E-07
v -0.1249999 -0.08500001 1.341105E-07
v -0.1249999 -0.06249991 0.01299045
v -0.1168216 -0.06249991 -0.01299047
v -0.1249999 -0.06249991 -0.01299047
v -0.1249999 -0.08500001 1.341105E-07
v -0.1107927 -0.08500001 1.341105E-07
v -0.1249999 -0.08500001 1.341105E-07
v -0.1249999 -0.06249991 -0.01299047
v -0.1403264 -0.09781776 1.341105E-07
v -0.1403264 -0.05609103 -0.02409101
v -0.1249999 -0.06249991 0.01299045
v -0.1403264 -0.05609103 0.024091
v -0.1249999 -0.08500001 1.341105E-07
v -0.1403264 -0.09781776 1.341105E-07
v -0.2062907 -0.05609103 -0.02409101
v -0.2062907 -0.09781776 1.341105E-07
v -0.2062907 -0.09781776 1.341105E-07
v -0.2062907 -0.05609103 0.024091
v -0.05 -0.01500003 1.341105E-07
v -0.05 0.007500067 0.01299045
v -0.04000008 -0.02772672 1.341105E-07
v -0.04000008 0.01386341 0.02401182
v -0.04000008 0.01386341 -0.02401184
v -0.05 0.007500067 -0.01299047
vt 0.3675107 0.1203988
vt 0.3675107 0.1155592
vt 0.3449979 0.1203988
vt 0.3449979 0.1155592
vt 0.3449979 0.1010175
vt 0.3675107 0.1010175
vt 0.3562486 0.1203988
vt 0.3449979 0.1203988
vt 0.3562486 0.1155592
vt 0.3449979 0.1155592
vt 0.3675107 0.1203988
vt 0.3675107 0.1155592
vt 0.3449979 0.1010175
vt 0.3562486 0.1010175
vt 0.3675107 0.1010175
vt 0.2659011 0.1033633
vt 0.3287025 0.1033633
vt 0.2659011 0.08412998
vt 0.3287025 0.08412998
vt 0.2656847 0.0648967
vt 0.3287025 0.0648967
vt 0.3287025 0.1225966
vt 0.2659011 0.1225966
vt 0.361874 0.1010175
vt 0.3731361 0.1010175
vt 0.361874 0.08163615
vt 0.3731361 0.08163615
vt 0.3506232 0.08163615
vt 0.3506232 0.1010175
vt 0.3393611 0.1010175
vt 0.3393611 0.08163615
vt 0.361874 0.07464429
vt 0.3731361 0.07464429
vt 0.3731361 0.06709446
vt 0.361874 0.06709446
vt 0.3506232 0.07464429
vt 0.3506232 0.06709446
vt 0.3393611 0.06709446
vt 0.3393611 0.07464429
vt 0.309287 0.06042145
vt 0.309287 0.04123371
vt 0.3148327 0.06041006
vt 0.3148327 0.04123371
vt 0.309287 0.02204597
vt 0.3148327 0.02204597
vt 0.309287 0.002858233
vt 0.3148327 0.002858233
vt 0.3286456 0.04123371
vt 0.3286456 0.06041006
vt 0.3286456 0.002949332
vt 0.3286456 0.02204597
vt 0.2714923 0.02242176
vt 0.2635211 0.03584748
vt 0.2714923 0.01492886
vt 0.2573605 0.03940034
vt 0.285624 0.03940034
vt 0.278951 0.03555141
vn -0.0005437136 0.5428623 0.8398215
vn -0.3231889 0.5737538 0.7525659
vn -0.0005437136 0.5428623 -0.8398215
vn -0.3231889 0.5737538 -0.7525659
vn -0.4639171 0.3626615 -0.8082435
vn -0.4639171 0.3626615 0.8082435
vn -0.0005437136 -0.9999999 0
vn -0.0005437136 0.5428623 -0.8398215
vn 0.5090269 -0.8607506 0
vn -0.3231889 0.5737538 -0.7525659
vn -0.0005437136 0.5428623 0.8398215
vn -0.3231889 0.5737538 0.7525659
vn -0.4639171 0.3626615 -0.8082435
vn 0.8350254 -0.5502114 0
vn -0.4639171 0.3626615 0.8082435
vn -0.06061065 0.5102545 -0.857885
vn -0.0005437136 0.4999573 -0.8660499
vn -0.06061065 0.4879439 0.8707681
vn -0.0005437136 0.4999573 0.8660499
vn -0.06060326 -0.998162 0
vn -0.0005437136 -0.9999999 0
vn -0.0005437136 -0.9999999 0
vn -0.06060326 -0.998162 0
vn -0.4639171 0.3626615 0.8082435
vn 0.8350254 -0.5502114 0
vn -0.3884045 0.254541 0.8856359
vn 0.8146505 -0.5795313 -0.02209237
vn -0.3884045 0.254541 -0.8856359
vn -0.4639171 0.3626615 -0.8082435
vn 0.8350254 -0.5502114 0
vn 0.8146505 -0.5795313 -0.02209237
vn 0.01490211 0.06404305 0.9978359
vn 0.4490544 -0.8935044 0
vn -0.0005437136 -0.9999999 0
vn -0.0005437136 0.4999573 0.8660499
vn 0.01490211 0.06404305 -0.9978359
vn -0.0005437136 0.4999573 -0.8660499
vn -0.0005437136 -0.9999999 0
vn 0.4490544 -0.8935044 0
vn 0.6069905 -0.7254082 0.3245698
vn 0.6069905 0.0846374 -0.7901893
vn 0.09384722 -0.9948513 0.03825692
vn 0.09384722 0.4724982 -0.8763208
vn 0.6069905 0.6424018 0.4678488
vn 0.09384722 0.5222679 0.8476018
vn 0.6069905 -0.7254082 0.3245698
vn 0.09384722 -0.9948513 0.03825692
vn -0.0005437136 0.4999573 -0.8660499
vn -0.0005437136 -0.9999999 0
vn -0.0005437136 -0.9999999 0
vn -0.0005437136 0.4999573 0.8660499
vn -0.7556709 -0.5932609 -0.2774941
vn -0.7556709 0.05717814 0.6524509
vn -0.06060326 -0.998162 0
vn -0.06061065 0.4879439 0.8707681
vn -0.06061065 0.5102545 -0.857885
vn -0.7556709 0.5359975 -0.3763883
g ShaftK_Down_RF_LOD1_0
f 3/3/3 2/2/2 1/1/1
f 3/3/3 4/4/4 2/2/2
f 5/5/5 2/2/2 4/4/4
f 5/5/5 6/6/6 2/2/2
f 9/9/9 8/8/8 7/7/7
f 9/9/9 10/10/10 8/8/8
f 11/11/11 9/9/9 7/7/7
f 11/11/11 12/12/12 9/9/9
f 13/13/13 10/10/10 9/9/9
f 13/13/13 9/9/9 14/14/14
f 15/15/15 9/9/9 12/12/12
f 15/15/15 14/14/14 9/9/9
f 18/18/18 17/17/17 16/16/16
f 18/18/18 19/19/19 17/17/17
f 20/20/20 19/19/19 18/18/18
f 20/20/20 21/21/21 19/19/19
f 16/16/16 17/17/17 22/22/22
f 16/16/16 22/22/22 23/23/23
f 26/26/26 25/25/25 24/24/24
f 26/26/26 27/27/27 25/25/25
f 28/28/28 26/26/26 24/24/24
f 28/28/28 24/24/24 29/29/29
f 28/28/28 29/29/29 30/30/30
f 28/28/28 30/30/30 31/31/31
f 27/27/27 26/26/26 32/32/32
f 27/27/27 32/32/32 33/33/33
f 34/34/34 33/33/33 32/32/32
f 34/34/34 32/32/32 35/35/35
f 35/35/35 32/32/32 36/36/36
f 31/31/31 36/36/36 28/28/28
f 26/26/26 36/36/36 32/32/32
f 26/26/26 28/28/28 36/36/36
f 35/35/35 36/36/36 37/37/37
f 36/36/36 38/38/38 37/37/37
f 36/36/36 39/39/39 38/38/38
f 31/31/31 39/39/39 36/36/36
f 42/42/42 41/41/41 40/40/40
f 42/42/42 43/43/43 41/41/41
f 43/43/43 44/44/44 41/41/41
f 43/43/43 45/45/45 44/44/44
f 45/45/45 46/46/46 44/44/44
f 45/45/45 47/47/47 46/46/46
f 42/42/42 48/48/48 43/43/43
f 48/48/48 45/45/45 43/43/43
f 42/42/42 49/49/49 48/48/48
f 45/45/45 50/50/50 47/47/47
f 45/45/45 51/51/51 50/50/50
f 48/48/48 51/51/51 45/45/45
f 54/54/54 53/53/53 52/52/52
f 54/54/54 55/55/55 53/53/53
f 56/56/56 54/54/54 52/52/52
f 56/56/56 52/52/52 57/57/57
f 55/55/55 57/57/57 53/53/53
f 55/55/55 56/56/56 57/57/57
