g ShaftK_Normal_LF_LOD1
v 0.17 0.0102742 -0.01779526
v 0.17 0.0102742 0.01779535
v 0.04000002 0.01343895 -0.023277
v 0.04000002 0.01343895 0.02327709
v 0.17 -0.02054815 -7.450581E-08
v 0.04000002 -0.02687789 -7.450581E-08
v 0.04000002 -0.02687789 -7.450581E-08
v 0.17 -0.02054815 -7.450581E-08
v -0.034641 0.01999989 0.034641
v -0.034641 0.01999989 -0.03464092
v 0.04000002 0.01343895 0.02327709
v 0.04000002 0.01343895 -0.023277
v 0.04000002 -0.02687789 -7.450581E-08
v -0.034641 -0.04000002 -7.450581E-08
v -0.034641 -0.04000002 -7.450581E-08
v 0.04000002 -0.02687789 -7.450581E-08
v 0.17 0.0102742 0.01779535
v 0.17 0.0102742 -0.01779526
v 0.22 0.01499996 0.02598068
v 0.22 0.01499996 -0.02598083
v 0.22 -0.02999991 -7.450581E-08
v 0.17 -0.02054815 -7.450581E-08
v 0.17 -0.02054815 -7.450581E-08
v 0.22 -0.02999991 -7.450581E-08
vt 0.08799297 0.08025028
vt 0.08799297 0.04475563
vt 0.03699653 0.08025028
vt 0.03699653 0.04475563
vt 0.08799297 0.009260979
vt 0.03701111 0.009260979
vt 0.03701111 0.1157303
vt 0.08799297 0.1157303
vt 0.005555494 0.04475563
vt 0.005555494 0.08025028
vt 0.03699653 0.04475563
vt 0.03699653 0.08025028
vt 0.03701111 0.009260979
vt 0.005555494 0.009260979
vt 0.005555494 0.1157303
vt 0.03701111 0.1157303
vt 0.08799297 0.04475563
vt 0.08799297 0.08025028
vt 0.1194486 0.04475563
vt 0.1194486 0.08025028
vt 0.1194486 0.009260979
vt 0.08799297 0.009260979
vt 0.08799297 0.1157303
vt 0.1194486 0.1157303
vn 0.04811805 0.4500628 -0.8916996
vn 0.04811805 0.5474634 0.8354451
vn 0.04811805 0.4676268 -0.8826153
vn 0.04811805 0.5298994 0.8466944
vn 0.04811805 -0.9965776 0.06721453
vn 0.04811805 -0.9981743 0.03650617
vn 0.04811805 -0.9981743 0.03650617
vn 0.04811805 -0.9965776 0.06721453
vn 0.1726632 0.5809948 0.7953819
vn 0.1726632 0.3989673 -0.9005623
vn 0.1710665 0.6352838 0.7530941
vn 0.1710665 0.3350979 -0.9265234
vn 0.1710665 -0.9694331 0.1758853
vn 0.1726632 -0.9790135 0.108259
vn 0.1726632 -0.9790135 0.108259
vn 0.1710665 -0.9694331 0.1758853
vn -0.1834083 0.3319045 0.9253112
vn -0.1834083 0.6352838 -0.7501839
vn -0.1850051 0.3909836 0.9016124
vn -0.1850051 0.585785 -0.7890685
vn -0.1850051 -0.9758201 -0.1163972
vn -0.1834083 -0.9678364 -0.1722038
vn -0.1834083 -0.9678364 -0.1722038
vn -0.1850051 -0.9758201 -0.1163972
g ShaftK_Normal_LF_LOD1_0
f 3/3/3 2/2/2 1/1/1
f 3/3/3 4/4/4 2/2/2
f 4/4/4 5/5/5 2/2/2
f 4/4/4 6/6/6 5/5/5
f 7/7/7 3/3/3 1/1/1
f 7/7/7 1/1/1 8/8/8
f 11/11/11 10/10/10 9/9/9
f 11/11/11 12/12/12 10/10/10
f 13/13/13 11/11/11 9/9/9
f 13/13/13 9/9/9 14/14/14
f 12/12/12 15/15/15 10/10/10
f 12/12/12 16/16/16 15/15/15
f 19/19/19 18/18/18 17/17/17
f 19/19/19 20/20/20 18/18/18
f 21/21/21 19/19/19 17/17/17
f 21/21/21 17/17/17 22/22/22
f 20/20/20 23/23/23 18/18/18
f 20/20/20 24/24/24 23/23/23
