g ShaftK_Down_LF_LOD0
v 0.05976307 0.007499948 0.01299034
v 0.05574402 -0.007499874 0.01299034
v 0.04999995 0.007499948 0.01299034
v 0.04999995 -0.007499874 0.01299034
v 0.04999995 0.01513858 -8.940697E-08
v 0.06177273 0.015 -8.940697E-08
v 0.05373435 -0.01499993 -8.940697E-08
v 0.04999995 -0.01499993 -8.940697E-08
v 0.04999995 -0.007499874 -0.01299027
v 0.05574402 -0.007499874 -0.01299027
v 0.04999995 0.007499948 -0.01299027
v 0.05976307 0.007499948 -0.01299027
v 0.04999995 0.01513858 -8.940697E-08
v 0.06177273 0.015 -8.940697E-08
v 0.06269611 -0.01109676 0.01299034
v 0.07326539 0.002039477 0.01299034
v 0.07754987 0.007607564 -8.940697E-08
v 0.07326539 0.002039477 -0.01299027
v 0.07754987 0.007607564 -8.940697E-08
v 0.06269611 -0.01109676 -0.01299027
v 0.05841137 -0.01666458 -8.940697E-08
v 0.08732714 -0.005785018 -8.940697E-08
v 0.08076757 -0.009421155 0.01299034
v 0.08732714 -0.005785018 -8.940697E-08
v 0.08076757 -0.009421155 -0.01299027
v 0.06764817 -0.01669341 -0.01299027
v 0.06108861 -0.02032928 -8.940697E-08
v 0.06764817 -0.01669341 0.01299034
v 0.09179801 -0.06057884 0.01299034
v 0.06764817 -0.01669341 0.01299034
v 0.1049174 -0.05330658 0.01299034
v 0.08076757 -0.009421155 0.01299034
v 0.06108861 -0.02032928 -8.940697E-08
v 0.08523844 -0.06421497 -8.940697E-08
v 0.111477 -0.04967071 -8.940697E-08
v 0.08732714 -0.005785018 -8.940697E-08
v 0.08076757 -0.009421155 -0.01299027
v 0.1049174 -0.05330658 -0.01299027
v 0.06764817 -0.01669341 -0.01299027
v 0.09179801 -0.06057884 -0.01299027
v 0.06108861 -0.02032928 -8.940697E-08
v 0.08523844 -0.06421497 -8.940697E-08
v 0.1098695 -0.05890323 0.01299034
v 0.09930019 -0.07203947 0.01299034
v 0.09501544 -0.07760756 -8.940697E-08
v 0.09930019 -0.07203947 -0.01299027
v 0.09501544 -0.07760756 -8.940697E-08
v 0.1098695 -0.05890323 -0.01299027
v 0.1141542 -0.05333541 -8.940697E-08
v 0.1168216 -0.06250012 0.01299034
v 0.1188312 -0.05500007 -8.940697E-08
v 0.1249999 -0.06250012 0.01299034
v 0.1249999 -0.07749994 0.01299034
v 0.1128023 -0.07749994 0.01299034
v 0.1249999 -0.08499998 -8.940697E-08
v 0.1107929 -0.08499998 -8.940697E-08
v 0.1249999 -0.05500007 -8.940697E-08
v 0.1249999 -0.06250012 -0.01299027
v 0.1168216 -0.06250012 -0.01299027
v 0.1249999 -0.07749994 -0.01299027
v 0.1128023 -0.07749994 -0.01299027
v 0.1249999 -0.08499998 -8.940697E-08
v 0.1107929 -0.08499998 -8.940697E-08
v 0.1403263 -0.05609116 -0.02409093
v 0.1249999 -0.06250012 -0.01299027
v 0.1403263 -0.0839089 -0.02409093
v 0.1249999 -0.07749994 -0.01299027
v 0.1403263 -0.09781764 -8.940697E-08
v 0.1249999 -0.08499998 -8.940697E-08
v 0.1249999 -0.05500007 -8.940697E-08
v 0.1403263 -0.04218215 -8.940697E-08
v 0.1249999 -0.06250012 0.01299034
v 0.1403263 -0.05609116 0.02409101
v 0.1249999 -0.07749994 0.01299034
v 0.1403263 -0.0839089 0.02409101
v 0.1249999 -0.08499998 -8.940697E-08
v 0.1403263 -0.09781764 -8.940697E-08
v 0.2062907 -0.05609116 -0.02409093
v 0.2062907 -0.04218215 -8.940697E-08
v 0.2062907 -0.0839089 -0.02409093
v 0.2062907 -0.09781764 -8.940697E-08
v 0.2062907 -0.05609116 0.02409101
v 0.2062907 -0.0839089 0.02409101
v 0.22 -0.06999989 -8.940697E-08
v 0.22 -0.06999989 -8.940697E-08
v 0.22 -0.06999989 -8.940697E-08
v 0.22 -0.06999989 -8.940697E-08
v 0.22 -0.06999989 -8.940697E-08
v 0.1403263 -0.0839089 0.02409101
v 0.2062907 -0.0839089 0.02409101
v 0.2062907 -0.09781764 -8.940697E-08
v 0.22 -0.06999989 -8.940697E-08
v 0.03999998 0.02772661 -8.940697E-08
v 0.04999995 0.01513858 -8.940697E-08
v 0.03999998 0.01386325 0.02401195
v 0.04999995 0.007499948 0.01299034
v 0.03999998 -0.01386318 0.02401195
v 0.04999995 -0.007499874 0.01299034
v 0.03999998 -0.02772653 -8.940697E-08
v 0.04999995 -0.01499993 -8.940697E-08
v 0.03999998 -0.01386318 -0.02401188
v 0.04999995 -0.007499874 -0.01299027
v 0.03999998 0.01386325 -0.02401188
v 0.04999995 0.007499948 -0.01299027
v -0.05000004 0.02772661 -8.940697E-08
v 0.03999998 0.02772661 -8.940697E-08
v -0.05000004 0.01386325 0.02401195
v 0.03999998 0.01386325 0.02401195
v 0.03999998 0.01386325 -0.02401188
v -0.05000004 0.01386325 -0.02401188
v 0.03999998 -0.01386318 -0.02401188
v -0.05000004 -0.01386318 -0.02401188
v 0.03999998 -0.02772653 -8.940697E-08
v -0.05000004 -0.02772653 -8.940697E-08
v -0.05000004 -0.01386318 0.02401195
v 0.03999998 -0.01386318 0.02401195
v -0.05000004 -0.02772653 -8.940697E-08
v 0.03999998 -0.02772653 -8.940697E-08
v -0.06 -8.940697E-08 -8.940697E-08
v -0.06 -8.940697E-08 -8.940697E-08
v -0.06 -8.940697E-08 -8.940697E-08
v -0.06 -8.940697E-08 -8.940697E-08
v -0.06 -8.940697E-08 -8.940697E-08
v -0.06 -8.940697E-08 -8.940697E-08
vt 0.3675107 0.1155592
vt 0.361874 0.1155592
vt 0.3675107 0.1203988
vt 0.361874 0.1203988
vt 0.3731361 0.1203988
vt 0.3731361 0.1155592
vt 0.3562486 0.1155592
vt 0.3562486 0.1203988
vt 0.3506232 0.1203988
vt 0.3506232 0.1155592
vt 0.3449979 0.1203988
vt 0.3449979 0.1155592
vt 0.3393611 0.1203988
vt 0.3393611 0.1155592
vt 0.361874 0.1082826
vt 0.3675107 0.1082826
vt 0.3731361 0.1082826
vt 0.3449979 0.1082826
vt 0.3393611 0.1082826
vt 0.3506232 0.1082826
vt 0.3562486 0.1082826
vt 0.3731361 0.1010175
vt 0.3675107 0.1010175
vt 0.3393611 0.1010175
vt 0.3449979 0.1010175
vt 0.3506232 0.1010175
vt 0.3562486 0.1010175
vt 0.361874 0.1010175
vt 0.3675107 0.08163615
vt 0.3675107 0.1010175
vt 0.361874 0.08163615
vt 0.361874 0.1010175
vt 0.3731361 0.1010175
vt 0.3731361 0.08163615
vt 0.3562486 0.08163615
vt 0.3562486 0.1010175
vt 0.3506232 0.1010175
vt 0.3506232 0.08163615
vt 0.3449979 0.1010175
vt 0.3449979 0.08163615
vt 0.3393611 0.1010175
vt 0.3393611 0.08163615
vt 0.361874 0.07814022
vt 0.3675107 0.07814022
vt 0.3731361 0.07814022
vt 0.3449979 0.07814022
vt 0.3393611 0.07814022
vt 0.3506232 0.07814022
vt 0.3562486 0.07814022
vt 0.361874 0.07464429
vt 0.3562486 0.07464429
vt 0.361874 0.06709446
vt 0.3675107 0.06709446
vt 0.3675107 0.07464429
vt 0.3731361 0.06709446
vt 0.3731361 0.07464429
vt 0.3562486 0.06709446
vt 0.3506232 0.06709446
vt 0.3506232 0.07464429
vt 0.3449979 0.06709446
vt 0.3449979 0.07464429
vt 0.3393611 0.06709446
vt 0.3393611 0.07464429
vt 0.3148327 0.04123371
vt 0.309287 0.04123371
vt 0.3148327 0.05082189
vt 0.309287 0.05082189
vt 0.3148327 0.06041006
vt 0.309287 0.06042145
vt 0.309287 0.03163415
vt 0.3148327 0.03163415
vt 0.309287 0.02204597
vt 0.3148327 0.02204597
vt 0.309287 0.0124578
vt 0.3148327 0.0124578
vt 0.309287 0.002858233
vt 0.3148327 0.002858233
vt 0.3269147 0.04123371
vt 0.3269147 0.03163415
vt 0.3269147 0.05082189
vt 0.3269147 0.06041006
vt 0.3269147 0.02204597
vt 0.3269147 0.0124578
vt 0.3286456 0.02684006
vt 0.3286456 0.01725188
vt 0.3286456 0.05561598
vt 0.3286456 0.0460278
vt 0.3286456 0.03643962
vt 0.3148327 0.0124578
vt 0.3269147 0.0124578
vt 0.3269147 0.002937945
vt 0.3286456 0.00769787
vt 0.2714923 0.0475651
vt 0.2714923 0.04023162
vt 0.2573605 0.03940034
vt 0.2635211 0.03584748
vt 0.2573605 0.02308222
vt 0.2638172 0.02681729
vt 0.2714923 0.01492886
vt 0.2714923 0.02242176
vt 0.285624 0.02308222
vt 0.2794748 0.02663509
vt 0.285624 0.03940034
vt 0.278951 0.03555141
vt 0.3273702 0.09374093
vt 0.2659011 0.09375232
vt 0.3273702 0.08412998
vt 0.2659011 0.08412998
vt 0.2659011 0.1033633
vt 0.3273702 0.1033633
vt 0.2659011 0.1129856
vt 0.3273702 0.1129856
vt 0.2659011 0.1225966
vt 0.3273702 0.1225966
vt 0.3273702 0.07451903
vt 0.2659011 0.07450765
vt 0.3273702 0.0648967
vt 0.2656847 0.0648967
vt 0.3287025 0.0985578
vt 0.3287025 0.1081688
vt 0.3287025 0.1177911
vt 0.3287025 0.06970217
vt 0.3287025 0.07932451
vt 0.3287025 0.08893546
vn 0.1221896 0.5405667 0.8323805
vn -0.1026392 -0.3880741 0.915895
vn -0.0009775162 0.5229714 0.8523497
vn -0.0009775162 -0.4858258 0.8740551
vn 0.00879731 0.9999614 0
vn 0.2432251 0.9699699 0
vn -0.1806901 -0.9835401 0
vn -0.0009775162 -0.9999995 0
vn -0.0009775162 -0.4858258 -0.8740551
vn -0.1026392 -0.3880741 -0.915895
vn -0.0009775162 0.5229714 -0.8523497
vn 0.1221896 0.5405667 -0.8323805
vn 0.00879731 0.9999614 0
vn 0.2432251 0.9699699 0
vn -0.2218963 -0.2883674 0.9314539
vn 0.3626587 0.4447701 0.8189372
vn 0.6285432 0.7771257 -0.0317655
vn 0.3626587 0.4447701 -0.8189372
vn 0.6285432 0.7771257 -0.0317655
vn -0.2218963 -0.2883674 -0.9314539
vn -0.5953076 -0.8025411 -0.03919959
vn 0.8643098 0.5029599 0
vn 0.44086 0.2531768 0.8611295
vn 0.8643098 0.5029599 0
vn 0.44086 0.2531768 -0.8611295
vn -0.4252198 -0.2473117 -0.8706464
vn -0.8708175 -0.4916064 0
vn -0.4252198 -0.2473117 0.8706464
vn -0.44086 -0.2531768 0.8611295
vn -0.4252198 -0.2473117 0.8706464
vn 0.4252197 0.2473117 0.8706464
vn 0.44086 0.2531768 0.8611295
vn -0.8708175 -0.4916064 0
vn -0.8643097 -0.5029599 0
vn 0.8708175 0.4916063 0
vn 0.8643098 0.5029599 0
vn 0.44086 0.2531768 -0.8611295
vn 0.4252197 0.2473117 -0.8706464
vn -0.4252198 -0.2473117 -0.8706464
vn -0.44086 -0.2531768 -0.8611295
vn -0.8708175 -0.4916064 0
vn -0.8643097 -0.5029599 0
vn 0.2218963 0.2883674 0.9314539
vn -0.3626586 -0.4447701 0.8189373
vn -0.6285433 -0.7771257 -0.03176456
vn -0.3626586 -0.4447701 -0.8189373
vn -0.6285433 -0.7771257 -0.03176456
vn 0.2218963 0.2883674 -0.9314539
vn 0.5953076 0.8025411 -0.03919807
vn 0.08504397 0.3919842 0.9160327
vn 0.139779 0.9901828 0
vn -0.0009775162 0.4838707 0.8751389
vn -0.0009775162 -0.5268815 0.8499382
vn -0.1085043 -0.5444767 0.8317282
vn -0.0009775162 -0.9999995 0
vn -0.2199413 -0.9745841 -0.04256317
vn -0.0009775162 0.9999995 0
vn -0.0009775162 0.4838707 -0.8751389
vn 0.08504397 0.3919842 -0.9160327
vn -0.0009775162 -0.5268815 -0.8499382
vn -0.1085043 -0.5444767 -0.8317282
vn -0.0009775162 -0.9999995 0
vn -0.2199413 -0.9745841 -0.04256317
vn -0.1182795 0.4897358 -0.8638106
vn -0.6383184 0.3020526 -0.7080352
vn -0.1182795 -0.5034211 -0.8559073
vn -0.6383184 -0.4623654 -0.6154411
vn -0.1182795 -0.9921794 0.03987497
vn -0.6383184 -0.7634405 0.09853002
vn -0.6383184 0.7634405 -0.09853002
vn -0.1182795 0.9921794 -0.03987497
vn -0.6383184 0.4623654 0.6154411
vn -0.1182795 0.5034211 0.8559073
vn -0.6383184 -0.3020526 0.7080352
vn -0.1182795 -0.4897358 0.8638106
vn -0.6383184 -0.7634405 0.09853002
vn -0.1182795 -0.9921794 0.03987497
vn 0.2512218 0.4838707 -0.8383058
vn 0.2510299 0.9679793 0
vn 0.2512218 -0.4838707 -0.8383058
vn 0.2510299 -0.9679793 0
vn 0.2512218 0.4838707 0.8383058
vn 0.2512218 -0.4838707 0.8383058
vn 0.9999995 0.0009775162 0
vn 0.9999995 0.0009775162 0
vn 0.9999995 0.0009775162 0
vn 0.9999995 0.0009775162 0
vn 0.9999995 0.0009775162 0
vn -0.1182795 -0.4897358 0.8638106
vn 0.2512218 -0.4838707 0.8383058
vn 0.2510299 -0.9679793 0
vn 0.9999995 0.0009775162 0
vn 0.086999 0.9960895 0.01539248
vn 0.7810358 0.618768 0.08431675
vn 0.086999 0.4936459 0.8653005
vn 0.7829908 0.2375365 0.5748929
vn 0.086999 -0.501466 0.860792
vn 0.7829908 -0.3782989 0.4937766
vn 0.086999 -0.9960895 -0.01539248
vn 0.7829908 -0.614858 -0.0942076
vn 0.086999 -0.4936459 -0.8653005
vn 0.7829908 -0.2375365 -0.5748929
vn 0.086999 0.501466 -0.860792
vn 0.7829908 0.378299 -0.4937765
vn -0.1925708 0.9804492 -0.04044564
vn 0.086999 0.9960895 0.01539248
vn -0.1925708 0.4897358 0.8503383
vn 0.086999 0.4936459 0.8653005
vn 0.086999 0.501466 -0.860792
vn -0.1925708 0.4897358 -0.8503383
vn 0.086999 -0.4936459 -0.8653005
vn -0.1925708 -0.4897358 -0.8503383
vn 0.086999 -0.9960895 -0.01539248
vn -0.1925708 -0.9804492 -0.04044564
vn -0.1925708 -0.4897358 0.8503383
vn 0.086999 -0.501466 0.860792
vn -0.1925708 -0.9804492 -0.04044564
vn 0.086999 -0.9960895 -0.01539248
vn -0.9999995 0.0009775162 0
vn -0.9999995 0.0009775162 0
vn -0.9999995 0.0009775162 0
vn -0.9999995 0.0009775162 0
vn -0.9999995 0.0009775162 0
vn -0.9999995 0.0009775162 0
g ShaftK_Down_LF_LOD0_0
f 3/3/3 2/2/2 1/1/1
f 3/3/3 4/4/4 2/2/2
f 5/5/5 3/3/3 1/1/1
f 5/5/5 1/1/1 6/6/6
f 4/4/4 7/7/7 2/2/2
f 4/4/4 8/8/8 7/7/7
f 7/7/7 8/8/8 9/9/9
f 7/7/7 9/9/9 10/10/10
f 10/10/10 9/9/9 11/11/11
f 10/10/10 11/11/11 12/12/12
f 12/12/12 11/11/11 13/13/13
f 12/12/12 13/13/13 14/14/14
f 1/1/1 2/2/2 15/15/15
f 1/1/1 15/15/15 16/16/16
f 6/6/6 1/1/1 16/16/16
f 6/6/6 16/16/16 17/17/17
f 18/18/18 12/12/12 14/14/14
f 18/18/18 14/14/14 19/19/19
f 20/20/20 12/12/12 18/18/18
f 20/20/20 10/10/10 12/12/12
f 21/21/21 10/10/10 20/20/20
f 21/21/21 7/7/7 10/10/10
f 2/2/2 21/21/21 15/15/15
f 2/2/2 7/7/7 21/21/21
f 22/22/22 17/17/17 16/16/16
f 22/22/22 16/16/16 23/23/23
f 23/23/23 16/16/16 15/15/15
f 18/18/18 19/19/19 24/24/24
f 18/18/18 24/24/24 25/25/25
f 20/20/20 18/18/18 25/25/25
f 20/20/20 25/25/25 26/26/26
f 21/21/21 20/20/20 26/26/26
f 21/21/21 26/26/26 27/27/27
f 28/28/28 21/21/21 27/27/27
f 28/28/28 15/15/15 21/21/21
f 23/23/23 15/15/15 28/28/28
f 31/31/31 30/30/30 29/29/29
f 31/31/31 32/32/32 30/30/30
f 29/29/29 30/30/30 33/33/33
f 29/29/29 33/33/33 34/34/34
f 35/35/35 32/32/32 31/31/31
f 35/35/35 36/36/36 32/32/32
f 37/37/37 36/36/36 35/35/35
f 37/37/37 35/35/35 38/38/38
f 38/38/38 39/39/39 37/37/37
f 38/38/38 40/40/40 39/39/39
f 41/41/41 39/39/39 40/40/40
f 41/41/41 40/40/40 42/42/42
f 29/29/29 43/43/43 31/31/31
f 29/29/29 44/44/44 43/43/43
f 34/34/34 44/44/44 29/29/29
f 34/34/34 45/45/45 44/44/44
f 46/46/46 42/42/42 40/40/40
f 46/46/46 47/47/47 42/42/42
f 48/48/48 40/40/40 38/38/38
f 48/48/48 46/46/46 40/40/40
f 49/49/49 38/38/38 35/35/35
f 49/49/49 48/48/48 38/38/38
f 31/31/31 49/49/49 35/35/35
f 31/31/31 43/43/43 49/49/49
f 50/50/50 49/49/49 43/43/43
f 50/50/50 51/51/51 49/49/49
f 52/52/52 51/51/51 50/50/50
f 53/53/53 52/52/52 50/50/50
f 53/53/53 50/50/50 54/54/54
f 54/54/54 43/43/43 44/44/44
f 54/54/54 50/50/50 43/43/43
f 55/55/55 53/53/53 54/54/54
f 55/55/55 54/54/54 56/56/56
f 56/56/56 44/44/44 45/45/45
f 56/56/56 54/54/54 44/44/44
f 52/52/52 57/57/57 51/51/51
f 51/51/51 57/57/57 58/58/58
f 51/51/51 58/58/58 59/59/59
f 49/49/49 59/59/59 48/48/48
f 49/49/49 51/51/51 59/59/59
f 59/59/59 58/58/58 60/60/60
f 59/59/59 60/60/60 61/61/61
f 48/48/48 59/59/59 61/61/61
f 61/61/61 60/60/60 62/62/62
f 61/61/61 62/62/62 63/63/63
f 46/46/46 61/61/61 63/63/63
f 48/48/48 61/61/61 46/46/46
f 46/46/46 63/63/63 47/47/47
f 66/66/66 65/65/65 64/64/64
f 66/66/66 67/67/67 65/65/65
f 68/68/68 67/67/67 66/66/66
f 68/68/68 69/69/69 67/67/67
f 64/64/64 65/65/65 70/70/70
f 64/64/64 70/70/70 71/71/71
f 71/71/71 70/70/70 72/72/72
f 71/71/71 72/72/72 73/73/73
f 73/73/73 72/72/72 74/74/74
f 73/73/73 74/74/74 75/75/75
f 75/75/75 74/74/74 76/76/76
f 75/75/75 76/76/76 77/77/77
f 71/71/71 78/78/78 64/64/64
f 71/71/71 79/79/79 78/78/78
f 73/73/73 79/79/79 71/71/71
f 64/64/64 80/80/80 66/66/66
f 64/64/64 78/78/78 80/80/80
f 66/66/66 81/81/81 68/68/68
f 66/66/66 80/80/80 81/81/81
f 75/75/75 82/82/82 73/73/73
f 73/73/73 82/82/82 79/79/79
f 75/75/75 83/83/83 82/82/82
f 82/82/82 84/84/84 79/79/79
f 83/83/83 85/85/85 82/82/82
f 80/80/80 86/86/86 81/81/81
f 78/78/78 87/87/87 80/80/80
f 79/79/79 88/88/88 78/78/78
f 77/77/77 90/90/90 89/89/89
f 77/77/77 91/91/91 90/90/90
f 91/91/91 92/92/92 90/90/90
f 95/95/95 94/94/94 93/93/93
f 95/95/95 96/96/96 94/94/94
f 97/97/97 96/96/96 95/95/95
f 97/97/97 98/98/98 96/96/96
f 99/99/99 98/98/98 97/97/97
f 99/99/99 100/100/100 98/98/98
f 101/101/101 100/100/100 99/99/99
f 101/101/101 102/102/102 100/100/100
f 103/103/103 102/102/102 101/101/101
f 103/103/103 104/104/104 102/102/102
f 93/93/93 104/104/104 103/103/103
f 93/93/93 94/94/94 104/104/104
f 107/107/107 106/106/106 105/105/105
f 107/107/107 108/108/108 106/106/106
f 105/105/105 106/106/106 109/109/109
f 105/105/105 109/109/109 110/110/110
f 110/110/110 109/109/109 111/111/111
f 110/110/110 111/111/111 112/112/112
f 112/112/112 111/111/111 113/113/113
f 112/112/112 113/113/113 114/114/114
f 115/115/115 108/108/108 107/107/107
f 115/115/115 116/116/116 108/108/108
f 117/117/117 116/116/116 115/115/115
f 117/117/117 118/118/118 116/116/116
f 119/119/119 105/105/105 110/110/110
f 120/120/120 110/110/110 112/112/112
f 121/121/121 112/112/112 114/114/114
f 122/122/122 117/117/117 115/115/115
f 123/123/123 115/115/115 107/107/107
f 124/124/124 107/107/107 105/105/105
