g ShaftK_Down_RF_LOD0
v -0.05000012 -0.007500015 0.01299042
v -0.05574408 -0.007500015 0.01299042
v -0.05000012 0.007500149 0.01299042
v -0.05976312 0.007500149 0.01299042
v -0.05000012 0.01513875 6.705523E-08
v -0.06177294 0.01499993 6.705523E-08
v -0.05373426 -0.0150001 6.705523E-08
v -0.05000012 -0.0150001 6.705523E-08
v -0.05000012 -0.007500015 -0.01299028
v -0.05574408 -0.007500015 -0.01299028
v -0.05000012 0.007500149 -0.01299028
v -0.05976312 0.007500149 -0.01299028
v -0.05000012 0.01513875 6.705523E-08
v -0.06177294 0.01499993 6.705523E-08
v -0.06269616 -0.01109654 0.01299042
v -0.07326539 0.002039291 0.01299042
v -0.07754993 0.007607445 6.705523E-08
v -0.07326539 0.002039291 -0.01299028
v -0.07754993 0.007607445 6.705523E-08
v -0.06269616 -0.01109654 -0.01299028
v -0.05841132 -0.0166647 6.705523E-08
v -0.08732717 -0.005785108 6.705523E-08
v -0.08076759 -0.009421334 0.01299042
v -0.08732717 -0.005785108 6.705523E-08
v -0.08076759 -0.009421334 -0.01299028
v -0.06764813 -0.01669319 -0.01299028
v -0.06108855 -0.02032942 6.705523E-08
v -0.06764813 -0.01669319 0.01299042
v -0.09179813 -0.06057891 0.01299042
v -0.1049173 -0.05330675 0.01299042
v -0.06764813 -0.01669319 0.01299042
v -0.08076759 -0.009421334 0.01299042
v -0.06108855 -0.02032942 6.705523E-08
v -0.08523855 -0.06421484 6.705523E-08
v -0.1114769 -0.04967052 6.705523E-08
v -0.08732717 -0.005785108 6.705523E-08
v -0.08076759 -0.009421334 -0.01299028
v -0.1049173 -0.05330675 -0.01299028
v -0.06764813 -0.01669319 -0.01299028
v -0.09179813 -0.06057891 -0.01299028
v -0.06108855 -0.02032942 6.705523E-08
v -0.08523855 -0.06421484 6.705523E-08
v -0.1098696 -0.0589034 0.01299042
v -0.09930034 -0.07203954 0.01299042
v -0.09501548 -0.07760739 6.705523E-08
v -0.09930034 -0.07203954 -0.01299028
v -0.09501548 -0.07760739 6.705523E-08
v -0.1098696 -0.0589034 -0.01299028
v -0.1141541 -0.05333525 6.705523E-08
v -0.1168216 -0.06249993 0.01299042
v -0.1188312 -0.05500015 6.705523E-08
v -0.1250001 -0.06249993 0.01299042
v -0.1250001 -0.0775001 0.01299042
v -0.1128023 -0.0775001 0.01299042
v -0.1250001 -0.08499988 6.705523E-08
v -0.1107928 -0.08499988 6.705523E-08
v -0.1250001 -0.05500015 6.705523E-08
v -0.1250001 -0.06249993 -0.01299028
v -0.1168216 -0.06249993 -0.01299028
v -0.1250001 -0.0775001 -0.01299028
v -0.1128023 -0.0775001 -0.01299028
v -0.1250001 -0.08499988 6.705523E-08
v -0.1107928 -0.08499988 6.705523E-08
v -0.1403264 -0.05609098 -0.02409083
v -0.1403264 -0.08390874 -0.02409083
v -0.1250001 -0.06249993 -0.01299028
v -0.1250001 -0.0775001 -0.01299028
v -0.1403264 -0.09781776 6.705523E-08
v -0.1250001 -0.08499988 6.705523E-08
v -0.1250001 -0.05500015 6.705523E-08
v -0.1403264 -0.04218226 6.705523E-08
v -0.1250001 -0.06249993 0.01299042
v -0.1403264 -0.05609098 0.02409096
v -0.1250001 -0.0775001 0.01299042
v -0.1403264 -0.08390904 0.02409096
v -0.1250001 -0.08499988 6.705523E-08
v -0.1403264 -0.09781776 6.705523E-08
v -0.2062907 -0.05609098 -0.02409083
v -0.2062907 -0.04218226 6.705523E-08
v -0.2062907 -0.08390874 -0.02409083
v -0.2062907 -0.05609098 0.02409096
v -0.2062907 -0.08390904 0.02409096
v -0.22 -0.07000002 6.705523E-08
v -0.22 -0.07000002 6.705523E-08
v -0.22 -0.07000002 6.705523E-08
v -0.22 -0.07000002 6.705523E-08
v -0.2062907 -0.09781776 6.705523E-08
v -0.22 -0.07000002 6.705523E-08
v -0.1403264 -0.08390904 0.02409096
v -0.2062907 -0.08390904 0.02409096
v -0.2062907 -0.09781776 6.705523E-08
v -0.22 -0.07000002 6.705523E-08
v -0.04000011 0.02772659 6.705523E-08
v -0.04000011 0.01386333 0.02401185
v -0.05000012 0.01513875 6.705523E-08
v -0.05000012 0.007500149 0.01299042
v -0.04000011 -0.01386319 0.02401185
v -0.05000012 -0.007500015 0.01299042
v -0.04000011 -0.02772645 6.705523E-08
v -0.05000012 -0.0150001 6.705523E-08
v -0.04000011 -0.01386319 -0.02401202
v -0.05000012 -0.007500015 -0.01299028
v -0.04000011 0.01386333 -0.02401202
v -0.05000012 0.007500149 -0.01299028
v 0.04999999 0.02772659 6.705523E-08
v 0.04999999 0.01386333 0.02401185
v -0.04000011 0.02772659 6.705523E-08
v -0.04000011 0.01386333 0.02401185
v -0.04000011 0.01386333 -0.02401202
v 0.04999999 0.01386333 -0.02401202
v -0.04000011 -0.01386319 -0.02401202
v 0.04999999 -0.01386319 -0.02401202
v -0.04000011 -0.02772645 6.705523E-08
v 0.04999999 -0.02772645 6.705523E-08
v 0.04999999 -0.01386319 0.02401185
v -0.04000011 -0.01386319 0.02401185
v 0.04999999 -0.02772645 6.705523E-08
v -0.04000011 -0.02772645 6.705523E-08
v 0.06 6.705523E-08 6.705523E-08
v 0.06 6.705523E-08 6.705523E-08
v 0.06 6.705523E-08 6.705523E-08
v 0.06 6.705523E-08 6.705523E-08
v 0.06 6.705523E-08 6.705523E-08
v 0.06 6.705523E-08 6.705523E-08
vt 0.361874 0.1203988
vt 0.361874 0.1155592
vt 0.3675107 0.1203988
vt 0.3675107 0.1155592
vt 0.3731361 0.1203988
vt 0.3731361 0.1155592
vt 0.3562486 0.1155592
vt 0.3562486 0.1203988
vt 0.3506232 0.1203988
vt 0.3506232 0.1155592
vt 0.3449979 0.1203988
vt 0.3449979 0.1155592
vt 0.3393611 0.1203988
vt 0.3393611 0.1155592
vt 0.361874 0.1082826
vt 0.3675107 0.1082826
vt 0.3731361 0.1082826
vt 0.3449979 0.1082826
vt 0.3393611 0.1082826
vt 0.3506232 0.1082826
vt 0.3562486 0.1082826
vt 0.3731361 0.1010175
vt 0.3675107 0.1010175
vt 0.3393611 0.1010175
vt 0.3449979 0.1010175
vt 0.3506232 0.1010175
vt 0.3562486 0.1010175
vt 0.361874 0.1010175
vt 0.3675107 0.08163615
vt 0.361874 0.08163615
vt 0.3675107 0.1010175
vt 0.361874 0.1010175
vt 0.3731361 0.1010175
vt 0.3731361 0.08163615
vt 0.3562486 0.08163615
vt 0.3562486 0.1010175
vt 0.3506232 0.1010175
vt 0.3506232 0.08163615
vt 0.3449979 0.1010175
vt 0.3449979 0.08163615
vt 0.3393611 0.1010175
vt 0.3393611 0.08163615
vt 0.361874 0.07814022
vt 0.3675107 0.07814022
vt 0.3731361 0.07814022
vt 0.3449979 0.07814022
vt 0.3393611 0.07814022
vt 0.3506232 0.07814022
vt 0.3562486 0.07814022
vt 0.361874 0.07464429
vt 0.3562486 0.07464429
vt 0.361874 0.06709446
vt 0.3675107 0.06709446
vt 0.3675107 0.07464429
vt 0.3731361 0.06709446
vt 0.3731361 0.07464429
vt 0.3562486 0.06709446
vt 0.3506232 0.06709446
vt 0.3506232 0.07464429
vt 0.3449979 0.06709446
vt 0.3449979 0.07464429
vt 0.3393611 0.06709446
vt 0.3393611 0.07464429
vt 0.3148327 0.04123371
vt 0.3148327 0.05082189
vt 0.309287 0.04123371
vt 0.309287 0.05082189
vt 0.3148327 0.06041006
vt 0.309287 0.06042145
vt 0.309287 0.03163415
vt 0.3148327 0.03163415
vt 0.309287 0.02204597
vt 0.3148327 0.02204597
vt 0.309287 0.0124578
vt 0.3148327 0.0124578
vt 0.309287 0.002858233
vt 0.3148327 0.002858233
vt 0.3269147 0.04123371
vt 0.3269147 0.03163415
vt 0.3269147 0.05082189
vt 0.3269147 0.02204597
vt 0.3269147 0.0124578
vt 0.3286456 0.02684006
vt 0.3286456 0.01725188
vt 0.3286456 0.0460278
vt 0.3286456 0.03643962
vt 0.3269147 0.06041006
vt 0.3286456 0.05561598
vt 0.3148327 0.0124578
vt 0.3269147 0.0124578
vt 0.3269147 0.002937945
vt 0.3286456 0.00769787
vt 0.2714923 0.0475651
vt 0.2573605 0.03940034
vt 0.2714923 0.04023162
vt 0.2635211 0.03584748
vt 0.2573605 0.02308222
vt 0.2638172 0.02681729
vt 0.2714923 0.01492886
vt 0.2714923 0.02242176
vt 0.285624 0.02308222
vt 0.2794748 0.02663509
vt 0.285624 0.03940034
vt 0.278951 0.03555141
vt 0.3273702 0.09374093
vt 0.3273702 0.08412998
vt 0.2659011 0.09375232
vt 0.2659011 0.08412998
vt 0.2659011 0.1033633
vt 0.3273702 0.1033633
vt 0.2659011 0.1129856
vt 0.3273702 0.1129856
vt 0.2659011 0.1225966
vt 0.3273702 0.1225966
vt 0.3273702 0.07451903
vt 0.2659011 0.07450765
vt 0.3273702 0.0648967
vt 0.2656847 0.0648967
vt 0.3287025 0.0985578
vt 0.3287025 0.1081688
vt 0.3287025 0.1177911
vt 0.3287025 0.06970217
vt 0.3287025 0.07932451
vt 0.3287025 0.08893546
vn -0.0009775162 -0.4858258 0.8740551
vn 0.1026393 -0.3880741 0.915895
vn -0.0009775162 0.5229714 0.8523497
vn -0.1221895 0.5405667 0.8323805
vn -0.00879731 0.9999614 0
vn -0.2432251 0.9699699 0
vn 0.1806901 -0.9835401 0
vn -0.0009775162 -0.9999995 0
vn -0.0009775162 -0.4858258 -0.8740551
vn 0.1026393 -0.3880741 -0.915895
vn -0.0009775162 0.5229714 -0.8523497
vn -0.1221895 0.5405667 -0.8323805
vn -0.00879731 0.9999614 0
vn -0.2432251 0.9699699 0
vn 0.2218963 -0.2883674 0.9314539
vn -0.3626586 0.4447701 0.8189373
vn -0.6285433 0.7771257 -0.03176456
vn -0.3626586 0.4447701 -0.8189373
vn -0.6285433 0.7771257 -0.03176456
vn 0.2218963 -0.2883674 -0.9314539
vn 0.5953076 -0.8025411 -0.03919807
vn -0.8643097 0.5029599 0
vn -0.44086 0.2531768 0.8611295
vn -0.8643097 0.5029599 0
vn -0.44086 0.2531768 -0.8611295
vn 0.4252197 -0.2473117 -0.8706464
vn 0.8708175 -0.4916063 0
vn 0.4252197 -0.2473117 0.8706464
vn 0.44086 -0.2531768 0.8611295
vn -0.4252198 0.2473117 0.8706464
vn 0.4252197 -0.2473117 0.8706464
vn -0.44086 0.2531768 0.8611295
vn 0.8708175 -0.4916063 0
vn 0.8643098 -0.5029599 0
vn -0.8708175 0.4916064 0
vn -0.8643097 0.5029599 0
vn -0.44086 0.2531768 -0.8611295
vn -0.4252198 0.2473117 -0.8706464
vn 0.4252197 -0.2473117 -0.8706464
vn 0.44086 -0.2531768 -0.8611295
vn 0.8708175 -0.4916063 0
vn 0.8643098 -0.5029599 0
vn -0.2218963 0.2883674 0.9314539
vn 0.3626587 -0.4447701 0.8189372
vn 0.6285432 -0.7771257 -0.0317655
vn 0.3626587 -0.4447701 -0.8189372
vn 0.6285432 -0.7771257 -0.0317655
vn -0.2218963 0.2883674 -0.9314539
vn -0.5953076 0.8025411 -0.03919959
vn -0.08504391 0.3919842 0.9160327
vn -0.1397791 0.9901828 0
vn -0.0009775162 0.4838707 0.8751389
vn -0.0009775162 -0.5268815 0.8499382
vn 0.1085044 -0.5444767 0.8317282
vn -0.0009775162 -0.9999995 0
vn 0.2199413 -0.9745841 -0.04256317
vn -0.0009775162 0.9999995 0
vn -0.0009775162 0.4838707 -0.8751389
vn -0.08504391 0.3919842 -0.9160327
vn -0.0009775162 -0.5268815 -0.8499382
vn 0.1085044 -0.5444767 -0.8317282
vn -0.0009775162 -0.9999995 0
vn 0.2199413 -0.9745841 -0.04256317
vn 0.1182795 0.4897358 -0.8638106
vn 0.1182795 -0.5034211 -0.8559073
vn 0.6383184 0.3020526 -0.7080352
vn 0.6383184 -0.4623654 -0.6154412
vn 0.1182795 -0.9921794 0.03987497
vn 0.6383184 -0.7634405 0.09853063
vn 0.6383184 0.7634405 -0.09853063
vn 0.1182795 0.9921794 -0.03987497
vn 0.6383184 0.4623654 0.6154412
vn 0.1182795 0.5034211 0.8559073
vn 0.6383184 -0.3020526 0.7080352
vn 0.1182795 -0.4897358 0.8638106
vn 0.6383184 -0.7634405 0.09853063
vn 0.1182795 -0.9921794 0.03987497
vn -0.2512218 0.4838707 -0.8383058
vn -0.2510299 0.9679793 0
vn -0.2512218 -0.4838707 -0.8383058
vn -0.2512218 0.4838707 0.8383058
vn -0.2512218 -0.4838707 0.8383058
vn -0.9999995 0.0009775162 0
vn -0.9999995 0.0009775162 0
vn -0.9999995 0.0009775162 0
vn -0.9999995 0.0009775162 0
vn -0.2510299 -0.9679793 0
vn -0.9999995 0.0009775162 0
vn 0.1182795 -0.4897358 0.8638106
vn -0.2512218 -0.4838707 0.8383058
vn -0.2510299 -0.9679793 0
vn -0.9999995 0.0009775162 0
vn -0.08699894 0.9960895 0.01539248
vn -0.08699894 0.4936459 0.8653005
vn -0.7810358 0.618768 0.08431675
vn -0.7829908 0.2375365 0.5748929
vn -0.08699894 -0.501466 0.860792
vn -0.7829908 -0.3782989 0.4937766
vn -0.08699894 -0.9960895 -0.01539248
vn -0.7829908 -0.614858 -0.0942076
vn -0.08699894 -0.4936459 -0.8653005
vn -0.7829908 -0.2375365 -0.5748929
vn -0.08699894 0.501466 -0.860792
vn -0.7829908 0.378299 -0.4937765
vn 0.1925708 0.9804492 -0.04044564
vn 0.1925708 0.4897358 0.8503383
vn -0.08699894 0.9960895 0.01539248
vn -0.08699894 0.4936459 0.8653005
vn -0.08699894 0.501466 -0.860792
vn 0.1925708 0.4897358 -0.8503383
vn -0.08699894 -0.4936459 -0.8653005
vn 0.1925708 -0.4897358 -0.8503383
vn -0.08699894 -0.9960895 -0.01539248
vn 0.1925708 -0.9804492 -0.04044564
vn 0.1925708 -0.4897358 0.8503383
vn -0.08699894 -0.501466 0.860792
vn 0.1925708 -0.9804492 -0.04044564
vn -0.08699894 -0.9960895 -0.01539248
vn 0.9999995 0.0009775162 0
vn 0.9999995 0.0009775162 0
vn 0.9999995 0.0009775162 0
vn 0.9999995 0.0009775162 0
vn 0.9999995 0.0009775162 0
vn 0.9999995 0.0009775162 0
g ShaftK_Down_RF_LOD0_0
f 3/3/3 2/2/2 1/1/1
f 3/3/3 4/4/4 2/2/2
f 5/5/5 4/4/4 3/3/3
f 5/5/5 6/6/6 4/4/4
f 1/1/1 2/2/2 7/7/7
f 1/1/1 7/7/7 8/8/8
f 9/9/9 8/8/8 7/7/7
f 9/9/9 7/7/7 10/10/10
f 11/11/11 9/9/9 10/10/10
f 11/11/11 10/10/10 12/12/12
f 13/13/13 11/11/11 12/12/12
f 13/13/13 12/12/12 14/14/14
f 4/4/4 15/15/15 2/2/2
f 4/4/4 16/16/16 15/15/15
f 6/6/6 16/16/16 4/4/4
f 6/6/6 17/17/17 16/16/16
f 14/14/14 12/12/12 18/18/18
f 14/14/14 18/18/18 19/19/19
f 12/12/12 20/20/20 18/18/18
f 12/12/12 10/10/10 20/20/20
f 10/10/10 21/21/21 20/20/20
f 10/10/10 7/7/7 21/21/21
f 2/2/2 21/21/21 7/7/7
f 2/2/2 15/15/15 21/21/21
f 16/16/16 17/17/17 22/22/22
f 16/16/16 22/22/22 23/23/23
f 15/15/15 16/16/16 23/23/23
f 18/18/18 24/24/24 19/19/19
f 18/18/18 25/25/25 24/24/24
f 20/20/20 25/25/25 18/18/18
f 20/20/20 26/26/26 25/25/25
f 21/21/21 26/26/26 20/20/20
f 21/21/21 27/27/27 26/26/26
f 21/21/21 28/28/28 27/27/27
f 21/21/21 15/15/15 28/28/28
f 15/15/15 23/23/23 28/28/28
f 31/31/31 30/30/30 29/29/29
f 31/31/31 32/32/32 30/30/30
f 33/33/33 31/31/31 29/29/29
f 33/33/33 29/29/29 34/34/34
f 32/32/32 35/35/35 30/30/30
f 32/32/32 36/36/36 35/35/35
f 37/37/37 35/35/35 36/36/36
f 37/37/37 38/38/38 35/35/35
f 39/39/39 38/38/38 37/37/37
f 39/39/39 40/40/40 38/38/38
f 41/41/41 40/40/40 39/39/39
f 41/41/41 42/42/42 40/40/40
f 43/43/43 29/29/29 30/30/30
f 43/43/43 44/44/44 29/29/29
f 44/44/44 34/34/34 29/29/29
f 44/44/44 45/45/45 34/34/34
f 46/46/46 40/40/40 42/42/42
f 46/46/46 42/42/42 47/47/47
f 48/48/48 40/40/40 46/46/46
f 48/48/48 38/38/38 40/40/40
f 49/49/49 38/38/38 48/48/48
f 49/49/49 35/35/35 38/38/38
f 49/49/49 30/30/30 35/35/35
f 49/49/49 43/43/43 30/30/30
f 50/50/50 43/43/43 49/49/49
f 50/50/50 49/49/49 51/51/51
f 52/52/52 50/50/50 51/51/51
f 53/53/53 50/50/50 52/52/52
f 53/53/53 54/54/54 50/50/50
f 54/54/54 43/43/43 50/50/50
f 54/54/54 44/44/44 43/43/43
f 55/55/55 54/54/54 53/53/53
f 55/55/55 56/56/56 54/54/54
f 56/56/56 44/44/44 54/54/54
f 56/56/56 45/45/45 44/44/44
f 52/52/52 51/51/51 57/57/57
f 58/58/58 57/57/57 51/51/51
f 58/58/58 51/51/51 59/59/59
f 59/59/59 49/49/49 48/48/48
f 59/59/59 51/51/51 49/49/49
f 60/60/60 58/58/58 59/59/59
f 60/60/60 59/59/59 61/61/61
f 61/61/61 59/59/59 48/48/48
f 62/62/62 60/60/60 61/61/61
f 62/62/62 61/61/61 63/63/63
f 63/63/63 61/61/61 46/46/46
f 61/61/61 48/48/48 46/46/46
f 63/63/63 46/46/46 47/47/47
f 66/66/66 65/65/65 64/64/64
f 66/66/66 67/67/67 65/65/65
f 67/67/67 68/68/68 65/65/65
f 67/67/67 69/69/69 68/68/68
f 70/70/70 66/66/66 64/64/64
f 70/70/70 64/64/64 71/71/71
f 72/72/72 70/70/70 71/71/71
f 72/72/72 71/71/71 73/73/73
f 74/74/74 72/72/72 73/73/73
f 74/74/74 73/73/73 75/75/75
f 76/76/76 74/74/74 75/75/75
f 76/76/76 75/75/75 77/77/77
f 78/78/78 71/71/71 64/64/64
f 78/78/78 79/79/79 71/71/71
f 79/79/79 73/73/73 71/71/71
f 80/80/80 64/64/64 65/65/65
f 80/80/80 78/78/78 64/64/64
f 81/81/81 75/75/75 73/73/73
f 79/79/79 81/81/81 73/73/73
f 81/81/81 82/82/82 75/75/75
f 83/83/83 81/81/81 79/79/79
f 84/84/84 82/82/82 81/81/81
f 85/85/85 78/78/78 80/80/80
f 86/86/86 79/79/79 78/78/78
f 87/87/87 80/80/80 65/65/65
f 87/87/87 65/65/65 68/68/68
f 88/88/88 80/80/80 87/87/87
f 90/90/90 77/77/77 89/89/89
f 90/90/90 91/91/91 77/77/77
f 92/92/92 91/91/91 90/90/90
f 95/95/95 94/94/94 93/93/93
f 95/95/95 96/96/96 94/94/94
f 96/96/96 97/97/97 94/94/94
f 96/96/96 98/98/98 97/97/97
f 98/98/98 99/99/99 97/97/97
f 98/98/98 100/100/100 99/99/99
f 100/100/100 101/101/101 99/99/99
f 100/100/100 102/102/102 101/101/101
f 102/102/102 103/103/103 101/101/101
f 102/102/102 104/104/104 103/103/103
f 104/104/104 93/93/93 103/103/103
f 104/104/104 95/95/95 93/93/93
f 107/107/107 106/106/106 105/105/105
f 107/107/107 108/108/108 106/106/106
f 109/109/109 107/107/107 105/105/105
f 109/109/109 105/105/105 110/110/110
f 111/111/111 109/109/109 110/110/110
f 111/111/111 110/110/110 112/112/112
f 113/113/113 111/111/111 112/112/112
f 113/113/113 112/112/112 114/114/114
f 108/108/108 115/115/115 106/106/106
f 108/108/108 116/116/116 115/115/115
f 116/116/116 117/117/117 115/115/115
f 116/116/116 118/118/118 117/117/117
f 105/105/105 119/119/119 110/110/110
f 110/110/110 120/120/120 112/112/112
f 112/112/112 121/121/121 114/114/114
f 117/117/117 122/122/122 115/115/115
f 115/115/115 123/123/123 106/106/106
f 106/106/106 124/124/124 105/105/105
