g ShaftK_Big_LF_LOD1
v 0.1280157 -0.01799022 -0.03116018
v 0.1280157 0.03598058 -5.960464E-08
v 0.06087819 -0.02340603 -0.04054058
v 0.06087819 0.04681221 -5.960464E-08
v 0.1280157 -0.01799022 0.03116009
v 0.06087819 -0.02340603 0.04054046
v 0.06087819 -0.02340603 0.04054046
v 0.1280157 -0.01799022 0.03116009
v 0.02000001 -0.03199992 -0.05542561
v 0.02000001 0.06399998 -5.960464E-08
v -0.01999989 -0.03199992 -0.05542561
v -0.01999989 0.06399998 -5.960464E-08
v 0.02000001 -0.03199992 0.05542549
v -0.01999989 -0.03199992 0.05542549
v -0.01999989 -0.03199992 0.05542549
v 0.02000001 -0.03199992 0.05542549
v 0.06087819 -0.02340603 -0.04054058
v 0.06087819 0.04681221 -5.960464E-08
v 0.06087819 -0.02340603 0.04054046
v 0.06087819 -0.02340603 0.04054046
v 0.2444173 0.02624398 -5.960464E-08
v 0.1280157 0.03598058 -5.960464E-08
v 0.2444173 -0.01312208 -0.02272807
v 0.1280157 -0.01799022 -0.03116018
v 0.1280157 -0.01799022 0.03116009
v 0.2444173 -0.01312208 0.02272797
v 0.2444173 -0.01312208 0.02272797
v 0.1280157 -0.01799022 0.03116009
vt 0.2073503 0.08163156
vt 0.2073503 0.04336842
vt 0.1715358 0.08163156
vt 0.1715358 0.04336842
vt 0.2073503 0.005101752
vt 0.1715358 0.005101752
vt 0.1715358 0.1198982
vt 0.2073503 0.1198982
vt 0.1348652 0.08163156
vt 0.1348652 0.04336842
vt 0.1348652 0.08163156
vt 0.1348652 0.04336842
vt 0.1348652 0.005101752
vt 0.1348652 0.005101752
vt 0.1348652 0.1198982
vt 0.1348652 0.1198982
vt 0.1715358 0.08163156
vt 0.1715358 0.04336842
vt 0.1715358 0.005101752
vt 0.1715358 0.1198982
vt 0.2309001 0.04336842
vt 0.2073503 0.04336842
vt 0.2309001 0.08163156
vt 0.2073503 0.08163156
vt 0.2073503 0.005101752
vt 0.2309001 0.005101752
vt 0.2309001 0.1198982
vt 0.2073503 0.1198982
vn 0.1579274 -0.6036501 -0.7814509
vn 0.1579274 0.9793792 -0.1259969
vn 0.1579274 -0.5766847 -0.801557
vn 0.1579274 0.9825516 -0.09824044
vn 0.1579274 -0.375237 0.9133762
vn 0.1579274 -0.4053749 0.9004055
vn 0.1579274 -0.4053749 0.9004055
vn 0.1579274 -0.375237 0.9133762
vn 0.1737894 -0.4307541 -0.8855779
vn 0.1737894 0.9825516 0.06625348
vn -0.0006927252 -0.500547 -0.8657091
vn -0.0006927252 0.9999998 0
vn 0.1737894 -0.5513055 0.8160021
vn -0.0006927252 -0.500547 0.8657091
vn -0.0006927252 -0.500547 0.8657091
vn 0.1737894 -0.5513055 0.8160021
vn 0.3799957 -0.2816512 -0.8810652
vn 0.3799957 0.9032416 0.1993939
vn 0.3799957 -0.6226845 0.6840082
vn 0.3799957 -0.6226845 0.6840082
vn 0.08337593 0.9920688 0.09406324
vn 0.08337593 0.9952412 0.05043144
vn 0.08337593 -0.4164783 -0.9053144
vn 0.08337593 -0.4466161 -0.8908324
vn 0.08337593 -0.5481331 0.8322251
vn 0.08337593 -0.5766847 0.8127012
vn 0.08337593 -0.5766847 0.8127012
vn 0.08337593 -0.5481331 0.8322251
g ShaftK_Big_LF_LOD1_0
f 3/3/3 2/2/2 1/1/1
f 3/3/3 4/4/4 2/2/2
f 4/4/4 5/5/5 2/2/2
f 4/4/4 6/6/6 5/5/5
f 7/7/7 3/3/3 1/1/1
f 7/7/7 1/1/1 8/8/8
f 11/11/11 10/10/10 9/9/9
f 11/11/11 12/12/12 10/10/10
f 12/12/12 13/13/13 10/10/10
f 12/12/12 14/14/14 13/13/13
f 15/15/15 11/11/11 9/9/9
f 15/15/15 9/9/9 16/16/16
f 17/17/17 9/9/9 10/10/10
f 17/17/17 10/10/10 18/18/18
f 18/18/18 10/10/10 13/13/13
f 18/18/18 13/13/13 19/19/19
f 20/20/20 9/9/9 17/17/17
f 20/20/20 16/16/16 9/9/9
f 23/23/23 22/22/22 21/21/21
f 23/23/23 24/24/24 22/22/22
f 21/21/21 22/22/22 25/25/25
f 21/21/21 25/25/25 26/26/26
f 27/27/27 24/24/24 23/23/23
f 27/27/27 28/28/28 24/24/24
