g ShaftK_Long_LF_LOD1
v 0.09 0.01997526 -0.03459795
v 0.09 0.01997526 0.03459795
v -0.05 0.01997526 -0.03459795
v -0.05 0.01997526 0.03459795
v 0.09 -0.03995007 1.341105E-07
v -0.05 -0.03995007 1.341105E-07
v -0.05 -0.03995007 1.341105E-07
v 0.09 -0.03995007 1.341105E-07
v 0.1599998 0.01279895 0.0221685
v 0.09999986 0.01279895 0.0221685
v 0.1599998 0.01279895 -0.02216852
v 0.09999986 0.01279895 -0.02216852
v 0.1599998 -0.02559803 1.341105E-07
v 0.09999986 -0.02559803 1.341105E-07
v 0.09999986 -0.02559803 1.341105E-07
v 0.1599998 -0.02559803 1.341105E-07
v 0.09999986 0.01279895 0.0221685
v 0.09 0.01997526 0.03459795
v 0.09999986 0.01279895 -0.02216852
v 0.09 0.01997526 -0.03459795
v 0.09999986 -0.02559803 1.341105E-07
v 0.09 -0.03995007 1.341105E-07
v 0.09 -0.03995007 1.341105E-07
v 0.09999986 -0.02559803 1.341105E-07
v 0.1650001 0.01533668 0.0265639
v 0.1599998 0.01279895 0.0221685
v 0.1650001 0.01533668 -0.02656391
v 0.1599998 0.01279895 -0.02216852
v 0.1650001 -0.03067321 1.341105E-07
v 0.1599998 -0.02559803 1.341105E-07
v 0.1650001 -0.03067321 1.341105E-07
v 0.1599998 -0.02559803 1.341105E-07
v 0.25 -0.03067321 1.341105E-07
v 0.1650001 -0.03067321 1.341105E-07
v 0.25 0.01533668 0.0265639
v 0.1650001 0.01533668 0.0265639
v 0.25 0.01533668 -0.02656391
v 0.1650001 0.01533668 -0.02656391
v 0.25 -0.03067321 1.341105E-07
v 0.1650001 -0.03067321 1.341105E-07
vt 0.4648255 0.08072827
vt 0.4648406 0.04426694
vt 0.3812437 0.08072827
vt 0.3812588 0.04426694
vt 0.4648406 0.007790498
vt 0.3812588 0.007790498
vt 0.3812588 0.1172047
vt 0.4648406 0.1172047
vt 0.4789571 0.04426694
vt 0.471076 0.04426694
vt 0.4789571 0.08072827
vt 0.471076 0.08072827
vt 0.4789571 0.1172047
vt 0.4710911 0.1172047
vt 0.4710911 0.007790498
vt 0.4789571 0.007790498
vt 0.471076 0.04426694
vt 0.4648406 0.04426694
vt 0.471076 0.08072827
vt 0.4648255 0.08072827
vt 0.4710911 0.1172047
vt 0.4648406 0.1172047
vt 0.4648406 0.007790498
vt 0.4710911 0.007790498
vt 0.4852076 0.04426694
vt 0.4789571 0.04426694
vt 0.4852076 0.08072827
vt 0.4789571 0.08072827
vt 0.4852076 0.1172047
vt 0.4789571 0.1172047
vt 0.4852076 0.007790498
vt 0.4789571 0.007790498
vt 0.4947192 0.007790498
vt 0.4852076 0.007790498
vt 0.4947192 0.04426694
vt 0.4852076 0.04426694
vt 0.4947192 0.08072827
vt 0.4852076 0.08072827
vt 0.4947192 0.1172047
vt 0.4852076 0.1172047
vn 0.0006966591 0.4997919 -0.8661453
vn 0.0006966591 0.4997919 0.8661453
vn 0.0006966591 0.4997919 -0.8661453
vn 0.0006966591 0.4997919 0.8661453
vn 0.0006966591 -0.9999998 0
vn 0.0006966591 -0.9999998 0
vn 0.0006966591 -0.9999998 0
vn 0.0006966591 -0.9999998 0
vn 0.0006966591 0.4997919 0.8661453
vn 0.0006966591 0.4997919 0.8661453
vn 0.0006966591 0.4997919 -0.8661453
vn 0.0006966591 0.4997919 -0.8661453
vn 0.0006966591 -0.9999998 0
vn 0.0006966591 -0.9999998 0
vn 0.0006966591 -0.9999998 0
vn 0.0006966591 -0.9999998 0
vn 0.8041564 0.1097791 0.5841926
vn 0.8108519 0.1549737 0.5643601
vn 0.8041564 0.4512495 -0.3869191
vn 0.8108519 0.4094026 -0.4182208
vn 0.8041564 -0.5597707 -0.1999731
vn 0.8108519 -0.5647924 -0.1533908
vn 0.8108519 -0.5647924 -0.1533908
vn 0.8041564 -0.5597707 -0.1999731
vn -0.712374 0.3508171 0.6078246
vn -0.712374 0.3508171 0.6078246
vn -0.7090262 0.2671233 -0.6526308
vn -0.7090262 0.2587539 -0.6559941
vn -0.712249 -0.7019269 0
vn -0.712249 -0.7019269 0
vn -0.712249 -0.7019269 0
vn -0.712249 -0.7019269 0
vn 0.0006966591 -0.9999998 0
vn 0.0006966591 -0.9999998 0
vn 0.0006966591 0.4997919 0.8661453
vn 0.0006966591 0.4997919 0.8661453
vn 0.0006966591 0.4997919 -0.8661453
vn 0.0006966591 0.4997919 -0.8661453
vn 0.0006966591 -0.9999998 0
vn 0.0006966591 -0.9999998 0
g ShaftK_Long_LF_LOD1_0
f 3/3/3 2/2/2 1/1/1
f 3/3/3 4/4/4 2/2/2
f 4/4/4 5/5/5 2/2/2
f 4/4/4 6/6/6 5/5/5
f 7/7/7 3/3/3 1/1/1
f 7/7/7 1/1/1 8/8/8
f 11/11/11 10/10/10 9/9/9
f 11/11/11 12/12/12 10/10/10
f 13/13/13 12/12/12 11/11/11
f 13/13/13 14/14/14 12/12/12
f 9/9/9 10/10/10 15/15/15
f 9/9/9 15/15/15 16/16/16
f 19/19/19 18/18/18 17/17/17
f 19/19/19 20/20/20 18/18/18
f 21/21/21 20/20/20 19/19/19
f 21/21/21 22/22/22 20/20/20
f 17/17/17 18/18/18 23/23/23
f 17/17/17 23/23/23 24/24/24
f 27/27/27 26/26/26 25/25/25
f 27/27/27 28/28/28 26/26/26
f 29/29/29 28/28/28 27/27/27
f 29/29/29 30/30/30 28/28/28
f 26/26/26 31/31/31 25/25/25
f 26/26/26 32/32/32 31/31/31
f 35/35/35 34/34/34 33/33/33
f 35/35/35 36/36/36 34/34/34
f 37/37/37 36/36/36 35/35/35
f 37/37/37 38/38/38 36/36/36
f 39/39/39 38/38/38 37/37/37
f 39/39/39 40/40/40 38/38/38
