g ShaftK_Long_RF_LOD0
v -0.08999999 0.03995007 -1.452863E-07
v -0.08999999 0.01997496 -0.03459795
v 0.05 0.03995007 -1.452863E-07
v 0.05 0.01997496 -0.03459795
v 0.05 0.01997525 0.03459795
v -0.08999999 0.01997525 0.03459795
v 0.05 -0.01997497 0.03459795
v -0.08999999 -0.01997497 0.03459795
v 0.05 -0.03995007 1.41561E-07
v -0.08999999 -0.03995007 -1.452863E-07
v -0.08999999 -0.01997525 -0.03459795
v 0.05 -0.01997525 -0.03459795
v -0.08999999 -0.03995007 -1.452863E-07
v 0.05 -0.03995007 1.41561E-07
v -0.1000001 0.02559803 -1.452863E-07
v -0.1000001 0.01279894 0.02216851
v -0.1600001 0.02559803 -1.452863E-07
v -0.1600001 0.01279894 0.02216851
v -0.1600001 0.01279894 -0.02216851
v -0.1000001 0.01279894 -0.02216851
v -0.1600001 -0.01279894 -0.02216851
v -0.1000001 -0.01279894 -0.02216851
v -0.1600001 -0.02559802 1.41561E-07
v -0.1000001 -0.02559802 1.41561E-07
v -0.1000001 -0.01279894 0.02216851
v -0.1600001 -0.01279894 0.02216851
v -0.1000001 -0.02559802 1.41561E-07
v -0.1600001 -0.02559802 1.41561E-07
v -0.08999999 0.03995007 -1.452863E-07
v -0.08999999 0.01997525 0.03459795
v -0.1000001 0.02559803 -1.452863E-07
v -0.1000001 0.01279894 0.02216851
v -0.1000001 0.01279894 -0.02216851
v -0.08999999 0.01997496 -0.03459795
v -0.1000001 -0.01279894 -0.02216851
v -0.08999999 -0.01997525 -0.03459795
v -0.1000001 -0.02559802 1.41561E-07
v -0.08999999 -0.03995007 -1.452863E-07
v -0.08999999 -0.01997497 0.03459795
v -0.1000001 -0.01279894 0.02216851
v -0.08999999 -0.03995007 -1.452863E-07
v -0.1000001 -0.02559802 1.41561E-07
v -0.1600001 0.02559803 -1.452863E-07
v -0.1600001 0.01279894 0.02216851
v -0.1650001 0.0306732 -1.452863E-07
v -0.1650001 0.01533667 0.02656391
v -0.1650001 0.01533667 -0.02656391
v -0.1600001 0.01279894 -0.02216851
v -0.1650001 -0.01533667 -0.02656391
v -0.1600001 -0.01279894 -0.02216851
v -0.1650001 -0.0306732 1.41561E-07
v -0.1600001 -0.02559802 1.41561E-07
v -0.1600001 -0.01279894 0.02216851
v -0.1650001 -0.01533667 0.02656391
v -0.1600001 -0.02559802 1.41561E-07
v -0.1650001 -0.0306732 1.41561E-07
v -0.239375 0.01533667 0.02656391
v -0.1650001 0.01533667 0.02656391
v -0.239375 -0.01533667 0.02656391
v -0.1650001 -0.01533667 0.02656391
v -0.239375 0.0306732 -1.452863E-07
v -0.1650001 0.0306732 -1.452863E-07
v -0.239375 0.01533667 -0.02656391
v -0.1650001 0.01533667 -0.02656391
v -0.239375 -0.01533667 -0.02656391
v -0.1650001 -0.01533667 -0.02656391
v -0.239375 -0.0306732 1.41561E-07
v -0.1650001 -0.0306732 1.41561E-07
v -0.1650001 -0.0306732 1.41561E-07
v -0.239375 -0.0306732 1.41561E-07
v -0.25 1.41561E-07 -1.452863E-07
v -0.25 1.41561E-07 -1.452863E-07
v -0.25 1.41561E-07 -1.452863E-07
v -0.25 1.41561E-07 -1.452863E-07
v -0.25 1.41561E-07 -1.452863E-07
v -0.25 1.41561E-07 -1.452863E-07
vt 0.4648255 0.06250516
vt 0.4648255 0.08072827
vt 0.3812437 0.06250516
vt 0.3812437 0.08072827
vt 0.3812588 0.04426694
vt 0.4648406 0.04426694
vt 0.3812588 0.02602872
vt 0.4648406 0.02602872
vt 0.3812588 0.007790498
vt 0.4648406 0.007790498
vt 0.4648406 0.09896649
vt 0.3812588 0.09896649
vt 0.4648406 0.1172047
vt 0.3812588 0.1172047
vt 0.471076 0.06250516
vt 0.471076 0.04426694
vt 0.4789571 0.06250516
vt 0.4789571 0.04426694
vt 0.4789571 0.08072827
vt 0.471076 0.08072827
vt 0.4789571 0.09896649
vt 0.471076 0.09896649
vt 0.4789571 0.1172047
vt 0.4710911 0.1172047
vt 0.4710911 0.02602872
vt 0.4789571 0.02602872
vt 0.4710911 0.007790498
vt 0.4789571 0.007790498
vt 0.4648255 0.06250516
vt 0.4648406 0.04426694
vt 0.471076 0.06250516
vt 0.471076 0.04426694
vt 0.471076 0.08072827
vt 0.4648255 0.08072827
vt 0.471076 0.09896649
vt 0.4648406 0.09896649
vt 0.4710911 0.1172047
vt 0.4648406 0.1172047
vt 0.4648406 0.02602872
vt 0.4710911 0.02602872
vt 0.4648406 0.007790498
vt 0.4710911 0.007790498
vt 0.4789571 0.06250516
vt 0.4789571 0.04426694
vt 0.4852076 0.06250516
vt 0.4852076 0.04426694
vt 0.4852076 0.08072827
vt 0.4789571 0.08072827
vt 0.4852076 0.09896649
vt 0.4789571 0.09896649
vt 0.4852076 0.1172047
vt 0.4789571 0.1172047
vt 0.4789571 0.02602872
vt 0.4852076 0.02602872
vt 0.4789571 0.007790498
vt 0.4852076 0.007790498
vt 0.491594 0.04426694
vt 0.4852076 0.04426694
vt 0.491594 0.02602872
vt 0.4852076 0.02602872
vt 0.491594 0.06250516
vt 0.4852076 0.06250516
vt 0.491594 0.08072827
vt 0.4852076 0.08072827
vt 0.491594 0.09896649
vt 0.4852076 0.09896649
vt 0.491594 0.1172047
vt 0.4852076 0.1172047
vt 0.4852076 0.007790498
vt 0.491594 0.007790498
vt 0.4947192 0.05338604
vt 0.4947192 0.03514782
vt 0.4947192 0.01690961
vt 0.4947192 0.1080856
vt 0.4947192 0.08984739
vt 0.4947192 0.07160916
vn -0.0009775162 0.9999995 0
vn -0.0009775162 0.499511 -0.866307
vn -0.0009775162 0.9999995 0
vn -0.0009775162 0.499511 -0.866307
vn -0.0009775162 0.499511 0.866307
vn -0.0009775162 0.499511 0.866307
vn -0.0009775162 -0.499511 0.866307
vn -0.0009775162 -0.499511 0.866307
vn -0.0009775162 -0.9999995 0
vn -0.0009775162 -0.9999995 0
vn -0.0009775162 -0.499511 -0.866307
vn -0.0009775162 -0.499511 -0.866307
vn -0.0009775162 -0.9999995 0
vn -0.0009775162 -0.9999995 0
vn -0.0009775162 0.9999995 0
vn -0.0009775162 0.499511 0.866307
vn -0.0009775162 0.9999995 0
vn -0.0009775162 0.499511 0.866307
vn -0.0009775162 0.499511 -0.866307
vn -0.0009775162 0.499511 -0.866307
vn -0.0009775162 -0.499511 -0.866307
vn -0.0009775162 -0.499511 -0.866307
vn -0.0009775162 -0.9999995 0
vn -0.0009775162 -0.9999995 0
vn -0.0009775162 -0.499511 0.866307
vn -0.0009775162 -0.499511 0.866307
vn -0.0009775162 -0.9999995 0
vn -0.0009775162 -0.9999995 0
vn -0.8201364 0.5718472 0.01915765
vn -0.8201364 0.2512218 0.514066
vn -0.8181814 0.5698922 0.07617168
vn -0.8181814 0.2336265 0.525355
vn -0.8181814 0.3352882 -0.4670772
vn -0.8201364 0.3196479 -0.4745539
vn -0.8181814 -0.2336265 -0.525355
vn -0.8201364 -0.2512218 -0.514066
vn -0.8181814 -0.5698922 -0.07617168
vn -0.8201364 -0.5718472 -0.01915765
vn -0.8201364 -0.319648 0.4745539
vn -0.8181814 -0.3352882 0.4670771
vn -0.8201364 -0.5718472 -0.01915765
vn -0.8181814 -0.5698922 -0.07617168
vn 0.7126096 0.7008795 -0.03091104
vn 0.7126096 0.378299 0.5908277
vn 0.7126096 0.7008795 -0.03091104
vn 0.7126096 0.3763438 0.592075
vn 0.7126096 0.325513 -0.6214731
vn 0.7126096 0.3216029 -0.6235055
vn 0.7126096 -0.3763439 -0.592075
vn 0.7126096 -0.3782989 -0.5908277
vn 0.7126096 -0.7008795 0.03091104
vn 0.7126096 -0.7008795 0.03091104
vn 0.7126096 -0.321603 0.6235054
vn 0.7126096 -0.3255131 0.621473
vn 0.7126096 -0.7008795 0.03091104
vn 0.7126096 -0.7008795 0.03091104
vn -0.2492667 0.4838707 0.8388892
vn -0.0009775162 0.499511 0.866307
vn -0.2492667 -0.4838707 0.8388892
vn -0.0009775162 -0.499511 0.866307
vn -0.2491982 0.9684524 0
vn -0.0009775162 0.9999995 0
vn -0.2492667 0.4838707 -0.8388892
vn -0.0009775162 0.499511 -0.866307
vn -0.2492667 -0.4838707 -0.8388892
vn -0.0009775162 -0.499511 -0.866307
vn -0.2491982 -0.9684524 0
vn -0.0009775162 -0.9999995 0
vn -0.0009775162 -0.9999995 0
vn -0.2491982 -0.9684524 0
vn -0.9999995 0.0009775162 0
vn -0.9999995 0.0009775162 0
vn -0.9999995 0.0009775162 0
vn -0.9999995 0.0009775162 0
vn -0.9999995 0.0009775162 0
vn -0.9999995 0.0009775162 0
g ShaftK_Long_RF_LOD0_0
f 3/3/3 2/2/2 1/1/1
f 3/3/3 4/4/4 2/2/2
f 5/5/5 3/3/3 1/1/1
f 5/5/5 1/1/1 6/6/6
f 7/7/7 5/5/5 6/6/6
f 7/7/7 6/6/6 8/8/8
f 9/9/9 7/7/7 8/8/8
f 9/9/9 8/8/8 10/10/10
f 4/4/4 11/11/11 2/2/2
f 4/4/4 12/12/12 11/11/11
f 12/12/12 13/13/13 11/11/11
f 12/12/12 14/14/14 13/13/13
f 17/17/17 16/16/16 15/15/15
f 17/17/17 18/18/18 16/16/16
f 19/19/19 17/17/17 15/15/15
f 19/19/19 15/15/15 20/20/20
f 21/21/21 19/19/19 20/20/20
f 21/21/21 20/20/20 22/22/22
f 23/23/23 21/21/21 22/22/22
f 23/23/23 22/22/22 24/24/24
f 18/18/18 25/25/25 16/16/16
f 18/18/18 26/26/26 25/25/25
f 26/26/26 27/27/27 25/25/25
f 26/26/26 28/28/28 27/27/27
f 31/31/31 30/30/30 29/29/29
f 31/31/31 32/32/32 30/30/30
f 33/33/33 31/31/31 29/29/29
f 33/33/33 29/29/29 34/34/34
f 35/35/35 33/33/33 34/34/34
f 35/35/35 34/34/34 36/36/36
f 37/37/37 35/35/35 36/36/36
f 37/37/37 36/36/36 38/38/38
f 32/32/32 39/39/39 30/30/30
f 32/32/32 40/40/40 39/39/39
f 40/40/40 41/41/41 39/39/39
f 40/40/40 42/42/42 41/41/41
f 45/45/45 44/44/44 43/43/43
f 45/45/45 46/46/46 44/44/44
f 47/47/47 45/45/45 43/43/43
f 47/47/47 43/43/43 48/48/48
f 49/49/49 47/47/47 48/48/48
f 49/49/49 48/48/48 50/50/50
f 51/51/51 49/49/49 50/50/50
f 51/51/51 50/50/50 52/52/52
f 46/46/46 53/53/53 44/44/44
f 46/46/46 54/54/54 53/53/53
f 54/54/54 55/55/55 53/53/53
f 54/54/54 56/56/56 55/55/55
f 59/59/59 58/58/58 57/57/57
f 59/59/59 60/60/60 58/58/58
f 61/61/61 57/57/57 58/58/58
f 61/61/61 58/58/58 62/62/62
f 63/63/63 61/61/61 62/62/62
f 63/63/63 62/62/62 64/64/64
f 65/65/65 63/63/63 64/64/64
f 65/65/65 64/64/64 66/66/66
f 67/67/67 65/65/65 66/66/66
f 67/67/67 66/66/66 68/68/68
f 59/59/59 69/69/69 60/60/60
f 59/59/59 70/70/70 69/69/69
f 71/71/71 57/57/57 61/61/61
f 72/72/72 59/59/59 57/57/57
f 73/73/73 70/70/70 59/59/59
f 74/74/74 65/65/65 67/67/67
f 75/75/75 63/63/63 65/65/65
f 76/76/76 61/61/61 63/63/63
