g ShaftK_Big_RF_LOD1
v -0.1280157 -0.01799041 -0.03116025
v -0.06087823 -0.02340607 -0.04054064
v -0.1280157 0.03598061 2.980232E-08
v -0.06087823 0.04681221 2.980232E-08
v -0.1280157 -0.01799041 0.0311603
v -0.06087823 -0.02340607 0.04054041
v -0.06087823 -0.02340607 0.04054041
v -0.1280157 -0.01799041 0.0311603
v -0.02000014 -0.03200009 -0.05542563
v 0.02000008 -0.03200009 -0.05542563
v -0.02000014 0.06399998 2.980232E-08
v 0.02000008 0.06399998 2.980232E-08
v -0.02000014 -0.03200009 0.05542569
v 0.02000008 -0.03200009 0.05542569
v 0.02000008 -0.03200009 0.05542569
v -0.02000014 -0.03200009 0.05542569
v -0.06087823 -0.02340607 -0.04054064
v -0.06087823 0.04681221 2.980232E-08
v -0.06087823 -0.02340607 0.04054041
v -0.06087823 -0.02340607 0.04054041
v -0.2444173 0.0262442 2.980232E-08
v -0.2444173 -0.01312206 -0.02272807
v -0.1280157 0.03598061 2.980232E-08
v -0.1280157 -0.01799041 -0.03116025
v -0.1280157 -0.01799041 0.0311603
v -0.2444173 -0.01312206 0.02272813
v -0.2444173 -0.01312206 0.02272813
v -0.1280157 -0.01799041 0.0311603
vt 0.2073503 0.08163156
vt 0.1715358 0.08163156
vt 0.2073503 0.04336842
vt 0.1715358 0.04336842
vt 0.2073503 0.005101752
vt 0.1715358 0.005101752
vt 0.1715358 0.1198982
vt 0.2073503 0.1198982
vt 0.1348652 0.08163156
vt 0.1348652 0.08163156
vt 0.1348652 0.04336842
vt 0.1348652 0.04336842
vt 0.1348652 0.005101752
vt 0.1348652 0.005101752
vt 0.1348652 0.1198982
vt 0.1348652 0.1198982
vt 0.1715358 0.08163156
vt 0.1715358 0.04336842
vt 0.1715358 0.005101752
vt 0.1715358 0.1198982
vt 0.2309001 0.04336842
vt 0.2309001 0.08163156
vt 0.2073503 0.04336842
vt 0.2073503 0.08163156
vt 0.2073503 0.005101752
vt 0.2309001 0.005101752
vt 0.2309001 0.1198982
vt 0.2073503 0.1198982
vn -0.1577267 -0.6036501 -0.7814915
vn -0.1577267 -0.5766847 -0.8015965
vn -0.1577267 0.9793792 -0.1262481
vn -0.1577267 0.9825516 -0.09856238
vn -0.1577267 -0.375237 0.9134108
vn -0.1577267 -0.4053749 0.9004407
vn -0.1577267 -0.4053749 0.9004407
vn -0.1577267 -0.375237 0.9134108
vn -0.1735888 -0.4307541 -0.8856172
vn -0.0006927252 -0.500547 -0.8657091
vn -0.1735888 0.9825516 0.06677726
vn -0.0006927252 0.9999998 0
vn -0.1735888 -0.5513055 0.8160449
vn -0.0006927252 -0.500547 0.8657091
vn -0.0006927252 -0.500547 0.8657091
vn -0.1735888 -0.5513055 0.8160449
vn -0.379795 -0.2816512 -0.8811517
vn -0.379795 0.9032416 0.1997758
vn -0.379795 -0.6226845 0.6841196
vn -0.379795 -0.6226845 0.6841196
vn -0.08317524 0.9920688 0.09424081
vn -0.08317524 -0.4164783 -0.9053329
vn -0.08317524 0.9952412 0.05076188
vn -0.08317524 -0.4466161 -0.8908512
vn -0.08317524 -0.5481331 0.8322451
vn -0.08317524 -0.5766847 0.8127217
vn -0.08317524 -0.5766847 0.8127217
vn -0.08317524 -0.5481331 0.8322451
g ShaftK_Big_RF_LOD1_0
f 3/3/3 2/2/2 1/1/1
f 3/3/3 4/4/4 2/2/2
f 5/5/5 4/4/4 3/3/3
f 5/5/5 6/6/6 4/4/4
f 1/1/1 2/2/2 7/7/7
f 1/1/1 7/7/7 8/8/8
f 11/11/11 10/10/10 9/9/9
f 11/11/11 12/12/12 10/10/10
f 13/13/13 12/12/12 11/11/11
f 13/13/13 14/14/14 12/12/12
f 9/9/9 10/10/10 15/15/15
f 9/9/9 15/15/15 16/16/16
f 11/11/11 9/9/9 17/17/17
f 11/11/11 17/17/17 18/18/18
f 13/13/13 11/11/11 18/18/18
f 13/13/13 18/18/18 19/19/19
f 9/9/9 20/20/20 17/17/17
f 9/9/9 16/16/16 20/20/20
f 23/23/23 22/22/22 21/21/21
f 23/23/23 24/24/24 22/22/22
f 25/25/25 23/23/23 21/21/21
f 25/25/25 21/21/21 26/26/26
f 24/24/24 27/27/27 22/22/22
f 24/24/24 28/28/28 27/27/27
