g ShaftK_Normal_LF_LOD2
v -0.034641 0.01999989 0.034641
v -0.034641 0.01999989 -0.03464092
v 0.22 0.01499996 0.02598068
v 0.22 0.01499996 -0.02598083
v 0.22 -0.02999991 -7.450581E-08
v -0.034641 -0.04000002 -7.450581E-08
v -0.034641 -0.04000002 -7.450581E-08
v 0.22 -0.02999991 -7.450581E-08
vt 0.005555494 0.04475563
vt 0.005555494 0.08025028
vt 0.1194486 0.04475563
vt 0.1194486 0.08025028
vt 0.1194486 0.009260979
vt 0.005555494 0.009260979
vt 0.005555494 0.1157303
vt 0.1194486 0.1157303
vn 0.03939921 0.5245249 0.850483
vn 0.03939921 0.4748995 -0.8791577
vn 0.03939921 0.5395628 0.841023
vn 0.03939921 0.4583578 -0.8878941
vn 0.03939921 -0.998822 0.02832452
vn 0.03939921 -0.998822 0.02832452
vn 0.03939921 -0.998822 0.02832452
vn 0.03939921 -0.998822 0.02832452
g ShaftK_Normal_LF_LOD2_0
f 3/3/3 2/2/2 1/1/1
f 3/3/3 4/4/4 2/2/2
f 5/5/5 3/3/3 1/1/1
f 5/5/5 1/1/1 6/6/6
f 4/4/4 7/7/7 2/2/2
f 4/4/4 8/8/8 7/7/7
