g SnowMan_FX02
v 0.1784115 4.470348E-07 -0.4670861
v 0.2886751 -0.2886751 -0.2886751
v 0.4670861 -0.1784115 4.470348E-07
v 0.4670861 0.1784115 4.470348E-07
v 0.2886751 0.2886751 -0.2886751
v 0.1784115 4.470348E-07 0.4670861
v 0.2886751 -0.2886751 0.2886751
v 0.2886751 0.2886751 0.2886751
v -4.470348E-07 -0.4670861 0.1784115
v -4.470348E-07 -0.4670861 -0.1784115
v 0.2886751 -0.2886751 -0.2886751
v -4.470348E-07 -0.4670861 0.1784115
v -0.1784115 4.470348E-07 0.4670861
v -0.2886751 -0.2886751 0.2886751
v -4.470348E-07 0.4670861 0.1784115
v -4.470348E-07 0.4670861 -0.1784115
v 0.2886751 0.2886751 -0.2886751
v -4.470348E-07 0.4670861 0.1784115
v -0.1784115 4.470348E-07 0.4670861
v -0.2886751 0.2886751 0.2886751
v -0.4670861 -0.1784115 4.470348E-07
v -0.4670861 0.1784115 4.470348E-07
v -0.2886751 0.2886751 0.2886751
v -0.1784115 4.470348E-07 -0.4670861
v -0.2886751 -0.2886751 -0.2886751
v -4.470348E-07 -0.4670861 -0.1784115
v -4.470348E-07 -0.4670861 0.1784115
v -0.2886751 -0.2886751 0.2886751
v -4.470348E-07 -0.4670861 -0.1784115
v 0.1784115 4.470348E-07 -0.4670861
v 0.2886751 -0.2886751 -0.2886751
v -0.2886751 0.2886751 -0.2886751
v -4.470348E-07 0.4670861 -0.1784115
v 0.1784115 4.470348E-07 -0.4670861
v 0.2886751 0.2886751 -0.2886751
v -4.470348E-07 0.4670861 -0.1784115
v -4.470348E-07 0.4670861 0.1784115
v -0.2886751 0.2886751 0.2886751
vt 0 0.5590143
vt 0.09910735 0.6319677
vt 0.1982147 0.5590143
vt 0.1603571 0.4409857
vt 0.03785763 0.4409857
vt 0.3585718 0.4409857
vt 0.3207141 0.5590143
vt 0.2594644 0.3680323
vt 0.3585718 0.677058
vt 0.2594644 0.7499962
vt 0.1603571 0.677058
vt 0.4198215 0.6319677
vt 0.4810712 0.4409857
vt 0.5189288 0.5590143
vt 0.2216068 0.2500038
vt 0.09910735 0.2500038
vt 0.06124971 0.3680323
vt 0.297322 0.2500038
vt 0.4576791 0.3680323
vt 0.4198215 0.2500038
vt 0.6414282 0.5590143
vt 0.6792859 0.4409857
vt 0.5801786 0.3680323
vt 0.8396429 0.5590143
vt 0.7405356 0.6319677
vt 0.702678 0.7499962
vt 0.5801786 0.7499962
vt 0.5423209 0.6319677
vt 0.7783932 0.7499962
vt 0.9387503 0.6319677
vt 0.9008927 0.7499962
vt 0.8017853 0.4409857
vt 0.9008927 0.3680323
vt 0.9621423 0.5590143
vt 1 0.4409857
vt 0.8396429 0.3229419
vt 0.7405356 0.2500038
vt 0.6414282 0.3229419
vn 0.3570492 0.0009131432 -0.9340851
vn 0.5780362 -0.5780362 -0.5759759
vn 0.9340966 -0.3570203 0
vn 0.9340966 0.3570203 0
vn 0.5780362 0.5780362 -0.5759759
vn 0.3570492 0.0009131432 0.9340851
vn 0.5780362 -0.5780362 0.5759759
vn 0.5780362 0.5780362 0.5759759
vn -0.0009131432 -0.9341723 0.356821
vn -0.0009131432 -0.9341723 -0.356821
vn 0.5780362 -0.5780362 -0.5759759
vn -0.0009131432 -0.9341723 0.356821
vn -0.3570493 0.0009131432 0.9340851
vn -0.5780362 -0.5780362 0.5759759
vn -0.0009131432 0.9341723 0.356821
vn -0.0009131432 0.9341723 -0.356821
vn 0.5780362 0.5780362 -0.5759759
vn -0.0009131432 0.9341723 0.356821
vn -0.3570493 0.0009131432 0.9340851
vn -0.5780362 0.5780362 0.5759759
vn -0.9340966 -0.3570203 0
vn -0.9340966 0.3570203 0
vn -0.5780362 0.5780362 0.5759759
vn -0.3570493 0.0009131432 -0.9340851
vn -0.5780362 -0.5780362 -0.5759759
vn -0.0009131432 -0.9341723 -0.356821
vn -0.0009131432 -0.9341723 0.356821
vn -0.5780362 -0.5780362 0.5759759
vn -0.0009131432 -0.9341723 -0.356821
vn 0.3570492 0.0009131432 -0.9340851
vn 0.5780362 -0.5780362 -0.5759759
vn -0.5780362 0.5780362 -0.5759759
vn -0.0009131432 0.9341723 -0.356821
vn 0.3570492 0.0009131432 -0.9340851
vn 0.5780362 0.5780362 -0.5759759
vn -0.0009131432 0.9341723 -0.356821
vn -0.0009131432 0.9341723 0.356821
vn -0.5780362 0.5780362 0.5759759
g SnowMan_FX02_0
f 3/3/3 2/2/2 1/1/1
f 1/1/1 4/4/4 3/3/3
f 1/1/1 5/5/5 4/4/4
f 3/3/3 4/4/4 6/6/6
f 6/6/6 7/7/7 3/3/3
f 4/4/4 8/8/8 6/6/6
f 3/3/3 7/7/7 9/9/9
f 3/3/3 9/9/9 10/10/10
f 10/10/10 11/11/11 3/3/3
f 12/12/12 7/7/7 6/6/6
f 6/6/6 13/13/13 12/12/12
f 13/13/13 14/14/14 12/12/12
f 15/15/15 8/8/8 4/4/4
f 16/16/16 15/15/15 4/4/4
f 4/4/4 17/17/17 16/16/16
f 6/6/6 8/8/8 18/18/18
f 18/18/18 19/19/19 6/6/6
f 18/18/18 20/20/20 19/19/19
f 21/21/21 14/14/14 13/13/13
f 13/13/13 22/22/22 21/21/21
f 13/13/13 23/23/23 22/22/22
f 21/21/21 22/22/22 24/24/24
f 24/24/24 25/25/25 21/21/21
f 21/21/21 25/25/25 26/26/26
f 26/26/26 27/27/27 21/21/21
f 27/27/27 28/28/28 21/21/21
f 29/29/29 25/25/25 24/24/24
f 29/29/29 24/24/24 30/30/30
f 30/30/30 31/31/31 29/29/29
f 22/22/22 32/32/32 24/24/24
f 24/24/24 32/32/32 33/33/33
f 34/34/34 24/24/24 33/33/33
f 33/33/33 35/35/35 34/34/34
f 36/36/36 32/32/32 22/22/22
f 22/22/22 37/37/37 36/36/36
f 22/22/22 38/38/38 37/37/37
