g SplaInk01
v 0.01424996 0.003322255 -0.003818247
v 0.02752885 0.01306258 -0.007376354
v 0.02468168 0.01306258 -0.01424996
v 0.01277623 0.003322255 -0.007376354
v 0.02015254 0.01306258 -0.02015254
v 0.01043176 0.003322255 -0.01043176
v 0.01424996 0.01306258 -0.02468168
v 0.007376354 0.003322255 -0.01277623
v 0.007376354 0.01306258 -0.02752885
v 0.003818247 0.003322255 -0.01424996
v 4.842877E-08 0.01306258 -0.0285
v 4.842877E-08 0.003322255 -0.01475266
v -0.00737638 0.01306258 -0.02752885
v -0.003818274 0.003322255 -0.01424996
v -0.01424999 0.01306258 -0.02468168
v -0.00737638 0.003322255 -0.01277623
v -0.02015257 0.01306258 -0.02015254
v -0.01043167 0.003322255 -0.01043176
v -0.02468171 0.01306258 -0.01424996
v -0.01277614 0.003322255 -0.007376354
v -0.02752887 0.01306258 -0.007376354
v -0.01424999 0.003322255 -0.003818247
v -0.02850003 0.01306258 -4.842877E-08
v -0.01475269 0.003322255 -4.842877E-08
v -0.02752887 0.01306258 0.00737638
v -0.01424999 0.003322255 0.003818274
v -0.02468171 0.01306258 0.01424999
v -0.01277626 0.003322255 0.00737638
v -0.02015257 0.01306258 0.02015257
v -0.01043167 0.003322255 0.01043167
v -0.01424999 0.01306258 0.02468171
v -0.00737638 0.003322255 0.01277626
v -0.00737638 0.01306258 0.02752887
v -0.003818274 0.003322255 0.01424999
v 4.842877E-08 0.01306258 0.02850003
v 4.842877E-08 0.003322255 0.01475269
v 0.007376354 0.01306258 0.02752887
v 0.003818247 0.003322255 0.01424999
v 0.01424996 0.01306258 0.02468171
v 0.007376354 0.003322255 0.01277626
v 0.02015254 0.01306258 0.02015257
v 0.01043176 0.003322255 0.01043179
v 0.02468168 0.01306258 0.01424999
v 0.01277623 0.003322255 0.00737638
v 0.02752885 0.01306258 0.00737638
v 0.01424996 0.003322255 0.003818274
v 0.0285 0.01306258 -4.842877E-08
v 0.01475266 0.003322255 -4.842877E-08
v 0.01043176 0.0285571 0.03893175
v 0.02015254 0.0285571 0.03490518
v 0.0285 0.0285571 0.02850003
v 0.03490528 0.0285571 0.02015257
v 0.03893172 0.0285571 0.01043179
v 0.04030503 0.0285571 -4.842877E-08
v 0.03893172 0.0285571 -0.01043176
v 0.03490515 0.0285571 -0.02015254
v 0.0285 0.0285571 -0.0285
v 0.02015254 0.0285571 -0.03490515
v 0.01043176 0.0285571 -0.03893172
v 4.842877E-08 0.0285571 -0.04030503
v -0.01043167 0.0285571 -0.03893172
v -0.02015257 0.0285571 -0.03490515
v -0.02850003 0.0285571 -0.0285
v -0.03490518 0.0285571 -0.02015254
v -0.03893175 0.0285571 -0.01043176
v -0.04030506 0.0285571 -4.842877E-08
v -0.03893175 0.0285571 0.01043167
v -0.03490518 0.0285571 0.02015257
v -0.02850003 0.0285571 0.02850003
v -0.02015257 0.0285571 0.03490518
v -0.01043179 0.0285571 0.03893175
v 4.842877E-08 0.0285571 0.04030506
v -0.04768137 0.04875002 0.01277614
v -0.04936346 0.04875002 -4.842877E-08
v -0.04274995 0.04875002 0.02468171
v -0.01277626 0.04875002 0.04768137
v 4.842877E-08 0.04875002 0.04936346
v 0.01277623 0.04875002 0.04768149
v 0.02468168 0.04875002 0.04274995
v 0.03490528 0.04875002 0.03490518
v 0.04275004 0.04875002 0.02468171
v 0.04768146 0.04875002 0.01277626
v 0.04936343 0.04875002 -4.842877E-08
v 0.04768146 0.04875002 -0.01277623
v 0.04274992 0.04875002 -0.02468168
v 0.03490515 0.04875002 -0.03490515
v 0.02468168 0.04875002 -0.04274992
v 0.01277623 0.04875002 -0.04768134
v 4.842877E-08 0.04875002 -0.04936343
v -0.01277614 0.04875002 -0.04768146
v -0.02468171 0.04875002 -0.04275004
v -0.03490518 0.04875002 -0.03490528
v -0.04274995 0.04875002 -0.02468168
v -0.04768137 0.04875002 -0.01277623
v 4.842877E-08 0.07226513 -0.05505777
v -0.01424999 0.07226513 -0.05318163
v -0.02752887 0.07226513 -0.04768146
v -0.03893175 0.07226513 -0.03893172
v 0.05318176 0.07226513 0.01424999
v 0.05505777 0.07226513 -4.842877E-08
v 4.842877E-08 -4.842877E-08 -4.842877E-08
vt 0.5968953 0.5259626
vt 0.6950167 0.5522559
vt 0.6748525 0.6009448
vt 0.5868821 0.5501624
vt 0.6427606 0.6427606
vt 0.5709326 0.5709326
vt 0.6009448 0.6748525
vt 0.5501624 0.5868821
vt 0.5522559 0.6950167
vt 0.5259626 0.5968953
vt 0.4999998 0.7019033
vt 0.4999998 0.6003112
vt 0.4477437 0.6950167
vt 0.4740371 0.5968953
vt 0.3990549 0.6748525
vt 0.4498373 0.5868821
vt 0.357239 0.6427606
vt 0.429067 0.5709326
vt 0.3251471 0.6009448
vt 0.4131313 0.5501624
vt 0.3049829 0.5522559
vt 0.4031043 0.5259626
vt 0.2980962 0.4999998
vt 0.3996885 0.4999998
vt 0.3049829 0.4477437
vt 0.4031043 0.4740371
vt 0.3251471 0.3990549
vt 0.4131313 0.4498373
vt 0.357239 0.357239
vt 0.429067 0.429067
vt 0.3990549 0.3251471
vt 0.4498373 0.4131313
vt 0.4477437 0.3049829
vt 0.4740371 0.4031043
vt 0.4999998 0.2980962
vt 0.4999998 0.3996885
vt 0.5522559 0.3049829
vt 0.5259626 0.4031043
vt 0.6009448 0.3251471
vt 0.5501624 0.4131313
vt 0.6427606 0.357239
vt 0.5709326 0.429067
vt 0.6748525 0.3990549
vt 0.5868821 0.4498373
vt 0.6950167 0.4477437
vt 0.5968953 0.4740371
vt 0.7019033 0.4999998
vt 0.6003112 0.4999998
vt 0.5783013 0.2077844
vt 0.6512588 0.2380031
vt 0.7139138 0.2860859
vt 0.7619965 0.3487408
vt 0.7922152 0.4216983
vt 0.8025178 0.4999998
vt 0.7922152 0.5783013
vt 0.7619965 0.6512588
vt 0.7139138 0.7139138
vt 0.6512588 0.7619965
vt 0.5783013 0.7922152
vt 0.4999998 0.8025178
vt 0.4216983 0.7922152
vt 0.3487408 0.7619965
vt 0.2860859 0.7139138
vt 0.2380031 0.6512588
vt 0.2077844 0.5783013
vt 0.1974819 0.4999998
vt 0.2077844 0.4216983
vt 0.2380031 0.3487408
vt 0.2860859 0.2860859
vt 0.3487408 0.2380031
vt 0.4216983 0.2077844
vt 0.4999998 0.1974819
vt 0.1110816 0.3957906
vt 0.09736338 0.4999998
vt 0.1512998 0.2986885
vt 0.3957906 0.1110816
vt 0.4999998 0.09736338
vt 0.6042091 0.1110816
vt 0.7013249 0.1512998
vt 0.7847089 0.2152908
vt 0.8486998 0.2986885
vt 0.888918 0.3957906
vt 0.9026363 0.4999998
vt 0.888918 0.6042091
vt 0.8486998 0.7013249
vt 0.7847089 0.7847089
vt 0.7013249 0.8486998
vt 0.6042091 0.888918
vt 0.4999998 0.9026363
vt 0.3957906 0.888918
vt 0.2986885 0.8486998
vt 0.2152908 0.7847089
vt 0.1512998 0.7013249
vt 0.1110816 0.6042091
vt 0.4999998 1
vt 0.3705854 0.9829625
vt 0.2499997 0.9330065
vt 0.1464516 0.853548
vt 0.9829625 0.3705854
vt 1 0.4999998
vt 0.4999998 0.4999998
vn 0.4933911 -0.8597946 -0.1315999
vn 0.7065033 -0.6803316 -0.194941
vn 0.6335965 -0.6803316 -0.3683807
vn 0.4410477 -0.8597946 -0.2573524
vn 0.5176933 -0.6803316 -0.5187894
vn 0.3606633 -0.8597946 -0.3614904
vn 0.3662715 -0.6803316 -0.6348181
vn 0.2541072 -0.8597946 -0.4429254
vn 0.188678 -0.6803316 -0.7082016
vn 0.1325958 -0.8597946 -0.4931244
vn -0.0001319647 -0.6803316 -0.7329044
vn -0.0001319647 -0.8597946 -0.5106401
vn -0.188942 -0.6803316 -0.7081312
vn -0.1328598 -0.8597946 -0.4930533
vn -0.3665355 -0.6803316 -0.6346657
vn -0.2543712 -0.8597946 -0.4427738
vn -0.5179573 -0.6803316 -0.5185258
vn -0.3609273 -0.8597946 -0.3612267
vn -0.6338605 -0.6803316 -0.3679264
vn -0.4413117 -0.8597946 -0.2568994
vn -0.7067673 -0.6803316 -0.1939814
vn -0.4917856 -0.8597946 -0.1374781
vn -0.7329205 -0.6803145 0
vn -0.5104798 -0.8597946 -0.01279586
vn -0.7067673 -0.6803316 0.1939814
vn -0.4917856 -0.8597946 0.1374781
vn -0.6319911 -0.6990257 0.3345897
vn -0.4413117 -0.8597946 0.2568994
vn -0.4899163 -0.6971563 0.5234072
vn -0.3609273 -0.8597946 0.3612267
vn -0.3777519 -0.6971563 0.6093247
vn -0.2543712 -0.8597946 0.4427738
vn -0.1590315 -0.6990257 0.6971887
vn -0.1328598 -0.8597946 0.4930533
vn -0.0001319647 -0.6803316 0.7329044
vn -0.0001319647 -0.8597946 0.5106401
vn 0.188678 -0.6803316 0.7082016
vn 0.1325958 -0.8597946 0.4931244
vn 0.3662715 -0.6803316 0.6348181
vn 0.2541072 -0.8597946 0.4429254
vn 0.5176933 -0.6803316 0.5187894
vn 0.3606633 -0.8597946 0.3614904
vn 0.6335965 -0.6803316 0.3683807
vn 0.4410477 -0.8597946 0.2573524
vn 0.7065033 -0.6803316 0.194941
vn 0.4933911 -0.8597946 0.1315999
vn 0.732675 -0.6803316 -0.01833738
vn 0.5102158 -0.8597946 -0.02081361
vn 0.2260661 -0.4877828 0.8431857
vn 0.4373089 -0.4877828 0.7555321
vn 0.6167718 -0.4877828 0.6177868
vn 0.7364138 -0.5027381 0.452713
vn 0.8411005 -0.5027381 0.1995101
vn 0.8635334 -0.5027381 0.0395538
vn 0.8298841 -0.5027381 -0.2419645
vn 0.7569773 -0.4877828 -0.4348027
vn 0.6167718 -0.4877828 -0.6177868
vn 0.4373089 -0.4877828 -0.7555321
vn 0.2466295 -0.5027381 -0.8285096
vn -0.02443433 -0.5027381 -0.8640934
vn -0.22633 -0.4877828 -0.8431149
vn -0.4357035 -0.4877828 -0.7564591
vn -0.5927336 -0.5027381 -0.6292227
vn -0.7609801 -0.5027381 -0.4100775
vn -0.8432339 -0.4877828 -0.2258859
vn -0.8730076 -0.4877064 0
vn -0.8432339 -0.4877828 0.2258859
vn -0.774066 -0.4896523 0.4013259
vn -0.5889947 -0.5625591 0.5801832
vn -0.4076624 -0.5625591 0.7192626
vn -0.1870726 -0.4896523 0.8516129
vn -0.0001319647 -0.4877828 0.872965
vn -0.880622 -0.4092678 0.2387565
vn -0.9124019 -0.4092678 -0.004749774
vn -0.833887 -0.4073984 0.3723695
vn -0.1459457 -0.4073984 0.9015134
vn -0.0001319647 -0.4092678 0.9124143
vn 0.2354131 -0.4092678 0.8815217
vn 0.456003 -0.4092678 0.7902918
vn 0.6448129 -0.4092678 0.6455355
vn 0.8037124 -0.3737491 0.462988
vn 0.9270931 -0.3120587 0.2076478
vn 0.9495261 -0.3120587 0.03193078
vn 0.8953133 -0.3737491 -0.2423339
vn 0.7906266 -0.4092678 -0.4554222
vn 0.6448129 -0.4092678 -0.6455355
vn 0.456003 -0.4092678 -0.7902918
vn 0.2410213 -0.3737491 -0.8956675
vn -0.04312837 -0.3120587 -0.9490834
vn -0.2468935 -0.3101893 -0.9180557
vn -0.474961 -0.3101893 -0.8235257
vn -0.6413381 -0.3120587 -0.7009313
vn -0.8039764 -0.3737491 -0.4625295
vn -0.880622 -0.4092678 -0.2387565
vn -0.0936023 -0.2335437 -0.9678305
vn -0.2506324 -0.2354131 -0.9390229
vn -0.4861774 -0.2354131 -0.8415534
vn -0.6170359 -0.2335437 -0.7514812
vn 0.9588731 -0.2335437 0.1613064
vn 0.9682201 -0.2335437 0.08948281
vn -0.0001319647 -1 0
g SplaInk01_0
f 3/3/3 2/2/2 1/1/1
f 4/4/4 3/3/3 1/1/1
f 5/5/5 3/3/3 4/4/4
f 6/6/6 5/5/5 4/4/4
f 7/7/7 5/5/5 6/6/6
f 8/8/8 7/7/7 6/6/6
f 9/9/9 7/7/7 8/8/8
f 10/10/10 9/9/9 8/8/8
f 11/11/11 9/9/9 10/10/10
f 12/12/12 11/11/11 10/10/10
f 13/13/13 11/11/11 12/12/12
f 14/14/14 13/13/13 12/12/12
f 15/15/15 13/13/13 14/14/14
f 16/16/16 15/15/15 14/14/14
f 17/17/17 15/15/15 16/16/16
f 18/18/18 17/17/17 16/16/16
f 19/19/19 17/17/17 18/18/18
f 20/20/20 19/19/19 18/18/18
f 21/21/21 19/19/19 20/20/20
f 22/22/22 21/21/21 20/20/20
f 23/23/23 21/21/21 22/22/22
f 24/24/24 23/23/23 22/22/22
f 25/25/25 23/23/23 24/24/24
f 26/26/26 25/25/25 24/24/24
f 27/27/27 25/25/25 26/26/26
f 28/28/28 27/27/27 26/26/26
f 29/29/29 27/27/27 28/28/28
f 30/30/30 29/29/29 28/28/28
f 31/31/31 29/29/29 30/30/30
f 32/32/32 31/31/31 30/30/30
f 33/33/33 31/31/31 32/32/32
f 34/34/34 33/33/33 32/32/32
f 35/35/35 33/33/33 34/34/34
f 36/36/36 35/35/35 34/34/34
f 37/37/37 35/35/35 36/36/36
f 38/38/38 37/37/37 36/36/36
f 39/39/39 37/37/37 38/38/38
f 40/40/40 39/39/39 38/38/38
f 41/41/41 39/39/39 40/40/40
f 42/42/42 41/41/41 40/40/40
f 43/43/43 41/41/41 42/42/42
f 44/44/44 43/43/43 42/42/42
f 45/45/45 43/43/43 44/44/44
f 46/46/46 45/45/45 44/44/44
f 47/47/47 45/45/45 46/46/46
f 48/48/48 47/47/47 46/46/46
f 2/2/2 47/47/47 48/48/48
f 1/1/1 2/2/2 48/48/48
f 37/37/37 49/49/49 35/35/35
f 50/50/50 49/49/49 37/37/37
f 39/39/39 50/50/50 37/37/37
f 51/51/51 50/50/50 39/39/39
f 41/41/41 51/51/51 39/39/39
f 52/52/52 51/51/51 41/41/41
f 43/43/43 52/52/52 41/41/41
f 53/53/53 52/52/52 43/43/43
f 45/45/45 53/53/53 43/43/43
f 54/54/54 53/53/53 45/45/45
f 47/47/47 54/54/54 45/45/45
f 55/55/55 54/54/54 47/47/47
f 2/2/2 55/55/55 47/47/47
f 56/56/56 55/55/55 2/2/2
f 3/3/3 56/56/56 2/2/2
f 57/57/57 56/56/56 3/3/3
f 5/5/5 57/57/57 3/3/3
f 58/58/58 57/57/57 5/5/5
f 7/7/7 58/58/58 5/5/5
f 59/59/59 58/58/58 7/7/7
f 9/9/9 59/59/59 7/7/7
f 60/60/60 59/59/59 9/9/9
f 11/11/11 60/60/60 9/9/9
f 61/61/61 60/60/60 11/11/11
f 13/13/13 61/61/61 11/11/11
f 62/62/62 61/61/61 13/13/13
f 15/15/15 62/62/62 13/13/13
f 63/63/63 62/62/62 15/15/15
f 17/17/17 63/63/63 15/15/15
f 64/64/64 63/63/63 17/17/17
f 19/19/19 64/64/64 17/17/17
f 65/65/65 64/64/64 19/19/19
f 21/21/21 65/65/65 19/19/19
f 66/66/66 65/65/65 21/21/21
f 23/23/23 66/66/66 21/21/21
f 67/67/67 66/66/66 23/23/23
f 25/25/25 67/67/67 23/23/23
f 68/68/68 67/67/67 25/25/25
f 27/27/27 68/68/68 25/25/25
f 29/29/29 68/68/68 27/27/27
f 29/29/29 69/69/69 68/68/68
f 70/70/70 69/69/69 29/29/29
f 31/31/31 70/70/70 29/29/29
f 31/31/31 71/71/71 70/70/70
f 31/31/31 33/33/33 71/71/71
f 72/72/72 71/71/71 33/33/33
f 35/35/35 72/72/72 33/33/33
f 49/49/49 72/72/72 35/35/35
f 67/67/67 73/73/73 66/66/66
f 73/73/73 74/74/74 66/66/66
f 75/75/75 73/73/73 67/67/67
f 68/68/68 75/75/75 67/67/67
f 75/75/75 68/68/68 69/69/69
f 70/70/70 71/71/71 76/76/76
f 77/77/77 76/76/76 71/71/71
f 72/72/72 77/77/77 71/71/71
f 78/78/78 77/77/77 72/72/72
f 49/49/49 78/78/78 72/72/72
f 79/79/79 78/78/78 49/49/49
f 50/50/50 79/79/79 49/49/49
f 80/80/80 79/79/79 50/50/50
f 51/51/51 80/80/80 50/50/50
f 81/81/81 80/80/80 51/51/51
f 52/52/52 81/81/81 51/51/51
f 52/52/52 82/82/82 81/81/81
f 52/52/52 53/53/53 82/82/82
f 83/83/83 82/82/82 53/53/53
f 54/54/54 83/83/83 53/53/53
f 55/55/55 83/83/83 54/54/54
f 55/55/55 84/84/84 83/83/83
f 85/85/85 84/84/84 55/55/55
f 56/56/56 85/85/85 55/55/55
f 86/86/86 85/85/85 56/56/56
f 57/57/57 86/86/86 56/56/56
f 87/87/87 86/86/86 57/57/57
f 58/58/58 87/87/87 57/57/57
f 88/88/88 87/87/87 58/58/58
f 59/59/59 88/88/88 58/58/58
f 59/59/59 89/89/89 88/88/88
f 59/59/59 60/60/60 89/89/89
f 90/90/90 89/89/89 60/60/60
f 61/61/61 90/90/90 60/60/60
f 91/91/91 90/90/90 61/61/61
f 62/62/62 91/91/91 61/61/61
f 92/92/92 91/91/91 62/62/62
f 63/63/63 92/92/92 62/62/62
f 64/64/64 92/92/92 63/63/63
f 64/64/64 93/93/93 92/92/92
f 94/94/94 93/93/93 64/64/64
f 65/65/65 94/94/94 64/64/64
f 74/74/74 94/94/94 65/65/65
f 66/66/66 74/74/74 65/65/65
f 88/88/88 89/89/89 95/95/95
f 96/96/96 95/95/95 89/89/89
f 90/90/90 96/96/96 89/89/89
f 97/97/97 96/96/96 90/90/90
f 91/91/91 97/97/97 90/90/90
f 98/98/98 97/97/97 91/91/91
f 93/93/93 98/98/98 92/92/92
f 92/92/92 98/98/98 91/91/91
f 81/81/81 82/82/82 99/99/99
f 82/82/82 83/83/83 99/99/99
f 83/83/83 100/100/100 99/99/99
f 84/84/84 100/100/100 83/83/83
f 1/1/1 101/101/101 4/4/4
f 4/4/4 101/101/101 6/6/6
f 6/6/6 101/101/101 8/8/8
f 8/8/8 101/101/101 10/10/10
f 10/10/10 101/101/101 12/12/12
f 12/12/12 101/101/101 14/14/14
f 14/14/14 101/101/101 16/16/16
f 16/16/16 101/101/101 18/18/18
f 18/18/18 101/101/101 20/20/20
f 20/20/20 101/101/101 22/22/22
f 22/22/22 101/101/101 24/24/24
f 24/24/24 101/101/101 26/26/26
f 26/26/26 101/101/101 28/28/28
f 28/28/28 101/101/101 30/30/30
f 30/30/30 101/101/101 32/32/32
f 32/32/32 101/101/101 34/34/34
f 34/34/34 101/101/101 36/36/36
f 36/36/36 101/101/101 38/38/38
f 38/38/38 101/101/101 40/40/40
f 40/40/40 101/101/101 42/42/42
f 42/42/42 101/101/101 44/44/44
f 44/44/44 101/101/101 46/46/46
f 46/46/46 101/101/101 48/48/48
f 48/48/48 101/101/101 1/1/1
