g TireK_StdDot_RF_LOD1
v 0.04017077 -7.450581E-08 -7.450581E-08
v 0.04017077 0.111249 0.1112487
v 0.04017077 0.1387983 0.05615005
v 0.04017077 0.1387983 0.1112487
v 0.04017077 0.05310796 0.1387983
v 0.04017077 0.111249 0.1387983
v 0.04017077 2.682209E-07 0.1387983
v 0.04017077 2.682209E-07 0.1663476
v 0.04017077 0.05310796 0.1663476
v 0.04017077 0.1387983 -7.450581E-08
v 0.04017077 0.1663476 -7.450581E-08
v 0.04017077 0.1663476 0.05615005
v -0.1876096 0.1387983 -7.450581E-08
v -0.1876096 0.1663476 -7.450581E-08
v -0.1876096 0.1387983 0.05615005
v -0.1876096 0.1663476 0.05615005
v -0.1876096 -7.450581E-08 -7.450581E-08
v -0.1876096 0.111249 0.1112487
v -0.1876096 0.05310796 0.1387983
v -0.1876096 0.111249 0.1387983
v -0.1876096 0.1387983 0.1112487
v -0.1876096 2.682209E-07 0.1387983
v -0.1876096 2.682209E-07 0.1663476
v -0.1876096 0.05310796 0.1663476
v 0.04017077 0.05310796 0.1387983
v 0.04017077 0.05310796 0.1663476
v -0.1876096 0.05310796 0.1387983
v -0.1876096 0.05310796 0.1663476
v -0.1876096 0.111249 0.1387983
v 0.04017077 0.111249 0.1387983
v -0.1876096 0.111249 0.1112487
v 0.04017077 0.111249 0.1112487
v -0.1876096 0.1387983 0.1112487
v 0.04017077 0.1387983 0.1112487
v -0.1876096 0.1387983 0.05615005
v 0.04017077 0.1387983 0.05615005
v -0.1876096 0.1663476 0.05615005
v 0.04017077 0.1663476 0.05615005
v 0.04017077 0.1663476 -7.450581E-08
v -0.1876096 0.1663476 -7.450581E-08
v 0.04017077 2.682209E-07 0.1663476
v -0.1876096 2.682209E-07 0.1663476
v 0.04017077 -7.450581E-08 -7.450581E-08
v 0.04017077 -0.1112488 0.111249
v 0.04017077 -0.05614986 0.1387983
v 0.04017077 -0.1112488 0.1387983
v 0.04017077 -0.1387981 0.05310796
v 0.04017077 -0.1387981 0.111249
v 0.04017077 -0.1387981 2.682209E-07
v 0.04017077 -0.1663478 2.682209E-07
v 0.04017077 -0.1663478 0.05310796
v 0.04017077 2.682209E-07 0.1387983
v 0.04017077 2.682209E-07 0.1663476
v 0.04017077 -0.05614986 0.1663476
v -0.1876096 2.682209E-07 0.1387983
v -0.1876096 2.682209E-07 0.1663476
v -0.1876096 -0.05614986 0.1387983
v -0.1876096 -0.05614986 0.1663476
v -0.1876096 -7.450581E-08 -7.450581E-08
v -0.1876096 -0.1112488 0.111249
v -0.1876096 -0.1387981 0.05310796
v -0.1876096 -0.1387981 0.111249
v -0.1876096 -0.1112488 0.1387983
v -0.1876096 -0.1387981 2.682209E-07
v -0.1876096 -0.1663478 2.682209E-07
v -0.1876096 -0.1663478 0.05310796
v 0.04017077 -0.1387981 0.05310796
v 0.04017077 -0.1663478 0.05310796
v -0.1876096 -0.1387981 0.05310796
v -0.1876096 -0.1663478 0.05310796
v -0.1876096 -0.1387981 0.111249
v 0.04017077 -0.1387981 0.111249
v -0.1876096 -0.1112488 0.111249
v 0.04017077 -0.1112488 0.111249
v -0.1876096 -0.1112488 0.1387983
v 0.04017077 -0.1112488 0.1387983
v -0.1876096 -0.05614986 0.1387983
v 0.04017077 -0.05614986 0.1387983
v -0.1876096 -0.05614986 0.1663476
v 0.04017077 -0.05614986 0.1663476
v 0.04017077 2.682209E-07 0.1663476
v -0.1876096 2.682209E-07 0.1663476
v 0.04017077 -0.1663478 2.682209E-07
v -0.1876096 -0.1663478 2.682209E-07
v 0.04017077 -7.450581E-08 -7.450581E-08
v 0.04017077 -0.1112488 -0.1112488
v 0.04017077 -0.1387985 -0.05614986
v 0.04017077 -0.1387985 -0.1112488
v 0.04017077 -0.05310777 -0.1387981
v 0.04017077 -0.1112488 -0.1387981
v 0.04017077 -7.450581E-08 -0.1387981
v 0.04017077 -7.450581E-08 -0.1663478
v 0.04017077 -0.05310777 -0.1663478
v 0.04017077 -0.1387981 2.682209E-07
v 0.04017077 -0.1663478 2.682209E-07
v 0.04017077 -0.1663478 -0.05614986
v -0.1876096 -0.1387981 2.682209E-07
v -0.1876096 -0.1663478 2.682209E-07
v -0.1876096 -0.1387985 -0.05614986
v -0.1876096 -0.1663478 -0.05614986
v -0.1876096 -7.450581E-08 -7.450581E-08
v -0.1876096 -0.1112488 -0.1112488
v -0.1876096 -0.05310777 -0.1387981
v -0.1876096 -0.1112488 -0.1387981
v -0.1876096 -0.1387985 -0.1112488
v -0.1876096 -7.450581E-08 -0.1387981
v -0.1876096 -7.450581E-08 -0.1663478
v -0.1876096 -0.05310777 -0.1663478
v 0.04017077 -0.05310777 -0.1387981
v 0.04017077 -0.05310777 -0.1663478
v -0.1876096 -0.05310777 -0.1387981
v -0.1876096 -0.05310777 -0.1663478
v -0.1876096 -0.1112488 -0.1387981
v 0.04017077 -0.1112488 -0.1387981
v -0.1876096 -0.1112488 -0.1112488
v 0.04017077 -0.1112488 -0.1112488
v -0.1876096 -0.1387985 -0.1112488
v 0.04017077 -0.1387985 -0.1112488
v -0.1876096 -0.1387985 -0.05614986
v 0.04017077 -0.1387985 -0.05614986
v -0.1876096 -0.1663478 -0.05614986
v 0.04017077 -0.1663478 -0.05614986
v 0.04017077 -0.1663478 2.682209E-07
v -0.1876096 -0.1663478 2.682209E-07
v 0.04017077 -7.450581E-08 -0.1663478
v -0.1876096 -7.450581E-08 -0.1663478
v 0.04017077 -7.450581E-08 -7.450581E-08
v 0.04017077 0.1112487 -0.1112488
v 0.04017077 0.05615005 -0.1387985
v 0.04017077 0.1112487 -0.1387985
v 0.04017077 0.1387983 -0.05310777
v 0.04017077 0.1387983 -0.1112488
v 0.04017077 0.1387983 -7.450581E-08
v 0.04017077 0.1663476 -7.450581E-08
v 0.04017077 0.1663476 -0.05310777
v 0.04017077 -7.450581E-08 -0.1387981
v 0.04017077 -7.450581E-08 -0.1663478
v 0.04017077 0.05615005 -0.1663478
v -0.1876096 -7.450581E-08 -0.1387981
v -0.1876096 -7.450581E-08 -0.1663478
v -0.1876096 0.05615005 -0.1387985
v -0.1876096 0.05615005 -0.1663478
v -0.1876096 -7.450581E-08 -7.450581E-08
v -0.1876096 0.1112487 -0.1112488
v -0.1876096 0.1387983 -0.05310777
v -0.1876096 0.1387983 -0.1112488
v -0.1876096 0.1112487 -0.1387985
v -0.1876096 0.1387983 -7.450581E-08
v -0.1876096 0.1663476 -7.450581E-08
v -0.1876096 0.1663476 -0.05310777
v 0.04017077 0.1387983 -0.05310777
v 0.04017077 0.1663476 -0.05310777
v -0.1876096 0.1387983 -0.05310777
v -0.1876096 0.1663476 -0.05310777
v -0.1876096 0.1387983 -0.1112488
v 0.04017077 0.1387983 -0.1112488
v -0.1876096 0.1112487 -0.1112488
v 0.04017077 0.1112487 -0.1112488
v -0.1876096 0.1112487 -0.1387985
v 0.04017077 0.1112487 -0.1387985
v -0.1876096 0.05615005 -0.1387985
v 0.04017077 0.05615005 -0.1387985
v -0.1876096 0.05615005 -0.1663478
v 0.04017077 0.05615005 -0.1663478
v 0.04017077 -7.450581E-08 -0.1663478
v -0.1876096 -7.450581E-08 -0.1663478
v -0.1876096 0.1663476 -7.450581E-08
v 0.04017077 0.1663476 -7.450581E-08
vt 0.01450048 0.01527367
vt 0.3231404 0.3238985
vt 0.1702759 0.4003384
vt 0.3231404 0.4003384
vt 0.3995652 0.1626046
vt 0.3995652 0.3238985
vt 0.3995652 0.01527367
vt 0.476005 0.01396986
vt 0.476005 0.1613159
vt 0.01450048 0.4003384
vt 0.01450048 0.476763
vt 0.1702759 0.476763
vt 0.9869331 0.3977459
vt 0.9869331 0.4741857
vt 0.8311577 0.3977459
vt 0.8311577 0.4741857
vt 0.9869331 0.0126812
vt 0.6782932 0.3213212
vt 0.6018685 0.1600121
vt 0.6018685 0.3213212
vt 0.6782932 0.3977459
vt 0.6018685 0.0126812
vt 0.5254286 0.0126812
vt 0.5254286 0.1600121
vt 0.1701849 0.9708477
vt 0.1300851 0.9708477
vt 0.1701849 0.5623295
vt 0.1300851 0.5623295
vt 0.2767944 0.5623295
vt 0.2767944 0.9708477
vt 0.3223521 0.5623295
vt 0.3223521 0.9708477
vt 0.3742924 0.5623295
vt 0.3742924 0.9708477
vt 0.4617692 0.5623295
vt 0.4617692 0.9708477
vt 0.5118902 0.5623295
vt 0.5118902 0.9708477
vt 0.6095852 0.9708477
vt 0.6095852 0.5623295
vt 0.04350275 0.9708477
vt 0.04350275 0.5623295
vt 1.01451 0.01527367
vt 1.323135 0.3238985
vt 1.170286 0.4003384
vt 1.323135 0.4003384
vt 1.399575 0.1626046
vt 1.399575 0.3238985
vt 1.399575 0.01527367
vt 1.476 0.01396986
vt 1.476 0.1613159
vt 1.01451 0.4003384
vt 1.01451 0.476763
vt 1.170286 0.476763
vt 1.986928 0.3977459
vt 1.986928 0.4741857
vt 1.831152 0.3977459
vt 1.831152 0.4741857
vt 1.986928 0.0126812
vt 1.678288 0.3213212
vt 1.601863 0.1600121
vt 1.601863 0.3213212
vt 1.678288 0.3977459
vt 1.601863 0.0126812
vt 1.525439 0.0126812
vt 1.525439 0.1600121
vt 1.17018 0.9708477
vt 1.130095 0.9708477
vt 1.17018 0.5623295
vt 1.130095 0.5623295
vt 1.276789 0.5623295
vt 1.276789 0.9708477
vt 1.322362 0.5623295
vt 1.322362 0.9708477
vt 1.374287 0.5623295
vt 1.374287 0.9708477
vt 1.461764 0.5623295
vt 1.461764 0.9708477
vt 1.511885 0.5623295
vt 1.511885 0.9708477
vt 1.609595 0.9708477
vt 1.609595 0.5623295
vt 1.043497 0.9708477
vt 1.043497 0.5623295
vt 2.014505 0.01527367
vt 2.323145 0.3238985
vt 2.17028 0.4003384
vt 2.323145 0.4003384
vt 2.39957 0.1626046
vt 2.39957 0.3238985
vt 2.39957 0.01527367
vt 2.475994 0.01396986
vt 2.475994 0.1613159
vt 2.014505 0.4003384
vt 2.014505 0.476763
vt 2.17028 0.476763
vt 2.986938 0.3977459
vt 2.986938 0.4741857
vt 2.831162 0.3977459
vt 2.831162 0.4741857
vt 2.986938 0.0126812
vt 2.678298 0.3213212
vt 2.601858 0.1600121
vt 2.601858 0.3213212
vt 2.678298 0.3977459
vt 2.601858 0.0126812
vt 2.525433 0.0126812
vt 2.525433 0.1600121
vt 2.170189 0.9708477
vt 2.13009 0.9708477
vt 2.170189 0.5623295
vt 2.13009 0.5623295
vt 2.276799 0.5623295
vt 2.276799 0.9708477
vt 2.322357 0.5623295
vt 2.322357 0.9708477
vt 2.374297 0.5623295
vt 2.374297 0.9708477
vt 2.461774 0.5623295
vt 2.461774 0.9708477
vt 2.51188 0.5623295
vt 2.51188 0.9708477
vt 2.60959 0.9708477
vt 2.60959 0.5623295
vt 2.043507 0.9708477
vt 2.043507 0.5623295
vt 3.0145 0.01527367
vt 3.32314 0.3238985
vt 3.170275 0.4003384
vt 3.32314 0.4003384
vt 3.399564 0.1626046
vt 3.399564 0.3238985
vt 3.399564 0.01527367
vt 3.476004 0.01396986
vt 3.476004 0.1613159
vt 3.0145 0.4003384
vt 3.0145 0.476763
vt 3.170275 0.476763
vt 3.986932 0.3977459
vt 3.986932 0.4741857
vt 3.831157 0.3977459
vt 3.831157 0.4741857
vt 3.986932 0.0126812
vt 3.678292 0.3213212
vt 3.601868 0.1600121
vt 3.601868 0.3213212
vt 3.678292 0.3977459
vt 3.601868 0.0126812
vt 3.525428 0.0126812
vt 3.525428 0.1600121
vt 3.170184 0.9708477
vt 3.130084 0.9708477
vt 3.170184 0.5623295
vt 3.130084 0.5623295
vt 3.276794 0.5623295
vt 3.276794 0.9708477
vt 3.322351 0.5623295
vt 3.322351 0.9708477
vt 3.374292 0.5623295
vt 3.374292 0.9708477
vt 3.461768 0.5623295
vt 3.461768 0.9708477
vt 3.511889 0.5623295
vt 3.511889 0.9708477
vt 3.609585 0.9708477
vt 3.609585 0.5623295
vt 3.043502 0.5623295
vt 3.043502 0.9708477
vn 0.9999995 0.0009775162 0
vn 0.9999995 0.0009775162 0
vn 0.9999995 0.0009775162 0
vn 0.9999995 0.0009775162 0
vn 0.9999995 0.0009775162 0
vn 0.9999995 0.0009775162 0
vn 0.9999995 0.0009775162 0
vn 0.9999995 0.0009775162 0
vn 0.9999995 0.0009775162 0
vn 0.9999995 0.0009775162 0
vn 0.9999995 0.0009775162 0
vn 0.9999995 0.0009775162 0
vn -0.9999995 0.0009775162 0
vn -0.9999995 0.0009775162 0
vn -0.9999995 0.0009775162 0
vn -0.9999995 0.0009775162 0
vn -0.9999995 0.0009775162 0
vn -0.9999995 0.0009775162 0
vn -0.9999995 0.0009775162 0
vn -0.9999995 0.0009775162 0
vn -0.9999995 0.0009775162 0
vn -0.9999995 0.0009775162 0
vn -0.9999995 0.0009775162 0
vn -0.9999995 0.0009775162 0
vn -0.0009775162 0.4291298 0.9032423
vn -0.0009775162 0.4604104 0.8877056
vn -0.0009775162 0.4291298 0.9032423
vn -0.0009775162 0.4604104 0.8877056
vn -0.0009775162 0.4291298 0.9032423
vn -0.0009775162 0.4291298 0.9032423
vn -0.0009775162 0.7067446 0.7074682
vn -0.0009775162 0.7067446 0.7074682
vn -0.0009775162 0.8944278 0.4472114
vn -0.0009775162 0.8944278 0.4472114
vn -0.0009775162 0.8944278 0.4472114
vn -0.0009775162 0.8944278 0.4472114
vn -0.0009775162 0.8983378 0.4393042
vn -0.0009775162 0.8983378 0.4393042
vn -0.0009775162 0.9999995 0
vn -0.0009775162 0.9999995 0
vn -0.0009775162 0.0009775162 0.999999
vn -0.0009775162 0.0009775162 0.999999
vn 0.9999995 0.0009775162 0
vn 0.9999995 0.0009775162 0
vn 0.9999995 0.0009775162 0
vn 0.9999995 0.0009775162 0
vn 0.9999995 0.0009775162 0
vn 0.9999995 0.0009775162 0
vn 0.9999995 0.0009775162 0
vn 0.9999995 0.0009775162 0
vn 0.9999995 0.0009775162 0
vn 0.9999995 0.0009775162 0
vn 0.9999995 0.0009775162 0
vn 0.9999995 0.0009775162 0
vn -0.9999995 0.0009775162 0
vn -0.9999995 0.0009775162 0
vn -0.9999995 0.0009775162 0
vn -0.9999995 0.0009775162 0
vn -0.9999995 0.0009775162 0
vn -0.9999995 0.0009775162 0
vn -0.9999995 0.0009775162 0
vn -0.9999995 0.0009775162 0
vn -0.9999995 0.0009775162 0
vn -0.9999995 0.0009775162 0
vn -0.9999995 0.0009775162 0
vn -0.9999995 0.0009775162 0
vn -0.0009775162 -0.9042029 0.4271021
vn -0.0009775162 -0.8885626 0.4587543
vn -0.0009775162 -0.9042029 0.4271021
vn -0.0009775162 -0.8885626 0.4587543
vn -0.0009775162 -0.9042029 0.4271021
vn -0.0009775162 -0.9042029 0.4271021
vn -0.0009775162 -0.7067446 0.7074682
vn -0.0009775162 -0.7067446 0.7074682
vn -0.0009775162 -0.4467251 0.8946707
vn -0.0009775162 -0.4467251 0.8946707
vn -0.0009775162 -0.4467251 0.8946707
vn -0.0009775162 -0.4467251 0.8946707
vn -0.0009775162 -0.44086 0.8975753
vn -0.0009775162 -0.44086 0.8975753
vn -0.0009775162 0.0009775162 0.999999
vn -0.0009775162 0.0009775162 0.999999
vn -0.0009775162 -0.9999995 0
vn -0.0009775162 -0.9999995 0
vn 0.9999995 0.0009775162 0
vn 0.9999995 0.0009775162 0
vn 0.9999995 0.0009775162 0
vn 0.9999995 0.0009775162 0
vn 0.9999995 0.0009775162 0
vn 0.9999995 0.0009775162 0
vn 0.9999995 0.0009775162 0
vn 0.9999995 0.0009775162 0
vn 0.9999995 0.0009775162 0
vn 0.9999995 0.0009775162 0
vn 0.9999995 0.0009775162 0
vn 0.9999995 0.0009775162 0
vn -0.9999995 0.0009775162 0
vn -0.9999995 0.0009775162 0
vn -0.9999995 0.0009775162 0
vn -0.9999995 0.0009775162 0
vn -0.9999995 0.0009775162 0
vn -0.9999995 0.0009775162 0
vn -0.9999995 0.0009775162 0
vn -0.9999995 0.0009775162 0
vn -0.9999995 0.0009775162 0
vn -0.9999995 0.0009775162 0
vn -0.9999995 0.0009775162 0
vn -0.9999995 0.0009775162 0
vn -0.0009775162 -0.4291298 -0.9032423
vn -0.0009775162 -0.4604104 -0.8877056
vn -0.0009775162 -0.4291298 -0.9032423
vn -0.0009775162 -0.4604104 -0.8877056
vn -0.0009775162 -0.4291298 -0.9032423
vn -0.0009775162 -0.4291298 -0.9032423
vn -0.0009775162 -0.7067446 -0.7074682
vn -0.0009775162 -0.7067446 -0.7074682
vn -0.0009775162 -0.8944277 -0.4472114
vn -0.0009775162 -0.8944277 -0.4472114
vn -0.0009775162 -0.8944277 -0.4472114
vn -0.0009775162 -0.8944277 -0.4472114
vn -0.0009775162 -0.8983378 -0.4393043
vn -0.0009775162 -0.8983378 -0.4393043
vn -0.0009775162 -0.9999995 0
vn -0.0009775162 -0.9999995 0
vn -0.0009775162 0.0009775162 -0.999999
vn -0.0009775162 0.0009775162 -0.999999
vn 0.9999995 0.0009775162 0
vn 0.9999995 0.0009775162 0
vn 0.9999995 0.0009775162 0
vn 0.9999995 0.0009775162 0
vn 0.9999995 0.0009775162 0
vn 0.9999995 0.0009775162 0
vn 0.9999995 0.0009775162 0
vn 0.9999995 0.0009775162 0
vn 0.9999995 0.0009775162 0
vn 0.9999995 0.0009775162 0
vn 0.9999995 0.0009775162 0
vn 0.9999995 0.0009775162 0
vn -0.9999995 0.0009775162 0
vn -0.9999995 0.0009775162 0
vn -0.9999995 0.0009775162 0
vn -0.9999995 0.0009775162 0
vn -0.9999995 0.0009775162 0
vn -0.9999995 0.0009775162 0
vn -0.9999995 0.0009775162 0
vn -0.9999995 0.0009775162 0
vn -0.9999995 0.0009775162 0
vn -0.9999995 0.0009775162 0
vn -0.9999995 0.0009775162 0
vn -0.9999995 0.0009775162 0
vn -0.0009775162 0.9042029 -0.427102
vn -0.0009775162 0.8885627 -0.4587542
vn -0.0009775162 0.9042029 -0.427102
vn -0.0009775162 0.8885627 -0.4587542
vn -0.0009775162 0.9042029 -0.427102
vn -0.0009775162 0.9042029 -0.427102
vn -0.0009775162 0.7067446 -0.7074682
vn -0.0009775162 0.7067446 -0.7074682
vn -0.0009775162 0.4467251 -0.8946707
vn -0.0009775162 0.4467251 -0.8946707
vn -0.0009775162 0.4467251 -0.8946707
vn -0.0009775162 0.4467251 -0.8946707
vn -0.0009775162 0.44086 -0.8975753
vn -0.0009775162 0.44086 -0.8975753
vn -0.0009775162 0.0009775162 -0.999999
vn -0.0009775162 0.0009775162 -0.999999
vn -0.0009775162 0.9999995 0
vn -0.0009775162 0.9999995 0
g TireK_StdDot_RF_LOD1_0
f 3/3/3 2/2/2 1/1/1
f 3/3/3 4/4/4 2/2/2
f 5/5/5 1/1/1 2/2/2
f 5/5/5 2/2/2 6/6/6
f 7/7/7 1/1/1 5/5/5
f 5/5/5 8/8/8 7/7/7
f 5/5/5 9/9/9 8/8/8
f 1/1/1 10/10/10 3/3/3
f 11/11/11 3/3/3 10/10/10
f 11/11/11 12/12/12 3/3/3
f 15/15/15 14/14/14 13/13/13
f 15/15/15 16/16/16 14/14/14
f 13/13/13 17/17/17 15/15/15
f 18/18/18 15/15/15 17/17/17
f 19/19/19 18/18/18 17/17/17
f 19/19/19 20/20/20 18/18/18
f 18/18/18 21/21/21 15/15/15
f 17/17/17 22/22/22 19/19/19
f 23/23/23 19/19/19 22/22/22
f 23/23/23 24/24/24 19/19/19
f 27/27/27 26/26/26 25/25/25
f 27/27/27 28/28/28 26/26/26
f 29/29/29 27/27/27 25/25/25
f 29/29/29 25/25/25 30/30/30
f 31/31/31 29/29/29 30/30/30
f 31/31/31 30/30/30 32/32/32
f 33/33/33 31/31/31 32/32/32
f 33/33/33 32/32/32 34/34/34
f 35/35/35 33/33/33 34/34/34
f 35/35/35 34/34/34 36/36/36
f 37/37/37 35/35/35 36/36/36
f 37/37/37 36/36/36 38/38/38
f 39/39/39 37/37/37 38/38/38
f 39/39/39 40/40/40 37/37/37
f 41/41/41 26/26/26 28/28/28
f 41/41/41 28/28/28 42/42/42
f 45/45/45 44/44/44 43/43/43
f 45/45/45 46/46/46 44/44/44
f 47/47/47 43/43/43 44/44/44
f 47/47/47 44/44/44 48/48/48
f 49/49/49 43/43/43 47/47/47
f 47/47/47 50/50/50 49/49/49
f 47/47/47 51/51/51 50/50/50
f 43/43/43 52/52/52 45/45/45
f 53/53/53 45/45/45 52/52/52
f 53/53/53 54/54/54 45/45/45
f 57/57/57 56/56/56 55/55/55
f 57/57/57 58/58/58 56/56/56
f 55/55/55 59/59/59 57/57/57
f 60/60/60 57/57/57 59/59/59
f 61/61/61 60/60/60 59/59/59
f 61/61/61 62/62/62 60/60/60
f 60/60/60 63/63/63 57/57/57
f 59/59/59 64/64/64 61/61/61
f 65/65/65 61/61/61 64/64/64
f 65/65/65 66/66/66 61/61/61
f 69/69/69 68/68/68 67/67/67
f 69/69/69 70/70/70 68/68/68
f 71/71/71 69/69/69 67/67/67
f 71/71/71 67/67/67 72/72/72
f 73/73/73 71/71/71 72/72/72
f 73/73/73 72/72/72 74/74/74
f 75/75/75 73/73/73 74/74/74
f 75/75/75 74/74/74 76/76/76
f 77/77/77 75/75/75 76/76/76
f 77/77/77 76/76/76 78/78/78
f 79/79/79 77/77/77 78/78/78
f 79/79/79 78/78/78 80/80/80
f 81/81/81 79/79/79 80/80/80
f 81/81/81 82/82/82 79/79/79
f 83/83/83 68/68/68 70/70/70
f 83/83/83 70/70/70 84/84/84
f 87/87/87 86/86/86 85/85/85
f 87/87/87 88/88/88 86/86/86
f 89/89/89 85/85/85 86/86/86
f 89/89/89 86/86/86 90/90/90
f 91/91/91 85/85/85 89/89/89
f 89/89/89 92/92/92 91/91/91
f 89/89/89 93/93/93 92/92/92
f 85/85/85 94/94/94 87/87/87
f 95/95/95 87/87/87 94/94/94
f 95/95/95 96/96/96 87/87/87
f 99/99/99 98/98/98 97/97/97
f 99/99/99 100/100/100 98/98/98
f 97/97/97 101/101/101 99/99/99
f 102/102/102 99/99/99 101/101/101
f 103/103/103 102/102/102 101/101/101
f 103/103/103 104/104/104 102/102/102
f 102/102/102 105/105/105 99/99/99
f 101/101/101 106/106/106 103/103/103
f 107/107/107 103/103/103 106/106/106
f 107/107/107 108/108/108 103/103/103
f 111/111/111 110/110/110 109/109/109
f 111/111/111 112/112/112 110/110/110
f 113/113/113 111/111/111 109/109/109
f 113/113/113 109/109/109 114/114/114
f 115/115/115 113/113/113 114/114/114
f 115/115/115 114/114/114 116/116/116
f 117/117/117 115/115/115 116/116/116
f 117/117/117 116/116/116 118/118/118
f 119/119/119 117/117/117 118/118/118
f 119/119/119 118/118/118 120/120/120
f 121/121/121 119/119/119 120/120/120
f 121/121/121 120/120/120 122/122/122
f 123/123/123 121/121/121 122/122/122
f 123/123/123 124/124/124 121/121/121
f 125/125/125 110/110/110 112/112/112
f 125/125/125 112/112/112 126/126/126
f 129/129/129 128/128/128 127/127/127
f 129/129/129 130/130/130 128/128/128
f 131/131/131 127/127/127 128/128/128
f 131/131/131 128/128/128 132/132/132
f 133/133/133 127/127/127 131/131/131
f 131/131/131 134/134/134 133/133/133
f 131/131/131 135/135/135 134/134/134
f 127/127/127 136/136/136 129/129/129
f 137/137/137 129/129/129 136/136/136
f 137/137/137 138/138/138 129/129/129
f 141/141/141 140/140/140 139/139/139
f 141/141/141 142/142/142 140/140/140
f 139/139/139 143/143/143 141/141/141
f 144/144/144 141/141/141 143/143/143
f 145/145/145 144/144/144 143/143/143
f 145/145/145 146/146/146 144/144/144
f 144/144/144 147/147/147 141/141/141
f 143/143/143 148/148/148 145/145/145
f 149/149/149 145/145/145 148/148/148
f 149/149/149 150/150/150 145/145/145
f 153/153/153 152/152/152 151/151/151
f 153/153/153 154/154/154 152/152/152
f 155/155/155 153/153/153 151/151/151
f 155/155/155 151/151/151 156/156/156
f 157/157/157 155/155/155 156/156/156
f 157/157/157 156/156/156 158/158/158
f 159/159/159 157/157/157 158/158/158
f 159/159/159 158/158/158 160/160/160
f 161/161/161 159/159/159 160/160/160
f 161/161/161 160/160/160 162/162/162
f 163/163/163 161/161/161 162/162/162
f 163/163/163 162/162/162 164/164/164
f 165/165/165 163/163/163 164/164/164
f 165/165/165 166/166/166 163/163/163
f 152/152/152 154/154/154 167/167/167
f 152/152/152 167/167/167 168/168/168
