g TireK_StdDot_LF_LOD2
v 0.1876096 0.1663478 4.470348E-08
v 0.1876096 4.470348E-08 4.470348E-08
v 0.1876096 0.1387984 0.05615017
v 0.1876096 0.05310774 0.1387984
v 0.1876096 4.470348E-08 0.1663478
v -0.04017073 4.470348E-08 0.1663478
v -0.04017073 4.470348E-08 4.470348E-08
v -0.04017073 0.1663478 4.470348E-08
v -0.04017073 0.1663478 4.470348E-08
v 0.1876096 0.1663478 4.470348E-08
v 0.1876096 0.1387984 0.05615017
v -0.04017073 4.470348E-08 0.1663478
v 0.1876096 0.05310774 0.1387984
v 0.1876096 4.470348E-08 0.1663478
v 0.1876096 4.470348E-08 4.470348E-08
v 0.1876096 -0.05615008 0.1387984
v 0.1876096 4.470348E-08 0.1663478
v 0.1876096 -0.1387983 0.05310774
v 0.1876096 -0.1663477 4.470348E-08
v -0.04017073 4.470348E-08 4.470348E-08
v -0.04017073 4.470348E-08 0.1663478
v -0.04017073 -0.1663477 4.470348E-08
v -0.04017073 4.470348E-08 0.1663478
v 0.1876096 4.470348E-08 0.1663478
v 0.1876096 -0.05615008 0.1387984
v -0.04017073 -0.1663477 4.470348E-08
v 0.1876096 -0.1387983 0.05310774
v 0.1876096 -0.1663477 4.470348E-08
v 0.1876096 4.470348E-08 4.470348E-08
v 0.1876096 -0.1387983 -0.05615008
v 0.1876096 -0.1663477 4.470348E-08
v 0.1876096 -0.05310798 -0.1387983
v 0.1876096 4.470348E-08 -0.1663477
v -0.04017073 4.470348E-08 4.470348E-08
v -0.04017073 -0.1663477 4.470348E-08
v -0.04017073 4.470348E-08 -0.1663477
v -0.04017073 -0.1663477 4.470348E-08
v 0.1876096 -0.1663477 4.470348E-08
v 0.1876096 -0.1387983 -0.05615008
v -0.04017073 4.470348E-08 -0.1663477
v 0.1876096 -0.05310798 -0.1387983
v 0.1876096 4.470348E-08 -0.1663477
v 0.1876096 4.470348E-08 4.470348E-08
v 0.1876096 0.05615017 -0.1387983
v 0.1876096 4.470348E-08 -0.1663477
v 0.1876096 0.1387984 -0.05310798
v 0.1876096 0.1663478 4.470348E-08
v -0.04017073 4.470348E-08 4.470348E-08
v -0.04017073 4.470348E-08 -0.1663477
v -0.04017073 0.1663478 4.470348E-08
v -0.04017073 4.470348E-08 -0.1663477
v 0.1876096 4.470348E-08 -0.1663477
v 0.1876096 0.05615017 -0.1387983
v -0.04017073 0.1663478 4.470348E-08
v 0.1876096 0.1387984 -0.05310798
v 0.1876096 0.1663478 4.470348E-08
vt 0.9869331 0.4741857
vt 0.9869331 0.0126812
vt 0.8311577 0.3977459
vt 0.6018685 0.1600121
vt 0.5254286 0.0126812
vt 0.476005 0.01396986
vt 0.01450048 0.01527367
vt 0.01450048 0.476763
vt 0.6095852 0.9708477
vt 0.6095852 0.5623295
vt 0.4617692 0.5623295
vt 0.04350275 0.9708477
vt 0.1701849 0.5623295
vt 0.04350275 0.5623295
vt 1.986928 0.0126812
vt 1.831152 0.3977459
vt 1.986928 0.4741857
vt 1.601863 0.1600121
vt 1.525439 0.0126812
vt 1.01451 0.01527367
vt 1.01451 0.476763
vt 1.476 0.01396986
vt 1.609595 0.9708477
vt 1.609595 0.5623295
vt 1.461764 0.5623295
vt 1.043497 0.9708477
vt 1.17018 0.5623295
vt 1.043497 0.5623295
vt 2.986938 0.0126812
vt 2.831162 0.3977459
vt 2.986938 0.4741857
vt 2.601858 0.1600121
vt 2.525433 0.0126812
vt 2.014505 0.01527367
vt 2.014505 0.476763
vt 2.475994 0.01396986
vt 2.60959 0.9708477
vt 2.60959 0.5623295
vt 2.461774 0.5623295
vt 2.043507 0.9708477
vt 2.170189 0.5623295
vt 2.043507 0.5623295
vt 3.986932 0.0126812
vt 3.831157 0.3977459
vt 3.986932 0.4741857
vt 3.601868 0.1600121
vt 3.525428 0.0126812
vt 3.0145 0.01527367
vt 3.0145 0.476763
vt 3.476004 0.01396986
vt 3.609585 0.9708477
vt 3.609585 0.5623295
vt 3.461768 0.5623295
vt 3.043502 0.9708477
vt 3.170184 0.5623295
vt 3.043502 0.5623295
vn 0.9999995 0.0009775162 0
vn 0.9999995 0.0009775162 0
vn 0.9999995 0.0009775162 0
vn 0.9999995 0.0009775162 0
vn 0.9999995 0.0009775162 0
vn -0.9999995 0.0009775162 0
vn -0.9999995 0.0009775162 0
vn -0.9999995 0.0009775162 0
vn -0.1143694 0.9902244 0.07984593
vn -0.0009775162 0.9999995 0
vn -0.06744862 0.7478002 0.6604888
vn -0.1143694 -0.07526881 0.9905828
vn -0.05571842 0.6363634 0.7693745
vn -0.0009775162 0.0009775162 0.999999
vn 0.9999995 0.0009775162 0
vn 0.9999995 0.0009775162 0
vn 0.9999995 0.0009775162 0
vn 0.9999995 0.0009775162 0
vn 0.9999995 0.0009775162 0
vn -0.9999995 0.0009775162 0
vn -0.9999995 0.0009775162 0
vn -0.9999995 0.0009775162 0
vn -0.1143694 -0.07526881 0.9905828
vn -0.0009775162 0.0009775162 0.999999
vn -0.06744862 -0.6617788 0.7466589
vn -0.1143694 -0.9902244 -0.07984593
vn -0.05571842 -0.7693056 0.6364467
vn -0.0009775162 -0.9999995 0
vn 0.9999995 0.0009775162 0
vn 0.9999995 0.0009775162 0
vn 0.9999995 0.0009775162 0
vn 0.9999995 0.0009775162 0
vn 0.9999995 0.0009775162 0
vn -0.9999995 0.0009775162 0
vn -0.9999995 0.0009775162 0
vn -0.9999995 0.0009775162 0
vn -0.1143694 -0.9902244 -0.07984593
vn -0.0009775162 -0.9999995 0
vn -0.06744862 -0.7478002 -0.6604888
vn -0.1143694 0.07526875 -0.9905828
vn -0.05571842 -0.6363633 -0.7693745
vn -0.0009775162 0.0009775162 -0.999999
vn 0.9999995 0.0009775162 0
vn 0.9999995 0.0009775162 0
vn 0.9999995 0.0009775162 0
vn 0.9999995 0.0009775162 0
vn 0.9999995 0.0009775162 0
vn -0.9999995 0.0009775162 0
vn -0.9999995 0.0009775162 0
vn -0.9999995 0.0009775162 0
vn -0.1143694 0.07526875 -0.9905828
vn -0.0009775162 0.0009775162 -0.999999
vn -0.06744862 0.6617788 -0.7466589
vn -0.1143694 0.9902244 0.07984593
vn -0.05571842 0.7693056 -0.6364467
vn -0.0009775162 0.9999995 0
g TireK_StdDot_LF_LOD2_0
f 3/3/3 2/2/2 1/1/1
f 2/2/2 3/3/3 4/4/4
f 5/5/5 2/2/2 4/4/4
f 8/8/8 7/7/7 6/6/6
f 11/11/11 10/10/10 9/9/9
f 11/11/11 9/9/9 12/12/12
f 11/11/11 12/12/12 13/13/13
f 12/12/12 14/14/14 13/13/13
f 17/17/17 16/16/16 15/15/15
f 15/15/15 16/16/16 18/18/18
f 19/19/19 15/15/15 18/18/18
f 22/22/22 21/21/21 20/20/20
f 25/25/25 24/24/24 23/23/23
f 25/25/25 23/23/23 26/26/26
f 25/25/25 26/26/26 27/27/27
f 26/26/26 28/28/28 27/27/27
f 31/31/31 30/30/30 29/29/29
f 29/29/29 30/30/30 32/32/32
f 33/33/33 29/29/29 32/32/32
f 36/36/36 35/35/35 34/34/34
f 39/39/39 38/38/38 37/37/37
f 39/39/39 37/37/37 40/40/40
f 39/39/39 40/40/40 41/41/41
f 40/40/40 42/42/42 41/41/41
f 45/45/45 44/44/44 43/43/43
f 43/43/43 44/44/44 46/46/46
f 47/47/47 43/43/43 46/46/46
f 50/50/50 49/49/49 48/48/48
f 53/53/53 52/52/52 51/51/51
f 53/53/53 51/51/51 54/54/54
f 53/53/53 54/54/54 55/55/55
f 54/54/54 56/56/56 55/55/55
