g Tire_Front_LOD1
v -2.866638 0.7262721 0.5276654
v -2.866638 0.8977213 -2.384186E-06
v -1.901055 0.8977213 -2.384186E-06
v -1.901055 0.7262721 0.5276654
v -1.901055 0.7262721 0.5276654
v -1.901055 0.2774131 0.8537803
v -2.866638 0.2774131 0.8537803
v -2.866638 0.7262721 0.5276654
v -2.866638 -0.2774122 0.8537803
v -1.901055 -0.2774122 0.8537803
v -2.866638 -0.7262712 0.5276654
v -1.901055 -0.7262712 0.5276654
v -2.866638 -0.8977206 -2.384186E-06
v -1.901055 -0.8977206 -2.384186E-06
v -2.866638 -0.7262712 -0.5276701
v -1.901055 -0.7262712 -0.5276701
v -2.866638 -0.2774122 -0.853785
v -1.901055 -0.2774122 -0.853785
v -2.866638 0.2774131 -0.853785
v -1.901055 0.2774131 -0.853785
v -2.866638 0.7262721 -0.5276701
v -1.901055 0.7262721 -0.5276701
v -2.866638 0.8977213 -2.384186E-06
v -1.901055 0.8977213 -2.384186E-06
v -3.016603 -2.384186E-06 -2.384186E-06
v -2.866638 0.8977213 -2.384186E-06
v -2.866638 0.7262721 0.5276654
v -2.866638 0.2774131 0.8537803
v -2.866638 -0.2774122 0.8537803
v -2.866638 -0.7262712 0.5276654
v -2.866638 -0.8977206 -2.384186E-06
v -2.866638 -0.7262712 -0.5276701
v -2.866638 -0.2774122 -0.853785
v -2.866638 0.2774131 -0.853785
v -2.866638 0.7262721 -0.5276701
v -1.901055 0.8977213 -2.384186E-06
v -1.901055 -2.384186E-06 -2.384186E-06
v -1.901055 0.7262721 0.5276654
v -1.901055 0.2774131 0.8537803
v -1.901055 -0.2774122 0.8537803
v -1.901055 -0.7262712 0.5276654
v -1.901055 -0.8977206 -2.384186E-06
v -1.901055 -0.7262712 -0.5276701
v -1.901055 -0.2774122 -0.853785
v -1.901055 0.2774131 -0.853785
v -1.901055 0.7262721 -0.5276701
v 1.901054 0.7262721 0.5276654
v 1.901054 0.8977213 -2.384186E-06
v 2.866637 0.8977213 -2.384186E-06
v 2.866637 0.7262721 0.5276654
v 2.866637 0.7262721 0.5276654
v 2.866637 0.2774131 0.853786
v 1.901054 0.2774131 0.853786
v 1.901054 0.7262721 0.5276654
v 1.901054 -0.2774122 0.853786
v 2.866637 -0.2774122 0.853786
v 1.901054 -0.7262712 0.5276654
v 2.866637 -0.7262712 0.5276654
v 1.901054 -0.8977206 -2.384186E-06
v 2.866637 -0.8977206 -2.384186E-06
v 1.901054 -0.7262712 -0.5276644
v 2.866637 -0.7262712 -0.5276644
v 1.901054 -0.2774122 -0.853785
v 2.866637 -0.2774122 -0.853785
v 1.901054 0.2774131 -0.8537793
v 2.866637 0.2774131 -0.8537793
v 1.901054 0.7262721 -0.5276644
v 2.866637 0.7262721 -0.5276644
v 1.901054 0.8977213 -2.384186E-06
v 2.866637 0.8977213 -2.384186E-06
v 2.866637 0.8977213 -2.384186E-06
v 3.016602 -2.384186E-06 -2.384186E-06
v 2.866637 0.7262721 0.5276654
v 2.866637 0.2774131 0.853786
v 2.866637 -0.2774122 0.853786
v 2.866637 -0.7262712 0.5276654
v 2.866637 -0.8977206 -2.384186E-06
v 2.866637 -0.7262712 -0.5276644
v 2.866637 -0.2774122 -0.853785
v 2.866637 0.2774131 -0.8537793
v 2.866637 0.7262721 -0.5276644
v 1.901054 -2.384186E-06 -2.384186E-06
v 1.901054 0.8977213 -2.384186E-06
v 1.901054 0.7262721 0.5276654
v 1.901054 0.2774131 0.853786
v 1.901054 -0.2774122 0.853786
v 1.901054 -0.7262712 0.5276654
v 1.901054 -0.8977206 -2.384186E-06
v 1.901054 -0.7262712 -0.5276644
v 1.901054 -0.2774122 -0.853785
v 1.901054 0.2774131 -0.8537793
v 1.901054 0.7262721 -0.5276644
vt 0.8790651 0.9652662
vt 0.8790651 0.4094805
vt 0.9342761 0.4094805
vt 0.9342761 0.9652662
vt 0.9342761 0.9652662
vt 0.9342761 0.9035107
vt 0.8790651 0.9035107
vt 0.8790651 0.9652662
vt 0.8790651 0.8417553
vt 0.9342761 0.8417553
vt 0.8790651 0.7799999
vt 0.9342761 0.7799999
vt 0.8790651 0.7182444
vt 0.9342761 0.7182444
vt 0.8790651 0.656489
vt 0.9342761 0.656489
vt 0.8790651 0.5947336
vt 0.9342761 0.5947336
vt 0.8790651 0.5329914
vt 0.9342761 0.5329914
vt 0.8790651 0.471236
vt 0.9342761 0.471236
vt 0.8790651 0.4094805
vt 0.9342761 0.4094805
vt 0.9376871 0.2498498
vt 0.9376871 0.368892
vt 0.97267 0.3461518
vt 0.9942996 0.2866307
vt 0.9942996 0.2130689
vt 0.97267 0.1535478
vt 0.9376871 0.1308076
vt 0.9027043 0.1535478
vt 0.8810747 0.2130689
vt 0.8810747 0.2866307
vt 0.9027043 0.3461518
vt 0.9689416 0.4969112
vt 0.9689416 0.4373901
vt 0.986433 0.4855411
vt 0.9972479 0.4557806
vt 0.9972479 0.4189997
vt 0.986433 0.3892391
vt 0.9689416 0.377869
vt 0.9514502 0.3892391
vt 0.9406354 0.4189997
vt 0.9406354 0.4557806
vt 0.9514502 0.4855411
vt 0.9342761 0.9652662
vt 0.9342761 0.4094805
vt 0.8790651 0.4094805
vt 0.8790651 0.9652662
vt 0.8790651 0.9652662
vt 0.8790651 0.9035107
vt 0.9342761 0.9035107
vt 0.9342761 0.9652662
vt 0.9342761 0.8417553
vt 0.8790651 0.8417553
vt 0.9342761 0.7799999
vt 0.8790651 0.7799999
vt 0.9342761 0.7182444
vt 0.8790651 0.7182444
vt 0.9342761 0.656489
vt 0.8790651 0.656489
vt 0.9342761 0.5947336
vt 0.8790651 0.5947336
vt 0.9342761 0.5329914
vt 0.8790651 0.5329914
vt 0.9342761 0.471236
vt 0.8790651 0.471236
vt 0.9342761 0.4094805
vt 0.8790651 0.4094805
vt 0.9376871 0.368892
vt 0.9376871 0.2498498
vt 0.9027043 0.3461518
vt 0.8810747 0.2866307
vt 0.8810747 0.2130689
vt 0.9027043 0.1535478
vt 0.9376871 0.1308076
vt 0.97267 0.1535478
vt 0.9942996 0.2130689
vt 0.9942996 0.2866307
vt 0.97267 0.3461518
vt 0.9689416 0.4373901
vt 0.9689416 0.4969112
vt 0.986433 0.4855411
vt 0.9972479 0.4557806
vt 0.9972479 0.4189997
vt 0.986433 0.3892391
vt 0.9689416 0.377869
vt 0.9514502 0.3892391
vt 0.9406354 0.4189997
vt 0.9406354 0.4557806
vt 0.9514502 0.4855411
vn -0.3743888 0.7536653 0.5402051
vn -0.3742529 0.9273267 0
vn 0.3861191 0.9217982 -0.03464303
vn 0.3861191 0.7458452 0.5427955
vn 0.3861191 0.7458452 0.5427955
vn 0.3861191 0.2844573 0.8774942
vn -0.3646137 0.2883674 0.8853819
vn -0.3743888 0.7536653 0.5402051
vn -0.3646137 -0.2883674 0.8853819
vn 0.3861191 -0.2844573 0.8774942
vn -0.3646137 -0.7536653 0.5468505
vn 0.3861191 -0.7458452 0.5427955
vn -0.364473 -0.9312139 0
vn 0.3861191 -0.9217982 -0.03464389
vn -0.3646137 -0.7536653 -0.5468505
vn 0.3861191 -0.7458452 -0.5427955
vn -0.3646137 -0.2883674 -0.8853819
vn 0.3861191 -0.2844573 -0.8774942
vn -0.3646137 0.2883674 -0.8853819
vn 0.3861191 0.2844573 -0.8774942
vn -0.3646137 0.7536653 -0.5468505
vn 0.3861191 0.7458452 -0.5427955
vn -0.3742529 0.9273267 0
vn 0.3861191 0.9217982 -0.03464303
vn -0.9999995 0.0009775162 0
vn -0.3742529 0.9273267 0
vn -0.3743888 0.7536653 0.5402051
vn -0.3646137 0.2883674 0.8853819
vn -0.3646137 -0.2883674 0.8853819
vn -0.3646137 -0.7536653 0.5468505
vn -0.364473 -0.9312139 0
vn -0.3646137 -0.7536653 -0.5468505
vn -0.3646137 -0.2883674 -0.8853819
vn -0.3646137 0.2883674 -0.8853819
vn -0.3646137 0.7536653 -0.5468505
vn 0.3861191 0.9217982 -0.03464303
vn 0.9999995 0.0009775162 0
vn 0.3861191 0.7458452 0.5427955
vn 0.3861191 0.2844573 0.8774942
vn 0.3861191 -0.2844573 0.8774942
vn 0.3861191 -0.7458452 0.5427955
vn 0.3861191 -0.9217982 -0.03464389
vn 0.3861191 -0.7458452 -0.5427955
vn 0.3861191 -0.2844573 -0.8774942
vn 0.3861191 0.2844573 -0.8774942
vn 0.3861191 0.7458452 -0.5427955
vn -0.3861191 0.7458452 0.5427955
vn -0.3861191 0.9217982 -0.03464217
vn 0.374253 0.9273267 0
vn 0.3743889 0.7536653 0.5402051
vn 0.3743889 0.7536653 0.5402051
vn 0.3646137 0.2883674 0.8853819
vn -0.3861191 0.2844573 0.8774942
vn -0.3861191 0.7458452 0.5427955
vn -0.3861191 -0.2844573 0.8774942
vn 0.3646137 -0.2883674 0.8853819
vn -0.3861191 -0.7458452 0.5427955
vn 0.3646137 -0.7536653 0.5468505
vn -0.3861191 -0.9217982 -0.03464303
vn 0.364473 -0.9312139 0
vn -0.3861191 -0.7458452 -0.5427955
vn 0.3646137 -0.7536653 -0.5468505
vn -0.3861191 -0.2844573 -0.8774942
vn 0.3646137 -0.2883674 -0.8853819
vn -0.3861191 0.2844573 -0.8774942
vn 0.3646137 0.2883674 -0.8853819
vn -0.3861191 0.7458452 -0.5427955
vn 0.3646137 0.7536653 -0.5468505
vn -0.3861191 0.9217982 -0.03464217
vn 0.374253 0.9273267 0
vn 0.374253 0.9273267 0
vn 0.9999995 0.0009775162 0
vn 0.3743889 0.7536653 0.5402051
vn 0.3646137 0.2883674 0.8853819
vn 0.3646137 -0.2883674 0.8853819
vn 0.3646137 -0.7536653 0.5468505
vn 0.364473 -0.9312139 0
vn 0.3646137 -0.7536653 -0.5468505
vn 0.3646137 -0.2883674 -0.8853819
vn 0.3646137 0.2883674 -0.8853819
vn 0.3646137 0.7536653 -0.5468505
vn -0.9999995 0.0009775162 0
vn -0.3861191 0.9217982 -0.03464217
vn -0.3861191 0.7458452 0.5427955
vn -0.3861191 0.2844573 0.8774942
vn -0.3861191 -0.2844573 0.8774942
vn -0.3861191 -0.7458452 0.5427955
vn -0.3861191 -0.9217982 -0.03464303
vn -0.3861191 -0.7458452 -0.5427955
vn -0.3861191 -0.2844573 -0.8774942
vn -0.3861191 0.2844573 -0.8774942
vn -0.3861191 0.7458452 -0.5427955
g Tire_Front_LOD1_0
f 3/3/3 2/2/2 1/1/1
f 4/4/4 3/3/3 1/1/1
f 7/7/7 6/6/6 5/5/5
f 8/8/8 7/7/7 5/5/5
f 7/7/7 9/9/9 6/6/6
f 9/9/9 10/10/10 6/6/6
f 9/9/9 11/11/11 10/10/10
f 11/11/11 12/12/12 10/10/10
f 11/11/11 13/13/13 12/12/12
f 13/13/13 14/14/14 12/12/12
f 13/13/13 15/15/15 14/14/14
f 15/15/15 16/16/16 14/14/14
f 15/15/15 17/17/17 16/16/16
f 17/17/17 18/18/18 16/16/16
f 17/17/17 19/19/19 18/18/18
f 19/19/19 20/20/20 18/18/18
f 19/19/19 21/21/21 20/20/20
f 21/21/21 22/22/22 20/20/20
f 21/21/21 23/23/23 22/22/22
f 23/23/23 24/24/24 22/22/22
f 27/27/27 26/26/26 25/25/25
f 27/27/27 25/25/25 28/28/28
f 28/28/28 25/25/25 29/29/29
f 29/29/29 25/25/25 30/30/30
f 30/30/30 25/25/25 31/31/31
f 31/31/31 25/25/25 32/32/32
f 32/32/32 25/25/25 33/33/33
f 33/33/33 25/25/25 34/34/34
f 34/34/34 25/25/25 35/35/35
f 35/35/35 25/25/25 26/26/26
f 38/38/38 37/37/37 36/36/36
f 38/38/38 39/39/39 37/37/37
f 39/39/39 40/40/40 37/37/37
f 40/40/40 41/41/41 37/37/37
f 41/41/41 42/42/42 37/37/37
f 42/42/42 43/43/43 37/37/37
f 43/43/43 44/44/44 37/37/37
f 44/44/44 45/45/45 37/37/37
f 45/45/45 46/46/46 37/37/37
f 46/46/46 36/36/36 37/37/37
f 49/49/49 48/48/48 47/47/47
f 50/50/50 49/49/49 47/47/47
f 53/53/53 52/52/52 51/51/51
f 54/54/54 53/53/53 51/51/51
f 53/53/53 55/55/55 52/52/52
f 55/55/55 56/56/56 52/52/52
f 55/55/55 57/57/57 56/56/56
f 57/57/57 58/58/58 56/56/56
f 57/57/57 59/59/59 58/58/58
f 59/59/59 60/60/60 58/58/58
f 59/59/59 61/61/61 60/60/60
f 61/61/61 62/62/62 60/60/60
f 61/61/61 63/63/63 62/62/62
f 63/63/63 64/64/64 62/62/62
f 63/63/63 65/65/65 64/64/64
f 65/65/65 66/66/66 64/64/64
f 65/65/65 67/67/67 66/66/66
f 67/67/67 68/68/68 66/66/66
f 67/67/67 69/69/69 68/68/68
f 69/69/69 70/70/70 68/68/68
f 73/73/73 72/72/72 71/71/71
f 73/73/73 74/74/74 72/72/72
f 74/74/74 75/75/75 72/72/72
f 75/75/75 76/76/76 72/72/72
f 76/76/76 77/77/77 72/72/72
f 77/77/77 78/78/78 72/72/72
f 78/78/78 79/79/79 72/72/72
f 79/79/79 80/80/80 72/72/72
f 80/80/80 81/81/81 72/72/72
f 81/81/81 71/71/71 72/72/72
f 84/84/84 83/83/83 82/82/82
f 84/84/84 82/82/82 85/85/85
f 85/85/85 82/82/82 86/86/86
f 86/86/86 82/82/82 87/87/87
f 87/87/87 82/82/82 88/88/88
f 88/88/88 82/82/82 89/89/89
f 89/89/89 82/82/82 90/90/90
f 90/90/90 82/82/82 91/91/91
f 91/91/91 82/82/82 92/92/92
f 92/92/92 82/82/82 83/83/83
