g TireK_YoshiB_LF_LOD1
v 0.1517994 -0.01440012 -0.02494152
v 0.1528463 -0.02887234 2.235174E-07
v 0.1541912 2.235174E-07 2.235174E-07
v 0.1517994 -0.01440012 0.0249415
v 0.1528463 0.01443627 -0.02500424
v 0.1517994 0.02879998 2.235174E-07
v 0.1528463 0.01443627 0.02500421
v 0.01984432 0.1941641 0.1410685
v 0.01984432 0.24 2.235174E-07
v 0.124253 0.1941641 0.1410685
v 0.124253 0.24 2.235174E-07
v 0.01984432 0.1410685 0.1941641
v 0.124253 0.1410685 0.1941641
v 0.124253 2.235174E-07 0.24
v 0.01984432 2.235174E-07 0.24
v 0.124253 0.1941641 0.1410685
v 0.124253 0.24 2.235174E-07
v 0.1393537 0.1149411 0.08350968
v 0.1393537 0.1420751 -2.384186E-07
v 0.124253 0.1410685 0.1941641
v 0.1393537 0.08350968 0.1149411
v 0.124253 2.235174E-07 0.24
v 0.1393537 2.235174E-07 0.1420751
v 0.01656535 2.235174E-07 2.235174E-07
v -0.009848103 0.1106537 -2.384186E-07
v -0.009848103 0.08952102 0.06504071
v -0.009848103 0.06504071 0.08952102
v -0.009848103 2.235174E-07 0.1106537
v 0.01984432 0.24 2.235174E-07
v 0.01984432 0.1941641 0.1410685
v 0.01984432 2.235174E-07 0.24
v 0.01984432 0.1410685 0.1941641
v 0.01984432 -0.1410685 0.1941641
v 0.01984432 2.235174E-07 0.24
v 0.124253 -0.1410685 0.1941641
v 0.124253 2.235174E-07 0.24
v 0.01984432 -0.1941641 0.1410685
v 0.124253 -0.1941641 0.1410685
v 0.124253 -0.24 2.235174E-07
v 0.01984432 -0.24 2.235174E-07
v 0.124253 -0.1410685 0.1941641
v 0.124253 2.235174E-07 0.24
v 0.1393537 -0.0835097 0.1149411
v 0.1393537 2.235174E-07 0.1420751
v 0.124253 -0.1941641 0.1410685
v 0.1393537 -0.1149412 0.08350968
v 0.124253 -0.24 2.235174E-07
v 0.1393537 -0.1420751 2.235174E-07
v 0.01656535 2.235174E-07 2.235174E-07
v -0.009848103 2.235174E-07 0.1106537
v -0.009848103 -0.06504075 0.08952102
v -0.009848103 -0.0895206 0.06504071
v -0.009848103 -0.1106537 2.235174E-07
v 0.01984432 -0.1410685 0.1941641
v 0.01984432 2.235174E-07 0.24
v 0.01984432 -0.24 2.235174E-07
v 0.01984432 -0.1941641 0.1410685
v 0.01984432 -0.1941641 -0.1410685
v 0.01984432 -0.24 2.235174E-07
v 0.124253 -0.1941641 -0.1410685
v 0.124253 -0.24 2.235174E-07
v 0.01984432 -0.1410685 -0.1941641
v 0.124253 -0.1410685 -0.1941641
v 0.124253 2.235174E-07 -0.24
v 0.01984432 2.235174E-07 -0.24
v 0.124253 -0.1941641 -0.1410685
v 0.124253 -0.24 2.235174E-07
v 0.1393537 -0.1149412 -0.0835097
v 0.1393537 -0.1420751 2.235174E-07
v 0.124253 -0.1410685 -0.1941641
v 0.1393537 -0.0835097 -0.1149412
v 0.124253 2.235174E-07 -0.24
v 0.1393537 -2.384186E-07 -0.1420751
v 0.01656535 2.235174E-07 2.235174E-07
v -0.009848103 -0.1106537 2.235174E-07
v -0.009848103 -0.08952105 -0.06504075
v -0.009848103 -0.06504075 -0.0895206
v -0.009848103 -2.384186E-07 -0.1106537
v 0.01984432 -0.1941641 -0.1410685
v 0.01984432 -0.24 2.235174E-07
v 0.01984432 2.235174E-07 -0.24
v 0.01984432 -0.1410685 -0.1941641
v 0.01984432 0.1410685 -0.1941641
v 0.01984432 2.235174E-07 -0.24
v 0.124253 0.1410685 -0.1941641
v 0.124253 2.235174E-07 -0.24
v 0.01984432 0.1941641 -0.1410685
v 0.124253 0.1941641 -0.1410685
v 0.124253 0.24 2.235174E-07
v 0.01984432 0.24 2.235174E-07
v 0.124253 0.1410685 -0.1941641
v 0.124253 2.235174E-07 -0.24
v 0.1393537 0.08350968 -0.1149412
v 0.1393537 -2.384186E-07 -0.1420751
v 0.124253 0.1941641 -0.1410685
v 0.1393537 0.1149411 -0.0835097
v 0.1393537 0.1420751 -2.384186E-07
v 0.124253 0.24 2.235174E-07
v 0.01656535 2.235174E-07 2.235174E-07
v -0.009848103 -2.384186E-07 -0.1106537
v -0.009848103 0.06504071 -0.08952105
v -0.009848103 0.08952102 -0.06504075
v -0.009848103 0.1106537 -2.384186E-07
v 0.01984432 0.1410685 -0.1941641
v 0.01984432 2.235174E-07 -0.24
v 0.01984432 0.24 2.235174E-07
v 0.01984432 0.1941641 -0.1410685
v 0.127532 2.235174E-07 2.235174E-07
v 0.127532 0.06869048 0.05763823
v 0.127532 0.08966935 -2.384186E-07
v 0.127532 0.01557106 0.08830705
v 0.127532 -0.04483458 0.07765579
v 0.1548275 0.08076081 0.06776625
v 0.139459 0.1152103 0.09667268
v 0.1548275 0.1054256 -2.384186E-07
v 0.139459 0.1503963 -2.384186E-07
v 0.139459 0.02611613 0.1481116
v 0.1548275 0.01830712 0.1038239
v 0.139459 -0.07519807 0.1302469
v 0.1548275 -0.05271269 0.09130129
v 0.127532 0.01557106 0.08830705
v 0.127532 -0.04483458 0.07765579
v 0.127532 0.06869048 0.05763823
v 0.127532 0.08966935 -2.384186E-07
v 0.1460142 0.05683714 0.09844515
v 0.143203 0.08521211 0.08176193
v 0.1528463 0.01443627 0.02500421
v 0.1517994 0.02879998 2.235174E-07
v 0.143203 0.02820215 0.114677
v 0.1517994 -0.01440012 0.0249415
v 0.127532 2.235174E-07 2.235174E-07
v 0.127532 -0.0842618 0.03066859
v 0.127532 -0.04483458 0.07765579
v 0.127532 -0.0842618 -0.0306686
v 0.127532 -0.04483458 -0.07765581
v 0.1548275 -0.09906773 0.03605783
v 0.139459 -0.1413262 0.05143872
v 0.1548275 -0.05271269 0.09130129
v 0.139459 -0.07519807 0.1302469
v 0.139459 -0.1413262 -0.05143875
v 0.1548275 -0.09906773 -0.03605786
v 0.139459 -0.07519807 -0.130247
v 0.1548275 -0.05271269 -0.09130131
v 0.127532 -0.0842618 -0.0306686
v 0.127532 -0.04483458 -0.07765581
v 0.127532 -0.0842618 0.03066859
v 0.127532 -0.04483458 0.07765579
v 0.1460142 -0.1136745 2.235174E-07
v 0.143203 -0.1134141 0.03291485
v 0.1528463 -0.02887234 2.235174E-07
v 0.1517994 -0.01440012 0.0249415
v 0.143203 -0.1134141 -0.03291486
v 0.1517994 -0.01440012 -0.02494152
v 0.127532 -0.04483458 -0.07765581
v 0.127532 2.235174E-07 2.235174E-07
v 0.127532 -0.01557109 -0.08830707
v 0.127532 0.01557106 -0.08830707
v 0.127532 0.06869048 -0.05763824
v 0.127532 0.08966935 -2.384186E-07
v 0.139459 -0.07519807 -0.130247
v 0.1548275 -0.05271269 -0.09130131
v 0.139459 0.02611613 -0.1481112
v 0.1548275 -0.01830715 -0.1038239
v 0.1548275 0.01830712 -0.1038239
v 0.139459 0.1152103 -0.09667271
v 0.1548275 0.08076081 -0.06776628
v 0.139459 0.1503963 -2.384186E-07
v 0.1548275 0.1054256 -2.384186E-07
v 0.127532 0.06869048 -0.05763824
v 0.127532 0.08966935 -2.384186E-07
v 0.127532 0.01557106 -0.08830707
v 0.127532 -0.01557109 -0.08830707
v 0.127532 -0.04483458 -0.07765581
v 0.1460142 0.05683714 -0.09844518
v 0.143203 0.02820215 -0.114677
v 0.1528463 0.01443627 -0.02500424
v 0.1517994 -0.01440012 -0.02494152
v 0.143203 0.08521211 -0.08176242
v 0.1517994 0.02879998 2.235174E-07
vt 0.3147418 0.5314726
vt 0.243895 0.4903644
vt 0.243895 0.5723706
vt 0.1730482 0.5314726
vt 0.314907 0.6133738
vt 0.243895 0.6541816
vt 0.172868 0.6133738
vt 0.5879908 0.9599928
vt 0.9572443 0.9599928
vt 0.5879908 0.683064
vt 0.9572443 0.683064
vt 0.4033716 0.9599928
vt 0.4033716 0.683064
vt 0.03411823 0.683064
vt 0.03411823 0.9599928
vt 0.4083281 1.302136
vt 0.5000069 1.019996
vt 0.2563161 1.191698
vt 0.3121134 1.019996
vt 0.3021405 1.408324
vt 0.1917024 1.256327
vt 0.01999994 1.500003
vt 0.01999994 1.312109
vt 0.01999994 0.01999994
vt 0.01999994 0.2413117
vt 0.1500835 0.1990469
vt 0.1990469 0.1500835
vt 0.2413117 0.01999994
vt 0.01999994 0.5000069
vt 0.3021405 0.4083281
vt 0.5000069 0.01999994
vt 0.4083281 0.3021405
vt 1.588002 0.9599928
vt 1.95724 0.9599928
vt 1.588002 0.683064
vt 1.95724 0.683064
vt 1.403367 0.9599928
vt 1.403367 0.683064
vt 1.034114 0.683064
vt 1.034114 0.9599928
vt 1.408324 1.302136
vt 1.500003 1.019996
vt 1.256327 1.191698
vt 1.312109 1.019996
vt 1.302136 1.408324
vt 1.191698 1.256327
vt 1.019996 1.500003
vt 1.019996 1.312109
vt 1.019996 0.01999994
vt 1.019996 0.2413117
vt 1.150079 0.1990469
vt 1.199043 0.1500835
vt 1.241307 0.01999994
vt 1.302136 0.4083281
vt 1.019996 0.5000069
vt 1.500003 0.01999994
vt 1.408324 0.3021405
vt 2.587997 0.9599928
vt 2.957251 0.9599928
vt 2.587997 0.683064
vt 2.957251 0.683064
vt 2.403378 0.9599928
vt 2.403378 0.683064
vt 2.034125 0.683064
vt 2.034125 0.9599928
vt 2.408334 1.302136
vt 2.499998 1.019996
vt 2.256323 1.191698
vt 2.312105 1.019996
vt 2.302132 1.408324
vt 2.191694 1.256327
vt 2.020006 1.500003
vt 2.020006 1.312109
vt 2.020006 0.01999994
vt 2.020006 0.2413117
vt 2.150075 0.1990469
vt 2.199038 0.1500835
vt 2.241303 0.01999994
vt 2.302132 0.4083281
vt 2.020006 0.5000069
vt 2.499998 0.01999994
vt 2.408334 0.3021405
vt 3.587993 0.9599928
vt 3.957246 0.9599928
vt 3.587993 0.683064
vt 3.957246 0.683064
vt 3.403374 0.9599928
vt 3.403374 0.683064
vt 3.03412 0.683064
vt 3.03412 0.9599928
vt 3.40833 1.302136
vt 3.499994 1.019996
vt 3.256318 1.191698
vt 3.312115 1.019996
vt 3.302143 1.408324
vt 3.191705 1.256327
vt 3.020002 1.312109
vt 3.020002 1.500003
vt 3.020002 0.01999994
vt 3.020002 0.2413117
vt 3.150085 0.1990469
vt 3.199049 0.1500835
vt 3.241314 0.01999994
vt 3.302143 0.4083281
vt 3.020002 0.5000069
vt 3.499994 0.01999994
vt 3.40833 0.3021405
vt 0.9699958 0.2319996
vt 0.8148598 0.4168892
vt 0.9699958 0.4733623
vt 0.7323129 0.2739189
vt 0.76097 0.1113183
vt 0.7875994 0.4493763
vt 0.7097837 0.5421064
vt 0.9699958 0.5157773
vt 0.9699958 0.6368191
vt 0.5713342 0.3022907
vt 0.6905437 0.2812785
vt 0.6194115 0.02959737
vt 0.7242474 0.09011078
vt 0.7323129 0.2739189
vt 0.76097 0.1113183
vt 0.8148598 0.4168892
vt 0.9699958 0.4733623
vt 0.4747742 0.6301655
vt 0.5561947 0.6295347
vt 0.4747742 0.4203887
vt 0.5364741 0.3845823
vt 0.3933537 0.6295347
vt 0.4130743 0.3845823
vt 1.970007 0.2319996
vt 1.814855 0.4168892
vt 1.970007 0.4733623
vt 1.732309 0.2739189
vt 1.760981 0.1113183
vt 1.787595 0.4493763
vt 1.709794 0.5421064
vt 1.970007 0.5157773
vt 1.970007 0.6368191
vt 1.57133 0.3022907
vt 1.690539 0.2812785
vt 1.619422 0.02959737
vt 1.724243 0.09011078
vt 1.732309 0.2739189
vt 1.760981 0.1113183
vt 1.814855 0.4168892
vt 1.970007 0.4733623
vt 1.474785 0.6301655
vt 1.556205 0.6295347
vt 1.474785 0.4203887
vt 1.536485 0.3845823
vt 1.393349 0.6295347
vt 1.41307 0.3845823
vt 2.970002 0.4733623
vt 2.970002 0.2319996
vt 2.887455 0.4588085
vt 2.814851 0.4168892
vt 2.732304 0.2739189
vt 2.760976 0.1113183
vt 2.970002 0.6368191
vt 2.970002 0.5157773
vt 2.70979 0.5421064
vt 2.872947 0.4986551
vt 2.787591 0.4493763
vt 2.571341 0.3022907
vt 2.690535 0.2812785
vt 2.619418 0.02959737
vt 2.724254 0.09011078
vt 2.732304 0.2739189
vt 2.760976 0.1113183
vt 2.814851 0.4168892
vt 2.887455 0.4588085
vt 2.970002 0.4733623
vt 2.474781 0.6301655
vt 2.556201 0.6295347
vt 2.474781 0.4203887
vt 2.53648 0.3845823
vt 2.39336 0.6295347
vt 2.413081 0.3845823
vn 0.9960895 -0.0420332 -0.07771084
vn 0.9980445 -0.04594326 -0.0423842
vn 0.9999995 0.0009775162 0
vn 0.9960895 -0.0420332 0.07771084
vn 0.9980445 0.02248287 -0.0583243
vn 0.9960895 0.08308887 -0.03003337
vn 0.9980445 0.02248287 0.0583243
vn -0.0009775162 0.8905177 0.4549475
vn -0.0009775162 0.9999995 0
vn -0.0009775162 0.8905177 0.4549475
vn -0.0009775162 0.9999995 0
vn -0.0009775162 0.4545453 0.8907231
vn -0.0009775162 0.4545453 0.8907231
vn -0.0009775162 0.0009775162 0.999999
vn -0.0009775162 0.0009775162 0.999999
vn 0.9882693 0.1358749 0.06972614
vn 0.9882693 0.1515151 -0.01915415
vn 0.9882693 0.1397849 0.06151331
vn 0.9882693 0.1515151 -0.01915415
vn 0.9882693 0.06940365 0.1360399
vn 0.9882693 0.06353855 0.1388761
vn 0.9882693 0.0009775162 0.1527179
vn 0.9882693 0.0009775162 0.1527179
vn -0.9999995 0.0009775162 0
vn -0.9980445 0.05767345 -0.02410345
vn -0.9960362 0.08894921 0
vn -0.9960895 0.03225803 0.08225074
vn -0.9960895 -0.01270771 0.08743156
vn -0.9745841 0.2238513 -0.008739757
vn -0.9745841 0.2003909 0.1001462
vn -0.9745841 -0.006842613 0.2239174
vn -0.9745841 0.1026392 0.1991256
vn -0.0009775162 -0.4545453 0.8907231
vn -0.0009775162 0.0009775162 0.999999
vn -0.0009775162 -0.4545453 0.8907231
vn -0.0009775162 0.0009775162 0.999999
vn -0.0009775162 -0.8905177 0.4549477
vn -0.0009775162 -0.8905177 0.4549477
vn -0.0009775162 -0.9999995 0
vn -0.0009775162 -0.9999995 0
vn 0.9882693 -0.07135874 0.1350246
vn 0.9882693 0.0009775162 0.1527179
vn 0.9882693 -0.06744868 0.1370197
vn 0.9882693 0.0009775162 0.1527179
vn 0.9882693 -0.1378298 0.06577726
vn 0.9882693 -0.1417399 0.056864
vn 0.9882693 -0.1515151 -0.01915464
vn 0.9882693 -0.1515151 -0.01915464
vn -0.9999995 0.0009775162 0
vn -0.9960895 -0.01270771 0.08743156
vn -0.9980445 -0.030303 0.05467112
vn -0.9960895 -0.08504397 0.02394344
vn -0.9960895 -0.086999 -0.01539281
vn -0.9745841 -0.1085044 0.1959913
vn -0.9745841 -0.006842613 0.2239174
vn -0.9745841 -0.2238513 -0.008739757
vn -0.9745841 -0.202346 0.09613485
vn -0.0009775162 -0.8905177 -0.4549477
vn -0.0009775162 -0.9999995 0
vn -0.0009775162 -0.8905177 -0.4549477
vn -0.0009775162 -0.9999995 0
vn -0.0009775162 -0.4545453 -0.8907231
vn -0.0009775162 -0.4545453 -0.8907231
vn -0.0009775162 0.0009775162 -0.999999
vn -0.0009775162 0.0009775162 -0.999999
vn 0.9882693 -0.1358748 -0.06972626
vn 0.9882693 -0.1515151 -0.01915464
vn 0.9882693 -0.1397849 -0.06151345
vn 0.9882693 -0.1515151 -0.01915464
vn 0.9882693 -0.06940371 -0.1360399
vn 0.9882693 -0.06353861 -0.1388761
vn 0.9882693 0.0009775162 -0.1527179
vn 0.9882693 0.0009775162 -0.1527179
vn -0.9999995 0.0009775162 0
vn -0.9960895 -0.086999 -0.01539281
vn -0.9980445 -0.05571842 -0.02833127
vn -0.9960895 -0.03225803 -0.08225074
vn -0.9960895 0.01270771 -0.08743156
vn -0.9745841 -0.1964809 -0.1076154
vn -0.9745841 -0.2238513 -0.008739757
vn -0.9745841 0.006842613 -0.2239174
vn -0.9745841 -0.1026393 -0.1991255
vn -0.0009775162 0.4545453 -0.8907231
vn -0.0009775162 0.0009775162 -0.999999
vn -0.0009775162 0.4545453 -0.8907231
vn -0.0009775162 0.0009775162 -0.999999
vn -0.0009775162 0.8905177 -0.4549475
vn -0.0009775162 0.8905177 -0.4549475
vn -0.0009775162 0.9999995 0
vn -0.0009775162 0.9999995 0
vn 0.9882693 0.07135868 -0.1350246
vn 0.9882693 0.0009775162 -0.1527179
vn 0.9882693 0.06744862 -0.1370197
vn 0.9882693 0.0009775162 -0.1527179
vn 0.9882693 0.1358749 -0.06972614
vn 0.9882693 0.1378299 -0.06577715
vn 0.9882693 0.1515151 -0.01915415
vn 0.9882693 0.1515151 -0.01915415
vn -0.9999995 0.0009775162 0
vn -0.9960895 0.01270771 -0.08743156
vn -0.9980445 0.030303 -0.05467112
vn -0.9960895 0.08504391 -0.02394365
vn -0.9980445 0.05767345 -0.02410345
vn -0.9745841 0.1085043 -0.1959914
vn -0.9745841 0.006842613 -0.2239174
vn -0.9745841 0.2238513 -0.008739757
vn -0.9745841 0.202346 -0.09613485
vn 0.9999995 0.0009775162 0
vn 0.9999995 0.0009775162 0
vn 0.9999995 0.0009775162 0
vn 0.9999995 0.0009775162 0
vn 0.9999995 0.0009775162 0
vn 0.9997894 -0.02052353 0
vn 0.9452586 0.2394916 0.2216527
vn 0.9998275 -0.01856961 0
vn 0.9452586 0.323558 0.04238372
vn 0.9452586 0.04398823 0.3233438
vn 0.9999422 -0.01075206 0
vn 0.9452586 -0.1730204 0.2766768
vn 0.9999957 0.002932537 0
vn 0.499511 -0.1319647 -0.8561975
vn 0.499511 0.4506352 -0.7398762
vn 0.499511 -0.6500486 -0.5726479
vn 0.499511 -0.8651022 -0.04568236
vn 0.9960895 0.04007816 0.07873694
vn 0.9921794 0.1143694 0.04999701
vn 0.9960895 0.04007816 0.07873694
vn 0.9921794 0.1163244 0.04526241
vn 0.9921794 -0.03421307 0.1200397
vn 0.9921794 -0.0361681 0.1194652
vn 0.9999995 0.0009775162 0
vn 0.9999995 0.0009775162 0
vn 0.9999995 0.0009775162 0
vn 0.9999995 0.0009775162 0
vn 0.9999995 0.0009775162 0
vn 0.9998925 0.01466117 0
vn 0.9452586 -0.3079177 0.1080408
vn 0.9999957 0.002932537 0
vn 0.9452586 -0.1730204 0.2766768
vn 0.9452586 -0.3000976 -0.1281701
vn 0.9997894 0.02052353 0
vn 0.9452586 -0.1515151 -0.2890144
vn 0.9980445 0.02248287 -0.0583243
vn 0.499511 0.8064512 0.3164257
vn 0.4936459 0.5562069 0.6685414
vn 0.499511 0.8201364 -0.279043
vn 0.499511 0.4506352 -0.7398762
vn 0.9960895 -0.0811339 -0.0349722
vn 0.9921794 -0.07917887 0.09649231
vn 0.9960895 -0.07917887 -0.03919785
vn 0.9921794 -0.07917887 0.09649231
vn 0.9921794 -0.07917887 -0.09649231
vn 0.9921794 -0.07917887 -0.09649231
vn 0.9999995 0.0009775162 0
vn 0.9999995 0.0009775162 0
vn 0.9999995 0.0009775162 0
vn 0.9999995 0.0009775162 0
vn 0.9999995 0.0009775162 0
vn 0.9999995 0.0009775162 0
vn 0.9452586 -0.1515151 -0.2890144
vn 0.9980445 0.02248287 -0.0583243
vn 0.9452586 0.08895397 -0.3139639
vn 0.9863143 -0.006842613 0.1647341
vn 0.9999995 0.0009775162 0
vn 0.9452586 0.2551318 -0.2034549
vn 0.9999614 -0.00879731 0
vn 0.9452586 0.323558 0.04238372
vn 0.9998275 -0.01856961 0
vn 0.499511 -0.675464 0.5424362
vn 0.499511 -0.8651022 -0.04568236
vn 0.4936459 -0.3137829 0.8110821
vn 0.499511 0.143695 0.8543071
vn 0.4936459 0.5562069 0.6685414
vn 0.9960895 0.04007816 -0.07873694
vn 0.9921794 -0.03421307 -0.1200397
vn 0.9960895 0.04007816 -0.07873694
vn 0.9921794 -0.0361681 -0.1194652
vn 0.9921794 0.1143694 -0.04999701
vn 0.9921794 0.1163244 -0.04526241
g TireK_YoshiB_LF_LOD1_0
f 3/3/3 2/2/2 1/1/1
f 2/2/2 3/3/3 4/4/4
f 5/5/5 3/3/3 1/1/1
f 3/3/3 5/5/5 6/6/6
f 3/3/3 7/7/7 4/4/4
f 7/7/7 3/3/3 6/6/6
f 10/10/10 9/9/9 8/8/8
f 10/10/10 11/11/11 9/9/9
f 10/10/10 8/8/8 12/12/12
f 10/10/10 12/12/12 13/13/13
f 14/14/14 13/13/13 12/12/12
f 14/14/14 12/12/12 15/15/15
f 18/18/18 17/17/17 16/16/16
f 18/18/18 19/19/19 17/17/17
f 18/18/18 16/16/16 20/20/20
f 18/18/18 20/20/20 21/21/21
f 21/21/21 20/20/20 22/22/22
f 21/21/21 22/22/22 23/23/23
f 26/26/26 25/25/25 24/24/24
f 27/27/27 26/26/26 24/24/24
f 28/28/28 27/27/27 24/24/24
f 26/26/26 29/29/29 25/25/25
f 26/26/26 30/30/30 29/29/29
f 27/27/27 28/28/28 31/31/31
f 27/27/27 31/31/31 32/32/32
f 26/26/26 32/32/32 30/30/30
f 26/26/26 27/27/27 32/32/32
f 35/35/35 34/34/34 33/33/33
f 35/35/35 36/36/36 34/34/34
f 35/35/35 33/33/33 37/37/37
f 35/35/35 37/37/37 38/38/38
f 39/39/39 38/38/38 37/37/37
f 39/39/39 37/37/37 40/40/40
f 43/43/43 42/42/42 41/41/41
f 43/43/43 44/44/44 42/42/42
f 43/43/43 41/41/41 45/45/45
f 43/43/43 45/45/45 46/46/46
f 46/46/46 45/45/45 47/47/47
f 46/46/46 47/47/47 48/48/48
f 51/51/51 50/50/50 49/49/49
f 52/52/52 51/51/51 49/49/49
f 53/53/53 52/52/52 49/49/49
f 50/50/50 51/51/51 54/54/54
f 50/50/50 54/54/54 55/55/55
f 52/52/52 53/53/53 56/56/56
f 52/52/52 56/56/56 57/57/57
f 51/51/51 57/57/57 54/54/54
f 51/51/51 52/52/52 57/57/57
f 60/60/60 59/59/59 58/58/58
f 60/60/60 61/61/61 59/59/59
f 60/60/60 58/58/58 62/62/62
f 60/60/60 62/62/62 63/63/63
f 64/64/64 63/63/63 62/62/62
f 64/64/64 62/62/62 65/65/65
f 68/68/68 67/67/67 66/66/66
f 68/68/68 69/69/69 67/67/67
f 68/68/68 66/66/66 70/70/70
f 68/68/68 70/70/70 71/71/71
f 71/71/71 70/70/70 72/72/72
f 71/71/71 72/72/72 73/73/73
f 76/76/76 75/75/75 74/74/74
f 77/77/77 76/76/76 74/74/74
f 78/78/78 77/77/77 74/74/74
f 75/75/75 76/76/76 79/79/79
f 75/75/75 79/79/79 80/80/80
f 77/77/77 78/78/78 81/81/81
f 77/77/77 81/81/81 82/82/82
f 76/76/76 82/82/82 79/79/79
f 76/76/76 77/77/77 82/82/82
f 85/85/85 84/84/84 83/83/83
f 85/85/85 86/86/86 84/84/84
f 85/85/85 83/83/83 87/87/87
f 85/85/85 87/87/87 88/88/88
f 89/89/89 88/88/88 87/87/87
f 89/89/89 87/87/87 90/90/90
f 93/93/93 92/92/92 91/91/91
f 93/93/93 94/94/94 92/92/92
f 93/93/93 91/91/91 95/95/95
f 93/93/93 95/95/95 96/96/96
f 97/97/97 96/96/96 95/95/95
f 97/97/97 95/95/95 98/98/98
f 101/101/101 100/100/100 99/99/99
f 102/102/102 101/101/101 99/99/99
f 103/103/103 102/102/102 99/99/99
f 100/100/100 101/101/101 104/104/104
f 100/100/100 104/104/104 105/105/105
f 102/102/102 103/103/103 106/106/106
f 102/102/102 106/106/106 107/107/107
f 101/101/101 107/107/107 104/104/104
f 101/101/101 102/102/102 107/107/107
f 110/110/110 109/109/109 108/108/108
f 109/109/109 111/111/111 108/108/108
f 111/111/111 112/112/112 108/108/108
f 115/115/115 114/114/114 113/113/113
f 115/115/115 116/116/116 114/114/114
f 113/113/113 114/114/114 117/117/117
f 113/113/113 117/117/117 118/118/118
f 118/118/118 117/117/117 119/119/119
f 118/118/118 119/119/119 120/120/120
f 121/121/121 118/118/118 120/120/120
f 121/121/121 120/120/120 122/122/122
f 123/123/123 118/118/118 121/121/121
f 123/123/123 113/113/113 118/118/118
f 124/124/124 113/113/113 123/123/123
f 124/124/124 115/115/115 113/113/113
f 127/127/127 126/126/126 125/125/125
f 127/127/127 128/128/128 126/126/126
f 127/127/127 125/125/125 129/129/129
f 127/127/127 129/129/129 130/130/130
f 133/133/133 132/132/132 131/131/131
f 132/132/132 134/134/134 131/131/131
f 134/134/134 135/135/135 131/131/131
f 138/138/138 137/137/137 136/136/136
f 138/138/138 139/139/139 137/137/137
f 136/136/136 137/137/137 140/140/140
f 136/136/136 140/140/140 141/141/141
f 141/141/141 140/140/140 142/142/142
f 141/141/141 142/142/142 143/143/143
f 144/144/144 141/141/141 143/143/143
f 144/144/144 143/143/143 145/145/145
f 146/146/146 141/141/141 144/144/144
f 146/146/146 136/136/136 141/141/141
f 147/147/147 136/136/136 146/146/146
f 147/147/147 138/138/138 136/136/136
f 150/150/150 149/149/149 148/148/148
f 150/150/150 151/151/151 149/149/149
f 150/150/150 148/148/148 152/152/152
f 150/150/150 152/152/152 153/153/153
f 156/156/156 155/155/155 154/154/154
f 157/157/157 155/155/155 156/156/156
f 157/157/157 158/158/158 155/155/155
f 158/158/158 159/159/159 155/155/155
f 162/162/162 161/161/161 160/160/160
f 162/162/162 163/163/163 161/161/161
f 162/162/162 164/164/164 163/163/163
f 164/164/164 162/162/162 165/165/165
f 164/164/164 165/165/165 166/166/166
f 166/166/166 165/165/165 167/167/167
f 166/166/166 167/167/167 168/168/168
f 169/169/169 166/166/166 168/168/168
f 169/169/169 168/168/168 170/170/170
f 171/171/171 166/166/166 169/169/169
f 171/171/171 164/164/164 166/166/166
f 164/164/164 172/172/172 163/163/163
f 164/164/164 171/171/171 172/172/172
f 163/163/163 173/173/173 161/161/161
f 163/163/163 172/172/172 173/173/173
f 176/176/176 175/175/175 174/174/174
f 176/176/176 177/177/177 175/175/175
f 176/176/176 174/174/174 178/178/178
f 176/176/176 178/178/178 179/179/179
