g TireK_Drum_RF_LOD1
v -0.182366 0.1579836 0.06543872
v -0.1930642 4.470348E-08 4.470348E-08
v -0.182366 0.1710001 4.470348E-08
v -0.182366 0.1209152 0.1209152
v -0.182366 0.06543908 0.1579832
v -0.182366 4.470348E-08 0.1710001
v 0.03628573 4.470348E-08 4.470348E-08
v 0.04687078 0.06761289 0.06761289
v 0.04687078 0.09561901 4.470348E-08
v 0.04687078 4.470348E-08 0.09561901
v 0.041576 0.09901564 0.09901564
v 0.041576 4.470348E-08 0.1400292
v 0.041576 0.1400292 4.470348E-08
v 0.03299601 0.1645967 4.470348E-08
v -0.182366 0.1579836 0.06543872
v -0.182366 0.1710001 4.470348E-08
v 0.03299601 0.1163874 0.1163874
v -0.182366 0.1209152 0.1209152
v -0.182366 0.06543908 0.1579832
v 0.041576 0.1400292 4.470348E-08
v 0.041576 0.09901564 0.09901564
v 0.03299601 4.470348E-08 0.1645967
v -0.182366 4.470348E-08 0.1710001
v 0.041576 4.470348E-08 0.1400292
v -0.182366 -0.06543864 0.1579836
v -0.1930642 4.470348E-08 4.470348E-08
v -0.182366 4.470348E-08 0.1710001
v -0.182366 -0.1209151 0.1209152
v -0.182366 -0.1579835 0.06543908
v -0.182366 -0.171 4.470348E-08
v 0.04687078 4.470348E-08 0.09561901
v 0.03628573 4.470348E-08 4.470348E-08
v 0.04687078 -0.0676128 0.06761289
v 0.04687078 -0.09561926 4.470348E-08
v 0.041576 -0.09901556 0.09901564
v 0.041576 -0.1400291 4.470348E-08
v 0.041576 4.470348E-08 0.1400292
v -0.182366 4.470348E-08 0.1710001
v 0.03299601 4.470348E-08 0.1645967
v -0.182366 -0.06543864 0.1579836
v 0.03299601 -0.1163873 0.1163874
v -0.182366 -0.1209151 0.1209152
v -0.182366 -0.1579835 0.06543908
v 0.041576 4.470348E-08 0.1400292
v 0.041576 -0.09901556 0.09901564
v 0.03299601 -0.1645966 4.470348E-08
v -0.182366 -0.171 4.470348E-08
v 0.041576 -0.1400291 4.470348E-08
v -0.182366 -0.1579835 -0.06543864
v -0.1930642 4.470348E-08 4.470348E-08
v -0.182366 -0.171 4.470348E-08
v -0.182366 -0.1209151 -0.1209151
v -0.182366 -0.06543899 -0.1579835
v -0.182366 4.470348E-08 -0.171
v 0.04687078 -0.09561926 4.470348E-08
v 0.03628573 4.470348E-08 4.470348E-08
v 0.04687078 -0.0676128 -0.0676128
v 0.04687078 4.470348E-08 -0.09561926
v 0.041576 -0.09901556 -0.09901556
v 0.041576 4.470348E-08 -0.1400291
v 0.041576 -0.1400291 4.470348E-08
v -0.182366 -0.171 4.470348E-08
v 0.03299601 -0.1645966 4.470348E-08
v -0.182366 -0.1579835 -0.06543864
v 0.03299601 -0.1163873 -0.1163873
v -0.182366 -0.1209151 -0.1209151
v -0.182366 -0.06543899 -0.1579835
v 0.041576 -0.1400291 4.470348E-08
v 0.041576 -0.09901556 -0.09901556
v 0.03299601 4.470348E-08 -0.1645966
v -0.182366 4.470348E-08 -0.171
v 0.041576 4.470348E-08 -0.1400291
v -0.182366 0.06543872 -0.1579835
v -0.1930642 4.470348E-08 4.470348E-08
v -0.182366 4.470348E-08 -0.171
v -0.182366 0.1209152 -0.1209151
v -0.182366 0.1579832 -0.06543899
v -0.182366 0.1710001 4.470348E-08
v 0.04687078 4.470348E-08 -0.09561926
v 0.03628573 4.470348E-08 4.470348E-08
v 0.04687078 0.06761289 -0.0676128
v 0.04687078 0.09561901 4.470348E-08
v 0.041576 0.09901564 -0.09901556
v 0.041576 0.1400292 4.470348E-08
v 0.041576 4.470348E-08 -0.1400291
v -0.182366 4.470348E-08 -0.171
v 0.03299601 4.470348E-08 -0.1645966
v -0.182366 0.06543872 -0.1579835
v 0.03299601 0.1163874 -0.1163873
v -0.182366 0.1209152 -0.1209151
v -0.182366 0.1579832 -0.06543899
v 0.041576 4.470348E-08 -0.1400291
v 0.041576 0.09901564 -0.09901556
v 0.03299601 0.1645967 4.470348E-08
v -0.182366 0.1710001 4.470348E-08
v 0.041576 0.1400292 4.470348E-08
vt 0.8063097 0.4534672
vt 0.9900034 0.01
vt 0.9900034 0.4899964
vt 0.6505823 0.3494059
vt 0.5465362 0.1936937
vt 0.510007 0.01
vt 0.01 0.01
vt 0.2071758 0.2071758
vt 0.01 0.2888427
vt 0.2888427 0.01
vt 0.298757 0.298757
vt 0.4183499 0.01
vt 0.01 0.4183499
vt 0.01 0.5176741
vt 0.1507423 0.9900034
vt 0.01 0.9900034
vt 0.2914845 0.5176741
vt 0.2914845 0.9900034
vt 0.4322419 0.9900034
vt 0.01 0.4673744
vt 0.2914845 0.4673744
vt 0.5729842 0.5176741
vt 0.5729842 0.9900034
vt 0.5729842 0.4673744
vt 1.806309 0.4534672
vt 1.990002 0.01
vt 1.990002 0.4899964
vt 1.650596 0.3494059
vt 1.546535 0.1936937
vt 1.510006 0.01
vt 1.009999 0.2888427
vt 1.009999 0.01
vt 1.207175 0.2071758
vt 1.288842 0.01
vt 1.298756 0.298757
vt 1.418349 0.01
vt 1.009999 0.4183499
vt 1.009999 0.9900034
vt 1.009999 0.5176741
vt 1.150741 0.9900034
vt 1.291483 0.5176741
vt 1.291483 0.9900034
vt 1.432241 0.9900034
vt 1.009999 0.4673744
vt 1.291483 0.4673744
vt 1.572983 0.5176741
vt 1.572983 0.9900034
vt 1.572983 0.4673744
vt 2.806307 0.4534672
vt 2.990001 0.01
vt 2.990001 0.4899964
vt 2.650595 0.3494059
vt 2.546534 0.1936937
vt 2.510005 0.01
vt 2.009998 0.2888427
vt 2.009998 0.01
vt 2.207173 0.2071758
vt 2.28884 0.01
vt 2.298755 0.298757
vt 2.418363 0.01
vt 2.009998 0.4183499
vt 2.009998 0.9900034
vt 2.009998 0.5176741
vt 2.15074 0.9900034
vt 2.291482 0.5176741
vt 2.291482 0.9900034
vt 2.43224 0.9900034
vt 2.009998 0.4673744
vt 2.291482 0.4673744
vt 2.572982 0.5176741
vt 2.572982 0.9900034
vt 2.572982 0.4673744
vt 3.806306 0.4534672
vt 3.99 0.01
vt 3.99 0.4899964
vt 3.650594 0.3494059
vt 3.546533 0.1936937
vt 3.510003 0.01
vt 3.009996 0.2888427
vt 3.009996 0.01
vt 3.207172 0.2071758
vt 3.288839 0.01
vt 3.298753 0.298757
vt 3.418361 0.01
vt 3.009996 0.4183499
vt 3.009996 0.9900034
vt 3.009996 0.5176741
vt 3.150739 0.9900034
vt 3.291496 0.5176741
vt 3.291496 0.9900034
vt 3.432238 0.9900034
vt 3.009996 0.4673744
vt 3.291496 0.4673744
vt 3.572981 0.5176741
vt 3.572981 0.9900034
vt 3.572981 0.4673744
vn -0.9983336 0.05716807 0.007857787
vn -0.9983336 0.04154712 0.04004709
vn -0.9980131 0.06300578 0
vn -0.9983336 0.04349965 0.03791719
vn -0.9983336 0.02397341 0.05249008
vn -0.9983336 0.01225764 0.05638868
vn 0.9933445 -0.07756311 -0.08515038
vn 0.9992024 0.0278787 0.02858779
vn 0.9992024 0.03959447 0.005173168
vn 0.9992024 0.01616293 0.03651361
vn 0.9933445 0.08450478 0.07826599
vn 0.991392 0.04935759 0.1212676
vn 0.991392 0.1176994 0.0573484
vn 0.2240101 0.9085129 0.3527377
vn 0.04632109 0.9221813 0.3839739
vn 0.02874744 0.98076 0.1930888
vn 0.2396311 0.6859135 0.687095
vn 0.02874744 0.7073924 0.7062362
vn 0.04632109 0.381304 0.9232885
vn 0.9347658 0.3266304 0.1397338
vn 0.9445289 0.2329044 0.2315613
vn 0.2240101 0.3539671 0.9080346
vn 0.02874744 0.1958045 0.9802215
vn 0.9347658 0.1352732 0.3285029
vn -0.9983336 -0.0248422 0.05208452
vn -0.9983336 -0.04046321 0.04114197
vn -0.9983336 -0.01312643 0.05619279
vn -0.9983336 -0.04436845 0.0368968
vn -0.9983145 -0.05803575 0
vn -0.9980807 -0.06192641 0
vn 0.9992024 -0.01703173 0.03611654
vn 0.9933445 0.07864696 -0.08415034
vn 0.9992024 -0.02874744 0.02771405
vn 0.9991811 -0.04046234 0
vn 0.9933445 -0.08342099 0.07942016
vn 0.991392 -0.1185682 0.0555299
vn 0.991392 -0.04827368 0.1217031
vn 0.02874744 -0.1947206 0.9804374
vn 0.2240101 -0.3548359 0.9076954
vn 0.04632109 -0.3821727 0.9229292
vn 0.2396311 -0.6867824 0.6862266
vn 0.02874744 -0.7063086 0.7073201
vn 0.04632109 -0.92305 0.3818808
vn 0.9347658 -0.1361419 0.3281438
vn 0.9445289 -0.2337732 0.2306842
vn 0.2240101 -0.907429 0.3555166
vn 0.02874744 -0.9796762 0.1985148
vn 0.9347658 -0.3274992 0.1376852
vn -0.9983145 -0.05803575 0
vn -0.9983336 -0.04046321 -0.04114197
vn -0.9980807 -0.06192641 0
vn -0.9983336 -0.04436845 -0.0368968
vn -0.9983336 -0.0248422 -0.05208452
vn -0.9983336 -0.01312643 -0.05619279
vn 0.9991811 -0.04046234 0
vn 0.9933445 0.07864696 0.08415034
vn 0.9992024 -0.02874744 -0.02771405
vn 0.9992024 -0.01703173 -0.03611654
vn 0.9933445 -0.08342099 -0.07942016
vn 0.991392 -0.04827368 -0.1217031
vn 0.991392 -0.1185682 -0.0555299
vn 0.02874744 -0.9796762 -0.1985148
vn 0.2240101 -0.907429 -0.3555166
vn 0.04632109 -0.92305 -0.3818808
vn 0.2396311 -0.6867824 -0.6862266
vn 0.02874744 -0.7063086 -0.7073201
vn 0.04632109 -0.3821727 -0.9229292
vn 0.9347658 -0.3274992 -0.1376852
vn 0.9445289 -0.2337732 -0.2306842
vn 0.2240101 -0.3548359 -0.9076954
vn 0.02874744 -0.1947206 -0.9804374
vn 0.9347658 -0.1361419 -0.3281438
vn -0.9983336 0.02397341 -0.05249008
vn -0.9983336 0.04154712 -0.04004709
vn -0.9983336 0.01225764 -0.05638868
vn -0.9983336 0.04349965 -0.03791719
vn -0.9983336 0.05716807 -0.007857787
vn -0.9980131 0.06300578 0
vn 0.9992024 0.01616293 -0.03651361
vn 0.9933445 -0.07756311 0.08515038
vn 0.9992024 0.0278787 -0.02858779
vn 0.9992024 0.03959447 -0.005173168
vn 0.9933445 0.08450478 -0.07826599
vn 0.991392 0.1176994 -0.0573484
vn 0.991392 0.04935759 -0.1212676
vn 0.02874744 0.1958045 -0.9802215
vn 0.2240101 0.3539671 -0.9080346
vn 0.04632109 0.381304 -0.9232885
vn 0.2396311 0.6859135 -0.687095
vn 0.02874744 0.7073924 -0.7062362
vn 0.04632109 0.9221813 -0.3839739
vn 0.9347658 0.1352732 -0.3285029
vn 0.9445289 0.2329044 -0.2315613
vn 0.2240101 0.9085129 -0.3527377
vn 0.02874744 0.98076 -0.1930888
vn 0.9347658 0.3266304 -0.1397338
g TireK_Drum_RF_LOD1_0
f 3/3/3 2/2/2 1/1/1
f 1/1/1 2/2/2 4/4/4
f 4/4/4 2/2/2 5/5/5
f 6/6/6 5/5/5 2/2/2
f 9/9/9 8/8/8 7/7/7
f 8/8/8 10/10/10 7/7/7
f 10/10/10 8/8/8 11/11/11
f 12/12/12 10/10/10 11/11/11
f 8/8/8 9/9/9 13/13/13
f 11/11/11 8/8/8 13/13/13
f 16/16/16 15/15/15 14/14/14
f 17/17/17 14/14/14 15/15/15
f 18/18/18 17/17/17 15/15/15
f 18/18/18 19/19/19 17/17/17
f 20/20/20 14/14/14 17/17/17
f 21/21/21 20/20/20 17/17/17
f 21/21/21 17/17/17 22/22/22
f 22/22/22 17/17/17 19/19/19
f 23/23/23 22/22/22 19/19/19
f 24/24/24 21/21/21 22/22/22
f 27/27/27 26/26/26 25/25/25
f 25/25/25 26/26/26 28/28/28
f 28/28/28 26/26/26 29/29/29
f 30/30/30 29/29/29 26/26/26
f 33/33/33 32/32/32 31/31/31
f 33/33/33 34/34/34 32/32/32
f 34/34/34 33/33/33 35/35/35
f 36/36/36 34/34/34 35/35/35
f 33/33/33 31/31/31 37/37/37
f 35/35/35 33/33/33 37/37/37
f 40/40/40 39/39/39 38/38/38
f 41/41/41 39/39/39 40/40/40
f 42/42/42 41/41/41 40/40/40
f 42/42/42 43/43/43 41/41/41
f 44/44/44 39/39/39 41/41/41
f 45/45/45 44/44/44 41/41/41
f 45/45/45 41/41/41 46/46/46
f 46/46/46 41/41/41 43/43/43
f 47/47/47 46/46/46 43/43/43
f 48/48/48 45/45/45 46/46/46
f 51/51/51 50/50/50 49/49/49
f 49/49/49 50/50/50 52/52/52
f 52/52/52 50/50/50 53/53/53
f 54/54/54 53/53/53 50/50/50
f 57/57/57 56/56/56 55/55/55
f 57/57/57 58/58/58 56/56/56
f 58/58/58 57/57/57 59/59/59
f 60/60/60 58/58/58 59/59/59
f 57/57/57 55/55/55 61/61/61
f 59/59/59 57/57/57 61/61/61
f 64/64/64 63/63/63 62/62/62
f 65/65/65 63/63/63 64/64/64
f 66/66/66 65/65/65 64/64/64
f 66/66/66 67/67/67 65/65/65
f 68/68/68 63/63/63 65/65/65
f 69/69/69 68/68/68 65/65/65
f 69/69/69 65/65/65 70/70/70
f 70/70/70 65/65/65 67/67/67
f 71/71/71 70/70/70 67/67/67
f 72/72/72 69/69/69 70/70/70
f 75/75/75 74/74/74 73/73/73
f 73/73/73 74/74/74 76/76/76
f 76/76/76 74/74/74 77/77/77
f 77/77/77 74/74/74 78/78/78
f 81/81/81 80/80/80 79/79/79
f 81/81/81 82/82/82 80/80/80
f 82/82/82 81/81/81 83/83/83
f 84/84/84 82/82/82 83/83/83
f 81/81/81 79/79/79 85/85/85
f 83/83/83 81/81/81 85/85/85
f 88/88/88 87/87/87 86/86/86
f 89/89/89 87/87/87 88/88/88
f 90/90/90 89/89/89 88/88/88
f 90/90/90 91/91/91 89/89/89
f 92/92/92 87/87/87 89/89/89
f 93/93/93 92/92/92 89/89/89
f 93/93/93 89/89/89 94/94/94
f 94/94/94 89/89/89 91/91/91
f 95/95/95 94/94/94 91/91/91
f 96/96/96 93/93/93 94/94/94
