g TireK_Small_LF_LOD2
v 0.1512386 0.08090355 -0.001137495
v 0.1396037 -8.940697E-08 -5.702674E-05
v 0.1512386 1.788139E-07 0.0808906
v 0.1512386 -0.08090375 -1.305342E-05
v 0.1512386 -8.940697E-08 -0.0809167
v 0.1368378 -8.940697E-08 -0.1038009
v 0.1368378 -0.1038009 -8.940697E-08
v 0.1512386 -8.940697E-08 -0.0809167
v 0.1512386 -0.08090375 -1.305342E-05
v 0.06860366 -8.940697E-08 -0.1271242
v 0.06860366 -0.1271242 1.788139E-07
v 0.0003697872 -8.940697E-08 -0.1036838
v 0.0003697872 -0.1036838 1.788139E-07
v 0.1368378 -0.1038009 -8.940697E-08
v 0.1368378 1.788139E-07 0.103801
v 0.1512386 -0.08090375 -1.305342E-05
v 0.1512386 1.788139E-07 0.0808906
v 0.06860366 -0.1271242 1.788139E-07
v 0.06860366 1.788139E-07 0.1271243
v 0.0003697872 -0.1036838 1.788139E-07
v 0.0003697872 1.788139E-07 0.1036836
v 0.1368378 1.788139E-07 0.103801
v 0.1368378 0.103801 -0.00116232
v 0.1512386 1.788139E-07 0.0808906
v 0.1512386 0.08090355 -0.001137495
v 0.06860366 0.1271243 -0.0005959123
v 0.06860366 1.788139E-07 0.1271243
v 0.0003697872 0.1036836 -8.940697E-08
v 0.0003697872 1.788139E-07 0.1036836
v 0.1368378 0.103801 -0.00116232
v 0.1368378 -8.940697E-08 -0.1038009
v 0.1512386 0.08090355 -0.001137495
v 0.1512386 -8.940697E-08 -0.0809167
v 0.06860366 -8.940697E-08 -0.1271242
v 0.06860366 0.1271243 -0.0005959123
v 0.0003697872 -8.940697E-08 -0.1036838
v 0.0003697872 0.1036836 -8.940697E-08
v -0.004371673 -0.08294701 -8.940697E-08
v 0.01991656 -8.940697E-08 -8.940697E-08
v -0.004371673 1.788139E-07 0.08294682
v 0.0003697872 -0.1036838 1.788139E-07
v 0.0003697872 1.788139E-07 0.1036836
v -0.004371673 -8.940697E-08 -0.08294701
v 0.01991656 -8.940697E-08 -8.940697E-08
v -0.004371673 -0.08294701 -8.940697E-08
v 0.0003697872 -8.940697E-08 -0.1036838
v 0.0003697872 -0.1036838 1.788139E-07
v -0.004371673 0.08294709 -8.940697E-08
v 0.01991656 -8.940697E-08 -8.940697E-08
v -0.004371673 -8.940697E-08 -0.08294701
v 0.0003697872 0.1036836 -8.940697E-08
v 0.0003697872 -8.940697E-08 -0.1036838
v -0.004371673 1.788139E-07 0.08294682
v 0.01991656 -8.940697E-08 -8.940697E-08
v -0.004371673 0.08294709 -8.940697E-08
v 0.0003697872 1.788139E-07 0.1036836
v 0.0003697872 0.1036836 -8.940697E-08
v 0.1558287 -8.940697E-08 0.05555996
v 0.1558287 -0.05555988 -8.940697E-08
v 0.141049 -8.940697E-08 0.06638263
v 0.141049 -0.06638256 -8.940697E-08
v 0.1558287 -8.940697E-08 -0.05555988
v 0.141049 -8.940697E-08 -0.06638256
v 0.1558287 0.05555996 -8.940697E-08
v 0.141049 0.06638263 -8.940697E-08
v -0.01096128 -8.940697E-08 0.08058028
v -0.01096128 0.08058028 -8.940697E-08
v 0.01102895 -8.940697E-08 0.08279409
v 0.01102895 0.08279409 -8.940697E-08
v -0.02394515 -8.940697E-08 -8.940697E-08
v -0.01096128 0.08058028 -8.940697E-08
v -0.01096128 -8.940697E-08 0.08058028
v -0.01096128 -0.0805802 -8.940697E-08
v -0.01096128 -8.940697E-08 -0.0805802
v -0.01096128 -8.940697E-08 -0.0805802
v -0.01096128 -0.0805802 -8.940697E-08
v 0.01102895 -8.940697E-08 -0.08279401
v 0.01102895 -0.08279401 -8.940697E-08
v -0.01096128 0.08058028 -8.940697E-08
v -0.01096128 -8.940697E-08 -0.0805802
v 0.01102895 0.08279409 -8.940697E-08
v 0.01102895 -8.940697E-08 -0.08279401
v -0.01096128 -8.940697E-08 0.08058028
v 0.01102895 -8.940697E-08 0.08279409
v -0.01096128 -0.0805802 -8.940697E-08
v 0.01102895 -0.08279401 -8.940697E-08
vt 0.7525084 0.508397
vt 0.7493486 0.2672337
vt 0.508019 0.2672488
vt 0.7491974 0.02605531
vt 0.9903909 0.2672488
vt 0.02263841 0.5727888
vt 0.4693899 0.5727888
vt 0.02263841 0.4872757
vt 0.4693899 0.4872757
vt 0.02263841 0.7729947
vt 0.4693899 0.7729947
vt 0.02263841 0.9741984
vt 0.4693899 0.9741984
vt 3.019649 0.5714432
vt 3.466385 0.5714432
vt 3.019634 0.4882282
vt 3.466385 0.4882282
vt 3.019634 0.7725713
vt 3.466385 0.7725713
vt 3.019649 0.9728528
vt 3.466385 0.9728528
vt 2.021553 0.5711862
vt 2.468878 0.5711862
vt 2.021553 0.4882282
vt 2.468878 0.4882282
vt 2.468878 0.7725713
vt 2.021553 0.7725713
vt 2.468878 0.9731098
vt 2.021553 0.9731098
vt 1.019722 0.5714432
vt 1.465793 0.5714432
vt 1.019722 0.4879409
vt 1.465793 0.4879409
vt 1.465793 0.7722841
vt 1.019722 0.7722841
vt 1.465793 0.9722481
vt 1.019722 0.9722481
vt 1.698973 0.9680752
vt 1.986567 0.9680752
vt 1.986567 0.6804815
vt 1.627067 0.9680752
vt 1.986567 0.6085755
vt 2.694212 0.9680752
vt 2.981806 0.9680752
vt 2.981806 0.6804815
vt 2.622306 0.9680752
vt 2.981806 0.6085755
vt 3.696527 0.9680752
vt 3.98412 0.9680752
vt 3.98412 0.6804664
vt 3.62462 0.9680752
vt 3.98412 0.6085755
vt 0.6932722 0.972112
vt 0.980881 0.972112
vt 0.980881 0.6845031
vt 0.6213813 0.972112
vt 0.980881 0.6126122
vt 0.5004141 0.6263555
vt 0.6122041 0.5145806
vt 0.4786428 0.6263555
vt 0.6122041 0.4928093
vt 0.7239789 0.6263555
vt 0.7457502 0.6263555
vt 0.6122041 0.7381454
vt 0.6122041 0.7599167
vt 0.02489115 0.0414767
vt 0.02489115 0.3277248
vt 0.09120311 0.0414767
vt 0.09120311 0.3277248
vt 0.3047439 0.2126238
vt 0.3047439 0.4044538
vt 0.4965739 0.2126238
vt 0.3047439 0.02077878
vt 0.1128989 0.2126238
vt 2.024455 0.04040325
vt 2.024455 0.3266514
vt 2.090752 0.04040325
vt 2.090752 0.3266514
vt 3.02671 0.0399648
vt 3.02671 0.3262129
vt 3.093021 0.0399648
vt 3.093021 0.3262129
vt 1.025618 0.3266514
vt 1.091915 0.3266514
vt 1.025618 0.04040325
vt 1.091915 0.04040325
vn 0.9765391 0.2140762 -0.02329673
vn 0.9999995 -0.0009775162 0
vn 0.9765391 0.0361681 0.212281
vn 0.9765391 -0.2140762 0.02329673
vn 0.9765391 -0.0361681 -0.212281
vn 0.4134895 -0.01270771 -0.9104202
vn 0.4056694 -0.912023 -0.06038521
vn 0.9765391 -0.0361681 -0.212281
vn 0.9765391 -0.2140762 0.02329673
vn -0.0244379 -0.002932549 -0.999697
vn -0.0009775162 -0.9999995 0
vn -0.4017594 0.0009775162 -0.9157448
vn -0.4076245 -0.910068 0.07495713
vn 0.4056694 -0.912023 -0.06038521
vn 0.4017593 0.01075268 0.9156821
vn 0.9765391 -0.2140762 0.02329673
vn 0.9765391 0.0361681 0.212281
vn -0.0009775162 -0.9999995 0
vn 0.02248287 0.0009775162 0.9997467
vn -0.4076245 -0.910068 0.07495713
vn -0.4154446 -0.002932549 0.9096138
vn 0.4017593 0.01075268 0.9156821
vn 0.4056694 0.910068 -0.08490304
vn 0.9765391 0.0361681 0.212281
vn 0.9765391 0.2140762 -0.02329673
vn -0.0009775162 0.9999995 0
vn 0.02248287 0.0009775162 0.9997467
vn -0.4056695 0.910068 0.08490269
vn -0.4154446 -0.002932549 0.9096138
vn 0.4056694 0.910068 -0.08490304
vn 0.4134895 -0.01270771 -0.9104202
vn 0.9765391 0.2140762 -0.02329673
vn 0.9765391 -0.0361681 -0.212281
vn -0.0244379 -0.002932549 -0.999697
vn -0.0009775162 0.9999995 0
vn -0.4017594 0.0009775162 -0.9157448
vn -0.4056695 0.910068 0.08490269
vn -0.9980445 0.06158352 -0.01070858
vn -0.9999995 0.0009775162 0
vn -0.9980445 -0.01075268 -0.06157584
vn -0.4076245 -0.910068 0.07495713
vn -0.4154446 -0.002932549 0.9096138
vn -0.9980445 0.01075268 0.06157584
vn -0.9999995 0.0009775162 0
vn -0.9980445 0.06158352 -0.01070858
vn -0.4017594 0.0009775162 -0.9157448
vn -0.4076245 -0.910068 0.07495713
vn -0.9980445 -0.06158358 0.01070825
vn -0.9999995 0.0009775162 0
vn -0.9980445 0.01075268 0.06157584
vn -0.4056695 0.910068 0.08490269
vn -0.4017594 0.0009775162 -0.9157448
vn -0.9980445 -0.01075268 -0.06157584
vn -0.9999995 0.0009775162 0
vn -0.9980445 -0.06158358 0.01070825
vn -0.4154446 -0.002932549 0.9096138
vn -0.4056695 0.910068 0.08490269
vn 0.9608989 0.02248287 0.2759852
vn 0.9604474 -0.2784613 0
vn 0.5894425 0.05962849 0.8056066
vn 0.5894425 -0.8044962 0.07309882
vn 0.9608989 -0.02248287 -0.2759852
vn 0.5894425 -0.05962849 -0.8056066
vn 0.9604474 0.2784613 0
vn 0.5894425 0.8044962 -0.07309882
vn -0.8260015 0.0009775162 0.5636671
vn -0.8233859 0.5674819 0
vn -0.1006842 0.0009775162 0.9949179
vn -0.1006842 0.9941344 0.0394897
vn -0.9999995 0.0009775162 0
vn -0.8233859 0.5674819 0
vn -0.8260015 0.0009775162 0.5636671
vn -0.8201364 -0.5718472 -0.01915765
vn -0.8240465 0.004887581 -0.5665011
vn -0.8240465 0.004887581 -0.5665011
vn -0.8201364 -0.5718472 -0.01915765
vn -0.1006842 0.01270771 -0.9948373
vn -0.1006842 -0.9941344 -0.0394897
vn -0.8233859 0.5674819 0
vn -0.8240465 0.004887581 -0.5665011
vn -0.1006842 0.9941344 0.0394897
vn -0.1006842 0.01270771 -0.9948373
vn -0.8260015 0.0009775162 0.5636671
vn -0.1006842 0.0009775162 0.9949179
vn -0.8201364 -0.5718472 -0.01915765
vn -0.1006842 -0.9941344 -0.0394897
g TireK_Small_LF_LOD2_0
f 3/3/3 2/2/2 1/1/1
f 4/4/4 2/2/2 3/3/3
f 5/5/5 2/2/2 4/4/4
f 1/1/1 2/2/2 5/5/5
f 8/8/8 7/7/7 6/6/6
f 8/8/8 9/9/9 7/7/7
f 10/10/10 6/6/6 7/7/7
f 10/10/10 7/7/7 11/11/11
f 12/12/12 10/10/10 11/11/11
f 12/12/12 11/11/11 13/13/13
f 16/16/16 15/15/15 14/14/14
f 16/16/16 17/17/17 15/15/15
f 18/18/18 14/14/14 15/15/15
f 18/18/18 15/15/15 19/19/19
f 20/20/20 18/18/18 19/19/19
f 20/20/20 19/19/19 21/21/21
f 24/24/24 23/23/23 22/22/22
f 24/24/24 25/25/25 23/23/23
f 22/22/22 23/23/23 26/26/26
f 22/22/22 26/26/26 27/27/27
f 27/27/27 26/26/26 28/28/28
f 27/27/27 28/28/28 29/29/29
f 32/32/32 31/31/31 30/30/30
f 32/32/32 33/33/33 31/31/31
f 30/30/30 31/31/31 34/34/34
f 30/30/30 34/34/34 35/35/35
f 35/35/35 34/34/34 36/36/36
f 35/35/35 36/36/36 37/37/37
f 40/40/40 39/39/39 38/38/38
f 40/40/40 38/38/38 41/41/41
f 40/40/40 41/41/41 42/42/42
f 45/45/45 44/44/44 43/43/43
f 45/45/45 43/43/43 46/46/46
f 45/45/45 46/46/46 47/47/47
f 50/50/50 49/49/49 48/48/48
f 50/50/50 48/48/48 51/51/51
f 50/50/50 51/51/51 52/52/52
f 55/55/55 54/54/54 53/53/53
f 55/55/55 53/53/53 56/56/56
f 55/55/55 56/56/56 57/57/57
f 60/60/60 59/59/59 58/58/58
f 60/60/60 61/61/61 59/59/59
f 61/61/61 62/62/62 59/59/59
f 62/62/62 58/58/58 59/59/59
f 61/61/61 63/63/63 62/62/62
f 63/63/63 64/64/64 62/62/62
f 64/64/64 58/58/58 62/62/62
f 63/63/63 65/65/65 64/64/64
f 65/65/65 58/58/58 64/64/64
f 65/65/65 60/60/60 58/58/58
f 68/68/68 67/67/67 66/66/66
f 68/68/68 69/69/69 67/67/67
f 72/72/72 71/71/71 70/70/70
f 73/73/73 72/72/72 70/70/70
f 74/74/74 73/73/73 70/70/70
f 71/71/71 74/74/74 70/70/70
f 77/77/77 76/76/76 75/75/75
f 77/77/77 78/78/78 76/76/76
f 81/81/81 80/80/80 79/79/79
f 81/81/81 82/82/82 80/80/80
f 85/85/85 84/84/84 83/83/83
f 85/85/85 86/86/86 84/84/84
