g TireK_StdDot_LF_LOD1
v -0.04017076 0.1387985 0.1112488
v -0.04017076 0.1112488 0.1112488
v -0.04017076 0.1387985 0.05614986
v -0.04017076 5.960464E-08 5.960464E-08
v -0.04017076 0.05310775 0.1387981
v -0.04017076 0.1112488 0.1387981
v -0.04017076 5.960464E-08 0.1387981
v -0.04017076 5.960464E-08 0.1663478
v -0.04017076 0.05310775 0.1663478
v -0.04017076 0.1387981 -2.831221E-07
v -0.04017076 0.1663478 5.960464E-08
v -0.04017076 0.1663478 0.05614986
v 0.1876096 0.1387981 -2.831221E-07
v 0.1876096 0.1387985 0.05614986
v 0.1876096 0.1663478 5.960464E-08
v 0.1876096 0.1663478 0.05614986
v 0.1876096 5.960464E-08 5.960464E-08
v 0.1876096 0.1112488 0.1112488
v 0.1876096 0.05310775 0.1387981
v 0.1876096 0.1112488 0.1387981
v 0.1876096 0.1387985 0.1112488
v 0.1876096 5.960464E-08 0.1387981
v 0.1876096 5.960464E-08 0.1663478
v 0.1876096 0.05310775 0.1663478
v -0.04017076 0.05310775 0.1387981
v 0.1876096 0.05310775 0.1387981
v -0.04017076 0.05310775 0.1663478
v 0.1876096 0.05310775 0.1663478
v 0.1876096 0.1112488 0.1387981
v -0.04017076 0.1112488 0.1387981
v 0.1876096 0.1112488 0.1112488
v -0.04017076 0.1112488 0.1112488
v 0.1876096 0.1387985 0.1112488
v -0.04017076 0.1387985 0.1112488
v 0.1876096 0.1387985 0.05614986
v -0.04017076 0.1387985 0.05614986
v 0.1876096 0.1663478 0.05614986
v -0.04017076 0.1663478 0.05614986
v -0.04017076 0.1663478 5.960464E-08
v 0.1876096 0.1663478 5.960464E-08
v -0.04017076 5.960464E-08 0.1663478
v 0.1876096 5.960464E-08 0.1663478
v -0.04017076 -0.1112487 0.1387985
v -0.04017076 -0.1112487 0.1112488
v -0.04017076 -0.05615006 0.1387985
v -0.04017076 5.960464E-08 5.960464E-08
v -0.04017076 -0.1387983 0.05310775
v -0.04017076 -0.1387983 0.1112488
v -0.04017076 -0.1387983 5.960464E-08
v -0.04017076 -0.1663477 5.960464E-08
v -0.04017076 -0.1663477 0.05310775
v -0.04017076 5.960464E-08 0.1387981
v -0.04017076 5.960464E-08 0.1663478
v -0.04017076 -0.05615006 0.1663478
v 0.1876096 5.960464E-08 0.1387981
v 0.1876096 -0.05615006 0.1387985
v 0.1876096 5.960464E-08 0.1663478
v 0.1876096 -0.05615006 0.1663478
v 0.1876096 5.960464E-08 5.960464E-08
v 0.1876096 -0.1112487 0.1112488
v 0.1876096 -0.1387983 0.05310775
v 0.1876096 -0.1387983 0.1112488
v 0.1876096 -0.1112487 0.1387985
v 0.1876096 -0.1387983 5.960464E-08
v 0.1876096 -0.1663477 5.960464E-08
v 0.1876096 -0.1663477 0.05310775
v -0.04017076 -0.1387983 0.05310775
v 0.1876096 -0.1387983 0.05310775
v -0.04017076 -0.1663477 0.05310775
v 0.1876096 -0.1663477 0.05310775
v 0.1876096 -0.1387983 0.1112488
v -0.04017076 -0.1387983 0.1112488
v 0.1876096 -0.1112487 0.1112488
v -0.04017076 -0.1112487 0.1112488
v 0.1876096 -0.1112487 0.1387985
v -0.04017076 -0.1112487 0.1387985
v 0.1876096 -0.05615006 0.1387985
v -0.04017076 -0.05615006 0.1387985
v 0.1876096 -0.05615006 0.1663478
v -0.04017076 -0.05615006 0.1663478
v -0.04017076 5.960464E-08 0.1663478
v 0.1876096 5.960464E-08 0.1663478
v -0.04017076 -0.1663477 5.960464E-08
v 0.1876096 -0.1663477 5.960464E-08
v -0.04017076 -0.1387983 -0.1112487
v -0.04017076 -0.111249 -0.1112487
v -0.04017076 -0.1387983 -0.05615006
v -0.04017076 5.960464E-08 5.960464E-08
v -0.04017076 -0.05310798 -0.1387983
v -0.04017076 -0.111249 -0.1387983
v -0.04017076 -2.831221E-07 -0.1387983
v -0.04017076 5.960464E-08 -0.1663477
v -0.04017076 -0.05310798 -0.1663477
v -0.04017076 -0.1387983 5.960464E-08
v -0.04017076 -0.1663477 5.960464E-08
v -0.04017076 -0.1663477 -0.05615006
v 0.1876096 -0.1387983 5.960464E-08
v 0.1876096 -0.1387983 -0.05615006
v 0.1876096 -0.1663477 5.960464E-08
v 0.1876096 -0.1663477 -0.05615006
v 0.1876096 5.960464E-08 5.960464E-08
v 0.1876096 -0.111249 -0.1112487
v 0.1876096 -0.05310798 -0.1387983
v 0.1876096 -0.111249 -0.1387983
v 0.1876096 -0.1387983 -0.1112487
v 0.1876096 -2.831221E-07 -0.1387983
v 0.1876096 5.960464E-08 -0.1663477
v 0.1876096 -0.05310798 -0.1663477
v -0.04017076 -0.05310798 -0.1387983
v 0.1876096 -0.05310798 -0.1387983
v -0.04017076 -0.05310798 -0.1663477
v 0.1876096 -0.05310798 -0.1663477
v 0.1876096 -0.111249 -0.1387983
v -0.04017076 -0.111249 -0.1387983
v 0.1876096 -0.111249 -0.1112487
v -0.04017076 -0.111249 -0.1112487
v 0.1876096 -0.1387983 -0.1112487
v -0.04017076 -0.1387983 -0.1112487
v 0.1876096 -0.1387983 -0.05615006
v -0.04017076 -0.1387983 -0.05615006
v 0.1876096 -0.1663477 -0.05615006
v -0.04017076 -0.1663477 -0.05615006
v -0.04017076 -0.1663477 5.960464E-08
v 0.1876096 -0.1663477 5.960464E-08
v -0.04017076 5.960464E-08 -0.1663477
v 0.1876096 5.960464E-08 -0.1663477
v -0.04017076 0.1112488 -0.1387983
v -0.04017076 0.1112488 -0.111249
v -0.04017076 0.05614986 -0.1387983
v -0.04017076 5.960464E-08 5.960464E-08
v -0.04017076 0.1387981 -0.05310798
v -0.04017076 0.1387981 -0.111249
v -0.04017076 0.1387981 -2.831221E-07
v -0.04017076 0.1663478 5.960464E-08
v -0.04017076 0.1663478 -0.05310798
v -0.04017076 -2.831221E-07 -0.1387983
v -0.04017076 5.960464E-08 -0.1663477
v -0.04017076 0.05614986 -0.1663477
v 0.1876096 -2.831221E-07 -0.1387983
v 0.1876096 0.05614986 -0.1387983
v 0.1876096 5.960464E-08 -0.1663477
v 0.1876096 0.05614986 -0.1663477
v 0.1876096 5.960464E-08 5.960464E-08
v 0.1876096 0.1112488 -0.111249
v 0.1876096 0.1387981 -0.05310798
v 0.1876096 0.1387981 -0.111249
v 0.1876096 0.1112488 -0.1387983
v 0.1876096 0.1387981 -2.831221E-07
v 0.1876096 0.1663478 5.960464E-08
v 0.1876096 0.1663478 -0.05310798
v -0.04017076 0.1387981 -0.05310798
v 0.1876096 0.1387981 -0.05310798
v -0.04017076 0.1663478 -0.05310798
v 0.1876096 0.1663478 -0.05310798
v 0.1876096 0.1387981 -0.111249
v -0.04017076 0.1387981 -0.111249
v 0.1876096 0.1112488 -0.111249
v -0.04017076 0.1112488 -0.111249
v 0.1876096 0.1112488 -0.1387983
v -0.04017076 0.1112488 -0.1387983
v 0.1876096 0.05614986 -0.1387983
v -0.04017076 0.05614986 -0.1387983
v 0.1876096 0.05614986 -0.1663477
v -0.04017076 0.05614986 -0.1663477
v -0.04017076 5.960464E-08 -0.1663477
v 0.1876096 5.960464E-08 -0.1663477
v 0.1876096 0.1663478 5.960464E-08
v -0.04017076 0.1663478 5.960464E-08
vt 0.3231404 0.4003384
vt 0.3231404 0.3238985
vt 0.1702759 0.4003384
vt 0.01450048 0.01527367
vt 0.3995652 0.1626046
vt 0.3995652 0.3238985
vt 0.3995652 0.01527367
vt 0.476005 0.01396986
vt 0.476005 0.1613159
vt 0.01450048 0.4003384
vt 0.01450048 0.476763
vt 0.1702759 0.476763
vt 0.9869331 0.3977459
vt 0.8311577 0.3977459
vt 0.9869331 0.4741857
vt 0.8311577 0.4741857
vt 0.9869331 0.0126812
vt 0.6782932 0.3213212
vt 0.6018685 0.1600121
vt 0.6018685 0.3213212
vt 0.6782932 0.3977459
vt 0.6018685 0.0126812
vt 0.5254286 0.0126812
vt 0.5254286 0.1600121
vt 0.1701849 0.9708477
vt 0.1701849 0.5623295
vt 0.1300851 0.9708477
vt 0.1300851 0.5623295
vt 0.2767944 0.5623295
vt 0.2767944 0.9708477
vt 0.3223521 0.5623295
vt 0.3223521 0.9708477
vt 0.3742924 0.5623295
vt 0.3742924 0.9708477
vt 0.4617692 0.5623295
vt 0.4617692 0.9708477
vt 0.5118902 0.5623295
vt 0.5118902 0.9708477
vt 0.6095852 0.9708477
vt 0.6095852 0.5623295
vt 0.04350275 0.9708477
vt 0.04350275 0.5623295
vt 1.323135 0.4003384
vt 1.323135 0.3238985
vt 1.170286 0.4003384
vt 1.01451 0.01527367
vt 1.399575 0.1626046
vt 1.399575 0.3238985
vt 1.399575 0.01527367
vt 1.476 0.01396986
vt 1.476 0.1613159
vt 1.01451 0.4003384
vt 1.01451 0.476763
vt 1.170286 0.476763
vt 1.986928 0.3977459
vt 1.831152 0.3977459
vt 1.986928 0.4741857
vt 1.831152 0.4741857
vt 1.986928 0.0126812
vt 1.678288 0.3213212
vt 1.601863 0.1600121
vt 1.601863 0.3213212
vt 1.678288 0.3977459
vt 1.601863 0.0126812
vt 1.525439 0.0126812
vt 1.525439 0.1600121
vt 1.17018 0.9708477
vt 1.17018 0.5623295
vt 1.130095 0.9708477
vt 1.130095 0.5623295
vt 1.276789 0.5623295
vt 1.276789 0.9708477
vt 1.322362 0.5623295
vt 1.322362 0.9708477
vt 1.374287 0.5623295
vt 1.374287 0.9708477
vt 1.461764 0.5623295
vt 1.461764 0.9708477
vt 1.511885 0.5623295
vt 1.511885 0.9708477
vt 1.609595 0.9708477
vt 1.609595 0.5623295
vt 1.043497 0.9708477
vt 1.043497 0.5623295
vt 2.323145 0.4003384
vt 2.323145 0.3238985
vt 2.17028 0.4003384
vt 2.014505 0.01527367
vt 2.39957 0.1626046
vt 2.39957 0.3238985
vt 2.39957 0.01527367
vt 2.475994 0.01396986
vt 2.475994 0.1613159
vt 2.014505 0.4003384
vt 2.014505 0.476763
vt 2.17028 0.476763
vt 2.986938 0.3977459
vt 2.831162 0.3977459
vt 2.986938 0.4741857
vt 2.831162 0.4741857
vt 2.986938 0.0126812
vt 2.678298 0.3213212
vt 2.601858 0.1600121
vt 2.601858 0.3213212
vt 2.678298 0.3977459
vt 2.601858 0.0126812
vt 2.525433 0.0126812
vt 2.525433 0.1600121
vt 2.170189 0.9708477
vt 2.170189 0.5623295
vt 2.13009 0.9708477
vt 2.13009 0.5623295
vt 2.276799 0.5623295
vt 2.276799 0.9708477
vt 2.322357 0.5623295
vt 2.322357 0.9708477
vt 2.374297 0.5623295
vt 2.374297 0.9708477
vt 2.461774 0.5623295
vt 2.461774 0.9708477
vt 2.51188 0.5623295
vt 2.51188 0.9708477
vt 2.60959 0.9708477
vt 2.60959 0.5623295
vt 2.043507 0.9708477
vt 2.043507 0.5623295
vt 3.32314 0.4003384
vt 3.32314 0.3238985
vt 3.170275 0.4003384
vt 3.0145 0.01527367
vt 3.399564 0.1626046
vt 3.399564 0.3238985
vt 3.399564 0.01527367
vt 3.476004 0.01396986
vt 3.476004 0.1613159
vt 3.0145 0.4003384
vt 3.0145 0.476763
vt 3.170275 0.476763
vt 3.986932 0.3977459
vt 3.831157 0.3977459
vt 3.986932 0.4741857
vt 3.831157 0.4741857
vt 3.986932 0.0126812
vt 3.678292 0.3213212
vt 3.601868 0.1600121
vt 3.601868 0.3213212
vt 3.678292 0.3977459
vt 3.601868 0.0126812
vt 3.525428 0.0126812
vt 3.525428 0.1600121
vt 3.170184 0.9708477
vt 3.170184 0.5623295
vt 3.130084 0.9708477
vt 3.130084 0.5623295
vt 3.276794 0.5623295
vt 3.276794 0.9708477
vt 3.322351 0.5623295
vt 3.322351 0.9708477
vt 3.374292 0.5623295
vt 3.374292 0.9708477
vt 3.461768 0.5623295
vt 3.461768 0.9708477
vt 3.511889 0.5623295
vt 3.511889 0.9708477
vt 3.609585 0.9708477
vt 3.609585 0.5623295
vt 3.043502 0.5623295
vt 3.043502 0.9708477
vn -0.9999995 0.0009775162 0
vn -0.9999995 0.0009775162 0
vn -0.9999995 0.0009775162 0
vn -0.9999995 0.0009775162 0
vn -0.9999995 0.0009775162 0
vn -0.9999995 0.0009775162 0
vn -0.9999995 0.0009775162 0
vn -0.9999995 0.0009775162 0
vn -0.9999995 0.0009775162 0
vn -0.9999995 0.0009775162 0
vn -0.9999995 0.0009775162 0
vn -0.9999995 0.0009775162 0
vn 0.9999995 0.0009775162 0
vn 0.9999995 0.0009775162 0
vn 0.9999995 0.0009775162 0
vn 0.9999995 0.0009775162 0
vn 0.9999995 0.0009775162 0
vn 0.9999995 0.0009775162 0
vn 0.9999995 0.0009775162 0
vn 0.9999995 0.0009775162 0
vn 0.9999995 0.0009775162 0
vn 0.9999995 0.0009775162 0
vn 0.9999995 0.0009775162 0
vn 0.9999995 0.0009775162 0
vn -0.0009775162 0.4291298 0.9032423
vn -0.0009775162 0.4291298 0.9032423
vn -0.0009775162 0.4604104 0.8877056
vn -0.0009775162 0.4604104 0.8877056
vn -0.0009775162 0.4291298 0.9032423
vn -0.0009775162 0.4291298 0.9032423
vn -0.0009775162 0.7067446 0.7074682
vn -0.0009775162 0.7067446 0.7074682
vn -0.0009775162 0.8944278 0.4472114
vn -0.0009775162 0.8944278 0.4472114
vn -0.0009775162 0.8944278 0.4472114
vn -0.0009775162 0.8944278 0.4472114
vn -0.0009775162 0.8983378 0.4393042
vn -0.0009775162 0.8983378 0.4393042
vn -0.0009775162 0.9999995 0
vn -0.0009775162 0.9999995 0
vn -0.0009775162 0.0009775162 0.999999
vn -0.0009775162 0.0009775162 0.999999
vn -0.9999995 0.0009775162 0
vn -0.9999995 0.0009775162 0
vn -0.9999995 0.0009775162 0
vn -0.9999995 0.0009775162 0
vn -0.9999995 0.0009775162 0
vn -0.9999995 0.0009775162 0
vn -0.9999995 0.0009775162 0
vn -0.9999995 0.0009775162 0
vn -0.9999995 0.0009775162 0
vn -0.9999995 0.0009775162 0
vn -0.9999995 0.0009775162 0
vn -0.9999995 0.0009775162 0
vn 0.9999995 0.0009775162 0
vn 0.9999995 0.0009775162 0
vn 0.9999995 0.0009775162 0
vn 0.9999995 0.0009775162 0
vn 0.9999995 0.0009775162 0
vn 0.9999995 0.0009775162 0
vn 0.9999995 0.0009775162 0
vn 0.9999995 0.0009775162 0
vn 0.9999995 0.0009775162 0
vn 0.9999995 0.0009775162 0
vn 0.9999995 0.0009775162 0
vn 0.9999995 0.0009775162 0
vn -0.0009775162 -0.9042029 0.4271021
vn -0.0009775162 -0.9042029 0.4271021
vn -0.0009775162 -0.8885626 0.4587543
vn -0.0009775162 -0.8885626 0.4587543
vn -0.0009775162 -0.9042029 0.4271021
vn -0.0009775162 -0.9042029 0.4271021
vn -0.0009775162 -0.7067446 0.7074682
vn -0.0009775162 -0.7067446 0.7074682
vn -0.0009775162 -0.4467251 0.8946707
vn -0.0009775162 -0.4467251 0.8946707
vn -0.0009775162 -0.4467251 0.8946707
vn -0.0009775162 -0.4467251 0.8946707
vn -0.0009775162 -0.44086 0.8975753
vn -0.0009775162 -0.44086 0.8975753
vn -0.0009775162 0.0009775162 0.999999
vn -0.0009775162 0.0009775162 0.999999
vn -0.0009775162 -0.9999995 0
vn -0.0009775162 -0.9999995 0
vn -0.9999995 0.0009775162 0
vn -0.9999995 0.0009775162 0
vn -0.9999995 0.0009775162 0
vn -0.9999995 0.0009775162 0
vn -0.9999995 0.0009775162 0
vn -0.9999995 0.0009775162 0
vn -0.9999995 0.0009775162 0
vn -0.9999995 0.0009775162 0
vn -0.9999995 0.0009775162 0
vn -0.9999995 0.0009775162 0
vn -0.9999995 0.0009775162 0
vn -0.9999995 0.0009775162 0
vn 0.9999995 0.0009775162 0
vn 0.9999995 0.0009775162 0
vn 0.9999995 0.0009775162 0
vn 0.9999995 0.0009775162 0
vn 0.9999995 0.0009775162 0
vn 0.9999995 0.0009775162 0
vn 0.9999995 0.0009775162 0
vn 0.9999995 0.0009775162 0
vn 0.9999995 0.0009775162 0
vn 0.9999995 0.0009775162 0
vn 0.9999995 0.0009775162 0
vn 0.9999995 0.0009775162 0
vn -0.0009775162 -0.4291298 -0.9032423
vn -0.0009775162 -0.4291298 -0.9032423
vn -0.0009775162 -0.4604104 -0.8877056
vn -0.0009775162 -0.4604104 -0.8877056
vn -0.0009775162 -0.4291298 -0.9032423
vn -0.0009775162 -0.4291298 -0.9032423
vn -0.0009775162 -0.7067446 -0.7074682
vn -0.0009775162 -0.7067446 -0.7074682
vn -0.0009775162 -0.8944277 -0.4472114
vn -0.0009775162 -0.8944277 -0.4472114
vn -0.0009775162 -0.8944277 -0.4472114
vn -0.0009775162 -0.8944277 -0.4472114
vn -0.0009775162 -0.8983378 -0.4393043
vn -0.0009775162 -0.8983378 -0.4393043
vn -0.0009775162 -0.9999995 0
vn -0.0009775162 -0.9999995 0
vn -0.0009775162 0.0009775162 -0.999999
vn -0.0009775162 0.0009775162 -0.999999
vn -0.9999995 0.0009775162 0
vn -0.9999995 0.0009775162 0
vn -0.9999995 0.0009775162 0
vn -0.9999995 0.0009775162 0
vn -0.9999995 0.0009775162 0
vn -0.9999995 0.0009775162 0
vn -0.9999995 0.0009775162 0
vn -0.9999995 0.0009775162 0
vn -0.9999995 0.0009775162 0
vn -0.9999995 0.0009775162 0
vn -0.9999995 0.0009775162 0
vn -0.9999995 0.0009775162 0
vn 0.9999995 0.0009775162 0
vn 0.9999995 0.0009775162 0
vn 0.9999995 0.0009775162 0
vn 0.9999995 0.0009775162 0
vn 0.9999995 0.0009775162 0
vn 0.9999995 0.0009775162 0
vn 0.9999995 0.0009775162 0
vn 0.9999995 0.0009775162 0
vn 0.9999995 0.0009775162 0
vn 0.9999995 0.0009775162 0
vn 0.9999995 0.0009775162 0
vn 0.9999995 0.0009775162 0
vn -0.0009775162 0.9042029 -0.427102
vn -0.0009775162 0.9042029 -0.427102
vn -0.0009775162 0.8885627 -0.4587542
vn -0.0009775162 0.8885627 -0.4587542
vn -0.0009775162 0.9042029 -0.427102
vn -0.0009775162 0.9042029 -0.427102
vn -0.0009775162 0.7067446 -0.7074682
vn -0.0009775162 0.7067446 -0.7074682
vn -0.0009775162 0.4467251 -0.8946707
vn -0.0009775162 0.4467251 -0.8946707
vn -0.0009775162 0.4467251 -0.8946707
vn -0.0009775162 0.4467251 -0.8946707
vn -0.0009775162 0.44086 -0.8975753
vn -0.0009775162 0.44086 -0.8975753
vn -0.0009775162 0.0009775162 -0.999999
vn -0.0009775162 0.0009775162 -0.999999
vn -0.0009775162 0.9999995 0
vn -0.0009775162 0.9999995 0
g TireK_StdDot_LF_LOD1_0
f 3/3/3 2/2/2 1/1/1
f 3/3/3 4/4/4 2/2/2
f 5/5/5 2/2/2 4/4/4
f 5/5/5 6/6/6 2/2/2
f 4/4/4 7/7/7 5/5/5
f 8/8/8 5/5/5 7/7/7
f 8/8/8 9/9/9 5/5/5
f 10/10/10 4/4/4 3/3/3
f 3/3/3 11/11/11 10/10/10
f 3/3/3 12/12/12 11/11/11
f 15/15/15 14/14/14 13/13/13
f 15/15/15 16/16/16 14/14/14
f 17/17/17 13/13/13 14/14/14
f 14/14/14 18/18/18 17/17/17
f 19/19/19 17/17/17 18/18/18
f 19/19/19 18/18/18 20/20/20
f 14/14/14 21/21/21 18/18/18
f 22/22/22 17/17/17 19/19/19
f 19/19/19 23/23/23 22/22/22
f 19/19/19 24/24/24 23/23/23
f 27/27/27 26/26/26 25/25/25
f 27/27/27 28/28/28 26/26/26
f 25/25/25 26/26/26 29/29/29
f 25/25/25 29/29/29 30/30/30
f 30/30/30 29/29/29 31/31/31
f 30/30/30 31/31/31 32/32/32
f 32/32/32 31/31/31 33/33/33
f 32/32/32 33/33/33 34/34/34
f 34/34/34 33/33/33 35/35/35
f 34/34/34 35/35/35 36/36/36
f 36/36/36 35/35/35 37/37/37
f 36/36/36 37/37/37 38/38/38
f 37/37/37 39/39/39 38/38/38
f 37/37/37 40/40/40 39/39/39
f 28/28/28 27/27/27 41/41/41
f 28/28/28 41/41/41 42/42/42
f 45/45/45 44/44/44 43/43/43
f 45/45/45 46/46/46 44/44/44
f 47/47/47 44/44/44 46/46/46
f 47/47/47 48/48/48 44/44/44
f 46/46/46 49/49/49 47/47/47
f 50/50/50 47/47/47 49/49/49
f 50/50/50 51/51/51 47/47/47
f 52/52/52 46/46/46 45/45/45
f 45/45/45 53/53/53 52/52/52
f 45/45/45 54/54/54 53/53/53
f 57/57/57 56/56/56 55/55/55
f 57/57/57 58/58/58 56/56/56
f 59/59/59 55/55/55 56/56/56
f 56/56/56 60/60/60 59/59/59
f 61/61/61 59/59/59 60/60/60
f 61/61/61 60/60/60 62/62/62
f 56/56/56 63/63/63 60/60/60
f 64/64/64 59/59/59 61/61/61
f 61/61/61 65/65/65 64/64/64
f 61/61/61 66/66/66 65/65/65
f 69/69/69 68/68/68 67/67/67
f 69/69/69 70/70/70 68/68/68
f 67/67/67 68/68/68 71/71/71
f 67/67/67 71/71/71 72/72/72
f 72/72/72 71/71/71 73/73/73
f 72/72/72 73/73/73 74/74/74
f 74/74/74 73/73/73 75/75/75
f 74/74/74 75/75/75 76/76/76
f 76/76/76 75/75/75 77/77/77
f 76/76/76 77/77/77 78/78/78
f 78/78/78 77/77/77 79/79/79
f 78/78/78 79/79/79 80/80/80
f 79/79/79 81/81/81 80/80/80
f 79/79/79 82/82/82 81/81/81
f 70/70/70 69/69/69 83/83/83
f 70/70/70 83/83/83 84/84/84
f 87/87/87 86/86/86 85/85/85
f 87/87/87 88/88/88 86/86/86
f 89/89/89 86/86/86 88/88/88
f 89/89/89 90/90/90 86/86/86
f 88/88/88 91/91/91 89/89/89
f 92/92/92 89/89/89 91/91/91
f 92/92/92 93/93/93 89/89/89
f 94/94/94 88/88/88 87/87/87
f 87/87/87 95/95/95 94/94/94
f 87/87/87 96/96/96 95/95/95
f 99/99/99 98/98/98 97/97/97
f 99/99/99 100/100/100 98/98/98
f 101/101/101 97/97/97 98/98/98
f 98/98/98 102/102/102 101/101/101
f 103/103/103 101/101/101 102/102/102
f 103/103/103 102/102/102 104/104/104
f 98/98/98 105/105/105 102/102/102
f 106/106/106 101/101/101 103/103/103
f 103/103/103 107/107/107 106/106/106
f 103/103/103 108/108/108 107/107/107
f 111/111/111 110/110/110 109/109/109
f 111/111/111 112/112/112 110/110/110
f 109/109/109 110/110/110 113/113/113
f 109/109/109 113/113/113 114/114/114
f 114/114/114 113/113/113 115/115/115
f 114/114/114 115/115/115 116/116/116
f 116/116/116 115/115/115 117/117/117
f 116/116/116 117/117/117 118/118/118
f 118/118/118 117/117/117 119/119/119
f 118/118/118 119/119/119 120/120/120
f 120/120/120 119/119/119 121/121/121
f 120/120/120 121/121/121 122/122/122
f 121/121/121 123/123/123 122/122/122
f 121/121/121 124/124/124 123/123/123
f 112/112/112 111/111/111 125/125/125
f 112/112/112 125/125/125 126/126/126
f 129/129/129 128/128/128 127/127/127
f 129/129/129 130/130/130 128/128/128
f 131/131/131 128/128/128 130/130/130
f 131/131/131 132/132/132 128/128/128
f 130/130/130 133/133/133 131/131/131
f 134/134/134 131/131/131 133/133/133
f 134/134/134 135/135/135 131/131/131
f 136/136/136 130/130/130 129/129/129
f 129/129/129 137/137/137 136/136/136
f 129/129/129 138/138/138 137/137/137
f 141/141/141 140/140/140 139/139/139
f 141/141/141 142/142/142 140/140/140
f 143/143/143 139/139/139 140/140/140
f 140/140/140 144/144/144 143/143/143
f 145/145/145 143/143/143 144/144/144
f 145/145/145 144/144/144 146/146/146
f 140/140/140 147/147/147 144/144/144
f 148/148/148 143/143/143 145/145/145
f 145/145/145 149/149/149 148/148/148
f 145/145/145 150/150/150 149/149/149
f 153/153/153 152/152/152 151/151/151
f 153/153/153 154/154/154 152/152/152
f 151/151/151 152/152/152 155/155/155
f 151/151/151 155/155/155 156/156/156
f 156/156/156 155/155/155 157/157/157
f 156/156/156 157/157/157 158/158/158
f 158/158/158 157/157/157 159/159/159
f 158/158/158 159/159/159 160/160/160
f 160/160/160 159/159/159 161/161/161
f 160/160/160 161/161/161 162/162/162
f 162/162/162 161/161/161 163/163/163
f 162/162/162 163/163/163 164/164/164
f 163/163/163 165/165/165 164/164/164
f 163/163/163 166/166/166 165/165/165
f 167/167/167 154/154/154 153/153/153
f 167/167/167 153/153/153 168/168/168
