g Tire_Rear_LOD0
v -2.384676 0.2449923 -6.943784
v -2.384676 0.6077156 -7.486648
v -3.935314 0.6077156 -7.486648
v -3.935314 0.2449923 -6.943784
v -3.935314 1.15058 -7.849371
v -2.384676 1.15058 -7.849371
v -3.935314 1.790931 -7.976751
v -2.384676 1.790931 -7.976751
v -3.935314 2.431282 -7.849371
v -2.384676 2.431282 -7.849371
v -3.935314 2.974146 -7.486648
v -2.384676 2.974146 -7.486648
v -3.935314 3.336881 -6.943784
v -2.384676 3.336881 -6.943784
v -3.935314 3.464261 -6.303433
v -2.384676 3.464261 -6.303433
v -2.384676 0.1176128 -6.303433
v -3.935314 0.1176128 -6.303433
v -2.384676 0.2449923 -5.663071
v -3.935314 0.2449923 -5.663071
v -2.384676 0.6077156 -5.120206
v -3.935314 0.6077156 -5.120206
v -2.384676 1.15058 -4.757483
v -3.935314 1.15058 -4.757483
v -2.384676 1.790931 -4.630103
v -3.935314 1.790931 -4.630103
v -2.384676 2.431282 -4.757483
v -3.935314 2.431293 -4.757483
v -2.384676 2.974146 -5.120206
v -3.935314 2.974146 -5.120206
v -2.384676 3.336881 -5.663071
v -3.935314 3.336881 -5.663071
v -2.384676 3.464261 -6.303433
v -3.935314 3.464261 -6.303433
v -4.042292 2.919724 -5.174629
v -4.042292 3.265769 -5.692529
v -4.042292 3.387292 -6.303433
v -4.042292 0.6621389 -5.174629
v -4.042292 1.180038 -4.828584
v -4.042292 1.790931 -4.707072
v -4.042292 2.401835 -4.828584
v -4.042292 0.3160934 -5.692529
v -4.042292 0.194582 -6.303433
v -4.042292 0.3160934 -6.914326
v -4.042292 0.6621389 -7.432225
v -4.042292 1.180038 -7.778271
v -4.042292 1.790931 -7.899782
v -4.042292 2.401835 -7.778271
v -4.042292 2.919724 -7.432225
v -4.042292 3.265769 -6.914326
v -4.042292 3.387292 -6.303433
v -2.384676 2.974146 -7.486648
v -2.384676 2.974146 -5.120206
v -2.384676 3.336881 -5.663071
v -2.384676 3.336881 -6.943784
v -2.384676 2.431282 -4.757483
v -2.384676 2.431282 -7.849371
v -2.384676 1.790931 -7.976751
v -2.384676 1.790931 -4.630103
v -2.384676 3.464261 -6.303433
v -2.384676 1.15058 -7.849371
v -2.384676 1.15058 -4.757483
v -2.384676 0.6077156 -7.486648
v -2.384676 0.6077156 -5.120206
v -2.384676 0.2449923 -6.943784
v -2.384676 0.2449923 -5.663071
v -2.384676 0.1176128 -6.303433
v -4.042292 1.790931 -7.899782
v -4.042292 1.790931 -6.303433
v -4.042292 1.180038 -7.778271
v -4.042292 2.401835 -7.778271
v -4.042292 2.919724 -7.432225
v -4.042292 3.265769 -6.914326
v -4.042292 3.387292 -6.303433
v -4.042292 3.265769 -5.692529
v -4.042292 2.919724 -5.174629
v -4.042292 2.401835 -4.828584
v -4.042292 1.790931 -4.707072
v -4.042292 1.180038 -4.828584
v -4.042292 0.6621389 -5.174629
v -4.042292 0.3160934 -5.692529
v -4.042292 0.194582 -6.303433
v -4.042292 0.3160934 -6.914326
v -4.042292 0.6621389 -7.432225
v 2.38468 0.2449923 -6.943784
v 3.935306 0.2449923 -6.943784
v 3.935306 0.6077156 -7.486648
v 2.38468 0.6077156 -7.486648
v 3.935306 1.15058 -7.849371
v 2.38468 1.15058 -7.849371
v 3.935306 1.790931 -7.976751
v 2.38468 1.790931 -7.976751
v 3.935306 2.431282 -7.849371
v 2.38468 2.431282 -7.849371
v 3.935306 2.974146 -7.486648
v 2.38468 2.974146 -7.486648
v 3.935306 3.336881 -6.943784
v 2.38468 3.336881 -6.943784
v 3.935306 3.464261 -6.303433
v 2.38468 3.464261 -6.303433
v 2.38468 0.1176128 -6.303433
v 4.042295 3.387292 -6.303433
v 4.042295 3.265769 -6.914326
v 4.042295 2.919724 -7.432225
v 4.042295 2.401835 -7.778271
v 4.042295 1.790931 -7.899782
v 2.38468 0.2449923 -5.663071
v 3.935306 0.1176128 -6.303433
v 3.935306 0.2449923 -5.663071
v 2.38468 0.6077156 -5.120206
v 3.935306 0.6077156 -5.120206
v 2.38468 1.15058 -4.757483
v 3.935306 1.15058 -4.757483
v 2.38468 1.790931 -4.630103
v 3.935306 1.790931 -4.630103
v 2.38468 2.431282 -4.757483
v 3.935306 2.431293 -4.757483
v 2.38468 2.974146 -5.120206
v 3.935306 2.974146 -5.120206
v 2.38468 3.336881 -5.663071
v 3.935306 3.336881 -5.663071
v 2.38468 3.464261 -6.303433
v 3.935306 3.464261 -6.303433
v 4.042295 2.919724 -5.174629
v 4.042295 3.265769 -5.692529
v 4.042295 3.387292 -6.303433
v 4.042295 0.6621389 -5.174629
v 4.042295 0.3160934 -5.692529
v 4.042295 0.194582 -6.303433
v 4.042295 0.3160934 -6.914326
v 4.042295 0.6621389 -7.432225
v 4.042295 1.180038 -7.778271
v 4.042295 1.180038 -4.828584
v 4.042295 1.790931 -4.707072
v 4.042295 2.401835 -4.828584
v 2.38468 2.974146 -7.486648
v 2.38468 3.336881 -6.943784
v 2.38468 3.336881 -5.663071
v 2.38468 2.974146 -5.120206
v 2.38468 2.431282 -4.757483
v 2.38468 2.431282 -7.849371
v 2.38468 1.790931 -7.976751
v 2.38468 1.790931 -4.630103
v 2.38468 3.464261 -6.303433
v 2.38468 1.15058 -7.849371
v 2.38468 1.15058 -4.757483
v 2.38468 0.6077156 -7.486648
v 2.38468 0.6077156 -5.120206
v 2.38468 0.2449923 -6.943784
v 2.38468 0.2449923 -5.663071
v 2.38468 0.1176128 -6.303433
v 4.042295 1.790931 -7.899782
v 4.042295 1.180038 -7.778271
v 4.042295 1.790931 -6.303433
v 4.042295 2.401835 -7.778271
v 4.042295 2.919724 -7.432225
v 4.042295 3.265769 -6.914326
v 4.042295 3.387292 -6.303433
v 4.042295 3.265769 -5.692529
v 4.042295 2.919724 -5.174629
v 4.042295 2.401835 -4.828584
v 4.042295 1.790931 -4.707072
v 4.042295 1.180038 -4.828584
v 4.042295 0.6621389 -5.174629
v 4.042295 0.3160934 -5.692529
v 4.042295 0.194582 -6.303433
v 4.042295 0.3160934 -6.914326
v 4.042295 0.6621389 -7.432225
vt 0.4617578 0.8169739
vt 0.4846842 0.8169739
vt 0.4846842 0.8443049
vt 0.4617578 0.8443049
vt 0.5076106 0.8443049
vt 0.5076106 0.8169739
vt 0.5305371 0.8443049
vt 0.5305371 0.8169739
vt 0.5534635 0.8443049
vt 0.5534635 0.8169739
vt 0.5763899 0.8443049
vt 0.5763899 0.8169739
vt 0.5993164 0.8443049
vt 0.5993164 0.8169739
vt 0.6213102 0.8443049
vt 0.6213102 0.8169739
vt 0.4388314 0.8169739
vt 0.4388314 0.8443049
vt 0.4159049 0.8169739
vt 0.4159049 0.8443049
vt 0.3929785 0.8169739
vt 0.3929785 0.8443049
vt 0.3700377 0.8169739
vt 0.3700377 0.8443049
vt 0.3471113 0.8169739
vt 0.3471113 0.8443049
vt 0.3241849 0.8169739
vt 0.3241849 0.8443049
vt 0.3012584 0.8169739
vt 0.3012584 0.8443049
vt 0.2783751 0.8169739
vt 0.2783751 0.8443049
vt 0.2562234 0.8169739
vt 0.2562234 0.8443049
vt 0.3012584 0.8490394
vt 0.2783751 0.8490394
vt 0.2562234 0.8490394
vt 0.3929785 0.8490394
vt 0.3700377 0.8490394
vt 0.3471113 0.8490394
vt 0.3241849 0.8490394
vt 0.4159049 0.8490394
vt 0.4388314 0.8490394
vt 0.4617578 0.8490394
vt 0.4846842 0.8490394
vt 0.5076106 0.8490394
vt 0.5305371 0.8490394
vt 0.5534635 0.8490394
vt 0.5763899 0.8490394
vt 0.5993164 0.8490394
vt 0.6213102 0.8490394
vt 0.05327144 0.8089396
vt 0.08337133 0.8089396
vt 0.07647045 0.813545
vt 0.06018667 0.813545
vt 0.08799105 0.8020244
vt 0.04866606 0.8020244
vt 0.04704486 0.7938897
vt 0.08961226 0.7938897
vt 0.06832138 0.8151662
vt 0.04866606 0.7857406
vt 0.08799105 0.7857406
vt 0.05327144 0.7788398
vt 0.08337133 0.7788398
vt 0.06018667 0.77422
vt 0.07647045 0.77422
vt 0.06832138 0.7725988
vt 0.3179727 0.9292818
vt 0.2599967 0.9292818
vt 0.3135682 0.9071015
vt 0.3135682 0.9514766
vt 0.3010002 0.9702854
vt 0.282177 0.9828534
vt 0.2599967 0.9872722
vt 0.2378019 0.9828534
vt 0.2189931 0.9702854
vt 0.2064251 0.9514766
vt 0.2020063 0.9292818
vt 0.2064251 0.9071015
vt 0.2189931 0.8882783
vt 0.2378019 0.8757104
vt 0.2599967 0.8712915
vt 0.282177 0.8757104
vt 0.3010002 0.8882783
vt 0.4617578 0.8169739
vt 0.4617578 0.8443049
vt 0.4846842 0.8443049
vt 0.4846842 0.8169739
vt 0.5076106 0.8443049
vt 0.5076106 0.8169739
vt 0.5305371 0.8443049
vt 0.5305371 0.8169739
vt 0.5534635 0.8443049
vt 0.5534635 0.8169739
vt 0.5763899 0.8443049
vt 0.5763899 0.8169739
vt 0.5993164 0.8443049
vt 0.5993164 0.8169739
vt 0.6213102 0.8443049
vt 0.6213102 0.8169739
vt 0.4388314 0.8169739
vt 0.6213102 0.8490394
vt 0.5993164 0.8490394
vt 0.5763899 0.8490394
vt 0.5534635 0.8490394
vt 0.5305371 0.8490394
vt 0.4159049 0.8169739
vt 0.4388314 0.8443049
vt 0.4159049 0.8443049
vt 0.3929785 0.8169739
vt 0.3929785 0.8443049
vt 0.3700377 0.8169739
vt 0.3700377 0.8443049
vt 0.3471113 0.8169739
vt 0.3471113 0.8443049
vt 0.3241849 0.8169739
vt 0.3241849 0.8443049
vt 0.3012584 0.8169739
vt 0.3012584 0.8443049
vt 0.2783751 0.8169739
vt 0.2783751 0.8443049
vt 0.2562234 0.8169739
vt 0.2562234 0.8443049
vt 0.3012584 0.8490394
vt 0.2783751 0.8490394
vt 0.2562234 0.8490394
vt 0.3929785 0.8490394
vt 0.4159049 0.8490394
vt 0.4388314 0.8490394
vt 0.4617578 0.8490394
vt 0.4846842 0.8490394
vt 0.5076106 0.8490394
vt 0.3700377 0.8490394
vt 0.3471113 0.8490394
vt 0.3241849 0.8490394
vt 0.05327144 0.8089396
vt 0.06018667 0.813545
vt 0.07647045 0.813545
vt 0.08337133 0.8089396
vt 0.08799105 0.8020244
vt 0.04866606 0.8020244
vt 0.04704486 0.7938897
vt 0.08961226 0.7938897
vt 0.06832138 0.8151662
vt 0.04866606 0.7857406
vt 0.08799105 0.7857406
vt 0.05327144 0.7788398
vt 0.08337133 0.7788398
vt 0.06018667 0.77422
vt 0.07647045 0.77422
vt 0.06832138 0.7725988
vt 0.3179727 0.9292818
vt 0.3135682 0.9071015
vt 0.2599967 0.9292818
vt 0.3135682 0.9514766
vt 0.3010002 0.9702854
vt 0.282177 0.9828534
vt 0.2599967 0.9872722
vt 0.2378019 0.9828534
vt 0.2189931 0.9702854
vt 0.2064251 0.9514766
vt 0.2020063 0.9292818
vt 0.2064251 0.9071015
vt 0.2189931 0.8882783
vt 0.2378019 0.8757104
vt 0.2599967 0.8712915
vt 0.282177 0.8757104
vt 0.3010002 0.8882783
vn 0.4799607 -0.8103613 -0.3360839
vn 0.7556204 -0.4643204 -0.4620005
vn -0.0420332 -0.7067446 -0.7062191
vn -0.0420332 -0.9237532 -0.3806747
vn -0.0420332 -0.382209 -0.9231194
vn 0.853372 -0.2003909 -0.481248
vn -0.0420332 0.0009775162 -0.9991157
vn 0.8768324 0.0009775162 -0.4807951
vn -0.0420332 0.3822091 -0.9231194
vn 0.853372 0.2003909 -0.481248
vn -0.0420332 0.7067446 -0.7062191
vn 0.7556204 0.4643204 -0.4620005
vn -0.0420332 0.9237533 -0.3806746
vn 0.4799607 0.8103613 -0.3360839
vn -0.04199613 0.9991178 0
vn 0.0713165 0.9974537 0
vn 0.0713165 -0.9974537 0
vn -0.04199613 -0.9991178 0
vn 0.4799607 -0.8103613 0.3360839
vn -0.0420332 -0.9237532 0.3806747
vn 0.7556204 -0.4643204 0.4620005
vn -0.0420332 -0.7067446 0.7062191
vn 0.853372 -0.2003909 0.481248
vn -0.0420332 -0.382209 0.9231194
vn 0.8768324 0.0009775162 0.4807951
vn -0.0420332 0.0009775162 0.9991157
vn 0.853372 0.2003909 0.481248
vn -0.0420332 0.3822091 0.9231194
vn 0.7556204 0.4643204 0.4620005
vn -0.0420332 0.7067446 0.7062191
vn 0.4799607 0.8103613 0.3360839
vn -0.0420332 0.9237533 0.3806746
vn 0.0713165 0.9974537 0
vn -0.04199613 0.9991178 0
vn -0.9882693 0.1045942 0.1112823
vn -0.9882693 0.1378299 0.06577715
vn -0.9882693 0.1476051 -0.03919771
vn -0.9882693 -0.1045943 0.1112823
vn -0.9882693 -0.05767345 0.1414125
vn -0.9882693 0.0009775162 0.1527179
vn -0.9882693 0.05767345 0.1414125
vn -0.9882693 -0.1378298 0.06577726
vn -0.9882693 -0.147605 -0.03919793
vn -0.9882693 -0.1378298 -0.06577726
vn -0.9882693 -0.1045943 -0.1112823
vn -0.9882693 -0.05767345 -0.1414125
vn -0.9882693 0.0009775162 -0.1527179
vn -0.9882693 0.05767345 -0.1414125
vn -0.9882693 0.1045942 -0.1112823
vn -0.9882693 0.1378299 -0.06577715
vn -0.9882693 0.1476051 -0.03919771
vn 0.7556204 0.4643204 -0.4620005
vn 0.7556204 0.4643204 0.4620005
vn 0.4799607 0.8103613 0.3360839
vn 0.4799607 0.8103613 -0.3360839
vn 0.853372 0.2003909 0.481248
vn 0.853372 0.2003909 -0.481248
vn 0.8768324 0.0009775162 -0.4807951
vn 0.8768324 0.0009775162 0.4807951
vn 0.0713165 0.9974537 0
vn 0.853372 -0.2003909 -0.481248
vn 0.853372 -0.2003909 0.481248
vn 0.7556204 -0.4643204 -0.4620005
vn 0.7556204 -0.4643204 0.4620005
vn 0.4799607 -0.8103613 -0.3360839
vn 0.4799607 -0.8103613 0.3360839
vn 0.0713165 -0.9974537 0
vn -0.9882693 0.0009775162 -0.1527179
vn -0.9999995 0.0009775162 0
vn -0.9882693 -0.05767345 -0.1414125
vn -0.9882693 0.05767345 -0.1414125
vn -0.9882693 0.1045942 -0.1112823
vn -0.9882693 0.1378299 -0.06577715
vn -0.9882693 0.1476051 -0.03919771
vn -0.9882693 0.1378299 0.06577715
vn -0.9882693 0.1045942 0.1112823
vn -0.9882693 0.05767345 0.1414125
vn -0.9882693 0.0009775162 0.1527179
vn -0.9882693 -0.05767345 0.1414125
vn -0.9882693 -0.1045943 0.1112823
vn -0.9882693 -0.1378298 0.06577726
vn -0.9882693 -0.147605 -0.03919793
vn -0.9882693 -0.1378298 -0.06577726
vn -0.9882693 -0.1045943 -0.1112823
vn -0.4799607 -0.8103613 -0.3360839
vn 0.0420332 -0.9237532 -0.3806747
vn 0.0420332 -0.7067446 -0.7062191
vn -0.7556204 -0.4643204 -0.4620005
vn 0.0420332 -0.382209 -0.9231194
vn -0.853372 -0.2003909 -0.4812481
vn 0.0420332 0.0009775162 -0.9991157
vn -0.8768324 0.0009775162 -0.4807952
vn 0.0420332 0.3822091 -0.9231194
vn -0.853372 0.2003909 -0.4812481
vn 0.0420332 0.7067446 -0.7062191
vn -0.7556204 0.4643204 -0.4620005
vn 0.0420332 0.9237533 -0.3806746
vn -0.4799607 0.8103613 -0.3360839
vn 0.04199613 0.9991178 0
vn -0.07131644 0.9974537 0
vn -0.07131644 -0.9974537 0
vn 0.9882693 0.1476051 -0.03919771
vn 0.9882693 0.1378299 -0.06577715
vn 0.9882693 0.1045942 -0.1112823
vn 0.9882693 0.05767345 -0.1414125
vn 0.9882693 0.0009775162 -0.1527179
vn -0.4799607 -0.8103613 0.3360839
vn 0.04199613 -0.9991178 0
vn 0.0420332 -0.9237532 0.3806747
vn -0.7556204 -0.4643204 0.4620005
vn 0.0420332 -0.7067446 0.7062191
vn -0.853372 -0.2003909 0.4812481
vn 0.0420332 -0.382209 0.9231194
vn -0.8768324 0.0009775162 0.4807952
vn 0.0420332 0.0009775162 0.9991157
vn -0.853372 0.2003909 0.4812481
vn 0.0420332 0.3822091 0.9231194
vn -0.7556204 0.4643204 0.4620005
vn 0.0420332 0.7067446 0.7062191
vn -0.4799607 0.8103613 0.3360839
vn 0.0420332 0.9237533 0.3806746
vn -0.07131644 0.9974537 0
vn 0.04199613 0.9991178 0
vn 0.9882693 0.1045942 0.1112823
vn 0.9882693 0.1378299 0.06577715
vn 0.9882693 0.1476051 -0.03919771
vn 0.9882693 -0.1045943 0.1112823
vn 0.9882693 -0.1378298 0.06577726
vn 0.9882693 -0.147605 -0.03919793
vn 0.9882693 -0.1378298 -0.06577726
vn 0.9882693 -0.1045943 -0.1112823
vn 0.9882693 -0.05767345 -0.1414125
vn 0.9882693 -0.05767345 0.1414125
vn 0.9882693 0.0009775162 0.1527179
vn 0.9882693 0.05767345 0.1414125
vn -0.7556204 0.4643204 -0.4620005
vn -0.4799607 0.8103613 -0.3360839
vn -0.4799607 0.8103613 0.3360839
vn -0.7556204 0.4643204 0.4620005
vn -0.853372 0.2003909 0.4812481
vn -0.853372 0.2003909 -0.4812481
vn -0.8768324 0.0009775162 -0.4807952
vn -0.8768324 0.0009775162 0.4807952
vn -0.07131644 0.9974537 0
vn -0.853372 -0.2003909 -0.4812481
vn -0.853372 -0.2003909 0.4812481
vn -0.7556204 -0.4643204 -0.4620005
vn -0.7556204 -0.4643204 0.4620005
vn -0.4799607 -0.8103613 -0.3360839
vn -0.4799607 -0.8103613 0.3360839
vn -0.07131644 -0.9974537 0
vn 0.9882693 0.0009775162 -0.1527179
vn 0.9882693 -0.05767345 -0.1414125
vn 0.9999995 0.0009775162 0
vn 0.9882693 0.05767345 -0.1414125
vn 0.9882693 0.1045942 -0.1112823
vn 0.9882693 0.1378299 -0.06577715
vn 0.9882693 0.1476051 -0.03919771
vn 0.9882693 0.1378299 0.06577715
vn 0.9882693 0.1045942 0.1112823
vn 0.9882693 0.05767345 0.1414125
vn 0.9882693 0.0009775162 0.1527179
vn 0.9882693 -0.05767345 0.1414125
vn 0.9882693 -0.1045943 0.1112823
vn 0.9882693 -0.1378298 0.06577726
vn 0.9882693 -0.147605 -0.03919793
vn 0.9882693 -0.1378298 -0.06577726
vn 0.9882693 -0.1045943 -0.1112823
g Tire_Rear_LOD0_0
f 3/3/3 2/2/2 1/1/1
f 4/4/4 3/3/3 1/1/1
f 3/3/3 5/5/5 2/2/2
f 5/5/5 6/6/6 2/2/2
f 5/5/5 7/7/7 6/6/6
f 7/7/7 8/8/8 6/6/6
f 7/7/7 9/9/9 8/8/8
f 9/9/9 10/10/10 8/8/8
f 9/9/9 11/11/11 10/10/10
f 11/11/11 12/12/12 10/10/10
f 11/11/11 13/13/13 12/12/12
f 13/13/13 14/14/14 12/12/12
f 13/13/13 15/15/15 14/14/14
f 15/15/15 16/16/16 14/14/14
f 4/4/4 1/1/1 17/17/17
f 18/18/18 4/4/4 17/17/17
f 18/18/18 17/17/17 19/19/19
f 20/20/20 18/18/18 19/19/19
f 20/20/20 19/19/19 21/21/21
f 22/22/22 20/20/20 21/21/21
f 22/22/22 21/21/21 23/23/23
f 24/24/24 22/22/22 23/23/23
f 24/24/24 23/23/23 25/25/25
f 26/26/26 24/24/24 25/25/25
f 26/26/26 25/25/25 27/27/27
f 28/28/28 26/26/26 27/27/27
f 28/28/28 27/27/27 29/29/29
f 30/30/30 28/28/28 29/29/29
f 30/30/30 29/29/29 31/31/31
f 32/32/32 30/30/30 31/31/31
f 32/32/32 31/31/31 33/33/33
f 34/34/34 32/32/32 33/33/33
f 35/35/35 30/30/30 32/32/32
f 36/36/36 35/35/35 32/32/32
f 36/36/36 32/32/32 34/34/34
f 37/37/37 36/36/36 34/34/34
f 38/38/38 22/22/22 24/24/24
f 39/39/39 38/38/38 24/24/24
f 39/39/39 24/24/24 26/26/26
f 40/40/40 39/39/39 26/26/26
f 40/40/40 26/26/26 28/28/28
f 41/41/41 40/40/40 28/28/28
f 41/41/41 28/28/28 30/30/30
f 35/35/35 41/41/41 30/30/30
f 38/38/38 42/42/42 22/22/22
f 42/42/42 20/20/20 22/22/22
f 42/42/42 43/43/43 20/20/20
f 43/43/43 18/18/18 20/20/20
f 43/43/43 44/44/44 18/18/18
f 44/44/44 4/4/4 18/18/18
f 44/44/44 45/45/45 4/4/4
f 45/45/45 3/3/3 4/4/4
f 45/45/45 46/46/46 3/3/3
f 46/46/46 5/5/5 3/3/3
f 46/46/46 47/47/47 5/5/5
f 47/47/47 7/7/7 5/5/5
f 47/47/47 48/48/48 7/7/7
f 48/48/48 9/9/9 7/7/7
f 48/48/48 49/49/49 9/9/9
f 49/49/49 11/11/11 9/9/9
f 49/49/49 50/50/50 11/11/11
f 50/50/50 13/13/13 11/11/11
f 50/50/50 51/51/51 13/13/13
f 51/51/51 15/15/15 13/13/13
f 54/54/54 53/53/53 52/52/52
f 55/55/55 54/54/54 52/52/52
f 52/52/52 53/53/53 56/56/56
f 57/57/57 52/52/52 56/56/56
f 58/58/58 57/57/57 56/56/56
f 59/59/59 58/58/58 56/56/56
f 60/60/60 54/54/54 55/55/55
f 58/58/58 59/59/59 61/61/61
f 59/59/59 62/62/62 61/61/61
f 61/61/61 62/62/62 63/63/63
f 62/62/62 64/64/64 63/63/63
f 63/63/63 64/64/64 65/65/65
f 64/64/64 66/66/66 65/65/65
f 65/65/65 66/66/66 67/67/67
f 70/70/70 69/69/69 68/68/68
f 69/69/69 71/71/71 68/68/68
f 72/72/72 71/71/71 69/69/69
f 73/73/73 72/72/72 69/69/69
f 74/74/74 73/73/73 69/69/69
f 75/75/75 74/74/74 69/69/69
f 76/76/76 75/75/75 69/69/69
f 77/77/77 76/76/76 69/69/69
f 78/78/78 77/77/77 69/69/69
f 78/78/78 69/69/69 79/79/79
f 79/79/79 69/69/69 80/80/80
f 80/80/80 69/69/69 81/81/81
f 81/81/81 69/69/69 82/82/82
f 82/82/82 69/69/69 83/83/83
f 83/83/83 69/69/69 84/84/84
f 84/84/84 69/69/69 70/70/70
f 87/87/87 86/86/86 85/85/85
f 88/88/88 87/87/87 85/85/85
f 89/89/89 87/87/87 88/88/88
f 90/90/90 89/89/89 88/88/88
f 91/91/91 89/89/89 90/90/90
f 92/92/92 91/91/91 90/90/90
f 93/93/93 91/91/91 92/92/92
f 94/94/94 93/93/93 92/92/92
f 95/95/95 93/93/93 94/94/94
f 96/96/96 95/95/95 94/94/94
f 97/97/97 95/95/95 96/96/96
f 98/98/98 97/97/97 96/96/96
f 99/99/99 97/97/97 98/98/98
f 100/100/100 99/99/99 98/98/98
f 85/85/85 86/86/86 101/101/101
f 99/99/99 102/102/102 97/97/97
f 102/102/102 103/103/103 97/97/97
f 97/97/97 103/103/103 95/95/95
f 103/103/103 104/104/104 95/95/95
f 95/95/95 104/104/104 93/93/93
f 104/104/104 105/105/105 93/93/93
f 93/93/93 105/105/105 91/91/91
f 105/105/105 106/106/106 91/91/91
f 101/101/101 108/108/108 107/107/107
f 108/108/108 109/109/109 107/107/107
f 107/107/107 109/109/109 110/110/110
f 109/109/109 111/111/111 110/110/110
f 110/110/110 111/111/111 112/112/112
f 111/111/111 113/113/113 112/112/112
f 112/112/112 113/113/113 114/114/114
f 113/113/113 115/115/115 114/114/114
f 114/114/114 115/115/115 116/116/116
f 115/115/115 117/117/117 116/116/116
f 116/116/116 117/117/117 118/118/118
f 117/117/117 119/119/119 118/118/118
f 118/118/118 119/119/119 120/120/120
f 119/119/119 121/121/121 120/120/120
f 120/120/120 121/121/121 122/122/122
f 121/121/121 123/123/123 122/122/122
f 119/119/119 124/124/124 121/121/121
f 124/124/124 125/125/125 121/121/121
f 121/121/121 125/125/125 123/123/123
f 125/125/125 126/126/126 123/123/123
f 111/111/111 127/127/127 113/113/113
f 128/128/128 127/127/127 111/111/111
f 109/109/109 128/128/128 111/111/111
f 129/129/129 128/128/128 109/109/109
f 108/108/108 129/129/129 109/109/109
f 130/130/130 129/129/129 108/108/108
f 86/86/86 130/130/130 108/108/108
f 86/86/86 108/108/108 101/101/101
f 131/131/131 130/130/130 86/86/86
f 87/87/87 131/131/131 86/86/86
f 132/132/132 131/131/131 87/87/87
f 89/89/89 132/132/132 87/87/87
f 106/106/106 132/132/132 89/89/89
f 91/91/91 106/106/106 89/89/89
f 127/127/127 133/133/133 113/113/113
f 113/113/113 133/133/133 115/115/115
f 133/133/133 134/134/134 115/115/115
f 115/115/115 134/134/134 117/117/117
f 134/134/134 135/135/135 117/117/117
f 117/117/117 135/135/135 119/119/119
f 135/135/135 124/124/124 119/119/119
f 138/138/138 137/137/137 136/136/136
f 139/139/139 138/138/138 136/136/136
f 139/139/139 136/136/136 140/140/140
f 136/136/136 141/141/141 140/140/140
f 141/141/141 142/142/142 140/140/140
f 142/142/142 143/143/143 140/140/140
f 138/138/138 144/144/144 137/137/137
f 143/143/143 142/142/142 145/145/145
f 146/146/146 143/143/143 145/145/145
f 146/146/146 145/145/145 147/147/147
f 148/148/148 146/146/146 147/147/147
f 148/148/148 147/147/147 149/149/149
f 150/150/150 148/148/148 149/149/149
f 150/150/150 149/149/149 151/151/151
f 154/154/154 153/153/153 152/152/152
f 155/155/155 154/154/154 152/152/152
f 155/155/155 156/156/156 154/154/154
f 156/156/156 157/157/157 154/154/154
f 157/157/157 158/158/158 154/154/154
f 158/158/158 159/159/159 154/154/154
f 159/159/159 160/160/160 154/154/154
f 160/160/160 161/161/161 154/154/154
f 161/161/161 162/162/162 154/154/154
f 154/154/154 162/162/162 163/163/163
f 154/154/154 163/163/163 164/164/164
f 154/154/154 164/164/164 165/165/165
f 154/154/154 165/165/165 166/166/166
f 154/154/154 166/166/166 167/167/167
f 154/154/154 167/167/167 168/168/168
f 154/154/154 168/168/168 153/153/153
