g TireK_BigB_LF_LOD2
v 0.2962572 0.1329735 0.09703192
v 0.2962572 0.1502027 0.06718975
v 0.2800109 0.06049508 5.811453E-05
v 0.2800109 0.03019711 0.05241928
v 0.2817631 0.1400497 0.1318925
v 0.2817631 0.1839314 0.05588704
v 0.2962572 -0.01754552 0.1636746
v 0.2962572 0.01691356 0.1636746
v 0.2800109 0.03019711 0.05241928
v 0.2800109 -0.03029799 0.05236113
v 0.2817631 -0.04419735 0.187233
v 0.2817631 0.04356596 0.187233
v 0.2962572 -0.150519 0.06664261
v 0.2962572 -0.1332892 0.09648478
v 0.2800109 -0.03029799 0.05236113
v 0.2800109 -0.06049515 -5.817413E-05
v 0.2817631 -0.1842471 0.05533993
v 0.2817631 -0.1403654 0.1313454
v 0.2962572 -0.1329736 -0.09703201
v 0.2962572 -0.1502028 -0.06718928
v 0.2800109 -0.06049515 -5.817413E-05
v 0.2800109 -0.0301972 -0.05241936
v 0.2817631 -0.1400492 -0.1318926
v 0.2817631 -0.1839314 -0.05588713
v 0.2962572 0.01754543 -0.1636741
v 0.2962572 -0.01691365 -0.1636741
v 0.2800109 -0.0301972 -0.05241936
v 0.2800109 0.03029791 -0.05236121
v 0.2817631 0.04419783 -0.1872325
v 0.2817631 -0.04356605 -0.1872325
v 0.2962572 0.1505189 -0.06664214
v 0.2962572 0.1332891 -0.09648487
v 0.2800109 0.03029791 -0.05236121
v 0.2800109 0.06049508 5.811453E-05
v 0.2817631 0.184247 -0.05534001
v 0.2817631 0.1403654 -0.1313454
v 0.2683599 0.2272886 0.1651349
v -0.06835988 0.2272886 0.1651349
v -0.06835988 0.280944 -2.980232E-08
v 0.2683599 0.280944 -2.980232E-08
v -0.06835988 -2.980232E-08 0.280944
v 0.2683599 -2.980232E-08 0.280944
v 0.2683599 -0.165135 0.2272886
v -0.06835988 -0.165135 0.2272886
v -0.06835988 -2.980232E-08 0.280944
v 0.2683599 -2.980232E-08 0.280944
v -0.06835988 -0.280944 -2.980232E-08
v 0.2683599 -0.280944 -2.980232E-08
v 0.2683599 -0.2272887 -0.165135
v -0.06835988 -0.2272887 -0.165135
v -0.06835988 -0.280944 -2.980232E-08
v 0.2683599 -0.280944 -2.980232E-08
v -0.06835988 -2.980232E-08 -0.280944
v 0.2683599 -2.980232E-08 -0.280944
v 0.2683599 0.1651349 -0.2272887
v -0.06835988 0.1651349 -0.2272887
v -0.06835988 -2.980232E-08 -0.280944
v 0.2683599 -2.980232E-08 -0.280944
v -0.06835988 0.280944 -2.980232E-08
v 0.2683599 0.280944 -2.980232E-08
v -0.06835988 0.2272886 0.1651349
v -0.06835988 -2.980232E-08 -2.980232E-08
v -0.06835988 0.280944 -2.980232E-08
v -0.06835988 -2.980232E-08 0.280944
v 0.2843598 0.2060311 -2.980232E-08
v 0.2843598 0.1666827 0.1211021
v 0.2683599 0.2272886 0.1651349
v 0.2683599 0.280944 -2.980232E-08
v 0.2683599 -2.980232E-08 0.280944
v 0.2843598 -2.980232E-08 0.2060311
v -0.06835988 -0.165135 0.2272886
v -0.06835988 -2.980232E-08 -2.980232E-08
v -0.06835988 -2.980232E-08 0.280944
v -0.06835988 -0.280944 -2.980232E-08
v 0.2843598 -2.980232E-08 0.2060311
v 0.2843598 -0.1211021 0.1666827
v 0.2683599 -0.165135 0.2272886
v 0.2683599 -2.980232E-08 0.280944
v 0.2683599 -0.280944 -2.980232E-08
v 0.2843598 -0.2060312 -2.980232E-08
v -0.06835988 -0.2272887 -0.165135
v -0.06835988 -2.980232E-08 -2.980232E-08
v -0.06835988 -0.280944 -2.980232E-08
v -0.06835988 -2.980232E-08 -0.280944
v 0.2843598 -0.2060312 -2.980232E-08
v 0.2843598 -0.1666828 -0.1211021
v 0.2683599 -0.2272887 -0.165135
v 0.2683599 -0.280944 -2.980232E-08
v 0.2683599 -2.980232E-08 -0.280944
v 0.2843598 -2.980232E-08 -0.2060312
v -0.06835988 0.1651349 -0.2272887
v -0.06835988 -2.980232E-08 -2.980232E-08
v -0.06835988 -2.980232E-08 -0.280944
v -0.06835988 0.280944 -2.980232E-08
v 0.2843598 -2.980232E-08 -0.2060312
v 0.2843598 0.1211021 -0.1666828
v 0.2683599 0.1651349 -0.2272887
v 0.2683599 -2.980232E-08 -0.280944
v 0.2683599 0.280944 -2.980232E-08
v 0.2843598 0.2060311 -2.980232E-08
v 0.2249999 -2.980232E-08 -2.980232E-08
v 0.2249999 0.07851347 -0.1080639
v 0.2249999 -2.980232E-08 -0.1335744
v 0.2249999 0.1335749 -2.980232E-08
v 0.2249999 -0.1080639 -0.078513
v 0.2249999 -0.1335744 -2.980232E-08
v 0.2249999 -0.078513 0.1080644
v 0.2249999 -2.980232E-08 0.1335749
v 0.2249999 0.1080644 0.07851347
v 0.2997377 -2.980232E-08 -2.980232E-08
v 0.2997377 0.03451276 0.05977738
v 0.2997377 0.06902552 -2.980232E-08
v 0.2997377 -0.03451282 0.05977738
v 0.2997377 -0.06902505 -2.980232E-08
v 0.2997377 -0.03451282 -0.05977745
v 0.2997377 0.03451276 -0.05977745
v 0.2249999 -2.980232E-08 0.1335749
v 0.267342 -2.980232E-08 0.1721181
v 0.267342 0.1392467 0.1011687
v 0.2249999 0.1080644 0.07851347
v 0.267342 0.1721181 -2.980232E-08
v 0.2249999 0.1335749 -2.980232E-08
v 0.2883597 0.1515312 0.110094
v 0.2883597 0.1873033 -2.980232E-08
v 0.2883597 -2.980232E-08 0.1873033
v 0.2883597 0.1515312 0.110094
v 0.2843598 0.1666827 0.1211021
v 0.2843598 0.2060311 -2.980232E-08
v 0.2883597 0.1873033 -2.980232E-08
v 0.2883597 -2.980232E-08 0.1873033
v 0.2843598 -2.980232E-08 0.2060311
v 0.2249999 -0.1335744 -2.980232E-08
v 0.267342 -0.1721182 -2.980232E-08
v 0.267342 -0.1011688 0.1392467
v 0.2249999 -0.078513 0.1080644
v 0.267342 -2.980232E-08 0.1721181
v 0.2249999 -2.980232E-08 0.1335749
v 0.2883597 -0.1100941 0.1515312
v 0.2883597 -2.980232E-08 0.1873033
v 0.2883597 -0.1873034 -2.980232E-08
v 0.2883597 -0.1100941 0.1515312
v 0.2843598 -0.1211021 0.1666827
v 0.2843598 -2.980232E-08 0.2060311
v 0.2883597 -2.980232E-08 0.1873033
v 0.2883597 -0.1873034 -2.980232E-08
v 0.2843598 -0.2060312 -2.980232E-08
v 0.2249999 -2.980232E-08 -0.1335744
v 0.267342 -2.980232E-08 -0.1721182
v 0.267342 -0.1392468 -0.1011688
v 0.2249999 -0.1080639 -0.078513
v 0.267342 -0.1721182 -2.980232E-08
v 0.2249999 -0.1335744 -2.980232E-08
v 0.2883597 -0.1515313 -0.1100941
v 0.2883597 -0.1873034 -2.980232E-08
v 0.2883597 -2.980232E-08 -0.1873034
v 0.2883597 -0.1515313 -0.1100941
v 0.2843598 -0.1666828 -0.1211021
v 0.2843598 -0.2060312 -2.980232E-08
v 0.2883597 -0.1873034 -2.980232E-08
v 0.2883597 -2.980232E-08 -0.1873034
v 0.2843598 -2.980232E-08 -0.2060312
v 0.2249999 0.1335749 -2.980232E-08
v 0.267342 0.1721181 -2.980232E-08
v 0.267342 0.1011687 -0.1392468
v 0.2249999 0.07851347 -0.1080639
v 0.267342 -2.980232E-08 -0.1721182
v 0.2249999 -2.980232E-08 -0.1335744
v 0.2883597 0.110094 -0.1515313
v 0.2883597 -2.980232E-08 -0.1873034
v 0.2883597 0.1873033 -2.980232E-08
v 0.2883597 0.110094 -0.1515313
v 0.2843598 0.1211021 -0.1666828
v 0.2843598 -2.980232E-08 -0.2060312
v 0.2883597 -2.980232E-08 -0.1873034
v 0.2883597 0.1873033 -2.980232E-08
v 0.2843598 0.2060311 -2.980232E-08
vt 0.9356414 0.08378092
vt 0.9356414 0.03921727
vt 0.6896942 0.03921727
vt 0.6896942 0.08378092
vt 0.9817629 0.08378092
vt 0.9817629 0.03921727
vt 1.935646 0.08378092
vt 1.935646 0.03921727
vt 1.689698 0.03921727
vt 1.689698 0.08378092
vt 1.981756 0.08378092
vt 1.981756 0.03921727
vt 2.93565 0.08378092
vt 2.93565 0.03921727
vt 2.689703 0.03921727
vt 2.689703 0.08378092
vt 2.98176 0.08378092
vt 2.98176 0.03921727
vt 3.935642 0.08378092
vt 3.935642 0.03921727
vt 3.689695 0.03921727
vt 3.689695 0.08378092
vt 3.981764 0.08378092
vt 3.981764 0.03921727
vt 4.935647 0.08378092
vt 4.935647 0.03921727
vt 4.6897 0.03921727
vt 4.6897 0.08378092
vt 4.981757 0.08378092
vt 4.981757 0.03921727
vt 5.935651 0.08378092
vt 5.935651 0.03921727
vt 5.689692 0.03921727
vt 5.689692 0.08378092
vt 5.981761 0.08378092
vt 5.981761 0.03921727
vt 0.2911912 0.6150424
vt 0.2911912 0.955052
vt 0.4615542 0.955052
vt 0.4615542 0.6150424
vt 0.0418099 0.955052
vt 0.0418099 0.6150424
vt 1.291195 0.6150424
vt 1.291195 0.955052
vt 1.461547 0.955052
vt 1.461547 0.6150424
vt 1.041814 0.955052
vt 1.041814 0.6150424
vt 2.291188 0.6150424
vt 2.291188 0.955052
vt 2.461551 0.955052
vt 2.461551 0.6150424
vt 2.041818 0.955052
vt 2.041818 0.6150424
vt 3.291192 0.6150424
vt 3.291192 0.955052
vt 3.461555 0.955052
vt 3.461555 0.6150424
vt 3.041811 0.955052
vt 3.041811 0.6150424
vt 0.2865404 0.3868683
vt 0.01999998 0.01999998
vt 0.01999998 0.4734712
vt 0.4734712 0.01999998
vt 0.9769984 0.3597594
vt 0.7772977 0.2948755
vt 0.709969 0.3875392
vt 0.9769984 0.4743013
vt 0.522697 0.01999998
vt 0.6372389 0.01999998
vt 1.286545 0.3868683
vt 1.020004 0.01999998
vt 1.020004 0.4734712
vt 1.473464 0.01999998
vt 0.6383647 0.9793636
vt 0.7032486 0.7796516
vt 0.6105849 0.7123342
vt 0.5238228 0.9793636
vt 0.9781241 0.5250623
vt 0.9781241 0.6395928
vt 2.286537 0.3868683
vt 2.019997 0.01999998
vt 2.019997 0.4734712
vt 2.473468 0.01999998
vt 2.976995 0.3597594
vt 2.777295 0.2948755
vt 2.709966 0.3875392
vt 2.976995 0.4743013
vt 2.522705 0.01999998
vt 2.637236 0.01999998
vt 3.286541 0.3868683
vt 3.020001 0.01999998
vt 3.020001 0.4734712
vt 3.473472 0.01999998
vt 2.638362 0.9793636
vt 2.703257 0.7796516
vt 2.610593 0.7123342
vt 2.523831 0.9793636
vt 2.978121 0.5250623
vt 2.978121 0.6395928
vt 0.2815598 0.4910852
vt 0.3265783 0.5238
vt 0.3372104 0.4910852
vt 0.2815598 0.5467357
vt 0.3142747 0.4460667
vt 0.2815598 0.435446
vt 0.2365413 0.4583817
vt 0.2259206 0.4910852
vt 0.2488563 0.5361037
vt 0.8522224 0.8633776
vt 0.7423769 0.9267946
vt 0.8522224 0.9902117
vt 0.7423769 0.7999605
vt 0.8522224 0.7365434
vt 0.962068 0.7999605
vt 0.962068 0.9267946
vt 0.3794202 0.366855
vt 0.3794202 0.5095065
vt 0.5294174 0.5095065
vt 0.5294174 0.366855
vt 0.6294156 0.5095065
vt 0.6294156 0.366855
vt 0.5294174 0.5576407
vt 0.6294156 0.5576407
vt 0.3794202 0.5576407
vt 0.7625607 0.4776217
vt 0.7625607 0.5258241
vt 0.8238627 0.5258241
vt 0.8238627 0.4776217
vt 0.670602 0.4776217
vt 0.670602 0.5258241
vt 1.379413 0.366855
vt 1.379413 0.5095065
vt 1.529422 0.5095065
vt 1.529422 0.366855
vt 1.62942 0.5095065
vt 1.62942 0.366855
vt 1.529422 0.5576407
vt 1.62942 0.5576407
vt 1.379413 0.5576407
vt 1.762553 0.4776217
vt 1.762553 0.5258241
vt 1.823867 0.5258241
vt 1.823867 0.4776217
vt 1.670595 0.4776217
vt 1.670595 0.5258241
vt 2.379417 0.366855
vt 2.379417 0.5095065
vt 2.529414 0.5095065
vt 2.529414 0.366855
vt 2.629412 0.5095065
vt 2.629412 0.366855
vt 2.529414 0.5576407
vt 2.629412 0.5576407
vt 2.379417 0.5576407
vt 2.762558 0.4776217
vt 2.762558 0.5258241
vt 2.82386 0.5258241
vt 2.82386 0.4776217
vt 2.670599 0.4776217
vt 2.670599 0.5258241
vt 3.379421 0.366855
vt 3.379421 0.5095065
vt 3.529418 0.5095065
vt 3.529418 0.366855
vt 3.629417 0.5095065
vt 3.629417 0.366855
vt 3.529418 0.5576407
vt 3.629417 0.5576407
vt 3.379421 0.5576407
vt 3.762562 0.4776217
vt 3.762562 0.5258241
vt 3.823864 0.5258241
vt 3.823864 0.4776217
vt 3.670603 0.4776217
vt 3.670603 0.5258241
vn 0.9980445 0.05376339 0.03188576
vn 0.9980445 0.05376339 0.03188576
vn 0.9902244 -0.1241446 -0.06359123
vn 0.9902244 -0.1241446 -0.06359123
vn 0.851417 0.4545453 0.2616824
vn 0.851417 0.4545453 0.2616824
vn 0.9980445 0.0009775162 0.06249999
vn 0.9980445 0.0009775162 0.06249999
vn 0.9902244 0.0009775162 -0.1394804
vn 0.9902244 0.0009775162 -0.1394804
vn 0.851417 0.0009775162 0.5244884
vn 0.851417 0.0009775162 0.5244884
vn 0.9980445 -0.05376339 0.03188576
vn 0.9980445 -0.05376339 0.03188576
vn 0.9902244 0.1260996 -0.05962068
vn 0.9902244 0.1260996 -0.05962068
vn 0.851417 -0.4545453 0.2616824
vn 0.851417 -0.4545453 0.2616824
vn 0.9980445 -0.05376339 -0.03188576
vn 0.9980445 -0.05376339 -0.03188576
vn 0.9902244 0.1241446 0.06359135
vn 0.9902244 0.1241446 0.06359135
vn 0.851417 -0.4545453 -0.2616824
vn 0.851417 -0.4545453 -0.2616824
vn 0.9980445 -0.0009775162 -0.06249999
vn 0.9980445 -0.0009775162 -0.06249999
vn 0.9902244 -0.0009775162 0.1394804
vn 0.9902244 -0.0009775162 0.1394804
vn 0.851417 0.0009775162 -0.5244884
vn 0.851417 0.0009775162 -0.5244884
vn 0.9980445 0.05376339 -0.03188576
vn 0.9980445 0.05376339 -0.03188576
vn 0.9902244 -0.1260996 0.05962056
vn 0.9902244 -0.1260996 0.05962056
vn 0.851417 0.4545453 -0.2616824
vn 0.851417 0.4545453 -0.2616824
vn 0.1378298 0.7008795 0.6998364
vn -0.2922775 0.675464 0.676995
vn -0.2922775 0.9452586 -0.1451208
vn 0.1378298 0.9784942 -0.153467
vn -0.2922775 0.1495601 0.9445664
vn 0.1378298 0.1534702 0.9784937
vn 0.1378298 -0.7008795 0.6998364
vn -0.2922775 -0.675464 0.676995
vn -0.2922775 0.1495601 0.9445664
vn 0.1378298 0.1534702 0.9784937
vn -0.2922775 -0.9452586 0.1451208
vn 0.1378298 -0.9784942 0.153467
vn 0.1378298 -0.7008795 -0.6998364
vn -0.2922775 -0.675464 -0.676995
vn -0.2922775 -0.9452586 0.1451208
vn 0.1378298 -0.9784942 0.153467
vn -0.2922775 -0.14956 -0.9445664
vn 0.1378298 -0.1534701 -0.9784937
vn 0.1378298 0.7008795 -0.6998364
vn -0.2922775 0.675464 -0.676995
vn -0.2922775 -0.14956 -0.9445664
vn 0.1378298 -0.1534701 -0.9784937
vn -0.2922775 0.9452586 -0.1451208
vn 0.1378298 0.9784942 -0.153467
vn -0.2922775 0.675464 0.676995
vn -0.9999995 0.0009775162 0
vn -0.2922775 0.9452586 -0.1451208
vn -0.2922775 0.1495601 0.9445664
vn 0.9765391 0.2082111 -0.05494991
vn 0.9765391 0.1476051 0.1567931
vn 0.1378298 0.7008795 0.6998364
vn 0.1378298 0.9784942 -0.153467
vn 0.1378298 0.1534702 0.9784937
vn 0.9765391 0.0361681 0.212281
vn -0.2922775 -0.675464 0.676995
vn -0.9999995 0.0009775162 0
vn -0.2922775 0.1495601 0.9445664
vn -0.2922775 -0.9452586 0.1451208
vn 0.9765391 0.0361681 0.212281
vn 0.9765391 -0.1515151 0.1530181
vn 0.1378298 -0.7008795 0.6998364
vn 0.1378298 0.1534702 0.9784937
vn 0.1378298 -0.9784942 0.153467
vn 0.9765391 -0.2082111 0.05494991
vn -0.2922775 -0.675464 -0.676995
vn -0.9999995 0.0009775162 0
vn -0.2922775 -0.9452586 0.1451208
vn -0.2922775 -0.14956 -0.9445664
vn 0.9765391 -0.2082111 0.05494991
vn 0.9765391 -0.147605 -0.1567932
vn 0.1378298 -0.7008795 -0.6998364
vn 0.1378298 -0.9784942 0.153467
vn 0.1378298 -0.1534701 -0.9784937
vn 0.9765391 -0.0361681 -0.212281
vn -0.2922775 0.675464 -0.676995
vn -0.9999995 0.0009775162 0
vn -0.2922775 -0.14956 -0.9445664
vn -0.2922775 0.9452586 -0.1451208
vn 0.9765391 -0.0361681 -0.212281
vn 0.9765391 0.1515151 -0.153018
vn 0.1378298 0.7008795 -0.6998364
vn 0.1378298 -0.1534701 -0.9784937
vn 0.1378298 0.9784942 -0.153467
vn 0.9765391 0.2082111 -0.05494991
vn 0.9999995 0.0009775162 0
vn 0.8690123 -0.3528835 0.3468297
vn 0.8690123 0.08308887 0.4877641
vn 0.8690123 -0.4877808 0.08299094
vn 0.8690123 0.3450633 0.3546109
vn 0.8690123 0.4877808 -0.08299094
vn 0.8690123 0.3528835 -0.3468298
vn 0.8690123 -0.08308893 -0.4877641
vn 0.8690123 -0.3450634 -0.3546109
vn 0.9999995 0.0009775162 0
vn 0.9999995 0.0009775162 0
vn 0.9999995 0.0009775162 0
vn 0.9999995 0.0009775162 0
vn 0.9999995 0.0009775162 0
vn 0.9999995 0.0009775162 0
vn 0.9999995 0.0009775162 0
vn 0.8690123 -0.08308893 -0.4877641
vn 0.6324533 -0.1182795 -0.7655147
vn 0.6324533 -0.5503418 -0.5450934
vn 0.8690123 -0.3450634 -0.3546109
vn 0.6324533 -0.7653955 0.1190485
vn 0.8690123 -0.4877808 0.08299094
vn 0.9511237 -0.2238513 -0.2127305
vn 0.9511237 -0.3059627 0.04183915
vn 0.9511237 -0.04007816 -0.3061983
vn 0.9511237 -0.2238513 -0.2127305
vn 0.9784942 0.1534702 0.1378264
vn 0.9781017 0.2081276 0
vn 0.9511237 -0.3059627 0.04183915
vn 0.9511237 -0.04007816 -0.3061983
vn 0.9784942 0.02834797 0.2043174
vn 0.8690123 0.4877808 -0.08299094
vn 0.6324533 0.7653955 -0.1190485
vn 0.6324533 0.5444767 -0.5509518
vn 0.8690123 0.3528835 -0.3468298
vn 0.6324533 -0.1182795 -0.7655147
vn 0.8690123 -0.08308893 -0.4877641
vn 0.9511237 0.2121211 -0.2244288
vn 0.9511237 -0.04007816 -0.3061983
vn 0.9511237 0.3059627 -0.04183915
vn 0.9511237 0.2121211 -0.2244288
vn 0.9784942 -0.14565 0.146066
vn 0.9784942 0.02834797 0.2043174
vn 0.9511237 -0.04007816 -0.3061983
vn 0.9511237 0.3059627 -0.04183915
vn 0.9781017 -0.2081276 0
vn 0.8690123 0.08308887 0.4877641
vn 0.6324533 0.1182795 0.7655147
vn 0.6324533 0.5503418 0.5450934
vn 0.8690123 0.3450633 0.3546109
vn 0.6324533 0.7653955 -0.1190485
vn 0.8690123 0.4877808 -0.08299094
vn 0.9511237 0.2238513 0.2127305
vn 0.9511237 0.3059627 -0.04183915
vn 0.9511237 0.04007816 0.3061983
vn 0.9511237 0.2238513 0.2127305
vn 0.9784942 -0.1534701 -0.1378264
vn 0.9781017 -0.2081276 0
vn 0.9511237 0.3059627 -0.04183915
vn 0.9511237 0.04007816 0.3061983
vn 0.9784942 -0.02834797 -0.2043174
vn 0.8690123 -0.4877808 0.08299094
vn 0.6324533 -0.7653955 0.1190485
vn 0.6324533 -0.5444767 0.5509518
vn 0.8690123 -0.3528835 0.3468297
vn 0.6324533 0.1182795 0.7655147
vn 0.8690123 0.08308887 0.4877641
vn 0.9511237 -0.2121211 0.2244288
vn 0.9511237 0.04007816 0.3061983
vn 0.9511237 -0.3059627 0.04183915
vn 0.9511237 -0.2121211 0.2244288
vn 0.9784942 0.14565 -0.146066
vn 0.9784942 -0.02834797 -0.2043174
vn 0.9511237 0.04007816 0.3061983
vn 0.9511237 -0.3059627 0.04183915
vn 0.9781017 0.2081276 0
g TireK_BigB_LF_LOD2_0
f 3/3/3 2/2/2 1/1/1
f 4/4/4 3/3/3 1/1/1
f 5/5/5 1/1/1 2/2/2
f 6/6/6 5/5/5 2/2/2
f 9/9/9 8/8/8 7/7/7
f 10/10/10 9/9/9 7/7/7
f 11/11/11 7/7/7 8/8/8
f 12/12/12 11/11/11 8/8/8
f 15/15/15 14/14/14 13/13/13
f 16/16/16 15/15/15 13/13/13
f 17/17/17 13/13/13 14/14/14
f 18/18/18 17/17/17 14/14/14
f 21/21/21 20/20/20 19/19/19
f 22/22/22 21/21/21 19/19/19
f 23/23/23 19/19/19 20/20/20
f 24/24/24 23/23/23 20/20/20
f 27/27/27 26/26/26 25/25/25
f 28/28/28 27/27/27 25/25/25
f 29/29/29 25/25/25 26/26/26
f 30/30/30 29/29/29 26/26/26
f 33/33/33 32/32/32 31/31/31
f 34/34/34 33/33/33 31/31/31
f 35/35/35 31/31/31 32/32/32
f 36/36/36 35/35/35 32/32/32
f 39/39/39 38/38/38 37/37/37
f 40/40/40 39/39/39 37/37/37
f 38/38/38 41/41/41 37/37/37
f 41/41/41 42/42/42 37/37/37
f 45/45/45 44/44/44 43/43/43
f 46/46/46 45/45/45 43/43/43
f 44/44/44 47/47/47 43/43/43
f 47/47/47 48/48/48 43/43/43
f 51/51/51 50/50/50 49/49/49
f 52/52/52 51/51/51 49/49/49
f 50/50/50 53/53/53 49/49/49
f 53/53/53 54/54/54 49/49/49
f 57/57/57 56/56/56 55/55/55
f 58/58/58 57/57/57 55/55/55
f 56/56/56 59/59/59 55/55/55
f 59/59/59 60/60/60 55/55/55
f 63/63/63 62/62/62 61/61/61
f 61/61/61 62/62/62 64/64/64
f 67/67/67 66/66/66 65/65/65
f 68/68/68 67/67/67 65/65/65
f 67/67/67 69/69/69 66/66/66
f 69/69/69 70/70/70 66/66/66
f 73/73/73 72/72/72 71/71/71
f 71/71/71 72/72/72 74/74/74
f 77/77/77 76/76/76 75/75/75
f 78/78/78 77/77/77 75/75/75
f 77/77/77 79/79/79 76/76/76
f 79/79/79 80/80/80 76/76/76
f 83/83/83 82/82/82 81/81/81
f 81/81/81 82/82/82 84/84/84
f 87/87/87 86/86/86 85/85/85
f 88/88/88 87/87/87 85/85/85
f 87/87/87 89/89/89 86/86/86
f 89/89/89 90/90/90 86/86/86
f 93/93/93 92/92/92 91/91/91
f 94/94/94 91/91/91 92/92/92
f 97/97/97 96/96/96 95/95/95
f 98/98/98 97/97/97 95/95/95
f 97/97/97 99/99/99 96/96/96
f 99/99/99 100/100/100 96/96/96
f 103/103/103 102/102/102 101/101/101
f 102/102/102 104/104/104 101/101/101
f 105/105/105 103/103/103 101/101/101
f 106/106/106 105/105/105 101/101/101
f 107/107/107 106/106/106 101/101/101
f 108/108/108 107/107/107 101/101/101
f 104/104/104 109/109/109 101/101/101
f 109/109/109 108/108/108 101/101/101
f 112/112/112 111/111/111 110/110/110
f 111/111/111 113/113/113 110/110/110
f 113/113/113 114/114/114 110/110/110
f 114/114/114 115/115/115 110/110/110
f 115/115/115 116/116/116 110/110/110
f 110/110/110 116/116/116 112/112/112
f 119/119/119 118/118/118 117/117/117
f 120/120/120 119/119/119 117/117/117
f 121/121/121 119/119/119 120/120/120
f 122/122/122 121/121/121 120/120/120
f 123/123/123 119/119/119 121/121/121
f 124/124/124 123/123/123 121/121/121
f 125/125/125 118/118/118 119/119/119
f 123/123/123 125/125/125 119/119/119
f 128/128/128 127/127/127 126/126/126
f 129/129/129 128/128/128 126/126/126
f 126/126/126 127/127/127 130/130/130
f 127/127/127 131/131/131 130/130/130
f 134/134/134 133/133/133 132/132/132
f 135/135/135 134/134/134 132/132/132
f 136/136/136 134/134/134 135/135/135
f 137/137/137 136/136/136 135/135/135
f 138/138/138 134/134/134 136/136/136
f 139/139/139 138/138/138 136/136/136
f 140/140/140 133/133/133 134/134/134
f 138/138/138 140/140/140 134/134/134
f 143/143/143 142/142/142 141/141/141
f 144/144/144 143/143/143 141/141/141
f 141/141/141 142/142/142 145/145/145
f 142/142/142 146/146/146 145/145/145
f 149/149/149 148/148/148 147/147/147
f 150/150/150 149/149/149 147/147/147
f 151/151/151 149/149/149 150/150/150
f 152/152/152 151/151/151 150/150/150
f 153/153/153 149/149/149 151/151/151
f 154/154/154 153/153/153 151/151/151
f 155/155/155 148/148/148 149/149/149
f 153/153/153 155/155/155 149/149/149
f 158/158/158 157/157/157 156/156/156
f 159/159/159 158/158/158 156/156/156
f 156/156/156 157/157/157 160/160/160
f 157/157/157 161/161/161 160/160/160
f 164/164/164 163/163/163 162/162/162
f 165/165/165 164/164/164 162/162/162
f 166/166/166 164/164/164 165/165/165
f 167/167/167 166/166/166 165/165/165
f 168/168/168 164/164/164 166/166/166
f 169/169/169 168/168/168 166/166/166
f 170/170/170 163/163/163 164/164/164
f 168/168/168 170/170/170 164/164/164
f 173/173/173 172/172/172 171/171/171
f 174/174/174 173/173/173 171/171/171
f 171/171/171 172/172/172 175/175/175
f 172/172/172 176/176/176 175/175/175
