g TireK_Wood7_LF_LOD0
v -2.086163E-07 -0.1941641 -0.1410685
v -2.086163E-07 2.086163E-07 2.086163E-07
v -2.086163E-07 -0.2282538 -0.074164
v -2.086163E-07 -0.1410685 -0.1941641
v -2.086163E-07 -0.074164 -0.2282538
v -2.086163E-07 2.086163E-07 -0.2400001
v -2.086163E-07 0.07416397 -0.2282538
v -2.086163E-07 0.1410685 -0.1941641
v -2.086163E-07 0.1941641 -0.1410685
v -2.086163E-07 0.2282538 -0.074164
v -2.086163E-07 0.24 2.086163E-07
v -2.086163E-07 0.2282538 0.07416397
v -2.086163E-07 0.1941641 0.1410685
v -2.086163E-07 0.1410685 0.1941641
v -2.086163E-07 0.07416397 0.2282538
v -2.086163E-07 2.086163E-07 0.24
v -2.086163E-07 -0.074164 0.2282538
v -2.086163E-07 -0.1410685 0.1941641
v -2.086163E-07 -0.1941641 0.1410685
v -2.086163E-07 -0.2282534 0.07416397
v -2.086163E-07 -0.2400001 2.086163E-07
v 0.1398065 -0.2282538 -0.074164
v 0.1398065 2.086163E-07 2.086163E-07
v 0.1398065 -0.1941641 -0.1410685
v 0.1398065 -0.1410685 -0.1941641
v 0.1398065 -0.074164 -0.2282538
v 0.1398065 2.086163E-07 -0.2400001
v 0.1398065 0.07416397 -0.2282538
v 0.1398065 0.1410685 -0.1941641
v 0.1398065 0.1941641 -0.1410685
v 0.1398065 0.2282538 -0.074164
v 0.1398065 0.24 2.086163E-07
v 0.1398065 0.2282538 0.07416397
v 0.1398065 0.1941641 0.1410685
v 0.1398065 0.1410685 0.1941641
v 0.1398065 0.07416397 0.2282538
v 0.1398065 2.086163E-07 0.24
v 0.1398065 -0.074164 0.2282538
v 0.1398065 -0.1410685 0.1941641
v 0.1398065 -0.1941641 0.1410685
v 0.1398065 -0.2282534 0.07416397
v 0.1398065 -0.2400001 2.086163E-07
v -2.086163E-07 0.24 2.086163E-07
v 0.1398065 0.24 2.086163E-07
v -2.086163E-07 0.2282538 0.07416397
v 0.1398065 0.2282538 0.07416397
v -2.086163E-07 0.1941641 0.1410685
v 0.1398065 0.1941641 0.1410685
v -2.086163E-07 0.1410685 0.1941641
v 0.1398065 0.1410685 0.1941641
v -2.086163E-07 0.07416397 0.2282538
v 0.1398065 0.07416397 0.2282538
v -2.086163E-07 2.086163E-07 0.24
v 0.1398065 2.086163E-07 0.24
v -0.00721778 0.07499984 -2.384186E-07
v 0.1505612 0.07499984 -2.384186E-07
v -0.00721778 0.06929106 0.02870113
v 0.1505612 0.06929106 0.02870113
v -0.00721778 0.05303311 0.05303311
v 0.1505612 0.05303311 0.05303311
v -0.00721778 0.02870113 0.06929106
v 0.1505612 0.02870113 0.06929106
v -0.00721778 2.086163E-07 0.07499984
v 0.1505612 2.086163E-07 0.07499984
v -0.00721778 0.06929106 0.02870113
v -0.00721778 2.086163E-07 2.086163E-07
v -0.00721778 0.07499984 -2.384186E-07
v -0.00721778 0.05303311 0.05303311
v -0.00721778 0.02870113 0.06929106
v -0.00721778 2.086163E-07 0.07499984
v 0.1505612 0.07499984 -2.384186E-07
v 0.1505612 2.086163E-07 2.086163E-07
v 0.1505612 0.06929106 0.02870113
v 0.1505612 0.05303311 0.05303311
v 0.1505612 0.02870113 0.06929106
v 0.1505612 2.086163E-07 0.07499984
v -2.086163E-07 2.086163E-07 0.24
v 0.1398065 2.086163E-07 0.24
v -2.086163E-07 -0.074164 0.2282538
v 0.1398065 -0.074164 0.2282538
v -2.086163E-07 -0.1410685 0.1941641
v 0.1398065 -0.1410685 0.1941641
v -2.086163E-07 -0.1941641 0.1410685
v 0.1398065 -0.1941641 0.1410685
v -2.086163E-07 -0.2282534 0.07416397
v 0.1398065 -0.2282534 0.07416397
v -2.086163E-07 -0.2400001 2.086163E-07
v 0.1398065 -0.2400001 2.086163E-07
v -0.00721778 2.086163E-07 0.07499984
v 0.1505612 2.086163E-07 0.07499984
v -0.00721778 -0.02870114 0.06929106
v 0.1505612 -0.02870114 0.06929106
v -0.00721778 -0.05303314 0.05303311
v 0.1505612 -0.05303314 0.05303311
v -0.00721778 -0.0692911 0.02870113
v 0.1505612 -0.0692911 0.02870113
v -0.00721778 -0.07499987 2.086163E-07
v 0.1505612 -0.07499987 2.086163E-07
v -0.00721778 -0.02870114 0.06929106
v -0.00721778 2.086163E-07 2.086163E-07
v -0.00721778 2.086163E-07 0.07499984
v -0.00721778 -0.05303314 0.05303311
v -0.00721778 -0.0692911 0.02870113
v -0.00721778 -0.07499987 2.086163E-07
v 0.1505612 2.086163E-07 0.07499984
v 0.1505612 2.086163E-07 2.086163E-07
v 0.1505612 -0.02870114 0.06929106
v 0.1505612 -0.05303314 0.05303311
v 0.1505612 -0.0692911 0.02870113
v 0.1505612 -0.07499987 2.086163E-07
v -2.086163E-07 -0.2400001 2.086163E-07
v 0.1398065 -0.2400001 2.086163E-07
v -2.086163E-07 -0.2282538 -0.074164
v 0.1398065 -0.2282538 -0.074164
v -2.086163E-07 -0.1941641 -0.1410685
v 0.1398065 -0.1941641 -0.1410685
v -2.086163E-07 -0.1410685 -0.1941641
v 0.1398065 -0.1410685 -0.1941641
v -2.086163E-07 -0.074164 -0.2282538
v 0.1398065 -0.074164 -0.2282538
v -2.086163E-07 2.086163E-07 -0.2400001
v 0.1398065 2.086163E-07 -0.2400001
v -0.00721778 -0.07499987 2.086163E-07
v 0.1505612 -0.07499987 2.086163E-07
v -0.00721778 -0.0692911 -0.02870114
v 0.1505612 -0.0692911 -0.02870114
v -0.00721778 -0.05303314 -0.05303314
v 0.1505612 -0.05303314 -0.05303314
v -0.00721778 -0.02870114 -0.0692911
v 0.1505612 -0.02870114 -0.0692911
v -0.00721778 -2.384186E-07 -0.07499987
v 0.1505612 -2.384186E-07 -0.07499987
v -0.00721778 -0.0692911 -0.02870114
v -0.00721778 2.086163E-07 2.086163E-07
v -0.00721778 -0.07499987 2.086163E-07
v -0.00721778 -0.05303314 -0.05303314
v -0.00721778 -0.02870114 -0.0692911
v -0.00721778 -2.384186E-07 -0.07499987
v 0.1505612 -0.07499987 2.086163E-07
v 0.1505612 2.086163E-07 2.086163E-07
v 0.1505612 -0.0692911 -0.02870114
v 0.1505612 -0.05303314 -0.05303314
v 0.1505612 -0.02870114 -0.0692911
v 0.1505612 -2.384186E-07 -0.07499987
v -2.086163E-07 2.086163E-07 -0.2400001
v 0.1398065 2.086163E-07 -0.2400001
v -2.086163E-07 0.07416397 -0.2282538
v 0.1398065 0.07416397 -0.2282538
v -2.086163E-07 0.1410685 -0.1941641
v 0.1398065 0.1410685 -0.1941641
v -2.086163E-07 0.1941641 -0.1410685
v 0.1398065 0.1941641 -0.1410685
v -2.086163E-07 0.2282538 -0.074164
v 0.1398065 0.2282538 -0.074164
v -2.086163E-07 0.24 2.086163E-07
v 0.1398065 0.24 2.086163E-07
v -0.00721778 -2.384186E-07 -0.07499987
v 0.1505612 -2.384186E-07 -0.07499987
v -0.00721778 0.02870113 -0.0692911
v 0.1505612 0.02870113 -0.0692911
v -0.00721778 0.05303311 -0.05303314
v 0.1505612 0.05303311 -0.05303314
v -0.00721778 0.06929106 -0.02870114
v 0.1505612 0.06929106 -0.02870114
v -0.00721778 0.07499984 -2.384186E-07
v 0.1505612 0.07499984 -2.384186E-07
v -0.00721778 0.02870113 -0.0692911
v -0.00721778 2.086163E-07 2.086163E-07
v -0.00721778 -2.384186E-07 -0.07499987
v -0.00721778 0.05303311 -0.05303314
v -0.00721778 0.06929106 -0.02870114
v -0.00721778 0.07499984 -2.384186E-07
v 0.1505612 -2.384186E-07 -0.07499987
v 0.1505612 2.086163E-07 2.086163E-07
v 0.1505612 0.02870113 -0.0692911
v 0.1505612 0.05303311 -0.05303314
v 0.1505612 0.06929106 -0.02870114
v 0.1505612 0.07499984 -2.384186E-07
v 0.1805612 -0.01414195 -0.01414195
v 0.1805612 2.086163E-07 2.086163E-07
v 0.1805612 2.086163E-07 -0.01999997
v 0.1805612 0.01414192 -0.01414195
v 0.1805612 0.01999992 2.086163E-07
v 0.1805612 0.01414192 0.01414192
v 0.1805612 2.086163E-07 0.01999992
v 0.1805612 -0.01414195 0.01414192
v 0.1805612 -0.01999997 2.086163E-07
v 0.1505612 -0.01414195 -0.01414195
v 0.1805612 -0.01414195 -0.01414195
v 0.1505612 2.086163E-07 -0.01999997
v 0.1805612 2.086163E-07 -0.01999997
v 0.1505612 0.01414192 -0.01414195
v 0.1805612 0.01414192 -0.01414195
v 0.1505612 0.01999992 2.086163E-07
v 0.1805612 0.01999992 2.086163E-07
v 0.1505612 0.01414192 0.01414192
v 0.1805612 0.01414192 0.01414192
v 0.1505612 2.086163E-07 0.01999992
v 0.1805612 2.086163E-07 0.01999992
v 0.1505612 -0.01414195 0.01414192
v 0.1805612 -0.01414195 0.01414192
v 0.1505612 -0.01999997 2.086163E-07
v 0.1805612 -0.01999997 2.086163E-07
v 0.1505612 -0.01414195 -0.01414195
v 0.1805612 -0.01414195 -0.01414195
vt 0.584935 1.089317
vt 0.3758416 1.377116
vt 0.4857708 1.038783
vt 0.6636413 1.168008
vt 0.7141595 1.267187
vt 0.7315827 1.377116
vt 0.7141595 1.487045
vt 0.6636413 1.58621
vt 0.584935 1.664901
vt 0.4857708 1.715434
vt 0.3758416 1.732842
vt 0.2659125 1.715434
vt 0.1667483 1.664901
vt 0.088042 1.58621
vt 0.03750872 1.487045
vt 0.02010063 1.377116
vt 0.03750872 1.267187
vt 0.088042 1.168008
vt 0.1667483 1.089317
vt 0.2659125 1.038783
vt 0.3758416 1.021375
vt 0.4857708 0.03877696
vt 0.3758416 0.3771099
vt 0.584935 0.08931024
vt 0.6636413 0.1680165
vt 0.7141595 0.2671807
vt 0.7315827 0.3771099
vt 0.7141595 0.487039
vt 0.6636413 0.5862032
vt 0.584935 0.6649095
vt 0.4857708 0.7154428
vt 0.3758416 0.7328509
vt 0.2659125 0.7154428
vt 0.1667483 0.6649095
vt 0.088042 0.5862032
vt 0.03750872 0.487039
vt 0.02010063 0.3771099
vt 0.03750872 0.2671807
vt 0.088042 0.1680165
vt 0.1667483 0.08931024
vt 0.2659125 0.03877696
vt 0.3758416 0.02136887
vt 0.02204828 0.8269271
vt 0.02204828 0.9960407
vt 0.2132202 0.8269271
vt 0.2132202 0.9960407
vt 0.4044072 0.8269271
vt 0.4044072 0.9960407
vt 0.5955942 0.8269271
vt 0.5955942 0.9960407
vt 0.7867813 0.8269271
vt 0.7867813 0.9960407
vt 0.9779532 0.8269271
vt 0.9779532 0.9960407
vt 0.02488672 0.7544563
vt 0.02488672 0.8065597
vt 0.0872418 0.7544563
vt 0.0872418 0.8065597
vt 0.1495818 0.7544563
vt 0.1495818 0.8065597
vt 0.2119369 0.7544563
vt 0.2119369 0.8065597
vt 0.2742768 0.7544563
vt 0.2742768 0.8065597
vt 0.8596597 0.5253278
vt 0.9754469 0.8048537
vt 0.9754469 0.5023032
vt 0.7615071 0.5909138
vt 0.695921 0.6890815
vt 0.6728813 0.8048537
vt 0.9754469 0.3251574
vt 0.9754469 0.02260691
vt 0.8596597 0.3021177
vt 0.7615071 0.2365316
vt 0.695921 0.138379
vt 0.6728813 0.02260691
vt 1.02204 0.8270025
vt 1.02204 0.9959954
vt 1.213227 0.8270025
vt 1.213227 0.9959954
vt 1.404414 0.8270025
vt 1.404414 0.9959954
vt 1.595585 0.8270025
vt 1.595585 0.9959954
vt 1.786772 0.8270025
vt 1.786772 0.9959954
vt 1.97796 0.8270025
vt 1.97796 0.9959954
vt 1.024893 0.7544563
vt 1.024893 0.8065597
vt 1.087233 0.7544563
vt 1.087233 0.8065597
vt 1.149588 0.7544563
vt 1.149588 0.8065597
vt 1.211928 0.7544563
vt 1.211928 0.8065597
vt 1.274283 0.7544563
vt 1.274283 0.8065597
vt 1.859666 0.5253278
vt 1.975438 0.8048537
vt 1.975438 0.5023032
vt 1.761498 0.5909138
vt 1.695912 0.6890815
vt 1.672888 0.8048537
vt 1.975438 0.3251574
vt 1.975438 0.02260691
vt 1.859666 0.3021177
vt 1.761498 0.2365316
vt 1.695912 0.138379
vt 1.672888 0.02260691
vt 2.022046 0.8270025
vt 2.022046 0.9959954
vt 2.213233 0.8270025
vt 2.213233 0.9959954
vt 2.404405 0.8270025
vt 2.404405 0.9959954
vt 2.595592 0.8270025
vt 2.595592 0.9959954
vt 2.786779 0.8270025
vt 2.786779 0.9959954
vt 2.977951 0.8270025
vt 2.977951 0.9959954
vt 2.024884 0.7544563
vt 2.024884 0.8065597
vt 2.08724 0.7544563
vt 2.08724 0.8065597
vt 2.149579 0.7544563
vt 2.149579 0.8065597
vt 2.211935 0.7544563
vt 2.211935 0.8065597
vt 2.274274 0.7544563
vt 2.274274 0.8065597
vt 2.859657 0.5253278
vt 2.975445 0.8048537
vt 2.975445 0.5023032
vt 2.761505 0.5909138
vt 2.695919 0.6890815
vt 2.672894 0.8048537
vt 2.975445 0.3251574
vt 2.975445 0.02260691
vt 2.859657 0.3021177
vt 2.761505 0.2365316
vt 2.695919 0.138379
vt 2.672894 0.02260691
vt 3.022037 0.8270025
vt 3.022037 0.9959954
vt 3.213224 0.8270025
vt 3.213224 0.9959954
vt 3.404411 0.8270025
vt 3.404411 0.9959954
vt 3.595598 0.8270025
vt 3.595598 0.9959954
vt 3.78677 0.8270025
vt 3.78677 0.9959954
vt 3.977957 0.8270025
vt 3.977957 0.9959954
vt 3.024891 0.7544563
vt 3.024891 0.8065597
vt 3.087231 0.7544563
vt 3.087231 0.8065597
vt 3.149586 0.7544563
vt 3.149586 0.8065597
vt 3.211926 0.7544563
vt 3.211926 0.8065597
vt 3.274281 0.7544563
vt 3.274281 0.8065597
vt 3.859664 0.5253278
vt 3.975436 0.8048537
vt 3.975436 0.5023032
vt 3.761511 0.5909138
vt 3.695925 0.6890815
vt 3.672885 0.8048537
vt 3.975436 0.3251574
vt 3.975436 0.02260691
vt 3.859664 0.3021177
vt 3.761511 0.2365316
vt 3.695925 0.138379
vt 3.672885 0.02260691
vt 0.9026591 0.3579806
vt 0.8499969 0.4106427
vt 0.9244758 0.4106427
vt 0.9026591 0.4633048
vt 0.8499969 0.4851065
vt 0.7973348 0.4633048
vt 0.7755332 0.4106427
vt 0.7973348 0.3579806
vt 0.8499969 0.3361639
vt 0.3696514 0.756419
vt 0.3696514 0.8073751
vt 0.4009044 0.756419
vt 0.4009044 0.8073751
vt 0.4321575 0.756419
vt 0.4321575 0.8073751
vt 0.4634105 0.756419
vt 0.4634105 0.8073751
vt 0.4946635 0.756419
vt 0.4946635 0.8073751
vt 0.5259015 0.756419
vt 0.5259015 0.8073751
vt 0.5571545 0.756419
vt 0.5571545 0.8073751
vt 0.5884076 0.756419
vt 0.5884076 0.8073751
vt 0.6196606 0.756419
vt 0.6196606 0.8073751
vn -0.9999995 0.0009775162 0
vn -0.9999995 0.0009775162 0
vn -0.9999995 0.0009775162 0
vn -0.9999995 0.0009775162 0
vn -0.9999995 0.0009775162 0
vn -0.9999995 0.0009775162 0
vn -0.9999995 0.0009775162 0
vn -0.9999995 0.0009775162 0
vn -0.9999995 0.0009775162 0
vn -0.9999995 0.0009775162 0
vn -0.9999995 0.0009775162 0
vn -0.9999995 0.0009775162 0
vn -0.9999995 0.0009775162 0
vn -0.9999995 0.0009775162 0
vn -0.9999995 0.0009775162 0
vn -0.9999995 0.0009775162 0
vn -0.9999995 0.0009775162 0
vn -0.9999995 0.0009775162 0
vn -0.9999995 0.0009775162 0
vn -0.9999995 0.0009775162 0
vn -0.9999995 0.0009775162 0
vn 0.9999995 0.0009775162 0
vn 0.9999995 0.0009775162 0
vn 0.9999995 0.0009775162 0
vn 0.9999995 0.0009775162 0
vn 0.9999995 0.0009775162 0
vn 0.9999995 0.0009775162 0
vn 0.9999995 0.0009775162 0
vn 0.9999995 0.0009775162 0
vn 0.9999995 0.0009775162 0
vn 0.9999995 0.0009775162 0
vn 0.9999995 0.0009775162 0
vn 0.9999995 0.0009775162 0
vn 0.9999995 0.0009775162 0
vn 0.9999995 0.0009775162 0
vn 0.9999995 0.0009775162 0
vn 0.9999995 0.0009775162 0
vn 0.9999995 0.0009775162 0
vn 0.9999995 0.0009775162 0
vn 0.9999995 0.0009775162 0
vn 0.9999995 0.0009775162 0
vn 0.9999995 0.0009775162 0
vn -0.0009775162 0.9999995 0
vn -0.0009775162 0.9999995 0
vn -0.0009775162 0.9511237 0.3088086
vn -0.0009775162 0.9511237 0.3088086
vn -0.0009775162 0.8084062 0.5886242
vn -0.0009775162 0.8084062 0.5886242
vn -0.0009775162 0.5874875 0.8092327
vn -0.0009775162 0.5874875 0.8092327
vn -0.0009775162 0.3098727 0.9507775
vn -0.0009775162 0.3098727 0.9507775
vn -0.0009775162 0.0009775162 0.999999
vn -0.0009775162 0.0009775162 0.999999
vn -0.0009775162 0.9999995 0
vn -0.0009775162 0.9999995 0
vn -0.0009775162 0.9237533 0.3829869
vn -0.0009775162 0.9237533 0.3829869
vn -0.0009775162 0.7067446 0.7074682
vn -0.0009775162 0.7067446 0.7074682
vn -0.0009775162 0.3822091 0.9240754
vn -0.0009775162 0.3822091 0.9240754
vn -0.0009775162 0.0009775162 0.999999
vn -0.0009775162 0.0009775162 0.999999
vn -0.9999995 0.0009775162 0
vn -0.9999995 0.0009775162 0
vn -0.9999995 0.0009775162 0
vn -0.9999995 0.0009775162 0
vn -0.9999995 0.0009775162 0
vn -0.9999995 0.0009775162 0
vn 0.9999995 0.0009775162 0
vn 0.9999995 0.0009775162 0
vn 0.9999995 0.0009775162 0
vn 0.9999995 0.0009775162 0
vn 0.9999995 0.0009775162 0
vn 0.9999995 0.0009775162 0
vn -0.0009775162 0.0009775162 0.999999
vn -0.0009775162 0.0009775162 0.999999
vn -0.0009775162 -0.3098727 0.9507775
vn -0.0009775162 -0.3098727 0.9507775
vn -0.0009775162 -0.5874875 0.8092327
vn -0.0009775162 -0.5874875 0.8092327
vn -0.0009775162 -0.8084062 0.5886242
vn -0.0009775162 -0.8084062 0.5886242
vn -0.0009775162 -0.9511237 0.3088086
vn -0.0009775162 -0.9511237 0.3088086
vn -0.0009775162 -0.9999995 0
vn -0.0009775162 -0.9999995 0
vn -0.0009775162 0.0009775162 0.999999
vn -0.0009775162 0.0009775162 0.999999
vn -0.0009775162 -0.382209 0.9240754
vn -0.0009775162 -0.382209 0.9240754
vn -0.0009775162 -0.7067446 0.7074682
vn -0.0009775162 -0.7067446 0.7074682
vn -0.0009775162 -0.9237532 0.382987
vn -0.0009775162 -0.9237532 0.382987
vn -0.0009775162 -0.9999995 0
vn -0.0009775162 -0.9999995 0
vn -0.9999995 0.0009775162 0
vn -0.9999995 0.0009775162 0
vn -0.9999995 0.0009775162 0
vn -0.9999995 0.0009775162 0
vn -0.9999995 0.0009775162 0
vn -0.9999995 0.0009775162 0
vn 0.9999995 0.0009775162 0
vn 0.9999995 0.0009775162 0
vn 0.9999995 0.0009775162 0
vn 0.9999995 0.0009775162 0
vn 0.9999995 0.0009775162 0
vn 0.9999995 0.0009775162 0
vn -0.0009775162 -0.9999995 0
vn -0.0009775162 -0.9999995 0
vn -0.0009775162 -0.9511237 -0.3088086
vn -0.0009775162 -0.9511237 -0.3088086
vn -0.0009775162 -0.8084062 -0.5886242
vn -0.0009775162 -0.8084062 -0.5886242
vn -0.0009775162 -0.5874875 -0.8092327
vn -0.0009775162 -0.5874875 -0.8092327
vn -0.0009775162 -0.3098727 -0.9507775
vn -0.0009775162 -0.3098727 -0.9507775
vn -0.0009775162 0.0009775162 -0.999999
vn -0.0009775162 0.0009775162 -0.999999
vn -0.0009775162 -0.9999995 0
vn -0.0009775162 -0.9999995 0
vn -0.0009775162 -0.9237532 -0.382987
vn -0.0009775162 -0.9237532 -0.382987
vn -0.0009775162 -0.7067446 -0.7074682
vn -0.0009775162 -0.7067446 -0.7074682
vn -0.0009775162 -0.382209 -0.9240754
vn -0.0009775162 -0.382209 -0.9240754
vn -0.0009775162 0.0009775162 -0.999999
vn -0.0009775162 0.0009775162 -0.999999
vn -0.9999995 0.0009775162 0
vn -0.9999995 0.0009775162 0
vn -0.9999995 0.0009775162 0
vn -0.9999995 0.0009775162 0
vn -0.9999995 0.0009775162 0
vn -0.9999995 0.0009775162 0
vn 0.9999995 0.0009775162 0
vn 0.9999995 0.0009775162 0
vn 0.9999995 0.0009775162 0
vn 0.9999995 0.0009775162 0
vn 0.9999995 0.0009775162 0
vn 0.9999995 0.0009775162 0
vn -0.0009775162 0.0009775162 -0.999999
vn -0.0009775162 0.0009775162 -0.999999
vn -0.0009775162 0.3098727 -0.9507775
vn -0.0009775162 0.3098727 -0.9507775
vn -0.0009775162 0.5874875 -0.8092327
vn -0.0009775162 0.5874875 -0.8092327
vn -0.0009775162 0.8084062 -0.5886242
vn -0.0009775162 0.8084062 -0.5886242
vn -0.0009775162 0.9511237 -0.3088086
vn -0.0009775162 0.9511237 -0.3088086
vn -0.0009775162 0.9999995 0
vn -0.0009775162 0.9999995 0
vn -0.0009775162 0.0009775162 -0.999999
vn -0.0009775162 0.0009775162 -0.999999
vn -0.0009775162 0.3822091 -0.9240754
vn -0.0009775162 0.3822091 -0.9240754
vn -0.0009775162 0.7067446 -0.7074682
vn -0.0009775162 0.7067446 -0.7074682
vn -0.0009775162 0.9237533 -0.3829869
vn -0.0009775162 0.9237533 -0.3829869
vn -0.0009775162 0.9999995 0
vn -0.0009775162 0.9999995 0
vn -0.9999995 0.0009775162 0
vn -0.9999995 0.0009775162 0
vn -0.9999995 0.0009775162 0
vn -0.9999995 0.0009775162 0
vn -0.9999995 0.0009775162 0
vn -0.9999995 0.0009775162 0
vn 0.9999995 0.0009775162 0
vn 0.9999995 0.0009775162 0
vn 0.9999995 0.0009775162 0
vn 0.9999995 0.0009775162 0
vn 0.9999995 0.0009775162 0
vn 0.9999995 0.0009775162 0
vn 0.9999995 -0.0009775162 0
vn 0.9999995 0.0009775162 0
vn 0.9999995 0.0009775162 0
vn 0.9999995 0.0009775162 0
vn 0.9999995 0.0009775162 0
vn 0.9999995 0.0009775162 0
vn 0.9999995 0.0009775162 0
vn 0.9999995 0.0009775162 0
vn 0.9999995 0.0009775162 0
vn -0.0009775162 -0.7067446 -0.7074682
vn -0.0009775162 -0.7067446 -0.7074682
vn -0.0009775162 0.0009775162 -0.999999
vn -0.0009775162 0.0009775162 -0.999999
vn -0.0009775162 0.7067446 -0.7074682
vn -0.0009775162 0.7067446 -0.7074682
vn -0.0009775162 0.9999995 0
vn -0.0009775162 0.9999995 0
vn -0.0009775162 0.7067446 0.7074682
vn -0.0009775162 0.7067446 0.7074682
vn -0.0009775162 0.0009775162 0.999999
vn -0.0009775162 0.0009775162 0.999999
vn -0.0009775162 -0.7067446 0.7074682
vn -0.0009775162 -0.7067446 0.7074682
vn -0.0009775162 -0.9999995 0
vn -0.0009775162 -0.9999995 0
vn -0.0009775162 -0.7067446 -0.7074682
vn -0.0009775162 -0.7067446 -0.7074682
g TireK_Wood7_LF_LOD0_0
f 3/3/3 2/2/2 1/1/1
f 1/1/1 2/2/2 4/4/4
f 4/4/4 2/2/2 5/5/5
f 5/5/5 2/2/2 6/6/6
f 6/6/6 2/2/2 7/7/7
f 7/7/7 2/2/2 8/8/8
f 8/8/8 2/2/2 9/9/9
f 9/9/9 2/2/2 10/10/10
f 10/10/10 2/2/2 11/11/11
f 11/11/11 2/2/2 12/12/12
f 12/12/12 2/2/2 13/13/13
f 13/13/13 2/2/2 14/14/14
f 14/14/14 2/2/2 15/15/15
f 15/15/15 2/2/2 16/16/16
f 16/16/16 2/2/2 17/17/17
f 17/17/17 2/2/2 18/18/18
f 18/18/18 2/2/2 19/19/19
f 19/19/19 2/2/2 20/20/20
f 20/20/20 2/2/2 21/21/21
f 21/21/21 2/2/2 3/3/3
f 24/24/24 23/23/23 22/22/22
f 25/25/25 23/23/23 24/24/24
f 26/26/26 23/23/23 25/25/25
f 27/27/27 23/23/23 26/26/26
f 28/28/28 23/23/23 27/27/27
f 29/29/29 23/23/23 28/28/28
f 30/30/30 23/23/23 29/29/29
f 31/31/31 23/23/23 30/30/30
f 32/32/32 23/23/23 31/31/31
f 33/33/33 23/23/23 32/32/32
f 34/34/34 23/23/23 33/33/33
f 35/35/35 23/23/23 34/34/34
f 36/36/36 23/23/23 35/35/35
f 37/37/37 23/23/23 36/36/36
f 38/38/38 23/23/23 37/37/37
f 39/39/39 23/23/23 38/38/38
f 40/40/40 23/23/23 39/39/39
f 41/41/41 23/23/23 40/40/40
f 42/42/42 23/23/23 41/41/41
f 22/22/22 23/23/23 42/42/42
f 45/45/45 44/44/44 43/43/43
f 45/45/45 46/46/46 44/44/44
f 47/47/47 46/46/46 45/45/45
f 47/47/47 48/48/48 46/46/46
f 49/49/49 48/48/48 47/47/47
f 49/49/49 50/50/50 48/48/48
f 51/51/51 50/50/50 49/49/49
f 51/51/51 52/52/52 50/50/50
f 53/53/53 52/52/52 51/51/51
f 53/53/53 54/54/54 52/52/52
f 57/57/57 56/56/56 55/55/55
f 57/57/57 58/58/58 56/56/56
f 59/59/59 58/58/58 57/57/57
f 59/59/59 60/60/60 58/58/58
f 61/61/61 60/60/60 59/59/59
f 61/61/61 62/62/62 60/60/60
f 63/63/63 62/62/62 61/61/61
f 63/63/63 64/64/64 62/62/62
f 67/67/67 66/66/66 65/65/65
f 65/65/65 66/66/66 68/68/68
f 68/68/68 66/66/66 69/69/69
f 69/69/69 66/66/66 70/70/70
f 73/73/73 72/72/72 71/71/71
f 74/74/74 72/72/72 73/73/73
f 75/75/75 72/72/72 74/74/74
f 76/76/76 72/72/72 75/75/75
f 79/79/79 78/78/78 77/77/77
f 79/79/79 80/80/80 78/78/78
f 81/81/81 80/80/80 79/79/79
f 81/81/81 82/82/82 80/80/80
f 83/83/83 82/82/82 81/81/81
f 83/83/83 84/84/84 82/82/82
f 85/85/85 84/84/84 83/83/83
f 85/85/85 86/86/86 84/84/84
f 87/87/87 86/86/86 85/85/85
f 87/87/87 88/88/88 86/86/86
f 91/91/91 90/90/90 89/89/89
f 91/91/91 92/92/92 90/90/90
f 93/93/93 92/92/92 91/91/91
f 93/93/93 94/94/94 92/92/92
f 95/95/95 94/94/94 93/93/93
f 95/95/95 96/96/96 94/94/94
f 97/97/97 96/96/96 95/95/95
f 97/97/97 98/98/98 96/96/96
f 101/101/101 100/100/100 99/99/99
f 99/99/99 100/100/100 102/102/102
f 102/102/102 100/100/100 103/103/103
f 103/103/103 100/100/100 104/104/104
f 107/107/107 106/106/106 105/105/105
f 108/108/108 106/106/106 107/107/107
f 109/109/109 106/106/106 108/108/108
f 110/110/110 106/106/106 109/109/109
f 113/113/113 112/112/112 111/111/111
f 113/113/113 114/114/114 112/112/112
f 115/115/115 114/114/114 113/113/113
f 115/115/115 116/116/116 114/114/114
f 117/117/117 116/116/116 115/115/115
f 117/117/117 118/118/118 116/116/116
f 119/119/119 118/118/118 117/117/117
f 119/119/119 120/120/120 118/118/118
f 121/121/121 120/120/120 119/119/119
f 121/121/121 122/122/122 120/120/120
f 125/125/125 124/124/124 123/123/123
f 125/125/125 126/126/126 124/124/124
f 127/127/127 126/126/126 125/125/125
f 127/127/127 128/128/128 126/126/126
f 129/129/129 128/128/128 127/127/127
f 129/129/129 130/130/130 128/128/128
f 131/131/131 130/130/130 129/129/129
f 131/131/131 132/132/132 130/130/130
f 135/135/135 134/134/134 133/133/133
f 133/133/133 134/134/134 136/136/136
f 136/136/136 134/134/134 137/137/137
f 137/137/137 134/134/134 138/138/138
f 141/141/141 140/140/140 139/139/139
f 142/142/142 140/140/140 141/141/141
f 143/143/143 140/140/140 142/142/142
f 144/144/144 140/140/140 143/143/143
f 147/147/147 146/146/146 145/145/145
f 147/147/147 148/148/148 146/146/146
f 149/149/149 148/148/148 147/147/147
f 149/149/149 150/150/150 148/148/148
f 151/151/151 150/150/150 149/149/149
f 151/151/151 152/152/152 150/150/150
f 153/153/153 152/152/152 151/151/151
f 153/153/153 154/154/154 152/152/152
f 155/155/155 154/154/154 153/153/153
f 155/155/155 156/156/156 154/154/154
f 159/159/159 158/158/158 157/157/157
f 159/159/159 160/160/160 158/158/158
f 161/161/161 160/160/160 159/159/159
f 161/161/161 162/162/162 160/160/160
f 163/163/163 162/162/162 161/161/161
f 163/163/163 164/164/164 162/162/162
f 165/165/165 164/164/164 163/163/163
f 165/165/165 166/166/166 164/164/164
f 169/169/169 168/168/168 167/167/167
f 167/167/167 168/168/168 170/170/170
f 170/170/170 168/168/168 171/171/171
f 171/171/171 168/168/168 172/172/172
f 175/175/175 174/174/174 173/173/173
f 176/176/176 174/174/174 175/175/175
f 177/177/177 174/174/174 176/176/176
f 178/178/178 174/174/174 177/177/177
f 181/181/181 180/180/180 179/179/179
f 182/182/182 180/180/180 181/181/181
f 183/183/183 180/180/180 182/182/182
f 184/184/184 180/180/180 183/183/183
f 185/185/185 180/180/180 184/184/184
f 186/186/186 180/180/180 185/185/185
f 187/187/187 180/180/180 186/186/186
f 179/179/179 180/180/180 187/187/187
f 190/190/190 189/189/189 188/188/188
f 190/190/190 191/191/191 189/189/189
f 192/192/192 191/191/191 190/190/190
f 192/192/192 193/193/193 191/191/191
f 194/194/194 193/193/193 192/192/192
f 194/194/194 195/195/195 193/193/193
f 196/196/196 195/195/195 194/194/194
f 196/196/196 197/197/197 195/195/195
f 198/198/198 197/197/197 196/196/196
f 198/198/198 199/199/199 197/197/197
f 200/200/200 199/199/199 198/198/198
f 200/200/200 201/201/201 199/199/199
f 202/202/202 201/201/201 200/200/200
f 202/202/202 203/203/203 201/201/201
f 204/204/204 203/203/203 202/202/202
f 204/204/204 205/205/205 203/203/203
