g TireK_Iron_LF_LOD2
v 0.1373015 0.1167599 0.1167599
v -0.02230124 0.1651234 0
v 0.1373015 0.1651234 0
v -0.02230124 0 0.1651234
v 0.1373015 0 0.1651234
v -0.02230124 0 0
v -0.04152469 0.1067698 0
v -0.04152469 0 0.1067698
v 0.1600001 0 0
v 0.2004083 0 0.07274032
v 0.2004083 0.07274032 0
v 0.2004083 0 0.07274032
v 0.2004083 0 0.09628534
v 0.2004083 0.07274032 0
v 0.2004083 0.09628534 0
v 0.14 0.1039148 0
v 0.14 0.073479 0.07347864
v 0.1373015 0.1651234 0
v 0.1373015 0.1167599 0.1167599
v 0.14 0 0.1039148
v 0.1373015 0 0.1651234
v -0.02230124 0 0.1651234
v -0.02129796 0 0.1138826
v -0.02230124 0.1651234 0
v -0.02129796 0.1138826 0
v 0.2004083 0 0.09628534
v 0.14 0.073479 0.07347864
v 0.2004083 0.09628534 0
v 0.14 0.1039148 0
v 0.14 0 0.1039148
v -0.02129796 0 0.1138826
v -0.04152469 0 0.1067698
v -0.02129796 0.1138826 0
v -0.04152469 0.1067698 0
v 0.1373015 -0.1167599 0.1167599
v -0.02230124 0 0.1651234
v 0.1373015 0 0.1651234
v -0.02230124 -0.1651235 0
v 0.1373015 -0.1651235 0
v -0.04152469 0 0.1067698
v -0.04152469 -0.1067698 0
v -0.02230124 0 0
v 0.1600001 0 0
v 0.2004083 -0.07274032 0
v 0.2004083 0 0.07274032
v 0.2004083 -0.07274032 0
v 0.2004083 -0.09628536 0
v 0.2004083 0 0.07274032
v 0.2004083 0 0.09628534
v 0.14 0 0.1039148
v 0.14 -0.07347865 0.073479
v 0.1373015 0 0.1651234
v 0.1373015 -0.1167599 0.1167599
v 0.14 -0.1039148 0
v 0.1373015 -0.1651235 0
v -0.02230124 -0.1651235 0
v -0.02129796 -0.1138826 0
v -0.02230124 0 0.1651234
v -0.02129796 0 0.1138826
v 0.2004083 -0.09628536 0
v 0.14 -0.07347865 0.073479
v 0.2004083 0 0.09628534
v 0.14 0 0.1039148
v 0.14 -0.1039148 0
v -0.02129796 -0.1138826 0
v -0.04152469 -0.1067698 0
v -0.02129796 0 0.1138826
v -0.04152469 0 0.1067698
v 0.1373015 -0.1167599 -0.1167599
v -0.02230124 -0.1651235 0
v 0.1373015 -0.1651235 0
v -0.02230124 0 -0.1651235
v 0.1373015 0 -0.1651235
v -0.04152469 -0.1067698 0
v -0.04152469 0 -0.1067698
v -0.02230124 0 0
v 0.1600001 0 0
v 0.2004083 0 -0.07274032
v 0.2004083 -0.07274032 0
v 0.2004083 0 -0.07274032
v 0.2004083 0 -0.09628536
v 0.2004083 -0.07274032 0
v 0.2004083 -0.09628536 0
v 0.14 -0.1039148 0
v 0.14 -0.073479 -0.07347865
v 0.1373015 -0.1651235 0
v 0.1373015 -0.1167599 -0.1167599
v 0.14 0 -0.1039148
v 0.1373015 0 -0.1651235
v -0.02230124 0 -0.1651235
v -0.02129796 0 -0.1138826
v -0.02230124 -0.1651235 0
v -0.02129796 -0.1138826 0
v 0.2004083 0 -0.09628536
v 0.14 -0.073479 -0.07347865
v 0.2004083 -0.09628536 0
v 0.14 -0.1039148 0
v 0.14 0 -0.1039148
v -0.02129796 0 -0.1138826
v -0.04152469 0 -0.1067698
v -0.02129796 -0.1138826 0
v -0.04152469 -0.1067698 0
v 0.1373015 0.1167599 -0.1167599
v -0.02230124 0 -0.1651235
v 0.1373015 0 -0.1651235
v -0.02230124 0.1651234 0
v 0.1373015 0.1651234 0
v -0.04152469 0 -0.1067698
v -0.04152469 0.1067698 0
v -0.02230124 0 0
v 0.1600001 0 0
v 0.2004083 0.07274032 0
v 0.2004083 0 -0.07274032
v 0.2004083 0.07274032 0
v 0.2004083 0.09628534 0
v 0.2004083 0 -0.07274032
v 0.2004083 0 -0.09628536
v 0.14 0 -0.1039148
v 0.14 0.07347864 -0.073479
v 0.1373015 0 -0.1651235
v 0.1373015 0.1167599 -0.1167599
v 0.14 0.1039148 0
v 0.1373015 0.1651234 0
v -0.02230124 0.1651234 0
v -0.02129796 0.1138826 0
v -0.02230124 0 -0.1651235
v -0.02129796 0 -0.1138826
v 0.2004083 0.09628534 0
v 0.14 0.07347864 -0.073479
v 0.2004083 0 -0.09628536
v 0.14 0 -0.1039148
v 0.14 0.1039148 0
v -0.02129796 0.1138826 0
v -0.04152469 0.1067698 0
v -0.02129796 0 -0.1138826
v -0.04152469 0 -0.1067698
vt 0.2394691 0.734314
vt 0.4589481 0.9780092
vt 0.4589481 0.734314
vt 0.02000529 0.9780092
vt 0.02000529 0.734314
vt 0.00999999 0.00999999
vt 0.00999999 0.2936708
vt 0.2936708 0.00999999
vt 0.8067803 0.609149
vt 0.6563212 0.7177802
vt 0.9572546 0.7177802
vt 0.8092095 0.01010627
vt 0.7506808 0.01010627
vt 0.9900034 0.1909001
vt 0.9900034 0.2494288
vt 0.9900034 0.312072
vt 0.7764 0.2236033
vt 0.9900034 0.4899964
vt 0.6505823 0.3494059
vt 0.6879313 0.00999999
vt 0.510007 0.00999999
vt 0.4899964 0.00999999
vt 0.3410404 0.00999999
vt 0.00999999 0.4899964
vt 0.00999999 0.3410404
vt 0.5710105 0.794938
vt 0.7710102 0.9690818
vt 0.97101 0.794938
vt 0.97101 0.9690818
vt 0.5710105 0.9690818
vt 0.9462017 0.5637988
vt 0.9462017 0.5330845
vt 0.6633963 0.5637988
vt 0.6633963 0.5330845
vt 1.239468 0.734314
vt 1.458947 0.9780092
vt 1.458947 0.734314
vt 1.020004 0.9780092
vt 1.020004 0.734314
vt 1.009999 0.2936708
vt 1.29367 0.00999999
vt 1.009999 0.00999999
vt 1.806779 0.609149
vt 1.65632 0.7177802
vt 1.957253 0.7177802
vt 1.809208 0.01010627
vt 1.750695 0.01010627
vt 1.990002 0.1909001
vt 1.990002 0.2494288
vt 1.990002 0.312072
vt 1.776399 0.2236033
vt 1.990002 0.4899964
vt 1.650596 0.3494059
vt 1.68793 0.00999999
vt 1.510006 0.00999999
vt 1.489995 0.00999999
vt 1.341054 0.00999999
vt 1.009999 0.4899964
vt 1.009999 0.3410404
vt 1.571009 0.794938
vt 1.771009 0.9690818
vt 1.971009 0.794938
vt 1.971009 0.9690818
vt 1.571009 0.9690818
vt 1.9462 0.5637988
vt 1.9462 0.5330845
vt 1.663395 0.5637988
vt 1.663395 0.5330845
vt 2.239467 0.734314
vt 2.458946 0.9780092
vt 2.458946 0.734314
vt 2.020003 0.9780092
vt 2.020003 0.734314
vt 2.009998 0.2936708
vt 2.293669 0.00999999
vt 2.009998 0.00999999
vt 2.806793 0.609149
vt 2.656319 0.7177802
vt 2.957252 0.7177802
vt 2.809207 0.01010627
vt 2.750694 0.01010627
vt 2.990001 0.1909001
vt 2.990001 0.2494288
vt 2.990001 0.312072
vt 2.776398 0.2236033
vt 2.990001 0.4899964
vt 2.650595 0.3494059
vt 2.687929 0.00999999
vt 2.510005 0.00999999
vt 2.489994 0.00999999
vt 2.341053 0.00999999
vt 2.009998 0.4899964
vt 2.009998 0.3410404
vt 2.571008 0.794938
vt 2.771008 0.9690818
vt 2.971008 0.794938
vt 2.971008 0.9690818
vt 2.571008 0.9690818
vt 2.946199 0.5637988
vt 2.946199 0.5330845
vt 2.663394 0.5637988
vt 2.663394 0.5330845
vt 3.239465 0.734314
vt 3.458945 0.9780092
vt 3.458945 0.734314
vt 3.020002 0.9780092
vt 3.020002 0.734314
vt 3.009996 0.2936708
vt 3.293667 0.00999999
vt 3.009996 0.00999999
vt 3.806792 0.609149
vt 3.656318 0.7177802
vt 3.957251 0.7177802
vt 3.809206 0.01010627
vt 3.750692 0.01010627
vt 3.99 0.1909001
vt 3.99 0.2494288
vt 3.99 0.312072
vt 3.776397 0.2236033
vt 3.99 0.4899964
vt 3.650594 0.3494059
vt 3.687928 0.00999999
vt 3.510003 0.00999999
vt 3.489993 0.00999999
vt 3.341052 0.00999999
vt 3.009996 0.4899964
vt 3.009996 0.3410404
vt 3.571007 0.794938
vt 3.771007 0.9690818
vt 3.971006 0.794938
vt 3.971006 0.9690818
vt 3.571007 0.9690818
vt 3.946198 0.5637988
vt 3.946198 0.5330845
vt 3.663393 0.5637988
vt 3.663393 0.5330845
vn -0.1710654 0.6969694 0.6963981
vn -0.2766372 0.9608989 -0.01204977
vn -0.0009775162 0.9999995 0
vn -0.2766372 0.0009775162 0.9609739
vn -0.0009775162 0.0009775162 0.999999
vn -0.9999995 0.0009775162 0
vn -0.9842276 -0.1769068 0
vn -0.9843593 0.0009775162 -0.1761701
vn 0.9999995 0.0009775162 0
vn 0.8748774 0.0009775162 -0.4843434
vn 0.8742494 -0.485477 0
vn 0.9999995 0.0009775162 0
vn 0.9999995 0.0009775162 0
vn 0.9999995 0.0009775162 0
vn 0.9999995 0.0009775162 0
vn 0.9990339 0.04394575 0
vn 0.9994153 0.03419308 0
vn 0.9990339 0.04394575 0
vn 0.9994802 0.03224128 0
vn 0.9999957 0.002932537 0
vn 0.9999957 0.002932537 0
vn -0.9999957 -0.002932537 0
vn -0.9999957 -0.002932537 0
vn -0.9997894 -0.02052353 0
vn -0.9997894 -0.02052353 0
vn 0.4486802 0.0009775162 0.8936919
vn 0.4056694 0.6461385 0.6464807
vn 0.4483855 0.8938403 0
vn 0.1260794 0.9920202 0
vn 0.1260996 0.0009775162 0.9920171
vn -0.3313781 0.02639294 0.9431288
vn -0.3313781 0.02834797 0.9430721
vn -0.3313781 0.9433036 -0.01915532
vn -0.3313781 0.9433036 -0.01915532
vn -0.1710654 -0.6969694 0.6963981
vn -0.2766372 0.0009775162 0.9609739
vn -0.0009775162 0.0009775162 0.999999
vn -0.2766372 -0.9608989 -0.01204977
vn -0.0009775162 -0.9999995 0
vn -0.9843593 0.0009775162 -0.1761701
vn -0.9842276 0.1769069 0
vn -0.9999995 0.0009775162 0
vn 0.9999995 0.0009775162 0
vn 0.8742494 0.485477 0
vn 0.8748774 0.0009775162 -0.4843434
vn 0.9999995 0.0009775162 0
vn 0.9999995 0.0009775162 0
vn 0.9999995 0.0009775162 0
vn 0.9999995 0.0009775162 0
vn 0.9999957 0.002932537 0
vn 0.9995984 -0.0283366 0
vn 0.9999957 0.002932537 0
vn 0.9995412 -0.03028911 0
vn 0.9990339 -0.04394575 0
vn 0.9990339 -0.04394575 0
vn -0.9997894 0.02052353 0
vn -0.9997894 0.02052353 0
vn -0.9999957 -0.002932537 0
vn -0.9999957 -0.002932537 0
vn 0.4483855 -0.8938403 0
vn 0.4056694 -0.6461385 0.6464808
vn 0.4486802 0.0009775162 0.8936919
vn 0.1260996 0.0009775162 0.9920171
vn 0.1260794 -0.9920202 0
vn -0.3313781 -0.9433036 0.01915532
vn -0.3313781 -0.9433036 0.01915532
vn -0.3313781 0.02639294 0.9431288
vn -0.3313781 0.02834797 0.9430721
vn -0.1710654 -0.6969694 -0.6963981
vn -0.2766372 -0.9608989 -0.01204977
vn -0.0009775162 -0.9999995 0
vn -0.2766372 0.0009775162 -0.9609739
vn -0.0009775162 0.0009775162 -0.999999
vn -0.9842276 0.1769069 0
vn -0.9843593 0.0009775162 0.1761701
vn -0.9999995 0.0009775162 0
vn 0.9999995 0.0009775162 0
vn 0.8748774 0.0009775162 0.4843434
vn 0.8742494 0.485477 0
vn 0.9999995 0.0009775162 0
vn 0.9999995 0.0009775162 0
vn 0.9999995 0.0009775162 0
vn 0.9999995 0.0009775162 0
vn 0.9990339 -0.04394575 0
vn 0.9994153 -0.03419308 0
vn 0.9990339 -0.04394575 0
vn 0.9994802 -0.03224128 0
vn 0.9999957 -0.002932537 0
vn 0.9999957 -0.002932537 0
vn -0.9999957 0.002932537 0
vn -0.9999957 0.002932537 0
vn -0.9997894 0.02052353 0
vn -0.9997894 0.02052353 0
vn 0.4486802 0.0009775162 -0.8936919
vn 0.4056694 -0.6461385 -0.6464808
vn 0.4483855 -0.8938403 0
vn 0.1260794 -0.9920202 0
vn 0.1260996 0.0009775162 -0.9920171
vn -0.3313781 -0.02639294 -0.9431288
vn -0.3313781 -0.02834797 -0.9430721
vn -0.3313781 -0.9433036 0.01915532
vn -0.3313781 -0.9433036 0.01915532
vn -0.1710654 0.6969694 -0.6963981
vn -0.2766372 0.0009775162 -0.9609739
vn -0.0009775162 0.0009775162 -0.999999
vn -0.2766372 0.9608989 -0.01204977
vn -0.0009775162 0.9999995 0
vn -0.9843593 0.0009775162 0.1761701
vn -0.9842276 -0.1769068 0
vn -0.9999995 0.0009775162 0
vn 0.9999995 0.0009775162 0
vn 0.8742494 -0.485477 0
vn 0.8748774 0.0009775162 0.4843434
vn 0.9999995 0.0009775162 0
vn 0.9999995 0.0009775162 0
vn 0.9999995 0.0009775162 0
vn 0.9999995 0.0009775162 0
vn 0.9999957 -0.002932537 0
vn 0.9995984 0.0283366 0
vn 0.9999957 -0.002932537 0
vn 0.9995412 0.03028911 0
vn 0.9990339 0.04394575 0
vn 0.9990339 0.04394575 0
vn -0.9997894 -0.02052353 0
vn -0.9997894 -0.02052353 0
vn -0.9999957 0.002932537 0
vn -0.9999957 0.002932537 0
vn 0.4483855 0.8938403 0
vn 0.4056694 0.6461385 -0.6464807
vn 0.4486802 0.0009775162 -0.8936919
vn 0.1260996 0.0009775162 -0.9920171
vn 0.1260794 0.9920202 0
vn -0.3313781 0.9433036 -0.01915532
vn -0.3313781 0.9433036 -0.01915532
vn -0.3313781 -0.02639294 -0.9431288
vn -0.3313781 -0.02834797 -0.9430721
g TireK_Iron_LF_LOD2_0
f 3/3/3 2/2/2 1/1/1
f 2/2/2 4/4/4 1/1/1
f 4/4/4 5/5/5 1/1/1
f 8/8/8 7/7/7 6/6/6
f 11/11/11 10/10/10 9/9/9
f 14/14/14 13/13/13 12/12/12
f 14/14/14 15/15/15 13/13/13
f 18/18/18 17/17/17 16/16/16
f 18/18/18 19/19/19 17/17/17
f 19/19/19 20/20/20 17/17/17
f 19/19/19 21/21/21 20/20/20
f 24/24/24 23/23/23 22/22/22
f 24/24/24 25/25/25 23/23/23
f 28/28/28 27/27/27 26/26/26
f 28/28/28 29/29/29 27/27/27
f 27/27/27 30/30/30 26/26/26
f 33/33/33 32/32/32 31/31/31
f 33/33/33 34/34/34 32/32/32
f 37/37/37 36/36/36 35/35/35
f 36/36/36 38/38/38 35/35/35
f 38/38/38 39/39/39 35/35/35
f 42/42/42 41/41/41 40/40/40
f 45/45/45 44/44/44 43/43/43
f 48/48/48 47/47/47 46/46/46
f 48/48/48 49/49/49 47/47/47
f 52/52/52 51/51/51 50/50/50
f 52/52/52 53/53/53 51/51/51
f 53/53/53 54/54/54 51/51/51
f 53/53/53 55/55/55 54/54/54
f 58/58/58 57/57/57 56/56/56
f 58/58/58 59/59/59 57/57/57
f 62/62/62 61/61/61 60/60/60
f 62/62/62 63/63/63 61/61/61
f 61/61/61 64/64/64 60/60/60
f 67/67/67 66/66/66 65/65/65
f 67/67/67 68/68/68 66/66/66
f 71/71/71 70/70/70 69/69/69
f 70/70/70 72/72/72 69/69/69
f 72/72/72 73/73/73 69/69/69
f 76/76/76 75/75/75 74/74/74
f 79/79/79 78/78/78 77/77/77
f 82/82/82 81/81/81 80/80/80
f 82/82/82 83/83/83 81/81/81
f 86/86/86 85/85/85 84/84/84
f 86/86/86 87/87/87 85/85/85
f 87/87/87 88/88/88 85/85/85
f 87/87/87 89/89/89 88/88/88
f 92/92/92 91/91/91 90/90/90
f 92/92/92 93/93/93 91/91/91
f 96/96/96 95/95/95 94/94/94
f 96/96/96 97/97/97 95/95/95
f 95/95/95 98/98/98 94/94/94
f 101/101/101 100/100/100 99/99/99
f 101/101/101 102/102/102 100/100/100
f 105/105/105 104/104/104 103/103/103
f 104/104/104 106/106/106 103/103/103
f 106/106/106 107/107/107 103/103/103
f 110/110/110 109/109/109 108/108/108
f 113/113/113 112/112/112 111/111/111
f 116/116/116 115/115/115 114/114/114
f 116/116/116 117/117/117 115/115/115
f 120/120/120 119/119/119 118/118/118
f 120/120/120 121/121/121 119/119/119
f 121/121/121 122/122/122 119/119/119
f 121/121/121 123/123/123 122/122/122
f 126/126/126 125/125/125 124/124/124
f 126/126/126 127/127/127 125/125/125
f 130/130/130 129/129/129 128/128/128
f 130/130/130 131/131/131 129/129/129
f 129/129/129 132/132/132 128/128/128
f 135/135/135 134/134/134 133/133/133
f 135/135/135 136/136/136 134/134/134
