g TireK_Lemon_RF_LOD1
v 0.00721781 0.05833632 0.05833632
v 0.00721781 0.08249986 -2.384186E-07
v -0.002782047 2.235174E-07 2.235174E-07
v 0.00721781 2.235174E-07 0.08249986
v -0.01000008 0.05833632 0.05833632
v -0.01000008 0.08249986 -2.384186E-07
v 0.00721781 0.08249986 -2.384186E-07
v 0.00721781 0.05833632 0.05833632
v -0.01000008 2.235174E-07 0.08249986
v 0.00721781 2.235174E-07 0.08249986
v -0.01000008 0.24 2.235174E-07
v -0.1398064 0.2192372 0.07123429
v -0.1398064 0.2305197 2.235174E-07
v -0.01000008 0.1941641 0.1410685
v -0.1398064 0.1864943 0.1354961
v -0.1398064 0.1354961 0.1864943
v -0.01000008 0.07416397 0.2282538
v -0.1398064 0.07123429 0.2192372
v -0.1398064 2.235174E-07 0.2305197
v -0.01000008 2.235174E-07 0.24
v -0.01000008 0.1941641 0.1410685
v -0.01000008 0.24 2.235174E-07
v -0.01000008 2.235174E-07 2.235174E-07
v -0.01000008 0.07416397 0.2282538
v -0.01000008 2.235174E-07 0.24
v -0.1398064 0.2305197 2.235174E-07
v -0.1398064 0.2192372 0.07123429
v -0.1398064 2.235174E-07 2.235174E-07
v -0.1398064 0.1864943 0.1354961
v -0.1398064 0.1354961 0.1864943
v -0.1398064 0.07123429 0.2192372
v -0.1398064 2.235174E-07 0.2305197
v 0.00721781 -0.05833633 0.05833632
v 0.00721781 2.235174E-07 0.08249986
v -0.002782047 2.235174E-07 2.235174E-07
v 0.00721781 -0.08249988 2.235174E-07
v -0.01000008 -0.05833633 0.05833632
v -0.01000008 2.235174E-07 0.08249986
v 0.00721781 2.235174E-07 0.08249986
v 0.00721781 -0.05833633 0.05833632
v -0.01000008 -0.08249988 2.235174E-07
v 0.00721781 -0.08249988 2.235174E-07
v -0.1398064 -0.0712343 0.2192372
v -0.1398064 2.235174E-07 0.2305197
v -0.01000008 2.235174E-07 0.24
v -0.01000008 -0.1410685 0.1941641
v -0.1398064 -0.1354961 0.1864943
v -0.1398064 -0.1864943 0.1354961
v -0.01000008 -0.2282538 0.07416397
v -0.1398064 -0.2192372 0.07123429
v -0.1398064 -0.2305197 2.235174E-07
v -0.01000008 -0.24 2.235174E-07
v -0.01000008 -0.1410685 0.1941641
v -0.01000008 2.235174E-07 0.24
v -0.01000008 2.235174E-07 2.235174E-07
v -0.01000008 -0.2282538 0.07416397
v -0.01000008 -0.24 2.235174E-07
v -0.1398064 2.235174E-07 0.2305197
v -0.1398064 -0.0712343 0.2192372
v -0.1398064 2.235174E-07 2.235174E-07
v -0.1398064 -0.1354961 0.1864943
v -0.1398064 -0.1864943 0.1354961
v -0.1398064 -0.2192372 0.07123429
v -0.1398064 -0.2305197 2.235174E-07
v 0.00721781 -0.05833633 -0.05833633
v 0.00721781 -0.08249988 2.235174E-07
v -0.002782047 2.235174E-07 2.235174E-07
v 0.00721781 -2.384186E-07 -0.08249988
v -0.01000008 -0.05833633 -0.05833633
v -0.01000008 -0.08249988 2.235174E-07
v 0.00721781 -0.08249988 2.235174E-07
v 0.00721781 -0.05833633 -0.05833633
v -0.01000008 -2.384186E-07 -0.08249988
v 0.00721781 -2.384186E-07 -0.08249988
v -0.1398064 -0.2192372 -0.0712343
v -0.1398064 -0.2305197 2.235174E-07
v -0.01000008 -0.24 2.235174E-07
v -0.01000008 -0.1941641 -0.1410685
v -0.1398064 -0.1864943 -0.1354961
v -0.1398064 -0.1354961 -0.1864943
v -0.01000008 -0.07416399 -0.2282538
v -0.1398064 -0.0712343 -0.2192372
v -0.1398064 2.235174E-07 -0.2305197
v -0.01000008 2.235174E-07 -0.24
v -0.01000008 -0.1941641 -0.1410685
v -0.01000008 -0.24 2.235174E-07
v -0.01000008 2.235174E-07 2.235174E-07
v -0.01000008 -0.07416399 -0.2282538
v -0.01000008 2.235174E-07 -0.24
v -0.1398064 -0.2305197 2.235174E-07
v -0.1398064 -0.2192372 -0.0712343
v -0.1398064 2.235174E-07 2.235174E-07
v -0.1398064 -0.1864943 -0.1354961
v -0.1398064 -0.1354961 -0.1864943
v -0.1398064 -0.0712343 -0.2192372
v -0.1398064 2.235174E-07 -0.2305197
v 0.00721781 0.05833632 -0.05833633
v 0.00721781 -2.384186E-07 -0.08249988
v -0.002782047 2.235174E-07 2.235174E-07
v 0.00721781 0.08249986 -2.384186E-07
v -0.01000008 0.05833632 -0.05833633
v -0.01000008 -2.384186E-07 -0.08249988
v 0.00721781 -2.384186E-07 -0.08249988
v 0.00721781 0.05833632 -0.05833633
v -0.01000008 0.08249986 -2.384186E-07
v 0.00721781 0.08249986 -2.384186E-07
v -0.1398064 0.07123429 -0.2192372
v -0.1398064 2.235174E-07 -0.2305197
v -0.01000008 2.235174E-07 -0.24
v -0.01000008 0.1410685 -0.1941641
v -0.1398064 0.1354961 -0.1864943
v -0.1398064 0.1864943 -0.1354961
v -0.01000008 0.2282538 -0.07416399
v -0.1398064 0.2192372 -0.0712343
v -0.1398064 0.2305197 2.235174E-07
v -0.01000008 0.24 2.235174E-07
v -0.01000008 0.1410685 -0.1941641
v -0.01000008 2.235174E-07 -0.24
v -0.01000008 2.235174E-07 2.235174E-07
v -0.01000008 0.2282538 -0.07416399
v -0.01000008 0.24 2.235174E-07
v -0.1398064 2.235174E-07 -0.2305197
v -0.1398064 0.07123429 -0.2192372
v -0.1398064 2.235174E-07 2.235174E-07
v -0.1398064 0.1354961 -0.1864943
v -0.1398064 0.1864943 -0.1354961
v -0.1398064 0.2192372 -0.0712343
v -0.1398064 0.2305197 2.235174E-07
vt 0.3480965 0.4116247
vt 0.5620311 0.323006
vt 0.5620311 0.6255593
vt 0.2594779 0.6255593
vt 0.7914469 0.6251205
vt 0.6051753 0.6251205
vt 0.6051753 0.5730328
vt 0.7914469 0.5730328
vt 0.9777185 0.6251205
vt 0.9777185 0.5730328
vt 0.04564914 0.6703983
vt 0.2273809 0.9711508
vt 0.04564914 0.9711508
vt 0.4091277 0.6703983
vt 0.4091277 0.9711508
vt 0.5908746 0.9711508
vt 0.7726063 0.6703983
vt 0.7726063 0.9711508
vt 0.9543532 0.9711508
vt 0.9543532 0.6703983
vt 0.295797 0.3968398
vt 0.02199632 0.4858064
vt 0.02199632 0.01999877
vt 0.4649986 0.1639435
vt 0.487804 0.01999877
vt 0.9859962 0.4797986
vt 0.8420514 0.4620023
vt 0.9859962 0.019
vt 0.7122107 0.395841
vt 0.6091552 0.2927855
vt 0.5429939 0.1629447
vt 0.5202036 0.019
vt 1.348098 0.4116247
vt 1.562032 0.323006
vt 1.562032 0.6255593
vt 1.259479 0.6255593
vt 1.791448 0.6251205
vt 1.605176 0.6251205
vt 1.605176 0.5730328
vt 1.791448 0.5730328
vt 1.97772 0.6251205
vt 1.97772 0.5730328
vt 1.227382 0.9711508
vt 1.04565 0.9711508
vt 1.04565 0.6703983
vt 1.409129 0.6703983
vt 1.409129 0.9711508
vt 1.590876 0.9711508
vt 1.772608 0.6703983
vt 1.772608 0.9711508
vt 1.954354 0.9711508
vt 1.954354 0.6703983
vt 1.295798 0.3968398
vt 1.021998 0.4858064
vt 1.021998 0.01999877
vt 1.465 0.1639435
vt 1.487805 0.01999877
vt 1.985997 0.4797986
vt 1.842053 0.4620023
vt 1.985997 0.019
vt 1.712212 0.395841
vt 1.609156 0.2927855
vt 1.542995 0.1629447
vt 1.520205 0.019
vt 2.348099 0.4116247
vt 2.562034 0.323006
vt 2.562034 0.6255593
vt 2.25948 0.6255593
vt 2.791449 0.6251205
vt 2.605178 0.6251205
vt 2.605178 0.5730328
vt 2.791449 0.5730328
vt 2.977721 0.6251205
vt 2.977721 0.5730328
vt 2.227383 0.9711508
vt 2.045652 0.9711508
vt 2.045652 0.6703983
vt 2.40913 0.6703983
vt 2.40913 0.9711508
vt 2.590877 0.9711508
vt 2.772609 0.6703983
vt 2.772609 0.9711508
vt 2.954355 0.9711508
vt 2.954355 0.6703983
vt 2.295784 0.3968398
vt 2.021999 0.4858064
vt 2.021999 0.01999877
vt 2.465001 0.1639435
vt 2.487806 0.01999877
vt 2.985999 0.4797986
vt 2.842054 0.4620023
vt 2.985999 0.019
vt 2.712213 0.395841
vt 2.609158 0.2927855
vt 2.542996 0.1629447
vt 2.520191 0.019
vt 3.3481 0.4116247
vt 3.562035 0.323006
vt 3.562035 0.6255593
vt 3.259481 0.6255593
vt 3.791451 0.6251205
vt 3.605179 0.6251205
vt 3.605179 0.5730328
vt 3.791451 0.5730328
vt 3.977722 0.6251205
vt 3.977722 0.5730328
vt 3.227385 0.9711508
vt 3.045653 0.9711508
vt 3.045653 0.6703983
vt 3.409131 0.6703983
vt 3.409131 0.9711508
vt 3.590878 0.9711508
vt 3.77261 0.6703983
vt 3.77261 0.9711508
vt 3.954357 0.9711508
vt 3.954357 0.6703983
vt 3.295785 0.3968398
vt 3.022 0.4858064
vt 3.022 0.01999877
vt 3.465002 0.1639435
vt 3.487808 0.01999877
vt 3.986 0.4797986
vt 3.842055 0.4620023
vt 3.986 0.019
vt 3.712214 0.395841
vt 3.609159 0.2927855
vt 3.542998 0.1629447
vt 3.520192 0.019
vn 0.9921794 -0.08504397 -0.09136511
vn 0.9921794 -0.1202345 -0.0335218
vn 0.9999995 0.0009775162 0
vn 0.9921794 0.0009775162 -0.1248163
vn -0.0009775162 0.7067446 0.7074682
vn -0.0009775162 0.9999995 0
vn -0.0009775162 0.9999995 0
vn -0.0009775162 0.7067446 0.7074682
vn -0.0009775162 0.0009775162 0.999999
vn -0.0009775162 0.0009775162 0.999999
vn -0.02834797 0.9921794 0.1215585
vn -0.02639294 0.9511237 0.3076802
vn -0.07325997 0.9973128 0
vn 0.0009775162 0.8084062 0.5886242
vn -0.07331371 0.8064512 0.586738
vn -0.02639294 0.5874875 0.8088028
vn -0.02834797 0.4193547 0.9073797
vn -0.07331371 0.3079177 0.9485841
vn -0.07331371 0.0009775162 0.9973084
vn -0.02834797 -0.1182795 0.9925756
vn 0.9999995 0.0009775162 0
vn 0.9999995 0.0009775162 0
vn 0.9999995 0.0009775162 0
vn 0.9999995 0.0009775162 0
vn 0.9999995 0.0009775162 0
vn -0.9999995 0.0009775162 0
vn -0.9999995 0.0009775162 0
vn -0.9999995 0.0009775162 0
vn -0.9999995 0.0009775162 0
vn -0.9999995 0.0009775162 0
vn -0.9999995 0.0009775162 0
vn -0.9999995 0.0009775162 0
vn 0.9921794 0.08504391 -0.09136515
vn 0.9921794 0.0009775162 -0.1248163
vn 0.9999995 0.0009775162 0
vn 0.9921794 0.1202345 -0.03352201
vn -0.0009775162 -0.7067446 0.7074682
vn -0.0009775162 0.0009775162 0.999999
vn -0.0009775162 0.0009775162 0.999999
vn -0.0009775162 -0.7067446 0.7074682
vn -0.0009775162 -0.9999995 0
vn -0.0009775162 -0.9999995 0
vn -0.02639294 -0.3098727 0.9504116
vn -0.07331371 0.0009775162 0.9973084
vn -0.02834797 -0.1182795 0.9925756
vn 0.0009775162 -0.5874875 0.8092327
vn -0.07331371 -0.5855324 0.807327
vn -0.02639294 -0.8084062 0.588033
vn -0.02834797 -0.9061579 0.4219884
vn -0.07331371 -0.9491687 0.306111
vn -0.07325997 -0.9973128 0
vn -0.02834797 -0.9921794 -0.1215585
vn 0.9999995 0.0009775162 0
vn 0.9999995 0.0009775162 0
vn 0.9999995 0.0009775162 0
vn 0.9999995 0.0009775162 0
vn 0.9999995 0.0009775162 0
vn -0.9999995 0.0009775162 0
vn -0.9999995 0.0009775162 0
vn -0.9999995 0.0009775162 0
vn -0.9999995 0.0009775162 0
vn -0.9999995 0.0009775162 0
vn -0.9999995 0.0009775162 0
vn -0.9999995 0.0009775162 0
vn 0.9921794 0.08504391 0.09136515
vn 0.9921794 0.1202345 -0.03352201
vn 0.9999995 0.0009775162 0
vn 0.9921794 0.0009775162 0.1248163
vn -0.0009775162 -0.7067446 -0.7074682
vn -0.0009775162 -0.9999995 0
vn -0.0009775162 -0.9999995 0
vn -0.0009775162 -0.7067446 -0.7074682
vn -0.0009775162 0.0009775162 -0.999999
vn -0.0009775162 0.0009775162 -0.999999
vn -0.02639294 -0.9511237 -0.3076802
vn -0.07325997 -0.9973128 0
vn -0.02834797 -0.9921794 -0.1215585
vn 0.0009775162 -0.8084062 -0.5886242
vn -0.07331371 -0.8064512 -0.586738
vn -0.02639294 -0.5874875 -0.8088028
vn -0.02834797 -0.4193546 -0.9073798
vn -0.07331371 -0.3079177 -0.9485841
vn -0.07331371 -0.0009775162 -0.9973084
vn -0.02834797 0.1182795 -0.9925756
vn 0.9999995 0.0009775162 0
vn 0.9999995 0.0009775162 0
vn 0.9999995 0.0009775162 0
vn 0.9999995 0.0009775162 0
vn 0.9999995 0.0009775162 0
vn -0.9999995 0.0009775162 0
vn -0.9999995 0.0009775162 0
vn -0.9999995 0.0009775162 0
vn -0.9999995 0.0009775162 0
vn -0.9999995 0.0009775162 0
vn -0.9999995 0.0009775162 0
vn -0.9999995 0.0009775162 0
vn 0.9921794 -0.08504397 0.09136511
vn 0.9921794 0.0009775162 0.1248163
vn 0.9999995 0.0009775162 0
vn 0.9921794 -0.1202345 -0.0335218
vn -0.0009775162 0.7067446 -0.7074682
vn -0.0009775162 0.0009775162 -0.999999
vn -0.0009775162 0.0009775162 -0.999999
vn -0.0009775162 0.7067446 -0.7074682
vn -0.0009775162 0.9999995 0
vn -0.0009775162 0.9999995 0
vn -0.02639294 0.3098727 -0.9504116
vn -0.07331371 -0.0009775162 -0.9973084
vn -0.02834797 0.1182795 -0.9925756
vn 0.0009775162 0.5874875 -0.8092327
vn -0.07331371 0.5855324 -0.807327
vn -0.02639294 0.8084062 -0.588033
vn -0.02834797 0.906158 -0.4219883
vn -0.07331371 0.9491687 -0.306111
vn -0.07325997 0.9973128 0
vn -0.02834797 0.9921794 0.1215585
vn 0.9999995 0.0009775162 0
vn 0.9999995 0.0009775162 0
vn 0.9999995 0.0009775162 0
vn 0.9999995 0.0009775162 0
vn 0.9999995 0.0009775162 0
vn -0.9999995 0.0009775162 0
vn -0.9999995 0.0009775162 0
vn -0.9999995 0.0009775162 0
vn -0.9999995 0.0009775162 0
vn -0.9999995 0.0009775162 0
vn -0.9999995 0.0009775162 0
vn -0.9999995 0.0009775162 0
g TireK_Lemon_RF_LOD1_0
f 3/3/3 2/2/2 1/1/1
f 3/3/3 1/1/1 4/4/4
f 7/7/7 6/6/6 5/5/5
f 8/8/8 7/7/7 5/5/5
f 8/8/8 5/5/5 9/9/9
f 10/10/10 8/8/8 9/9/9
f 13/13/13 12/12/12 11/11/11
f 14/14/14 11/11/11 12/12/12
f 14/14/14 12/12/12 15/15/15
f 15/15/15 16/16/16 14/14/14
f 17/17/17 14/14/14 16/16/16
f 16/16/16 18/18/18 17/17/17
f 17/17/17 18/18/18 19/19/19
f 20/20/20 17/17/17 19/19/19
f 23/23/23 22/22/22 21/21/21
f 23/23/23 21/21/21 24/24/24
f 23/23/23 24/24/24 25/25/25
f 28/28/28 27/27/27 26/26/26
f 28/28/28 29/29/29 27/27/27
f 28/28/28 30/30/30 29/29/29
f 28/28/28 31/31/31 30/30/30
f 28/28/28 32/32/32 31/31/31
f 35/35/35 34/34/34 33/33/33
f 35/35/35 33/33/33 36/36/36
f 39/39/39 38/38/38 37/37/37
f 40/40/40 39/39/39 37/37/37
f 40/40/40 37/37/37 41/41/41
f 42/42/42 40/40/40 41/41/41
f 45/45/45 44/44/44 43/43/43
f 46/46/46 45/45/45 43/43/43
f 46/46/46 43/43/43 47/47/47
f 46/46/46 47/47/47 48/48/48
f 49/49/49 46/46/46 48/48/48
f 48/48/48 50/50/50 49/49/49
f 49/49/49 50/50/50 51/51/51
f 52/52/52 49/49/49 51/51/51
f 55/55/55 54/54/54 53/53/53
f 55/55/55 53/53/53 56/56/56
f 55/55/55 56/56/56 57/57/57
f 60/60/60 59/59/59 58/58/58
f 60/60/60 61/61/61 59/59/59
f 60/60/60 62/62/62 61/61/61
f 60/60/60 63/63/63 62/62/62
f 60/60/60 64/64/64 63/63/63
f 67/67/67 66/66/66 65/65/65
f 67/67/67 65/65/65 68/68/68
f 71/71/71 70/70/70 69/69/69
f 72/72/72 71/71/71 69/69/69
f 72/72/72 69/69/69 73/73/73
f 74/74/74 72/72/72 73/73/73
f 77/77/77 76/76/76 75/75/75
f 78/78/78 77/77/77 75/75/75
f 78/78/78 75/75/75 79/79/79
f 78/78/78 79/79/79 80/80/80
f 81/81/81 78/78/78 80/80/80
f 80/80/80 82/82/82 81/81/81
f 81/81/81 82/82/82 83/83/83
f 84/84/84 81/81/81 83/83/83
f 87/87/87 86/86/86 85/85/85
f 87/87/87 85/85/85 88/88/88
f 87/87/87 88/88/88 89/89/89
f 92/92/92 91/91/91 90/90/90
f 92/92/92 93/93/93 91/91/91
f 92/92/92 94/94/94 93/93/93
f 92/92/92 95/95/95 94/94/94
f 92/92/92 96/96/96 95/95/95
f 99/99/99 98/98/98 97/97/97
f 99/99/99 97/97/97 100/100/100
f 103/103/103 102/102/102 101/101/101
f 104/104/104 103/103/103 101/101/101
f 104/104/104 101/101/101 105/105/105
f 106/106/106 104/104/104 105/105/105
f 109/109/109 108/108/108 107/107/107
f 110/110/110 109/109/109 107/107/107
f 110/110/110 107/107/107 111/111/111
f 110/110/110 111/111/111 112/112/112
f 113/113/113 110/110/110 112/112/112
f 112/112/112 114/114/114 113/113/113
f 114/114/114 115/115/115 113/113/113
f 113/113/113 115/115/115 116/116/116
f 119/119/119 118/118/118 117/117/117
f 119/119/119 117/117/117 120/120/120
f 119/119/119 120/120/120 121/121/121
f 124/124/124 123/123/123 122/122/122
f 124/124/124 125/125/125 123/123/123
f 124/124/124 126/126/126 125/125/125
f 124/124/124 127/127/127 126/126/126
f 124/124/124 128/128/128 127/127/127
