g TireK_Bicycle_LF_LOD2
v -0.005321011 -2.235174E-07 -0.05999987
v -0.005321011 0.05999987 -2.235174E-07
v -0.005321011 -2.235174E-07 -2.235174E-07
v -0.005321011 2.235174E-07 0.05999987
v -0.005321011 -0.05999987 -2.235174E-07
v 0.1639276 -2.235174E-07 -2.235174E-07
v 0.1418377 0.05999987 -2.235174E-07
v 0.1418377 -2.235174E-07 -0.05999987
v 0.1418377 2.235174E-07 0.05999987
v 0.1418377 -0.05999987 -2.235174E-07
v 0.1418377 0.05999987 -2.235174E-07
v -0.005321011 0.05999987 -2.235174E-07
v 0.1418377 -2.235174E-07 -0.05999987
v -0.005321011 -2.235174E-07 -0.05999987
v -0.005321011 2.235174E-07 0.05999987
v 0.1418377 2.235174E-07 0.05999987
v -0.005321011 -0.05999987 -2.235174E-07
v 0.1418377 -0.05999987 -2.235174E-07
v 0.1418377 -2.235174E-07 -0.05999987
v -0.005321011 -2.235174E-07 -0.05999987
v 0.1418377 -0.05999987 -2.235174E-07
v -0.005321011 -0.05999987 -2.235174E-07
v 0.009152055 0.1803975 -2.235174E-07
v 0.009152055 0.1275602 0.1275602
v 0.1335557 0.1803975 -2.235174E-07
v 0.1335557 0.1275602 0.1275602
v 0.009152055 2.235174E-07 0.1803975
v 0.1335557 2.235174E-07 0.1803975
v 0.02738854 0.1693622 0.1693622
v 0.009152055 0.1275602 0.1275602
v 0.02738854 0.2395141 -2.235174E-07
v 0.009152055 0.1803975 -2.235174E-07
v 0.009152055 2.235174E-07 0.1803975
v 0.02738854 2.235174E-07 0.2395141
v 0.1167094 0.1693622 0.1693622
v 0.1167094 0.2395141 -2.235174E-07
v 0.1335557 0.1275602 0.1275602
v 0.1335557 0.1803975 -2.235174E-07
v 0.1167094 2.235174E-07 0.2395141
v 0.1335557 2.235174E-07 0.1803975
v 0.1167094 2.235174E-07 0.2395141
v 0.02738854 2.235174E-07 0.2395141
v 0.1167094 0.1693622 0.1693622
v 0.02738854 0.1693622 0.1693622
v 0.1167094 0.2395141 -2.235174E-07
v 0.02738854 0.2395141 -2.235174E-07
v 0.009152055 2.235174E-07 0.1803975
v 0.009152055 -0.1275602 0.1275602
v 0.1335557 2.235174E-07 0.1803975
v 0.1335557 -0.1275602 0.1275602
v 0.009152055 -0.1803975 2.235174E-07
v 0.1335557 -0.1803975 2.235174E-07
v 0.02738854 -0.1693622 0.1693622
v 0.009152055 -0.1275602 0.1275602
v 0.02738854 2.235174E-07 0.2395141
v 0.009152055 2.235174E-07 0.1803975
v 0.009152055 -0.1803975 2.235174E-07
v 0.02738854 -0.2395141 2.235174E-07
v 0.1167094 -0.1693622 0.1693622
v 0.1167094 2.235174E-07 0.2395141
v 0.1335557 -0.1275602 0.1275602
v 0.1335557 2.235174E-07 0.1803975
v 0.1167094 -0.2395141 2.235174E-07
v 0.1335557 -0.1803975 2.235174E-07
v 0.1167094 -0.2395141 2.235174E-07
v 0.02738854 -0.2395141 2.235174E-07
v 0.1167094 -0.1693622 0.1693622
v 0.02738854 -0.1693622 0.1693622
v 0.1167094 2.235174E-07 0.2395141
v 0.02738854 2.235174E-07 0.2395141
v 0.009152055 -0.1803975 2.235174E-07
v 0.009152055 -0.1275602 -0.1275602
v 0.1335557 -0.1803975 2.235174E-07
v 0.1335557 -0.1275602 -0.1275602
v 0.009152055 -2.235174E-07 -0.1803975
v 0.1335557 -2.235174E-07 -0.1803975
v 0.02738854 -0.1693622 -0.1693622
v 0.009152055 -0.1275602 -0.1275602
v 0.02738854 -0.2395141 2.235174E-07
v 0.009152055 -0.1803975 2.235174E-07
v 0.009152055 -2.235174E-07 -0.1803975
v 0.02738854 -2.235174E-07 -0.2395141
v 0.1167094 -0.1693622 -0.1693622
v 0.1167094 -0.2395141 2.235174E-07
v 0.1335557 -0.1275602 -0.1275602
v 0.1335557 -0.1803975 2.235174E-07
v 0.1167094 -2.235174E-07 -0.2395141
v 0.1335557 -2.235174E-07 -0.1803975
v 0.1167094 -2.235174E-07 -0.2395141
v 0.02738854 -2.235174E-07 -0.2395141
v 0.1167094 -0.1693622 -0.1693622
v 0.02738854 -0.1693622 -0.1693622
v 0.1167094 -0.2395141 2.235174E-07
v 0.02738854 -0.2395141 2.235174E-07
v 0.009152055 -2.235174E-07 -0.1803975
v 0.009152055 0.1275602 -0.1275602
v 0.1335557 -2.235174E-07 -0.1803975
v 0.1335557 0.1275602 -0.1275602
v 0.009152055 0.1803975 -2.235174E-07
v 0.1335557 0.1803975 -2.235174E-07
v 0.02738854 0.1693622 -0.1693622
v 0.009152055 0.1275602 -0.1275602
v 0.02738854 -2.235174E-07 -0.2395141
v 0.009152055 -2.235174E-07 -0.1803975
v 0.02738854 0.2395141 -2.235174E-07
v 0.009152055 0.1803975 -2.235174E-07
v 0.1167094 0.1693622 -0.1693622
v 0.1167094 -2.235174E-07 -0.2395141
v 0.1335557 0.1275602 -0.1275602
v 0.1335557 -2.235174E-07 -0.1803975
v 0.1335557 0.1803975 -2.235174E-07
v 0.1167094 0.2395141 -2.235174E-07
v 0.1167094 0.2395141 -2.235174E-07
v 0.02738854 0.2395141 -2.235174E-07
v 0.1167094 0.1693622 -0.1693622
v 0.02738854 0.1693622 -0.1693622
v 0.1167094 -2.235174E-07 -0.2395141
v 0.02738854 -2.235174E-07 -0.2395141
vt 0.01363625 0.1499926
vt 0.1499926 0.2863641
vt 0.1499926 0.1499926
vt 0.2863641 0.1499926
vt 0.1499926 0.01363625
vt 0.8500067 0.1499926
vt 0.8500067 0.2863641
vt 0.9863631 0.1499926
vt 0.7136352 0.1499926
vt 0.8500067 0.01363625
vt 0.7092171 0.53163
vt 0.7092171 0.7371632
vt 0.8393851 0.53163
vt 0.8393851 0.7371632
vt 0.5790642 0.7371632
vt 0.5790642 0.53163
vt 0.4489115 0.7371632
vt 0.4489115 0.53163
vt 0.8393851 0.53163
vt 0.8393851 0.7371632
vt 0.4489115 0.53163
vt 0.4489115 0.7371632
vt 0.3782216 0.5972814
vt 0.2070045 0.5972663
vt 0.3782216 0.7382375
vt 0.2070045 0.738298
vt 0.03456178 0.5972965
vt 0.03456178 0.7383283
vt 0.3526207 0.3526207
vt 0.2705224 0.2705224
vt 0.02000621 0.4903994
vt 0.02000621 0.3743028
vt 0.3743028 0.02000621
vt 0.4903994 0.02000621
vt 0.6473786 0.3526207
vt 0.9799932 0.4903994
vt 0.7294769 0.2705224
vt 0.9799932 0.3743028
vt 0.5096 0.02000621
vt 0.6256965 0.02000621
vt 0.06402093 0.7795892
vt 0.06402093 0.9698708
vt 0.5000072 0.7795892
vt 0.5000072 0.9698708
vt 0.9359784 0.7795892
vt 0.9359784 0.9698708
vt 1.378229 0.5972814
vt 1.206997 0.5972663
vt 1.378229 0.7382375
vt 1.206997 0.738298
vt 1.034569 0.5972965
vt 1.034569 0.7383283
vt 1.352628 0.3526207
vt 1.27053 0.2705224
vt 1.019998 0.4903994
vt 1.019998 0.3743028
vt 1.374295 0.02000621
vt 1.490407 0.02000621
vt 1.647371 0.3526207
vt 1.98 0.4903994
vt 1.729469 0.2705224
vt 1.98 0.3743028
vt 1.509607 0.02000621
vt 1.625704 0.02000621
vt 1.064028 0.7795892
vt 1.064028 0.9698708
vt 1.499999 0.7795892
vt 1.499999 0.9698708
vt 1.935971 0.7795892
vt 1.935971 0.9698708
vt 2.378221 0.5972814
vt 2.207004 0.5972663
vt 2.378221 0.7382375
vt 2.207004 0.738298
vt 2.034561 0.5972965
vt 2.034561 0.7383283
vt 2.35262 0.3526207
vt 2.270522 0.2705224
vt 2.020006 0.4903994
vt 2.020006 0.3743028
vt 2.374302 0.02000621
vt 2.490399 0.02000621
vt 2.647378 0.3526207
vt 2.979993 0.4903994
vt 2.729476 0.2705224
vt 2.979993 0.3743028
vt 2.509599 0.02000621
vt 2.625711 0.02000621
vt 2.06402 0.7795892
vt 2.06402 0.9698708
vt 2.500007 0.7795892
vt 2.500007 0.9698708
vt 2.935978 0.7795892
vt 2.935978 0.9698708
vt 3.378228 0.5972814
vt 3.206996 0.5972663
vt 3.378228 0.7382375
vt 3.206996 0.738298
vt 3.034568 0.5972965
vt 3.034568 0.7383283
vt 3.352627 0.3526207
vt 3.270529 0.2705224
vt 3.019998 0.4903994
vt 3.019998 0.3743028
vt 3.490406 0.02000621
vt 3.374294 0.02000621
vt 3.64737 0.3526207
vt 3.98 0.4903994
vt 3.729468 0.2705224
vt 3.98 0.3743028
vt 3.625703 0.02000621
vt 3.509607 0.02000621
vt 3.064028 0.7795892
vt 3.064028 0.9698708
vt 3.499999 0.7795892
vt 3.499999 0.9698708
vt 3.935985 0.7795892
vt 3.935985 0.9698708
vn -0.2003909 0.0009775162 -0.9797155
vn -0.2002471 0.9797454 0
vn -0.9999995 0.0009775162 0
vn -0.2003909 0.0009775162 0.9797155
vn -0.2002471 -0.9797454 0
vn 0.9999995 0.0009775162 0
vn 0.1983707 0.9801271 0
vn 0.1984359 0.0009775162 -0.9801134
vn 0.1984359 0.0009775162 0.9801134
vn 0.1983707 -0.9801271 0
vn 0.1983707 0.9801271 0
vn -0.2002471 0.9797454 0
vn 0.1984359 0.0009775162 -0.9801134
vn -0.2003909 0.0009775162 -0.9797155
vn -0.2003909 0.0009775162 0.9797155
vn 0.1984359 0.0009775162 0.9801134
vn -0.2002471 -0.9797454 0
vn 0.1983707 -0.9801271 0
vn 0.1984359 0.0009775162 -0.9801134
vn -0.2003909 0.0009775162 -0.9797155
vn 0.1983707 -0.9801271 0
vn -0.2002471 -0.9797454 0
vn -0.5834548 -0.8121457 0
vn -0.6441835 -0.5347016 -0.5469203
vn 0.6363633 -0.7712606 -0.01409899
vn 0.6891493 -0.5131962 -0.5115691
vn -0.6441835 0.008797646 -0.7648203
vn 0.5777123 0.0009775162 -0.8162399
vn -0.3743888 0.6598238 0.6515102
vn -0.6441835 -0.5347016 -0.5469203
vn -0.3450633 0.9374385 -0.04626449
vn -0.5834548 -0.8121457 0
vn -0.6441835 0.008797646 -0.7648203
vn -0.3743888 0.004887581 0.9272589
vn 0.4017593 0.6480936 0.6469653
vn 0.3763439 0.9257083 -0.03780792
vn 0.6891493 -0.5131962 -0.5115691
vn 0.6363633 -0.7712606 -0.01409899
vn 0.3470184 0.0009775162 0.9378578
vn 0.5777123 0.0009775162 -0.8162399
vn 0.3470184 0.0009775162 0.9378578
vn -0.3743888 0.004887581 0.9272589
vn 0.4017593 0.6480936 0.6469653
vn -0.3743888 0.6598238 0.6515102
vn 0.3763439 0.9257083 -0.03780792
vn -0.3450633 0.9374385 -0.04626449
vn -0.6441835 0.008797646 -0.7648203
vn -0.6441835 0.5483868 -0.5331974
vn 0.5777123 0.0009775162 -0.8162399
vn 0.6891493 0.5131962 -0.5115691
vn -0.6439251 0.7650886 0
vn 0.5777123 0.8162264 -0.004796602
vn -0.3743888 -0.6520036 0.6593363
vn -0.6441835 0.5483868 -0.5331974
vn -0.3743888 0.004887581 0.9272589
vn -0.6441835 0.008797646 -0.7648203
vn -0.6439251 0.7650886 0
vn -0.3742529 -0.9273266 0
vn 0.4017593 -0.6480935 0.6469654
vn 0.3470184 0.0009775162 0.9378578
vn 0.6891493 0.5131962 -0.5115691
vn 0.5777123 0.0009775162 -0.8162399
vn 0.3470184 -0.9374385 -0.02805918
vn 0.5777123 0.8162264 -0.004796602
vn 0.3470184 -0.9374385 -0.02805918
vn -0.3742529 -0.9273266 0
vn 0.4017593 -0.6480935 0.6469654
vn -0.3743888 -0.6520036 0.6593363
vn 0.3470184 0.0009775162 0.9378578
vn -0.3743888 0.004887581 0.9272589
vn -0.6439251 0.7650886 0
vn -0.6441835 0.5347016 0.5469203
vn 0.5777123 0.8162264 -0.004796602
vn 0.6891493 0.5131962 0.5115691
vn -0.6441835 -0.008797646 0.7648203
vn 0.5777123 0.0009775162 0.8162399
vn -0.3743888 -0.6598238 -0.6515102
vn -0.6441835 0.5347016 0.5469203
vn -0.3742529 -0.9273266 0
vn -0.6439251 0.7650886 0
vn -0.6441835 -0.008797646 0.7648203
vn -0.3743888 -0.004887581 -0.9272589
vn 0.4017593 -0.6480935 -0.6469654
vn 0.3470184 -0.9374385 -0.02805918
vn 0.6891493 0.5131962 0.5115691
vn 0.5777123 0.8162264 -0.004796602
vn 0.3470184 0.0009775162 -0.9378578
vn 0.5777123 0.0009775162 0.8162399
vn 0.3470184 0.0009775162 -0.9378578
vn -0.3743888 -0.004887581 -0.9272589
vn 0.4017593 -0.6480935 -0.6469654
vn -0.3743888 -0.6598238 -0.6515102
vn 0.3470184 -0.9374385 -0.02805918
vn -0.3742529 -0.9273266 0
vn -0.6441835 -0.008797646 0.7648203
vn -0.6969694 -0.5073311 0.5068026
vn 0.5777123 0.0009775162 0.8162399
vn 0.6363633 -0.5522969 0.5385257
vn -0.5834548 -0.8121457 0
vn 0.6363633 -0.7712606 -0.01409899
vn -0.3998044 0.6480936 -0.6481753
vn -0.6969694 -0.5073311 0.5068026
vn -0.3743888 -0.004887581 -0.9272589
vn -0.6441835 -0.008797646 0.7648203
vn -0.3450633 0.9374385 -0.04626449
vn -0.5834548 -0.8121457 0
vn 0.3763439 0.6520036 -0.6582223
vn 0.3470184 0.0009775162 -0.9378578
vn 0.6363633 -0.5522969 0.5385257
vn 0.5777123 0.0009775162 0.8162399
vn 0.6363633 -0.7712606 -0.01409899
vn 0.3763439 0.9257083 -0.03780792
vn 0.3763439 0.9257083 -0.03780792
vn -0.3450633 0.9374385 -0.04626449
vn 0.3763439 0.6520036 -0.6582223
vn -0.3998044 0.6480936 -0.6481753
vn 0.3470184 0.0009775162 -0.9378578
vn -0.3743888 -0.004887581 -0.9272589
g TireK_Bicycle_LF_LOD2_0
f 3/3/3 2/2/2 1/1/1
f 3/3/3 4/4/4 2/2/2
f 3/3/3 5/5/5 4/4/4
f 3/3/3 1/1/1 5/5/5
f 8/8/8 7/7/7 6/6/6
f 7/7/7 9/9/9 6/6/6
f 9/9/9 10/10/10 6/6/6
f 10/10/10 8/8/8 6/6/6
f 13/13/13 12/12/12 11/11/11
f 13/13/13 14/14/14 12/12/12
f 11/11/11 12/12/12 15/15/15
f 11/11/11 15/15/15 16/16/16
f 16/16/16 15/15/15 17/17/17
f 16/16/16 17/17/17 18/18/18
f 21/21/21 20/20/20 19/19/19
f 21/21/21 22/22/22 20/20/20
f 25/25/25 24/24/24 23/23/23
f 25/25/25 26/26/26 24/24/24
f 26/26/26 27/27/27 24/24/24
f 26/26/26 28/28/28 27/27/27
f 31/31/31 30/30/30 29/29/29
f 31/31/31 32/32/32 30/30/30
f 29/29/29 30/30/30 33/33/33
f 29/29/29 33/33/33 34/34/34
f 37/37/37 36/36/36 35/35/35
f 37/37/37 38/38/38 36/36/36
f 37/37/37 35/35/35 39/39/39
f 37/37/37 39/39/39 40/40/40
f 43/43/43 42/42/42 41/41/41
f 43/43/43 44/44/44 42/42/42
f 45/45/45 44/44/44 43/43/43
f 45/45/45 46/46/46 44/44/44
f 49/49/49 48/48/48 47/47/47
f 49/49/49 50/50/50 48/48/48
f 50/50/50 51/51/51 48/48/48
f 50/50/50 52/52/52 51/51/51
f 55/55/55 54/54/54 53/53/53
f 55/55/55 56/56/56 54/54/54
f 53/53/53 54/54/54 57/57/57
f 53/53/53 57/57/57 58/58/58
f 61/61/61 60/60/60 59/59/59
f 61/61/61 62/62/62 60/60/60
f 61/61/61 59/59/59 63/63/63
f 61/61/61 63/63/63 64/64/64
f 67/67/67 66/66/66 65/65/65
f 67/67/67 68/68/68 66/66/66
f 69/69/69 68/68/68 67/67/67
f 69/69/69 70/70/70 68/68/68
f 73/73/73 72/72/72 71/71/71
f 73/73/73 74/74/74 72/72/72
f 74/74/74 75/75/75 72/72/72
f 74/74/74 76/76/76 75/75/75
f 79/79/79 78/78/78 77/77/77
f 79/79/79 80/80/80 78/78/78
f 77/77/77 78/78/78 81/81/81
f 77/77/77 81/81/81 82/82/82
f 85/85/85 84/84/84 83/83/83
f 85/85/85 86/86/86 84/84/84
f 85/85/85 83/83/83 87/87/87
f 85/85/85 87/87/87 88/88/88
f 91/91/91 90/90/90 89/89/89
f 91/91/91 92/92/92 90/90/90
f 93/93/93 92/92/92 91/91/91
f 93/93/93 94/94/94 92/92/92
f 97/97/97 96/96/96 95/95/95
f 97/97/97 98/98/98 96/96/96
f 98/98/98 99/99/99 96/96/96
f 98/98/98 100/100/100 99/99/99
f 103/103/103 102/102/102 101/101/101
f 103/103/103 104/104/104 102/102/102
f 105/105/105 101/101/101 102/102/102
f 105/105/105 102/102/102 106/106/106
f 109/109/109 108/108/108 107/107/107
f 109/109/109 110/110/110 108/108/108
f 111/111/111 109/109/109 107/107/107
f 111/111/111 107/107/107 112/112/112
f 115/115/115 114/114/114 113/113/113
f 115/115/115 116/116/116 114/114/114
f 117/117/117 116/116/116 115/115/115
f 117/117/117 118/118/118 116/116/116
