g TireK_Slick_RF_LOD2
v 0.004555732 0.122984 0.122984
v 0.004555732 -5.960464E-08 0.1700411
v -0.1611777 0.122984 0.122984
v -0.1611777 -5.960464E-08 0.1700411
v -0.1611777 0.1700411 -5.960464E-08
v 0.004555732 0.1700411 -5.960464E-08
v -0.1935577 -5.960464E-08 0.09335792
v -0.181441 -5.960464E-08 -5.960464E-08
v -0.1935327 0.09335792 -5.960464E-08
v -0.1611777 0.122984 0.122984
v -0.1611777 0.1700411 -5.960464E-08
v -0.1611777 -5.960464E-08 0.1700411
v 0.03316131 -5.960464E-08 -5.960464E-08
v 0.03562154 -5.960464E-08 0.09335792
v 0.03562154 0.09335792 -5.960464E-08
v 0.004555732 0.122984 0.122984
v 0.004555732 -5.960464E-08 0.1700411
v 0.004555732 0.1700411 -5.960464E-08
v 0.004555732 -0.1229841 0.122984
v 0.004555732 -0.1700412 -5.960464E-08
v -0.1611777 -0.1229841 0.122984
v -0.1611777 -0.1700412 -5.960464E-08
v -0.1611777 -5.960464E-08 0.1700411
v 0.004555732 -5.960464E-08 0.1700411
v -0.1935577 -5.960464E-08 0.09335792
v -0.1935577 -0.09335803 -5.960464E-08
v -0.181441 -5.960464E-08 -5.960464E-08
v 0.03316131 -5.960464E-08 -5.960464E-08
v 0.03562154 -0.09335803 -5.960464E-08
v 0.03562154 -5.960464E-08 0.09335792
v 0.004555732 -0.1229841 0.122984
v 0.03562154 -5.960464E-08 0.09335792
v 0.03562154 -0.09335803 -5.960464E-08
v 0.004555732 -5.960464E-08 0.1700411
v 0.004555732 -0.1700412 -5.960464E-08
v -0.1611777 -0.1229841 0.122984
v -0.1935577 -5.960464E-08 0.09335792
v -0.1611777 -5.960464E-08 0.1700411
v -0.1935577 -0.09335803 -5.960464E-08
v -0.1611777 -0.1700412 -5.960464E-08
v 0.004555732 -0.1229841 -0.1229841
v 0.03562154 -0.09335803 -5.960464E-08
v 0.03562154 -5.960464E-08 -0.09335803
v 0.03316131 -5.960464E-08 -5.960464E-08
v 0.004555732 -0.1700412 -5.960464E-08
v 0.004555732 -5.960464E-08 -0.1700412
v 0.004555732 -0.1229841 -0.1229841
v 0.004555732 -5.960464E-08 -0.1700412
v -0.1611777 -0.1229841 -0.1229841
v -0.1611777 -5.960464E-08 -0.1700412
v -0.1611777 -0.1700412 -5.960464E-08
v 0.004555732 -0.1700412 -5.960464E-08
v -0.181441 -5.960464E-08 -5.960464E-08
v -0.1935577 -0.09335803 -5.960464E-08
v -0.1935577 -5.960464E-08 -0.09335803
v -0.1611777 -0.1229841 -0.1229841
v -0.1611777 -0.1700412 -5.960464E-08
v -0.1611777 -5.960464E-08 -0.1700412
v 0.004555732 0.122984 -0.1229841
v 0.004555732 0.1700411 -5.960464E-08
v -0.1611777 0.122984 -0.1229841
v -0.1611777 0.1700411 -5.960464E-08
v -0.1611777 -5.960464E-08 -0.1700412
v 0.004555732 -5.960464E-08 -0.1700412
v -0.181441 -5.960464E-08 -5.960464E-08
v -0.1935577 -5.960464E-08 -0.09335803
v -0.1935327 0.09335792 -5.960464E-08
v 0.03316131 -5.960464E-08 -5.960464E-08
v 0.03562154 0.09335792 -5.960464E-08
v 0.03562154 -5.960464E-08 -0.09335803
v 0.004555732 0.122984 -0.1229841
v 0.03562154 -5.960464E-08 -0.09335803
v 0.03562154 0.09335792 -5.960464E-08
v 0.004555732 0.1700411 -5.960464E-08
v 0.004555732 -5.960464E-08 -0.1700412
v -0.1611777 0.122984 -0.1229841
v -0.1611777 0.1700411 -5.960464E-08
v -0.1935327 0.09335792 -5.960464E-08
v -0.1935577 -5.960464E-08 -0.09335803
v -0.1611777 -5.960464E-08 -0.1700412
vt 0.2343687 0.5412953
vt 0.4493259 0.5412953
vt 0.2343687 0.9899476
vt 0.4493259 0.9899476
vt 0.0194266 0.9899476
vt 0.0194266 0.5412953
vt 0.2878063 0.03123959
vt 0.03131502 0.03123959
vt 0.03131502 0.2877309
vt 0.3551992 0.3551238
vt 0.03131502 0.4713376
vt 0.4714131 0.03123959
vt 0.9690222 0.9687054
vt 0.9690222 0.7240573
vt 0.7243741 0.9687054
vt 0.6385149 0.6381981
vt 0.9690222 0.5293013
vt 0.5296181 0.9687054
vt 1.23437 0.5412953
vt 1.449327 0.5412953
vt 1.23437 0.9899476
vt 1.449327 0.9899476
vt 1.019427 0.9899476
vt 1.019427 0.5412953
vt 1.031316 0.2877309
vt 1.287807 0.03123959
vt 1.031316 0.03123959
vt 1.969023 0.9687054
vt 1.969023 0.7240573
vt 1.724375 0.9687054
vt 0.722805 0.2496064
vt 0.8845057 0.4007313
vt 0.8845057 0.09848162
vt 0.8001401 0.4850818
vt 0.8001401 0.01411603
vt 0.6663652 0.3744047
vt 0.5026579 0.5328316
vt 0.5867218 0.6168955
vt 0.5026579 0.2159628
vt 0.5867218 0.131899
vt 2.638516 0.6381981
vt 2.724375 0.9687054
vt 2.969024 0.7240573
vt 2.969024 0.9687054
vt 2.529619 0.9687054
vt 2.969024 0.5293013
vt 2.23437 0.5412953
vt 2.449327 0.5412953
vt 2.23437 0.9899476
vt 2.449327 0.9899476
vt 2.019413 0.9899476
vt 2.019413 0.5412953
vt 2.031317 0.03123959
vt 2.031317 0.2877309
vt 2.287808 0.03123959
vt 2.355201 0.3551238
vt 2.031317 0.4713376
vt 2.471415 0.03123959
vt 3.234371 0.5412953
vt 3.449328 0.5412953
vt 3.234371 0.9899476
vt 3.449328 0.9899476
vt 3.019414 0.9899476
vt 3.019414 0.5412953
vt 3.031317 0.03123959
vt 3.031317 0.2877309
vt 3.287793 0.03123959
vt 3.969024 0.9687054
vt 3.969024 0.7240573
vt 3.724376 0.9687054
vt 3.722792 0.2496064
vt 3.884493 0.4007313
vt 3.884493 0.09848162
vt 3.800142 0.01411603
vt 3.800142 0.4850818
vt 3.666367 0.3744047
vt 3.586724 0.131899
vt 3.50266 0.2159628
vt 3.50266 0.5328316
vt 3.586724 0.6168955
vn 0.3548386 0.6617788 0.6604078
vn 0.3020526 0.0009775162 0.9532908
vn -0.3528835 0.6617788 0.6614545
vn -0.3000976 0.0009775162 0.953908
vn -0.3000976 0.9530787 -0.03977844
vn 0.3020526 0.9530787 -0.02012791
vn -0.9765391 0.0009775162 0.2153378
vn -0.9999995 0.0009775162 0
vn -0.9765391 0.2121211 -0.03709401
vn -0.3528835 0.6617788 0.6614545
vn -0.3000976 0.9530787 -0.03977844
vn -0.3000976 0.0009775162 0.953908
vn 0.9999995 0.0009775162 0
vn 0.9745841 0.0009775162 0.2240197
vn 0.9745841 0.2218963 -0.03078696
vn 0.3548386 0.6617788 0.6604078
vn 0.3020526 0.0009775162 0.9532908
vn 0.3020526 0.9530787 -0.02012791
vn 0.3548386 -0.6617788 0.6604078
vn 0.3020526 -0.9530787 -0.02012791
vn -0.3528835 -0.6617788 0.6614545
vn -0.3000976 -0.9530787 -0.03977844
vn -0.3000976 0.0009775162 0.953908
vn 0.3020526 0.0009775162 0.9532908
vn -0.9765391 0.0009775162 0.2153378
vn -0.9765391 -0.2121211 -0.03709401
vn -0.9999995 0.0009775162 0
vn 0.9999995 0.0009775162 0
vn 0.9745841 -0.2218963 -0.03078696
vn 0.9745841 0.0009775162 0.2240197
vn 0.3548386 -0.6617788 0.6604078
vn 0.9745841 0.0009775162 0.2240197
vn 0.9745841 -0.2218963 -0.03078696
vn 0.3020526 0.0009775162 0.9532908
vn 0.3020526 -0.9530787 -0.02012791
vn -0.3528835 -0.6617788 0.6614545
vn -0.9765391 0.0009775162 0.2153378
vn -0.3000976 0.0009775162 0.953908
vn -0.9765391 -0.2121211 -0.03709401
vn -0.3000976 -0.9530787 -0.03977844
vn 0.3548386 -0.6617788 -0.6604078
vn 0.9745841 -0.2218963 -0.03078696
vn 0.9745841 0.0009775162 -0.2240197
vn 0.9999995 0.0009775162 0
vn 0.3020526 -0.9530787 -0.02012791
vn 0.3020526 0.0009775162 -0.9532908
vn 0.3548386 -0.6617788 -0.6604078
vn 0.3020526 0.0009775162 -0.9532908
vn -0.3528835 -0.6617788 -0.6614545
vn -0.3000976 0.0009775162 -0.953908
vn -0.3000976 -0.9530787 -0.03977844
vn 0.3020526 -0.9530787 -0.02012791
vn -0.9999995 0.0009775162 0
vn -0.9765391 -0.2121211 -0.03709401
vn -0.9765391 0.0009775162 -0.2153378
vn -0.3528835 -0.6617788 -0.6614545
vn -0.3000976 -0.9530787 -0.03977844
vn -0.3000976 0.0009775162 -0.953908
vn 0.3548386 0.6617788 -0.6604078
vn 0.3020526 0.9530787 -0.02012791
vn -0.3528835 0.6617788 -0.6614545
vn -0.3000976 0.9530787 -0.03977844
vn -0.3000976 0.0009775162 -0.953908
vn 0.3020526 0.0009775162 -0.9532908
vn -0.9999995 0.0009775162 0
vn -0.9765391 0.0009775162 -0.2153378
vn -0.9765391 0.2121211 -0.03709401
vn 0.9999995 0.0009775162 0
vn 0.9745841 0.2218963 -0.03078696
vn 0.9745841 0.0009775162 -0.2240197
vn 0.3548386 0.6617788 -0.6604078
vn 0.9745841 0.0009775162 -0.2240197
vn 0.9745841 0.2218963 -0.03078696
vn 0.3020526 0.9530787 -0.02012791
vn 0.3020526 0.0009775162 -0.9532908
vn -0.3528835 0.6617788 -0.6614545
vn -0.3000976 0.9530787 -0.03977844
vn -0.9765391 0.2121211 -0.03709401
vn -0.9765391 0.0009775162 -0.2153378
vn -0.3000976 0.0009775162 -0.953908
g TireK_Slick_RF_LOD2_0
f 3/3/3 2/2/2 1/1/1
f 3/3/3 4/4/4 2/2/2
f 5/5/5 3/3/3 1/1/1
f 5/5/5 1/1/1 6/6/6
f 9/9/9 8/8/8 7/7/7
f 10/10/10 9/9/9 7/7/7
f 10/10/10 11/11/11 9/9/9
f 10/10/10 7/7/7 12/12/12
f 15/15/15 14/14/14 13/13/13
f 16/16/16 14/14/14 15/15/15
f 16/16/16 17/17/17 14/14/14
f 16/16/16 15/15/15 18/18/18
f 21/21/21 20/20/20 19/19/19
f 21/21/21 22/22/22 20/20/20
f 23/23/23 21/21/21 19/19/19
f 23/23/23 19/19/19 24/24/24
f 27/27/27 26/26/26 25/25/25
f 30/30/30 29/29/29 28/28/28
f 33/33/33 32/32/32 31/31/31
f 32/32/32 34/34/34 31/31/31
f 31/31/31 35/35/35 33/33/33
f 38/38/38 37/37/37 36/36/36
f 37/37/37 39/39/39 36/36/36
f 39/39/39 40/40/40 36/36/36
f 43/43/43 42/42/42 41/41/41
f 42/42/42 43/43/43 44/44/44
f 42/42/42 45/45/45 41/41/41
f 43/43/43 41/41/41 46/46/46
f 49/49/49 48/48/48 47/47/47
f 49/49/49 50/50/50 48/48/48
f 51/51/51 49/49/49 47/47/47
f 51/51/51 47/47/47 52/52/52
f 55/55/55 54/54/54 53/53/53
f 54/54/54 55/55/55 56/56/56
f 57/57/57 54/54/54 56/56/56
f 55/55/55 58/58/58 56/56/56
f 61/61/61 60/60/60 59/59/59
f 61/61/61 62/62/62 60/60/60
f 63/63/63 61/61/61 59/59/59
f 63/63/63 59/59/59 64/64/64
f 67/67/67 66/66/66 65/65/65
f 70/70/70 69/69/69 68/68/68
f 73/73/73 72/72/72 71/71/71
f 71/71/71 74/74/74 73/73/73
f 72/72/72 75/75/75 71/71/71
f 78/78/78 77/77/77 76/76/76
f 79/79/79 78/78/78 76/76/76
f 80/80/80 79/79/79 76/76/76
