g TireK_BigR_LF_LOD2
v 0.3183075 0.0001011789 0
v 0.3149637 0.04732177 -0.0343729
v 0.3149637 -0.01805967 -0.05561695
v 0.3149637 0.04732177 0.03437293
v 0.3149637 -0.01805967 0.05561697
v 0.3149637 -0.0584681 0
v 0.2250001 0.1080644 0.07851321
v 0.2250001 0 0.1335747
v 0.2883602 0.1515315 0.1100938
v 0.2883602 0 0.1873034
v 0.2250001 0.1335747 0
v 0.2883602 0.1873034 0
v 0.2683603 0.2272884 0.1651347
v -0.06836009 0.2272884 0.1651347
v 0.2683603 0.2809439 0
v -0.06836009 0.2809439 0
v -0.06836009 0 0.2809439
v 0.2683603 0 0.2809439
v -0.06836009 0 0
v -0.06836009 0.2809439 0
v -0.06836009 0.2272884 0.1651347
v -0.06836009 0 0.2809439
v 0.2883602 0.1515315 0.1100938
v 0.2843598 0.1666829 0.1211024
v 0.2883602 0.1873034 0
v 0.2843598 0.2060312 0
v 0.2843598 0 0.2060312
v 0.2883602 0 0.1873034
v 0.2843598 0.2060312 0
v 0.2843598 0.1666829 0.1211024
v 0.2683603 0.2809439 0
v 0.2683603 0.2272884 0.1651347
v 0.2843598 0 0.2060312
v 0.2683603 0 0.2809439
v 0.2250001 -0.07851316 0.1080644
v 0.2250001 -0.1335746 0
v 0.2883602 -0.1100938 0.1515315
v 0.2883602 -0.1873034 0
v 0.2250001 0 0.1335747
v 0.2883602 0 0.1873034
v 0.2683603 -0.1651347 0.2272884
v -0.06836009 -0.1651347 0.2272884
v 0.2683603 0 0.2809439
v -0.06836009 0 0.2809439
v -0.06836009 -0.2809439 0
v 0.2683603 -0.2809439 0
v -0.06836009 0 0
v -0.06836009 0 0.2809439
v -0.06836009 -0.1651347 0.2272884
v -0.06836009 -0.2809439 0
v 0.2883602 -0.1100938 0.1515315
v 0.2843598 -0.1211024 0.1666829
v 0.2883602 0 0.1873034
v 0.2843598 0 0.2060312
v 0.2843598 -0.2060311 0
v 0.2883602 -0.1873034 0
v 0.2843598 0 0.2060312
v 0.2843598 -0.1211024 0.1666829
v 0.2683603 0 0.2809439
v 0.2683603 -0.1651347 0.2272884
v 0.2843598 -0.2060311 0
v 0.2683603 -0.2809439 0
v 0.2250001 -0.1080644 -0.07851316
v 0.2250001 0 -0.1335746
v 0.2883602 -0.1515315 -0.1100938
v 0.2883602 0 -0.1873034
v 0.2250001 -0.1335746 0
v 0.2883602 -0.1873034 0
v 0.2683603 -0.2272883 -0.1651347
v -0.06836009 -0.2272883 -0.1651347
v 0.2683603 -0.2809439 0
v -0.06836009 -0.2809439 0
v -0.06836009 0 -0.2809439
v 0.2683603 0 -0.2809439
v -0.06836009 0 0
v -0.06836009 -0.2809439 0
v -0.06836009 -0.2272883 -0.1651347
v -0.06836009 0 -0.2809439
v 0.2883602 -0.1515315 -0.1100938
v 0.2843598 -0.1666828 -0.1211024
v 0.2883602 -0.1873034 0
v 0.2843598 -0.2060311 0
v 0.2843598 0 -0.2060311
v 0.2883602 0 -0.1873034
v 0.2843598 -0.2060311 0
v 0.2843598 -0.1666828 -0.1211024
v 0.2683603 -0.2809439 0
v 0.2683603 -0.2272883 -0.1651347
v 0.2843598 0 -0.2060311
v 0.2683603 0 -0.2809439
v 0.2250001 0.07851321 -0.1080644
v 0.2250001 0.1335747 0
v 0.2883602 0.1100938 -0.1515315
v 0.2883602 0.1873034 0
v 0.2250001 0 -0.1335746
v 0.2883602 0 -0.1873034
v 0.2683603 0.1651347 -0.2272883
v -0.06836009 0.1651347 -0.2272883
v 0.2683603 0 -0.2809439
v -0.06836009 0 -0.2809439
v 0.2683603 0.2809439 0
v -0.06836009 0.2809439 0
v -0.06836009 0 0
v -0.06836009 0 -0.2809439
v -0.06836009 0.1651347 -0.2272883
v -0.06836009 0.2809439 0
v 0.2883602 0.1100938 -0.1515315
v 0.2843598 0.1211024 -0.1666828
v 0.2883602 0 -0.1873034
v 0.2843598 0 -0.2060311
v 0.2843598 0.2060312 0
v 0.2883602 0.1873034 0
v 0.2843598 0 -0.2060311
v 0.2843598 0.1211024 -0.1666828
v 0.2683603 0 -0.2809439
v 0.2683603 0.1651347 -0.2272883
v 0.2843598 0.2060312 0
v 0.2683603 0.2809439 0
v 0.2250001 0 0
v 0.2250001 0.07851321 -0.1080644
v 0.2250001 0 -0.1335746
v 0.2250001 0.1335747 0
v 0.2250001 -0.1080644 -0.07851316
v 0.2250001 -0.1335746 0
v 0.2250001 -0.07851316 0.1080644
v 0.2250001 0 0.1335747
v 0.2250001 0.1080644 0.07851321
v 0.3135829 0.08805823 0.03820363
v 0.3135829 0.1045469 -0.005371422
v 0.3149637 0.04732177 0.03437293
v 0.3149637 0.04732177 -0.0343729
v 0.2833602 0.1781361 0.05788007
v 0.2833602 0.1515315 0.1100938
v 0.3135829 -0.009122133 0.0955539
v 0.3135829 0.03741553 0.09777015
v 0.3149637 -0.01805967 0.05561697
v 0.3149637 0.04732177 0.03437293
v 0.2833602 0 0.1873034
v 0.2833602 -0.05788004 0.1781361
v 0.3135829 -0.09369597 0.020852
v 0.3135829 -0.08142321 0.06579694
v 0.3149637 -0.0584681 0
v 0.3149637 -0.01805967 0.05561697
v 0.2833602 -0.1781361 0.05788007
v 0.2833602 -0.1873034 0
v 0.3135829 -0.04878533 -0.08266677
v 0.3135829 -0.0877376 -0.05710569
v 0.3149637 -0.01805967 -0.05561695
v 0.3149637 -0.0584681 0
v 0.2833602 -0.1100943 -0.1515315
v 0.2833602 -0.05788004 -0.1781361
v 0.3135829 0.06354526 -0.07194273
v 0.3135829 0.02719843 -0.1010899
v 0.3149637 0.04732177 -0.0343729
v 0.3149637 -0.01805967 -0.05561695
v 0.2833602 0.1100944 -0.1515315
v 0.2833602 0.1515315 -0.1100938
vt 0.8587304 0.8593364
vt 0.9256902 0.9515008
vt 0.9670667 0.8241333
vt 0.7917706 0.9515008
vt 0.7503941 0.8241333
vt 0.8587304 0.7454233
vt 0.5294135 0.3668522
vt 0.3794166 0.3668522
vt 0.5294135 0.5576385
vt 0.3794166 0.5576385
vt 0.6294177 0.3668522
vt 0.6294177 0.5576385
vt 0.2933024 0.5837994
vt 0.2933024 0.9762036
vt 0.4799984 0.5837994
vt 0.4799984 0.9762036
vt 0.01999994 0.9762036
vt 0.01999994 0.5837994
vt 0.01999994 0.01999994
vt 0.01999994 0.4734653
vt 0.2865421 0.3868587
vt 0.4734653 0.01999994
vt 0.7625609 0.4776219
vt 0.7625609 0.5258155
vt 0.8238587 0.4776219
vt 0.8238587 0.5258155
vt 0.6706048 0.5258155
vt 0.6706048 0.4776219
vt 0.976999 0.3597605
vt 0.7772936 0.2948742
vt 0.976999 0.4742985
vt 0.7099645 0.3875405
vt 0.6372384 0.01999994
vt 0.5227004 0.01999994
vt 1.529418 0.3668522
vt 1.379421 0.3668522
vt 1.529418 0.5576385
vt 1.379421 0.5576385
vt 1.629422 0.3668522
vt 1.629422 0.5576385
vt 1.293297 0.5837994
vt 1.293297 0.9762036
vt 1.480003 0.5837994
vt 1.480003 0.9762036
vt 1.020004 0.9762036
vt 1.020004 0.5837994
vt 1.020004 0.01999994
vt 1.020004 0.4734653
vt 1.286546 0.3868587
vt 1.473469 0.01999994
vt 1.762556 0.4776219
vt 1.762556 0.5258155
vt 1.823863 0.4776219
vt 1.823863 0.5258155
vt 1.670599 0.5258155
vt 1.670599 0.4776219
vt 0.6383652 0.9793566
vt 0.7032514 0.7796512
vt 0.5238271 0.9793566
vt 0.6105852 0.7123315
vt 0.9781257 0.639596
vt 0.9781257 0.525058
vt 2.529422 0.3668522
vt 2.379415 0.3668522
vt 2.529422 0.5576385
vt 2.379415 0.5576385
vt 2.629416 0.3668522
vt 2.629416 0.5576385
vt 2.293301 0.5837994
vt 2.293301 0.9762036
vt 2.479997 0.5837994
vt 2.479997 0.9762036
vt 2.019999 0.9762036
vt 2.019999 0.5837994
vt 2.019999 0.01999994
vt 2.019999 0.4734653
vt 2.286541 0.3868587
vt 2.473464 0.01999994
vt 2.76256 0.4780006
vt 2.76256 0.532377
vt 2.823867 0.4780006
vt 2.823867 0.532377
vt 2.670604 0.532377
vt 2.670604 0.4780006
vt 2.976998 0.3597605
vt 2.777292 0.2948742
vt 2.976998 0.4742985
vt 2.709973 0.3875405
vt 2.637237 0.01999994
vt 2.522699 0.01999994
vt 3.529416 0.3668522
vt 3.379419 0.3668522
vt 3.529416 0.5576385
vt 3.379419 0.5576385
vt 3.629421 0.3668522
vt 3.629421 0.5576385
vt 3.293296 0.5837994
vt 3.293296 0.9762036
vt 3.480001 0.5837994
vt 3.480001 0.9762036
vt 3.020003 0.5837994
vt 3.020003 0.9762036
vt 3.020003 0.01999994
vt 3.020003 0.4734653
vt 3.286545 0.3868587
vt 3.473468 0.01999994
vt 3.762554 0.4780006
vt 3.762554 0.532377
vt 3.823861 0.4780006
vt 3.823861 0.532377
vt 3.670598 0.532377
vt 3.670598 0.4780006
vt 2.638364 0.9793566
vt 2.70325 0.7796512
vt 2.523826 0.9793566
vt 2.610593 0.7123315
vt 2.978124 0.639596
vt 2.978124 0.525058
vt 0.2815618 0.4910858
vt 0.3265835 0.5237988
vt 0.337207 0.4910858
vt 0.2815618 0.546731
vt 0.3142748 0.4460735
vt 0.2815618 0.4354406
vt 0.2365495 0.4583823
vt 0.2259165 0.4910858
vt 0.2488582 0.5361075
vt 0.8827231 0.06268305
vt 0.8827231 0.1338089
vt 0.9841096 0.06268305
vt 0.9841096 0.1338089
vt 0.7214874 0.1338089
vt 0.7214874 0.06268305
vt 1.882718 0.06268305
vt 1.882718 0.1338089
vt 1.984104 0.06268305
vt 1.984104 0.1338089
vt 1.721482 0.1338089
vt 1.721482 0.06268305
vt 2.882722 0.06268305
vt 2.882722 0.1338089
vt 2.984108 0.06268305
vt 2.984108 0.1338089
vt 2.721486 0.1338089
vt 2.721486 0.06268305
vt 3.882716 0.06268305
vt 3.882716 0.1338089
vt 3.984103 0.06268305
vt 3.984103 0.1338089
vt 3.721481 0.1338089
vt 3.721481 0.06268305
vt 4.88272 0.06268305
vt 4.88272 0.1338089
vt 4.984107 0.06268305
vt 4.984107 0.1338089
vt 4.721485 0.1338089
vt 4.721485 0.06268305
vn 0.9999995 0.0009775162 0
vn 0.9980445 0.04594326 -0.0423842
vn 0.9980445 -0.01857281 -0.05968463
vn 0.9980445 0.04594326 0.0423842
vn 0.9980445 -0.01857281 0.05968463
vn 0.9980445 -0.05767345 -0.02410345
vn 0.6422284 -0.5366566 -0.5473046
vn 0.6402734 -0.1339198 -0.7563832
vn 0.6441835 -0.5522969 -0.5291464
vn 0.6422284 -0.1085044 -0.7587948
vn 0.6402734 -0.7556204 0.1381588
vn 0.6422284 -0.7575754 0.116714
vn 0.1417399 0.7008795 0.6990549
vn -0.5210164 0.6031277 0.6039693
vn 0.14565 0.9765391 -0.158611
vn -0.5210164 0.8416418 -0.1420601
vn -0.5210164 0.1339198 0.8429754
vn 0.14565 0.1554252 0.9770513
vn -0.9999995 0.0009775162 0
vn -0.5210164 0.8416418 -0.1420601
vn -0.5210164 0.6031277 0.6039693
vn -0.5210164 0.1339198 0.8429754
vn 0.9765391 0.14565 0.1586109
vn 0.9765391 0.1515151 0.153018
vn 0.9765391 0.2082111 -0.05494991
vn 0.9781017 0.2081276 0
vn 0.9784942 0.0244379 0.2048218
vn 0.9765391 0.03225803 0.2129102
vn 0.9765391 0.2082111 -0.05494991
vn 0.9784942 0.1534702 0.1378264
vn 0.14565 0.9765391 -0.158611
vn 0.1417399 0.7008795 0.6990549
vn 0.9765391 0.04789829 0.2099455
vn 0.14565 0.1554252 0.9770513
vn 0.6422284 0.5483868 -0.5355507
vn 0.6402734 0.7556204 -0.1381588
vn 0.6441835 0.5288365 -0.5525936
vn 0.6422284 0.7575754 -0.116714
vn 0.6402734 -0.1339198 -0.7563832
vn 0.6422284 -0.1085044 -0.7587948
vn 0.1417399 -0.6989244 0.7010096
vn -0.5210164 -0.6031278 0.6039692
vn 0.14565 0.1554252 0.9770513
vn -0.5210164 0.1339198 0.8429754
vn -0.5210164 -0.8416418 0.1420598
vn 0.14565 -0.9765391 0.158611
vn -0.9999995 0.0009775162 0
vn -0.5210164 0.1339198 0.8429754
vn -0.5210164 -0.6031278 0.6039692
vn -0.5210164 -0.8416418 0.1420598
vn 0.9765391 -0.1554251 0.1490449
vn 0.9765391 -0.147605 0.1567932
vn 0.9765391 0.03225803 0.2129102
vn 0.9784942 0.0244379 0.2048218
vn 0.9781017 -0.2081276 0
vn 0.9765391 -0.2082111 0.05494991
vn 0.9765391 0.04789829 0.2099455
vn 0.9784942 -0.1436949 0.1479897
vn 0.14565 0.1554252 0.9770513
vn 0.1417399 -0.6989244 0.7010096
vn 0.9765391 -0.2082111 0.05494991
vn 0.14565 -0.9765391 0.158611
vn 0.6422284 0.5366566 0.5473046
vn 0.6402734 0.1339198 0.7563832
vn 0.6441835 0.5522969 0.5291464
vn 0.6422284 0.1085043 0.7587948
vn 0.6402734 0.7556204 -0.1381588
vn 0.6422284 0.7575754 -0.116714
vn 0.1417399 -0.7008795 -0.6990549
vn -0.5210164 -0.6031278 -0.6039692
vn 0.14565 -0.9765391 0.158611
vn -0.5210164 -0.8416418 0.1420598
vn -0.5210164 -0.1339198 -0.8429754
vn 0.14565 -0.1554251 -0.9770513
vn -0.9999995 0.0009775162 0
vn -0.5210164 -0.8416418 0.1420598
vn -0.5210164 -0.6031278 -0.6039692
vn -0.5210164 -0.1339198 -0.8429754
vn 0.9765391 -0.14565 -0.1586109
vn 0.9765391 -0.1515151 -0.1530181
vn 0.9765391 -0.2082111 0.05494991
vn 0.9781017 -0.2081276 0
vn 0.9784942 -0.0244379 -0.2048218
vn 0.9765391 -0.03225803 -0.2129102
vn 0.9765391 -0.2082111 0.05494991
vn 0.9784942 -0.1534701 -0.1378264
vn 0.14565 -0.9765391 0.158611
vn 0.1417399 -0.7008795 -0.6990549
vn 0.9765391 -0.04789829 -0.2099455
vn 0.14565 -0.1554251 -0.9770513
vn 0.6422284 -0.5483868 0.5355507
vn 0.6402734 -0.7556204 0.1381588
vn 0.6441835 -0.5288365 0.5525936
vn 0.6422284 -0.7575754 0.116714
vn 0.6402734 0.1339198 0.7563832
vn 0.6422284 0.1085043 0.7587948
vn 0.1417399 0.6989244 -0.7010096
vn -0.5210164 0.6031277 -0.6039693
vn 0.14565 -0.1554251 -0.9770513
vn -0.5210164 -0.1339198 -0.8429754
vn 0.14565 0.9765391 -0.158611
vn -0.5210164 0.8416418 -0.1420601
vn -0.9999995 0.0009775162 0
vn -0.5210164 -0.1339198 -0.8429754
vn -0.5210164 0.6031277 -0.6039693
vn -0.5210164 0.8416418 -0.1420601
vn 0.9765391 0.1554252 -0.1490448
vn 0.9765391 0.1476051 -0.1567931
vn 0.9765391 -0.03225803 -0.2129102
vn 0.9784942 -0.0244379 -0.2048218
vn 0.9781017 0.2081276 0
vn 0.9765391 0.2082111 -0.05494991
vn 0.9765391 -0.04789829 -0.2099455
vn 0.9784942 0.143695 -0.1479897
vn 0.14565 -0.1554251 -0.9770513
vn 0.1417399 0.6989244 -0.7010096
vn 0.9765391 0.2082111 -0.05494991
vn 0.14565 0.9765391 -0.158611
vn 0.9999995 0.0009775162 0
vn 0.9999995 0.0009775162 0
vn 0.9999995 0.0009775162 0
vn 0.9999995 0.0009775162 0
vn 0.9999995 0.0009775162 0
vn 0.9999995 0.0009775162 0
vn 0.9999995 0.0009775162 0
vn 0.9999995 0.0009775162 0
vn 0.9999995 0.0009775162 0
vn 0.968719 0.2258064 0.1029318
vn 0.9843593 0.1652004 0.0612021
vn 0.9996519 0.02638376 0
vn 0.9997014 0.02443062 0
vn 0.9472136 0.2883674 0.1401091
vn 0.9472136 0.2864124 0.1440634
vn 0.968719 -0.02052784 0.2473097
vn 0.9843593 -0.004887581 0.176105
vn 0.9999881 0.004887525 0
vn 0.9999766 0.006842457 0
vn 0.9472136 -0.0420332 0.3178357
vn 0.9472136 -0.04985332 0.3167032
vn 0.968719 -0.2394916 0.06501725
vn 0.9843593 -0.1671553 0.05564127
vn 0.9997473 -0.0224772 0
vn 0.9998275 -0.01856961 0
vn 0.9472136 -0.3137829 0.06577698
vn 0.9472136 -0.3176929 0.04309877
vn 0.968719 -0.1280547 -0.2125687
vn 0.9843593 -0.09872919 -0.1459089
vn 0.9998275 -0.01856961 0
vn 0.9998275 -0.01856961 0
vn 0.9472136 -0.1515151 -0.2825411
vn 0.9472136 -0.14565 -0.2856088
vn 0.968719 0.1612903 -0.1885972
vn 0.9843593 0.1065493 -0.1403001
vn 0.9999422 0.01075206 0
vn 0.9999766 0.006842457 0
vn 0.9472136 0.2199413 -0.2332641
vn 0.9472136 0.2277614 -0.2256348
g TireK_BigR_LF_LOD2_0
f 3/3/3 2/2/2 1/1/1
f 2/2/2 4/4/4 1/1/1
f 4/4/4 5/5/5 1/1/1
f 5/5/5 6/6/6 1/1/1
f 6/6/6 3/3/3 1/1/1
f 9/9/9 8/8/8 7/7/7
f 9/9/9 10/10/10 8/8/8
f 11/11/11 9/9/9 7/7/7
f 11/11/11 12/12/12 9/9/9
f 15/15/15 14/14/14 13/13/13
f 15/15/15 16/16/16 14/14/14
f 13/13/13 14/14/14 17/17/17
f 13/13/13 17/17/17 18/18/18
f 21/21/21 20/20/20 19/19/19
f 21/21/21 19/19/19 22/22/22
f 25/25/25 24/24/24 23/23/23
f 25/25/25 26/26/26 24/24/24
f 23/23/23 24/24/24 27/27/27
f 23/23/23 27/27/27 28/28/28
f 31/31/31 30/30/30 29/29/29
f 31/31/31 32/32/32 30/30/30
f 32/32/32 33/33/33 30/30/30
f 32/32/32 34/34/34 33/33/33
f 37/37/37 36/36/36 35/35/35
f 37/37/37 38/38/38 36/36/36
f 39/39/39 37/37/37 35/35/35
f 39/39/39 40/40/40 37/37/37
f 43/43/43 42/42/42 41/41/41
f 43/43/43 44/44/44 42/42/42
f 41/41/41 42/42/42 45/45/45
f 41/41/41 45/45/45 46/46/46
f 49/49/49 48/48/48 47/47/47
f 49/49/49 47/47/47 50/50/50
f 53/53/53 52/52/52 51/51/51
f 53/53/53 54/54/54 52/52/52
f 51/51/51 52/52/52 55/55/55
f 51/51/51 55/55/55 56/56/56
f 59/59/59 58/58/58 57/57/57
f 59/59/59 60/60/60 58/58/58
f 60/60/60 61/61/61 58/58/58
f 60/60/60 62/62/62 61/61/61
f 65/65/65 64/64/64 63/63/63
f 65/65/65 66/66/66 64/64/64
f 67/67/67 65/65/65 63/63/63
f 67/67/67 68/68/68 65/65/65
f 71/71/71 70/70/70 69/69/69
f 71/71/71 72/72/72 70/70/70
f 69/69/69 70/70/70 73/73/73
f 69/69/69 73/73/73 74/74/74
f 77/77/77 76/76/76 75/75/75
f 77/77/77 75/75/75 78/78/78
f 81/81/81 80/80/80 79/79/79
f 81/81/81 82/82/82 80/80/80
f 79/79/79 80/80/80 83/83/83
f 79/79/79 83/83/83 84/84/84
f 87/87/87 86/86/86 85/85/85
f 87/87/87 88/88/88 86/86/86
f 88/88/88 89/89/89 86/86/86
f 88/88/88 90/90/90 89/89/89
f 93/93/93 92/92/92 91/91/91
f 93/93/93 94/94/94 92/92/92
f 95/95/95 93/93/93 91/91/91
f 95/95/95 96/96/96 93/93/93
f 99/99/99 98/98/98 97/97/97
f 99/99/99 100/100/100 98/98/98
f 101/101/101 97/97/97 98/98/98
f 101/101/101 98/98/98 102/102/102
f 105/105/105 104/104/104 103/103/103
f 106/106/106 105/105/105 103/103/103
f 109/109/109 108/108/108 107/107/107
f 109/109/109 110/110/110 108/108/108
f 107/107/107 108/108/108 111/111/111
f 107/107/107 111/111/111 112/112/112
f 115/115/115 114/114/114 113/113/113
f 115/115/115 116/116/116 114/114/114
f 116/116/116 117/117/117 114/114/114
f 116/116/116 118/118/118 117/117/117
f 121/121/121 120/120/120 119/119/119
f 120/120/120 122/122/122 119/119/119
f 123/123/123 121/121/121 119/119/119
f 124/124/124 123/123/123 119/119/119
f 125/125/125 124/124/124 119/119/119
f 126/126/126 125/125/125 119/119/119
f 122/122/122 127/127/127 119/119/119
f 127/127/127 126/126/126 119/119/119
f 130/130/130 129/129/129 128/128/128
f 130/130/130 131/131/131 129/129/129
f 128/128/128 129/129/129 132/132/132
f 128/128/128 132/132/132 133/133/133
f 136/136/136 135/135/135 134/134/134
f 136/136/136 137/137/137 135/135/135
f 134/134/134 135/135/135 138/138/138
f 134/134/134 138/138/138 139/139/139
f 142/142/142 141/141/141 140/140/140
f 142/142/142 143/143/143 141/141/141
f 140/140/140 141/141/141 144/144/144
f 140/140/140 144/144/144 145/145/145
f 148/148/148 147/147/147 146/146/146
f 148/148/148 149/149/149 147/147/147
f 146/146/146 147/147/147 150/150/150
f 146/146/146 150/150/150 151/151/151
f 154/154/154 153/153/153 152/152/152
f 154/154/154 155/155/155 153/153/153
f 152/152/152 153/153/153 156/156/156
f 152/152/152 156/156/156 157/157/157
