g TireK_Macaron_RF_LOD1
v -0.1931657 0.05675294 -0.03276627
v -0.195 -7.450581E-08 -7.450581E-08
v -0.1931657 0.03276646 -0.05675308
v -0.1931657 0.06553301 -7.450581E-08
v -0.1931657 0.05675294 0.03276646
v -0.1931657 0.03276646 0.05675294
v -0.1931657 -7.450581E-08 0.06553301
v -0.195 -7.450581E-08 -7.450581E-08
v -0.1931657 0.03276646 0.05675294
v -0.1931657 -0.03276627 0.05675294
v -0.1931657 -0.05675308 0.03276646
v -0.1931657 -0.0655328 -7.450581E-08
v -0.1931657 -0.05675308 -0.03276627
v -0.195 -7.450581E-08 -7.450581E-08
v -0.1931657 -0.0655328 -7.450581E-08
v -0.1931657 -0.03276627 -0.05675308
v -0.1931657 -7.450581E-08 -0.0655328
v -0.1931657 0.03276646 -0.05675308
v -0.1678734 0.1589123 -7.450581E-08
v -0.1678734 0.146816 0.06081328
v -0.1931657 0.06553301 -7.450581E-08
v -0.1931657 0.05675294 0.03276646
v -0.1678734 0.1123681 0.1123681
v -0.1931657 0.03276646 0.05675294
v -0.1678734 0.06081328 0.146816
v -0.1931657 -7.450581E-08 0.06553301
v -0.1678734 -7.450581E-08 0.1589123
v 0.01787347 -7.450581E-08 0.1589123
v 0.01787347 0.1123681 0.1123681
v 0.04388292 -7.450581E-08 0.07353678
v 0.04388292 0.0519982 0.0519982
v 0.01787347 0.1589123 -7.450581E-08
v 0.04388292 0.07353678 -7.450581E-08
v 0.03311697 -7.450581E-08 -7.450581E-08
v -0.10743 0.1719998 -7.450581E-08
v -0.1407996 0.1580989 0.0654868
v -0.1407996 0.1711248 -7.450581E-08
v -0.1678734 0.1589123 -7.450581E-08
v -0.1678734 0.146816 0.06081328
v -0.1407996 0.1210036 0.1210036
v -0.10743 0.1216224 0.1216224
v -0.1407996 0.0654868 0.1580989
v -0.04257028 0.1719998 -7.450581E-08
v -0.04257028 0.1216224 0.1216224
v -0.10743 -7.450581E-08 0.1719998
v -0.1407996 -7.450581E-08 0.1711248
v -0.04257028 -7.450581E-08 0.1719998
v -0.1678734 0.06081328 0.146816
v -0.1678734 -7.450581E-08 0.1589123
v -0.1678734 0.1123681 0.1123681
v -0.009200349 0.1210036 0.1210036
v -0.009200349 0.1711248 -7.450581E-08
v -0.009200349 -7.450581E-08 0.1711248
v 0.01787347 -7.450581E-08 0.1589123
v 0.01787347 0.1123681 0.1123681
v 0.01787347 0.1589123 -7.450581E-08
v -0.1678734 -7.450581E-08 0.1589123
v -0.1678734 -0.06081307 0.146816
v -0.1931657 -7.450581E-08 0.06553301
v -0.1931657 -0.03276627 0.05675294
v -0.1678734 -0.1123679 0.1123681
v -0.1931657 -0.05675308 0.03276646
v -0.1678734 -0.1468158 0.06081328
v -0.1931657 -0.0655328 -7.450581E-08
v -0.1678734 -0.1589125 -7.450581E-08
v 0.01787347 -0.1589125 -7.450581E-08
v 0.01787347 -0.1123679 0.1123681
v 0.04388292 -0.07353657 -7.450581E-08
v 0.04388292 -0.05199835 0.0519982
v 0.01787347 -7.450581E-08 0.1589123
v 0.04388292 -7.450581E-08 0.07353678
v 0.03311697 -7.450581E-08 -7.450581E-08
v -0.10743 -7.450581E-08 0.1719998
v -0.1407996 -0.0654866 0.1580989
v -0.1407996 -7.450581E-08 0.1711248
v -0.1678734 -7.450581E-08 0.1589123
v -0.1678734 -0.06081307 0.146816
v -0.1407996 -0.1210034 0.1210036
v -0.10743 -0.1216222 0.1216224
v -0.1407996 -0.1580987 0.0654868
v -0.04257028 -7.450581E-08 0.1719998
v -0.04257028 -0.1216222 0.1216224
v -0.10743 -0.172 -7.450581E-08
v -0.1407996 -0.171125 -7.450581E-08
v -0.04257028 -0.172 -7.450581E-08
v -0.1678734 -0.1468158 0.06081328
v -0.1678734 -0.1589125 -7.450581E-08
v -0.1678734 -0.1123679 0.1123681
v -0.009200349 -0.1210034 0.1210036
v -0.009200349 -7.450581E-08 0.1711248
v -0.009200349 -0.171125 -7.450581E-08
v 0.01787347 -0.1589125 -7.450581E-08
v 0.01787347 -0.1123679 0.1123681
v 0.01787347 -7.450581E-08 0.1589123
v -0.1678734 -0.1589125 -7.450581E-08
v -0.1678734 -0.1468158 -0.06081307
v -0.1931657 -0.0655328 -7.450581E-08
v -0.1931657 -0.05675308 -0.03276627
v -0.1678734 -0.1123682 -0.1123679
v -0.1931657 -0.03276627 -0.05675308
v -0.1678734 -0.06081307 -0.1468158
v -0.1931657 -7.450581E-08 -0.0655328
v -0.1678734 -7.450581E-08 -0.1589125
v 0.01787347 -7.450581E-08 -0.1589125
v 0.01787347 -0.1123682 -0.1123679
v 0.04388292 -7.450581E-08 -0.07353657
v 0.04388292 -0.05199835 -0.05199835
v 0.01787347 -0.1589125 -7.450581E-08
v 0.04388292 -0.07353657 -7.450581E-08
v 0.03311697 -7.450581E-08 -7.450581E-08
v -0.10743 -0.172 -7.450581E-08
v -0.1407996 -0.1580987 -0.0654866
v -0.1407996 -0.171125 -7.450581E-08
v -0.1678734 -0.1589125 -7.450581E-08
v -0.1678734 -0.1468158 -0.06081307
v -0.1407996 -0.1210038 -0.1210034
v -0.10743 -0.1216226 -0.1216222
v -0.1407996 -0.0654866 -0.1580987
v -0.04257028 -0.172 -7.450581E-08
v -0.04257028 -0.1216226 -0.1216222
v -0.10743 -7.450581E-08 -0.172
v -0.1407996 -7.450581E-08 -0.171125
v -0.04257028 -7.450581E-08 -0.172
v -0.1678734 -0.06081307 -0.1468158
v -0.1678734 -7.450581E-08 -0.1589125
v -0.1678734 -0.1123682 -0.1123679
v -0.009200349 -0.1210038 -0.1210034
v -0.009200349 -0.171125 -7.450581E-08
v -0.009200349 -7.450581E-08 -0.171125
v 0.01787347 -7.450581E-08 -0.1589125
v 0.01787347 -0.1123682 -0.1123679
v 0.01787347 -0.1589125 -7.450581E-08
v -0.1678734 -7.450581E-08 -0.1589125
v -0.1678734 0.06081328 -0.1468158
v -0.1931657 -7.450581E-08 -0.0655328
v -0.1931657 0.03276646 -0.05675308
v -0.1678734 0.1123681 -0.1123682
v -0.1931657 0.05675294 -0.03276627
v -0.1678734 0.146816 -0.06081307
v -0.1931657 0.06553301 -7.450581E-08
v -0.1678734 0.1589123 -7.450581E-08
v 0.04388292 0.07353678 -7.450581E-08
v 0.01787347 0.1589123 -7.450581E-08
v 0.04388292 0.0519982 -0.05199835
v 0.01787347 0.1123681 -0.1123682
v 0.01787347 -7.450581E-08 -0.1589125
v 0.04388292 -7.450581E-08 -0.07353657
v 0.03311697 -7.450581E-08 -7.450581E-08
v -0.10743 -7.450581E-08 -0.172
v -0.1407996 0.0654868 -0.1580987
v -0.1407996 -7.450581E-08 -0.171125
v -0.1678734 -7.450581E-08 -0.1589125
v -0.1678734 0.06081328 -0.1468158
v -0.1407996 0.1210036 -0.1210038
v -0.10743 0.1216224 -0.1216226
v -0.1407996 0.1580989 -0.0654866
v -0.04257028 -7.450581E-08 -0.172
v -0.04257028 0.1216224 -0.1216226
v -0.10743 0.1719998 -7.450581E-08
v -0.1407996 0.1711248 -7.450581E-08
v -0.04257028 0.1719998 -7.450581E-08
v -0.1678734 0.146816 -0.06081307
v -0.1678734 0.1589123 -7.450581E-08
v -0.1678734 0.1123681 -0.1123682
v -0.009200349 0.1210036 -0.1210038
v -0.009200349 -7.450581E-08 -0.171125
v -0.009200349 0.1711248 -7.450581E-08
v 0.01787347 0.1589123 -7.450581E-08
v 0.01787347 0.1123681 -0.1123682
v 0.01787347 -7.450581E-08 -0.1589125
vt 0.5921294 0.4664634
vt 0.5000017 0.3068948
vt 0.6595703 0.3990225
vt 0.5000017 0.4911503
vt 0.407874 0.4664634
vt 0.3404179 0.3990225
vt 1.592128 0.4664634
vt 1.5 0.3068948
vt 1.659584 0.3990225
vt 1.5 0.4911503
vt 1.407873 0.4664634
vt 1.340417 0.3990225
vt 2.592127 0.4664634
vt 2.499999 0.3068948
vt 2.659583 0.3990225
vt 2.499999 0.4911503
vt 2.407871 0.4664634
vt 2.340415 0.3990225
vt 0.9900034 0.4899964
vt 0.8063097 0.4534672
vt 0.9900034 0.2083145
vt 0.8925921 0.1788452
vt 0.6505823 0.3494059
vt 0.8211886 0.1074568
vt 0.5465362 0.1936937
vt 0.7916737 0.00999999
vt 0.510007 0.00999999
vt 0.4899964 0.00999999
vt 0.3494059 0.3494059
vt 0.2321207 0.00999999
vt 0.1670635 0.1670635
vt 0.00999999 0.4899964
vt 0.00999999 0.2321207
vt 0.00999999 0.00999999
vt 0.7799983 0.680006
vt 0.5900038 0.5895939
vt 0.7799983 0.5895939
vt 0.7799983 0.5229881
vt 0.5900038 0.5229881
vt 0.3999942 0.5895939
vt 0.3999942 0.680006
vt 0.2099998 0.5895939
vt 0.9699928 0.8229801
vt 0.5900038 0.8229801
vt 0.02000529 0.680006
vt 0.02000529 0.5895939
vt 0.2099998 0.8229801
vt 0.2099998 0.5229881
vt 0.02000529 0.5229881
vt 0.3999942 0.5229881
vt 0.5900038 0.9133922
vt 0.9699928 0.9133922
vt 0.2099998 0.9133922
vt 0.2099998 0.9799981
vt 0.5900038 0.9799981
vt 0.9699928 0.9799981
vt 1.990002 0.4899964
vt 1.806309 0.4534672
vt 1.990002 0.2083145
vt 1.892591 0.1788452
vt 1.650596 0.3494059
vt 1.821187 0.1074568
vt 1.546535 0.1936937
vt 1.791672 0.00999999
vt 1.510006 0.00999999
vt 1.489995 0.00999999
vt 1.349405 0.3494059
vt 1.23212 0.00999999
vt 1.167062 0.1670635
vt 1.009999 0.4899964
vt 1.009999 0.2321207
vt 1.009999 0.00999999
vt 1.779997 0.680006
vt 1.590003 0.5895939
vt 1.779997 0.5895939
vt 1.779997 0.5229881
vt 1.590003 0.5229881
vt 1.399993 0.5895939
vt 1.399993 0.680006
vt 1.209999 0.5895939
vt 1.970007 0.8229801
vt 1.590003 0.8229801
vt 1.020004 0.680006
vt 1.020004 0.5895939
vt 1.209999 0.8229801
vt 1.209999 0.5229881
vt 1.020004 0.5229881
vt 1.399993 0.5229881
vt 1.590003 0.9133922
vt 1.970007 0.9133922
vt 1.209999 0.9133922
vt 1.209999 0.9799981
vt 1.590003 0.9799981
vt 1.970007 0.9799981
vt 2.990001 0.4899964
vt 2.806307 0.4534672
vt 2.990001 0.2083145
vt 2.89259 0.1788452
vt 2.650595 0.3494059
vt 2.821186 0.1074568
vt 2.546534 0.1936937
vt 2.791671 0.00999999
vt 2.510005 0.00999999
vt 2.489994 0.00999999
vt 2.349419 0.3494059
vt 2.232118 0.00999999
vt 2.167061 0.1670635
vt 2.009998 0.4899964
vt 2.009998 0.2321207
vt 2.009998 0.00999999
vt 2.779996 0.680006
vt 2.590002 0.5895939
vt 2.779996 0.5895939
vt 2.779996 0.5229881
vt 2.590002 0.5229881
vt 2.400007 0.5895939
vt 2.400007 0.680006
vt 2.209997 0.5895939
vt 2.970006 0.8229801
vt 2.590002 0.8229801
vt 2.020003 0.680006
vt 2.020003 0.5895939
vt 2.209997 0.8229801
vt 2.209997 0.5229881
vt 2.020003 0.5229881
vt 2.400007 0.5229881
vt 2.590002 0.9133922
vt 2.970006 0.9133922
vt 2.209997 0.9133922
vt 2.209997 0.9799981
vt 2.590002 0.9799981
vt 2.970006 0.9799981
vt 3.99 0.4899964
vt 3.806306 0.4534672
vt 3.99 0.2083145
vt 3.892589 0.1788452
vt 3.650594 0.3494059
vt 3.821185 0.1074568
vt 3.546533 0.1936937
vt 3.791685 0.00999999
vt 3.510003 0.00999999
vt 3.232117 0.00999999
vt 3.489993 0.00999999
vt 3.16706 0.1670635
vt 3.349418 0.3494059
vt 3.009996 0.4899964
vt 3.009996 0.2321207
vt 3.009996 0.00999999
vt 3.779995 0.680006
vt 3.59 0.5895939
vt 3.779995 0.5895939
vt 3.779995 0.5229881
vt 3.59 0.5229881
vt 3.400006 0.5895939
vt 3.400006 0.680006
vt 3.209996 0.5895939
vt 3.970004 0.8229801
vt 3.59 0.8229801
vt 3.020002 0.680006
vt 3.020002 0.5895939
vt 3.209996 0.8229801
vt 3.209996 0.5229881
vt 3.020002 0.5229881
vt 3.400006 0.5229881
vt 3.59 0.9133922
vt 3.970004 0.9133922
vt 3.209996 0.9133922
vt 3.209996 0.9799981
vt 3.59 0.9799981
vt 3.970004 0.9799981
vn -0.9824042 0.1632453 -0.09073541
vn -0.9999995 0.0009775162 0
vn -0.9824042 0.09481907 -0.1609077
vn -0.9804492 0.1964809 -0.01070623
vn -0.9824042 0.1632453 0.09073541
vn -0.9824042 0.09481907 0.1609077
vn -0.9804492 0.0009775162 0.1967699
vn -0.9999995 0.0009775162 0
vn -0.9824042 0.09481907 0.1609077
vn -0.9824042 -0.09481913 0.1609077
vn -0.9824042 -0.1632453 0.09073552
vn -0.9804492 -0.1964809 -0.01070623
vn -0.9824042 -0.1632453 -0.09073552
vn -0.9999995 0.0009775162 0
vn -0.9804492 -0.1964809 -0.01070623
vn -0.9824042 -0.09481913 -0.1609077
vn -0.9804492 0.0009775162 -0.1967699
vn -0.9824042 0.09481907 -0.1609077
vn -0.8787875 0.4760506 -0.03329097
vn -0.8748773 0.4486802 0.1824164
vn -0.9804492 0.1964809 -0.01070623
vn -0.9824042 0.1632453 0.09073541
vn -0.8729223 0.3431083 0.3468189
vn -0.9824042 0.09481907 0.1609077
vn -0.8748773 0.1847507 0.447724
vn -0.9804492 0.0009775162 0.1967699
vn -0.8807425 -0.0009775162 0.4735944
vn 0.8299116 0.01466274 0.5577021
vn 0.8299116 0.4037144 0.3850471
vn 0.9843593 0.0244379 0.1744696
vn 0.9843593 0.14174 0.1046262
vn 0.8162264 0.5777123 -0.004796602
vn 0.9882693 0.1476051 -0.03919771
vn 0.9999995 0.0009775162 0
vn 0.04394575 0.9990339 0
vn 0.06549364 0.9217982 0.3820977
vn -0.204301 0.9784942 0.02846621
vn -0.8787875 0.4760506 -0.03329097
vn -0.8748773 0.4486802 0.1824164
vn -0.204301 0.6911043 0.6932791
vn 0.04398823 0.7067446 0.7061
vn 0.06549364 0.380254 0.9225603
vn 0.00879731 0.9999614 0
vn 0.008797646 0.7067446 0.7074142
vn 0.04398823 0.0009775162 0.9990316
vn -0.204301 -0.002932549 0.9789038
vn 0.008797646 0.0009775162 0.9999608
vn -0.8748773 0.1847507 0.447724
vn -0.8807425 -0.0009775162 0.4735944
vn -0.8729223 0.3431083 0.3468189
vn 0.1964809 0.6969694 0.6896586
vn 0.1983707 0.9801271 0
vn 0.1984359 0.004887581 0.9801017
vn 0.8299116 0.01466274 0.5577021
vn 0.8299116 0.4037144 0.3850471
vn 0.8162264 0.5777123 -0.004796602
vn -0.8807425 -0.0009775162 0.4735944
vn -0.8748773 -0.1886607 0.4460905
vn -0.9804492 0.0009775162 0.1967699
vn -0.9824042 -0.09481913 0.1609077
vn -0.8729223 -0.3450634 0.3448738
vn -0.9824042 -0.1632453 0.09073552
vn -0.8748773 -0.4486802 0.1824164
vn -0.9804492 -0.1964809 -0.01070623
vn -0.8787875 -0.4760506 -0.03329097
vn 0.829788 -0.5580788 0
vn 0.8299116 -0.384164 0.4045548
vn 0.9842276 -0.1769068 0
vn 0.9843593 -0.1085044 0.1387936
vn 0.8299116 0.01466274 0.5577021
vn 0.9843593 0.0244379 0.1744696
vn 0.9999995 0.0009775162 0
vn 0.04398823 0.0009775162 0.9990316
vn 0.06549364 -0.384164 0.920939
vn -0.204301 -0.002932549 0.9789038
vn -0.8807425 -0.0009775162 0.4735944
vn -0.8748773 -0.1886607 0.4460905
vn -0.204301 -0.6930593 0.6913247
vn 0.04398823 -0.7067446 0.7061
vn 0.06549364 -0.9217982 0.3820978
vn 0.008797646 0.0009775162 0.9999608
vn 0.008797646 -0.7067446 0.7074142
vn 0.04394575 -0.9990339 0
vn -0.204301 -0.9784942 -0.02846621
vn 0.00879731 -0.9999614 0
vn -0.8748773 -0.4486802 0.1824164
vn -0.8787875 -0.4760506 -0.03329097
vn -0.8729223 -0.3450634 0.3448738
vn 0.1964809 -0.6891493 0.697473
vn 0.1984359 0.004887581 0.9801017
vn 0.1983707 -0.9801271 0
vn 0.829788 -0.5580788 0
vn 0.8299116 -0.384164 0.4045548
vn 0.8299116 0.01466274 0.5577021
vn -0.8787875 -0.4760506 -0.03329097
vn -0.8748773 -0.4486802 -0.1824164
vn -0.9804492 -0.1964809 -0.01070623
vn -0.9824042 -0.1632453 -0.09073552
vn -0.8729223 -0.3431084 -0.3468188
vn -0.9824042 -0.09481913 -0.1609077
vn -0.8748773 -0.1847506 -0.4477241
vn -0.9804492 0.0009775162 -0.1967699
vn -0.8807425 0.0009775162 -0.4735944
vn 0.8299116 -0.01466274 -0.5577021
vn 0.8299116 -0.4037144 -0.3850472
vn 0.9843593 -0.0244379 -0.1744696
vn 0.9843593 -0.1417399 -0.1046263
vn 0.829788 -0.5580788 0
vn 0.9842276 -0.1769068 0
vn 0.9999995 0.0009775162 0
vn 0.04394575 -0.9990339 0
vn 0.06549364 -0.9217982 -0.3820978
vn -0.204301 -0.9784942 -0.02846621
vn -0.8787875 -0.4760506 -0.03329097
vn -0.8748773 -0.4486802 -0.1824164
vn -0.204301 -0.6911043 -0.6932791
vn 0.04398823 -0.7067446 -0.7061
vn 0.06549364 -0.380254 -0.9225603
vn 0.00879731 -0.9999614 0
vn 0.008797646 -0.7067446 -0.7074142
vn 0.04398823 0.0009775162 -0.9990316
vn -0.204301 0.002932549 -0.9789038
vn 0.008797646 0.0009775162 -0.9999608
vn -0.8748773 -0.1847506 -0.4477241
vn -0.8807425 0.0009775162 -0.4735944
vn -0.8729223 -0.3431084 -0.3468188
vn 0.1964809 -0.6969694 -0.6896586
vn 0.1983707 -0.9801271 0
vn 0.1984359 -0.004887581 -0.9801017
vn 0.8299116 -0.01466274 -0.5577021
vn 0.8299116 -0.4037144 -0.3850472
vn 0.829788 -0.5580788 0
vn -0.8807425 0.0009775162 -0.4735944
vn -0.8748773 0.1886607 -0.4460905
vn -0.9804492 0.0009775162 -0.1967699
vn -0.9824042 0.09481907 -0.1609077
vn -0.8729223 0.3450633 -0.3448738
vn -0.9824042 0.1632453 -0.09073541
vn -0.8748773 0.4486802 -0.1824164
vn -0.9804492 0.1964809 -0.01070623
vn -0.8787875 0.4760506 -0.03329097
vn 0.9882693 0.1476051 -0.03919771
vn 0.8162264 0.5777123 -0.004796602
vn 0.9804492 0.1378299 -0.140436
vn 0.8416418 0.378299 -0.3853945
vn 0.8299116 -0.01466274 -0.5577021
vn 0.9843593 -0.0244379 -0.1744696
vn 0.9999995 0.0009775162 0
vn 0.04398823 0.0009775162 -0.9990316
vn 0.06549364 0.3841641 -0.920939
vn -0.204301 0.002932549 -0.9789038
vn -0.8807425 0.0009775162 -0.4735944
vn -0.8748773 0.1886607 -0.4460905
vn -0.204301 0.6930593 -0.6913247
vn 0.04398823 0.7067446 -0.7061
vn 0.06549364 0.9217982 -0.3820977
vn 0.008797646 0.0009775162 -0.9999608
vn 0.008797646 0.7067446 -0.7074142
vn 0.04394575 0.9990339 0
vn -0.204301 0.9784942 0.02846621
vn 0.00879731 0.9999614 0
vn -0.8748773 0.4486802 -0.1824164
vn -0.8787875 0.4760506 -0.03329097
vn -0.8729223 0.3450633 -0.3448738
vn 0.1964809 0.6891493 -0.697473
vn 0.1984359 -0.004887581 -0.9801017
vn 0.1983707 0.9801271 0
vn 0.8162264 0.5777123 -0.004796602
vn 0.8416418 0.378299 -0.3853945
vn 0.8299116 -0.01466274 -0.5577021
g TireK_Macaron_RF_LOD1_0
f 3/3/3 2/2/2 1/1/1
f 1/1/1 2/2/2 4/4/4
f 4/4/4 2/2/2 5/5/5
f 5/5/5 2/2/2 6/6/6
f 9/9/9 8/8/8 7/7/7
f 7/7/7 8/8/8 10/10/10
f 10/10/10 8/8/8 11/11/11
f 11/11/11 8/8/8 12/12/12
f 15/15/15 14/14/14 13/13/13
f 13/13/13 14/14/14 16/16/16
f 16/16/16 14/14/14 17/17/17
f 17/17/17 14/14/14 18/18/18
f 21/21/21 20/20/20 19/19/19
f 21/21/21 22/22/22 20/20/20
f 22/22/22 23/23/23 20/20/20
f 22/22/22 24/24/24 23/23/23
f 23/23/23 24/24/24 25/25/25
f 25/25/25 24/24/24 26/26/26
f 25/25/25 26/26/26 27/27/27
f 30/30/30 29/29/29 28/28/28
f 30/30/30 31/31/31 29/29/29
f 31/31/31 32/32/32 29/29/29
f 31/31/31 33/33/33 32/32/32
f 33/33/33 31/31/31 34/34/34
f 31/31/31 30/30/30 34/34/34
f 37/37/37 36/36/36 35/35/35
f 38/38/38 36/36/36 37/37/37
f 38/38/38 39/39/39 36/36/36
f 39/39/39 40/40/40 36/36/36
f 40/40/40 41/41/41 36/36/36
f 41/41/41 35/35/35 36/36/36
f 40/40/40 42/42/42 41/41/41
f 41/41/41 43/43/43 35/35/35
f 41/41/41 44/44/44 43/43/43
f 45/45/45 44/44/44 41/41/41
f 45/45/45 41/41/41 42/42/42
f 46/46/46 45/45/45 42/42/42
f 45/45/45 47/47/47 44/44/44
f 48/48/48 46/46/46 42/42/42
f 48/48/48 49/49/49 46/46/46
f 50/50/50 42/42/42 40/40/40
f 50/50/50 48/48/48 42/42/42
f 39/39/39 50/50/50 40/40/40
f 43/43/43 44/44/44 51/51/51
f 51/51/51 44/44/44 47/47/47
f 43/43/43 51/51/51 52/52/52
f 51/51/51 47/47/47 53/53/53
f 51/51/51 53/53/53 54/54/54
f 51/51/51 54/54/54 55/55/55
f 52/52/52 51/51/51 55/55/55
f 52/52/52 55/55/55 56/56/56
f 59/59/59 58/58/58 57/57/57
f 59/59/59 60/60/60 58/58/58
f 60/60/60 61/61/61 58/58/58
f 60/60/60 62/62/62 61/61/61
f 61/61/61 62/62/62 63/63/63
f 63/63/63 62/62/62 64/64/64
f 63/63/63 64/64/64 65/65/65
f 68/68/68 67/67/67 66/66/66
f 68/68/68 69/69/69 67/67/67
f 69/69/69 70/70/70 67/67/67
f 69/69/69 71/71/71 70/70/70
f 71/71/71 69/69/69 72/72/72
f 69/69/69 68/68/68 72/72/72
f 75/75/75 74/74/74 73/73/73
f 76/76/76 74/74/74 75/75/75
f 76/76/76 77/77/77 74/74/74
f 77/77/77 78/78/78 74/74/74
f 78/78/78 79/79/79 74/74/74
f 79/79/79 73/73/73 74/74/74
f 78/78/78 80/80/80 79/79/79
f 79/79/79 81/81/81 73/73/73
f 79/79/79 82/82/82 81/81/81
f 83/83/83 82/82/82 79/79/79
f 83/83/83 79/79/79 80/80/80
f 84/84/84 83/83/83 80/80/80
f 83/83/83 85/85/85 82/82/82
f 86/86/86 84/84/84 80/80/80
f 86/86/86 87/87/87 84/84/84
f 88/88/88 80/80/80 78/78/78
f 88/88/88 86/86/86 80/80/80
f 77/77/77 88/88/88 78/78/78
f 81/81/81 82/82/82 89/89/89
f 89/89/89 82/82/82 85/85/85
f 81/81/81 89/89/89 90/90/90
f 89/89/89 85/85/85 91/91/91
f 89/89/89 91/91/91 92/92/92
f 89/89/89 92/92/92 93/93/93
f 90/90/90 89/89/89 93/93/93
f 90/90/90 93/93/93 94/94/94
f 97/97/97 96/96/96 95/95/95
f 97/97/97 98/98/98 96/96/96
f 98/98/98 99/99/99 96/96/96
f 98/98/98 100/100/100 99/99/99
f 99/99/99 100/100/100 101/101/101
f 101/101/101 100/100/100 102/102/102
f 101/101/101 102/102/102 103/103/103
f 106/106/106 105/105/105 104/104/104
f 106/106/106 107/107/107 105/105/105
f 107/107/107 108/108/108 105/105/105
f 107/107/107 109/109/109 108/108/108
f 109/109/109 107/107/107 110/110/110
f 107/107/107 106/106/106 110/110/110
f 113/113/113 112/112/112 111/111/111
f 114/114/114 112/112/112 113/113/113
f 114/114/114 115/115/115 112/112/112
f 115/115/115 116/116/116 112/112/112
f 116/116/116 117/117/117 112/112/112
f 117/117/117 111/111/111 112/112/112
f 116/116/116 118/118/118 117/117/117
f 117/117/117 119/119/119 111/111/111
f 117/117/117 120/120/120 119/119/119
f 121/121/121 120/120/120 117/117/117
f 121/121/121 117/117/117 118/118/118
f 122/122/122 121/121/121 118/118/118
f 121/121/121 123/123/123 120/120/120
f 124/124/124 122/122/122 118/118/118
f 124/124/124 125/125/125 122/122/122
f 126/126/126 118/118/118 116/116/116
f 126/126/126 124/124/124 118/118/118
f 115/115/115 126/126/126 116/116/116
f 119/119/119 120/120/120 127/127/127
f 127/127/127 120/120/120 123/123/123
f 119/119/119 127/127/127 128/128/128
f 127/127/127 123/123/123 129/129/129
f 127/127/127 129/129/129 130/130/130
f 127/127/127 130/130/130 131/131/131
f 128/128/128 127/127/127 131/131/131
f 128/128/128 131/131/131 132/132/132
f 135/135/135 134/134/134 133/133/133
f 135/135/135 136/136/136 134/134/134
f 134/134/134 136/136/136 137/137/137
f 138/138/138 137/137/137 136/136/136
f 138/138/138 139/139/139 137/137/137
f 139/139/139 138/138/138 140/140/140
f 139/139/139 140/140/140 141/141/141
f 144/144/144 143/143/143 142/142/142
f 144/144/144 145/145/145 143/143/143
f 144/144/144 146/146/146 145/145/145
f 144/144/144 147/147/147 146/146/146
f 147/147/147 144/144/144 148/148/148
f 144/144/144 142/142/142 148/148/148
f 151/151/151 150/150/150 149/149/149
f 152/152/152 150/150/150 151/151/151
f 152/152/152 153/153/153 150/150/150
f 153/153/153 154/154/154 150/150/150
f 154/154/154 155/155/155 150/150/150
f 155/155/155 149/149/149 150/150/150
f 154/154/154 156/156/156 155/155/155
f 155/155/155 157/157/157 149/149/149
f 155/155/155 158/158/158 157/157/157
f 159/159/159 158/158/158 155/155/155
f 159/159/159 155/155/155 156/156/156
f 160/160/160 159/159/159 156/156/156
f 159/159/159 161/161/161 158/158/158
f 162/162/162 160/160/160 156/156/156
f 162/162/162 163/163/163 160/160/160
f 164/164/164 156/156/156 154/154/154
f 164/164/164 162/162/162 156/156/156
f 153/153/153 164/164/164 154/154/154
f 157/157/157 158/158/158 165/165/165
f 165/165/165 158/158/158 161/161/161
f 157/157/157 165/165/165 166/166/166
f 165/165/165 161/161/161 167/167/167
f 165/165/165 167/167/167 168/168/168
f 165/165/165 168/168/168 169/169/169
f 166/166/166 165/165/165 169/169/169
f 166/166/166 169/169/169 170/170/170
