g TireK_SKinoko_LF_LOD1
v 0.1598919 0.1080872 0.1080872
v -0.009268224 0.1146598 0.1146595
v 0.1598919 0.1528584 -1.639128E-07
v -0.009268224 0.1621533 -1.639128E-07
v -0.009268224 1.937151E-07 0.1621533
v 0.1598919 1.937151E-07 0.1528584
v 0.1935984 0.0768151 0.0768151
v 0.1935984 0.1086331 -1.639128E-07
v 0.1935984 1.937151E-07 0.1086331
v 0.1935984 0.0768151 0.0768151
v 0.2081212 1.937151E-07 1.937151E-07
v 0.1935984 0.0768151 0.0768151
v 0.1935984 0.1086331 -1.639128E-07
v 0.1935984 1.937151E-07 0.1086331
v -0.04686967 0.05515638 0.05515638
v -0.04686967 1.937151E-07 1.937151E-07
v -0.04686967 0.07800299 -1.639128E-07
v -0.04686967 1.937151E-07 0.07800299
v -0.01920788 0.06128481 0.06128481
v -0.01920788 1.937151E-07 0.08667001
v -0.009268224 0.1146598 0.1146595
v -0.009268224 1.937151E-07 0.1621533
v -0.009268224 0.1621533 -1.639128E-07
v -0.01920788 0.08667001 -1.639128E-07
v 0.1598919 -0.1080872 0.1080872
v -0.009268224 -0.1146595 0.1146598
v 0.1598919 1.937151E-07 0.1528584
v -0.009268224 1.937151E-07 0.1621533
v -0.009268224 -0.1621533 1.937151E-07
v 0.1598919 -0.1528584 1.937151E-07
v 0.1935984 -0.07681507 0.0768151
v 0.1935984 1.937151E-07 0.1086331
v 0.1935984 -0.1086331 1.937151E-07
v 0.1935984 -0.07681507 0.0768151
v 0.2081212 1.937151E-07 1.937151E-07
v 0.1935984 -0.07681507 0.0768151
v 0.1935984 1.937151E-07 0.1086331
v 0.1935984 -0.1086331 1.937151E-07
v -0.04686967 -0.05515635 0.05515638
v -0.04686967 1.937151E-07 1.937151E-07
v -0.04686967 1.937151E-07 0.07800299
v -0.04686967 -0.07800297 1.937151E-07
v -0.01920788 -0.06128478 0.06128481
v -0.01920788 -0.08666999 1.937151E-07
v -0.009268224 -0.1146595 0.1146598
v -0.009268224 -0.1621533 1.937151E-07
v -0.009268224 1.937151E-07 0.1621533
v -0.01920788 1.937151E-07 0.08667001
v 0.1598919 -0.1080872 -0.1080872
v -0.009268224 -0.1146598 -0.1146595
v 0.1598919 -0.1528584 1.937151E-07
v -0.009268224 -0.1621533 1.937151E-07
v -0.009268224 -1.639128E-07 -0.1621533
v 0.1598919 -1.639128E-07 -0.1528584
v 0.1935984 -0.07681507 -0.07681507
v 0.1935984 -0.1086331 1.937151E-07
v 0.1935984 -1.639128E-07 -0.1086331
v 0.1935984 -0.07681507 -0.07681507
v 0.2081212 1.937151E-07 1.937151E-07
v 0.1935984 -0.07681507 -0.07681507
v 0.1935984 -0.1086331 1.937151E-07
v 0.1935984 -1.639128E-07 -0.1086331
v -0.04686967 -0.05515635 -0.05515635
v -0.04686967 1.937151E-07 1.937151E-07
v -0.04686967 -0.07800297 1.937151E-07
v -0.04686967 -1.639128E-07 -0.07800297
v -0.01920788 -0.06128478 -0.06128478
v -0.01920788 -1.639128E-07 -0.08666999
v -0.009268224 -0.1146598 -0.1146595
v -0.009268224 -1.639128E-07 -0.1621533
v -0.009268224 -0.1621533 1.937151E-07
v -0.01920788 -0.08666999 1.937151E-07
v 0.1598919 0.1080872 -0.1080872
v -0.009268224 0.1146595 -0.1146598
v 0.1598919 -1.639128E-07 -0.1528584
v -0.009268224 -1.639128E-07 -0.1621533
v -0.009268224 0.1621533 -1.639128E-07
v 0.1598919 0.1528584 -1.639128E-07
v 0.1935984 0.0768151 -0.07681507
v 0.1935984 -1.639128E-07 -0.1086331
v 0.1935984 0.1086331 -1.639128E-07
v 0.1935984 0.0768151 -0.07681507
v 0.2081212 1.937151E-07 1.937151E-07
v 0.1935984 0.0768151 -0.07681507
v 0.1935984 -1.639128E-07 -0.1086331
v 0.1935984 0.1086331 -1.639128E-07
v -0.04686967 0.05515638 -0.05515635
v -0.04686967 1.937151E-07 1.937151E-07
v -0.04686967 -1.639128E-07 -0.07800297
v -0.04686967 0.07800299 -1.639128E-07
v -0.01920788 0.06128481 -0.06128478
v -0.01920788 0.08667001 -1.639128E-07
v -0.009268224 0.1146595 -0.1146598
v -0.009268224 0.1621533 -1.639128E-07
v -0.009268224 -1.639128E-07 -0.1621533
v -0.01920788 -1.639128E-07 -0.08666999
vt 0.5063087 0.1821509
vt 0.5151159 0.555375
vt 0.739993 0.133704
vt 0.8228528 0.4844193
vt 0.2025298 0.5147383
vt 0.2662646 0.1376619
vt 0.5124269 0.05892622
vt 0.6888269 0.02745914
vt 0.3227331 0.02608443
vt 0.5011574 0.06280863
vt 0.01999647 0.980007
vt 0.3269328 0.6729801
vt 0.01990583 0.5458125
vt 0.4541003 0.980007
vt 0.8293185 0.8293185
vt 0.980007 0.980007
vt 0.980007 0.7668979
vt 0.7668979 0.980007
vt 0.8125803 0.8125803
vt 0.7432258 0.980007
vt 0.6667562 0.6667562
vt 0.5370054 0.980007
vt 0.980007 0.5370054
vt 0.980007 0.7432258
vt 1.506307 0.1821509
vt 1.515114 0.555375
vt 1.739991 0.133704
vt 1.822851 0.4844193
vt 1.202528 0.5147383
vt 1.266262 0.1376619
vt 1.512425 0.05892622
vt 1.688825 0.02745914
vt 1.322731 0.02608443
vt 1.501155 0.06280863
vt 1.019994 0.980007
vt 1.326931 0.6729801
vt 1.019904 0.5458125
vt 1.454098 0.980007
vt 1.829316 0.8293185
vt 1.980005 0.980007
vt 1.980005 0.7668979
vt 1.766896 0.980007
vt 1.812578 0.8125803
vt 1.743224 0.980007
vt 1.666754 0.6667562
vt 1.537003 0.980007
vt 1.980005 0.5370054
vt 1.980005 0.7432258
vt 2.506319 0.1821509
vt 2.515111 0.555375
vt 2.739989 0.133704
vt 2.822848 0.4844193
vt 2.202525 0.5147383
vt 2.266275 0.1376619
vt 2.512422 0.05892622
vt 2.688838 0.02745914
vt 2.322729 0.02608443
vt 2.501153 0.06280863
vt 2.020007 0.980007
vt 2.326928 0.6729801
vt 2.019901 0.5458125
vt 2.454096 0.980007
vt 2.829314 0.8293185
vt 2.980002 0.980007
vt 2.980002 0.7668979
vt 2.766893 0.980007
vt 2.812576 0.8125803
vt 2.743221 0.980007
vt 2.666752 0.6667562
vt 2.537001 0.980007
vt 2.980002 0.5370054
vt 2.980002 0.7432258
vt 3.506317 0.1821509
vt 3.515124 0.555375
vt 3.739986 0.133704
vt 3.822846 0.4844193
vt 3.202523 0.5147383
vt 3.266273 0.1376619
vt 3.51242 0.05892622
vt 3.688835 0.02745914
vt 3.322726 0.02608443
vt 3.501151 0.06280863
vt 3.020005 0.980007
vt 3.326926 0.6729801
vt 3.019899 0.5458125
vt 3.454093 0.980007
vt 3.829312 0.8293185
vt 3.98 0.980007
vt 3.98 0.7668979
vt 3.766906 0.980007
vt 3.812574 0.8125803
vt 3.743219 0.980007
vt 3.666764 0.6667562
vt 3.537014 0.980007
vt 3.98 0.5370054
vt 3.98 0.7432258
vn 0.206256 0.6930593 0.6907439
vn -0.2355815 0.6852392 0.6891651
vn 0.206256 0.9784942 -0.002762136
vn -0.2354043 0.9718975 0
vn -0.2355815 -0.002932549 0.9718502
vn 0.206256 0.0009775162 0.9784976
vn 0.9276633 0.2746822 0.2529635
vn 0.9276633 0.3724338 -0.02709081
vn 0.9276633 0.01661777 0.3730478
vn 0.9276633 0.2746822 0.2529635
vn 0.9999995 0.0009775162 0
vn 0.9276633 0.2746822 0.2529635
vn 0.9276633 0.3724338 -0.02709081
vn 0.9276633 0.01661777 0.3730478
vn -0.910068 0.2961875 0.2899123
vn -0.9999995 0.0009775162 0
vn -0.910068 0.4134896 -0.02832926
vn -0.910068 0.006842613 0.4144024
vn -0.9530787 0.2218963 0.2059197
vn -0.9530787 0.01466274 0.3023672
vn -0.2355815 0.6852392 0.6891651
vn -0.2355815 -0.002932549 0.9718502
vn -0.2354043 0.9718975 0
vn -0.9530787 0.3000976 -0.03977854
vn 0.206256 -0.6911043 0.6927
vn -0.2355815 -0.6891493 0.6852552
vn 0.206256 0.0009775162 0.9784976
vn -0.2355815 -0.002932549 0.9718502
vn -0.2354043 -0.9718975 0
vn 0.206256 -0.9784942 0.002762136
vn 0.9276633 -0.2512218 0.2762761
vn 0.9276633 0.01661777 0.3730478
vn 0.9276633 -0.3724338 0.02708999
vn 0.9276633 -0.2512218 0.2762761
vn 0.9999995 0.0009775162 0
vn 0.9276633 -0.2512218 0.2762761
vn 0.9276633 0.01661777 0.3730478
vn 0.9276633 -0.3724338 0.02708999
vn -0.910068 -0.2864124 0.2995732
vn -0.9999995 0.0009775162 0
vn -0.910068 0.006842613 0.4144024
vn -0.910068 -0.4134895 0.02833004
vn -0.9530787 -0.202346 0.2251599
vn -0.9530787 -0.3000976 0.03977854
vn -0.2355815 -0.6891493 0.6852552
vn -0.2354043 -0.9718975 0
vn -0.2355815 -0.002932549 0.9718502
vn -0.9530787 0.01466274 0.3023672
vn 0.206256 -0.6930593 -0.6907439
vn -0.2355815 -0.6852392 -0.6891651
vn 0.206256 -0.9784942 0.002762136
vn -0.2354043 -0.9718975 0
vn -0.2355815 0.002932549 -0.9718502
vn 0.206256 -0.0009775162 -0.9784976
vn 0.9276633 -0.2746822 -0.2529635
vn 0.9276633 -0.3724338 0.02708999
vn 0.9276633 -0.01661777 -0.3730478
vn 0.9276633 -0.2746822 -0.2529635
vn 0.9999995 0.0009775162 0
vn 0.9276633 -0.2746822 -0.2529635
vn 0.9276633 -0.3724338 0.02708999
vn 0.9276633 -0.01661777 -0.3730478
vn -0.910068 -0.2961875 -0.2899123
vn -0.9999995 0.0009775162 0
vn -0.910068 -0.4134895 0.02833004
vn -0.910068 -0.006842613 -0.4144024
vn -0.9530787 -0.2218963 -0.2059197
vn -0.9530787 -0.01466274 -0.3023672
vn -0.2355815 -0.6852392 -0.6891651
vn -0.2355815 0.002932549 -0.9718502
vn -0.2354043 -0.9718975 0
vn -0.9530787 -0.3000976 0.03977854
vn 0.206256 0.6911043 -0.6927
vn -0.2355815 0.6891493 -0.6852552
vn 0.206256 -0.0009775162 -0.9784976
vn -0.2355815 0.002932549 -0.9718502
vn -0.2354043 0.9718975 0
vn 0.206256 0.9784942 -0.002762136
vn 0.9276633 0.2512218 -0.2762761
vn 0.9276633 -0.01661777 -0.3730478
vn 0.9276633 0.3724338 -0.02709081
vn 0.9276633 0.2512218 -0.2762761
vn 0.9999995 0.0009775162 0
vn 0.9276633 0.2512218 -0.2762761
vn 0.9276633 -0.01661777 -0.3730478
vn 0.9276633 0.3724338 -0.02709081
vn -0.910068 0.2864124 -0.2995732
vn -0.9999995 0.0009775162 0
vn -0.910068 -0.006842613 -0.4144024
vn -0.910068 0.4134896 -0.02832926
vn -0.9530787 0.202346 -0.2251599
vn -0.9530787 0.3000976 -0.03977854
vn -0.2355815 0.6891493 -0.6852552
vn -0.2354043 0.9718975 0
vn -0.2355815 0.002932549 -0.9718502
vn -0.9530787 -0.01466274 -0.3023672
g TireK_SKinoko_LF_LOD1_0
f 3/3/3 2/2/2 1/1/1
f 3/3/3 4/4/4 2/2/2
f 1/1/1 2/2/2 5/5/5
f 1/1/1 5/5/5 6/6/6
f 3/3/3 1/1/1 7/7/7
f 3/3/3 7/7/7 8/8/8
f 1/1/1 6/6/6 9/9/9
f 1/1/1 9/9/9 10/10/10
f 13/13/13 12/12/12 11/11/11
f 12/12/12 14/14/14 11/11/11
f 17/17/17 16/16/16 15/15/15
f 15/15/15 16/16/16 18/18/18
f 19/19/19 15/15/15 18/18/18
f 19/19/19 18/18/18 20/20/20
f 21/21/21 19/19/19 20/20/20
f 21/21/21 20/20/20 22/22/22
f 23/23/23 19/19/19 21/21/21
f 23/23/23 24/24/24 19/19/19
f 24/24/24 15/15/15 19/19/19
f 24/24/24 17/17/17 15/15/15
f 27/27/27 26/26/26 25/25/25
f 27/27/27 28/28/28 26/26/26
f 25/25/25 26/26/26 29/29/29
f 25/25/25 29/29/29 30/30/30
f 27/27/27 25/25/25 31/31/31
f 27/27/27 31/31/31 32/32/32
f 25/25/25 30/30/30 33/33/33
f 25/25/25 33/33/33 34/34/34
f 37/37/37 36/36/36 35/35/35
f 36/36/36 38/38/38 35/35/35
f 41/41/41 40/40/40 39/39/39
f 39/39/39 40/40/40 42/42/42
f 43/43/43 39/39/39 42/42/42
f 43/43/43 42/42/42 44/44/44
f 45/45/45 43/43/43 44/44/44
f 45/45/45 44/44/44 46/46/46
f 47/47/47 43/43/43 45/45/45
f 47/47/47 48/48/48 43/43/43
f 48/48/48 39/39/39 43/43/43
f 48/48/48 41/41/41 39/39/39
f 51/51/51 50/50/50 49/49/49
f 51/51/51 52/52/52 50/50/50
f 49/49/49 50/50/50 53/53/53
f 49/49/49 53/53/53 54/54/54
f 51/51/51 49/49/49 55/55/55
f 51/51/51 55/55/55 56/56/56
f 49/49/49 54/54/54 57/57/57
f 49/49/49 57/57/57 58/58/58
f 61/61/61 60/60/60 59/59/59
f 60/60/60 62/62/62 59/59/59
f 65/65/65 64/64/64 63/63/63
f 63/63/63 64/64/64 66/66/66
f 67/67/67 63/63/63 66/66/66
f 67/67/67 66/66/66 68/68/68
f 69/69/69 67/67/67 68/68/68
f 69/69/69 68/68/68 70/70/70
f 71/71/71 67/67/67 69/69/69
f 71/71/71 72/72/72 67/67/67
f 72/72/72 63/63/63 67/67/67
f 72/72/72 65/65/65 63/63/63
f 75/75/75 74/74/74 73/73/73
f 75/75/75 76/76/76 74/74/74
f 73/73/73 74/74/74 77/77/77
f 73/73/73 77/77/77 78/78/78
f 75/75/75 73/73/73 79/79/79
f 75/75/75 79/79/79 80/80/80
f 73/73/73 78/78/78 81/81/81
f 73/73/73 81/81/81 82/82/82
f 85/85/85 84/84/84 83/83/83
f 84/84/84 86/86/86 83/83/83
f 89/89/89 88/88/88 87/87/87
f 87/87/87 88/88/88 90/90/90
f 91/91/91 87/87/87 90/90/90
f 91/91/91 90/90/90 92/92/92
f 93/93/93 91/91/91 92/92/92
f 93/93/93 92/92/92 94/94/94
f 95/95/95 91/91/91 93/93/93
f 95/95/95 96/96/96 91/91/91
f 96/96/96 87/87/87 91/91/91
f 96/96/96 89/89/89 87/87/87
