g TireK_Macaron_RF_LOD2
v -0.195 -5.960464E-08 -5.960464E-08
v -0.1931656 0.03276648 -0.05675296
v -0.1931656 0.06553268 -5.960464E-08
v -0.1931656 0.03276648 0.05675317
v -0.195 -5.960464E-08 -5.960464E-08
v -0.1931656 0.03276648 0.05675317
v -0.1931656 -5.960464E-08 0.06553268
v -0.1931656 -0.03276627 0.05675317
v -0.1931656 -0.06553281 -5.960464E-08
v -0.195 -5.960464E-08 -5.960464E-08
v -0.1931656 -0.06553281 -5.960464E-08
v -0.1931656 -0.03276627 -0.05675296
v -0.1931656 -5.960464E-08 -0.06553281
v -0.1931656 0.03276648 -0.05675296
v -0.1856201 -5.960464E-08 0.1313155
v -0.1856201 0.1313155 -5.960464E-08
v -0.1678734 -5.960464E-08 0.1589123
v -0.1678734 0.1589123 -5.960464E-08
v -0.1931656 0.03276648 0.05675317
v -0.1931656 0.06553268 -5.960464E-08
v -0.1931656 -5.960464E-08 0.06553268
v 0.0178733 -5.960464E-08 0.1589123
v 0.0178733 0.1589123 -5.960464E-08
v 0.03311695 -5.960464E-08 -5.960464E-08
v -0.1678734 -5.960464E-08 0.1589123
v -0.1678734 0.1589123 -5.960464E-08
v 0.0178733 -5.960464E-08 0.1589123
v 0.0178733 0.1589123 -5.960464E-08
v -0.1856201 -0.1313156 -5.960464E-08
v -0.1856201 -5.960464E-08 0.1313155
v -0.1678734 -0.1589124 -5.960464E-08
v -0.1678734 -5.960464E-08 0.1589123
v -0.1931656 -0.03276627 0.05675317
v -0.1931656 -5.960464E-08 0.06553268
v -0.1931656 -0.06553281 -5.960464E-08
v 0.0178733 -0.1589124 -5.960464E-08
v 0.0178733 -5.960464E-08 0.1589123
v 0.03311695 -5.960464E-08 -5.960464E-08
v -0.1678734 -0.1589124 -5.960464E-08
v -0.1678734 -5.960464E-08 0.1589123
v 0.0178733 -0.1589124 -5.960464E-08
v 0.0178733 -5.960464E-08 0.1589123
v -0.1856201 -5.960464E-08 -0.1313156
v -0.1856201 -0.1313156 -5.960464E-08
v -0.1678734 -5.960464E-08 -0.1589124
v -0.1678734 -0.1589124 -5.960464E-08
v -0.1931656 -0.03276627 -0.05675296
v -0.1931656 -0.06553281 -5.960464E-08
v -0.1931656 -5.960464E-08 -0.06553281
v 0.0178733 -5.960464E-08 -0.1589124
v 0.0178733 -0.1589124 -5.960464E-08
v 0.03311695 -5.960464E-08 -5.960464E-08
v -0.1678734 -5.960464E-08 -0.1589124
v -0.1678734 -0.1589124 -5.960464E-08
v 0.0178733 -5.960464E-08 -0.1589124
v 0.0178733 -0.1589124 -5.960464E-08
v -0.1856201 0.1313155 -5.960464E-08
v -0.1856201 -5.960464E-08 -0.1313156
v -0.1678734 0.1589123 -5.960464E-08
v -0.1678734 -5.960464E-08 -0.1589124
v -0.1931656 0.03276648 -0.05675296
v -0.1931656 -5.960464E-08 -0.06553281
v -0.1931656 0.06553268 -5.960464E-08
v 0.03311695 -5.960464E-08 -5.960464E-08
v 0.0178733 0.1589123 -5.960464E-08
v 0.0178733 -5.960464E-08 -0.1589124
v 0.0178733 0.1589123 -5.960464E-08
v -0.1678734 0.1589123 -5.960464E-08
v 0.0178733 -5.960464E-08 -0.1589124
v -0.1678734 -5.960464E-08 -0.1589124
vt 0.5000017 0.3068948
vt 0.6595703 0.3990225
vt 0.5000017 0.4911503
vt 0.3404179 0.3990225
vt 1.5 0.3068948
vt 1.659584 0.3990225
vt 1.592128 0.4664634
vt 1.5 0.4911503
vt 1.340417 0.3990225
vt 2.499999 0.3068948
vt 2.659583 0.3990225
vt 2.499999 0.4911503
vt 2.407871 0.4664634
vt 2.340415 0.3990225
vt 0.5933592 0.00999999
vt 0.9900034 0.4066442
vt 0.510007 0.00999999
vt 0.9900034 0.4899964
vt 0.8211886 0.1074568
vt 0.9900034 0.2083145
vt 0.7916737 0.00999999
vt 0.4899964 0.00999999
vt 0.00999999 0.4899964
vt 0.00999999 0.00999999
vt 0.02000529 0.5229881
vt 0.7799983 0.5229881
vt 0.2099998 0.9799981
vt 0.9699928 0.9799981
vt 1.593358 0.00999999
vt 1.990002 0.4066442
vt 1.510006 0.00999999
vt 1.990002 0.4899964
vt 1.892591 0.1788452
vt 1.990002 0.2083145
vt 1.791672 0.00999999
vt 1.489995 0.00999999
vt 1.009999 0.4899964
vt 1.009999 0.00999999
vt 1.020004 0.5229881
vt 1.779997 0.5229881
vt 1.209999 0.9799981
vt 1.970007 0.9799981
vt 2.593357 0.00999999
vt 2.990001 0.4066442
vt 2.510005 0.00999999
vt 2.990001 0.4899964
vt 2.821186 0.1074568
vt 2.990001 0.2083145
vt 2.791671 0.00999999
vt 2.489994 0.00999999
vt 2.009998 0.4899964
vt 2.009998 0.00999999
vt 2.020003 0.5229881
vt 2.779996 0.5229881
vt 2.209997 0.9799981
vt 2.970006 0.9799981
vt 3.593356 0.00999999
vt 3.99 0.4066442
vt 3.510003 0.00999999
vt 3.99 0.4899964
vt 3.892589 0.1788452
vt 3.99 0.2083145
vt 3.791685 0.00999999
vt 3.009996 0.00999999
vt 3.489993 0.00999999
vt 3.009996 0.4899964
vt 3.209996 0.9799981
vt 3.020002 0.5229881
vt 3.970004 0.9799981
vt 3.779995 0.5229881
vn -0.9999995 0.0009775162 0
vn -0.9863143 0.1163244 -0.116845
vn -0.9960895 0.08504391 -0.02394365
vn -0.9863143 0.1163244 0.116845
vn -0.9999995 0.0009775162 0
vn -0.9863143 0.1163244 0.116845
vn -0.9960895 0.0009775162 0.08834483
vn -0.9863143 -0.1163245 0.116845
vn -0.9960895 -0.08504397 -0.02394344
vn -0.9999995 0.0009775162 0
vn -0.9960895 -0.08504397 -0.02394344
vn -0.9863143 -0.1163245 -0.116845
vn -0.9960895 0.0009775162 -0.08834483
vn -0.9863143 0.1163244 -0.116845
vn -0.8866076 -0.03812313 0.4609485
vn -0.8924727 0.4486802 0.04667462
vn -0.07722378 -0.004887581 0.9970018
vn -0.07722378 0.9960895 0.04292156
vn -0.9863143 0.1163244 0.116845
vn -0.9960895 0.08504391 -0.02394365
vn -0.9960895 0.0009775162 0.08834483
vn 0.382209 0.0009775162 0.9240754
vn 0.382209 0.9237533 -0.02441772
vn 0.9999995 0.0009775162 0
vn -0.07722378 -0.004887581 0.9970018
vn -0.07722378 0.9960895 0.04292156
vn 0.382209 0.0009775162 0.9240754
vn 0.382209 0.9237533 -0.02441772
vn -0.8924727 -0.4486802 -0.04667462
vn -0.8866076 -0.03812313 0.4609485
vn -0.07722378 -0.9960895 -0.04292156
vn -0.07722378 -0.004887581 0.9970018
vn -0.9863143 -0.1163245 0.116845
vn -0.9960895 0.0009775162 0.08834483
vn -0.9960895 -0.08504397 -0.02394344
vn 0.382209 -0.9237532 -0.02441894
vn 0.382209 0.0009775162 0.9240754
vn 0.9999995 0.0009775162 0
vn -0.07722378 -0.9960895 -0.04292156
vn -0.07722378 -0.004887581 0.9970018
vn 0.382209 -0.9237532 -0.02441894
vn 0.382209 0.0009775162 0.9240754
vn -0.8866076 0.03812313 -0.4609485
vn -0.8924727 -0.4486802 -0.04667462
vn -0.07722378 0.004887581 -0.9970018
vn -0.07722378 -0.9960895 -0.04292156
vn -0.9863143 -0.1163245 -0.116845
vn -0.9960895 -0.08504397 -0.02394344
vn -0.9960895 0.0009775162 -0.08834483
vn 0.382209 0.0009775162 -0.9240754
vn 0.382209 -0.9237532 -0.02441894
vn 0.9999995 0.0009775162 0
vn -0.07722378 0.004887581 -0.9970018
vn -0.07722378 -0.9960895 -0.04292156
vn 0.382209 0.0009775162 -0.9240754
vn 0.382209 -0.9237532 -0.02441894
vn -0.8924727 0.4486802 0.04667462
vn -0.8866076 0.03812313 -0.4609485
vn -0.07722378 0.9960895 0.04292156
vn -0.07722378 0.004887581 -0.9970018
vn -0.9863143 0.1163244 -0.116845
vn -0.9960895 0.0009775162 -0.08834483
vn -0.9960895 0.08504391 -0.02394365
vn 0.9999995 0.0009775162 0
vn 0.382209 0.9237533 -0.02441772
vn 0.382209 0.0009775162 -0.9240754
vn 0.382209 0.9237533 -0.02441772
vn -0.07722378 0.9960895 0.04292156
vn 0.382209 0.0009775162 -0.9240754
vn -0.07722378 0.004887581 -0.9970018
g TireK_Macaron_RF_LOD2_0
f 3/3/3 2/2/2 1/1/1
f 4/4/4 3/3/3 1/1/1
f 7/7/7 6/6/6 5/5/5
f 8/8/8 7/7/7 5/5/5
f 9/9/9 8/8/8 5/5/5
f 12/12/12 11/11/11 10/10/10
f 13/13/13 12/12/12 10/10/10
f 14/14/14 13/13/13 10/10/10
f 17/17/17 16/16/16 15/15/15
f 17/17/17 18/18/18 16/16/16
f 15/15/15 16/16/16 19/19/19
f 16/16/16 20/20/20 19/19/19
f 21/21/21 15/15/15 19/19/19
f 24/24/24 23/23/23 22/22/22
f 27/27/27 26/26/26 25/25/25
f 27/27/27 28/28/28 26/26/26
f 31/31/31 30/30/30 29/29/29
f 31/31/31 32/32/32 30/30/30
f 30/30/30 33/33/33 29/29/29
f 34/34/34 33/33/33 30/30/30
f 33/33/33 35/35/35 29/29/29
f 38/38/38 37/37/37 36/36/36
f 41/41/41 40/40/40 39/39/39
f 41/41/41 42/42/42 40/40/40
f 45/45/45 44/44/44 43/43/43
f 45/45/45 46/46/46 44/44/44
f 43/43/43 44/44/44 47/47/47
f 44/44/44 48/48/48 47/47/47
f 49/49/49 43/43/43 47/47/47
f 52/52/52 51/51/51 50/50/50
f 55/55/55 54/54/54 53/53/53
f 55/55/55 56/56/56 54/54/54
f 59/59/59 58/58/58 57/57/57
f 59/59/59 60/60/60 58/58/58
f 57/57/57 58/58/58 61/61/61
f 58/58/58 62/62/62 61/61/61
f 63/63/63 57/57/57 61/61/61
f 66/66/66 65/65/65 64/64/64
f 69/69/69 68/68/68 67/67/67
f 69/69/69 70/70/70 68/68/68
