g Tire_Front01_LOD0
v 4.187333 -0.349015 -1.074163
v 4.250644 3.33786E-06 3.33786E-06
v 4.187333 3.33786E-06 -1.12944
v 4.187333 -0.6638684 -0.9137404
v 4.187333 -0.9137404 -0.6638684
v 4.187333 -1.074163 -0.349015
v 4.187333 -1.129448 3.33786E-06
v 4.187333 -1.074163 0.3490138
v 4.250644 3.33786E-06 3.33786E-06
v 4.187333 -1.129448 3.33786E-06
v 4.187333 -0.9137404 0.6638751
v 4.187333 -0.6638684 0.9137392
v 4.187333 -0.349015 1.07417
v 4.187333 3.33786E-06 1.129447
v 4.187333 0.3490138 1.07417
v 4.250644 3.33786E-06 3.33786E-06
v 4.187333 3.33786E-06 1.129447
v 4.187333 0.6638751 0.9137392
v 4.187333 0.9137392 0.663867
v 4.187333 1.07417 0.3490219
v 4.187333 1.129447 3.33786E-06
v 4.187333 1.07417 -0.349015
v 4.250644 3.33786E-06 3.33786E-06
v 4.187333 1.129447 3.33786E-06
v 4.187333 0.9137392 -0.6638684
v 4.187333 0.663867 -0.9137404
v 4.187333 0.3490219 -1.074163
v 4.187333 3.33786E-06 -1.12944
v 4.187333 -0.6638684 0.9137392
v 2.716095 -0.9137404 0.6638751
v 2.716095 -0.349015 1.07417
v 4.187333 -0.349015 1.07417
v 4.187333 3.33786E-06 1.129447
v 2.716095 0.3490138 1.07417
v 4.187333 0.3490138 1.07417
v 4.187333 0.6638751 0.9137392
v 4.187333 -1.074163 -0.349015
v 2.716095 -0.9137404 -0.6638684
v 2.716095 -1.129448 3.33786E-06
v 4.187333 -1.129448 3.33786E-06
v 4.187333 -1.074163 0.3490138
v 2.716095 -0.9137404 0.6638751
v 4.187333 -0.9137404 0.6638751
v 4.187333 -0.6638684 0.9137392
v 4.187333 3.33786E-06 -1.12944
v 2.716095 0.3490138 -1.074163
v 2.716095 -0.349015 -1.074163
v 4.187333 -0.349015 -1.074163
v 4.187333 -0.6638684 -0.9137404
v 2.716095 -0.9137404 -0.6638684
v 4.187333 -0.9137404 -0.6638684
v 4.187333 -1.074163 -0.349015
v 4.187333 1.07417 -0.349015
v 2.716095 1.129447 3.33786E-06
v 2.716095 0.9137392 -0.6638684
v 4.187333 0.9137392 -0.6638684
v 4.187333 0.663867 -0.9137404
v 2.716095 0.3490138 -1.074163
v 4.187333 0.3490219 -1.074163
v 4.187333 3.33786E-06 -1.12944
v 4.187333 0.6638751 0.9137392
v 2.716095 0.3490138 1.07417
v 2.716095 0.9137392 0.663867
v 4.187333 0.9137392 0.663867
v 4.187333 1.07417 0.3490219
v 2.716095 1.129447 3.33786E-06
v 4.187333 1.129447 3.33786E-06
v 4.187333 1.07417 -0.349015
v 2.716095 0.9137392 -0.6638684
v 2.6567 3.33786E-06 3.33786E-06
v 2.716095 0.3490138 -1.074163
v 2.716095 -0.349015 -1.074163
v 2.716095 -0.9137404 -0.6638684
v 2.716095 -1.129448 3.33786E-06
v 2.716095 -0.9137404 0.6638751
v 2.716095 -0.349015 1.07417
v 2.716095 0.3490138 1.07417
v 2.716095 0.9137392 0.663867
v 2.716095 1.129447 3.33786E-06
v -4.187332 -0.349015 -1.074163
v -4.187332 3.33786E-06 -1.12944
v -4.250643 3.33786E-06 3.33786E-06
v -4.187332 -0.6638684 -0.9137404
v -4.187332 -0.9137404 -0.6638684
v -4.187332 -1.074163 -0.349015
v -4.187332 -1.129448 3.33786E-06
v -4.187332 -1.074163 0.3490138
v -4.187332 -1.129448 3.33786E-06
v -4.250643 3.33786E-06 3.33786E-06
v -4.187332 -0.9137404 0.6638751
v -4.187332 -0.6638684 0.9137392
v -4.187332 -0.349015 1.07417
v -4.187332 3.33786E-06 1.129447
v -4.187332 0.3490138 1.07417
v -4.187332 3.33786E-06 1.129447
v -4.250643 3.33786E-06 3.33786E-06
v -4.187332 0.6638751 0.9137392
v -4.187332 0.9137392 0.663867
v -4.187332 1.07417 0.3490219
v -4.187332 1.129447 3.33786E-06
v -4.187332 1.07417 -0.349015
v -4.187332 1.129447 3.33786E-06
v -4.250643 3.33786E-06 3.33786E-06
v -4.187332 0.9137392 -0.6638684
v -4.187332 0.663867 -0.9137404
v -4.187332 0.3490219 -1.074163
v -4.187332 3.33786E-06 -1.12944
v -4.187332 -0.6638684 0.9137392
v -2.716094 -0.349015 1.07417
v -2.716094 -0.9137404 0.6638751
v -4.187332 -0.349015 1.07417
v -4.187332 3.33786E-06 1.129447
v -2.716094 0.3490138 1.07417
v -4.187332 0.3490138 1.07417
v -4.187332 0.6638751 0.9137392
v -4.187332 -1.074163 -0.349015
v -2.716094 -1.129448 3.33786E-06
v -2.716094 -0.9137404 -0.6638684
v -4.187332 -1.129448 3.33786E-06
v -4.187332 -1.074163 0.3490138
v -2.716094 -0.9137404 0.6638751
v -4.187332 -0.9137404 0.6638751
v -4.187332 -0.6638684 0.9137392
v -4.187332 3.33786E-06 -1.12944
v -2.716094 -0.349015 -1.074163
v -2.716094 0.3490138 -1.074163
v -4.187332 -0.349015 -1.074163
v -4.187332 -0.6638684 -0.9137404
v -2.716094 -0.9137404 -0.6638684
v -4.187332 -0.9137404 -0.6638684
v -4.187332 -1.074163 -0.349015
v -4.187332 1.07417 -0.349015
v -2.716094 0.9137392 -0.6638684
v -2.716094 1.129447 3.33786E-06
v -4.187332 0.9137392 -0.6638684
v -4.187332 0.663867 -0.9137404
v -2.716094 0.3490138 -1.074163
v -4.187332 0.3490219 -1.074163
v -4.187332 3.33786E-06 -1.12944
v -4.187332 0.6638751 0.9137392
v -2.716094 0.9137392 0.663867
v -2.716094 0.3490138 1.07417
v -4.187332 0.9137392 0.663867
v -4.187332 1.07417 0.3490219
v -2.716094 1.129447 3.33786E-06
v -4.187332 1.129447 3.33786E-06
v -4.187332 1.07417 -0.349015
v -2.716094 0.9137392 -0.6638684
v -2.716094 0.3490138 -1.074163
v -2.656699 3.33786E-06 3.33786E-06
v -2.716094 -0.349015 -1.074163
v -2.716094 -0.9137404 -0.6638684
v -2.716094 -1.129448 3.33786E-06
v -2.716094 -0.9137404 0.6638751
v -2.716094 -0.349015 1.07417
v -2.716094 0.3490138 1.07417
v -2.716094 0.9137392 0.663867
v -2.716094 1.129447 3.33786E-06
vt 0.9522763 3.921343
vt 0.9356586 3.870185
vt 0.9356586 3.923976
vt 0.9672747 3.913702
vt 0.979176 3.901801
vt 0.9868166 3.886811
vt 0.98945 3.870185
vt 0.9522763 2.921341
vt 0.9356586 2.870183
vt 0.9356586 2.923974
vt 0.9672747 2.9137
vt 0.979176 2.901807
vt 0.9868166 2.886808
vt 0.98945 2.870183
vt 0.9522763 1.921346
vt 0.9356586 1.870188
vt 0.9356586 1.92398
vt 0.9672747 1.913706
vt 0.979176 1.901804
vt 0.9868166 1.886806
vt 0.98945 1.870188
vt 0.9522763 0.9213442
vt 0.9356586 0.8701862
vt 0.9356586 0.9239775
vt 0.9672747 0.9137034
vt 0.979176 0.9018022
vt 0.9868166 0.8868117
vt 0.98945 0.8701862
vt 0.9398249 1.982881
vt 0.99397 1.991496
vt 0.99397 1.974273
vt 0.9398249 1.974273
vt 0.9398249 1.965666
vt 0.99397 1.95705
vt 0.9398249 1.95705
vt 0.9398249 1.948442
vt 0.9398249 2.982883
vt 0.99397 2.991498
vt 0.99397 2.974275
vt 0.9398249 2.974275
vt 0.9398249 2.965668
vt 0.99397 2.957052
vt 0.9398249 2.957052
vt 0.9398249 2.948445
vt 0.9398249 3.982885
vt 0.99397 3.991493
vt 0.99397 3.974277
vt 0.9398249 3.974277
vt 0.9398249 3.965662
vt 0.99397 3.957055
vt 0.9398249 3.957055
vt 0.9398249 3.948447
vt 0.9398249 4.982888
vt 0.99397 4.991495
vt 0.99397 4.974272
vt 0.9398249 4.974272
vt 0.9398249 4.965665
vt 0.99397 4.957057
vt 0.9398249 4.957057
vt 0.9398249 4.948442
vt 0.9398249 0.9828863
vt 0.99397 0.9914938
vt 0.99397 0.9742708
vt 0.9398249 0.9742708
vt 0.9398249 0.9656633
vt 0.99397 0.9570557
vt 0.9398249 0.9570557
vt 0.9398249 0.9484403
vt 0.9929481 0.9332847
vt 0.9855904 0.9231521
vt 0.9974995 0.9270197
vt 0.9974995 0.9192846
vt 0.9929481 0.9130275
vt 0.9855904 0.9106377
vt 0.9782327 0.9130275
vt 0.9736891 0.9192846
vt 0.9736891 0.9270275
vt 0.9782327 0.9332847
vt 0.9855904 0.9356744
vt 0.9522763 3.921343
vt 0.9356586 3.923976
vt 0.9356586 3.870185
vt 0.9672747 3.913702
vt 0.979176 3.901801
vt 0.9868166 3.886811
vt 0.98945 3.870185
vt 0.9522763 2.921341
vt 0.9356586 2.923974
vt 0.9356586 2.870183
vt 0.9672747 2.9137
vt 0.979176 2.901807
vt 0.9868166 2.886808
vt 0.98945 2.870183
vt 0.9522763 1.921346
vt 0.9356586 1.92398
vt 0.9356586 1.870188
vt 0.9672747 1.913706
vt 0.979176 1.901804
vt 0.9868166 1.886806
vt 0.98945 1.870188
vt 0.9522763 0.9213442
vt 0.9356586 0.9239775
vt 0.9356586 0.8701862
vt 0.9672747 0.9137034
vt 0.979176 0.9018022
vt 0.9868166 0.8868117
vt 0.98945 0.8701862
vt 0.9398249 1.982881
vt 0.99397 1.974273
vt 0.99397 1.991496
vt 0.9398249 1.974273
vt 0.9398249 1.965666
vt 0.99397 1.95705
vt 0.9398249 1.95705
vt 0.9398249 1.948442
vt 0.9398249 2.982883
vt 0.99397 2.974275
vt 0.99397 2.991498
vt 0.9398249 2.974275
vt 0.9398249 2.965668
vt 0.99397 2.957052
vt 0.9398249 2.957052
vt 0.9398249 2.948445
vt 0.9398249 3.982885
vt 0.99397 3.974277
vt 0.99397 3.991493
vt 0.9398249 3.974277
vt 0.9398249 3.965662
vt 0.99397 3.957055
vt 0.9398249 3.957055
vt 0.9398249 3.948447
vt 0.9398249 4.982888
vt 0.99397 4.974272
vt 0.99397 4.991495
vt 0.9398249 4.974272
vt 0.9398249 4.965665
vt 0.99397 4.957057
vt 0.9398249 4.957057
vt 0.9398249 4.948442
vt 0.9398249 0.9828863
vt 0.99397 0.9742708
vt 0.99397 0.9914938
vt 0.9398249 0.9742708
vt 0.9398249 0.9656633
vt 0.99397 0.9570557
vt 0.9398249 0.9570557
vt 0.9398249 0.9484403
vt 0.9929481 0.9332847
vt 0.9974995 0.9270197
vt 0.9855904 0.9231521
vt 0.9974995 0.9192846
vt 0.9929481 0.9130275
vt 0.9855904 0.9106377
vt 0.9782327 0.9130275
vt 0.9736891 0.9192846
vt 0.9736891 0.9270275
vt 0.9782327 0.9332847
vt 0.9855904 0.9356744
vn 0.6911043 -0.2238513 -0.6872157
vn 0.9999995 0.0009775162 0
vn 0.6891493 0.0009775162 -0.7246187
vn 0.6891493 -0.4252197 -0.586738
vn 0.6911043 -0.5855324 -0.4237059
vn 0.6891493 -0.6891493 -0.2239343
vn 0.6911043 -0.7223848 -0.0231316
vn 0.6911043 -0.6871942 0.2239173
vn 0.9999995 0.0009775162 0
vn 0.6911043 -0.7223848 -0.0231316
vn 0.6891493 -0.5855324 0.4268783
vn 0.6911043 -0.4252197 0.584434
vn 0.6891493 -0.2238513 0.6891762
vn 0.6911043 0.0009775162 0.7227544
vn 0.6911043 0.2238513 0.6872157
vn 0.9999995 0.0009775162 0
vn 0.6911043 0.0009775162 0.7227544
vn 0.6891493 0.4252198 0.586738
vn 0.6911043 0.5855324 0.4237059
vn 0.6891493 0.6891493 0.2239343
vn 0.6911043 0.7223848 -0.0231316
vn 0.6911043 0.6871942 -0.2239173
vn 0.9999995 0.0009775162 0
vn 0.6911043 0.7223848 -0.0231316
vn 0.6891493 0.5855324 -0.4268783
vn 0.6911043 0.4252198 -0.5844339
vn 0.6891493 0.2238513 -0.6891762
vn 0.6891493 0.0009775162 -0.7246187
vn 0.6911043 -0.4252197 0.584434
vn -0.675464 -0.5972627 0.4324646
vn -0.675464 -0.2277614 0.7013367
vn 0.6891493 -0.2238513 0.6891762
vn 0.6911043 0.0009775162 0.7227544
vn -0.675464 0.2277614 0.7013367
vn 0.6911043 0.2238513 0.6872157
vn 0.6891493 0.4252198 0.586738
vn 0.6891493 -0.6891493 -0.2239343
vn -0.675464 -0.5972627 -0.4324646
vn -0.6751493 -0.7376812 0
vn 0.6911043 -0.7223848 -0.0231316
vn 0.6911043 -0.6871942 0.2239173
vn -0.675464 -0.5972627 0.4324646
vn 0.6891493 -0.5855324 0.4268783
vn 0.6911043 -0.4252197 0.584434
vn 0.6891493 0.0009775162 -0.7246187
vn -0.675464 0.2277614 -0.7013367
vn -0.675464 -0.2277614 -0.7013367
vn 0.6911043 -0.2238513 -0.6872157
vn 0.6891493 -0.4252197 -0.586738
vn -0.675464 -0.5972627 -0.4324646
vn 0.6911043 -0.5855324 -0.4237059
vn 0.6891493 -0.6891493 -0.2239343
vn 0.6911043 0.6871942 -0.2239173
vn -0.6751493 0.7376812 0
vn -0.675464 0.5972626 -0.4324647
vn 0.6891493 0.5855324 -0.4268783
vn 0.6911043 0.4252198 -0.5844339
vn -0.675464 0.2277614 -0.7013367
vn 0.6891493 0.2238513 -0.6891762
vn 0.6891493 0.0009775162 -0.7246187
vn 0.6891493 0.4252198 0.586738
vn -0.675464 0.2277614 0.7013367
vn -0.675464 0.5972626 0.4324647
vn 0.6911043 0.5855324 0.4237059
vn 0.6891493 0.6891493 0.2239343
vn -0.6751493 0.7376812 0
vn 0.6911043 0.7223848 -0.0231316
vn 0.6911043 0.6871942 -0.2239173
vn -0.675464 0.5972626 -0.4324647
vn -0.9999995 0.0009775162 0
vn -0.675464 0.2277614 -0.7013367
vn -0.675464 -0.2277614 -0.7013367
vn -0.675464 -0.5972627 -0.4324646
vn -0.6751493 -0.7376812 0
vn -0.675464 -0.5972627 0.4324646
vn -0.675464 -0.2277614 0.7013367
vn -0.675464 0.2277614 0.7013367
vn -0.675464 0.5972626 0.4324647
vn -0.6751493 0.7376812 0
vn -0.6911043 -0.2238513 -0.6872157
vn -0.6891493 0.0009775162 -0.7246187
vn -0.9999995 0.0009775162 0
vn -0.6891493 -0.4252197 -0.586738
vn -0.6911043 -0.5855324 -0.4237059
vn -0.6891493 -0.6891493 -0.2239343
vn -0.6911043 -0.7223848 -0.0231316
vn -0.6911043 -0.6871942 0.2239173
vn -0.6911043 -0.7223848 -0.0231316
vn -0.9999995 0.0009775162 0
vn -0.6891493 -0.5855324 0.4268783
vn -0.6911043 -0.4252197 0.584434
vn -0.6891493 -0.2238513 0.6891762
vn -0.6911043 0.0009775162 0.7227544
vn -0.6911043 0.2238513 0.6872157
vn -0.6911043 0.0009775162 0.7227544
vn -0.9999995 0.0009775162 0
vn -0.6891493 0.4252198 0.586738
vn -0.6911043 0.5855324 0.4237059
vn -0.6891493 0.6891493 0.2239343
vn -0.6911043 0.7223848 -0.0231316
vn -0.6911043 0.6871942 -0.2239173
vn -0.6911043 0.7223848 -0.0231316
vn -0.9999995 0.0009775162 0
vn -0.6891493 0.5855324 -0.4268783
vn -0.6911043 0.4252198 -0.5844339
vn -0.6891493 0.2238513 -0.6891762
vn -0.6891493 0.0009775162 -0.7246187
vn -0.6911043 -0.4252197 0.584434
vn 0.675464 -0.2277614 0.7013367
vn 0.675464 -0.5972627 0.4324646
vn -0.6891493 -0.2238513 0.6891762
vn -0.6911043 0.0009775162 0.7227544
vn 0.675464 0.2277614 0.7013367
vn -0.6911043 0.2238513 0.6872157
vn -0.6891493 0.4252198 0.586738
vn -0.6891493 -0.6891493 -0.2239343
vn 0.6751493 -0.7376812 0
vn 0.675464 -0.5972627 -0.4324646
vn -0.6911043 -0.7223848 -0.0231316
vn -0.6911043 -0.6871942 0.2239173
vn 0.675464 -0.5972627 0.4324646
vn -0.6891493 -0.5855324 0.4268783
vn -0.6911043 -0.4252197 0.584434
vn -0.6891493 0.0009775162 -0.7246187
vn 0.675464 -0.2277614 -0.7013367
vn 0.675464 0.2277614 -0.7013367
vn -0.6911043 -0.2238513 -0.6872157
vn -0.6891493 -0.4252197 -0.586738
vn 0.675464 -0.5972627 -0.4324646
vn -0.6911043 -0.5855324 -0.4237059
vn -0.6891493 -0.6891493 -0.2239343
vn -0.6911043 0.6871942 -0.2239173
vn 0.675464 0.5972626 -0.4324647
vn 0.6751493 0.7376812 0
vn -0.6891493 0.5855324 -0.4268783
vn -0.6911043 0.4252198 -0.5844339
vn 0.675464 0.2277614 -0.7013367
vn -0.6891493 0.2238513 -0.6891762
vn -0.6891493 0.0009775162 -0.7246187
vn -0.6891493 0.4252198 0.586738
vn 0.675464 0.5972626 0.4324647
vn 0.675464 0.2277614 0.7013367
vn -0.6911043 0.5855324 0.4237059
vn -0.6891493 0.6891493 0.2239343
vn 0.6751493 0.7376812 0
vn -0.6911043 0.7223848 -0.0231316
vn -0.6911043 0.6871942 -0.2239173
vn 0.675464 0.5972626 -0.4324647
vn 0.675464 0.2277614 -0.7013367
vn 0.9999995 0.0009775162 0
vn 0.675464 -0.2277614 -0.7013367
vn 0.675464 -0.5972627 -0.4324646
vn 0.6751493 -0.7376812 0
vn 0.675464 -0.5972627 0.4324646
vn 0.675464 -0.2277614 0.7013367
vn 0.675464 0.2277614 0.7013367
vn 0.675464 0.5972626 0.4324647
vn 0.6751493 0.7376812 0
g Tire_Front01_LOD0_0
f 3/3/3 2/2/2 1/1/1
f 1/1/1 2/2/2 4/4/4
f 4/4/4 2/2/2 5/5/5
f 5/5/5 2/2/2 6/6/6
f 6/6/6 2/2/2 7/7/7
f 10/10/10 9/9/9 8/8/8
f 8/8/8 9/9/9 11/11/11
f 11/11/11 9/9/9 12/12/12
f 12/12/12 9/9/9 13/13/13
f 13/13/13 9/9/9 14/14/14
f 17/17/17 16/16/16 15/15/15
f 15/15/15 16/16/16 18/18/18
f 18/18/18 16/16/16 19/19/19
f 19/19/19 16/16/16 20/20/20
f 20/20/20 16/16/16 21/21/21
f 24/24/24 23/23/23 22/22/22
f 22/22/22 23/23/23 25/25/25
f 25/25/25 23/23/23 26/26/26
f 26/26/26 23/23/23 27/27/27
f 27/27/27 23/23/23 28/28/28
f 31/31/31 30/30/30 29/29/29
f 32/32/32 31/31/31 29/29/29
f 33/33/33 31/31/31 32/32/32
f 34/34/34 31/31/31 33/33/33
f 35/35/35 34/34/34 33/33/33
f 36/36/36 34/34/34 35/35/35
f 39/39/39 38/38/38 37/37/37
f 40/40/40 39/39/39 37/37/37
f 41/41/41 39/39/39 40/40/40
f 42/42/42 39/39/39 41/41/41
f 43/43/43 42/42/42 41/41/41
f 44/44/44 42/42/42 43/43/43
f 47/47/47 46/46/46 45/45/45
f 48/48/48 47/47/47 45/45/45
f 49/49/49 47/47/47 48/48/48
f 50/50/50 47/47/47 49/49/49
f 51/51/51 50/50/50 49/49/49
f 52/52/52 50/50/50 51/51/51
f 55/55/55 54/54/54 53/53/53
f 56/56/56 55/55/55 53/53/53
f 57/57/57 55/55/55 56/56/56
f 58/58/58 55/55/55 57/57/57
f 59/59/59 58/58/58 57/57/57
f 60/60/60 58/58/58 59/59/59
f 63/63/63 62/62/62 61/61/61
f 64/64/64 63/63/63 61/61/61
f 65/65/65 63/63/63 64/64/64
f 66/66/66 63/63/63 65/65/65
f 67/67/67 66/66/66 65/65/65
f 68/68/68 66/66/66 67/67/67
f 71/71/71 70/70/70 69/69/69
f 72/72/72 70/70/70 71/71/71
f 73/73/73 70/70/70 72/72/72
f 74/74/74 70/70/70 73/73/73
f 75/75/75 70/70/70 74/74/74
f 76/76/76 70/70/70 75/75/75
f 77/77/77 70/70/70 76/76/76
f 78/78/78 70/70/70 77/77/77
f 79/79/79 70/70/70 78/78/78
f 69/69/69 70/70/70 79/79/79
f 82/82/82 81/81/81 80/80/80
f 82/82/82 80/80/80 83/83/83
f 82/82/82 83/83/83 84/84/84
f 82/82/82 84/84/84 85/85/85
f 82/82/82 85/85/85 86/86/86
f 89/89/89 88/88/88 87/87/87
f 89/89/89 87/87/87 90/90/90
f 89/89/89 90/90/90 91/91/91
f 89/89/89 91/91/91 92/92/92
f 89/89/89 92/92/92 93/93/93
f 96/96/96 95/95/95 94/94/94
f 96/96/96 94/94/94 97/97/97
f 96/96/96 97/97/97 98/98/98
f 96/96/96 98/98/98 99/99/99
f 96/96/96 99/99/99 100/100/100
f 103/103/103 102/102/102 101/101/101
f 103/103/103 101/101/101 104/104/104
f 103/103/103 104/104/104 105/105/105
f 103/103/103 105/105/105 106/106/106
f 103/103/103 106/106/106 107/107/107
f 110/110/110 109/109/109 108/108/108
f 109/109/109 111/111/111 108/108/108
f 109/109/109 112/112/112 111/111/111
f 109/109/109 113/113/113 112/112/112
f 113/113/113 114/114/114 112/112/112
f 113/113/113 115/115/115 114/114/114
f 118/118/118 117/117/117 116/116/116
f 117/117/117 119/119/119 116/116/116
f 117/117/117 120/120/120 119/119/119
f 117/117/117 121/121/121 120/120/120
f 121/121/121 122/122/122 120/120/120
f 121/121/121 123/123/123 122/122/122
f 126/126/126 125/125/125 124/124/124
f 125/125/125 127/127/127 124/124/124
f 125/125/125 128/128/128 127/127/127
f 125/125/125 129/129/129 128/128/128
f 129/129/129 130/130/130 128/128/128
f 129/129/129 131/131/131 130/130/130
f 134/134/134 133/133/133 132/132/132
f 133/133/133 135/135/135 132/132/132
f 133/133/133 136/136/136 135/135/135
f 133/133/133 137/137/137 136/136/136
f 137/137/137 138/138/138 136/136/136
f 137/137/137 139/139/139 138/138/138
f 142/142/142 141/141/141 140/140/140
f 141/141/141 143/143/143 140/140/140
f 141/141/141 144/144/144 143/143/143
f 141/141/141 145/145/145 144/144/144
f 145/145/145 146/146/146 144/144/144
f 145/145/145 147/147/147 146/146/146
f 150/150/150 149/149/149 148/148/148
f 150/150/150 151/151/151 149/149/149
f 150/150/150 152/152/152 151/151/151
f 150/150/150 153/153/153 152/152/152
f 150/150/150 154/154/154 153/153/153
f 150/150/150 155/155/155 154/154/154
f 150/150/150 156/156/156 155/155/155
f 150/150/150 157/157/157 156/156/156
f 150/150/150 158/158/158 157/157/157
f 150/150/150 148/148/148 158/158/158
