g TireK_SmallB_LF_LOD2
v 0.1544899 0.02480151 0.04295723
v 0.1544899 -0.02480133 0.04295723
v 0.1367909 0.02963252 0.05132498
v 0.1367909 -0.02963261 0.05132498
v 0.1544899 -0.04960275 8.940697E-08
v 0.1367909 -0.05926505 8.940697E-08
v 0.1544899 -0.02480133 -0.04295731
v 0.1367909 -0.02963261 -0.05132506
v 0.1544899 0.02480151 -0.04295731
v 0.1367909 0.02963252 -0.05132506
v 0.1544899 0.04960293 8.940697E-08
v 0.1367909 0.05926523 8.940697E-08
v 0.1367909 0.05926523 8.940697E-08
v 0.1544899 0.04960293 8.940697E-08
v 0.1265422 8.940697E-08 -0.103763
v 0.1265422 -0.103763 8.940697E-08
v 0.1386934 4.380941E-06 -0.08032056
v 0.1386934 -0.08031626 -8.508563E-06
v 0.06896736 8.940697E-08 -0.1270778
v 0.06896736 -0.1270778 8.940697E-08
v 0.01139258 8.940697E-08 -0.1036459
v 0.01139258 -0.1036459 8.940697E-08
v 0.1265422 0.1037629 8.940697E-08
v 0.1265422 8.940697E-08 -0.103763
v 0.1386934 0.08031832 6.54161E-06
v 0.1386934 4.380941E-06 -0.08032056
v 0.06896736 0.1270778 8.940697E-08
v 0.06896736 8.940697E-08 -0.1270778
v 0.01139258 0.1036458 8.940697E-08
v 0.01139258 8.940697E-08 -0.1036459
v 0.1265422 8.940697E-08 0.1037629
v 0.1265422 0.1037629 8.940697E-08
v 0.1386934 -4.202127E-06 0.08031188
v 0.1386934 0.08031832 6.54161E-06
v 0.06896736 8.940697E-08 0.1270778
v 0.06896736 0.1270778 8.940697E-08
v 0.01139258 8.940697E-08 0.1036458
v 0.01139258 0.1036458 8.940697E-08
v 0.1265422 -0.103763 8.940697E-08
v 0.1265422 8.940697E-08 0.1037629
v 0.1386934 -0.08031626 -8.508563E-06
v 0.1386934 -4.202127E-06 0.08031188
v 0.06896736 -0.1270778 8.940697E-08
v 0.06896736 8.940697E-08 0.1270778
v 0.01139258 -0.1036459 8.940697E-08
v 0.01139258 8.940697E-08 0.1036458
v -0.01059766 0.08013627 8.940697E-08
v 0.01157464 0.08233789 8.940697E-08
v -0.01059766 8.940697E-08 0.08013627
v 0.01157464 8.940697E-08 0.08233817
v -0.01059766 8.940697E-08 0.08013627
v -0.02358161 8.940697E-08 8.940697E-08
v -0.01059766 0.08013627 8.940697E-08
v -0.01059766 -0.08013635 8.940697E-08
v -0.01059766 8.940697E-08 -0.08013635
v -0.01059766 8.940697E-08 -0.08013635
v -0.01059766 -0.08013635 8.940697E-08
v 0.01157464 8.940697E-08 -0.08233798
v 0.01157464 -0.08233798 8.940697E-08
v -0.01059766 8.940697E-08 -0.08013635
v 0.01157464 8.940697E-08 -0.08233798
v -0.01059766 0.08013627 8.940697E-08
v 0.01157464 0.08233789 8.940697E-08
v -0.01059766 8.940697E-08 0.08013627
v 0.01157464 8.940697E-08 0.08233817
v -0.01059766 -0.08013635 8.940697E-08
v 0.01157464 -0.08233798 8.940697E-08
v 0.1443023 8.940697E-08 0.05426934
v 0.1443023 0.05430076 -3.132224E-05
v 0.1288759 8.940697E-08 -5.683303E-05
v 0.1443023 -0.05430084 -3.132224E-05
v 0.1443023 8.940697E-08 -0.05433226
v 0.1386934 -4.202127E-06 0.08031188
v 0.1386934 0.08031832 6.54161E-06
v 0.1386934 -0.08031626 -8.508563E-06
v 0.1386934 4.380941E-06 -0.08032056
v 0.01139258 8.940697E-08 0.1036458
v 0.01139258 -0.1036459 8.940697E-08
v -0.01625922 8.940697E-08 8.940697E-08
v 0.01139258 -0.1036459 8.940697E-08
v 0.01139258 8.940697E-08 -0.1036459
v -0.01625922 8.940697E-08 8.940697E-08
v 0.01139258 8.940697E-08 -0.1036459
v 0.01139258 0.1036458 8.940697E-08
v -0.01625922 8.940697E-08 8.940697E-08
v 0.01139258 0.1036458 8.940697E-08
v 0.01139258 8.940697E-08 0.1036458
v -0.01625922 8.940697E-08 8.940697E-08
v 0.1544899 0.02480151 0.04295723
v 0.1544899 0.02480151 -0.04295731
v 0.1544899 -0.02480133 0.04295723
v 0.1544899 -0.02480133 -0.04295731
v 0.1544899 0.04960293 8.940697E-08
v 0.1544899 -0.04960275 8.940697E-08
vt 0.7584693 0.5897514
vt 0.7584693 0.5897514
vt 0.7584693 0.5320377
vt 0.7584693 0.5320377
vt 0.795809 0.5897514
vt 0.795809 0.5320377
vt 0.8331639 0.5897514
vt 0.8331639 0.5320377
vt 0.8705036 0.5897514
vt 0.8705036 0.5320377
vt 0.9078433 0.5897514
vt 0.9078433 0.5320377
vt 0.7211296 0.5320377
vt 0.7211296 0.5897514
vt 0.01318999 0.5727857
vt 0.4599334 0.5727857
vt 0.01318999 0.4872755
vt 0.4599334 0.4872755
vt 0.01318999 0.7729962
vt 0.4599334 0.7729962
vt 0.01318999 0.9742064
vt 0.4599334 0.9742064
vt 1.013197 0.5727857
vt 1.459941 0.5727857
vt 1.013197 0.4872755
vt 1.459941 0.4872755
vt 1.013197 0.7729962
vt 1.459941 0.7729962
vt 1.013197 0.9742064
vt 1.459941 0.9742064
vt 2.01319 0.5727857
vt 2.459933 0.5727857
vt 2.01319 0.4872755
vt 2.459933 0.4872755
vt 2.01319 0.7729962
vt 2.459933 0.7729962
vt 2.01319 0.9742064
vt 2.459933 0.9742064
vt 3.013197 0.5727857
vt 3.45994 0.5727857
vt 3.013197 0.4872755
vt 3.45994 0.4872755
vt 3.013197 0.7729962
vt 3.45994 0.7729962
vt 3.013197 0.9742064
vt 3.45994 0.9742064
vt 0.02489935 0.3277221
vt 0.09120195 0.3277221
vt 0.02489935 0.04148636
vt 0.09120195 0.04148636
vt 0.4963188 0.2126128
vt 0.3044851 0.2126128
vt 0.3044851 0.4044616
vt 0.3044851 0.02077911
vt 0.1126363 0.2126128
vt 2.024445 0.04039571
vt 2.024445 0.3266466
vt 2.090762 0.04039571
vt 2.090747 0.3266466
vt 3.026709 0.3262224
vt 3.093011 0.3262224
vt 3.026709 0.03997157
vt 3.093011 0.03997157
vt 1.025619 0.3266466
vt 1.091921 0.3266466
vt 1.025619 0.04041086
vt 1.091921 0.04041086
vt 0.5806626 0.2672363
vt 0.7492745 0.4357876
vt 0.7493502 0.2672363
vt 0.7492594 0.09863959
vt 0.9178561 0.2672363
vt 0.5080131 0.2672363
vt 0.7525162 0.5083917
vt 0.7491988 0.02606575
vt 0.9903845 0.2672363
vt 1.986575 0.6085803
vt 1.627068 0.9680716
vt 1.986575 0.9680716
vt 2.98181 0.6085803
vt 2.622319 0.9680716
vt 2.98181 0.9680716
vt 3.98412 0.6085803
vt 3.624629 0.9680716
vt 3.98412 0.9680716
vt 0.9808716 0.6126097
vt 0.6213803 0.9721009
vt 0.9808716 0.9721009
vt 0.5124363 0.6861984
vt 0.7060422 0.6861984
vt 0.5124363 0.5744216
vt 0.7060422 0.5744216
vt 0.6092317 0.7420944
vt 0.6092317 0.5185409
vn 0.9530787 0.1612903 0.2561764
vn 0.9530787 -0.1397849 0.2685165
vn 0.4780056 0.4662755 0.7443774
vn 0.4780056 -0.4095795 0.7770169
vn 0.8983378 -0.438905 0.018752
vn 0.4780056 -0.8768324 0.05172498
vn 0.9530787 -0.1612902 -0.2561764
vn 0.4780056 -0.4662755 -0.7443774
vn 0.9530787 0.1397849 -0.2685164
vn 0.4780056 0.4095795 -0.7770169
vn 0.8983378 0.438905 -0.018752
vn 0.4780056 0.8768324 -0.05172613
vn 0.4780056 0.8768324 -0.05172613
vn 0.8983378 0.438905 -0.018752
vn 0.4643204 0.06158352 -0.8835236
vn 0.4643204 -0.8846526 -0.04238425
vn 0.8866076 -0.05571842 -0.459154
vn 0.8866076 -0.4584553 0.06120204
vn -0.0009775162 -0.0009775162 -0.999999
vn -0.0009775162 -0.9999995 0
vn -0.6891493 -0.04985332 -0.7229025
vn -0.6891493 -0.7223848 0.05686381
vn 0.4643204 0.8846526 0.04238284
vn 0.4643204 0.06158352 -0.8835236
vn 0.8866076 0.4604104 -0.04415066
vn 0.8866076 -0.05571842 -0.459154
vn -0.0009775162 0.9999995 0
vn -0.0009775162 -0.0009775162 -0.999999
vn -0.6891493 0.7223848 -0.05686381
vn -0.6891493 -0.04985332 -0.7229025
vn 0.4643204 -0.06158358 0.8835236
vn 0.4643204 0.8846526 0.04238284
vn 0.8866076 0.05571842 0.459154
vn 0.8866076 0.4604104 -0.04415066
vn -0.0009775162 0.0009775162 0.999999
vn -0.0009775162 0.9999995 0
vn -0.6891493 0.04985332 0.7229025
vn -0.6891493 0.7223848 -0.05686381
vn 0.4643204 -0.8846526 -0.04238425
vn 0.4643204 -0.06158358 0.8835236
vn 0.8866076 -0.4584553 0.06120204
vn 0.8866076 0.05571842 0.459154
vn -0.0009775162 -0.9999995 0
vn -0.0009775162 0.0009775162 0.999999
vn -0.6891493 -0.7223848 0.05686381
vn -0.6891493 0.04985332 0.7229025
vn -0.8201364 0.5718472 -0.01915765
vn -0.09872913 0.9941344 -0.04415099
vn -0.8201364 0.004887581 0.5721471
vn -0.09872913 0.01270771 0.9950332
vn -0.8201364 0.004887581 0.5721471
vn -0.9999995 0.0009775162 0
vn -0.8201364 0.5718472 -0.01915765
vn -0.8178065 -0.5754935 0
vn -0.8220915 0.0009775162 -0.5693547
vn -0.8220915 0.0009775162 -0.5693547
vn -0.8178065 -0.5754935 0
vn -0.09872913 0.0009775162 -0.9951138
vn -0.09872913 -0.9941344 -0.04415099
vn -0.8220915 0.0009775162 -0.5693547
vn -0.09872913 0.0009775162 -0.9951138
vn -0.8201364 0.5718472 -0.01915765
vn -0.09872913 0.9941344 -0.04415099
vn -0.8201364 0.004887581 0.5721471
vn -0.09872913 0.01270771 0.9950332
vn -0.8178065 -0.5754935 0
vn -0.09872913 -0.9941344 -0.04415099
vn 0.9997014 -0.02443062 0
vn 0.9995984 0.0283366 0
vn 0.9999995 0.0009775162 0
vn 0.9995984 -0.0283366 0
vn 0.9997014 0.02443062 0
vn 0.9765391 -0.02834797 0.213466
vn 0.9765391 0.2101661 0.04692071
vn 0.9765391 -0.2101661 -0.04692071
vn 0.9765391 0.030303 -0.2131972
vn -0.6891493 0.04985332 0.7229025
vn -0.6891493 -0.7223848 0.05686381
vn -0.9999995 0.0009775162 0
vn -0.6891493 -0.7223848 0.05686381
vn -0.6891493 -0.04985332 -0.7229025
vn -0.9999995 0.0009775162 0
vn -0.6891493 -0.04985332 -0.7229025
vn -0.6891493 0.7223848 -0.05686381
vn -0.9999995 0.0009775162 0
vn -0.6891493 0.7223848 -0.05686381
vn -0.6891493 0.04985332 0.7229025
vn -0.9999995 0.0009775162 0
vn 0.9530787 0.1612903 0.2561764
vn 0.9530787 0.1397849 -0.2685164
vn 0.9530787 -0.1397849 0.2685165
vn 0.9530787 -0.1612902 -0.2561764
vn 0.8983378 0.438905 -0.018752
vn 0.8983378 -0.438905 0.018752
g TireK_SmallB_LF_LOD2_0
f 3/3/3 2/2/2 1/1/1
f 3/3/3 4/4/4 2/2/2
f 4/4/4 5/5/5 2/2/2
f 4/4/4 6/6/6 5/5/5
f 6/6/6 7/7/7 5/5/5
f 6/6/6 8/8/8 7/7/7
f 8/8/8 9/9/9 7/7/7
f 8/8/8 10/10/10 9/9/9
f 10/10/10 11/11/11 9/9/9
f 10/10/10 12/12/12 11/11/11
f 13/13/13 3/3/3 1/1/1
f 13/13/13 1/1/1 14/14/14
f 17/17/17 16/16/16 15/15/15
f 17/17/17 18/18/18 16/16/16
f 19/19/19 15/15/15 16/16/16
f 19/19/19 16/16/16 20/20/20
f 21/21/21 19/19/19 20/20/20
f 21/21/21 20/20/20 22/22/22
f 25/25/25 24/24/24 23/23/23
f 25/25/25 26/26/26 24/24/24
f 27/27/27 23/23/23 24/24/24
f 27/27/27 24/24/24 28/28/28
f 29/29/29 27/27/27 28/28/28
f 29/29/29 28/28/28 30/30/30
f 33/33/33 32/32/32 31/31/31
f 33/33/33 34/34/34 32/32/32
f 35/35/35 31/31/31 32/32/32
f 35/35/35 32/32/32 36/36/36
f 37/37/37 35/35/35 36/36/36
f 37/37/37 36/36/36 38/38/38
f 41/41/41 40/40/40 39/39/39
f 41/41/41 42/42/42 40/40/40
f 43/43/43 39/39/39 40/40/40
f 43/43/43 40/40/40 44/44/44
f 45/45/45 43/43/43 44/44/44
f 45/45/45 44/44/44 46/46/46
f 49/49/49 48/48/48 47/47/47
f 49/49/49 50/50/50 48/48/48
f 53/53/53 52/52/52 51/51/51
f 54/54/54 51/51/51 52/52/52
f 54/54/54 52/52/52 55/55/55
f 53/53/53 55/55/55 52/52/52
f 58/58/58 57/57/57 56/56/56
f 58/58/58 59/59/59 57/57/57
f 62/62/62 61/61/61 60/60/60
f 62/62/62 63/63/63 61/61/61
f 66/66/66 65/65/65 64/64/64
f 66/66/66 67/67/67 65/65/65
f 70/70/70 69/69/69 68/68/68
f 70/70/70 68/68/68 71/71/71
f 70/70/70 71/71/71 72/72/72
f 70/70/70 72/72/72 69/69/69
f 73/73/73 68/68/68 69/69/69
f 73/73/73 69/69/69 74/74/74
f 74/74/74 69/69/69 72/72/72
f 75/75/75 68/68/68 73/73/73
f 75/75/75 71/71/71 68/68/68
f 76/76/76 71/71/71 75/75/75
f 76/76/76 72/72/72 71/71/71
f 74/74/74 72/72/72 76/76/76
f 79/79/79 78/78/78 77/77/77
f 82/82/82 81/81/81 80/80/80
f 85/85/85 84/84/84 83/83/83
f 88/88/88 87/87/87 86/86/86
f 91/91/91 90/90/90 89/89/89
f 91/91/91 92/92/92 90/90/90
f 93/93/93 89/89/89 90/90/90
f 92/92/92 91/91/91 94/94/94
