g TireK_YoshiB_RF_LOD2
v -0.1517994 0.02879998 2.235174E-07
v -0.1517994 -0.01440012 0.0249415
v -0.1517994 -0.01440012 -0.02494152
v -0.01984429 2.235174E-07 0.24
v -0.124253 2.235174E-07 0.24
v -0.01984429 0.24 2.235174E-07
v -0.124253 0.24 2.235174E-07
v -0.1393537 2.235174E-07 0.1420751
v -0.1393537 0.1420751 -2.384186E-07
v -0.124253 2.235174E-07 0.24
v -0.124253 0.24 2.235174E-07
v -0.01984429 2.235174E-07 0.24
v -0.01984429 0.24 2.235174E-07
v -0.01656532 2.235174E-07 2.235174E-07
v -0.01984429 -0.24 2.235174E-07
v -0.124253 -0.24 2.235174E-07
v -0.01984429 2.235174E-07 0.24
v -0.124253 2.235174E-07 0.24
v -0.1393537 -0.1420751 2.235174E-07
v -0.1393537 2.235174E-07 0.1420751
v -0.124253 -0.24 2.235174E-07
v -0.124253 2.235174E-07 0.24
v -0.01984429 -0.24 2.235174E-07
v -0.01984429 2.235174E-07 0.24
v -0.01656532 2.235174E-07 2.235174E-07
v -0.01984429 2.235174E-07 -0.24
v -0.124253 2.235174E-07 -0.24
v -0.01984429 -0.24 2.235174E-07
v -0.124253 -0.24 2.235174E-07
v -0.1393537 -2.384186E-07 -0.1420751
v -0.1393537 -0.1420751 2.235174E-07
v -0.124253 2.235174E-07 -0.24
v -0.124253 -0.24 2.235174E-07
v -0.01984429 2.235174E-07 -0.24
v -0.01984429 -0.24 2.235174E-07
v -0.01656532 2.235174E-07 2.235174E-07
v -0.01984429 0.24 2.235174E-07
v -0.124253 0.24 2.235174E-07
v -0.01984429 2.235174E-07 -0.24
v -0.124253 2.235174E-07 -0.24
v -0.1393537 0.1420751 -2.384186E-07
v -0.1393537 -2.384186E-07 -0.1420751
v -0.124253 0.24 2.235174E-07
v -0.124253 2.235174E-07 -0.24
v -0.01984429 0.24 2.235174E-07
v -0.01984429 2.235174E-07 -0.24
v -0.01656532 2.235174E-07 2.235174E-07
v -0.1275319 2.235174E-07 2.235174E-07
v -0.1275319 0.08966935 -2.384186E-07
v -0.1275319 0.06869048 0.05763823
v -0.1275319 0.01557106 0.08830705
v -0.1275319 -0.04483458 0.07765579
v -0.139459 0.1503963 -2.384186E-07
v -0.139459 0.1152103 0.09667268
v -0.1275319 0.08966935 -2.384186E-07
v -0.1275319 0.06869048 0.05763823
v -0.139459 0.02611613 0.1481116
v -0.1275319 0.01557106 0.08830705
v -0.139459 -0.07519807 0.1302469
v -0.1275319 -0.04483458 0.07765579
v -0.1517994 -0.01440012 0.0249415
v -0.1517994 0.02879998 2.235174E-07
v -0.143203 0.02820215 0.114677
v -0.143203 0.08521211 0.08176193
v -0.1275319 2.235174E-07 2.235174E-07
v -0.1275319 -0.04483458 0.07765579
v -0.1275319 -0.0842618 0.03066859
v -0.1275319 -0.0842618 -0.0306686
v -0.1275319 -0.04483458 -0.07765581
v -0.1275319 -0.04483458 0.07765579
v -0.139459 -0.07519807 0.1302469
v -0.1275319 -0.0842618 0.03066859
v -0.139459 -0.1413262 0.05143872
v -0.139459 -0.1413262 -0.05143875
v -0.1275319 -0.0842618 -0.0306686
v -0.139459 -0.07519807 -0.130247
v -0.1275319 -0.04483458 -0.07765581
v -0.1517994 -0.01440012 -0.02494152
v -0.1517994 -0.01440012 0.0249415
v -0.143203 -0.1134141 -0.03291486
v -0.143203 -0.1134141 0.03291485
v -0.1275319 -0.04483458 -0.07765581
v -0.1275319 -0.01557109 -0.08830707
v -0.1275319 2.235174E-07 2.235174E-07
v -0.1275319 0.01557106 -0.08830707
v -0.1275319 0.06869048 -0.05763824
v -0.1275319 0.08966935 -2.384186E-07
v -0.139459 0.02611613 -0.1481112
v -0.1275319 0.01557106 -0.08830707
v -0.139459 -0.07519807 -0.130247
v -0.1275319 -0.01557109 -0.08830707
v -0.1275319 -0.04483458 -0.07765581
v -0.139459 0.1152103 -0.09667271
v -0.1275319 0.06869048 -0.05763824
v -0.139459 0.1503963 -2.384186E-07
v -0.1275319 0.08966935 -2.384186E-07
v -0.1517994 0.02879998 2.235174E-07
v -0.1517994 -0.01440012 -0.02494152
v -0.143203 0.08521211 -0.08176242
v -0.143203 0.02820215 -0.114677
vt 0.243895 0.6541816
vt 0.1730482 0.5314726
vt 0.3147418 0.5314726
vt 0.03411823 0.9599928
vt 0.03411823 0.683064
vt 0.9572443 0.9599928
vt 0.9572443 0.683064
vt 0.01999994 1.312109
vt 0.3121134 1.019996
vt 0.01999994 1.500003
vt 0.5000069 1.019996
vt 0.5000069 0.01999994
vt 0.01999994 0.5000069
vt 0.01999994 0.01999994
vt 1.034114 0.9599928
vt 1.034114 0.683064
vt 1.95724 0.9599928
vt 1.95724 0.683064
vt 1.019996 1.312109
vt 1.312109 1.019996
vt 1.019996 1.500003
vt 1.500003 1.019996
vt 1.500003 0.01999994
vt 1.019996 0.5000069
vt 1.019996 0.01999994
vt 2.034125 0.9599928
vt 2.034125 0.683064
vt 2.957251 0.9599928
vt 2.957251 0.683064
vt 2.020006 1.312109
vt 2.312105 1.019996
vt 2.020006 1.500003
vt 2.499998 1.019996
vt 2.499998 0.01999994
vt 2.020006 0.5000069
vt 2.020006 0.01999994
vt 3.03412 0.9599928
vt 3.03412 0.683064
vt 3.957246 0.9599928
vt 3.957246 0.683064
vt 3.020002 1.312109
vt 3.312115 1.019996
vt 3.020002 1.500003
vt 3.499994 1.019996
vt 3.499994 0.01999994
vt 3.020002 0.5000069
vt 3.020002 0.01999994
vt 0.9699958 0.2319996
vt 0.9699958 0.4733623
vt 0.8148598 0.4168892
vt 0.7323129 0.2739189
vt 0.76097 0.1113183
vt 0.9699958 0.6368191
vt 0.7097837 0.5421064
vt 0.9699958 0.4733623
vt 0.8148598 0.4168892
vt 0.5713342 0.3022907
vt 0.7323129 0.2739189
vt 0.6194115 0.02959737
vt 0.76097 0.1113183
vt 0.4130743 0.3845823
vt 0.5364741 0.3845823
vt 0.3933537 0.6295347
vt 0.5561947 0.6295347
vt 1.970007 0.2319996
vt 1.970007 0.4733623
vt 1.814855 0.4168892
vt 1.732309 0.2739189
vt 1.760981 0.1113183
vt 1.970007 0.4733623
vt 1.970007 0.6368191
vt 1.814855 0.4168892
vt 1.709794 0.5421064
vt 1.57133 0.3022907
vt 1.732309 0.2739189
vt 1.619422 0.02959737
vt 1.760981 0.1113183
vt 1.41307 0.3845823
vt 1.536485 0.3845823
vt 1.393349 0.6295347
vt 1.556205 0.6295347
vt 2.970002 0.4733623
vt 2.887455 0.4588085
vt 2.970002 0.2319996
vt 2.814851 0.4168892
vt 2.732304 0.2739189
vt 2.760976 0.1113183
vt 2.70979 0.5421064
vt 2.814851 0.4168892
vt 2.970002 0.6368191
vt 2.887455 0.4588085
vt 2.970002 0.4733623
vt 2.571341 0.3022907
vt 2.732304 0.2739189
vt 2.619418 0.02959737
vt 2.760976 0.1113183
vt 2.413081 0.3845823
vt 2.53648 0.3845823
vt 2.39336 0.6295347
vt 2.556201 0.6295347
vn -0.9999995 0.0009775162 0
vn -0.9999995 0.0009775162 0
vn -0.9999995 0.0009775162 0
vn -0.0009775162 0.0009775162 0.999999
vn -0.0009775162 0.0009775162 0.999999
vn -0.0009775162 0.9999995 0
vn -0.0009775162 0.9999995 0
vn -0.9882693 -0.0361681 0.1483765
vn -0.9882693 0.1515151 0.01915415
vn -0.9882693 -0.0244379 0.1507531
vn -0.9882693 0.1515151 0.01915415
vn 0.9999995 0.0009775162 0
vn 0.9999193 0.01270669 0
vn 0.9999995 0.0009775162 0
vn -0.0009775162 -0.9999995 0
vn -0.0009775162 -0.9999995 0
vn -0.0009775162 0.0009775162 0.999999
vn -0.0009775162 0.0009775162 0.999999
vn -0.9882693 -0.1515151 -0.01915464
vn -0.9882693 -0.0361681 0.1483765
vn -0.9882693 -0.1515151 -0.01915464
vn -0.9882693 -0.0244379 0.1507531
vn 0.9999193 -0.01270669 0
vn 0.9999995 0.0009775162 0
vn 0.9999995 0.0009775162 0
vn -0.0009775162 0.0009775162 -0.999999
vn -0.0009775162 0.0009775162 -0.999999
vn -0.0009775162 -0.9999995 0
vn -0.0009775162 -0.9999995 0
vn -0.9882693 0.0361681 -0.1483765
vn -0.9882693 -0.1515151 -0.01915464
vn -0.9882693 0.0244379 -0.1507531
vn -0.9882693 -0.1515151 -0.01915464
vn 0.9999995 0.0009775162 0
vn 0.9999193 -0.01270669 0
vn 0.9999995 0.0009775162 0
vn -0.0009775162 0.9999995 0
vn -0.0009775162 0.9999995 0
vn -0.0009775162 0.0009775162 -0.999999
vn -0.0009775162 0.0009775162 -0.999999
vn -0.9882693 0.1515151 0.01915415
vn -0.9882693 0.0361681 -0.1483765
vn -0.9882693 0.1515151 0.01915415
vn -0.9882693 0.0244379 -0.1507531
vn 0.9999193 0.01270669 0
vn 0.9999995 0.0009775162 0
vn 0.9999995 0.0009775162 0
vn -0.9999995 0.0009775162 0
vn -0.9999995 0.0009775162 0
vn -0.9999995 0.0009775162 0
vn -0.9999995 0.0009775162 0
vn -0.9999995 0.0009775162 0
vn -0.9804492 -0.1925708 -0.04044554
vn -0.9804492 -0.1417399 -0.1364887
vn -0.9804492 -0.1925708 -0.04044554
vn -0.9804492 -0.1397849 -0.1384902
vn -0.9804492 -0.02639294 -0.1949943
vn -0.9804492 -0.02052784 -0.1956986
vn -0.9804492 0.0967741 -0.1713305
vn -0.9804492 0.0967741 -0.1713305
vn -0.9960895 0.04398823 0.07662115
vn -0.9960895 0.04398823 0.07662115
vn -0.9960895 0.04398823 0.07662115
vn -0.9960895 0.04398823 0.07662115
vn -0.9999995 0.0009775162 0
vn -0.9999995 0.0009775162 0
vn -0.9999995 0.0009775162 0
vn -0.9999995 0.0009775162 0
vn -0.9999995 0.0009775162 0
vn -0.9804492 0.0967741 -0.1713305
vn -0.9804492 0.0967741 -0.1713305
vn -0.9804492 0.1808406 -0.07756308
vn -0.9804492 0.1808406 -0.07756308
vn -0.9804492 0.1788856 0.08197138
vn -0.9804492 0.1769305 0.08611003
vn -0.9804492 0.1045942 0.1666715
vn -0.9804492 0.1280547 0.1494033
vn -0.9960895 -0.086999 -0.01539281
vn -0.9960895 -0.086999 -0.01539281
vn -0.9960895 -0.086999 -0.01539281
vn -0.9960895 -0.086999 -0.01539281
vn -0.9999995 0.0009775162 0
vn -0.9999995 0.0009775162 0
vn -0.9999995 0.0009775162 0
vn -0.9999995 0.0009775162 0
vn -0.9999995 0.0009775162 0
vn -0.9999995 0.0009775162 0
vn -0.9804492 -0.03421307 0.1937752
vn -0.9804492 -0.04007816 0.1926476
vn -0.9804492 0.1045942 0.1666715
vn -0.970674 0.0244379 0.2391541
vn -0.9804492 0.1280547 0.1494033
vn -0.9804492 -0.1534701 0.1231515
vn -0.9804492 -0.1554251 0.1206747
vn -0.9804492 -0.1925708 -0.04044554
vn -0.9804492 -0.1925708 -0.04044554
vn -0.9960895 0.04398823 -0.07662115
vn -0.9960895 0.04398823 -0.07662115
vn -0.9960895 0.04398823 -0.07662115
vn -0.9960895 0.04398823 -0.07662115
g TireK_YoshiB_RF_LOD2_0
f 3/3/3 2/2/2 1/1/1
f 6/6/6 5/5/5 4/4/4
f 6/6/6 7/7/7 5/5/5
f 10/10/10 9/9/9 8/8/8
f 10/10/10 11/11/11 9/9/9
f 14/14/14 13/13/13 12/12/12
f 17/17/17 16/16/16 15/15/15
f 17/17/17 18/18/18 16/16/16
f 21/21/21 20/20/20 19/19/19
f 21/21/21 22/22/22 20/20/20
f 25/25/25 24/24/24 23/23/23
f 28/28/28 27/27/27 26/26/26
f 28/28/28 29/29/29 27/27/27
f 32/32/32 31/31/31 30/30/30
f 32/32/32 33/33/33 31/31/31
f 36/36/36 35/35/35 34/34/34
f 39/39/39 38/38/38 37/37/37
f 39/39/39 40/40/40 38/38/38
f 43/43/43 42/42/42 41/41/41
f 43/43/43 44/44/44 42/42/42
f 47/47/47 46/46/46 45/45/45
f 50/50/50 49/49/49 48/48/48
f 51/51/51 50/50/50 48/48/48
f 52/52/52 51/51/51 48/48/48
f 55/55/55 54/54/54 53/53/53
f 55/55/55 56/56/56 54/54/54
f 56/56/56 57/57/57 54/54/54
f 56/56/56 58/58/58 57/57/57
f 58/58/58 59/59/59 57/57/57
f 58/58/58 60/60/60 59/59/59
f 63/63/63 62/62/62 61/61/61
f 63/63/63 64/64/64 62/62/62
f 67/67/67 66/66/66 65/65/65
f 68/68/68 67/67/67 65/65/65
f 69/69/69 68/68/68 65/65/65
f 72/72/72 71/71/71 70/70/70
f 72/72/72 73/73/73 71/71/71
f 72/72/72 74/74/74 73/73/73
f 72/72/72 75/75/75 74/74/74
f 75/75/75 76/76/76 74/74/74
f 75/75/75 77/77/77 76/76/76
f 80/80/80 79/79/79 78/78/78
f 80/80/80 81/81/81 79/79/79
f 84/84/84 83/83/83 82/82/82
f 84/84/84 85/85/85 83/83/83
f 86/86/86 85/85/85 84/84/84
f 87/87/87 86/86/86 84/84/84
f 90/90/90 89/89/89 88/88/88
f 90/90/90 91/91/91 89/89/89
f 91/91/91 90/90/90 92/92/92
f 89/89/89 93/93/93 88/88/88
f 89/89/89 94/94/94 93/93/93
f 94/94/94 95/95/95 93/93/93
f 94/94/94 96/96/96 95/95/95
f 99/99/99 98/98/98 97/97/97
f 99/99/99 100/100/100 98/98/98
