g TireK_Std_RF_LOD1
v -0.169013 -5.960464E-08 -5.960464E-08
v -0.1861803 0.08157314 0.08082975
v -0.1861803 -5.960464E-08 0.1143106
v -0.1861803 0.115362 2.583861E-05
v -0.1805409 -5.960464E-08 0.1465425
v -0.1805409 0.1045741 0.1036212
v -0.1805409 0.14789 -5.960464E-08
v -0.169013 -5.960464E-08 -5.960464E-08
v -0.1861803 -5.960464E-08 0.1143106
v -0.1861803 -0.08157327 0.08083011
v -0.1861803 -0.1153618 -5.960464E-08
v -0.1805409 -0.1478901 -5.960464E-08
v -0.1805409 -0.1045739 0.1036212
v -0.1805409 -5.960464E-08 0.1465425
v -0.169013 -5.960464E-08 -5.960464E-08
v -0.1861803 -0.1153618 -5.960464E-08
v -0.1861803 -0.08157327 -0.08082989
v -0.1861803 -5.960464E-08 -0.1143108
v -0.1805409 -5.960464E-08 -0.1465427
v -0.1805409 -0.1045742 -0.1036213
v -0.1805409 -0.1478901 -5.960464E-08
v -0.169013 -5.960464E-08 -5.960464E-08
v -0.1861803 -5.960464E-08 -0.1143108
v -0.1861803 0.08157314 -0.08082989
v -0.1861803 0.115362 2.583861E-05
v -0.1805409 0.1045741 -0.1036213
v -0.1805409 -5.960464E-08 -0.1465427
v -0.1805409 0.14789 -5.960464E-08
v -0.1590216 0.1209561 -0.1198538
v -0.1590216 0.1710575 2.583861E-05
v -0.1805409 0.14789 -5.960464E-08
v -0.1805409 0.1045741 -0.1036213
v -0.1590216 -5.960464E-08 -0.169499
v -0.1805409 -5.960464E-08 -0.1465427
v 0.009021506 -5.960464E-08 -0.169499
v 0.009021506 0.1209561 -0.1198538
v 0.009021506 0.1710575 -5.960464E-08
v 0.03054112 -5.960464E-08 -0.1463771
v 0.03054112 0.1044559 -0.1035041
v 0.03054112 0.147723 -5.960464E-08
v -0.1590216 -0.1209559 -0.1198538
v -0.1590216 -5.960464E-08 -0.169499
v -0.1805409 -5.960464E-08 -0.1465427
v -0.1805409 -0.1045742 -0.1036213
v -0.1590216 -0.1710576 -5.960464E-08
v -0.1805409 -0.1478901 -5.960464E-08
v 0.009021506 -0.1710576 -5.960464E-08
v 0.009021506 -0.1209559 -0.1198538
v 0.009021506 -5.960464E-08 -0.169499
v 0.03054112 -0.1477232 -5.960464E-08
v 0.03054112 -0.104456 -0.1035041
v 0.03054112 -5.960464E-08 -0.1463771
v -0.1590216 -0.1209559 0.119854
v -0.1590216 -0.1710576 -5.960464E-08
v -0.1805409 -0.1478901 -5.960464E-08
v -0.1805409 -0.1045739 0.1036212
v -0.1590216 -5.960464E-08 0.1694988
v -0.1805409 -5.960464E-08 0.1465425
v 0.009021506 -5.960464E-08 0.1694988
v 0.009021506 -0.1209559 0.119854
v 0.009021506 -0.1710576 -5.960464E-08
v 0.03054112 -5.960464E-08 0.146377
v 0.03054112 -0.104456 0.1035043
v 0.03054112 -0.1477232 -5.960464E-08
v -0.1590216 0.1209561 0.1198537
v -0.1590216 -5.960464E-08 0.1694988
v -0.1805409 -5.960464E-08 0.1465425
v -0.1805409 0.1045741 0.1036212
v -0.1590216 0.1710575 2.583861E-05
v -0.1805409 0.14789 -5.960464E-08
v 0.009021506 0.1209561 0.1198537
v 0.009021506 -5.960464E-08 0.1694988
v 0.009021506 0.1710575 -5.960464E-08
v 0.03054112 0.147723 -5.960464E-08
v 0.03054112 0.1044559 0.103504
v 0.03054112 -5.960464E-08 0.146377
v 0.03482802 -5.960464E-08 0.1135887
v 0.03054112 -5.960464E-08 0.146377
v 0.03054112 0.1044559 0.103504
v 0.03482802 0.08105804 0.08031942
v 0.03482802 0.1146333 -5.960464E-08
v 0.03054112 0.147723 -5.960464E-08
v 0.03628889 -0.004416078 -5.960464E-08
v 0.03482802 -0.08105781 0.08031942
v 0.03054112 -0.104456 0.1035043
v 0.03054112 -5.960464E-08 0.146377
v 0.03482802 -5.960464E-08 0.1135887
v 0.03482802 -0.1146334 -5.960464E-08
v 0.03054112 -0.1477232 -5.960464E-08
v 0.03628889 -0.004416078 -5.960464E-08
v 0.03482802 -0.08105781 -0.0803192
v 0.03054112 -0.104456 -0.1035041
v 0.03054112 -0.1477232 -5.960464E-08
v 0.03482802 -0.1146334 -5.960464E-08
v 0.03482802 -5.960464E-08 -0.1135888
v 0.03054112 -5.960464E-08 -0.1463771
v 0.03628889 -0.004416078 -5.960464E-08
v 0.03482802 0.08105804 -0.0803192
v 0.03054112 0.1044559 -0.1035041
v 0.03054112 -5.960464E-08 -0.1463771
v 0.03482802 -5.960464E-08 -0.1135888
v 0.03482802 0.1146333 -5.960464E-08
v 0.03054112 0.147723 -5.960464E-08
v 0.03628889 -0.004416078 -5.960464E-08
vt 0.009850502 0.009850502
vt 0.2058339 0.2058339
vt 0.2869982 0.009850502
vt 0.009850502 0.2870286
vt 0.3651512 0.009850502
vt 0.261084 0.261084
vt 0.009850502 0.3650904
vt -0.1973563 0.009850502
vt -0.4745192 0.009850502
vt -0.3933398 0.2058339
vt -0.1973563 0.2870133
vt -0.1973411 0.3651512
vt -0.4485898 0.261084
vt -0.5526571 0.009850502
vt -0.9901562 0.009850502
vt -0.9901562 0.2870133
vt -0.7941728 0.2058339
vt -0.7129933 0.009850502
vt -0.6348403 0.009850502
vt -0.7389075 0.261084
vt -0.9901562 0.3651512
vt 0.8026503 0.009850502
vt 0.5254874 0.009850502
vt 0.6066669 0.2058339
vt 0.8026503 0.2870133
vt 0.5514169 0.261084
vt 0.4473495 0.009850502
vt 0.8026503 0.3651512
vt 0.3281201 0.5050482
vt 0.02479982 0.5050482
vt 0.02479982 0.4305905
vt 0.3281201 0.4305905
vt 0.6314405 0.5050482
vt 0.6314405 0.4305905
vt 0.6314405 0.9011971
vt 0.3281201 0.9011971
vt 0.02479982 0.9011971
vt 0.6314405 0.9756547
vt 0.3281201 0.9756699
vt 0.02479982 0.9756699
vt -0.6718713 0.5050482
vt -0.9751917 0.5050482
vt -0.9751917 0.4305905
vt -0.6718713 0.4305905
vt -0.368551 0.5050482
vt -0.368551 0.4305905
vt -0.368551 0.9011971
vt -0.6718713 0.9011971
vt -0.9751917 0.9011971
vt -0.368551 0.9756547
vt -0.6718713 0.9756699
vt -0.9751917 0.9756699
vt 2.328118 0.5050482
vt 2.024798 0.5050482
vt 2.024798 0.4305905
vt 2.328118 0.4305905
vt 2.631454 0.5050482
vt 2.631454 0.4305905
vt 2.631454 0.9011971
vt 2.328118 0.9011971
vt 2.024798 0.9011971
vt 2.631454 0.9756547
vt 2.328118 0.9756699
vt 2.024798 0.9756699
vt 1.328127 0.5050482
vt 1.024806 0.5050482
vt 1.024806 0.4305905
vt 1.328127 0.4305905
vt 1.631447 0.5050482
vt 1.631447 0.4305905
vt 1.328127 0.9011971
vt 1.024806 0.9011971
vt 1.631447 0.9011971
vt 1.631447 0.9756547
vt 1.328127 0.9756699
vt 1.024806 0.9756699
vt -0.00353241 0.7310214
vt -0.00353241 0.6535223
vt -0.2460214 0.75397
vt -0.191045 0.8089464
vt -0.2689853 0.9973259
vt -0.3464692 0.9973259
vt -0.00353241 0.9973259
vt 0.8089464 0.8089464
vt 0.75397 0.75397
vt 0.6535223 0.9973259
vt 0.7310214 0.9973259
vt 0.9964743 0.7310214
vt 0.9964743 0.6535223
vt 0.9964743 0.9973259
vt 1.808953 0.8089464
vt 1.753977 0.75397
vt 1.653529 0.9973259
vt 1.731013 0.9973259
vt 1.996466 0.7310214
vt 1.996466 0.6535223
vt 1.996466 0.9973259
vt 2.808944 0.8089464
vt 2.753968 0.75397
vt 2.65352 0.9973259
vt 2.731019 0.9973259
vt 2.996472 0.7310214
vt 2.996472 0.6535223
vt 2.996472 0.9973259
vn -0.9999995 0.0009775162 0
vn -0.9999193 0.01270669 0
vn -0.9999995 0.0009775162 0
vn -0.9998275 0.01856961 0
vn -0.853372 0.0009775162 0.5213016
vn -0.853372 0.3665687 0.3706531
vn -0.853372 0.5190613 -0.0482871
vn -0.9999995 0.0009775162 0
vn -0.9999995 0.0009775162 0
vn -0.9999193 -0.01270669 0
vn -0.9998275 -0.01856961 0
vn -0.853372 -0.5190613 -0.0482871
vn -0.853372 -0.3665687 0.370653
vn -0.853372 0.0009775162 0.5213016
vn -0.9999995 0.0009775162 0
vn -0.9998275 -0.01856961 0
vn -0.9999193 -0.01270669 0
vn -0.9999995 0.0009775162 0
vn -0.853372 0.0009775162 -0.5213016
vn -0.853372 -0.3665687 -0.370653
vn -0.853372 -0.5190613 -0.0482871
vn -0.9999995 0.0009775162 0
vn -0.9999995 0.0009775162 0
vn -0.9999193 0.01270669 0
vn -0.9998275 0.01856961 0
vn -0.853372 0.3665687 -0.3706531
vn -0.853372 0.0009775162 -0.5213016
vn -0.853372 0.5190613 -0.0482871
vn -0.09481907 0.7008795 -0.7069494
vn -0.09476294 0.9954998 0
vn -0.853372 0.5190613 -0.0482871
vn -0.853372 0.3665687 -0.3706531
vn -0.09481907 0.0009775162 -0.9954941
vn -0.853372 0.0009775162 -0.5213016
vn 0.09481913 0.0009775162 -0.9954941
vn 0.09481913 0.7008795 -0.7069494
vn 0.09669879 0.9953137 0
vn 0.8611922 0.0009775162 -0.5082785
vn 0.8631472 0.3567935 -0.3573168
vn 0.8629625 0.505268 0
vn -0.09481907 -0.7008795 -0.7069494
vn -0.09481907 0.0009775162 -0.9954941
vn -0.853372 0.0009775162 -0.5213016
vn -0.853372 -0.3665687 -0.370653
vn -0.09476294 -0.9954998 0
vn -0.853372 -0.5190613 -0.0482871
vn 0.09669879 -0.9953137 0
vn 0.09481913 -0.7008795 -0.7069494
vn 0.09481913 0.0009775162 -0.9954941
vn 0.8629625 -0.505268 0
vn 0.8631472 -0.3567936 -0.3573168
vn 0.8611922 0.0009775162 -0.5082785
vn -0.09481907 -0.7008795 0.7069494
vn -0.09476294 -0.9954998 0
vn -0.853372 -0.5190613 -0.0482871
vn -0.853372 -0.3665687 0.370653
vn -0.09481907 0.0009775162 0.9954941
vn -0.853372 0.0009775162 0.5213016
vn 0.09481913 0.0009775162 0.9954941
vn 0.09481913 -0.7008795 0.7069494
vn 0.09669879 -0.9953137 0
vn 0.8611922 0.0009775162 0.5082785
vn 0.8631472 -0.3567936 0.3573168
vn 0.8629625 -0.505268 0
vn -0.09481907 0.7008795 0.7069494
vn -0.09481907 0.0009775162 0.9954941
vn -0.853372 0.0009775162 0.5213016
vn -0.853372 0.3665687 0.3706531
vn -0.09476294 0.9954998 0
vn -0.853372 0.5190613 -0.0482871
vn 0.09481913 0.7008795 0.7069494
vn 0.09481913 0.0009775162 0.9954941
vn 0.09669879 0.9953137 0
vn 0.8629625 0.505268 0
vn 0.8631472 0.3567935 0.3573168
vn 0.8611922 0.0009775162 0.5082785
vn 0.9980445 0.0009775162 0.06249999
vn 0.8611922 0.0009775162 0.5082785
vn 0.8631472 0.3567935 0.3573168
vn 0.9980445 0.05180836 0.03497282
vn 0.9973128 0.07325997 0
vn 0.8629625 0.505268 0
vn 0.9999995 -0.0009775162 0
vn 0.9980445 -0.05180836 0.03497282
vn 0.8631472 -0.3567936 0.3573168
vn 0.8611922 0.0009775162 0.5082785
vn 0.9980445 0.0009775162 0.06249999
vn 0.9971683 -0.07520273 0
vn 0.8629625 -0.505268 0
vn 0.9999995 -0.0009775162 0
vn 0.9980445 -0.05180836 -0.03497282
vn 0.8631472 -0.3567936 -0.3573168
vn 0.8629625 -0.505268 0
vn 0.9971683 -0.07520273 0
vn 0.9980445 0.0009775162 -0.06249999
vn 0.8611922 0.0009775162 -0.5082785
vn 0.9999995 -0.0009775162 0
vn 0.9980445 0.05180836 -0.03497282
vn 0.8631472 0.3567935 -0.3573168
vn 0.8611922 0.0009775162 -0.5082785
vn 0.9980445 0.0009775162 -0.06249999
vn 0.9973128 0.07325997 0
vn 0.8629625 0.505268 0
vn 0.9999995 -0.0009775162 0
g TireK_Std_RF_LOD1_0
f 3/3/3 2/2/2 1/1/1
f 2/2/2 4/4/4 1/1/1
f 2/2/2 3/3/3 5/5/5
f 6/6/6 2/2/2 5/5/5
f 2/2/2 6/6/6 4/4/4
f 6/6/6 7/7/7 4/4/4
f 10/10/10 9/9/9 8/8/8
f 11/11/11 10/10/10 8/8/8
f 10/10/10 11/11/11 12/12/12
f 13/13/13 10/10/10 12/12/12
f 9/9/9 10/10/10 13/13/13
f 14/14/14 9/9/9 13/13/13
f 17/17/17 16/16/16 15/15/15
f 18/18/18 17/17/17 15/15/15
f 17/17/17 18/18/18 19/19/19
f 20/20/20 17/17/17 19/19/19
f 16/16/16 17/17/17 20/20/20
f 21/21/21 16/16/16 20/20/20
f 24/24/24 23/23/23 22/22/22
f 25/25/25 24/24/24 22/22/22
f 23/23/23 24/24/24 26/26/26
f 24/24/24 25/25/25 26/26/26
f 27/27/27 23/23/23 26/26/26
f 25/25/25 28/28/28 26/26/26
f 31/31/31 30/30/30 29/29/29
f 32/32/32 31/31/31 29/29/29
f 32/32/32 29/29/29 33/33/33
f 34/34/34 32/32/32 33/33/33
f 33/33/33 29/29/29 35/35/35
f 29/29/29 36/36/36 35/35/35
f 29/29/29 30/30/30 36/36/36
f 30/30/30 37/37/37 36/36/36
f 35/35/35 36/36/36 38/38/38
f 36/36/36 39/39/39 38/38/38
f 36/36/36 37/37/37 39/39/39
f 37/37/37 40/40/40 39/39/39
f 43/43/43 42/42/42 41/41/41
f 44/44/44 43/43/43 41/41/41
f 44/44/44 41/41/41 45/45/45
f 46/46/46 44/44/44 45/45/45
f 45/45/45 41/41/41 47/47/47
f 41/41/41 48/48/48 47/47/47
f 41/41/41 42/42/42 48/48/48
f 42/42/42 49/49/49 48/48/48
f 47/47/47 48/48/48 50/50/50
f 48/48/48 51/51/51 50/50/50
f 48/48/48 49/49/49 51/51/51
f 49/49/49 52/52/52 51/51/51
f 55/55/55 54/54/54 53/53/53
f 56/56/56 55/55/55 53/53/53
f 56/56/56 53/53/53 57/57/57
f 58/58/58 56/56/56 57/57/57
f 57/57/57 53/53/53 59/59/59
f 53/53/53 60/60/60 59/59/59
f 53/53/53 54/54/54 60/60/60
f 54/54/54 61/61/61 60/60/60
f 59/59/59 60/60/60 62/62/62
f 60/60/60 63/63/63 62/62/62
f 60/60/60 61/61/61 63/63/63
f 61/61/61 64/64/64 63/63/63
f 67/67/67 66/66/66 65/65/65
f 68/68/68 67/67/67 65/65/65
f 65/65/65 69/69/69 68/68/68
f 69/69/69 70/70/70 68/68/68
f 65/65/65 66/66/66 71/71/71
f 66/66/66 72/72/72 71/71/71
f 65/65/65 71/71/71 73/73/73
f 69/69/69 65/65/65 73/73/73
f 73/73/73 71/71/71 74/74/74
f 71/71/71 75/75/75 74/74/74
f 71/71/71 72/72/72 75/75/75
f 72/72/72 76/76/76 75/75/75
f 79/79/79 78/78/78 77/77/77
f 80/80/80 79/79/79 77/77/77
f 79/79/79 80/80/80 81/81/81
f 82/82/82 79/79/79 81/81/81
f 80/80/80 83/83/83 81/81/81
f 77/77/77 83/83/83 80/80/80
f 86/86/86 85/85/85 84/84/84
f 87/87/87 86/86/86 84/84/84
f 84/84/84 85/85/85 88/88/88
f 85/85/85 89/89/89 88/88/88
f 84/84/84 90/90/90 87/87/87
f 88/88/88 90/90/90 84/84/84
f 93/93/93 92/92/92 91/91/91
f 94/94/94 93/93/93 91/91/91
f 91/91/91 92/92/92 95/95/95
f 92/92/92 96/96/96 95/95/95
f 91/91/91 95/95/95 97/97/97
f 91/91/91 97/97/97 94/94/94
f 100/100/100 99/99/99 98/98/98
f 101/101/101 100/100/100 98/98/98
f 98/98/98 99/99/99 102/102/102
f 99/99/99 103/103/103 102/102/102
f 98/98/98 104/104/104 101/101/101
f 102/102/102 104/104/104 98/98/98
