g Tire_Front_LOD0
v -2.854399 0.853786 0.2774131
v -1.901055 0.853786 0.2774131
v -1.901055 0.7262721 0.5276654
v -2.866638 0.7262721 0.5276654
v -1.901055 0.5276654 0.7262721
v -2.866638 0.5276654 0.7262721
v -1.901055 0.2774131 0.8537803
v -2.866638 0.2774131 0.8537803
v -1.901055 -2.384186E-06 0.8977213
v -2.866638 -2.384186E-06 0.8977213
v -1.901055 -0.2774122 0.8537803
v -2.866638 -0.2774122 0.8537803
v -1.901055 -0.5276644 0.7262721
v -2.866638 -0.5276644 0.7262721
v -1.901055 -0.7262712 0.5276654
v -2.866638 -0.7262712 0.5276654
v -1.901055 -0.853785 0.2774074
v -2.866638 -0.853785 0.2774074
v -1.901055 -0.8977206 -2.384186E-06
v -2.866638 -0.8977206 -2.384186E-06
v -1.901055 -0.853785 -0.2774122
v -2.866638 -0.853785 -0.2774122
v -1.901055 -0.7262712 -0.5276701
v -2.866638 -0.7262712 -0.5276701
v -1.901055 -0.5276644 -0.7262712
v -2.866638 -0.5276644 -0.7262712
v -1.901055 -0.2774122 -0.853785
v -2.866638 -0.2774122 -0.853785
v -1.901055 -2.384186E-06 -0.8977206
v -2.866638 -2.384186E-06 -0.8977206
v -1.901055 0.2774131 -0.853785
v -2.866638 0.2774131 -0.853785
v -1.901055 0.5276654 -0.7262712
v -2.866638 0.5276654 -0.7262712
v -1.901055 0.7262721 -0.5276701
v -2.866638 0.7262721 -0.5276701
v -1.901055 0.853786 -0.2774122
v -2.866638 0.853786 -0.2774122
v -1.901055 0.8977213 -2.384186E-06
v -2.866638 0.8977213 -2.384186E-06
v -1.901055 0.853786 0.2774131
v -2.854399 0.853786 0.2774131
v -2.866638 0.7262721 0.5276654
v -3.016603 -2.384186E-06 -2.384186E-06
v -2.854399 0.853786 0.2774131
v -2.866638 0.5276654 0.7262721
v -2.866638 0.2774131 0.8537803
v -2.866638 -2.384186E-06 0.8977213
v -2.866638 -0.2774122 0.8537803
v -2.866638 -0.5276644 0.7262721
v -2.866638 -0.7262712 0.5276654
v -2.866638 -0.853785 0.2774074
v -2.866638 -0.8977206 -2.384186E-06
v -2.866638 -0.853785 -0.2774122
v -2.866638 -0.7262712 -0.5276701
v -2.866638 -0.5276644 -0.7262712
v -2.866638 -0.2774122 -0.853785
v -2.866638 -2.384186E-06 -0.8977206
v -2.866638 0.2774131 -0.853785
v -2.866638 0.5276654 -0.7262712
v -2.866638 0.7262721 -0.5276701
v -2.866638 0.853786 -0.2774122
v -2.866638 0.8977213 -2.384186E-06
v -1.901055 0.853786 0.2774131
v -1.901055 -2.384186E-06 -2.384186E-06
v -1.901055 0.7262721 0.5276654
v -1.901055 0.5276654 0.7262721
v -1.901055 0.2774131 0.8537803
v -1.901055 -2.384186E-06 0.8977213
v -1.901055 -0.2774122 0.8537803
v -1.901055 -0.5276644 0.7262721
v -1.901055 -0.7262712 0.5276654
v -1.901055 -0.853785 0.2774074
v -1.901055 -0.8977206 -2.384186E-06
v -1.901055 -0.853785 -0.2774122
v -1.901055 -0.7262712 -0.5276701
v -1.901055 -0.5276644 -0.7262712
v -1.901055 -0.2774122 -0.853785
v -1.901055 -2.384186E-06 -0.8977206
v -1.901055 0.2774131 -0.853785
v -1.901055 0.5276654 -0.7262712
v -1.901055 0.7262721 -0.5276701
v -1.901055 0.853786 -0.2774122
v -1.901055 0.8977213 -2.384186E-06
v 2.854399 0.853786 0.2774131
v 2.866637 0.7262721 0.5276654
v 1.901054 0.7262721 0.5276654
v 1.901054 0.853786 0.2774131
v 1.901054 0.5276654 0.7262721
v 2.866637 0.5276654 0.7262721
v 1.901054 0.2774131 0.853786
v 2.866637 0.2774131 0.853786
v 1.901054 -2.384186E-06 0.8977213
v 2.866637 -2.384186E-06 0.8977213
v 1.901054 -0.2774122 0.853786
v 2.866637 -0.2774122 0.853786
v 1.901054 -0.5276644 0.7262721
v 2.866637 -0.5276644 0.7262721
v 1.901054 -0.7262712 0.5276654
v 2.866637 -0.7262712 0.5276654
v 1.901054 -0.853785 0.2774131
v 2.866637 -0.853785 0.2774131
v 1.901054 -0.8977206 -2.384186E-06
v 2.866637 -0.8977206 -2.384186E-06
v 1.901054 -0.853785 -0.2774122
v 2.866637 -0.853785 -0.2774122
v 1.901054 -0.7262712 -0.5276644
v 2.866637 -0.7262712 -0.5276644
v 1.901054 -0.5276644 -0.7262712
v 2.866637 -0.5276644 -0.7262712
v 1.901054 -0.2774122 -0.853785
v 2.866637 -0.2774122 -0.853785
v 1.901054 -2.384186E-06 -0.8977206
v 2.866637 -2.384186E-06 -0.8977206
v 1.901054 0.2774131 -0.853785
v 2.866637 0.2774131 -0.853785
v 1.901054 0.5276654 -0.7262712
v 2.866637 0.5276654 -0.7262712
v 1.901054 0.7262721 -0.5276644
v 2.866637 0.7262721 -0.5276644
v 1.901054 0.853786 -0.2774122
v 2.866637 0.853786 -0.2774122
v 1.901054 0.8977213 -2.384186E-06
v 2.866637 0.8977213 -2.384186E-06
v 1.901054 0.853786 0.2774131
v 2.854399 0.853786 0.2774131
v 2.866637 0.7262721 0.5276654
v 2.854399 0.853786 0.2774131
v 3.016602 -2.384186E-06 -2.384186E-06
v 2.866637 0.5276654 0.7262721
v 2.866637 0.2774131 0.853786
v 2.866637 -2.384186E-06 0.8977213
v 2.866637 -0.2774122 0.853786
v 2.866637 -0.5276644 0.7262721
v 2.866637 -0.7262712 0.5276654
v 2.866637 -0.853785 0.2774131
v 2.866637 -0.8977206 -2.384186E-06
v 2.866637 -0.853785 -0.2774122
v 2.866637 -0.7262712 -0.5276644
v 2.866637 -0.5276644 -0.7262712
v 2.866637 -0.2774122 -0.853785
v 2.866637 -2.384186E-06 -0.8977206
v 2.866637 0.2774131 -0.853785
v 2.866637 0.5276654 -0.7262712
v 2.866637 0.7262721 -0.5276644
v 2.866637 0.853786 -0.2774122
v 2.866637 0.8977213 -2.384186E-06
v 1.901054 0.853786 0.2774131
v 1.901054 0.7262721 0.5276654
v 1.901054 -2.384186E-06 -2.384186E-06
v 1.901054 0.5276654 0.7262721
v 1.901054 0.2774131 0.853786
v 1.901054 -2.384186E-06 0.8977213
v 1.901054 -0.2774122 0.853786
v 1.901054 -0.5276644 0.7262721
v 1.901054 -0.7262712 0.5276654
v 1.901054 -0.853785 0.2774131
v 1.901054 -0.8977206 -2.384186E-06
v 1.901054 -0.853785 -0.2774122
v 1.901054 -0.7262712 -0.5276644
v 1.901054 -0.5276644 -0.7262712
v 1.901054 -0.2774122 -0.853785
v 1.901054 -2.384186E-06 -0.8977206
v 1.901054 0.2774131 -0.853785
v 1.901054 0.5276654 -0.7262712
v 1.901054 0.7262721 -0.5276644
v 1.901054 0.853786 -0.2774122
v 1.901054 0.8977213 -2.384186E-06
vt 0.2930237 0.9987148
vt 0.3114236 0.9987148
vt 0.3114236 0.9884268
vt 0.2930237 0.9884268
vt 0.3114236 0.978128
vt 0.2930237 0.978128
vt 0.3114236 0.9678401
vt 0.2930237 0.9678401
vt 0.3114236 0.9575413
vt 0.2930237 0.9575413
vt 0.3114236 0.9472533
vt 0.2930237 0.9472533
vt 0.3114236 0.9369653
vt 0.2930237 0.9369653
vt 0.3114236 0.9266666
vt 0.2930237 0.9266666
vt 0.3114236 0.9163786
vt 0.2930237 0.9163786
vt 0.3114236 0.9060798
vt 0.2930237 0.9060798
vt 0.3114236 0.8957918
vt 0.2930237 0.8957918
vt 0.3114236 0.8854931
vt 0.2930237 0.8854931
vt 0.3114236 0.8752051
vt 0.2930237 0.8752051
vt 0.3114236 0.8649172
vt 0.2930237 0.8649172
vt 0.3114236 0.8546184
vt 0.2930237 0.8546184
vt 0.3114236 0.8443304
vt 0.2930237 0.8443304
vt 0.3114236 0.8340316
vt 0.2930237 0.8340316
vt 0.3114236 0.8237436
vt 0.2930237 0.8237436
vt 0.3114236 0.8134556
vt 0.2930237 0.8134556
vt 0.3114236 0.8031569
vt 0.2930237 0.8031569
vt 0.3114236 0.7928689
vt 0.2930237 0.7928689
vt 0.3242216 0.7820531
vt 0.3125655 0.7499503
vt 0.3186952 0.7876872
vt 0.3286169 0.7732733
vt 0.3314286 0.7622097
vt 0.3323982 0.7499503
vt 0.3314286 0.7376909
vt 0.3286169 0.7266272
vt 0.3242216 0.7178475
vt 0.3186952 0.7122133
vt 0.3125655 0.7102742
vt 0.3064358 0.7122133
vt 0.3008986 0.7178475
vt 0.2965141 0.7266272
vt 0.2936917 0.7376909
vt 0.2927221 0.7499503
vt 0.2936917 0.7622097
vt 0.2965141 0.7732733
vt 0.3008986 0.7820531
vt 0.3064358 0.7876872
vt 0.3125655 0.7896264
vt 0.3260422 0.8313277
vt 0.3229828 0.8124646
vt 0.3288108 0.828516
vt 0.3310085 0.8241207
vt 0.3324197 0.8185943
vt 0.3329045 0.8124646
vt 0.3324197 0.8063349
vt 0.3310085 0.8007977
vt 0.3288108 0.7964132
vt 0.3260422 0.7935907
vt 0.3229828 0.7926211
vt 0.3199126 0.7935907
vt 0.3171547 0.7964132
vt 0.3149571 0.8007977
vt 0.3135459 0.8063349
vt 0.3130611 0.8124646
vt 0.3135459 0.8185943
vt 0.3149571 0.8241207
vt 0.3171547 0.828516
vt 0.3199126 0.8313277
vt 0.3229828 0.832308
vt 0.2930237 0.9987148
vt 0.2930237 0.9884268
vt 0.3114236 0.9884268
vt 0.3114236 0.9987148
vt 0.3114236 0.978128
vt 0.2930237 0.978128
vt 0.3114236 0.9678401
vt 0.2930237 0.9678401
vt 0.3114236 0.9575413
vt 0.2930237 0.9575413
vt 0.3114236 0.9472533
vt 0.2930237 0.9472533
vt 0.3114236 0.9369653
vt 0.2930237 0.9369653
vt 0.3114236 0.9266666
vt 0.2930237 0.9266666
vt 0.3114236 0.9163786
vt 0.2930237 0.9163786
vt 0.3114236 0.9060798
vt 0.2930237 0.9060798
vt 0.3114236 0.8957918
vt 0.2930237 0.8957918
vt 0.3114236 0.8854931
vt 0.2930237 0.8854931
vt 0.3114236 0.8752051
vt 0.2930237 0.8752051
vt 0.3114236 0.8649172
vt 0.2930237 0.8649172
vt 0.3114236 0.8546184
vt 0.2930237 0.8546184
vt 0.3114236 0.8443304
vt 0.2930237 0.8443304
vt 0.3114236 0.8340316
vt 0.2930237 0.8340316
vt 0.3114236 0.8237436
vt 0.2930237 0.8237436
vt 0.3114236 0.8134556
vt 0.2930237 0.8134556
vt 0.3114236 0.8031569
vt 0.2930237 0.8031569
vt 0.3114236 0.7928689
vt 0.2930237 0.7928689
vt 0.3008986 0.7820531
vt 0.3064358 0.7876872
vt 0.3125655 0.7499503
vt 0.2965141 0.7732733
vt 0.2936917 0.7622097
vt 0.2927221 0.7499503
vt 0.2936917 0.7376909
vt 0.2965141 0.7266272
vt 0.3008986 0.7178475
vt 0.3064358 0.7122133
vt 0.3125655 0.7102742
vt 0.3186952 0.7122133
vt 0.3242216 0.7178475
vt 0.3286169 0.7266272
vt 0.3314286 0.7376909
vt 0.3323982 0.7499503
vt 0.3314286 0.7622097
vt 0.3286169 0.7732733
vt 0.3242216 0.7820531
vt 0.3186952 0.7876872
vt 0.3125655 0.7896264
vt 0.3260422 0.8313277
vt 0.3288108 0.828516
vt 0.3229828 0.8124646
vt 0.3310085 0.8241207
vt 0.3324197 0.8185943
vt 0.3329045 0.8124646
vt 0.3324197 0.8063349
vt 0.3310085 0.8007977
vt 0.3288108 0.7964132
vt 0.3260422 0.7935907
vt 0.3229828 0.7926211
vt 0.3199126 0.7935907
vt 0.3171547 0.7964132
vt 0.3149571 0.8007977
vt 0.3135459 0.8063349
vt 0.3130611 0.8124646
vt 0.3135459 0.8185943
vt 0.3149571 0.8241207
vt 0.3171547 0.828516
vt 0.3199126 0.8313277
vt 0.3229828 0.832308
vn -0.3489734 0.8905177 0.2918832
vn 0.3880741 0.8768324 0.2838371
vn 0.3861191 0.7458452 0.5427955
vn -0.3743888 0.7536653 0.5402051
vn 0.3861191 0.5425217 0.7460444
vn -0.3646137 0.5464318 0.753969
vn 0.3861191 0.2844573 0.8774942
vn -0.3646137 0.2883674 0.8853819
vn 0.3861191 0.0009775162 0.9224485
vn -0.3646137 0.0009775162 0.9311584
vn 0.3861191 -0.2844573 0.8774942
vn -0.3646137 -0.2883674 0.8853819
vn 0.3861191 -0.5425217 0.7460444
vn -0.3646137 -0.5464318 0.753969
vn 0.3861191 -0.7458452 0.5427955
vn -0.3646137 -0.7536653 0.5468505
vn 0.3861191 -0.8768324 0.2864908
vn -0.3646137 -0.8846526 0.2905973
vn 0.3861191 -0.9217982 -0.03464389
vn -0.364473 -0.9312139 0
vn 0.3861191 -0.8768324 -0.2864908
vn -0.3646137 -0.8846526 -0.2905973
vn 0.3861191 -0.7458452 -0.5427955
vn -0.3646137 -0.7536653 -0.5468505
vn 0.3861191 -0.5425217 -0.7460444
vn -0.3646137 -0.5464318 -0.753969
vn 0.3861191 -0.2844573 -0.8774942
vn -0.3646137 -0.2883674 -0.8853819
vn 0.3861191 0.0009775162 -0.9224485
vn -0.3646137 0.0009775162 -0.9311584
vn 0.3861191 0.2844573 -0.8774942
vn -0.3646137 0.2883674 -0.8853819
vn 0.3861191 0.5425217 -0.7460444
vn -0.3646137 0.5464318 -0.753969
vn 0.3861191 0.7458452 -0.5427955
vn -0.3646137 0.7536653 -0.5468505
vn 0.3861191 0.8768324 -0.286491
vn -0.3646137 0.8846526 -0.2905971
vn 0.3861191 0.9217982 -0.03464303
vn -0.3742529 0.9273267 0
vn 0.3880741 0.8768324 0.2838371
vn -0.3489734 0.8905177 0.2918832
vn -0.3743888 0.7536653 0.5402051
vn -0.9999995 0.0009775162 0
vn -0.3489734 0.8905177 0.2918832
vn -0.3646137 0.5464318 0.753969
vn -0.3646137 0.2883674 0.8853819
vn -0.3646137 0.0009775162 0.9311584
vn -0.3646137 -0.2883674 0.8853819
vn -0.3646137 -0.5464318 0.753969
vn -0.3646137 -0.7536653 0.5468505
vn -0.3646137 -0.8846526 0.2905973
vn -0.364473 -0.9312139 0
vn -0.3646137 -0.8846526 -0.2905973
vn -0.3646137 -0.7536653 -0.5468505
vn -0.3646137 -0.5464318 -0.753969
vn -0.3646137 -0.2883674 -0.8853819
vn -0.3646137 0.0009775162 -0.9311584
vn -0.3646137 0.2883674 -0.8853819
vn -0.3646137 0.5464318 -0.753969
vn -0.3646137 0.7536653 -0.5468505
vn -0.3646137 0.8846526 -0.2905971
vn -0.3742529 0.9273267 0
vn 0.3880741 0.8768324 0.2838371
vn 0.9999995 0.0009775162 0
vn 0.3861191 0.7458452 0.5427955
vn 0.3861191 0.5425217 0.7460444
vn 0.3861191 0.2844573 0.8774942
vn 0.3861191 0.0009775162 0.9224485
vn 0.3861191 -0.2844573 0.8774942
vn 0.3861191 -0.5425217 0.7460444
vn 0.3861191 -0.7458452 0.5427955
vn 0.3861191 -0.8768324 0.2864908
vn 0.3861191 -0.9217982 -0.03464389
vn 0.3861191 -0.8768324 -0.2864908
vn 0.3861191 -0.7458452 -0.5427955
vn 0.3861191 -0.5425217 -0.7460444
vn 0.3861191 -0.2844573 -0.8774942
vn 0.3861191 0.0009775162 -0.9224485
vn 0.3861191 0.2844573 -0.8774942
vn 0.3861191 0.5425217 -0.7460444
vn 0.3861191 0.7458452 -0.5427955
vn 0.3861191 0.8768324 -0.286491
vn 0.3861191 0.9217982 -0.03464303
vn 0.3489735 0.8905177 0.2918831
vn 0.3743889 0.7536653 0.5402051
vn -0.3861191 0.7458452 0.5427955
vn -0.3880742 0.8768324 0.283837
vn -0.3861191 0.5425217 0.7460444
vn 0.3646137 0.5464318 0.753969
vn -0.3861191 0.2844573 0.8774942
vn 0.3646137 0.2883674 0.8853819
vn -0.3861191 0.0009775162 0.9224484
vn 0.3646137 0.0009775162 0.9311584
vn -0.3861191 -0.2844573 0.8774942
vn 0.3646137 -0.2883674 0.8853819
vn -0.3861191 -0.5425217 0.7460444
vn 0.3646137 -0.5464318 0.753969
vn -0.3861191 -0.7458452 0.5427955
vn 0.3646137 -0.7536653 0.5468505
vn -0.3861191 -0.8768324 0.2864907
vn 0.3646137 -0.8846526 0.2905972
vn -0.3861191 -0.9217982 -0.03464303
vn 0.364473 -0.9312139 0
vn -0.3861191 -0.8768324 -0.2864907
vn 0.3646137 -0.8846526 -0.2905972
vn -0.3861191 -0.7458452 -0.5427955
vn 0.3646137 -0.7536653 -0.5468505
vn -0.3861191 -0.5425217 -0.7460444
vn 0.3646137 -0.5464318 -0.753969
vn -0.3861191 -0.2844573 -0.8774942
vn 0.3646137 -0.2883674 -0.8853819
vn -0.3861191 0.0009775162 -0.9224484
vn 0.3646137 0.0009775162 -0.9311584
vn -0.3861191 0.2844573 -0.8774942
vn 0.3646137 0.2883674 -0.8853819
vn -0.3861191 0.5425217 -0.7460444
vn 0.3646137 0.5464318 -0.753969
vn -0.3861191 0.7458452 -0.5427955
vn 0.3646137 0.7536653 -0.5468505
vn -0.3861191 0.8768324 -0.2864909
vn 0.3646137 0.8846526 -0.290597
vn -0.3861191 0.9217982 -0.03464217
vn 0.374253 0.9273267 0
vn -0.3880742 0.8768324 0.283837
vn 0.3489735 0.8905177 0.2918831
vn 0.3743889 0.7536653 0.5402051
vn 0.3489735 0.8905177 0.2918831
vn 0.9999995 0.0009775162 0
vn 0.3646137 0.5464318 0.753969
vn 0.3646137 0.2883674 0.8853819
vn 0.3646137 0.0009775162 0.9311584
vn 0.3646137 -0.2883674 0.8853819
vn 0.3646137 -0.5464318 0.753969
vn 0.3646137 -0.7536653 0.5468505
vn 0.3646137 -0.8846526 0.2905972
vn 0.364473 -0.9312139 0
vn 0.3646137 -0.8846526 -0.2905972
vn 0.3646137 -0.7536653 -0.5468505
vn 0.3646137 -0.5464318 -0.753969
vn 0.3646137 -0.2883674 -0.8853819
vn 0.3646137 0.0009775162 -0.9311584
vn 0.3646137 0.2883674 -0.8853819
vn 0.3646137 0.5464318 -0.753969
vn 0.3646137 0.7536653 -0.5468505
vn 0.3646137 0.8846526 -0.290597
vn 0.374253 0.9273267 0
vn -0.3880742 0.8768324 0.283837
vn -0.3861191 0.7458452 0.5427955
vn -0.9999995 0.0009775162 0
vn -0.3861191 0.5425217 0.7460444
vn -0.3861191 0.2844573 0.8774942
vn -0.3861191 0.0009775162 0.9224484
vn -0.3861191 -0.2844573 0.8774942
vn -0.3861191 -0.5425217 0.7460444
vn -0.3861191 -0.7458452 0.5427955
vn -0.3861191 -0.8768324 0.2864907
vn -0.3861191 -0.9217982 -0.03464303
vn -0.3861191 -0.8768324 -0.2864907
vn -0.3861191 -0.7458452 -0.5427955
vn -0.3861191 -0.5425217 -0.7460444
vn -0.3861191 -0.2844573 -0.8774942
vn -0.3861191 0.0009775162 -0.9224484
vn -0.3861191 0.2844573 -0.8774942
vn -0.3861191 0.5425217 -0.7460444
vn -0.3861191 0.7458452 -0.5427955
vn -0.3861191 0.8768324 -0.2864909
vn -0.3861191 0.9217982 -0.03464217
g Tire_Front_LOD0_0
f 3/3/3 2/2/2 1/1/1
f 4/4/4 3/3/3 1/1/1
f 5/5/5 3/3/3 4/4/4
f 6/6/6 5/5/5 4/4/4
f 7/7/7 5/5/5 6/6/6
f 8/8/8 7/7/7 6/6/6
f 9/9/9 7/7/7 8/8/8
f 10/10/10 9/9/9 8/8/8
f 11/11/11 9/9/9 10/10/10
f 12/12/12 11/11/11 10/10/10
f 13/13/13 11/11/11 12/12/12
f 14/14/14 13/13/13 12/12/12
f 15/15/15 13/13/13 14/14/14
f 16/16/16 15/15/15 14/14/14
f 17/17/17 15/15/15 16/16/16
f 18/18/18 17/17/17 16/16/16
f 19/19/19 17/17/17 18/18/18
f 20/20/20 19/19/19 18/18/18
f 21/21/21 19/19/19 20/20/20
f 22/22/22 21/21/21 20/20/20
f 23/23/23 21/21/21 22/22/22
f 24/24/24 23/23/23 22/22/22
f 25/25/25 23/23/23 24/24/24
f 26/26/26 25/25/25 24/24/24
f 27/27/27 25/25/25 26/26/26
f 28/28/28 27/27/27 26/26/26
f 29/29/29 27/27/27 28/28/28
f 30/30/30 29/29/29 28/28/28
f 31/31/31 29/29/29 30/30/30
f 32/32/32 31/31/31 30/30/30
f 33/33/33 31/31/31 32/32/32
f 34/34/34 33/33/33 32/32/32
f 35/35/35 33/33/33 34/34/34
f 36/36/36 35/35/35 34/34/34
f 37/37/37 35/35/35 36/36/36
f 38/38/38 37/37/37 36/36/36
f 39/39/39 37/37/37 38/38/38
f 40/40/40 39/39/39 38/38/38
f 41/41/41 39/39/39 40/40/40
f 42/42/42 41/41/41 40/40/40
f 45/45/45 44/44/44 43/43/43
f 43/43/43 44/44/44 46/46/46
f 46/46/46 44/44/44 47/47/47
f 47/47/47 44/44/44 48/48/48
f 48/48/48 44/44/44 49/49/49
f 49/49/49 44/44/44 50/50/50
f 50/50/50 44/44/44 51/51/51
f 51/51/51 44/44/44 52/52/52
f 52/52/52 44/44/44 53/53/53
f 53/53/53 44/44/44 54/54/54
f 54/54/54 44/44/44 55/55/55
f 55/55/55 44/44/44 56/56/56
f 56/56/56 44/44/44 57/57/57
f 57/57/57 44/44/44 58/58/58
f 58/58/58 44/44/44 59/59/59
f 59/59/59 44/44/44 60/60/60
f 60/60/60 44/44/44 61/61/61
f 61/61/61 44/44/44 62/62/62
f 62/62/62 44/44/44 63/63/63
f 63/63/63 44/44/44 45/45/45
f 66/66/66 65/65/65 64/64/64
f 67/67/67 65/65/65 66/66/66
f 68/68/68 65/65/65 67/67/67
f 69/69/69 65/65/65 68/68/68
f 70/70/70 65/65/65 69/69/69
f 71/71/71 65/65/65 70/70/70
f 72/72/72 65/65/65 71/71/71
f 73/73/73 65/65/65 72/72/72
f 74/74/74 65/65/65 73/73/73
f 75/75/75 65/65/65 74/74/74
f 76/76/76 65/65/65 75/75/75
f 77/77/77 65/65/65 76/76/76
f 78/78/78 65/65/65 77/77/77
f 79/79/79 65/65/65 78/78/78
f 80/80/80 65/65/65 79/79/79
f 81/81/81 65/65/65 80/80/80
f 82/82/82 65/65/65 81/81/81
f 83/83/83 65/65/65 82/82/82
f 84/84/84 65/65/65 83/83/83
f 64/64/64 65/65/65 84/84/84
f 87/87/87 86/86/86 85/85/85
f 88/88/88 87/87/87 85/85/85
f 87/87/87 89/89/89 86/86/86
f 89/89/89 90/90/90 86/86/86
f 89/89/89 91/91/91 90/90/90
f 91/91/91 92/92/92 90/90/90
f 91/91/91 93/93/93 92/92/92
f 93/93/93 94/94/94 92/92/92
f 93/93/93 95/95/95 94/94/94
f 95/95/95 96/96/96 94/94/94
f 95/95/95 97/97/97 96/96/96
f 97/97/97 98/98/98 96/96/96
f 97/97/97 99/99/99 98/98/98
f 99/99/99 100/100/100 98/98/98
f 99/99/99 101/101/101 100/100/100
f 101/101/101 102/102/102 100/100/100
f 101/101/101 103/103/103 102/102/102
f 103/103/103 104/104/104 102/102/102
f 103/103/103 105/105/105 104/104/104
f 105/105/105 106/106/106 104/104/104
f 105/105/105 107/107/107 106/106/106
f 107/107/107 108/108/108 106/106/106
f 107/107/107 109/109/109 108/108/108
f 109/109/109 110/110/110 108/108/108
f 109/109/109 111/111/111 110/110/110
f 111/111/111 112/112/112 110/110/110
f 111/111/111 113/113/113 112/112/112
f 113/113/113 114/114/114 112/112/112
f 113/113/113 115/115/115 114/114/114
f 115/115/115 116/116/116 114/114/114
f 115/115/115 117/117/117 116/116/116
f 117/117/117 118/118/118 116/116/116
f 117/117/117 119/119/119 118/118/118
f 119/119/119 120/120/120 118/118/118
f 119/119/119 121/121/121 120/120/120
f 121/121/121 122/122/122 120/120/120
f 121/121/121 123/123/123 122/122/122
f 123/123/123 124/124/124 122/122/122
f 123/123/123 125/125/125 124/124/124
f 125/125/125 126/126/126 124/124/124
f 129/129/129 128/128/128 127/127/127
f 129/129/129 127/127/127 130/130/130
f 129/129/129 130/130/130 131/131/131
f 129/129/129 131/131/131 132/132/132
f 129/129/129 132/132/132 133/133/133
f 129/129/129 133/133/133 134/134/134
f 129/129/129 134/134/134 135/135/135
f 129/129/129 135/135/135 136/136/136
f 129/129/129 136/136/136 137/137/137
f 129/129/129 137/137/137 138/138/138
f 129/129/129 138/138/138 139/139/139
f 129/129/129 139/139/139 140/140/140
f 129/129/129 140/140/140 141/141/141
f 129/129/129 141/141/141 142/142/142
f 129/129/129 142/142/142 143/143/143
f 129/129/129 143/143/143 144/144/144
f 129/129/129 144/144/144 145/145/145
f 129/129/129 145/145/145 146/146/146
f 129/129/129 146/146/146 147/147/147
f 129/129/129 147/147/147 128/128/128
f 150/150/150 149/149/149 148/148/148
f 150/150/150 151/151/151 149/149/149
f 150/150/150 152/152/152 151/151/151
f 150/150/150 153/153/153 152/152/152
f 150/150/150 154/154/154 153/153/153
f 150/150/150 155/155/155 154/154/154
f 150/150/150 156/156/156 155/155/155
f 150/150/150 157/157/157 156/156/156
f 150/150/150 158/158/158 157/157/157
f 150/150/150 159/159/159 158/158/158
f 150/150/150 160/160/160 159/159/159
f 150/150/150 161/161/161 160/160/160
f 150/150/150 162/162/162 161/161/161
f 150/150/150 163/163/163 162/162/162
f 150/150/150 164/164/164 163/163/163
f 150/150/150 165/165/165 164/164/164
f 150/150/150 166/166/166 165/165/165
f 150/150/150 167/167/167 166/166/166
f 150/150/150 168/168/168 167/167/167
f 150/150/150 148/148/148 168/168/168
