g TireK_Small_RF_LOD1
v -0.1396037 1.043081E-07 -5.710125E-05
v -0.1512387 0.08090375 -0.001137555
v -0.1512387 0.05720757 0.05719461
v -0.1512387 1.043081E-07 0.0808908
v -0.1512387 -0.05720762 0.05719461
v -0.1512387 -0.08090355 -1.311302E-05
v -0.1512387 -0.05720762 -0.05722057
v -0.1512387 1.043081E-07 -0.08091676
v -0.1512387 0.05720757 -0.05722057
v -0.1368378 1.043081E-07 -0.103801
v -0.1512387 1.043081E-07 -0.08091676
v -0.1368378 -0.07339834 -0.07339834
v -0.1512387 -0.05720762 -0.05722057
v -0.1368378 -0.103801 1.043081E-07
v -0.1512387 -0.08090355 -1.311302E-05
v -0.06860366 1.043081E-07 -0.1271242
v -0.06860366 -0.08989047 -0.08989047
v -0.06860366 -0.1271242 1.043081E-07
v -0.0003697872 -0.07331549 -0.07331549
v -0.0003697872 -0.1036836 1.043081E-07
v -0.0003697872 1.043081E-07 -0.1036836
v -0.1368378 -0.103801 1.043081E-07
v -0.1512387 -0.08090355 -1.311302E-05
v -0.1368378 -0.07339834 0.07339855
v -0.1512387 -0.05720762 0.05719461
v -0.1368378 1.043081E-07 0.1038009
v -0.1512387 1.043081E-07 0.0808908
v -0.06860366 -0.1271242 1.043081E-07
v -0.06860366 -0.08989047 0.08989041
v -0.06860366 1.043081E-07 0.1271242
v -0.0003697872 -0.07331549 0.07331544
v -0.0003697872 1.043081E-07 0.1036838
v -0.0003697872 -0.1036836 1.043081E-07
v -0.1368378 1.043081E-07 0.1038009
v -0.1512387 1.043081E-07 0.0808908
v -0.1368378 0.07339855 0.07339828
v -0.1512387 0.05720757 0.05719461
v -0.1368378 0.1038009 -0.001162112
v -0.1512387 0.08090375 -0.001137555
v -0.06860366 1.043081E-07 0.1271242
v -0.06860366 0.08989041 0.08989041
v -0.06860366 0.1271242 -0.0005957186
v -0.0003697872 0.1036838 1.043081E-07
v -0.0003697872 0.07331544 0.07331544
v -0.0003697872 1.043081E-07 0.1036838
v -0.1368378 0.1038009 -0.001162112
v -0.1512387 0.08090375 -0.001137555
v -0.1368378 0.07339828 -0.07339834
v -0.1512387 0.05720757 -0.05722057
v -0.1368378 1.043081E-07 -0.103801
v -0.1512387 1.043081E-07 -0.08091676
v -0.06860366 0.08989041 -0.08989047
v -0.06860366 1.043081E-07 -0.1271242
v -0.06860366 0.1271242 -0.0005957186
v -0.0003697872 0.07331544 -0.07331549
v -0.0003697872 1.043081E-07 -0.1036836
v -0.0003697872 0.1036838 1.043081E-07
v 0.004371658 1.043081E-07 0.08294702
v 0.004371658 0.05865231 0.05865231
v -0.01991658 1.043081E-07 1.043081E-07
v 0.004371658 0.08294702 1.043081E-07
v -0.0003697872 1.043081E-07 0.1036838
v -0.0003697872 0.07331544 0.07331544
v -0.0003697872 0.1036838 1.043081E-07
v 0.004371658 -0.05865237 0.05865231
v 0.004371658 1.043081E-07 0.08294702
v -0.01991658 1.043081E-07 1.043081E-07
v 0.004371658 -0.08294708 1.043081E-07
v -0.0003697872 -0.1036836 1.043081E-07
v -0.0003697872 -0.07331549 0.07331544
v -0.0003697872 1.043081E-07 0.1036838
v 0.004371658 -0.05865237 -0.05865237
v 0.004371658 -0.08294708 1.043081E-07
v -0.01991658 1.043081E-07 1.043081E-07
v 0.004371658 1.043081E-07 -0.08294708
v -0.0003697872 1.043081E-07 -0.1036836
v -0.0003697872 -0.07331549 -0.07331549
v -0.0003697872 -0.1036836 1.043081E-07
v 0.004371658 0.05865231 -0.05865237
v 0.004371658 1.043081E-07 -0.08294708
v -0.01991658 1.043081E-07 1.043081E-07
v 0.004371658 0.08294702 1.043081E-07
v -0.0003697872 0.1036838 1.043081E-07
v -0.0003697872 0.07331544 -0.07331549
v -0.0003697872 1.043081E-07 -0.1036836
v -0.1410493 0.05748901 0.03319134
v -0.1410493 0.03319134 0.05748901
v -0.1558287 0.04811648 0.02778013
v -0.1558287 0.02778013 0.04811648
v -0.1410493 1.043081E-07 0.06638257
v -0.1558287 1.043081E-07 0.05555989
v -0.1410493 -0.0331914 0.05748901
v -0.1558287 -0.02777992 0.04811648
v -0.1410493 -0.05748907 0.03319134
v -0.1558287 -0.04811627 0.02778013
v -0.1410493 -0.06638263 1.043081E-07
v -0.1558287 -0.05555995 1.043081E-07
v -0.1410493 -0.05748907 -0.0331914
v -0.1558287 -0.04811627 -0.02777992
v -0.1410493 -0.0331914 -0.05748907
v -0.1558287 -0.02777992 -0.04811627
v -0.1410493 1.043081E-07 -0.06638263
v -0.1558287 1.043081E-07 -0.05555995
v -0.1410493 0.03319134 -0.05748907
v -0.1558287 0.02778013 -0.04811627
v -0.1410493 0.05748901 -0.0331914
v -0.1558287 0.04811648 -0.02777992
v -0.1410493 0.06638257 1.043081E-07
v -0.1558287 0.05555989 1.043081E-07
v 0.01096128 1.043081E-07 0.0805802
v -0.01102895 1.043081E-07 0.08279403
v 0.01096128 0.05697873 0.05697873
v -0.01102895 0.05854438 0.05854411
v 0.01096128 0.0805802 1.043081E-07
v -0.01102895 0.08279403 1.043081E-07
v 0.02073669 0.04218636 0.04218636
v 0.02073669 1.043081E-07 0.05966046
v 0.01096128 0.05697873 0.05697873
v 0.01096128 1.043081E-07 0.0805802
v 0.02073669 -0.04218642 0.04218636
v 0.01096128 -0.05697879 0.05697873
v 0.02394515 1.043081E-07 1.043081E-07
v 0.02073669 -0.05966052 1.043081E-07
v 0.02073669 -0.04218642 -0.04218642
v 0.02073669 1.043081E-07 -0.05966052
v 0.02073669 0.04218636 -0.04218642
v 0.02073669 0.05966073 1.043081E-07
v 0.01096128 -0.08058026 1.043081E-07
v 0.01096128 -0.05697879 -0.05697879
v 0.01096128 1.043081E-07 -0.08058026
v 0.01096128 0.05697873 -0.05697879
v 0.01096128 0.0805802 1.043081E-07
v 0.01096128 1.043081E-07 0.0805802
v 0.01096128 -0.05697879 0.05697873
v -0.01102895 1.043081E-07 0.08279403
v -0.01102895 -0.05854417 0.05854438
v 0.01096128 -0.08058026 1.043081E-07
v -0.01102895 -0.08279408 1.043081E-07
v 0.01096128 -0.05697879 -0.05697879
v -0.01102895 -0.05854417 -0.05854417
v 0.01096128 -0.08058026 1.043081E-07
v -0.01102895 -0.08279408 1.043081E-07
v -0.01102895 1.043081E-07 -0.08279408
v 0.01096128 1.043081E-07 -0.08058026
v 0.01096128 0.05697873 -0.05697879
v -0.01102895 0.05854411 -0.05854417
v 0.01096128 1.043081E-07 -0.08058026
v -0.01102895 1.043081E-07 -0.08279408
v -0.01102895 0.08279403 1.043081E-07
v 0.01096128 0.0805802 1.043081E-07
vt 0.7493486 0.2672337
vt 0.7525084 0.508397
vt 0.578655 0.4378214
vt 0.508019 0.2672488
vt 0.578655 0.09670642
vt 0.7491974 0.02605531
vt 0.9197398 0.0966913
vt 0.9903909 0.2672488
vt 0.9197398 0.4377912
vt 0.02263841 0.5727888
vt 0.02263841 0.4872757
vt 0.2460217 0.5727888
vt 0.2460217 0.4872757
vt 0.4693899 0.5727888
vt 0.4693899 0.4872757
vt 0.02263841 0.7729947
vt 0.2460217 0.7729947
vt 0.4693899 0.7729947
vt 0.2460217 0.9741984
vt 0.4693899 0.9741984
vt 0.02263841 0.9741984
vt 3.019649 0.5714432
vt 3.019634 0.4882282
vt 3.243017 0.5714432
vt 3.243017 0.4882282
vt 3.466385 0.5714432
vt 3.466385 0.4882282
vt 3.019634 0.7725713
vt 3.243017 0.7725713
vt 3.466385 0.7725713
vt 3.243017 0.9728528
vt 3.466385 0.9728528
vt 3.019649 0.9728528
vt 2.021553 0.5711862
vt 2.021553 0.4882282
vt 2.245208 0.5711862
vt 2.245208 0.4882282
vt 2.468878 0.5711862
vt 2.468878 0.4882282
vt 2.021553 0.7725713
vt 2.245208 0.7725713
vt 2.468878 0.7725713
vt 2.468878 0.9731098
vt 2.245208 0.9731098
vt 2.021553 0.9731098
vt 1.019722 0.5714432
vt 1.019722 0.4879409
vt 1.242757 0.5714432
vt 1.242757 0.4879409
vt 1.465793 0.5714432
vt 1.465793 0.4879409
vt 1.242757 0.7722841
vt 1.465793 0.7722841
vt 1.019722 0.7722841
vt 1.242757 0.9722481
vt 1.465793 0.9722481
vt 1.019722 0.9722481
vt 0.6932722 0.972112
vt 0.7775153 0.7687463
vt 0.980881 0.972112
vt 0.980881 0.6845031
vt 0.6213813 0.972112
vt 0.72667 0.7179011
vt 0.980881 0.6126122
vt 1.783201 0.7647095
vt 1.986567 0.6804815
vt 1.986567 0.9680752
vt 1.698973 0.9680752
vt 1.627067 0.9680752
vt 1.732371 0.7138643
vt 1.986567 0.6085755
vt 2.77844 0.7647095
vt 2.981806 0.6804815
vt 2.981806 0.9680752
vt 2.694212 0.9680752
vt 2.622306 0.9680752
vt 2.72761 0.7138643
vt 2.981806 0.6085755
vt 3.780755 0.7647095
vt 3.98412 0.6804664
vt 3.98412 0.9680752
vt 3.696527 0.9680752
vt 3.62462 0.9680752
vt 3.729909 0.7138643
vt 3.98412 0.6085755
vt 0.5454234 0.742031
vt 0.4965436 0.6931361
vt 0.5563091 0.7231624
vt 0.5153971 0.6822504
vt 0.4786428 0.6263555
vt 0.5004141 0.6263555
vt 0.4965436 0.5595899
vt 0.5153971 0.5704756
vt 0.5454234 0.510695
vt 0.5563091 0.5295635
vt 0.6122041 0.4928093
vt 0.6122041 0.5145806
vt 0.6789847 0.510695
vt 0.6680839 0.5295635
vt 0.7278644 0.5595899
vt 0.7090111 0.5704756
vt 0.7457502 0.6263555
vt 0.7239789 0.6263555
vt 0.7278644 0.6931361
vt 0.7090111 0.6822504
vt 0.6789847 0.742031
vt 0.6680839 0.7231624
vt 0.6122041 0.7599167
vt 0.6122041 0.7381454
vt 0.02489115 0.0414767
vt 0.09120311 0.0414767
vt 0.02489115 0.1846083
vt 0.09120311 0.1846083
vt 0.02489115 0.3277248
vt 0.09120311 0.3277248
vt 0.4051795 0.3130594
vt 0.4467719 0.2126238
vt 0.4403917 0.3482716
vt 0.4965739 0.2126238
vt 0.4051795 0.1121883
vt 0.4403917 0.076961
vt 0.3047439 0.2126238
vt 0.3047439 0.07058078
vt 0.2043084 0.1121883
vt 0.1627009 0.2126238
vt 0.2043084 0.3130594
vt 0.3047439 0.3546518
vt 0.3047439 0.02077878
vt 0.1690962 0.076961
vt 0.1128989 0.2126238
vt 0.1690962 0.3482716
vt 0.3047439 0.4044538
vt 1.025618 0.3266514
vt 1.025618 0.1835349
vt 1.091915 0.3266514
vt 1.091915 0.1835349
vt 1.025618 0.04040325
vt 1.091915 0.04040325
vt 2.024455 0.1835198
vt 2.090752 0.1835198
vt 2.024455 0.3266514
vt 2.090752 0.3266514
vt 2.090752 0.04040325
vt 2.024455 0.04040325
vt 3.02671 0.1830964
vt 3.093021 0.1830964
vt 3.02671 0.3262129
vt 3.093021 0.3262129
vt 3.093021 0.0399648
vt 3.02671 0.0399648
vn -0.9999995 -0.0009775162 0
vn -0.9932238 0.1162179 0
vn -0.9941344 0.08895397 0.06151379
vn -0.9941344 0.008797646 0.1077931
vn -0.9941344 -0.07526881 0.07766185
vn -0.9932238 -0.1162179 0
vn -0.9941344 -0.08895403 -0.06151371
vn -0.9941344 -0.008797646 -0.1077931
vn -0.9941344 0.07331371 -0.07951009
vn -0.438905 0.01661777 -0.8983798
vn -0.9941344 -0.008797646 -0.1077931
vn -0.438905 -0.6226781 -0.647792
vn -0.9941344 -0.08895403 -0.06151371
vn -0.438905 -0.8983378 -0.0187528
vn -0.9932238 -0.1162179 0
vn 0.0009775162 -0.0009775162 -0.999999
vn 0.0009775162 -0.7067446 -0.7074682
vn 0.0009775162 -0.9999995 0
vn 0.4525902 -0.6461385 -0.6145463
vn 0.4522861 -0.8918729 0
vn 0.4525902 -0.02052784 -0.8914823
vn -0.438905 -0.8983378 -0.0187528
vn -0.9932238 -0.1162179 0
vn -0.438905 -0.6480935 0.6223642
vn -0.9941344 -0.07526881 0.07766185
vn -0.438905 -0.01661777 0.8983798
vn -0.9941344 0.008797646 0.1077931
vn 0.0009775162 -0.9999995 0
vn 0.0009775162 -0.7067446 0.7074682
vn 0.0009775162 0.0009775162 0.999999
vn 0.4525902 -0.614858 0.6458419
vn 0.4525902 0.02052784 0.8914823
vn 0.4522861 -0.8918729 0
vn -0.438905 -0.01661777 0.8983798
vn -0.9941344 0.008797646 0.1077931
vn -0.4330399 0.6422285 0.6324705
vn -0.9941344 0.08895397 0.06151379
vn -0.438905 0.8983378 -0.01874962
vn -0.9932238 0.1162179 0
vn 0.0009775162 0.0009775162 0.999999
vn -0.01661777 0.7086996 0.7053146
vn 0.0009775162 0.9999995 0
vn 0.4506352 0.8924727 0.020502
vn 0.4584553 0.6265881 0.6302428
vn 0.4525902 0.02052784 0.8914823
vn -0.438905 0.8983378 -0.01874962
vn -0.9932238 0.1162179 0
vn -0.4447701 0.6265881 -0.6399742
vn -0.9941344 0.07331371 -0.07951009
vn -0.438905 0.01661777 -0.8983798
vn -0.9941344 -0.008797646 -0.1077931
vn 0.01857281 0.7047895 -0.7091733
vn 0.0009775162 -0.0009775162 -0.999999
vn 0.0009775162 0.9999995 0
vn 0.4447701 0.6324533 -0.6341785
vn 0.4525902 -0.02052784 -0.8914823
vn 0.4506352 0.8924727 0.020502
vn 0.9921794 -0.002932549 -0.1247856
vn 0.9921794 -0.0928641 -0.08340454
vn 0.9999995 0.0009775162 0
vn 0.991524 -0.1299238 0
vn 0.4525902 0.02052784 0.8914823
vn 0.4584553 0.6265881 0.6302428
vn 0.4506352 0.8924727 0.020502
vn 0.9921794 0.08895397 -0.08756283
vn 0.9921794 -0.002932549 -0.1247856
vn 0.9999995 0.0009775162 0
vn 0.991524 0.1299239 0
vn 0.4522861 -0.8918729 0
vn 0.4525902 -0.614858 0.6458419
vn 0.4525902 0.02052784 0.8914823
vn 0.9921794 0.09286404 0.08340461
vn 0.991524 0.1299239 0
vn 0.9999995 0.0009775162 0
vn 0.9921794 0.002932549 0.1247856
vn 0.4525902 -0.02052784 -0.8914823
vn 0.4525902 -0.6461385 -0.6145463
vn 0.4522861 -0.8918729 0
vn 0.9921794 -0.08895403 0.08756277
vn 0.9921794 0.002932549 0.1247856
vn 0.9999995 0.0009775162 0
vn 0.991524 -0.1299238 0
vn 0.4506352 0.8924727 0.020502
vn 0.4447701 0.6324533 -0.6341785
vn 0.4525902 -0.02052784 -0.8914823
vn -0.5913975 0.6930593 0.4122108
vn -0.5913975 0.3939393 0.7036056
vn -0.9648089 0.2238513 0.1379648
vn -0.9843593 0.08895397 0.1520659
vn -0.5913975 -0.01270771 0.8062801
vn -0.9863143 -0.002932549 0.16485
vn -0.5913975 -0.4134895 0.6922972
vn -0.9824042 -0.09872919 0.1585386
vn -0.5913975 -0.7047895 0.3918172
vn -0.9315734 -0.3176929 0.1767547
vn -0.5913637 -0.8064051 0
vn -0.8220915 -0.5679371 -0.0401628
vn -0.5913975 -0.6930593 -0.4122108
vn -0.9648089 -0.2238513 -0.1379648
vn -0.5913975 -0.3939392 -0.7036057
vn -0.9804492 -0.09481913 -0.1724201
vn -0.5913975 0.01270771 -0.8062801
vn -0.9843593 0.002932549 -0.1761484
vn -0.5913975 0.4134896 -0.6922972
vn -0.9784942 0.1065493 -0.1766252
vn -0.5913975 0.7047895 -0.3918172
vn -0.9315734 0.3176929 -0.1767548
vn -0.5913637 0.8064051 0
vn -0.8220915 0.5679371 0.0401628
vn 0.501466 0.008797646 0.8651326
vn 0.1006842 0.0009775162 0.9949179
vn 0.4740956 0.620723 0.6244488
vn 0.1006842 0.7008795 0.7061378
vn 0.497556 0.8670572 0.02549254
vn 0.1006842 0.9941344 0.0394897
vn 0.9804492 0.14174 0.1364886
vn 0.9765391 0.008797646 0.2151603
vn 0.4740956 0.620723 0.6244488
vn 0.501466 0.008797646 0.8651326
vn 0.9765391 -0.1436949 0.1603842
vn 0.497556 -0.6050828 0.6215407
vn 0.9999995 0.0009775162 0
vn 0.9745841 -0.2238513 -0.008739757
vn 0.9765391 -0.1436949 -0.1603842
vn 0.9765391 0.008797646 -0.2151603
vn 0.9765391 0.1573802 -0.1469789
vn 0.9765391 0.2121211 0.03709401
vn 0.5171063 -0.8553271 -0.03188536
vn 0.497556 -0.6050828 -0.6215407
vn 0.497556 0.01075268 -0.8673652
vn 0.497556 0.620723 -0.6059216
vn 0.497556 0.8670572 0.02549254
vn 0.501466 0.008797646 0.8651326
vn 0.497556 -0.6050828 0.6215407
vn 0.1006842 0.0009775162 0.9949179
vn 0.1006842 -0.7008795 0.7061378
vn 0.5171063 -0.8553271 -0.03188536
vn 0.1006842 -0.9941344 -0.0394897
vn 0.497556 -0.6050828 -0.6215407
vn 0.1006842 -0.7008795 -0.7061378
vn 0.5171063 -0.8553271 -0.03188536
vn 0.1006842 -0.9941344 -0.0394897
vn 0.1006842 0.004887581 -0.9949064
vn 0.497556 0.01075268 -0.8673652
vn 0.497556 0.620723 -0.6059216
vn 0.1006842 0.7067446 -0.7002677
vn 0.497556 0.01075268 -0.8673652
vn 0.1006842 0.004887581 -0.9949064
vn 0.1006842 0.9941344 0.0394897
vn 0.497556 0.8670572 0.02549254
g TireK_Small_RF_LOD1_0
f 3/3/3 2/2/2 1/1/1
f 1/1/1 4/4/4 3/3/3
f 1/1/1 5/5/5 4/4/4
f 1/1/1 6/6/6 5/5/5
f 1/1/1 7/7/7 6/6/6
f 1/1/1 8/8/8 7/7/7
f 1/1/1 9/9/9 8/8/8
f 1/1/1 2/2/2 9/9/9
f 12/12/12 11/11/11 10/10/10
f 12/12/12 13/13/13 11/11/11
f 14/14/14 13/13/13 12/12/12
f 14/14/14 15/15/15 13/13/13
f 12/12/12 10/10/10 16/16/16
f 12/12/12 16/16/16 17/17/17
f 14/14/14 12/12/12 17/17/17
f 14/14/14 17/17/17 18/18/18
f 18/18/18 17/17/17 19/19/19
f 18/18/18 19/19/19 20/20/20
f 17/17/17 21/21/21 19/19/19
f 17/17/17 16/16/16 21/21/21
f 24/24/24 23/23/23 22/22/22
f 24/24/24 25/25/25 23/23/23
f 26/26/26 25/25/25 24/24/24
f 26/26/26 27/27/27 25/25/25
f 24/24/24 22/22/22 28/28/28
f 24/24/24 28/28/28 29/29/29
f 26/26/26 24/24/24 29/29/29
f 26/26/26 29/29/29 30/30/30
f 30/30/30 29/29/29 31/31/31
f 30/30/30 31/31/31 32/32/32
f 29/29/29 33/33/33 31/31/31
f 29/29/29 28/28/28 33/33/33
f 36/36/36 35/35/35 34/34/34
f 36/36/36 37/37/37 35/35/35
f 38/38/38 37/37/37 36/36/36
f 38/38/38 39/39/39 37/37/37
f 36/36/36 34/34/34 40/40/40
f 36/36/36 40/40/40 41/41/41
f 36/36/36 42/42/42 38/38/38
f 36/36/36 41/41/41 42/42/42
f 41/41/41 43/43/43 42/42/42
f 41/41/41 44/44/44 43/43/43
f 41/41/41 45/45/45 44/44/44
f 41/41/41 40/40/40 45/45/45
f 48/48/48 47/47/47 46/46/46
f 48/48/48 49/49/49 47/47/47
f 50/50/50 49/49/49 48/48/48
f 50/50/50 51/51/51 49/49/49
f 50/50/50 48/48/48 52/52/52
f 46/46/46 52/52/52 48/48/48
f 50/50/50 52/52/52 53/53/53
f 46/46/46 54/54/54 52/52/52
f 53/53/53 52/52/52 55/55/55
f 54/54/54 55/55/55 52/52/52
f 53/53/53 55/55/55 56/56/56
f 54/54/54 57/57/57 55/55/55
f 60/60/60 59/59/59 58/58/58
f 60/60/60 61/61/61 59/59/59
f 62/62/62 58/58/58 59/59/59
f 62/62/62 59/59/59 63/63/63
f 63/63/63 59/59/59 61/61/61
f 63/63/63 61/61/61 64/64/64
f 67/67/67 66/66/66 65/65/65
f 67/67/67 65/65/65 68/68/68
f 69/69/69 68/68/68 65/65/65
f 69/69/69 65/65/65 70/70/70
f 70/70/70 65/65/65 66/66/66
f 70/70/70 66/66/66 71/71/71
f 74/74/74 73/73/73 72/72/72
f 74/74/74 72/72/72 75/75/75
f 76/76/76 75/75/75 72/72/72
f 76/76/76 72/72/72 77/77/77
f 77/77/77 72/72/72 73/73/73
f 77/77/77 73/73/73 78/78/78
f 81/81/81 80/80/80 79/79/79
f 81/81/81 79/79/79 82/82/82
f 83/83/83 82/82/82 79/79/79
f 83/83/83 79/79/79 84/84/84
f 84/84/84 79/79/79 80/80/80
f 84/84/84 80/80/80 85/85/85
f 88/88/88 87/87/87 86/86/86
f 88/88/88 89/89/89 87/87/87
f 89/89/89 90/90/90 87/87/87
f 89/89/89 91/91/91 90/90/90
f 91/91/91 92/92/92 90/90/90
f 91/91/91 93/93/93 92/92/92
f 93/93/93 94/94/94 92/92/92
f 93/93/93 95/95/95 94/94/94
f 95/95/95 96/96/96 94/94/94
f 95/95/95 97/97/97 96/96/96
f 97/97/97 98/98/98 96/96/96
f 97/97/97 99/99/99 98/98/98
f 99/99/99 95/95/95 93/93/93
f 97/97/97 95/95/95 99/99/99
f 99/99/99 100/100/100 98/98/98
f 99/99/99 101/101/101 100/100/100
f 99/99/99 93/93/93 101/101/101
f 101/101/101 102/102/102 100/100/100
f 101/101/101 103/103/103 102/102/102
f 103/103/103 93/93/93 91/91/91
f 103/103/103 101/101/101 93/93/93
f 89/89/89 103/103/103 91/91/91
f 103/103/103 104/104/104 102/102/102
f 103/103/103 105/105/105 104/104/104
f 105/105/105 106/106/106 104/104/104
f 105/105/105 107/107/107 106/106/106
f 107/107/107 108/108/108 106/106/106
f 107/107/107 109/109/109 108/108/108
f 109/109/109 86/86/86 108/108/108
f 109/109/109 88/88/88 86/86/86
f 109/109/109 107/107/107 88/88/88
f 88/88/88 107/107/107 105/105/105
f 88/88/88 105/105/105 89/89/89
f 89/89/89 105/105/105 103/103/103
f 112/112/112 111/111/111 110/110/110
f 112/112/112 113/113/113 111/111/111
f 114/114/114 113/113/113 112/112/112
f 114/114/114 115/115/115 113/113/113
f 118/118/118 117/117/117 116/116/116
f 118/118/118 119/119/119 117/117/117
f 119/119/119 120/120/120 117/117/117
f 119/119/119 121/121/121 120/120/120
f 116/116/116 117/117/117 122/122/122
f 117/117/117 120/120/120 122/122/122
f 120/120/120 123/123/123 122/122/122
f 121/121/121 123/123/123 120/120/120
f 123/123/123 124/124/124 122/122/122
f 124/124/124 125/125/125 122/122/122
f 125/125/125 126/126/126 122/122/122
f 126/126/126 127/127/127 122/122/122
f 127/127/127 116/116/116 122/122/122
f 127/127/127 118/118/118 116/116/116
f 121/121/121 128/128/128 123/123/123
f 123/123/123 129/129/129 124/124/124
f 123/123/123 128/128/128 129/129/129
f 124/124/124 130/130/130 125/125/125
f 124/124/124 129/129/129 130/130/130
f 125/125/125 131/131/131 126/126/126
f 125/125/125 130/130/130 131/131/131
f 126/126/126 132/132/132 127/127/127
f 126/126/126 131/131/131 132/132/132
f 127/127/127 132/132/132 118/118/118
f 135/135/135 134/134/134 133/133/133
f 135/135/135 136/136/136 134/134/134
f 136/136/136 137/137/137 134/134/134
f 136/136/136 138/138/138 137/137/137
f 141/141/141 140/140/140 139/139/139
f 141/141/141 142/142/142 140/140/140
f 139/139/139 140/140/140 143/143/143
f 139/139/139 143/143/143 144/144/144
f 147/147/147 146/146/146 145/145/145
f 147/147/147 148/148/148 146/146/146
f 145/145/145 146/146/146 149/149/149
f 145/145/145 149/149/149 150/150/150
