g TireK_SKinoko_RF_LOD2
v -0.1935984 0.1086331 -1.937151E-07
v 0.009268224 0.1621533 -1.937151E-07
v -0.1935984 1.639128E-07 0.1086331
v 0.009268224 1.639128E-07 0.1621533
v -0.2081212 1.639128E-07 1.639128E-07
v -0.1935984 0.1086331 -1.937151E-07
v -0.1935984 1.639128E-07 0.1086331
v 0.04686968 1.639128E-07 0.07800296
v 0.04686968 0.07800296 1.639128E-07
v 0.04686968 1.639128E-07 1.639128E-07
v 0.009268224 0.1621533 -1.937151E-07
v 0.009268224 1.639128E-07 0.1621533
v -0.1935984 1.639128E-07 0.1086331
v 0.009268224 1.639128E-07 0.1621533
v -0.1935984 -0.1086331 1.639128E-07
v 0.009268224 -0.1621533 1.639128E-07
v -0.2081212 1.639128E-07 1.639128E-07
v -0.1935984 1.639128E-07 0.1086331
v -0.1935984 -0.1086331 1.639128E-07
v 0.04686968 -0.078003 1.639128E-07
v 0.04686968 1.639128E-07 0.07800296
v 0.04686968 1.639128E-07 1.639128E-07
v 0.009268224 1.639128E-07 0.1621533
v 0.009268224 -0.1621533 1.639128E-07
v -0.1935984 -0.1086331 1.639128E-07
v 0.009268224 -0.1621533 1.639128E-07
v -0.1935984 -1.937151E-07 -0.1086331
v 0.009268224 -1.937151E-07 -0.1621533
v -0.2081212 1.639128E-07 1.639128E-07
v -0.1935984 -0.1086331 1.639128E-07
v -0.1935984 -1.937151E-07 -0.1086331
v 0.04686968 1.639128E-07 -0.078003
v 0.04686968 -0.078003 1.639128E-07
v 0.04686968 1.639128E-07 1.639128E-07
v 0.009268224 -0.1621533 1.639128E-07
v 0.009268224 -1.937151E-07 -0.1621533
v -0.1935984 -1.937151E-07 -0.1086331
v 0.009268224 -1.937151E-07 -0.1621533
v -0.1935984 0.1086331 -1.937151E-07
v 0.009268224 0.1621533 -1.937151E-07
v -0.2081212 1.639128E-07 1.639128E-07
v -0.1935984 -1.937151E-07 -0.1086331
v -0.1935984 0.1086331 -1.937151E-07
v 0.04686968 0.07800296 1.639128E-07
v 0.04686968 1.639128E-07 -0.078003
v 0.04686968 1.639128E-07 1.639128E-07
v 0.009268224 -1.937151E-07 -0.1621533
v 0.009268224 0.1621533 -1.937151E-07
vt 0.6888269 0.02745914
vt 0.8228528 0.4844193
vt 0.3227331 0.02608443
vt 0.2025298 0.5147383
vt 0.01999647 0.980007
vt 0.01990583 0.5458125
vt 0.4541003 0.980007
vt 0.7668979 0.980007
vt 0.980007 0.7668979
vt 0.980007 0.980007
vt 0.980007 0.5370054
vt 0.5370054 0.980007
vt 1.688825 0.02745914
vt 1.822851 0.4844193
vt 1.322731 0.02608443
vt 1.202528 0.5147383
vt 1.019994 0.980007
vt 1.019904 0.5458125
vt 1.454098 0.980007
vt 1.766896 0.980007
vt 1.980005 0.7668979
vt 1.980005 0.980007
vt 1.980005 0.5370054
vt 1.537003 0.980007
vt 2.688838 0.02745914
vt 2.822848 0.4844193
vt 2.322729 0.02608443
vt 2.202525 0.5147383
vt 2.020007 0.980007
vt 2.019901 0.5458125
vt 2.454096 0.980007
vt 2.766893 0.980007
vt 2.980002 0.7668979
vt 2.980002 0.980007
vt 2.980002 0.5370054
vt 2.537001 0.980007
vt 3.688835 0.02745914
vt 3.822846 0.4844193
vt 3.322726 0.02608443
vt 3.202523 0.5147383
vt 3.020005 0.980007
vt 3.019899 0.5458125
vt 3.454093 0.980007
vt 3.766906 0.980007
vt 3.98 0.7668979
vt 3.98 0.980007
vt 3.98 0.5370054
vt 3.537014 0.980007
vn -0.4193547 0.9022479 -0.1004507
vn -0.02248287 0.9960895 -0.08544154
vn -0.4193547 0.1006842 0.9022219
vn -0.02248287 0.08113384 0.9964496
vn -0.9999995 0.0009775162 0
vn -0.4193547 0.9022479 -0.1004507
vn -0.4193547 0.1006842 0.9022219
vn 0.9335284 0.1045942 0.3429063
vn 0.9335284 0.3411533 -0.1101776
vn 0.9999995 0.0009775162 0
vn -0.02248287 0.9960895 -0.08544154
vn -0.02248287 0.08113384 0.9964496
vn -0.4193547 0.1006842 0.9022219
vn -0.02248287 0.08113384 0.9964496
vn -0.4193547 -0.9022478 0.1004513
vn -0.02248287 -0.9960895 0.08544154
vn -0.9999995 0.0009775162 0
vn -0.4193547 0.1006842 0.9022219
vn -0.4193547 -0.9022478 0.1004513
vn 0.9335284 -0.3411533 0.1101775
vn 0.9335284 0.1045942 0.3429063
vn 0.9999995 0.0009775162 0
vn -0.02248287 0.08113384 0.9964496
vn -0.02248287 -0.9960895 0.08544154
vn -0.4193547 -0.9022478 0.1004513
vn -0.02248287 -0.9960895 0.08544154
vn -0.4193547 -0.1006842 -0.9022219
vn -0.02248287 -0.0811339 -0.9964496
vn -0.9999995 0.0009775162 0
vn -0.4193547 -0.9022478 0.1004513
vn -0.4193547 -0.1006842 -0.9022219
vn 0.9335284 -0.1045943 -0.3429063
vn 0.9335284 -0.3411533 0.1101775
vn 0.9999995 0.0009775162 0
vn -0.02248287 -0.9960895 0.08544154
vn -0.02248287 -0.0811339 -0.9964496
vn -0.4193547 -0.1006842 -0.9022219
vn -0.02248287 -0.0811339 -0.9964496
vn -0.4193547 0.9022479 -0.1004507
vn -0.02248287 0.9960895 -0.08544154
vn -0.9999995 0.0009775162 0
vn -0.4193547 -0.1006842 -0.9022219
vn -0.4193547 0.9022479 -0.1004507
vn 0.9335284 0.3411533 -0.1101776
vn 0.9335284 -0.1045943 -0.3429063
vn 0.9999995 0.0009775162 0
vn -0.02248287 -0.0811339 -0.9964496
vn -0.02248287 0.9960895 -0.08544154
g TireK_SKinoko_RF_LOD2_0
f 3/3/3 2/2/2 1/1/1
f 3/3/3 4/4/4 2/2/2
f 7/7/7 6/6/6 5/5/5
f 10/10/10 9/9/9 8/8/8
f 8/8/8 9/9/9 11/11/11
f 8/8/8 11/11/11 12/12/12
f 15/15/15 14/14/14 13/13/13
f 15/15/15 16/16/16 14/14/14
f 19/19/19 18/18/18 17/17/17
f 22/22/22 21/21/21 20/20/20
f 20/20/20 21/21/21 23/23/23
f 20/20/20 23/23/23 24/24/24
f 27/27/27 26/26/26 25/25/25
f 27/27/27 28/28/28 26/26/26
f 31/31/31 30/30/30 29/29/29
f 34/34/34 33/33/33 32/32/32
f 32/32/32 33/33/33 35/35/35
f 32/32/32 35/35/35 36/36/36
f 39/39/39 38/38/38 37/37/37
f 39/39/39 40/40/40 38/38/38
f 43/43/43 42/42/42 41/41/41
f 46/46/46 45/45/45 44/44/44
f 44/44/44 45/45/45 47/47/47
f 44/44/44 47/47/47 48/48/48
