g TireK_Wood8_RF_LOD2
v -0.1407861 0.1621432 -0.1621432
v -0.1407861 2.235174E-07 -0.2321638
v 0.0007857829 0.1620901 -0.1620901
v 0.0007857829 2.235174E-07 -0.2320872
v 0.0007857829 0.2320872 2.235174E-07
v -0.1407861 0.2321638 2.235174E-07
v -0.1407861 0.1621432 0.1621432
v -0.1407861 0.2321638 2.235174E-07
v 0.0007857829 0.1620901 0.1620901
v 0.0007857829 0.2320872 2.235174E-07
v 0.0007857829 2.235174E-07 0.2320872
v -0.1407861 2.235174E-07 0.2321638
v -0.1407861 -0.1621432 0.1621432
v -0.1407861 2.235174E-07 0.2321638
v 0.0007857829 -0.1620901 0.1620901
v 0.0007857829 2.235174E-07 0.2320872
v 0.0007857829 -0.2320872 2.235174E-07
v -0.1407861 -0.2321638 2.235174E-07
v -0.1407861 -0.1621437 -0.1621437
v -0.1407861 -0.2321638 2.235174E-07
v 0.0007857829 -0.1620901 -0.1620901
v 0.0007857829 -0.2320872 2.235174E-07
v 0.0007857829 2.235174E-07 -0.2320872
v -0.1407861 2.235174E-07 -0.2321638
v 0.0007857829 2.235174E-07 -0.2320872
v 0.0007857829 2.235174E-07 -0.1821878
v 0.0007857829 0.1620901 -0.1620901
v 0.0007857829 0.1272403 -0.1272403
v 0.0007857829 0.1821878 2.235174E-07
v 0.0007857829 0.2320872 2.235174E-07
v 0.0007857829 0.2320872 2.235174E-07
v 0.0007857829 0.1821878 2.235174E-07
v 0.0007857829 0.1620901 0.1620901
v 0.0007857829 0.1272403 0.1272403
v 0.0007857829 2.235174E-07 0.1821878
v 0.0007857829 2.235174E-07 0.2320872
v 0.0007857829 2.235174E-07 0.2320872
v 0.0007857829 2.235174E-07 0.1821878
v 0.0007857829 -0.1620901 0.1620901
v 0.0007857829 -0.1272403 0.1272403
v 0.0007857829 -0.1821878 2.235174E-07
v 0.0007857829 -0.2320872 2.235174E-07
v 0.0007857829 -0.2320872 2.235174E-07
v 0.0007857829 -0.1821878 2.235174E-07
v 0.0007857829 -0.1620901 -0.1620901
v 0.0007857829 -0.1272403 -0.1272403
v 0.0007857829 2.235174E-07 -0.1821878
v 0.0007857829 2.235174E-07 -0.2320872
v -0.1407857 0.1272403 -0.1272403
v -0.1407857 2.235174E-07 -0.1821878
v -0.1407861 0.1621432 -0.1621432
v -0.1407861 2.235174E-07 -0.2321638
v -0.1407857 0.1821878 2.235174E-07
v -0.1407861 0.2321638 2.235174E-07
v -0.1407857 0.1272403 0.1272403
v -0.1407857 0.1821878 2.235174E-07
v -0.1407861 0.1621432 0.1621432
v -0.1407861 0.2321638 2.235174E-07
v -0.1407857 2.235174E-07 0.1821878
v -0.1407861 2.235174E-07 0.2321638
v -0.1407857 -0.1272403 0.1272403
v -0.1407857 2.235174E-07 0.1821878
v -0.1407861 -0.1621432 0.1621432
v -0.1407861 2.235174E-07 0.2321638
v -0.1407857 -0.1821878 2.235174E-07
v -0.1407861 -0.2321638 2.235174E-07
v -0.1407857 -0.1272403 -0.1272403
v -0.1407857 -0.1821878 2.235174E-07
v -0.1407861 -0.1621437 -0.1621437
v -0.1407861 -0.2321638 2.235174E-07
v -0.1407857 2.235174E-07 -0.1821878
v -0.1407861 2.235174E-07 -0.2321638
v -0.1407857 -0.1272403 0.1272403
v 0.0007857829 -0.1272403 0.1272403
v -0.1407857 2.235174E-07 0.1821878
v 0.0007857829 2.235174E-07 0.1821878
v 0.0007857829 -0.1821878 2.235174E-07
v -0.1407857 -0.1821878 2.235174E-07
v -0.1407857 2.235174E-07 0.1821878
v 0.0007857829 2.235174E-07 0.1821878
v -0.1407857 0.1272403 0.1272403
v 0.0007857829 0.1272403 0.1272403
v -0.1407857 0.1821878 2.235174E-07
v 0.0007857829 0.1821878 2.235174E-07
v -0.1407857 0.1821878 2.235174E-07
v 0.0007857829 0.1821878 2.235174E-07
v -0.1407857 0.1272403 -0.1272403
v 0.0007857829 0.1272403 -0.1272403
v -0.1407857 2.235174E-07 -0.1821878
v 0.0007857829 2.235174E-07 -0.1821878
v -0.1407857 2.235174E-07 -0.1821878
v 0.0007857829 2.235174E-07 -0.1821878
v -0.1407857 -0.1272403 -0.1272403
v 0.0007857829 -0.1272403 -0.1272403
v -0.1407857 -0.1821878 2.235174E-07
v 0.0007857829 -0.1821878 2.235174E-07
v -0.1433478 -0.05158007 -0.0297797
v 0.003347918 -0.05158007 -0.0297797
v -0.1433478 2.235174E-07 -0.05955964
v 0.003347918 2.235174E-07 -0.05955964
v -0.1433478 0.05158006 -0.0297797
v 0.003347918 0.05158006 -0.0297797
v -0.1433478 0.05158006 0.02977972
v 0.003347918 0.05158006 0.02977972
v -0.1433478 2.235174E-07 0.05955966
v 0.003347918 2.235174E-07 0.05955966
v -0.1433478 -0.05158007 0.02977972
v 0.003347918 -0.05158007 0.02977972
v -0.1433478 -0.05158007 -0.0297797
v 0.003347918 -0.05158007 -0.0297797
v 0.003347918 -0.05158007 -0.0297797
v 0.00720796 2.235174E-07 2.235174E-07
v 0.003347918 2.235174E-07 -0.05955964
v 0.003347918 0.05158006 -0.0297797
v 0.003347918 0.05158006 0.02977972
v 0.003347918 2.235174E-07 0.05955966
v 0.003347918 -0.05158007 0.02977972
v -0.1472079 2.235174E-07 2.235174E-07
v -0.1433478 -0.05158007 -0.0297797
v -0.1433478 2.235174E-07 -0.05955964
v -0.1433478 0.05158006 -0.0297797
v -0.1433478 0.05158006 0.02977972
v -0.1433478 2.235174E-07 0.05955966
v -0.1433478 -0.05158007 0.02977972
vt 1.347541 0.6666684
vt 1.676421 0.6666684
vt 1.347541 0.8035346
vt 1.676421 0.8035346
vt 1.018662 0.8035346
vt 1.018662 0.6666684
vt 2.347253 0.6662438
vt 2.676133 0.6662438
vt 2.347253 0.8030949
vt 2.676133 0.8030949
vt 2.018374 0.8030949
vt 2.018374 0.6662438
vt 0.3472533 0.6651821
vt 0.6761326 0.6664561
vt 0.3472533 0.8020332
vt 0.6761326 0.8033223
vt 0.01837397 0.8020332
vt 0.01837397 0.6651821
vt -0.6528984 0.6651821
vt -0.3240191 0.6651821
vt -0.6528984 0.8020332
vt -0.3240191 0.8020332
vt -0.9817777 0.8037167
vt -0.9817777 0.6668504
vt 1.429215 0.5267688
vt 1.429822 0.4179615
vt 1.783484 0.3779814
vt 1.707907 0.3015857
vt 1.829258 0.02480471
vt 1.93805 0.02541137
vt 2.430853 0.5282248
vt 2.431445 0.4194326
vt 2.785107 0.3775568
vt 2.709545 0.3011459
vt 2.830881 0.02438009
vt 2.939688 0.02498674
vt 0.4286238 0.5300145
vt 0.4292153 0.4212223
vt 0.7828773 0.3793465
vt 0.7073158 0.3029507
vt 0.8286511 0.02616978
vt 0.9374434 0.02677643
vt -0.5713307 0.5271631
vt -0.5707393 0.418371
vt -0.2170772 0.3764951
vt -0.2926387 0.3000842
vt -0.1713035 0.02331841
vt -0.06251121 0.02392507
vt 1.282127 0.298431
vt 1.401278 0.02424359
vt 1.357567 0.3738712
vt 1.508644 0.02436495
vt 1.007939 0.4175823
vt 1.00806 0.5249488
vt 2.286662 0.2976575
vt 2.405813 0.02347004
vt 2.362102 0.3730825
vt 2.513179 0.0235914
vt 2.012474 0.4168087
vt 2.012595 0.5241601
vt 0.2876625 0.2968233
vt 0.4068137 0.02263582
vt 0.3630875 0.3722636
vt 0.5141652 0.02275717
vt 0.01347506 0.4159746
vt 0.01359642 0.5233412
vt -0.7132931 0.295064
vt -0.5945209 0.02208984
vt -0.6379438 0.370216
vt -0.4878217 0.02249932
vt -0.9873136 0.4131384
vt -0.9871923 0.5204746
vt 0.9901636 0.6659101
vt 0.8312294 0.6659101
vt 0.9901636 0.3473898
vt 0.8312294 0.3473898
vt 0.8312294 0.9844153
vt 0.9901636 0.9844153
vt 2.988586 0.9860381
vt 2.829652 0.9860381
vt 2.988586 0.6675329
vt 2.829652 0.6675329
vt 2.988586 0.3490126
vt 2.829652 0.3490126
vt 1.988844 0.9856286
vt 1.82991 0.9856286
vt 1.988844 0.6671083
vt 1.82991 0.6671083
vt 1.988844 0.3486031
vt 1.82991 0.3486031
vt -0.009578645 0.9859926
vt -0.1685127 0.9859926
vt -0.009578645 0.6674875
vt -0.1685127 0.6674875
vt -0.009578645 0.3489672
vt -0.1685127 0.3489672
vt 0.01640224 0.9828986
vt 0.01640224 0.8369777
vt 0.1495374 0.9829289
vt 0.1495374 0.8369473
vt 0.2826878 0.9828986
vt 0.2826878 0.8369777
vt 0.4158077 0.982944
vt 0.4158077 0.8369473
vt 0.5489277 0.9828986
vt 0.5489277 0.8369777
vt 0.6820629 0.9829289
vt 0.6820629 0.8369473
vt 0.8152132 0.9828986
vt 0.8152132 0.8369777
vt 0.7573059 0.0988344
vt 0.6465875 0.162763
vt 0.6465875 0.03492105
vt 0.535869 0.0988344
vt 0.535869 0.2266763
vt 0.6465875 0.2906048
vt 0.7573059 0.2266763
vt 0.1690875 0.1625961
vt 0.2797909 0.2265095
vt 0.1690875 0.2904381
vt 0.05836916 0.2265095
vt 0.05836916 0.09866762
vt 0.1690875 0.03475428
vt 0.2797909 0.09866762
vn -0.2160312 0.6911043 -0.689714
vn -0.2531768 -0.0009775162 -0.9674196
vn 0.2160312 0.6911043 -0.689714
vn 0.2531768 -0.0009775162 -0.9674196
vn 0.2531768 0.966764 -0.03562195
vn -0.2531768 0.966764 -0.03562195
vn -0.2160312 0.6911043 0.689714
vn -0.2531768 0.966764 -0.03562195
vn 0.2160312 0.6911043 0.689714
vn 0.2531768 0.966764 -0.03562195
vn 0.2531768 0.0009775162 0.9674196
vn -0.2531768 0.0009775162 0.9674196
vn -0.2160312 -0.6911043 0.689714
vn -0.2531768 0.0009775162 0.9674196
vn 0.2160312 -0.6911043 0.689714
vn 0.2531768 0.0009775162 0.9674196
vn 0.2531768 -0.966764 0.03562195
vn -0.2531768 -0.966764 0.03562195
vn -0.2160312 -0.6911043 -0.689714
vn -0.2531768 -0.966764 0.03562195
vn 0.2160312 -0.6911043 -0.689714
vn 0.2531768 -0.966764 0.03562195
vn 0.2531768 -0.0009775162 -0.9674196
vn -0.2531768 -0.0009775162 -0.9674196
vn 0.2531768 -0.0009775162 -0.9674196
vn 0.9999995 0.0009775162 0
vn 0.2160312 0.6911043 -0.689714
vn 0.9999995 0.0009775162 0
vn 0.9999995 0.0009775162 0
vn 0.2531768 0.966764 -0.03562195
vn 0.2531768 0.966764 -0.03562195
vn 0.9999995 0.0009775162 0
vn 0.2160312 0.6911043 0.689714
vn 0.9999995 0.0009775162 0
vn 0.9999995 0.0009775162 0
vn 0.2531768 0.0009775162 0.9674196
vn 0.2531768 0.0009775162 0.9674196
vn 0.9999995 0.0009775162 0
vn 0.2160312 -0.6911043 0.689714
vn 0.9999995 0.0009775162 0
vn 0.9999995 0.0009775162 0
vn 0.2531768 -0.966764 0.03562195
vn 0.2531768 -0.966764 0.03562195
vn 0.9999995 0.0009775162 0
vn 0.2160312 -0.6911043 -0.689714
vn 0.9999995 0.0009775162 0
vn 0.9999995 0.0009775162 0
vn 0.2531768 -0.0009775162 -0.9674196
vn -0.9999995 0.0009775162 0
vn -0.9999995 0.0009775162 0
vn -0.2160312 0.6911043 -0.689714
vn -0.2531768 -0.0009775162 -0.9674196
vn -0.9999995 -0.0009775162 0
vn -0.2531768 0.966764 -0.03562195
vn -0.9999995 0.0009775162 0
vn -0.9999995 -0.0009775162 0
vn -0.2160312 0.6911043 0.689714
vn -0.2531768 0.966764 -0.03562195
vn -0.9999995 0.0009775162 0
vn -0.2531768 0.0009775162 0.9674196
vn -0.9999995 0.0009775162 0
vn -0.9999995 0.0009775162 0
vn -0.2160312 -0.6911043 0.689714
vn -0.2531768 0.0009775162 0.9674196
vn -0.9999995 0.0009775162 0
vn -0.2531768 -0.966764 0.03562195
vn -0.9999995 0.0009775162 0
vn -0.9999995 0.0009775162 0
vn -0.2160312 -0.6911043 -0.689714
vn -0.2531768 -0.966764 0.03562195
vn -0.9999995 0.0009775162 0
vn -0.2531768 -0.0009775162 -0.9674196
vn -0.0009775162 0.7067446 -0.7074682
vn -0.0009775162 0.7067446 -0.7074682
vn -0.0009775162 0.0009775162 -0.999999
vn -0.0009775162 0.0009775162 -0.999999
vn -0.0009775162 0.9999995 0
vn -0.0009775162 0.9999995 0
vn -0.0009775162 0.0009775162 -0.999999
vn -0.0009775162 0.0009775162 -0.999999
vn -0.0009775162 -0.7067446 -0.7074682
vn -0.0009775162 -0.7067446 -0.7074682
vn -0.0009775162 -0.9999995 0
vn -0.0009775162 -0.9999995 0
vn -0.0009775162 -0.9999995 0
vn -0.0009775162 -0.9999995 0
vn -0.0009775162 -0.7067446 0.7074682
vn -0.0009775162 -0.7067446 0.7074682
vn -0.0009775162 0.0009775162 0.999999
vn -0.0009775162 0.0009775162 0.999999
vn -0.0009775162 0.0009775162 0.999999
vn -0.0009775162 0.0009775162 0.999999
vn -0.0009775162 0.7067446 0.7074682
vn -0.0009775162 0.7067446 0.7074682
vn -0.0009775162 0.9999995 0
vn -0.0009775162 0.9999995 0
vn -0.0009775162 -0.8651022 -0.5015946
vn -0.0009775162 -0.8651022 -0.5015946
vn -0.0009775162 0.0009775162 -0.999999
vn -0.0009775162 0.0009775162 -0.999999
vn -0.0009775162 0.8651022 -0.5015947
vn -0.0009775162 0.8651022 -0.5015947
vn -0.0009775162 0.8651022 0.5015947
vn -0.0009775162 0.8651022 0.5015947
vn -0.0009775162 0.0009775162 0.999999
vn -0.0009775162 0.0009775162 0.999999
vn -0.0009775162 -0.8651022 0.5015946
vn -0.0009775162 -0.8651022 0.5015946
vn -0.0009775162 -0.8651022 -0.5015946
vn -0.0009775162 -0.8651022 -0.5015946
vn 0.9980445 -0.05571842 -0.02833127
vn 0.9999995 0.0009775162 0
vn 0.9980445 0.0009775162 -0.06249999
vn 0.9980445 0.05571842 -0.02833127
vn 0.9980445 0.05571842 0.02833127
vn 0.9980445 0.0009775162 0.06249999
vn 0.9980445 -0.05571842 0.02833127
vn -0.9999995 0.0009775162 0
vn -0.9980445 -0.05571842 -0.02833127
vn -0.9980445 0.0009775162 -0.06249999
vn -0.9980445 0.05571842 -0.02833127
vn -0.9980445 0.05571842 0.02833127
vn -0.9980445 0.0009775162 0.06249999
vn -0.9980445 -0.05571842 0.02833127
g TireK_Wood8_RF_LOD2_0
f 3/3/3 2/2/2 1/1/1
f 4/4/4 2/2/2 3/3/3
f 3/3/3 1/1/1 5/5/5
f 5/5/5 1/1/1 6/6/6
f 9/9/9 8/8/8 7/7/7
f 10/10/10 8/8/8 9/9/9
f 9/9/9 7/7/7 11/11/11
f 11/11/11 7/7/7 12/12/12
f 15/15/15 14/14/14 13/13/13
f 16/16/16 14/14/14 15/15/15
f 15/15/15 13/13/13 17/17/17
f 17/17/17 13/13/13 18/18/18
f 21/21/21 20/20/20 19/19/19
f 22/22/22 20/20/20 21/21/21
f 21/21/21 19/19/19 23/23/23
f 23/23/23 19/19/19 24/24/24
f 27/27/27 26/26/26 25/25/25
f 28/28/28 26/26/26 27/27/27
f 27/27/27 29/29/29 28/28/28
f 30/30/30 29/29/29 27/27/27
f 33/33/33 32/32/32 31/31/31
f 34/34/34 32/32/32 33/33/33
f 33/33/33 35/35/35 34/34/34
f 36/36/36 35/35/35 33/33/33
f 39/39/39 38/38/38 37/37/37
f 40/40/40 38/38/38 39/39/39
f 39/39/39 41/41/41 40/40/40
f 42/42/42 41/41/41 39/39/39
f 45/45/45 44/44/44 43/43/43
f 46/46/46 44/44/44 45/45/45
f 45/45/45 47/47/47 46/46/46
f 48/48/48 47/47/47 45/45/45
f 51/51/51 50/50/50 49/49/49
f 52/52/52 50/50/50 51/51/51
f 53/53/53 51/51/51 49/49/49
f 54/54/54 51/51/51 53/53/53
f 57/57/57 56/56/56 55/55/55
f 58/58/58 56/56/56 57/57/57
f 59/59/59 57/57/57 55/55/55
f 60/60/60 57/57/57 59/59/59
f 63/63/63 62/62/62 61/61/61
f 64/64/64 62/62/62 63/63/63
f 65/65/65 63/63/63 61/61/61
f 66/66/66 63/63/63 65/65/65
f 69/69/69 68/68/68 67/67/67
f 70/70/70 68/68/68 69/69/69
f 71/71/71 69/69/69 67/67/67
f 72/72/72 69/69/69 71/71/71
f 75/75/75 74/74/74 73/73/73
f 76/76/76 74/74/74 75/75/75
f 74/74/74 77/77/77 73/73/73
f 73/73/73 77/77/77 78/78/78
f 81/81/81 80/80/80 79/79/79
f 82/82/82 80/80/80 81/81/81
f 83/83/83 82/82/82 81/81/81
f 84/84/84 82/82/82 83/83/83
f 87/87/87 86/86/86 85/85/85
f 88/88/88 86/86/86 87/87/87
f 89/89/89 88/88/88 87/87/87
f 90/90/90 88/88/88 89/89/89
f 93/93/93 92/92/92 91/91/91
f 94/94/94 92/92/92 93/93/93
f 95/95/95 94/94/94 93/93/93
f 96/96/96 94/94/94 95/95/95
f 99/99/99 98/98/98 97/97/97
f 100/100/100 98/98/98 99/99/99
f 101/101/101 100/100/100 99/99/99
f 102/102/102 100/100/100 101/101/101
f 103/103/103 102/102/102 101/101/101
f 104/104/104 102/102/102 103/103/103
f 105/105/105 104/104/104 103/103/103
f 106/106/106 104/104/104 105/105/105
f 107/107/107 106/106/106 105/105/105
f 108/108/108 106/106/106 107/107/107
f 109/109/109 108/108/108 107/107/107
f 110/110/110 108/108/108 109/109/109
f 113/113/113 112/112/112 111/111/111
f 114/114/114 112/112/112 113/113/113
f 115/115/115 112/112/112 114/114/114
f 116/116/116 112/112/112 115/115/115
f 117/117/117 112/112/112 116/116/116
f 112/112/112 117/117/117 111/111/111
f 120/120/120 119/119/119 118/118/118
f 121/121/121 120/120/120 118/118/118
f 122/122/122 121/121/121 118/118/118
f 123/123/123 122/122/122 118/118/118
f 124/124/124 123/123/123 118/118/118
f 119/119/119 124/124/124 118/118/118
