g TireK_SKinoko_RF_LOD1
v -0.1598919 0.1080872 0.1080872
v -0.1598919 0.1528584 -1.937151E-07
v 0.009268224 0.1146598 0.1146598
v 0.009268224 0.1621533 -1.937151E-07
v 0.009268224 1.639128E-07 0.1621533
v -0.1598919 1.639128E-07 0.1528584
v -0.1935984 0.07681507 0.07681507
v -0.1935984 0.1086331 -1.937151E-07
v -0.1935984 1.639128E-07 0.1086331
v -0.1935984 0.07681507 0.07681507
v -0.2081212 1.639128E-07 1.639128E-07
v -0.1935984 0.1086331 -1.937151E-07
v -0.1935984 0.07681507 0.07681507
v -0.1935984 1.639128E-07 0.1086331
v 0.04686968 0.05515635 0.05515635
v 0.04686968 0.07800296 1.639128E-07
v 0.04686968 1.639128E-07 1.639128E-07
v 0.04686968 1.639128E-07 0.07800296
v 0.01920789 0.06128478 0.06128478
v 0.01920789 1.639128E-07 0.08666998
v 0.009268224 0.1146598 0.1146598
v 0.009268224 1.639128E-07 0.1621533
v 0.009268224 0.1621533 -1.937151E-07
v 0.01920789 0.08666998 1.639128E-07
v -0.1598919 -0.1080872 0.1080872
v -0.1598919 1.639128E-07 0.1528584
v 0.009268224 -0.1146595 0.1146598
v 0.009268224 1.639128E-07 0.1621533
v 0.009268224 -0.1621533 1.639128E-07
v -0.1598919 -0.1528584 1.639128E-07
v -0.1935984 -0.0768151 0.07681507
v -0.1935984 1.639128E-07 0.1086331
v -0.1935984 -0.1086331 1.639128E-07
v -0.1935984 -0.0768151 0.07681507
v -0.2081212 1.639128E-07 1.639128E-07
v -0.1935984 1.639128E-07 0.1086331
v -0.1935984 -0.0768151 0.07681507
v -0.1935984 -0.1086331 1.639128E-07
v 0.04686968 -0.05515638 0.05515635
v 0.04686968 1.639128E-07 0.07800296
v 0.04686968 1.639128E-07 1.639128E-07
v 0.04686968 -0.078003 1.639128E-07
v 0.01920789 -0.06128481 0.06128478
v 0.01920789 -0.08667002 1.639128E-07
v 0.009268224 -0.1146595 0.1146598
v 0.009268224 -0.1621533 1.639128E-07
v 0.009268224 1.639128E-07 0.1621533
v 0.01920789 1.639128E-07 0.08666998
v -0.1598919 -0.1080872 -0.1080872
v -0.1598919 -0.1528584 1.639128E-07
v 0.009268224 -0.1146599 -0.1146595
v 0.009268224 -0.1621533 1.639128E-07
v 0.009268224 -1.937151E-07 -0.1621533
v -0.1598919 -1.937151E-07 -0.1528584
v -0.1935984 -0.0768151 -0.0768151
v -0.1935984 -0.1086331 1.639128E-07
v -0.1935984 -1.937151E-07 -0.1086331
v -0.1935984 -0.0768151 -0.0768151
v -0.2081212 1.639128E-07 1.639128E-07
v -0.1935984 -0.1086331 1.639128E-07
v -0.1935984 -0.0768151 -0.0768151
v -0.1935984 -1.937151E-07 -0.1086331
v 0.04686968 -0.05515638 -0.05515638
v 0.04686968 -0.078003 1.639128E-07
v 0.04686968 1.639128E-07 1.639128E-07
v 0.04686968 1.639128E-07 -0.078003
v 0.01920789 -0.06128481 -0.06128481
v 0.01920789 1.639128E-07 -0.08667002
v 0.009268224 -0.1146599 -0.1146595
v 0.009268224 -1.937151E-07 -0.1621533
v 0.009268224 -0.1621533 1.639128E-07
v 0.01920789 -0.08667002 1.639128E-07
v -0.1598919 0.1080872 -0.1080872
v -0.1598919 -1.937151E-07 -0.1528584
v 0.009268224 0.1146598 -0.1146599
v 0.009268224 -1.937151E-07 -0.1621533
v 0.009268224 0.1621533 -1.937151E-07
v -0.1598919 0.1528584 -1.937151E-07
v -0.1935984 0.07681507 -0.0768151
v -0.1935984 -1.937151E-07 -0.1086331
v -0.1935984 0.1086331 -1.937151E-07
v -0.1935984 0.07681507 -0.0768151
v -0.2081212 1.639128E-07 1.639128E-07
v -0.1935984 -1.937151E-07 -0.1086331
v -0.1935984 0.07681507 -0.0768151
v -0.1935984 0.1086331 -1.937151E-07
v 0.04686968 0.05515635 -0.05515638
v 0.04686968 1.639128E-07 -0.078003
v 0.04686968 1.639128E-07 1.639128E-07
v 0.04686968 0.07800296 1.639128E-07
v 0.01920789 0.06128478 -0.06128481
v 0.01920789 0.08666998 1.639128E-07
v 0.009268224 0.1146598 -0.1146599
v 0.009268224 0.1621533 -1.937151E-07
v 0.009268224 -1.937151E-07 -0.1621533
v 0.01920789 1.639128E-07 -0.08667002
vt 0.5063087 0.1821509
vt 0.739993 0.133704
vt 0.5151159 0.555375
vt 0.8228528 0.4844193
vt 0.2025298 0.5147383
vt 0.2662646 0.1376619
vt 0.5124269 0.05892622
vt 0.6888269 0.02745914
vt 0.3227331 0.02608443
vt 0.5011574 0.06280863
vt 0.01999647 0.980007
vt 0.01990583 0.5458125
vt 0.3269328 0.6729801
vt 0.4541003 0.980007
vt 0.8293185 0.8293185
vt 0.980007 0.7668979
vt 0.980007 0.980007
vt 0.7668979 0.980007
vt 0.8125803 0.8125803
vt 0.7432258 0.980007
vt 0.6667562 0.6667562
vt 0.5370054 0.980007
vt 0.980007 0.5370054
vt 0.980007 0.7432258
vt 1.506307 0.1821509
vt 1.739991 0.133704
vt 1.515114 0.555375
vt 1.822851 0.4844193
vt 1.202528 0.5147383
vt 1.266262 0.1376619
vt 1.512425 0.05892622
vt 1.688825 0.02745914
vt 1.322731 0.02608443
vt 1.501155 0.06280863
vt 1.019994 0.980007
vt 1.019904 0.5458125
vt 1.326931 0.6729801
vt 1.454098 0.980007
vt 1.829316 0.8293185
vt 1.980005 0.7668979
vt 1.980005 0.980007
vt 1.766896 0.980007
vt 1.812578 0.8125803
vt 1.743224 0.980007
vt 1.666754 0.6667562
vt 1.537003 0.980007
vt 1.980005 0.5370054
vt 1.980005 0.7432258
vt 2.506319 0.1821509
vt 2.739989 0.133704
vt 2.515111 0.555375
vt 2.822848 0.4844193
vt 2.202525 0.5147383
vt 2.266275 0.1376619
vt 2.512422 0.05892622
vt 2.688838 0.02745914
vt 2.322729 0.02608443
vt 2.501153 0.06280863
vt 2.020007 0.980007
vt 2.019901 0.5458125
vt 2.326928 0.6729801
vt 2.454096 0.980007
vt 2.829314 0.8293185
vt 2.980002 0.7668979
vt 2.980002 0.980007
vt 2.766893 0.980007
vt 2.812576 0.8125803
vt 2.743221 0.980007
vt 2.666752 0.6667562
vt 2.537001 0.980007
vt 2.980002 0.5370054
vt 2.980002 0.7432258
vt 3.506317 0.1821509
vt 3.739986 0.133704
vt 3.515124 0.555375
vt 3.822846 0.4844193
vt 3.202523 0.5147383
vt 3.266273 0.1376619
vt 3.51242 0.05892622
vt 3.688835 0.02745914
vt 3.322726 0.02608443
vt 3.501151 0.06280863
vt 3.020005 0.980007
vt 3.019899 0.5458125
vt 3.326926 0.6729801
vt 3.454093 0.980007
vt 3.829312 0.8293185
vt 3.98 0.7668979
vt 3.98 0.980007
vt 3.766906 0.980007
vt 3.812574 0.8125803
vt 3.743219 0.980007
vt 3.666764 0.6667562
vt 3.537014 0.980007
vt 3.98 0.5370054
vt 3.98 0.7432258
vn -0.206256 0.6930593 0.6907439
vn -0.206256 0.9784942 -0.002762136
vn 0.2355815 0.6852392 0.6891651
vn 0.2354043 0.9718975 0
vn 0.2355815 -0.002932549 0.9718502
vn -0.206256 0.0009775162 0.9784976
vn -0.9276633 0.2746822 0.2529634
vn -0.9276633 0.3724338 -0.02708971
vn -0.9276633 0.01661777 0.3730477
vn -0.9276633 0.2746822 0.2529634
vn -0.9999995 0.0009775162 0
vn -0.9276633 0.3724338 -0.02708971
vn -0.9276633 0.2746822 0.2529634
vn -0.9276633 0.01661777 0.3730477
vn 0.910068 0.2961875 0.2899125
vn 0.910068 0.4134896 -0.02833136
vn 0.9999995 0.0009775162 0
vn 0.910068 0.006842613 0.4144025
vn 0.9530787 0.2218963 0.2059197
vn 0.9530787 0.01466274 0.3023672
vn 0.2355815 0.6852392 0.6891651
vn 0.2355815 -0.002932549 0.9718502
vn 0.2354043 0.9718975 0
vn 0.9530787 0.3000976 -0.03977854
vn -0.206256 -0.6911043 0.6927
vn -0.206256 0.0009775162 0.9784976
vn 0.2355815 -0.6891493 0.6852552
vn 0.2355815 -0.002932549 0.9718502
vn 0.2354043 -0.9718975 0
vn -0.206256 -0.9784942 0.002762136
vn -0.9276633 -0.2512218 0.2762759
vn -0.9276633 0.01661777 0.3730477
vn -0.9276633 -0.3724338 0.02708888
vn -0.9276633 -0.2512218 0.2762759
vn -0.9999995 0.0009775162 0
vn -0.9276633 0.01661777 0.3730477
vn -0.9276633 -0.2512218 0.2762759
vn -0.9276633 -0.3724338 0.02708888
vn 0.910068 -0.2864124 0.2995735
vn 0.910068 0.006842613 0.4144025
vn 0.9999995 0.0009775162 0
vn 0.910068 -0.4134895 0.02833215
vn 0.9530787 -0.202346 0.2251599
vn 0.9530787 -0.3000976 0.03977854
vn 0.2355815 -0.6891493 0.6852552
vn 0.2354043 -0.9718975 0
vn 0.2355815 -0.002932549 0.9718502
vn 0.9530787 0.01466274 0.3023672
vn -0.206256 -0.6930593 -0.6907439
vn -0.206256 -0.9784942 0.002762136
vn 0.2355815 -0.6852392 -0.6891651
vn 0.2354043 -0.9718975 0
vn 0.2355815 0.002932549 -0.9718502
vn -0.206256 -0.0009775162 -0.9784976
vn -0.9276633 -0.2746822 -0.2529634
vn -0.9276633 -0.3724338 0.02708888
vn -0.9276633 -0.01661777 -0.3730477
vn -0.9276633 -0.2746822 -0.2529634
vn -0.9999995 0.0009775162 0
vn -0.9276633 -0.3724338 0.02708888
vn -0.9276633 -0.2746822 -0.2529634
vn -0.9276633 -0.01661777 -0.3730477
vn 0.910068 -0.2961875 -0.2899125
vn 0.910068 -0.4134895 0.02833215
vn 0.9999995 0.0009775162 0
vn 0.910068 -0.006842613 -0.4144025
vn 0.9530787 -0.2218963 -0.2059197
vn 0.9530787 -0.01466274 -0.3023672
vn 0.2355815 -0.6852392 -0.6891651
vn 0.2355815 0.002932549 -0.9718502
vn 0.2354043 -0.9718975 0
vn 0.9530787 -0.3000976 0.03977854
vn -0.206256 0.6911043 -0.6927
vn -0.206256 -0.0009775162 -0.9784976
vn 0.2355815 0.6891493 -0.6852552
vn 0.2355815 0.002932549 -0.9718502
vn 0.2354043 0.9718975 0
vn -0.206256 0.9784942 -0.002762136
vn -0.9276633 0.2512218 -0.2762759
vn -0.9276633 -0.01661777 -0.3730477
vn -0.9276633 0.3724338 -0.02708971
vn -0.9276633 0.2512218 -0.2762759
vn -0.9999995 0.0009775162 0
vn -0.9276633 -0.01661777 -0.3730477
vn -0.9276633 0.2512218 -0.2762759
vn -0.9276633 0.3724338 -0.02708971
vn 0.910068 0.2864124 -0.2995735
vn 0.910068 -0.006842613 -0.4144025
vn 0.9999995 0.0009775162 0
vn 0.910068 0.4134896 -0.02833136
vn 0.9530787 0.202346 -0.2251599
vn 0.9530787 0.3000976 -0.03977854
vn 0.2355815 0.6891493 -0.6852552
vn 0.2354043 0.9718975 0
vn 0.2355815 0.002932549 -0.9718502
vn 0.9530787 -0.01466274 -0.3023672
g TireK_SKinoko_RF_LOD1_0
f 3/3/3 2/2/2 1/1/1
f 3/3/3 4/4/4 2/2/2
f 5/5/5 3/3/3 1/1/1
f 5/5/5 1/1/1 6/6/6
f 7/7/7 1/1/1 2/2/2
f 7/7/7 2/2/2 8/8/8
f 9/9/9 6/6/6 1/1/1
f 9/9/9 1/1/1 10/10/10
f 13/13/13 12/12/12 11/11/11
f 14/14/14 13/13/13 11/11/11
f 17/17/17 16/16/16 15/15/15
f 17/17/17 15/15/15 18/18/18
f 18/18/18 15/15/15 19/19/19
f 18/18/18 19/19/19 20/20/20
f 20/20/20 19/19/19 21/21/21
f 20/20/20 21/21/21 22/22/22
f 19/19/19 23/23/23 21/21/21
f 19/19/19 24/24/24 23/23/23
f 15/15/15 24/24/24 19/19/19
f 15/15/15 16/16/16 24/24/24
f 27/27/27 26/26/26 25/25/25
f 27/27/27 28/28/28 26/26/26
f 29/29/29 27/27/27 25/25/25
f 29/29/29 25/25/25 30/30/30
f 31/31/31 25/25/25 26/26/26
f 31/31/31 26/26/26 32/32/32
f 33/33/33 30/30/30 25/25/25
f 33/33/33 25/25/25 34/34/34
f 37/37/37 36/36/36 35/35/35
f 38/38/38 37/37/37 35/35/35
f 41/41/41 40/40/40 39/39/39
f 41/41/41 39/39/39 42/42/42
f 42/42/42 39/39/39 43/43/43
f 42/42/42 43/43/43 44/44/44
f 44/44/44 43/43/43 45/45/45
f 44/44/44 45/45/45 46/46/46
f 43/43/43 47/47/47 45/45/45
f 43/43/43 48/48/48 47/47/47
f 39/39/39 48/48/48 43/43/43
f 39/39/39 40/40/40 48/48/48
f 51/51/51 50/50/50 49/49/49
f 51/51/51 52/52/52 50/50/50
f 53/53/53 51/51/51 49/49/49
f 53/53/53 49/49/49 54/54/54
f 55/55/55 49/49/49 50/50/50
f 55/55/55 50/50/50 56/56/56
f 57/57/57 54/54/54 49/49/49
f 57/57/57 49/49/49 58/58/58
f 61/61/61 60/60/60 59/59/59
f 62/62/62 61/61/61 59/59/59
f 65/65/65 64/64/64 63/63/63
f 65/65/65 63/63/63 66/66/66
f 66/66/66 63/63/63 67/67/67
f 66/66/66 67/67/67 68/68/68
f 68/68/68 67/67/67 69/69/69
f 68/68/68 69/69/69 70/70/70
f 67/67/67 71/71/71 69/69/69
f 67/67/67 72/72/72 71/71/71
f 63/63/63 72/72/72 67/67/67
f 63/63/63 64/64/64 72/72/72
f 75/75/75 74/74/74 73/73/73
f 75/75/75 76/76/76 74/74/74
f 77/77/77 75/75/75 73/73/73
f 77/77/77 73/73/73 78/78/78
f 79/79/79 73/73/73 74/74/74
f 79/79/79 74/74/74 80/80/80
f 81/81/81 78/78/78 73/73/73
f 81/81/81 73/73/73 82/82/82
f 85/85/85 84/84/84 83/83/83
f 86/86/86 85/85/85 83/83/83
f 89/89/89 88/88/88 87/87/87
f 89/89/89 87/87/87 90/90/90
f 90/90/90 87/87/87 91/91/91
f 90/90/90 91/91/91 92/92/92
f 92/92/92 91/91/91 93/93/93
f 92/92/92 93/93/93 94/94/94
f 91/91/91 95/95/95 93/93/93
f 91/91/91 96/96/96 95/95/95
f 87/87/87 96/96/96 91/91/91
f 87/87/87 88/88/88 96/96/96
