g Tire_Rear02_LOD1
v 4.250644 3.33786E-06 3.33786E-06
v 4.187333 3.33786E-06 -1.12944
v 4.187333 -0.6638684 -0.9137404
v 4.187333 -1.074163 -0.3490231
v 4.187333 -1.129448 -4.768372E-06
v 4.250644 3.33786E-06 3.33786E-06
v 4.187333 -1.129448 -4.768372E-06
v 4.187333 -0.6638684 0.9137392
v 4.187333 3.33786E-06 1.129447
v 4.250644 3.33786E-06 3.33786E-06
v 4.187333 3.33786E-06 1.129447
v 4.187333 0.663867 0.9137392
v 4.187333 0.9137392 0.663867
v 4.187333 1.129447 3.33786E-06
v 4.187333 1.07417 -0.349015
v 4.250644 3.33786E-06 3.33786E-06
v 4.187333 1.129447 3.33786E-06
v 4.187333 0.663867 -0.9137404
v 4.187333 3.33786E-06 -1.12944
v 4.187333 0.663867 0.9137392
v 4.187333 3.33786E-06 1.129447
v 2.716095 0.3490219 1.07417
v 2.716095 -0.9137404 0.663867
v 4.187333 -0.6638684 0.9137392
v 4.187333 -1.129448 -4.768372E-06
v 4.187333 -1.074163 -0.3490231
v 2.716095 -1.129448 3.33786E-06
v 2.716095 -0.9137404 -0.6638684
v 2.716095 -0.9137404 0.663867
v 4.187333 -0.6638684 0.9137392
v 4.187333 -0.6638684 -0.9137404
v 4.187333 3.33786E-06 -1.12944
v 2.716095 -0.349015 -1.074163
v 2.716095 0.3490219 -1.074163
v 2.716095 -0.9137404 -0.6638684
v 4.187333 -1.074163 -0.3490231
v 4.187333 3.33786E-06 -1.12944
v 4.187333 0.663867 -0.9137404
v 2.716095 0.3490219 -1.074163
v 2.716095 1.129447 -4.768372E-06
v 4.187333 1.07417 -0.349015
v 4.187333 0.9137392 0.663867
v 4.187333 0.663867 0.9137392
v 2.716095 0.9137392 0.663867
v 2.716095 0.3490219 1.07417
v 2.716095 1.129447 -4.768372E-06
v 4.187333 1.129447 3.33786E-06
v 4.187333 1.07417 -0.349015
v 2.716095 0.3490219 -1.074163
v 2.6567 3.33786E-06 3.33786E-06
v 2.716095 -0.349015 -1.074163
v 2.716095 -0.9137404 -0.6638684
v 2.716095 -1.129448 3.33786E-06
v 2.716095 -0.9137404 0.663867
v 2.716095 0.3490219 1.07417
v 2.716095 0.9137392 0.663867
v 2.716095 1.129447 -4.768372E-06
v -4.250643 3.33786E-06 3.33786E-06
v -4.187332 -0.6638684 -0.9137404
v -4.187332 3.33786E-06 -1.12944
v -4.187332 -1.074163 -0.3490231
v -4.187332 -1.129448 -4.768372E-06
v -4.250643 3.33786E-06 3.33786E-06
v -4.187332 -0.6638684 0.9137392
v -4.187332 -1.129448 -4.768372E-06
v -4.187332 3.33786E-06 1.129447
v -4.250643 3.33786E-06 3.33786E-06
v -4.187332 0.663867 0.9137392
v -4.187332 3.33786E-06 1.129447
v -4.187332 0.9137392 0.663867
v -4.187332 1.129447 3.33786E-06
v -4.187332 1.07417 -0.349015
v -4.187332 1.129447 3.33786E-06
v -4.250643 3.33786E-06 3.33786E-06
v -4.187332 0.663867 -0.9137404
v -4.187332 3.33786E-06 -1.12944
v -4.187332 0.663867 0.9137392
v -2.716094 0.3490219 1.07417
v -4.187332 3.33786E-06 1.129447
v -4.187332 -0.6638684 0.9137392
v -2.716094 -0.9137404 0.663867
v -2.716094 -0.9137404 -0.6638684
v -4.187332 -1.074163 -0.3490231
v -2.716094 -1.129448 3.33786E-06
v -4.187332 -1.129448 -4.768372E-06
v -2.716094 -0.9137404 0.663867
v -4.187332 -0.6638684 0.9137392
v -4.187332 -0.6638684 -0.9137404
v -2.716094 -0.349015 -1.074163
v -4.187332 3.33786E-06 -1.12944
v -2.716094 0.3490219 -1.074163
v -2.716094 -0.9137404 -0.6638684
v -4.187332 -1.074163 -0.3490231
v -4.187332 3.33786E-06 -1.12944
v -2.716094 0.3490219 -1.074163
v -4.187332 0.663867 -0.9137404
v -4.187332 1.07417 -0.349015
v -2.716094 1.129447 -4.768372E-06
v -2.716094 0.3490219 1.07417
v -4.187332 0.663867 0.9137392
v -2.716094 0.9137392 0.663867
v -4.187332 0.9137392 0.663867
v -4.187332 1.129447 3.33786E-06
v -2.716094 1.129447 -4.768372E-06
v -4.187332 1.07417 -0.349015
v -2.656699 3.33786E-06 3.33786E-06
v -2.716094 1.129447 -4.768372E-06
v -2.716094 0.3490219 -1.074163
v -2.716094 -0.349015 -1.074163
v -2.716094 -0.9137404 -0.6638684
v -2.716094 -1.129448 3.33786E-06
v -2.716094 -0.9137404 0.663867
v -2.716094 0.3490219 1.07417
v -2.716094 0.9137392 0.663867
vt 0.9356586 3.870185
vt 0.9356586 3.923976
vt 0.9672747 3.913702
vt 0.9868166 3.886811
vt 0.98945 3.870185
vt 0.9356586 2.870183
vt 0.9356586 2.923974
vt 0.979176 2.901807
vt 0.98945 2.870183
vt 0.9356586 1.870188
vt 0.9356586 1.92398
vt 0.9672747 1.913706
vt 0.979176 1.901804
vt 0.98945 1.870188
vt 0.9522763 0.9213442
vt 0.9356586 0.8701862
vt 0.9356586 0.9239775
vt 0.979176 0.9018022
vt 0.98945 0.8701862
vt 0.9398249 1.948442
vt 0.9398249 1.965666
vt 0.99397 1.95705
vt 0.99397 1.991496
vt 0.9398249 1.982881
vt 0.9398249 2.974275
vt 0.9398249 2.982883
vt 0.99397 2.974275
vt 0.99397 2.991498
vt 0.99397 2.957052
vt 0.9398249 2.948445
vt 0.9398249 3.965662
vt 0.9398249 3.982885
vt 0.99397 3.974277
vt 0.99397 3.991493
vt 0.99397 3.957055
vt 0.9398249 3.948447
vt 0.9398249 4.948442
vt 0.9398249 4.965665
vt 0.99397 4.957057
vt 0.99397 4.991495
vt 0.9398249 4.982888
vt 0.9398249 0.9742708
vt 0.9398249 0.9828863
vt 0.99397 0.9742708
vt 0.99397 0.9914938
vt 0.99397 0.9570557
vt 0.9398249 0.9570557
vt 0.9398249 0.9484403
vt 0.9974995 0.9270197
vt 0.9855904 0.9231521
vt 0.9974995 0.9192846
vt 0.9929481 0.9130275
vt 0.9855904 0.9106377
vt 0.9782327 0.9130275
vt 0.9736891 0.9270275
vt 0.9782327 0.9332847
vt 0.9855904 0.9356744
vt 0.9356586 3.870185
vt 0.9672747 3.913702
vt 0.9356586 3.923976
vt 0.9868166 3.886811
vt 0.98945 3.870185
vt 0.9356586 2.870183
vt 0.979176 2.901807
vt 0.9356586 2.923974
vt 0.98945 2.870183
vt 0.9356586 1.870188
vt 0.9672747 1.913706
vt 0.9356586 1.92398
vt 0.979176 1.901804
vt 0.98945 1.870188
vt 0.9522763 0.9213442
vt 0.9356586 0.9239775
vt 0.9356586 0.8701862
vt 0.979176 0.9018022
vt 0.98945 0.8701862
vt 0.9398249 1.948442
vt 0.99397 1.95705
vt 0.9398249 1.965666
vt 0.9398249 1.982881
vt 0.99397 1.991496
vt 0.99397 2.991498
vt 0.9398249 2.982883
vt 0.99397 2.974275
vt 0.9398249 2.974275
vt 0.99397 2.957052
vt 0.9398249 2.948445
vt 0.9398249 3.965662
vt 0.99397 3.974277
vt 0.9398249 3.982885
vt 0.99397 3.991493
vt 0.99397 3.957055
vt 0.9398249 3.948447
vt 0.9398249 4.948442
vt 0.99397 4.957057
vt 0.9398249 4.965665
vt 0.9398249 4.982888
vt 0.99397 4.991495
vt 0.99397 0.9914938
vt 0.9398249 0.9828863
vt 0.99397 0.9742708
vt 0.9398249 0.9742708
vt 0.9398249 0.9570557
vt 0.99397 0.9570557
vt 0.9398249 0.9484403
vt 0.9855904 0.9231521
vt 0.9855904 0.9356744
vt 0.9974995 0.9270197
vt 0.9974995 0.9192846
vt 0.9929481 0.9130275
vt 0.9855904 0.9106377
vt 0.9782327 0.9130275
vt 0.9736891 0.9270275
vt 0.9782327 0.9332847
vn 0.9999995 0.0009775162 0
vn 0.6891493 0.0009775162 -0.7246187
vn 0.6891493 -0.4252197 -0.586738
vn 0.6891493 -0.6891493 -0.2239343
vn 0.6911043 -0.7223848 -0.0231316
vn 0.9999995 0.0009775162 0
vn 0.6911043 -0.7223848 -0.0231316
vn 0.6911043 -0.4252197 0.584434
vn 0.6911043 0.0009775162 0.7227544
vn 0.9999995 0.0009775162 0
vn 0.6911043 0.0009775162 0.7227544
vn 0.6891493 0.4252198 0.586738
vn 0.6911043 0.5855324 0.4237059
vn 0.6911043 0.7223848 -0.0231316
vn 0.6911043 0.6871942 -0.2239173
vn 0.9999995 0.0009775162 0
vn 0.6911043 0.7223848 -0.0231316
vn 0.6911043 0.4252198 -0.5844339
vn 0.6891493 0.0009775162 -0.7246187
vn 0.6891493 0.4252198 0.586738
vn 0.6911043 0.0009775162 0.7227544
vn -0.675464 0.2277614 0.7013367
vn -0.675464 -0.5972627 0.4324646
vn 0.6911043 -0.4252197 0.584434
vn 0.6911043 -0.7223848 -0.0231316
vn 0.6891493 -0.6891493 -0.2239343
vn -0.6751493 -0.7376812 0
vn -0.675464 -0.5972627 -0.4324646
vn -0.675464 -0.5972627 0.4324646
vn 0.6911043 -0.4252197 0.584434
vn 0.6891493 -0.4252197 -0.586738
vn 0.6891493 0.0009775162 -0.7246187
vn -0.675464 -0.2277614 -0.7013367
vn -0.675464 0.2277614 -0.7013367
vn -0.675464 -0.5972627 -0.4324646
vn 0.6891493 -0.6891493 -0.2239343
vn 0.6891493 0.0009775162 -0.7246187
vn 0.6911043 0.4252198 -0.5844339
vn -0.675464 0.2277614 -0.7013367
vn -0.6751493 0.7376812 0
vn 0.6911043 0.6871942 -0.2239173
vn 0.6911043 0.5855324 0.4237059
vn 0.6891493 0.4252198 0.586738
vn -0.675464 0.5972626 0.4324647
vn -0.675464 0.2277614 0.7013367
vn -0.6751493 0.7376812 0
vn 0.6911043 0.7223848 -0.0231316
vn 0.6911043 0.6871942 -0.2239173
vn -0.675464 0.2277614 -0.7013367
vn -0.9999995 0.0009775162 0
vn -0.675464 -0.2277614 -0.7013367
vn -0.675464 -0.5972627 -0.4324646
vn -0.6751493 -0.7376812 0
vn -0.675464 -0.5972627 0.4324646
vn -0.675464 0.2277614 0.7013367
vn -0.675464 0.5972626 0.4324647
vn -0.6751493 0.7376812 0
vn -0.9999995 0.0009775162 0
vn -0.6891493 -0.4252197 -0.586738
vn -0.6891493 0.0009775162 -0.7246187
vn -0.6891493 -0.6891493 -0.2239343
vn -0.6911043 -0.7223848 -0.0231316
vn -0.9999995 0.0009775162 0
vn -0.6911043 -0.4252197 0.584434
vn -0.6911043 -0.7223848 -0.0231316
vn -0.6911043 0.0009775162 0.7227544
vn -0.9999995 0.0009775162 0
vn -0.6891493 0.4252198 0.586738
vn -0.6911043 0.0009775162 0.7227544
vn -0.6911043 0.5855324 0.4237059
vn -0.6911043 0.7223848 -0.0231316
vn -0.6911043 0.6871942 -0.2239173
vn -0.6911043 0.7223848 -0.0231316
vn -0.9999995 0.0009775162 0
vn -0.6911043 0.4252198 -0.5844339
vn -0.6891493 0.0009775162 -0.7246187
vn -0.6891493 0.4252198 0.586738
vn 0.675464 0.2277614 0.7013367
vn -0.6911043 0.0009775162 0.7227544
vn -0.6911043 -0.4252197 0.584434
vn 0.675464 -0.5972627 0.4324646
vn 0.675464 -0.5972627 -0.4324646
vn -0.6891493 -0.6891493 -0.2239343
vn 0.6751493 -0.7376812 0
vn -0.6911043 -0.7223848 -0.0231316
vn 0.675464 -0.5972627 0.4324646
vn -0.6911043 -0.4252197 0.584434
vn -0.6891493 -0.4252197 -0.586738
vn 0.675464 -0.2277614 -0.7013367
vn -0.6891493 0.0009775162 -0.7246187
vn 0.675464 0.2277614 -0.7013367
vn 0.675464 -0.5972627 -0.4324646
vn -0.6891493 -0.6891493 -0.2239343
vn -0.6891493 0.0009775162 -0.7246187
vn 0.675464 0.2277614 -0.7013367
vn -0.6911043 0.4252198 -0.5844339
vn -0.6911043 0.6871942 -0.2239173
vn 0.6751493 0.7376812 0
vn 0.675464 0.2277614 0.7013367
vn -0.6891493 0.4252198 0.586738
vn 0.675464 0.5972626 0.4324647
vn -0.6911043 0.5855324 0.4237059
vn -0.6911043 0.7223848 -0.0231316
vn 0.6751493 0.7376812 0
vn -0.6911043 0.6871942 -0.2239173
vn 0.9999995 0.0009775162 0
vn 0.6751493 0.7376812 0
vn 0.675464 0.2277614 -0.7013367
vn 0.675464 -0.2277614 -0.7013367
vn 0.675464 -0.5972627 -0.4324646
vn 0.6751493 -0.7376812 0
vn 0.675464 -0.5972627 0.4324646
vn 0.675464 0.2277614 0.7013367
vn 0.675464 0.5972626 0.4324647
g Tire_Rear02_LOD1_0
f 3/3/3 2/2/2 1/1/1
f 4/4/4 3/3/3 1/1/1
f 4/4/4 1/1/1 5/5/5
f 8/8/8 7/7/7 6/6/6
f 9/9/9 8/8/8 6/6/6
f 12/12/12 11/11/11 10/10/10
f 12/12/12 10/10/10 13/13/13
f 14/14/14 13/13/13 10/10/10
f 17/17/17 16/16/16 15/15/15
f 18/18/18 15/15/15 16/16/16
f 19/19/19 18/18/18 16/16/16
f 22/22/22 21/21/21 20/20/20
f 23/23/23 21/21/21 22/22/22
f 21/21/21 23/23/23 24/24/24
f 27/27/27 26/26/26 25/25/25
f 27/27/27 28/28/28 26/26/26
f 29/29/29 27/27/27 25/25/25
f 29/29/29 25/25/25 30/30/30
f 33/33/33 32/32/32 31/31/31
f 33/33/33 34/34/34 32/32/32
f 35/35/35 33/33/33 31/31/31
f 35/35/35 31/31/31 36/36/36
f 39/39/39 38/38/38 37/37/37
f 40/40/40 38/38/38 39/39/39
f 38/38/38 40/40/40 41/41/41
f 44/44/44 43/43/43 42/42/42
f 44/44/44 45/45/45 43/43/43
f 46/46/46 44/44/44 42/42/42
f 46/46/46 42/42/42 47/47/47
f 48/48/48 46/46/46 47/47/47
f 51/51/51 50/50/50 49/49/49
f 52/52/52 50/50/50 51/51/51
f 53/53/53 50/50/50 52/52/52
f 54/54/54 50/50/50 53/53/53
f 55/55/55 50/50/50 54/54/54
f 56/56/56 50/50/50 55/55/55
f 57/57/57 50/50/50 56/56/56
f 57/57/57 49/49/49 50/50/50
f 60/60/60 59/59/59 58/58/58
f 59/59/59 61/61/61 58/58/58
f 58/58/58 61/61/61 62/62/62
f 65/65/65 64/64/64 63/63/63
f 64/64/64 66/66/66 63/63/63
f 69/69/69 68/68/68 67/67/67
f 67/67/67 68/68/68 70/70/70
f 70/70/70 71/71/71 67/67/67
f 74/74/74 73/73/73 72/72/72
f 72/72/72 75/75/75 74/74/74
f 75/75/75 76/76/76 74/74/74
f 79/79/79 78/78/78 77/77/77
f 80/80/80 78/78/78 79/79/79
f 78/78/78 80/80/80 81/81/81
f 84/84/84 83/83/83 82/82/82
f 84/84/84 85/85/85 83/83/83
f 85/85/85 84/84/84 86/86/86
f 85/85/85 86/86/86 87/87/87
f 90/90/90 89/89/89 88/88/88
f 90/90/90 91/91/91 89/89/89
f 88/88/88 89/89/89 92/92/92
f 88/88/88 92/92/92 93/93/93
f 96/96/96 95/95/95 94/94/94
f 97/97/97 95/95/95 96/96/96
f 95/95/95 97/97/97 98/98/98
f 101/101/101 100/100/100 99/99/99
f 101/101/101 102/102/102 100/100/100
f 101/101/101 103/103/103 102/102/102
f 101/101/101 104/104/104 103/103/103
f 104/104/104 105/105/105 103/103/103
f 108/108/108 107/107/107 106/106/106
f 106/106/106 109/109/109 108/108/108
f 106/106/106 110/110/110 109/109/109
f 106/106/106 111/111/111 110/110/110
f 106/106/106 112/112/112 111/111/111
f 112/112/112 106/106/106 113/113/113
f 106/106/106 114/114/114 113/113/113
f 106/106/106 107/107/107 114/114/114
