g TireK_Drum_LF_LOD2
v 0.1930642 -2.980232E-08 -2.980232E-08
v 0.182366 -2.980232E-08 0.171
v 0.182366 0.171 -2.980232E-08
v -0.03628573 -2.980232E-08 -2.980232E-08
v -0.04157601 0.1400292 -2.980232E-08
v -0.04157601 -2.980232E-08 0.1400292
v 0.182366 -2.980232E-08 0.171
v -0.04157601 -2.980232E-08 0.1400292
v -0.04157601 0.1400292 -2.980232E-08
v 0.182366 0.171 -2.980232E-08
v 0.1930642 -2.980232E-08 -2.980232E-08
v 0.182366 -0.1710001 -2.980232E-08
v 0.182366 -2.980232E-08 0.171
v -0.04157601 -2.980232E-08 0.1400292
v -0.04157601 -0.1400292 -2.980232E-08
v -0.03628573 -2.980232E-08 -2.980232E-08
v 0.182366 -0.1710001 -2.980232E-08
v -0.04157601 -0.1400292 -2.980232E-08
v -0.04157601 -2.980232E-08 0.1400292
v 0.182366 -2.980232E-08 0.171
v 0.1930642 -2.980232E-08 -2.980232E-08
v 0.182366 -2.980232E-08 -0.1710001
v 0.182366 -0.1710001 -2.980232E-08
v -0.04157601 -0.1400292 -2.980232E-08
v -0.04157601 -2.980232E-08 -0.1400292
v -0.03628573 -2.980232E-08 -2.980232E-08
v 0.182366 -2.980232E-08 -0.1710001
v -0.04157601 -2.980232E-08 -0.1400292
v -0.04157601 -0.1400292 -2.980232E-08
v 0.182366 -0.1710001 -2.980232E-08
v 0.1930642 -2.980232E-08 -2.980232E-08
v 0.182366 0.171 -2.980232E-08
v 0.182366 -2.980232E-08 -0.1710001
v -0.04157601 -2.980232E-08 -0.1400292
v -0.04157601 0.1400292 -2.980232E-08
v -0.03628573 -2.980232E-08 -2.980232E-08
v -0.04157601 0.1400292 -2.980232E-08
v -0.04157601 -2.980232E-08 -0.1400292
v 0.182366 -2.980232E-08 -0.1710001
v 0.182366 0.171 -2.980232E-08
vt 0.9900034 0.01
vt 0.510007 0.01
vt 0.9900034 0.4899964
vt 0.01 0.01
vt 0.01 0.4183499
vt 0.4183499 0.01
vt 0.5729842 0.9900034
vt 0.5729842 0.4673744
vt 0.01 0.4673744
vt 0.01 0.9900034
vt 1.990002 0.01
vt 1.510006 0.01
vt 1.990002 0.4899964
vt 1.009999 0.4183499
vt 1.418349 0.01
vt 1.009999 0.01
vt 1.572983 0.9900034
vt 1.572983 0.4673744
vt 1.009999 0.4673744
vt 1.009999 0.9900034
vt 2.990001 0.01
vt 2.510005 0.01
vt 2.990001 0.4899964
vt 2.009998 0.4183499
vt 2.418363 0.01
vt 2.009998 0.01
vt 2.572982 0.9900034
vt 2.572982 0.4673744
vt 2.009998 0.4673744
vt 2.009998 0.9900034
vt 3.99 0.01
vt 3.510003 0.01
vt 3.99 0.4899964
vt 3.009996 0.4183499
vt 3.418361 0.01
vt 3.009996 0.01
vt 3.572981 0.4673744
vt 3.009996 0.4673744
vt 3.009996 0.9900034
vt 3.572981 0.9900034
vn 0.9961087 0.06265348 0.06198371
vn 0.9961087 0.06265348 0.06198371
vn 0.9961087 0.06265348 0.06198371
vn -0.9985759 -0.03678828 -0.03863759
vn -0.9985759 -0.03678828 -0.03863759
vn -0.9985759 -0.03678828 -0.03863759
vn -0.0977506 0.7041503 0.7032903
vn -0.0977506 0.7041503 0.7032903
vn -0.0977506 0.7041503 0.7032903
vn -0.0977506 0.7041503 0.7032903
vn 0.9961087 -0.06213617 0.06250228
vn 0.9961087 -0.06213617 0.06250228
vn 0.9961087 -0.06213617 0.06250228
vn -0.9985759 0.03730565 -0.03813829
vn -0.9985759 0.03730565 -0.03813829
vn -0.9985759 0.03730565 -0.03813829
vn -0.0977506 -0.703633 0.7038078
vn -0.0977506 -0.703633 0.7038078
vn -0.0977506 -0.703633 0.7038078
vn -0.0977506 -0.703633 0.7038078
vn 0.9961087 -0.06213617 -0.06250228
vn 0.9961087 -0.06213617 -0.06250228
vn 0.9961087 -0.06213617 -0.06250228
vn -0.9985759 0.03730565 0.03813829
vn -0.9985759 0.03730565 0.03813829
vn -0.9985759 0.03730565 0.03813829
vn -0.0977506 -0.703633 -0.7038078
vn -0.0977506 -0.703633 -0.7038078
vn -0.0977506 -0.703633 -0.7038078
vn -0.0977506 -0.703633 -0.7038078
vn 0.9961087 0.06265348 -0.06198371
vn 0.9961087 0.06265348 -0.06198371
vn 0.9961087 0.06265348 -0.06198371
vn -0.9985759 -0.03678828 0.03863759
vn -0.9985759 -0.03678828 0.03863759
vn -0.9985759 -0.03678828 0.03863759
vn -0.0977506 0.7041503 -0.7032903
vn -0.0977506 0.7041503 -0.7032903
vn -0.0977506 0.7041503 -0.7032903
vn -0.0977506 0.7041503 -0.7032903
g TireK_Drum_LF_LOD2_0
f 3/3/3 2/2/2 1/1/1
f 6/6/6 5/5/5 4/4/4
f 9/9/9 8/8/8 7/7/7
f 10/10/10 9/9/9 7/7/7
f 13/13/13 12/12/12 11/11/11
f 16/16/16 15/15/15 14/14/14
f 19/19/19 18/18/18 17/17/17
f 20/20/20 19/19/19 17/17/17
f 23/23/23 22/22/22 21/21/21
f 26/26/26 25/25/25 24/24/24
f 29/29/29 28/28/28 27/27/27
f 30/30/30 29/29/29 27/27/27
f 33/33/33 32/32/32 31/31/31
f 36/36/36 35/35/35 34/34/34
f 39/39/39 38/38/38 37/37/37
f 40/40/40 39/39/39 37/37/37
