g TireK_SmallB_RF_LOD1
v -0.1544899 0.02480133 0.04295732
v -0.1367909 0.02963261 0.05132507
v -0.1544899 -0.02480151 0.04295732
v -0.1367909 -0.02963252 0.05132507
v -0.1544899 -0.04960293 -8.940697E-08
v -0.1367909 -0.05926523 -8.940697E-08
v -0.1544899 -0.02480151 -0.04295722
v -0.1367909 -0.02963252 -0.05132497
v -0.1544899 0.02480133 -0.04295722
v -0.1367909 0.02963261 -0.05132497
v -0.1544899 0.04960275 -8.940697E-08
v -0.1367909 0.05926505 -8.940697E-08
v -0.1367909 0.05926505 -8.940697E-08
v -0.1544899 0.04960275 -8.940697E-08
v -0.1265422 -8.940697E-08 -0.1037629
v -0.1386934 4.202127E-06 -0.08032047
v -0.1265422 -0.0733716 -0.0733716
v -0.1386934 -0.05678917 -0.05680206
v -0.1265422 -0.1037629 -8.940697E-08
v -0.1386934 -0.08031617 -8.672476E-06
v -0.06896737 -8.940697E-08 -0.1270778
v -0.06896737 -0.08985764 -0.08985764
v -0.06896737 -0.1270778 -8.940697E-08
v -0.01139258 -0.07328863 -0.07328863
v -0.01139258 -0.1036458 -8.940697E-08
v -0.01139258 -8.940697E-08 -0.1036458
v -0.1265422 0.103763 -8.940697E-08
v -0.1386934 0.08031842 6.362796E-06
v -0.1265422 0.07337143 -0.0733716
v -0.1386934 0.0567957 -0.05679561
v -0.1265422 -8.940697E-08 -0.1037629
v -0.1386934 4.202127E-06 -0.08032047
v -0.06896737 0.08985746 -0.08985764
v -0.06896737 0.1270778 -8.940697E-08
v -0.06896737 -8.940697E-08 -0.1270778
v -0.01139258 0.1036459 -8.940697E-08
v -0.01139258 0.07328872 -0.07328863
v -0.01139258 -8.940697E-08 -0.1036458
v -0.1265422 -8.940697E-08 0.103763
v -0.1386934 -4.380941E-06 0.08031197
v -0.1265422 0.07337143 0.07337143
v -0.1386934 0.056789 0.05678926
v -0.1265422 0.103763 -8.940697E-08
v -0.1386934 0.08031842 6.362796E-06
v -0.06896737 -8.940697E-08 0.1270778
v -0.06896737 0.08985746 0.08985746
v -0.06896737 0.1270778 -8.940697E-08
v -0.01139258 0.07328872 0.07328872
v -0.01139258 0.1036459 -8.940697E-08
v -0.01139258 -8.940697E-08 0.1036459
v -0.1265422 -0.1037629 -8.940697E-08
v -0.1386934 -0.08031617 -8.672476E-06
v -0.1265422 -0.0733716 0.07337143
v -0.1386934 -0.05679561 0.05678281
v -0.1265422 -8.940697E-08 0.103763
v -0.1386934 -4.380941E-06 0.08031197
v -0.06896737 -0.08923279 0.08923288
v -0.06896737 -0.1270778 -8.940697E-08
v -0.06896737 -8.940697E-08 0.1270778
v -0.01139258 -8.940697E-08 0.1036459
v -0.01139258 -0.07328863 0.07328872
v -0.01139258 -0.1036458 -8.940697E-08
v 0.01059766 -8.940697E-08 0.08013636
v -0.01157464 -8.940697E-08 0.08233799
v 0.01059766 0.05666493 0.05666493
v -0.01157464 0.05822183 0.05822183
v 0.01059766 0.08013636 -8.940697E-08
v -0.01157464 0.08233799 -8.940697E-08
v 0.01059766 -8.940697E-08 0.08013636
v 0.01059766 0.05666493 0.05666493
v 0.0235816 -8.940697E-08 -8.940697E-08
v 0.01059766 -0.05666484 0.05666493
v 0.01059766 -0.08013626 -8.940697E-08
v 0.01059766 -0.05666511 -0.05666484
v 0.01059766 -8.940697E-08 -0.08013626
v 0.01059766 0.05666493 -0.05666484
v 0.01059766 0.08013636 -8.940697E-08
v 0.01059766 -8.940697E-08 0.08013636
v 0.01059766 -0.05666484 0.05666493
v -0.01157464 -8.940697E-08 0.08233799
v -0.01157464 -0.05822174 0.05822183
v 0.01059766 -0.08013626 -8.940697E-08
v -0.01157464 -0.08233815 -8.940697E-08
v 0.01059766 -0.05666511 -0.05666484
v -0.01157464 -0.05822174 -0.05822174
v 0.01059766 -0.08013626 -8.940697E-08
v -0.01157464 -0.08233815 -8.940697E-08
v -0.01157464 -8.940697E-08 -0.08233789
v 0.01059766 -8.940697E-08 -0.08013626
v 0.01059766 0.05666493 -0.05666484
v -0.01157464 0.05822183 -0.05822174
v 0.01059766 -8.940697E-08 -0.08013626
v -0.01157464 -8.940697E-08 -0.08233789
v -0.01157464 0.08233799 -8.940697E-08
v 0.01059766 0.08013636 -8.940697E-08
v -0.1443023 0.05430084 -3.150105E-05
v -0.1443023 0.0383967 0.03836475
v -0.1288759 -8.940697E-08 -5.674362E-05
v -0.1443023 -8.940697E-08 0.05426916
v -0.1443023 -0.03839661 0.03836502
v -0.1443023 -0.05430076 -3.150105E-05
v -0.1443023 -0.03839661 -0.03842776
v -0.1443023 -8.940697E-08 -0.05433217
v -0.1443023 0.03839643 -0.03842776
v -0.1481591 -0.04799581 -0.04802051
v -0.1481591 -0.06787599 -2.506375E-05
v -0.1386934 -0.05678917 -0.05680206
v -0.1386934 -0.08031617 -8.672476E-06
v -0.1481591 -0.04799554 0.0479704
v -0.1386934 -0.05679561 0.05678281
v -0.1481591 1.788139E-07 0.06785084
v -0.1386934 -4.380941E-06 0.08031197
v -0.1481591 0.04799564 0.0479704
v -0.1386934 0.056789 0.05678926
v -0.1386934 0.08031842 6.362796E-06
v -0.1481591 0.06787609 -2.506375E-05
v -0.1386934 4.202127E-06 -0.08032047
v -0.1481591 -8.940697E-08 -0.06790096
v -0.1386934 0.0567957 -0.05679561
v -0.1481591 0.04799564 -0.04802078
v -0.01139258 0.07328872 0.07328872
v 0.01625922 -8.940697E-08 -8.940697E-08
v -0.01139258 -8.940697E-08 0.1036459
v -0.01139258 0.1036459 -8.940697E-08
v -0.01139258 -8.940697E-08 0.1036459
v 0.01625922 -8.940697E-08 -8.940697E-08
v -0.01139258 -0.07328863 0.07328872
v -0.01139258 -0.1036458 -8.940697E-08
v -0.01139258 -0.1036458 -8.940697E-08
v 0.01625922 -8.940697E-08 -8.940697E-08
v -0.01139258 -0.07328863 -0.07328863
v -0.01139258 -8.940697E-08 -0.1036458
v -0.01139258 -8.940697E-08 -0.1036458
v 0.01625922 -8.940697E-08 -8.940697E-08
v -0.01139258 0.07328872 -0.07328863
v -0.01139258 0.1036459 -8.940697E-08
v -0.1544899 0.02480133 0.04295732
v -0.1544899 -0.02480151 0.04295732
v -0.1544899 0.02480133 -0.04295722
v -0.1544899 -0.02480151 -0.04295722
v -0.1544899 0.04960275 -8.940697E-08
v -0.1544899 -0.04960293 -8.940697E-08
vt 0.7584693 0.5897514
vt 0.7584693 0.5320377
vt 0.7584693 0.5897514
vt 0.7584693 0.5320377
vt 0.795809 0.5897514
vt 0.795809 0.5320377
vt 0.8331639 0.5897514
vt 0.8331639 0.5320377
vt 0.8705036 0.5897514
vt 0.8705036 0.5320377
vt 0.9078433 0.5897514
vt 0.9078433 0.5320377
vt 0.7211296 0.5320377
vt 0.7211296 0.5897514
vt 0.01318999 0.5727857
vt 0.01318999 0.4872755
vt 0.2365617 0.5727857
vt 0.2365617 0.4872755
vt 0.4599334 0.5727857
vt 0.4599334 0.4872755
vt 0.01318999 0.7729962
vt 0.2365617 0.7729962
vt 0.4599334 0.7729962
vt 0.2365617 0.9742064
vt 0.4599334 0.9742064
vt 0.01318999 0.9742064
vt 1.013197 0.5727857
vt 1.013197 0.4872755
vt 1.236569 0.5727857
vt 1.236569 0.4872755
vt 1.459941 0.5727857
vt 1.459941 0.4872755
vt 1.236569 0.7729962
vt 1.013197 0.7729962
vt 1.459941 0.7729962
vt 1.013197 0.9742064
vt 1.236569 0.9742064
vt 1.459941 0.9742064
vt 2.01319 0.5727857
vt 2.01319 0.4872755
vt 2.236561 0.5727857
vt 2.236561 0.4872755
vt 2.459933 0.5727857
vt 2.459933 0.4872755
vt 2.01319 0.7729962
vt 2.236561 0.7729962
vt 2.459933 0.7729962
vt 2.236561 0.9742064
vt 2.459933 0.9742064
vt 2.01319 0.9742064
vt 3.013197 0.5727857
vt 3.013197 0.4872755
vt 3.236569 0.5727857
vt 3.236569 0.4872755
vt 3.45994 0.5727857
vt 3.45994 0.4872755
vt 3.236569 0.7729962
vt 3.013197 0.7729962
vt 3.45994 0.7729962
vt 3.45994 0.9742064
vt 3.236569 0.9742064
vt 3.013197 0.9742064
vt 0.02489935 0.04148636
vt 0.09120195 0.04148636
vt 0.02489935 0.1846042
vt 0.09120195 0.1846042
vt 0.02489935 0.3277221
vt 0.09120195 0.3277221
vt 0.4963188 0.2126128
vt 0.4401351 0.3482627
vt 0.3044851 0.2126128
vt 0.4401351 0.07696287
vt 0.3044851 0.02077911
vt 0.1688352 0.07696287
vt 0.1126363 0.2126128
vt 0.1688352 0.3482627
vt 0.3044851 0.4044616
vt 1.025619 0.3266466
vt 1.025619 0.1835287
vt 1.091921 0.3266466
vt 1.091921 0.1835287
vt 1.025619 0.04041086
vt 1.091921 0.04041086
vt 2.024445 0.1835287
vt 2.090762 0.1835287
vt 2.024445 0.3266466
vt 2.090747 0.3266466
vt 2.090762 0.04039571
vt 2.024445 0.04039571
vt 3.026709 0.1830894
vt 3.093011 0.1830894
vt 3.026709 0.3262224
vt 3.093011 0.3262224
vt 3.093011 0.03997157
vt 3.026709 0.03997157
vt 0.7492745 0.4357876
vt 0.6300601 0.3864507
vt 0.7493502 0.2672363
vt 0.5806626 0.2672363
vt 0.6300449 0.1480219
vt 0.7492594 0.09863959
vt 0.8684738 0.1480219
vt 0.9178561 0.2672363
vt 0.8684738 0.3864507
vt 0.8982546 0.1182259
vt 0.7492291 0.05649799
vt 0.9197496 0.09670066
vt 0.7491988 0.02606575
vt 0.6002187 0.1182259
vt 0.5786631 0.09670066
vt 0.5384907 0.2672363
vt 0.5080131 0.2672363
vt 0.6002338 0.4162467
vt 0.5786631 0.4378174
vt 0.7525162 0.5083917
vt 0.7492442 0.4779292
vt 0.9903845 0.2672363
vt 0.9599674 0.2672363
vt 0.9197344 0.4377871
vt 0.8982546 0.4162619
vt 0.7266738 0.7179031
vt 0.9808716 0.9721009
vt 0.6213803 0.9721009
vt 0.9808716 0.6126097
vt 1.986575 0.6085803
vt 1.986575 0.9680716
vt 1.732362 0.7138737
vt 1.627068 0.9680716
vt 2.98181 0.6085803
vt 2.98181 0.9680716
vt 2.727612 0.7138737
vt 2.622319 0.9680716
vt 3.98412 0.6085803
vt 3.98412 0.9680716
vt 3.729922 0.7138737
vt 3.624629 0.9680716
vt 0.5124363 0.6861984
vt 0.5124363 0.5744216
vt 0.7060422 0.6861984
vt 0.7060422 0.5744216
vt 0.6092317 0.7420944
vt 0.6092317 0.5185409
vn -0.9530787 0.1612903 0.2561764
vn -0.4780056 0.4662755 0.7443774
vn -0.9530787 -0.1397849 0.2685165
vn -0.4780056 -0.4095795 0.7770169
vn -0.8983378 -0.438905 0.01874882
vn -0.4780056 -0.8768324 0.05172498
vn -0.9530787 -0.1612902 -0.2561764
vn -0.4780056 -0.4662755 -0.7443774
vn -0.9530787 0.1397849 -0.2685164
vn -0.4780056 0.4095795 -0.7770169
vn -0.8983378 0.438905 -0.01874882
vn -0.4780056 0.8768324 -0.05172613
vn -0.4780056 0.8768324 -0.05172613
vn -0.8983378 0.438905 -0.01874882
vn -0.501466 0.01857281 -0.864978
vn -0.8885627 -0.02052784 -0.4582957
vn -0.501466 -0.5992177 -0.6240753
vn -0.8885627 -0.3391983 -0.3088703
vn -0.4936459 -0.8690123 0.03363563
vn -0.8878875 -0.4600605 0
vn 0.0009775162 -0.0009775162 -0.999999
vn 0.0009775162 -0.7067446 -0.7074682
vn -0.01075206 -0.9999422 0
vn 0.7673506 -0.4623654 -0.4442874
vn 0.7673506 -0.6402734 0.03497266
vn 0.7673506 -0.01466274 -0.6410602
vn -0.4954022 0.8686638 0
vn -0.8878875 0.4600605 0
vn -0.5073311 0.6070378 -0.6116537
vn -0.8885627 0.3118278 -0.3364815
vn -0.501466 0.01857281 -0.864978
vn -0.8885627 -0.02052784 -0.4582957
vn 0.01270771 0.6989244 -0.7150826
vn -0.01075206 0.9999422 0
vn 0.0009775162 -0.0009775162 -0.999999
vn 0.7673506 0.6402735 -0.03497139
vn 0.7673506 0.4428151 -0.4637757
vn 0.7673506 -0.01466274 -0.6410602
vn -0.499511 -0.02052784 0.8660643
vn -0.8885627 0.02052784 0.4582957
vn -0.501466 0.5992177 0.6240754
vn -0.8885627 0.3391982 0.3088704
vn -0.4954022 0.8686638 0
vn -0.8878875 0.4600605 0
vn 0.01270771 -0.01466274 0.9998118
vn 0.0009775162 0.7067446 0.7074682
vn -0.01075206 0.9999422 0
vn 0.7673506 0.4623654 0.4442874
vn 0.7673506 0.6402735 -0.03497139
vn 0.7575754 -0.0009775162 0.6527469
vn -0.4936459 -0.8690123 0.03363563
vn -0.8878875 -0.4600605 0
vn -0.499511 -0.6089929 0.6161302
vn -0.8885627 -0.3098727 0.3382828
vn -0.499511 -0.02052784 0.8660643
vn -0.8885627 0.02052784 0.4582957
vn 0.0009775162 -0.7067446 0.7074682
vn -0.01075206 -0.9999422 0
vn 0.01270771 -0.01466274 0.9998118
vn 0.7575754 -0.0009775162 0.6527469
vn 0.7771257 -0.4447701 0.4452585
vn 0.7673506 -0.6402734 0.03497266
vn 0.8885626 0.0009775162 0.4587543
vn 0.09872919 0.0009775162 0.9951138
vn 0.8866076 0.325513 0.3285852
vn 0.09872919 0.7008795 0.7064139
vn 0.8866076 0.4623654 0.01205039
vn 0.09872919 0.9941344 0.04415099
vn 0.8885626 0.0009775162 0.4587543
vn 0.8866076 0.325513 0.3285852
vn 0.9999995 0.0009775162 0
vn 0.8866076 -0.3255131 0.3285852
vn 0.8846424 -0.4662701 0
vn 0.8866076 -0.3255131 -0.3285852
vn 0.8866076 0.0009775162 -0.4625214
vn 0.8866076 0.3294231 -0.3246651
vn 0.8866076 0.4623654 0.01205039
vn 0.8885626 0.0009775162 0.4587543
vn 0.8866076 -0.3255131 0.3285852
vn 0.09872919 0.0009775162 0.9951138
vn 0.09872919 -0.7008795 0.7064139
vn 0.8846424 -0.4662701 0
vn 0.09872919 -0.9941344 -0.04415099
vn 0.8866076 -0.3255131 -0.3285852
vn 0.09872919 -0.7008795 -0.7064139
vn 0.8846424 -0.4662701 0
vn 0.09872919 -0.9941344 -0.04415099
vn 0.09872919 0.004887581 -0.9951023
vn 0.8866076 0.0009775162 -0.4625214
vn 0.8866076 0.3294231 -0.3246651
vn 0.09872919 0.7067446 -0.700546
vn 0.8866076 0.0009775162 -0.4625214
vn 0.09872919 0.004887581 -0.9951023
vn 0.09872919 0.9941344 0.04415099
vn 0.8866076 0.4623654 0.01205039
vn -0.9621481 -0.2725272 0
vn -0.9628539 -0.1906158 -0.1912537
vn -0.9999995 0.0009775162 0
vn -0.9628539 0.002932549 -0.2700069
vn -0.9628539 0.1925708 -0.189285
vn -0.9621481 0.2725272 0
vn -0.9628539 0.1906158 0.1912537
vn -0.9628539 -0.002932549 0.2700069
vn -0.9628539 -0.1964809 0.1852231
vn -0.9374385 -0.2394916 -0.2526912
vn -0.9433036 -0.3313782 -0.01915376
vn -0.794721 -0.4173996 -0.4406769
vn -0.7963504 -0.6048355 0
vn -0.9315734 -0.2688171 0.244762
vn -0.796676 -0.438905 0.4155354
vn -0.9374385 -0.01075268 0.3479849
vn -0.796676 -0.01661777 0.6041781
vn -0.9315734 0.2590419 0.2550849
vn -0.796676 0.4271748 0.427585
vn -0.7963504 0.6048355 0
vn -0.9371698 0.3488734 0
vn -0.794721 0.01661777 -0.6067474
vn -0.9374385 0.01075268 -0.3479849
vn -0.794721 0.4291298 -0.4292623
vn -0.9433036 0.2336265 -0.2357902
vn 0.7673506 0.4623654 0.4442874
vn 0.9999995 0.0009775162 0
vn 0.7575754 -0.0009775162 0.6527469
vn 0.7673506 0.6402735 -0.03497139
vn 0.7575754 -0.0009775162 0.6527469
vn 0.9999995 0.0009775162 0
vn 0.7771257 -0.4447701 0.4452585
vn 0.7673506 -0.6402734 0.03497266
vn 0.7673506 -0.6402734 0.03497266
vn 0.9999995 0.0009775162 0
vn 0.7673506 -0.4623654 -0.4442874
vn 0.7673506 -0.01466274 -0.6410602
vn 0.7673506 -0.01466274 -0.6410602
vn 0.9999995 0.0009775162 0
vn 0.7673506 0.4428151 -0.4637757
vn 0.7673506 0.6402735 -0.03497139
vn -0.9530787 0.1612903 0.2561764
vn -0.9530787 -0.1397849 0.2685165
vn -0.9530787 0.1397849 -0.2685164
vn -0.9530787 -0.1612902 -0.2561764
vn -0.8983378 0.438905 -0.01874882
vn -0.8983378 -0.438905 0.01874882
g TireK_SmallB_RF_LOD1_0
f 3/3/3 2/2/2 1/1/1
f 3/3/3 4/4/4 2/2/2
f 5/5/5 4/4/4 3/3/3
f 5/5/5 6/6/6 4/4/4
f 7/7/7 6/6/6 5/5/5
f 7/7/7 8/8/8 6/6/6
f 9/9/9 8/8/8 7/7/7
f 9/9/9 10/10/10 8/8/8
f 11/11/11 10/10/10 9/9/9
f 11/11/11 12/12/12 10/10/10
f 1/1/1 2/2/2 13/13/13
f 1/1/1 13/13/13 14/14/14
f 17/17/17 16/16/16 15/15/15
f 17/17/17 18/18/18 16/16/16
f 19/19/19 18/18/18 17/17/17
f 19/19/19 20/20/20 18/18/18
f 17/17/17 15/15/15 21/21/21
f 17/17/17 21/21/21 22/22/22
f 19/19/19 17/17/17 22/22/22
f 19/19/19 22/22/22 23/23/23
f 23/23/23 22/22/22 24/24/24
f 23/23/23 24/24/24 25/25/25
f 22/22/22 26/26/26 24/24/24
f 22/22/22 21/21/21 26/26/26
f 29/29/29 28/28/28 27/27/27
f 29/29/29 30/30/30 28/28/28
f 31/31/31 30/30/30 29/29/29
f 31/31/31 32/32/32 30/30/30
f 33/33/33 29/29/29 27/27/27
f 31/31/31 29/29/29 33/33/33
f 33/33/33 27/27/27 34/34/34
f 31/31/31 33/33/33 35/35/35
f 33/33/33 34/34/34 36/36/36
f 33/33/33 36/36/36 37/37/37
f 35/35/35 33/33/33 37/37/37
f 35/35/35 37/37/37 38/38/38
f 41/41/41 40/40/40 39/39/39
f 41/41/41 42/42/42 40/40/40
f 43/43/43 42/42/42 41/41/41
f 43/43/43 44/44/44 42/42/42
f 41/41/41 39/39/39 45/45/45
f 41/41/41 45/45/45 46/46/46
f 43/43/43 41/41/41 46/46/46
f 43/43/43 46/46/46 47/47/47
f 47/47/47 46/46/46 48/48/48
f 47/47/47 48/48/48 49/49/49
f 46/46/46 50/50/50 48/48/48
f 46/46/46 45/45/45 50/50/50
f 53/53/53 52/52/52 51/51/51
f 53/53/53 54/54/54 52/52/52
f 55/55/55 54/54/54 53/53/53
f 55/55/55 56/56/56 54/54/54
f 51/51/51 57/57/57 53/53/53
f 55/55/55 53/53/53 57/57/57
f 51/51/51 58/58/58 57/57/57
f 55/55/55 57/57/57 59/59/59
f 57/57/57 60/60/60 59/59/59
f 57/57/57 61/61/61 60/60/60
f 57/57/57 62/62/62 61/61/61
f 57/57/57 58/58/58 62/62/62
f 65/65/65 64/64/64 63/63/63
f 65/65/65 66/66/66 64/64/64
f 67/67/67 66/66/66 65/65/65
f 67/67/67 68/68/68 66/66/66
f 71/71/71 70/70/70 69/69/69
f 71/71/71 69/69/69 72/72/72
f 72/72/72 73/73/73 71/71/71
f 71/71/71 73/73/73 74/74/74
f 71/71/71 74/74/74 75/75/75
f 71/71/71 75/75/75 76/76/76
f 76/76/76 77/77/77 71/71/71
f 71/71/71 77/77/77 70/70/70
f 80/80/80 79/79/79 78/78/78
f 80/80/80 81/81/81 79/79/79
f 81/81/81 82/82/82 79/79/79
f 81/81/81 83/83/83 82/82/82
f 86/86/86 85/85/85 84/84/84
f 86/86/86 87/87/87 85/85/85
f 84/84/84 85/85/85 88/88/88
f 84/84/84 88/88/88 89/89/89
f 92/92/92 91/91/91 90/90/90
f 92/92/92 93/93/93 91/91/91
f 90/90/90 91/91/91 94/94/94
f 90/90/90 94/94/94 95/95/95
f 98/98/98 97/97/97 96/96/96
f 98/98/98 99/99/99 97/97/97
f 98/98/98 100/100/100 99/99/99
f 98/98/98 101/101/101 100/100/100
f 98/98/98 102/102/102 101/101/101
f 98/98/98 103/103/103 102/102/102
f 98/98/98 104/104/104 103/103/103
f 98/98/98 96/96/96 104/104/104
f 105/105/105 101/101/101 102/102/102
f 105/105/105 106/106/106 101/101/101
f 106/106/106 105/105/105 107/107/107
f 106/106/106 107/107/107 108/108/108
f 109/109/109 106/106/106 108/108/108
f 109/109/109 99/99/99 100/100/100
f 109/109/109 101/101/101 106/106/106
f 109/109/109 100/100/100 101/101/101
f 109/109/109 108/108/108 110/110/110
f 111/111/111 109/109/109 110/110/110
f 111/111/111 97/97/97 99/99/99
f 109/109/109 111/111/111 99/99/99
f 111/111/111 110/110/110 112/112/112
f 113/113/113 111/111/111 112/112/112
f 113/113/113 112/112/112 114/114/114
f 113/113/113 114/114/114 115/115/115
f 113/113/113 115/115/115 116/116/116
f 105/105/105 117/117/117 107/107/107
f 105/105/105 118/118/118 117/117/117
f 118/118/118 119/119/119 117/117/117
f 116/116/116 115/115/115 119/119/119
f 118/118/118 120/120/120 119/119/119
f 116/116/116 119/119/119 120/120/120
f 118/118/118 105/105/105 102/102/102
f 118/118/118 102/102/102 103/103/103
f 120/120/120 118/118/118 103/103/103
f 120/120/120 103/103/103 104/104/104
f 116/116/116 120/120/120 104/104/104
f 116/116/116 104/104/104 96/96/96
f 113/113/113 116/116/116 96/96/96
f 113/113/113 96/96/96 97/97/97
f 111/111/111 113/113/113 97/97/97
f 123/123/123 122/122/122 121/121/121
f 121/121/121 122/122/122 124/124/124
f 127/127/127 126/126/126 125/125/125
f 128/128/128 126/126/126 127/127/127
f 131/131/131 130/130/130 129/129/129
f 132/132/132 130/130/130 131/131/131
f 135/135/135 134/134/134 133/133/133
f 136/136/136 134/134/134 135/135/135
f 139/139/139 138/138/138 137/137/137
f 139/139/139 140/140/140 138/138/138
f 137/137/137 141/141/141 139/139/139
f 138/138/138 140/140/140 142/142/142
