g TireK_StdB_LF_LOD1
v 0.1984463 0.09401421 -0.05427912
v 0.1984463 0.1085582 -1.341105E-07
v 0.1821529 0.1031425 -0.0595492
v 0.1821529 0.1190987 -1.341105E-07
v 0.1984463 0.09401421 0.05427919
v 0.1821529 0.1031425 0.05954929
v 0.1778146 0.03219213 -1.341105E-07
v 0.1778146 0.02787921 -0.01609591
v 0.1778146 0.02787921 0.016096
v 0.1984463 0.09401421 0.05427919
v 0.1984463 0.05427919 0.09401421
v 0.1821529 0.1031425 0.05954929
v 0.1821529 0.05954929 0.1031425
v 0.1984463 -1.341105E-07 0.1085582
v 0.1821529 -1.341105E-07 0.1190987
v 0.1778146 0.016096 0.02787921
v 0.1778146 0.02787921 0.016096
v 0.1778146 -1.341105E-07 0.03219213
v 0.1984463 -1.341105E-07 0.1085582
v 0.1984463 -0.05427912 0.09401421
v 0.1821529 -1.341105E-07 0.1190987
v 0.1821529 -0.0595492 0.1031425
v 0.1984463 -0.09401413 0.05427919
v 0.1821529 -0.1031424 0.05954929
v 0.1778146 -0.01609591 0.02787921
v 0.1778146 -1.341105E-07 0.03219213
v 0.1778146 -0.02787913 0.016096
v 0.1984463 -0.09401413 0.05427919
v 0.1984463 -0.1085581 -1.341105E-07
v 0.1821529 -0.1031424 0.05954929
v 0.1821529 -0.1190986 -1.341105E-07
v 0.1984463 -0.09401413 -0.05427912
v 0.1821529 -0.1031424 -0.0595492
v 0.1778146 -0.03219204 -1.341105E-07
v 0.1778146 -0.02787913 0.016096
v 0.1778146 -0.02787913 -0.01609591
v 0.1984463 -0.09401413 -0.05427912
v 0.1984463 -0.05427912 -0.09401413
v 0.1821529 -0.1031424 -0.0595492
v 0.1821529 -0.0595492 -0.1031424
v 0.1984463 -1.341105E-07 -0.1085581
v 0.1821529 -1.341105E-07 -0.1190986
v 0.1778146 -0.01609591 -0.02787913
v 0.1778146 -0.02787913 -0.01609591
v 0.1778146 -1.341105E-07 -0.03219204
v 0.1984463 -1.341105E-07 -0.1085581
v 0.1984463 0.05427919 -0.09401413
v 0.1821529 -1.341105E-07 -0.1190986
v 0.1821529 0.05954929 -0.1031424
v 0.1984463 0.09401421 -0.05427912
v 0.1821529 0.1031425 -0.0595492
v 0.1778146 0.016096 -0.02787913
v 0.1778146 -1.341105E-07 -0.03219204
v 0.1778146 0.02787921 -0.01609591
v 0.169013 -1.341105E-07 -1.341105E-07
v 0.1778146 0.03219213 -1.341105E-07
v 0.1778146 0.02787921 -0.01609591
v 0.1778146 0.02787921 0.016096
v 0.1778146 0.016096 0.02787921
v 0.1778146 -1.341105E-07 0.03219213
v 0.1778146 -0.01609591 0.02787921
v 0.1778146 -0.02787913 0.016096
v 0.1778146 -0.03219204 -1.341105E-07
v 0.1778146 -0.02787913 -0.01609591
v 0.1778146 -0.01609591 -0.02787913
v 0.1778146 -1.341105E-07 -0.03219204
v 0.1778146 0.016096 -0.02787913
v 0.1805409 0.1043349 0.1043349
v 0.1590218 0.1209561 0.119854
v 0.1805409 0.1475519 -1.341105E-07
v 0.1590218 0.1702783 -1.28001E-05
v 0.1590218 1.28746E-05 0.1702783
v 0.1805409 -1.341105E-07 0.1475519
v -0.009021625 0.1209561 0.119854
v -0.009021625 -1.341105E-07 0.1702783
v -0.009021625 0.1702783 -1.341105E-07
v -0.03054115 0.1043349 0.1043349
v -0.03054115 -1.341105E-07 0.1475519
v -0.03054115 0.1475519 -1.341105E-07
v 0.1805409 -0.1043349 0.1043349
v 0.1590218 -0.1198539 0.1209561
v 0.1805409 -1.341105E-07 0.1475519
v 0.1590218 1.28746E-05 0.1702783
v 0.1590218 -0.1702782 1.28746E-05
v 0.1805409 -0.1475518 -1.341105E-07
v -0.009021625 -0.1198539 0.1209561
v -0.009021625 -0.1702782 -1.341105E-07
v -0.009021625 -1.341105E-07 0.1702783
v -0.03054115 -0.1043349 0.1043349
v -0.03054115 -0.1475518 -1.341105E-07
v -0.03054115 -1.341105E-07 0.1475519
v 0.1805409 -0.1043349 -0.1043349
v 0.1590218 -0.120956 -0.1198539
v 0.1805409 -0.1475518 -1.341105E-07
v 0.1590218 -0.1702782 1.28746E-05
v 0.1590218 -1.28001E-05 -0.1702782
v 0.1805409 -1.341105E-07 -0.1475518
v -0.009021625 -0.120956 -0.1198539
v -0.009021625 -1.341105E-07 -0.1702782
v -0.009021625 -0.1702782 -1.341105E-07
v -0.03054115 -0.1043349 -0.1043349
v -0.03054115 -1.341105E-07 -0.1475518
v -0.03054115 -0.1475518 -1.341105E-07
v 0.1805409 0.1043349 -0.1043349
v 0.1590218 0.119854 -0.120956
v 0.1805409 -1.341105E-07 -0.1475518
v 0.1590218 -1.28001E-05 -0.1702782
v 0.1590218 0.1702783 -1.28001E-05
v 0.1805409 0.1475519 -1.341105E-07
v -0.009021625 0.119854 -0.120956
v -0.009021625 0.1702783 -1.341105E-07
v -0.009021625 -1.341105E-07 -0.1702782
v -0.03054115 0.1043349 -0.1043349
v -0.03054115 0.1475519 -1.341105E-07
v -0.03054115 -1.341105E-07 -0.1475518
v 0.1805409 -1.341105E-07 0.1475519
v 0.1805409 0.1043349 0.1043349
v 0.1861802 -1.341105E-07 0.1143107
v 0.1861802 0.08157305 0.08083005
v 0.1805409 0.1475519 -1.341105E-07
v 0.1861802 0.1153618 -2.580881E-05
v 0.1805409 -1.341105E-07 0.1475519
v 0.1861802 -1.341105E-07 0.1143107
v 0.1805409 -0.1043349 0.1043349
v 0.1861802 -0.08157333 0.08083005
v 0.1805409 -0.1475518 -1.341105E-07
v 0.1861802 -0.115362 -1.341105E-07
v 0.1805409 -0.1043349 -0.1043349
v 0.1805409 -0.1475518 -1.341105E-07
v 0.1861802 -0.08157298 -0.08082996
v 0.1861802 -0.115362 -1.341105E-07
v 0.1861802 2.086163E-07 -0.1143106
v 0.1805409 -1.341105E-07 -0.1475518
v 0.1805409 -1.341105E-07 -0.1475518
v 0.1861802 2.086163E-07 -0.1143106
v 0.1805409 0.1043349 -0.1043349
v 0.1861802 0.08157341 -0.08082996
v 0.1805409 0.1475519 -1.341105E-07
v 0.1861802 0.1153618 -2.580881E-05
v -0.03628911 -1.341105E-07 -1.341105E-07
v -0.04030806 2.086163E-07 -0.1060548
v -0.04030806 0.07568161 -0.07499197
v -0.03054115 0.1043349 -0.1043349
v -0.03054115 0.1475519 -1.341105E-07
v -0.04030806 0.1070303 -1.341105E-07
v -0.03054115 -1.341105E-07 -0.1475518
v -0.03628911 -1.341105E-07 -1.341105E-07
v -0.04030806 -0.07568154 -0.07499197
v -0.04030806 2.086163E-07 -0.1060548
v -0.04030806 -0.1070302 -1.341105E-07
v -0.03054115 -0.1043349 -0.1043349
v -0.03054115 -1.341105E-07 -0.1475518
v -0.03054115 -0.1475518 -1.341105E-07
v -0.03628911 -1.341105E-07 -1.341105E-07
v -0.04030806 -0.0756819 0.07499205
v -0.04030806 -0.1070302 -1.341105E-07
v -0.04030806 -1.341105E-07 0.1060548
v -0.03054115 -0.1043349 0.1043349
v -0.03054115 -1.341105E-07 0.1475519
v -0.03054115 -0.1475518 -1.341105E-07
v -0.03628911 -1.341105E-07 -1.341105E-07
v -0.04030806 0.07568161 0.07499205
v -0.04030806 -1.341105E-07 0.1060548
v -0.04030806 0.1070303 -1.341105E-07
v -0.03054115 0.1043349 0.1043349
v -0.03054115 -1.341105E-07 0.1475519
v -0.03054115 0.1475519 -1.341105E-07
vt 0.5573879 0.3959458
vt 0.4042194 0.4369885
vt 0.572258 0.4217055
vt 0.4042194 0.4667284
vt 0.2510384 0.3959458
vt 0.2361684 0.4217055
vt 0.4042194 0.22255
vt 0.4501687 0.2102334
vt 0.3582577 0.2102334
vt 1.557383 0.3959458
vt 1.404215 0.4369885
vt 1.572253 0.4217055
vt 1.404215 0.4667284
vt 1.251046 0.3959458
vt 1.236163 0.4217055
vt 1.404215 0.22255
vt 1.450164 0.2102334
vt 1.358265 0.2102334
vt 2.557391 0.3959458
vt 2.40421 0.4369885
vt 2.572261 0.4217055
vt 2.40421 0.4667284
vt 2.251041 0.3959458
vt 2.236171 0.4217055
vt 2.40421 0.22255
vt 2.450171 0.2102334
vt 2.35826 0.2102334
vt 3.557386 0.3959458
vt 3.404217 0.4369885
vt 3.572256 0.4217055
vt 3.404217 0.4667284
vt 3.251036 0.3959458
vt 3.236166 0.4217055
vt 3.404217 0.22255
vt 3.450167 0.2102334
vt 3.358268 0.2102334
vt 4.557381 0.3959458
vt 4.404212 0.4369885
vt 4.572263 0.4217055
vt 4.404212 0.4667284
vt 4.251044 0.3959458
vt 4.236174 0.4217055
vt 4.404212 0.22255
vt 4.450161 0.2102334
vt 4.358263 0.2102334
vt 5.557388 0.3959458
vt 5.40422 0.4369885
vt 5.572258 0.4217055
vt 5.40422 0.4667284
vt 5.251039 0.3959458
vt 5.236169 0.4217055
vt 5.40422 0.22255
vt 5.450169 0.2102334
vt 5.358258 0.2102334
vt 0.7606614 0.5087976
vt 0.7606614 0.5859638
vt 0.7992508 0.5756249
vt 0.722072 0.5756249
vt 0.6938339 0.547387
vt 0.683495 0.5087976
vt 0.6938339 0.4702207
vt 0.722072 0.4419702
vt 0.7606614 0.4316313
vt 0.7992508 0.4419702
vt 0.8274888 0.4702207
vt 0.8378277 0.5087976
vt 0.8274888 0.547387
vt 0.3154501 0.5212393
vt 0.3154501 0.5769142
vt 0.6275824 0.5212393
vt 0.6275824 0.5769142
vt 0.003305137 0.5769142
vt 0.003305137 0.5212393
vt 0.3154501 0.8731127
vt 0.003305137 0.8731127
vt 0.6275824 0.8731127
vt 0.3154501 0.9287876
vt 0.003305137 0.9287876
vt 0.6275824 0.9287876
vt 1.315445 0.5212393
vt 1.315445 0.5769142
vt 1.627578 0.5212393
vt 1.627578 0.5769142
vt 1.003313 0.5769142
vt 1.003313 0.5212393
vt 1.315445 0.8731127
vt 1.003313 0.8731127
vt 1.627578 0.8731127
vt 1.315445 0.9287876
vt 1.003313 0.9287876
vt 1.627578 0.9287876
vt 2.31544 0.5212393
vt 2.31544 0.5769142
vt 2.627573 0.5212393
vt 2.627573 0.5769142
vt 2.003308 0.5769142
vt 2.003308 0.5212393
vt 2.31544 0.8731127
vt 2.003308 0.8731127
vt 2.627573 0.8731127
vt 2.31544 0.9287876
vt 2.003308 0.9287876
vt 2.627573 0.9287876
vt 3.315448 0.5212393
vt 3.315448 0.5769142
vt 3.62758 0.5212393
vt 3.62758 0.5769142
vt 3.003315 0.5769142
vt 3.003315 0.5212393
vt 3.315448 0.8731127
vt 3.003315 0.8731127
vt 3.62758 0.8731127
vt 3.315448 0.9287876
vt 3.003315 0.9287876
vt 3.62758 0.9287876
vt 0.4473399 0.009838939
vt 0.5514175 0.2610894
vt 0.5254951 0.009838939
vt 0.6066792 0.2058276
vt 0.8026553 0.3651544
vt 0.8026553 0.2870117
vt -0.6348407 0.009838939
vt -0.7129959 0.009838939
vt -0.7389182 0.2610894
vt -0.7941675 0.2058276
vt -0.9901562 0.3651544
vt -0.9901562 0.2870117
vt -0.4485902 0.2610894
vt -0.1973397 0.3651544
vt -0.3933284 0.2058276
vt -0.1973397 0.2870117
vt -0.4745001 0.009838939
vt -0.5526552 0.009838939
vt 0.3651544 0.009838939
vt 0.2870117 0.009838939
vt 0.2610894 0.2610894
vt 0.2058276 0.2058276
vt 0.009838939 0.3650918
vt 0.009838939 0.2870243
vt -0.003529072 0.9973297
vt -0.003529072 0.7504476
vt -0.1770124 0.8229827
vt -0.2460302 0.7539774
vt -0.3464779 0.9437326
vt -0.2495475 0.9973297
vt -0.003529072 0.6535298
vt 0.9964786 0.9973297
vt 0.8229827 0.8229827
vt 0.7504476 0.9973297
vt 0.9964786 0.7504476
vt 0.7539774 0.7539774
vt 0.6535298 0.9973297
vt 0.9964786 0.6535298
vt 1.996474 0.9973297
vt 1.822978 0.8229827
vt 1.750455 0.9973297
vt 1.996474 0.7504476
vt 1.753973 0.7539774
vt 1.996474 0.6535298
vt 1.653525 0.9973297
vt 2.996469 0.9973297
vt 2.822985 0.8229827
vt 2.75045 0.9973297
vt 2.996469 0.7504476
vt 2.75398 0.7539774
vt 2.653533 0.9973297
vt 2.996469 0.6535298
vn 0.9997014 0.02443062 0
vn 0.9995984 0.0283366 0
vn 0.5425217 0.7223848 -0.4287544
vn 0.5425217 0.8396868 -0.02442016
vn 0.9997014 0.02443062 0
vn 0.5425217 0.7302049 0.4152962
vn 0.9648089 -0.2609969 0.03200489
vn 0.9648089 -0.2179862 0.1470568
vn 0.9648089 -0.2355815 -0.1168121
vn 0.9997014 0.02443062 0
vn 0.9999193 0.01270669 0
vn 0.5425217 0.7302049 0.4152962
vn 0.5425217 0.4271748 0.72332
vn 0.9999995 -0.0009775162 0
vn 0.5425217 0.008797646 0.8399957
vn 0.9648089 -0.14565 -0.2189288
vn 0.9648089 -0.2355815 -0.1168121
vn 0.9648089 -0.01857281 -0.2622952
vn 0.9999995 -0.0009775162 0
vn 0.9998925 -0.01466117 0
vn 0.5425217 0.008797646 0.8399957
vn 0.5425217 -0.4134895 0.7312295
vn 0.9997014 -0.02443062 0
vn 0.5425217 -0.7223848 0.4287544
vn 0.9648089 0.1143694 -0.236777
vn 0.9648089 -0.01857281 -0.2622952
vn 0.9648089 0.2179862 -0.1470568
vn 0.9997014 -0.02443062 0
vn 0.9995984 -0.0283366 0
vn 0.5425217 -0.7223848 0.4287544
vn 0.5425217 -0.8396868 0.02441772
vn 0.9997014 -0.02443062 0
vn 0.5425217 -0.7302049 -0.4152962
vn 0.9648089 0.2609969 -0.03200489
vn 0.9648089 0.2179862 -0.1470568
vn 0.9648089 0.2355815 0.1168121
vn 0.9997014 -0.02443062 0
vn 0.9999193 -0.01270669 0
vn 0.5425217 -0.7302049 -0.4152962
vn 0.5425217 -0.4271747 -0.7233201
vn 0.9999995 0.0009775162 0
vn 0.5425217 -0.008797646 -0.8399957
vn 0.9648089 0.14565 0.2189287
vn 0.9648089 0.2355815 0.1168121
vn 0.9648089 0.01857281 0.2622952
vn 0.9999995 0.0009775162 0
vn 0.9998925 0.01466117 0
vn 0.5425217 -0.008797646 -0.8399957
vn 0.5425217 0.4134896 -0.7312295
vn 0.9997014 0.02443062 0
vn 0.5425217 0.7223848 -0.4287544
vn 0.9648089 -0.1143695 0.236777
vn 0.9648089 0.01857281 0.2622952
vn 0.9648089 -0.2179862 0.1470568
vn 0.9999995 0.0009775162 0
vn 0.9648089 -0.2609969 0.03200489
vn 0.9648089 -0.2179862 0.1470568
vn 0.9648089 -0.2355815 -0.1168121
vn 0.9648089 -0.14565 -0.2189288
vn 0.9648089 -0.01857281 -0.2622952
vn 0.9648089 0.1143694 -0.236777
vn 0.9648089 0.2179862 -0.1470568
vn 0.9648089 0.2609969 -0.03200489
vn 0.9648089 0.2355815 0.1168121
vn 0.9648089 0.14565 0.2189287
vn 0.9648089 0.01857281 0.2622952
vn 0.9648089 -0.1143695 0.236777
vn 0.8553271 0.3567935 0.3756514
vn 0.09481913 0.7028345 0.7050057
vn 0.8475037 0.5307895 0
vn 0.094763 0.9954998 0
vn 0.09481913 0.002932549 0.9954902
vn 0.8631472 -0.01075268 0.5048379
vn -0.09481907 0.7028345 0.7050057
vn -0.09481907 0.002932549 0.9954902
vn -0.09476294 0.9954998 0
vn -0.8592371 0.3548385 0.3685123
vn -0.8670572 -0.008797646 0.4981309
vn -0.8512218 0.5248061 0
vn 0.8553271 -0.3782989 0.3539852
vn 0.09481913 -0.7047895 0.7030513
vn 0.8631472 -0.01075268 0.5048379
vn 0.09481913 0.002932549 0.9954902
vn 0.094763 -0.9954998 0
vn 0.8475037 -0.5307895 0
vn -0.09481907 -0.7047895 0.7030513
vn -0.09476294 -0.9954998 0
vn -0.09481907 0.002932549 0.9954902
vn -0.8592371 -0.3743889 0.3486325
vn -0.8512218 -0.5248061 0
vn -0.8670572 -0.008797646 0.4981309
vn 0.8553271 -0.3567936 -0.3756514
vn 0.09481913 -0.7028345 -0.7050057
vn 0.8475037 -0.5307895 0
vn 0.094763 -0.9954998 0
vn 0.09481913 -0.002932549 -0.9954902
vn 0.8631472 0.01075268 -0.5048379
vn -0.09481907 -0.7028345 -0.7050057
vn -0.09481907 -0.002932549 -0.9954902
vn -0.09476294 -0.9954998 0
vn -0.8592371 -0.3548386 -0.3685122
vn -0.8670572 0.008797646 -0.4981309
vn -0.8512218 -0.5248061 0
vn 0.8553271 0.378299 -0.3539852
vn 0.09481913 0.7047895 -0.7030513
vn 0.8631472 0.01075268 -0.5048379
vn 0.09481913 -0.002932549 -0.9954902
vn 0.094763 0.9954998 0
vn 0.8475037 0.5307895 0
vn -0.09481907 0.7047895 -0.7030513
vn -0.09476294 0.9954998 0
vn -0.09481907 -0.002932549 -0.9954902
vn -0.8592371 0.3743888 -0.3486326
vn -0.8512218 0.5248061 0
vn -0.8670572 0.008797646 -0.4981309
vn 0.8631472 -0.01075268 0.5048379
vn 0.8553271 0.3567935 0.3756514
vn 0.9863143 0.0009775162 0.1648732
vn 0.9863143 0.1260996 0.1062216
vn 0.8475037 0.5307895 0
vn 0.9843593 0.1730205 -0.03317782
vn 0.8631472 -0.01075268 0.5048379
vn 0.9863143 0.0009775162 0.1648732
vn 0.8553271 -0.3782989 0.3539852
vn 0.9863143 -0.1260996 0.1062215
vn 0.8475037 -0.5307895 0
vn 0.9843593 -0.1730204 -0.03317812
vn 0.8553271 -0.3567936 -0.3756514
vn 0.8475037 -0.5307895 0
vn 0.9863143 -0.1260996 -0.1062215
vn 0.9843593 -0.1730204 -0.03317812
vn 0.9863143 0.0009775162 -0.1648732
vn 0.8631472 0.01075268 -0.5048379
vn 0.8631472 0.01075268 -0.5048379
vn 0.9863143 0.0009775162 -0.1648732
vn 0.8553271 0.378299 -0.3539852
vn 0.9863143 0.1260996 -0.1062216
vn 0.8475037 0.5307895 0
vn 0.9843593 0.1730205 -0.03317782
vn -0.9999995 0.0009775162 0
vn -0.9960895 0.0009775162 -0.08834483
vn -0.9960895 0.05962849 -0.06519362
vn -0.8592371 0.3743888 -0.3486326
vn -0.8512218 0.5248061 0
vn -0.9975908 0.0693721 0
vn -0.8670572 0.008797646 -0.4981309
vn -0.9999995 0.0009775162 0
vn -0.9960895 -0.05962849 -0.06519362
vn -0.9960895 0.0009775162 -0.08834483
vn -0.9975908 -0.06937215 0
vn -0.8592371 -0.3548386 -0.3685122
vn -0.8670572 0.008797646 -0.4981309
vn -0.8512218 -0.5248061 0
vn -0.9999995 0.0009775162 0
vn -0.9960895 -0.05962849 0.06519362
vn -0.9975908 -0.06937215 0
vn -0.9960895 0.0009775162 0.08834483
vn -0.8592371 -0.3743889 0.3486325
vn -0.8670572 -0.008797646 0.4981309
vn -0.8512218 -0.5248061 0
vn -0.9999995 0.0009775162 0
vn -0.9960895 0.05962849 0.06519362
vn -0.9960895 0.0009775162 0.08834483
vn -0.9975908 0.0693721 0
vn -0.8592371 0.3548385 0.3685123
vn -0.8670572 -0.008797646 0.4981309
vn -0.8512218 0.5248061 0
g TireK_StdB_LF_LOD1_0
f 3/3/3 2/2/2 1/1/1
f 3/3/3 4/4/4 2/2/2
f 4/4/4 5/5/5 2/2/2
f 4/4/4 6/6/6 5/5/5
f 1/1/1 2/2/2 7/7/7
f 1/1/1 7/7/7 8/8/8
f 2/2/2 9/9/9 7/7/7
f 2/2/2 5/5/5 9/9/9
f 12/12/12 11/11/11 10/10/10
f 12/12/12 13/13/13 11/11/11
f 13/13/13 14/14/14 11/11/11
f 13/13/13 15/15/15 14/14/14
f 10/10/10 11/11/11 16/16/16
f 10/10/10 16/16/16 17/17/17
f 11/11/11 18/18/18 16/16/16
f 11/11/11 14/14/14 18/18/18
f 21/21/21 20/20/20 19/19/19
f 21/21/21 22/22/22 20/20/20
f 22/22/22 23/23/23 20/20/20
f 22/22/22 24/24/24 23/23/23
f 19/19/19 20/20/20 25/25/25
f 19/19/19 25/25/25 26/26/26
f 20/20/20 27/27/27 25/25/25
f 20/20/20 23/23/23 27/27/27
f 30/30/30 29/29/29 28/28/28
f 30/30/30 31/31/31 29/29/29
f 31/31/31 32/32/32 29/29/29
f 31/31/31 33/33/33 32/32/32
f 28/28/28 29/29/29 34/34/34
f 28/28/28 34/34/34 35/35/35
f 29/29/29 36/36/36 34/34/34
f 29/29/29 32/32/32 36/36/36
f 39/39/39 38/38/38 37/37/37
f 39/39/39 40/40/40 38/38/38
f 40/40/40 41/41/41 38/38/38
f 40/40/40 42/42/42 41/41/41
f 37/37/37 38/38/38 43/43/43
f 37/37/37 43/43/43 44/44/44
f 38/38/38 45/45/45 43/43/43
f 38/38/38 41/41/41 45/45/45
f 48/48/48 47/47/47 46/46/46
f 48/48/48 49/49/49 47/47/47
f 49/49/49 50/50/50 47/47/47
f 49/49/49 51/51/51 50/50/50
f 46/46/46 47/47/47 52/52/52
f 46/46/46 52/52/52 53/53/53
f 47/47/47 54/54/54 52/52/52
f 47/47/47 50/50/50 54/54/54
f 57/57/57 56/56/56 55/55/55
f 56/56/56 58/58/58 55/55/55
f 58/58/58 59/59/59 55/55/55
f 59/59/59 60/60/60 55/55/55
f 60/60/60 61/61/61 55/55/55
f 61/61/61 62/62/62 55/55/55
f 62/62/62 63/63/63 55/55/55
f 63/63/63 64/64/64 55/55/55
f 64/64/64 65/65/65 55/55/55
f 65/65/65 66/66/66 55/55/55
f 66/66/66 67/67/67 55/55/55
f 67/67/67 57/57/57 55/55/55
f 70/70/70 69/69/69 68/68/68
f 70/70/70 71/71/71 69/69/69
f 68/68/68 69/69/69 72/72/72
f 68/68/68 72/72/72 73/73/73
f 72/72/72 69/69/69 74/74/74
f 74/74/74 69/69/69 71/71/71
f 72/72/72 74/74/74 75/75/75
f 74/74/74 71/71/71 76/76/76
f 75/75/75 74/74/74 77/77/77
f 75/75/75 77/77/77 78/78/78
f 74/74/74 79/79/79 77/77/77
f 74/74/74 76/76/76 79/79/79
f 82/82/82 81/81/81 80/80/80
f 82/82/82 83/83/83 81/81/81
f 80/80/80 81/81/81 84/84/84
f 80/80/80 84/84/84 85/85/85
f 84/84/84 81/81/81 86/86/86
f 86/86/86 81/81/81 83/83/83
f 84/84/84 86/86/86 87/87/87
f 86/86/86 83/83/83 88/88/88
f 87/87/87 86/86/86 89/89/89
f 87/87/87 89/89/89 90/90/90
f 86/86/86 91/91/91 89/89/89
f 86/86/86 88/88/88 91/91/91
f 94/94/94 93/93/93 92/92/92
f 94/94/94 95/95/95 93/93/93
f 92/92/92 93/93/93 96/96/96
f 92/92/92 96/96/96 97/97/97
f 96/96/96 93/93/93 98/98/98
f 98/98/98 93/93/93 95/95/95
f 96/96/96 98/98/98 99/99/99
f 98/98/98 95/95/95 100/100/100
f 99/99/99 98/98/98 101/101/101
f 99/99/99 101/101/101 102/102/102
f 98/98/98 103/103/103 101/101/101
f 98/98/98 100/100/100 103/103/103
f 106/106/106 105/105/105 104/104/104
f 106/106/106 107/107/107 105/105/105
f 104/104/104 105/105/105 108/108/108
f 104/104/104 108/108/108 109/109/109
f 108/108/108 105/105/105 110/110/110
f 110/110/110 105/105/105 107/107/107
f 108/108/108 110/110/110 111/111/111
f 110/110/110 107/107/107 112/112/112
f 111/111/111 110/110/110 113/113/113
f 111/111/111 113/113/113 114/114/114
f 110/110/110 115/115/115 113/113/113
f 110/110/110 112/112/112 115/115/115
f 118/118/118 117/117/117 116/116/116
f 118/118/118 119/119/119 117/117/117
f 119/119/119 120/120/120 117/117/117
f 119/119/119 121/121/121 120/120/120
f 124/124/124 123/123/123 122/122/122
f 124/124/124 125/125/125 123/123/123
f 126/126/126 125/125/125 124/124/124
f 126/126/126 127/127/127 125/125/125
f 130/130/130 129/129/129 128/128/128
f 130/130/130 131/131/131 129/129/129
f 132/132/132 130/130/130 128/128/128
f 132/132/132 128/128/128 133/133/133
f 136/136/136 135/135/135 134/134/134
f 136/136/136 137/137/137 135/135/135
f 137/137/137 136/136/136 138/138/138
f 137/137/137 138/138/138 139/139/139
f 142/142/142 141/141/141 140/140/140
f 143/143/143 141/141/141 142/142/142
f 144/144/144 143/143/143 142/142/142
f 144/144/144 142/142/142 145/145/145
f 145/145/145 142/142/142 140/140/140
f 143/143/143 146/146/146 141/141/141
f 149/149/149 148/148/148 147/147/147
f 148/148/148 150/150/150 147/147/147
f 149/149/149 151/151/151 148/148/148
f 149/149/149 152/152/152 151/151/151
f 148/148/148 153/153/153 150/150/150
f 148/148/148 151/151/151 153/153/153
f 156/156/156 155/155/155 154/154/154
f 155/155/155 157/157/157 154/154/154
f 158/158/158 157/157/157 155/155/155
f 158/158/158 159/159/159 157/157/157
f 160/160/160 155/155/155 156/156/156
f 160/160/160 158/158/158 155/155/155
f 163/163/163 162/162/162 161/161/161
f 162/162/162 164/164/164 161/161/161
f 163/163/163 165/165/165 162/162/162
f 163/163/163 166/166/166 165/165/165
f 162/162/162 167/167/167 164/164/164
f 162/162/162 165/165/165 167/167/167
