g TireK_StdSFC_RF_LOD1
v -0.1632389 0 0
v -0.1599215 0.02720584 -0.0272055
v -0.1599215 0.03847462 0
v -0.1599215 0 -0.03847463
v -0.1599215 -0.0272055 -0.02720585
v -0.1599215 -0.03847463 0
v -0.1599215 -0.02720585 0.02720584
v -0.1599215 0 0.03847462
v -0.1599215 0.02720584 0.02720584
v -0.1599215 0.02720584 -0.0272055
v -0.1249998 0.03535531 -0.03535531
v -0.1249998 0.04999994 0
v -0.1599215 0.03847462 0
v -0.1599215 0 -0.03847463
v -0.1249998 0 -0.04999994
v -0.1599215 -0.0272055 -0.02720585
v -0.1249998 -0.03535531 -0.03535531
v -0.1599215 -0.03847463 0
v -0.1249998 -0.04999994 0
v -0.1599215 -0.02720585 0.02720584
v -0.1249998 -0.03535531 0.03535531
v -0.1599215 0 0.03847462
v -0.1249998 0 0.04999994
v -0.1599215 0.02720584 0.02720584
v -0.1249998 0.03535531 0.03535531
v -0.1599215 0.03847462 0
v -0.1249998 0.04999994 0
v -0.1750001 1.189113E-05 -0.1561198
v -0.1750001 0.1103465 -0.1104399
v -0.195 0.09044279 -0.09051945
v -0.195 0 -0.1279595
v -0.195 0.1279596 0
v -0.1750001 0.1561198 1.189113E-05
v -0.1860001 0.04874003 -0.04878133
v -0.1860001 0.06895831 0
v -0.1860001 0 -0.06895832
v -0.1249998 0.03535531 -0.03535531
v -0.1249998 0 -0.04999994
v -0.1860001 0 -0.06895832
v -0.1860001 0.04874003 -0.04878133
v -0.1249998 0.04999994 0
v -0.1860001 0.06895831 0
v -0.1150001 0.1215516 -0.1216548
v -0.1750001 0.1103465 -0.1104399
v -0.1750001 1.189113E-05 -0.1561198
v -0.1150001 1.15484E-05 -0.1719729
v -0.1150001 0.1719729 1.15484E-05
v -0.1750001 0.1561198 1.189113E-05
v -0.03500009 0.1215516 -0.1216548
v -0.03500009 0.1719729 1.15484E-05
v 0.02499998 0.1103465 -0.1104399
v 0.02499998 0.1561198 1.189113E-05
v -0.03500009 1.15484E-05 -0.1719729
v 0.02499998 1.189113E-05 -0.1561198
v 0.0350001 0 0
v 0.0350001 0.05806752 -0.05811686
v 0.0350001 0 -0.08215475
v 0.0350001 0.08215474 0
v 0.04499987 0.09073083 -0.09080748
v 0.04499987 0.1283669 0
v 0.02499998 0.1561198 1.189113E-05
v 0.02499998 0.1103465 -0.1104399
v 0.02499998 1.189113E-05 -0.1561198
v 0.04499987 0 -0.1283669
v 0.0350001 0 -0.08215475
v 0.0350001 0.05806752 -0.05811686
v 0.0350001 0.08215474 0
v -0.1750001 -0.1561198 -1.190603E-05
v -0.1750001 -0.1104399 -0.1103465
v -0.195 -0.09051945 -0.09044281
v -0.195 -0.1279595 0
v -0.195 0 -0.1279595
v -0.1750001 1.189113E-05 -0.1561198
v -0.1860001 -0.04878133 -0.04874004
v -0.1860001 0 -0.06895832
v -0.1860001 -0.06895832 0
v -0.1249998 -0.03535531 -0.03535531
v -0.1249998 -0.04999994 0
v -0.1860001 -0.06895832 0
v -0.1860001 -0.04878133 -0.04874004
v -0.1249998 0 -0.04999994
v -0.1860001 0 -0.06895832
v -0.1150001 -0.1216548 -0.1215516
v -0.1750001 -0.1104399 -0.1103465
v -0.1750001 -0.1561198 -1.190603E-05
v -0.1150001 -0.1719729 -1.15484E-05
v -0.1150001 1.15484E-05 -0.1719729
v -0.1750001 1.189113E-05 -0.1561198
v -0.03500009 -0.1216548 -0.1215516
v -0.03500009 1.15484E-05 -0.1719729
v 0.02499998 -0.1104399 -0.1103465
v 0.02499998 1.189113E-05 -0.1561198
v -0.03500009 -0.1719729 -1.15484E-05
v 0.02499998 -0.1561198 -1.190603E-05
v 0.0350001 0 0
v 0.0350001 -0.05811686 -0.05806752
v 0.0350001 -0.08215475 0
v 0.0350001 0 -0.08215475
v 0.04499987 -0.09080748 -0.09073084
v 0.04499987 0 -0.1283669
v 0.02499998 1.189113E-05 -0.1561198
v 0.02499998 -0.1104399 -0.1103465
v 0.02499998 -0.1561198 -1.190603E-05
v 0.04499987 -0.1283669 0
v 0.0350001 -0.08215475 0
v 0.0350001 -0.05811686 -0.05806752
v 0.0350001 0 -0.08215475
v -0.1750001 -1.190603E-05 0.1561198
v -0.1750001 -0.1103465 0.1104399
v -0.195 -0.09044281 0.09051944
v -0.195 0 0.1279596
v -0.195 -0.1279595 0
v -0.1750001 -0.1561198 -1.190603E-05
v -0.1860001 -0.04874004 0.04878132
v -0.1860001 -0.06895832 0
v -0.1860001 0 0.06895831
v -0.1249998 -0.03535531 0.03535531
v -0.1249998 0 0.04999994
v -0.1860001 0 0.06895831
v -0.1860001 -0.04874004 0.04878132
v -0.1249998 -0.04999994 0
v -0.1860001 -0.06895832 0
v -0.1150001 -0.1215516 0.1216548
v -0.1750001 -0.1103465 0.1104399
v -0.1750001 -1.190603E-05 0.1561198
v -0.1150001 -1.15484E-05 0.1719729
v -0.1150001 -0.1719729 -1.15484E-05
v -0.1750001 -0.1561198 -1.190603E-05
v -0.03500009 -0.1215516 0.1216548
v -0.03500009 -0.1719729 -1.15484E-05
v 0.02499998 -0.1103465 0.1104399
v 0.02499998 -0.1561198 -1.190603E-05
v -0.03500009 -1.15484E-05 0.1719729
v 0.02499998 -1.190603E-05 0.1561198
v 0.0350001 0 0
v 0.0350001 -0.05806752 0.05811685
v 0.0350001 0 0.08215474
v 0.0350001 -0.08215475 0
v 0.04499987 -0.09073084 0.09080748
v 0.04499987 -0.1283669 0
v 0.02499998 -0.1561198 -1.190603E-05
v 0.02499998 -0.1103465 0.1104399
v 0.02499998 -1.190603E-05 0.1561198
v 0.04499987 0 0.1283669
v 0.0350001 0 0.08215474
v 0.0350001 -0.05806752 0.05811685
v 0.0350001 -0.08215475 0
v -0.1750001 0.1561198 1.189113E-05
v -0.1750001 0.1104399 0.1103465
v -0.195 0.09051944 0.09044279
v -0.195 0.1279596 0
v -0.195 0 0.1279596
v -0.1750001 -1.190603E-05 0.1561198
v -0.1860001 0.04878132 0.04874003
v -0.1860001 0 0.06895831
v -0.1860001 0.06895831 0
v -0.1249998 0.03535531 0.03535531
v -0.1249998 0.04999994 0
v -0.1860001 0.06895831 0
v -0.1860001 0.04878132 0.04874003
v -0.1249998 0 0.04999994
v -0.1860001 0 0.06895831
v -0.1150001 0.1216548 0.1215516
v -0.1750001 0.1104399 0.1103465
v -0.1750001 0.1561198 1.189113E-05
v -0.1150001 0.1719729 1.15484E-05
v -0.1150001 -1.15484E-05 0.1719729
v -0.1750001 -1.190603E-05 0.1561198
v -0.03500009 0.1216548 0.1215516
v -0.03500009 -1.15484E-05 0.1719729
v 0.02499998 0.1104399 0.1103465
v 0.02499998 -1.190603E-05 0.1561198
v -0.03500009 0.1719729 1.15484E-05
v 0.02499998 0.1561198 1.189113E-05
v 0.0350001 0 0
v 0.0350001 0.05811685 0.05806752
v 0.0350001 0.08215474 0
v 0.0350001 0 0.08215474
v 0.04499987 0.09080748 0.09073083
v 0.04499987 0 0.1283669
v 0.02499998 -1.190603E-05 0.1561198
v 0.02499998 0.1104399 0.1103465
v 0.02499998 0.1561198 1.189113E-05
v 0.04499987 0.1283669 0
v 0.0350001 0.08215474 0
v 0.0350001 0.05811685 0.05806752
v 0.0350001 0 0.08215474
vt 0.5857059 0.3669893
vt 0.5141331 0.4385621
vt 0.5857059 0.468215
vt 0.4844802 0.3669893
vt 0.5141331 0.2954013
vt 0.5857211 0.2657484
vt 0.6572939 0.2954013
vt 0.6869468 0.3669893
vt 0.6572939 0.4385621
vt 0.9186877 0.4828446
vt 0.9186877 0.6008655
vt 0.9764488 0.6008655
vt 0.9764488 0.4828446
vt 0.8609266 0.4828446
vt 0.8609266 0.6008655
vt 0.8031808 0.4828446
vt 0.8031808 0.6008655
vt 0.7454197 0.4828446
vt 0.7454197 0.6008655
vt 0.6876586 0.4828446
vt 0.6876586 0.6008655
vt 0.6298975 0.4828446
vt 0.6298975 0.6008655
vt 0.5721516 0.4828446
vt 0.5721516 0.6008655
vt 0.5143905 0.4828446
vt 0.5143905 0.6008655
vt 0.01006409 0.5553261
vt 0.3954306 0.395779
vt 0.313393 0.3136807
vt 0.01001865 0.4392588
vt 0.4392285 0.01004894
vt 0.5552958 0.01000351
vt 0.1735185 0.1736699
vt 0.2413204 0.01004894
vt 0.01001865 0.2413507
vt 0.7499933 0.9799926
vt 0.922277 0.9799926
vt 0.922277 0.6499943
vt 0.7499933 0.6499943
vt 0.5777248 0.9799926
vt 0.5777248 0.6499943
vt 0.2499982 0.7476156
vt 0.2499982 0.6408622
vt 0.4794825 0.6408622
vt 0.4794825 0.7476156
vt 0.02051378 0.7476156
vt 0.02051378 0.6408622
vt 0.2499982 0.8823864
vt 0.02051378 0.8823864
vt 0.2499982 0.9891399
vt 0.02051378 0.9891399
vt 0.4794825 0.8823864
vt 0.4794825 0.9891399
vt 0.9800228 0.02617782
vt 0.8477964 0.1584043
vt 0.9800228 0.2131819
vt 0.7930188 0.02617782
vt 0.7734067 0.232794
vt 0.6878252 0.02617782
vt 0.5978215 0.02611724
vt 0.7097695 0.2964311
vt 0.9800228 0.4083792
vt 0.9800228 0.3183755
vt 0.9800228 0.2131819
vt 0.8477964 0.1584043
vt 0.7930188 0.02617782
vt 1.01007 0.5553261
vt 1.395421 0.395779
vt 1.313398 0.3136807
vt 1.010024 0.4392588
vt 1.439234 0.01004894
vt 1.555301 0.01000351
vt 1.173509 0.1736699
vt 1.241326 0.01004894
vt 1.010024 0.2413507
vt 1.749999 0.9799926
vt 1.922282 0.9799926
vt 1.922282 0.6499943
vt 1.749999 0.6499943
vt 1.577715 0.9799926
vt 1.577715 0.6499943
vt 1.250004 0.7476156
vt 1.250004 0.6408622
vt 1.479488 0.6408622
vt 1.479488 0.7476156
vt 1.020519 0.7476156
vt 1.020519 0.6408622
vt 1.250004 0.8823864
vt 1.020519 0.8823864
vt 1.250004 0.9891399
vt 1.020519 0.9891399
vt 1.479488 0.8823864
vt 1.479488 0.9891399
vt 1.980028 0.02617782
vt 1.847787 0.1584043
vt 1.980028 0.2131819
vt 1.793009 0.02617782
vt 1.773412 0.232794
vt 1.687831 0.02617782
vt 1.597812 0.02611724
vt 1.70976 0.2964311
vt 1.980028 0.4083792
vt 1.980028 0.3183755
vt 1.980028 0.2131819
vt 1.847787 0.1584043
vt 1.793009 0.02617782
vt 2.01006 0.5553261
vt 2.395427 0.395779
vt 2.313389 0.3136807
vt 2.01003 0.4392588
vt 2.43924 0.01004894
vt 2.555292 0.01000351
vt 2.173514 0.1736699
vt 2.241331 0.01004894
vt 2.01003 0.2413507
vt 2.750004 0.9799926
vt 2.922273 0.9799926
vt 2.922273 0.6499943
vt 2.750004 0.6499943
vt 2.577721 0.9799926
vt 2.577721 0.6499943
vt 2.249994 0.7476156
vt 2.249994 0.6408622
vt 2.479478 0.6408622
vt 2.479478 0.7476156
vt 2.020525 0.7476156
vt 2.020525 0.6408622
vt 2.249994 0.8823864
vt 2.020525 0.8823864
vt 2.249994 0.9891399
vt 2.020525 0.9891399
vt 2.479478 0.8823864
vt 2.479478 0.9891399
vt 2.980019 0.02617782
vt 2.847792 0.1584043
vt 2.980019 0.2131819
vt 2.793015 0.02617782
vt 2.773402 0.232794
vt 2.687821 0.02617782
vt 2.597817 0.02611724
vt 2.709765 0.2964311
vt 2.980019 0.4083792
vt 2.980019 0.3183755
vt 2.980019 0.2131819
vt 2.847792 0.1584043
vt 2.793015 0.02617782
vt 3.010065 0.5553261
vt 3.395432 0.395779
vt 3.313394 0.3136807
vt 3.01002 0.4392588
vt 3.43923 0.01004894
vt 3.555297 0.01000351
vt 3.173505 0.1736699
vt 3.241322 0.01004894
vt 3.01002 0.2413507
vt 3.749995 0.9799926
vt 3.922278 0.9799926
vt 3.922278 0.6499943
vt 3.749995 0.6499943
vt 3.577726 0.9799926
vt 3.577726 0.6499943
vt 3.249999 0.7476156
vt 3.249999 0.6408622
vt 3.479484 0.6408622
vt 3.479484 0.7476156
vt 3.020515 0.7476156
vt 3.020515 0.6408622
vt 3.249999 0.8823864
vt 3.020515 0.8823864
vt 3.249999 0.9891399
vt 3.020515 0.9891399
vt 3.479484 0.8823864
vt 3.479484 0.9891399
vt 3.980024 0.02617782
vt 3.847782 0.1584043
vt 3.980024 0.2131819
vt 3.79302 0.02617782
vt 3.773408 0.232794
vt 3.687826 0.02617782
vt 3.597823 0.02611724
vt 3.709756 0.2964311
vt 3.980024 0.4083792
vt 3.980024 0.3183755
vt 3.980024 0.2131819
vt 3.847782 0.1584043
vt 3.79302 0.02617782
vn -0.9999995 0.0009775162 0
vn -0.9960895 0.06158352 -0.0633501
vn -0.9960895 0.08504391 -0.02394365
vn -0.9960895 0.0009775162 -0.08834483
vn -0.9960895 -0.06158358 -0.06335004
vn -0.9960895 -0.08504397 -0.02394344
vn -0.9960895 -0.06158358 0.06335004
vn -0.9960895 0.0009775162 0.08834483
vn -0.9960895 0.06158352 0.0633501
vn -0.3137828 0.671554 -0.6712344
vn -0.3137828 0.671554 -0.6712344
vn -0.3137828 0.9491687 -0.02488319
vn -0.3137828 0.9491687 -0.02488319
vn -0.3137828 0.0009775162 -0.9494943
vn -0.3137828 0.0009775162 -0.9494943
vn -0.3137828 -0.671554 -0.6712344
vn -0.3137828 -0.671554 -0.6712344
vn -0.3137828 -0.9491687 -0.02488319
vn -0.3137828 -0.9491687 -0.02488319
vn -0.3137828 -0.671554 0.6712344
vn -0.3137828 -0.671554 0.6712344
vn -0.3137828 0.0009775162 0.9494943
vn -0.3137828 0.0009775162 0.9494943
vn -0.3137828 0.671554 0.6712344
vn -0.3137828 0.671554 0.6712344
vn -0.3137828 0.9491687 -0.02488319
vn -0.3137828 0.9491687 -0.02488319
vn -0.6598238 -0.0009775162 -0.7514197
vn -0.6598238 0.5307915 -0.5318768
vn -0.9941344 0.08113384 -0.07151262
vn -0.9941344 -0.0009775162 -0.1081471
vn -0.9862615 0.1651915 0
vn -0.65968 0.7515465 0
vn -0.9882693 -0.1065493 0.1094119
vn -0.9882693 -0.1515151 0.01915464
vn -0.9882693 0.0009775162 0.1527179
vn -0.2961875 -0.675464 0.6752935
vn -0.2961875 0.0009775162 0.9551293
vn -0.2961875 0.0009775162 0.9551293
vn -0.2961875 -0.675464 0.6752935
vn -0.2961875 -0.9550338 0.01354265
vn -0.2961875 -0.9550338 0.01354265
vn -0.04985332 0.7067446 -0.7057102
vn -0.6598238 0.5307915 -0.5318768
vn -0.6598238 -0.0009775162 -0.7514197
vn -0.04985332 -0.0009775162 -0.9987561
vn -0.04985332 0.9980445 -0.03770768
vn -0.65968 0.7515465 0
vn 0.04985332 0.7067446 -0.7057102
vn 0.04985332 0.9980445 -0.03770768
vn 0.6559137 0.5327466 -0.5347507
vn 0.6559137 0.7536653 -0.04202127
vn 0.04985332 -0.0009775162 -0.9987561
vn 0.6559137 -0.0009775162 -0.7548352
vn 0.9999995 0.0009775162 0
vn 0.9999995 0.0009775162 0
vn 0.9999995 0.0009775162 0
vn 0.9999995 0.0009775162 0
vn 0.9960895 0.06549358 -0.05929886
vn 0.9726291 0.2316715 -0.01791722
vn 0.6559137 0.7536653 -0.04202127
vn 0.6559137 0.5327466 -0.5347507
vn 0.6559137 -0.0009775162 -0.7548352
vn 0.9726291 0.0009775162 -0.2323612
vn 0.9765391 0.0009775162 0.2153378
vn 0.9765391 -0.14956 0.1549295
vn 0.9765391 -0.2121211 0.03709401
vn -0.65968 -0.7515465 0
vn -0.6598238 -0.5307915 -0.5318768
vn -0.9941344 -0.0811339 -0.07151256
vn -0.9932238 -0.1162179 0
vn -0.9941344 -0.0009775162 -0.1081471
vn -0.6598238 -0.0009775162 -0.7514197
vn -0.9882693 0.1065493 0.1094119
vn -0.9882693 0.0009775162 0.1527179
vn -0.9882693 0.1515151 -0.01915415
vn -0.2961875 0.675464 0.6752935
vn -0.2961875 0.9550338 -0.01354265
vn -0.2961875 0.9550338 -0.01354265
vn -0.2961875 0.675464 0.6752935
vn -0.2961875 0.0009775162 0.9551293
vn -0.2961875 0.0009775162 0.9551293
vn -0.04985332 -0.7067446 -0.7057102
vn -0.6598238 -0.5307915 -0.5318768
vn -0.65968 -0.7515465 0
vn -0.04985332 -0.9980445 0.03770768
vn -0.04985332 -0.0009775162 -0.9987561
vn -0.6598238 -0.0009775162 -0.7514197
vn 0.04985332 -0.7067446 -0.7057102
vn 0.04985332 -0.0009775162 -0.9987561
vn 0.6559137 -0.5327466 -0.5347507
vn 0.6559137 -0.0009775162 -0.7548352
vn 0.04985332 -0.9980445 0.03770768
vn 0.6559137 -0.7536653 0.04202127
vn 0.9999995 0.0009775162 0
vn 0.9999995 0.0009775162 0
vn 0.9999995 0.0009775162 0
vn 0.9999995 0.0009775162 0
vn 0.9960895 -0.06549364 -0.05929879
vn 0.9726291 0.0009775162 -0.2323612
vn 0.6559137 -0.0009775162 -0.7548352
vn 0.6559137 -0.5327466 -0.5347507
vn 0.6559137 -0.7536653 0.04202127
vn 0.9723428 -0.2335577 0
vn 0.9765391 0.2121211 -0.03709401
vn 0.9765391 0.1495601 0.1549294
vn 0.9765391 0.0009775162 0.2153378
vn -0.6598238 0.0009775162 0.7514197
vn -0.6598238 -0.5307915 0.5318768
vn -0.9941344 -0.0811339 0.07151256
vn -0.9941344 0.0009775162 0.1081471
vn -0.9932238 -0.1162179 0
vn -0.65968 -0.7515465 0
vn -0.9882693 0.1065493 -0.1094119
vn -0.9882693 0.1515151 -0.01915415
vn -0.9882693 -0.0009775162 -0.1527179
vn -0.2961875 0.675464 -0.6752935
vn -0.2961875 -0.0009775162 -0.9551293
vn -0.2961875 -0.0009775162 -0.9551293
vn -0.2961875 0.675464 -0.6752935
vn -0.2961875 0.9550338 -0.01354265
vn -0.2961875 0.9550338 -0.01354265
vn -0.04985332 -0.7067446 0.7057102
vn -0.6598238 -0.5307915 0.5318768
vn -0.6598238 0.0009775162 0.7514197
vn -0.04985332 0.0009775162 0.9987561
vn -0.04985332 -0.9980445 0.03770768
vn -0.65968 -0.7515465 0
vn 0.04985332 -0.7067446 0.7057102
vn 0.04985332 -0.9980445 0.03770768
vn 0.6559137 -0.5327466 0.5347507
vn 0.6559137 -0.7536653 0.04202127
vn 0.04985332 0.0009775162 0.9987561
vn 0.6559137 0.0009775162 0.7548352
vn 0.9999995 0.0009775162 0
vn 0.9999995 0.0009775162 0
vn 0.9999995 0.0009775162 0
vn 0.9999995 0.0009775162 0
vn 0.9960895 -0.06549364 0.05929879
vn 0.9723428 -0.2335577 0
vn 0.6559137 -0.7536653 0.04202127
vn 0.6559137 -0.5327466 0.5347507
vn 0.6559137 0.0009775162 0.7548352
vn 0.9726291 -0.0009775162 0.2323612
vn 0.9765391 -0.0009775162 -0.2153378
vn 0.9765391 0.1495601 -0.1549294
vn 0.9765391 0.2121211 -0.03709401
vn -0.65968 0.7515465 0
vn -0.6598238 0.5307915 0.5318768
vn -0.9941344 0.08113384 0.07151262
vn -0.9862615 0.1651915 0
vn -0.9941344 0.0009775162 0.1081471
vn -0.6598238 0.0009775162 0.7514197
vn -0.9882693 -0.1065493 -0.1094119
vn -0.9882693 -0.0009775162 -0.1527179
vn -0.9882693 -0.1515151 0.01915464
vn -0.2961875 -0.675464 -0.6752935
vn -0.2961875 -0.9550338 0.01354265
vn -0.2961875 -0.9550338 0.01354265
vn -0.2961875 -0.675464 -0.6752935
vn -0.2961875 -0.0009775162 -0.9551293
vn -0.2961875 -0.0009775162 -0.9551293
vn -0.04985332 0.7067446 0.7057102
vn -0.6598238 0.5307915 0.5318768
vn -0.65968 0.7515465 0
vn -0.04985332 0.9980445 -0.03770768
vn -0.04985332 0.0009775162 0.9987561
vn -0.6598238 0.0009775162 0.7514197
vn 0.04985332 0.7067446 0.7057102
vn 0.04985332 0.0009775162 0.9987561
vn 0.6559137 0.5327466 0.5347507
vn 0.6559137 0.0009775162 0.7548352
vn 0.04985332 0.9980445 -0.03770768
vn 0.6559137 0.7536653 -0.04202127
vn 0.9999995 0.0009775162 0
vn 0.9999995 0.0009775162 0
vn 0.9999995 0.0009775162 0
vn 0.9999995 0.0009775162 0
vn 0.9960895 0.06549358 0.05929886
vn 0.9726291 -0.0009775162 0.2323612
vn 0.6559137 0.0009775162 0.7548352
vn 0.6559137 0.5327466 0.5347507
vn 0.6559137 0.7536653 -0.04202127
vn 0.9726291 0.2316715 -0.01791722
vn 0.9765391 -0.2121211 0.03709401
vn 0.9765391 -0.14956 -0.1549295
vn 0.9765391 -0.0009775162 -0.2153378
g TireK_StdSFC_RF_LOD1_0
f 3/3/3 2/2/2 1/1/1
f 1/1/1 2/2/2 4/4/4
f 4/4/4 5/5/5 1/1/1
f 1/1/1 5/5/5 6/6/6
f 6/6/6 7/7/7 1/1/1
f 1/1/1 7/7/7 8/8/8
f 8/8/8 9/9/9 1/1/1
f 1/1/1 9/9/9 3/3/3
f 12/12/12 11/11/11 10/10/10
f 13/13/13 12/12/12 10/10/10
f 14/14/14 10/10/10 11/11/11
f 15/15/15 14/14/14 11/11/11
f 14/14/14 15/15/15 16/16/16
f 15/15/15 17/17/17 16/16/16
f 18/18/18 16/16/16 17/17/17
f 19/19/19 18/18/18 17/17/17
f 18/18/18 19/19/19 20/20/20
f 19/19/19 21/21/21 20/20/20
f 22/22/22 20/20/20 21/21/21
f 23/23/23 22/22/22 21/21/21
f 22/22/22 23/23/23 24/24/24
f 23/23/23 25/25/25 24/24/24
f 26/26/26 24/24/24 25/25/25
f 27/27/27 26/26/26 25/25/25
f 30/30/30 29/29/29 28/28/28
f 31/31/31 30/30/30 28/28/28
f 30/30/30 32/32/32 29/29/29
f 32/32/32 33/33/33 29/29/29
f 32/32/32 30/30/30 34/34/34
f 35/35/35 32/32/32 34/34/34
f 30/30/30 31/31/31 36/36/36
f 34/34/34 30/30/30 36/36/36
f 39/39/39 38/38/38 37/37/37
f 40/40/40 39/39/39 37/37/37
f 40/40/40 37/37/37 41/41/41
f 42/42/42 40/40/40 41/41/41
f 45/45/45 44/44/44 43/43/43
f 46/46/46 45/45/45 43/43/43
f 47/47/47 43/43/43 44/44/44
f 48/48/48 47/47/47 44/44/44
f 49/49/49 43/43/43 47/47/47
f 50/50/50 49/49/49 47/47/47
f 49/49/49 50/50/50 51/51/51
f 50/50/50 52/52/52 51/51/51
f 49/49/49 51/51/51 53/53/53
f 53/53/53 46/46/46 43/43/43
f 49/49/49 53/53/53 43/43/43
f 51/51/51 54/54/54 53/53/53
f 57/57/57 56/56/56 55/55/55
f 55/55/55 56/56/56 58/58/58
f 61/61/61 60/60/60 59/59/59
f 62/62/62 61/61/61 59/59/59
f 62/62/62 59/59/59 63/63/63
f 59/59/59 64/64/64 63/63/63
f 64/64/64 59/59/59 65/65/65
f 59/59/59 66/66/66 65/65/65
f 67/67/67 66/66/66 59/59/59
f 60/60/60 67/67/67 59/59/59
f 70/70/70 69/69/69 68/68/68
f 71/71/71 70/70/70 68/68/68
f 70/70/70 72/72/72 69/69/69
f 72/72/72 73/73/73 69/69/69
f 72/72/72 70/70/70 74/74/74
f 75/75/75 72/72/72 74/74/74
f 70/70/70 71/71/71 76/76/76
f 74/74/74 70/70/70 76/76/76
f 79/79/79 78/78/78 77/77/77
f 80/80/80 79/79/79 77/77/77
f 80/80/80 77/77/77 81/81/81
f 82/82/82 80/80/80 81/81/81
f 85/85/85 84/84/84 83/83/83
f 86/86/86 85/85/85 83/83/83
f 87/87/87 83/83/83 84/84/84
f 88/88/88 87/87/87 84/84/84
f 89/89/89 83/83/83 87/87/87
f 90/90/90 89/89/89 87/87/87
f 89/89/89 90/90/90 91/91/91
f 90/90/90 92/92/92 91/91/91
f 89/89/89 91/91/91 93/93/93
f 93/93/93 86/86/86 83/83/83
f 89/89/89 93/93/93 83/83/83
f 91/91/91 94/94/94 93/93/93
f 97/97/97 96/96/96 95/95/95
f 95/95/95 96/96/96 98/98/98
f 101/101/101 100/100/100 99/99/99
f 102/102/102 101/101/101 99/99/99
f 102/102/102 99/99/99 103/103/103
f 99/99/99 104/104/104 103/103/103
f 104/104/104 99/99/99 105/105/105
f 99/99/99 106/106/106 105/105/105
f 107/107/107 106/106/106 99/99/99
f 100/100/100 107/107/107 99/99/99
f 110/110/110 109/109/109 108/108/108
f 111/111/111 110/110/110 108/108/108
f 110/110/110 112/112/112 109/109/109
f 112/112/112 113/113/113 109/109/109
f 112/112/112 110/110/110 114/114/114
f 115/115/115 112/112/112 114/114/114
f 110/110/110 111/111/111 116/116/116
f 114/114/114 110/110/110 116/116/116
f 119/119/119 118/118/118 117/117/117
f 120/120/120 119/119/119 117/117/117
f 120/120/120 117/117/117 121/121/121
f 122/122/122 120/120/120 121/121/121
f 125/125/125 124/124/124 123/123/123
f 126/126/126 125/125/125 123/123/123
f 127/127/127 123/123/123 124/124/124
f 128/128/128 127/127/127 124/124/124
f 129/129/129 123/123/123 127/127/127
f 130/130/130 129/129/129 127/127/127
f 129/129/129 130/130/130 131/131/131
f 130/130/130 132/132/132 131/131/131
f 129/129/129 131/131/131 133/133/133
f 133/133/133 126/126/126 123/123/123
f 129/129/129 133/133/133 123/123/123
f 131/131/131 134/134/134 133/133/133
f 137/137/137 136/136/136 135/135/135
f 135/135/135 136/136/136 138/138/138
f 141/141/141 140/140/140 139/139/139
f 142/142/142 141/141/141 139/139/139
f 142/142/142 139/139/139 143/143/143
f 139/139/139 144/144/144 143/143/143
f 144/144/144 139/139/139 145/145/145
f 139/139/139 146/146/146 145/145/145
f 147/147/147 146/146/146 139/139/139
f 140/140/140 147/147/147 139/139/139
f 150/150/150 149/149/149 148/148/148
f 151/151/151 150/150/150 148/148/148
f 150/150/150 152/152/152 149/149/149
f 152/152/152 153/153/153 149/149/149
f 152/152/152 150/150/150 154/154/154
f 155/155/155 152/152/152 154/154/154
f 150/150/150 151/151/151 156/156/156
f 154/154/154 150/150/150 156/156/156
f 159/159/159 158/158/158 157/157/157
f 160/160/160 159/159/159 157/157/157
f 160/160/160 157/157/157 161/161/161
f 162/162/162 160/160/160 161/161/161
f 165/165/165 164/164/164 163/163/163
f 166/166/166 165/165/165 163/163/163
f 167/167/167 163/163/163 164/164/164
f 168/168/168 167/167/167 164/164/164
f 169/169/169 163/163/163 167/167/167
f 170/170/170 169/169/169 167/167/167
f 169/169/169 170/170/170 171/171/171
f 170/170/170 172/172/172 171/171/171
f 169/169/169 171/171/171 173/173/173
f 173/173/173 166/166/166 163/163/163
f 169/169/169 173/173/173 163/163/163
f 171/171/171 174/174/174 173/173/173
f 177/177/177 176/176/176 175/175/175
f 175/175/175 176/176/176 178/178/178
f 181/181/181 180/180/180 179/179/179
f 182/182/182 181/181/181 179/179/179
f 182/182/182 179/179/179 183/183/183
f 179/179/179 184/184/184 183/183/183
f 184/184/184 179/179/179 185/185/185
f 179/179/179 186/186/186 185/185/185
f 187/187/187 186/186/186 179/179/179
f 180/180/180 187/187/187 179/179/179
