g Tire_Rear_LOD1
v 4.042295 1.150626 -7.849268
v 2.38468 0.6077156 -7.486648
v 4.042295 0.6078072 -7.486556
v 4.042295 0.2451077 -6.943727
v 2.38468 0.1176128 -6.303433
v 3.935306 0.1176128 -6.303433
v 4.042295 0.1177387 -6.303433
v 4.042295 0.2451077 -5.663128
v 2.38468 0.6077156 -5.120206
v 4.042295 0.6078072 -5.120298
v 2.38468 1.790931 -7.976751
v 4.042295 1.790931 -7.976625
v 4.042295 2.431236 -7.849268
v 2.38468 2.974146 -7.486648
v 4.042295 2.974066 -7.486556
v 4.042295 3.336766 -6.943738
v 2.38468 3.464261 -6.303433
v 4.042295 3.464135 -6.303433
v 4.042295 1.150626 -4.757598
v 2.38468 1.790931 -4.630103
v 4.042295 1.790931 -4.630229
v 4.042295 2.431236 -4.757598
v 2.38468 2.974146 -5.120206
v 4.042295 2.974066 -5.120298
v 4.042295 3.336766 -5.663128
v 2.38468 3.464261 -6.303433
v 4.042295 3.464135 -6.303433
v 2.38468 2.974146 -5.120206
v 2.38468 1.790931 -4.630103
v 2.38468 1.790931 -6.303433
v 2.38468 0.6077156 -5.120206
v 2.38468 0.1176128 -6.303433
v 2.38468 0.6077156 -7.486648
v 2.38468 3.464261 -6.303433
v 2.38468 2.974146 -7.486648
v 2.38468 1.790931 -7.976751
v 4.042295 1.790931 -7.976625
v 4.042295 1.150626 -7.849268
v 4.042295 1.790931 -6.303433
v 4.042295 2.431236 -7.849268
v 4.042295 2.974066 -7.486556
v 4.042295 3.336766 -6.943738
v 4.042295 3.464135 -6.303433
v 4.042295 3.336766 -5.663128
v 4.042295 2.974066 -5.120298
v 4.042295 2.431236 -4.757598
v 4.042295 1.790931 -4.630229
v 4.042295 1.150626 -4.757598
v 4.042295 0.6078072 -5.120298
v 4.042295 0.2451077 -5.663128
v 4.042295 0.1177387 -6.303433
v 4.042295 0.2451077 -6.943727
v 4.042295 0.6078072 -7.486556
v -4.042292 1.150626 -7.849268
v -4.042292 0.6078072 -7.486556
v -2.384676 0.6077156 -7.486648
v -4.042292 0.2451077 -6.943727
v -2.384676 0.1176128 -6.303433
v -3.935314 0.1176128 -6.303433
v -4.042292 0.1177387 -6.303433
v -4.042292 0.2451077 -5.663128
v -2.384676 0.6077156 -5.120206
v -4.042292 0.6078072 -5.120298
v -2.384676 1.790931 -7.976751
v -4.042292 1.790931 -7.976625
v -4.042292 2.431236 -7.849268
v -2.384676 2.974146 -7.486648
v -4.042292 2.974066 -7.486556
v -4.042292 3.336766 -6.943738
v -2.384676 3.464261 -6.303433
v -4.042292 3.464135 -6.303433
v -4.042292 1.150626 -4.757598
v -2.384676 1.790931 -4.630103
v -4.042292 1.790931 -4.630229
v -4.042292 2.431236 -4.757598
v -2.384676 2.974146 -5.120206
v -4.042292 2.974066 -5.120298
v -4.042292 3.336766 -5.663128
v -2.384676 3.464261 -6.303433
v -4.042292 3.464135 -6.303433
v -2.384676 2.974146 -5.120206
v -2.384676 1.790931 -6.303433
v -2.384676 1.790931 -4.630103
v -2.384676 0.6077156 -5.120206
v -2.384676 0.1176128 -6.303433
v -2.384676 0.6077156 -7.486648
v -2.384676 3.464261 -6.303433
v -2.384676 2.974146 -7.486648
v -2.384676 1.790931 -7.976751
v -4.042292 1.790931 -7.976625
v -4.042292 1.790931 -6.303433
v -4.042292 1.150626 -7.849268
v -4.042292 2.431236 -7.849268
v -4.042292 2.974066 -7.486556
v -4.042292 3.336766 -6.943738
v -4.042292 3.464135 -6.303433
v -4.042292 3.336766 -5.663128
v -4.042292 2.974066 -5.120298
v -4.042292 2.431236 -4.757598
v -4.042292 1.790931 -4.630229
v -4.042292 1.150626 -4.757598
v -4.042292 0.6078072 -5.120298
v -4.042292 0.2451077 -5.663128
v -4.042292 0.1177387 -6.303433
v -4.042292 0.2451077 -6.943727
v -4.042292 0.6078072 -7.486556
vt 0.5076106 0.8490394
vt 0.4846842 0.8169739
vt 0.4846842 0.8490394
vt 0.4617578 0.8490394
vt 0.4388314 0.8169739
vt 0.4388314 0.8443049
vt 0.4388314 0.8490394
vt 0.4159049 0.8490394
vt 0.3929785 0.8169739
vt 0.3929785 0.8490394
vt 0.5305371 0.8169739
vt 0.5305371 0.8490394
vt 0.5534635 0.8490394
vt 0.5763899 0.8169739
vt 0.5763899 0.8490394
vt 0.5993164 0.8490394
vt 0.6213102 0.8169739
vt 0.6213102 0.8490394
vt 0.3700377 0.8490394
vt 0.3471113 0.8169739
vt 0.3471113 0.8490394
vt 0.3241849 0.8490394
vt 0.3012584 0.8169739
vt 0.3012584 0.8490394
vt 0.2783751 0.8490394
vt 0.2562234 0.8169739
vt 0.2562234 0.8490394
vt 0.08337133 0.8089396
vt 0.08961226 0.7938897
vt 0.06832138 0.7938897
vt 0.08337133 0.7788398
vt 0.06832138 0.7725988
vt 0.05327144 0.7788398
vt 0.06832138 0.8151662
vt 0.05327144 0.8089396
vt 0.04704486 0.7938897
vt 0.3179727 0.9292818
vt 0.3135682 0.9071015
vt 0.2599967 0.9292818
vt 0.3135682 0.9514766
vt 0.3010002 0.9702854
vt 0.282177 0.9828534
vt 0.2599967 0.9872722
vt 0.2378019 0.9828534
vt 0.2189931 0.9702854
vt 0.2064251 0.9514766
vt 0.2020063 0.9292818
vt 0.2064251 0.9071015
vt 0.2189931 0.8882783
vt 0.2378019 0.8757104
vt 0.2599967 0.8712915
vt 0.282177 0.8757104
vt 0.3010002 0.8882783
vt 0.5076106 0.8490394
vt 0.4846842 0.8490394
vt 0.4846842 0.8169739
vt 0.4617578 0.8490394
vt 0.4388314 0.8169739
vt 0.4388314 0.8443049
vt 0.4388314 0.8490394
vt 0.4159049 0.8490394
vt 0.3929785 0.8169739
vt 0.3929785 0.8490394
vt 0.5305371 0.8169739
vt 0.5305371 0.8490394
vt 0.5534635 0.8490394
vt 0.5763899 0.8169739
vt 0.5763899 0.8490394
vt 0.5993164 0.8490394
vt 0.6213102 0.8169739
vt 0.6213102 0.8490394
vt 0.3700377 0.8490394
vt 0.3471113 0.8169739
vt 0.3471113 0.8490394
vt 0.3241849 0.8490394
vt 0.3012584 0.8169739
vt 0.3012584 0.8490394
vt 0.2783751 0.8490394
vt 0.2562234 0.8169739
vt 0.2562234 0.8490394
vt 0.08337133 0.8089396
vt 0.06832138 0.7938897
vt 0.08961226 0.7938897
vt 0.08337133 0.7788398
vt 0.06832138 0.7725988
vt 0.05327144 0.7788398
vt 0.06832138 0.8151662
vt 0.05327144 0.8089396
vt 0.04704486 0.7938897
vt 0.3179727 0.9292818
vt 0.2599967 0.9292818
vt 0.3135682 0.9071015
vt 0.3135682 0.9514766
vt 0.3010002 0.9702854
vt 0.282177 0.9828534
vt 0.2599967 0.9872722
vt 0.2378019 0.9828534
vt 0.2189931 0.9702854
vt 0.2064251 0.9514766
vt 0.2020063 0.9292818
vt 0.2064251 0.9071015
vt 0.2189931 0.8882783
vt 0.2378019 0.8757104
vt 0.2599967 0.8712915
vt 0.282177 0.8757104
vt 0.3010002 0.8882783
vn 0.5679371 -0.3157379 -0.7601033
vn -0.675464 -0.5210164 -0.5218145
vn 0.6617788 -0.5307915 -0.5294423
vn 0.5679371 -0.7614855 -0.3123897
vn -0.6751493 -0.7376812 0
vn 0.0009775162 -0.9999995 0
vn 0.661751 -0.7497237 0
vn 0.5679371 -0.7614855 0.3123897
vn -0.675464 -0.5210164 0.5218145
vn 0.6617788 -0.5307915 0.5294423
vn -0.675464 0.0009775162 -0.7373923
vn 0.6617788 0.0009775162 -0.7496985
vn 0.5679371 0.3157378 -0.7601033
vn -0.675464 0.5210164 -0.5218145
vn 0.6617788 0.5307915 -0.5294423
vn 0.5679371 0.7614855 -0.3123897
vn -0.6751493 0.7376812 0
vn 0.661751 0.7497237 0
vn 0.5679371 -0.3157379 0.7601033
vn -0.675464 0.0009775162 0.7373923
vn 0.6617788 0.0009775162 0.7496985
vn 0.5679371 0.3157378 0.7601033
vn -0.675464 0.5210164 0.5218145
vn 0.6617788 0.5307915 0.5294423
vn 0.5679371 0.7614855 0.3123897
vn -0.6751493 0.7376812 0
vn 0.661751 0.7497237 0
vn -0.675464 0.5210164 0.5218145
vn -0.675464 0.0009775162 0.7373923
vn -0.9999995 0.0009775162 0
vn -0.675464 -0.5210164 0.5218145
vn -0.6751493 -0.7376812 0
vn -0.675464 -0.5210164 -0.5218145
vn -0.6751493 0.7376812 0
vn -0.675464 0.5210164 -0.5218145
vn -0.675464 0.0009775162 -0.7373923
vn 0.6617788 0.0009775162 -0.7496985
vn 0.5679371 -0.3157379 -0.7601033
vn 0.9999995 0.0009775162 0
vn 0.5679371 0.3157378 -0.7601033
vn 0.6617788 0.5307915 -0.5294423
vn 0.5679371 0.7614855 -0.3123897
vn 0.661751 0.7497237 0
vn 0.5679371 0.7614855 0.3123897
vn 0.6617788 0.5307915 0.5294423
vn 0.5679371 0.3157378 0.7601033
vn 0.6617788 0.0009775162 0.7496985
vn 0.5679371 -0.3157379 0.7601033
vn 0.6617788 -0.5307915 0.5294423
vn 0.5679371 -0.7614855 0.3123897
vn 0.661751 -0.7497237 0
vn 0.5679371 -0.7614855 -0.3123897
vn 0.6617788 -0.5307915 -0.5294423
vn -0.5679371 -0.3157379 -0.7601033
vn -0.6617788 -0.5307915 -0.5294423
vn 0.675464 -0.5210164 -0.5218145
vn -0.5679371 -0.7614855 -0.3123897
vn 0.6751493 -0.7376812 0
vn -0.0009775162 -0.9999995 0
vn -0.661751 -0.7497237 0
vn -0.5679371 -0.7614855 0.3123897
vn 0.675464 -0.5210164 0.5218145
vn -0.6617788 -0.5307915 0.5294423
vn 0.675464 0.0009775162 -0.7373923
vn -0.6617788 0.0009775162 -0.7496985
vn -0.5679371 0.3157378 -0.7601033
vn 0.675464 0.5210164 -0.5218145
vn -0.6617788 0.5307915 -0.5294423
vn -0.5679371 0.7614855 -0.3123897
vn 0.6751493 0.7376812 0
vn -0.661751 0.7497237 0
vn -0.5679371 -0.3157379 0.7601033
vn 0.675464 0.0009775162 0.7373923
vn -0.6617788 0.0009775162 0.7496985
vn -0.5679371 0.3157378 0.7601033
vn 0.675464 0.5210164 0.5218145
vn -0.6617788 0.5307915 0.5294423
vn -0.5679371 0.7614855 0.3123897
vn 0.6751493 0.7376812 0
vn -0.661751 0.7497237 0
vn 0.675464 0.5210164 0.5218145
vn 0.9999995 0.0009775162 0
vn 0.675464 0.0009775162 0.7373923
vn 0.675464 -0.5210164 0.5218145
vn 0.6751493 -0.7376812 0
vn 0.675464 -0.5210164 -0.5218145
vn 0.6751493 0.7376812 0
vn 0.675464 0.5210164 -0.5218145
vn 0.675464 0.0009775162 -0.7373923
vn -0.6617788 0.0009775162 -0.7496985
vn -0.9999995 0.0009775162 0
vn -0.5679371 -0.3157379 -0.7601033
vn -0.5679371 0.3157378 -0.7601033
vn -0.6617788 0.5307915 -0.5294423
vn -0.5679371 0.7614855 -0.3123897
vn -0.661751 0.7497237 0
vn -0.5679371 0.7614855 0.3123897
vn -0.6617788 0.5307915 0.5294423
vn -0.5679371 0.3157378 0.7601033
vn -0.6617788 0.0009775162 0.7496985
vn -0.5679371 -0.3157379 0.7601033
vn -0.6617788 -0.5307915 0.5294423
vn -0.5679371 -0.7614855 0.3123897
vn -0.661751 -0.7497237 0
vn -0.5679371 -0.7614855 -0.3123897
vn -0.6617788 -0.5307915 -0.5294423
g Tire_Rear_LOD1_0
f 3/3/3 2/2/2 1/1/1
f 2/2/2 3/3/3 4/4/4
f 5/5/5 2/2/2 4/4/4
f 6/6/6 5/5/5 4/4/4
f 7/7/7 6/6/6 4/4/4
f 6/6/6 7/7/7 8/8/8
f 5/5/5 6/6/6 8/8/8
f 9/9/9 5/5/5 8/8/8
f 10/10/10 9/9/9 8/8/8
f 2/2/2 11/11/11 1/1/1
f 11/11/11 12/12/12 1/1/1
f 12/12/12 11/11/11 13/13/13
f 11/11/11 14/14/14 13/13/13
f 14/14/14 15/15/15 13/13/13
f 15/15/15 14/14/14 16/16/16
f 14/14/14 17/17/17 16/16/16
f 17/17/17 18/18/18 16/16/16
f 9/9/9 10/10/10 19/19/19
f 20/20/20 9/9/9 19/19/19
f 21/21/21 20/20/20 19/19/19
f 20/20/20 21/21/21 22/22/22
f 23/23/23 20/20/20 22/22/22
f 24/24/24 23/23/23 22/22/22
f 23/23/23 24/24/24 25/25/25
f 26/26/26 23/23/23 25/25/25
f 27/27/27 26/26/26 25/25/25
f 30/30/30 29/29/29 28/28/28
f 31/31/31 29/29/29 30/30/30
f 32/32/32 31/31/31 30/30/30
f 32/32/32 30/30/30 33/33/33
f 34/34/34 30/30/30 28/28/28
f 34/34/34 35/35/35 30/30/30
f 35/35/35 36/36/36 30/30/30
f 30/30/30 36/36/36 33/33/33
f 39/39/39 38/38/38 37/37/37
f 40/40/40 39/39/39 37/37/37
f 40/40/40 41/41/41 39/39/39
f 41/41/41 42/42/42 39/39/39
f 42/42/42 43/43/43 39/39/39
f 43/43/43 44/44/44 39/39/39
f 44/44/44 45/45/45 39/39/39
f 45/45/45 46/46/46 39/39/39
f 46/46/46 47/47/47 39/39/39
f 39/39/39 47/47/47 48/48/48
f 39/39/39 48/48/48 49/49/49
f 39/39/39 49/49/49 50/50/50
f 39/39/39 50/50/50 51/51/51
f 39/39/39 51/51/51 52/52/52
f 39/39/39 52/52/52 53/53/53
f 39/39/39 53/53/53 38/38/38
f 56/56/56 55/55/55 54/54/54
f 55/55/55 56/56/56 57/57/57
f 56/56/56 58/58/58 57/57/57
f 58/58/58 59/59/59 57/57/57
f 59/59/59 60/60/60 57/57/57
f 59/59/59 58/58/58 61/61/61
f 60/60/60 59/59/59 61/61/61
f 58/58/58 62/62/62 61/61/61
f 62/62/62 63/63/63 61/61/61
f 64/64/64 56/56/56 54/54/54
f 65/65/65 64/64/64 54/54/54
f 64/64/64 65/65/65 66/66/66
f 67/67/67 64/64/64 66/66/66
f 68/68/68 67/67/67 66/66/66
f 67/67/67 68/68/68 69/69/69
f 70/70/70 67/67/67 69/69/69
f 71/71/71 70/70/70 69/69/69
f 63/63/63 62/62/62 72/72/72
f 62/62/62 73/73/73 72/72/72
f 73/73/73 74/74/74 72/72/72
f 74/74/74 73/73/73 75/75/75
f 73/73/73 76/76/76 75/75/75
f 76/76/76 77/77/77 75/75/75
f 77/77/77 76/76/76 78/78/78
f 76/76/76 79/79/79 78/78/78
f 79/79/79 80/80/80 78/78/78
f 83/83/83 82/82/82 81/81/81
f 83/83/83 84/84/84 82/82/82
f 84/84/84 85/85/85 82/82/82
f 82/82/82 85/85/85 86/86/86
f 82/82/82 87/87/87 81/81/81
f 88/88/88 87/87/87 82/82/82
f 89/89/89 88/88/88 82/82/82
f 89/89/89 82/82/82 86/86/86
f 92/92/92 91/91/91 90/90/90
f 91/91/91 93/93/93 90/90/90
f 94/94/94 93/93/93 91/91/91
f 95/95/95 94/94/94 91/91/91
f 96/96/96 95/95/95 91/91/91
f 97/97/97 96/96/96 91/91/91
f 98/98/98 97/97/97 91/91/91
f 99/99/99 98/98/98 91/91/91
f 100/100/100 99/99/99 91/91/91
f 100/100/100 91/91/91 101/101/101
f 101/101/101 91/91/91 102/102/102
f 102/102/102 91/91/91 103/103/103
f 103/103/103 91/91/91 104/104/104
f 104/104/104 91/91/91 105/105/105
f 105/105/105 91/91/91 106/106/106
f 106/106/106 91/91/91 92/92/92
