g TireK_Std_RF_LOD2
v -0.1805411 0.104574 0.1036211
v -0.1805411 -8.940697E-08 0.1465425
v -0.1690131 -8.940697E-08 -8.940697E-08
v -0.1805411 0.1478901 -8.940697E-08
v -0.1805411 -8.940697E-08 0.1465425
v -0.1805411 -0.1045742 0.1036214
v -0.1690131 -8.940697E-08 -8.940697E-08
v -0.1805411 -0.14789 -8.940697E-08
v -0.1805411 -0.14789 -8.940697E-08
v -0.1805411 -0.1045742 -0.1036212
v -0.1690131 -8.940697E-08 -8.940697E-08
v -0.1805411 -8.940697E-08 -0.1465427
v -0.1805411 -8.940697E-08 -0.1465427
v -0.1805411 0.104574 -0.1036212
v -0.1690131 -8.940697E-08 -8.940697E-08
v -0.1805411 0.1478901 -8.940697E-08
v -0.1590215 0.120956 -0.119854
v -0.1590215 0.1710578 2.606213E-05
v -0.1805411 0.1478901 -8.940697E-08
v -0.1805411 0.104574 -0.1036212
v -0.1590215 -8.940697E-08 -0.1694991
v -0.1805411 -8.940697E-08 -0.1465427
v 0.009021625 -8.940697E-08 -0.1694991
v 0.009021625 0.120956 -0.119854
v 0.009021625 0.1710578 -8.940697E-08
v 0.03054088 -8.940697E-08 -0.1463771
v 0.03054088 0.104456 -0.1035042
v 0.03054088 0.1477228 -8.940697E-08
v -0.1590215 -0.1209561 -0.119854
v -0.1590215 -8.940697E-08 -0.1694991
v -0.1805411 -8.940697E-08 -0.1465427
v -0.1805411 -0.1045742 -0.1036212
v -0.1590215 -0.1710576 -8.940697E-08
v -0.1805411 -0.14789 -8.940697E-08
v 0.009021625 -0.1710576 -8.940697E-08
v 0.009021625 -0.1209561 -0.119854
v 0.009021625 -8.940697E-08 -0.1694991
v 0.03054088 -0.147723 -8.940697E-08
v 0.03054088 -0.1044558 -0.1035042
v 0.03054088 -8.940697E-08 -0.1463771
v -0.1590215 -0.1209558 0.1198541
v -0.1590215 -0.1710576 -8.940697E-08
v -0.1805411 -0.14789 -8.940697E-08
v -0.1805411 -0.1045742 0.1036214
v -0.1590215 2.384186E-07 0.1694989
v -0.1805411 -8.940697E-08 0.1465425
v 0.009021625 2.384186E-07 0.1694989
v 0.009021625 -0.1209558 0.1198541
v 0.009021625 -0.1710576 -8.940697E-08
v 0.03054088 -8.940697E-08 0.1463769
v 0.03054088 -0.1044558 0.1035044
v 0.03054088 -0.147723 -8.940697E-08
v -0.1590215 0.120956 0.1198538
v -0.1590215 2.384186E-07 0.1694989
v -0.1805411 -8.940697E-08 0.1465425
v -0.1805411 0.104574 0.1036211
v -0.1590215 0.1710578 2.606213E-05
v -0.1805411 0.1478901 -8.940697E-08
v 0.009021625 0.120956 0.1198538
v 0.009021625 2.384186E-07 0.1694989
v 0.009021625 0.1710578 -8.940697E-08
v 0.03054088 0.1477228 -8.940697E-08
v 0.03054088 0.104456 0.103504
v 0.03054088 -8.940697E-08 0.1463769
v 0.03054088 0.1477228 -8.940697E-08
v 0.03628911 -0.004416138 -8.940697E-08
v 0.03054088 0.104456 0.103504
v 0.03054088 -8.940697E-08 0.1463769
v 0.03054088 -8.940697E-08 -0.1463771
v 0.03054088 -0.1044558 -0.1035042
v 0.03628911 -0.004416138 -8.940697E-08
v 0.03054088 -0.147723 -8.940697E-08
v 0.03054088 0.104456 -0.1035042
v 0.03054088 -8.940697E-08 -0.1463771
v 0.03628911 -0.004416138 -8.940697E-08
v 0.03054088 0.1477228 -8.940697E-08
v 0.03054088 -0.1044558 0.1035044
v 0.03054088 -8.940697E-08 0.1463769
v 0.03628911 -0.004416138 -8.940697E-08
v 0.03054088 -0.147723 -8.940697E-08
vt 0.261084 0.261084
vt 0.3651512 0.009850502
vt 0.009850502 0.009850502
vt 0.009850502 0.3650904
vt -0.5526571 0.009850502
vt -0.4485898 0.261084
vt -0.1973563 0.009850502
vt -0.1973411 0.3651512
vt -0.9901562 0.3651512
vt -0.7389075 0.261084
vt -0.9901562 0.009850502
vt -0.6348403 0.009850502
vt 0.4473495 0.009850502
vt 0.5514169 0.261084
vt 0.8026503 0.009850502
vt 0.8026503 0.3651512
vt 0.3281201 0.5050482
vt 0.02479982 0.5050482
vt 0.02479982 0.4305905
vt 0.3281201 0.4305905
vt 0.6314405 0.5050482
vt 0.6314405 0.4305905
vt 0.6314405 0.9011971
vt 0.3281201 0.9011971
vt 0.02479982 0.9011971
vt 0.6314405 0.9756547
vt 0.3281201 0.9756699
vt 0.02479982 0.9756699
vt -0.6718713 0.5050482
vt -0.9751917 0.5050482
vt -0.9751917 0.4305905
vt -0.6718713 0.4305905
vt -0.368551 0.5050482
vt -0.368551 0.4305905
vt -0.368551 0.9011971
vt -0.6718713 0.9011971
vt -0.9751917 0.9011971
vt -0.368551 0.9756547
vt -0.6718713 0.9756699
vt -0.9751917 0.9756699
vt 2.328118 0.5050482
vt 2.024798 0.5050482
vt 2.024798 0.4305905
vt 2.328118 0.4305905
vt 2.631454 0.5050482
vt 2.631454 0.4305905
vt 2.631454 0.9011971
vt 2.328118 0.9011971
vt 2.024798 0.9011971
vt 2.631454 0.9756547
vt 2.328118 0.9756699
vt 2.024798 0.9756699
vt 1.328127 0.5050482
vt 1.024806 0.5050482
vt 1.024806 0.4305905
vt 1.328127 0.4305905
vt 1.631447 0.5050482
vt 1.631447 0.4305905
vt 1.328127 0.9011971
vt 1.024806 0.9011971
vt 1.631447 0.9011971
vt 1.631447 0.9756547
vt 1.328127 0.9756699
vt 1.024806 0.9756699
vt -0.3464692 0.9973259
vt -0.00353241 0.9973259
vt -0.2460214 0.75397
vt -0.00353241 0.6535223
vt 1.996466 0.6535223
vt 1.753977 0.75397
vt 1.996466 0.9973259
vt 1.653529 0.9973259
vt 2.753968 0.75397
vt 2.65352 0.9973259
vt 2.996472 0.9973259
vt 2.996472 0.6535223
vt 0.75397 0.75397
vt 0.6535223 0.9973259
vt 0.9964743 0.9973259
vt 0.9964743 0.6535223
vn -0.9648089 0.1847507 0.187112
vn -0.9648089 0.0009775162 0.2629501
vn -0.9999995 0.0009775162 0
vn -0.9648089 0.262952 0
vn -0.9648089 0.0009775162 0.2629501
vn -0.9648089 -0.1847506 0.1871121
vn -0.9999995 0.0009775162 0
vn -0.9648089 -0.262952 0
vn -0.9648089 -0.262952 0
vn -0.9648089 -0.1847506 -0.1871121
vn -0.9999995 0.0009775162 0
vn -0.9648089 0.0009775162 -0.2629501
vn -0.9648089 0.0009775162 -0.2629501
vn -0.9648089 0.1847507 -0.187112
vn -0.9999995 0.0009775162 0
vn -0.9648089 0.262952 0
vn -0.09481907 0.7008795 -0.7069494
vn -0.09476294 0.9954998 0
vn -0.9648089 0.262952 0
vn -0.9648089 0.1847507 -0.187112
vn -0.09481907 0.0009775162 -0.9954941
vn -0.9648089 0.0009775162 -0.2629501
vn 0.09481913 0.0009775162 -0.9954941
vn 0.09481913 0.7008795 -0.7069494
vn 0.09669879 0.9953137 0
vn 0.9433036 0.0009775162 -0.3319298
vn 0.9452586 0.2297164 -0.2317682
vn 0.9463134 0.3232505 0
vn -0.09481907 -0.7008795 -0.7069494
vn -0.09481907 0.0009775162 -0.9954941
vn -0.9648089 0.0009775162 -0.2629501
vn -0.9648089 -0.1847506 -0.1871121
vn -0.09476294 -0.9954998 0
vn -0.9648089 -0.262952 0
vn 0.09669879 -0.9953137 0
vn 0.09481913 -0.7008795 -0.7069494
vn 0.09481913 0.0009775162 -0.9954941
vn 0.9413486 -0.3352882 -0.03800967
vn 0.9433036 -0.2336265 -0.2357902
vn 0.9433036 0.0009775162 -0.3319298
vn -0.09481907 -0.7008795 0.7069494
vn -0.09476294 -0.9954998 0
vn -0.9648089 -0.262952 0
vn -0.9648089 -0.1847506 0.1871121
vn -0.09481907 0.0009775162 0.9954941
vn -0.9648089 0.0009775162 0.2629501
vn 0.09481913 0.0009775162 0.9954941
vn 0.09481913 -0.7008795 0.7069494
vn 0.09669879 -0.9953137 0
vn 0.9433036 0.0009775162 0.3319298
vn 0.9433036 -0.2336265 0.2357902
vn 0.9413486 -0.3352882 -0.03800967
vn -0.09481907 0.7008795 0.7069494
vn -0.09481907 0.0009775162 0.9954941
vn -0.9648089 0.0009775162 0.2629501
vn -0.9648089 0.1847507 0.187112
vn -0.09476294 0.9954998 0
vn -0.9648089 0.262952 0
vn 0.09481913 0.7008795 0.7069494
vn 0.09481913 0.0009775162 0.9954941
vn 0.09669879 0.9953137 0
vn 0.9463134 0.3232505 0
vn 0.9452586 0.2297164 0.2317682
vn 0.9433036 0.0009775162 0.3319298
vn 0.9463134 0.3232505 0
vn 0.9999995 -0.0009775162 0
vn 0.9452586 0.2297164 0.2317682
vn 0.9433036 0.0009775162 0.3319298
vn 0.9433036 0.0009775162 -0.3319298
vn 0.9433036 -0.2336265 -0.2357902
vn 0.9999995 -0.0009775162 0
vn 0.9413486 -0.3352882 -0.03800967
vn 0.9452586 0.2297164 -0.2317682
vn 0.9433036 0.0009775162 -0.3319298
vn 0.9999995 -0.0009775162 0
vn 0.9463134 0.3232505 0
vn 0.9433036 -0.2336265 0.2357902
vn 0.9433036 0.0009775162 0.3319298
vn 0.9999995 -0.0009775162 0
vn 0.9413486 -0.3352882 -0.03800967
g TireK_Std_RF_LOD2_0
f 3/3/3 2/2/2 1/1/1
f 1/1/1 4/4/4 3/3/3
f 7/7/7 6/6/6 5/5/5
f 7/7/7 8/8/8 6/6/6
f 11/11/11 10/10/10 9/9/9
f 11/11/11 12/12/12 10/10/10
f 15/15/15 14/14/14 13/13/13
f 15/15/15 16/16/16 14/14/14
f 19/19/19 18/18/18 17/17/17
f 20/20/20 19/19/19 17/17/17
f 20/20/20 17/17/17 21/21/21
f 22/22/22 20/20/20 21/21/21
f 21/21/21 17/17/17 23/23/23
f 17/17/17 24/24/24 23/23/23
f 17/17/17 18/18/18 24/24/24
f 18/18/18 25/25/25 24/24/24
f 23/23/23 24/24/24 26/26/26
f 24/24/24 27/27/27 26/26/26
f 24/24/24 25/25/25 27/27/27
f 25/25/25 28/28/28 27/27/27
f 31/31/31 30/30/30 29/29/29
f 32/32/32 31/31/31 29/29/29
f 32/32/32 29/29/29 33/33/33
f 34/34/34 32/32/32 33/33/33
f 33/33/33 29/29/29 35/35/35
f 29/29/29 36/36/36 35/35/35
f 29/29/29 30/30/30 36/36/36
f 30/30/30 37/37/37 36/36/36
f 35/35/35 36/36/36 38/38/38
f 36/36/36 39/39/39 38/38/38
f 36/36/36 37/37/37 39/39/39
f 37/37/37 40/40/40 39/39/39
f 43/43/43 42/42/42 41/41/41
f 44/44/44 43/43/43 41/41/41
f 44/44/44 41/41/41 45/45/45
f 46/46/46 44/44/44 45/45/45
f 45/45/45 41/41/41 47/47/47
f 41/41/41 48/48/48 47/47/47
f 41/41/41 42/42/42 48/48/48
f 42/42/42 49/49/49 48/48/48
f 47/47/47 48/48/48 50/50/50
f 48/48/48 51/51/51 50/50/50
f 48/48/48 49/49/49 51/51/51
f 49/49/49 52/52/52 51/51/51
f 55/55/55 54/54/54 53/53/53
f 56/56/56 55/55/55 53/53/53
f 53/53/53 57/57/57 56/56/56
f 57/57/57 58/58/58 56/56/56
f 53/53/53 54/54/54 59/59/59
f 54/54/54 60/60/60 59/59/59
f 53/53/53 59/59/59 61/61/61
f 57/57/57 53/53/53 61/61/61
f 61/61/61 59/59/59 62/62/62
f 59/59/59 63/63/63 62/62/62
f 59/59/59 60/60/60 63/63/63
f 60/60/60 64/64/64 63/63/63
f 67/67/67 66/66/66 65/65/65
f 66/66/66 67/67/67 68/68/68
f 71/71/71 70/70/70 69/69/69
f 72/72/72 70/70/70 71/71/71
f 75/75/75 74/74/74 73/73/73
f 75/75/75 73/73/73 76/76/76
f 79/79/79 78/78/78 77/77/77
f 79/79/79 77/77/77 80/80/80
