g TireK_Block_LF_LOD2
v 0.1326747 -0.1073658 -0.2107171
v 0.1326747 -0.2107171 -0.1073658
v 0.1144803 -2.086163E-07 2.384186E-07
v 0.1326747 -2.086163E-07 -0.2394411
v 0.1326747 -0.2394411 2.384186E-07
v 0.1326747 0.1073658 -0.2107171
v 0.1326747 -2.086163E-07 -0.2394411
v 0.1144803 -2.086163E-07 2.384186E-07
v 0.1326747 0.2107171 -0.1073654
v 0.1326747 0.2394411 2.384186E-07
v 0.1326747 0.2107171 0.1073658
v 0.1326747 0.2394411 2.384186E-07
v 0.1144803 -2.086163E-07 2.384186E-07
v 0.1326747 0.1073658 0.2107171
v 0.1326747 -2.086163E-07 0.2394411
v 0.1326747 -0.1073658 0.2107171
v 0.1326747 -2.086163E-07 0.2394411
v 0.1144803 -2.086163E-07 2.384186E-07
v 0.1326747 -0.2107171 0.1073658
v 0.1326747 -0.2394411 2.384186E-07
v 0.008247271 -0.1073334 -0.2106536
v 0.02644166 -2.086163E-07 2.384186E-07
v 0.008247271 -0.2106541 -0.1073334
v 0.008247271 -2.086163E-07 -0.2393694
v 0.008247271 -0.2393694 2.384186E-07
v 0.008247271 0.1073334 -0.2106536
v 0.02644166 -2.086163E-07 2.384186E-07
v 0.008247271 -2.086163E-07 -0.2393694
v 0.008247271 0.2106536 -0.1073334
v 0.008247271 0.2393694 2.384186E-07
v 0.008247271 0.2106536 0.1073334
v 0.02644166 -2.086163E-07 2.384186E-07
v 0.008247271 0.2393694 2.384186E-07
v 0.008247271 0.1073334 0.2106536
v 0.008247271 -2.086163E-07 0.2393694
v 0.008247271 -0.1073334 0.2106536
v 0.02644166 -2.086163E-07 2.384186E-07
v 0.008247271 -2.086163E-07 0.2393694
v 0.008247271 -0.2106536 0.1073334
v 0.008247271 -0.2393694 2.384186E-07
v 0.1326747 0.2394411 2.384186E-07
v 0.1326747 0.2107171 0.1073658
v 0.008247271 0.2393694 2.384186E-07
v 0.008247271 0.2106536 0.1073334
v 0.008247271 0.2106536 -0.1073334
v 0.1326747 0.2107171 -0.1073654
v 0.008247271 0.1073334 -0.2106536
v 0.1326747 0.1073658 -0.2107171
v 0.008247271 -2.086163E-07 -0.2393694
v 0.1326747 -2.086163E-07 -0.2394411
v 0.008247271 -0.1073334 -0.2106536
v 0.1326747 -0.1073658 -0.2107171
v 0.008247271 -0.2106541 -0.1073334
v 0.1326747 -0.2107171 -0.1073658
v 0.1326747 0.1073658 0.2107171
v 0.008247271 0.1073334 0.2106536
v 0.1326747 -2.086163E-07 0.2394411
v 0.008247271 -2.086163E-07 0.2393694
v 0.1326747 -0.1073658 0.2107171
v 0.008247271 -0.1073334 0.2106536
v 0.1326747 -0.2107171 0.1073658
v 0.008247271 -0.2106536 0.1073334
v 0.1326747 -0.2394411 2.384186E-07
v 0.008247271 -0.2393694 2.384186E-07
v 0.1326747 -0.2107171 -0.1073658
v 0.008247271 -0.2106541 -0.1073334
vt -0.6833197 -0.3875266
vt -0.3875593 -0.6833034
vt -0.9906117 -0.9911109
vt -0.9905953 -0.3053163
vt -0.3053491 -0.990538
vt -0.3875512 0.3166988
vt -0.3053491 0.009423256
vt -0.9906034 0.008882999
vt -0.6833197 0.6124754
vt -0.9905871 0.6946776
vt -1.387537 0.3166988
vt -1.305343 0.009406805
vt -1.990597 0.008882999
vt -1.683322 0.6124673
vt -1.990581 0.6946695
vt -1.387545 -0.6833034
vt -1.305343 -0.9905871
vt -1.990606 -0.9911191
vt -1.683322 -0.3875266
vt -1.990589 -0.3053246
vt 0.3166742 -0.3875266
vt 0.009390473 -0.9911109
vt 0.6124427 -0.6833034
vt 0.009406805 -0.3053163
vt 0.694653 -0.990538
vt 0.6124511 0.3166988
vt 0.009390473 0.008882999
vt 0.694653 0.009423256
vt 0.3166742 0.6124754
vt 0.009414911 0.6946776
vt 1.612461 0.3166988
vt 1.009401 0.008882999
vt 1.694663 0.009406805
vt 1.316676 0.6124673
vt 1.009425 0.6946695
vt 1.612453 -0.6833034
vt 1.009392 -0.9911191
vt 1.694655 -0.9905871
vt 1.316676 -0.3875266
vt 1.009417 -0.3053246
vt -0.001044393 0.9772778
vt 0.2988245 0.9772778
vt -0.001044393 0.7279217
vt 0.2988245 0.7279217
vt -0.3013144 0.7279217
vt -0.3013144 0.9772778
vt -0.7021106 0.7279217
vt -0.7021106 0.9772778
vt -1.001971 0.7279217
vt -1.001971 0.9772778
vt -1.302249 0.7279217
vt -1.302249 0.9772778
vt -1.70262 0.7279217
vt -1.70262 0.9772778
vt 0.6996126 0.9772778
vt 0.6996126 0.7279217
vt 0.9998908 0.9772778
vt 0.9998908 0.7279217
vt 1.299751 0.9772778
vt 1.299751 0.7279217
vt 1.70054 0.9772778
vt 1.70054 0.7279217
vt 2.000818 0.9772778
vt 2.000818 0.7279217
vt 2.300261 0.9772778
vt 2.300261 0.7279217
vn 0.9960895 0.04007816 0.07873694
vn 0.9960895 0.06549358 0.05929886
vn 0.9999995 0.0009775162 0
vn 0.9980445 0.0009775162 0.06249999
vn 0.9971683 0.07520267 0
vn 0.9960895 -0.04007816 0.07873694
vn 0.9980445 0.0009775162 0.06249999
vn 0.9999995 0.0009775162 0
vn 0.9960895 -0.06549364 0.05929879
vn 0.9971683 -0.07520273 0
vn 0.9960895 -0.06549364 -0.05929879
vn 0.9971683 -0.07520273 0
vn 0.9999995 0.0009775162 0
vn 0.9960895 -0.04007816 -0.07873694
vn 0.9980445 0.0009775162 -0.06249999
vn 0.9960895 0.04007816 -0.07873694
vn 0.9980445 0.0009775162 -0.06249999
vn 0.9999995 0.0009775162 0
vn 0.9960895 0.06549358 -0.05929886
vn 0.9971683 0.07520267 0
vn -0.9960895 0.04007816 0.07873694
vn -0.9999995 0.0009775162 0
vn -0.9960895 0.06549358 0.05929886
vn -0.9980445 0.0009775162 0.06249999
vn -0.9971683 0.07520267 0
vn -0.9960895 -0.04007816 0.07873694
vn -0.9999995 0.0009775162 0
vn -0.9980445 0.0009775162 0.06249999
vn -0.9960895 -0.06549364 0.05929879
vn -0.9971683 -0.07520273 0
vn -0.9960895 -0.06549364 -0.05929879
vn -0.9999995 0.0009775162 0
vn -0.9971683 -0.07520273 0
vn -0.9960895 -0.04007816 -0.07873694
vn -0.9980445 0.0009775162 -0.06249999
vn -0.9960895 0.04007816 -0.07873694
vn -0.9999995 0.0009775162 0
vn -0.9980445 0.0009775162 -0.06249999
vn -0.9960895 0.06549358 -0.05929886
vn -0.9971683 0.07520267 0
vn -0.0009775162 0.9999995 0
vn -0.0009775162 0.8475069 0.5307835
vn -0.0009775162 0.9999995 0
vn -0.0009775162 0.8475069 0.5307835
vn -0.0009775162 0.8475069 -0.5307835
vn -0.0009775162 0.8475069 -0.5307835
vn -0.0009775162 0.5307915 -0.8475019
vn -0.0009775162 0.5307915 -0.8475019
vn -0.0009775162 0.0009775162 -0.999999
vn -0.0009775162 0.0009775162 -0.999999
vn -0.0009775162 -0.5307915 -0.8475019
vn -0.0009775162 -0.5307915 -0.8475019
vn -0.0009775162 -0.8475069 -0.5307834
vn -0.0009775162 -0.8475069 -0.5307834
vn -0.0009775162 0.5307915 0.8475019
vn -0.0009775162 0.5307915 0.8475019
vn -0.0009775162 0.0009775162 0.999999
vn -0.0009775162 0.0009775162 0.999999
vn -0.0009775162 -0.5307915 0.8475019
vn -0.0009775162 -0.5307915 0.8475019
vn -0.0009775162 -0.8475069 0.5307834
vn -0.0009775162 -0.8475069 0.5307834
vn -0.0009775162 -0.9999995 0
vn -0.0009775162 -0.9999995 0
vn -0.0009775162 -0.8475069 -0.5307834
vn -0.0009775162 -0.8475069 -0.5307834
g TireK_Block_LF_LOD2_0
f 3/3/3 2/2/2 1/1/1
f 3/3/3 1/1/1 4/4/4
f 3/3/3 5/5/5 2/2/2
f 8/8/8 7/7/7 6/6/6
f 8/8/8 6/6/6 9/9/9
f 8/8/8 9/9/9 10/10/10
f 13/13/13 12/12/12 11/11/11
f 13/13/13 11/11/11 14/14/14
f 13/13/13 14/14/14 15/15/15
f 18/18/18 17/17/17 16/16/16
f 18/18/18 16/16/16 19/19/19
f 18/18/18 19/19/19 20/20/20
f 23/23/23 22/22/22 21/21/21
f 21/21/21 22/22/22 24/24/24
f 25/25/25 22/22/22 23/23/23
f 28/28/28 27/27/27 26/26/26
f 26/26/26 27/27/27 29/29/29
f 29/29/29 27/27/27 30/30/30
f 33/33/33 32/32/32 31/31/31
f 31/31/31 32/32/32 34/34/34
f 34/34/34 32/32/32 35/35/35
f 38/38/38 37/37/37 36/36/36
f 36/36/36 37/37/37 39/39/39
f 39/39/39 37/37/37 40/40/40
f 43/43/43 42/42/42 41/41/41
f 43/43/43 44/44/44 42/42/42
f 45/45/45 43/43/43 41/41/41
f 45/45/45 41/41/41 46/46/46
f 47/47/47 45/45/45 46/46/46
f 47/47/47 46/46/46 48/48/48
f 49/49/49 47/47/47 48/48/48
f 49/49/49 48/48/48 50/50/50
f 51/51/51 49/49/49 50/50/50
f 51/51/51 50/50/50 52/52/52
f 53/53/53 51/51/51 52/52/52
f 53/53/53 52/52/52 54/54/54
f 44/44/44 55/55/55 42/42/42
f 44/44/44 56/56/56 55/55/55
f 56/56/56 57/57/57 55/55/55
f 56/56/56 58/58/58 57/57/57
f 58/58/58 59/59/59 57/57/57
f 58/58/58 60/60/60 59/59/59
f 60/60/60 61/61/61 59/59/59
f 60/60/60 62/62/62 61/61/61
f 62/62/62 63/63/63 61/61/61
f 62/62/62 64/64/64 63/63/63
f 64/64/64 65/65/65 63/63/63
f 64/64/64 66/66/66 65/65/65
