g TireK_Big_LF_LOD2
v -0.08342716 2.682209E-07 2.682209E-07
v -0.09787631 -0.1627345 2.682209E-07
v -0.09787631 2.682209E-07 -0.1627345
v -0.05483833 -0.2993154 2.682209E-07
v -0.05483833 -0.2120654 -0.2120654
v -0.09787631 -0.1627345 2.682209E-07
v -0.09787631 2.682209E-07 -0.1627345
v -0.05483833 2.682209E-07 -0.2993154
v -0.09787631 2.682209E-07 0.1627345
v -0.05483833 2.682209E-07 0.2993154
v -0.05483833 -0.2120654 0.2120654
v -0.09787631 -0.1627345 2.682209E-07
v -0.05483833 -0.2993154 2.682209E-07
v -0.09787631 0.1627345 2.682209E-07
v -0.05483833 0.2993154 2.682209E-07
v -0.05483833 0.2120654 0.2120654
v -0.09787631 2.682209E-07 0.1627345
v -0.05483833 2.682209E-07 0.2993154
v -0.09787631 2.682209E-07 -0.1627345
v -0.05483833 2.682209E-07 -0.2993154
v -0.05483833 0.2120654 -0.2120654
v -0.09787631 0.1627345 2.682209E-07
v -0.05483833 0.2993154 2.682209E-07
v 0.2548384 0.212119 0.212119
v 0.2548384 2.682209E-07 0.2993919
v -0.05483833 0.2120654 0.2120654
v -0.05483833 2.682209E-07 0.2993154
v -0.05483833 0.2993154 2.682209E-07
v 0.2548384 0.2993919 2.682209E-07
v 0.2978764 0.1390744 2.682209E-07
v 0.1544161 2.682209E-07 2.682209E-07
v 0.2978764 2.682209E-07 0.1390744
v 0.2548384 2.682209E-07 -0.2993919
v 0.2548384 0.212119 -0.2121191
v -0.05483833 2.682209E-07 -0.2993154
v -0.05483833 0.2120654 -0.2120654
v 0.2548384 0.2993919 2.682209E-07
v -0.05483833 0.2993154 2.682209E-07
v 0.2978764 0.1390744 2.682209E-07
v 0.2978764 2.682209E-07 -0.1390744
v 0.1544161 2.682209E-07 2.682209E-07
v 0.2548384 2.682209E-07 0.2993919
v 0.2548384 -0.2121191 0.212119
v -0.05483833 2.682209E-07 0.2993154
v -0.05483833 -0.2120654 0.2120654
v 0.2548384 -0.2993919 2.682209E-07
v -0.05483833 -0.2993154 2.682209E-07
v 0.2978764 -0.1390744 2.682209E-07
v 0.2978764 2.682209E-07 0.1390744
v 0.1544161 2.682209E-07 2.682209E-07
v 0.2548384 -0.2121191 -0.2121191
v 0.2548384 2.682209E-07 -0.2993919
v -0.05483833 -0.2120654 -0.2120654
v -0.05483833 2.682209E-07 -0.2993154
v -0.05483833 -0.2993154 2.682209E-07
v 0.2548384 -0.2993919 2.682209E-07
v 0.2978764 -0.1390744 2.682209E-07
v 0.1544161 2.682209E-07 2.682209E-07
v 0.2978764 2.682209E-07 -0.1390744
v 0.2548384 -0.2993919 2.682209E-07
v 0.2548384 -0.2121191 0.212119
v 0.2978764 -0.1390744 2.682209E-07
v 0.2978764 2.682209E-07 0.1390744
v 0.2548384 2.682209E-07 0.2993919
v 0.2978764 2.682209E-07 -0.1390744
v 0.2548384 2.682209E-07 -0.2993919
v 0.2548384 -0.2121191 -0.2121191
v 0.2978764 -0.1390744 2.682209E-07
v 0.2548384 -0.2993919 2.682209E-07
v 0.2978764 0.1390744 2.682209E-07
v 0.2548384 0.2993919 2.682209E-07
v 0.2548384 0.212119 -0.2121191
v 0.2978764 2.682209E-07 -0.1390744
v 0.2548384 2.682209E-07 -0.2993919
v 0.2978764 2.682209E-07 0.1390744
v 0.2548384 2.682209E-07 0.2993919
v 0.2548384 0.212119 0.212119
v 0.2978764 0.1390744 2.682209E-07
v 0.2548384 0.2993919 2.682209E-07
v -0.08342716 2.682209E-07 2.682209E-07
v -0.09787631 2.682209E-07 -0.1627345
v -0.09787631 0.1627345 2.682209E-07
v -0.09787631 0.1627345 2.682209E-07
v -0.09787631 2.682209E-07 0.1627345
v -0.08342716 2.682209E-07 2.682209E-07
v -0.09787631 2.682209E-07 0.1627345
v -0.09787631 -0.1627345 2.682209E-07
v -0.08342716 2.682209E-07 2.682209E-07
vt 1.968796 0.9688156
vt 1.968796 0.686729
vt 1.686709 0.9688156
vt 1.593747 0.7721961
vt 1.83681 0.6493126
vt 1.593747 0.6273525
vt 1.814865 0.4062495
vt 1.959694 0.4062495
vt 0.5937514 0.2523636
vt 0.5937514 0.3971921
vt 0.8368146 0.2743237
vt 0.8148695 0.03124553
vt 0.9596981 0.03124553
vt -0.406244 0.6273675
vt -0.406244 0.7721961
vt -0.1631809 0.6493126
vt -0.185141 0.4062495
vt -0.04031253 0.4062495
vt 2.593758 0.2523636
vt 2.593758 0.3971921
vt 2.836821 0.2743237
vt 2.814861 0.03124553
vt 2.959689 0.03124553
vt -0.7343688 0.687495
vt -0.5000026 0.687495
vt -0.7343688 0.3437488
vt -0.5000026 0.3437488
vt -0.96875 0.3437488
vt -0.96875 0.687495
vt -0.481332 0.03047949
vt -0.6436595 0.1247637
vt -0.481332 0.2190629
vt 2.031252 0.687495
vt 2.265618 0.687495
vt 2.031252 0.3437488
vt 2.265618 0.3437488
vt 2.499999 0.687495
vt 2.499999 0.3437488
vt 2.51867 0.2190629
vt 2.51867 0.03047949
vt 2.356327 0.1247637
vt 0.03124553 0.687495
vt 0.2656268 0.687495
vt 0.03124553 0.3437488
vt 0.2656268 0.3437488
vt 0.499993 0.687495
vt 0.499993 0.3437488
vt 0.5186635 0.2190629
vt 0.5186635 0.03047949
vt 0.3563361 0.1247637
vt 1.265622 0.687495
vt 1.500004 0.687495
vt 1.265622 0.3437488
vt 1.500004 0.3437488
vt 1.031256 0.3437488
vt 1.031256 0.687495
vt 1.518659 0.03047949
vt 1.356332 0.1247637
vt 1.518674 0.2190629
vt 0.5937514 0.7721961
vt 0.8368146 0.6493126
vt 0.5937514 0.5738492
vt 0.7613512 0.4062495
vt 0.9596981 0.4062495
vt 1.593747 0.1988453
vt 1.593747 0.3971921
vt 1.836825 0.2743237
vt 1.761347 0.03124553
vt 1.959694 0.03124553
vt 2.593743 0.5738492
vt 2.593758 0.7721961
vt 2.836821 0.6493126
vt 2.761342 0.4062495
vt 2.959689 0.4062495
vt -0.4062591 0.1988453
vt -0.406244 0.3971921
vt -0.1631809 0.2743237
vt -0.2386594 0.03124553
vt -0.04029751 0.03124553
vt 2.968791 0.9688156
vt 2.968791 0.686729
vt 2.686705 0.9688156
vt -0.03121006 0.686729
vt -0.3132967 0.9688156
vt -0.03121006 0.9688156
vt 0.9687855 0.686729
vt 0.6867139 0.9688156
vt 0.9687855 0.9688156
vn -0.9999995 0.0009775162 0
vn -0.9862615 -0.1651915 0
vn -0.9863143 0.0009775162 -0.1648732
vn -0.2920944 -0.9563895 0
vn -0.3450633 -0.6637338 -0.6636179
vn -0.9862615 -0.1651915 0
vn -0.9863143 0.0009775162 -0.1648732
vn -0.2922775 0.0009775162 -0.9563331
vn -0.9863143 0.0009775162 0.1648732
vn -0.2922775 -0.0009775162 0.9563331
vn -0.3450633 -0.6637338 0.6636179
vn -0.9862615 -0.1651915 0
vn -0.2920944 -0.9563895 0
vn -0.9862615 0.1651915 0
vn -0.2920944 0.9563895 0
vn -0.3450633 0.6637338 0.6636179
vn -0.9863143 0.0009775162 0.1648732
vn -0.2922775 -0.0009775162 0.9563331
vn -0.9863143 0.0009775162 -0.1648732
vn -0.2922775 0.0009775162 -0.9563331
vn -0.3450633 0.6637338 -0.6636179
vn -0.9862615 0.1651915 0
vn -0.2920944 0.9563895 0
vn 0.3528835 0.6617788 0.6614545
vn 0.3352882 -0.0009775162 0.9421151
vn -0.3450633 0.6637338 0.6636179
vn -0.2922775 -0.0009775162 0.9563331
vn -0.2920944 0.9563895 0
vn 0.3352882 0.9413486 0.03800996
vn 0.9994802 -0.03224128 0
vn 0.9999995 0.0009775162 0
vn 0.9999995 0.0009775162 0
vn 0.3352882 0.0009775162 -0.9421151
vn 0.3528835 0.6617788 -0.6614545
vn -0.2922775 0.0009775162 -0.9563331
vn -0.3450633 0.6637338 -0.6636179
vn 0.3352882 0.9413486 0.03800996
vn -0.2920944 0.9563895 0
vn 0.9994802 -0.03224128 0
vn 0.9999995 0.0009775162 0
vn 0.9999995 0.0009775162 0
vn 0.3352882 -0.0009775162 0.9421151
vn 0.3528835 -0.6617788 0.6614545
vn -0.2922775 -0.0009775162 0.9563331
vn -0.3450633 -0.6637338 0.6636179
vn 0.3352882 -0.9413486 -0.03800996
vn -0.2920944 -0.9563895 0
vn 0.9994802 0.03224128 0
vn 0.9999995 0.0009775162 0
vn 0.9999995 0.0009775162 0
vn 0.3528835 -0.6617788 -0.6614545
vn 0.3352882 0.0009775162 -0.9421151
vn -0.3450633 -0.6637338 -0.6636179
vn -0.2922775 0.0009775162 -0.9563331
vn -0.2920944 -0.9563895 0
vn 0.3352882 -0.9413486 -0.03800996
vn 0.9994802 0.03224128 0
vn 0.9999995 0.0009775162 0
vn 0.9999995 0.0009775162 0
vn 0.3352882 -0.9413486 -0.03800996
vn 0.3528835 -0.6617788 0.6614545
vn 0.9994802 0.03224128 0
vn 0.9999995 0.0009775162 0
vn 0.3352882 -0.0009775162 0.9421151
vn 0.9999995 0.0009775162 0
vn 0.3352882 0.0009775162 -0.9421151
vn 0.3528835 -0.6617788 -0.6614545
vn 0.9994802 0.03224128 0
vn 0.3352882 -0.9413486 -0.03800996
vn 0.9994802 -0.03224128 0
vn 0.3352882 0.9413486 0.03800996
vn 0.3528835 0.6617788 -0.6614545
vn 0.9999995 0.0009775162 0
vn 0.3352882 0.0009775162 -0.9421151
vn 0.9999995 0.0009775162 0
vn 0.3352882 -0.0009775162 0.9421151
vn 0.3528835 0.6617788 0.6614545
vn 0.9994802 -0.03224128 0
vn 0.3352882 0.9413486 0.03800996
vn -0.9999995 0.0009775162 0
vn -0.9863143 0.0009775162 -0.1648732
vn -0.9862615 0.1651915 0
vn -0.9862615 0.1651915 0
vn -0.9863143 0.0009775162 0.1648732
vn -0.9999995 0.0009775162 0
vn -0.9863143 0.0009775162 0.1648732
vn -0.9862615 -0.1651915 0
vn -0.9999995 0.0009775162 0
g TireK_Big_LF_LOD2_0
f 3/3/3 2/2/2 1/1/1
f 6/6/6 5/5/5 4/4/4
f 6/6/6 7/7/7 5/5/5
f 7/7/7 8/8/8 5/5/5
f 11/11/11 10/10/10 9/9/9
f 12/12/12 11/11/11 9/9/9
f 12/12/12 13/13/13 11/11/11
f 16/16/16 15/15/15 14/14/14
f 17/17/17 16/16/16 14/14/14
f 17/17/17 18/18/18 16/16/16
f 21/21/21 20/20/20 19/19/19
f 22/22/22 21/21/21 19/19/19
f 22/22/22 23/23/23 21/21/21
f 26/26/26 25/25/25 24/24/24
f 27/27/27 25/25/25 26/26/26
f 26/26/26 24/24/24 28/28/28
f 28/28/28 24/24/24 29/29/29
f 32/32/32 31/31/31 30/30/30
f 35/35/35 34/34/34 33/33/33
f 36/36/36 34/34/34 35/35/35
f 36/36/36 37/37/37 34/34/34
f 38/38/38 37/37/37 36/36/36
f 41/41/41 40/40/40 39/39/39
f 44/44/44 43/43/43 42/42/42
f 45/45/45 43/43/43 44/44/44
f 45/45/45 46/46/46 43/43/43
f 47/47/47 46/46/46 45/45/45
f 50/50/50 49/49/49 48/48/48
f 53/53/53 52/52/52 51/51/51
f 54/54/54 52/52/52 53/53/53
f 53/53/53 51/51/51 55/55/55
f 55/55/55 51/51/51 56/56/56
f 59/59/59 58/58/58 57/57/57
f 62/62/62 61/61/61 60/60/60
f 62/62/62 63/63/63 61/61/61
f 63/63/63 64/64/64 61/61/61
f 67/67/67 66/66/66 65/65/65
f 67/67/67 65/65/65 68/68/68
f 69/69/69 67/67/67 68/68/68
f 72/72/72 71/71/71 70/70/70
f 72/72/72 70/70/70 73/73/73
f 74/74/74 72/72/72 73/73/73
f 77/77/77 76/76/76 75/75/75
f 77/77/77 75/75/75 78/78/78
f 79/79/79 77/77/77 78/78/78
f 82/82/82 81/81/81 80/80/80
f 85/85/85 84/84/84 83/83/83
f 88/88/88 87/87/87 86/86/86
