g Tire_Front_LOD1
v 3.760296 0.1873908 10.12215
v 3.760296 0.5636358 9.559069
v 2.855578 0.5636358 9.559069
v 2.855578 0.1873908 10.12215
v 2.855578 1.126735 9.182823
v 3.760296 1.126735 9.182823
v 2.855578 1.790939 9.050705
v 3.760296 1.790939 9.050705
v 2.855578 2.455143 9.182823
v 3.760296 2.455143 9.182823
v 2.855578 3.018226 9.559069
v 3.760296 3.018226 9.559069
v 2.855578 3.394471 10.12215
v 3.760296 3.394471 10.12215
v 2.855578 3.526589 10.78637
v 3.760296 3.526589 10.78637
v 3.760296 0.05527258 10.78637
v 2.855578 0.05527258 10.78637
v 3.628863 0.05340362 10.78637
v 3.760296 0.1873908 11.45058
v 2.98701 0.05340362 10.78637
v 2.855578 0.1873908 11.45058
v 3.760296 0.5636358 12.01366
v 2.855578 0.5636358 12.01366
v 3.760296 1.126735 12.3899
v 2.855578 1.126735 12.3899
v 3.760296 1.790939 12.52202
v 2.855578 1.790939 12.52202
v 3.760296 2.455143 12.3899
v 2.855578 2.455143 12.3899
v 3.760296 3.018226 12.01366
v 2.855578 3.018226 12.01366
v 3.760296 3.394471 11.45056
v 2.855578 3.394471 11.45056
v 3.760296 3.526589 10.78637
v 2.855578 3.526589 10.78637
v 2.855578 3.018226 9.559069
v 2.855578 3.394471 10.12215
v 2.855578 3.394471 11.45056
v 2.855578 3.018226 12.01366
v 2.855578 2.455143 12.3899
v 2.855578 2.455143 9.182823
v 2.855578 1.790939 9.050705
v 2.855578 1.790939 12.52202
v 2.855578 3.526589 10.78637
v 2.855578 1.126735 9.182823
v 2.855578 1.126735 12.3899
v 2.855578 0.5636358 9.559069
v 2.855578 0.5636358 12.01366
v 2.855578 0.1873908 10.12215
v 2.855578 0.1873908 11.45058
v 2.855578 0.05527258 10.78637
v 3.760296 1.790939 9.050705
v 3.760296 1.126735 9.182823
v 3.810887 1.790939 10.78637
v 3.760296 2.455143 9.182823
v 3.760296 3.018226 9.559069
v 3.760296 3.394471 10.12215
v 3.760296 3.526589 10.78637
v 3.760296 3.394471 11.45056
v 3.760296 3.018226 12.01366
v 3.760296 2.455143 12.3899
v 3.760296 1.790939 12.52202
v 3.760296 1.126735 12.3899
v 3.760296 0.5636358 12.01366
v 3.760296 0.1873908 11.45058
v 3.760296 0.05527258 10.78637
v 3.760296 0.1873908 10.12215
v 3.760296 0.5636358 9.559069
v -3.760296 0.1873908 10.12215
v -2.855578 0.1873908 10.12215
v -2.855578 0.5636358 9.559069
v -3.760296 0.5636358 9.559069
v -2.855578 1.126735 9.182823
v -3.760296 1.126735 9.182823
v -2.855578 1.790939 9.050705
v -3.760296 1.790939 9.050705
v -2.855578 2.455143 9.182823
v -3.760296 2.455143 9.182823
v -2.855578 3.018226 9.559069
v -3.760296 3.018226 9.559069
v -2.855578 3.394471 10.12215
v -3.760296 3.394471 10.12215
v -2.855578 3.526589 10.78637
v -3.760296 3.526589 10.78637
v -2.855578 0.05527258 10.78637
v -3.760296 0.05527258 10.78637
v -2.987011 0.05340362 10.78637
v -2.855578 0.1873908 11.45058
v -3.628863 0.05340362 10.78637
v -3.760296 0.1873908 11.45058
v -3.760296 0.5636358 12.01366
v -2.855578 0.5636358 12.01366
v -3.760296 1.126735 12.3899
v -2.855578 1.126735 12.3899
v -3.760296 1.790939 12.52202
v -2.855578 1.790939 12.52202
v -3.760296 2.455143 12.3899
v -2.855578 2.455143 12.3899
v -3.760296 3.018226 12.01366
v -2.855578 3.018226 12.01366
v -3.760296 3.394471 11.45056
v -2.855578 3.394471 11.45056
v -3.760296 3.526589 10.78637
v -2.855578 3.526589 10.78637
v -2.855578 3.018226 9.559069
v -2.855578 3.018226 12.01366
v -2.855578 3.394471 11.45056
v -2.855578 3.394471 10.12215
v -2.855578 2.455143 12.3899
v -2.855578 2.455143 9.182823
v -2.855578 1.790939 9.050705
v -2.855578 1.790939 12.52202
v -2.855578 3.526589 10.78637
v -2.855578 1.126735 9.182823
v -2.855578 1.126735 12.3899
v -2.855578 0.5636358 9.559069
v -2.855578 0.5636358 12.01366
v -2.855578 0.1873908 10.12215
v -2.855578 0.1873908 11.45058
v -2.855578 0.05527258 10.78637
v -3.760296 1.790939 9.050705
v -3.810888 1.790939 10.78637
v -3.760296 1.126735 9.182823
v -3.760296 2.455143 9.182823
v -3.760296 3.018226 9.559069
v -3.760296 3.394471 10.12215
v -3.760296 3.526589 10.78637
v -3.760296 3.394471 11.45056
v -3.760296 3.018226 12.01366
v -3.760296 2.455143 12.3899
v -3.760296 1.790939 12.52202
v -3.760296 1.126735 12.3899
v -3.760296 0.5636358 12.01366
v -3.760296 0.1873908 11.45058
v -3.760296 0.05527258 10.78637
v -3.760296 0.1873908 10.12215
v -3.760296 0.5636358 9.559069
vt 0.4617578 0.8490394
vt 0.4846842 0.8490394
vt 0.4846842 0.8169739
vt 0.4617578 0.8169739
vt 0.5076106 0.8169739
vt 0.5076106 0.8490394
vt 0.5305371 0.8169739
vt 0.5305371 0.8490394
vt 0.5534635 0.8169739
vt 0.5534635 0.8490394
vt 0.5763899 0.8169739
vt 0.5763899 0.8490394
vt 0.5993164 0.8169739
vt 0.5993164 0.8490394
vt 0.6213102 0.8169739
vt 0.6213102 0.8490394
vt 0.4388314 0.8490394
vt 0.4388314 0.8169739
vt 0.4388314 0.8443049
vt 0.4159049 0.8490394
vt 0.4388314 0.8218089
vt 0.4159049 0.8169739
vt 0.3929785 0.8490394
vt 0.3929785 0.8169739
vt 0.3700377 0.8490394
vt 0.3700377 0.8169739
vt 0.3471113 0.8490394
vt 0.3471113 0.8169739
vt 0.3241849 0.8490394
vt 0.3241849 0.8169739
vt 0.3012584 0.8490394
vt 0.3012584 0.8169739
vt 0.2783751 0.8490394
vt 0.2783751 0.8169739
vt 0.2562234 0.8490394
vt 0.2562234 0.8169739
vt 0.05327144 0.8089396
vt 0.06018667 0.813545
vt 0.07647045 0.813545
vt 0.08337133 0.8089396
vt 0.08799105 0.8020244
vt 0.04866606 0.8020244
vt 0.04704486 0.7938897
vt 0.08961226 0.7938897
vt 0.06832138 0.8151662
vt 0.04866606 0.7857406
vt 0.08799105 0.7857406
vt 0.05327144 0.7788398
vt 0.08337133 0.7788398
vt 0.06018667 0.77422
vt 0.07647045 0.77422
vt 0.06832138 0.7725988
vt 0.3179727 0.9292818
vt 0.3135682 0.9071015
vt 0.2599967 0.9292818
vt 0.3135682 0.9514766
vt 0.3010002 0.9702854
vt 0.282177 0.9828534
vt 0.2599967 0.9872722
vt 0.2378019 0.9828534
vt 0.2189931 0.9702854
vt 0.2064251 0.9514766
vt 0.2020063 0.9292818
vt 0.2064251 0.9071015
vt 0.2189931 0.8882783
vt 0.2378019 0.8757104
vt 0.2599967 0.8712915
vt 0.282177 0.8757104
vt 0.3010002 0.8882783
vt 0.4617578 0.8490394
vt 0.4617578 0.8169739
vt 0.4846842 0.8169739
vt 0.4846842 0.8490394
vt 0.5076106 0.8169739
vt 0.5076106 0.8490394
vt 0.5305371 0.8169739
vt 0.5305371 0.8490394
vt 0.5534635 0.8169739
vt 0.5534635 0.8490394
vt 0.5763899 0.8169739
vt 0.5763899 0.8490394
vt 0.5993164 0.8169739
vt 0.5993164 0.8490394
vt 0.6213102 0.8169739
vt 0.6213102 0.8490394
vt 0.4388314 0.8169739
vt 0.4388314 0.8490394
vt 0.4388314 0.8218089
vt 0.4159049 0.8169739
vt 0.4388314 0.8443049
vt 0.4159049 0.8490394
vt 0.3929785 0.8490394
vt 0.3929785 0.8169739
vt 0.3700377 0.8490394
vt 0.3700377 0.8169739
vt 0.3471113 0.8490394
vt 0.3471113 0.8169739
vt 0.3241849 0.8490394
vt 0.3241849 0.8169739
vt 0.3012584 0.8490394
vt 0.3012584 0.8169739
vt 0.2783751 0.8490394
vt 0.2783751 0.8169739
vt 0.2562234 0.8490394
vt 0.2562234 0.8169739
vt 0.05327144 0.8089396
vt 0.08337133 0.8089396
vt 0.07647045 0.813545
vt 0.06018667 0.813545
vt 0.08799105 0.8020244
vt 0.04866606 0.8020244
vt 0.04704486 0.7938897
vt 0.08961226 0.7938897
vt 0.06832138 0.8151662
vt 0.04866606 0.7857406
vt 0.08799105 0.7857406
vt 0.05327144 0.7788398
vt 0.08337133 0.7788398
vt 0.06018667 0.77422
vt 0.07647045 0.77422
vt 0.06832138 0.7725988
vt 0.3179727 0.9292818
vt 0.2599967 0.9292818
vt 0.3135682 0.9071015
vt 0.3135682 0.9514766
vt 0.3010002 0.9702854
vt 0.282177 0.9828534
vt 0.2599967 0.9872722
vt 0.2378019 0.9828534
vt 0.2189931 0.9702854
vt 0.2064251 0.9514766
vt 0.2020063 0.9292818
vt 0.2064251 0.9071015
vt 0.2189931 0.8882783
vt 0.2378019 0.8757104
vt 0.2599967 0.8712915
vt 0.282177 0.8757104
vt 0.3010002 0.8882783
vn 0.6344083 -0.7145647 -0.2948277
vn 0.6344083 -0.5464318 -0.5467526
vn -0.8983378 -0.3098727 -0.3113968
vn -0.6969694 -0.6617788 -0.2761929
vn -0.9452586 -0.1241446 -0.3017851
vn 0.6344083 -0.2961875 -0.7140021
vn -0.9550338 0.0009775162 -0.2964954
vn 0.6344083 0.0009775162 -0.7729975
vn -0.9452586 0.1241446 -0.3017851
vn 0.6344083 0.2961875 -0.7140021
vn -0.8983378 0.3098727 -0.3113968
vn 0.6344083 0.5464318 -0.5467526
vn -0.6969694 0.6617788 -0.2761929
vn 0.6344083 0.7145647 -0.2948277
vn -0.1260794 0.9920202 0
vn 0.6343017 0.7730857 0
vn 0.6324533 -0.7732157 -0.04626513
vn -0.1260794 -0.9920202 0
vn -0.0009775162 -0.9999995 0
vn 0.6344083 -0.7145647 0.2948277
vn -0.0009775162 -0.9999995 0
vn -0.6969694 -0.6617788 0.2761929
vn 0.6344083 -0.5464318 0.5467526
vn -0.8983378 -0.3098727 0.3113968
vn 0.6344083 -0.2961875 0.7140021
vn -0.9452586 -0.1241446 0.3017851
vn 0.6344083 0.0009775162 0.7729975
vn -0.9550338 0.0009775162 0.2964954
vn 0.6344083 0.2961875 0.7140021
vn -0.9452586 0.1241446 0.3017851
vn 0.6344083 0.5464318 0.5467526
vn -0.8983378 0.3098727 0.3113968
vn 0.6344083 0.7145647 0.2948277
vn -0.6969694 0.6617788 0.2761929
vn 0.6343017 0.7730857 0
vn -0.1260794 0.9920202 0
vn -0.8983378 0.3098727 -0.3113968
vn -0.6969694 0.6617788 -0.2761929
vn -0.6969694 0.6617788 0.2761929
vn -0.8983378 0.3098727 0.3113968
vn -0.9452586 0.1241446 0.3017851
vn -0.9452586 0.1241446 -0.3017851
vn -0.9550338 0.0009775162 -0.2964954
vn -0.9550338 0.0009775162 0.2964954
vn -0.1260794 0.9920202 0
vn -0.9452586 -0.1241446 -0.3017851
vn -0.9452586 -0.1241446 0.3017851
vn -0.8983378 -0.3098727 -0.3113968
vn -0.8983378 -0.3098727 0.3113968
vn -0.6969694 -0.6617788 -0.2761929
vn -0.6969694 -0.6617788 0.2761929
vn -0.1260794 -0.9920202 0
vn 0.6344083 0.0009775162 -0.7729975
vn 0.6344083 -0.2961875 -0.7140021
vn 0.9999995 0.0009775162 0
vn 0.6344083 0.2961875 -0.7140021
vn 0.6344083 0.5464318 -0.5467526
vn 0.6344083 0.7145647 -0.2948277
vn 0.6343017 0.7730857 0
vn 0.6344083 0.7145647 0.2948277
vn 0.6344083 0.5464318 0.5467526
vn 0.6344083 0.2961875 0.7140021
vn 0.6344083 0.0009775162 0.7729975
vn 0.6344083 -0.2961875 0.7140021
vn 0.6344083 -0.5464318 0.5467526
vn 0.6344083 -0.7145647 0.2948277
vn 0.6324533 -0.7732157 -0.04626513
vn 0.6344083 -0.7145647 -0.2948277
vn 0.6344083 -0.5464318 -0.5467526
vn -0.6344084 -0.7145647 -0.2948277
vn 0.6969694 -0.6617788 -0.2761929
vn 0.8983378 -0.3098727 -0.311397
vn -0.6344084 -0.5464318 -0.5467526
vn 0.9452586 -0.1241446 -0.3017851
vn -0.6344084 -0.2961875 -0.7140021
vn 0.9550338 0.0009775162 -0.2964954
vn -0.6344084 0.0009775162 -0.7729975
vn 0.9452586 0.1241446 -0.3017851
vn -0.6344084 0.2961875 -0.7140021
vn 0.8983378 0.3098727 -0.311397
vn -0.6344084 0.5464318 -0.5467526
vn 0.6969694 0.6617788 -0.2761929
vn -0.6344084 0.7145647 -0.2948277
vn 0.1260794 0.9920202 0
vn -0.6343017 0.7730856 0
vn 0.1260794 -0.9920202 0
vn -0.6324533 -0.7732157 -0.04626384
vn -0.0009775162 -0.9999995 0
vn 0.6969694 -0.6617788 0.2761929
vn -0.0009775162 -0.9999995 0
vn -0.6344084 -0.7145647 0.2948277
vn -0.6344084 -0.5464318 0.5467526
vn 0.8983378 -0.3098727 0.311397
vn -0.6344084 -0.2961875 0.7140021
vn 0.9452586 -0.1241446 0.3017851
vn -0.6344084 0.0009775162 0.7729975
vn 0.9550338 0.0009775162 0.2964954
vn -0.6344084 0.2961875 0.7140021
vn 0.9452586 0.1241446 0.3017851
vn -0.6344084 0.5464318 0.5467526
vn 0.8983378 0.3098727 0.311397
vn -0.6344084 0.7145647 0.2948277
vn 0.6969694 0.6617788 0.2761929
vn -0.6343017 0.7730856 0
vn 0.1260794 0.9920202 0
vn 0.8983378 0.3098727 -0.311397
vn 0.8983378 0.3098727 0.311397
vn 0.6969694 0.6617788 0.2761929
vn 0.6969694 0.6617788 -0.2761929
vn 0.9452586 0.1241446 0.3017851
vn 0.9452586 0.1241446 -0.3017851
vn 0.9550338 0.0009775162 -0.2964954
vn 0.9550338 0.0009775162 0.2964954
vn 0.1260794 0.9920202 0
vn 0.9452586 -0.1241446 -0.3017851
vn 0.9452586 -0.1241446 0.3017851
vn 0.8983378 -0.3098727 -0.311397
vn 0.8983378 -0.3098727 0.311397
vn 0.6969694 -0.6617788 -0.2761929
vn 0.6969694 -0.6617788 0.2761929
vn 0.1260794 -0.9920202 0
vn -0.6344084 0.0009775162 -0.7729975
vn -0.9999995 0.0009775162 0
vn -0.6344084 -0.2961875 -0.7140021
vn -0.6344084 0.2961875 -0.7140021
vn -0.6344084 0.5464318 -0.5467526
vn -0.6344084 0.7145647 -0.2948277
vn -0.6343017 0.7730856 0
vn -0.6344084 0.7145647 0.2948277
vn -0.6344084 0.5464318 0.5467526
vn -0.6344084 0.2961875 0.7140021
vn -0.6344084 0.0009775162 0.7729975
vn -0.6344084 -0.2961875 0.7140021
vn -0.6344084 -0.5464318 0.5467526
vn -0.6344084 -0.7145647 0.2948277
vn -0.6324533 -0.7732157 -0.04626384
vn -0.6344084 -0.7145647 -0.2948277
vn -0.6344084 -0.5464318 -0.5467526
g Tire_Front_LOD1_0
f 3/3/3 2/2/2 1/1/1
f 4/4/4 3/3/3 1/1/1
f 3/3/3 5/5/5 2/2/2
f 5/5/5 6/6/6 2/2/2
f 5/5/5 7/7/7 6/6/6
f 7/7/7 8/8/8 6/6/6
f 7/7/7 9/9/9 8/8/8
f 9/9/9 10/10/10 8/8/8
f 9/9/9 11/11/11 10/10/10
f 11/11/11 12/12/12 10/10/10
f 11/11/11 13/13/13 12/12/12
f 13/13/13 14/14/14 12/12/12
f 13/13/13 15/15/15 14/14/14
f 15/15/15 16/16/16 14/14/14
f 4/4/4 1/1/1 17/17/17
f 17/17/17 18/18/18 4/4/4
f 17/17/17 19/19/19 18/18/18
f 19/19/19 17/17/17 20/20/20
f 20/20/20 21/21/21 19/19/19
f 20/20/20 18/18/18 21/21/21
f 19/19/19 21/21/21 18/18/18
f 20/20/20 22/22/22 18/18/18
f 22/22/22 20/20/20 23/23/23
f 24/24/24 22/22/22 23/23/23
f 24/24/24 23/23/23 25/25/25
f 26/26/26 24/24/24 25/25/25
f 26/26/26 25/25/25 27/27/27
f 28/28/28 26/26/26 27/27/27
f 28/28/28 27/27/27 29/29/29
f 30/30/30 28/28/28 29/29/29
f 30/30/30 29/29/29 31/31/31
f 32/32/32 30/30/30 31/31/31
f 32/32/32 31/31/31 33/33/33
f 34/34/34 32/32/32 33/33/33
f 34/34/34 33/33/33 35/35/35
f 36/36/36 34/34/34 35/35/35
f 39/39/39 38/38/38 37/37/37
f 40/40/40 39/39/39 37/37/37
f 40/40/40 37/37/37 41/41/41
f 37/37/37 42/42/42 41/41/41
f 42/42/42 43/43/43 41/41/41
f 43/43/43 44/44/44 41/41/41
f 39/39/39 45/45/45 38/38/38
f 44/44/44 43/43/43 46/46/46
f 47/47/47 44/44/44 46/46/46
f 47/47/47 46/46/46 48/48/48
f 49/49/49 47/47/47 48/48/48
f 49/49/49 48/48/48 50/50/50
f 51/51/51 49/49/49 50/50/50
f 51/51/51 50/50/50 52/52/52
f 55/55/55 54/54/54 53/53/53
f 56/56/56 55/55/55 53/53/53
f 56/56/56 57/57/57 55/55/55
f 57/57/57 58/58/58 55/55/55
f 58/58/58 59/59/59 55/55/55
f 59/59/59 60/60/60 55/55/55
f 60/60/60 61/61/61 55/55/55
f 61/61/61 62/62/62 55/55/55
f 62/62/62 63/63/63 55/55/55
f 55/55/55 63/63/63 64/64/64
f 55/55/55 64/64/64 65/65/65
f 55/55/55 65/65/65 66/66/66
f 55/55/55 66/66/66 67/67/67
f 55/55/55 67/67/67 68/68/68
f 55/55/55 68/68/68 69/69/69
f 55/55/55 69/69/69 54/54/54
f 72/72/72 71/71/71 70/70/70
f 73/73/73 72/72/72 70/70/70
f 74/74/74 72/72/72 73/73/73
f 75/75/75 74/74/74 73/73/73
f 76/76/76 74/74/74 75/75/75
f 77/77/77 76/76/76 75/75/75
f 78/78/78 76/76/76 77/77/77
f 79/79/79 78/78/78 77/77/77
f 80/80/80 78/78/78 79/79/79
f 81/81/81 80/80/80 79/79/79
f 82/82/82 80/80/80 81/81/81
f 83/83/83 82/82/82 81/81/81
f 84/84/84 82/82/82 83/83/83
f 85/85/85 84/84/84 83/83/83
f 70/70/70 71/71/71 86/86/86
f 86/86/86 87/87/87 70/70/70
f 86/86/86 88/88/88 87/87/87
f 88/88/88 86/86/86 89/89/89
f 89/89/89 90/90/90 88/88/88
f 89/89/89 87/87/87 90/90/90
f 88/88/88 90/90/90 87/87/87
f 89/89/89 91/91/91 87/87/87
f 91/91/91 89/89/89 92/92/92
f 89/89/89 93/93/93 92/92/92
f 92/92/92 93/93/93 94/94/94
f 93/93/93 95/95/95 94/94/94
f 94/94/94 95/95/95 96/96/96
f 95/95/95 97/97/97 96/96/96
f 96/96/96 97/97/97 98/98/98
f 97/97/97 99/99/99 98/98/98
f 98/98/98 99/99/99 100/100/100
f 99/99/99 101/101/101 100/100/100
f 100/100/100 101/101/101 102/102/102
f 101/101/101 103/103/103 102/102/102
f 102/102/102 103/103/103 104/104/104
f 103/103/103 105/105/105 104/104/104
f 108/108/108 107/107/107 106/106/106
f 109/109/109 108/108/108 106/106/106
f 106/106/106 107/107/107 110/110/110
f 111/111/111 106/106/106 110/110/110
f 112/112/112 111/111/111 110/110/110
f 113/113/113 112/112/112 110/110/110
f 114/114/114 108/108/108 109/109/109
f 112/112/112 113/113/113 115/115/115
f 113/113/113 116/116/116 115/115/115
f 115/115/115 116/116/116 117/117/117
f 116/116/116 118/118/118 117/117/117
f 117/117/117 118/118/118 119/119/119
f 118/118/118 120/120/120 119/119/119
f 119/119/119 120/120/120 121/121/121
f 124/124/124 123/123/123 122/122/122
f 123/123/123 125/125/125 122/122/122
f 126/126/126 125/125/125 123/123/123
f 127/127/127 126/126/126 123/123/123
f 128/128/128 127/127/127 123/123/123
f 129/129/129 128/128/128 123/123/123
f 130/130/130 129/129/129 123/123/123
f 131/131/131 130/130/130 123/123/123
f 132/132/132 131/131/131 123/123/123
f 132/132/132 123/123/123 133/133/133
f 133/133/133 123/123/123 134/134/134
f 134/134/134 123/123/123 135/135/135
f 135/135/135 123/123/123 136/136/136
f 136/136/136 123/123/123 137/137/137
f 137/137/137 123/123/123 138/138/138
f 138/138/138 123/123/123 124/124/124
