g TorchRed_Add002
v -0.02428968 -0.004665606 -4.470348E-08
v -0.0310535 0.001764163 -0.01249999
v -0.01552679 0.001728885 -0.01249999
v -0.01214482 -0.004665606 -4.470348E-08
v 4.470348E-08 0.001717165 -0.01249999
v 4.470348E-08 -0.004665606 -4.470348E-08
v 0.01552676 0.001728885 -0.01249999
v 0.01214478 -0.004665606 -4.470348E-08
v 0.03105346 0.001764163 -0.01249999
v 0.02428965 -0.004665606 -4.470348E-08
v -0.01923176 0.005729817 -0.02499993
v -0.03846344 0.00613749 -0.02499993
v 4.470348E-08 0.005798519 -0.02499993
v 0.01923172 0.005729817 -0.02499993
v 0.0384634 0.00613749 -0.02499993
v -0.01986883 0.008899838 -0.03750001
v -0.03960536 0.009302586 -0.03750001
v 4.470348E-08 0.008931391 -0.03750001
v 0.01986893 0.008899838 -0.03750001
v 0.03960532 0.009302586 -0.03750001
v -0.0186827 0.01172197 -0.04999995
v -0.03696457 0.01172796 -0.04999995
v 4.470348E-08 0.01173009 -0.04999995
v 0.01868266 0.01172197 -0.04999995
v 0.03696453 0.01172796 -0.04999995
v -0.01466552 0.01242494 -0.06250003
v -0.02951495 0.01232642 -0.06250003
v 4.470348E-08 0.01242094 -0.06250003
v 0.01466562 0.01242494 -0.06250003
v 0.02951492 0.01232642 -0.06250003
v -0.01112897 0.01330937 -0.07499997
v -0.02264955 0.0132235 -0.07499997
v 4.470348E-08 0.0132954 -0.07499997
v 0.01112893 0.01330937 -0.07499997
v 0.02264951 0.0132235 -0.07499997
v -0.007976793 0.01364955 -0.08750005
v -0.0159535 0.01364728 -0.08750005
v 4.470348E-08 0.01364955 -0.08750005
v 0.007976755 0.01364955 -0.08750005
v 0.01595359 0.01364728 -0.08750005
v -0.00586123 0.01431537 -0.09999999
v -0.01172024 0.01431537 -0.09999999
v 4.470348E-08 0.01431537 -0.09999999
v 0.00586132 0.01431537 -0.09999999
v 0.01172034 0.01431537 -0.09999999
vt 0 0
vt 0 0.1250019
vt 0.2500038 0.1250019
vt 0.2500038 0
vt 0.5000076 0.1250019
vt 0.5000076 0
vt 0.7499962 0.1250019
vt 0.7499962 0
vt 1 0.1250019
vt 1 0
vt 0.2500038 0.2500038
vt 0 0.2500038
vt 0.5000076 0.2500038
vt 0.7499962 0.2500038
vt 1 0.2500038
vt 0.2500038 0.3750057
vt 0 0.3750057
vt 0.5000076 0.3750057
vt 0.7499962 0.3750057
vt 1 0.3750057
vt 0.2500038 0.5000076
vt 0 0.5000076
vt 0.5000076 0.5000076
vt 0.7499962 0.5000076
vt 1 0.5000076
vt 0.2500038 0.6249943
vt 0 0.6249943
vt 0.5000076 0.6249943
vt 0.7499962 0.6249943
vt 1 0.6249943
vt 0.2500038 0.7499962
vt 0 0.7499962
vt 0.5000076 0.7499962
vt 0.7499962 0.7499962
vt 1 0.7499962
vt 0.2500038 0.8749981
vt 0 0.8749981
vt 0.5000076 0.8749981
vt 0.7499962 0.8749981
vt 1 0.8749981
vt 0.2500038 1
vt 0 1
vt 0.5000076 1
vt 0.7499962 1
vt 1 1
vn 0.001325808 0.8900344 0.4558915
vn 0.008281796 0.9337577 0.3578099
vn 0.002319521 0.925808 0.377987
vn 0.0003320966 0.8900344 0.4558933
vn 0.0003320966 0.9268017 0.3755508
vn 0.0003320966 0.8900344 0.4558933
vn -0.002649043 0.925808 0.3779848
vn -0.0006616171 0.8900344 0.455893
vn -0.008611318 0.9337577 0.3578022
vn -0.0006616171 0.8900344 0.455893
vn 0.007288083 0.960588 0.2778806
vn 0.01722521 0.9625754 0.2704662
vn 0.0003320966 0.9615817 0.2745186
vn -0.007617604 0.960588 0.2778717
vn -0.01755473 0.9625754 0.270445
vn 0.007288083 0.9735062 0.2285444
vn 0.01523778 0.9735062 0.2281523
vn 0.0003320966 0.9725125 0.2328503
vn -0.007617604 0.9735062 0.2285336
vn -0.01556731 0.9735062 0.22813
vn 0.001325808 0.9903993 0.13823
vn 0.006294372 0.9874182 0.158005
vn 0.0003320966 0.9894056 0.1451775
vn -0.001655329 0.9903993 0.1382263
vn -0.00563018 0.9874182 0.1580301
vn -0.002649043 0.998349 0.05737772
vn -0.003642755 0.998349 0.05732316
vn 0.0003320966 0.998349 0.05743794
vn 0.002319521 0.998349 0.05739226
vn 0.004306946 0.998349 0.05727739
vn -0.002649043 0.998349 0.05737772
vn -0.006623892 0.998349 0.05705583
vn 0.0003320966 0.998349 0.05743794
vn 0.002319521 0.998349 0.05739226
vn 0.006294372 0.998349 0.0570929
vn -0.0006616171 0.9993427 0.03624481
vn -0.003642755 0.9993427 0.03606677
vn 0.0003320966 0.9993427 0.03624892
vn 0.001325808 0.9993427 0.03622672
vn 0.003313233 0.9993427 0.03609898
vn 0.0003320966 0.998349 0.05743794
vn -0.0006616171 0.998349 0.05743535
vn 0.0003320966 0.998349 0.05743794
vn 0.0003320966 0.998349 0.05743794
vn 0.0003320966 0.998349 0.05743794
g TorchRed_Add002_0
f 3/3/3 2/2/2 1/1/1
f 4/4/4 3/3/3 1/1/1
f 5/5/5 3/3/3 4/4/4
f 6/6/6 5/5/5 4/4/4
f 7/7/7 5/5/5 6/6/6
f 8/8/8 7/7/7 6/6/6
f 9/9/9 7/7/7 8/8/8
f 10/10/10 9/9/9 8/8/8
f 3/3/3 11/11/11 2/2/2
f 11/11/11 12/12/12 2/2/2
f 13/13/13 11/11/11 3/3/3
f 5/5/5 13/13/13 3/3/3
f 14/14/14 13/13/13 5/5/5
f 7/7/7 14/14/14 5/5/5
f 15/15/15 14/14/14 7/7/7
f 9/9/9 15/15/15 7/7/7
f 11/11/11 16/16/16 12/12/12
f 16/16/16 17/17/17 12/12/12
f 18/18/18 16/16/16 11/11/11
f 13/13/13 18/18/18 11/11/11
f 19/19/19 18/18/18 13/13/13
f 14/14/14 19/19/19 13/13/13
f 20/20/20 19/19/19 14/14/14
f 15/15/15 20/20/20 14/14/14
f 16/16/16 21/21/21 17/17/17
f 21/21/21 22/22/22 17/17/17
f 23/23/23 21/21/21 16/16/16
f 18/18/18 23/23/23 16/16/16
f 24/24/24 23/23/23 18/18/18
f 19/19/19 24/24/24 18/18/18
f 25/25/25 24/24/24 19/19/19
f 20/20/20 25/25/25 19/19/19
f 21/21/21 26/26/26 22/22/22
f 26/26/26 27/27/27 22/22/22
f 28/28/28 26/26/26 21/21/21
f 23/23/23 28/28/28 21/21/21
f 29/29/29 28/28/28 23/23/23
f 24/24/24 29/29/29 23/23/23
f 30/30/30 29/29/29 24/24/24
f 25/25/25 30/30/30 24/24/24
f 26/26/26 31/31/31 27/27/27
f 31/31/31 32/32/32 27/27/27
f 33/33/33 31/31/31 26/26/26
f 28/28/28 33/33/33 26/26/26
f 34/34/34 33/33/33 28/28/28
f 29/29/29 34/34/34 28/28/28
f 35/35/35 34/34/34 29/29/29
f 30/30/30 35/35/35 29/29/29
f 31/31/31 36/36/36 32/32/32
f 36/36/36 37/37/37 32/32/32
f 38/38/38 36/36/36 31/31/31
f 33/33/33 38/38/38 31/31/31
f 39/39/39 38/38/38 33/33/33
f 34/34/34 39/39/39 33/33/33
f 40/40/40 39/39/39 34/34/34
f 35/35/35 40/40/40 34/34/34
f 36/36/36 41/41/41 37/37/37
f 41/41/41 42/42/42 37/37/37
f 43/43/43 41/41/41 36/36/36
f 38/38/38 43/43/43 36/36/36
f 44/44/44 43/43/43 38/38/38
f 39/39/39 44/44/44 38/38/38
f 45/45/45 44/44/44 39/39/39
f 40/40/40 45/45/45 39/39/39
