g VolcanoSmorkPlane1
v -68.48279 164.2004 -0.94104
v -110.129 65.93542 -0.3765869
v -137.6497 130.3046 -0.7456055
v -66.52527 116.4031 -0.6660156
v -6.161621 171.8386 -0.9844971
v -6.255737 132.1208 -0.7564697
v 51.69812 157.2678 -0.9012451
v 53.27209 112.329 -0.6442871
v -78.03857 -0.0002441406 -0.0002441406
v -39.84045 -0.0002441406 -0.0002441406
v -0.1191406 -0.0002441406 -0.0002441406
v 38.56018 -0.0002441406 -0.0002441406
v 70.82434 -0.0002441406 -0.0002441406
v 85.15991 42.51074 -0.2426758
v 122.6958 112.4701 -0.6442871
v -74.85449 231.3519 -1.324585
v -0.5822754 207.6885 -1.187012
v 9.697266 364.5623 -3.567871
v -90.32263 418.4021 -4.501343
v -167.5076 267.2524 -1.878174
v -190.1978 473.5663 -5.460205
v 90.35205 306.6808 -2.562012
v 63.62036 188.5297 -1.078491
v 166.4552 240.4012 -1.411377
v 139.3579 165.9227 -0.9482422
v -93.97351 677.1157 -9.679199
v -233.3529 789.5752 -12.22278
v 24.21008 586.7819 -7.638428
v 140.5339 505.5518 -6.017456
v 221.9884 419.3066 -4.519531
v -59.76636 939.7732 -15.54431
v -217.1792 1137.106 -19.36523
v 78.64697 826.2935 -13.05139
v 219.5605 726.1577 -10.78992
v 304.6659 616.6001 -8.311401
v 8.036499 1315.625 -22.82434
v -162.688 1480.477 -25.95776
v 177.8274 1136.56 -19.35437
v 326.8206 943.5833 -15.6167
v 427.7124 797.2351 -12.39648
v 129.3353 1669.416 -29.453
v -71.88391 1876.978 -33.29565
v 293.0729 1480.44 -25.95776
v 475.7522 1238.472 -21.32996
v 578.1095 967.5107 -16.07983
v 259.0323 1973.028 -34.02283
v 26.50769 2151.72 -35.91528
v 455.0485 1769.178 -30.86047
v 639.5151 1512.003 -26.54028
v 791.2654 1172.533 -20.05273
v 402.6667 2231.554 -39.07764
v 189.0369 2365.509 -40.44531
v 607.8046 2014.229 -35.54614
v 832.5499 1708.381 -30.17297
v 1000.76 1348.117 -23.45386
v 581.7024 2396.981 -40.70215
v 370.0878 2536.762 -41.08215
v 785.8235 2245.878 -39.3092
v 1034.855 1937.327 -34.9093
v 1257.266 1493.506 -25.04236
vt 0.2120736 0.1000003
vt 2.996372E-06 0.04668876
vt 2.996372E-06 0.1000003
vt 0.2365386 0.04668876
vt 0.4620745 0.1000003
vt 0.4865395 0.04668876
vt 0.7120754 0.1000003
vt 0.7365404 0.04668876
vt 2.996372E-06 -1.990377E-05
vt 0.2499962 -1.990377E-05
vt 0.4999971 -1.990377E-05
vt 0.749998 -1.990377E-05
vt 0.9999989 -1.990377E-05
vt 0.9999989 0.04668876
vt 0.9999989 0.1000003
vt 0.1790363 0.1999976
vt 0.4376019 0.1999976
vt 0.4192512 0.3000025
vt 0.1435564 0.3000025
vt 2.996372E-06 0.1999976
vt 2.996372E-06 0.3000025
vt 0.6692522 0.3000025
vt 0.6876028 0.1999976
vt 0.9999989 0.3000025
vt 0.9999989 0.1999976
vt 0.1215341 0.3999999
vt 2.996372E-06 0.3999999
vt 0.4155796 0.3999999
vt 0.6655805 0.3999999
vt 0.9999989 0.3999999
vt 0.1362131 0.4999971
vt 2.996372E-06 0.4999971
vt 0.4253656 0.4999971
vt 0.6753665 0.4999971
vt 0.9999989 0.4999971
vt 0.2169666 0.6000021
vt 2.996372E-06 0.6000021
vt 0.4669675 0.6000021
vt 0.7169684 0.6000021
vt 0.9999989 0.6000021
vt 0.3209638 0.6999994
vt 2.996372E-06 0.6999994
vt 0.5709647 0.6999994
vt 0.8209656 0.6999994
vt 0.9999989 0.6999994
vt 0.3968167 0.7999967
vt 2.996372E-06 0.7999967
vt 0.6468176 0.7999967
vt 0.8968185 0.7999967
vt 0.9999989 0.7999967
vt 0.429854 0.9000016
vt 2.996372E-06 0.9000016
vt 0.6798549 0.9000016
vt 0.9298558 0.9000016
vt 0.9999989 0.9000016
vt 0.4408613 1.000495
vt 2.996372E-06 1.000495
vt 0.6908622 1.000495
vt 0.9408631 1.000495
vt 0.9999989 1.000495
vn -6.231247E-06 0.005717477 0.9999837
vn -6.231247E-06 0.005717477 0.9999837
vn -0.001326057 0.006557366 0.9999776
vn -6.231247E-06 0.005717477 0.9999837
vn -6.231247E-06 0.005717477 0.9999837
vn -6.231247E-06 0.005717477 0.9999837
vn -6.231247E-06 0.005717477 0.9999837
vn -6.231247E-06 0.005717477 0.9999837
vn -6.231247E-06 0.005717477 0.9999837
vn -6.231247E-06 0.005717477 0.9999837
vn -6.231247E-06 0.005717477 0.9999837
vn -6.231247E-06 0.005717477 0.9999837
vn -6.231247E-06 0.005717477 0.9999837
vn -6.231247E-06 0.005717477 0.9999837
vn -6.231247E-06 0.005717477 0.9999837
vn 0.0001857434 0.01447632 0.9998952
vn 0.0003537212 0.01334847 0.9999108
vn -0.0002461995 0.01749992 0.9998468
vn -0.0001982059 0.01872376 0.9998246
vn -0.0001502123 0.01594013 0.9998729
vn -6.231247E-06 0.02006758 0.9997987
vn -0.0004381742 0.01618009 0.999869
vn -0.0009421075 0.01135673 0.999935
vn -0.0009421075 0.01450032 0.9998944
vn -0.001734003 0.00970095 0.9999514
vn 8.975598E-05 0.02129142 0.9997733
vn 0.0005936895 0.02117144 0.9997757
vn -0.000174209 0.02078749 0.9997839
vn -6.231247E-06 0.01985161 0.9998029
vn 6.575929E-05 0.01867577 0.9998256
vn 0.0001137529 0.02049952 0.9997899
vn 0.0001857434 0.01963564 0.9998072
vn 0.0001377496 0.02119543 0.9997754
vn 0.0003057276 0.02157938 0.9997671
vn 0.0001377496 0.02126742 0.9997739
vn -3.022817E-05 0.01910771 0.9998174
vn -5.422486E-05 0.01879575 0.9998233
vn -5.422486E-05 0.01958765 0.9998081
vn 0.0001377496 0.02040354 0.9997919
vn -6.231247E-06 0.02121943 0.9997749
vn -0.0005341615 0.016924 0.9998567
vn -0.001086089 0.01495626 0.9998875
vn -0.0001022185 0.01814784 0.9998353
vn -6.231247E-06 0.01905971 0.9998183
vn -5.422486E-05 0.01975562 0.9998049
vn 0.001073626 0.01603611 0.9998708
vn 0.001769534 0.01526821 0.9998819
vn 0.0006176862 0.01752392 0.9998463
vn 0.0002577337 0.01845979 0.9998296
vn -6.231247E-06 0.01905971 0.9998183
vn 0.001865521 0.0138524 0.9999023
vn 0.002969376 0.0131325 0.9999093
vn 0.001385585 0.016876 0.9998567
vn -0.0001982059 0.01853178 0.9998282
vn -0.001110086 0.01922769 0.9998145
vn 0.0001137529 0.0108288 0.9999413
vn 0.0001137529 0.006581362 0.9999783
vn 0.000953642 0.01555618 0.9998785
vn -5.422486E-05 0.01819583 0.9998344
vn -0.002189943 0.01956365 0.9998062
g VolcanoSmorkPlane1_0
f 3/3/3 2/2/2 1/1/1
f 2/2/2 4/4/4 1/1/1
f 5/5/5 1/1/1 4/4/4
f 6/6/6 5/5/5 4/4/4
f 7/7/7 5/5/5 6/6/6
f 8/8/8 7/7/7 6/6/6
f 4/4/4 2/2/2 9/9/9
f 6/6/6 4/4/4 10/10/10
f 10/10/10 4/4/4 9/9/9
f 11/11/11 6/6/6 10/10/10
f 8/8/8 6/6/6 11/11/11
f 12/12/12 8/8/8 11/11/11
f 8/8/8 12/12/12 13/13/13
f 14/14/14 8/8/8 13/13/13
f 7/7/7 8/8/8 14/14/14
f 15/15/15 7/7/7 14/14/14
f 1/1/1 16/16/16 3/3/3
f 17/17/17 16/16/16 1/1/1
f 17/17/17 18/18/18 16/16/16
f 18/18/18 19/19/19 16/16/16
f 16/16/16 19/19/19 20/20/20
f 19/19/19 21/21/21 20/20/20
f 22/22/22 18/18/18 17/17/17
f 23/23/23 22/22/22 17/17/17
f 24/24/24 22/22/22 23/23/23
f 25/25/25 24/24/24 23/23/23
f 15/15/15 25/25/25 23/23/23
f 19/19/19 26/26/26 21/21/21
f 26/26/26 27/27/27 21/21/21
f 28/28/28 26/26/26 19/19/19
f 18/18/18 28/28/28 19/19/19
f 29/29/29 28/28/28 18/18/18
f 22/22/22 29/29/29 18/18/18
f 30/30/30 29/29/29 22/22/22
f 24/24/24 30/30/30 22/22/22
f 26/26/26 31/31/31 27/27/27
f 31/31/31 32/32/32 27/27/27
f 33/33/33 31/31/31 26/26/26
f 28/28/28 33/33/33 26/26/26
f 34/34/34 33/33/33 28/28/28
f 29/29/29 34/34/34 28/28/28
f 35/35/35 34/34/34 29/29/29
f 30/30/30 35/35/35 29/29/29
f 31/31/31 36/36/36 32/32/32
f 36/36/36 37/37/37 32/32/32
f 38/38/38 36/36/36 31/31/31
f 33/33/33 38/38/38 31/31/31
f 39/39/39 38/38/38 33/33/33
f 34/34/34 39/39/39 33/33/33
f 40/40/40 39/39/39 34/34/34
f 35/35/35 40/40/40 34/34/34
f 36/36/36 41/41/41 37/37/37
f 41/41/41 42/42/42 37/37/37
f 43/43/43 41/41/41 36/36/36
f 38/38/38 43/43/43 36/36/36
f 44/44/44 43/43/43 38/38/38
f 39/39/39 44/44/44 38/38/38
f 45/45/45 44/44/44 39/39/39
f 40/40/40 45/45/45 39/39/39
f 41/41/41 46/46/46 42/42/42
f 46/46/46 47/47/47 42/42/42
f 48/48/48 46/46/46 41/41/41
f 43/43/43 48/48/48 41/41/41
f 49/49/49 48/48/48 43/43/43
f 44/44/44 49/49/49 43/43/43
f 50/50/50 49/49/49 44/44/44
f 45/45/45 50/50/50 44/44/44
f 46/46/46 51/51/51 47/47/47
f 51/51/51 52/52/52 47/47/47
f 53/53/53 51/51/51 46/46/46
f 48/48/48 53/53/53 46/46/46
f 54/54/54 53/53/53 48/48/48
f 49/49/49 54/54/54 48/48/48
f 55/55/55 54/54/54 49/49/49
f 50/50/50 55/55/55 49/49/49
f 51/51/51 56/56/56 52/52/52
f 56/56/56 57/57/57 52/52/52
f 58/58/58 56/56/56 51/51/51
f 53/53/53 58/58/58 51/51/51
f 59/59/59 58/58/58 53/53/53
f 54/54/54 59/59/59 53/53/53
f 60/60/60 59/59/59 54/54/54
f 55/55/55 60/60/60 54/54/54
f 5/5/5 17/17/17 1/1/1
f 23/23/23 17/17/17 5/5/5
f 7/7/7 23/23/23 5/5/5
f 15/15/15 23/23/23 7/7/7
f 16/16/16 20/20/20 3/3/3
