g Wing_Star_LOD2
v -0.5741611 0.9931066 -1.158841
v -0.2540251 0.2678953 -0.2819646
v -0.5860204 1.000677 -1.148072
v -0.5862032 0.9910347 -1.156069
v -0.5862032 0.9910347 -1.156069
v -0.350879 0.4138231 -0.01952076
v -0.9011247 1.488724 -0.242713
v -0.890255 1.49335 -0.2468885
v -0.9039133 1.484822 -0.254288
v -0.9039133 1.484822 -0.254288
v 0.3508806 0.4138231 -0.01952076
v 0.8902566 1.49335 -0.2468885
v 0.9011265 1.488724 -0.242713
v 0.9039122 1.484822 -0.254288
v 0.9039122 1.484822 -0.254288
v 0.586202 0.9910347 -1.156069
v 0.5741599 0.9931066 -1.158841
v 0.2540239 0.2678953 -0.2819646
v 0.5860221 1.000677 -1.148072
v 0.586202 0.9910347 -1.156069
v 0.6126541 1.556689 -0.4112772
v 8.34465E-07 1.510012 -0.6243365
v 0.4702084 1.401325 -0.6981245
v 0.3054831 1.642481 -0.2182108
v 8.34465E-07 1.274217 -0.9762696
v 0.611714 0.9841838 -1.218648
v 8.34465E-07 1.016762 -1.023458
v 0.5740351 0.9042993 -1.221669
v -0.6117268 0.9841721 -1.21866
v -0.5740362 0.9042993 -1.221669
v 1.003726 1.530367 -0.2497961
v 1.019903 1.50388 -0.1653616
v 0.3625253 1.551332 -0.08130729
v -0.6785275 0.9197423 -1.19445
v -0.4702096 1.401339 -0.6981043
v -0.6126553 1.556689 -0.4112772
v -0.3054843 1.642481 -0.2182108
v 8.34465E-07 1.82101 0.2501744
v -1.003727 1.530367 -0.2497961
v 0.6785292 0.9197423 -1.19445
v 0.5907258 1.235656 -0.63767
v 1.04074 1.454052 -0.251659
v -1.040739 1.454052 -0.251659
v -1.019901 1.50388 -0.1653616
v -0.590727 1.235656 -0.63767
v -0.06276345 1.769615 0.3034037
v 0.06276238 1.769615 0.3034037
v -0.3625236 1.551332 -0.08130729
v 1.019903 1.50388 -0.1653616
v 1.04074 1.454052 -0.251659
v 8.34465E-07 1.41025 -0.5074636
v 0.5907258 1.235656 -0.63767
v 0.3625253 1.551332 -0.08130729
v 0.6785292 0.9197423 -1.19445
v 0.5740351 0.9042993 -1.221669
v 8.34465E-07 1.016762 -1.023458
v -0.5740362 0.9042993 -1.221669
v -0.6785275 0.9197423 -1.19445
v -0.590727 1.235656 -0.63767
v -1.040739 1.454052 -0.251659
v -1.019901 1.50388 -0.1653616
v -0.3625236 1.551332 -0.08130729
v -0.06276345 1.769615 0.3034037
v 0.06276238 1.769615 0.3034037
vt 0.01647195 0.9656727
vt 0.5608026 0.9446713
vt 0.01647195 0.9198602
vt 0.01647195 0.9846981
vt 0.01647195 0.8963742
vt 1.560797 0.9446713
vt 1.016466 0.9198602
vt 1.016466 0.9433462
vt 1.016466 0.9846981
vt 1.016466 0.8963742
vt 1.560797 0.9446713
vt 1.016466 0.9433462
vt 1.016466 0.9198602
vt 1.016466 0.9846981
vt 1.016466 0.8963742
vt 1.016466 0.9846981
vt 1.016466 0.9656727
vt 1.560797 0.9446713
vt 1.016466 0.9198602
vt 1.016466 0.8963742
vt 0.1936995 0.4468749
vt 0.4488389 0.3599117
vt 0.2463152 0.3087512
vt 0.3161106 0.5439779
vt 0.4488389 0.1792529
vt 0.20449 0.04265557
vt 0.4488389 0.07073227
vt 0.2164992 0.01276862
vt 0.6933653 0.04288037
vt 0.68151 0.01296976
vt 0.03992244 0.4964262
vt 0.03004294 0.5284902
vt 0.2735755 0.6033377
vt 0.7263286 0.03065819
vt 0.6513627 0.3087867
vt 0.7038956 0.4468276
vt 0.5815437 0.5439543
vt 0.4488271 0.7394263
vt 0.8576726 0.4963197
vt 0.171444 0.03027958
vt 0.1597897 0.2827569
vt 0.01543076 0.4769038
vt 0.8821643 0.47675
vt 0.8675521 0.528431
vt 0.7378764 0.2828397
vt 0.4776729 0.7615398
vt 0.4199577 0.7615516
vt 0.6241024 0.6032786
vt 0.5570638 0.7306471
vt 0.5507457 0.7538255
vt 0.7699995 0.804063
vt 0.6413531 0.8479115
vt 0.691354 0.7084981
vt 0.6267409 0.9825802
vt 0.6486887 0.9893953
vt 0.7697865 0.9439614
vt 0.8910263 0.9893953
vt 0.9130096 0.9825802
vt 0.8986696 0.8479115
vt 0.9895018 0.7538255
vt 0.9831363 0.7306471
vt 0.8484675 0.7084981
vt 0.7838071 0.6151576
vt 0.7572449 0.6151576
vn 0.9625229 0.1616086 -0.2177898
vn 0.6943291 0.650444 0.3079443
vn 0.01528525 0.7664711 0.6420968
vn -0.6884856 -0.6657978 -0.2875774
vn -0.6884856 -0.6657978 -0.2875774
vn 0.464177 0.0265606 -0.8853441
vn -0.4526273 -0.04762065 0.8904273
vn 0.8693208 0.3651315 -0.3331072
vn -0.2205731 -0.3158144 -0.9228265
vn -0.2205731 -0.3158144 -0.9228265
vn -0.4640398 0.0265606 -0.885416
vn -0.8691837 0.3651315 -0.3334648
vn 0.4527645 -0.04762065 0.8903576
vn 0.2207103 -0.3158144 -0.9227937
vn 0.2207103 -0.3158144 -0.9227937
vn 0.6886228 -0.6657978 -0.2872487
vn -0.9623857 0.1616086 -0.2183953
vn -0.6941919 0.650444 0.3082533
vn -0.0151481 0.7664711 0.6421
vn 0.6886228 -0.6657978 -0.2872487
vn 0.1655499 0.9034212 -0.3955041
vn 6.860495E-05 0.8901066 -0.4557525
vn 0.2872832 0.7626669 -0.579489
vn 0.1256061 0.9699941 -0.2081698
vn 6.860495E-05 0.6998981 -0.7142427
vn 0.1902769 0.6808773 -0.7072487
vn 6.860495E-05 0.1806294 -0.9835512
vn -0.2510065 0.1540002 -0.9556567
vn -0.1901398 0.6808773 -0.7072856
vn 0.2511436 0.1540002 -0.9556206
vn 0.397604 0.8596731 -0.3207383
vn 0.2054936 0.9262462 0.3159753
vn 0.4071144 0.8292398 0.3829088
vn -0.7569606 0.5724586 -0.3151218
vn -0.2871461 0.7626669 -0.5795569
vn -0.1654127 0.9034212 -0.3955615
vn -0.125469 0.9699941 -0.2082524
vn 6.860495E-05 0.9833087 -0.1819452
vn -0.3974669 0.8596731 -0.3209082
vn 0.7570978 0.5724586 -0.314792
vn 0.7704124 0.3708377 -0.5185981
vn 0.6125395 0.2662231 -0.7442584
vn -0.6124023 0.2662231 -0.7443713
vn -0.2053565 0.9262462 0.3160644
vn -0.7702752 0.3708377 -0.5188019
vn -0.5933815 0.7911981 0.1479996
vn 0.5935186 0.7911981 0.1474488
vn -0.4069773 0.8292398 0.3830546
vn -0.05318975 -0.9111666 0.4085906
vn -0.09693766 -0.8369853 0.5385709
vn 6.860495E-05 -0.8712229 0.4908877
vn -0.1311752 -0.8388875 0.5282622
vn -0.07221055 -0.9263833 0.3695939
vn -0.102644 -0.8541041 0.509873
vn 0.01718736 -0.8103562 0.5856854
vn 6.860495E-05 -0.7951395 0.6064266
vn -0.01705015 -0.8103562 0.5856894
vn 0.1027811 -0.8541041 0.5098453
vn 0.1313124 -0.8388875 0.5282281
vn 0.09707487 -0.8369853 0.5385461
vn 0.0533269 -0.9111666 0.4085727
vn 0.07234776 -0.9263833 0.3695671
vn 0.07044566 -0.9092645 0.4102139
vn -0.07221055 -0.9092645 0.4099069
g Wing_Star_LOD2_0
f 3/3/3 2/2/2 1/1/1
f 1/1/1 2/2/2 4/4/4
f 3/3/3 5/5/5 2/2/2
f 8/8/8 7/7/7 6/6/6
f 9/9/9 8/8/8 6/6/6
f 7/7/7 10/10/10 6/6/6
f 13/13/13 12/12/12 11/11/11
f 12/12/12 14/14/14 11/11/11
f 15/15/15 13/13/13 11/11/11
f 18/18/18 17/17/17 16/16/16
f 17/17/17 18/18/18 19/19/19
f 20/20/20 19/19/19 18/18/18
f 23/23/23 22/22/22 21/21/21
f 24/24/24 21/21/21 22/22/22
f 25/25/25 22/22/22 23/23/23
f 25/25/25 23/23/23 26/26/26
f 26/26/26 27/27/27 25/25/25
f 26/26/26 28/28/28 27/27/27
f 29/29/29 25/25/25 27/27/27
f 29/29/29 27/27/27 30/30/30
f 21/21/21 31/31/31 23/23/23
f 31/31/31 21/21/21 24/24/24
f 24/24/24 32/32/32 31/31/31
f 24/24/24 33/33/33 32/32/32
f 29/29/29 30/30/30 34/34/34
f 35/35/35 25/25/25 29/29/29
f 35/35/35 22/22/22 25/25/25
f 35/35/35 29/29/29 34/34/34
f 22/22/22 35/35/35 36/36/36
f 22/22/22 36/36/36 37/37/37
f 37/37/37 38/38/38 22/22/22
f 36/36/36 39/39/39 37/37/37
f 39/39/39 36/36/36 35/35/35
f 28/28/28 26/26/26 40/40/40
f 23/23/23 40/40/40 26/26/26
f 40/40/40 23/23/23 41/41/41
f 31/31/31 32/32/32 42/42/42
f 23/23/23 42/42/42 41/41/41
f 23/23/23 31/31/31 42/42/42
f 35/35/35 43/43/43 39/39/39
f 43/43/43 44/44/44 39/39/39
f 37/37/37 39/39/39 44/44/44
f 35/35/35 45/45/45 43/43/43
f 45/45/45 35/35/35 34/34/34
f 46/46/46 38/38/38 37/37/37
f 46/46/46 47/47/47 38/38/38
f 46/46/46 37/37/37 48/48/48
f 37/37/37 44/44/44 48/48/48
f 24/24/24 38/38/38 47/47/47
f 22/22/22 38/38/38 24/24/24
f 24/24/24 47/47/47 33/33/33
f 51/51/51 50/50/50 49/49/49
f 51/51/51 52/52/52 50/50/50
f 49/49/49 53/53/53 51/51/51
f 52/52/52 51/51/51 54/54/54
f 51/51/51 55/55/55 54/54/54
f 51/51/51 56/56/56 55/55/55
f 56/56/56 51/51/51 57/57/57
f 57/57/57 51/51/51 58/58/58
f 58/58/58 51/51/51 59/59/59
f 59/59/59 51/51/51 60/60/60
f 60/60/60 51/51/51 61/61/61
f 51/51/51 62/62/62 61/61/61
f 51/51/51 63/63/63 62/62/62
f 63/63/63 51/51/51 64/64/64
f 51/51/51 53/53/53 64/64/64
