g Wing_Kumo_LOD1
v 0.4860722 1.694443 -0.8164129
v 0.4833882 1.500877 -0.8368548
v 0.6911631 1.565793 -0.848573
v 0.7518899 1.861892 -0.7560854
v 0.9302297 1.598806 -0.7993965
v 0.858954 1.445829 -0.82809
v 0.6218171 1.268722 -0.7306621
v 0.4315658 1.323174 -0.7090794
v 0.5897299 1.155317 -0.5416276
v 0.8178611 1.26054 -0.6982327
v 1.022996 1.6943 -0.6704581
v 1.21345 1.601154 -0.6035839
v 1.081907 1.750157 -0.4539375
v 1.238487 1.664267 -0.4364362
v 1.193516 1.367122 -0.6228343
v 1.325195 1.512675 -0.4055468
v 1.038416 1.844812 -0.4732228
v 0.7711245 1.995225 -0.5038714
v 0.846282 1.172118 -0.5297636
v 0.8791836 1.156356 -0.3329433
v 0.5803249 1.149667 -0.3315808
v 1.04436 1.187588 -0.5956714
v 0.3122859 1.279559 -0.3580497
v 1.227735 1.21547 -0.3449911
v 1.315571 1.351174 -0.372642
v 1.056256 1.149775 -0.3316029
v 0.4640301 1.969254 -0.4985795
v 0.4238181 1.837647 -0.6962775
v 0.2137712 1.818685 -0.6427692
v 0.3850447 1.9066 -0.4858124
v 0.210181 1.88819 -0.4820606
v 0.06107962 1.78655 -0.4613525
v 0.1360407 1.596575 -0.6641649
v 0.1944479 1.370377 -0.6285952
v 0.02157736 1.476788 -0.3982364
v 0.0003179312 1.636128 -0.4307007
v 0.1488078 1.346376 -0.3716629
v 0.3630152 1.276536 -0.5484183
v 0.1291549 1.619748 -0.2164013
v 0.06107962 1.78655 -0.4613525
v 0.3227177 1.733742 -0.07066846
v 0.2998167 1.427073 -0.1146766
v 0.0003179312 1.636128 -0.4307007
v 0.3537433 1.900646 -0.2759494
v 0.7532018 1.972594 -0.1750232
v 0.4640301 1.969254 -0.4985795
v 0.7711245 1.995225 -0.5038714
v 1.038416 1.844812 -0.4732228
v 0.6808328 1.689224 0.0981524
v 0.210181 1.88819 -0.4820606
v 0.3850447 1.9066 -0.4858124
v 0.02157736 1.476788 -0.3982364
v 0.1488078 1.346376 -0.3716629
v 1.036657 1.578389 -0.04268479
v 1.093115 1.739757 -0.2469676
v 1.325195 1.512675 -0.4055468
v 1.238487 1.664267 -0.4364362
v 1.081907 1.750157 -0.4539375
v 1.179139 1.393594 -0.1756634
v 1.315571 1.351174 -0.372642
v 0.9336616 1.29006 -0.08999491
v 1.227735 1.21547 -0.3449911
v 1.056256 1.149775 -0.3316029
v 0.8791836 1.156356 -0.3329433
v 0.5803249 1.149667 -0.3315808
v 0.6046137 1.321584 0.001710057
v 0.3122859 1.279559 -0.3580497
v 0.0623883 0.4492074 -0.1468241
v 0.1713221 1.374753 -0.5558681
v 0.1471727 1.381639 -0.5477497
v 0.0623883 0.467878 0.06658804
v 0.1713221 1.478211 -0.1611311
v 0.1471727 1.485096 -0.1530128
v 1.009548 1.288853 -0.1176648
v 0.3129324 0.3514913 0.07677257
v 1.033694 1.281967 -0.1257833
v 0.3129324 0.3328208 -0.1366396
v 1.033694 1.209845 -0.5261607
v 1.009548 1.216734 -0.5180422
v -0.4860733 1.69906 -0.8099486
v -0.691164 1.570651 -0.8430561
v -0.4833893 1.505649 -0.8318164
v -0.7518909 1.866059 -0.7483852
v -0.9302275 1.603299 -0.7936356
v -0.8589518 1.450538 -0.8234571
v -0.6218182 1.272717 -0.7273381
v -0.4315668 1.327005 -0.7053561
v -0.5897309 1.157918 -0.5391433
v -0.817862 1.264295 -0.6949688
v -1.022997 1.697837 -0.663997
v -1.213448 1.604202 -0.5978135
v -1.081905 1.752099 -0.4470676
v -1.238488 1.666079 -0.4302
v -1.193516 1.37032 -0.6187846
v -1.325196 1.514265 -0.4004323
v -1.038417 1.846894 -0.4656557
v -0.7711222 1.997526 -0.4951952
v -0.846283 1.174634 -0.5271557
v -0.8791845 1.157421 -0.330459
v -0.580326 1.150719 -0.3291471
v -1.044361 1.190588 -0.5929462
v -0.312287 1.280804 -0.3546528
v -1.227733 1.216623 -0.3420694
v -1.315569 1.352527 -0.3687159
v -1.056254 1.150826 -0.3291661
v -0.4640311 1.971519 -0.4900935
v -0.4238191 1.841374 -0.6887611
v -0.2137723 1.822019 -0.6353922
v -0.3850456 1.908774 -0.4777922
v -0.2101789 1.890335 -0.4741766
v -0.06107748 1.788543 -0.4542164
v -0.1360416 1.60007 -0.6584231
v -0.1944489 1.373615 -0.6245233
v -0.02157843 1.478325 -0.3933849
v -0.0003190041 1.637899 -0.4246768
v -0.1488056 1.34772 -0.3677747
v -0.3630162 1.279185 -0.5450404
v -0.1291559 1.619941 -0.2105011
v -0.3227155 1.732858 -0.06393158
v -0.06107748 1.788543 -0.4542164
v -0.2998177 1.426521 -0.1101991
v -0.0003190041 1.637899 -0.4246768
v -0.3537443 1.90127 -0.2679766
v -0.7532027 1.972473 -0.1665245
v -0.4640311 1.971519 -0.4900935
v -0.7711222 1.997526 -0.4951952
v -1.038417 1.846894 -0.4656557
v -0.6808338 1.687094 0.1045533
v -0.2101789 1.890335 -0.4741766
v -0.3850456 1.908774 -0.4777922
v -0.02157843 1.478325 -0.3933849
v -0.1488056 1.34772 -0.3677747
v -1.036658 1.577302 -0.03709507
v -1.093116 1.740172 -0.2401831
v -1.325196 1.514265 -0.4004323
v -1.238488 1.666079 -0.4302
v -1.081905 1.752099 -0.4470676
v -1.179137 1.393493 -0.171433
v -1.315569 1.352527 -0.3687159
v -0.9336627 1.289328 -0.0865314
v -1.227733 1.216623 -0.3420694
v -1.056254 1.150826 -0.3291661
v -0.8791845 1.157421 -0.330459
v -0.580326 1.150719 -0.3291471
v -0.6046147 1.320176 0.00540483
v -0.312287 1.280804 -0.3546528
v -0.06238616 0.4492074 -0.1468241
v -0.1471736 1.384281 -0.5435954
v -0.1713198 1.377456 -0.5517645
v -0.06238616 0.467878 0.06658804
v -0.1471736 1.484827 -0.1481106
v -0.1713198 1.478002 -0.1562766
v -1.009549 1.288327 -0.1142076
v -1.033695 1.281498 -0.1223768
v -0.3129334 0.3514913 0.07677257
v -0.3129334 0.3328208 -0.1366396
v -1.009549 1.219162 -0.5151079
v -1.033695 1.212333 -0.5232771
vt 0.741329 0.7983485
vt 0.7291741 0.7413743
vt 0.6681733 0.7770699
vt 0.6682638 0.8731178
vt 0.5939469 0.7987406
vt 0.6043223 0.7464865
vt 0.6685654 0.6596679
vt 0.7370009 0.6555961
vt 0.6681733 0.5757748
vt 0.6006728 0.6623824
vt 0.5585529 0.8585802
vt 0.4668331 0.8218892
vt 0.4865584 0.9309818
vt 0.4117439 0.8767522
vt 0.465702 0.7280279
vt 0.3596105 0.7975492
vt 0.5308801 0.9568751
vt 0.6672685 0.9807627
vt 0.5581005 0.5957264
vt 0.5172322 0.5138542
vt 0.6673288 0.4853821
vt 0.5035994 0.6493829
vt 0.8183905 0.5115469
vt 0.3719916 0.6296275
vt 0.3485263 0.7116053
vt 0.4364006 0.558764
vt 0.8045918 0.9585339
vt 0.7790756 0.8603898
vt 0.8697549 0.8240306
vt 0.8483254 0.9344805
vt 0.922024 0.8809446
vt 0.9764647 0.7992986
vt 0.8716851 0.7277867
vt 0.8334258 0.6470757
vt 0.9650789 0.6285869
vt 0.9883029 0.7119672
vt 0.9002477 0.5566376
vt 0.7788795 0.5934342
vt 0.1302657 0.2472906
vt 0.01802124 0.3405637
vt 0.2131935 0.2958499
vt 0.2160287 0.1735166
vt 0.009696784 0.2501107
vt 0.2045071 0.4124677
vt 0.3374722 0.4178816
vt 0.1898187 0.5146987
vt 0.3366579 0.5452669
vt 0.4850051 0.5161012
vt 0.3376984 0.2924719
vt 0.07054675 0.4284682
vt 0.1450597 0.4868298
vt 0.03842521 0.1643024
vt 0.1095149 0.09425335
vt 0.4631836 0.2964079
vt 0.4718097 0.4137043
vt 0.6582051 0.3397343
vt 0.6073837 0.4261307
vt 0.5317397 0.4869204
vt 0.5478759 0.2470795
vt 0.6670121 0.2496583
vt 0.4596698 0.1729738
vt 0.6377257 0.1633373
vt 0.5656558 0.09295642
vt 0.4816572 0.05079124
vt 0.3367182 0.02753706
vt 0.3375175 0.171526
vt 0.1922467 0.0517564
vt 0.04575435 0.4354203
vt 0.02117307 0.9764345
vt 0.05575274 0.9764345
vt 0.04575435 0.4354203
vt 0.02117307 0.9764345
vt 0.05575274 0.9764345
vt 0.03724892 0.9764345
vt 0.04575435 0.4354203
vt 0.05575274 0.9764345
vt 0.04575435 0.4354203
vt 0.03724892 0.9764345
vt 0.07277866 0.9764345
vt 0.741329 0.7983485
vt 0.6681733 0.7770699
vt 0.7291741 0.7413743
vt 0.6682638 0.8731178
vt 0.5939469 0.7987406
vt 0.6043223 0.7464865
vt 0.6685654 0.6596679
vt 0.7370009 0.6555961
vt 0.6681733 0.5757748
vt 0.6006728 0.6623824
vt 0.5585529 0.8585802
vt 0.4668331 0.8218892
vt 0.4865584 0.9309818
vt 0.4117439 0.8767522
vt 0.465702 0.7280279
vt 0.3596105 0.7975492
vt 0.5308801 0.9568751
vt 0.6672685 0.9807627
vt 0.5581005 0.5957264
vt 0.5172322 0.5138542
vt 0.6673288 0.4853821
vt 0.5035994 0.6493829
vt 0.8183905 0.5115469
vt 0.3719916 0.6296275
vt 0.3485263 0.7116053
vt 0.4364006 0.558764
vt 0.8045918 0.9585339
vt 0.7790756 0.8603898
vt 0.8697549 0.8240306
vt 0.8483254 0.9344805
vt 0.922024 0.8809446
vt 0.9764647 0.7992986
vt 0.8716851 0.7277867
vt 0.8334258 0.6470757
vt 0.9650789 0.6285869
vt 0.9883029 0.7119672
vt 0.9002477 0.5566376
vt 0.7788795 0.5934342
vt 0.1302657 0.2472906
vt 0.2131935 0.2958499
vt 0.01802124 0.3405637
vt 0.2160287 0.1735166
vt 0.009696784 0.2501107
vt 0.2045071 0.4124677
vt 0.3374722 0.4178816
vt 0.1898187 0.5146987
vt 0.3366579 0.5452669
vt 0.4850051 0.5161012
vt 0.3376984 0.2924719
vt 0.07054675 0.4284682
vt 0.1450597 0.4868298
vt 0.03842521 0.1643024
vt 0.1095149 0.09425335
vt 0.4631836 0.2964079
vt 0.4718097 0.4137043
vt 0.6582051 0.3397343
vt 0.6073837 0.4261307
vt 0.5317397 0.4869204
vt 0.5478759 0.2470795
vt 0.6670121 0.2496583
vt 0.4596698 0.1729738
vt 0.6377257 0.1633373
vt 0.5656558 0.09295642
vt 0.4816572 0.05079124
vt 0.3367182 0.02753706
vt 0.3375175 0.171526
vt 0.1922467 0.0517564
vt 0.04575435 0.4354203
vt 0.05575274 0.9764345
vt 0.02117307 0.9764345
vt 0.04575435 0.4354203
vt 0.05575274 0.9764345
vt 0.02117307 0.9764345
vt 0.03724892 0.9764345
vt 0.05575274 0.9764345
vt 0.04575435 0.4354203
vt 0.04575435 0.4354203
vt 0.07277866 0.9764345
vt 0.03724892 0.9764345
vn -0.2374747 0.3053246 -0.9221619
vn -0.2762461 -0.2064575 -0.9386498
vn 0.05912626 0.1308534 -0.989637
vn 0.1831946 0.6775298 -0.7123153
vn 0.4235772 0.1928877 -0.8850858
vn 0.2432903 -0.3092016 -0.9193499
vn -0.08238924 -0.6503897 -0.7551194
vn -0.3402188 -0.6542668 -0.6754155
vn -0.1870719 -0.9508678 -0.2466869
vn 0.09595907 -0.7240553 -0.6830342
vn 0.5476456 0.5961099 -0.5871434
vn 0.7085468 0.2840004 -0.6459917
vn 0.6872225 0.698854 -0.1983137
vn 0.7337249 0.6794468 0
vn 0.6465125 -0.3111402 -0.6965726
vn 0.972192 0.1987033 0.1239338
vn 0.6193726 0.7763968 -0.1165577
vn 0.2161503 0.9586222 -0.1852632
vn 0.03780204 -0.9644378 -0.2615927
vn 0.01066208 -0.9683149 0.2495046
vn -0.2142119 -0.9334207 0.2878179
vn 0.3596044 -0.7415024 -0.5664441
vn -0.4313315 -0.8713865 0.2337491
vn 0.6484511 -0.7415024 0.1722945
vn 0.9528064 -0.2975702 0.06009995
vn 0.1948261 -0.9508678 0.24061
vn -0.2142119 0.9663764 -0.1422318
vn -0.2083962 0.7492568 -0.6286376
vn -0.48755 0.52826 -0.695152
vn -0.3324646 0.9198508 -0.2081868
vn -0.3886831 0.9198508 -0.05291435
vn -0.8074138 0.5883557 0.04382375
vn -0.6562055 -0.02035493 -0.7543076
vn -0.599987 -0.5301985 -0.5990869
vn -0.910158 -0.4003143 0.1065869
vn -0.9915779 0.1269763 -0.02550244
vn -0.5883557 -0.7802738 0.2121567
vn -0.4235773 -0.8752636 -0.2334435
vn -0.7356868 0.1134063 0.6677604
vn -0.8074138 0.5883557 0.04382375
vn -0.4604101 0.3964373 0.7942669
vn -0.5069357 -0.4429628 0.7394593
vn -0.9915779 0.1269763 -0.02550244
vn -0.3692974 0.8345538 0.4088268
vn 0.1657475 0.852001 0.4966107
vn -0.2142119 0.9663764 -0.1422318
vn 0.2161503 0.9586222 -0.1852632
vn 0.6193726 0.7763968 -0.1165577
vn 0.01647776 0.2529832 0.9673303
vn -0.3886831 0.9198508 -0.05291435
vn -0.3324646 0.9198508 -0.2081868
vn -0.910158 -0.4003143 0.1065869
vn -0.5883557 -0.7802738 0.2121567
vn 0.5205055 0.1831948 0.8339746
vn 0.6465125 0.6154956 0.4507625
vn 0.972192 0.1987033 0.1239338
vn 0.7337249 0.6794468 0
vn 0.6872225 0.698854 -0.1983137
vn 0.6600825 -0.1870718 0.7275268
vn 0.9528064 -0.2975702 0.06009995
vn 0.2200274 -0.5980483 0.770666
vn 0.6484511 -0.7415024 0.1722945
vn 0.1948261 -0.9508678 0.24061
vn 0.01066208 -0.9683149 0.2495046
vn -0.2142119 -0.9334207 0.2878179
vn -0.1541163 -0.5689698 0.807788
vn -0.4313315 -0.8713865 0.2337491
vn -0.3848059 -0.334403 -0.8602901
vn -0.3848059 -0.334403 -0.8602901
vn -0.3848059 -0.334403 -0.8602901
vn -0.3576659 -0.1676861 -0.918671
vn -0.3576659 -0.1676861 -0.918671
vn -0.3576659 -0.1676861 -0.918671
vn -0.3092017 0.03392506 -0.9503912
vn -0.3092017 0.03392506 -0.9503912
vn -0.3092017 0.03392506 -0.9503912
vn -0.3479731 -0.1269762 -0.9288658
vn -0.3479731 -0.1269762 -0.9288658
vn -0.3479731 -0.1269762 -0.9288658
vn 0.2374746 0.3111403 -0.920216
vn -0.05912638 0.1386077 -0.9885808
vn 0.276246 -0.2006418 -0.9399101
vn -0.1831948 0.6833454 -0.7067381
vn -0.4235773 0.1987033 -0.8837982
vn -0.2432904 -0.3014473 -0.9219215
vn 0.08238912 -0.644574 -0.7600897
vn 0.3402187 -0.6484511 -0.6810011
vn 0.1870718 -0.9489293 -0.2540421
vn -0.09595919 -0.7201781 -0.687121
vn -0.5476457 0.599987 -0.5831807
vn -0.7085469 0.2878774 -0.6442732
vn -0.6872226 0.7007926 -0.1913502
vn -0.733725 0.6794468 0
vn -0.6465126 -0.3053245 -0.6991411
vn -0.9721922 0.1987033 0.1239331
vn -0.6193727 0.7763968 -0.1165569
vn -0.2161504 0.9605608 -0.1749342
vn -0.0378021 -0.9624992 -0.2686378
vn -0.0106622 -0.9702535 0.2418565
vn 0.2142118 -0.9353592 0.2814541
vn -0.3596045 -0.7376252 -0.5714837
vn 0.4313315 -0.873325 0.2263991
vn -0.6484512 -0.7415024 0.1722941
vn -0.9528065 -0.2995088 0.04954107
vn -0.1948262 -0.9528064 0.2328149
vn 0.2142118 0.9663764 -0.142232
vn 0.2083961 0.7550725 -0.6216403
vn 0.4875499 0.5340757 -0.690694
vn 0.3324645 0.9217894 -0.1994284
vn 0.3886829 0.9198508 -0.05291547
vn 0.8074137 0.5864171 0.06479301
vn 0.6562054 -0.01647776 -0.7544024
vn 0.5999869 -0.5263213 -0.6024961
vn 0.9101579 -0.4003143 0.1065886
vn 0.9915777 0.1269763 -0.02550711
vn 0.5883555 -0.7822124 0.2048941
vn 0.4235772 -0.873325 -0.2405946
vn 0.7356867 0.1075906 0.6687222
vn 0.4604099 0.3906217 0.7971433
vn 0.8074137 0.5864171 0.06479301
vn 0.5069356 -0.44684 0.737123
vn 0.9915777 0.1269763 -0.02550711
vn 0.3692973 0.8306767 0.4166484
vn -0.1657476 0.8500624 0.4999217
vn 0.2142118 0.9663764 -0.142232
vn -0.2161504 0.9605608 -0.1749342
vn -0.6193727 0.7763968 -0.1165569
vn -0.01647794 0.245229 0.9693251
vn 0.3886829 0.9198508 -0.05291547
vn 0.3324645 0.9217894 -0.1994284
vn 0.9101579 -0.4003143 0.1065886
vn 0.5883555 -0.7822124 0.2048941
vn -0.5205057 0.1754405 0.8356402
vn -0.6465126 0.6116184 0.4560092
vn -0.9721922 0.1987033 0.1239331
vn -0.733725 0.6794468 0
vn -0.6872226 0.7007926 -0.1913502
vn -0.6600827 -0.1928875 0.7260064
vn -0.9528065 -0.2995088 0.04954107
vn -0.2200276 -0.6038641 0.7661175
vn -0.6484512 -0.7415024 0.1722941
vn -0.1948262 -0.9528064 0.2328149
vn -0.0106622 -0.9702535 0.2418565
vn 0.2142118 -0.9353592 0.2814541
vn 0.1541162 -0.5747855 0.8036603
vn 0.4313315 -0.873325 0.2263991
vn 0.3848058 -0.3305259 -0.8617871
vn 0.3848058 -0.3305259 -0.8617871
vn 0.3848058 -0.3305259 -0.8617871
vn 0.3576658 -0.163809 -0.9193703
vn 0.3576658 -0.163809 -0.9193703
vn 0.3576658 -0.163809 -0.9193703
vn 0.3111402 0.0378021 -0.9496119
vn 0.3111402 0.0378021 -0.9496119
vn 0.3111402 0.0378021 -0.9496119
vn 0.3499116 -0.123099 -0.9286595
vn 0.3499116 -0.123099 -0.9286595
vn 0.3499116 -0.123099 -0.9286595
g Wing_Kumo_LOD1_0
f 3/3/3 2/2/2 1/1/1
f 4/4/4 3/3/3 1/1/1
f 3/3/3 4/4/4 5/5/5
f 2/2/2 3/3/3 6/6/6
f 5/5/5 6/6/6 3/3/3
f 7/7/7 2/2/2 6/6/6
f 2/2/2 7/7/7 8/8/8
f 9/9/9 8/8/8 7/7/7
f 7/7/7 6/6/6 10/10/10
f 10/10/10 9/9/9 7/7/7
f 4/4/4 11/11/11 5/5/5
f 5/5/5 11/11/11 12/12/12
f 12/12/12 11/11/11 13/13/13
f 12/12/12 13/13/13 14/14/14
f 5/5/5 12/12/12 15/15/15
f 15/15/15 6/6/6 5/5/5
f 12/12/12 16/16/16 15/15/15
f 12/12/12 14/14/14 16/16/16
f 4/4/4 17/17/17 11/11/11
f 17/17/17 13/13/13 11/11/11
f 4/4/4 18/18/18 17/17/17
f 9/9/9 10/10/10 19/19/19
f 9/9/9 19/19/19 20/20/20
f 21/21/21 9/9/9 20/20/20
f 10/10/10 22/22/22 19/19/19
f 22/22/22 20/20/20 19/19/19
f 15/15/15 22/22/22 6/6/6
f 6/6/6 22/22/22 10/10/10
f 9/9/9 21/21/21 23/23/23
f 15/15/15 24/24/24 22/22/22
f 25/25/25 24/24/24 15/15/15
f 25/25/25 15/15/15 16/16/16
f 22/22/22 24/24/24 26/26/26
f 26/26/26 20/20/20 22/22/22
f 4/4/4 27/27/27 18/18/18
f 28/28/28 27/27/27 4/4/4
f 28/28/28 4/4/4 1/1/1
f 1/1/1 29/29/29 28/28/28
f 28/28/28 29/29/29 30/30/30
f 30/30/30 27/27/27 28/28/28
f 30/30/30 29/29/29 31/31/31
f 29/29/29 32/32/32 31/31/31
f 1/1/1 33/33/33 29/29/29
f 33/33/33 32/32/32 29/29/29
f 33/33/33 1/1/1 2/2/2
f 2/2/2 34/34/34 33/33/33
f 34/34/34 35/35/35 33/33/33
f 35/35/35 36/36/36 33/33/33
f 33/33/33 36/36/36 32/32/32
f 34/34/34 37/37/37 35/35/35
f 23/23/23 37/37/37 34/34/34
f 23/23/23 34/34/34 38/38/38
f 38/38/38 9/9/9 23/23/23
f 8/8/8 9/9/9 38/38/38
f 34/34/34 8/8/8 38/38/38
f 2/2/2 8/8/8 34/34/34
f 41/41/41 40/40/40 39/39/39
f 41/41/41 39/39/39 42/42/42
f 39/39/39 40/40/40 43/43/43
f 44/44/44 40/40/40 41/41/41
f 41/41/41 45/45/45 44/44/44
f 45/45/45 46/46/46 44/44/44
f 47/47/47 46/46/46 45/45/45
f 48/48/48 47/47/47 45/45/45
f 41/41/41 49/49/49 45/45/45
f 50/50/50 40/40/40 44/44/44
f 51/51/51 50/50/50 44/44/44
f 44/44/44 46/46/46 51/51/51
f 42/42/42 39/39/39 52/52/52
f 39/39/39 43/43/43 52/52/52
f 52/52/52 53/53/53 42/42/42
f 49/49/49 54/54/54 45/45/45
f 45/45/45 54/54/54 55/55/55
f 48/48/48 45/45/45 55/55/55
f 55/55/55 54/54/54 56/56/56
f 57/57/57 55/55/55 56/56/56
f 57/57/57 58/58/58 55/55/55
f 48/48/48 55/55/55 58/58/58
f 54/54/54 59/59/59 56/56/56
f 60/60/60 56/56/56 59/59/59
f 61/61/61 59/59/59 54/54/54
f 59/59/59 61/61/61 62/62/62
f 62/62/62 60/60/60 59/59/59
f 62/62/62 61/61/61 63/63/63
f 64/64/64 63/63/63 61/61/61
f 65/65/65 64/64/64 61/61/61
f 65/65/65 61/61/61 66/66/66
f 61/61/61 54/54/54 66/66/66
f 42/42/42 65/65/65 66/66/66
f 67/67/67 65/65/65 42/42/42
f 53/53/53 67/67/67 42/42/42
f 41/41/41 42/42/42 66/66/66
f 66/66/66 54/54/54 49/49/49
f 41/41/41 66/66/66 49/49/49
f 70/70/70 69/69/69 68/68/68
f 73/73/73 72/72/72 71/71/71
f 76/76/76 75/75/75 74/74/74
f 79/79/79 78/78/78 77/77/77
f 82/82/82 81/81/81 80/80/80
f 81/81/81 83/83/83 80/80/80
f 83/83/83 81/81/81 84/84/84
f 81/81/81 82/82/82 85/85/85
f 85/85/85 84/84/84 81/81/81
f 82/82/82 86/86/86 85/85/85
f 86/86/86 82/82/82 87/87/87
f 87/87/87 88/88/88 86/86/86
f 85/85/85 86/86/86 89/89/89
f 88/88/88 89/89/89 86/86/86
f 90/90/90 83/83/83 84/84/84
f 90/90/90 84/84/84 91/91/91
f 90/90/90 91/91/91 92/92/92
f 92/92/92 91/91/91 93/93/93
f 91/91/91 84/84/84 94/94/94
f 85/85/85 94/94/94 84/84/84
f 95/95/95 91/91/91 94/94/94
f 93/93/93 91/91/91 95/95/95
f 96/96/96 83/83/83 90/90/90
f 92/92/92 96/96/96 90/90/90
f 97/97/97 83/83/83 96/96/96
f 89/89/89 88/88/88 98/98/98
f 98/98/98 88/88/88 99/99/99
f 88/88/88 100/100/100 99/99/99
f 101/101/101 89/89/89 98/98/98
f 99/99/99 101/101/101 98/98/98
f 101/101/101 94/94/94 85/85/85
f 101/101/101 85/85/85 89/89/89
f 100/100/100 88/88/88 102/102/102
f 103/103/103 94/94/94 101/101/101
f 103/103/103 104/104/104 94/94/94
f 94/94/94 104/104/104 95/95/95
f 103/103/103 101/101/101 105/105/105
f 99/99/99 105/105/105 101/101/101
f 106/106/106 83/83/83 97/97/97
f 106/106/106 107/107/107 83/83/83
f 83/83/83 107/107/107 80/80/80
f 108/108/108 80/80/80 107/107/107
f 108/108/108 107/107/107 109/109/109
f 106/106/106 109/109/109 107/107/107
f 108/108/108 109/109/109 110/110/110
f 111/111/111 108/108/108 110/110/110
f 112/112/112 80/80/80 108/108/108
f 111/111/111 112/112/112 108/108/108
f 80/80/80 112/112/112 82/82/82
f 113/113/113 82/82/82 112/112/112
f 114/114/114 113/113/113 112/112/112
f 115/115/115 114/114/114 112/112/112
f 115/115/115 112/112/112 111/111/111
f 116/116/116 113/113/113 114/114/114
f 116/116/116 102/102/102 113/113/113
f 113/113/113 102/102/102 117/117/117
f 88/88/88 117/117/117 102/102/102
f 88/88/88 87/87/87 117/117/117
f 87/87/87 113/113/113 117/117/117
f 87/87/87 82/82/82 113/113/113
f 120/120/120 119/119/119 118/118/118
f 118/118/118 119/119/119 121/121/121
f 120/120/120 118/118/118 122/122/122
f 120/120/120 123/123/123 119/119/119
f 124/124/124 119/119/119 123/123/123
f 125/125/125 124/124/124 123/123/123
f 125/125/125 126/126/126 124/124/124
f 126/126/126 127/127/127 124/124/124
f 128/128/128 119/119/119 124/124/124
f 120/120/120 129/129/129 123/123/123
f 129/129/129 130/130/130 123/123/123
f 125/125/125 123/123/123 130/130/130
f 118/118/118 121/121/121 131/131/131
f 122/122/122 118/118/118 131/131/131
f 132/132/132 131/131/131 121/121/121
f 133/133/133 128/128/128 124/124/124
f 133/133/133 124/124/124 134/134/134
f 124/124/124 127/127/127 134/134/134
f 133/133/133 134/134/134 135/135/135
f 134/134/134 136/136/136 135/135/135
f 137/137/137 136/136/136 134/134/134
f 134/134/134 127/127/127 137/137/137
f 138/138/138 133/133/133 135/135/135
f 135/135/135 139/139/139 138/138/138
f 138/138/138 140/140/140 133/133/133
f 140/140/140 138/138/138 141/141/141
f 139/139/139 141/141/141 138/138/138
f 140/140/140 141/141/141 142/142/142
f 142/142/142 143/143/143 140/140/140
f 143/143/143 144/144/144 140/140/140
f 140/140/140 144/144/144 145/145/145
f 133/133/133 140/140/140 145/145/145
f 144/144/144 121/121/121 145/145/145
f 144/144/144 146/146/146 121/121/121
f 146/146/146 132/132/132 121/121/121
f 121/121/121 119/119/119 145/145/145
f 133/133/133 145/145/145 128/128/128
f 145/145/145 119/119/119 128/128/128
f 149/149/149 148/148/148 147/147/147
f 152/152/152 151/151/151 150/150/150
f 155/155/155 154/154/154 153/153/153
f 158/158/158 157/157/157 156/156/156
