g Wing_NewYear2020_LOD2
v 0.666083 1.388475 -0.5702256
v 0.5849847 1.363533 -0.6553348
v 0.6581973 1.328369 -0.7369728
v 0.8286908 1.377886 -0.5660681
v 1.033312 1.303947 -0.7273834
v 1.093788 1.366673 -0.5426781
v 0.8033659 1.460619 -0.3439407
v 0.6099988 1.460778 -0.3830381
v 0.8542906 1.529605 -0.1439931
v 0.8753399 1.466495 -0.3130811
v 1.134853 1.448712 -0.3088851
v 1.012011 1.425501 -0.3977715
v 1.050595 1.422094 -0.3992413
v 1.000849 1.275515 -0.3431827
v 0.8641781 1.316511 -0.2584922
v 1.123692 1.298728 -0.2542937
v 0.8431288 1.379621 -0.0894016
v 1.039433 1.272111 -0.3446524
v 0.792204 1.310635 -0.2893493
v 0.5988369 1.310794 -0.3284466
v 0.8175289 1.227903 -0.5114793
v 1.082626 1.216689 -0.4880892
v 1.022153 1.153963 -0.672792
v 0.647038 1.178386 -0.6823813
v 0.6549212 1.238489 -0.5156367
v 0.5738229 1.213549 -0.6007434
v 0.5849847 1.363533 -0.6553348
v 0.5738229 1.213549 -0.6007434
v 0.6581973 1.328369 -0.7369728
v 0.647038 1.178386 -0.6823813
v 1.033312 1.303947 -0.7273834
v 1.022153 1.153963 -0.672792
v 1.093788 1.366673 -0.5426781
v 1.082626 1.216689 -0.4880892
v 0.8033659 1.460619 -0.3439407
v 0.792204 1.310635 -0.2893493
v 0.8033659 1.460619 -0.3439407
v 0.792204 1.310635 -0.2893493
v 0.8753399 1.466495 -0.3130811
v 0.792204 1.310635 -0.2893493
v 0.8641781 1.316511 -0.2584922
v 1.012011 1.425501 -0.3977715
v 1.000849 1.275515 -0.3431827
v 1.039433 1.272111 -0.3446524
v 1.050595 1.422094 -0.3992413
v 1.134853 1.448712 -0.3088851
v 1.123692 1.298728 -0.2542937
v 0.8542906 1.529605 -0.1439931
v 0.8431288 1.379621 -0.0894016
v 0.6099988 1.460778 -0.3830381
v 0.5988369 1.310794 -0.3284466
v 0.8286908 1.377886 -0.5660681
v 0.8175289 1.227903 -0.5114793
v 0.8286908 1.377886 -0.5660681
v 0.8175289 1.227903 -0.5114793
v 0.666083 1.388475 -0.5702256
v 0.6549212 1.238489 -0.5156367
v 0.5849847 1.363533 -0.6553348
v 0.5738229 1.213549 -0.6007434
v 0.2064574 1.452808 -0.4568262
v 0.291004 1.498565 -0.3224777
v 0.006211758 1.459378 -0.4592158
v 0.2941439 1.559452 -0.1548697
v 0.2977515 1.402911 -0.5845916
v 0.2945139 1.341173 -0.7545481
v 0.5828906 1.44053 -0.4521214
v 0.381093 1.445384 -0.4593905
v 0.291004 1.498565 -0.3224777
v 0.2064574 1.452808 -0.4568262
v 0.2854205 1.348304 -0.2677886
v 0.2008739 1.302549 -0.4021345
v 0.3755094 1.295126 -0.4047015
v 0.381093 1.445384 -0.4593905
v 0.292168 1.252652 -0.5299025
v 0.2977515 1.402911 -0.5845916
v 0.2064574 1.452808 -0.4568262
v 0.2008739 1.302549 -0.4021345
v 0.2945139 1.341173 -0.7545481
v 0.006211758 1.459378 -0.4592158
v 0.2889304 1.190915 -0.6998565
v 0.000628233 1.309119 -0.4045267
v 0.5773045 1.290272 -0.3974298
v 0.5828906 1.44053 -0.4521214
v 0.2885578 1.409193 -0.1001806
v 0.2941439 1.559452 -0.1548697
v 0.000628233 1.309119 -0.4045267
v 0.006211758 1.459378 -0.4592158
v 0.2008739 1.302549 -0.4021345
v 0.292168 1.252652 -0.5299025
v 0.000628233 1.309119 -0.4045267
v 0.2889304 1.190915 -0.6998565
v 0.5773045 1.290272 -0.3974298
v 0.3755094 1.295126 -0.4047015
v 0.2854205 1.348304 -0.2677886
v 0.2885578 1.409193 -0.1001806
v -0.4759252 1.399573 -0.5742648
v -0.5571725 1.366637 -0.6564629
v -0.4838238 1.338691 -0.7407293
v -0.3130219 1.405015 -0.5759427
v -0.1080227 1.351248 -0.744599
v -0.04743922 1.419936 -0.5620649
v -0.3383931 1.485252 -0.3529056
v -0.5321149 1.466349 -0.3850654
v -0.2873733 1.559259 -0.154785
v -0.2662854 1.498223 -0.324631
v -0.006296515 1.506024 -0.3297442
v -0.1293648 1.470701 -0.414224
v -0.09070945 1.4711 -0.4170787
v -0.1237788 1.320443 -0.3595349
v -0.2607019 1.347964 -0.2699393
v -0.0007129908 1.355763 -0.2750552
v -0.2817898 1.409 -0.1000959
v -0.08512592 1.320841 -0.3623871
v -0.3328096 1.334994 -0.298214
v -0.5265287 1.31609 -0.3303738
v -0.3074384 1.254756 -0.5212536
v -0.04185319 1.269677 -0.5073758
v -0.1024392 1.20099 -0.6899099
v -0.4782403 1.188433 -0.6860377
v -0.4703417 1.249314 -0.5195758
v -0.551589 1.216376 -0.6017738
v -0.5571725 1.366637 -0.6564629
v -0.551589 1.216376 -0.6017738
v -0.4838238 1.338691 -0.7407293
v -0.4782403 1.188433 -0.6860377
v -0.1080227 1.351248 -0.744599
v -0.1024392 1.20099 -0.6899099
v -0.04743922 1.419936 -0.5620649
v -0.04185319 1.269677 -0.5073758
v -0.3383931 1.485252 -0.3529056
v -0.3328096 1.334994 -0.298214
v -0.3383931 1.485252 -0.3529056
v -0.3328096 1.334994 -0.298214
v -0.2662854 1.498223 -0.324631
v -0.2607019 1.347964 -0.2699393
v -0.1293648 1.470701 -0.414224
v -0.1237788 1.320443 -0.3595349
v -0.08512592 1.320841 -0.3623871
v -0.09070945 1.4711 -0.4170787
v -0.0007129908 1.355763 -0.2750552
v -0.006296515 1.506024 -0.3297442
v -0.2873733 1.559259 -0.154785
v -0.2817898 1.409 -0.1000959
v -0.5321149 1.466349 -0.3850654
v -0.5265287 1.31609 -0.3303738
v -0.3130219 1.405015 -0.5759427
v -0.3074384 1.254756 -0.5212536
v -0.3130219 1.405015 -0.5759427
v -0.4759252 1.399573 -0.5742648
v -0.4703417 1.249314 -0.5195758
v -0.5571725 1.366637 -0.6564629
v -0.551589 1.216376 -0.6017738
v -0.9350625 1.413931 -0.442676
v -0.8506702 1.468006 -0.311357
v -1.134943 1.400796 -0.4378942
v -0.847538 1.529204 -0.1438594
v -0.5593206 1.438696 -0.4514534
v -0.7607483 1.423693 -0.4514945
v -0.8439355 1.37302 -0.5737123
v -0.847168 1.310961 -0.7435507
v -0.9350625 1.413931 -0.442676
v -0.9239033 1.263947 -0.3880845
v -0.8506702 1.468006 -0.311357
v -0.8395108 1.318022 -0.2567655
v -0.7607483 1.423693 -0.4514945
v -0.7495863 1.273706 -0.3969056
v -0.8327737 1.223033 -0.5191209
v -0.8439355 1.37302 -0.5737123
v -0.9350625 1.413931 -0.442676
v -0.9239033 1.263947 -0.3880845
v -0.847168 1.310961 -0.7435507
v -1.134943 1.400796 -0.4378942
v -0.8360087 1.160977 -0.6889618
v -1.123782 1.250812 -0.3833053
v -0.5481588 1.288712 -0.3968645
v -0.5593206 1.438696 -0.4514534
v -0.8363787 1.37922 -0.08927059
v -0.847538 1.529204 -0.1438594
v -1.123782 1.250812 -0.3833053
v -1.134943 1.400796 -0.4378942
v -0.9239033 1.263947 -0.3880845
v -0.8327737 1.223033 -0.5191209
v -1.123782 1.250812 -0.3833053
v -0.8360087 1.160977 -0.6889618
v -0.5481588 1.288712 -0.3968645
v -0.7495863 1.273706 -0.3969056
v -0.8395108 1.318022 -0.2567655
v -0.8363787 1.37922 -0.08927059
vt 0.2341126 0.7790014
vt 0.2629503 0.7476099
vt 0.2369103 0.716118
vt 0.1762794 0.7791018
vt 0.1035108 0.7163619
vt 0.08200452 0.7855437
vt 0.1852894 0.8632046
vt 0.2540551 0.8501918
vt 0.1671833 0.9382256
vt 0.1596941 0.8741944
vt 0.06739917 0.8734484
vt 0.1110861 0.8409953
vt 0.09735593 0.8400914
vt 0.9146103 0.5862049
vt 0.8693595 0.6171086
vt 0.95527 0.6164056
vt 0.8623868 0.6767209
vt 0.9273792 0.5853584
vt 0.845529 0.6068791
vt 0.7815121 0.5947558
vt 0.8539076 0.5286013
vt 0.9416833 0.534584
vt 0.9216547 0.4701799
vt 0.7974661 0.4699647
vt 0.8000773 0.5285009
vt 0.7732339 0.4992758
vt 0.9602628 0.1641848
vt 0.9602628 0.114802
vt 0.9138069 0.1641848
vt 0.9138069 0.114802
vt 0.8057157 0.1641848
vt 0.8057157 0.114802
vt 0.7273518 0.1641848
vt 0.7273518 0.114802
vt 0.6030915 0.1641848
vt 0.6030915 0.114802
vt 0.6030915 0.1641848
vt 0.6030915 0.114802
vt 0.56467 0.1641848
vt 0.6030915 0.114802
vt 0.56467 0.114802
vt 0.507425 0.1641848
vt 0.507425 0.114802
vt 0.4950148 0.114802
vt 0.4950148 0.1641848
vt 0.4479706 0.1641848
vt 0.4479706 0.114802
vt 0.345274 0.1641848
vt 0.345274 0.114802
vt 0.2162074 0.1641848
vt 0.2162074 0.114802
vt 0.1150316 0.1641848
vt 0.1150316 0.114802
vt 0.1150316 0.1641848
vt 0.1150316 0.114802
vt 0.06534753 0.1641848
vt 0.06534753 0.114802
vt 0.02160319 0.1641848
vt 0.02160319 0.114802
vt 0.4277555 0.8246252
vt 0.3977413 0.8749549
vt 0.4988454 0.8246252
vt 0.3966366 0.9382256
vt 0.3953454 0.7759742
vt 0.3965075 0.7118139
vt 0.2941265 0.824697
vt 0.3657616 0.8228605
vt 0.1788762 0.2559919
vt 0.2371829 0.2559919
vt 0.1788762 0.2065805
vt 0.2371829 0.2065805
vt 0.1045725 0.2065805
vt 0.1177001 0.2559919
vt 0.08777206 0.2065805
vt 0.08777206 0.2559919
vt 0.0285185 0.2559919
vt 0.0285185 0.2065805
vt 0.7189013 0.2559776
vt 0.866361 0.2559776
vt 0.7188153 0.2065948
vt 0.8666479 0.2065948
vt 0.5715278 0.2065948
vt 0.5715709 0.2559776
vt 0.4242405 0.2065948
vt 0.4242548 0.2559776
vt 0.2767952 0.2065948
vt 0.2768239 0.2559776
vt 0.596707 0.570954
vt 0.6268647 0.5256745
vt 0.5305238 0.570954
vt 0.625803 0.4659618
vt 0.7210965 0.57104
vt 0.6517856 0.5559182
vt 0.6246409 0.617826
vt 0.6256738 0.6767209
vt 0.6962759 0.7790014
vt 0.7251136 0.7476099
vt 0.6990737 0.716118
vt 0.6384428 0.7791018
vt 0.5656742 0.7163619
vt 0.5441679 0.7855437
vt 0.6474528 0.8632046
vt 0.7162185 0.8501918
vt 0.6293467 0.9382256
vt 0.6218575 0.8741944
vt 0.5295625 0.8734484
vt 0.5732495 0.8409953
vt 0.5595337 0.8400914
vt 0.4376981 0.5862049
vt 0.3924473 0.6171086
vt 0.4783578 0.6164056
vt 0.3854746 0.6767209
vt 0.450467 0.5853584
vt 0.3686167 0.6068791
vt 0.3045999 0.5947558
vt 0.3769954 0.5286013
vt 0.4647711 0.534584
vt 0.4447425 0.4701799
vt 0.3205539 0.4699647
vt 0.3231651 0.5285009
vt 0.2963216 0.4992758
vt 0.9602628 0.3344706
vt 0.9602628 0.2850879
vt 0.9138069 0.3344706
vt 0.9138069 0.2850879
vt 0.8057157 0.3344706
vt 0.8057157 0.2850879
vt 0.7273518 0.3344706
vt 0.7273518 0.2850879
vt 0.6030915 0.3344706
vt 0.6030915 0.2850879
vt 0.6030915 0.3344706
vt 0.6030915 0.2850879
vt 0.56467 0.3344706
vt 0.56467 0.2850879
vt 0.507425 0.3344706
vt 0.507425 0.2850879
vt 0.4950148 0.2850879
vt 0.4950148 0.3344706
vt 0.4479706 0.2850879
vt 0.4479706 0.3344706
vt 0.345274 0.3344706
vt 0.345274 0.2850879
vt 0.2162074 0.3344706
vt 0.2162074 0.2850879
vt 0.1150316 0.3344706
vt 0.1150316 0.2850879
vt 0.1150316 0.3344706
vt 0.06534753 0.3344706
vt 0.06534753 0.2850879
vt 0.02160319 0.3344706
vt 0.02160319 0.2850879
vt 0.890751 0.8246252
vt 0.8607369 0.8749549
vt 0.9618409 0.8246252
vt 0.8596321 0.9382256
vt 0.757122 0.824697
vt 0.8287572 0.8228605
vt 0.8583409 0.7759742
vt 0.8594887 0.7118139
vt 0.2371829 0.4262778
vt 0.2371829 0.3768663
vt 0.1788762 0.4262778
vt 0.1788762 0.3768663
vt 0.1177001 0.4262778
vt 0.1045725 0.3768663
vt 0.08777206 0.3768663
vt 0.08777206 0.4262778
vt 0.0285185 0.4262778
vt 0.0285185 0.3768663
vt 0.7189013 0.4262634
vt 0.866361 0.4262634
vt 0.7188153 0.3768806
vt 0.8666479 0.3768806
vt 0.5715278 0.3768806
vt 0.5715709 0.4262634
vt 0.4242405 0.3768806
vt 0.4242548 0.4262634
vt 0.2767952 0.3768806
vt 0.2768239 0.4262634
vt 0.1197948 0.570954
vt 0.1499524 0.5256745
vt 0.0536116 0.570954
vt 0.1488907 0.4659618
vt 0.2441842 0.57104
vt 0.1748734 0.5559182
vt 0.1477286 0.617826
vt 0.1487616 0.6767209
vn 0.06949747 0.9365845 -0.3434817
vn 0.06949747 0.9365845 -0.3434817
vn 0.06949747 0.9365845 -0.3434817
vn 0.06949747 0.9365845 -0.3434817
vn 0.06949747 0.9365845 -0.3434817
vn 0.06949747 0.9365845 -0.3434817
vn 0.06949747 0.9365845 -0.3434817
vn 0.06949747 0.9365845 -0.3434817
vn 0.06949747 0.9365845 -0.3434817
vn 0.06949747 0.9365845 -0.3434817
vn 0.06949747 0.9365845 -0.3434817
vn 0.06949747 0.9365845 -0.3434817
vn 0.06949747 0.9365845 -0.3434817
vn -0.06920505 -0.9368769 0.3427424
vn -0.06920505 -0.9368769 0.3427424
vn -0.06920505 -0.9368769 0.3427424
vn -0.06920505 -0.9368769 0.3427424
vn -0.06920505 -0.9368769 0.3427424
vn -0.06920505 -0.9368769 0.3427424
vn -0.06920505 -0.9368769 0.3427424
vn -0.06920505 -0.9368769 0.3427424
vn -0.06920505 -0.9368769 0.3427424
vn -0.06920505 -0.9368769 0.3427424
vn -0.06920505 -0.9368769 0.3427424
vn -0.06920505 -0.9368769 0.3427424
vn -0.06920505 -0.9368769 0.3427424
vn -0.7685785 -0.1671754 -0.6175269
vn -0.7685785 -0.1671754 -0.6175269
vn -0.1922792 -0.3234599 -0.9265001
vn -0.1922792 -0.3234599 -0.9265001
vn 0.4074629 -0.3390884 -0.8479346
vn 0.4074629 -0.3390884 -0.8479346
vn 0.8724095 0.1082762 0.4766318
vn 0.8724095 0.1082762 0.4766318
vn 0.7493354 0.1766508 0.6381935
vn 0.7493354 0.1766508 0.6381935
vn 0.7493354 0.1766508 0.6381935
vn 0.7493354 0.1766508 0.6381935
vn -0.28605 -0.309785 -0.9067572
vn 0.7493354 0.1766508 0.6381935
vn -0.28605 -0.309785 -0.9067572
vn -0.4794521 -0.2687603 -0.8354002
vn -0.4794521 -0.2687603 -0.8354002
vn 0.5950044 -0.3136922 -0.7399777
vn 0.5950044 -0.3136922 -0.7399777
vn 0.8138028 0.1453938 0.5626594
vn 0.8138028 0.1453938 0.5626594
vn -0.1239047 0.3466102 0.9297898
vn -0.1239047 0.3466102 0.9297898
vn -0.9951912 0.0848335 0.04896649
vn -0.9951912 0.0848335 0.04896649
vn -0.9600272 -0.02847278 -0.2784548
vn -0.9600272 -0.02847278 -0.2784548
vn -0.9600272 -0.02847278 -0.2784548
vn -0.9600272 -0.02847278 -0.2784548
vn -0.3407495 0.3446567 0.8747008
vn -0.3407495 0.3446567 0.8747008
vn -0.7353681 0.2801893 0.6170313
vn -0.7353681 0.2801893 0.6170313
vn 0.03433347 0.9385381 -0.343464
vn 0.03433347 0.9385381 -0.343464
vn 0.03433347 0.9385381 -0.343464
vn 0.03433347 0.9385381 -0.343464
vn 0.03433347 0.9385381 -0.343464
vn 0.03433347 0.9385381 -0.343464
vn 0.03433347 0.9385381 -0.343464
vn 0.03433347 0.9385381 -0.343464
vn -0.02818036 -0.3410419 -0.9396256
vn 0.8587346 -0.2023394 -0.4707798
vn -0.02818036 -0.3410419 -0.9396256
vn 0.8587346 -0.2023394 -0.4707798
vn -0.9990983 0.02427328 -0.03483349
vn -0.9990983 0.02427328 -0.03483349
vn 0.02847278 0.3407495 0.9397229
vn 0.02847278 0.3407495 0.9397229
vn 0.8313848 0.1629758 0.531261
vn 0.8313848 0.1629758 0.531261
vn 0.001122952 -0.3429955 -0.9393364
vn -0.7392752 -0.2062465 -0.6410418
vn 0.001122952 -0.3429955 -0.9393364
vn -0.7392752 -0.2062465 -0.6410418
vn 0.9993907 -0.03237987 0.01302858
vn 0.9993907 -0.03237987 0.01302858
vn -0.0008305311 0.3427031 0.9394434
vn -0.0008305311 0.3427031 0.9394434
vn -0.7431823 0.2528394 0.6194775
vn -0.7431823 0.2528394 0.6194775
vn -0.03404105 -0.9388304 0.3426932
vn -0.03404105 -0.9388304 0.3426932
vn -0.03404105 -0.9388304 0.3426932
vn -0.03404105 -0.9388304 0.3426932
vn -0.03404105 -0.9388304 0.3426932
vn -0.03404105 -0.9388304 0.3426932
vn -0.03404105 -0.9388304 0.3426932
vn -0.03404105 -0.9388304 0.3426932
vn -0.03404105 0.9385381 -0.3434931
vn -0.03404105 0.9385381 -0.3434931
vn -0.03404105 0.9385381 -0.3434931
vn -0.03404105 0.9385381 -0.3434931
vn -0.03404105 0.9385381 -0.3434931
vn -0.03404105 0.9385381 -0.3434931
vn -0.03404105 0.9385381 -0.3434931
vn -0.03404105 0.9385381 -0.3434931
vn -0.03404105 0.9385381 -0.3434931
vn -0.03404105 0.9385381 -0.3434931
vn -0.03404105 0.9385381 -0.3434931
vn -0.03404105 0.9385381 -0.3434931
vn -0.03404105 0.9385381 -0.3434931
vn 0.03433347 -0.9388304 0.3426639
vn 0.03433347 -0.9388304 0.3426639
vn 0.03433347 -0.9388304 0.3426639
vn 0.03433347 -0.9388304 0.3426639
vn 0.03433347 -0.9388304 0.3426639
vn 0.03433347 -0.9388304 0.3426639
vn 0.03433347 -0.9388304 0.3426639
vn 0.03433347 -0.9388304 0.3426639
vn 0.03433347 -0.9388304 0.3426639
vn 0.03433347 -0.9388304 0.3426639
vn 0.03433347 -0.9388304 0.3426639
vn 0.03433347 -0.9388304 0.3426639
vn 0.03433347 -0.9388304 0.3426639
vn -0.7705321 -0.2433641 -0.589113
vn -0.7705321 -0.2433641 -0.589113
vn -0.1922792 -0.3410419 -0.9201734
vn -0.1922792 -0.3410419 -0.9201734
vn 0.4094164 -0.2980637 -0.8622854
vn 0.4094164 -0.2980637 -0.8622854
vn 0.8724095 0.1942327 0.4485257
vn 0.8724095 0.1942327 0.4485257
vn 0.751289 0.250886 0.610427
vn 0.751289 0.250886 0.610427
vn 0.751289 0.250886 0.610427
vn 0.751289 0.250886 0.610427
vn -0.28605 -0.3371348 -0.8969479
vn -0.28605 -0.3371348 -0.8969479
vn -0.4794521 -0.3156457 -0.8188366
vn -0.4794521 -0.3156457 -0.8188366
vn 0.5950044 -0.2550854 -0.7621688
vn 0.5950044 -0.2550854 -0.7621688
vn 0.8138028 0.2254896 0.5356113
vn 0.8138028 0.2254896 0.5356113
vn -0.1239047 0.3348888 0.9340755
vn -0.1239047 0.3348888 0.9340755
vn -0.9971448 -0.01284432 0.0744125
vn -0.9971448 -0.01284432 0.0744125
vn -0.9619807 -0.1241971 -0.2432452
vn -0.9619807 -0.1241971 -0.2432452
vn -0.9619807 -0.1241971 -0.2432452
vn -0.3407495 0.3094926 0.8877523
vn -0.3407495 0.3094926 0.8877523
vn -0.7353681 0.2079077 0.6449869
vn -0.7353681 0.2079077 0.6449869
vn -0.06920505 0.9365845 -0.3435406
vn -0.06920505 0.9365845 -0.3435406
vn -0.06920505 0.9365845 -0.3435406
vn -0.06920505 0.9365845 -0.3435406
vn -0.06920505 0.9365845 -0.3435406
vn -0.06920505 0.9365845 -0.3435406
vn -0.06920505 0.9365845 -0.3435406
vn -0.06920505 0.9365845 -0.3435406
vn 0.8567811 -0.1183364 -0.501919
vn 0.8567811 -0.1183364 -0.501919
vn -0.02818036 -0.3429955 -0.9389142
vn -0.02818036 -0.3429955 -0.9389142
vn -0.9971448 -0.07340461 0.01771894
vn -0.9971448 -0.07340461 0.01771894
vn 0.02847278 0.3446567 0.9382969
vn 0.02847278 0.3446567 0.9382969
vn 0.8294312 0.2450253 0.5020025
vn 0.8294312 0.2450253 0.5020025
vn 0.001122952 -0.3410419 -0.9400474
vn -0.7392752 -0.2785281 -0.6131021
vn 0.001122952 -0.3410419 -0.9400474
vn -0.7392752 -0.2785281 -0.6131021
vn 0.9974372 0.06529796 -0.02924485
vn 0.9974372 0.06529796 -0.02924485
vn -0.0008305311 0.3427031 0.9394434
vn -0.0008305311 0.3427031 0.9394434
vn -0.7412288 0.1805578 0.6465127
vn -0.7412288 0.1805578 0.6465127
vn 0.06949747 -0.9368769 0.3426833
vn 0.06949747 -0.9368769 0.3426833
vn 0.06949747 -0.9368769 0.3426833
vn 0.06949747 -0.9368769 0.3426833
vn 0.06949747 -0.9368769 0.3426833
vn 0.06949747 -0.9368769 0.3426833
vn 0.06949747 -0.9368769 0.3426833
vn 0.06949747 -0.9368769 0.3426833
g Wing_NewYear2020_LOD2_0
f 3/3/3 2/2/2 1/1/1
f 3/3/3 1/1/1 4/4/4
f 3/3/3 4/4/4 5/5/5
f 6/6/6 5/5/5 4/4/4
f 4/4/4 7/7/7 6/6/6
f 4/4/4 8/8/8 7/7/7
f 9/9/9 7/7/7 8/8/8
f 9/9/9 10/10/10 7/7/7
f 11/11/11 10/10/10 9/9/9
f 11/11/11 12/12/12 10/10/10
f 11/11/11 13/13/13 12/12/12
f 16/16/16 15/15/15 14/14/14
f 16/16/16 17/17/17 15/15/15
f 18/18/18 16/16/16 14/14/14
f 17/17/17 19/19/19 15/15/15
f 17/17/17 20/20/20 19/19/19
f 21/21/21 19/19/19 20/20/20
f 21/21/21 22/22/22 19/19/19
f 23/23/23 22/22/22 21/21/21
f 24/24/24 23/23/23 21/21/21
f 24/24/24 21/21/21 25/25/25
f 24/24/24 25/25/25 26/26/26
f 29/29/29 28/28/28 27/27/27
f 29/29/29 30/30/30 28/28/28
f 31/31/31 30/30/30 29/29/29
f 31/31/31 32/32/32 30/30/30
f 32/32/32 31/31/31 33/33/33
f 32/32/32 33/33/33 34/34/34
f 35/35/35 34/34/34 33/33/33
f 35/35/35 36/36/36 34/34/34
f 39/39/39 38/38/38 37/37/37
f 39/39/39 41/41/41 40/40/40
f 42/42/42 41/41/41 39/39/39
f 42/42/42 43/43/43 41/41/41
f 44/44/44 43/43/43 42/42/42
f 44/44/44 42/42/42 45/45/45
f 46/46/46 44/44/44 45/45/45
f 46/46/46 47/47/47 44/44/44
f 47/47/47 46/46/46 48/48/48
f 47/47/47 48/48/48 49/49/49
f 50/50/50 49/49/49 48/48/48
f 50/50/50 51/51/51 49/49/49
f 52/52/52 51/51/51 50/50/50
f 52/52/52 53/53/53 51/51/51
f 56/56/56 55/55/55 54/54/54
f 56/56/56 57/57/57 55/55/55
f 58/58/58 57/57/57 56/56/56
f 58/58/58 59/59/59 57/57/57
f 62/62/62 61/61/61 60/60/60
f 62/62/62 63/63/63 61/61/61
f 62/62/62 60/60/60 64/64/64
f 62/62/62 64/64/64 65/65/65
f 64/64/64 66/66/66 65/65/65
f 61/61/61 63/63/63 66/66/66
f 64/64/64 67/67/67 66/66/66
f 61/61/61 66/66/66 67/67/67
f 70/70/70 69/69/69 68/68/68
f 70/70/70 71/71/71 69/69/69
f 72/72/72 70/70/70 68/68/68
f 72/72/72 68/68/68 73/73/73
f 73/73/73 74/74/74 72/72/72
f 73/73/73 75/75/75 74/74/74
f 76/76/76 74/74/74 75/75/75
f 76/76/76 77/77/77 74/74/74
f 80/80/80 79/79/79 78/78/78
f 80/80/80 81/81/81 79/79/79
f 82/82/82 80/80/80 78/78/78
f 82/82/82 78/78/78 83/83/83
f 84/84/84 82/82/82 83/83/83
f 84/84/84 83/83/83 85/85/85
f 86/86/86 84/84/84 85/85/85
f 86/86/86 85/85/85 87/87/87
f 90/90/90 89/89/89 88/88/88
f 90/90/90 91/91/91 89/89/89
f 89/89/89 91/91/91 92/92/92
f 89/89/89 92/92/92 93/93/93
f 92/92/92 94/94/94 93/93/93
f 94/94/94 90/90/90 88/88/88
f 92/92/92 95/95/95 94/94/94
f 94/94/94 95/95/95 90/90/90
f 98/98/98 97/97/97 96/96/96
f 98/98/98 96/96/96 99/99/99
f 98/98/98 99/99/99 100/100/100
f 101/101/101 100/100/100 99/99/99
f 99/99/99 102/102/102 101/101/101
f 99/99/99 103/103/103 102/102/102
f 104/104/104 102/102/102 103/103/103
f 104/104/104 105/105/105 102/102/102
f 106/106/106 105/105/105 104/104/104
f 106/106/106 107/107/107 105/105/105
f 106/106/106 108/108/108 107/107/107
f 111/111/111 110/110/110 109/109/109
f 111/111/111 112/112/112 110/110/110
f 113/113/113 111/111/111 109/109/109
f 112/112/112 114/114/114 110/110/110
f 112/112/112 115/115/115 114/114/114
f 116/116/116 114/114/114 115/115/115
f 116/116/116 117/117/117 114/114/114
f 118/118/118 117/117/117 116/116/116
f 119/119/119 118/118/118 116/116/116
f 119/119/119 116/116/116 120/120/120
f 119/119/119 120/120/120 121/121/121
f 124/124/124 123/123/123 122/122/122
f 124/124/124 125/125/125 123/123/123
f 126/126/126 125/125/125 124/124/124
f 126/126/126 127/127/127 125/125/125
f 127/127/127 126/126/126 128/128/128
f 127/127/127 128/128/128 129/129/129
f 130/130/130 129/129/129 128/128/128
f 130/130/130 131/131/131 129/129/129
f 134/134/134 133/133/133 132/132/132
f 134/134/134 135/135/135 133/133/133
f 136/136/136 135/135/135 134/134/134
f 136/136/136 137/137/137 135/135/135
f 138/138/138 137/137/137 136/136/136
f 138/138/138 136/136/136 139/139/139
f 140/140/140 138/138/138 139/139/139
f 140/140/140 139/139/139 141/141/141
f 140/140/140 141/141/141 142/142/142
f 140/140/140 142/142/142 143/143/143
f 144/144/144 143/143/143 142/142/142
f 144/144/144 145/145/145 143/143/143
f 146/146/146 145/145/145 144/144/144
f 146/146/146 147/147/147 145/145/145
f 149/149/149 147/147/147 148/148/148
f 149/149/149 150/150/150 147/147/147
f 151/151/151 150/150/150 149/149/149
f 151/151/151 152/152/152 150/150/150
f 155/155/155 154/154/154 153/153/153
f 155/155/155 156/156/156 154/154/154
f 157/157/157 154/154/154 156/156/156
f 157/157/157 158/158/158 154/154/154
f 159/159/159 158/158/158 157/157/157
f 155/155/155 153/153/153 159/159/159
f 159/159/159 157/157/157 160/160/160
f 155/155/155 159/159/159 160/160/160
f 163/163/163 162/162/162 161/161/161
f 163/163/163 164/164/164 162/162/162
f 165/165/165 164/164/164 163/163/163
f 165/165/165 166/166/166 164/164/164
f 165/165/165 167/167/167 166/166/166
f 165/165/165 168/168/168 167/167/167
f 169/169/169 167/167/167 168/168/168
f 169/169/169 170/170/170 167/167/167
f 173/173/173 172/172/172 171/171/171
f 173/173/173 174/174/174 172/172/172
f 175/175/175 173/173/173 171/171/171
f 175/175/175 171/171/171 176/176/176
f 177/177/177 175/175/175 176/176/176
f 177/177/177 176/176/176 178/178/178
f 179/179/179 177/177/177 178/178/178
f 179/179/179 178/178/178 180/180/180
f 183/183/183 182/182/182 181/181/181
f 183/183/183 184/184/184 182/182/182
f 182/182/182 184/184/184 185/185/185
f 182/182/182 185/185/185 186/186/186
f 187/187/187 186/186/186 185/185/185
f 183/183/183 181/181/181 187/187/187
f 187/187/187 185/185/185 188/188/188
f 183/183/183 187/187/187 188/188/188
