g Wing_Paper_LOD2
v -0.09985662 1.457318 -0.6536553
v -3.576279E-07 1.219573 -0.5243874
v -3.576279E-07 1.636275 0.3096334
v -1.202065 1.319692 -0.8827406
v -3.576279E-07 1.62827 0.294059
v -0.1948234 1.303572 -1.18926
v -3.576279E-07 1.009943 -0.7530627
v -0.9054686 1.243973 -1.26427
v 0.1948225 1.303572 -1.18926
v -1.20458 1.305966 -0.8876246
v 0.9054677 1.243973 -1.26427
v 0.1981856 1.296339 -1.193764
v 0.9054151 1.239576 -1.268533
v 1.204579 1.305966 -0.8876246
v 0.08695483 1.089848 -1.081533
v -0.08695555 1.089848 -1.081533
v -3.576279E-07 1.20952 -0.8903533
v -3.576279E-07 0.9650122 -0.7485223
v -0.2016963 1.290505 -1.189736
v -3.576279E-07 1.626901 0.3080266
v -0.08378923 1.067508 -1.074937
v -3.576279E-07 1.626901 0.3080266
v -0.9027148 1.236452 -1.261735
v -1.202804 1.295807 -0.8829457
v -0.2016963 1.290505 -1.189736
v 1.202806 1.295807 -0.8829457
v 0.9027141 1.236452 -1.261735
v 0.2016956 1.290505 -1.189736
v 1.202067 1.319692 -0.8827406
v -3.576279E-07 1.636275 0.3096334
v 0.09985578 1.457318 -0.6536553
v -3.576279E-07 1.219573 -0.5243874
v 0.08379114 1.067508 -1.074937
v -3.576279E-07 1.20952 -0.8903533
v -3.576279E-07 0.9650122 -0.7485223
v -0.08378923 1.067508 -1.074937
v 0.08379114 1.067508 -1.074937
v -3.576279E-07 0.9650122 -0.7485223
v 0.2016956 1.290505 -1.189736
v -3.576279E-07 1.626901 0.3080266
vt 0.3880641 0.7341032
vt 0.32884 0.6748648
vt 0.1325846 0.8658211
vt 0.6243432 0.9703825
vt 0.5740516 0.5693986
vt 0.982517 0.7136102
vt 0.9154952 0.5693986
vt 0.9828045 0.9103682
vt 0.982991 0.4248424
vt 0.8642271 0.9804494
vt 0.9828045 0.2281275
vt 0.9877446 0.4284039
vt 0.9877446 0.2251546
vt 0.8657062 0.1580319
vt 0.9828045 0.5013282
vt 0.9828045 0.6402695
vt 0.9877446 0.5693986
vt 0.4368048 0.07799911
vt 0.3021145 0.01153708
vt 0.4368048 0.4220419
vt 0.3612669 0.01153708
vt 0.4368048 0.4220419
vt 0.09707022 0.01153708
vt 0.01033068 0.1274865
vt 0.3021145 0.01153708
vt 0.8632791 0.1274865
vt 0.7765253 0.01153708
vt 0.571481 0.01153708
vt 0.02802324 0.374048
vt 0.1325846 0.8658211
vt 0.2643023 0.6104276
vt 0.3235409 0.6696517
vt 0.5123286 0.01153708
vt 0.4368048 0.00794673
vt 0.4368048 0.07799911
vt 0.3612669 0.01153708
vt 0.5123286 0.01153708
vt 0.4368048 0.07799911
vt 0.571481 0.01153708
vt 0.4368048 0.4220419
vn 0.06682658 0.9788564 -0.1933242
vn 0.9382291 0.310462 -0.1527724
vn 0.01703215 0.9826869 -0.1844896
vn -0.08638704 0.9807717 -0.1749977
vn -0.0002043843 0.9692806 -0.2459575
vn 0.1759913 0.9558744 -0.2352257
vn -0.0002043843 0.8792676 -0.4763281
vn -0.0595746 0.9769413 -0.205028
vn -0.1764001 0.9558744 -0.2349194
vn -0.05765951 0.9769413 -0.2055748
vn 0.05916589 0.9750261 -0.2140641
vn -0.0365926 0.5958223 -0.8022822
vn -0.0365926 0.5958223 -0.8022822
vn 0.05916589 0.9769413 -0.2051464
vn -0.8198973 0.5670948 -0.07856171
vn 0.8194886 0.5670948 -0.08271613
vn -0.0002043843 0.5670948 0.8236525
vn -0.0002043843 -0.869283 0.4943146
vn -0.2127883 -0.947805 0.2374589
vn -0.0002043843 -0.9669567 0.2549405
vn -0.7298843 -0.6835115 -0.008998495
vn -0.0002043843 -0.9669567 0.2549405
vn 0.05916589 -0.9765326 0.2070834
vn 0.06491143 -0.9765326 0.2053548
vn -0.2127883 -0.947805 0.2374589
vn -0.06532013 -0.9765326 0.2052251
vn -0.0595746 -0.9765326 0.206966
vn 0.2142947 -0.947805 0.2361004
vn 0.08597833 0.9807717 -0.1751989
vn -0.01744092 0.9826869 -0.1844514
vn -0.06532013 0.9788564 -0.1938384
vn -0.9386379 0.310462 -0.150241
vn 0.7294756 -0.6835115 -0.02602647
vn -0.0002043843 -0.5015703 -0.8651168
vn -0.0002043843 -0.869283 0.4943146
vn -0.7298843 -0.6835115 -0.008998495
vn 0.7294756 -0.6835115 -0.02602647
vn -0.0002043843 -0.869283 0.4943146
vn 0.2142947 -0.947805 0.2361004
vn -0.0002043843 -0.9669567 0.2549405
g Wing_Paper_LOD2_0
f 3/3/3 2/2/2 1/1/1
f 1/1/1 4/4/4 3/3/3
f 7/7/7 6/6/6 5/5/5
f 6/6/6 8/8/8 5/5/5
f 7/7/7 5/5/5 9/9/9
f 8/8/8 10/10/10 5/5/5
f 11/11/11 9/9/9 5/5/5
f 12/12/12 9/9/9 11/11/11
f 13/13/13 12/12/12 11/11/11
f 14/14/14 11/11/11 5/5/5
f 7/7/7 9/9/9 15/15/15
f 7/7/7 16/16/16 6/6/6
f 17/17/17 16/16/16 7/7/7
f 17/17/17 7/7/7 15/15/15
f 20/20/20 19/19/19 18/18/18
f 19/19/19 21/21/21 18/18/18
f 24/24/24 23/23/23 22/22/22
f 23/23/23 25/25/25 22/22/22
f 27/27/27 26/26/26 22/22/22
f 27/27/27 22/22/22 28/28/28
f 31/31/31 30/30/30 29/29/29
f 31/31/31 32/32/32 30/30/30
f 35/35/35 34/34/34 33/33/33
f 35/35/35 36/36/36 34/34/34
f 39/39/39 38/38/38 37/37/37
f 40/40/40 38/38/38 39/39/39
