g Wing_Bangasa_LOD2
v 1.66893E-06 2.076165 -0.8400295
v 0.05366683 2.071638 -0.861791
v 0.1414214 2.050771 -0.7678278
v 0.03825867 2.06626 -0.7743369
v 0.1382003 2.045909 -0.8721707
v 0.07589591 2.060712 -0.9143243
v 0.07589591 2.060712 -0.9143243
v 0.05366683 2.049784 -0.9668613
v 0.1414214 1.993179 -1.044711
v 0.1382003 2.03033 -0.9470815
v 0.03825867 2.009979 -1.044915
v 1.66893E-06 2.045256 -0.9886227
v 1.66893E-06 2.045256 -0.9886227
v -0.05366719 2.049784 -0.9668613
v -0.1414218 1.993179 -1.044711
v -0.03825903 2.009979 -1.044915
v -0.1382006 2.03033 -0.9470815
v -0.07589626 2.060712 -0.9143243
v -0.07589626 2.060712 -0.9143243
v -0.05366719 2.071638 -0.861791
v -0.1414218 2.050771 -0.7678278
v -0.1382006 2.045909 -0.8721707
v -0.03825903 2.06626 -0.7743369
v 1.66893E-06 2.076165 -0.8400295
v 1.66893E-06 2.080292 -0.918399
v 0.88045 1.777249 -0.8553672
v 0.7624913 1.687613 -1.286318
v 0.4402258 1.621995 -1.601796
v 1.66893E-06 1.597974 -1.717268
v -0.4402262 1.621995 -1.601796
v -0.7624918 1.687613 -1.286318
v -0.8804504 1.777253 -0.8553672
v -0.7624918 1.866889 -0.4244132
v -0.4402262 1.932508 -0.1089351
v 1.66893E-06 1.956529 0.006537199
v 0.4402258 1.932508 -0.1089351
v 0.7624913 1.866889 -0.4244132
v 1.66893E-06 2.083966 -0.9191635
v 0.4402258 1.621995 -1.601796
v 0.7624913 1.687613 -1.286318
v 1.66893E-06 1.597974 -1.717268
v -0.4402262 1.621995 -1.601796
v -0.7624918 1.687613 -1.286318
v -0.8804504 1.777253 -0.8553672
v -0.7624918 1.866889 -0.4244132
v -0.4402262 1.932508 -0.1089351
v 1.66893E-06 1.956529 0.006537199
v 0.4402258 1.932508 -0.1089351
v 0.7624913 1.866889 -0.4244132
v 0.88045 1.777249 -0.8553672
v 0.009999156 2.065362 -0.9329833
v 0.009999156 0.589799 -0.6721984
v 0.009999156 0.5959631 -0.6381127
v 0.009999156 2.072413 -0.899072
v -0.02000082 2.068888 -0.9160277
v -0.02000082 0.592883 -0.6551536
v 0.009999156 2.072413 -0.899072
v 0.009999156 0.5959631 -0.6381127
v 0.03999913 0.3813249 -0.6156572
v 1.66893E-06 0.3625172 -0.6509602
v 1.66893E-06 0.242525 -0.4992757
v 0.03999913 0.2779839 -0.4807651
v -0.03999949 0.3813249 -0.6156572
v -0.03999949 0.2779839 -0.4807651
v 0.03999913 0.3813249 -0.6156572
v 0.03999913 0.2779839 -0.4807651
v 0.03999913 0.592883 -0.6551536
v -0.03999949 0.592883 -0.6551536
v 1.66893E-06 0.5857652 -0.6945165
v 0.03999913 0.592883 -0.6551536
v 0.03999913 0.592883 -0.6551536
v 1.66893E-06 0.592883 -0.6551536
v 1.66893E-06 0.5857652 -0.6945165
v -0.03999949 0.592883 -0.6551536
v 1.66893E-06 0.592883 -0.6551536
v 0.03999913 0.592883 -0.6551536
v -0.03999949 0.592883 -0.6551536
v 0.004250765 -0.008418322 0.02430189
v 0.02623868 0.2880369 -0.4970862
v 1.66893E-06 0.2650324 -0.5097036
v 1.66893E-06 -0.01241875 0.02286565
v -0.02623904 0.2880369 -0.4970862
v -0.004251122 -0.008418322 0.02430189
v 0.02623868 0.2880369 -0.4970862
v 0.004250765 -0.008418322 0.02430189
v 1.66893E-06 2.174021 -0.937893
v -0.07589626 2.060712 -0.9143243
v -0.05366719 2.049784 -0.9668613
v 1.66893E-06 2.045256 -0.9886227
v 1.66893E-06 2.174021 -0.937893
v -0.05366719 2.071638 -0.861791
v 1.66893E-06 2.076165 -0.8400295
v 1.66893E-06 2.174021 -0.937893
v 0.07589591 2.060712 -0.9143243
v 0.05366683 2.071638 -0.861791
v 0.07589591 2.060712 -0.9143243
v 1.66893E-06 2.174021 -0.937893
v 1.66893E-06 2.045256 -0.9886227
v 0.05366683 2.049784 -0.9668613
vt 0.09823587 0.1354499
vt 0.07196717 0.1245645
vt 0.02901066 0.167521
vt 0.07950893 0.1659467
vt 0.03058498 0.1170228
vt 0.06109685 0.09829584
vt 0.06109685 0.09829584
vt 0.07196717 0.07202715
vt 0.02901066 0.02907063
vt 0.03058498 0.0795689
vt 0.07950893 0.03064496
vt 0.09823587 0.06114183
vt 0.09823587 0.06114183
vt 0.1245196 0.07202715
vt 0.1674761 0.02907063
vt 0.1169778 0.03064496
vt 0.1659018 0.0795689
vt 0.1353899 0.09829584
vt 0.1353899 0.09829584
vt 0.1245196 0.1245645
vt 0.1674761 0.167521
vt 0.1659018 0.1170228
vt 0.1169778 0.1659467
vt 0.09823587 0.1354499
vt 0.4507042 1.548951
vt 0.8817087 1.548951
vt 0.8239535 1.764439
vt 0.6662064 1.922201
vt 0.4507042 1.979941
vt 0.2352169 1.922201
vt 0.07745481 1.764439
vt 0.01971466 1.548951
vt 0.07745481 1.333449
vt 0.2352169 1.175687
vt 0.4507042 1.117947
vt 0.6662064 1.175687
vt 0.8239535 1.333449
vt 0.4507042 0.5489419
vt 0.2352169 0.1756925
vt 0.07745481 0.3334546
vt 0.4507042 0.1179524
vt 0.6662064 0.1756925
vt 0.8239535 0.3334546
vt 0.8817087 0.5489419
vt 0.8239535 0.7644441
vt 0.6662064 0.9222062
vt 0.4507042 0.9799464
vt 0.2352169 0.9222062
vt 0.07745481 0.7644441
vt 0.01971466 0.5489419
vt 0.9225361 0.9280987
vt 0.9225361 0.03569778
vt 0.8988463 0.03569778
vt 0.8988463 0.9280987
vt 0.9462409 0.9280987
vt 0.9462409 0.03569778
vt 0.9699307 0.9280987
vt 0.9699307 0.03569778
vt 0.7487159 0.9524782
vt 0.7652988 0.9524782
vt 0.7652988 0.9028795
vt 0.7487159 0.9028795
vt 0.7821815 0.9524782
vt 0.7821815 0.9028795
vt 0.815932 0.9524782
vt 0.815932 0.9028795
vt 0.815932 0.9818056
vt 0.7821815 0.9818056
vt 0.7652988 0.9818056
vt 0.7487159 0.9818056
vt 0.8628618 0.9656875
vt 0.850642 0.9656575
vt 0.850642 0.9796615
vt 0.8387222 0.9656875
vt 0.850642 0.9656575
vt 0.8628618 0.9656875
vt 0.8387222 0.9656875
vt 0.8108042 0.025892
vt 0.8108042 0.1776567
vt 0.8184359 0.1776567
vt 0.8184359 0.025892
vt 0.8337143 0.1776567
vt 0.8337143 0.025892
vt 0.8642562 0.1776567
vt 0.8642562 0.025892
vt 0.06623964 0.9772475
vt 0.05336018 0.9142597
vt 0.04048073 0.9142597
vt 0.02760127 0.9142597
vt 0.06623964 0.9772475
vt 0.06623964 0.9142597
vt 0.07911909 0.9142597
vt 0.06623964 0.9772475
vt 0.104878 0.9142597
vt 0.09199855 0.9142597
vt 0.104878 0.9142597
vt 0.06623964 0.9772475
vt 0.02760127 0.9142597
vt 0.01472181 0.9142597
vn 0.1347512 0.9883199 0.07117443
vn 0.2106607 0.9766415 -0.04234978
vn 0.2106607 0.9766415 0.04234978
vn 0.1347512 0.9883199 0.07117443
vn 0.2826774 0.9571776 -0.06248665
vn 0.2826774 0.9571776 -0.06248665
vn 0.2826774 0.9026784 -0.3244459
vn 0.2106607 0.8929464 -0.39783
vn 0.2106607 0.8929464 -0.39783
vn 0.2826774 0.9026784 -0.3244459
vn 0.1347512 0.8715361 -0.471452
vn 0.1347512 0.8715361 -0.471452
vn -0.1338516 0.8715361 -0.4717082
vn -0.2097611 0.8929464 -0.3983051
vn -0.2097611 0.8929464 -0.3983051
vn -0.1338516 0.8715361 -0.4717082
vn -0.2837241 0.9026784 -0.3235309
vn -0.2837241 0.9026784 -0.3235309
vn -0.2837241 0.9571776 -0.05754732
vn -0.2095899 0.9777893 0
vn -0.2097611 0.9766415 0.04660145
vn -0.2837241 0.9571776 -0.05754732
vn -0.1338516 0.9883199 0.07285215
vn -0.1338516 0.9883199 0.07285215
vn 0.0004498363 -0.9794875 0.2015043
vn -0.332384 -0.9230421 0.1936859
vn -0.2876169 -0.8899533 0.3539205
vn -0.1649939 -0.8646501 0.4745073
vn 0.0004498363 -0.8568646 0.5155414
vn 0.1658936 -0.8646501 0.4741935
vn 0.2865702 -0.8899533 0.3547686
vn 0.3313373 -0.9230421 0.1954711
vn 0.2865653 -0.9580607 0
vn 0.1658936 -0.9814339 -0.09626418
vn 0.0004498363 -0.9911659 -0.132627
vn -0.1649939 -0.9814339 -0.09779806
vn -0.2875256 -0.9577729 0
vn 0.0004498363 0.9785879 -0.2058288
vn 0.1678399 0.8637505 -0.4751472
vn 0.290463 0.8890536 -0.3538572
vn 0.0004498363 0.8540185 -0.5202425
vn -0.1669404 0.8637505 -0.4754639
vn -0.2895634 0.8890536 -0.3545937
vn -0.3343305 0.9221424 -0.1946187
vn -0.2895582 0.9571605 0
vn -0.1669404 0.9824807 0.0828407
vn 0.0004498363 0.9902663 0.1391852
vn 0.1678399 0.9824807 0.08100283
vn 0.290382 0.9569107 0
vn 0.3352301 0.9221424 -0.1930649
vn 0.5065131 -0.1503224 -0.8490275
vn 0.4987275 -0.1503224 -0.853624
vn 0.5006739 0.1513692 0.8522987
vn 0.4928883 0.1513692 0.8568246
vn -0.9999941 0.003442988 0
vn -0.9999983 -0.0004498363 -0.001804083
vn 0.4928883 0.1513692 0.8568246
vn 0.5006739 0.1513692 0.8522987
vn 0.8471326 0.2467427 0.4706213
vn 0.0004498363 -0.4792635 -0.877671
vn 0.0004498363 -0.7887406 -0.6147259
vn 0.790687 0.4900423 0.3669777
vn -0.8481793 0.2467427 0.4687323
vn -0.7897874 0.4900423 0.3689099
vn 0.8471326 0.2467427 0.4706213
vn 0.790687 0.4900423 0.3669777
vn 0.7206167 0.1241196 0.6821334
vn -0.7216635 0.1241196 0.6810257
vn 0.0004498363 -0.187304 -0.982302
vn 0.7206167 0.1241196 0.6821334
vn 0.0004498363 0.9844272 -0.1757924
vn 0.0004498363 0.9844272 -0.1757924
vn 0.0004498363 0.9844272 -0.1757924
vn 0.0004498363 0.9844272 -0.1757924
vn 0.0004498363 0.9844272 -0.1757924
vn 0.0004498363 0.9844272 -0.1757924
vn 0.0004498363 0.9844272 -0.1757924
vn 0.7537055 0.5581662 0.3469561
vn 0.706992 0.6029332 0.3696402
vn 0.0004498363 -0.8860605 -0.4635695
vn 0.0004498363 -0.8860605 -0.4635695
vn -0.7060923 0.6029332 0.3713559
vn -0.7528059 0.5581662 0.3489037
vn 0.706992 0.6029332 0.3696402
vn 0.7537055 0.5581662 0.3469561
vn 0.0004498363 0.9785879 -0.2058288
vn -0.7333419 0.6652179 -0.1403382
vn -0.5912549 0.4160792 -0.6908659
vn 0.0004498363 0.5172918 -0.855809
vn 0.0004498363 0.9785879 -0.2058288
vn -0.5912549 0.6574324 0.4671192
vn 0.0004498363 0.8150906 0.5793334
vn 0.0004498363 0.9785879 -0.2058288
vn 0.7322952 0.6652179 -0.1457014
vn 0.5921545 0.6574324 0.4659782
vn 0.7322952 0.6652179 -0.1457014
vn 0.0004498363 0.9785879 -0.2058288
vn 0.0004498363 0.5172918 -0.855809
vn 0.5921545 0.4160792 -0.690095
g Wing_Bangasa_LOD2_0
f 3/3/3 2/2/2 1/1/1
f 4/4/4 3/3/3 1/1/1
f 3/3/3 5/5/5 2/2/2
f 5/5/5 6/6/6 2/2/2
f 9/9/9 8/8/8 7/7/7
f 10/10/10 9/9/9 7/7/7
f 9/9/9 11/11/11 8/8/8
f 11/11/11 12/12/12 8/8/8
f 15/15/15 14/14/14 13/13/13
f 16/16/16 15/15/15 13/13/13
f 15/15/15 17/17/17 14/14/14
f 17/17/17 18/18/18 14/14/14
f 21/21/21 20/20/20 19/19/19
f 22/22/22 21/21/21 19/19/19
f 21/21/21 23/23/23 20/20/20
f 23/23/23 24/24/24 20/20/20
f 27/27/27 26/26/26 25/25/25
f 28/28/28 27/27/27 25/25/25
f 29/29/29 28/28/28 25/25/25
f 30/30/30 29/29/29 25/25/25
f 31/31/31 30/30/30 25/25/25
f 32/32/32 31/31/31 25/25/25
f 33/33/33 32/32/32 25/25/25
f 34/34/34 33/33/33 25/25/25
f 35/35/35 34/34/34 25/25/25
f 36/36/36 35/35/35 25/25/25
f 37/37/37 36/36/36 25/25/25
f 26/26/26 37/37/37 25/25/25
f 40/40/40 39/39/39 38/38/38
f 39/39/39 41/41/41 38/38/38
f 41/41/41 42/42/42 38/38/38
f 42/42/42 43/43/43 38/38/38
f 43/43/43 44/44/44 38/38/38
f 44/44/44 45/45/45 38/38/38
f 45/45/45 46/46/46 38/38/38
f 46/46/46 47/47/47 38/38/38
f 47/47/47 48/48/48 38/38/38
f 48/48/48 49/49/49 38/38/38
f 49/49/49 50/50/50 38/38/38
f 50/50/50 40/40/40 38/38/38
f 53/53/53 52/52/52 51/51/51
f 54/54/54 53/53/53 51/51/51
f 51/51/51 52/52/52 55/55/55
f 52/52/52 56/56/56 55/55/55
f 55/55/55 56/56/56 57/57/57
f 56/56/56 58/58/58 57/57/57
f 61/61/61 60/60/60 59/59/59
f 62/62/62 61/61/61 59/59/59
f 63/63/63 60/60/60 61/61/61
f 64/64/64 63/63/63 61/61/61
f 63/63/63 64/64/64 65/65/65
f 64/64/64 66/66/66 65/65/65
f 63/63/63 65/65/65 67/67/67
f 68/68/68 63/63/63 67/67/67
f 63/63/63 68/68/68 60/60/60
f 68/68/68 69/69/69 60/60/60
f 60/60/60 69/69/69 59/59/59
f 69/69/69 70/70/70 59/59/59
f 73/73/73 72/72/72 71/71/71
f 74/74/74 72/72/72 73/73/73
f 77/77/77 76/76/76 75/75/75
f 80/80/80 79/79/79 78/78/78
f 81/81/81 80/80/80 78/78/78
f 82/82/82 80/80/80 81/81/81
f 83/83/83 82/82/82 81/81/81
f 82/82/82 83/83/83 84/84/84
f 83/83/83 85/85/85 84/84/84
f 88/88/88 87/87/87 86/86/86
f 89/89/89 88/88/88 86/86/86
f 87/87/87 91/91/91 90/90/90
f 91/91/91 92/92/92 90/90/90
f 94/94/94 93/93/93 92/92/92
f 95/95/95 94/94/94 92/92/92
f 98/98/98 97/97/97 96/96/96
f 99/99/99 98/98/98 96/96/96
