g Wing_DevilW_LOD2
v 0.6986237 1.367358 -0.646018
v 0.7362305 1.429848 -0.5245407
v 0.5596732 1.314742 -0.5049092
v 0.5934123 1.316043 -0.5771497
v 0.906715 1.290219 -1.450644
v 0.9520741 1.41729 -1.133054
v 0.8967446 1.385157 -1.113862
v 0.8722377 1.274884 -1.423174
v 0.7795476 1.08965 -1.748592
v 0.6580969 1.180684 -1.249091
v 0.7530751 1.316358 -1.015598
v 0.7031133 1.29401 -0.9762085
v 0.6166521 1.161149 -1.219718
v 0.3698997 1.064418 -0.9800298
v 0.5750213 1.241298 -0.8600391
v 0.4823611 0.9570051 -1.513336
v 1.145735 1.514889 -1.24942
v 1.176418 1.416954 -1.643108
v 1.22193 1.420416 -1.657631
v 1.199099 1.528547 -1.248003
v 0.9091694 1.486002 -0.8083379
v 0.9067849 1.507126 -0.6557423
v 1.167841 1.299331 -1.935612
v 1.126835 1.268957 -1.943098
v 0.7326354 1.391838 -0.719449
v 1.147887 1.278679 -1.958682
v 0.5548477 1.216505 -0.8190466
v 0.3551037 1.043486 -0.9384587
v 0.1129473 0.8551692 -1.012262
v 0.2065587 0.9082307 -1.049048
v 1.117035 1.28386 -1.871546
v 0.4950918 0.9880604 -1.439453
v 0.7712367 1.465485 -0.6420537
v 0.8165358 1.442625 -0.7417245
v 0.7362305 1.429848 -0.5245407
v 0.6986237 1.367358 -0.646018
v 0.5319935 1.000984 -1.480396
v 0.7362305 1.429848 -0.5245407
v 0.6986237 1.367358 -0.646018
v 0.5934123 1.316043 -0.5771497
v 0.5596732 1.314742 -0.5049092
v 0.8927472 1.244969 -1.414135
v 0.6786031 1.150773 -1.240052
v 0.7735846 1.286444 -1.006559
v 0.9172541 1.355242 -1.104823
v 0.9725835 1.387375 -1.124015
v 0.9272245 1.260307 -1.441602
v 1.196928 1.387043 -1.634069
v 1.166241 1.484974 -1.240381
v 1.22193 1.420416 -1.657631
v 1.126835 1.268957 -1.943098
v 1.167841 1.299331 -1.935612
v 1.199099 1.528547 -1.248003
v 0.7795476 1.08965 -1.748592
v 0.6371617 1.131234 -1.210679
v 0.7236228 1.264095 -0.9671693
v 0.5955274 1.211387 -0.8509998
v 0.3904092 1.034507 -0.9709905
v 0.5548477 1.216505 -0.8190466
v 0.3551037 1.043486 -0.9384587
v 0.1129473 0.8551692 -1.012262
v 0.7531416 1.361924 -0.7104099
v 1.147887 1.278679 -1.958682
v 1.117035 1.28386 -1.871546
v 0.2065587 0.9082307 -1.049048
v 0.4950918 0.9880604 -1.439453
v 0.4823611 0.9570051 -1.513336
v 0.5319935 1.000984 -1.480396
v 0.6986237 1.367358 -0.646018
v 0.8126414 1.405088 -0.6238024
v 0.7362305 1.429848 -0.5245407
v 0.837042 1.41271 -0.7326853
v 0.9067849 1.507126 -0.6557423
v 0.9296756 1.456087 -0.7992954
v -0.7362295 1.429848 -0.5245407
v -0.6986226 1.367358 -0.646018
v -0.5934113 1.316043 -0.5771497
v -0.5596756 1.314742 -0.5049092
v -0.8722399 1.274884 -1.423174
v -0.658096 1.180684 -1.249091
v -0.7530774 1.316358 -1.015598
v -0.896747 1.385157 -1.113862
v -0.9520763 1.41729 -1.133054
v -0.9067174 1.290219 -1.450644
v -1.17642 1.416954 -1.643108
v -1.145734 1.514889 -1.24942
v -1.221932 1.420416 -1.657631
v -1.126838 1.268957 -1.943098
v -1.167843 1.299331 -1.935612
v -1.199098 1.528547 -1.248003
v -0.7795466 1.08965 -1.748592
v -0.6166545 1.161149 -1.219718
v -0.7031156 1.29401 -0.9762085
v -0.5750202 1.241298 -0.8600391
v -0.369902 1.064418 -0.9800298
v -0.55485 1.216505 -0.8190466
v -0.3551029 1.043486 -0.9384587
v -0.1129464 0.8551692 -1.012262
v -0.7326344 1.391838 -0.719449
v -1.147889 1.278679 -1.958682
v -1.117034 1.28386 -1.871546
v -0.4950942 0.9880604 -1.439453
v -0.48236 0.9570051 -1.513336
v -0.5319926 1.000984 -1.480396
v -0.2065579 0.9082307 -1.049048
v -0.6986226 1.367358 -0.646018
v -0.7712356 1.465485 -0.6420537
v -0.7362295 1.429848 -0.5245407
v -0.9067839 1.507126 -0.6557423
v -0.8165349 1.442625 -0.7417245
v -0.9091684 1.486002 -0.8083379
v -0.6986226 1.367358 -0.646018
v -0.7362295 1.429848 -0.5245407
v -0.5596756 1.314742 -0.5049092
v -0.5934113 1.316043 -0.5771497
v -0.9272236 1.260307 -1.441602
v -0.9725825 1.387375 -1.124015
v -0.9172531 1.355242 -1.104823
v -0.8927461 1.244969 -1.414135
v -0.7795466 1.08965 -1.748592
v -0.6786054 1.150773 -1.240052
v -0.7735835 1.286444 -1.006559
v -0.723622 1.264095 -0.9671693
v -0.6371607 1.131234 -1.210679
v -0.3904082 1.034507 -0.9709905
v -0.5955266 1.211387 -0.8509998
v -0.48236 0.9570051 -1.513336
v -0.55485 1.216505 -0.8190466
v -0.3551029 1.043486 -0.9384587
v -1.166241 1.484974 -1.240381
v -1.196926 1.387043 -1.634069
v -1.221932 1.420416 -1.657631
v -1.199098 1.528547 -1.248003
v -0.9296778 1.456087 -0.7992954
v -0.9067839 1.507126 -0.6557423
v -1.167843 1.299331 -1.935612
v -1.126838 1.268957 -1.943098
v -0.1129464 0.8551692 -1.012262
v -0.837041 1.41271 -0.7326853
v -1.147889 1.278679 -1.958682
v -1.117034 1.28386 -1.871546
v -0.7531406 1.361924 -0.7104099
v -0.8126439 1.405088 -0.6238024
v -0.7362295 1.429848 -0.5245407
v -0.6986226 1.367358 -0.646018
v -0.2065579 0.9082307 -1.049048
v -0.4950942 0.9880604 -1.439453
v -0.5319926 1.000984 -1.480396
vt 0.7623059 0.6740707
vt 0.735882 0.5967229
vt 0.6441489 0.6773063
vt 0.6867361 0.6947085
vt 0.5099452 0.2196321
vt 0.5813174 0.3551038
vt 0.6088782 0.3395526
vt 0.5318072 0.215901
vt 0.4750534 0.04851075
vt 0.6613908 0.1967499
vt 0.6900446 0.3206201
vt 0.7215842 0.3153586
vt 0.6861386 0.1914738
vt 0.8453378 0.1843905
vt 0.8024591 0.309383
vt 0.6575139 0.02259696
vt 0.4768753 0.3871827
vt 0.3554973 0.2546259
vt 0.3301956 0.2668978
vt 0.4549112 0.4090301
vt 0.6869547 0.4590067
vt 0.7326318 0.5135597
vt 0.2680929 0.1451117
vt 0.2883372 0.1217485
vt 0.7807137 0.4224097
vt 0.2720427 0.1245323
vt 0.832891 0.3135076
vt 0.8733504 0.1920714
vt 0.9329171 0.06757443
vt 0.8862344 0.09054413
vt 0.3128372 0.142911
vt 0.673721 0.05518595
vt 0.7831476 0.4751846
vt 0.7407207 0.4477842
vt 0.8325558 0.5026579
vt 0.8233155 0.4338071
vt 0.6475157 0.05418029
vt 0.8294951 0.5967229
vt 0.8030713 0.6740707
vt 0.8786556 0.6947085
vt 0.9212282 0.6773063
vt 0.2409694 0.7361006
vt 0.3461404 0.658024
vt 0.2788053 0.5501713
vt 0.2080161 0.5941723
vt 0.1775404 0.6026694
vt 0.2228677 0.7489263
vt 0.08891176 0.8333866
vt 0.08101229 0.6538265
vt 0.06234212 0.8426124
vt 0.1353759 0.9748339
vt 0.1045504 0.9726331
vt 0.05004108 0.6539139
vt 0.3192063 0.8946003
vt 0.3673611 0.6442509
vt 0.3048357 0.5315886
vt 0.3662388 0.4786242
vt 0.4849642 0.5366898
vt 0.3848507 0.454197
vt 0.4993203 0.511461
vt 0.6294868 0.5573713
vt 0.2713722 0.414481
vt 0.1219089 0.9843949
vt 0.1377515 0.942551
vt 0.5802389 0.5741321
vt 0.454955 0.7494073
vt 0.4665418 0.7839056
vt 0.4371447 0.7686458
vt 0.2936132 0.3763391
vt 0.235708 0.3750565
vt 0.2516235 0.3202994
vt 0.2253308 0.4249748
vt 0.172483 0.3836264
vt 0.1787647 0.4545031
vt 1.735895 0.5967229
vt 1.762304 0.6740707
vt 1.686734 0.6947085
vt 1.644147 0.6773063
vt 1.531805 0.215901
vt 1.661389 0.1967499
vt 1.690043 0.3206201
vt 1.608876 0.3395526
vt 1.581316 0.3551038
vt 1.509943 0.2196321
vt 1.35551 0.2546259
vt 1.476873 0.3871827
vt 1.330194 0.2668978
vt 1.288335 0.1217485
vt 1.268091 0.1451117
vt 1.454909 0.4090301
vt 1.475052 0.04851075
vt 1.686137 0.1914738
vt 1.721582 0.3153586
vt 1.802457 0.309383
vt 1.845351 0.1843905
vt 1.832889 0.3135076
vt 1.873349 0.1920714
vt 1.932915 0.06757443
vt 1.780712 0.4224097
vt 1.272055 0.1245323
vt 1.312835 0.142911
vt 1.673719 0.05518595
vt 1.657527 0.02259696
vt 1.647514 0.05418029
vt 1.886247 0.09054413
vt 1.823314 0.4338071
vt 1.783146 0.4751846
vt 1.832554 0.5026579
vt 1.73263 0.5135597
vt 1.740719 0.4477842
vt 1.686953 0.4590067
vt 1.803084 0.6740707
vt 1.829493 0.5967229
vt 1.921226 0.6773063
vt 1.878654 0.6947085
vt 1.222866 0.7489263
vt 1.177539 0.6026694
vt 1.208029 0.5941723
vt 1.240968 0.7361006
vt 1.319205 0.8946003
vt 1.346153 0.658024
vt 1.278803 0.5501713
vt 1.304834 0.5315886
vt 1.367374 0.6442509
vt 1.484962 0.5366898
vt 1.366252 0.4786242
vt 1.46654 0.7839056
vt 1.384849 0.454197
vt 1.499318 0.511461
vt 1.08101 0.6538265
vt 1.08891 0.8333866
vt 1.06234 0.8426124
vt 1.050039 0.6539139
vt 1.178763 0.4545031
vt 1.172496 0.3836264
vt 1.104549 0.9726331
vt 1.135374 0.9748339
vt 1.629485 0.5573713
vt 1.225329 0.4249748
vt 1.121907 0.9843949
vt 1.13775 0.942551
vt 1.27137 0.414481
vt 1.235721 0.3750565
vt 1.251622 0.3202994
vt 1.293611 0.3763391
vt 1.580237 0.5741321
vt 1.454953 0.7494073
vt 1.437143 0.7686458
vn -0.5494581 0.7996143 -0.2423071
vn -0.5494581 0.7996143 -0.2423071
vn -0.5494581 0.7996143 -0.2423071
vn -0.5494581 0.7996143 -0.2423071
vn -0.5547432 0.7872827 -0.2691579
vn -0.5494581 0.7996143 -0.2423071
vn -0.5494581 0.7996143 -0.2423071
vn -0.5635514 0.7819977 -0.2662507
vn -0.5670748 0.7731894 -0.283909
vn -0.5617898 0.7837594 -0.2647896
vn -0.5494581 0.7996143 -0.2423071
vn -0.5494581 0.7996143 -0.2423071
vn -0.5705981 0.7767128 -0.2667115
vn -0.5899764 0.7714278 -0.2383843
vn -0.5846914 0.7890444 -0.1885336
vn -0.5705981 0.7714278 -0.2816328
vn -0.4684217 0.8559875 -0.2187839
vn -0.5124632 0.811946 -0.2795087
vn -0.2799237 0.9123608 -0.2987315
vn -0.2605454 0.9493557 -0.1756126
vn -0.4261417 0.8876975 -0.1743458
vn -0.3345352 0.9387858 -0.08226452
vn -0.3680068 0.8665576 -0.3371185
vn -0.4032401 0.8542259 -0.3281702
vn -0.6164013 0.7661427 -0.1818646
vn -0.5494581 0.7996143 -0.2423071
vn -0.6921529 0.7203395 0.04511518
vn -0.665728 0.7344328 0.1319647
vn -0.5917381 0.7661427 -0.2507416
vn -0.5829297 0.7573345 -0.2943424
vn -0.5670748 0.7714278 -0.2886615
vn -0.5934998 0.7555728 -0.2772503
vn -0.44552 0.8912208 -0.08507276
vn -0.5071783 0.8348476 -0.2140087
vn -0.5424116 0.8383709 -0.05407315
vn -0.7326711 0.6798213 -0.03218816
vn -0.5670748 0.7731894 -0.283909
vn 0.548058 -0.7999759 0.2442764
vn 0.548058 -0.7999759 0.2442764
vn 0.548058 -0.7999759 0.2442764
vn 0.548058 -0.7999759 0.2442764
vn 0.5322031 -0.8175925 0.2197781
vn 0.5339648 -0.8158308 0.22204
vn 0.548058 -0.7999759 0.2442764
vn 0.548058 -0.7999759 0.2442764
vn 0.548058 -0.7999759 0.2442764
vn 0.5410113 -0.8123075 0.2178607
vn 0.5832913 -0.7858825 0.2053288
vn 0.6238096 -0.736556 0.2614323
vn 0.7682659 -0.6185246 0.1649087
vn 0.6766595 -0.720701 0.150738
vn 0.7030843 -0.6977994 0.1369248
vn 0.7770742 -0.563913 0.2795672
vn 0.5286797 -0.8264008 0.1938024
vn 0.5251564 -0.8228775 0.2169872
vn 0.548058 -0.7999759 0.2442764
vn 0.5093014 -0.8070225 0.2988757
vn 0.5075397 -0.8264008 0.2438546
vn 0.3454667 -0.7946908 0.4991184
vn 0.3472284 -0.7436026 0.5713909
vn 0.5040164 -0.8316858 0.2329512
vn 0.4758298 -0.8264008 0.3010775
vn 0.548058 -0.7999759 0.2442764
vn 0.5286797 -0.8264008 0.1938024
vn 0.5110631 -0.8387325 0.1879954
vn 0.5004931 -0.8422558 0.2002794
vn 0.5251564 -0.8264008 0.2031561
vn 0.5286797 -0.8246391 0.2011667
vn 0.3172801 -0.8528258 0.4147548
vn 0.5797679 -0.704846 0.4087312
vn 0.4317882 -0.7400793 0.5155983
vn 0.5727213 -0.7858825 0.2331929
vn 0.710131 -0.6097162 0.3520795
vn 0.6555195 -0.6907527 0.3052128
vn 0.548058 0.7996143 -0.2454575
vn 0.548058 0.7996143 -0.2454575
vn 0.548058 0.7996143 -0.2454575
vn 0.548058 0.7996143 -0.2454575
vn 0.563913 0.7819977 -0.2654842
vn 0.5621513 0.7837594 -0.2640211
vn 0.548058 0.7996143 -0.2454575
vn 0.548058 0.7996143 -0.2454575
vn 0.548058 0.7996143 -0.2454575
vn 0.5551047 0.7872827 -0.2684115
vn 0.5128248 0.811946 -0.2788447
vn 0.4687832 0.8559875 -0.2180083
vn 0.2802852 0.9123608 -0.2983923
vn 0.4036016 0.8542259 -0.3277253
vn 0.3683684 0.8665576 -0.3367234
vn 0.2609069 0.9493557 -0.175075
vn 0.5674363 0.7731894 -0.2831857
vn 0.5709597 0.7767128 -0.2659366
vn 0.548058 0.7996143 -0.2454575
vn 0.585053 0.7890444 -0.1874087
vn 0.5885763 0.7714278 -0.2418205
vn 0.6925144 0.7203395 0.03917525
vn 0.6660895 0.7344328 0.1301279
vn 0.5920996 0.7661427 -0.2498867
vn 0.6167629 0.7661427 -0.1806345
vn 0.548058 0.7996143 -0.2454575
vn 0.5674363 0.7714278 -0.2879501
vn 0.5938613 0.7555728 -0.2764751
vn 0.569198 0.7714278 -0.2844518
vn 0.5674363 0.7731894 -0.2831857
vn 0.5832913 0.7573345 -0.2936251
vn 0.7330326 0.6798213 -0.02249872
vn 0.4441199 0.8912208 -0.09210316
vn 0.542773 0.8383709 -0.05031607
vn 0.3348968 0.9387858 -0.08077993
vn 0.5075397 0.8348476 -0.21315
vn 0.4265033 0.8876975 -0.1734595
vn -0.5494581 -0.7999759 0.2411106
vn -0.5494581 -0.7999759 0.2411106
vn -0.5494581 -0.7999759 0.2411106
vn -0.5494581 -0.7999759 0.2411106
vn -0.5424116 -0.8123075 0.2143507
vn -0.5494581 -0.7999759 0.2411106
vn -0.5494581 -0.7999759 0.2411106
vn -0.5318415 -0.8175925 0.2206515
vn -0.5283182 -0.8264008 0.194786
vn -0.5336032 -0.8158308 0.2229075
vn -0.5494581 -0.7999759 0.2411106
vn -0.5494581 -0.7999759 0.2411106
vn -0.5247949 -0.8228775 0.21786
vn -0.5071783 -0.8264008 0.2446055
vn -0.5107015 -0.8070225 0.2964769
vn -0.5265565 -0.8264008 0.1994992
vn -0.3451053 -0.7946908 0.4993684
vn -0.3468668 -0.7436026 0.5716105
vn -0.623448 -0.736556 0.2622934
vn -0.5829297 -0.7858825 0.2063531
vn -0.7679044 -0.6185246 0.166584
vn -0.7767128 -0.563913 0.2805698
vn -0.6551579 -0.6907527 0.3059882
vn -0.7115312 -0.6097162 0.3492413
vn -0.7044846 -0.6977994 0.1295278
vn -0.6780596 -0.720701 0.1443094
vn -0.503655 -0.8316858 0.2337316
vn -0.5723598 -0.7858825 0.2340789
vn -0.5494581 -0.7999759 0.2411106
vn -0.5283182 -0.8264008 0.194786
vn -0.4754683 -0.8264008 0.3016482
vn -0.5794064 -0.704846 0.4092436
vn -0.4314268 -0.7400793 0.5159008
vn -0.3169186 -0.8528258 0.4150311
vn -0.5107015 -0.8387325 0.1889754
vn -0.5001316 -0.8422558 0.2011805
vn -0.5283182 -0.8246391 0.2021144
g Wing_DevilW_LOD2_0
f 3/3/3 2/2/2 1/1/1
f 4/4/4 3/3/3 1/1/1
f 7/7/7 6/6/6 5/5/5
f 8/8/8 7/7/7 5/5/5
f 8/8/8 5/5/5 9/9/9
f 7/7/7 8/8/8 10/10/10
f 11/11/11 7/7/7 10/10/10
f 12/12/12 11/11/11 10/10/10
f 13/13/13 12/12/12 10/10/10
f 12/12/12 13/13/13 14/14/14
f 15/15/15 12/12/12 14/14/14
f 13/13/13 10/10/10 16/16/16
f 6/6/6 17/17/17 5/5/5
f 17/17/17 18/18/18 5/5/5
f 19/19/19 18/18/18 17/17/17
f 20/20/20 19/19/19 17/17/17
f 20/20/20 17/17/17 21/21/21
f 17/17/17 6/6/6 21/21/21
f 22/22/22 20/20/20 21/21/21
f 19/19/19 23/23/23 18/18/18
f 23/23/23 24/24/24 18/18/18
f 15/15/15 25/25/25 12/12/12
f 11/11/11 12/12/12 25/25/25
f 26/26/26 24/24/24 23/23/23
f 27/27/27 15/15/15 14/14/14
f 28/28/28 27/27/27 14/14/14
f 28/28/28 14/14/14 29/29/29
f 29/29/29 14/14/14 30/30/30
f 31/31/31 18/18/18 24/24/24
f 18/18/18 31/31/31 5/5/5
f 31/31/31 9/9/9 5/5/5
f 14/14/14 13/13/13 30/30/30
f 13/13/13 32/32/32 30/30/30
f 32/32/32 13/13/13 16/16/16
f 22/22/22 34/34/34 33/33/33
f 33/33/33 34/34/34 25/25/25
f 35/35/35 22/22/22 33/33/33
f 35/35/35 33/33/33 36/36/36
f 36/36/36 33/33/33 25/25/25
f 22/22/22 21/21/21 34/34/34
f 21/21/21 6/6/6 34/34/34
f 6/6/6 7/7/7 34/34/34
f 11/11/11 34/34/34 7/7/7
f 34/34/34 11/11/11 25/25/25
f 36/36/36 25/25/25 15/15/15
f 27/27/27 36/36/36 15/15/15
f 16/16/16 10/10/10 37/37/37
f 10/10/10 8/8/8 37/37/37
f 8/8/8 9/9/9 37/37/37
f 40/40/40 39/39/39 38/38/38
f 41/41/41 40/40/40 38/38/38
f 44/44/44 43/43/43 42/42/42
f 45/45/45 44/44/44 42/42/42
f 46/46/46 45/45/45 42/42/42
f 47/47/47 46/46/46 42/42/42
f 46/46/46 47/47/47 48/48/48
f 49/49/49 46/46/46 48/48/48
f 48/48/48 50/50/50 49/49/49
f 48/48/48 51/51/51 50/50/50
f 51/51/51 52/52/52 50/50/50
f 50/50/50 53/53/53 49/49/49
f 47/47/47 42/42/42 54/54/54
f 43/43/43 44/44/44 55/55/55
f 44/44/44 56/56/56 55/55/55
f 56/56/56 57/57/57 55/55/55
f 57/57/57 58/58/58 55/55/55
f 57/57/57 59/59/59 58/58/58
f 59/59/59 60/60/60 58/58/58
f 58/58/58 60/60/60 61/61/61
f 62/62/62 57/57/57 56/56/56
f 59/59/59 57/57/57 62/62/62
f 51/51/51 63/63/63 52/52/52
f 48/48/48 64/64/64 51/51/51
f 64/64/64 48/48/48 47/47/47
f 54/54/54 64/64/64 47/47/47
f 55/55/55 58/58/58 65/65/65
f 58/58/58 61/61/61 65/65/65
f 66/66/66 55/55/55 65/65/65
f 55/55/55 66/66/66 67/67/67
f 43/43/43 55/55/55 67/67/67
f 43/43/43 67/67/67 68/68/68
f 42/42/42 43/43/43 68/68/68
f 54/54/54 42/42/42 68/68/68
f 69/69/69 59/59/59 62/62/62
f 69/69/69 62/62/62 70/70/70
f 69/69/69 70/70/70 71/71/71
f 62/62/62 72/72/72 70/70/70
f 72/72/72 73/73/73 70/70/70
f 73/73/73 71/71/71 70/70/70
f 72/72/72 74/74/74 73/73/73
f 74/74/74 72/72/72 45/45/45
f 72/72/72 44/44/44 45/45/45
f 46/46/46 74/74/74 45/45/45
f 46/46/46 49/49/49 74/74/74
f 74/74/74 49/49/49 73/73/73
f 56/56/56 44/44/44 72/72/72
f 62/62/62 56/56/56 72/72/72
f 49/49/49 53/53/53 73/73/73
f 77/77/77 76/76/76 75/75/75
f 78/78/78 77/77/77 75/75/75
f 81/81/81 80/80/80 79/79/79
f 82/82/82 81/81/81 79/79/79
f 83/83/83 82/82/82 79/79/79
f 84/84/84 83/83/83 79/79/79
f 83/83/83 84/84/84 85/85/85
f 86/86/86 83/83/83 85/85/85
f 85/85/85 87/87/87 86/86/86
f 85/85/85 88/88/88 87/87/87
f 88/88/88 89/89/89 87/87/87
f 87/87/87 90/90/90 86/86/86
f 84/84/84 79/79/79 91/91/91
f 79/79/79 80/80/80 91/91/91
f 80/80/80 81/81/81 92/92/92
f 81/81/81 93/93/93 92/92/92
f 93/93/93 94/94/94 92/92/92
f 94/94/94 95/95/95 92/92/92
f 94/94/94 96/96/96 95/95/95
f 96/96/96 97/97/97 95/95/95
f 95/95/95 97/97/97 98/98/98
f 99/99/99 94/94/94 93/93/93
f 96/96/96 94/94/94 99/99/99
f 88/88/88 100/100/100 89/89/89
f 85/85/85 101/101/101 88/88/88
f 101/101/101 85/85/85 84/84/84
f 91/91/91 101/101/101 84/84/84
f 92/92/92 95/95/95 102/102/102
f 92/92/92 102/102/102 103/103/103
f 80/80/80 92/92/92 103/103/103
f 80/80/80 104/104/104 91/91/91
f 80/80/80 103/103/103 104/104/104
f 95/95/95 105/105/105 102/102/102
f 95/95/95 98/98/98 105/105/105
f 106/106/106 96/96/96 99/99/99
f 106/106/106 99/99/99 107/107/107
f 106/106/106 107/107/107 108/108/108
f 109/109/109 108/108/108 107/107/107
f 110/110/110 109/109/109 107/107/107
f 99/99/99 110/110/110 107/107/107
f 110/110/110 111/111/111 109/109/109
f 99/99/99 93/93/93 110/110/110
f 93/93/93 81/81/81 110/110/110
f 110/110/110 81/81/81 82/82/82
f 110/110/110 82/82/82 111/111/111
f 82/82/82 83/83/83 111/111/111
f 83/83/83 86/86/86 111/111/111
f 111/111/111 86/86/86 109/109/109
f 86/86/86 90/90/90 109/109/109
f 114/114/114 113/113/113 112/112/112
f 115/115/115 114/114/114 112/112/112
f 118/118/118 117/117/117 116/116/116
f 119/119/119 118/118/118 116/116/116
f 119/119/119 116/116/116 120/120/120
f 118/118/118 119/119/119 121/121/121
f 121/121/121 119/119/119 120/120/120
f 122/122/122 118/118/118 121/121/121
f 123/123/123 122/122/122 121/121/121
f 124/124/124 123/123/123 121/121/121
f 123/123/123 124/124/124 125/125/125
f 126/126/126 123/123/123 125/125/125
f 124/124/124 121/121/121 127/127/127
f 128/128/128 126/126/126 125/125/125
f 129/129/129 128/128/128 125/125/125
f 117/117/117 130/130/130 116/116/116
f 130/130/130 131/131/131 116/116/116
f 132/132/132 131/131/131 130/130/130
f 133/133/133 132/132/132 130/130/130
f 133/133/133 130/130/130 134/134/134
f 135/135/135 133/133/133 134/134/134
f 132/132/132 136/136/136 131/131/131
f 136/136/136 137/137/137 131/131/131
f 129/129/129 125/125/125 138/138/138
f 130/130/130 117/117/117 134/134/134
f 134/134/134 117/117/117 118/118/118
f 139/139/139 134/134/134 118/118/118
f 135/135/135 134/134/134 139/139/139
f 122/122/122 139/139/139 118/118/118
f 140/140/140 137/137/137 136/136/136
f 141/141/141 131/131/131 137/137/137
f 131/131/131 141/141/141 116/116/116
f 141/141/141 120/120/120 116/116/116
f 139/139/139 122/122/122 142/142/142
f 139/139/139 142/142/142 143/143/143
f 135/135/135 139/139/139 143/143/143
f 144/144/144 135/135/135 143/143/143
f 144/144/144 143/143/143 145/145/145
f 142/142/142 145/145/145 143/143/143
f 122/122/122 123/123/123 142/142/142
f 126/126/126 142/142/142 123/123/123
f 142/142/142 126/126/126 145/145/145
f 126/126/126 128/128/128 145/145/145
f 138/138/138 125/125/125 146/146/146
f 146/146/146 125/125/125 147/147/147
f 125/125/125 124/124/124 147/147/147
f 147/147/147 124/124/124 127/127/127
f 127/127/127 121/121/121 148/148/148
f 148/148/148 121/121/121 120/120/120
