g Wing_HeartBalloon_LOD2
v -0.1199243 1.772761 -0.5271582
v -0.1219052 1.778238 -0.7137253
v 0.1293314 1.884828 -0.7500621
v -0.1120477 1.640124 -0.4140388
v 0.3794885 1.630947 -0.6553037
v -0.07826161 0.9836295 -0.4242986
v -0.6043279 1.58017 -0.6463511
v -0.3833982 1.858365 -0.7453964
v -0.1077908 1.479942 -0.8544534
v -0.07826161 0.9836295 -0.4242986
v 0.3794885 1.630947 -0.6553037
v 0.1293314 1.884828 -0.7500621
v -0.1167736 1.654205 -0.8531195
v -0.1219052 1.778238 -0.7137253
v -0.3833982 1.858365 -0.7453964
v -0.6043279 1.58017 -0.6463511
v -0.1142364 2.212937 -0.1697673
v -0.04812574 2.242822 -0.3237919
v 0.1450511 2.317406 -0.2524692
v -0.1436081 2.096946 -0.1023026
v 0.3059571 2.101987 -0.1509235
v -0.08557522 1.601491 -0.2424374
v -0.4184813 2.104916 -0.4612989
v -0.2325008 2.318934 -0.4142298
v 0.02679348 2.036469 -0.5005987
v -0.08557522 1.601491 -0.2424374
v 0.3059571 2.101987 -0.1509235
v 0.1450511 2.317406 -0.2524692
v 0.01188135 2.168178 -0.4645569
v -0.04812574 2.242822 -0.3237919
v -0.2325008 2.318934 -0.4142298
v -0.4184813 2.104916 -0.4612989
v -0.9371469 1.762658 -0.4238528
v -0.8311868 1.812493 -0.5106506
v -0.755222 1.93979 -0.3779434
v -0.9527562 1.66115 -0.3688802
v -0.6273043 1.830636 -0.1900791
v -0.6999041 1.301798 -0.3617174
v -0.9780118 1.572387 -0.7664925
v -0.9379983 1.805199 -0.6783506
v -0.6375172 1.683355 -0.5706242
v -0.6999041 1.301798 -0.3617174
v -0.6273043 1.830636 -0.1900791
v -0.755222 1.93979 -0.3779434
v -0.7038291 1.779092 -0.5731716
v -0.8311868 1.812493 -0.5106506
v -0.9379983 1.805199 -0.6783506
v -0.9780118 1.572387 -0.7664925
v 0.7257583 1.884714 -0.2823203
v 0.7031706 1.909567 -0.4254851
v 0.8690773 1.982341 -0.4629212
v 0.7381766 1.779055 -0.2161325
v 1.033586 1.78833 -0.4544647
v 0.7304507 1.320343 -0.3286989
v 0.3846135 1.774711 -0.3544373
v 0.5308552 1.975245 -0.4107909
v 0.6831504 1.716464 -0.5816784
v 0.7304507 1.320343 -0.3286989
v 1.033586 1.78833 -0.4544647
v 0.8690773 1.982341 -0.4629212
v 0.6850307 1.838385 -0.5528731
v 0.7031706 1.909567 -0.4254851
v 0.5308552 1.975245 -0.4107909
v 0.3846135 1.774711 -0.3544373
v -0.7231119 1.322753 -0.6718582
v -0.781339 1.28714 -0.8659803
v -0.5666907 1.407691 -0.9800147
v -0.6671907 1.227653 -0.5560473
v -0.2739892 1.228843 -0.9565355
v -0.5656717 0.6330326 -0.5763155
v -1.194956 1.061146 -0.649532
v -1.046667 1.320293 -0.8200139
v -0.777042 0.98738 -1.016827
v -0.5656717 0.6330326 -0.5763155
v -0.2739892 1.228843 -0.9565355
v -0.5666907 1.407691 -0.9800147
v -0.8044162 1.144921 -1.012892
v -0.781339 1.28714 -0.8659803
v -1.046667 1.320293 -0.8200139
v -1.194956 1.061146 -0.649532
v 0.8905522 1.400625 -0.5938789
v 0.8306625 1.42686 -0.765668
v 1.045013 1.460207 -0.866416
v 0.8943866 1.273887 -0.5019494
v 1.195665 1.174531 -0.8739039
v 0.726127 0.712423 -0.5735034
v 0.4202262 1.368679 -0.5739157
v 0.640881 1.56139 -0.7100753
v 0.7095289 1.187455 -0.9238455
v 0.726127 0.712423 -0.5735034
v 1.195665 1.174531 -0.8739039
v 1.045013 1.460207 -0.866416
v 0.7537357 1.336653 -0.9061381
v 0.8306625 1.42686 -0.765668
v 0.640881 1.56139 -0.7100753
v 0.4202262 1.368679 -0.5739157
v 0.06026769 1.176659 -0.7835598
v 0.2826018 1.264456 -0.8900763
v 0.03364444 1.076397 -0.6960245
v 0.4168342 1.075277 -0.7562059
v 0.0918349 0.5682091 -0.7117914
v -0.1859881 1.014114 -1.009621
v -0.03157127 1.232577 -1.022147
v 0.1219741 1.176991 -0.930425
v 0.1937526 0.9432337 -1.044748
v 0.0918349 0.5682091 -0.7117914
v 0.4168342 1.075277 -0.7562059
v 0.2826018 1.264456 -0.8900763
v 0.1787668 1.078099 -1.041657
v 0.1219741 1.176991 -0.930425
v -0.03157127 1.232577 -1.022147
v -0.1859881 1.014114 -1.009621
vt 0.1826581 0.9076244
vt 0.1826581 0.9649594
vt 0.2703372 0.960404
vt 0.1826581 0.8587473
vt 0.3452109 0.868036
vt 0.1826581 0.6868167
vt 0.02009046 0.868036
vt 0.09496418 0.960404
vt 0.5059386 0.7907733
vt 0.5059386 0.9627039
vt 0.6684915 0.7814846
vt 0.5936178 0.6891167
vt 0.5059386 0.7418962
vt 0.5059386 0.6845613
vt 0.4182447 0.6891167
vt 0.343371 0.7814846
vt 0.1826581 0.5828749
vt 0.1826581 0.640195
vt 0.2703372 0.6356545
vt 0.1826581 0.5339829
vt 0.3452109 0.5432865
vt 0.1826581 0.3620672
vt 0.02009046 0.5432865
vt 0.09496418 0.6356545
vt 0.5059386 0.466009
vt 0.5059386 0.6379396
vt 0.6684915 0.4567203
vt 0.5936178 0.3643523
vt 0.5059386 0.4171319
vt 0.5059386 0.3598118
vt 0.4182447 0.3643523
vt 0.343371 0.4567203
vt 0.1826581 0.2581105
vt 0.1826581 0.3154306
vt 0.2703372 0.3108901
vt 0.1826581 0.2092334
vt 0.3452109 0.2185221
vt 0.1826581 0.03730281
vt 0.02009046 0.2185221
vt 0.09496418 0.3108901
vt 0.5059386 0.1412446
vt 0.5059386 0.3131752
vt 0.6684915 0.1319559
vt 0.5936178 0.0395879
vt 0.5059386 0.09236749
vt 0.5059386 0.0350474
vt 0.4182447 0.0395879
vt 0.343371 0.1319559
vt 0.9202221 0.7993647
vt 0.9775422 0.7993647
vt 0.9730017 0.7116708
vt 0.871345 0.7993647
vt 0.8806337 0.636797
vt 0.6994144 0.7993647
vt 0.8806337 0.9619175
vt 0.9730017 0.8870586
vt 0.8033562 0.4760841
vt 0.9752868 0.4760841
vt 0.7940674 0.3135165
vt 0.7016994 0.3883902
vt 0.7544791 0.4760841
vt 0.6971589 0.4760841
vt 0.7016994 0.5637781
vt 0.7940674 0.6386369
vt 0.1826581 1.907632
vt 0.1826581 1.964952
vt 0.2703372 1.960412
vt 0.1826581 1.858755
vt 0.3452109 1.868044
vt 0.1826581 1.686824
vt 0.02009046 1.868044
vt 0.09496418 1.960412
vt 0.5059386 1.790766
vt 0.5059386 1.962697
vt 0.6684915 1.781478
vt 0.5936178 1.68911
vt 0.5059386 1.741889
vt 0.5059386 1.684569
vt 0.4182447 1.68911
vt 0.343371 1.781478
vt 0.1826581 1.582868
vt 0.1826581 1.640188
vt 0.2703372 1.635647
vt 0.1826581 1.533991
vt 0.3452109 1.543279
vt 0.1826581 1.36206
vt 0.02009046 1.543279
vt 0.09496418 1.635647
vt 0.5059386 1.466017
vt 0.5059386 1.637933
vt 0.6684915 1.456713
vt 0.5936178 1.364345
vt 0.5059386 1.417125
vt 0.5059386 1.359805
vt 0.4182447 1.364345
vt 0.343371 1.456713
vt 0.1826581 1.258103
vt 0.2703372 1.310883
vt 0.1826581 1.209226
vt 0.3452109 1.218515
vt 0.1826581 1.037296
vt 0.02009046 1.218515
vt 0.09496418 1.310883
vt 0.1826581 1.315438
vt 0.5059386 1.141252
vt 0.5059386 1.313183
vt 0.6684915 1.131964
vt 0.5936178 1.039596
vt 0.5059386 1.092375
vt 0.5059386 1.03504
vt 0.4182447 1.039596
vt 0.343371 1.131964
vn -0.03687984 0.8094707 0.5860009
vn -0.05050236 0.9982398 0.0310932
vn 0.2978446 0.6790839 0.67092
vn 0.002041638 0.1419677 0.9898692
vn 0.4321237 0.2353793 0.8705549
vn 0.009825885 -0.0156641 0.999829
vn -0.4377708 0.1906196 0.8786472
vn -0.3540897 0.6460006 0.6762424
vn 0.01955628 -0.5274813 -0.8493416
vn 0.02734053 -0.653976 -0.7560211
vn 0.4476923 -0.3776336 -0.8105335
vn 0.3134133 0.09136993 -0.9452109
vn -0.02131122 0.2431635 -0.9697511
vn -0.04466408 0.7452503 -0.6652873
vn -0.3385211 0.05828661 -0.9391518
vn -0.4222023 -0.4223933 -0.8020779
vn -0.2665164 0.7316278 0.6274471
vn -0.06607097 0.9846173 0.161751
vn 0.03707093 0.5681577 0.8220842
vn -0.3910651 -0.1129677 0.9134037
vn 0.1071295 -0.002041638 0.994243
vn -0.3774425 -0.2920064 0.8787886
vn -0.7939021 0.001850545 0.6080428
vn -0.6168095 0.5701038 0.542704
vn 0.3620651 -0.3815258 -0.8504981
vn 0.3289818 -0.5430498 -0.7725722
vn 0.7804707 -0.2394625 -0.5775146
vn 0.6695446 0.3443593 -0.6581236
vn 0.3387122 0.5156137 -0.7870302
vn 0.1752421 0.8989901 -0.4013814
vn 0.01761019 0.3463054 -0.9379565
vn -0.1205609 -0.2355703 -0.9643504
vn -0.7977943 0.5525891 0.2411836
vn -0.4864226 0.869799 -0.08272117
vn -0.6343241 0.5039373 0.5862423
vn -0.7530347 -0.2939525 0.5886686
vn -0.4805844 -0.002041638 0.876946
vn -0.657677 -0.4515844 0.6029366
vn -0.9320733 -0.33482 0.138329
vn -0.9632105 0.2626243 0.05704362
vn 0.8738822 -0.1791342 -0.4519302
vn 0.8622057 -0.3445504 -0.3713304
vn 0.9925926 0.1011003 -0.06736895
vn 0.7415493 0.6012409 -0.2976811
vn 0.4905059 0.6440546 -0.5870245
vn 0.02928662 0.9048283 -0.4247684
vn 0.412663 0.359928 -0.8367563
vn 0.5411037 -0.2316782 -0.8084133
vn 0.09156096 0.7218974 0.685916
vn 0.005933762 0.9846173 0.174624
vn 0.4613148 0.5778881 0.6732266
vn 0.1538353 -0.06431592 0.9860011
vn 0.6267309 0.04661018 0.7778405
vn 0.1518892 -0.2375164 0.959435
vn -0.36382 0.02520341 0.9311283
vn -0.2606782 0.5623195 0.7847571
vn -0.1322374 -0.3893101 -0.9115651
vn -0.1166689 -0.5449959 -0.8302818
vn 0.3737415 -0.2394625 -0.8960887
vn 0.2200018 0.3034918 -0.9270879
vn -0.1458599 0.4533394 -0.8793226
vn -0.09136993 0.8756372 -0.4742478
vn -0.5019912 0.2879233 -0.8155397
vn -0.6168095 -0.2608693 -0.7426259
vn -0.03298765 0.9145587 0.4031057
vn -0.2139725 0.9709948 -0.1067001
vn 0.3523347 0.8425539 0.4073858
vn 0.2764379 0.2061881 0.9386525
vn 0.6656524 0.361874 0.6526515
vn 0.3134133 0.02131122 0.9493777
vn -0.2314871 0.1984039 0.9523916
vn -0.2937614 0.7238435 0.6243034
vn -0.122507 -0.6675985 -0.7343734
vn -0.05828661 -0.7921472 -0.6075405
vn 0.305629 -0.4243394 -0.8523655
vn 0.01761019 0.1108306 -0.9936833
vn -0.3443593 0.229541 -0.9103448
vn -0.3365751 0.7024367 -0.6271362
vn -0.628486 -0.005933762 -0.7777983
vn -0.5895645 -0.5878095 -0.5539799
vn 0.3990405 0.7218974 0.5653591
vn 0.2628154 0.9632105 0.05615712
vn 0.7104121 0.4903148 0.5048822
vn 0.3523347 -0.04096305 0.9349772
vn 0.7687943 -0.05653167 0.6369926
vn 0.305629 -0.2102714 0.9286425
vn -0.1166689 0.1653207 0.9793148
vn 0.06431592 0.6518388 0.7556253
vn -0.416364 -0.4009865 -0.8159969
vn -0.4183101 -0.5488881 -0.7236978
vn 0.08572274 -0.3756876 -0.9227732
vn 0.0584777 0.1847814 -0.9810383
vn -0.2314871 0.4260944 -0.8745613
vn 0.002041638 0.8406079 -0.5416402
vn -0.5876184 0.3463054 -0.7312846
vn -0.7997404 -0.1538353 -0.5803016
vn -0.2918153 0.817255 0.4969287
vn 0.05263948 0.7160593 0.6960519
vn -0.3949572 0.1030464 0.9129021
vn 0.1518892 0.2256489 0.9622953
vn -0.3793886 -0.07210022 0.9224239
vn -0.8250393 0.1263992 0.5507571
vn -0.6518388 0.6440546 0.4003746
vn -0.08746666 0.9961675 0
vn 0.3737415 -0.5352656 -0.7575012
vn 0.3426043 -0.6734367 -0.6550612
vn 0.8135539 -0.3250897 -0.4821272
vn 0.6928974 0.1847814 -0.6969569
vn 0.3464965 0.2879233 -0.8927712
vn 0.1752421 0.7783336 -0.6028988
vn -0.01158088 0.1127767 -0.9935529
vn -0.1614285 -0.4243394 -0.8909977
g Wing_HeartBalloon_LOD2_0
f 3/3/3 2/2/2 1/1/1
f 4/4/4 3/3/3 1/1/1
f 4/4/4 5/5/5 3/3/3
f 5/5/5 4/4/4 6/6/6
f 7/7/7 6/6/6 4/4/4
f 8/8/8 4/4/4 1/1/1
f 8/8/8 7/7/7 4/4/4
f 2/2/2 8/8/8 1/1/1
f 11/11/11 10/10/10 9/9/9
f 12/12/12 11/11/11 9/9/9
f 12/12/12 9/9/9 13/13/13
f 14/14/14 12/12/12 13/13/13
f 15/15/15 14/14/14 13/13/13
f 9/9/9 15/15/15 13/13/13
f 9/9/9 16/16/16 15/15/15
f 9/9/9 10/10/10 16/16/16
f 19/19/19 18/18/18 17/17/17
f 20/20/20 19/19/19 17/17/17
f 20/20/20 21/21/21 19/19/19
f 21/21/21 20/20/20 22/22/22
f 23/23/23 22/22/22 20/20/20
f 24/24/24 20/20/20 17/17/17
f 24/24/24 23/23/23 20/20/20
f 18/18/18 24/24/24 17/17/17
f 27/27/27 26/26/26 25/25/25
f 28/28/28 27/27/27 25/25/25
f 28/28/28 25/25/25 29/29/29
f 30/30/30 28/28/28 29/29/29
f 31/31/31 30/30/30 29/29/29
f 25/25/25 31/31/31 29/29/29
f 25/25/25 32/32/32 31/31/31
f 25/25/25 26/26/26 32/32/32
f 35/35/35 34/34/34 33/33/33
f 36/36/36 35/35/35 33/33/33
f 36/36/36 37/37/37 35/35/35
f 37/37/37 36/36/36 38/38/38
f 39/39/39 38/38/38 36/36/36
f 40/40/40 36/36/36 33/33/33
f 40/40/40 39/39/39 36/36/36
f 34/34/34 40/40/40 33/33/33
f 43/43/43 42/42/42 41/41/41
f 44/44/44 43/43/43 41/41/41
f 44/44/44 41/41/41 45/45/45
f 46/46/46 44/44/44 45/45/45
f 47/47/47 46/46/46 45/45/45
f 41/41/41 47/47/47 45/45/45
f 41/41/41 48/48/48 47/47/47
f 41/41/41 42/42/42 48/48/48
f 51/51/51 50/50/50 49/49/49
f 52/52/52 51/51/51 49/49/49
f 52/52/52 53/53/53 51/51/51
f 53/53/53 52/52/52 54/54/54
f 55/55/55 54/54/54 52/52/52
f 56/56/56 52/52/52 49/49/49
f 56/56/56 55/55/55 52/52/52
f 50/50/50 56/56/56 49/49/49
f 59/59/59 58/58/58 57/57/57
f 60/60/60 59/59/59 57/57/57
f 60/60/60 57/57/57 61/61/61
f 62/62/62 60/60/60 61/61/61
f 63/63/63 62/62/62 61/61/61
f 57/57/57 63/63/63 61/61/61
f 57/57/57 64/64/64 63/63/63
f 57/57/57 58/58/58 64/64/64
f 67/67/67 66/66/66 65/65/65
f 68/68/68 67/67/67 65/65/65
f 68/68/68 69/69/69 67/67/67
f 69/69/69 68/68/68 70/70/70
f 71/71/71 70/70/70 68/68/68
f 72/72/72 68/68/68 65/65/65
f 72/72/72 71/71/71 68/68/68
f 66/66/66 72/72/72 65/65/65
f 75/75/75 74/74/74 73/73/73
f 76/76/76 75/75/75 73/73/73
f 76/76/76 73/73/73 77/77/77
f 78/78/78 76/76/76 77/77/77
f 79/79/79 78/78/78 77/77/77
f 73/73/73 79/79/79 77/77/77
f 73/73/73 80/80/80 79/79/79
f 73/73/73 74/74/74 80/80/80
f 83/83/83 82/82/82 81/81/81
f 84/84/84 83/83/83 81/81/81
f 84/84/84 85/85/85 83/83/83
f 85/85/85 84/84/84 86/86/86
f 87/87/87 86/86/86 84/84/84
f 88/88/88 84/84/84 81/81/81
f 88/88/88 87/87/87 84/84/84
f 82/82/82 88/88/88 81/81/81
f 91/91/91 90/90/90 89/89/89
f 92/92/92 91/91/91 89/89/89
f 92/92/92 89/89/89 93/93/93
f 94/94/94 92/92/92 93/93/93
f 95/95/95 94/94/94 93/93/93
f 89/89/89 95/95/95 93/93/93
f 89/89/89 96/96/96 95/95/95
f 89/89/89 90/90/90 96/96/96
f 99/99/99 98/98/98 97/97/97
f 99/99/99 100/100/100 98/98/98
f 100/100/100 99/99/99 101/101/101
f 102/102/102 101/101/101 99/99/99
f 103/103/103 99/99/99 97/97/97
f 103/103/103 102/102/102 99/99/99
f 104/104/104 103/103/103 97/97/97
f 98/98/98 104/104/104 97/97/97
f 107/107/107 106/106/106 105/105/105
f 108/108/108 107/107/107 105/105/105
f 108/108/108 105/105/105 109/109/109
f 110/110/110 108/108/108 109/109/109
f 111/111/111 110/110/110 109/109/109
f 105/105/105 111/111/111 109/109/109
f 105/105/105 112/112/112 111/111/111
f 105/105/105 106/106/106 112/112/112
