g Wing_Parachute_LOD2
v 0.2899512 0.961562 -1.227134
v 0.7591057 1.06122 -0.9011676
v 0.7428373 1.367833 -0.9825509
v 0.5397036 1.308442 -1.176812
v 0.2837402 1.270312 -1.301533
v -0.289951 0.961562 -1.227134
v -0.2837399 1.270312 -1.301533
v -0.5397034 1.308442 -1.176812
v -0.7591056 1.06122 -0.9011676
v -0.7428368 1.367833 -0.9825509
v -0.9383026 1.22247 -0.3737459
v -0.918197 1.525626 -0.4664313
v -0.7591056 1.383717 0.1536759
v -0.7428368 1.683423 0.04969144
v -0.5397034 1.742813 0.2439499
v -0.289951 1.483375 0.4796424
v -0.2837399 1.780944 0.3686701
v 0.2899512 1.483375 0.4796424
v 0.2837402 1.780944 0.3686701
v 0.5397036 1.742813 0.2439499
v 0.7428373 1.683423 0.04968834
v 0.7591026 1.383717 0.1536759
v 0.9181973 1.525626 -0.4664313
v 0.9383029 1.22247 -0.3737459
v -0.1332771 1.969565 -0.1732327
v -0.3489232 1.923758 -0.3230623
v -0.8732597 1.608585 -0.1950915
v -0.918197 1.525626 -0.4664313
v -0.4312922 1.84964 -0.5654899
v -0.8732597 1.442671 -0.737771
v -0.3489232 1.775522 -0.8079207
v -0.7428368 1.367833 -0.9825509
v -0.5397034 1.308442 -1.176812
v -0.1332771 1.729715 -0.9577503
v 0.1332773 1.729715 -0.9577503
v 0.3489204 1.775522 -0.8079207
v 0.5397036 1.308442 -1.176812
v 0.7428373 1.367833 -0.9825509
v 0.87326 1.442671 -0.737771
v 0.4312894 1.84964 -0.5654899
v 0.9181973 1.525626 -0.4664313
v 0.3489204 1.923758 -0.3230623
v 0.8732569 1.608585 -0.1950915
v 0.1332773 1.969565 -0.1732327
v 0.5397036 1.742813 0.2439499
v 0.04592323 1.806503 -0.7000992
v 0.1202313 1.822285 -0.6484735
v 0.04592323 1.889149 -0.4297733
v -0.04592299 1.889149 -0.4297733
v -0.120231 1.873364 -0.4814021
v -0.1486129 1.847824 -0.5649378
v -0.120231 1.822285 -0.6484735
v -0.04592299 1.806503 -0.7000992
v 0.1202313 1.873364 -0.4814021
v 0.1486131 1.847824 -0.5649378
v -0.7428368 1.367833 -0.9825509
v -0.8732597 1.442671 -0.737771
v -0.918197 1.525626 -0.4664313
v -0.8732597 1.608585 -0.1950915
v -0.7428368 1.683423 0.04969144
v 0.7428373 1.683423 0.04968834
v 0.8732569 1.608585 -0.1950915
v 0.9181973 1.525626 -0.4664313
v 0.87326 1.442671 -0.737771
v 0.7428373 1.367833 -0.9825509
v -0.5397034 1.742813 0.2439499
v 0.7591057 1.06122 -0.9011676
v 0.7428373 1.367833 -0.9825509
v 0.87326 1.442671 -0.737771
v 0.8923798 1.137696 -0.6510285
v 0.5515205 1.000529 -1.099681
v 0.5397036 1.308442 -1.176812
v 0.2899512 0.961562 -1.227134
v 0.2837402 1.270312 -1.301533
v -0.2837399 1.270312 -1.301533
v -0.289951 0.961562 -1.227134
v -0.5515202 1.000529 -1.099681
v -0.5397034 1.308442 -1.176812
v -0.7591056 1.06122 -0.9011676
v -0.7428368 1.367833 -0.9825509
v -0.8923796 1.137696 -0.6510285
v -0.8732597 1.442671 -0.737771
v -0.9383026 1.22247 -0.3737459
v -0.918197 1.525626 -0.4664313
v -0.8923796 1.307244 -0.09646332
v -0.8732597 1.608585 -0.1950915
v -0.7591056 1.383717 0.1536759
v -0.7428368 1.683423 0.04969144
v -0.5515202 1.444412 0.3521894
v -0.5397034 1.742813 0.2439499
v -0.289951 1.483375 0.4796424
v -0.2837399 1.780944 0.3686701
v 0.2837402 1.780944 0.3686701
v 0.2899512 1.483375 0.4796424
v 0.5515205 1.444412 0.3521894
v 0.5397036 1.742813 0.2439499
v 0.7591026 1.383717 0.1536759
v 0.7428373 1.683423 0.04968834
v 0.8923798 1.307244 -0.09646332
v 0.8732569 1.608585 -0.1950915
v 0.9383029 1.22247 -0.3737459
v 0.9181973 1.525626 -0.4664313
v -0.1332771 1.969565 -0.1732327
v 0.1332773 1.969565 -0.1732327
v -0.04592299 1.889149 -0.4297733
v -0.120231 1.873364 -0.4814021
v -0.3489232 1.923758 -0.3230623
v -0.1486129 1.847824 -0.5649378
v -0.4312922 1.84964 -0.5654899
v -0.918197 1.525626 -0.4664313
v -0.120231 1.822285 -0.6484735
v -0.3489232 1.775522 -0.8079207
v -0.04592299 1.806503 -0.7000992
v -0.1332771 1.729715 -0.9577503
v 0.04592323 1.806503 -0.7000992
v 0.1332773 1.729715 -0.9577503
v 0.1202313 1.822285 -0.6484735
v 0.3489204 1.775522 -0.8079207
v 0.1486131 1.847824 -0.5649378
v 0.4312894 1.84964 -0.5654899
v 0.9181973 1.525626 -0.4664313
v 0.1202313 1.873364 -0.4814021
v 0.3489204 1.923758 -0.3230623
v 0.04592323 1.889149 -0.4297733
v 0.5397036 1.308442 -1.176812
v 0.5397036 1.742813 0.2439499
v -0.5397034 1.742813 0.2439499
v -0.5397034 1.308442 -1.176812
vt 0.3564198 0.05578191
vt 0.1227313 0.2250143
vt 0.21631 0.2934242
vt 0.2940291 0.2158674
vt 0.3919009 0.1661201
vt 0.6449454 0.0562245
vt 0.6088005 0.1663561
vt 0.706569 0.21631
vt 0.8781028 0.226165
vt 0.7841259 0.2940291
vt 0.9668425 0.5007195
vt 0.8509425 0.5003654
vt 0.8772767 0.7749789
vt 0.783698 0.706569
vt 0.7059789 0.7841259
vt 0.6435882 0.9442261
vt 0.6080923 0.8338732
vt 0.3550625 0.9437835
vt 0.3912075 0.8336519
vt 0.2934242 0.783698
vt 0.2158674 0.7059789
vt 0.1218904 0.7738282
vt 0.1490655 0.4996278
vt 0.03315071 0.4992884
vt 0.5441378 0.6352527
vt 0.6152033 0.5834842
vt 0.8336519 0.6088005
vt 0.8509425 0.5003654
vt 0.6422752 0.4998195
vt 0.8338732 0.3919009
vt 0.6149967 0.4162287
vt 0.7841259 0.2940291
vt 0.706569 0.21631
vt 0.5437984 0.3646373
vt 0.4558702 0.3647405
vt 0.3847899 0.4165238
vt 0.2940291 0.2158674
vt 0.21631 0.2934242
vt 0.1663561 0.3912075
vt 0.3577328 0.5001736
vt 0.1490655 0.4996278
vt 0.3849965 0.5837645
vt 0.1661201 0.6080923
vt 0.4562095 0.6353707
vt 0.2934242 0.783698
vt 0.4848452 0.4535244
vt 0.4604141 0.4713166
vt 0.4849485 0.546513
vt 0.5151628 0.5464688
vt 0.5395791 0.5286913
vt 0.5488883 0.4999376
vt 0.5395201 0.4712134
vt 0.5150447 0.4534949
vt 0.4604879 0.5287799
vt 0.4511197 0.5000556
vt 0.7841259 0.2940291
vt 0.8338732 0.3919009
vt 0.8509425 0.5003654
vt 0.8336519 0.6088005
vt 0.783698 0.706569
vt 0.2158674 0.7059789
vt 0.1661201 0.6080923
vt 0.1490655 0.4996278
vt 0.1663561 0.3912075
vt 0.21631 0.2934242
vt 0.7059789 0.7841259
vt 1.122723 0.2250143
vt 1.216302 0.2934242
vt 1.166348 0.3912075
vt 1.056216 0.3550625
vt 1.226172 0.1218904
vt 1.294021 0.2158674
vt 1.356412 0.05578191
vt 1.391908 0.1661201
vt 1.608792 0.1663561
vt 1.644937 0.0562245
vt 1.774986 0.1227313
vt 1.706576 0.21631
vt 1.87811 0.226165
vt 1.784133 0.2940291
vt 1.944218 0.3564198
vt 1.83388 0.3919009
vt 1.966849 0.5007195
vt 1.850935 0.5003654
vt 1.943775 0.6449454
vt 1.833644 0.6088005
vt 1.877269 0.7749789
vt 1.78369 0.706569
vt 1.773835 0.8781028
vt 1.705971 0.7841259
vt 1.64358 0.9442261
vt 1.608099 0.8338732
vt 1.3912 0.8336519
vt 1.355054 0.9437835
vt 1.225021 0.8772767
vt 1.293431 0.783698
vt 1.121897 0.7738282
vt 1.215874 0.7059789
vt 1.055774 0.6435882
vt 1.166127 0.6080923
vt 1.033157 0.4992884
vt 1.149058 0.4996278
vt 1.54413 0.6352527
vt 1.456202 0.6353707
vt 1.515155 0.5464688
vt 1.539586 0.5286913
vt 1.61521 0.5834842
vt 1.54888 0.4999376
vt 1.642267 0.4998195
vt 1.850935 0.5003654
vt 1.539512 0.4712134
vt 1.615003 0.4162287
vt 1.515051 0.4534949
vt 1.54379 0.3646373
vt 1.484837 0.4535244
vt 1.455862 0.3647405
vt 1.460421 0.4713166
vt 1.384797 0.4165238
vt 1.451112 0.5000556
vt 1.357725 0.5001736
vt 1.149058 0.4996278
vt 1.46048 0.5287799
vt 1.385003 0.5837645
vt 1.484955 0.546513
vt 1.294021 0.2158674
vt 1.293431 0.783698
vt 1.705971 0.7841259
vt 1.706576 0.21631
vn 0.309855 -0.2531623 -0.9164599
vn 0.8083599 -0.1808302 -0.5602273
vn 0.6851999 0.3645928 -0.6305341
vn 0.5874538 -0.2453426 -0.7711712
vn 0.2668467 0.2648919 -0.9266202
vn -0.309855 -0.2531623 -0.9164599
vn -0.2668468 0.2648919 -0.9266202
vn -0.5874538 -0.2453426 -0.7711712
vn -0.8083599 -0.1808302 -0.5602275
vn -0.6851999 0.3645928 -0.6305341
vn -0.9999422 -0.01075208 -0.0001604669
vn -0.9999422 -0.01075208 -0.0001604669
vn -0.8083599 0.161281 0.566165
vn -0.6851999 0.6539211 0.320762
vn -0.5874538 0.2277483 0.7765492
vn -0.309855 0.3039902 0.9008772
vn -0.2668468 0.7379827 0.6198179
vn 0.309855 0.3039902 0.9008772
vn 0.2668467 0.7379827 0.619818
vn 0.5874538 0.2277483 0.7765492
vn 0.6851999 0.6539211 0.320762
vn 0.8083599 0.161281 0.5661649
vn 0.9999422 -0.01075208 -0.0001604669
vn 0.9999422 -0.01075208 -0.0001604669
vn -0.1534613 0.9667085 0.204754
vn -0.3958715 0.9178355 0.02939031
vn -0.80445 0.5874538 0.08808031
vn -0.5464004 0.8005402 -0.246134
vn -0.4897077 0.8337739 -0.2549658
vn -0.80445 0.43497 -0.4045506
vn -0.3958715 0.7497122 -0.5302993
vn -0.6851999 0.3645928 -0.6305341
vn -0.3333141 0.6539211 -0.6791825
vn -0.1534613 0.6891097 -0.7082214
vn 0.1534613 0.6891097 -0.7082214
vn 0.3958715 0.7497122 -0.5302993
vn 0.3333141 0.6539211 -0.6791825
vn 0.6851999 0.3645928 -0.6305341
vn 0.80445 0.43497 -0.4045506
vn 0.4897078 0.8337739 -0.2549657
vn 0.5464004 0.8005402 -0.246134
vn 0.3958715 0.9178355 0.02939031
vn 0.80445 0.5874538 0.08808031
vn 0.1534613 0.9667085 0.204754
vn 0.3333141 0.9217453 0.1982103
vn -0.002932429 0.9588889 -0.2837666
vn -0.004887342 0.956934 -0.2902645
vn -0.002932429 0.9549791 -0.2966588
vn 0.00293237 0.9549791 -0.2966588
vn 0.004887283 0.9549791 -0.296633
vn 0.006842196 0.956934 -0.2902251
vn 0.004887283 0.956934 -0.2902645
vn 0.00293237 0.9588889 -0.2837666
vn -0.004887342 0.9549791 -0.296633
vn -0.006842256 0.956934 -0.2902251
vn -0.6851999 0.3645928 -0.6305341
vn -0.80445 0.43497 -0.4045506
vn -0.9999422 -0.01075208 -0.0001604669
vn -0.80445 0.5874538 0.08808031
vn -0.6851999 0.6539211 0.320762
vn 0.6851999 0.6539211 0.320762
vn 0.80445 0.5874538 0.08808031
vn 0.9999422 -0.01075208 -0.0001604669
vn 0.80445 0.43497 -0.4045506
vn 0.6851999 0.3645928 -0.6305341
vn -0.3333141 0.9217453 0.1982103
vn -0.8083599 0.110453 0.5782339
vn -0.5991833 -0.5151217 0.6128858
vn -0.7164786 -0.5620399 0.4132428
vn -0.9491142 0.03030133 0.313471
vn -0.5874538 0.1749655 0.7901171
vn -0.5874538 0.1749655 0.7901171
vn -0.1573712 0.2277483 0.9609188
vn -0.1906048 -0.3333141 0.9233479
vn 0.1906048 -0.3333141 0.9233479
vn 0.1573712 0.2277483 0.9609188
vn 0.5874538 0.1749655 0.7901171
vn 0.5874538 0.1749655 0.7901171
vn 0.8083599 0.110453 0.5782338
vn 0.5991833 -0.5151217 0.6128858
vn 0.9491142 0.03030133 0.313471
vn 0.7164786 -0.5620399 0.4132428
vn 0.9979873 -0.05962509 0.02159294
vn 0.9979873 -0.05962509 0.02159294
vn 0.9491142 -0.1515064 -0.2760943
vn 0.7164786 -0.6969294 -0.03078738
vn 0.8083599 -0.2316582 -0.5411919
vn 0.5991833 -0.7692615 -0.2218471
vn 0.5874538 -0.2961705 -0.7531142
vn 0.5874538 -0.2961705 -0.7531142
vn 0.1573712 -0.3469985 -0.9245682
vn 0.1906048 -0.7927206 -0.5790198
vn -0.1906048 -0.7927206 -0.5790198
vn -0.1573712 -0.3469985 -0.9245682
vn -0.5874538 -0.2961705 -0.7531142
vn -0.5874538 -0.2961705 -0.7531142
vn -0.8083599 -0.2316582 -0.5411921
vn -0.5991833 -0.7692615 -0.2218471
vn -0.9491142 -0.1515064 -0.2760943
vn -0.7164786 -0.6969294 -0.03078738
vn -0.9979873 -0.05962509 0.02159294
vn -0.9979873 -0.05962509 0.02159294
vn 0.1534613 -0.9667085 -0.204754
vn -0.1534613 -0.9667085 -0.204754
vn -0.002932429 -0.954979 0.2966589
vn -0.004887342 -0.954979 0.2966331
vn 0.3958715 -0.9178355 -0.02939031
vn -0.006842256 -0.9569339 0.2902253
vn 0.4897078 -0.8337739 0.2549657
vn 0.5464004 -0.8005402 0.246134
vn -0.004887342 -0.9569339 0.2902647
vn 0.3958715 -0.7497122 0.5302993
vn -0.002932429 -0.9588888 0.2837668
vn 0.1534613 -0.6891097 0.7082214
vn 0.00293237 -0.9588888 0.2837668
vn -0.1534613 -0.6891097 0.7082214
vn 0.004887283 -0.9569339 0.2902647
vn -0.3958715 -0.7497122 0.5302993
vn 0.006842196 -0.9569339 0.2902253
vn -0.4897077 -0.8337739 0.2549658
vn -0.5464004 -0.8005402 0.246134
vn 0.004887283 -0.954979 0.2966331
vn -0.3958715 -0.9178355 -0.02939031
vn 0.00293237 -0.954979 0.2966589
vn -0.3333141 -0.6539211 0.6791825
vn -0.3333141 -0.9217454 -0.19821
vn 0.3333141 -0.9217454 -0.19821
vn 0.3333141 -0.6539211 0.6791825
g Wing_Parachute_LOD2_0
f 3/3/3 2/2/2 1/1/1
f 1/1/1 4/4/4 3/3/3
f 1/1/1 5/5/5 4/4/4
f 1/1/1 6/6/6 5/5/5
f 6/6/6 7/7/7 5/5/5
f 8/8/8 7/7/7 6/6/6
f 6/6/6 9/9/9 8/8/8
f 9/9/9 10/10/10 8/8/8
f 10/10/10 9/9/9 11/11/11
f 11/11/11 12/12/12 10/10/10
f 12/12/12 11/11/11 13/13/13
f 13/13/13 14/14/14 12/12/12
f 15/15/15 14/14/14 13/13/13
f 15/15/15 13/13/13 16/16/16
f 16/16/16 17/17/17 15/15/15
f 16/16/16 18/18/18 17/17/17
f 18/18/18 19/19/19 17/17/17
f 20/20/20 19/19/19 18/18/18
f 21/21/21 20/20/20 18/18/18
f 18/18/18 22/22/22 21/21/21
f 23/23/23 21/21/21 22/22/22
f 22/22/22 24/24/24 23/23/23
f 3/3/3 23/23/23 24/24/24
f 24/24/24 2/2/2 3/3/3
f 14/14/14 17/17/17 25/25/25
f 17/17/17 19/19/19 25/25/25
f 25/25/25 26/26/26 14/14/14
f 27/27/27 14/14/14 26/26/26
f 28/28/28 27/27/27 26/26/26
f 26/26/26 29/29/29 28/28/28
f 30/30/30 28/28/28 29/29/29
f 30/30/30 29/29/29 31/31/31
f 31/31/31 32/32/32 30/30/30
f 33/33/33 32/32/32 31/31/31
f 7/7/7 33/33/33 31/31/31
f 31/31/31 34/34/34 7/7/7
f 7/7/7 34/34/34 35/35/35
f 5/5/5 7/7/7 35/35/35
f 5/5/5 35/35/35 36/36/36
f 37/37/37 5/5/5 36/36/36
f 36/36/36 38/38/38 37/37/37
f 39/39/39 38/38/38 36/36/36
f 36/36/36 40/40/40 39/39/39
f 40/40/40 41/41/41 39/39/39
f 41/41/41 40/40/40 42/42/42
f 42/42/42 43/43/43 41/41/41
f 42/42/42 21/21/21 43/43/43
f 21/21/21 42/42/42 44/44/44
f 44/44/44 19/19/19 21/21/21
f 19/19/19 44/44/44 25/25/25
f 19/19/19 45/45/45 21/21/21
f 36/36/36 35/35/35 46/46/46
f 47/47/47 36/36/36 46/46/46
f 40/40/40 36/36/36 47/47/47
f 25/25/25 44/44/44 48/48/48
f 49/49/49 25/25/25 48/48/48
f 26/26/26 25/25/25 49/49/49
f 50/50/50 26/26/26 49/49/49
f 29/29/29 26/26/26 50/50/50
f 51/51/51 29/29/29 50/50/50
f 31/31/31 29/29/29 51/51/51
f 52/52/52 31/31/31 51/51/51
f 34/34/34 31/31/31 52/52/52
f 53/53/53 34/34/34 52/52/52
f 35/35/35 34/34/34 53/53/53
f 46/46/46 35/35/35 53/53/53
f 48/48/48 44/44/44 54/54/54
f 44/44/44 42/42/42 54/54/54
f 54/54/54 42/42/42 55/55/55
f 42/42/42 40/40/40 55/55/55
f 55/55/55 40/40/40 47/47/47
f 58/58/58 57/57/57 56/56/56
f 60/60/60 59/59/59 58/58/58
f 63/63/63 62/62/62 61/61/61
f 65/65/65 64/64/64 63/63/63
f 14/14/14 66/66/66 17/17/17
f 69/69/69 68/68/68 67/67/67
f 70/70/70 69/69/69 67/67/67
f 67/67/67 68/68/68 71/71/71
f 68/68/68 72/72/72 71/71/71
f 71/71/71 72/72/72 73/73/73
f 72/72/72 74/74/74 73/73/73
f 73/73/73 74/74/74 75/75/75
f 76/76/76 73/73/73 75/75/75
f 76/76/76 75/75/75 77/77/77
f 75/75/75 78/78/78 77/77/77
f 77/77/77 78/78/78 79/79/79
f 78/78/78 80/80/80 79/79/79
f 79/79/79 80/80/80 81/81/81
f 80/80/80 82/82/82 81/81/81
f 81/81/81 82/82/82 83/83/83
f 82/82/82 84/84/84 83/83/83
f 83/83/83 84/84/84 85/85/85
f 84/84/84 86/86/86 85/85/85
f 85/85/85 86/86/86 87/87/87
f 86/86/86 88/88/88 87/87/87
f 87/87/87 88/88/88 89/89/89
f 88/88/88 90/90/90 89/89/89
f 89/89/89 90/90/90 91/91/91
f 90/90/90 92/92/92 91/91/91
f 91/91/91 92/92/92 93/93/93
f 94/94/94 91/91/91 93/93/93
f 94/94/94 93/93/93 95/95/95
f 93/93/93 96/96/96 95/95/95
f 95/95/95 96/96/96 97/97/97
f 96/96/96 98/98/98 97/97/97
f 97/97/97 98/98/98 99/99/99
f 98/98/98 100/100/100 99/99/99
f 99/99/99 100/100/100 101/101/101
f 100/100/100 102/102/102 101/101/101
f 101/101/101 102/102/102 70/70/70
f 102/102/102 69/69/69 70/70/70
f 92/92/92 103/103/103 93/93/93
f 103/103/103 104/104/104 93/93/93
f 98/98/98 93/93/93 104/104/104
f 104/104/104 103/103/103 105/105/105
f 105/105/105 103/103/103 106/106/106
f 103/103/103 107/107/107 106/106/106
f 106/106/106 107/107/107 108/108/108
f 107/107/107 109/109/109 108/108/108
f 110/110/110 109/109/109 107/107/107
f 107/107/107 86/86/86 110/110/110
f 107/107/107 88/88/88 86/86/86
f 88/88/88 107/107/107 103/103/103
f 108/108/108 109/109/109 111/111/111
f 109/109/109 112/112/112 111/111/111
f 111/111/111 112/112/112 113/113/113
f 112/112/112 114/114/114 113/113/113
f 113/113/113 114/114/114 115/115/115
f 114/114/114 116/116/116 115/115/115
f 116/116/116 114/114/114 75/75/75
f 75/75/75 114/114/114 112/112/112
f 74/74/74 116/116/116 75/75/75
f 115/115/115 116/116/116 117/117/117
f 116/116/116 118/118/118 117/117/117
f 118/118/118 116/116/116 74/74/74
f 117/117/117 118/118/118 119/119/119
f 118/118/118 120/120/120 119/119/119
f 69/69/69 120/120/120 118/118/118
f 118/118/118 68/68/68 69/69/69
f 69/69/69 121/121/121 120/120/120
f 119/119/119 120/120/120 122/122/122
f 120/120/120 123/123/123 122/122/122
f 123/123/123 120/120/120 121/121/121
f 122/122/122 123/123/123 124/124/124
f 123/123/123 104/104/104 124/124/124
f 124/124/124 104/104/104 105/105/105
f 104/104/104 123/123/123 98/98/98
f 121/121/121 100/100/100 123/123/123
f 100/100/100 98/98/98 123/123/123
f 125/125/125 68/68/68 118/118/118
f 118/118/118 74/74/74 125/125/125
f 98/98/98 126/126/126 93/93/93
f 103/103/103 92/92/92 88/88/88
f 92/92/92 127/127/127 88/88/88
f 112/112/112 128/128/128 75/75/75
f 112/112/112 80/80/80 128/128/128
f 82/82/82 80/80/80 112/112/112
f 112/112/112 109/109/109 82/82/82
f 109/109/109 110/110/110 82/82/82
