g Wing_Basabasa_LOD2
v 0.1696939 1.14361 -0.9147555
v 0.103537 1.115855 -0.9581978
v 0.2038678 1.084508 -0.9632705
v 0.1481782 0.9825174 -1.061672
v 0.08152139 1.002805 -1.059526
v 0.06012607 1.229296 -0.8433191
v 0.1405979 1.229511 -0.8231357
v 0.3165635 1.147306 -0.8565269
v 0.2483441 1.194583 -0.8262714
v -0.2797726 1.221054 -0.5827695
v -0.3138548 1.208647 -0.6133574
v -2.384186E-07 1.271885 -0.6405479
v -2.384186E-07 1.231477 -0.7756048
v 0.3138545 1.208647 -0.6133574
v 0.2797722 1.221054 -0.5827695
v -0.3687932 1.146539 -0.7535316
v -0.2870282 1.065795 -0.9263588
v -2.384186E-07 1.013487 -1.039371
v 0.2870278 1.065795 -0.9263588
v 0.3687955 1.146539 -0.7535316
v -2.384186E-07 1.271885 -0.6405479
v -0.3951199 1.281389 -0.4593813
v -0.2797726 1.221054 -0.5827695
v -2.384186E-07 1.472529 -0.2693232
v 0.3951195 1.281389 -0.4593813
v 0.2797722 1.221054 -0.5827695
v -0.4301575 1.334684 -0.334954
v 0.4301571 1.334684 -0.334954
v -0.2434026 1.481682 -0.02152598
v -2.384186E-07 1.479454 0.04146373
v 0.2434022 1.481682 -0.02152598
v 0.2925507 1.446733 -0.01879859
v -0.2925512 1.446733 -0.01879859
v -0.2925512 1.446733 -0.01879859
v -0.2434026 1.481682 -0.02152598
v -0.07951415 1.508605 0.2388246
v -2.384186E-07 1.479454 0.04146373
v -1.069248 1.327973 -0.04092157
v -0.8635944 1.377627 0.09524524
v -0.8445708 1.347735 -0.1292564
v -0.7158009 1.386827 0.044945
v -0.71088 1.366471 -0.06991017
v -0.2926087 1.212157 -0.5813953
v -0.1629019 1.26598 -0.512935
v -0.7598426 1.13163 -0.751181
v -0.5633351 1.101121 -0.8292527
v -0.3687932 1.146539 -0.7535316
v -1.236023 1.199172 -0.3815557
v -1.207807 1.042822 -0.7535342
v -0.9292933 1.039534 -0.8541555
v -0.9466132 0.9081835 -0.9988421
v -0.3951199 1.281389 -0.4593813
v -0.1629019 1.26598 -0.512935
v -0.7497418 1.385675 -0.1106749
v -0.71088 1.366471 -0.06991017
v -0.8241595 1.404089 -0.03183103
v -0.8423039 1.356158 -0.1296386
v -0.3138548 1.208647 -0.6133574
v -1.167976 1.220986 -0.4208415
v -1.069248 1.327973 -0.04092157
v -0.7158009 1.386827 0.044945
v -0.8635944 1.377627 0.09524524
v -1.236023 1.199172 -0.3815557
v -1.207807 1.042822 -0.7535342
v -0.2797726 1.221054 -0.5827695
v -0.9466132 0.9081835 -0.9988421
v -0.9292933 1.039534 -0.8541555
v -1.022677 1.093397 -0.7867186
v -1.207807 1.042822 -0.7535342
v -1.167976 1.220986 -0.4208415
v -0.7598426 1.13163 -0.751181
v -0.787567 1.201734 -0.6690994
v -0.5633351 1.101121 -0.8292527
v -0.3687932 1.146539 -0.7535316
v -0.3138548 1.208647 -0.6133574
v -0.9033803 1.31583 -0.319558
v -0.8423039 1.356158 -0.1296386
v -0.1629019 1.26598 -0.512935
v -0.3951199 1.281389 -0.4593813
v -0.4301575 1.334684 -0.334954
v 0.4301571 1.334684 -0.334954
v 0.1629041 1.26598 -0.512935
v 0.3951195 1.281389 -0.4593813
v -0.2926087 1.212157 -0.5813953
v 0.2926083 1.212157 -0.5813953
v 0.3687955 1.146539 -0.7535316
v -0.3687932 1.146539 -0.7535316
v 0.2870278 1.065795 -0.9263588
v -0.2870282 1.065795 -0.9263588
v -2.384186E-07 1.013487 -1.039371
v -0.2925512 1.446733 -0.01879859
v 0.2925507 1.446733 -0.01879859
v -2.384186E-07 1.479454 0.04146373
v -0.2925512 1.446733 -0.01879859
v -0.07951415 1.508605 0.2388246
v -2.384186E-07 1.479454 0.04146373
v 0.07951379 1.508605 0.2388246
v 0.2434022 1.481682 -0.02152598
v 0.2925507 1.446733 -0.01879859
v -2.384186E-07 1.479454 0.04146373
v 0.7158005 1.386827 0.044945
v 0.8635941 1.377627 0.09524524
v 0.8445703 1.347735 -0.1292564
v 1.069247 1.327973 -0.04092157
v 0.7108796 1.366471 -0.06991017
v 0.2926083 1.212157 -0.5813953
v 0.1629041 1.26598 -0.512935
v 1.236023 1.199172 -0.3815557
v 0.7598423 1.13163 -0.751181
v 1.207806 1.042822 -0.7535342
v 0.929293 1.039534 -0.8541555
v 0.5633347 1.101121 -0.8292527
v 0.3687955 1.146539 -0.7535316
v 0.9466128 0.9081835 -0.9988421
v 1.167976 1.220986 -0.4208415
v 1.207806 1.042822 -0.7535342
v 1.236023 1.199172 -0.3815557
v 1.069247 1.327973 -0.04092157
v 0.8241539 1.404089 -0.03183365
v 0.8423035 1.356158 -0.1296386
v 0.7497414 1.385675 -0.1106749
v 0.7108796 1.366471 -0.06991017
v 0.7158005 1.386827 0.044945
v 0.8635941 1.377627 0.09524524
v 0.1629041 1.26598 -0.512935
v 0.3951195 1.281389 -0.4593813
v 0.3138545 1.208647 -0.6133574
v 0.2797722 1.221054 -0.5827695
v 0.3138545 1.208647 -0.6133574
v 0.7875667 1.201734 -0.6690994
v 0.9033799 1.31583 -0.319558
v 0.8423035 1.356158 -0.1296386
v 1.167976 1.220986 -0.4208415
v 1.022677 1.093397 -0.7867186
v 0.7598423 1.13163 -0.751181
v 0.929293 1.039534 -0.8541555
v 0.9466128 0.9081835 -0.9988421
v 1.207806 1.042822 -0.7535342
v 0.5633347 1.101121 -0.8292527
v 0.3687955 1.146539 -0.7535316
v 0.07951379 1.508605 0.2388246
v 0.2925507 1.446733 -0.01879859
v -2.384186E-07 1.479454 0.04146373
v -2.384186E-07 1.399854 -0.5320532
v -0.1182345 1.366528 -0.5136522
v -2.384186E-07 1.313367 -0.6184328
v -2.384186E-07 1.421577 -0.4094973
v 0.1182342 1.366528 -0.5136522
v -0.1035374 1.115855 -0.9581978
v -0.06012642 1.229296 -0.8433191
v -0.1696943 1.14361 -0.9147555
v -0.1405983 1.229511 -0.8231357
v -0.2038682 1.084508 -0.9632705
v -0.1481786 0.9825174 -1.061672
v -0.08152175 1.002805 -1.059526
v -0.316564 1.147306 -0.8565269
v -0.2483418 1.194583 -0.8262714
vt 0.9117668 0.07424979
vt 0.8849662 0.1102561
vt 0.9403512 0.1100142
vt 0.9321281 0.1842943
vt 0.8935974 0.1850652
vt 0.8451053 0.04152365
vt 0.8800232 0.02241703
vt 0.9812702 0.03952834
vt 0.9406989 0.0195601
vt 0.01290906 0.9015333
vt 0.02539488 0.9125983
vt 0.0256972 0.80077
vt 0.07325213 0.80077
vt 0.02548558 0.6890477
vt 0.01295441 0.7001731
vt 0.07963108 0.9298154
vt 0.1460054 0.9010647
vt 0.1900837 0.80077
vt 0.1473659 0.7013521
vt 0.08009968 0.6715283
vt 0.3127803 0.01656714
vt 0.594346 0.1269593
vt 0.5118731 0.01968103
vt 0.3127803 0.304542
vt 0.03121454 0.1269593
vt 0.1136723 0.01968103
vt 0.6159468 0.2226889
vt 0.009613776 0.2226889
vt 0.4827294 0.4318188
vt 0.3127803 0.4837422
vt 0.1428311 0.4318188
vt 0.1008691 0.430806
vt 0.5246915 0.430806
vt 0.01103468 0.463381
vt 0.0662232 0.4614461
vt 0.2168995 0.6963789
vt 0.2960771 0.5173602
vt 1.979274 0.4659809
vt 1.943252 0.5420899
vt 1.899371 0.4800539
vt 1.891888 0.5532607
vt 1.870575 0.5201415
vt 1.660251 0.4296723
vt 1.634463 0.4760028
vt 1.769192 0.2997503
vt 1.697874 0.3058723
vt 1.653721 0.362648
vt 1.969932 0.3320834
vt 1.898343 0.2170355
vt 1.799575 0.2325294
vt 1.777642 0.1685434
vt 1.601646 0.8081618
vt 1.555844 0.8864022
vt 1.598094 0.6159921
vt 1.575646 0.6173828
vt 1.597882 0.5860624
vt 1.631152 0.5986994
vt 1.626451 0.8751106
vt 1.797081 0.5703418
vt 1.661324 0.5095754
vt 1.54812 0.5845508
vt 1.572245 0.5324157
vt 1.804246 0.5414551
vt 1.921697 0.6315464
vt 1.608509 0.8756547
vt 1.974149 0.8616724
vt 1.910753 0.8167628
vt 1.910254 0.7670614
vt 1.961497 0.7110717
vt 1.844379 0.6198618
vt 1.825287 0.8285533
vt 1.802598 0.7915795
vt 1.792485 0.9057205
vt 1.713625 0.9340327
vt 1.656275 0.906189
vt 1.734788 0.6584076
vt 1.665345 0.6203606
vt 0.3757535 0.8581201
vt 0.3929102 0.9216225
vt 0.4304432 0.9301328
vt 0.4304281 0.6907256
vt 0.3757233 0.7627684
vt 0.392895 0.6992359
vt 0.3520365 0.8940055
vt 0.351976 0.7268226
vt 0.3003851 0.7072625
vt 0.3006119 0.9134901
vt 0.246814 0.7305411
vt 0.2474943 0.8906196
vt 0.2127879 0.8104292
vt 0.5233159 0.8926451
vt 0.5233159 0.7282284
vt 0.5430423 0.8104292
vt 0.5615292 0.471725
vt 0.3872417 0.673705
vt 0.3271405 0.5159847
vt 0.2168995 0.6963789
vt 0.0662232 0.4614461
vt 0.01103468 0.463381
vt 0.2960771 0.5173602
vt 0.8918742 0.5532607
vt 0.9432535 0.5420899
vt 0.8993717 0.4800539
vt 0.9792749 0.4659809
vt 0.8705757 0.5201415
vt 0.6602517 0.4296723
vt 0.6344487 0.4760028
vt 0.9699332 0.3320834
vt 0.7691928 0.2997503
vt 0.8983439 0.2170355
vt 0.7995759 0.2325294
vt 0.6978754 0.3058723
vt 0.6537216 0.362648
vt 0.7776426 0.1685434
vt 0.7970818 0.5703418
vt 0.921698 0.6315464
vt 0.8042467 0.5414551
vt 0.661325 0.5095754
vt 0.5980192 0.5905821
vt 0.6311535 0.5986994
vt 0.5980948 0.6159921
vt 0.5756324 0.6173828
vt 0.5481213 0.5845508
vt 0.5722464 0.5324157
vt 0.5558455 0.8864022
vt 0.601647 0.8081618
vt 0.6264524 0.8751106
vt 0.6085097 0.8756547
vt 0.6562762 0.906189
vt 0.8025991 0.7915795
vt 0.7347887 0.6584076
vt 0.6653458 0.6203606
vt 0.8443797 0.6198618
vt 0.9102401 0.7670614
vt 0.8252882 0.8285533
vt 0.9107541 0.8167628
vt 0.9741506 0.8616724
vt 0.9614985 0.7110717
vt 0.7924865 0.9057205
vt 0.7136263 0.9340327
vt 0.3872417 0.673705
vt 0.5615292 0.471725
vt 0.3271405 0.5159847
vt 0.6726469 0.07825553
vt 0.610112 0.07798344
vt 0.6726469 0.1406846
vt 0.6726469 0.01596249
vt 0.7350457 0.07798344
vt 1.884965 0.1102561
vt 1.845104 0.04152365
vt 1.911766 0.07424979
vt 1.880022 0.02241703
vt 1.94035 0.1100142
vt 1.932127 0.1842943
vt 1.893596 0.1850652
vt 1.981269 0.03952834
vt 1.940698 0.0195601
vn 0.1917841 0.7167295 -0.6704608
vn 0.1549787 0.679924 -0.7167181
vn 0.1956584 0.6663642 -0.7194974
vn 0.1666015 0.6392443 -0.7507401
vn 0.1704757 0.6392443 -0.7498698
vn 0.1491673 0.7399751 -0.6558856
vn 0.1607901 0.7457864 -0.6464899
vn 0.2382752 0.7225409 -0.6489681
vn 0.2324639 0.7399751 -0.6311873
vn -0.2092016 0.9646821 -0.1600723
vn -0.2266358 0.9278766 -0.2961103
vn 8.34465E-06 0.9588706 -0.2838434
vn 8.34465E-06 0.8678256 -0.4968689
vn 0.2266525 0.9278766 -0.2960975
vn 0.2072812 0.9646821 -0.1625515
vn -0.2266358 0.8775113 -0.422623
vn -0.1665847 0.8058375 -0.5682213
vn 8.34465E-06 0.7709692 -0.6368725
vn 0.1666015 0.8058375 -0.5682164
vn 0.2266525 0.8775113 -0.422614
vn 8.34465E-06 0.8755741 -0.4830838
vn -0.2053274 0.8600771 -0.4670203
vn -0.2615042 0.7477236 -0.6103483
vn 8.34465E-06 0.9394994 -0.3425506
vn 0.2053441 0.8600771 -0.467013
vn 0.2615208 0.7477236 -0.6103412
vn -0.2401958 0.904631 -0.3520635
vn 0.2402124 0.904631 -0.3520521
vn -0.2111387 0.9666193 -0.1451471
vn 8.34465E-06 0.9976133 -0.06904822
vn 0.2111554 0.9666193 -0.1451229
vn 0.5772729 0.8155231 0.040964
vn -0.5772562 0.8155231 0.04119832
vn -0.5772562 0.8155231 0.04119832
vn -0.2111387 0.9666193 -0.1451471
vn 0.01356822 0.993739 -0.1108992
vn 8.34465E-06 0.9976133 -0.06904822
vn 0.1782243 -0.9550131 0.237036
vn 0.1278589 -0.9821329 0.1380835
vn 0.09492767 -0.9472646 0.3060694
vn 0.09880197 -0.9840701 0.1477983
vn 0.02712816 -0.9569502 0.2889814
vn 0.0755564 -0.9317676 0.3551062
vn 0.1607901 -0.9007735 0.4034273
vn 0.08911628 -0.9298304 0.3570345
vn 0.01937962 -0.9201448 0.3910984
vn 0.09686482 -0.9433904 0.3172252
vn 0.1491673 -0.924019 0.3520482
vn 0.1801614 -0.8872136 0.4247281
vn 0.1937213 -0.8039171 0.5623073
vn 0.2227782 -0.7341804 0.641365
vn -0.1123452 0.9104425 -0.3980867
vn 0.03487664 0.9704934 -0.238592
vn 0.00969398 0.9724306 -0.2329909
vn 0.2983263 0.949185 0.1002458
vn -0.1801447 0.978242 -0.1029098
vn -0.02517438 0.9472479 -0.3195117
vn 0.01163113 0.9356252 -0.3528033
vn -0.2692527 0.902694 -0.3356286
vn -0.2905611 0.9433737 -0.1600635
vn 0.129796 0.9898647 0.05762701
vn -0.2188873 0.9666193 0.1331751
vn -0.4222859 0.8716999 -0.2486239
vn -0.3176808 0.8058375 -0.4997047
vn 0.0368138 0.9104425 -0.4119942
vn -0.2556927 0.679924 -0.6872587
vn -0.0387342 0.753535 -0.6562657
vn -0.2343843 0.8271459 -0.5107774
vn -0.3176808 0.8058375 -0.4997047
vn -0.2692527 0.902694 -0.3356286
vn -0.07747686 0.7457864 -0.6616645
vn -0.06391692 0.9259394 -0.3722242
vn -0.001928806 0.8445801 -0.5354258
vn 0.02906531 0.8949454 -0.445228
vn 0.01163113 0.9356252 -0.3528033
vn -0.07360256 0.9608078 -0.2672659
vn -0.02517438 0.9472479 -0.3195117
vn 8.34465E-06 -0.9143334 0.4049623
vn 0.0310024 -0.9162706 0.3993584
vn 0.001945496 -0.9395161 0.3424993
vn -0.001928806 -0.9395161 0.3424995
vn -0.001928806 -0.8794651 0.4759595
vn -0.03098571 -0.9162706 0.3993597
vn 8.34465E-06 -0.9259562 0.3776309
vn 8.34465E-06 -0.9201448 0.3915783
vn 8.34465E-06 -0.9201448 0.3915783
vn 8.34465E-06 -0.9220819 0.3869947
vn 8.34465E-06 -0.9065849 0.4220235
vn 8.34465E-06 -0.9065849 0.4220235
vn 8.34465E-06 -0.9065849 0.4220235
vn 0.005819738 -0.9453275 0.3260707
vn -0.0077402 -0.9472646 0.3203589
vn 8.34465E-06 -0.9569502 0.290252
vn 0.005819738 -0.9453275 0.3260707
vn 0.07361925 -0.9821329 0.1731911
vn 8.34465E-06 -0.9569502 0.290252
vn -0.01355153 0.993739 -0.1109014
vn 0.2111554 0.9666193 -0.1451229
vn 0.5772729 0.8155231 0.040964
vn 8.34465E-06 0.9976133 -0.06904822
vn -0.09878528 -0.9840701 0.1478094
vn -0.1278422 -0.9821329 0.1380988
vn -0.09491098 -0.9472646 0.3060746
vn -0.1782075 -0.9550131 0.2370487
vn -0.02711141 -0.9569502 0.288983
vn -0.07553971 -0.9317676 0.3551097
vn -0.1607734 -0.9007735 0.4034339
vn -0.1491506 -0.924019 0.3520553
vn -0.08909965 -0.9298304 0.3570387
vn -0.1801447 -0.8872136 0.4247352
vn -0.1937046 -0.8039171 0.562313
vn -0.01936293 -0.9201448 0.3910993
vn -0.09684813 -0.9433904 0.3172303
vn -0.2227615 -0.7341804 0.6413708
vn 0.2692693 0.902694 -0.3356153
vn 0.3176976 0.8058375 -0.4996941
vn 0.4223025 0.8716999 -0.2485957
vn 0.2905778 0.9433737 -0.1600332
vn 0.1801614 0.978242 -0.1028806
vn 0.02519101 0.9472479 -0.3195104
vn -0.009677291 0.9724306 -0.2329917
vn -0.2983096 0.949185 0.1002955
vn -0.1297793 0.9898647 0.05766476
vn 0.218904 0.9666193 0.1331478
vn -0.03486001 0.9704934 -0.2385944
vn 0.1123618 0.9104425 -0.398082
vn -0.01161444 0.9356252 -0.3528039
vn -0.03679717 0.9104425 -0.4119957
vn -0.01161444 0.9356252 -0.3528039
vn 0.06393361 0.9259394 -0.3722213
vn 0.07361925 0.9608078 -0.2672613
vn 0.02519101 0.9472479 -0.3195104
vn 0.2692693 0.902694 -0.3356153
vn 0.234401 0.8271459 -0.5107698
vn 0.07749349 0.7457864 -0.6616626
vn 0.03875095 0.753535 -0.6562647
vn 0.2557094 0.679924 -0.6872525
vn 0.3176976 0.8058375 -0.4996941
vn 0.001945496 0.8445801 -0.5354257
vn -0.02904856 0.8949454 -0.4452291
vn -0.07360256 -0.9821329 0.1731981
vn -0.0077402 -0.9472646 0.3203589
vn 8.34465E-06 -0.9569502 0.290252
vn 8.34465E-06 0.8871969 -0.461391
vn -0.306058 0.8465172 -0.4355882
vn 8.34465E-06 0.7070439 -0.7071697
vn 8.34465E-06 0.9840534 -0.1778735
vn 0.3060748 0.8465172 -0.4355764
vn -0.1549621 0.679924 -0.7167218
vn -0.1491506 0.7399751 -0.6558895
vn -0.1917675 0.7167295 -0.6704655
vn -0.1607734 0.7457864 -0.646494
vn -0.1956418 0.6663642 -0.7195019
vn -0.1665847 0.6392443 -0.7507437
vn -0.170459 0.6392443 -0.7498736
vn -0.2382586 0.7225409 -0.6489742
vn -0.2324471 0.7399751 -0.6311935
g Wing_Basabasa_LOD2_0
f 3/3/3 2/2/2 1/1/1
f 2/2/2 3/3/3 4/4/4
f 2/2/2 4/4/4 5/5/5
f 6/6/6 1/1/1 2/2/2
f 6/6/6 7/7/7 1/1/1
f 8/8/8 3/3/3 1/1/1
f 8/8/8 1/1/1 9/9/9
f 12/12/12 11/11/11 10/10/10
f 12/12/12 13/13/13 11/11/11
f 12/12/12 14/14/14 13/13/13
f 12/12/12 15/15/15 14/14/14
f 13/13/13 16/16/16 11/11/11
f 13/13/13 17/17/17 16/16/16
f 13/13/13 18/18/18 17/17/17
f 19/19/19 18/18/18 13/13/13
f 13/13/13 14/14/14 20/20/20
f 19/19/19 13/13/13 20/20/20
f 23/23/23 22/22/22 21/21/21
f 22/22/22 24/24/24 21/21/21
f 21/21/21 24/24/24 25/25/25
f 21/21/21 25/25/25 26/26/26
f 22/22/22 27/27/27 24/24/24
f 24/24/24 28/28/28 25/25/25
f 27/27/27 29/29/29 24/24/24
f 24/24/24 29/29/29 30/30/30
f 24/24/24 30/30/30 31/31/31
f 28/28/28 24/24/24 31/31/31
f 32/32/32 28/28/28 31/31/31
f 27/27/27 33/33/33 29/29/29
f 36/36/36 35/35/35 34/34/34
f 35/35/35 36/36/36 37/37/37
f 40/40/40 39/39/39 38/38/38
f 39/39/39 40/40/40 41/41/41
f 42/42/42 41/41/41 40/40/40
f 43/43/43 42/42/42 40/40/40
f 43/43/43 44/44/44 42/42/42
f 45/45/45 43/43/43 40/40/40
f 46/46/46 43/43/43 45/45/45
f 46/46/46 47/47/47 43/43/43
f 48/48/48 40/40/40 38/38/38
f 48/48/48 45/45/45 40/40/40
f 45/45/45 48/48/48 49/49/49
f 45/45/45 49/49/49 50/50/50
f 49/49/49 51/51/51 50/50/50
f 54/54/54 53/53/53 52/52/52
f 54/54/54 55/55/55 53/53/53
f 56/56/56 55/55/55 54/54/54
f 57/57/57 56/56/56 54/54/54
f 57/57/57 54/54/54 52/52/52
f 57/57/57 52/52/52 58/58/58
f 56/56/56 57/57/57 59/59/59
f 59/59/59 60/60/60 56/56/56
f 55/55/55 56/56/56 61/61/61
f 62/62/62 61/61/61 56/56/56
f 62/62/62 56/56/56 60/60/60
f 59/59/59 63/63/63 60/60/60
f 63/63/63 59/59/59 64/64/64
f 52/52/52 65/65/65 58/58/58
f 68/68/68 67/67/67 66/66/66
f 68/68/68 66/66/66 69/69/69
f 68/68/68 69/69/69 70/70/70
f 68/68/68 71/71/71 67/67/67
f 68/68/68 72/72/72 71/71/71
f 72/72/72 73/73/73 71/71/71
f 72/72/72 74/74/74 73/73/73
f 75/75/75 74/74/74 72/72/72
f 75/75/75 72/72/72 76/76/76
f 72/72/72 68/68/68 76/76/76
f 68/68/68 70/70/70 76/76/76
f 70/70/70 77/77/77 76/76/76
f 76/76/76 77/77/77 75/75/75
f 80/80/80 79/79/79 78/78/78
f 78/78/78 81/81/81 80/80/80
f 78/78/78 82/82/82 81/81/81
f 83/83/83 81/81/81 82/82/82
f 82/82/82 78/78/78 84/84/84
f 82/82/82 84/84/84 85/85/85
f 86/86/86 85/85/85 84/84/84
f 86/86/86 84/84/84 87/87/87
f 88/88/88 86/86/86 87/87/87
f 88/88/88 87/87/87 89/89/89
f 90/90/90 88/88/88 89/89/89
f 81/81/81 91/91/91 80/80/80
f 81/81/81 92/92/92 91/91/91
f 92/92/92 93/93/93 91/91/91
f 96/96/96 95/95/95 94/94/94
f 99/99/99 98/98/98 97/97/97
f 98/98/98 100/100/100 97/97/97
f 103/103/103 102/102/102 101/101/101
f 103/103/103 104/104/104 102/102/102
f 101/101/101 105/105/105 103/103/103
f 105/105/105 106/106/106 103/103/103
f 105/105/105 107/107/107 106/106/106
f 103/103/103 108/108/108 104/104/104
f 103/103/103 109/109/109 108/108/108
f 103/103/103 106/106/106 109/109/109
f 110/110/110 108/108/108 109/109/109
f 110/110/110 109/109/109 111/111/111
f 106/106/106 112/112/112 109/109/109
f 106/106/106 113/113/113 112/112/112
f 114/114/114 110/110/110 111/111/111
f 117/117/117 116/116/116 115/115/115
f 118/118/118 117/117/117 115/115/115
f 118/118/118 115/115/115 119/119/119
f 119/119/119 115/115/115 120/120/120
f 119/119/119 120/120/120 121/121/121
f 122/122/122 119/119/119 121/121/121
f 123/123/123 119/119/119 122/122/122
f 123/123/123 124/124/124 119/119/119
f 118/118/118 119/119/119 124/124/124
f 122/122/122 121/121/121 125/125/125
f 121/121/121 126/126/126 125/125/125
f 126/126/126 121/121/121 120/120/120
f 127/127/127 126/126/126 120/120/120
f 127/127/127 128/128/128 126/126/126
f 131/131/131 130/130/130 129/129/129
f 131/131/131 129/129/129 132/132/132
f 132/132/132 133/133/133 131/131/131
f 133/133/133 134/134/134 131/131/131
f 131/131/131 134/134/134 130/130/130
f 134/134/134 135/135/135 130/130/130
f 134/134/134 136/136/136 135/135/135
f 136/136/136 134/134/134 137/137/137
f 134/134/134 138/138/138 137/137/137
f 133/133/133 138/138/138 134/134/134
f 130/130/130 135/135/135 139/139/139
f 130/130/130 139/139/139 140/140/140
f 130/130/130 140/140/140 129/129/129
f 143/143/143 142/142/142 141/141/141
f 146/146/146 145/145/145 144/144/144
f 145/145/145 147/147/147 144/144/144
f 147/147/147 148/148/148 144/144/144
f 148/148/148 146/146/146 144/144/144
f 151/151/151 150/150/150 149/149/149
f 151/151/151 152/152/152 150/150/150
f 149/149/149 153/153/153 151/151/151
f 149/149/149 154/154/154 153/153/153
f 149/149/149 155/155/155 154/154/154
f 151/151/151 153/153/153 156/156/156
f 151/151/151 156/156/156 157/157/157
