g Wing_Paper_LOD1
v -1.311302E-06 1.637367 0.4094359
v -1.311302E-06 1.638055 0.4202621
v -1.209212 1.305254 -0.7764537
v -1.202066 1.319691 -0.7827402
v -0.5042453 1.436028 -0.6440334
v -1.202091 1.31313 -0.7922109
v -0.5039057 1.428666 -0.6516431
v -0.1039282 1.449688 -0.5598248
v -0.09985578 1.457317 -0.553655
v -0.003394604 1.219573 -0.4243889
v -0.008966684 1.212382 -0.4242694
v -0.005769014 1.212281 -0.408955
v -1.311302E-06 1.362999 -0.1196882
v -1.21067 1.302687 -0.782474
v 1.202067 1.319691 -0.7827402
v 1.209212 1.305254 -0.7764537
v 0.5042453 1.436028 -0.6440334
v 0.5039058 1.428666 -0.6516431
v 1.202091 1.31313 -0.7922109
v 0.0998559 1.457317 -0.553655
v 0.1039282 1.449688 -0.5598248
v 0.008966684 1.212382 -0.4242694
v 0.003394604 1.219573 -0.4243889
v 0.005769014 1.212281 -0.408955
v -1.311302E-06 1.362999 -0.1196882
v 1.21067 1.302687 -0.782474
v -0.01694298 1.21217 -0.4161436
v -0.005769014 1.212281 -0.408955
v -0.008966684 1.212382 -0.4242694
v -0.1085929 1.443146 -0.5546113
v -0.1039282 1.449688 -0.5598248
v -0.5035634 1.422971 -0.6457423
v -0.5039057 1.428666 -0.6516431
v -1.204579 1.305966 -0.787625
v -1.202091 1.31313 -0.7922109
v -0.007532239 1.363053 -0.1199462
v -0.02269447 1.600922 0.244678
v -0.617469 1.460979 -0.2155463
v -1.311302E-06 1.362999 -0.1196882
v -1.21067 1.302687 -0.782474
v -0.07203615 1.074651 -0.9878936
v -0.09045851 1.070953 -0.9777709
v -1.311302E-06 0.965013 -0.6485242
v -0.08324552 1.079285 -0.9902191
v -0.2016962 1.290505 -1.089734
v -0.1981862 1.296338 -1.093766
v -0.902715 1.236452 -1.161736
v -0.9054155 1.239577 -1.168534
v -1.202805 1.295808 -0.7829467
v -1.2065 1.301073 -0.7885079
v -1.21067 1.302687 -0.782474
v -1.209212 1.305254 -0.7764537
v -1.311302E-06 1.192264 -0.8049552
v 0.07203627 1.074651 -0.9878936
v -1.311302E-06 1.206519 -0.7910481
v 0.09045863 1.070953 -0.9777709
v 0.08324564 1.079285 -0.9902191
v 0.1981835 1.296338 -1.093766
v 0.2016963 1.290505 -1.089734
v 0.4157768 1.284292 -1.11773
v 0.4152253 1.279469 -1.112538
v 0.902715 1.236452 -1.161736
v 0.9054155 1.239577 -1.168534
v 1.2065 1.301073 -0.7885079
v 1.202805 1.295808 -0.7829467
v 1.21067 1.302687 -0.782474
v 1.209212 1.305254 -0.7764537
v -1.311302E-06 1.638055 0.4202621
v -0.2016962 1.290505 -1.089734
v -0.02028191 0.9728618 -0.6495621
v 0.02028203 0.9728618 -0.6495621
v -0.008925915 1.210151 -0.7782956
v 0.008925915 1.210151 -0.7782956
v -1.311302E-06 1.009945 -0.6530612
v -0.08392477 1.089003 -0.9862037
v -0.193459 1.303508 -1.089609
v -1.311302E-06 1.206519 -0.7910481
v 0.08392477 1.089003 -0.9862037
v 0.193459 1.303508 -1.089609
v 0.1981835 1.296338 -1.093766
v 0.08324564 1.079285 -0.9902191
v -0.08324552 1.079285 -0.9902191
v -0.1981862 1.296338 -1.093766
v -0.7631007 1.251721 -1.148185
v -0.9054155 1.239577 -1.168534
v -0.905467 1.243973 -1.164271
v -1.2065 1.301073 -0.7885079
v -1.204579 1.305966 -0.787625
v -1.311302E-06 1.635169 0.4033992
v -1.21067 1.302687 -0.782474
v 0.4152932 1.289894 -1.113299
v 0.7630981 1.251721 -1.148185
v 0.4157768 1.284292 -1.11773
v 1.204579 1.305966 -0.787625
v 0.9054671 1.243973 -1.164271
v 0.9054155 1.239577 -1.168534
v 1.2065 1.301073 -0.7885079
v 1.21067 1.302687 -0.782474
v -0.09045851 1.070953 -0.9777709
v -1.311302E-06 1.638055 0.4202621
v -0.02028191 0.9728618 -0.6495621
v -0.2016962 1.290505 -1.089734
v 0.0169431 1.21217 -0.4161436
v 0.008966684 1.212382 -0.4242694
v 0.005769014 1.212281 -0.408955
v 0.1039282 1.449688 -0.5598248
v 0.108593 1.443146 -0.5546113
v 0.5035635 1.422971 -0.6457423
v 0.5039058 1.428666 -0.6516431
v 1.204579 1.305966 -0.787625
v 1.202091 1.31313 -0.7922109
v 0.02269447 1.600922 0.244678
v 0.617469 1.460979 -0.2155463
v 0.007532239 1.363053 -0.1199462
v -1.311302E-06 1.362999 -0.1196882
v 1.21067 1.302687 -0.782474
v 0.02028203 0.9728618 -0.6495621
v -1.311302E-06 1.638055 0.4202621
v 0.09045863 1.070953 -0.9777709
v 0.2016963 1.290505 -1.089734
v 0.9149377 1.237545 -1.137973
v 0.907032 1.23871 -1.131545
v 0.1624038 0.2191677 -0.1209624
v 0.9228435 1.23871 -1.131545
v 0.907032 1.23871 -1.131545
v 0.8355486 1.4076 -0.4352696
v 0.8276455 1.408763 -0.428839
v 0.1441036 0.2420727 0.005654931
v 0.8434544 1.408763 -0.428839
v 0.8276455 1.408763 -0.428839
v -0.8355513 1.4076 -0.4352696
v -0.1441036 0.2420727 0.005654931
v -0.8276455 1.408763 -0.428839
v -0.8434544 1.408763 -0.428839
v -0.8276455 1.408763 -0.428839
v 0.8346847 1.430423 -0.3996746
v 0.8362876 1.411189 -0.3913314
v 0.7903743 1.410053 -0.4562945
v 0.854009 1.406307 -0.4084687
v 0.8462255 1.389104 -0.4101694
v 0.8306829 1.393247 -0.3951132
v 0.7903743 1.410053 -0.4562945
v 0.8502272 1.426283 -0.4147282
v -0.9261687 1.252044 -1.152814
v -0.9299071 1.23696 -1.154871
v -0.8806331 1.251128 -1.103818
v -0.9443467 1.24031 -1.136353
v -0.9388316 1.254981 -1.136576
v -0.937984 1.227224 -1.135305
v -0.9253211 1.225058 -1.147272
v -0.8806331 1.251128 -1.103818
v 0.9443467 1.24031 -1.136353
v 0.8806332 1.251128 -1.103818
v 0.9388316 1.254981 -1.136574
v 0.9261688 1.252044 -1.152814
v 0.9299071 1.23696 -1.154871
v 0.937984 1.227995 -1.131034
v 0.9253212 1.225058 -1.147272
v 0.8806332 1.251128 -1.103818
v -0.8362875 1.411189 -0.3913314
v -0.8306828 1.393247 -0.3951132
v -0.8462255 1.389104 -0.4101694
v -0.8540089 1.406307 -0.4084687
v -0.8346846 1.430423 -0.3996746
v -0.8502271 1.426283 -0.4147282
v -0.7903743 1.410053 -0.4562945
v -0.7903743 1.410053 -0.4562945
v -0.9149377 1.237545 -1.137973
v -0.1624037 0.2191677 -0.1209624
v -0.907032 1.23871 -1.131545
v -0.9228435 1.23871 -1.131545
v -0.907032 1.23871 -1.131545
vt 0.1325703 0.8658211
vt 0.1302438 0.8681476
vt 0.6299727 0.9760115
vt 0.6243432 0.9703825
vt 0.4724486 0.8184874
vt 0.6271868 0.9675534
vt 0.475292 0.8156583
vt 0.3908932 0.7312741
vt 0.3880641 0.7341032
vt 0.32884 0.6748648
vt 0.3306494 0.671016
vt 0.3259678 0.6720068
vt 0.2555423 0.7428634
vt 0.6328018 0.9731681
vt 0.02802324 0.374048
vt 0.0223937 0.368433
vt 0.1799181 0.5259428
vt 0.1827471 0.5231135
vt 0.03085232 0.3712189
vt 0.2643023 0.610327
vt 0.2671313 0.6074979
vt 0.3273752 0.6677418
vt 0.3235409 0.6695654
vt 0.3263986 0.6724234
vt 0.2555423 0.7428634
vt 0.02522302 0.3655894
vt 0.3626599 0.6401975
vt 0.3602903 0.6378138
vt 0.3582079 0.6422799
vt 0.4221711 0.6997089
vt 0.4188969 0.7029688
vt 0.5065556 0.7840931
vt 0.5032957 0.7873533
vt 0.6584504 0.9359882
vt 0.6551902 0.9392478
vt 0.4333153 0.5694993
vt 0.5309978 0.4992459
vt 0.6020839 0.7027247
vt 0.4310749 0.5670435
vt 0.6614087 0.9389465
vt 0.3734016 0.01153708
vt 0.3686769 0.01152277
vt 0.4368048 0.07799911
vt 0.3611662 0.00794673
vt 0.3021145 0.01153708
vt 0.3019278 0.00794673
vt 0.09707022 0.01153708
vt 0.09572029 0.00794673
vt 0.01033068 0.1274865
vt 0.00819087 0.1262803
vt 0.007673979 0.1288652
vt 0.008708 0.1308181
vt 0.4368048 0.01153708
vt 0.5001936 0.01153708
vt 0.4368048 0.00794673
vt 0.5049329 0.01152277
vt 0.5124292 0.00794673
vt 0.5716677 0.00794673
vt 0.571481 0.01153708
vt 0.6343241 0.00794673
vt 0.6339507 0.01153708
vt 0.7765253 0.01153708
vt 0.7778895 0.00794673
vt 0.8654187 0.1262803
vt 0.8632791 0.1274865
vt 0.8659213 0.1288652
vt 0.8648875 0.1308181
vt 0.4368048 0.428849
vt 0.3021145 0.01153708
vt 0.4245265 0.08579707
vt 0.4490833 0.08579707
vt 0.9828045 0.5717826
vt 0.9828045 0.5670147
vt 0.9154952 0.5693986
vt 0.9828045 0.6402695
vt 0.9828045 0.7093883
vt 0.9877446 0.5693986
vt 0.9828045 0.5013282
vt 0.9828045 0.4295239
vt 0.9877446 0.4284039
vt 0.9877446 0.5001507
vt 0.9877446 0.6416624
vt 0.9877446 0.7100775
vt 0.9828045 0.8701866
vt 0.9877446 0.9133265
vt 0.9828045 0.9103682
vt 0.8678315 0.9846141
vt 0.8642271 0.9804494
vt 0.5740516 0.5693986
vt 0.8623888 0.9855044
vt 0.9828045 0.3666952
vt 0.9828045 0.2682946
vt 0.9877446 0.366724
vt 0.8657062 0.1580319
vt 0.9828045 0.2281275
vt 0.9877446 0.2251546
vt 0.8692534 0.1538818
vt 0.8638103 0.152977
vt 0.3686769 0.01152277
vt 0.4368048 0.428849
vt 0.4245265 0.08579707
vt 0.3021145 0.01153708
vt 0.3579206 0.6354442
vt 0.355824 0.6398962
vt 0.3602903 0.6378138
vt 0.295135 0.5792072
vt 0.2984095 0.5759327
vt 0.214025 0.4915485
vt 0.2107508 0.4948227
vt 0.06213021 0.3396537
vt 0.05885601 0.3429279
vt 0.4997628 0.4680109
vt 0.2953792 0.3960202
vt 0.4286048 0.5647888
vt 0.4310749 0.5670435
vt 0.05945921 0.3369827
vt 0.4490833 0.08579707
vt 0.4368048 0.428849
vt 0.5049329 0.01152277
vt 0.571481 0.01153708
vt 0.9750783 0.1063616
vt 0.9789703 0.1063616
vt 0.9750783 0.01844454
vt 0.9710572 0.1063616
vt 0.9670074 0.1063616
vt 0.9519861 0.1063616
vt 0.9560072 0.1063616
vt 0.9519861 0.01844454
vt 0.9479649 0.1063616
vt 0.9439871 0.1063616
vt 0.9282043 0.1063616
vt 0.9282043 0.01844454
vt 0.9241116 0.1063616
vt 0.9322398 0.1063616
vt 0.9361889 0.1063616
vt 0.02108693 0.9158113
vt 0.01560116 0.9047964
vt 0.04679298 0.9828045
vt 0.07799911 0.9047964
vt 0.0725131 0.8934515
vt 0.02108693 0.8934515
vt 0.04679298 0.8268025
vt 0.0725131 0.9158113
vt 0.02108693 0.9158113
vt 0.01560116 0.9047964
vt 0.04679298 0.9828045
vt 0.07799911 0.9047964
vt 0.0725131 0.9158113
vt 0.0725131 0.8934515
vt 0.02108693 0.8934515
vt 0.04679298 0.8268025
vt 0.01560116 0.9047964
vt 0.04679298 0.9828045
vt 0.02108693 0.9158113
vt 0.0725131 0.9158113
vt 0.07799911 0.9047964
vt 0.02108693 0.8934515
vt 0.0725131 0.8934515
vt 0.04679298 0.8268025
vt 0.07799911 0.9047964
vt 0.0725131 0.8934515
vt 0.02108693 0.8934515
vt 0.01560116 0.9047964
vt 0.0725131 0.9158113
vt 0.02108693 0.9158113
vt 0.04679298 0.8268025
vt 0.04679298 0.9828045
vt 0.9038341 0.1063616
vt 0.9038341 0.01844454
vt 0.8999712 0.1063616
vt 0.9078839 0.1063616
vt 0.91202 0.1063616
vn -0.0009750128 0.9976401 -0.06865302
vn -0.0204792 -0.9703346 0.240897
vn -0.7167795 0.2096701 0.6650306
vn -0.1999179 0.9761854 -0.08423064
vn -0.112149 0.9839872 -0.1385343
vn 0.1804141 0.04973555 -0.9823325
vn 0.170662 0.1960171 -0.9656354
vn 0.2740343 0.0594877 -0.9598783
vn 0.3520511 0.9098712 -0.2195321
vn 0.9449791 0.2857364 -0.1592768
vn 0.01657873 -0.5119857 -0.858834
vn 0.6251101 -0.7031269 0.3388951
vn 0.9449791 0.2935382 -0.1443944
vn -0.9976401 -0.02047962 -0.06553454
vn 0.1999183 0.9761854 -0.08422957
vn 0.7167799 0.2096701 0.6650301
vn 0.1121494 0.9839872 -0.1385341
vn -0.1706617 0.1960171 -0.9656355
vn -0.1804137 0.04973555 -0.9823325
vn -0.3520508 0.9098712 -0.2195327
vn -0.2740339 0.0594877 -0.9598784
vn -0.01657844 -0.5119857 -0.858834
vn -0.9449787 0.2857364 -0.1592794
vn -0.6251097 -0.7031269 0.3388959
vn -0.9449787 0.2935382 -0.1443973
vn 0.9976405 -0.02047962 -0.06552909
vn -0.9391274 -0.3130428 0.1415765
vn 0.6251101 -0.7031269 0.3388951
vn 0.01657873 -0.5119857 -0.858834
vn -0.03413212 -0.9878884 0.1513656
vn 0.2740343 0.0594877 -0.9598783
vn 0.09654599 -0.985938 0.1364008
vn 0.170662 0.1960171 -0.9656354
vn -0.04388428 0.9703342 -0.2377515
vn 0.1804141 0.04973555 -0.9823325
vn -0.9352267 -0.3091419 0.1725757
vn -0.03608263 -0.9839876 0.1745465
vn 0.08484352 -0.9839876 0.1567484
vn 0.9449791 0.2935382 -0.1443944
vn -0.9976401 -0.02047962 -0.06553454
vn 0.9059707 -0.2486789 -0.3426017
vn -0.9254745 -0.3364478 0.1740685
vn -0.0009750128 -0.9898388 0.1421909
vn 0.09069479 -0.2194225 -0.9714053
vn -0.1726121 -0.9566817 0.2344467
vn 0.2116209 0.139455 -0.9673515
vn 0.05753762 -0.9781363 0.199847
vn -0.2818357 -0.2252738 -0.9326416
vn 0.05558717 -0.9742354 0.218576
vn -0.7382342 -0.4359193 -0.5147666
vn -0.9976401 -0.02047962 -0.06553454
vn -0.7167795 0.2096701 0.6650306
vn -0.0009750128 -0.4651756 -0.8852179
vn -0.9059703 -0.2486789 -0.3426027
vn -0.0009750128 0.8884165 -0.4590372
vn 0.9254749 -0.3364478 0.1740662
vn -0.09069443 -0.2194225 -0.9714053
vn -0.2915877 -0.01852918 -0.9563646
vn 0.07509136 -0.972285 0.2214116
vn -0.1082482 -0.0770418 -0.9911342
vn -0.06143808 -0.9761859 0.2080541
vn -0.0594877 -0.9761859 0.2086201
vn 0.4339688 -0.3130428 -0.844793
vn 0.7382345 -0.4359193 -0.5147662
vn -0.05363643 -0.9761859 0.2102005
vn 0.9976405 -0.02047962 -0.06552909
vn 0.7167799 0.2096701 0.6650301
vn -0.0204792 -0.9703346 0.240897
vn -0.1726121 -0.9566817 0.2344467
vn -0.9527805 -0.258431 0.1594452
vn 0.9527808 -0.258431 0.1594435
vn -0.9332762 0.186265 0.3070846
vn 0.9332766 0.186265 0.3070833
vn -0.0009750128 0.876714 -0.4810111
vn 0.8396564 0.5256382 -0.1366806
vn 0.2252738 0.9449787 -0.2372066
vn -0.0009750128 0.8884165 -0.4590372
vn -0.839656 0.5256382 -0.136683
vn -0.2252735 0.9449787 -0.2372068
vn -0.2915877 -0.01852918 -0.9563646
vn -0.09069443 -0.2194225 -0.9714053
vn 0.09069479 -0.2194225 -0.9714053
vn 0.2116209 0.139455 -0.9673515
vn -0.0594877 0.9742351 -0.2175483
vn -0.2818357 -0.2252738 -0.9326416
vn -0.07704139 0.9605821 -0.2671078
vn -0.7382342 -0.4359193 -0.5147666
vn -0.04388428 0.9703342 -0.2377515
vn 0.0009753704 0.9683838 -0.2494632
vn -0.9976401 -0.02047962 -0.06553454
vn 0.06728971 0.9761854 -0.2062379
vn 0.059488 0.9761854 -0.208622
vn -0.1082482 -0.0770418 -0.9911342
vn 0.04388463 0.9703342 -0.2377513
vn 0.08289307 0.9683838 -0.2352904
vn 0.4339688 -0.3130428 -0.844793
vn 0.7382345 -0.4359193 -0.5147662
vn 0.9976405 -0.02047962 -0.06552909
vn -0.9254745 -0.3364478 0.1740685
vn -0.0204792 -0.9703346 0.240897
vn -0.9527805 -0.258431 0.1594452
vn -0.1726121 -0.9566817 0.2344467
vn 0.9391279 -0.3130428 0.1415735
vn -0.01657844 -0.5119857 -0.858834
vn -0.6251097 -0.7031269 0.3388959
vn -0.2740339 0.0594877 -0.9598784
vn 0.03413254 -0.9878884 0.1513654
vn -0.0965457 -0.985938 0.136401
vn -0.1706617 0.1960171 -0.9656355
vn 0.04388463 0.9703342 -0.2377513
vn -0.1804137 0.04973555 -0.9823325
vn 0.03608298 -0.9839876 0.1745464
vn -0.08484316 -0.9839876 0.1567485
vn 0.935227 -0.3091419 0.1725738
vn -0.9449787 0.2935382 -0.1443973
vn 0.9976405 -0.02047962 -0.06552909
vn 0.9527808 -0.258431 0.1594435
vn -0.0204792 -0.9703346 0.240897
vn 0.9254749 -0.3364478 0.1740662
vn 0.07509136 -0.972285 0.2214116
vn 0.1979679 -0.7616396 -0.6170201
vn -0.5353904 0.7596887 0.3690937
vn 0.1882158 0.6134073 0.7670113
vn 0.8630614 -0.1726124 0.4746893
vn -0.5353904 0.7596887 0.3690937
vn 0.2038192 -0.4495722 -0.8696796
vn -0.5665971 0.5587955 0.6055703
vn 0.07509136 0.297439 0.9517832
vn 0.7460362 -0.2135713 0.6307276
vn -0.5665971 0.5587955 0.6055703
vn -0.2038188 -0.4495722 -0.8696796
vn -0.07314062 0.2993895 0.9513235
vn 0.5665975 0.5587955 0.60557
vn -0.7460358 -0.2135713 0.630728
vn 0.5665975 0.5587955 0.60557
vn -0.2818357 0.8377056 0.4677798
vn -0.260381 0.1511574 0.9536001
vn -0.6953249 -0.0009753704 -0.7186949
vn 0.9605825 -0.1375049 -0.2416065
vn 0.4281176 -0.8630614 -0.2680305
vn -0.4671257 -0.6407135 0.6093274
vn -0.6953249 -0.0009753704 -0.7186949
vn 0.6602176 0.6036551 -0.4468928
vn 0.2350259 0.6738702 -0.7004725
vn 0.110199 -0.1531082 -0.9820458
vn 0.7382345 0.3891088 0.5510029
vn -0.90402 -0.01462835 0.4272399
vn -0.4885802 0.8416065 0.2301909
vn -0.4183651 -0.7596892 0.4978383
vn 0.3520511 -0.8650119 -0.3575115
vn 0.7382345 0.3891088 0.5510029
vn 0.9430287 0.03803301 0.3305305
vn -0.792846 0.1609095 0.5877954
vn 0.4885806 0.8416065 0.23019
vn -0.2350255 0.6738702 -0.7004727
vn -0.07899189 -0.1979679 -0.9770204
vn 0.3910596 -0.726532 0.5649989
vn -0.3110919 -0.8884169 -0.3375459
vn -0.792846 0.1609095 0.5877954
vn 0.2603814 0.1511574 0.9536
vn 0.467126 -0.6407135 0.6093271
vn -0.4281172 -0.8630614 -0.2680312
vn -0.9605821 -0.1375049 -0.2416079
vn 0.281836 0.8377056 0.4677796
vn -0.6602173 0.6036551 -0.4468933
vn 0.6953253 -0.0009753704 -0.7186945
vn 0.6953253 -0.0009753704 -0.7186945
vn -0.1979675 -0.7616396 -0.6170202
vn -0.1882154 0.6134073 0.7670115
vn 0.5353907 0.7596887 0.3690931
vn -0.8630611 -0.1726124 0.4746899
vn 0.5353907 0.7596887 0.3690931
g Wing_Paper_LOD1_0
f 3/3/3 2/2/2 1/1/1
f 4/4/4 3/3/3 1/1/1
f 5/5/5 4/4/4 1/1/1
f 4/4/4 5/5/5 6/6/6
f 5/5/5 7/7/7 6/6/6
f 7/7/7 5/5/5 8/8/8
f 5/5/5 9/9/9 8/8/8
f 5/5/5 1/1/1 9/9/9
f 9/9/9 10/10/10 8/8/8
f 10/10/10 11/11/11 8/8/8
f 10/10/10 12/12/12 11/11/11
f 10/10/10 13/13/13 12/12/12
f 9/9/9 1/1/1 13/13/13
f 10/10/10 9/9/9 13/13/13
f 3/3/3 4/4/4 14/14/14
f 4/4/4 6/6/6 14/14/14
f 15/15/15 1/1/1 2/2/2
f 16/16/16 15/15/15 2/2/2
f 1/1/1 15/15/15 17/17/17
f 17/17/17 15/15/15 18/18/18
f 15/15/15 19/19/19 18/18/18
f 17/17/17 18/18/18 20/20/20
f 17/17/17 20/20/20 1/1/1
f 18/18/18 21/21/21 20/20/20
f 21/21/21 22/22/22 20/20/20
f 22/22/22 23/23/23 20/20/20
f 24/24/24 23/23/23 22/22/22
f 25/25/25 23/23/23 24/24/24
f 25/25/25 1/1/1 20/20/20
f 23/23/23 25/25/25 20/20/20
f 26/26/26 19/19/19 15/15/15
f 16/16/16 26/26/26 15/15/15
f 29/29/29 28/28/28 27/27/27
f 29/29/29 27/27/27 30/30/30
f 31/31/31 29/29/29 30/30/30
f 31/31/31 30/30/30 32/32/32
f 33/33/33 31/31/31 32/32/32
f 33/33/33 32/32/32 34/34/34
f 35/35/35 33/33/33 34/34/34
f 28/28/28 36/36/36 27/27/27
f 30/30/30 27/27/27 36/36/36
f 32/32/32 30/30/30 37/37/37
f 30/30/30 36/36/36 37/37/37
f 38/38/38 32/32/32 37/37/37
f 32/32/32 38/38/38 34/34/34
f 36/36/36 28/28/28 39/39/39
f 35/35/35 34/34/34 40/40/40
f 43/43/43 42/42/42 41/41/41
f 42/42/42 44/44/44 41/41/41
f 44/44/44 42/42/42 45/45/45
f 46/46/46 44/44/44 45/45/45
f 46/46/46 45/45/45 47/47/47
f 48/48/48 46/46/46 47/47/47
f 48/48/48 47/47/47 49/49/49
f 50/50/50 48/48/48 49/49/49
f 50/50/50 49/49/49 51/51/51
f 52/52/52 51/51/51 49/49/49
f 53/53/53 43/43/43 41/41/41
f 43/43/43 53/53/53 54/54/54
f 55/55/55 54/54/54 53/53/53
f 55/55/55 53/53/53 41/41/41
f 55/55/55 41/41/41 44/44/44
f 54/54/54 56/56/56 43/43/43
f 57/57/57 56/56/56 54/54/54
f 55/55/55 57/57/57 54/54/54
f 57/57/57 58/58/58 56/56/56
f 58/58/58 59/59/59 56/56/56
f 58/58/58 60/60/60 59/59/59
f 60/60/60 61/61/61 59/59/59
f 61/61/61 60/60/60 62/62/62
f 60/60/60 63/63/63 62/62/62
f 63/63/63 64/64/64 62/62/62
f 64/64/64 65/65/65 62/62/62
f 61/61/61 62/62/62 65/65/65
f 65/65/65 59/59/59 61/61/61
f 65/65/65 64/64/64 66/66/66
f 66/66/66 67/67/67 65/65/65
f 67/67/67 68/68/68 65/65/65
f 65/65/65 68/68/68 59/59/59
f 47/47/47 69/69/69 68/68/68
f 49/49/49 47/47/47 68/68/68
f 52/52/52 49/49/49 68/68/68
f 68/68/68 70/70/70 43/43/43
f 43/43/43 70/70/70 42/42/42
f 71/71/71 68/68/68 43/43/43
f 56/56/56 71/71/71 43/43/43
f 74/74/74 73/73/73 72/72/72
f 72/72/72 75/75/75 74/74/74
f 76/76/76 74/74/74 75/75/75
f 73/73/73 77/77/77 72/72/72
f 77/77/77 75/75/75 72/72/72
f 74/74/74 78/78/78 73/73/73
f 73/73/73 78/78/78 77/77/77
f 74/74/74 79/79/79 78/78/78
f 78/78/78 79/79/79 80/80/80
f 81/81/81 78/78/78 80/80/80
f 78/78/78 81/81/81 77/77/77
f 75/75/75 82/82/82 76/76/76
f 77/77/77 82/82/82 75/75/75
f 82/82/82 83/83/83 76/76/76
f 84/84/84 76/76/76 83/83/83
f 83/83/83 85/85/85 84/84/84
f 85/85/85 86/86/86 84/84/84
f 86/86/86 85/85/85 87/87/87
f 88/88/88 86/86/86 87/87/87
f 86/86/86 88/88/88 84/84/84
f 89/89/89 84/84/84 88/88/88
f 89/89/89 76/76/76 84/84/84
f 76/76/76 89/89/89 74/74/74
f 74/74/74 89/89/89 79/79/79
f 90/90/90 88/88/88 87/87/87
f 91/91/91 79/79/79 89/89/89
f 79/79/79 91/91/91 80/80/80
f 92/92/92 91/91/91 89/89/89
f 91/91/91 93/93/93 80/80/80
f 94/94/94 92/92/92 89/89/89
f 94/94/94 95/95/95 92/92/92
f 95/95/95 94/94/94 96/96/96
f 94/94/94 97/97/97 96/96/96
f 94/94/94 98/98/98 97/97/97
f 101/101/101 100/100/100 99/99/99
f 102/102/102 99/99/99 100/100/100
f 105/105/105 104/104/104 103/103/103
f 103/103/103 104/104/104 106/106/106
f 107/107/107 103/103/103 106/106/106
f 108/108/108 107/107/107 106/106/106
f 109/109/109 108/108/108 106/106/106
f 108/108/108 109/109/109 110/110/110
f 109/109/109 111/111/111 110/110/110
f 112/112/112 107/107/107 108/108/108
f 113/113/113 112/112/112 108/108/108
f 113/113/113 108/108/108 110/110/110
f 114/114/114 107/107/107 112/112/112
f 114/114/114 105/105/105 103/103/103
f 114/114/114 103/103/103 107/107/107
f 105/105/105 114/114/114 115/115/115
f 111/111/111 116/116/116 110/110/110
f 119/119/119 118/118/118 117/117/117
f 118/118/118 119/119/119 120/120/120
f 123/123/123 122/122/122 121/121/121
f 123/123/123 121/121/121 124/124/124
f 125/125/125 123/123/123 124/124/124
f 128/128/128 127/127/127 126/126/126
f 128/128/128 126/126/126 129/129/129
f 130/130/130 128/128/128 129/129/129
f 133/133/133 132/132/132 131/131/131
f 131/131/131 132/132/132 134/134/134
f 135/135/135 134/134/134 132/132/132
f 138/138/138 137/137/137 136/136/136
f 137/137/137 139/139/139 136/136/136
f 140/140/140 139/139/139 137/137/137
f 141/141/141 140/140/140 137/137/137
f 142/142/142 141/141/141 137/137/137
f 142/142/142 139/139/139 140/140/140
f 142/142/142 140/140/140 141/141/141
f 139/139/139 143/143/143 136/136/136
f 138/138/138 136/136/136 143/143/143
f 143/143/143 139/139/139 138/138/138
f 146/146/146 145/145/145 144/144/144
f 144/144/144 145/145/145 147/147/147
f 148/148/148 144/144/144 147/147/147
f 146/146/146 144/144/144 148/148/148
f 146/146/146 148/148/148 147/147/147
f 147/147/147 145/145/145 149/149/149
f 145/145/145 150/150/150 149/149/149
f 150/150/150 151/151/151 149/149/149
f 150/150/150 145/145/145 151/151/151
f 151/151/151 147/147/147 149/149/149
f 154/154/154 153/153/153 152/152/152
f 155/155/155 153/153/153 154/154/154
f 155/155/155 154/154/154 152/152/152
f 156/156/156 155/155/155 152/152/152
f 156/156/156 153/153/153 155/155/155
f 156/156/156 152/152/152 157/157/157
f 158/158/158 156/156/156 157/157/157
f 152/152/152 159/159/159 157/157/157
f 156/156/156 158/158/158 159/159/159
f 159/159/159 158/158/158 157/157/157
f 162/162/162 161/161/161 160/160/160
f 163/163/163 162/162/162 160/160/160
f 163/163/163 160/160/160 164/164/164
f 165/165/165 163/163/163 164/164/164
f 163/163/163 166/166/166 162/162/162
f 161/161/161 166/166/166 160/160/160
f 166/166/166 161/161/161 162/162/162
f 165/165/165 167/167/167 163/163/163
f 167/167/167 165/165/165 164/164/164
f 160/160/160 167/167/167 164/164/164
f 170/170/170 169/169/169 168/168/168
f 168/168/168 169/169/169 171/171/171
f 171/171/171 169/169/169 172/172/172
