g Wing_Butterfly_LOD2
v 0.739447 1.127367 -1.297446
v 1.056656 1.305896 -1.231794
v 1.066429 1.363371 -0.9590822
v 0.1262207 0.8622267 -1.007753
v 0.6875089 1.296986 -0.2725667
v 1.231094 1.511686 -0.6352555
v 0.9684632 1.484181 -0.06303406
v 1.340859 1.644064 -0.2448409
v 1.282619 1.65367 -0.03615665
v 1.340859 1.644064 -0.2448409
v 0.9684632 1.484181 -0.06303406
v 1.282619 1.65367 -0.03615665
v 1.231094 1.511686 -0.6352555
v 0.6875089 1.296986 -0.2725667
v 1.066429 1.363371 -0.9590822
v 0.1262207 0.8622267 -1.007753
v 0.739447 1.127367 -1.297446
v 1.056656 1.305896 -1.231794
v 0.8149554 1.153864 -1.439655
v 0.8344208 1.150488 -1.435757
v 0.1262207 0.8622267 -1.007753
v 0.7696278 1.093397 -1.556571
v 0.6929846 1.049219 -1.577857
v 0.6153876 0.9573092 -1.84514
v 0.5930393 0.9581723 -1.854293
v 0.5793903 0.9361684 -1.857183
v 0.636492 0.912348 -2.136795
v 0.4556353 0.8909788 -1.755406
v 0.3172814 0.8066697 -1.81757
v 0.2110664 0.778574 -1.674556
v 0.8344208 1.150488 -1.435757
v 0.7696278 1.093397 -1.556571
v 0.1262207 0.8622267 -1.007753
v 0.6929846 1.049219 -1.577857
v 0.6153876 0.9573092 -1.84514
v 0.6044618 0.9363317 -1.850101
v 0.5793903 0.9361684 -1.857183
v 0.4556353 0.8909788 -1.755406
v 0.636492 0.912348 -2.136795
v 0.3172814 0.8066697 -1.81757
v 0.2110664 0.778574 -1.674556
v -1.282619 1.65367 -0.03615665
v -1.341124 1.665546 -0.1336834
v -1.076103 1.548855 -0.01944351
v -1.340859 1.644064 -0.2448409
v -0.9684634 1.484181 -0.06303406
v -1.231094 1.511686 -0.6352555
v -0.6875091 1.296986 -0.2725667
v -1.066429 1.363371 -0.9590822
v -0.1262207 0.8622267 -1.007753
v -0.7394471 1.127367 -1.297446
v -1.056656 1.305896 -1.231794
v -0.7394471 1.127367 -1.297446
v -1.056656 1.305896 -1.231794
v -1.066429 1.363371 -0.9590822
v -0.1262207 0.8622267 -1.007753
v -0.6875091 1.296986 -0.2725667
v -1.231094 1.511686 -0.6352555
v -0.9684634 1.484181 -0.06303406
v -1.340859 1.644064 -0.2448409
v -1.076103 1.548855 -0.01944351
v -1.341124 1.665546 -0.1336834
v -1.282619 1.65367 -0.03615665
v -0.1262207 0.8622267 -1.007753
v -0.8344209 1.150488 -1.435757
v -0.6929848 1.049219 -1.577857
v -0.6153877 0.9573092 -1.84514
v -0.5930395 0.9581723 -1.854293
v -0.5793905 0.9361684 -1.857183
v -0.4556355 0.8909788 -1.755406
v -0.7394471 1.127367 -1.297446
v -0.6364923 0.912348 -2.136795
v -0.3172779 0.8066697 -1.81757
v -0.2110665 0.778574 -1.674556
v -0.8344209 1.150488 -1.435757
v -0.7394471 1.127367 -1.297446
v -0.1262207 0.8622267 -1.007753
v -0.6929848 1.049219 -1.577857
v -0.6153877 0.9573092 -1.84514
v -0.6044619 0.9363317 -1.850101
v -0.5793905 0.9361684 -1.857183
v -0.6364923 0.912348 -2.136795
v -0.4556355 0.8909788 -1.755406
v -0.3172779 0.8066697 -1.81757
v -0.2110665 0.778574 -1.674556
vt 0.199162 0.4175518
vt 0.07457239 0.4775786
vt 0.08821139 0.580617
vt 0.4666523 0.4578208
vt 0.2903248 0.7959475
vt 0.04310473 0.7191923
vt 0.1901799 0.9050143
vt 0.02465816 0.8774348
vt 0.06335977 0.9496537
vt 0.9753343 0.8774348
vt 0.8098276 0.9050143
vt 0.9366326 0.9496537
vt 0.9569028 0.7191923
vt 0.7096676 0.7959475
vt 0.9117961 0.580617
vt 0.5333402 0.4578208
vt 0.8008304 0.4175518
vt 0.9254351 0.4775786
vt 0.1573257 0.3157943
vt 0.1502726 0.3185824
vt 0.467873 0.3992862
vt 0.168674 0.2647649
vt 0.1977454 0.2483076
vt 0.2116858 0.1404164
vt 0.2198994 0.1347046
vt 0.2288513 0.1291887
vt 0.1822678 0.03338411
vt 0.2826689 0.1541006
vt 0.3356576 0.1157305
vt 0.3897464 0.1573558
vt 0.8497349 0.3185824
vt 0.8313335 0.2647649
vt 0.5321345 0.3992862
vt 0.8022621 0.2483076
vt 0.7883217 0.1404164
vt 0.7800931 0.1347046
vt 0.7711411 0.1291887
vt 0.7173386 0.1541006
vt 0.8177397 0.03338411
vt 0.66435 0.1157305
vt 0.6102461 0.1573558
vt 1.063362 0.9496537
vt 1.032498 0.9194219
vt 1.149175 0.9331664
vt 1.024661 0.8774348
vt 1.190183 0.9050143
vt 1.043107 0.7191923
vt 1.290327 0.7959475
vt 1.088214 0.580617
vt 1.466655 0.4578208
vt 1.199165 0.4175518
vt 1.07456 0.4775786
vt 1.800833 0.4175518
vt 1.925438 0.4775786
vt 1.911784 0.580617
vt 1.533343 0.4578208
vt 1.70967 0.7959475
vt 1.956905 0.7191923
vt 1.809815 0.9050143
vt 1.975337 0.8774348
vt 1.850823 0.9331664
vt 1.9675 0.9194219
vt 1.936635 0.9496537
vt 1.467876 0.3992862
vt 1.150275 0.3185824
vt 1.197748 0.2483076
vt 1.211673 0.1404164
vt 1.219902 0.1347046
vt 1.228854 0.1291887
vt 1.282656 0.1541006
vt 1.199421 0.3605092
vt 1.182255 0.03338411
vt 1.33566 0.1157305
vt 1.389749 0.1573558
vt 1.849723 0.3185824
vt 1.800577 0.3605092
vt 1.532137 0.3992862
vt 1.802265 0.2483076
vt 1.788324 0.1404164
vt 1.780096 0.1347046
vt 1.771144 0.1291887
vt 1.817742 0.03338411
vt 1.717341 0.1541006
vt 1.664353 0.1157305
vt 1.610249 0.1573558
vn -0.4574376 0.8730728 -0.1688038
vn -0.4574376 0.8730728 -0.1688038
vn -0.4574376 0.8730728 -0.1688038
vn -0.4574376 0.8730728 -0.1688038
vn -0.4574376 0.8730728 -0.1688038
vn -0.4574376 0.8730728 -0.1688038
vn -0.4574376 0.8730728 -0.1688038
vn -0.4574376 0.8730728 -0.1688038
vn -0.4574376 0.8730728 -0.1688038
vn 0.4573309 -0.8729661 0.1696424
vn 0.4573309 -0.8729661 0.1696424
vn 0.4573309 -0.8729661 0.1696424
vn 0.4573309 -0.8729661 0.1696424
vn 0.4573309 -0.8729661 0.1696424
vn 0.4573309 -0.8729661 0.1696424
vn 0.4573309 -0.8729661 0.1696424
vn 0.4573309 -0.8729661 0.1696424
vn 0.4573309 -0.8729661 0.1696424
vn -0.440738 0.8860614 -0.1436846
vn 0.06952846 0.9009055 0.4284098
vn -0.4630042 0.8693618 -0.1727343
vn -0.4889813 0.8433846 -0.2227101
vn -0.4574376 0.8730728 -0.1688038
vn -0.383217 0.9138941 -0.1339487
vn -0.4017722 0.9046165 -0.1422957
vn -0.6893769 0.6652552 -0.2866967
vn -0.4741372 0.8545176 -0.2121166
vn -0.4574376 0.8730728 -0.1688038
vn -0.4574376 0.8730728 -0.1688038
vn -0.4574376 0.8730728 -0.1688038
vn 0.4573309 -0.8729661 0.1696424
vn 0.4573309 -0.8729661 0.1696424
vn 0.4573309 -0.8729661 0.1696424
vn 0.4573309 -0.8729661 0.1696424
vn 0.5259849 -0.8265783 0.2002703
vn 0.5111408 -0.8377113 0.1922883
vn 0.1734372 -0.984297 0.03284758
vn 0.4573309 -0.8729661 0.1696424
vn 0.4387758 -0.8896657 0.1263753
vn 0.4573309 -0.8729661 0.1696424
vn 0.4573309 -0.8729661 0.1696424
vn 0.4573309 0.8730728 -0.1690924
vn 0.4573309 0.8730728 -0.1690924
vn 0.4573309 0.8730728 -0.1690924
vn 0.4573309 0.8730728 -0.1690924
vn 0.4573309 0.8730728 -0.1690924
vn 0.4573309 0.8730728 -0.1690924
vn 0.4573309 0.8730728 -0.1690924
vn 0.4573309 0.8730728 -0.1690924
vn 0.4573309 0.8730728 -0.1690924
vn 0.4573309 0.8730728 -0.1690924
vn 0.4573309 0.8730728 -0.1690924
vn -0.4574376 -0.8729661 0.1693548
vn -0.4574376 -0.8729661 0.1693548
vn -0.4574376 -0.8729661 0.1693548
vn -0.4574376 -0.8729661 0.1693548
vn -0.4574376 -0.8729661 0.1693548
vn -0.4574376 -0.8729661 0.1693548
vn -0.4574376 -0.8729661 0.1693548
vn -0.4574376 -0.8729661 0.1693548
vn -0.4574376 -0.8729661 0.1693548
vn -0.4574376 -0.8729661 0.1693548
vn -0.4574376 -0.8729661 0.1693548
vn 0.4573309 0.8730728 -0.1690924
vn 0.4573309 0.8730728 -0.1690924
vn 0.4573309 0.8730728 -0.1690924
vn 0.3831103 0.9138941 -0.1342536
vn 0.4016655 0.9046165 -0.1425965
vn 0.6892702 0.6652552 -0.2869531
vn 0.4573309 0.8730728 -0.1690924
vn 0.4573309 0.8730728 -0.1690924
vn 0.4740306 0.8545176 -0.2123549
vn 0.4573309 0.8730728 -0.1690924
vn 0.4573309 0.8730728 -0.1690924
vn -0.4574376 -0.8729661 0.1693548
vn -0.4574376 -0.8729661 0.1693548
vn -0.4574376 -0.8729661 0.1693548
vn -0.4574376 -0.8729661 0.1693548
vn -0.5260916 -0.8265783 0.1999901
vn -0.509392 -0.8377113 0.1968744
vn -0.173544 -0.984297 0.03227923
vn -0.4388825 -0.8896657 0.126004
vn -0.4574376 -0.8729661 0.1693548
vn -0.4574376 -0.8729661 0.1693548
vn -0.4574376 -0.8729661 0.1693548
g Wing_Butterfly_LOD2_0
f 3/3/3 2/2/2 1/1/1
f 4/4/4 3/3/3 1/1/1
f 5/5/5 3/3/3 4/4/4
f 5/5/5 6/6/6 3/3/3
f 6/6/6 5/5/5 7/7/7
f 6/6/6 7/7/7 8/8/8
f 8/8/8 7/7/7 9/9/9
f 12/12/12 11/11/11 10/10/10
f 13/13/13 10/10/10 11/11/11
f 13/13/13 11/11/11 14/14/14
f 15/15/15 13/13/13 14/14/14
f 15/15/15 14/14/14 16/16/16
f 16/16/16 17/17/17 15/15/15
f 17/17/17 18/18/18 15/15/15
f 21/21/21 20/20/20 19/19/19
f 22/22/22 19/19/19 20/20/20
f 22/22/22 21/21/21 19/19/19
f 23/23/23 21/21/21 22/22/22
f 24/24/24 21/21/21 23/23/23
f 25/25/25 21/21/21 24/24/24
f 26/26/26 21/21/21 25/25/25
f 25/25/25 27/27/27 26/26/26
f 24/24/24 27/27/27 25/25/25
f 26/26/26 28/28/28 21/21/21
f 28/28/28 29/29/29 21/21/21
f 21/21/21 29/29/29 30/30/30
f 33/33/33 32/32/32 31/31/31
f 34/34/34 32/32/32 33/33/33
f 33/33/33 35/35/35 34/34/34
f 33/33/33 36/36/36 35/35/35
f 33/33/33 37/37/37 36/36/36
f 38/38/38 37/37/37 33/33/33
f 39/39/39 36/36/36 37/37/37
f 39/39/39 35/35/35 36/36/36
f 40/40/40 38/38/38 33/33/33
f 40/40/40 33/33/33 41/41/41
f 44/44/44 43/43/43 42/42/42
f 44/44/44 45/45/45 43/43/43
f 44/44/44 46/46/46 45/45/45
f 47/47/47 45/45/45 46/46/46
f 47/47/47 46/46/46 48/48/48
f 49/49/49 47/47/47 48/48/48
f 49/49/49 48/48/48 50/50/50
f 51/51/51 49/49/49 50/50/50
f 51/51/51 52/52/52 49/49/49
f 55/55/55 54/54/54 53/53/53
f 56/56/56 55/55/55 53/53/53
f 57/57/57 55/55/55 56/56/56
f 57/57/57 58/58/58 55/55/55
f 59/59/59 58/58/58 57/57/57
f 59/59/59 60/60/60 58/58/58
f 61/61/61 60/60/60 59/59/59
f 61/61/61 62/62/62 60/60/60
f 63/63/63 62/62/62 61/61/61
f 66/66/66 65/65/65 64/64/64
f 64/64/64 67/67/67 66/66/66
f 64/64/64 68/68/68 67/67/67
f 64/64/64 69/69/69 68/68/68
f 70/70/70 69/69/69 64/64/64
f 71/71/71 64/64/64 65/65/65
f 68/68/68 69/69/69 72/72/72
f 72/72/72 67/67/67 68/68/68
f 70/70/70 64/64/64 73/73/73
f 73/73/73 64/64/64 74/74/74
f 77/77/77 76/76/76 75/75/75
f 75/75/75 78/78/78 77/77/77
f 79/79/79 77/77/77 78/78/78
f 80/80/80 77/77/77 79/79/79
f 81/81/81 77/77/77 80/80/80
f 81/81/81 80/80/80 82/82/82
f 79/79/79 82/82/82 80/80/80
f 81/81/81 83/83/83 77/77/77
f 83/83/83 84/84/84 77/77/77
f 77/77/77 84/84/84 85/85/85
